<?xml version="1.0" encoding="UTF-8"?>
<!DOCTYPE svg PUBLIC "-//W3C//DTD SVG 1.1//EN" "http://www.w3.org/Graphics/SVG/1.1/DTD/svg11.dtd">
<!-- Creator: CorelDRAW 2019 (64-Bit) -->
<svg xmlns="http://www.w3.org/2000/svg" xml:space="preserve" width="31mm" height="31mm" version="1.1" style="shape-rendering:geometricPrecision; text-rendering:geometricPrecision; image-rendering:optimizeQuality; fill-rule:evenodd; clip-rule:evenodd"
viewBox="0 0 3100 3100"
 xmlns:xlink="http://www.w3.org/1999/xlink"
 xmlns:xodm="http://www.corel.com/coreldraw/odm/2003">
 <defs>
  <style type="text/css">
   <![CDATA[
    .str2 {stroke:#393185;stroke-width:50;stroke-miterlimit:22.9256}
    .str3 {stroke:#393185;stroke-width:35;stroke-miterlimit:22.9256}
    .str6 {stroke:#393185;stroke-width:20;stroke-miterlimit:22.9256}
    .str5 {stroke:#393185;stroke-width:15;stroke-miterlimit:22.9256}
    .str0 {stroke:#393185;stroke-width:10;stroke-miterlimit:22.9256}
    .str1 {stroke:#393185;stroke-width:7.62;stroke-miterlimit:22.9256}
    .str4 {stroke:#393185;stroke-width:20;stroke-linecap:round;stroke-linejoin:round;stroke-miterlimit:22.9256}
    .fil2 {fill:none}
    .fil4 {fill:none;fill-rule:nonzero}
    .fil0 {fill:#322D8C}
    .fil1 {fill:#393185}
    .fil3 {fill:#393185;fill-rule:nonzero}
   ]]>
  </style>
 </defs>
 <g id="Слой_x0020_1">
  <metadata id="CorelCorpID_0Corel-Layer"/>
  <path class="fil0 str0" d="M1029.66 802.67c14.43,-54.86 43.92,-35.02 92.74,-41.55 65.2,-8.73 38.51,-36.54 65.53,-61.55 30.99,-28.71 74.42,4.2 114.5,-5.76 47.74,-11.88 10.52,-53.92 74.56,-50.96 30.5,1.41 68.85,37.45 108.78,13.55 23.61,-14.14 30.39,-57.34 88.77,-17.29 117.82,80.82 64.2,-65.96 175.83,31.35 51.86,45.21 57.18,11.1 90.14,6.01 37.48,-5.79 53.31,32.43 71.88,52.63 49.14,53.45 53.72,-5.08 99.74,20.3 31.62,17.45 26.75,48.69 54.53,73.2 34.14,30.12 62.16,-7.94 90.17,29.98 20.15,27.29 7.75,56.48 41.75,86.03 34.5,18.75 47.01,-9.2 70.22,29.73 14.17,23.76 4.65,43.32 16.89,76.67 23.44,63.86 84.88,-5.34 77.36,100.62 -7.54,106.21 59.85,50.31 64.09,118.69 1.85,29.73 -14.3,43.19 -10.31,78.79 4.5,40.18 18.62,26.82 43.83,47.38 12.1,78.2 -25.93,58.53 -19,136.6 38.72,28.14 47.96,47.42 13.66,91.82 -39.43,51.04 -23.58,61.21 1.58,100.06 -3,55.26 -20.12,44.19 -45.27,77.39 -33.88,44.71 -3.69,48.12 -1.64,83.7 2.41,41.99 -31.78,47.01 -52.02,63.07 -43.12,34.22 -16.71,44.82 -19.03,82.92 -4.23,69.28 -93.21,14.55 -95.95,122.59 -1.91,75.5 -99.89,15.54 -116.73,105.44 -7.87,41.97 -26.11,43.36 -72.39,47.35 -117.1,10.09 3.6,83.76 -147.91,77.53 -65.64,-2.71 -46.67,18.49 -70.23,45.86 -25.83,30.01 -57.58,9.19 -84.67,3.73 -66.07,-13.31 -49.78,19.22 -76.75,35.96 -33.92,21.05 -63.87,-7.96 -89.64,-16.58 -51.31,-17.18 -51.07,4.12 -72.9,25.85 -65.61,3.33 -49.52,-11.64 -86.18,-33.53 -49.87,-29.78 -51.09,3.95 -82.52,9.11 -39.83,6.53 -56.09,-29.63 -75.13,-45.43 -47.89,-39.75 -47.82,-3.77 -83.59,-4.6 -38.6,-0.89 -46.12,-37.92 -61.03,-58.14 -30.68,-41.59 -43.7,-17.81 -80,-20.35 -41,-2.86 -37.42,-32.73 -54.02,-66.22 -19.3,-38.92 -29.79,-32.82 -81.2,-33.8 -35.6,-36.95 -19.19,-32.46 -37.23,-82.13 -18.28,-50.34 -33.55,-24.93 -68.48,-45.4 -28.31,-16.59 -19.23,-53.56 -25.93,-88.44 -10.09,-52.57 -34.12,-29.16 -60.1,-52.9 -25.33,-23.16 -7.54,-60.39 -8.85,-92.46 -2.45,-59.76 -29.4,-33.93 -49.67,-63.7 -20.42,-29.99 3.05,-58.33 7.6,-85.95 8.98,-54.47 -12.15,-46.1 -35.8,-71.17 -18.85,-86.15 74.74,-94.8 -0.9,-158.71 -2.81,-63.06 7.06,-49.99 32.28,-82.71 37.7,-48.9 6.49,-54.14 -1.76,-83.18 -18.1,-63.71 85.11,-58.09 61.76,-136.35 -26.83,-89.95 83.89,-56.78 80.83,-133.71 -3.13,-78.5 21.08,-56.05 71.42,-83.56 12.15,-6.65 17.46,-13.29 30.4,-21.23 2.61,-30.89 -6.65,-39.36 8.38,-60.41 33.4,-46.81 96.03,5.96 117.61,-76.14zm-424.57 802.54c-4.12,49.64 15.32,49.98 39.96,73.61 3.2,51.7 -20.04,54.44 -14.52,97.81 7.67,60.18 32.8,34.18 54.11,68.71 8.78,43.94 -12.84,50.81 2.33,95.75 18.7,55.43 47.32,28.34 63.77,52.21 16.79,39.36 -2.48,55.47 18.73,92.6 27.66,48.4 33.17,18.47 72.19,41.23 43.75,41.77 -23.38,107.15 114.89,113.55 9.49,18.53 12.49,17.2 22.66,43.41 33.9,87.45 85.48,44.39 111.55,56.21 25.29,11.47 25.34,46.01 55.34,65.46 48.97,31.76 51.59,3.15 90.94,2.17 37.18,19.04 59.18,78.14 118.84,60.5 29.18,-8.63 20.38,-31.59 58.99,-11.36 22.6,11.85 23.03,27.26 53.19,34.95 83.66,21.33 51.67,-56.02 125.09,-18.81 98.46,49.92 97.76,-12.81 119.01,-24.38 50.04,-6.36 58.05,18.83 103.63,9.7 43.54,-8.72 36.13,-30.3 55.18,-56.21 44.18,-6.43 66.77,8.7 103.33,-6.38 14.54,-6 22.73,-12.01 29.58,-23.6 4.95,-8.38 3.89,-9.86 7.51,-18.64 22.29,-54.11 50.57,-18.15 99.08,-42.56 34.42,-17.32 31.36,-27.96 38.25,-74.9 23.21,-11.56 71.36,-22.19 89.06,-38.39 43.09,-39.44 12.18,-43.25 27.72,-79.34 11.78,-27.35 47.96,-23.8 72.06,-48.55 40.74,-41.83 13.54,-53.78 15.64,-82.83 2.16,-29.94 40.79,-35.9 61.21,-61.11 39.16,-48.34 3.8,-65.22 3.95,-92.78 0.16,-31.59 36.56,-40.03 49.83,-67.82 24.56,-51.46 -4.47,-61.59 -15.04,-93.29 12.83,-47.55 34.55,-45.73 40.38,-82.3 9.06,-56.76 -15.51,-52.19 -33.12,-78.29 3.02,-52.17 25.62,-49.67 24.58,-93.72 -1.1,-46.26 -25.96,-46.18 -47,-68.12 -3.05,-47.98 17.58,-61.94 7.08,-102.52 -10.73,-41.49 -36.27,-32.95 -58.39,-56.81 -8.51,-35.56 4.18,-59.62 -7.5,-91.53 -16.86,-46.03 -30.39,-28.93 -64.98,-48.88 -26.88,-32.45 -7.36,-55.55 -28.21,-91.93 -20.13,-35.11 -30.56,-28.59 -78.45,-34.57 -11.31,-23.48 -24.86,-72.58 -39.43,-88.66 -29.22,-32.28 -50.62,-10.28 -83.2,-23.49 -31.09,-19.38 -20.66,-46.34 -49.74,-71.11 -44.75,-38.1 -57.56,-3.31 -92.93,-13.19 -31.1,-8.68 -22.28,-39.69 -60.88,-60.71 -56.51,-30.76 -58.58,7.03 -87.11,5.15 -29.12,-1.91 -36.46,-35.9 -70.19,-48.5 -58.88,-22.01 -58.04,11.75 -87.12,17.55 -34.88,6.96 -49.4,-28.11 -85.68,-34.21 -53.67,-9.02 -56.85,12.33 -80,35.2 -58.39,4.05 -53.36,-21 -99.66,-19.14 -53.08,2.13 -42.61,21.8 -67.64,49.74 -51.84,9.5 -57.1,-14.34 -103.9,-0.73 -47.86,13.92 -28.15,38.04 -54.21,59.83 -24.82,20.74 -64.2,2.91 -96.58,17.24 -43.02,19.04 -30.39,31.68 -44.85,68.36 -32.17,42.81 -119.89,-19.02 -120.2,114.67 -99.25,46.84 -107.45,35.3 -102.17,125.08 -27.15,30.31 -88.06,48.17 -87.14,100.49 0.62,34.78 25.34,32.86 -1.16,65 -17.11,20.75 -29.58,19.08 -44.12,43.59 -44.17,74.42 42.57,67.69 -10.34,130.02 -72.81,85.77 -8.57,86.9 -2.06,122.59 -8.14,49.67 -29.07,50.07 -32.14,86.98z"/>
  <g id="_1528165490688">
   <path class="fil1 str1" d="M1491.78 2155.95c-27.98,-11.33 -106.87,-75.14 -136.65,-97.26 -130.81,-97.18 -261.77,-189.25 -359.93,-322.5 -77.28,-104.91 -96.41,-231.32 3.18,-319.47 95.38,-84.41 74.62,-30.36 349.41,7.13 17.09,147.13 47.12,230.75 128.86,312.51 81.13,81.15 142.61,123.6 299.58,142.27 -16.24,31.34 -173.23,177.73 -212.21,210.74l-72.24 66.58zm-82.07 -816.8c23.6,7.27 31.37,16.38 43.36,34.98 -15.62,24.28 -24.04,25.35 -54.1,25.26l10.74 -60.24zm-280.99 9.07c25.67,-18.91 76.65,-25.07 107.74,-28.78 45.45,-5.43 82.09,-3.76 129.1,3l-15.32 76.87c-74.48,-6.03 -153.72,-31.33 -221.52,-51.09zm294.79 -34.31c22,-88.7 141.91,-171.55 246.88,-194.88 140.05,-31.11 260.76,23.37 315.83,107.85 144.97,222.39 -72.45,491.42 -166.74,607.45 -133.09,2.92 -235.3,-47.71 -301.08,-112.82 -57.76,-57.16 -124.85,-170.39 -120.02,-293.85 32.48,-18.83 45.26,-5.83 77.54,-34.36 7.49,-53.98 -24.57,-53.04 -52.41,-79.39zm492.05 491.5l-8.83 6.32 10.69 -5.12c3.79,-19.45 62.4,-98.71 87.81,-146.02 92.45,-172.11 117.69,-391.54 -24.91,-514.61 -213.72,-184.45 -539.13,-40.04 -600.07,150.77 -121.14,-18.14 -172.36,-20.74 -280.98,20.24 -47.32,17.86 -71.6,-4.12 -118.71,-21.37 -34.67,-12.7 -85,-26.46 -99.61,-55.31 40.13,-26.45 104.76,-5.56 151.94,-20.08 -34.61,-25.67 -145.92,-7.36 -170.43,20.08 12.44,57.74 119.34,76.89 146.8,101.26 7.28,2.07 34.48,6.26 6.69,12.08 -11.13,19.97 -249.63,119.5 -60.73,388.91 73.06,104.2 80.87,93.59 118.69,135.65 67.32,74.86 358.75,304.62 417.12,328.58l334.11 -297.78c63.27,-75.37 35.24,-28.15 126.59,-74.06 190.32,-95.63 301,-299.04 284.11,-536.13 -13.55,-190.38 -67.54,-266.61 -139.76,-405.62l-3.16 12.52c21.84,26.59 74.75,184.94 87.69,233.94 23.9,90.57 38.69,199.81 23.53,297.64 -25.57,165 -183.07,364.4 -288.58,368.11z"/>
   <path class="fil1 str1" d="M1774.87 1315.5l82.28 0.64 -0.04 80.33 -82.39 0.89 3.66 77.61 -81.17 1.85 -0.64 -79.3 -79.64 -1.33 0.87 -79.77 79.62 -1.36 0.49 -79.47 78.35 0.33 -1.39 79.58zm-84.31 -138.52c-259.06,63.05 -171.71,457.53 97.28,393.15 250.84,-60.03 163.6,-456.65 -97.28,-393.15z"/>
  </g>
  <circle class="fil2 str2" cx="1550" cy="1550" r="1500"/>
  <circle class="fil2 str3" cx="1550" cy="1550" r="1425"/>
  <circle class="fil2" cx="1550" cy="1550" r="924.99"/>
  <circle class="fil2" cx="1550" cy="1550" r="850"/>
  <path class="fil3" d="M561.32 2008.56c-0.59,-1.12 -1.61,-3.71 -3.15,-7.76 -2.38,-6.22 -4.53,-11.03 -6.59,-14.49 -2.5,-4.28 -5.69,-8.55 -9.6,-12.94l9.57 -3.05c3.56,4.62 6.09,8.26 7.76,11.07 2.49,4.22 5.46,10.09 8.91,17.54 3.73,7.92 7.18,14.55 10.32,19.88 2.67,4.58 5.92,8.56 9.82,12.01 -11.52,1.94 -38.06,9.06 -79.74,21.32 -52.5,15.36 -90.56,23.54 -114.01,24.54 5.68,9.02 9.95,15.94 12.73,20.69 8.19,13.84 16.08,28.91 23.8,45.16 14.75,-2.07 43.83,-9.44 87.1,-22.12 47.61,-13.86 81.1,-18.03 100.54,-12.3 19.43,5.67 32.7,14.6 39.88,26.79 3.9,6.76 6.06,13.92 6.38,21.5 0.4,7.58 -1.82,12.77 -6.56,15.55 -2.59,1.54 -5.22,1.91 -7.93,1.15 -2.71,-0.69 -4.72,-2.14 -5.96,-4.38 -2.32,-3.92 -1.99,-9.52 1.09,-16.81 2.85,-6.84 3.24,-12.07 1.16,-15.65 -5.09,-8.62 -16.7,-12.15 -34.92,-10.6 -18.21,1.5 -53.75,9.68 -106.53,24.51l-59.95 16.69c13.09,21.99 27.39,35.56 42.87,40.6 15.49,5.04 29.48,3.92 41.97,-3.43 3.46,-2.02 5.91,-4.15 7.44,-6.34 1.51,-2.24 3.14,-6.18 4.99,-11.96 1.68,-5.47 4.01,-9.18 7.12,-10.96 2.64,-1.55 5.52,-1.92 8.59,-0.99 3.06,0.93 5.42,2.75 6.96,5.38 2.96,5.1 2.4,10.63 -1.75,16.77 -4.14,6.07 -9.88,11.28 -17.15,15.6 -18.93,11.09 -40.21,12.78 -63.89,5.02 -23.73,-7.77 -42.68,-23.85 -57.03,-48.18 -4.8,-8.1 -10.85,-20 -18.16,-35.66 -14.5,-31.45 -30.4,-61.83 -47.71,-91.21 -6.58,-11.19 -13.65,-14.51 -21.28,-10.06 -0.71,0.41 -1.99,1.36 -3.92,2.9 -1.7,1.41 -2.87,2.3 -3.58,2.72 -2.69,1.55 -5.39,1.96 -8.16,1.22 -2.83,-0.76 -4.95,-2.39 -6.37,-4.86 -1.78,-2.98 -2.09,-6.04 -1.05,-9.28 1.04,-3.18 3.32,-5.84 6.9,-7.97 6.92,-4.03 15.26,-4.14 25.1,-0.18 9.9,3.89 19.77,14.02 29.73,30.25 3.08,4.99 4.97,7.97 5.63,8.91 49.46,-7.7 109.01,-23.22 178.63,-46.59z"/>
  <path id="_1" class="fil3" d="M428.45 1910.29l-4.88 8.25c-14.83,-6.74 -26.48,-14.34 -34.94,-22.75 -8.48,-8.41 -13.71,-16.26 -15.66,-23.63 -0.8,-2.76 -0.67,-5.12 0.28,-7.11 0.96,-1.99 2.73,-3.33 5.38,-4.07 3.24,-0.87 6.59,-1.37 10.18,-1.58 3.59,-0.22 12.23,-0.16 25.87,0.17 -21.55,-12.31 -35.19,-21.05 -40.86,-26.15 -9.59,-8.58 -15.58,-17.22 -17.94,-25.87 -1.49,-5.66 -0.16,-11.12 4.11,-16.44 4.27,-5.32 11.77,-9.44 22.55,-12.37 26.8,-7.28 54.54,-5.87 83.23,4.33 28.74,10.12 45.8,25.36 51.31,45.62 2.18,8.01 2.18,16.53 0.07,25.69l58.68 -0.78c3.58,-0.04 6.41,-0.31 8.47,-0.89 4.12,-1.09 6.67,-3.48 7.57,-7.05 1.45,-5.53 1,-16.17 -1.36,-31.94l8.87 -0.06c3.41,18.19 6.54,32.44 9.3,42.64 2.87,10.48 7.3,23.91 13.25,40.3l-8.88 0.06c-3.18,-8.2 -7.14,-13.63 -11.94,-16.43 -4.86,-2.8 -12.38,-4.08 -22.67,-3.8l-134.32 4.21c-25,0.77 -38.82,1.5 -41.53,2.19 -2.83,0.8 -3.9,2.62 -3.15,5.39 1.32,4.83 10.96,12.19 29.01,22.07zm69.35 -54.93c6.36,-11.12 8.25,-21.28 5.79,-30.47 -3.62,-13.32 -17.14,-22.16 -40.63,-26.55 -23.44,-4.4 -45.02,-3.9 -64.75,1.5 -6.3,1.66 -10.67,4.39 -13.23,8.14 -2.49,3.69 -3.05,7.91 -1.79,12.69 1.44,5.3 5.7,10.62 12.71,15.84 10.89,8.07 21.08,13.78 30.52,17.03 6.81,2.33 17.8,3.23 32.92,2.86l38.46 -1.04z"/>
  <path id="_2" class="fil3" d="M257.64 1636.46c-0.4,-3.52 0.43,-6.58 2.5,-9.16 2.06,-2.52 4.95,-4.05 8.6,-4.45 5,-0.58 9.64,0.67 13.86,3.69 4.23,3.01 6.57,6.71 7.09,11.01 0.4,3.41 -0.49,6.41 -2.62,8.99 -2.11,2.58 -5.12,4.04 -9,4.5 -5.11,0.64 -9.7,-0.56 -13.63,-3.45 -4,-2.89 -6.27,-6.6 -6.8,-11.13zm121.04 54.14l-4.96 8.21c-13.85,-9.91 -24,-19.29 -30.38,-28.07 -6.39,-8.78 -9.96,-16.5 -10.76,-23.08 -0.41,-3.64 0.07,-6.52 1.44,-8.7 1.35,-2.11 3.41,-3.34 6.12,-3.62 3.35,-0.41 17.76,1.69 43.37,6.17 41.85,7.41 66.95,10.59 75.29,9.62 1.59,-0.18 2.89,-0.76 3.84,-1.64 1,-0.94 1.47,-1.88 1.36,-2.76 -0.46,-3.65 -8.62,-12.19 -24.46,-25.59l5.73 -7.39c16.48,13.86 27.22,24.18 32.13,30.89 4.98,6.67 7.74,12.31 8.25,16.9 0.46,3.95 -0.43,7.3 -2.68,9.87 -2.24,2.65 -5.59,4.22 -10,4.74 -14.24,1.67 -50.09,-2.84 -107.44,-13.47 -2.71,-0.48 -5.12,-0.6 -7.12,-0.37 -2.29,0.29 -3.3,1.4 -3.07,3.46 0.24,2.3 1.46,4.77 3.63,7.48 2.17,2.71 8.73,8.49 19.71,17.35z"/>
  <path id="_3" class="fil3" d="M411.61 1511.99l-9.95 -0.97c-5.85,-14.45 -11.93,-25.13 -18.13,-32.11 -6.25,-6.93 -13.61,-10.55 -22.07,-10.82 -10.36,-0.32 -15.64,4.16 -15.9,13.45 -0.44,13.47 6.78,28.56 21.52,45.27l-6.27 7.43c-10.97,-13.08 -18.65,-24.35 -23.03,-33.8 -4.31,-9.4 -6.33,-19.22 -6.07,-29.27 0.59,-19.29 8.51,-28.72 23.62,-28.23 13.41,0.37 25.6,8.81 36.46,25.25 -0.25,-4.18 -0.32,-7.29 -0.26,-9.35 0.55,-17.29 8.4,-25.72 23.69,-25.29 14.11,0.43 28.59,8.98 43.46,25.64 14.92,16.66 22.08,34.63 21.48,54.03 -0.42,13.29 -3.57,23.12 -9.56,29.37 -5.92,6.25 -12.79,9.26 -20.55,8.99 -3.95,-0.11 -7.17,-1.45 -9.71,-4.08 -2.54,-2.59 -3.78,-5.7 -3.68,-9.23 0.12,-3.12 1.22,-5.82 3.34,-8.18 2.17,-2.36 4.74,-3.48 7.86,-3.37 1.18,0.05 2.65,0.16 4.47,0.45 1.36,0.17 2.65,0.29 3.77,0.29 4.12,0.17 7.52,-1.44 10.22,-4.73 2.69,-3.31 4.15,-7.66 4.25,-13.07 0.44,-12.93 -4.47,-23.86 -14.66,-32.65 -10.14,-8.79 -21.68,-13.41 -34.56,-13.78 -11.82,-0.38 -17.86,4.87 -18.18,15.8 -0.22,6.88 2.57,17.87 8.44,32.96z"/>
  <path id="_4" class="fil3" d="M427.89 1269.9l1.84 -8.4c3.56,-14.99 12.7,-20.73 27.45,-17.23 15.04,3.57 27.12,15.65 36.24,36.19 9.12,20.61 11.67,39.19 7.74,55.82 -4.93,20.68 -18.35,28.35 -40.33,23.19 -26.15,-6.24 -49.63,-20.23 -70.4,-42.09 -20.75,-21.86 -28.58,-43.52 -23.48,-64.92 3.87,-16.33 13.24,-22.72 28.05,-19.21 14.5,3.44 25.47,15.7 32.89,36.65zm2.17 49.87c-6.44,-36.66 -18.03,-56.96 -34.89,-61 -10.64,-2.5 -17,0.66 -19.07,9.47 -4.1,17.34 13.9,34.49 53.96,51.53zm11.75 4.2c5.99,2.48 12.04,4.44 18.04,5.86 10.05,2.44 17.39,2.92 21.92,1.59 4.59,-1.35 7.54,-4.8 8.84,-10.39 1.9,-8.05 -0.48,-17.29 -7.1,-27.83 -6.61,-10.54 -15.65,-17.21 -27.05,-19.88 -11.7,-2.79 -18.64,0.31 -20.78,9.24 -1.67,7.11 0.36,20.93 6.13,41.41z"/>
  <path id="_5" class="fil3" d="M449.32 1029.38l9.14 -22.64 49.68 37.43c28.85,21.88 45.5,33.67 49.97,35.49 2.07,0.82 3.77,0.93 5.24,0.4 1.41,-0.53 2.4,-1.36 2.87,-2.53 0.71,-1.83 0.76,-4.23 0.17,-7.35 -1.07,-4.52 -4.55,-13.63 -10.51,-27.44l8.05 -2.9c13.63,30.38 18.42,50.6 14.39,60.72 -1.41,3.41 -3.88,5.82 -7.46,7.18 -3.59,1.3 -7.76,1.01 -12.53,-0.92 -5.53,-2.22 -12.47,-6.33 -20.83,-12.43 7.08,13.86 11.93,29.38 14.48,46.66 1.72,11.46 1.21,20.58 -1.54,27.41 -1.52,3.7 -3.93,6.18 -7.23,7.3 -3.29,1.18 -7.64,0.66 -12.93,-1.52 -4.18,-1.63 -8.41,-3.92 -12.83,-6.79 -6.18,-4.11 -18.25,-13.02 -36.2,-26.82 -22.78,-17.48 -36.73,-27.22 -41.86,-29.27 -3,-1.23 -4.93,-0.76 -5.75,1.36 -0.76,1.95 -0.88,4.94 -0.23,9.06 0.65,4.11 3.14,11.63 7.51,22.68l-8.4 4.78c-7.08,-19.4 -11.05,-33.68 -12.06,-42.79 -0.97,-9.11 -0.5,-15.99 1.32,-20.58 1.05,-2.53 2.81,-4.23 5.28,-5.06 2.52,-0.89 5.76,-0.49 9.7,1.1 7.36,2.93 23.83,14.01 49.5,33.26 23.2,17.24 36.56,26.57 40.15,28.04 2.24,0.88 4.47,0.93 6.64,0.17 2.17,-0.83 3.59,-2.07 4.29,-3.78 2.4,-5.94 0.91,-16.4 -4.58,-31.33 -5.44,-14.92 -13.75,-26.61 -24.93,-35.12l-58.51 -43.77z"/>
  <path id="_6" class="fil3" d="M682.97 853.49c4.09,18.08 5.69,33.41 4.74,46 -0.89,12.65 -2.59,20.66 -5.03,24.15 -1.74,2.43 -4.61,3.98 -8.6,4.72 -3.99,0.68 -8.06,-0.4 -12.2,-3.31 -4.96,-3.54 -10.77,-9.14 -17.37,-16.9 3.44,9.85 5.25,22.48 5.38,37.82 0.2,15.34 -1.66,25.76 -5.49,31.21 -5.06,7.22 -12.11,7.63 -21.16,1.31 -6.45,-4.55 -19.8,-19.18 -40.01,-43.94 -18.24,-22.18 -29.58,-34.9 -34.13,-38.04 -2.61,-1.86 -4.61,-1.85 -5.88,-0.01 -3.03,4.26 -3.05,15.07 -0.13,32.57l-9.33 2.73c-4.46,-32.6 -3.12,-53.95 3.91,-64.01 3.67,-5.14 8.9,-5.31 15.76,-0.48 6.39,4.46 19.86,19.05 40.48,43.63 18.59,22.07 29.51,34.2 32.71,36.47 1.95,1.33 4.07,1.9 6.42,1.64 2.29,-0.3 3.93,-1.15 4.92,-2.57 1.56,-2.25 2.1,-8.13 1.55,-17.71 -0.55,-9.63 -1.98,-17.68 -4.2,-24.3 -2.24,-6.63 -7.19,-14.52 -14.91,-23.74l-46.93 -56 14.05 -19.99 39.87 47.82c22.22,26.86 35.41,41.73 39.54,44.63 3.2,2.27 5.84,1.9 7.88,-1 2.38,-3.37 3.14,-10.73 2.27,-22.07 -0.85,-11.34 -2.35,-20.09 -4.45,-26.19 -2.11,-6.09 -6.71,-13.41 -13.78,-21.87l-46.99 -55.98 14.12 -20 39.86 47.82c23.12,27.79 36.65,43.01 40.62,45.81 3.67,2.55 6.43,2.47 8.35,-0.25 2.38,-3.38 1.63,-15.36 -2.2,-36.09l8.46 -0.95c1.56,10.21 5.5,17.53 11.89,22.01 2.13,1.56 5.44,3.07 9.8,4.62 4.6,1.66 7.91,3.22 9.86,4.61 6.21,4.3 9.44,11.15 9.82,20.44 0.31,9.29 -3.48,19.61 -11.37,30.85 -7.32,10.41 -14.59,19.88 -21.81,28.29 -5.94,6.87 -9.5,11.14 -10.6,12.74 -4.06,5.74 -3.73,10.25 1,13.51 3.2,2.27 6.13,1.83 8.75,-1.37 3.44,-3.9 6.84,-4.65 10.27,-2.32 1.6,1.16 2.55,2.8 2.87,5.03 0.37,2.23 -0.08,4.18 -1.25,5.83 -2.44,3.49 -6.36,5.41 -11.77,5.8 -5.4,0.46 -10.53,-1.02 -15.31,-4.39 -6.93,-4.88 -10.58,-11.73 -10.82,-20.54 -0.26,-8.82 2.03,-16.66 6.84,-23.52 2.79,-3.97 7.69,-9.3 14.63,-16.06 9.38,-9.14 16.49,-17.14 21.31,-24 3.77,-5.33 5.27,-9.98 4.59,-13.97 -0.69,-4.05 -2.3,-6.92 -4.85,-8.73 -1.24,-0.81 -2.89,-1.73 -5.07,-2.66 -2.6,-1.27 -4.67,-2.48 -6.15,-3.53 -3.37,-2.38 -6.57,-6 -9.56,-10.91l-0.42 -0.29c3.88,19.43 3.11,32.96 -2.29,40.64 -1.91,2.79 -4.9,4.46 -8.84,5.09 -3.99,0.67 -7.99,-0.47 -12.14,-3.37 -4.97,-3.49 -10.84,-9.09 -17.48,-16.73z"/>
  <path id="_7" class="fil3" d="M832.9 688.75l9.34 1.57c-1.95,38.74 -10.14,65.05 -24.65,78.89 -5.9,5.63 -12.31,7.89 -19.25,6.87 -6.87,-1.02 -14.56,-5.92 -22.94,-14.72 -16.93,-17.74 -28.39,-40.6 -34.36,-68.48 -6.95,-31.6 -1.99,-55.39 14.87,-71.45 5.9,-5.63 11.79,-8.43 17.72,-8.47 5.94,-0.04 11.34,2.56 16.27,7.69 5.1,5.43 8.3,12.5 9.57,21.32 1.21,8.76 -0.24,20.58 -4.52,35.38 -2.2,7.34 -7.77,22.08 -16.78,44.28 3.57,5.18 7.26,9.85 11.13,13.91 5.62,5.9 10.44,9.09 14.55,9.63 4.05,0.54 7.88,-0.86 11.48,-4.26 3.42,-3.22 6.25,-7.73 8.5,-13.55 3.03,-7.81 6.01,-20.68 9.07,-38.61zm-60.81 23.51c7.64,-18.73 11.57,-34.77 11.73,-48.06 -0.03,-9.17 -2.3,-16.12 -6.81,-20.83 -3.4,-3.6 -7.04,-5.55 -10.92,-5.86 -3.88,-0.36 -7.3,0.92 -10.3,3.73 -3.07,2.93 -4.96,6.92 -5.68,12.04 -0.97,6.82 0.18,14.58 3.45,23.35 4.9,12.78 11.09,24.62 18.53,35.63z"/>
  <path id="_8" class="fil3" d="M1013.82 381.16l2.23 9.52c-10.78,7.28 -17.4,13.02 -19.79,17.26 -1.58,2.77 -2.33,6.01 -2.31,9.72 0.2,4.7 5.84,26.84 16.91,66.42 3.65,13.03 14.22,48.26 31.73,105.8 8.21,-1.81 17.55,-5.97 27.99,-12.49l1.8 8.52c-3.11,1.95 -9.68,5.28 -19.71,9.98 -7.15,3.43 -15.31,7.83 -24.4,13.16 -12.54,7.42 -23.5,15.17 -32.93,23.21l-2.8 -8.92c9.89,-8.11 16.86,-15.14 20.89,-21.15 0.98,-1.48 1.57,-2.96 1.79,-4.42 0.47,-2.65 -0.03,-7.17 -1.47,-13.58 -1.44,-6.4 -8.5,-31.95 -21.19,-76.57 -3.64,-12.92 -11.95,-40.92 -25.03,-83.96 -6.98,3.8 -14.78,9.66 -23.44,17.57l-1.99 -9.8c3.52,-3.55 7.32,-6.8 11.42,-9.82 4.1,-3.02 13.66,-9.23 28.78,-18.65 14.13,-8.84 24.61,-16.12 31.52,-21.8z"/>
  <path id="_9" class="fil3" d="M1168.62 431.55l-8.92 -3.82c17.53,-27.99 32.35,-43.65 44.53,-46.92 5.78,-1.6 9.99,1.07 12.71,7.97l39.42 100.28 39.33 -128.5 23.55 -6.37 0 62.26c0.11,36.17 0.73,56.57 1.99,61.23 1.22,4.3 3.38,6.02 6.62,5.16 4,-1.09 11.12,-10.86 21.48,-29.25l7.14 4.69c-15.84,29.18 -29.12,45.19 -39.72,48.12 -3.01,0.8 -6.23,0.2 -9.75,-1.77 -3.52,-1.96 -5.96,-5.39 -7.27,-10.39 -2.08,-7.43 -3.17,-26.96 -3.43,-58.53l-0.43 -41.46 -38.37 126.62 -12.48 3.39 -37.01 -93.44c-3.27,49.07 -8.47,79.85 -15.49,92.2 -7.08,12.43 -16.49,20.18 -28.39,23.45 -5.83,1.55 -10.77,1.22 -14.63,-1.09 -3.92,-2.39 -6.43,-5.58 -7.52,-9.7 -1.09,-3.95 -0.71,-7.83 1.14,-11.52 1.84,-3.74 4.74,-6.14 8.75,-7.23 2.53,-0.69 6,-0.73 10.47,-0.17 4.87,0.45 8.28,0.47 10.17,-0.05 4.83,-1.38 8.97,-5.64 12.37,-12.85 3.41,-7.2 6.69,-23.88 9.98,-50.02 3.24,-26.09 4.22,-41.6 2.84,-46.43 -0.74,-2.77 -2.5,-3.79 -5.27,-3.04 -6.66,1.78 -14.59,10.83 -23.81,27.18z"/>
  <path id="_10" class="fil3" d="M1449.74 361.06l5.53 -67.13c0.85,-9.35 2.39,-15.63 4.46,-18.8 2.13,-3.23 4.95,-4.99 8.48,-5.44 2.3,-0.24 4.12,0.18 5.52,1.3 1.41,1.07 2.23,2.77 2.52,5.06 0.17,1.47 -0.49,5.7 -2.04,12.7l-15.42 69.57c-0.89,4.24 -2.48,6.52 -4.78,6.75 -3.05,0.4 -4.46,-0.95 -4.27,-4.01z"/>
  <path id="_11" class="fil3" d="M1535.81 439.46c2.56,10.64 4.45,17.1 5.76,19.38 1.29,2.3 3.42,3.47 6.29,3.58 5.35,0.16 11.81,-5.56 19.3,-17.17 7.55,-11.83 14.06,-19.79 19.52,-23.86 5.39,-4.07 14.27,-7.51 26.66,-10.25l0.05 -2.23 -4.47 -0.1c-14.58,-0.49 -25.4,-3.58 -32.53,-9.38 -7.13,-5.75 -10.57,-12.79 -10.29,-21.09 0.38,-12.81 8.64,-23.18 24.79,-31.04 16.15,-7.93 37.3,-11.45 63.47,-10.69l30.76 1.62 -18.01 59.6c-10.43,34.6 -15.79,54.32 -15.9,59.14 -0.16,4.46 1.38,6.75 4.61,6.81 4.11,0.16 13.79,-7.1 29.04,-21.67l5.49 6.52c-23.63,23.28 -40.95,34.8 -51.83,34.47 -3.82,-0.16 -6.94,-1.79 -9.42,-4.97 -2.48,-3.17 -3.66,-7.81 -3.45,-13.86 0.16,-6.12 1.56,-13.41 4.12,-21.94l8.8 -29.54c-9.65,-0.27 -17.51,2.21 -23.61,7.47 -6.17,5.24 -14.25,16.21 -24.26,32.75 -11.53,18.73 -24.03,27.87 -37.55,27.44 -5.41,-0.16 -10.18,-2.14 -14.31,-5.9 -4.12,-3.81 -8.04,-14.61 -11.72,-32.42l8.69 -2.67zm120.82 -87.28c-6.82,-2.16 -14.41,-3.38 -22.81,-3.59 -9.77,-0.33 -18.64,2.29 -26.74,7.77 -8.1,5.49 -12.31,12.85 -12.58,22.03 -0.49,15.93 9.88,24.26 31.11,24.9 3.53,0.12 8.76,-0.13 15.7,-0.74l15.32 -50.37z"/>
  <path id="_12" class="fil3" d="M1995.65 560.61c1.11,0.59 3.53,2 7.24,4.22 5.64,3.52 10.29,5.98 14.05,7.51 4.6,1.87 9.71,3.28 15.48,4.38l-5.75 8.3c-5.58,-1.52 -9.83,-2.86 -12.82,-4.1 -4.59,-1.81 -10.54,-4.62 -17.77,-8.43 -7.77,-3.99 -14.6,-7.15 -20.3,-9.5 -4.95,-1.93 -9.95,-3.09 -15.12,-3.44 7.87,-8.59 24.59,-30.44 50.11,-65.58 32.27,-44.21 57.38,-73.94 75.35,-89.08 -10,-3.68 -17.58,-6.5 -22.71,-8.61 -14.94,-5.97 -30.35,-13.06 -46.42,-21.2 -10.45,10.59 -28.94,34.14 -55.5,70.64 -29.23,40.09 -53.3,63.82 -72.16,71.14 -18.8,7.32 -34.79,8.34 -47.91,3.08 -7.24,-2.88 -13.3,-7.28 -18.19,-13.09 -4.95,-5.81 -6.37,-11.28 -4.32,-16.4 1.12,-2.76 2.99,-4.65 5.58,-5.71 2.58,-1.07 5.06,-1.13 7.41,-0.19 4.23,1.7 7.41,6.4 9.42,13.98 1.9,7.23 4.78,11.64 8.61,13.16 9.3,3.69 20.63,-0.57 34.14,-12.93 13.5,-12.31 36.69,-40.45 69.42,-84.49l37.32 -49.74c-23.82,-9.49 -43.42,-11.45 -58.75,-6.02 -15.4,5.44 -25.79,14.91 -31.17,28.33 -1.47,3.7 -2.17,6.88 -1.99,9.58 0.18,2.65 1.24,6.82 3.32,12.47 2.06,5.4 2.42,9.75 1.08,13.05 -1.17,2.88 -3.23,4.89 -6.23,6.06 -2.99,1.13 -5.94,1.13 -8.82,-0.04 -5.41,-2.17 -8.36,-6.92 -8.78,-14.33 -0.49,-7.36 0.92,-14.94 4.07,-22.82 8.15,-20.36 24,-34.67 47.51,-43 23.5,-8.27 48.38,-7.19 74.61,3.35 8.71,3.51 20.77,9.26 36.13,17.17 30.72,16.06 61.85,30.42 93.5,43.13 12.01,4.86 19.7,3.2 22.98,-5.03 0.3,-0.77 0.76,-2.3 1.34,-4.66 0.47,-2.17 0.88,-3.58 1.17,-4.35 1.17,-2.88 3.05,-4.88 5.76,-5.95 2.64,-1.11 5.34,-1.12 7.99,-0.07 3.18,1.29 5.36,3.53 6.48,6.7 1.12,3.23 0.95,6.7 -0.63,10.52 -2.99,7.47 -9.57,12.66 -19.79,15.56 -10.16,2.89 -24.16,0.91 -41.99,-5.88 -5.47,-2.05 -8.77,-3.28 -9.88,-3.56 -34.51,36.21 -72.19,84.83 -113.07,145.87z"/>
  <path id="_13" class="fil3" d="M2252.82 551.69c9.41,6.17 14.82,14.99 16.23,26.57 1.36,11.58 -2.28,24.04 -10.98,37.4 -13.87,21.4 -33.8,35.7 -59.84,42.93 -26.04,7.24 -47.44,5.43 -64.21,-5.44 -10.29,-6.7 -16.4,-15.46 -18.35,-26.27 -1.89,-10.82 0.94,-22.06 8.46,-33.7 13.1,-20.24 31.03,-35.17 53.66,-44.76 28.34,-11.89 53.33,-10.77 75.03,3.27zm-19.29 2.89c-8.22,-5.29 -19.93,-4.58 -35.15,2.12 -15.24,6.71 -29.58,20.41 -42.91,41 -8.12,12.52 -12.17,23.93 -12.16,34.17 0.06,7.58 2.94,13.22 8.7,16.98 8.11,5.23 18.7,4.99 31.87,-0.71 16.87,-7.47 31.56,-20.89 44.09,-40.12 9.34,-14.46 14.1,-25.99 14.22,-34.69 0.05,-8.7 -2.84,-14.94 -8.66,-18.75z"/>
  <path id="_14" class="fil3" d="M2437.61 758.43c26.75,1.08 45.27,7.74 55.59,20.05 5.77,6.86 7.31,14.28 4.66,22.26 -2.64,8.03 -8.35,15.69 -17.1,23.09 -20.83,17.49 -45.71,27.07 -74.66,28.56 -28.87,1.55 -50.23,-5.78 -63.86,-22.06 -7.11,-8.39 -10.17,-17 -9.16,-25.82 1,-8.81 5.06,-16.18 12.21,-22.19 5.98,-5.01 15.32,-10.88 28.12,-17.6l82.76 -43.08c32.52,-16.99 58.67,-22.91 78.39,-17.76 19.78,5.07 33.95,12.76 42.52,22.94 2.44,2.9 5.23,7.1 8.32,12.53 11.72,20.31 19.33,32.6 22.89,36.8 2.62,3.19 8.31,5.18 16.94,6.01l0.43 6.4c-13.48,2.32 -23.18,2.31 -29.17,-0.04 -5.92,-2.33 -11.18,-6.19 -15.78,-11.69 -5.83,-6.92 -15.07,-21.34 -27.67,-43.31 -4.06,-6.91 -7.08,-11.57 -9.07,-13.94 -3.61,-4.32 -8.55,-5.89 -14.78,-4.76 -6.25,1.14 -18.34,6.28 -36.22,15.5l-55.36 28.11zm-78.09 41.64c-4.56,3.85 -7.13,8.65 -7.7,14.46 -0.51,5.76 0.81,10.53 4.01,14.32 8.63,10.24 24.02,12.41 46.23,6.39 22.15,-5.94 40.39,-14.93 54.58,-26.93 5.45,-4.54 9.55,-9.81 12.18,-15.61 2.68,-5.86 2.25,-10.86 -1.31,-15.07 -3.79,-4.49 -11.29,-7.48 -22.45,-8.92 -11.22,-1.43 -25.53,1.11 -42.93,7.68 -17.45,6.57 -31.67,14.47 -42.61,23.68z"/>
  <path id="_15" class="fil3" d="M2629.88 966.98l8.18 8.28 -43.58 12.75c-17.37,5.07 -36.84,11.81 -58.3,20.21 -11.72,4.56 -19.04,7.79 -22.03,9.69 -2.98,1.97 -3.73,4.09 -2.12,6.54 0.94,1.53 3.55,3.33 7.79,5.41 7.39,3.65 15.58,6.53 24.42,8.63l-2.65 8.26c-17.15,-4.52 -27.75,-7.67 -31.87,-9.34 -8.26,-3.47 -15.17,-7.29 -20.79,-11.6 -3.73,-2.79 -6.69,-5.95 -8.96,-9.4 -1.6,-2.51 -2.27,-4.74 -1.87,-6.75 0.34,-2 1.62,-3.72 3.84,-5.14 1.41,-0.96 3.63,-1.85 6.68,-2.7l23.42 -6.88c-15.31,-1.88 -30.22,-6.29 -44.79,-13.18 -8.98,-4.17 -15.36,-9.18 -19.17,-15.08 -3.58,-5.56 -4.38,-11.14 -2.37,-16.68 2.71,-7.49 8.36,-14.01 16.91,-19.53 10.23,-6.61 23.37,-11.24 39.4,-13.89 16.09,-2.59 32.2,-2.65 48.33,-0.08 16.13,2.53 29.87,7.36 41.21,14.32 8.75,5.46 17.04,14.34 24.96,26.57 1.97,3.1 3.81,6.32 5.49,9.77l7.87 -0.18zm-33.71 -3.62c-2.29,-5.92 -4.61,-10.66 -6.94,-14.23 -5.59,-8.66 -12.87,-14.66 -21.77,-18.06 -8.97,-3.4 -21.44,-3.84 -37.42,-1.42 -15.96,2.47 -30.09,7.7 -42.44,15.67 -6.55,4.23 -10.58,8.38 -12.07,12.44 -1.45,4.13 -1.01,7.95 1.26,11.52 4.29,6.61 12.49,11.43 24.63,14.45 12.07,2.97 26.06,1.91 41.84,-3.26l52.91 -17.11z"/>
  <path id="_16" class="fil3" d="M2641.48 1093.73l4.9 -7.1c14.38,7.09 25.76,14.65 34.16,22.6 8.33,7.97 13.48,14.68 15.35,20.27 0.76,2.23 0.87,4.12 0.28,5.59 -0.59,1.47 -1.77,2.53 -3.53,3.11 -2.19,0.75 -6.65,1.27 -13.41,1.61 -10,0.62 -17.83,1.31 -23.47,2.11 35.35,17.15 55.37,32.6 60.03,46.42 1.17,3.6 1.1,6.66 -0.2,9.18 -1.36,2.46 -4.12,4.45 -8.36,5.92 -4.59,1.52 -12.88,2.49 -25,2.94 17.15,8.04 29.95,15.71 38.39,23.03 8.46,7.31 13.55,13.55 15.31,18.67 1.51,4.53 1.44,8.53 -0.33,11.88 -1.78,3.4 -5.36,5.98 -10.83,7.85 -3.24,1.1 -7.31,1.86 -12.12,2.26 -4.82,0.4 -19.76,1.07 -44.81,1.89 -31.05,0.91 -49.29,2.28 -54.75,4.09 -3.66,1.28 -5.02,3.39 -3.96,6.46 0.7,2.05 1.99,3.82 3.99,5.36 6.74,4.9 14.61,9.56 23.6,13.99l-4.02 7.4c-2.64,-1.65 -7.93,-4.66 -15.8,-9.03 -10.74,-6.09 -17.66,-10.4 -20.72,-12.99 -5.86,-5.07 -9.5,-9.79 -10.96,-14.09 -1.11,-3.29 -0.46,-6.7 1.92,-10.28 2.35,-3.58 6.36,-6.33 12.01,-8.26 5.24,-1.75 11.58,-3.08 19.12,-3.89 7.52,-0.86 24.76,-1.7 51.74,-2.57 20.23,-0.65 32.35,-1.68 36.23,-2.97 3.7,-1.28 5,-3.51 3.9,-6.75 -0.94,-2.77 -3.51,-5.94 -7.8,-9.61 -8.8,-7.42 -18.31,-12.91 -28.59,-16.47 -7.16,-2.43 -17.4,-3.22 -30.8,-2.31 -29.29,1.75 -53.05,3.74 -71.22,5.87l-7.82 -23.19 107.86 -9.3c7.75,-0.69 12.17,-1.21 13.29,-1.56 1.7,-0.64 2.88,-1.51 3.53,-2.7 0.65,-1.17 0.66,-2.58 0.13,-4.16 -0.99,-2.95 -4.8,-6.78 -11.5,-11.44 -11.33,-8.15 -21.42,-13.34 -30.24,-15.66 -8.81,-2.31 -21.21,-2.64 -37.16,-0.97l-59.34 6.02 -7.87 -23.31 83.98 -7.84c24.35,-2.17 37.52,-3.55 39.47,-4.25 2.52,-0.82 3.41,-2.22 2.77,-4.17 -1.41,-4.23 -10.56,-10.79 -27.35,-19.65z"/>
  <path id="_17" class="fil3" d="M2700.27 1425.64c8.54,15.19 13.28,26.55 14.2,34.2 1.21,10.59 -0.7,19.52 -5.72,26.74 -5.07,7.21 -12.61,11.43 -22.61,12.57 -17.59,2.07 -33.62,-4.08 -48.17,-18.41 -14.53,-14.39 -22.96,-31.11 -25.13,-50.1 -2.65,-22.71 3.14,-34.87 17.38,-36.53 3.88,-0.46 15.17,0.51 33.8,2.86l62.77 8.11c3.3,0.42 5.82,0.48 7.64,0.31 3.42,-0.4 5,-1.81 4.71,-4.22 -0.57,-5 -7.72,-13.08 -21.5,-24.16l4.9 -8.22c25.16,21.35 38.41,38.08 39.85,50.32 0.75,6.23 -3.09,9.86 -11.38,10.84 -8.12,0.92 -24.99,-0.48 -50.74,-4.31zm-61.83 -5.64c-4.77,0.57 -8.3,2.28 -10.49,5.03 -2.24,2.81 -2.89,7.76 -2.09,14.81 1.43,12.41 6.23,22.07 14.38,28.91 8.1,6.85 19.21,9.46 33.2,7.85 17.64,-2.06 25.44,-11.98 23.37,-29.8 -0.69,-6.24 -3.37,-13.42 -8.06,-21.55 -29.68,-3.96 -46.43,-5.7 -50.31,-5.25z"/>
  <path id="_18" class="fil3" d="M2702.19 1635.34c3.9,6.2 10.78,14.06 20.66,23.65 18.87,18.06 30.89,31.72 36.01,41.1 5.18,9.32 7.41,18.16 6.71,26.5 -0.82,9.76 -4.97,14.31 -12.55,13.67 -7.29,-0.62 -10.61,-5.35 -9.85,-14.11l0.56 -4.82c0.43,-2.46 0.73,-4.34 0.8,-5.63 0.58,-6.76 -0.8,-13.59 -4.04,-20.55 -3.3,-6.96 -10.36,-16.24 -21.29,-27.83 -10.56,-11.12 -17.39,-19.16 -20.42,-24.12 -8.62,14.94 -16.86,24.94 -24.77,30.12 -7.91,5.13 -27,12.47 -57.23,21.92 -21.68,6.8 -37.08,13.76 -46.23,20.81 -9.16,7.05 -14.22,16.08 -15.11,27.07 -0.38,4.7 0.35,9.11 2.32,13.24 1.97,4.13 4.31,6.32 7.08,6.52 1.35,0.12 3.82,-0.33 7.35,-1.25 3.18,-0.92 5.6,-1.32 7.18,-1.13 2.53,0.19 4.76,1.39 6.69,3.57 1.92,2.13 2.79,4.67 2.59,7.54 -0.31,3.3 -1.8,5.99 -4.58,7.97 -2.77,2.04 -6.24,2.84 -10.48,2.52 -8.58,-0.7 -15.66,-5.21 -21.26,-13.43 -5.59,-8.26 -7.87,-18.27 -6.86,-30.02 1.41,-17.17 9.32,-32.11 23.69,-44.89 14.31,-12.79 42.38,-24.61 84.19,-35.39 11.96,-3.04 20.8,-6.1 26.46,-9.29 5.66,-3.14 10.93,-8.41 15.86,-15.84l-72.64 -23.51 2.16 -25.86 45.12 15.81c42.7,14.85 66.94,22.54 72.64,22.99 2.65,0.25 4.06,-0.92 4.32,-3.44 0.38,-4.77 -5.84,-14.39 -18.69,-28.82l6.43 -4.84c11.51,12.49 19.61,24.47 24.18,36.03 4.62,11.55 6.75,19.79 6.31,24.73 -0.38,4.59 -2.34,6.69 -5.86,6.44 -1.24,-0.13 -5.11,-1.22 -11.45,-3.26l-46 -14.17z"/>
  <path id="_19" class="fil3" d="M2719.04 1902.4c-2.9,10.89 -9.58,18.84 -20.15,23.75 -10.57,4.92 -23.57,5.36 -38.99,1.35 -24.65,-6.52 -44.51,-20.98 -59.5,-43.45 -15.06,-22.49 -20.06,-43.4 -14.94,-62.7 3.08,-11.88 9.52,-20.43 19.2,-25.63 9.69,-5.27 21.22,-6.12 34.69,-2.57 23.31,6.16 43.09,18.45 59.31,36.99 20.12,23.22 26.95,47.31 20.38,72.26zm-8.81 -17.44c2.51,-9.41 -1.82,-20.34 -13.03,-32.71 -11.15,-12.37 -28.64,-21.67 -52.35,-27.9 -14.48,-3.84 -26.53,-4.1 -36.28,-0.84 -7.17,2.38 -11.62,6.92 -13.36,13.57 -2.45,9.36 1.05,19.34 10.6,30.07 12.4,13.67 29.7,23.44 51.95,29.31 16.65,4.36 29.12,5.27 37.4,2.6 8.29,-2.62 13.33,-7.27 15.07,-14.1z"/>
  <path id="_20" class="fil3" d="M2584.19 2070.99l-3.36 7.94c-6.31,13.98 -16.37,17.91 -30.18,11.72 -14.16,-6.31 -23.72,-20.44 -28.81,-42.38 -5.08,-21.87 -4.11,-40.63 2.9,-56.2 8.67,-19.4 23.32,-24.44 43.94,-15.18 24.51,10.98 44.89,29.17 61.19,54.53 16.25,25.37 19.93,48.08 10.91,68.16 -6.91,15.29 -17.26,19.8 -31.19,13.55 -13.63,-6.08 -22.07,-20.14 -25.4,-42.14zm7.25 -49.37c-0.59,37.21 6.97,59.32 22.77,66.46 9.99,4.49 16.82,2.56 20.54,-5.73 7.25,-16.22 -7.19,-36.46 -43.31,-60.73zm-10.76 -6.31c-5.4,-3.59 -10.98,-6.66 -16.62,-9.2 -9.4,-4.25 -16.52,-6.08 -21.22,-5.67 -4.71,0.46 -8.29,3.33 -10.6,8.57 -3.42,7.52 -2.85,17.11 1.72,28.69 4.52,11.59 12.15,19.78 22.84,24.55 11,4.96 18.35,3.26 22.12,-5.14 3.01,-6.69 3.62,-20.63 1.76,-41.8z"/>
  <path id="_21" class="fil3" d="M2601.23 2307.15c-1.95,3 -4.53,4.83 -7.76,5.47 -3.24,0.65 -6.35,-0.06 -9.47,-2.05 -4.24,-2.71 -7,-6.65 -8.3,-11.64 -1.34,-5.06 -0.82,-9.41 1.6,-13.06 1.87,-2.88 4.39,-4.64 7.69,-5.23 3.3,-0.59 6.53,0.11 9.82,2.29 4.35,2.76 7.12,6.58 8.35,11.35 1.18,4.76 0.54,9.05 -1.93,12.87zm-58.66 -118.87l9 -3.17c4.35,16.46 6.18,30.15 5.53,40.97 -0.7,10.89 -2.87,19.11 -6.45,24.7 -2.01,3.06 -4.24,5 -6.65,5.7 -2.41,0.77 -4.76,0.41 -7.06,-1.05 -2.82,-1.82 -12.58,-12.64 -29.4,-32.45 -27.58,-32.38 -44.88,-50.85 -51.87,-55.43 -1.36,-0.88 -2.71,-1.23 -4.06,-1.17 -1.36,0.05 -2.29,0.47 -2.77,1.29 -2,3.06 -1.16,14.82 2.54,35.28l-9.17 2.06c-3.83,-21.22 -5.54,-36.04 -5.07,-44.33 0.47,-8.29 1.94,-14.41 4.47,-18.23 2.17,-3.35 4.99,-5.35 8.35,-5.94 3.4,-0.65 6.98,0.29 10.75,2.7 12,7.82 36.76,34.15 74.16,78.95 1.77,2.11 3.54,3.7 5.24,4.82 1.94,1.29 3.47,1.05 4.59,-0.71 1.23,-1.94 1.88,-4.59 1.94,-8.06 0.05,-3.46 -1.3,-12.11 -4.07,-25.93z"/>
  <path id="_22" class="fil4 str4" d="M561.32 2008.56c-0.59,-1.12 -1.61,-3.71 -3.15,-7.76 -2.38,-6.22 -4.53,-11.03 -6.59,-14.49 -2.5,-4.28 -5.69,-8.55 -9.6,-12.94l9.57 -3.05c3.56,4.62 6.09,8.26 7.76,11.07 2.49,4.22 5.46,10.09 8.91,17.54 3.73,7.92 7.18,14.55 10.32,19.88 2.67,4.58 5.92,8.56 9.82,12.01 -11.52,1.94 -38.06,9.06 -79.74,21.32 -52.5,15.36 -90.56,23.54 -114.01,24.54 5.68,9.02 9.95,15.94 12.73,20.69 8.19,13.84 16.08,28.91 23.8,45.16 14.75,-2.07 43.83,-9.44 87.1,-22.12 47.61,-13.86 81.1,-18.03 100.54,-12.3 19.43,5.67 32.7,14.6 39.88,26.79 3.9,6.76 6.06,13.92 6.38,21.5 0.4,7.58 -1.82,12.77 -6.56,15.55 -2.59,1.54 -5.22,1.91 -7.93,1.15 -2.71,-0.69 -4.72,-2.14 -5.96,-4.38 -2.32,-3.92 -1.99,-9.52 1.09,-16.81 2.85,-6.84 3.24,-12.07 1.16,-15.65 -5.09,-8.62 -16.7,-12.15 -34.92,-10.6 -18.21,1.5 -53.75,9.68 -106.53,24.51l-59.95 16.69c13.09,21.99 27.39,35.56 42.87,40.6 15.49,5.04 29.48,3.92 41.97,-3.43 3.46,-2.02 5.91,-4.15 7.44,-6.34 1.51,-2.24 3.14,-6.18 4.99,-11.96 1.68,-5.47 4.01,-9.18 7.12,-10.96 2.64,-1.55 5.52,-1.92 8.59,-0.99 3.06,0.93 5.42,2.75 6.96,5.38 2.96,5.1 2.4,10.63 -1.75,16.77 -4.14,6.07 -9.88,11.28 -17.15,15.6 -18.93,11.09 -40.21,12.78 -63.89,5.02 -23.73,-7.77 -42.68,-23.85 -57.03,-48.18 -4.8,-8.1 -10.85,-20 -18.16,-35.66 -14.5,-31.45 -30.4,-61.83 -47.71,-91.21 -6.58,-11.19 -13.65,-14.51 -21.28,-10.06 -0.71,0.41 -1.99,1.36 -3.92,2.9 -1.7,1.41 -2.87,2.3 -3.58,2.72 -2.69,1.55 -5.39,1.96 -8.16,1.22 -2.83,-0.76 -4.95,-2.39 -6.37,-4.86 -1.78,-2.98 -2.09,-6.04 -1.05,-9.28 1.04,-3.18 3.32,-5.84 6.9,-7.97 6.92,-4.03 15.26,-4.14 25.1,-0.18 9.9,3.89 19.77,14.02 29.73,30.25 3.08,4.99 4.97,7.97 5.63,8.91 49.46,-7.7 109.01,-23.22 178.63,-46.59z"/>
  <path id="_23" class="fil4 str4" d="M428.45 1910.29l-4.88 8.25c-14.83,-6.74 -26.48,-14.34 -34.94,-22.75 -8.48,-8.41 -13.71,-16.26 -15.66,-23.63 -0.8,-2.76 -0.67,-5.12 0.28,-7.11 0.96,-1.99 2.73,-3.33 5.38,-4.07 3.24,-0.87 6.59,-1.37 10.18,-1.58 3.59,-0.22 12.23,-0.16 25.87,0.17 -21.55,-12.31 -35.19,-21.05 -40.86,-26.15 -9.59,-8.58 -15.58,-17.22 -17.94,-25.87 -1.49,-5.66 -0.16,-11.12 4.11,-16.44 4.27,-5.32 11.77,-9.44 22.55,-12.37 26.8,-7.28 54.54,-5.87 83.23,4.33 28.74,10.12 45.8,25.36 51.31,45.62 2.18,8.01 2.18,16.53 0.07,25.69l58.68 -0.78c3.58,-0.04 6.41,-0.31 8.47,-0.89 4.12,-1.09 6.67,-3.48 7.57,-7.05 1.45,-5.53 1,-16.17 -1.36,-31.94l8.87 -0.06c3.41,18.19 6.54,32.44 9.3,42.64 2.87,10.48 7.3,23.91 13.25,40.3l-8.88 0.06c-3.18,-8.2 -7.14,-13.63 -11.94,-16.43 -4.86,-2.8 -12.38,-4.08 -22.67,-3.8l-134.32 4.21c-25,0.77 -38.82,1.5 -41.53,2.19 -2.83,0.8 -3.9,2.62 -3.15,5.39 1.32,4.83 10.96,12.19 29.01,22.07zm69.35 -54.93c6.36,-11.12 8.25,-21.28 5.79,-30.47 -3.62,-13.32 -17.14,-22.16 -40.63,-26.55 -23.44,-4.4 -45.02,-3.9 -64.75,1.5 -6.3,1.66 -10.67,4.39 -13.23,8.14 -2.49,3.69 -3.05,7.91 -1.79,12.69 1.44,5.3 5.7,10.62 12.71,15.84 10.89,8.07 21.08,13.78 30.52,17.03 6.81,2.33 17.8,3.23 32.92,2.86l38.46 -1.04z"/>
  <path id="_24" class="fil4 str4" d="M257.64 1636.46c-0.4,-3.52 0.43,-6.58 2.5,-9.16 2.06,-2.52 4.95,-4.05 8.6,-4.45 5,-0.58 9.64,0.67 13.86,3.69 4.23,3.01 6.57,6.71 7.09,11.01 0.4,3.41 -0.49,6.41 -2.62,8.99 -2.11,2.58 -5.12,4.04 -9,4.5 -5.11,0.64 -9.7,-0.56 -13.63,-3.45 -4,-2.89 -6.27,-6.6 -6.8,-11.13zm121.04 54.14l-4.96 8.21c-13.85,-9.91 -24,-19.29 -30.38,-28.07 -6.39,-8.78 -9.96,-16.5 -10.76,-23.08 -0.41,-3.64 0.07,-6.52 1.44,-8.7 1.35,-2.11 3.41,-3.34 6.12,-3.62 3.35,-0.41 17.76,1.69 43.37,6.17 41.85,7.41 66.95,10.59 75.29,9.62 1.59,-0.18 2.89,-0.76 3.84,-1.64 1,-0.94 1.47,-1.88 1.36,-2.76 -0.46,-3.65 -8.62,-12.19 -24.46,-25.59l5.73 -7.39c16.48,13.86 27.22,24.18 32.13,30.89 4.98,6.67 7.74,12.31 8.25,16.9 0.46,3.95 -0.43,7.3 -2.68,9.87 -2.24,2.65 -5.59,4.22 -10,4.74 -14.24,1.67 -50.09,-2.84 -107.44,-13.47 -2.71,-0.48 -5.12,-0.6 -7.12,-0.37 -2.29,0.29 -3.3,1.4 -3.07,3.46 0.24,2.3 1.46,4.77 3.63,7.48 2.17,2.71 8.73,8.49 19.71,17.35z"/>
  <path id="_25" class="fil4 str4" d="M411.61 1511.99l-9.95 -0.97c-5.85,-14.45 -11.93,-25.13 -18.13,-32.11 -6.25,-6.93 -13.61,-10.55 -22.07,-10.82 -10.36,-0.32 -15.64,4.16 -15.9,13.45 -0.44,13.47 6.78,28.56 21.52,45.27l-6.27 7.43c-10.97,-13.08 -18.65,-24.35 -23.03,-33.8 -4.31,-9.4 -6.33,-19.22 -6.07,-29.27 0.59,-19.29 8.51,-28.72 23.62,-28.23 13.41,0.37 25.6,8.81 36.46,25.25 -0.25,-4.18 -0.32,-7.29 -0.26,-9.35 0.55,-17.29 8.4,-25.72 23.69,-25.29 14.11,0.43 28.59,8.98 43.46,25.64 14.92,16.66 22.08,34.63 21.48,54.03 -0.42,13.29 -3.57,23.12 -9.56,29.37 -5.92,6.25 -12.79,9.26 -20.55,8.99 -3.95,-0.11 -7.17,-1.45 -9.71,-4.08 -2.54,-2.59 -3.78,-5.7 -3.68,-9.23 0.12,-3.12 1.22,-5.82 3.34,-8.18 2.17,-2.36 4.74,-3.48 7.86,-3.37 1.18,0.05 2.65,0.16 4.47,0.45 1.36,0.17 2.65,0.29 3.77,0.29 4.12,0.17 7.52,-1.44 10.22,-4.73 2.69,-3.31 4.15,-7.66 4.25,-13.07 0.44,-12.93 -4.47,-23.86 -14.66,-32.65 -10.14,-8.79 -21.68,-13.41 -34.56,-13.78 -11.82,-0.38 -17.86,4.87 -18.18,15.8 -0.22,6.88 2.57,17.87 8.44,32.96z"/>
  <path id="_26" class="fil4 str4" d="M427.89 1269.9l1.84 -8.4c3.56,-14.99 12.7,-20.73 27.45,-17.23 15.04,3.57 27.12,15.65 36.24,36.19 9.12,20.61 11.67,39.19 7.74,55.82 -4.93,20.68 -18.35,28.35 -40.33,23.19 -26.15,-6.24 -49.63,-20.23 -70.4,-42.09 -20.75,-21.86 -28.58,-43.52 -23.48,-64.92 3.87,-16.33 13.24,-22.72 28.05,-19.21 14.5,3.44 25.47,15.7 32.89,36.65zm2.17 49.87c-6.44,-36.66 -18.03,-56.96 -34.89,-61 -10.64,-2.5 -17,0.66 -19.07,9.47 -4.1,17.34 13.9,34.49 53.96,51.53zm11.75 4.2c5.99,2.48 12.04,4.44 18.04,5.86 10.05,2.44 17.39,2.92 21.92,1.59 4.59,-1.35 7.54,-4.8 8.84,-10.39 1.9,-8.05 -0.48,-17.29 -7.1,-27.83 -6.61,-10.54 -15.65,-17.21 -27.05,-19.88 -11.7,-2.79 -18.64,0.31 -20.78,9.24 -1.67,7.11 0.36,20.93 6.13,41.41z"/>
  <path id="_27" class="fil4 str4" d="M449.32 1029.38l9.14 -22.64 49.68 37.43c28.85,21.88 45.5,33.67 49.97,35.49 2.07,0.82 3.77,0.93 5.24,0.4 1.41,-0.53 2.4,-1.36 2.87,-2.53 0.71,-1.83 0.76,-4.23 0.17,-7.35 -1.07,-4.52 -4.55,-13.63 -10.51,-27.44l8.05 -2.9c13.63,30.38 18.42,50.6 14.39,60.72 -1.41,3.41 -3.88,5.82 -7.46,7.18 -3.59,1.3 -7.76,1.01 -12.53,-0.92 -5.53,-2.22 -12.47,-6.33 -20.83,-12.43 7.08,13.86 11.93,29.38 14.48,46.66 1.72,11.46 1.21,20.58 -1.54,27.41 -1.52,3.7 -3.93,6.18 -7.23,7.3 -3.29,1.18 -7.64,0.66 -12.93,-1.52 -4.18,-1.63 -8.41,-3.92 -12.83,-6.79 -6.18,-4.11 -18.25,-13.02 -36.2,-26.82 -22.78,-17.48 -36.73,-27.22 -41.86,-29.27 -3,-1.23 -4.93,-0.76 -5.75,1.36 -0.76,1.95 -0.88,4.94 -0.23,9.06 0.65,4.11 3.14,11.63 7.51,22.68l-8.4 4.78c-7.08,-19.4 -11.05,-33.68 -12.06,-42.79 -0.97,-9.11 -0.5,-15.99 1.32,-20.58 1.05,-2.53 2.81,-4.23 5.28,-5.06 2.52,-0.89 5.76,-0.49 9.7,1.1 7.36,2.93 23.83,14.01 49.5,33.26 23.2,17.24 36.56,26.57 40.15,28.04 2.24,0.88 4.47,0.93 6.64,0.17 2.17,-0.83 3.59,-2.07 4.29,-3.78 2.4,-5.94 0.91,-16.4 -4.58,-31.33 -5.44,-14.92 -13.75,-26.61 -24.93,-35.12l-58.51 -43.77z"/>
  <path id="_28" class="fil4 str4" d="M682.97 853.49c4.09,18.08 5.69,33.41 4.74,46 -0.89,12.65 -2.59,20.66 -5.03,24.15 -1.74,2.43 -4.61,3.98 -8.6,4.72 -3.99,0.68 -8.06,-0.4 -12.2,-3.31 -4.96,-3.54 -10.77,-9.14 -17.37,-16.9 3.44,9.85 5.25,22.48 5.38,37.82 0.2,15.34 -1.66,25.76 -5.49,31.21 -5.06,7.22 -12.11,7.63 -21.16,1.31 -6.45,-4.55 -19.8,-19.18 -40.01,-43.94 -18.24,-22.18 -29.58,-34.9 -34.13,-38.04 -2.61,-1.86 -4.61,-1.85 -5.88,-0.01 -3.03,4.26 -3.05,15.07 -0.13,32.57l-9.33 2.73c-4.46,-32.6 -3.12,-53.95 3.91,-64.01 3.67,-5.14 8.9,-5.31 15.76,-0.48 6.39,4.46 19.86,19.05 40.48,43.63 18.59,22.07 29.51,34.2 32.71,36.47 1.95,1.33 4.07,1.9 6.42,1.64 2.29,-0.3 3.93,-1.15 4.92,-2.57 1.56,-2.25 2.1,-8.13 1.55,-17.71 -0.55,-9.63 -1.98,-17.68 -4.2,-24.3 -2.24,-6.63 -7.19,-14.52 -14.91,-23.74l-46.93 -56 14.05 -19.99 39.87 47.82c22.22,26.86 35.41,41.73 39.54,44.63 3.2,2.27 5.84,1.9 7.88,-1 2.38,-3.37 3.14,-10.73 2.27,-22.07 -0.85,-11.34 -2.35,-20.09 -4.45,-26.19 -2.11,-6.09 -6.71,-13.41 -13.78,-21.87l-46.99 -55.98 14.12 -20 39.86 47.82c23.12,27.79 36.65,43.01 40.62,45.81 3.67,2.55 6.43,2.47 8.35,-0.25 2.38,-3.38 1.63,-15.36 -2.2,-36.09l8.46 -0.95c1.56,10.21 5.5,17.53 11.89,22.01 2.13,1.56 5.44,3.07 9.8,4.62 4.6,1.66 7.91,3.22 9.86,4.61 6.21,4.3 9.44,11.15 9.82,20.44 0.31,9.29 -3.48,19.61 -11.37,30.85 -7.32,10.41 -14.59,19.88 -21.81,28.29 -5.94,6.87 -9.5,11.14 -10.6,12.74 -4.06,5.74 -3.73,10.25 1,13.51 3.2,2.27 6.13,1.83 8.75,-1.37 3.44,-3.9 6.84,-4.65 10.27,-2.32 1.6,1.16 2.55,2.8 2.87,5.03 0.37,2.23 -0.08,4.18 -1.25,5.83 -2.44,3.49 -6.36,5.41 -11.77,5.8 -5.4,0.46 -10.53,-1.02 -15.31,-4.39 -6.93,-4.88 -10.58,-11.73 -10.82,-20.54 -0.26,-8.82 2.03,-16.66 6.84,-23.52 2.79,-3.97 7.69,-9.3 14.63,-16.06 9.38,-9.14 16.49,-17.14 21.31,-24 3.77,-5.33 5.27,-9.98 4.59,-13.97 -0.69,-4.05 -2.3,-6.92 -4.85,-8.73 -1.24,-0.81 -2.89,-1.73 -5.07,-2.66 -2.6,-1.27 -4.67,-2.48 -6.15,-3.53 -3.37,-2.38 -6.57,-6 -9.56,-10.91l-0.42 -0.29c3.88,19.43 3.11,32.96 -2.29,40.64 -1.91,2.79 -4.9,4.46 -8.84,5.09 -3.99,0.67 -7.99,-0.47 -12.14,-3.37 -4.97,-3.49 -10.84,-9.09 -17.48,-16.73z"/>
  <path id="_29" class="fil4 str4" d="M832.9 688.75l9.34 1.57c-1.95,38.74 -10.14,65.05 -24.65,78.89 -5.9,5.63 -12.31,7.89 -19.25,6.87 -6.87,-1.02 -14.56,-5.92 -22.94,-14.72 -16.93,-17.74 -28.39,-40.6 -34.36,-68.48 -6.95,-31.6 -1.99,-55.39 14.87,-71.45 5.9,-5.63 11.79,-8.43 17.72,-8.47 5.94,-0.04 11.34,2.56 16.27,7.69 5.1,5.43 8.3,12.5 9.57,21.32 1.21,8.76 -0.24,20.58 -4.52,35.38 -2.2,7.34 -7.77,22.08 -16.78,44.28 3.57,5.18 7.26,9.85 11.13,13.91 5.62,5.9 10.44,9.09 14.55,9.63 4.05,0.54 7.88,-0.86 11.48,-4.26 3.42,-3.22 6.25,-7.73 8.5,-13.55 3.03,-7.81 6.01,-20.68 9.07,-38.61zm-60.81 23.51c7.64,-18.73 11.57,-34.77 11.73,-48.06 -0.03,-9.17 -2.3,-16.12 -6.81,-20.83 -3.4,-3.6 -7.04,-5.55 -10.92,-5.86 -3.88,-0.36 -7.3,0.92 -10.3,3.73 -3.07,2.93 -4.96,6.92 -5.68,12.04 -0.97,6.82 0.18,14.58 3.45,23.35 4.9,12.78 11.09,24.62 18.53,35.63z"/>
  <path id="_30" class="fil4 str4" d="M1013.82 381.16l2.23 9.52c-10.78,7.28 -17.4,13.02 -19.79,17.26 -1.58,2.77 -2.33,6.01 -2.31,9.72 0.2,4.7 5.84,26.84 16.91,66.42 3.65,13.03 14.22,48.26 31.73,105.8 8.21,-1.81 17.55,-5.97 27.99,-12.49l1.8 8.52c-3.11,1.95 -9.68,5.28 -19.71,9.98 -7.15,3.43 -15.31,7.83 -24.4,13.16 -12.54,7.42 -23.5,15.17 -32.93,23.21l-2.8 -8.92c9.89,-8.11 16.86,-15.14 20.89,-21.15 0.98,-1.48 1.57,-2.96 1.79,-4.42 0.47,-2.65 -0.03,-7.17 -1.47,-13.58 -1.44,-6.4 -8.5,-31.95 -21.19,-76.57 -3.64,-12.92 -11.95,-40.92 -25.03,-83.96 -6.98,3.8 -14.78,9.66 -23.44,17.57l-1.99 -9.8c3.52,-3.55 7.32,-6.8 11.42,-9.82 4.1,-3.02 13.66,-9.23 28.78,-18.65 14.13,-8.84 24.61,-16.12 31.52,-21.8z"/>
  <path id="_31" class="fil4 str4" d="M1168.62 431.55l-8.92 -3.82c17.53,-27.99 32.35,-43.65 44.53,-46.92 5.78,-1.6 9.99,1.07 12.71,7.97l39.42 100.28 39.33 -128.5 23.55 -6.37 0 62.26c0.11,36.17 0.73,56.57 1.99,61.23 1.22,4.3 3.38,6.02 6.62,5.16 4,-1.09 11.12,-10.86 21.48,-29.25l7.14 4.69c-15.84,29.18 -29.12,45.19 -39.72,48.12 -3.01,0.8 -6.23,0.2 -9.75,-1.77 -3.52,-1.96 -5.96,-5.39 -7.27,-10.39 -2.08,-7.43 -3.17,-26.96 -3.43,-58.53l-0.43 -41.46 -38.37 126.62 -12.48 3.39 -37.01 -93.44c-3.27,49.07 -8.47,79.85 -15.49,92.2 -7.08,12.43 -16.49,20.18 -28.39,23.45 -5.83,1.55 -10.77,1.22 -14.63,-1.09 -3.92,-2.39 -6.43,-5.58 -7.52,-9.7 -1.09,-3.95 -0.71,-7.83 1.14,-11.52 1.84,-3.74 4.74,-6.14 8.75,-7.23 2.53,-0.69 6,-0.73 10.47,-0.17 4.87,0.45 8.28,0.47 10.17,-0.05 4.83,-1.38 8.97,-5.64 12.37,-12.85 3.41,-7.2 6.69,-23.88 9.98,-50.02 3.24,-26.09 4.22,-41.6 2.84,-46.43 -0.74,-2.77 -2.5,-3.79 -5.27,-3.04 -6.66,1.78 -14.59,10.83 -23.81,27.18z"/>
  <path id="_32" class="fil4 str4" d="M1449.74 361.06l5.53 -67.13c0.85,-9.35 2.39,-15.63 4.46,-18.8 2.13,-3.23 4.95,-4.99 8.48,-5.44 2.3,-0.24 4.12,0.18 5.52,1.3 1.41,1.07 2.23,2.77 2.52,5.06 0.17,1.47 -0.49,5.7 -2.04,12.7l-15.42 69.57c-0.89,4.24 -2.48,6.52 -4.78,6.75 -3.05,0.4 -4.46,-0.95 -4.27,-4.01z"/>
  <path id="_33" class="fil4 str4" d="M1535.81 439.46c2.56,10.64 4.45,17.1 5.76,19.38 1.29,2.3 3.42,3.47 6.29,3.58 5.35,0.16 11.81,-5.56 19.3,-17.17 7.55,-11.83 14.06,-19.79 19.52,-23.86 5.39,-4.07 14.27,-7.51 26.66,-10.25l0.05 -2.23 -4.47 -0.1c-14.58,-0.49 -25.4,-3.58 -32.53,-9.38 -7.13,-5.75 -10.57,-12.79 -10.29,-21.09 0.38,-12.81 8.64,-23.18 24.79,-31.04 16.15,-7.93 37.3,-11.45 63.47,-10.69l30.76 1.62 -18.01 59.6c-10.43,34.6 -15.79,54.32 -15.9,59.14 -0.16,4.46 1.38,6.75 4.61,6.81 4.11,0.16 13.79,-7.1 29.04,-21.67l5.49 6.52c-23.63,23.28 -40.95,34.8 -51.83,34.47 -3.82,-0.16 -6.94,-1.79 -9.42,-4.97 -2.48,-3.17 -3.66,-7.81 -3.45,-13.86 0.16,-6.12 1.56,-13.41 4.12,-21.94l8.8 -29.54c-9.65,-0.27 -17.51,2.21 -23.61,7.47 -6.17,5.24 -14.25,16.21 -24.26,32.75 -11.53,18.73 -24.03,27.87 -37.55,27.44 -5.41,-0.16 -10.18,-2.14 -14.31,-5.9 -4.12,-3.81 -8.04,-14.61 -11.72,-32.42l8.69 -2.67zm120.82 -87.28c-6.82,-2.16 -14.41,-3.38 -22.81,-3.59 -9.77,-0.33 -18.64,2.29 -26.74,7.77 -8.1,5.49 -12.31,12.85 -12.58,22.03 -0.49,15.93 9.88,24.26 31.11,24.9 3.53,0.12 8.76,-0.13 15.7,-0.74l15.32 -50.37z"/>
  <path id="_34" class="fil4 str4" d="M1995.65 560.61c1.11,0.59 3.53,2 7.24,4.22 5.64,3.52 10.29,5.98 14.05,7.51 4.6,1.87 9.71,3.28 15.48,4.38l-5.75 8.3c-5.58,-1.52 -9.83,-2.86 -12.82,-4.1 -4.59,-1.81 -10.54,-4.62 -17.77,-8.43 -7.77,-3.99 -14.6,-7.15 -20.3,-9.5 -4.95,-1.93 -9.95,-3.09 -15.12,-3.44 7.87,-8.59 24.59,-30.44 50.11,-65.58 32.27,-44.21 57.38,-73.94 75.35,-89.08 -10,-3.68 -17.58,-6.5 -22.71,-8.61 -14.94,-5.97 -30.35,-13.06 -46.42,-21.2 -10.45,10.59 -28.94,34.14 -55.5,70.64 -29.23,40.09 -53.3,63.82 -72.16,71.14 -18.8,7.32 -34.79,8.34 -47.91,3.08 -7.24,-2.88 -13.3,-7.28 -18.19,-13.09 -4.95,-5.81 -6.37,-11.28 -4.32,-16.4 1.12,-2.76 2.99,-4.65 5.58,-5.71 2.58,-1.07 5.06,-1.13 7.41,-0.19 4.23,1.7 7.41,6.4 9.42,13.98 1.9,7.23 4.78,11.64 8.61,13.16 9.3,3.69 20.63,-0.57 34.14,-12.93 13.5,-12.31 36.69,-40.45 69.42,-84.49l37.32 -49.74c-23.82,-9.49 -43.42,-11.45 -58.75,-6.02 -15.4,5.44 -25.79,14.91 -31.17,28.33 -1.47,3.7 -2.17,6.88 -1.99,9.58 0.18,2.65 1.24,6.82 3.32,12.47 2.06,5.4 2.42,9.75 1.08,13.05 -1.17,2.88 -3.23,4.89 -6.23,6.06 -2.99,1.13 -5.94,1.13 -8.82,-0.04 -5.41,-2.17 -8.36,-6.92 -8.78,-14.33 -0.49,-7.36 0.92,-14.94 4.07,-22.82 8.15,-20.36 24,-34.67 47.51,-43 23.5,-8.27 48.38,-7.19 74.61,3.35 8.71,3.51 20.77,9.26 36.13,17.17 30.72,16.06 61.85,30.42 93.5,43.13 12.01,4.86 19.7,3.2 22.98,-5.03 0.3,-0.77 0.76,-2.3 1.34,-4.66 0.47,-2.17 0.88,-3.58 1.17,-4.35 1.17,-2.88 3.05,-4.88 5.76,-5.95 2.64,-1.11 5.34,-1.12 7.99,-0.07 3.18,1.29 5.36,3.53 6.48,6.7 1.12,3.23 0.95,6.7 -0.63,10.52 -2.99,7.47 -9.57,12.66 -19.79,15.56 -10.16,2.89 -24.16,0.91 -41.99,-5.88 -5.47,-2.05 -8.77,-3.28 -9.88,-3.56 -34.51,36.21 -72.19,84.83 -113.07,145.87z"/>
  <path id="_35" class="fil4 str4" d="M2252.82 551.69c9.41,6.17 14.82,14.99 16.23,26.57 1.36,11.58 -2.28,24.04 -10.98,37.4 -13.87,21.4 -33.8,35.7 -59.84,42.93 -26.04,7.24 -47.44,5.43 -64.21,-5.44 -10.29,-6.7 -16.4,-15.46 -18.35,-26.27 -1.89,-10.82 0.94,-22.06 8.46,-33.7 13.1,-20.24 31.03,-35.17 53.66,-44.76 28.34,-11.89 53.33,-10.77 75.03,3.27zm-19.29 2.89c-8.22,-5.29 -19.93,-4.58 -35.15,2.12 -15.24,6.71 -29.58,20.41 -42.91,41 -8.12,12.52 -12.17,23.93 -12.16,34.17 0.06,7.58 2.94,13.22 8.7,16.98 8.11,5.23 18.7,4.99 31.87,-0.71 16.87,-7.47 31.56,-20.89 44.09,-40.12 9.34,-14.46 14.1,-25.99 14.22,-34.69 0.05,-8.7 -2.84,-14.94 -8.66,-18.75z"/>
  <path id="_36" class="fil4 str4" d="M2437.61 758.43c26.75,1.08 45.27,7.74 55.59,20.05 5.77,6.86 7.31,14.28 4.66,22.26 -2.64,8.03 -8.35,15.69 -17.1,23.09 -20.83,17.49 -45.71,27.07 -74.66,28.56 -28.87,1.55 -50.23,-5.78 -63.86,-22.06 -7.11,-8.39 -10.17,-17 -9.16,-25.82 1,-8.81 5.06,-16.18 12.21,-22.19 5.98,-5.01 15.32,-10.88 28.12,-17.6l82.76 -43.08c32.52,-16.99 58.67,-22.91 78.39,-17.76 19.78,5.07 33.95,12.76 42.52,22.94 2.44,2.9 5.23,7.1 8.32,12.53 11.72,20.31 19.33,32.6 22.89,36.8 2.62,3.19 8.31,5.18 16.94,6.01l0.43 6.4c-13.48,2.32 -23.18,2.31 -29.17,-0.04 -5.92,-2.33 -11.18,-6.19 -15.78,-11.69 -5.83,-6.92 -15.07,-21.34 -27.67,-43.31 -4.06,-6.91 -7.08,-11.57 -9.07,-13.94 -3.61,-4.32 -8.55,-5.89 -14.78,-4.76 -6.25,1.14 -18.34,6.28 -36.22,15.5l-55.36 28.11zm-78.09 41.64c-4.56,3.85 -7.13,8.65 -7.7,14.46 -0.51,5.76 0.81,10.53 4.01,14.32 8.63,10.24 24.02,12.41 46.23,6.39 22.15,-5.94 40.39,-14.93 54.58,-26.93 5.45,-4.54 9.55,-9.81 12.18,-15.61 2.68,-5.86 2.25,-10.86 -1.31,-15.07 -3.79,-4.49 -11.29,-7.48 -22.45,-8.92 -11.22,-1.43 -25.53,1.11 -42.93,7.68 -17.45,6.57 -31.67,14.47 -42.61,23.68z"/>
  <path id="_37" class="fil4 str4" d="M2629.88 966.98l8.18 8.28 -43.58 12.75c-17.37,5.07 -36.84,11.81 -58.3,20.21 -11.72,4.56 -19.04,7.79 -22.03,9.69 -2.98,1.97 -3.73,4.09 -2.12,6.54 0.94,1.53 3.55,3.33 7.79,5.41 7.39,3.65 15.58,6.53 24.42,8.63l-2.65 8.26c-17.15,-4.52 -27.75,-7.67 -31.87,-9.34 -8.26,-3.47 -15.17,-7.29 -20.79,-11.6 -3.73,-2.79 -6.69,-5.95 -8.96,-9.4 -1.6,-2.51 -2.27,-4.74 -1.87,-6.75 0.34,-2 1.62,-3.72 3.84,-5.14 1.41,-0.96 3.63,-1.85 6.68,-2.7l23.42 -6.88c-15.31,-1.88 -30.22,-6.29 -44.79,-13.18 -8.98,-4.17 -15.36,-9.18 -19.17,-15.08 -3.58,-5.56 -4.38,-11.14 -2.37,-16.68 2.71,-7.49 8.36,-14.01 16.91,-19.53 10.23,-6.61 23.37,-11.24 39.4,-13.89 16.09,-2.59 32.2,-2.65 48.33,-0.08 16.13,2.53 29.87,7.36 41.21,14.32 8.75,5.46 17.04,14.34 24.96,26.57 1.97,3.1 3.81,6.32 5.49,9.77l7.87 -0.18zm-33.71 -3.62c-2.29,-5.92 -4.61,-10.66 -6.94,-14.23 -5.59,-8.66 -12.87,-14.66 -21.77,-18.06 -8.97,-3.4 -21.44,-3.84 -37.42,-1.42 -15.96,2.47 -30.09,7.7 -42.44,15.67 -6.55,4.23 -10.58,8.38 -12.07,12.44 -1.45,4.13 -1.01,7.95 1.26,11.52 4.29,6.61 12.49,11.43 24.63,14.45 12.07,2.97 26.06,1.91 41.84,-3.26l52.91 -17.11z"/>
  <path id="_38" class="fil4 str4" d="M2641.48 1093.73l4.9 -7.1c14.38,7.09 25.76,14.65 34.16,22.6 8.33,7.97 13.48,14.68 15.35,20.27 0.76,2.23 0.87,4.12 0.28,5.59 -0.59,1.47 -1.77,2.53 -3.53,3.11 -2.19,0.75 -6.65,1.27 -13.41,1.61 -10,0.62 -17.83,1.31 -23.47,2.11 35.35,17.15 55.37,32.6 60.03,46.42 1.17,3.6 1.1,6.66 -0.2,9.18 -1.36,2.46 -4.12,4.45 -8.36,5.92 -4.59,1.52 -12.88,2.49 -25,2.94 17.15,8.04 29.95,15.71 38.39,23.03 8.46,7.31 13.55,13.55 15.31,18.67 1.51,4.53 1.44,8.53 -0.33,11.88 -1.78,3.4 -5.36,5.98 -10.83,7.85 -3.24,1.1 -7.31,1.86 -12.12,2.26 -4.82,0.4 -19.76,1.07 -44.81,1.89 -31.05,0.91 -49.29,2.28 -54.75,4.09 -3.66,1.28 -5.02,3.39 -3.96,6.46 0.7,2.05 1.99,3.82 3.99,5.36 6.74,4.9 14.61,9.56 23.6,13.99l-4.02 7.4c-2.64,-1.65 -7.93,-4.66 -15.8,-9.03 -10.74,-6.09 -17.66,-10.4 -20.72,-12.99 -5.86,-5.07 -9.5,-9.79 -10.96,-14.09 -1.11,-3.29 -0.46,-6.7 1.92,-10.28 2.35,-3.58 6.36,-6.33 12.01,-8.26 5.24,-1.75 11.58,-3.08 19.12,-3.89 7.52,-0.86 24.76,-1.7 51.74,-2.57 20.23,-0.65 32.35,-1.68 36.23,-2.97 3.7,-1.28 5,-3.51 3.9,-6.75 -0.94,-2.77 -3.51,-5.94 -7.8,-9.61 -8.8,-7.42 -18.31,-12.91 -28.59,-16.47 -7.16,-2.43 -17.4,-3.22 -30.8,-2.31 -29.29,1.75 -53.05,3.74 -71.22,5.87l-7.82 -23.19 107.86 -9.3c7.75,-0.69 12.17,-1.21 13.29,-1.56 1.7,-0.64 2.88,-1.51 3.53,-2.7 0.65,-1.17 0.66,-2.58 0.13,-4.16 -0.99,-2.95 -4.8,-6.78 -11.5,-11.44 -11.33,-8.15 -21.42,-13.34 -30.24,-15.66 -8.81,-2.31 -21.21,-2.64 -37.16,-0.97l-59.34 6.02 -7.87 -23.31 83.98 -7.84c24.35,-2.17 37.52,-3.55 39.47,-4.25 2.52,-0.82 3.41,-2.22 2.77,-4.17 -1.41,-4.23 -10.56,-10.79 -27.35,-19.65z"/>
  <path id="_39" class="fil4 str4" d="M2700.27 1425.64c8.54,15.19 13.28,26.55 14.2,34.2 1.21,10.59 -0.7,19.52 -5.72,26.74 -5.07,7.21 -12.61,11.43 -22.61,12.57 -17.59,2.07 -33.62,-4.08 -48.17,-18.41 -14.53,-14.39 -22.96,-31.11 -25.13,-50.1 -2.65,-22.71 3.14,-34.87 17.38,-36.53 3.88,-0.46 15.17,0.51 33.8,2.86l62.77 8.11c3.3,0.42 5.82,0.48 7.64,0.31 3.42,-0.4 5,-1.81 4.71,-4.22 -0.57,-5 -7.72,-13.08 -21.5,-24.16l4.9 -8.22c25.16,21.35 38.41,38.08 39.85,50.32 0.75,6.23 -3.09,9.86 -11.38,10.84 -8.12,0.92 -24.99,-0.48 -50.74,-4.31zm-61.83 -5.64c-4.77,0.57 -8.3,2.28 -10.49,5.03 -2.24,2.81 -2.89,7.76 -2.09,14.81 1.43,12.41 6.23,22.07 14.38,28.91 8.1,6.85 19.21,9.46 33.2,7.85 17.64,-2.06 25.44,-11.98 23.37,-29.8 -0.69,-6.24 -3.37,-13.42 -8.06,-21.55 -29.68,-3.96 -46.43,-5.7 -50.31,-5.25z"/>
  <path id="_40" class="fil4 str4" d="M2702.19 1635.34c3.9,6.2 10.78,14.06 20.66,23.65 18.87,18.06 30.89,31.72 36.01,41.1 5.18,9.32 7.41,18.16 6.71,26.5 -0.82,9.76 -4.97,14.31 -12.55,13.67 -7.29,-0.62 -10.61,-5.35 -9.85,-14.11l0.56 -4.82c0.43,-2.46 0.73,-4.34 0.8,-5.63 0.58,-6.76 -0.8,-13.59 -4.04,-20.55 -3.3,-6.96 -10.36,-16.24 -21.29,-27.83 -10.56,-11.12 -17.39,-19.16 -20.42,-24.12 -8.62,14.94 -16.86,24.94 -24.77,30.12 -7.91,5.13 -27,12.47 -57.23,21.92 -21.68,6.8 -37.08,13.76 -46.23,20.81 -9.16,7.05 -14.22,16.08 -15.11,27.07 -0.38,4.7 0.35,9.11 2.32,13.24 1.97,4.13 4.31,6.32 7.08,6.52 1.35,0.12 3.82,-0.33 7.35,-1.25 3.18,-0.92 5.6,-1.32 7.18,-1.13 2.53,0.19 4.76,1.39 6.69,3.57 1.92,2.13 2.79,4.67 2.59,7.54 -0.31,3.3 -1.8,5.99 -4.58,7.97 -2.77,2.04 -6.24,2.84 -10.48,2.52 -8.58,-0.7 -15.66,-5.21 -21.26,-13.43 -5.59,-8.26 -7.87,-18.27 -6.86,-30.02 1.41,-17.17 9.32,-32.11 23.69,-44.89 14.31,-12.79 42.38,-24.61 84.19,-35.39 11.96,-3.04 20.8,-6.1 26.46,-9.29 5.66,-3.14 10.93,-8.41 15.86,-15.84l-72.64 -23.51 2.16 -25.86 45.12 15.81c42.7,14.85 66.94,22.54 72.64,22.99 2.65,0.25 4.06,-0.92 4.32,-3.44 0.38,-4.77 -5.84,-14.39 -18.69,-28.82l6.43 -4.84c11.51,12.49 19.61,24.47 24.18,36.03 4.62,11.55 6.75,19.79 6.31,24.73 -0.38,4.59 -2.34,6.69 -5.86,6.44 -1.24,-0.13 -5.11,-1.22 -11.45,-3.26l-46 -14.17z"/>
  <path id="_41" class="fil4 str4" d="M2719.04 1902.4c-2.9,10.89 -9.58,18.84 -20.15,23.75 -10.57,4.92 -23.57,5.36 -38.99,1.35 -24.65,-6.52 -44.51,-20.98 -59.5,-43.45 -15.06,-22.49 -20.06,-43.4 -14.94,-62.7 3.08,-11.88 9.52,-20.43 19.2,-25.63 9.69,-5.27 21.22,-6.12 34.69,-2.57 23.31,6.16 43.09,18.45 59.31,36.99 20.12,23.22 26.95,47.31 20.38,72.26zm-8.81 -17.44c2.51,-9.41 -1.82,-20.34 -13.03,-32.71 -11.15,-12.37 -28.64,-21.67 -52.35,-27.9 -14.48,-3.84 -26.53,-4.1 -36.28,-0.84 -7.17,2.38 -11.62,6.92 -13.36,13.57 -2.45,9.36 1.05,19.34 10.6,30.07 12.4,13.67 29.7,23.44 51.95,29.31 16.65,4.36 29.12,5.27 37.4,2.6 8.29,-2.62 13.33,-7.27 15.07,-14.1z"/>
  <path id="_42" class="fil4 str4" d="M2584.19 2070.99l-3.36 7.94c-6.31,13.98 -16.37,17.91 -30.18,11.72 -14.16,-6.31 -23.72,-20.44 -28.81,-42.38 -5.08,-21.87 -4.11,-40.63 2.9,-56.2 8.67,-19.4 23.32,-24.44 43.94,-15.18 24.51,10.98 44.89,29.17 61.19,54.53 16.25,25.37 19.93,48.08 10.91,68.16 -6.91,15.29 -17.26,19.8 -31.19,13.55 -13.63,-6.08 -22.07,-20.14 -25.4,-42.14zm7.25 -49.37c-0.59,37.21 6.97,59.32 22.77,66.46 9.99,4.49 16.82,2.56 20.54,-5.73 7.25,-16.22 -7.19,-36.46 -43.31,-60.73zm-10.76 -6.31c-5.4,-3.59 -10.98,-6.66 -16.62,-9.2 -9.4,-4.25 -16.52,-6.08 -21.22,-5.67 -4.71,0.46 -8.29,3.33 -10.6,8.57 -3.42,7.52 -2.85,17.11 1.72,28.69 4.52,11.59 12.15,19.78 22.84,24.55 11,4.96 18.35,3.26 22.12,-5.14 3.01,-6.69 3.62,-20.63 1.76,-41.8z"/>
  <path id="_43" class="fil4 str4" d="M2601.23 2307.15c-1.95,3 -4.53,4.83 -7.76,5.47 -3.24,0.65 -6.35,-0.06 -9.47,-2.05 -4.24,-2.71 -7,-6.65 -8.3,-11.64 -1.34,-5.06 -0.82,-9.41 1.6,-13.06 1.87,-2.88 4.39,-4.64 7.69,-5.23 3.3,-0.59 6.53,0.11 9.82,2.29 4.35,2.76 7.12,6.58 8.35,11.35 1.18,4.76 0.54,9.05 -1.93,12.87zm-58.66 -118.87l9 -3.17c4.35,16.46 6.18,30.15 5.53,40.97 -0.7,10.89 -2.87,19.11 -6.45,24.7 -2.01,3.06 -4.24,5 -6.65,5.7 -2.41,0.77 -4.76,0.41 -7.06,-1.05 -2.82,-1.82 -12.58,-12.64 -29.4,-32.45 -27.58,-32.38 -44.88,-50.85 -51.87,-55.43 -1.36,-0.88 -2.71,-1.23 -4.06,-1.17 -1.36,0.05 -2.29,0.47 -2.77,1.29 -2,3.06 -1.16,14.82 2.54,35.28l-9.17 2.06c-3.83,-21.22 -5.54,-36.04 -5.07,-44.33 0.47,-8.29 1.94,-14.41 4.47,-18.23 2.17,-3.35 4.99,-5.35 8.35,-5.94 3.4,-0.65 6.98,0.29 10.75,2.7 12,7.82 36.76,34.15 74.16,78.95 1.77,2.11 3.54,3.7 5.24,4.82 1.94,1.29 3.47,1.05 4.59,-0.71 1.23,-1.94 1.88,-4.59 1.94,-8.06 0.05,-3.46 -1.3,-12.11 -4.07,-25.93z"/>
  <path class="fil3 str5" d="M813.43 2489.51c-0.63,-9.37 -2.76,-18.74 -6.47,-28.03 -5.22,-13.36 -7.82,-22.58 -7.82,-27.62 0,-7.13 1.89,-12.51 5.61,-16.21 3.78,-3.71 8.45,-5.52 14.05,-5.52 4.74,0 8.92,1.81 12.48,5.52 3.55,3.7 5.28,8.95 5.28,15.8 0,6.15 -2.04,14.67 -6.07,25.65 -4.11,11.04 -6.63,21.18 -7.59,30.41 8.53,-4.76 16.11,-10.56 22.9,-17.41 10.51,-10.76 18.32,-17.48 23.38,-20.06 5.13,-2.59 10.26,-3.85 15.55,-3.85 5.06,0 9.32,1.54 12.79,4.62 3.48,3 5.22,6.71 5.22,10.9 0,5.11 -2.53,9.58 -7.66,13.56 -5.05,3.92 -17.77,7.9 -38.14,11.89 -11.85,2.31 -21.71,4.96 -29.61,7.97 8.05,3.7 17.85,6.5 29.37,8.38 18.64,3.01 30.87,6.79 36.64,11.26 5.85,4.55 8.69,9.44 8.69,14.75 0,4.12 -1.74,7.62 -5.22,10.63 -3.47,3 -7.49,4.54 -12.08,4.54 -4.65,0 -9.79,-1.47 -15.39,-4.33 -5.61,-2.87 -13.27,-9.3 -22.83,-19.23 -6.31,-6.71 -14.13,-13 -23.61,-18.87 0.32,7.83 2.14,16.28 5.38,25.44 5.53,16.08 8.28,27.06 8.28,32.93 0,5.45 -1.81,10.06 -5.52,13.84 -3.71,3.77 -7.66,5.66 -11.77,5.66 -5.76,0 -10.89,-2.03 -15.55,-5.94 -3.24,-2.87 -4.82,-7.48 -4.82,-13.77 0,-6.5 1.74,-14.4 5.29,-23.63 3.56,-9.22 5.77,-15.58 6.71,-19.01 0.95,-3.5 1.82,-8.67 2.53,-15.52 -9.08,5.38 -17.05,11.25 -23.77,17.83 -11.29,11.18 -19.74,18.31 -25.51,21.32 -4.02,2.16 -8.13,3.28 -12.47,3.28 -5.21,0 -9.71,-1.61 -13.42,-4.75 -3.71,-3.15 -5.53,-6.57 -5.53,-10.42 0,-3.43 1.58,-6.99 4.74,-10.76 3.15,-3.78 7.89,-6.85 14.21,-9.3 4.19,-1.68 13.66,-3.84 28.43,-6.57 9.55,-1.75 18.95,-4.33 28.03,-7.76 -8.37,-3.71 -18.32,-6.57 -29.85,-8.6 -18.95,-3.56 -30.72,-6.78 -35.14,-9.65 -6.95,-4.47 -10.42,-9.99 -10.42,-16.35 0,-3.71 1.74,-7.06 5.21,-10.14 3.47,-3.08 7.5,-4.61 12.16,-4.61 5.06,0 10.42,1.39 16.19,4.26 5.68,2.87 12.79,8.67 21.24,17.34 8.53,8.67 17.14,15.37 25.9,20.13z"/>
  <path class="fil3 str5" d="M2257.18 2493.93c-0.63,-9.37 -2.76,-18.74 -6.47,-28.03 -5.22,-13.36 -7.82,-22.58 -7.82,-27.62 0,-7.13 1.89,-12.51 5.61,-16.21 3.78,-3.71 8.45,-5.52 14.05,-5.52 4.74,0 8.92,1.81 12.48,5.52 3.55,3.7 5.28,8.95 5.28,15.8 0,6.15 -2.04,14.67 -6.07,25.65 -4.11,11.04 -6.63,21.18 -7.59,30.41 8.53,-4.76 16.11,-10.56 22.9,-17.41 10.51,-10.76 18.32,-17.48 23.38,-20.06 5.13,-2.59 10.26,-3.85 15.55,-3.85 5.06,0 9.32,1.54 12.79,4.62 3.48,3 5.22,6.71 5.22,10.9 0,5.11 -2.53,9.58 -7.66,13.56 -5.05,3.92 -17.77,7.9 -38.14,11.89 -11.85,2.31 -21.71,4.96 -29.61,7.97 8.05,3.7 17.85,6.5 29.37,8.38 18.64,3.01 30.87,6.79 36.64,11.26 5.85,4.55 8.69,9.44 8.69,14.75 0,4.12 -1.74,7.62 -5.22,10.63 -3.47,3 -7.49,4.54 -12.08,4.54 -4.65,0 -9.79,-1.47 -15.39,-4.33 -5.61,-2.87 -13.27,-9.3 -22.83,-19.23 -6.31,-6.71 -14.13,-13 -23.61,-18.87 0.32,7.83 2.14,16.28 5.38,25.44 5.53,16.08 8.28,27.06 8.28,32.93 0,5.45 -1.81,10.06 -5.52,13.84 -3.71,3.77 -7.66,5.66 -11.77,5.66 -5.76,0 -10.89,-2.03 -15.55,-5.94 -3.24,-2.87 -4.82,-7.48 -4.82,-13.77 0,-6.5 1.74,-14.4 5.29,-23.63 3.56,-9.22 5.77,-15.58 6.71,-19.01 0.95,-3.5 1.82,-8.67 2.53,-15.52 -9.08,5.38 -17.05,11.25 -23.77,17.83 -11.29,11.18 -19.74,18.31 -25.51,21.32 -4.02,2.16 -8.13,3.28 -12.47,3.28 -5.21,0 -9.71,-1.61 -13.42,-4.75 -3.71,-3.15 -5.53,-6.57 -5.53,-10.42 0,-3.43 1.58,-6.99 4.74,-10.76 3.15,-3.78 7.89,-6.85 14.21,-9.3 4.19,-1.68 13.66,-3.84 28.43,-6.57 9.55,-1.75 18.95,-4.33 28.03,-7.76 -8.37,-3.71 -18.32,-6.57 -29.85,-8.6 -18.95,-3.56 -30.72,-6.78 -35.14,-9.65 -6.95,-4.47 -10.42,-9.99 -10.42,-16.35 0,-3.71 1.74,-7.06 5.21,-10.14 3.47,-3.08 7.5,-4.61 12.16,-4.61 5.06,0 10.42,1.39 16.19,4.26 5.68,2.87 12.79,8.67 21.24,17.34 8.53,8.67 17.14,15.37 25.9,20.13z"/>
  <path class="fil3" d="M1230.96 2615.17c-21.13,-6.1 -35.92,-9.8 -44.39,-11.1 -8.48,-1.24 -16.25,-0.11 -23.3,3.45 -7.03,3.63 -11.69,8.35 -13.97,14.22 -0.67,1.73 -0.99,4.44 -1,8.13 -0.05,4.06 -0.43,6.93 -1.06,8.55 -0.78,2.03 -2.24,3.61 -4.42,4.7 -2.18,1.08 -4.49,1.16 -6.95,0.2 -7.16,-2.78 -8.8,-9.09 -4.99,-18.9 3.62,-9.33 10.03,-16.77 19.18,-22.36 9.15,-5.59 19.43,-8.08 30.91,-7.54 11.51,0.6 25.83,3.5 42.98,8.73 11.71,3.47 19.66,5.36 23.81,5.66 4.12,0.36 8.96,-0.43 14.49,-2.38 -7.51,10.71 -16.05,24.83 -25.73,42.3l-36.27 65.67 -29.74 57.36c6.22,4.47 12.29,7.84 18.15,10.12 4.05,1.57 8.31,2.71 12.78,3.49l-4.63 7.67c-2.96,-0.81 -6.09,-1.85 -9.24,-3.07 -3.7,-1.44 -10.12,-4.5 -19.4,-9.24 -4.86,-2.55 -8.35,-4.25 -10.47,-5.07 -4.64,-1.81 -11.08,-3.62 -19.33,-5.46 10.68,-11.3 20.73,-25.78 30.02,-43.58 24,-45.92 42.57,-77.99 55.64,-96.3 -20.32,12.43 -41.63,26.41 -63.86,42.14 -41.84,29.57 -70.52,49.37 -86.06,59.29 -15.56,9.97 -29.49,16.89 -41.72,20.77 -12.31,3.91 -23.28,3.96 -33,0.2 -10.71,-4.16 -14.6,-9.93 -11.71,-17.38 0.98,-2.51 2.57,-4.28 4.73,-5.32 2.16,-1.04 4.37,-1.13 6.58,-0.27 1.43,0.55 3.21,1.52 5.32,2.96 5.12,3.64 8.68,5.87 10.7,6.65 8.78,3.41 21.81,0.41 39.13,-8.99 17.36,-9.45 41.34,-25.17 71.99,-47.28 45.62,-32.88 80.53,-55.55 104.83,-68.02zm189.54 29.71l-4.02 7.69c-11.71,-1.27 -19.61,-1.19 -23.8,0.34 -2.69,1.04 -5.1,2.83 -7.21,5.41 -2.57,3.38 -11.56,21.86 -26.99,55.54 -5.09,11.1 -18.29,41.53 -39.77,91.3 6.69,3.84 15.52,6.54 26.47,8.12l-3.69 6.77c-3.25,-0.45 -9.69,-2.05 -19.26,-4.78 -6.92,-1.94 -15.04,-3.72 -24.43,-5.34 -12.93,-2.23 -24.92,-3.34 -36.05,-3.32l3.29 -7.82c11.45,0.21 20.34,-0.56 26.6,-2.32 1.58,-0.43 2.83,-1.13 3.85,-2.03 1.83,-1.56 4.12,-4.93 6.86,-10.2 2.73,-5.22 12.7,-26.86 30,-64.89 5.02,-11.01 15.56,-35.13 31.65,-72.3 -7,-1.42 -15.79,-1.87 -26.35,-1.32l4.38 -7.96c4.47,-0.4 8.99,-0.48 13.51,-0.18 4.56,0.3 14.76,1.63 30.63,3.94 14.83,2.13 26.29,3.25 34.33,3.35zm229.95 8.34l-1.04 3.79c-8.4,1.9 -15.33,4.35 -20.89,7.36 -5.51,3.02 -13.03,8.48 -22.45,16.49 -25.24,21.16 -47.21,37.4 -65.79,48.61 5.16,6.61 9.51,14.01 13.05,22.12 3.6,8.18 9.68,26.87 18.32,56.1 7.74,26.14 15.85,43.82 24.25,53.09 8.39,9.26 17.03,13.99 25.97,14.16 8.56,0.17 14.48,-4.26 17.78,-13.3 1.96,-5.3 3.61,-8.61 5.01,-9.8 1.89,-1.6 3.97,-2.4 6.23,-2.36 2.49,0.05 4.6,0.93 6.3,2.67 1.72,1.72 2.58,3.8 2.53,6.19 -0.12,6.13 -3.89,12.03 -11.36,17.66 -7.46,5.62 -16.78,8.35 -28.05,8.12 -9.73,-0.19 -18.89,-2.86 -27.52,-7.95 -8.63,-5.14 -16.42,-13.03 -23.46,-23.8 -7.04,-10.73 -14.06,-27.33 -21.19,-49.7 -6.62,-21.14 -11.73,-35.64 -15.38,-43.49 -3.72,-7.86 -8.84,-16.16 -15.5,-24.97l-17.89 62.16c-3.64,12.57 -5.88,21.57 -6.84,27.01 6.92,3.15 13.14,4.81 18.69,4.92 1.33,0.02 3.23,-0.04 5.72,-0.21l-2.06 7.59c-2.06,0.06 -3.38,0.08 -3.86,0.07 -3.44,-0.06 -8.24,-0.53 -14.53,-1.33 -6.54,-0.82 -11.99,-1.25 -16.16,-1.33 -8.58,-0.17 -22.15,1.15 -40.73,3.95l1.04 -7.28c9.88,-1.76 16.86,-4.33 20.95,-7.74 4.09,-3.36 7.38,-8.74 9.9,-16.1 5.78,-16.61 13.42,-41.6 22.92,-74.92l20.36 -71.26c-20.5,0.82 -36.73,5.15 -48.79,12.9 -9.27,5.91 -14.02,12.59 -14.16,20.1 -0.06,2.64 1.15,6.06 3.6,10.24 2.26,3.74 3.37,6.73 3.33,9.01 -0.06,2.75 -1.12,5.16 -3.22,7.23 -2.11,2.08 -4.51,3.09 -7.26,3.04 -3.18,-0.06 -6,-1.71 -8.42,-4.99 -2.43,-3.22 -3.61,-7.53 -3.51,-12.77 0.28,-14.39 7.69,-27.15 22.25,-38.41 14.57,-11.24 39.55,-16.52 75.05,-15.82l10.05 0.2c-5.95,14.76 -9.88,25.42 -11.81,32l-13.14 46.69c7.72,-2.76 16.71,-7.56 27.07,-14.34 10.29,-6.84 20.23,-14.05 29.79,-21.8 17.55,-14.15 27.56,-22.8 29.95,-25.87 0.76,-1.05 1.15,-1.94 1.16,-2.63 0.02,-0.84 -1.02,-1.6 -3.13,-2.33 -2.05,-0.73 -8.02,-1.27 -17.75,-1.68l2.08 -8.53c13.2,1.53 23.98,2.38 32.44,2.55 8.68,0.17 18.69,-0.27 30.1,-1.31zm225.32 136.8l-0.02 8.98c-3.65,0.94 -6.79,1.65 -9.56,2.12 -3.96,0.69 -8.81,1.26 -14.53,1.66 -9.7,0.76 -15.89,1.34 -18.44,1.78 -4.27,0.74 -10.74,2.51 -19.38,5.29 1.8,-8.48 2.98,-17.22 3.62,-26.3 0.49,-6.48 0.26,-17.44 -0.63,-32.86 -11.75,1.91 -30.02,5.29 -54.65,10.07 -19.24,44.04 -34.09,72.22 -44.42,84.47 -10.35,12.25 -21.05,19.32 -31.95,21.2 -5.74,0.99 -10.2,0.63 -13.41,-1.13 -3.19,-1.75 -5.1,-4.37 -5.7,-7.87 -0.47,-2.71 -0.03,-5.1 1.29,-7.1 1.31,-2.05 3.2,-3.29 5.65,-3.71 1.4,-0.24 3.38,-0.32 5.93,-0.17 6.36,0.46 10.56,0.54 12.59,0.19 6.83,-1.18 13.68,-6.33 20.59,-15.47 11.17,-14.93 26.35,-44.89 45.51,-89.75 21.67,-50.79 39.91,-88.2 54.63,-112.16 -24.48,6.59 -39.65,11.41 -45.45,14.55 -7.97,4.23 -13.63,9.39 -16.92,15.49 -3.29,6.16 -4.48,12 -3.52,17.58 0.32,1.83 1.44,4.31 3.32,7.43 2.06,3.51 3.22,6.16 3.51,7.87 0.39,2.25 -0.15,4.38 -1.58,6.4 -1.42,2.02 -3.35,3.26 -5.81,3.69 -3.49,0.6 -6.48,-0.22 -9.01,-2.47 -2.53,-2.2 -4.25,-5.93 -5.14,-11.09 -1.27,-7.35 -0.57,-14.78 2.05,-22.32 2.64,-7.48 7.1,-14.22 13.46,-20.04 6.34,-5.87 14.65,-10.96 24.91,-15.26 5.31,-2.26 14.8,-5.08 28.5,-8.52 11.92,-3.08 19.32,-5.38 22.24,-6.8 4.61,-2.18 8.76,-5.53 12.52,-10.15 -0.91,13.04 -1.25,24.43 -0.94,34.04l3.17 90.47 3.99 64.5c7.85,0.37 14.77,0.03 20.77,-1.01 4.02,-0.69 8.26,-1.9 12.81,-3.6zm-59.53 -51.15c-2.23,-42.15 -2.59,-73.18 -0.98,-93.05 -9.74,19.45 -15.73,31.7 -18.03,36.72l-28.87 64.59c8.36,-1.12 20.27,-3.01 35.76,-5.68 3.8,-0.66 7.84,-1.52 12.12,-2.58zm137.75 -125.83l-0.88 -7.17c13.3,-6.92 24.3,-13.62 33.12,-20.06 0.42,7.59 1.49,17.25 3.2,29.04l5.41 44.75 13.32 -4.99c6.27,-2.17 12.33,-6.37 18.21,-12.61 5.88,-6.23 10.03,-14.67 12.38,-25.31 2.32,-10.68 1.55,-20.87 -2.33,-30.54 -3.86,-9.62 -10.37,-15.79 -19.57,-18.66 -9.22,-2.81 -20.95,-1.35 -35.25,4.38 -16.3,6.54 -30.64,16.96 -43.01,31.34 -12.44,14.33 -20.32,29.52 -23.77,45.5 -3.47,15.98 -2.71,30.1 2.2,42.33 2.42,6.05 5.61,10.86 9.59,14.4 4.01,3.58 9.68,6.37 17.07,8.43 6.05,1.57 9.74,3.96 11.04,7.21 0.85,2.11 0.77,4.19 -0.18,6.22 -0.95,2.04 -2.48,3.51 -4.59,4.36 -5.69,2.28 -12.7,0.59 -21.12,-5.05 -8.36,-5.65 -14.96,-14.42 -19.7,-26.25 -8.72,-21.76 -8.32,-44.9 1.2,-69.52 12.42,-32.29 37.07,-55.86 73.95,-70.65 14,-5.61 26.22,-8.4 36.62,-8.34 10.45,0.02 19.17,2.29 26.17,6.83 7,4.5 11.96,10.48 14.91,17.85 3.75,9.33 4.3,19.82 1.64,31.38 -2.67,11.57 -8.96,22.58 -18.97,33.03 -9.95,10.44 -22.46,18.64 -37.39,24.63 -2.31,0.93 -5.93,2.27 -10.92,4.04l6.3 49.41c1.17,8.31 2.07,16.68 2.72,24.97 8.17,-1.23 15.06,-2.97 20.61,-5.19 7.01,-2.82 14.02,-7.1 21.05,-12.88l1.48 8.64c-6.69,4.96 -12.62,8.48 -17.83,10.57 -4.96,1.99 -12.48,4.43 -22.47,7.23 -8.04,2.15 -14.47,4.16 -19.28,6.09 -9.28,3.72 -18.38,8.62 -27.29,14.7l-1.35 -8.35c9.31,-5.62 15.15,-10.7 17.56,-15.2 3.47,-6.41 4.23,-16.74 2.28,-31.01l-12.84 -94.86c-0.59,-4.32 -1.22,-7.32 -1.85,-8.89 -0.61,-1.52 -1.79,-2.59 -3.48,-3.28 -1.75,-0.66 -3.46,-0.66 -5.18,0.03 -0.68,0.28 -1.63,0.76 -2.78,1.45z"/>
  <path id="_1_0" class="fil4 str6" d="M1230.96 2615.17c-21.13,-6.1 -35.92,-9.8 -44.39,-11.1 -8.48,-1.24 -16.25,-0.11 -23.3,3.45 -7.03,3.63 -11.69,8.35 -13.97,14.22 -0.67,1.73 -0.99,4.44 -1,8.13 -0.05,4.06 -0.43,6.93 -1.06,8.55 -0.78,2.03 -2.24,3.61 -4.42,4.7 -2.18,1.08 -4.49,1.16 -6.95,0.2 -7.16,-2.78 -8.8,-9.09 -4.99,-18.9 3.62,-9.33 10.03,-16.77 19.18,-22.36 9.15,-5.59 19.43,-8.08 30.91,-7.54 11.51,0.6 25.83,3.5 42.98,8.73 11.71,3.47 19.66,5.36 23.81,5.66 4.12,0.36 8.96,-0.43 14.49,-2.38 -7.51,10.71 -16.05,24.83 -25.73,42.3l-36.27 65.67 -29.74 57.36c6.22,4.47 12.29,7.84 18.15,10.12 4.05,1.57 8.31,2.71 12.78,3.49l-4.63 7.67c-2.96,-0.81 -6.09,-1.85 -9.24,-3.07 -3.7,-1.44 -10.12,-4.5 -19.4,-9.24 -4.86,-2.55 -8.35,-4.25 -10.47,-5.07 -4.64,-1.81 -11.08,-3.62 -19.33,-5.46 10.68,-11.3 20.73,-25.78 30.02,-43.58 24,-45.92 42.57,-77.99 55.64,-96.3 -20.32,12.43 -41.63,26.41 -63.86,42.14 -41.84,29.57 -70.52,49.37 -86.06,59.29 -15.56,9.97 -29.49,16.89 -41.72,20.77 -12.31,3.91 -23.28,3.96 -33,0.2 -10.71,-4.16 -14.6,-9.93 -11.71,-17.38 0.98,-2.51 2.57,-4.28 4.73,-5.32 2.16,-1.04 4.37,-1.13 6.58,-0.27 1.43,0.55 3.21,1.52 5.32,2.96 5.12,3.64 8.68,5.87 10.7,6.65 8.78,3.41 21.81,0.41 39.13,-8.99 17.36,-9.45 41.34,-25.17 71.99,-47.28 45.62,-32.88 80.53,-55.55 104.83,-68.02zm189.54 29.71l-4.02 7.69c-11.71,-1.27 -19.61,-1.19 -23.8,0.34 -2.69,1.04 -5.1,2.83 -7.21,5.41 -2.57,3.38 -11.56,21.86 -26.99,55.54 -5.09,11.1 -18.29,41.53 -39.77,91.3 6.69,3.84 15.52,6.54 26.47,8.12l-3.69 6.77c-3.25,-0.45 -9.69,-2.05 -19.26,-4.78 -6.92,-1.94 -15.04,-3.72 -24.43,-5.34 -12.93,-2.23 -24.92,-3.34 -36.05,-3.32l3.29 -7.82c11.45,0.21 20.34,-0.56 26.6,-2.32 1.58,-0.43 2.83,-1.13 3.85,-2.03 1.83,-1.56 4.12,-4.93 6.86,-10.2 2.73,-5.22 12.7,-26.86 30,-64.89 5.02,-11.01 15.56,-35.13 31.65,-72.3 -7,-1.42 -15.79,-1.87 -26.35,-1.32l4.38 -7.96c4.47,-0.4 8.99,-0.48 13.51,-0.18 4.56,0.3 14.76,1.63 30.63,3.94 14.83,2.13 26.29,3.25 34.33,3.35zm229.95 8.34l-1.04 3.79c-8.4,1.9 -15.33,4.35 -20.89,7.36 -5.51,3.02 -13.03,8.48 -22.45,16.49 -25.24,21.16 -47.21,37.4 -65.79,48.61 5.16,6.61 9.51,14.01 13.05,22.12 3.6,8.18 9.68,26.87 18.32,56.1 7.74,26.14 15.85,43.82 24.25,53.09 8.39,9.26 17.03,13.99 25.97,14.16 8.56,0.17 14.48,-4.26 17.78,-13.3 1.96,-5.3 3.61,-8.61 5.01,-9.8 1.89,-1.6 3.97,-2.4 6.23,-2.36 2.49,0.05 4.6,0.93 6.3,2.67 1.72,1.72 2.58,3.8 2.53,6.19 -0.12,6.13 -3.89,12.03 -11.36,17.66 -7.46,5.62 -16.78,8.35 -28.05,8.12 -9.73,-0.19 -18.89,-2.86 -27.52,-7.95 -8.63,-5.14 -16.42,-13.03 -23.46,-23.8 -7.04,-10.73 -14.06,-27.33 -21.19,-49.7 -6.62,-21.14 -11.73,-35.64 -15.38,-43.49 -3.72,-7.86 -8.84,-16.16 -15.5,-24.97l-17.89 62.16c-3.64,12.57 -5.88,21.57 -6.84,27.01 6.92,3.15 13.14,4.81 18.69,4.92 1.33,0.02 3.23,-0.04 5.72,-0.21l-2.06 7.59c-2.06,0.06 -3.38,0.08 -3.86,0.07 -3.44,-0.06 -8.24,-0.53 -14.53,-1.33 -6.54,-0.82 -11.99,-1.25 -16.16,-1.33 -8.58,-0.17 -22.15,1.15 -40.73,3.95l1.04 -7.28c9.88,-1.76 16.86,-4.33 20.95,-7.74 4.09,-3.36 7.38,-8.74 9.9,-16.1 5.78,-16.61 13.42,-41.6 22.92,-74.92l20.36 -71.26c-20.5,0.82 -36.73,5.15 -48.79,12.9 -9.27,5.91 -14.02,12.59 -14.16,20.1 -0.06,2.64 1.15,6.06 3.6,10.24 2.26,3.74 3.37,6.73 3.33,9.01 -0.06,2.75 -1.12,5.16 -3.22,7.23 -2.11,2.08 -4.51,3.09 -7.26,3.04 -3.18,-0.06 -6,-1.71 -8.42,-4.99 -2.43,-3.22 -3.61,-7.53 -3.51,-12.77 0.28,-14.39 7.69,-27.15 22.25,-38.41 14.57,-11.24 39.55,-16.52 75.05,-15.82l10.05 0.2c-5.95,14.76 -9.88,25.42 -11.81,32l-13.14 46.69c7.72,-2.76 16.71,-7.56 27.07,-14.34 10.29,-6.84 20.23,-14.05 29.79,-21.8 17.55,-14.15 27.56,-22.8 29.95,-25.87 0.76,-1.05 1.15,-1.94 1.16,-2.63 0.02,-0.84 -1.02,-1.6 -3.13,-2.33 -2.05,-0.73 -8.02,-1.27 -17.75,-1.68l2.08 -8.53c13.2,1.53 23.98,2.38 32.44,2.55 8.68,0.17 18.69,-0.27 30.1,-1.31zm225.32 136.8l-0.02 8.98c-3.65,0.94 -6.79,1.65 -9.56,2.12 -3.96,0.69 -8.81,1.26 -14.53,1.66 -9.7,0.76 -15.89,1.34 -18.44,1.78 -4.27,0.74 -10.74,2.51 -19.38,5.29 1.8,-8.48 2.98,-17.22 3.62,-26.3 0.49,-6.48 0.26,-17.44 -0.63,-32.86 -11.75,1.91 -30.02,5.29 -54.65,10.07 -19.24,44.04 -34.09,72.22 -44.42,84.47 -10.35,12.25 -21.05,19.32 -31.95,21.2 -5.74,0.99 -10.2,0.63 -13.41,-1.13 -3.19,-1.75 -5.1,-4.37 -5.7,-7.87 -0.47,-2.71 -0.03,-5.1 1.29,-7.1 1.31,-2.05 3.2,-3.29 5.65,-3.71 1.4,-0.24 3.38,-0.32 5.93,-0.17 6.36,0.46 10.56,0.54 12.59,0.19 6.83,-1.18 13.68,-6.33 20.59,-15.47 11.17,-14.93 26.35,-44.89 45.51,-89.75 21.67,-50.79 39.91,-88.2 54.63,-112.16 -24.48,6.59 -39.65,11.41 -45.45,14.55 -7.97,4.23 -13.63,9.39 -16.92,15.49 -3.29,6.16 -4.48,12 -3.52,17.58 0.32,1.83 1.44,4.31 3.32,7.43 2.06,3.51 3.22,6.16 3.51,7.87 0.39,2.25 -0.15,4.38 -1.58,6.4 -1.42,2.02 -3.35,3.26 -5.81,3.69 -3.49,0.6 -6.48,-0.22 -9.01,-2.47 -2.53,-2.2 -4.25,-5.93 -5.14,-11.09 -1.27,-7.35 -0.57,-14.78 2.05,-22.32 2.64,-7.48 7.1,-14.22 13.46,-20.04 6.34,-5.87 14.65,-10.96 24.91,-15.26 5.31,-2.26 14.8,-5.08 28.5,-8.52 11.92,-3.08 19.32,-5.38 22.24,-6.8 4.61,-2.18 8.76,-5.53 12.52,-10.15 -0.91,13.04 -1.25,24.43 -0.94,34.04l3.17 90.47 3.99 64.5c7.85,0.37 14.77,0.03 20.77,-1.01 4.02,-0.69 8.26,-1.9 12.81,-3.6zm-59.53 -51.15c-2.23,-42.15 -2.59,-73.18 -0.98,-93.05 -9.74,19.45 -15.73,31.7 -18.03,36.72l-28.87 64.59c8.36,-1.12 20.27,-3.01 35.76,-5.68 3.8,-0.66 7.84,-1.52 12.12,-2.58zm137.75 -125.83l-0.88 -7.17c13.3,-6.92 24.3,-13.62 33.12,-20.06 0.42,7.59 1.49,17.25 3.2,29.04l5.41 44.75 13.32 -4.99c6.27,-2.17 12.33,-6.37 18.21,-12.61 5.88,-6.23 10.03,-14.67 12.38,-25.31 2.32,-10.68 1.55,-20.87 -2.33,-30.54 -3.86,-9.62 -10.37,-15.79 -19.57,-18.66 -9.22,-2.81 -20.95,-1.35 -35.25,4.38 -16.3,6.54 -30.64,16.96 -43.01,31.34 -12.44,14.33 -20.32,29.52 -23.77,45.5 -3.47,15.98 -2.71,30.1 2.2,42.33 2.42,6.05 5.61,10.86 9.59,14.4 4.01,3.58 9.68,6.37 17.07,8.43 6.05,1.57 9.74,3.96 11.04,7.21 0.85,2.11 0.77,4.19 -0.18,6.22 -0.95,2.04 -2.48,3.51 -4.59,4.36 -5.69,2.28 -12.7,0.59 -21.12,-5.05 -8.36,-5.65 -14.96,-14.42 -19.7,-26.25 -8.72,-21.76 -8.32,-44.9 1.2,-69.52 12.42,-32.29 37.07,-55.86 73.95,-70.65 14,-5.61 26.22,-8.4 36.62,-8.34 10.45,0.02 19.17,2.29 26.17,6.83 7,4.5 11.96,10.48 14.91,17.85 3.75,9.33 4.3,19.82 1.64,31.38 -2.67,11.57 -8.96,22.58 -18.97,33.03 -9.95,10.44 -22.46,18.64 -37.39,24.63 -2.31,0.93 -5.93,2.27 -10.92,4.04l6.3 49.41c1.17,8.31 2.07,16.68 2.72,24.97 8.17,-1.23 15.06,-2.97 20.61,-5.19 7.01,-2.82 14.02,-7.1 21.05,-12.88l1.48 8.64c-6.69,4.96 -12.62,8.48 -17.83,10.57 -4.96,1.99 -12.48,4.43 -22.47,7.23 -8.04,2.15 -14.47,4.16 -19.28,6.09 -9.28,3.72 -18.38,8.62 -27.29,14.7l-1.35 -8.35c9.31,-5.62 15.15,-10.7 17.56,-15.2 3.47,-6.41 4.23,-16.74 2.28,-31.01l-12.84 -94.86c-0.59,-4.32 -1.22,-7.32 -1.85,-8.89 -0.61,-1.52 -1.79,-2.59 -3.48,-3.28 -1.75,-0.66 -3.46,-0.66 -5.18,0.03 -0.68,0.28 -1.63,0.76 -2.78,1.45z"/>
 </g>
</svg>
