<?xml version="1.0" encoding="UTF-8"?>
<!DOCTYPE svg PUBLIC "-//W3C//DTD SVG 1.1//EN" "http://www.w3.org/Graphics/SVG/1.1/DTD/svg11.dtd">
<!-- Creator: CorelDRAW 2019 (64-Bit) -->
<svg xmlns="http://www.w3.org/2000/svg" xml:space="preserve" width="31mm" height="31mm" version="1.1" style="shape-rendering:geometricPrecision; text-rendering:geometricPrecision; image-rendering:optimizeQuality; fill-rule:evenodd; clip-rule:evenodd"
viewBox="0 0 3100 3100"
 xmlns:xlink="http://www.w3.org/1999/xlink"
 xmlns:xodm="http://www.corel.com/coreldraw/odm/2003">
 <defs>
  <style type="text/css">
   <![CDATA[
    .str4 {stroke:#393185;stroke-width:34.99;stroke-miterlimit:22.9256}
    .str0 {stroke:#393185;stroke-width:7.62;stroke-miterlimit:22.9256}
    .str3 {stroke:#393185;stroke-width:25;stroke-linejoin:round;stroke-miterlimit:22.9256}
    .str1 {stroke:#393185;stroke-width:10;stroke-linejoin:round;stroke-miterlimit:22.9256}
    .str2 {stroke:#393185;stroke-width:20;stroke-linecap:round;stroke-linejoin:round;stroke-miterlimit:22.9256}
    .fil2 {fill:none}
    .fil3 {fill:none;fill-rule:nonzero}
    .fil0 {fill:#393185}
    .fil1 {fill:#393185;fill-rule:nonzero}
   ]]>
  </style>
 </defs>
 <g id="Слой_x0020_1">
  <metadata id="CorelCorpID_0Corel-Layer"/>
  <g id="_1307155040">
   <path class="fil0 str0" d="M1549.99 50c-828.41,0 -1499.98,671.57 -1499.98,1500 0,828.43 671.57,1500 1499.98,1500 828.45,0 1500.01,-671.57 1500.01,-1500 0,-828.43 -671.56,-1500 -1500.01,-1500l0 0zm0 42.86c803.5,0 1457.17,653.69 1457.17,1457.14 0,803.47 -653.67,1457.14 -1457.17,1457.14 -803.46,0 -1457.14,-653.67 -1457.14,-1457.14 0,-803.46 653.68,-1457.14 1457.14,-1457.14z"/>
   <path class="fil0" d="M1732.43 1248.63l-13.43 -7.17 16.98 11.57 -3.55 -4.4zm-328.62 1298.19l2.66 0 0 -20.51 -2.66 0 0 20.51zm449.06 -1045.88c-2.99,0.03 -6.04,0.83 -9.44,3.1 -3.8,-4.5 -7.61,-4.71 -11.41,-3.77 -4.03,-0.08 -8.12,2.11 -12.33,3.06 -2.87,0 -5.83,-1 -9,-4.09l0.41 3.43c-1.33,-0.67 -2.51,-1.6 -3.96,-2.97l1.81 13.34c2.66,7.12 9.74,3.6 14.21,4.47l0.26 -0.54c1.14,-0.13 2.33,-0.13 3.32,0.08 1.63,-3.14 3.29,-4.88 4.95,-5.65 6.38,1.1 13,11.21 19.93,8.35 2.5,0.36 5.13,-0.58 7.9,-4.05 3.92,6.32 7.9,7.24 11.85,6.04 6.45,0.53 12.96,-6.97 19.34,-8.91 3.33,0.3 6.54,2.7 9.85,9.11l-0.44 -6.5c1.37,1.4 2.7,3.39 4.1,6.04l-1.73 -20.51c-7.13,1.83 -13.4,-2.6 -20.53,-1.73l-0.47 0.36c-1.12,-0.06 -2.07,-0.06 -3.07,0.1 -2.18,1.53 -4.13,2.43 -6.12,2.88 -6.46,0.13 -12.52,-3.34 -19.43,-1.64zm31.97 26.17c-1.07,-0.18 -2.07,-0.18 -2.88,0.16 -2.21,0.99 -5.06,1.94 -8,2.47 -4.06,0.21 -8.05,-0.69 -10.72,-3.76 -0.88,0.59 -1.69,1.13 -2.43,1.59 -0.33,-0.39 -0.77,-0.76 -1.15,-1.16 -2.84,2.02 -5.34,3.13 -7.89,3.71 -10.48,0.25 -19.08,-8.61 -30.56,-6.08 -3.33,0.13 -6.72,1.03 -10.52,3.23l0 6.24c1.81,8.9 5.28,15.1 14.31,14.26 2.4,1.2 4.29,1.17 5.87,0.38 4.88,0.9 7.02,-3.85 9.45,-5.87 0.97,0.53 2.04,1.73 3.33,3.73 4.1,4.37 8.3,4.87 12.48,3.87 5.57,0.04 11.22,-3.93 16.17,-5.5 2.54,3.8 6.49,4.47 10.29,3.44 4.5,0.2 9.38,-2.74 12.47,-6.24 2.84,1.36 5.92,3.3 9.97,2.64l0 -0.51c1.14,0.23 2.37,0.26 3.66,0.07l-2.67 -14.27c-1.25,0.44 -2.35,0.56 -3.53,0.61l0 -0.17 -0.56 0.17c-6.57,-0.12 -12.77,-4.75 -16.5,-3.27l-0.59 0.26zm28.2 45.18c-2.62,-15.88 -1.73,-21.28 -18.13,-18.82 -1.21,0.13 -2.61,0.3 -4.09,0.55 -1.28,2.03 -2.96,3.18 -4.68,3.76 -4.44,-0.2 -9.09,-2.65 -12.18,-4.22 -0.67,0.5 -1.19,0.92 -1.86,1.32l-1.76 -0.87c-4.25,3.31 -8.23,5.05 -12.11,5.84 -12.22,0.63 -23.44,-7.17 -37.14,-4.67 -2.54,0.16 -5.12,0.62 -7.67,1.5 0,5.32 -1.81,11.56 1.74,16.03 4.79,5.74 9.04,6.74 12.92,5.5 8.26,0.65 14.87,-10.67 21.95,-13.2 2.55,0.3 5.06,2.04 7.9,5.87 3.03,1.57 7.68,2.53 11.48,1.49 3.03,0 6.13,-0.86 8.08,-3.19 3.29,4.14 6.46,4.57 9.75,3.57 5.24,0.49 10.52,-5 15.46,-6.71 2.4,0.33 4.7,2.17 6.8,6.67 -0.37,-2.33 -0.63,-4.39 -1,-6.29 1.59,0.96 3.06,2.76 4.54,5.87zm-31.08 6.19c-0.59,0.46 -1.18,0.88 -1.87,1.21 -0.53,-0.24 -1.15,-0.45 -1.67,-0.74 -2.26,1.57 -4.61,2.61 -7.27,3.13 -7.79,0.33 -16.21,-3.26 -22.15,-8.06 -0.25,0.93 -0.51,1.75 -0.77,2.53 -0.96,-0.66 -1.88,-1.37 -2.77,-2.07 -1.66,6.87 -5.21,9.56 -9.45,10.5 -5.39,0.17 -11.26,-1.27 -14.98,-0.17 -4.21,0.05 -7.32,1.2 -7.61,6.57l97 -2.63 -0.11 -0.34 3.65 -0.13c-2.65,-15.12 -19.59,-3.6 -32,-9.8zm-386.72 226.2c-3.14,0.24 -6.24,0.87 -9.45,2.18l25.43 0.88c8.46,0.13 14.21,-0.05 19.01,-0.88l-0.3 0c1.18,-0.04 2.52,-0.21 3.85,-0.44l-12.89 -0.59c-0.67,-0.05 -1.36,-0.1 -2.03,-0.17 -8.04,-1 -15.61,-2.46 -23.62,-0.98zm28.68 13.34c-8.83,0 -18.67,1.74 -26.69,-1.77 0.62,0.84 1.22,1.53 2.07,2.07 -1.92,-0.33 -3.8,-0.87 -5.54,-1.64 2.96,4.88 11.89,5.16 18.87,4 4.65,-0.4 9.07,-1.52 11.29,-2.66zm-4.36 14.24l-20.52 0 0 0.46 -3.54 0 0 2.67 20.48 1.8 0 -0.81 3.58 0.35 0 -4.47zm189.58 -595.67l-34.59 -14.31 24.29 11.91 -27.94 -11.4 38.24 18.67 -2.8 -3.6 6.38 3.2 -3.58 -4.47zm-50.71 -4.47c4.65,1.7 7.82,2.14 12.77,4.01l-16.24 -3.56c7.82,2.86 15.32,9.48 26.54,6.79 1.66,0 3.54,-0.3 5.42,-1.04l-28.49 -6.2zm-61.38 9.34c-1.63,-0.86 -5.06,-4.59 -10.19,-2.14 -1.81,-0.33 -3.73,0 -5.84,2.14l16.03 0zm138.93 6.71l-13.36 -7.11 16.94 11.54 -3.58 -4.43zm-158.5 0c-9.82,1.39 -14.7,-1.01 -21.34,0.36 -2.95,0.17 -5.98,0.8 -9.89,2.74 7.46,-0.67 14.81,0.69 21.52,-0.54 3.48,-0.25 6.6,-0.92 9.71,-2.56zm174.56 27.6c-6.5,-4.75 -12.41,-5.24 -18.16,-4.17 -15.88,0.87 -24.44,6.83 -35.15,11.13 -5.46,-0.46 -14.21,-3.6 -17.13,3.26 5.54,2.52 12.82,4.18 19.16,2.85 10.37,-0.41 29.16,-11.44 41.12,-14.51 1.99,0 4.14,0.57 6.51,1.87 -1.27,-0.97 -2.52,-1.7 -3.78,-2.33 2.3,-0.11 4.65,0.43 7.43,1.9zm20.37 9.76c-4.5,-6.65 -8.86,-7.52 -13.06,-6.32 -5.95,-0.38 -11.75,5.5 -18.16,7.16 -2.45,-0.06 -5.14,-1 -7.98,-3.47 -0.34,0.81 -0.7,1.57 -1.14,2.23 -0.74,-0.5 -1.6,-1.12 -2.4,-1.83 -1.52,3.69 -3.73,5.31 -6.39,5.91 -3.25,0.09 -6.87,-0.34 -9.89,0.46 -4.25,0.13 -8.27,1.2 -10.46,7.04l2.66 1.72c4.54,1.54 9.93,2.2 14.78,1.21 4.57,-0.2 8.89,-1.67 11.95,-4.97 3.84,0.84 6.83,0.74 9.34,0.17 9.82,-0.24 12.89,-7.61 21.11,-9.5 1.74,-0.07 3.77,0.11 6.1,0.65 -0.27,-0.38 -0.6,-0.75 -0.78,-1.08 1.25,0.1 2.73,0.29 4.32,0.62zm19.6 16.04c-4.54,-8.72 -9.41,-9.66 -14.99,-8.43 -5.35,-0.03 -11.21,3.69 -17.75,5 -0.92,0 -1.88,0 -2.91,-0.11l-0.71 1.13c-1.07,0.09 -1.69,-0.56 -2.84,-0.73 -1.99,3.57 -4.72,5.14 -7.71,5.84 -4.77,0.2 -9.83,-0.7 -14.07,0.28 -3.58,0.13 -6.83,0.92 -9.38,3.68 5.72,4.47 10.42,4.98 14.96,3.98 6.75,-0.13 12.47,-4.67 19.19,-6.13 2.61,-0.04 5.46,0.54 8.64,2.15 0.07,-0.62 0.18,-1.27 0.36,-1.78 1,0.33 2.07,0.79 3.18,1.38 0.7,-4.52 2.36,-6.7 4.69,-7.52 5.35,0.32 11.96,4.29 15.13,2.3 1.74,0.29 3.29,0.09 4.21,-1.04zm-357.05 1.83c-0.92,-2.73 0.85,-6.25 -2.73,-7.15l-1.56 1.82c-0.33,-0.62 -0.92,-1.13 -1.98,-1.36l-6.2 7.1 8.92 0 -0.18 -0.41 3.73 0zm17.8 -5.37l-10.68 -1.8 0.74 1.17 -4.31 -0.7 4.46 7.11 2.51 -2.14 1.07 1.73 6.21 -5.37zm364.13 28.47c-7.94,-20.46 -24.88,-15.13 -40.94,-16.89l-0.4 0.69c-1.08,-0.08 -2.07,-0.16 -3.14,-0.25 -2.95,5.18 -6.5,7.32 -10.27,8.19 -4.98,0.17 -10.37,-0.99 -15.43,0.03 -3.68,0.21 -7.44,1.13 -10.73,4.24 4.68,11.77 11.55,13.3 19.16,11.9 7.38,-0.33 15.53,-4.96 22.99,-6.41 1.73,-0.09 3.47,0.11 4.95,0.71l0.95 -1.65c1.04,0.13 1.63,0.85 2.59,1.22 1.26,-3.01 2.62,-4.75 4.1,-5.57 5.27,1.23 11.62,9.17 18.72,6.7 2.53,0.23 4.9,-0.5 7.45,-2.9l0 -0.01zm22.33 24.07c-7.2,-6.24 -11.56,-13.36 -16.06,-20.48l-2.51 1.98 -1.04 -1.56 -4.45 3.56c-2.74,0.9 -5.95,1.81 -9.35,2.4 -5.28,0.36 -10.41,-0.38 -13.8,-3.73 -0.4,0.82 -0.85,1.56 -1.11,2.23 -0.89,-0.5 -1.66,-1.07 -2.48,-1.81 -2.02,4.46 -4.42,6.53 -7.26,7.3 -5.36,0 -11.37,-2.56 -16.8,-1.15 -3.73,0.05 -7.49,1.25 -10.59,5.46 0,10.66 12.48,9.76 18.64,12.44 0.51,-0.44 0.96,-0.87 1.48,-1.2 0.66,0.26 1.4,0.5 2.06,0.76 1.85,-1.7 3.81,-2.73 5.83,-3.23 6.91,-0.04 14.14,3.83 19.23,2.14 3.7,0.13 6.69,-1.11 8.76,-5.98l3.65 3.1c4.14,1.77 10.4,3.18 15.72,1.98 3.91,-0.17 7.64,-1.28 10.08,-4.21zm-335.71 -12.5c-1.22,0.17 -2.48,0.37 -3.59,0.59l0.04 -0.12c-12.44,1.76 -24.95,4.4 -34.73,12.47l4.5 0c1.81,-0.16 3.66,-0.37 5.46,-0.67 10.27,-1.07 21.63,-3.91 28.32,-12.27zm-27.61 24.94c-10.48,2.1 -20.45,-8.48 -28.13,-5.7 -3.47,-0.27 -6.61,1.15 -9.26,6.06l33.84 0c-2.69,0.57 -5.31,0.33 -7.89,-0.36l11.44 0zm379.37 14.23c-5.39,-7.13 -8,-14.23 -11.62,-20.47 -0.78,0.93 -1.59,1.74 -2.54,2.43l-0.94 -1.99c-3.02,3.35 -6.01,5 -9,5.7 -7.42,0.23 -15.02,-3.55 -22.22,-1.84 -2.73,0.07 -5.46,0.69 -8.08,2.3 -1.47,0.97 -3.03,1.45 -4.46,1.79 -7.72,0.17 -14.37,-4.47 -22.86,-2.56 -2.88,0.07 -5.72,0.77 -9.11,2.6 2.7,2.67 3.54,4.47 4.43,8.06 4.17,8.14 8.49,9.21 13.17,7.94 5.58,0.33 11.71,-5.06 17.9,-6.66 3.11,0.07 5.95,1.4 9.01,4.97 1.48,0.49 3.02,0.33 4.32,-0.26 3.55,0.7 6.75,-2.14 8.49,-5.38 2.55,3.77 4.8,4.01 7.2,2.86 3.88,1.15 7.64,-3.73 11.41,-6.59 1.47,5.19 6.38,6.71 11.25,7.53 -0.41,-0.49 -0.7,-1.02 -1.03,-1.56 1.43,0.54 3.03,0.87 4.68,1.13zm-404.25 0c-7.53,-2.24 -15.73,-13.37 -22.85,-10.4 -2.59,-0.33 -5.09,0.59 -7.49,3.73 8.01,5.34 16.94,8 26.69,7.1l-0.71 -0.23c1.37,0 2.85,-0.05 4.36,-0.2zm-14.32 8.04c-7.94,-2.4 -17.35,-12.68 -23.07,-9.63 -2.04,-0.38 -3.91,0.09 -5.47,2.02 6.31,7.17 23.25,5.34 24.99,8.03 -1.74,-0.53 -3.54,-1.46 -5.47,-2.53 4.47,0.63 8.28,0.91 9.02,2.11zm-32.01 -6.23c-0.54,0.95 -0.74,1.73 -0.74,2.43l-2.84 -1.97c-3.5,6.19 7.05,6.19 11.6,7.97l-3.07 -2.14c2.33,0.61 4.91,0.97 6.64,1.73l-11.59 -8.02zm454.97 4.42c-8.11,-1.33 -16.64,-1.07 -24.8,0.03 -8.3,0.88 -16.17,2.75 -23.07,4.85 -4.5,-2.56 -8.12,-2.56 -11.59,-1.81 -4.58,0.04 -8.59,2.3 -13.32,3.26 -1.99,0.04 -4.13,-0.22 -6.46,-0.96l0.18 1.24c-1.25,-0.12 -2.36,-0.41 -3.73,-0.83 1,16.67 10.93,16 21.94,14.52 2.05,-0.25 4.24,-0.53 6.41,-0.86 5.8,-0.59 11.6,-0.59 16.2,2.4 1.41,0.56 2.89,0.4 4.14,-0.23 3.25,0.76 6.31,-1.8 7.94,-4.54 2.73,2.07 5.54,2.16 8.49,1.4 4.84,0.26 9.7,-3.55 14.58,-4.86 2.58,0.12 5.05,1.36 7.53,4.66 -0.66,-1.53 -1.11,-3.1 -1.74,-4.66 1.81,0.6 3.55,1.94 5.29,4.2 -2.6,-6.19 -3.55,-13.34 -7.99,-17.81zm14.3 25.8l-22.34 -1.79 -0.41 0.7 -3.06 -0.19c-0.96,1.77 -1.99,2.86 -3.06,3.42 -3.54,-0.74 -7.53,-4.04 -11.67,-2.3 -1.4,-0.17 -2.65,0 -3.91,0.66 -4.28,2.77 -8.42,4.25 -12.55,5.01 -8.01,0.57 -16.28,-1 -25.87,-1l0.07 0.54c-1.15,-0.1 -2.33,-0.1 -3.61,-0.1 0.87,4.43 0.87,12.46 5.34,14.23 4.25,6.03 8.5,6.77 12.59,5.62 5.62,0.25 11.14,-4.59 16.2,-6.16 2.07,0.21 4.07,1.33 5.98,4.1 2.55,1.31 4.77,1.31 6.69,0.58 6.08,0.73 9.82,-6 13.29,-10.22 5.12,2.78 6.57,7.08 12.02,7.85l0.3 -1.53c1,0.55 2,0.86 3.28,1.09l1.48 -6.96c4.18,1.9 8.17,3.49 10.96,5.63l-0.84 -3.06c1.66,0.82 3.18,1.66 4.39,2.65l-5.27 -18.77zm9.74 24.98c-1.74,0 -3.48,0.2 -5.14,0.49 -5.54,0.37 -11.21,2.44 -16.86,3.37 -4.36,0.3 -8.68,-0.49 -12.7,-3.86 -0.51,0.69 -1.11,1.3 -1.55,1.89 -0.7,-0.42 -1.36,-0.92 -1.99,-1.45 -2.44,3.23 -5.03,4.83 -7.72,5.53 -6.13,0 -12.59,-3.26 -18.52,-1.65 -2.81,0 -5.51,0.68 -8.12,2.95 -4.51,0.37 -9.27,0.9 -12.89,-1.94l0 2.23c-1.26,-0.39 -2.39,-0.92 -3.47,-1.79l0 8.89c0,7.98 7.93,11.54 14.21,13.41 0.26,-0.51 0.49,-0.92 0.82,-1.37 0.84,0.37 1.84,0.61 2.73,0.91 1.65,-2.84 3.32,-4.47 4.94,-5.24 5.83,1 11.59,9.53 18.23,8.33l0.23 -0.56c1.07,0.27 2.17,0.36 3.32,0.1 1.1,-2.23 2.51,-3.47 4.14,-4.08 5.57,0.28 12.32,3.88 17.19,2.19 3.62,0.16 6.69,-1.12 8.42,-6.21 4.61,2.2 7.86,5.55 12.99,4.06l0.18 -0.09c0.97,0.09 2.19,0.05 3.29,-0.31 10.74,-8 -0.81,-16.89 -1.73,-25.8zm10.67 34.71c-1.07,0.7 -2.22,1.2 -3.29,1.56l-0.26 -1.1c-1.43,0.9 -2.87,1.53 -4.39,1.91 -7.87,-0.04 -14.8,-6.25 -21.63,-4.14 -3.55,-0.13 -6.94,1.19 -10.41,5.79l-1.29 0.2c-15.69,1.2 -33.22,-6.62 -48.61,-4.22l0 0.1c-1.15,0.03 -2.4,0.16 -3.62,0.36 2.73,7.1 2.73,16 8.08,22.24 3.47,1.49 7.54,2.16 11.15,1.2 3.32,0 6.53,-1.04 9.19,-3.64 4.39,4.8 9.04,5.13 13.58,4.14 5.02,-0.1 10.09,-2.77 14.62,-3.84 2.4,0 4.62,0.87 6.61,3.04 3.32,0.39 6.24,0.43 8.67,-0.16 3.8,-0.07 6.98,-1.14 9.57,-3.8 4.09,2.4 9.22,3.06 13.84,3.06l-0.15 -0.61c1.22,0.11 2.55,0.16 3.73,0.16 -1.86,-7.99 -3.58,-15.09 -5.39,-22.25zm-145.11 293.71l0.93 -1.21c-35.66,13.36 -73.06,22.24 -109.44,32.95 -4.1,0.83 -8.35,1.5 -12.56,2.03 -12.11,1.41 -24.73,2.1 -36.83,3.73 -15.58,1.77 -30.38,4.7 -42.41,12.03 -5.28,8.01 -8.05,17.81 -4.51,26.71 33.04,14.26 7.12,48.08 15.24,73.04l3.1 -1.73 0.38 1.27c68.61,-36.53 139.89,-81.89 190.61,-150.49l-4.51 1.67zm-217.29 96.28c-6.13,-2.6 -12.41,-2.43 -18.72,-1.48 -6.27,0.58 -12.55,2.27 -18.64,3.18l-0.85 0.07 0.26 0c-1.29,0.22 -2.59,0.39 -3.91,0.47l38.28 1.82 0 -0.63 3.58 0.17 0 -3.6zm-41.86 8.43l0 4.47 38.28 -4.47 -0.15 0 3.73 -0.41 -38.21 0 0 0.41 -3.65 0zm12.51 8.94l-10.67 2.68 36.44 -2.68 -2.34 0 5.92 -0.46 -25.8 0 -1.74 0.46 -1.81 0zm265.36 2.19c-4.43,-2.36 -10.59,-2.76 -16.57,-1.73 -8.31,0.57 -17.17,4.24 -21.74,9.34 4.5,5.34 14.2,0 9.89,11.57 1.25,-1.17 2.76,-2.19 4.31,-3.18 -0.15,0.81 -0.4,1.74 -0.77,2.77 7.09,-6.25 19.52,-8.93 24.88,-18.77zm-236.01 4.5c-4.11,-0.86 -8.05,-0.62 -11.75,0 -5.72,0.45 -10.99,2.2 -16.53,3.11 -2.66,0.2 -5.31,0.16 -8.19,-0.41l0 0.9c-1.11,-0.13 -2.33,-0.29 -3.55,-0.49l0 3.56 36.44 -1.79 0 -0.24 3.58 -0.2 0 -4.44zm204.01 12.44c-3.77,-8.46 -8.46,-9.58 -13.51,-8.33 -6.95,-0.26 -14.87,7.03 -21.26,7.03 7.93,2.63 14.21,7.97 15.13,15.98 2.29,2.56 4.39,2.77 6.53,1.74 4.43,1.15 8.68,-4.78 13.11,-8.45l0 -7.97zm-204.01 0c-6.06,-2.56 -12.34,-2.47 -18.31,-1.53 -7.76,0.71 -15.21,3.24 -21.71,3.77 6.83,-0.78 20.41,1.13 31.41,-0.63 3.07,-0.28 5.95,-0.74 8.61,-1.61zm177.17 12.5c-6.09,-4.53 -7.08,-16.05 -18.6,-14.27l-1 0.24c-0.81,0 -1.73,0.06 -2.62,0.23 -6.21,1.76 -19.49,1.77 -14.21,12.43 4.42,4.47 18.67,-2.65 14.21,9.81 6.2,5.6 11.15,9.41 17.57,7.64 3.58,0.16 7.64,-1.58 12.69,-6.28 -3.57,-0.92 -9.78,-5.34 -8.04,-9.8zm-18.6 21.32c-6.28,-4.42 -6.28,-18.68 -18.75,-17.78 -1.59,-10.44 -7.38,-11.98 -13.59,-10.61 -5.35,0.04 -11.55,3.38 -15.73,5.7 20.46,-1.73 2.6,16.91 20.46,20.51l-1.81 1.77c-3.58,6.24 4.43,8.89 7.2,14.23l-1.85 1.78c1.59,-1.01 3.4,-1.78 5.14,-2.48l0.18 0.28 -1.74 1.74c7.08,-4.42 16.87,-4.42 20.49,-15.14zm-158.57 -25.85c-4.4,-0.53 -8.53,-0.2 -12.41,0.39 -5.2,0.45 -10.11,1.68 -15.2,2.49 -2.77,0.23 -5.73,0.28 -8.86,-0.13 0.25,0.19 0.63,0.49 0.84,0.75 -1.43,-0.04 -2.91,-0.13 -4.39,-0.34 0.89,0.9 2.66,1.77 1.81,3.55 1.22,-0.48 2.52,-0.91 3.73,-1.2 0,0.26 -0.11,0.49 -0.26,0.75 1.99,-0.75 3.95,-1.28 5.9,-1.58 6.24,-0.49 12.11,0.52 17.5,-0.57 4.06,-0.25 7.87,-1.17 11.34,-4.11zm123.83 33c6.28,-11.57 -9.78,-14.26 -7.15,-24.93 -6.39,-4.61 -11.67,-4.8 -17.39,-3.75 -4.28,0.28 -8.61,1.52 -13.8,2.39l13.31 6.26c-11.5,13.34 9.98,13.34 9.98,22.27 -4.62,5.3 -3.7,8.03 1.72,11.53 3.55,8.02 -7.23,4.47 -6.34,10.71 1.29,-1.19 2.58,-2.01 3.91,-2.69 -0.26,0.59 -0.44,1.32 -0.26,2.29 5.29,-5.38 13.44,-3.6 18.65,-10.72 -0.89,-3.55 5.39,-10.66 -2.63,-13.36zm-126.49 -24.93c-1.15,0.46 -2.33,0.84 -3.55,1.13l0 -0.67c-1.84,0.71 -3.8,1.2 -5.79,1.53 -7.01,0.64 -14.84,-0.2 -22.74,-0.2l0 0.54c-1.1,-0.1 -2.32,-0.1 -3.47,-0.1l0 4.47c9.63,-0.77 19.2,0.96 27.25,-0.44 2.91,-0.26 5.75,-0.79 8.3,-1.82l0 -4.44zm94.34 8.04c-3.07,-5.81 -8.45,-6.51 -13.47,-5.38 -6.23,0.17 -13.13,4.13 -15.87,5.82 19.6,-2.71 3.55,23.12 21.41,23.12 -6.2,10.7 13.39,20.46 8.86,24.05l1.8 0c0.45,-1.35 0.82,-2.77 1.33,-4.21 1.15,1.57 1.66,2.86 0.48,3.8l1.74 0c1.84,-6.23 5.42,-13.33 4.47,-18.73 7.12,-15.13 -14.29,-12.48 -10.74,-28.47l-0.01 0zm-12.41 26.7c-16.06,-3.56 -6.2,-21.38 -20.52,-26.7l-2.55 0.82c-0.22,-0.17 -0.66,-0.25 -0.92,-0.38 -8.04,2.61 -16.01,4.42 -24,7.12 5.29,6.24 14.99,2.64 20.38,9.76 -8.86,10.71 8.94,13.34 13.41,17.81 -9.79,8.89 7.08,18.74 -2.74,28.48 1.81,-0.44 3.46,-1.15 4.87,-1.97 -0.33,0.53 -0.7,1.03 -1.32,1.56 9.85,-2.69 14.31,-10.7 17.86,-19.6 -8.01,-3.54 -2.66,-11.57 -4.47,-16.9zm-33.77 -3.56c-7.35,-6.69 -18.23,-15.88 -27.02,-13.31 -4.21,-0.14 -8.2,1.9 -11.41,7.49 6.35,3.58 12.51,9.84 20.63,9.84 0,3.5 -4.57,5.28 -6.31,7.97 5.36,6.24 15.18,8.01 20.46,12.48 -2.58,0.92 -3.47,5.35 -7.1,3.56 -3.47,11.57 11.52,7.1 12.49,14.23 -1.74,1.78 -2.7,5.37 -5.39,4.47l-0.01 4.44 1.85 -2.68c0.59,0 1.18,0.01 1.81,-0.03l0 2.27 1.54 -2.4c0.49,-0.09 0.97,-0.17 1.48,-0.3 19.49,-0.8 6.76,-21.57 10.23,-32.03 -5.28,-3.55 -13.25,-9.81 -13.25,-16zm-80.25 -10.67l0.15 0.43 -3.62 0c1.33,4.53 4.8,4.86 8.6,3.91 4.43,0.26 10.07,-3.22 13.62,-4.34l-18.75 0zm52.6 26.67c2.77,-7.48 -12.73,-23.27 -23.77,-20.01 -4.84,-0.13 -9.41,2.47 -11.89,9.76 27.61,-3.55 0,26.75 26.73,24.98 -8.93,13.31 19.6,13.31 3.54,27.6 -0.77,2.65 1.81,5.3 4.51,4.43 0.7,-0.09 1.43,-0.17 2.14,-0.3 0.47,0.05 0.96,0 1.39,-0.16 11.64,-0.86 21.35,-11.57 14.25,-22.24 -4.42,-9.79 -5.31,-19.6 -16.9,-24.06zm-7.13 30.3c-13.39,-8.93 -17.86,-21.37 -24.98,-34.72 -2.96,-3.98 -5.8,-4.52 -8.75,-3.35 -5.4,-0.97 -10.52,6.03 -14.95,10.67 -1.92,-1.5 -3.99,-1.54 -6.12,-0.75 -4.54,-0.79 -9.87,4.67 -14.63,8.11 8.02,1.77 15.1,4.47 22.23,6.24 -2.66,2.63 -2.66,5.33 -3.55,7.97l26.69 4.52 -4.47 10.62 1.81 0c8.86,0.9 16.87,8.02 9.78,17.82l4.55 -1.83c-0.34,0.46 -0.64,0.9 -1,1.41l15.13 -6.24c-7.13,-4.47 -4.35,-14.22 -1.73,-20.46l-0.01 -0.01zm-53.38 -0.01c-0.55,-12.64 -10.29,-16.24 -20.96,-14.34 -9.74,0.63 -21.26,6.5 -27.21,14.77l22.26 1.76c1.81,4.47 -1.74,6.25 -4.35,8.02 7.89,5.35 18.63,-0.9 24.88,6.25 -2.66,0.87 -1.82,4.47 -1.82,6.24 7.2,-0.9 11.63,2.7 17.83,4.43 -4.46,4.46 -4.46,11.58 0,16.05l2.55 -1.58c0.34,0.41 0.7,0.78 1,1.11l20.41 -12.43 -1.74 -1.78c8.05,-16.96 -15.13,-8.03 -12.48,-24.07 -7.08,-2.64 -13.28,-0.87 -20.37,-4.42l0 -0.01zm-12.48 18.68c-11.62,-2.69 -16.05,-0.92 -21.4,-9.79 -6.72,-2.4 -12.48,-2.81 -17.31,-1.86 -17.39,0.9 -25.51,18.36 -37.03,29.89l4.95 -1.82 -1.37 1.4 17.87 -6.74 1.74 9.84c2.95,0.79 5.53,0.63 8,0.09 4.91,-0.09 9.09,-2.33 12.81,-3.31 0.78,0.05 1.55,0.25 2.26,0.54l0 6.25 20.56 2.63c2.58,4.46 0,8.07 4.42,14.26l2.66 -1.77c0.3,0.41 0.56,0.87 0.89,1.31l21.33 -14.21 -5.28 -6.23c4.47,-14.27 -18.68,-5.34 -15.1,-20.48zm-52.55 27.58c-3.62,-1.78 -3.62,-6.2 -6.28,-9.76l-2.96 1.29c-0.15,-0.29 -0.36,-0.54 -0.59,-0.87l-22.22 9.78c-8.04,10.68 -15.17,26.72 -11.62,36.5l2.76 -4.16c0.12,1.33 0.38,2.57 0.82,3.77l11.59 -17.82c2.76,0.87 3.32,5.28 5.31,6.64 1.77,0.46 3.4,0.3 4.77,-0.2 5.2,0.54 8.49,-4.04 13.14,-5.78l3.47 10.45 3.17 -1.77 0.37 1.36 10.67 -6.29c0.51,-0.7 0.92,-1.23 1.36,-1.6 2.44,1.5 4.36,6.07 4.91,8.3l3.07 -1.86c0.26,0.5 0.33,1.04 0.51,1.45l22.22 -13.39 -6.23 -11.57c-0.63,1.23 -1.48,1.81 -2.7,2.1l-0.77 -1.66c-0.53,0.82 -1.11,1.42 -1.74,1.76 -1.52,-0.1 -3.1,-0.43 -4.57,-0.43 -5.39,-0.87 -10.68,-4.43 -11.6,-9.8 -1.07,0.7 -2.14,1.32 -3.17,1.87 -0.19,-0.47 -0.3,-0.94 -0.37,-1.4 -2.66,1.73 -5.21,2.83 -8.01,3.42 -1.67,0.08 -3.51,-0.04 -5.31,-0.33zm120.14 211.98l8.04 -209.29c-1.55,8.18 -3.17,16.54 -4.5,25.01l0.97 -24.56c-13.37,66.8 -17.83,145.09 -12.52,213.72l3.4 -3.39 0.26 2.89 4.35 -4.38zm-16.05 -182.55c-1.15,0.25 -2.25,0.45 -3.55,0.67l0 -0.26c-8.01,1.78 -16.87,1.78 -22.22,5.37l9.81 199.43 3.4 -3.38 0.15 2.89 6.2 -6.2 6.21 -198.52zm-104.09 7.12c-2.96,-6.17 -6.2,-6.67 -9.68,-5.51 -3.95,-0.57 -8.22,3.24 -12.54,4.6 -2.19,-0.26 -4.25,-1.46 -6.28,-4.47 -0.92,0.5 -1.81,1.11 -2.51,1.83 -0.41,-0.43 -0.74,-0.87 -1.04,-1.38 -6.08,3.02 -6.97,11.7 -12.39,13.82l-0.08 0 0 0.03c-1.04,0.38 -2.19,0.54 -3.55,0.38 1.81,11.62 -3.57,31.21 4.4,34.72l1.18 -2.39c0.66,0.86 1.44,1.57 2.4,1.98l6.61 -13.31c1.36,0.9 2.06,2.53 3.17,3.09 0.89,-0.49 1.66,-1.02 2.29,-1.6 0.41,0.5 0.8,0.91 1.33,1.17 5.87,-3.4 7.75,-9.27 11.81,-13.67 1.25,-0.03 2.4,-0.16 3.69,-0.43 10.66,-0.26 21.59,-10.1 28.05,-20.67l-4.46 -3.57c-0.52,0.66 -1.22,1.2 -1.89,1.74l-1.66 -1.29c-2.58,2.52 -5.06,4.15 -8.26,4.93l-0.59 0zm48.97 15.13c0,-7.16 1.74,-15.13 -1.81,-20.51 -0.95,0.71 -1.73,1.57 -2.43,2.57 -0.33,-0.74 -0.74,-1.46 -1.1,-2.12 -6.25,4.47 -7.13,16.92 1.8,20.46l0 -2.67c0.96,0.94 2.11,1.69 3.54,2.27zm14.25 -6.24c-1.55,7.77 -2.62,15.5 -3.29,23.24l-0.28 -22.83c-8.94,45.43 -1.82,90.83 1.84,133.56l-0.7 -45.72c1.29,15.38 2.95,30.5 4.24,45.29l-1.81 -133.54zm-85.44 60.57c0,-14.27 -1.37,-22.03 7.93,-40.1 -2.84,5.5 -5.14,8.63 -8.6,10.5 1.18,-3.66 4.02,-6.44 5.02,-10.05 -2.03,7.25 -22.22,8.02 -23.96,25.83 7.97,16.04 24.88,29.37 40.02,36.47l-6.28 -5.8c3.29,2.09 6.61,3.89 9.82,5.39l-23.95 -22.24zm233.27 20.51c-8.97,-11.34 -22.29,-16.3 -34.88,-14.07 -7.45,0.5 -14.94,3.57 -21.25,9.11 -7.13,10.73 -18.72,24.02 -14.22,35.61l2.66 -3.99c0.11,1.17 0.44,2.43 0.89,3.57l8.93 -13.48 3.54 4.14c1.4,0.33 2.44,-0.08 3.32,-0.74l0.27 0.24c3.53,0.91 4.31,-2.64 6.12,-4.47 0.34,-7.91 3.18,-10.81 7.13,-11.71 4.17,-0.17 8.92,0.56 13.17,-0.34 4.17,-0.24 8.16,-1.37 10.96,-5.3 0.27,0.59 0.27,1.17 -0.07,1.83l9.85 0 -0.33 -0.4 3.91 0zm4.43 8.84c-0.55,0.83 -1.14,1.5 -1.84,1.97 -0.45,-0.57 -1.14,-1.06 -1.81,-1.48 -1.07,1.57 -2.17,2.57 -3.47,3.03 -4.73,-0.56 -10.01,-4.68 -15.2,-3.52l-0.34 0.33c-1.04,-0.1 -2.06,-0.1 -3.21,0.16 -8.49,9.32 -21.11,4.03 -27.57,16.1 -1.85,-0.58 -3.29,-0.41 -4.62,0.26 -8.48,-1.66 -8.27,13.87 -18.46,13.87l3.47 3.57 2.78 -1.24 0.85 0.83c7.12,-3.16 14.94,-6.37 19.08,-11.43 2.4,1.33 4.68,1.33 6.87,0.68 6.19,0.59 11.21,-6.28 16.38,-8.27 1.58,0.25 3.18,1.32 4.77,3.39 2.99,0 5.93,0.24 8.52,-0.43 2.21,0 4.32,-0.31 5.98,-1.56 3.17,6.45 6.94,6.52 14.91,7.29 -0.85,4.46 0.89,8.1 0.89,10.74 0,-3.74 -0.23,-7.68 -0.63,-11.51l3.33 0.34c-0.89,4.46 0.84,8.03 0.84,10.76 0,-12.49 -1.73,-26.8 -11.52,-33.88zm11.52 41.81c-8.68,-7.93 -24.54,-18.35 -37.9,-15.55 -3.73,0.19 -7.28,1.16 -10.68,3.49 -2.8,-0.59 -5.54,-0.5 -8.07,0 -11.42,0.49 -21.27,10.33 -27.92,17.03 3.25,2.15 6.06,2.31 8.76,1.48 6.67,0.59 11.62,-7.01 17.09,-10.41l7.08 6.2 1.92 -1.9 1.66 1.47c2.37,-2.47 4.24,-3.87 5.98,-4.62 6.17,1.48 7.9,15.05 17.39,11.75 1.58,0.25 3.47,-0.09 5.64,-1.4 6.13,4.28 -3.06,9.41 -0.48,15.21 13.3,-1.83 -0.99,8.92 6.17,9.84l1.77 -3.9c-0.56,1.66 -0.56,3.06 1.81,3.39 4.5,-9.76 9.78,-19.59 9.78,-32.08zm-92.57 20.51c2.69,-6.2 4.43,-18.7 -1.81,-22.24l0 5.38c-0.63,-2.17 -1.81,-3.9 -3.55,-4.98l0 24.08 1.74 -1.83c0.74,-1.57 1.4,-3.63 1.81,-5.87l0 7.27 1.81 -1.81zm60.54 -4.47c-3.55,-11.57 -16.03,-6.2 -21.41,-7.1 -2.49,-3.89 -5.06,-4.22 -7.68,-3.07 -4.98,-1.15 -10.27,6.28 -16.06,8.28 -1.33,-0.18 -2.55,-0.67 -3.76,-1.66l0 2.06c-1.26,-0.17 -2.37,-0.74 -3.63,-1.57l0 3.47 16.91 2.73 0 6.21c3.14,1.4 5.47,1.4 7.53,0.66 2.89,0.24 4.95,-1 7.46,-2.48 5.5,3.48 0.11,8.35 -1.58,11.65 7.08,0 14.2,-1.81 18.67,1.74 0,3.55 -3.55,6.29 -5.39,8.93 1.39,2.72 3.14,2.33 5.06,1.33 1.81,1 3.88,-0.74 6.16,-1.74 1.04,0.5 2.11,1.57 3.03,3.97 -0.93,2.73 -7.94,7.1 -2.66,8.02l1.65 -1.49c0.08,0.41 0.68,0.83 1.89,1l6.31 -6.2c10.7,-11.59 -8.92,-22.24 -3.58,-34.74l-8.92 0zm-25.81 16.04c-1.21,0.33 -2.47,0.58 -3.58,0.67l0 -0.16 -0.88 0.16c-4.29,0 -7.76,-2 -9.78,-5.96 -4.7,-1.58 -9.31,-2.81 -13.59,-1.74 -4.47,0 -8.71,1.82 -12.26,7.54 3.55,1.72 0.85,6.2 1.74,8.83l16.14 1.83c7,3.56 0.84,7.1 2.58,12.4l7.19 1.82c8.86,0.91 6.24,9.75 2.62,14.22 3.62,1.82 8.02,1.82 10.67,6.19l-8.86 12.51c1.41,0.16 2.81,0 3.99,-0.43 10.4,0.5 14.87,-13.39 24.47,-16.86 9.74,-8.12 -0.85,-7.12 0,-17.85 -11.67,0 -2.96,-17.3 -13.69,-13.49 -0.79,-0.18 -1.81,-0.08 -3.32,0.41 -3.55,-2.65 -4.25,-5.95 -3.44,-10.09zm-24.91 27.63c7.12,-15.14 -16.07,-8.02 -18.72,-18.69 -1,0.66 -1.92,1.49 -2.92,2.15 -0.33,-0.51 -0.48,-1.08 -0.66,-1.75 -10.67,8.03 -19.6,16.96 -25.8,25.8 1.18,0 2.4,-0.23 3.76,-0.66l-0.29 0.26c3.4,0 7.05,-2.07 10.78,-2.99 2.1,0 4.21,0.76 6.2,2.56l-4.47 7.12 20.49 4.37c-0.78,5.38 -4.44,10.77 -10.67,12.51l17.01 0 0 1.81c-0.95,6.19 -11.7,9.76 -9.89,8.92l7.13 2.64 -11.55 13.4 7.19 -4.64 -3.66 4.14 32.13 -20.41 -1.86 -2.73c-3.53,-4.47 -0.92,-11.56 1.86,-16.03 -10.79,-1.74 -2.78,-18.7 -16.06,-17.78zm-42.79 11.98l-6.31 1.16c-1.14,-1.66 -5.2,-2.56 -3.47,-6.03l-3.91 2.24c-0.07,-0.6 0,-1.17 0.36,-1.84 -11.55,6.29 -22.32,13.4 -30.3,23.17l20.49 1.81c0.89,3.56 -2.66,6.19 -4.44,8.92 5.33,7.11 15.99,0.84 22.27,5.3 0,3.54 -4.47,5.38 -6.28,8.01 3.55,5.39 11.59,-0.9 14.22,6.29l-9.75 10.67 4.47 0 0.4 -0.49 3.14 0c6.2,-7.12 23.18,-4.39 19.6,-18.61 0.96,-8.93 4.51,-18.77 -8,-20.59 -1.82,-3.48 1.84,-6.21 4.46,-7.94 -0.93,-7.2 -14.32,-1.8 -13.4,-12.48l-3.55 0.67 0 -0.26zm-35.65 26.7l-11.52 2.07c-1.03,-2.56 -4.43,-3.47 -2.69,-6.94l-3.8 3.47c-0.34,-0.83 -0.41,-1.74 0.25,-2.97l-31.19 28.44c1.74,0.17 3.4,0 4.99,-0.42 5.79,0 10.62,-3.47 15.86,-4.78 1.89,0.07 3.81,0.49 5.92,1.64l-4.51 9.76c1.4,-0.33 2.77,-0.83 3.95,-1.23l-0.41 0.81c4.58,-1.32 8.23,-3.05 12.92,-3.88 0.74,-0.07 1.48,-0.07 2.25,-0.07 9.82,2.63 -2.7,13.31 0,10.65l16.05 2.66c0,0.9 0,4.46 -2.68,5.28 2.5,0.82 4.54,0.75 6.35,0.16 6.12,0.5 9.45,-5.04 14.13,-5.95l-4.47 -6.19c7.13,-14.24 -16.01,-17.78 -17.75,-32.92l-3.58 0.68 -0.07 -0.27zm-58.99 17.47c2.3,-1.92 4.76,-3.57 7.39,-4.98 -22.23,10.68 -48.06,24.06 -66.82,42.75 5.32,1.41 10.01,1.57 14.33,0.74 24.06,-1.31 34.88,-32.99 56.06,-43.9 -3.65,1.73 -7.27,3.55 -10.96,5.39zm-10.44 -3.57c-1.92,0.41 -3.77,0.91 -5.62,1.48l2.15 -1.15c-29.46,7.2 -56.18,24.08 -80.21,41.01l14.21 0 0.66 -0.5 3.03 0c21.33,-16.04 42.71,-29.35 65.78,-40.84zm-56.96 4.37c-1.18,0.17 -2.43,0.34 -3.54,0.5 -32.96,3.56 -61.42,21.34 -88.15,36.47 5.91,0.67 11.51,0.5 16.84,-0.24 29.41,-2.73 50.74,-25.8 74.85,-36.72l0 -0.01zm351.7 37.46c-27.43,-12.07 -56.55,-37.3 -82.5,-32.75 -2.25,0.18 -4.35,0.49 -6.54,1.08 16.88,11.58 34.74,18.68 50.75,32l34.74 0 -1 -0.33 4.55 0zm-252.88 -21.43c-1.81,-4.87 -5.51,-5.11 -9.63,-4.13 -3.81,-0.17 -8.68,2.23 -12.97,3.23 -1.18,0 -2.25,-0.33 -3.24,-0.9 -0.74,0.4 -1.48,0.66 -2.18,1.07 -0.48,-0.17 -0.96,-0.34 -1.37,-0.58 -8.85,3.55 -13.32,12.41 -15.94,20.41 1.17,0 2.36,-0.23 3.54,-0.57l-0.07 0.17c4.27,0 8.63,-3.23 12.88,-4.38 1.66,0.08 3.32,0.65 4.95,2.15l-0.89 8.02c1.14,-0.26 2.4,-0.66 3.62,-0.99l-0.08 0.57c6.39,-1.65 13.4,-3.87 19.27,-6.94 4.99,2.97 0.99,8.27 -1.36,9.1 1.43,-0.5 3.02,-0.83 4.75,-1.07 -0.4,0.24 -0.92,0.57 -1.28,0.65 1.84,-0.58 3.73,-1 5.64,-1.32 3.14,-0.26 6.32,-0.42 9.26,-0.92 6.87,-0.66 13.18,-1.9 16.32,-7.51 -4.43,-5.37 -19.6,-4.47 -20.49,-16.06l-10.73 0zm-30.31 21.43c-1.11,0 -2.4,0.17 -3.54,0.66l0 -0.33c-3.74,0 -7.53,2.73 -11.18,3.88 -1.96,-0.24 -3.88,-1.31 -5.69,-4.21l-1.81 2.64c-0.59,-0.66 -1.18,-1.31 -1.85,-2.31l-20.41 31.18c1.92,-0.59 3.66,-1.66 5.13,-2.83l-1.59 2.4c6.94,-2.23 10.59,-9.25 16.06,-12.24 2.37,2.17 0.81,6.87 0.81,10.93l3.73 -2.07c-0.07,0.57 -0.07,1.15 -0.07,1.64l18.01 -10.24c5.46,5.04 -6.16,10.08 -1.14,15.14 0.99,-0.43 1.99,-0.84 2.99,-1.17 0.14,0.25 0.29,0.41 0.55,0.74 14.32,-5.37 21.48,-12.47 34.73,-20.51 -3.32,0 -7.6,-0.99 -11.06,0 -1.19,0 -2.4,0.1 -3.4,0.43l-1.48 -6.69 -2.73 1.8 -0.52 0.33 -0.4 -1.64 -2.66 1.81c-0.96,0.66 -2.22,1.17 -3.32,1.56 -5.33,-0.16 -10.27,-3.7 -9.16,-10.9zm0 40.94c-3.54,-3.66 -11.55,-2.74 -9.74,-9.86l-1.81 2.73c-0.41,0.49 -1,1.09 -1.59,1.5 -0.45,-1.01 -0.56,-2.16 -0.15,-3.8l-1.73 2.73c-1.59,1.8 -3.76,2.88 -6.39,3.54 -4.14,0.09 -8.3,-1.24 -10.6,-3.97 -1.18,0.1 -2.39,0.33 -3.47,0.49l-0.06 -0.06c-17.87,1.8 -16.91,16.94 -20.46,30.25 1.74,-0.9 3.1,-2.15 4.25,-3.55 -0.26,1 -0.41,2.07 -0.7,3.06 8.74,-4.72 9,-16.62 17.16,-19.69 4.81,4.31 -2.06,8.7 -2.95,13.9l6.35 -6.29c-1.15,1.9 -2.4,3.81 -2.73,5.88l10.99 -11.09c6.02,3.73 -2.17,9.27 -2.17,13.31 1.25,-0.64 2.65,-1.4 4.06,-2.22 -0.33,0.58 -0.48,1.24 -0.48,1.81 8.01,-4.47 20.48,-11.57 22.22,-18.67zm-27.54 27.61c-2.61,-1.83 -2.61,-4.55 -2.61,-7.2 -0.97,2.16 -2.18,3.3 -3.4,3.8 -0.26,-1.07 -0.26,-2.23 -0.26,-3.3 -0.89,1.9 -1.93,2.97 -2.95,3.63 -3.22,-0.58 -6.69,-2.63 -9.71,-1.16 -2.88,-0.41 -5.62,0.42 -7.58,6.05 -0.5,0.07 -0.95,0.07 -1.25,0.25 -12.73,-0.74 -3.58,17.19 -8.77,24.13l5.19 -5.2c-0.22,1.83 -0.62,3.57 -1.66,4.7l12.08 -11.98c0.92,2.07 0.44,4.95 0.44,6.21l3.72 -3.23c-0.1,1.16 -0.18,2.23 -0.18,2.81l22.26 -19.51 -5.32 0zm-16.94 34.23l1.41 -2.66 2.13 2.23 10.79 -20.5c-3.99,6.24 -4.95,8.03 -9.2,11.17l5.54 -10.75c-3.8,7.35 -5.73,10.51 -9.97,11.41 -2.43,0.16 -4.83,0.16 -7.01,0.57 -5.61,0.43 -10.88,1.66 -13.28,11.24 -1.82,6.23 1.81,12.43 3.53,15.96l1.99 -3.53c0.64,1.13 1.18,2.23 1.59,3.14 3.88,-7.04 7.76,-13.41 11.08,-19.61l1.4 1.33zm-6.16 44.08c-2.77,-12.51 4.35,-23.17 6.16,-34.64 -1.88,2.63 -3.73,5.2 -5.28,7.76 0.71,-2.39 1.3,-4.89 1.74,-7.45 -7.98,11.58 -16.05,22.33 -6.17,34.81 -0.7,-2.88 -0.81,-5.61 -0.55,-8.35 0.69,2.56 1.92,5.14 4.1,7.87zm16.02 9c5.27,-5.47 -0.3,-19.5 7.08,-31.27 -8.12,12.88 -6.46,12.16 -8.48,18.21 0,-5.79 1.28,-11.37 4.9,-17.78 -3.58,6.35 -14.2,19.6 -7.12,31.17 1.04,-1.07 1.66,-2.4 1.88,-3.96 0.41,1.07 0.88,2.3 1.74,3.63zm9.74 23.98l2.7 0 0 -20.51 -2.7 0 0 20.51zm23.14 22.23c-0.48,-0.57 -0.99,-1.23 -1.43,-1.9 -1.44,-3.04 -2.1,-6.36 -2.1,-9.24l0 5.61c-4.47,-9.58 -5.14,-23.4 -4.47,-35.38 -0.48,8.64 -1.66,16.77 -2.29,24.47 -1.26,-7.7 -1.11,-16.37 -1.26,-24.07 0.33,15.62 -8.04,27.61 1.74,39.2 8.01,2.73 16.94,10.58 22.29,8.02 1.26,0.16 2.51,0.08 3.58,-0.41 -10.74,1.73 -16.06,-9.84 -16.06,-17.94l0 11.64zm411.42 -1240.34c48.91,77.44 79.29,163.85 81.02,262.66 19.53,3.55 48.1,0.91 62.32,1.78 -18.8,26.7 -44.52,44.57 -66.82,66.8 -21.78,97.16 -83.83,182.53 -162.48,244.09 -69.07,54.25 -118.53,59.66 -191.83,104.06 -5.39,31.18 -5.39,72.1 0,101.5 38.94,19.5 75.33,21.74 97.96,68.52 11.52,49.04 -15.21,89.98 -50.83,120.22 15.13,3.56 28.53,9.84 44.55,10.77 55.18,12.4 107.75,32.9 156.7,57.87l0 10.57 -313.46 0c-39.97,33 -78.36,76.65 -71.16,130.08 7.93,23.97 24.88,44.48 45.39,56.96 26.69,12.49 58.7,12.49 83.65,-5.38 7.2,-6.19 10.66,-13.3 13.44,-20.41l2.61 0c8.05,10.67 -5.39,19.51 -8.85,25.79 -25.07,28.53 -63.24,31.18 -98.89,29.36 -15.1,-8.93 -34.74,-6.2 -48.95,-20.51 -40.05,-25.7 -62.34,-72.11 -55.25,-120.14 3.58,-28.52 16.05,-51.68 30.27,-75.75l-168.25 -3.53c73.01,-49.78 162.12,-71.21 253.8,-79.21 3.55,2.63 7.97,1.8 10.67,-1.74l-6.23 -104.21c-41.86,-13.38 -100.66,-16.91 -113.92,-68.56 -14.35,-70.31 45.34,-123.77 97.86,-159.36l-6.16 -101.55c11.44,-10.7 17.78,-24.93 14.2,-38.28 -19.56,-39.16 -71.19,-16.9 -103.3,-34.73 -121.12,-30.27 -231.52,-94.38 -319.67,-193.23l752.37 0c8.94,-24.02 0,-49.87 0,-75.67 -8.93,-23.15 -7.93,-55.18 -16.05,-81.03 -16.9,-58.77 -56.95,-129.98 -117.46,-148.71 -56.1,-8.88 -106.85,11.59 -140.77,50.77 6.31,20.5 -21.34,30.26 -32.89,40.98 -32.96,10.66 -73.01,41.84 -105.94,11.57 -0.84,-20.51 27.65,-16.91 38.32,-30.26l2.61 -1.79c-41.77,-3.6 -72.04,32.05 -106.01,55.21 -37.35,13.34 -57.87,-33.83 -95.22,-14.24 37.35,-29.43 76.58,31.15 109.47,-12.47 -31.11,-1.79 -48.91,-35.63 -80.94,-34.73 33.84,-5.37 60.49,34.73 98.8,20.46 28.58,-16.91 61.43,-26.7 96.17,-22.23 5.34,-0.92 8.04,-6.24 12.47,-10.71 -40.93,-3.56 -82.76,0.9 -124.7,2.64 -5.27,-11.53 -4.45,-28.5 -4.45,-40.94 24.94,-20.46 66,-8.89 96.15,-18.67 92.61,1.77 152.38,-84.6 246.64,-66.81 65.97,1.77 122,59.68 163.04,112.19z"/>
   <g>
    <path class="fil1" d="M2226.58 2202.42c-5.16,5.29 -13.65,5.4 -18.94,0.24 -5.29,-5.16 -5.4,-13.65 -0.24,-18.94l19.18 18.7zm241.85 -659.78l26.78 0 0 0 -0.29 23.99 -0.89 23.85 -1.48 23.69 -2.06 23.53 -2.63 23.37 -3.21 23.18 -3.75 23.01 -4.3 22.81 -4.85 22.63 -5.39 22.42 -5.9 22.19 -6.44 22 -6.95 21.76 -7.47 21.53 -7.95 21.29 -8.46 21.04 -8.94 20.8 -9.43 20.53 -9.89 20.26 -10.35 19.99 -10.83 19.71 -11.26 19.42 -11.71 19.12 -12.15 18.83 -12.58 18.51 -13 18.19 -13.42 17.87 -13.82 17.54 -14.22 17.21 -14.62 16.85 -15 16.51 -15.39 16.15 -19.18 -18.7 14.95 -15.69 14.58 -16.05 14.22 -16.39 13.82 -16.71 13.44 -17.06 13.04 -17.35 12.62 -17.69 12.22 -17.99 11.81 -18.29 11.39 -18.58 10.94 -18.86 10.51 -19.15 10.07 -19.43 9.61 -19.68 9.15 -19.95 8.68 -20.2 8.22 -20.44 7.73 -20.69 7.25 -20.91 6.75 -21.14 6.26 -21.36 5.74 -21.57 5.23 -21.78 4.71 -21.97 4.18 -22.17 3.65 -22.35 3.11 -22.54 2.55 -22.69 2 -22.87 1.44 -23.03 0.87 -23.17 0.29 -23.33 0 0zm-918.44 -918.45l0 -26.78 0 0 48.63 1.22 48 3.66 47.3 6.01 46.55 8.31 45.74 10.56 44.87 12.73 43.91 14.86 42.94 16.93 41.87 18.93 40.76 20.88 39.58 22.75 38.36 24.59 37.05 26.35 35.7 28.06 34.3 29.71 32.82 31.3 31.3 32.82 29.7 34.3 28.07 35.7 26.34 37.06 24.59 38.35 22.76 39.59 20.88 40.75 18.93 41.88 16.92 42.93 14.86 43.92 12.74 44.87 10.55 45.73 8.31 46.55 6.01 47.3 3.66 48 1.22 48.63 -26.78 0 -1.2 -47.27 -3.54 -46.66 -5.85 -45.96 -8.07 -45.23 -10.25 -44.43 -12.38 -43.57 -14.44 -42.68 -16.44 -41.71 -18.39 -40.68 -20.28 -39.59 -22.12 -38.47 -23.89 -37.25 -25.6 -36.02 -27.27 -34.7 -28.86 -33.32 -30.42 -31.9 -31.9 -30.42 -33.32 -28.87 -34.7 -27.26 -36.01 -25.61 -37.26 -23.89 -38.46 -22.11 -39.6 -20.28 -40.69 -18.39 -41.7 -16.45 -42.67 -14.44 -43.57 -12.37 -44.44 -10.26 -45.23 -8.07 -45.96 -5.85 -46.66 -3.54 -47.27 -1.2 0 0zm-918.45 918.45l-26.78 0 0 0 1.22 -48.63 3.66 -48 6.01 -47.3 8.31 -46.55 10.56 -45.74 12.74 -44.86 14.86 -43.92 16.92 -42.93 18.93 -41.88 20.88 -40.75 22.76 -39.59 24.59 -38.35 26.35 -37.06 28.06 -35.7 29.71 -34.3 31.3 -32.82 32.82 -31.3 34.3 -29.71 35.7 -28.06 37.06 -26.35 38.36 -24.59 39.58 -22.75 40.76 -20.88 41.86 -18.93 42.94 -16.93 43.93 -14.86 44.85 -12.73 45.74 -10.56 46.54 -8.31 47.31 -6.01 47.99 -3.66 48.63 -1.22 0 26.78 -47.27 1.2 -46.65 3.54 -45.97 5.85 -45.22 8.07 -44.42 10.26 -43.59 12.37 -42.67 14.44 -41.7 16.45 -40.68 18.39 -39.6 20.28 -38.46 22.11 -37.26 23.89 -36.02 25.61 -34.7 27.26 -33.32 28.87 -31.9 30.42 -30.42 31.9 -28.87 33.32 -27.26 34.7 -25.61 36.02 -23.89 37.25 -22.12 38.47 -20.28 39.59 -18.39 40.68 -16.44 41.71 -14.44 42.68 -12.38 43.58 -10.26 44.42 -8.07 45.23 -5.85 45.96 -3.54 46.66 -1.2 47.27 0 0zm261.08 641.08l-19.18 18.7 -15.38 -16.15 -15.01 -16.51 -14.63 -16.85 -14.23 -17.21 -13.82 -17.54 -13.42 -17.86 -13.01 -18.2 -12.58 -18.51 -12.15 -18.83 -11.71 -19.12 -11.27 -19.42 -10.82 -19.71 -10.35 -19.99 -9.9 -20.26 -9.43 -20.53 -8.94 -20.8 -8.46 -21.04 -7.96 -21.29 -7.46 -21.53 -6.96 -21.76 -6.43 -22 -5.91 -22.19 -5.39 -22.42 -4.85 -22.63 -4.3 -22.81 -3.75 -23.01 -3.2 -23.18 -2.64 -23.37 -2.06 -23.53 -1.48 -23.69 -0.89 -23.85 -0.29 -23.99 26.78 0 0.29 23.33 0.87 23.17 1.44 23.03 2 22.87 2.56 22.69 3.1 22.54 3.65 22.35 4.18 22.17 4.71 21.97 5.23 21.78 5.75 21.57 6.25 21.36 6.76 21.14 7.24 20.91 7.74 20.69 8.22 20.44 8.68 20.2 9.15 19.95 9.62 19.68 10.07 19.43 10.5 19.15 10.95 18.86 11.39 18.58 11.81 18.29 12.22 17.99 12.63 17.68 13.04 17.36 13.44 17.06 13.83 16.71 14.21 16.39 14.59 16.05 14.96 15.69zm0 0c5.16,5.29 5.05,13.78 -0.24,18.94 -5.29,5.16 -13.78,5.05 -18.94,-0.24l19.18 -18.7z"/>
   </g>
   <g>
    <path class="fil1" d="M2202.52 2160.43c-5.08,5.36 -13.57,5.59 -18.93,0.51 -5.36,-5.08 -5.59,-13.57 -0.51,-18.93l19.44 18.42zm219.56 -617.79l26.78 0 0 0 -0.27 22.37 -0.81 22.24 -1.36 22.09 -1.88 21.95 -2.41 21.79 -2.92 21.64 -3.44 21.47 -3.94 21.29 -4.44 21.12 -4.93 20.94 -5.41 20.74 -5.9 20.55 -6.37 20.33 -6.83 20.13 -7.29 19.91 -7.75 19.69 -8.2 19.46 -8.63 19.23 -9.06 18.98 -9.51 18.74 -9.91 18.47 -10.34 18.21 -10.74 17.96 -11.14 17.67 -11.54 17.4 -11.93 17.12 -12.3 16.8 -12.69 16.53 -13.07 16.22 -13.42 15.9 -13.78 15.58 -14.13 15.27 -19.44 -18.42 13.71 -14.81 13.38 -15.14 13.02 -15.42 12.67 -15.74 12.31 -16.03 11.94 -16.32 11.59 -16.6 11.18 -16.88 10.82 -17.15 10.42 -17.42 10.02 -17.67 9.63 -17.93 9.21 -18.18 8.8 -18.4 8.37 -18.65 7.96 -18.88 7.51 -19.09 7.07 -19.31 6.63 -19.53 6.17 -19.73 5.72 -19.93 5.25 -20.12 4.79 -20.3 4.3 -20.48 3.82 -20.67 3.34 -20.83 2.84 -20.98 2.33 -21.15 1.82 -21.29 1.32 -21.45 0.79 -21.58 0.27 -21.71 0 0zm-872.09 -872.05l0 -26.78 0 0 46.25 1.16 45.64 3.48 44.98 5.71 44.27 7.91 43.5 10.04 42.66 12.11 41.76 14.13 40.83 16.09 39.81 18 38.76 19.85 37.64 21.64 36.48 23.39 35.24 25.05 33.95 26.69 32.62 28.25 31.21 29.75 29.76 31.21 28.25 32.62 26.69 33.95 25.05 35.24 23.39 36.47 21.64 37.64 19.85 38.76 18.01 39.81 16.09 40.83 14.13 41.76 12.11 42.66 10.04 43.5 7.91 44.26 5.71 44.99 3.48 45.63 1.16 46.25 -26.78 0 -1.14 -44.89 -3.36 -44.29 -5.55 -43.65 -7.67 -42.94 -9.74 -42.18 -11.75 -41.38 -13.71 -40.52 -15.61 -39.59 -17.47 -38.63 -19.25 -37.6 -21 -36.52 -22.69 -35.37 -24.31 -34.2 -25.89 -32.95 -27.41 -31.64 -28.88 -30.29 -30.29 -28.87 -31.64 -27.41 -32.95 -25.89 -34.2 -24.31 -35.38 -22.69 -36.52 -21 -37.6 -19.25 -38.63 -17.46 -39.59 -15.61 -40.52 -13.71 -41.38 -11.75 -42.18 -9.74 -42.95 -7.67 -43.64 -5.55 -44.3 -3.36 -44.89 -1.14 0 0zm-872.05 872.05l-26.78 0 0 0 1.16 -46.25 3.48 -45.63 5.71 -44.99 7.91 -44.26 10.04 -43.5 12.11 -42.66 14.13 -41.76 16.09 -40.83 18 -39.81 19.86 -38.76 21.64 -37.64 23.38 -36.47 25.06 -35.24 26.68 -33.95 28.25 -32.62 29.76 -31.21 31.21 -29.75 32.62 -28.25 33.95 -26.69 35.23 -25.05 36.48 -23.39 37.64 -21.64 38.76 -19.85 39.81 -18 40.83 -16.09 41.76 -14.13 42.66 -12.11 43.49 -10.04 44.27 -7.91 44.98 -5.71 45.64 -3.48 46.24 -1.16 0 26.78 -44.88 1.14 -44.3 3.36 -43.64 5.55 -42.95 7.67 -42.17 9.74 -41.38 11.75 -40.52 13.71 -39.59 15.61 -38.63 17.46 -37.6 19.25 -36.52 21 -35.38 22.69 -34.19 24.31 -32.95 25.89 -31.64 27.41 -30.29 28.87 -28.88 30.29 -27.41 31.64 -25.88 32.95 -24.32 34.2 -22.68 35.37 -21 36.52 -19.26 37.6 -17.46 38.63 -15.61 39.59 -13.71 40.52 -11.75 41.38 -9.74 42.18 -7.67 42.94 -5.55 43.65 -3.36 44.29 -1.14 44.89 0 0zm238.99 599.37l-19.44 18.42 -14.13 -15.27 -13.78 -15.58 -13.42 -15.9 -13.06 -16.22 -12.68 -16.52 -12.32 -16.81 -11.92 -17.12 -11.55 -17.4 -11.13 -17.67 -10.75 -17.96 -10.33 -18.21 -9.91 -18.47 -9.51 -18.74 -9.06 -18.98 -8.64 -19.23 -8.19 -19.46 -7.75 -19.69 -7.29 -19.91 -6.83 -20.13 -6.37 -20.33 -5.9 -20.55 -5.41 -20.74 -4.93 -20.94 -4.44 -21.12 -3.94 -21.29 -3.44 -21.47 -2.92 -21.64 -2.41 -21.79 -1.88 -21.95 -1.36 -22.09 -0.81 -22.24 -0.27 -22.37 26.78 0 0.27 21.71 0.79 21.58 1.32 21.45 1.82 21.29 2.33 21.15 2.84 20.98 3.34 20.83 3.82 20.67 4.3 20.48 4.79 20.3 5.25 20.12 5.72 19.93 6.17 19.73 6.63 19.53 7.07 19.31 7.51 19.09 7.95 18.88 8.38 18.65 8.8 18.4 9.21 18.18 9.63 17.93 10.01 17.67 10.43 17.42 10.81 17.15 11.19 16.88 11.58 16.6 11.94 16.31 12.32 16.04 12.66 15.74 13.02 15.42 13.38 15.14 13.71 14.81zm0 0c5.08,5.36 4.85,13.85 -0.51,18.93 -5.36,5.08 -13.85,4.85 -18.93,-0.51l19.44 -18.42z"/>
   </g>
   <path class="fil0 str1" d="M2409.58 2344.91c-13.24,0 -28.53,-20.91 -28.53,-34.68 0,-10.68 6.1,-16.3 18.87,-16.3 0.99,0 5.57,0.51 12.73,0.51 7.12,0 12.21,-2.04 16.31,-3.57l19.86 -6.63 0 -3.56 -19.86 -7.15c-8.67,-2.53 -14.8,-3.05 -18.86,-3.05l-3.58 0c-1.51,0 -5.61,0.52 -12.73,0.52 -6.13,0 -12.74,-6.63 -12.74,-16.32 0,-13.75 13.74,-35.16 28.53,-35.16 13.26,0 13.77,19.88 30.57,34.67l15.84 13.76 3.02 -2.05 -4.06 -20.91c-3.58,-17.31 -16.32,-28.53 -16.32,-37.19 0.01,-10.21 9.67,-17.33 28.02,-17.33 17.35,0 27.02,6.63 27.02,16.32 0,10.68 -11.7,18.84 -15.8,38.2l-4.06 20.91 3.54 1.01 15.8 -13.25c18.39,-15.79 14.8,-34.14 30.6,-34.14 13.26,0 28.54,20.39 28.54,34.67 0,10.68 -6.13,16.29 -18.87,16.29 -0.99,0 -5.61,-0.5 -12.73,-0.5 -7.13,0 -12.22,2.04 -16.32,3.55l-19.85 6.64 0 3.58 19.85 7.12c8.68,2.55 14.81,3.06 18.87,3.06l3.58 0c1.51,0 5.6,-0.51 12.73,-0.51 6.12,0 12.74,6.62 12.74,16.32 0,13.76 -13.77,35.17 -28.54,35.17 -13.25,0 -13.76,-19.38 -30.6,-34.16l-15.8 -14.27 -3.05 2.03 4.09 20.91c3.58,17.33 16.32,28.54 16.32,37.21 0,10.18 -9.68,17.31 -28.06,17.31 -17.31,0 -26.98,-6.6 -26.98,-16.3 0,-10.7 11.7,-18.86 15.79,-38.22l4.06 -20.91 -3.53 -1.53 -15.84 13.77c-18.83,17.33 -14.76,34.16 -30.57,34.16z"/>
   <path class="fil0 str0" d="M573.6 2323.26c-13.25,0 -28.57,-20.91 -28.57,-34.68 0,-10.68 6.13,-16.3 18.86,-16.3 1.04,0 5.61,0.51 12.74,0.51 7.16,0 12.26,-2.04 16.32,-3.57l19.89 -6.63 0 -3.56 -19.89 -7.14c-8.64,-2.54 -14.77,-3.06 -18.83,-3.06l-3.59 0c-1.54,0 -5.6,0.52 -12.73,0.52 -6.13,0 -12.77,-6.63 -12.77,-16.32 0,-13.75 13.77,-35.16 28.57,-35.16 13.25,0 13.76,19.88 30.56,34.67l15.81 13.76 3.05 -2.05 -4.05 -20.91c-3.59,-17.31 -16.32,-28.53 -16.32,-37.19 0,-10.21 9.67,-17.33 28.02,-17.33 17.35,0 27.01,6.63 27.01,16.32 0,10.68 -11.73,18.84 -15.79,38.2l-4.06 20.91 3.54 1.01 15.8 -13.25c18.34,-15.79 14.79,-34.14 30.6,-34.14 13.25,0 28.53,20.39 28.53,34.67 0,10.68 -6.13,16.29 -18.86,16.29 -1.04,0 -5.61,-0.5 -12.74,-0.5 -7.12,0 -12.21,2.04 -16.31,3.56l-19.9 6.63 0 3.58 19.9 7.12c8.67,2.55 14.76,3.06 18.86,3.06l3.58 0c1.51,0 5.57,-0.51 12.74,-0.51 6.09,0 12.73,6.62 12.73,16.32 0,13.76 -13.77,35.17 -28.53,35.17 -13.26,0 -13.77,-19.38 -30.6,-34.16l-15.8 -14.27 -3.06 2.03 4.09 20.91c3.55,17.33 16.32,28.54 16.32,37.21 0,10.18 -9.71,17.31 -28.05,17.31 -17.31,0 -27.02,-6.6 -27.02,-16.3 0,-10.7 11.73,-18.86 15.79,-38.22l4.11 -20.91 -3.58 -1.53 -15.81 13.77c-18.85,17.33 -14.76,34.16 -30.56,34.16z"/>
   <circle class="fil2" cx="1550.01" cy="1550" r="1071.43"/>
   <path class="fil1" d="M373.76 2107.38l-65.47 -165.98 211.47 -83.42 11.07 28.06 -186.67 73.63 43.34 109.87 186.66 -73.63 11.07 28.06 -211.47 83.41zm191.74 -336l-224.41 40.07 -4.46 -25.01 21.3 -3.8c-9.28,-4.41 -16.67,-9.97 -22.12,-16.69 -5.43,-6.66 -9.13,-15.3 -11.02,-25.88 -2.47,-13.85 -1.1,-26.67 4.15,-38.53 5.2,-11.83 13.82,-21.59 25.78,-29.32 12.01,-7.68 25.7,-12.92 41.17,-15.68 16.52,-2.95 31.94,-2.64 46.28,0.93 14.29,3.57 25.99,10.41 35.11,20.49 9.05,10.05 14.72,21.35 16.95,33.85 1.64,9.18 1.18,17.75 -1.38,25.67 -2.55,7.99 -6.34,14.79 -11.39,20.52l79.13 -14.12 4.91 27.5zm-146.78 0.41c20.79,-3.72 35.4,-10.67 43.86,-20.84 8.44,-10.21 11.61,-21.32 9.47,-33.3 -2.17,-12.19 -9.19,-21.68 -21.04,-28.49 -11.87,-6.86 -28.58,-8.34 -50.2,-4.48 -20.63,3.68 -35.3,10.66 -44.05,20.99 -8.74,10.31 -12.04,21.34 -9.94,33.11 2.08,11.67 9.4,21.01 21.88,28.02 12.55,7.06 29.19,8.71 50.02,4.99zm-134.98 -190.13l-31.74 0.8 -0.7 -27.94 31.74 -0.8 0.7 27.94zm195.52 -4.93l-164.73 4.15 -0.7 -27.93 164.73 -4.15 0.7 27.93zm-68.98 -147.14l-21.74 -2.77c1.38,-11.67 1.92,-19.7 1.66,-24 -0.29,-4.36 -2.19,-8.71 -5.8,-13.01 -3.62,-4.3 -8.46,-6.84 -14.62,-7.62 -7.4,-0.94 -13.69,0.77 -18.73,5.19 -5.1,4.42 -8.13,10.54 -9.13,18.47 -1.99,15.59 5.76,27.67 23.24,36.24l-7.78 25.9c-29.4,-12.07 -42.11,-33.85 -38.11,-65.23 2.21,-17.43 8.68,-30.48 19.45,-39.19 10.75,-8.71 22.72,-12.21 35.9,-10.54 13.27,1.69 23.06,9.5 29.25,23.36 5.45,-7.68 11.85,-13.11 19.2,-16.39 7.35,-3.23 15.69,-4.24 25.04,-3.05 14.64,1.86 25.82,8.72 33.6,20.54 7.78,11.87 10.44,27.36 8,46.57 -4.74,37.27 -23.97,56.8 -57.7,58.54l-2.34 -26.86c10.7,-1.04 19.39,-4.79 26.03,-11.31 6.64,-6.51 10.53,-14.39 11.72,-23.74 1.18,-9.34 -0.46,-17.44 -4.96,-24.32 -4.47,-6.85 -10.8,-10.81 -18.98,-11.85 -6.35,-0.8 -12.11,0.44 -17.33,3.72 -5.21,3.29 -8.69,7.06 -10.4,11.32 -1.77,4.26 -3.36,12.16 -4.83,23.71 -0.12,0.94 -0.34,3.05 -0.64,6.32zm-61.8 -173.67l17.56 -61.85c4.31,-15.17 8.79,-26.11 13.45,-32.81 4.63,-6.66 11.08,-11.71 19.35,-15.08 8.34,-3.41 17.19,-3.76 26.65,-1.07 7.59,2.16 13.76,5.61 18.48,10.31 4.75,4.76 8.15,10.79 10.13,18.17 4.6,-6.73 10.99,-11.57 19.21,-14.56 8.15,-2.97 16.94,-3.11 26.25,-0.47 14.75,5.23 24.36,13.79 28.83,25.57 4.52,11.79 4.11,26.97 -1.15,45.5l-20.25 71.31 -158.51 -45.02zm74.52 -7.88l8.09 -28.51c3.22,-11.35 4.84,-19.36 4.87,-23.92 0,-4.62 -1.32,-9.11 -4.03,-13.52 -2.66,-4.39 -6.56,-7.31 -11.65,-8.76 -8.4,-2.38 -15.03,-1.08 -20.01,3.84 -4.98,4.97 -9.48,14.58 -13.53,28.83l-8.34 29.37 44.6 12.67zm69.63 19.77l10.02 -35.27c4.31,-15.17 5.49,-26.1 3.59,-32.76 -1.97,-6.66 -7.18,-11.33 -15.8,-14.11 -5.04,-1.43 -10.24,-1.14 -15.49,0.88 -5.27,2.08 -9.24,5.58 -11.84,10.51 -2.66,4.91 -5.62,13.19 -8.92,24.8l-9.2 32.42 47.64 13.53zm-68.59 -231.02l12.73 -24.87 111.86 57.29 -76.47 -126.37 13.67 -26.71 146.67 75.11 -12.74 24.87 -111.15 -56.93 75.81 125.93 -13.72 26.79 -146.66 -75.11zm123.07 -216.65l18.29 -21.12 107.27 92.92 41.58 -47.99 -107.27 -92.93 18.29 -21.11 107.27 92.92 41.58 -48 -107.27 -92.92 18.29 -21.12 107.27 92.92 12.06 -13.91 52.55 45.52 -15.17 17.52 -35.28 -30.56 -134.91 155.75 -124.55 -107.89zm383.13 -209.3l25.75 -13.64c6.05,16.27 6.77,31.8 2.14,46.47 -4.64,14.66 -14.71,27.53 -30.28,38.6 -19.58,13.91 -39.4,18.91 -59.45,15 -20.03,-3.88 -37.81,-16.74 -53.3,-38.53 -16.01,-22.51 -22.68,-44.12 -19.91,-64.79 2.74,-20.72 13.38,-37.63 31.88,-50.79 17.89,-12.72 36.84,-17.03 56.85,-12.89 20.03,4.14 37.93,17.25 53.66,39.37 0.95,1.34 2.34,3.4 4.16,6.13l-100.01 71.12c11.32,14.09 23.49,22.45 36.55,24.92 13.01,2.5 25.16,-0.24 36.32,-8.18 8.32,-5.91 13.88,-13.18 16.62,-21.74 2.78,-8.6 2.44,-18.95 -0.98,-31.05zm-100.47 16.5l74.79 -53.18c-9.03,-10.59 -17.92,-16.99 -26.65,-19.3 -13.42,-3.63 -25.96,-1.34 -37.47,6.84 -10.44,7.42 -16.7,17.14 -18.85,29.19 -2.1,12.02 0.62,24.17 8.18,36.45zm277.11 -52.78l-93.63 -207.16 27.49 -12.42 93.62 207.16 -27.48 12.42zm65.37 -205.99l41.87 -9.66 72.08 118.71 17.32 -139.33 38.88 -8.97 37.04 160.56 -27.23 6.28 -29.82 -129.26 -17.45 140.17 -24.34 5.61 -75.96 -125.13 31.25 135.45 -26.6 6.13 -37.04 -160.56zm269.99 -32.02l-10.34 -41.73 -2.88 -37.83 31.66 -2.41 2.88 37.83 -4.22 42.84 -17.1 1.3zm244.19 -15.66l-12.5 164.3 -27.86 -2.12 4.86 -63.95 -16.03 -1.22c-9.76,-0.75 -17.15,-0.03 -22.14,2.19 -5,2.22 -12.63,9.76 -22.91,22.72l-27.2 33.91 -34.51 -2.62 33.44 -41.82c10.2,-12.82 19.96,-19.72 29.22,-20.76 -15.71,-3.37 -27.1,-10.02 -34.09,-19.89 -7,-9.88 -10.04,-20.88 -9.12,-32.97 1.09,-14.3 6.98,-25.46 17.73,-33.56 10.76,-8.16 25.71,-11.47 44.82,-10.02l76.29 5.81zm-29.62 20.98l-39.57 -3.01c-16.57,-1.26 -27.47,0.52 -32.67,5.32 -5.19,4.81 -8.03,10.69 -8.55,17.61 -0.75,9.81 2.23,17.31 8.95,22.43 6.67,5.13 19,8.4 36.94,9.76l30.76 2.34 4.14 -54.45zm227.9 -49.67l169.02 57.17 -72.83 215.34 -28.57 -9.66 64.29 -190.08 -111.89 -37.84 -64.29 190.08 -28.57 -9.66 72.84 -215.35zm201.61 231.26c16.42,-25.62 35.71,-40.03 57.93,-43.2 18.46,-2.62 36.31,1.59 53.47,12.59 19.02,12.19 30.61,28.43 34.73,48.68 4.11,20.16 -0.89,41.28 -14.98,63.25 -11.42,17.82 -23.06,30.09 -34.94,36.87 -11.89,6.77 -24.77,9.7 -38.64,8.79 -13.83,-0.88 -26.81,-5.25 -38.88,-12.99 -19.43,-12.45 -31.14,-28.69 -35.15,-48.81 -4.02,-20.11 1.49,-41.84 16.46,-65.18zm24.02 15.46c-11.36,17.73 -15.99,33.49 -13.88,47.24 2.15,13.81 9.08,24.48 20.89,32.05 11.67,7.48 24.21,9.3 37.69,5.43 13.43,-3.9 25.96,-14.9 37.58,-33.04 10.97,-17.1 15.36,-32.58 13.19,-46.35 -2.14,-13.82 -9.03,-24.46 -20.6,-31.88 -11.81,-7.58 -24.37,-9.46 -37.79,-5.69 -13.38,3.82 -25.74,14.55 -37.08,32.24zm412.22 141.63l16.86 18.15c-8.78,6.82 -16.08,10.36 -21.81,10.62 -5.74,0.28 -11.05,-1.3 -16.06,-4.72 -4.97,-3.45 -13.47,-11.44 -25.4,-23.96 -15.85,-16.63 -28.26,-26.43 -37.25,-29.42 -8.95,-2.94 -18.24,-2.41 -27.81,1.66 -9.61,4.12 -20.08,11.31 -31.51,21.63 12.44,-2.14 23.76,-1.6 34.06,1.6 10.26,3.17 19.46,9.07 27.57,17.58 14.9,15.63 21.88,33.69 20.94,54.17 -0.98,20.45 -10.6,39.42 -28.94,56.91 -13.91,13.26 -27.77,21.57 -41.59,24.87 -13.81,3.29 -26.55,3.74 -38.17,1.29 -11.58,-2.41 -23.19,-9.76 -34.8,-21.94 -13.51,-14.17 -20.78,-28.23 -21.78,-42.25 -1.02,-14.03 1.52,-27.93 7.58,-41.75 6.09,-13.77 21.66,-32.64 46.68,-56.48 31.44,-29.97 57.7,-44.84 78.72,-44.64 21.04,0.2 42.07,11.38 63.1,33.44 13.1,13.75 20.75,21.31 23,22.75 2.21,1.4 4.42,1.56 6.61,0.49zm-108.94 102.53c12.37,-11.79 19.71,-24.42 22.06,-37.83 2.33,-13.42 -1.6,-25.46 -11.78,-36.15 -10.63,-11.14 -22.99,-15.75 -37.15,-13.8 -14.12,1.91 -28.15,9.51 -42.13,22.83 -13.79,13.15 -21.18,26.57 -22.1,40.24 -0.97,13.63 3.24,25.41 12.55,35.18 9.57,10.03 21.56,14.11 35.98,12.28 14.41,-1.83 28.6,-9.42 42.57,-22.75zm71.66 202.65c-13.04,-3.96 -23.65,-9.04 -31.89,-15.13 -8.24,-6.09 -15.3,-13.77 -21.24,-23.03 -9.77,-15.24 -13.59,-29.32 -11.4,-42.29 2.14,-12.93 9,-23.12 20.54,-30.52 6.77,-4.34 13.96,-6.75 21.54,-7.27 7.62,-0.48 14.67,0.72 21.25,3.54 6.62,2.86 12.8,6.81 18.57,11.98 4.17,3.86 9.81,10.12 16.94,18.68 14.39,17.55 26.1,29.84 34.97,36.8 3.26,-1.97 5.34,-3.23 6.19,-3.78 9.53,-6.11 14.82,-12.65 15.89,-19.62 1.44,-9.42 -1.67,-20.05 -9.27,-31.91 -7.1,-11.08 -14.32,-18.03 -21.57,-20.8 -7.27,-2.81 -16.62,-2.29 -28.13,1.51l-11.53 -25.05c11.18,-4.21 21.35,-5.9 30.5,-4.97 9.14,0.92 18.23,4.91 27.35,11.88 9.06,6.96 17.47,16.46 25.13,28.4 7.6,11.85 12.4,22.41 14.37,31.65 1.94,9.19 1.97,16.89 -0.03,23.09 -2,6.17 -5.78,12.05 -11.33,17.63 -3.52,3.32 -10.48,8.35 -20.86,15l-31.18 19.99c-21.79,13.97 -35.24,23.28 -40.44,28.01 -5.24,4.68 -9.55,10.21 -13.07,16.49l-15.76 -24.59c3.42,-5.54 8.24,-10.76 14.46,-15.69zm50.92 -35.28c-8.96,-6.33 -20.12,-17.27 -33.5,-32.83 -7.61,-8.83 -13.57,-14.7 -17.87,-17.59 -4.31,-2.89 -8.82,-4.35 -13.52,-4.41 -4.74,-0.04 -9.15,1.22 -13.25,3.85 -6.18,3.96 -9.89,9.67 -10.98,17.09 -1.08,7.42 1.29,15.71 7.14,24.84 5.8,9.05 12.92,15.86 21.43,20.4 8.43,4.52 17.16,6.27 26.09,5.2 6.93,-0.86 15.53,-4.61 25.82,-11.2l8.64 -5.35zm120.46 46.64l54.92 121.52 -21.11 9.54 -21.71 -48.02 -129.04 58.32 -11.51 -25.46 129.05 -58.32 -21.71 -48.04 21.11 -9.54zm82.16 207.12l6.28 27.22 -62.8 14.49 7.95 34.45c5.18,22.48 4.84,40.75 -1.07,54.93 -5.92,14.12 -16.53,22.99 -31.84,26.52 -13.4,3.09 -26.02,0.67 -37.9,-7.29 -11.87,-7.9 -20.35,-22.99 -25.49,-45.27l-15.69 -68.01 160.56 -37.04zm-132.01 59.13l6.62 28.66c3.98,17.28 8.94,29.12 14.87,35.51 5.93,6.4 13.38,8.59 22.36,6.52 6.96,-1.61 12.51,-5.76 16.72,-12.49 4.16,-6.72 4.1,-19.42 -0.22,-38.13l-7.45 -32.28 -52.9 12.21zm172.93 158.33l2.12 27.86 -70.91 5.39c0.67,8.87 2.84,14.96 6.54,18.29 3.64,3.28 13.91,7.75 30.84,13.47 13.4,4.5 22.28,8.28 26.66,11.34 4.38,3.12 7.47,6.81 9.23,11.13 1.77,4.38 3.05,11.45 3.79,21.21l0.43 5.6 -22.96 1.75 -0.43 -7.77c-0.56,-7.34 -2.02,-11.96 -4.34,-13.84 -2.43,-2 -9.44,-4.81 -21.02,-8.38 -11.08,-3.4 -18.81,-6.7 -23.2,-9.91 -4.38,-3.17 -8.54,-8.33 -12.53,-15.4 -2.3,12.22 -12.54,24.89 -30.76,37.96l-48.59 34.42 -2.33 -30.61 48.48 -33.98c9.81,-6.86 16.17,-12.65 19.1,-17.38 2.93,-4.79 4.15,-10.3 3.68,-16.57l-75.98 5.78 -2.12 -27.86 164.3 -12.5zm-74.2 186.2c30.19,3.84 51.48,15.08 63.88,33.78 10.29,15.55 14.15,33.48 11.57,53.7 -2.85,22.41 -12.53,39.85 -29.05,52.26 -16.45,12.37 -37.68,16.92 -63.56,13.62 -21,-2.67 -37.08,-7.91 -48.3,-15.74 -11.22,-7.83 -19.4,-18.2 -24.53,-31.12 -5.13,-12.87 -6.76,-26.47 -4.95,-40.69 2.91,-22.9 12.55,-40.44 29,-52.7 16.44,-12.26 38.43,-16.61 65.94,-13.11zm-3.66 28.34c-20.89,-2.66 -37.11,-0.08 -48.62,7.73 -11.55,7.87 -18.22,18.71 -19.99,32.62 -1.74,13.75 2,25.86 11.28,36.38 9.28,10.45 24.6,17.05 45.97,19.76 20.16,2.57 36.02,-0.11 47.53,-7.98 11.56,-7.87 18.21,-18.65 19.95,-32.29 1.77,-13.92 -1.92,-26.07 -11.08,-36.57 -9.19,-10.45 -24.19,-17 -45.04,-19.65zm46.19 229.93l-20.6 60.9c-5.05,14.94 -10.07,25.65 -15.05,32.11 -4.96,6.42 -11.65,11.15 -20.08,14.1 -8.5,3 -17.34,2.91 -26.66,-0.24 -7.48,-2.53 -13.47,-6.29 -17.95,-11.21 -4.51,-4.99 -7.61,-11.18 -9.22,-18.65 -4.93,6.49 -11.55,11.01 -19.91,13.6 -8.28,2.56 -17.07,2.27 -26.24,-0.84 -14.47,-5.94 -23.65,-14.97 -27.54,-26.96 -3.92,-12 -2.77,-27.14 3.4,-45.38l23.75 -70.22 156.1 52.79zm-74.82 4.19l-9.49 28.07c-3.78,11.18 -5.79,19.1 -6.05,23.65 -0.22,4.62 0.87,9.17 3.36,13.71 2.44,4.51 6.19,7.62 11.2,9.32 8.27,2.79 14.97,1.82 20.18,-2.85 5.22,-4.71 10.19,-14.1 14.94,-28.13l9.78 -28.92 -43.92 -14.85zm-68.57 -23.19l-11.75 34.73c-5.05,14.94 -6.77,25.8 -5.2,32.54 1.63,6.75 6.61,11.68 15.08,14.88 4.96,1.68 10.17,1.64 15.51,-0.12 5.37,-1.81 9.5,-5.11 12.35,-9.9 2.9,-4.78 6.26,-12.91 10.13,-24.34l10.8 -31.92 -46.92 -15.87zm95.81 233.6l28.93 13.08 -11.51 25.46 -28.93 -13.08 11.51 -25.46zm-178.22 -80.55l150.15 67.86 -11.5 25.46 -150.16 -67.86 11.51 -25.46z"/>
   <path id="_1" class="fil3 str2" d="M373.76 2107.38l-65.47 -165.98 211.47 -83.42 11.07 28.06 -186.67 73.63 43.34 109.87 186.66 -73.63 11.07 28.06 -211.47 83.41zm191.74 -336l-224.41 40.07 -4.46 -25.01 21.3 -3.8c-9.28,-4.41 -16.67,-9.97 -22.12,-16.69 -5.43,-6.66 -9.13,-15.3 -11.02,-25.88 -2.47,-13.85 -1.1,-26.67 4.15,-38.53 5.2,-11.83 13.82,-21.59 25.78,-29.32 12.01,-7.68 25.7,-12.92 41.17,-15.68 16.52,-2.95 31.94,-2.64 46.28,0.93 14.29,3.57 25.99,10.41 35.11,20.49 9.05,10.05 14.72,21.35 16.95,33.85 1.64,9.18 1.18,17.75 -1.38,25.67 -2.55,7.99 -6.34,14.79 -11.39,20.52l79.13 -14.12 4.91 27.5zm-146.78 0.41c20.79,-3.72 35.4,-10.67 43.86,-20.84 8.44,-10.21 11.61,-21.32 9.47,-33.3 -2.17,-12.19 -9.19,-21.68 -21.04,-28.49 -11.87,-6.86 -28.58,-8.34 -50.2,-4.48 -20.63,3.68 -35.3,10.66 -44.05,20.99 -8.74,10.31 -12.04,21.34 -9.94,33.11 2.08,11.67 9.4,21.01 21.88,28.02 12.55,7.06 29.19,8.71 50.02,4.99zm-134.98 -190.13l-31.74 0.8 -0.7 -27.94 31.74 -0.8 0.7 27.94zm195.52 -4.93l-164.73 4.15 -0.7 -27.93 164.73 -4.15 0.7 27.93zm-68.98 -147.14l-21.74 -2.77c1.38,-11.67 1.92,-19.7 1.66,-24 -0.29,-4.36 -2.19,-8.71 -5.8,-13.01 -3.62,-4.3 -8.46,-6.84 -14.62,-7.62 -7.4,-0.94 -13.69,0.77 -18.73,5.19 -5.1,4.42 -8.13,10.54 -9.13,18.47 -1.99,15.59 5.76,27.67 23.24,36.24l-7.78 25.9c-29.4,-12.07 -42.11,-33.85 -38.11,-65.23 2.21,-17.43 8.68,-30.48 19.45,-39.19 10.75,-8.71 22.72,-12.21 35.9,-10.54 13.27,1.69 23.06,9.5 29.25,23.36 5.45,-7.68 11.85,-13.11 19.2,-16.39 7.35,-3.23 15.69,-4.24 25.04,-3.05 14.64,1.86 25.82,8.72 33.6,20.54 7.78,11.87 10.44,27.36 8,46.57 -4.74,37.27 -23.97,56.8 -57.7,58.54l-2.34 -26.86c10.7,-1.04 19.39,-4.79 26.03,-11.31 6.64,-6.51 10.53,-14.39 11.72,-23.74 1.18,-9.34 -0.46,-17.44 -4.96,-24.32 -4.47,-6.85 -10.8,-10.81 -18.98,-11.85 -6.35,-0.8 -12.11,0.44 -17.33,3.72 -5.21,3.29 -8.69,7.06 -10.4,11.32 -1.77,4.26 -3.36,12.16 -4.83,23.71 -0.12,0.94 -0.34,3.05 -0.64,6.32zm-61.8 -173.67l17.56 -61.85c4.31,-15.17 8.79,-26.11 13.45,-32.81 4.63,-6.66 11.08,-11.71 19.35,-15.08 8.34,-3.41 17.19,-3.76 26.65,-1.07 7.59,2.16 13.76,5.61 18.48,10.31 4.75,4.76 8.15,10.79 10.13,18.17 4.6,-6.73 10.99,-11.57 19.21,-14.56 8.15,-2.97 16.94,-3.11 26.25,-0.47 14.75,5.23 24.36,13.79 28.83,25.57 4.52,11.79 4.11,26.97 -1.15,45.5l-20.25 71.31 -158.51 -45.02zm74.52 -7.88l8.09 -28.51c3.22,-11.35 4.84,-19.36 4.87,-23.92 0,-4.62 -1.32,-9.11 -4.03,-13.52 -2.66,-4.39 -6.56,-7.31 -11.65,-8.76 -8.4,-2.38 -15.03,-1.08 -20.01,3.84 -4.98,4.97 -9.48,14.58 -13.53,28.83l-8.34 29.37 44.6 12.67zm69.63 19.77l10.02 -35.27c4.31,-15.17 5.49,-26.1 3.59,-32.76 -1.97,-6.66 -7.18,-11.33 -15.8,-14.11 -5.04,-1.43 -10.24,-1.14 -15.49,0.88 -5.27,2.08 -9.24,5.58 -11.84,10.51 -2.66,4.91 -5.62,13.19 -8.92,24.8l-9.2 32.42 47.64 13.53zm-68.59 -231.02l12.73 -24.87 111.86 57.29 -76.47 -126.37 13.67 -26.71 146.67 75.11 -12.74 24.87 -111.15 -56.93 75.81 125.93 -13.72 26.79 -146.66 -75.11zm123.07 -216.65l18.29 -21.12 107.27 92.92 41.58 -47.99 -107.27 -92.93 18.29 -21.11 107.27 92.92 41.58 -48 -107.27 -92.92 18.29 -21.12 107.27 92.92 12.06 -13.91 52.55 45.52 -15.17 17.52 -35.28 -30.56 -134.91 155.75 -124.55 -107.89zm383.13 -209.3l25.75 -13.64c6.05,16.27 6.77,31.8 2.14,46.47 -4.64,14.66 -14.71,27.53 -30.28,38.6 -19.58,13.91 -39.4,18.91 -59.45,15 -20.03,-3.88 -37.81,-16.74 -53.3,-38.53 -16.01,-22.51 -22.68,-44.12 -19.91,-64.79 2.74,-20.72 13.38,-37.63 31.88,-50.79 17.89,-12.72 36.84,-17.03 56.85,-12.89 20.03,4.14 37.93,17.25 53.66,39.37 0.95,1.34 2.34,3.4 4.16,6.13l-100.01 71.12c11.32,14.09 23.49,22.45 36.55,24.92 13.01,2.5 25.16,-0.24 36.32,-8.18 8.32,-5.91 13.88,-13.18 16.62,-21.74 2.78,-8.6 2.44,-18.95 -0.98,-31.05zm-100.47 16.5l74.79 -53.18c-9.03,-10.59 -17.92,-16.99 -26.65,-19.3 -13.42,-3.63 -25.96,-1.34 -37.47,6.84 -10.44,7.42 -16.7,17.14 -18.85,29.19 -2.1,12.02 0.62,24.17 8.18,36.45zm277.11 -52.78l-93.63 -207.16 27.49 -12.42 93.62 207.16 -27.48 12.42zm65.37 -205.99l41.87 -9.66 72.08 118.71 17.32 -139.33 38.88 -8.97 37.04 160.56 -27.23 6.28 -29.82 -129.26 -17.45 140.17 -24.34 5.61 -75.96 -125.13 31.25 135.45 -26.6 6.13 -37.04 -160.56zm269.99 -32.02l-10.34 -41.73 -2.88 -37.83 31.66 -2.41 2.88 37.83 -4.22 42.84 -17.1 1.3zm244.19 -15.66l-12.5 164.3 -27.86 -2.12 4.86 -63.95 -16.03 -1.22c-9.76,-0.75 -17.15,-0.03 -22.14,2.19 -5,2.22 -12.63,9.76 -22.91,22.72l-27.2 33.91 -34.51 -2.62 33.44 -41.82c10.2,-12.82 19.96,-19.72 29.22,-20.76 -15.71,-3.37 -27.1,-10.02 -34.09,-19.89 -7,-9.88 -10.04,-20.88 -9.12,-32.97 1.09,-14.3 6.98,-25.46 17.73,-33.56 10.76,-8.16 25.71,-11.47 44.82,-10.02l76.29 5.81zm-29.62 20.98l-39.57 -3.01c-16.57,-1.26 -27.47,0.52 -32.67,5.32 -5.19,4.81 -8.03,10.69 -8.55,17.61 -0.75,9.81 2.23,17.31 8.95,22.43 6.67,5.13 19,8.4 36.94,9.76l30.76 2.34 4.14 -54.45zm227.9 -49.67l169.02 57.17 -72.83 215.34 -28.57 -9.66 64.29 -190.08 -111.89 -37.84 -64.29 190.08 -28.57 -9.66 72.84 -215.35zm201.61 231.26c16.42,-25.62 35.71,-40.03 57.93,-43.2 18.46,-2.62 36.31,1.59 53.47,12.59 19.02,12.19 30.61,28.43 34.73,48.68 4.11,20.16 -0.89,41.28 -14.98,63.25 -11.42,17.82 -23.06,30.09 -34.94,36.87 -11.89,6.77 -24.77,9.7 -38.64,8.79 -13.83,-0.88 -26.81,-5.25 -38.88,-12.99 -19.43,-12.45 -31.14,-28.69 -35.15,-48.81 -4.02,-20.11 1.49,-41.84 16.46,-65.18zm24.02 15.46c-11.36,17.73 -15.99,33.49 -13.88,47.24 2.15,13.81 9.08,24.48 20.89,32.05 11.67,7.48 24.21,9.3 37.69,5.43 13.43,-3.9 25.96,-14.9 37.58,-33.04 10.97,-17.1 15.36,-32.58 13.19,-46.35 -2.14,-13.82 -9.03,-24.46 -20.6,-31.88 -11.81,-7.58 -24.37,-9.46 -37.79,-5.69 -13.38,3.82 -25.74,14.55 -37.08,32.24zm412.22 141.63l16.86 18.15c-8.78,6.82 -16.08,10.36 -21.81,10.62 -5.74,0.28 -11.05,-1.3 -16.06,-4.72 -4.97,-3.45 -13.47,-11.44 -25.4,-23.96 -15.85,-16.63 -28.26,-26.43 -37.25,-29.42 -8.95,-2.94 -18.24,-2.41 -27.81,1.66 -9.61,4.12 -20.08,11.31 -31.51,21.63 12.44,-2.14 23.76,-1.6 34.06,1.6 10.26,3.17 19.46,9.07 27.57,17.58 14.9,15.63 21.88,33.69 20.94,54.17 -0.98,20.45 -10.6,39.42 -28.94,56.91 -13.91,13.26 -27.77,21.57 -41.59,24.87 -13.81,3.29 -26.55,3.74 -38.17,1.29 -11.58,-2.41 -23.19,-9.76 -34.8,-21.94 -13.51,-14.17 -20.78,-28.23 -21.78,-42.25 -1.02,-14.03 1.52,-27.93 7.58,-41.75 6.09,-13.77 21.66,-32.64 46.68,-56.48 31.44,-29.97 57.7,-44.84 78.72,-44.64 21.04,0.2 42.07,11.38 63.1,33.44 13.1,13.75 20.75,21.31 23,22.75 2.21,1.4 4.42,1.56 6.61,0.49zm-108.94 102.53c12.37,-11.79 19.71,-24.42 22.06,-37.83 2.33,-13.42 -1.6,-25.46 -11.78,-36.15 -10.63,-11.14 -22.99,-15.75 -37.15,-13.8 -14.12,1.91 -28.15,9.51 -42.13,22.83 -13.79,13.15 -21.18,26.57 -22.1,40.24 -0.97,13.63 3.24,25.41 12.55,35.18 9.57,10.03 21.56,14.11 35.98,12.28 14.41,-1.83 28.6,-9.42 42.57,-22.75zm71.66 202.65c-13.04,-3.96 -23.65,-9.04 -31.89,-15.13 -8.24,-6.09 -15.3,-13.77 -21.24,-23.03 -9.77,-15.24 -13.59,-29.32 -11.4,-42.29 2.14,-12.93 9,-23.12 20.54,-30.52 6.77,-4.34 13.96,-6.75 21.54,-7.27 7.62,-0.48 14.67,0.72 21.25,3.54 6.62,2.86 12.8,6.81 18.57,11.98 4.17,3.86 9.81,10.12 16.94,18.68 14.39,17.55 26.1,29.84 34.97,36.8 3.26,-1.97 5.34,-3.23 6.19,-3.78 9.53,-6.11 14.82,-12.65 15.89,-19.62 1.44,-9.42 -1.67,-20.05 -9.27,-31.91 -7.1,-11.08 -14.32,-18.03 -21.57,-20.8 -7.27,-2.81 -16.62,-2.29 -28.13,1.51l-11.53 -25.05c11.18,-4.21 21.35,-5.9 30.5,-4.97 9.14,0.92 18.23,4.91 27.35,11.88 9.06,6.96 17.47,16.46 25.13,28.4 7.6,11.85 12.4,22.41 14.37,31.65 1.94,9.19 1.97,16.89 -0.03,23.09 -2,6.17 -5.78,12.05 -11.33,17.63 -3.52,3.32 -10.48,8.35 -20.86,15l-31.18 19.99c-21.79,13.97 -35.24,23.28 -40.44,28.01 -5.24,4.68 -9.55,10.21 -13.07,16.49l-15.76 -24.59c3.42,-5.54 8.24,-10.76 14.46,-15.69zm50.92 -35.28c-8.96,-6.33 -20.12,-17.27 -33.5,-32.83 -7.61,-8.83 -13.57,-14.7 -17.87,-17.59 -4.31,-2.89 -8.82,-4.35 -13.52,-4.41 -4.74,-0.04 -9.15,1.22 -13.25,3.85 -6.18,3.96 -9.89,9.67 -10.98,17.09 -1.08,7.42 1.29,15.71 7.14,24.84 5.8,9.05 12.92,15.86 21.43,20.4 8.43,4.52 17.16,6.27 26.09,5.2 6.93,-0.86 15.53,-4.61 25.82,-11.2l8.64 -5.35zm120.46 46.64l54.92 121.52 -21.11 9.54 -21.71 -48.02 -129.04 58.32 -11.51 -25.46 129.05 -58.32 -21.71 -48.04 21.11 -9.54zm82.16 207.12l6.28 27.22 -62.8 14.49 7.95 34.45c5.18,22.48 4.84,40.75 -1.07,54.93 -5.92,14.12 -16.53,22.99 -31.84,26.52 -13.4,3.09 -26.02,0.67 -37.9,-7.29 -11.87,-7.9 -20.35,-22.99 -25.49,-45.27l-15.69 -68.01 160.56 -37.04zm-132.01 59.13l6.62 28.66c3.98,17.28 8.94,29.12 14.87,35.51 5.93,6.4 13.38,8.59 22.36,6.52 6.96,-1.61 12.51,-5.76 16.72,-12.49 4.16,-6.72 4.1,-19.42 -0.22,-38.13l-7.45 -32.28 -52.9 12.21zm172.93 158.33l2.12 27.86 -70.91 5.39c0.67,8.87 2.84,14.96 6.54,18.29 3.64,3.28 13.91,7.75 30.84,13.47 13.4,4.5 22.28,8.28 26.66,11.34 4.38,3.12 7.47,6.81 9.23,11.13 1.77,4.38 3.05,11.45 3.79,21.21l0.43 5.6 -22.96 1.75 -0.43 -7.77c-0.56,-7.34 -2.02,-11.96 -4.34,-13.84 -2.43,-2 -9.44,-4.81 -21.02,-8.38 -11.08,-3.4 -18.81,-6.7 -23.2,-9.91 -4.38,-3.17 -8.54,-8.33 -12.53,-15.4 -2.3,12.22 -12.54,24.89 -30.76,37.96l-48.59 34.42 -2.33 -30.61 48.48 -33.98c9.81,-6.86 16.17,-12.65 19.1,-17.38 2.93,-4.79 4.15,-10.3 3.68,-16.57l-75.98 5.78 -2.12 -27.86 164.3 -12.5zm-74.2 186.2c30.19,3.84 51.48,15.08 63.88,33.78 10.29,15.55 14.15,33.48 11.57,53.7 -2.85,22.41 -12.53,39.85 -29.05,52.26 -16.45,12.37 -37.68,16.92 -63.56,13.62 -21,-2.67 -37.08,-7.91 -48.3,-15.74 -11.22,-7.83 -19.4,-18.2 -24.53,-31.12 -5.13,-12.87 -6.76,-26.47 -4.95,-40.69 2.91,-22.9 12.55,-40.44 29,-52.7 16.44,-12.26 38.43,-16.61 65.94,-13.11zm-3.66 28.34c-20.89,-2.66 -37.11,-0.08 -48.62,7.73 -11.55,7.87 -18.22,18.71 -19.99,32.62 -1.74,13.75 2,25.86 11.28,36.38 9.28,10.45 24.6,17.05 45.97,19.76 20.16,2.57 36.02,-0.11 47.53,-7.98 11.56,-7.87 18.21,-18.65 19.95,-32.29 1.77,-13.92 -1.92,-26.07 -11.08,-36.57 -9.19,-10.45 -24.19,-17 -45.04,-19.65zm46.19 229.93l-20.6 60.9c-5.05,14.94 -10.07,25.65 -15.05,32.11 -4.96,6.42 -11.65,11.15 -20.08,14.1 -8.5,3 -17.34,2.91 -26.66,-0.24 -7.48,-2.53 -13.47,-6.29 -17.95,-11.21 -4.51,-4.99 -7.61,-11.18 -9.22,-18.65 -4.93,6.49 -11.55,11.01 -19.91,13.6 -8.28,2.56 -17.07,2.27 -26.24,-0.84 -14.47,-5.94 -23.65,-14.97 -27.54,-26.96 -3.92,-12 -2.77,-27.14 3.4,-45.38l23.75 -70.22 156.1 52.79zm-74.82 4.19l-9.49 28.07c-3.78,11.18 -5.79,19.1 -6.05,23.65 -0.22,4.62 0.87,9.17 3.36,13.71 2.44,4.51 6.19,7.62 11.2,9.32 8.27,2.79 14.97,1.82 20.18,-2.85 5.22,-4.71 10.19,-14.1 14.94,-28.13l9.78 -28.92 -43.92 -14.85zm-68.57 -23.19l-11.75 34.73c-5.05,14.94 -6.77,25.8 -5.2,32.54 1.63,6.75 6.61,11.68 15.08,14.88 4.96,1.68 10.17,1.64 15.51,-0.12 5.37,-1.81 9.5,-5.11 12.35,-9.9 2.9,-4.78 6.26,-12.91 10.13,-24.34l10.8 -31.92 -46.92 -15.87zm95.81 233.6l28.93 13.08 -11.51 25.46 -28.93 -13.08 11.51 -25.46zm-178.22 -80.55l150.15 67.86 -11.5 25.46 -150.16 -67.86 11.51 -25.46z"/>
   <path class="fil1" d="M1216.23 1113.08l-76.2 0 0 -8.07c10.18,-2.19 16.32,-5.38 18.52,-9.64 2.16,-4.31 3.2,-12.05 3.2,-23.31l0 -168.63 -49.95 0c-2.51,28.14 -7.35,58.23 -14.54,90.28 -7.23,32.06 -14.72,57.39 -22.52,76.05 -7.78,18.61 -15.76,30.88 -23.99,36.93 -8.22,6 -17.41,9.02 -27.73,9.02 -10.3,0 -19.63,-1.34 -27.92,-3.92l0 -33.17 17.68 0c1.05,7.73 5.27,11.65 12.57,11.65 5.4,0 10.62,-2.46 15.77,-7.4 5.16,-4.93 11.17,-16.98 17.98,-36.14 6.87,-19.11 13.19,-42.14 19.03,-68.93 5.75,-26.84 8.7,-46.35 8.7,-58.62 0,-8.12 -1.35,-13.67 -3.99,-16.64 -2.63,-3.03 -7.35,-4.93 -14.16,-5.66l0 -7.9 147.55 0 0 8.07c-8.89,1.96 -14.54,4.59 -17.06,7.95 -2.51,3.31 -3.8,11.66 -3.8,25l0 142.06c0,13 1.29,21.24 3.8,24.77 2.52,3.47 8.17,6.22 17.06,8.18l0 8.07z"/>
   <path id="_1_0" class="fil1" d="M1339.03 1072.06c0,7.28 0.24,12.66 0.8,16.08 0.54,3.36 1.46,6.05 2.69,8.02 1.29,1.96 3.13,3.64 5.58,4.93 2.45,1.34 6.45,2.63 11.97,3.92l0 8.07 -75.9 0 0 -8.07c7.49,-1.74 12.45,-3.64 14.97,-5.83 2.52,-2.13 4.17,-5.15 4.92,-9.08 0.79,-3.92 1.16,-9.97 1.16,-18.04l0 -142.06c0,-7.51 -0.31,-13.06 -0.86,-16.48 -0.62,-3.47 -1.6,-6.11 -3.01,-8.07 -1.34,-1.9 -3.18,-3.42 -5.46,-4.59 -2.27,-1.12 -6.2,-2.41 -11.72,-3.81l0 -8.07 75.9 0 0 8.07c-5.28,1.17 -9.08,2.41 -11.41,3.58 -2.33,1.18 -4.24,2.69 -5.58,4.54 -1.42,1.79 -2.4,4.48 -3.08,8.13 -0.67,3.58 -0.97,9.19 -0.97,16.7l0 142.06z"/>
   <path id="_2" class="fil1" d="M1576.3 1113.08l0 -8.07c-4.91,-11.04 -9.01,-20.73 -12.39,-29.03l-13.44 -33.17c-4.6,-11.16 -8.71,-19.23 -12.45,-24.16 -3.69,-4.87 -8.04,-8.52 -13,-10.81 -4.97,-2.3 -11.73,-3.48 -20.26,-3.48l-21.89 0 0 67.87c0,13.11 1.28,21.35 3.86,24.77 2.57,3.36 8.22,6.05 16.99,8.01l0 8.07 -75.89 0 0 -8.07c8.15,-1.74 13.74,-4.09 16.75,-7.06 3,-2.91 4.48,-11.55 4.48,-25.72l0 -142.06c0,-14.46 -1.54,-23.15 -4.67,-26.12 -3.13,-2.91 -8.65,-5.27 -16.56,-7l0 -8.07 75.89 0 0 8.07c-8.03,1.85 -13.5,4.25 -16.44,7.28 -2.95,3.03 -4.41,11.6 -4.41,25.84l0 60.13 21.59 0c9.7,0 17.31,-2.69 22.89,-7.96 5.57,-5.33 12.7,-18.94 21.28,-40.85 7.92,-20.68 15.83,-35.03 23.68,-43.1 7.8,-8.01 20.62,-12.05 38.36,-12.05 5.63,0 13.06,1.24 22.27,3.64l0 37.72 -17.8 0c-1.41,-10.82 -6.62,-16.25 -15.64,-16.25 -5.46,0 -10.25,2.35 -14.18,7.06 -3.98,4.71 -9.38,15.13 -16.38,31.21 -5.52,13.12 -10.3,22.81 -14.35,28.98 -4.05,6.16 -9.64,11.32 -16.75,15.35l0 1.29c19.69,5.49 34.85,19.11 45.52,40.91l16.14 33.34c6.01,12.33 11.47,21.07 16.38,26.17 4.9,5.1 12.27,8.19 22.09,9.25l0 8.07 -61.67 0z"/>
   <path id="_3" class="fil1" d="M1812.73 1113.08l0 -8.07c6.01,-1.06 10.42,-2.3 13.37,-3.59 2.94,-1.29 5.15,-3.13 6.57,-5.49 1.46,-2.35 2.14,-5.49 2.14,-9.47 0,-3.7 -0.42,-7.73 -1.41,-12.05 -0.99,-4.31 -2.33,-9.19 -4.11,-14.51l-6.69 -21.19 -83.75 0 -6.13 16.09c-3.07,8.07 -5.16,14.23 -6.08,18.38 -0.98,4.15 -1.46,7.96 -1.46,11.32 0,6.56 1.83,11.38 5.51,14.46 3.63,3.08 9.27,5.1 16.81,6.05l0 8.07 -76.75 0 0 -8.07c6.69,-0.95 12.51,-4.54 17.49,-10.65 4.97,-6.11 9.82,-14.9 14.48,-26.28l74.97 -181.74 28.4 0 61.12 183.08c2.88,8.52 5.4,15.02 7.61,19.51 2.21,4.48 4.9,8.01 8.03,10.53 3.07,2.52 7.36,4.37 12.77,5.55l0 8.07 -82.89 0zm-69.03 -88.66l75.16 0 -34.17 -105.91 -40.99 105.91z"/>
   <path id="_4" class="fil1" d="M1999.7 1071.55c0,6.45 0.37,11.6 1.16,15.42 0.79,3.86 1.97,6.89 3.62,9.13 1.6,2.24 3.81,3.98 6.57,5.27 2.76,1.23 7.05,2.46 12.94,3.64l0 8.07 -78.96 0 0 -8.07c7.49,-1.74 12.45,-3.64 14.97,-5.83 2.51,-2.13 4.17,-5.15 4.91,-9.08 0.79,-3.92 1.16,-9.97 1.16,-18.04l0 -142.06c0,-7.51 -0.3,-13.06 -0.85,-16.48 -0.63,-3.47 -1.6,-6.11 -3.01,-8.07 -1.35,-1.9 -3.19,-3.42 -5.47,-4.59 -2.26,-1.12 -6.19,-2.41 -11.71,-3.81l0 -8.07 89.21 0c28.04,0 48.89,4.87 62.64,14.68 13.68,9.81 20.55,24.71 20.55,44.72 0,11.43 -2.14,21.63 -6.43,30.71 -4.36,9.08 -10.44,16.53 -18.35,22.36 -7.92,5.77 -17.25,9.97 -28.04,12.44 -10.8,2.52 -22.15,3.81 -34,3.81 -13.31,0 -23.61,-0.22 -30.91,-0.67l0 54.52zm0 -68.14l20.85 0c13.57,0 24.73,-1.63 33.5,-4.82 8.84,-3.25 15.59,-8.63 20.25,-16.14 4.66,-7.45 6.99,-17.43 6.99,-29.76 0,-9.41 -1.34,-17.26 -4.1,-23.59 -2.76,-6.28 -6.57,-11.32 -11.42,-15.19 -4.84,-3.81 -10.68,-6.5 -17.35,-8.12 -6.69,-1.57 -14,-2.36 -21.91,-2.36 -11.9,0 -20.8,0.23 -26.81,0.68l0 99.3z"/>
   <path id="_5" class="fil3 str3" d="M1216.23 1113.08l-76.2 0 0 -8.07c10.18,-2.19 16.32,-5.38 18.52,-9.64 2.16,-4.31 3.2,-12.05 3.2,-23.31l0 -168.63 -49.95 0c-2.51,28.14 -7.35,58.23 -14.54,90.28 -7.23,32.06 -14.72,57.39 -22.52,76.05 -7.78,18.61 -15.76,30.88 -23.99,36.93 -8.22,6 -17.41,9.02 -27.73,9.02 -10.3,0 -19.63,-1.34 -27.92,-3.92l0 -33.17 17.68 0c1.05,7.73 5.27,11.65 12.57,11.65 5.4,0 10.62,-2.46 15.77,-7.4 5.16,-4.93 11.17,-16.98 17.98,-36.14 6.87,-19.11 13.19,-42.14 19.03,-68.93 5.75,-26.84 8.7,-46.35 8.7,-58.62 0,-8.12 -1.35,-13.67 -3.99,-16.64 -2.63,-3.03 -7.35,-4.93 -14.16,-5.66l0 -7.9 147.55 0 0 8.07c-8.89,1.96 -14.54,4.59 -17.06,7.95 -2.51,3.31 -3.8,11.66 -3.8,25l0 142.06c0,13 1.29,21.24 3.8,24.77 2.52,3.47 8.17,6.22 17.06,8.18l0 8.07z"/>
   <path id="_6" class="fil3 str3" d="M1339.03 1072.06c0,7.28 0.24,12.66 0.8,16.08 0.54,3.36 1.46,6.05 2.69,8.02 1.29,1.96 3.13,3.64 5.58,4.93 2.45,1.34 6.45,2.63 11.97,3.92l0 8.07 -75.9 0 0 -8.07c7.49,-1.74 12.45,-3.64 14.97,-5.83 2.52,-2.13 4.17,-5.15 4.92,-9.08 0.79,-3.92 1.16,-9.97 1.16,-18.04l0 -142.06c0,-7.51 -0.31,-13.06 -0.86,-16.48 -0.62,-3.47 -1.6,-6.11 -3.01,-8.07 -1.34,-1.9 -3.18,-3.42 -5.46,-4.59 -2.27,-1.12 -6.2,-2.41 -11.72,-3.81l0 -8.07 75.9 0 0 8.07c-5.28,1.17 -9.08,2.41 -11.41,3.58 -2.33,1.18 -4.24,2.69 -5.58,4.54 -1.42,1.79 -2.4,4.48 -3.08,8.13 -0.67,3.58 -0.97,9.19 -0.97,16.7l0 142.06z"/>
   <path id="_7" class="fil3 str3" d="M1576.3 1113.08l0 -8.07c-4.91,-11.04 -9.01,-20.73 -12.39,-29.03l-13.44 -33.17c-4.6,-11.16 -8.71,-19.23 -12.45,-24.16 -3.69,-4.87 -8.04,-8.52 -13,-10.81 -4.97,-2.3 -11.73,-3.48 -20.26,-3.48l-21.89 0 0 67.87c0,13.11 1.28,21.35 3.86,24.77 2.57,3.36 8.22,6.05 16.99,8.01l0 8.07 -75.89 0 0 -8.07c8.15,-1.74 13.74,-4.09 16.75,-7.06 3,-2.91 4.48,-11.55 4.48,-25.72l0 -142.06c0,-14.46 -1.54,-23.15 -4.67,-26.12 -3.13,-2.91 -8.65,-5.27 -16.56,-7l0 -8.07 75.89 0 0 8.07c-8.03,1.85 -13.5,4.25 -16.44,7.28 -2.95,3.03 -4.41,11.6 -4.41,25.84l0 60.13 21.59 0c9.7,0 17.31,-2.69 22.89,-7.96 5.57,-5.33 12.7,-18.94 21.28,-40.85 7.92,-20.68 15.83,-35.03 23.68,-43.1 7.8,-8.01 20.62,-12.05 38.36,-12.05 5.63,0 13.06,1.24 22.27,3.64l0 37.72 -17.8 0c-1.41,-10.82 -6.62,-16.25 -15.64,-16.25 -5.46,0 -10.25,2.35 -14.18,7.06 -3.98,4.71 -9.38,15.13 -16.38,31.21 -5.52,13.12 -10.3,22.81 -14.35,28.98 -4.05,6.16 -9.64,11.32 -16.75,15.35l0 1.29c19.69,5.49 34.85,19.11 45.52,40.91l16.14 33.34c6.01,12.33 11.47,21.07 16.38,26.17 4.9,5.1 12.27,8.19 22.09,9.25l0 8.07 -61.67 0z"/>
   <path id="_8" class="fil3 str3" d="M1812.73 1113.08l0 -8.07c6.01,-1.06 10.42,-2.3 13.37,-3.59 2.94,-1.29 5.15,-3.13 6.57,-5.49 1.46,-2.35 2.14,-5.49 2.14,-9.47 0,-3.7 -0.42,-7.73 -1.41,-12.05 -0.99,-4.31 -2.33,-9.19 -4.11,-14.51l-6.69 -21.19 -83.75 0 -6.13 16.09c-3.07,8.07 -5.16,14.23 -6.08,18.38 -0.98,4.15 -1.46,7.96 -1.46,11.32 0,6.56 1.83,11.38 5.51,14.46 3.63,3.08 9.27,5.1 16.81,6.05l0 8.07 -76.75 0 0 -8.07c6.69,-0.95 12.51,-4.54 17.49,-10.65 4.97,-6.11 9.82,-14.9 14.48,-26.28l74.97 -181.74 28.4 0 61.12 183.08c2.88,8.52 5.4,15.02 7.61,19.51 2.21,4.48 4.9,8.01 8.03,10.53 3.07,2.52 7.36,4.37 12.77,5.55l0 8.07 -82.89 0zm-69.03 -88.66l75.16 0 -34.17 -105.91 -40.99 105.91z"/>
   <path id="_9" class="fil3 str3" d="M1999.7 1071.55c0,6.45 0.37,11.6 1.16,15.42 0.79,3.86 1.97,6.89 3.62,9.13 1.6,2.24 3.81,3.98 6.57,5.27 2.76,1.23 7.05,2.46 12.94,3.64l0 8.07 -78.96 0 0 -8.07c7.49,-1.74 12.45,-3.64 14.97,-5.83 2.51,-2.13 4.17,-5.15 4.91,-9.08 0.79,-3.92 1.16,-9.97 1.16,-18.04l0 -142.06c0,-7.51 -0.3,-13.06 -0.85,-16.48 -0.63,-3.47 -1.6,-6.11 -3.01,-8.07 -1.35,-1.9 -3.19,-3.42 -5.47,-4.59 -2.26,-1.12 -6.19,-2.41 -11.71,-3.81l0 -8.07 89.21 0c28.04,0 48.89,4.87 62.64,14.68 13.68,9.81 20.55,24.71 20.55,44.72 0,11.43 -2.14,21.63 -6.43,30.71 -4.36,9.08 -10.44,16.53 -18.35,22.36 -7.92,5.77 -17.25,9.97 -28.04,12.44 -10.8,2.52 -22.15,3.81 -34,3.81 -13.31,0 -23.61,-0.22 -30.91,-0.67l0 54.52zm0 -68.14l20.85 0c13.57,0 24.73,-1.63 33.5,-4.82 8.84,-3.25 15.59,-8.63 20.25,-16.14 4.66,-7.45 6.99,-17.43 6.99,-29.76 0,-9.41 -1.34,-17.26 -4.1,-23.59 -2.76,-6.28 -6.57,-11.32 -11.42,-15.19 -4.84,-3.81 -10.68,-6.5 -17.35,-8.12 -6.69,-1.57 -14,-2.36 -21.91,-2.36 -11.9,0 -20.8,0.23 -26.81,0.68l0 99.3z"/>
   <circle class="fil3 str4" cx="1550.01" cy="1550" r="1416.82"/>
   <path class="fil1" d="M827.49 2656.63l-21.46 -17.01 109.8 -138.52 -116.64 61.07 -12.94 -10.25 33.16 -127.24 -109.79 138.52 -19.91 -15.78 127.44 -160.77 29.08 23.05 -30.79 121.37 109.7 -58.83 29.78 23.61 -127.43 160.78zm269.53 -63.55c2.82,11.56 3.09,24.25 0.83,38.06 -2.26,13.81 -7.31,28.3 -15.14,43.47 -7.64,14.79 -16.4,27.15 -26.32,37.12 -9.9,9.97 -20.5,17.15 -31.78,21.6 -11.82,4.63 -23.73,6.37 -35.77,5.29 -12,-1.05 -23.98,-4.71 -35.89,-10.85 -12.37,-6.39 -22.4,-14.22 -30.13,-23.44 -7.75,-9.3 -13.08,-19.89 -15.94,-31.78 -2.83,-11.74 -3.09,-24.47 -0.74,-38.24 2.34,-13.76 7.36,-28.11 15.09,-43.07 7.92,-15.34 16.75,-27.82 26.53,-37.43 9.78,-9.62 20.34,-16.76 31.65,-21.45 11.21,-4.49 22.87,-6.25 34.97,-5.29 12.13,0.92 24.28,4.54 36.57,10.89 12.41,6.41 22.49,14.36 30.21,23.79 7.75,9.52 13.06,19.93 15.86,31.33zm-39.64 68.45c6.22,-12.03 10.42,-23.36 12.58,-34 2.22,-10.66 2.51,-20.24 0.94,-28.78 -1.61,-8.77 -5,-16.45 -10.19,-23.1 -5.2,-6.65 -12.03,-12.19 -20.51,-16.57 -8.82,-4.55 -17.35,-7 -25.48,-7.34 -8.14,-0.32 -16.39,1.39 -24.81,5.19 -8,3.71 -15.69,9.58 -23.11,17.61 -7.41,8.09 -14.16,17.99 -20.25,29.77 -12.32,23.87 -16.73,44.72 -13.24,62.56 3.54,17.86 13.71,31.16 30.64,39.9 16.88,8.72 33.62,9.31 50.14,1.8 16.53,-7.5 30.97,-23.17 43.29,-47.04zm160.45 60.96c3.14,5.17 5.19,11.05 6.16,17.63 0.92,6.56 -0.07,14.31 -3.04,23.18 -2.91,8.7 -7.36,16.19 -13.32,22.48 -5.97,6.28 -12.97,11.18 -20.95,14.71 -8.17,3.67 -17.39,5.45 -27.65,5.43 -10.29,-0.07 -21.06,-1.98 -32.39,-5.78 -12.13,-4.05 -22.84,-8.97 -32.15,-14.77 -9.29,-5.73 -16.57,-10.95 -21.81,-15.62l9.72 -29.04 1.83 0.61c5.41,6.97 12.49,13.95 21.26,20.8 8.75,6.89 18.15,12.02 28.14,15.36 6.38,2.14 12.95,3.4 19.85,3.82 6.85,0.41 13.08,-0.58 18.6,-3 5.57,-2.4 10.1,-5.55 13.61,-9.38 3.5,-3.79 6.38,-9.13 8.65,-15.91 2.22,-6.64 2.88,-12.62 2.03,-17.96 -0.9,-5.31 -3.06,-10.11 -6.45,-14.36 -3.34,-4.24 -7.77,-7.91 -13.36,-11.06 -5.57,-3.2 -11.71,-5.91 -18.54,-8.2l-20.33 -6.8 7.25 -21.67 17.66 5.91c13.69,4.58 25.64,5.5 35.76,2.79 10.18,-2.7 17.01,-9.34 20.55,-19.91 1.6,-4.77 1.96,-9.27 1.06,-13.38 -0.86,-4.11 -2.82,-7.89 -5.79,-11.32 -3.32,-3.73 -7.06,-6.76 -11.24,-9.06 -4.19,-2.34 -8.91,-4.37 -14.22,-6.15 -5.53,-1.85 -11.18,-3.04 -17.01,-3.55 -5.77,-0.55 -11.38,-0.69 -16.78,-0.41 -5.11,0.32 -9.73,0.91 -13.75,1.85 -4.07,0.86 -7.38,1.59 -10.02,2.2l-1.69 -0.56 9.58 -28.64c6.87,-0.83 15.75,-0.68 26.76,0.37 10.95,1.04 21.42,3.25 31.32,6.56 10.04,3.36 18.36,7.08 25.02,11.2 6.66,4.11 12.34,9.08 17.08,14.94 5.07,6.45 8.31,13.09 9.62,19.97 1.32,6.9 0.65,14.36 -2.02,22.35 -3.52,10.52 -10.11,18.54 -19.74,24.03 -9.63,5.52 -20.49,7.59 -32.64,6.25l-0.64 1.92c4.1,2.26 8.37,5.23 12.83,8.95 4.41,3.71 8.14,8.13 11.19,13.22zm328.24 -58.55l-87.1 166.54c-3.69,7.04 -7.6,12.55 -11.83,16.66 -4.23,4.11 -8.5,7.09 -12.9,8.97 -4.39,1.98 -8.63,3.16 -12.77,3.6 -4.13,0.4 -8.23,0.46 -12.36,0.15 -3.66,-0.28 -7.97,-0.7 -12.88,-1.26 -4.91,-0.56 -8.09,-0.94 -9.45,-1.14l1.91 -25.18 1.93 0.14c1.39,0.25 3.44,0.59 6.24,1.05 2.8,0.4 6.36,0.76 10.68,1.09 2.01,0.15 4.41,0.24 7.15,0.21 2.78,-0.02 5.36,-0.49 7.75,-1.4 2.77,-1.05 5.38,-2.56 7.88,-4.54 2.51,-1.93 4.93,-5.14 7.19,-9.59l5.51 -10.38 -60.43 -157.31 30.21 2.29 46.38 124.68 59.32 -116.67 27.57 2.09zm148.18 195.09l-32.18 2.44 -58.06 -66.63 -12.75 0.97 5.35 70.63 -25.89 1.96 -11.63 -153.35 25.89 -1.96 5.06 66.69c6.64,-0.61 12.26,-2.45 16.75,-5.48 4.49,-3.07 8.08,-8.63 10.72,-16.65 0.81,-2.38 1.74,-5.09 2.67,-8.23 1,-3.09 1.78,-5.84 2.31,-8.19 3.08,-11.55 8.06,-19.95 14.88,-25.13 6.83,-5.19 16.04,-8.2 27.52,-9.07l7.03 -0.53 1.71 22.5 -5.9 0.45c-7.23,0.55 -12.51,2.41 -15.91,5.55 -3.39,3.17 -6.02,8.76 -7.87,16.82 -1.93,8.16 -4.46,14.58 -7.64,19.3 -3.13,4.72 -6.72,8.39 -10.71,11.1l68.65 76.81zm152.98 -106.89c4.4,25.2 1.84,46.36 -7.64,63.44 -9.53,17.08 -23.55,27.27 -42.08,30.5 -7.51,1.31 -14.33,1.6 -20.47,0.9 -6.09,-0.7 -12.53,-2.3 -19.22,-4.85l11.06 63.38 -25.58 4.46 -36.2 -207.37 25.58 -4.47 2.77 15.89c5.35,-6.81 11.61,-12.81 18.68,-18.01 7.11,-5.21 15.26,-8.59 24.38,-10.18 17.46,-3.05 32.24,1.44 44.42,13.49 12.17,12.06 20.26,29.65 24.3,52.82zm-25.93 7.34c-3.02,-17.28 -8.13,-30.18 -15.31,-38.77 -7.23,-8.57 -17.04,-11.78 -29.52,-9.6 -7.22,1.26 -13.98,4.11 -20.19,8.49 -6.21,4.38 -11.92,9.63 -17.1,15.78l14.98 85.8c7.29,2.12 13.42,3.34 18.4,3.67 4.97,0.32 10.55,-0.03 16.7,-1.11 13.3,-2.32 22.75,-8.93 28.42,-19.9 5.68,-10.97 6.87,-25.73 3.62,-44.36zm156.71 -4.62l-13.55 -40.26c-5.61,2.48 -12.73,5.67 -21.3,9.55 -8.62,3.89 -15.35,7.6 -20.24,11.08 -5.84,4.2 -10.21,9.04 -13.06,14.57 -2.85,5.53 -3.06,11.99 -0.58,19.35 2.79,8.29 7.26,13.78 13.37,16.44 6.11,2.66 13.64,2.51 22.65,-0.52 7.76,-2.61 14.16,-6.6 19.27,-12.05 5.13,-5.4 9.63,-11.48 13.44,-18.16zm6.85 20.36c-1.49,2.2 -3.48,5.14 -5.92,8.94 -2.45,3.76 -4.95,6.98 -7.54,9.59 -3.6,3.74 -7.21,6.89 -10.86,9.45 -3.6,2.56 -9.06,5.09 -16.37,7.55 -6.02,2.03 -12.05,2.82 -18.21,2.36 -6.15,-0.46 -11.95,-2.03 -17.43,-4.75 -5.23,-2.71 -10.01,-6.61 -14.35,-11.7 -4.34,-5.04 -7.58,-10.85 -9.79,-17.4 -3.4,-10.12 -4.14,-19.4 -2.3,-27.95 1.88,-8.53 6.72,-16.41 14.5,-23.69 6.9,-6.49 15.7,-12.33 26.32,-17.49 10.66,-5.17 22.3,-10.28 34.89,-15.32l-1.61 -4.77c-1.95,-5.79 -4.41,-10.17 -7.35,-13.15 -2.94,-2.99 -6.28,-4.94 -10.04,-5.8 -3.86,-0.99 -8.1,-1.05 -12.86,-0.19 -4.74,0.85 -9.52,2.11 -14.3,3.71 -5.65,1.91 -12.01,4.99 -19.09,9.31 -7.04,4.3 -13.85,9.42 -20.41,15.3l-1.42 0.48 -8.39 -24.92c4.11,-2.81 10.09,-6.42 18.04,-10.83 7.95,-4.41 16.01,-8.01 24.3,-10.8 10.03,-3.38 18.72,-5.42 26.16,-6.18 7.38,-0.76 14.53,-0.03 21.39,2.22 6.66,2.24 12.38,6.11 17.14,11.56 4.78,5.48 8.68,12.81 11.75,21.95l33.61 99.84 -24.6 8.28 -5.26 -15.6zm109.09 -26.33l-23.65 10.7 -63.36 -140.13 23.65 -10.7 63.36 140.13zm-51.95 -173.79l-23.65 10.7 -11.04 -24.42 23.65 -10.7 11.04 24.42zm-44.48 20.11l-23.65 10.7 -11.04 -24.42 23.65 -10.7 11.04 24.42zm257.17 68.05l-22.55 12.86 -34.1 -59.81 -60.55 34.52 34.1 59.81 -22.55 12.87 -76.19 -133.6 22.56 -12.86 30.89 54.17 60.55 -34.53 -30.89 -54.17 22.55 -12.86 76.18 133.6zm146.3 -107.95l-20.48 15.94 -70.48 -90.5 13.74 134.68 -18.75 14.6 -94.48 -121.34 20.49 -15.96 69.37 89.1 -13.26 -132.79 19.37 -15.08 94.48 121.35z"/>
   <path id="_1_1" class="fil3 str2" d="M827.49 2656.63l-21.46 -17.01 109.8 -138.52 -116.64 61.07 -12.94 -10.25 33.16 -127.24 -109.79 138.52 -19.91 -15.78 127.44 -160.77 29.08 23.05 -30.79 121.37 109.7 -58.83 29.78 23.61 -127.43 160.78zm269.53 -63.55c2.82,11.56 3.09,24.25 0.83,38.06 -2.26,13.81 -7.31,28.3 -15.14,43.47 -7.64,14.79 -16.4,27.15 -26.32,37.12 -9.9,9.97 -20.5,17.15 -31.78,21.6 -11.82,4.63 -23.73,6.37 -35.77,5.29 -12,-1.05 -23.98,-4.71 -35.89,-10.85 -12.37,-6.39 -22.4,-14.22 -30.13,-23.44 -7.75,-9.3 -13.08,-19.89 -15.94,-31.78 -2.83,-11.74 -3.09,-24.47 -0.74,-38.24 2.34,-13.76 7.36,-28.11 15.09,-43.07 7.92,-15.34 16.75,-27.82 26.53,-37.43 9.78,-9.62 20.34,-16.76 31.65,-21.45 11.21,-4.49 22.87,-6.25 34.97,-5.29 12.13,0.92 24.28,4.54 36.57,10.89 12.41,6.41 22.49,14.36 30.21,23.79 7.75,9.52 13.06,19.93 15.86,31.33zm-39.64 68.45c6.22,-12.03 10.42,-23.36 12.58,-34 2.22,-10.66 2.51,-20.24 0.94,-28.78 -1.61,-8.77 -5,-16.45 -10.19,-23.1 -5.2,-6.65 -12.03,-12.19 -20.51,-16.57 -8.82,-4.55 -17.35,-7 -25.48,-7.34 -8.14,-0.32 -16.39,1.39 -24.81,5.19 -8,3.71 -15.69,9.58 -23.11,17.61 -7.41,8.09 -14.16,17.99 -20.25,29.77 -12.32,23.87 -16.73,44.72 -13.24,62.56 3.54,17.86 13.71,31.16 30.64,39.9 16.88,8.72 33.62,9.31 50.14,1.8 16.53,-7.5 30.97,-23.17 43.29,-47.04zm160.45 60.96c3.14,5.17 5.19,11.05 6.16,17.63 0.92,6.56 -0.07,14.31 -3.04,23.18 -2.91,8.7 -7.36,16.19 -13.32,22.48 -5.97,6.28 -12.97,11.18 -20.95,14.71 -8.17,3.67 -17.39,5.45 -27.65,5.43 -10.29,-0.07 -21.06,-1.98 -32.39,-5.78 -12.13,-4.05 -22.84,-8.97 -32.15,-14.77 -9.29,-5.73 -16.57,-10.95 -21.81,-15.62l9.72 -29.04 1.83 0.61c5.41,6.97 12.49,13.95 21.26,20.8 8.75,6.89 18.15,12.02 28.14,15.36 6.38,2.14 12.95,3.4 19.85,3.82 6.85,0.41 13.08,-0.58 18.6,-3 5.57,-2.4 10.1,-5.55 13.61,-9.38 3.5,-3.79 6.38,-9.13 8.65,-15.91 2.22,-6.64 2.88,-12.62 2.03,-17.96 -0.9,-5.31 -3.06,-10.11 -6.45,-14.36 -3.34,-4.24 -7.77,-7.91 -13.36,-11.06 -5.57,-3.2 -11.71,-5.91 -18.54,-8.2l-20.33 -6.8 7.25 -21.67 17.66 5.91c13.69,4.58 25.64,5.5 35.76,2.79 10.18,-2.7 17.01,-9.34 20.55,-19.91 1.6,-4.77 1.96,-9.27 1.06,-13.38 -0.86,-4.11 -2.82,-7.89 -5.79,-11.32 -3.32,-3.73 -7.06,-6.76 -11.24,-9.06 -4.19,-2.34 -8.91,-4.37 -14.22,-6.15 -5.53,-1.85 -11.18,-3.04 -17.01,-3.55 -5.77,-0.55 -11.38,-0.69 -16.78,-0.41 -5.11,0.32 -9.73,0.91 -13.75,1.85 -4.07,0.86 -7.38,1.59 -10.02,2.2l-1.69 -0.56 9.58 -28.64c6.87,-0.83 15.75,-0.68 26.76,0.37 10.95,1.04 21.42,3.25 31.32,6.56 10.04,3.36 18.36,7.08 25.02,11.2 6.66,4.11 12.34,9.08 17.08,14.94 5.07,6.45 8.31,13.09 9.62,19.97 1.32,6.9 0.65,14.36 -2.02,22.35 -3.52,10.52 -10.11,18.54 -19.74,24.03 -9.63,5.52 -20.49,7.59 -32.64,6.25l-0.64 1.92c4.1,2.26 8.37,5.23 12.83,8.95 4.41,3.71 8.14,8.13 11.19,13.22zm328.24 -58.55l-87.1 166.54c-3.69,7.04 -7.6,12.55 -11.83,16.66 -4.23,4.11 -8.5,7.09 -12.9,8.97 -4.39,1.98 -8.63,3.16 -12.77,3.6 -4.13,0.4 -8.23,0.46 -12.36,0.15 -3.66,-0.28 -7.97,-0.7 -12.88,-1.26 -4.91,-0.56 -8.09,-0.94 -9.45,-1.14l1.91 -25.18 1.93 0.14c1.39,0.25 3.44,0.59 6.24,1.05 2.8,0.4 6.36,0.76 10.68,1.09 2.01,0.15 4.41,0.24 7.15,0.21 2.78,-0.02 5.36,-0.49 7.75,-1.4 2.77,-1.05 5.38,-2.56 7.88,-4.54 2.51,-1.93 4.93,-5.14 7.19,-9.59l5.51 -10.38 -60.43 -157.31 30.21 2.29 46.38 124.68 59.32 -116.67 27.57 2.09zm148.18 195.09l-32.18 2.44 -58.06 -66.63 -12.75 0.97 5.35 70.63 -25.89 1.96 -11.63 -153.35 25.89 -1.96 5.06 66.69c6.64,-0.61 12.26,-2.45 16.75,-5.48 4.49,-3.07 8.08,-8.63 10.72,-16.65 0.81,-2.38 1.74,-5.09 2.67,-8.23 1,-3.09 1.78,-5.84 2.31,-8.19 3.08,-11.55 8.06,-19.95 14.88,-25.13 6.83,-5.19 16.04,-8.2 27.52,-9.07l7.03 -0.53 1.71 22.5 -5.9 0.45c-7.23,0.55 -12.51,2.41 -15.91,5.55 -3.39,3.17 -6.02,8.76 -7.87,16.82 -1.93,8.16 -4.46,14.58 -7.64,19.3 -3.13,4.72 -6.72,8.39 -10.71,11.1l68.65 76.81zm152.98 -106.89c4.4,25.2 1.84,46.36 -7.64,63.44 -9.53,17.08 -23.55,27.27 -42.08,30.5 -7.51,1.31 -14.33,1.6 -20.47,0.9 -6.09,-0.7 -12.53,-2.3 -19.22,-4.85l11.06 63.38 -25.58 4.46 -36.2 -207.37 25.58 -4.47 2.77 15.89c5.35,-6.81 11.61,-12.81 18.68,-18.01 7.11,-5.21 15.26,-8.59 24.38,-10.18 17.46,-3.05 32.24,1.44 44.42,13.49 12.17,12.06 20.26,29.65 24.3,52.82zm-25.93 7.34c-3.02,-17.28 -8.13,-30.18 -15.31,-38.77 -7.23,-8.57 -17.04,-11.78 -29.52,-9.6 -7.22,1.26 -13.98,4.11 -20.19,8.49 -6.21,4.38 -11.92,9.63 -17.1,15.78l14.98 85.8c7.29,2.12 13.42,3.34 18.4,3.67 4.97,0.32 10.55,-0.03 16.7,-1.11 13.3,-2.32 22.75,-8.93 28.42,-19.9 5.68,-10.97 6.87,-25.73 3.62,-44.36zm156.71 -4.62l-13.55 -40.26c-5.61,2.48 -12.73,5.67 -21.3,9.55 -8.62,3.89 -15.35,7.6 -20.24,11.08 -5.84,4.2 -10.21,9.04 -13.06,14.57 -2.85,5.53 -3.06,11.99 -0.58,19.35 2.79,8.29 7.26,13.78 13.37,16.44 6.11,2.66 13.64,2.51 22.65,-0.52 7.76,-2.61 14.16,-6.6 19.27,-12.05 5.13,-5.4 9.63,-11.48 13.44,-18.16zm6.85 20.36c-1.49,2.2 -3.48,5.14 -5.92,8.94 -2.45,3.76 -4.95,6.98 -7.54,9.59 -3.6,3.74 -7.21,6.89 -10.86,9.45 -3.6,2.56 -9.06,5.09 -16.37,7.55 -6.02,2.03 -12.05,2.82 -18.21,2.36 -6.15,-0.46 -11.95,-2.03 -17.43,-4.75 -5.23,-2.71 -10.01,-6.61 -14.35,-11.7 -4.34,-5.04 -7.58,-10.85 -9.79,-17.4 -3.4,-10.12 -4.14,-19.4 -2.3,-27.95 1.88,-8.53 6.72,-16.41 14.5,-23.69 6.9,-6.49 15.7,-12.33 26.32,-17.49 10.66,-5.17 22.3,-10.28 34.89,-15.32l-1.61 -4.77c-1.95,-5.79 -4.41,-10.17 -7.35,-13.15 -2.94,-2.99 -6.28,-4.94 -10.04,-5.8 -3.86,-0.99 -8.1,-1.05 -12.86,-0.19 -4.74,0.85 -9.52,2.11 -14.3,3.71 -5.65,1.91 -12.01,4.99 -19.09,9.31 -7.04,4.3 -13.85,9.42 -20.41,15.3l-1.42 0.48 -8.39 -24.92c4.11,-2.81 10.09,-6.42 18.04,-10.83 7.95,-4.41 16.01,-8.01 24.3,-10.8 10.03,-3.38 18.72,-5.42 26.16,-6.18 7.38,-0.76 14.53,-0.03 21.39,2.22 6.66,2.24 12.38,6.11 17.14,11.56 4.78,5.48 8.68,12.81 11.75,21.95l33.61 99.84 -24.6 8.28 -5.26 -15.6zm109.09 -26.33l-23.65 10.7 -63.36 -140.13 23.65 -10.7 63.36 140.13zm-51.95 -173.79l-23.65 10.7 -11.04 -24.42 23.65 -10.7 11.04 24.42zm-44.48 20.11l-23.65 10.7 -11.04 -24.42 23.65 -10.7 11.04 24.42zm257.17 68.05l-22.55 12.86 -34.1 -59.81 -60.55 34.52 34.1 59.81 -22.55 12.87 -76.19 -133.6 22.56 -12.86 30.89 54.17 60.55 -34.53 -30.89 -54.17 22.55 -12.86 76.18 133.6zm146.3 -107.95l-20.48 15.94 -70.48 -90.5 13.74 134.68 -18.75 14.6 -94.48 -121.34 20.49 -15.96 69.37 89.1 -13.26 -132.79 19.37 -15.08 94.48 121.35z"/>
  </g>
 </g>
 <g id="Слой_x0020_1_2">
  <metadata id="CorelCorpID_1Corel-Layer"/>
 </g>
</svg>
