<?xml version="1.0" encoding="UTF-8"?>
<!DOCTYPE svg PUBLIC "-//W3C//DTD SVG 1.1//EN" "http://www.w3.org/Graphics/SVG/1.1/DTD/svg11.dtd">
<!-- Creator: CorelDRAW 2019 (64-Bit) -->
<svg xmlns="http://www.w3.org/2000/svg" xml:space="preserve" width="31mm" height="31mm" version="1.1" style="shape-rendering:geometricPrecision; text-rendering:geometricPrecision; image-rendering:optimizeQuality; fill-rule:evenodd; clip-rule:evenodd"
viewBox="0 0 3100 3100"
 xmlns:xlink="http://www.w3.org/1999/xlink"
 xmlns:xodm="http://www.corel.com/coreldraw/odm/2003">
 <defs>
  <style type="text/css">
   <![CDATA[
    .str0 {stroke:#393185;stroke-width:30;stroke-miterlimit:22.9256}
    .str1 {stroke:#393185;stroke-width:25;stroke-miterlimit:22.9256}
    .str5 {stroke:#393185;stroke-width:20;stroke-miterlimit:22.9256}
    .str3 {stroke:#393185;stroke-width:15;stroke-miterlimit:22.9256}
    .str4 {stroke:#393185;stroke-width:25;stroke-linejoin:round;stroke-miterlimit:22.9256}
    .str2 {stroke:#393185;stroke-width:25;stroke-linecap:round;stroke-linejoin:round;stroke-miterlimit:22.9256}
    .fil0 {fill:none}
    .fil2 {fill:none;fill-rule:nonzero}
    .fil3 {fill:#393185}
    .fil1 {fill:#393185;fill-rule:nonzero}
   ]]>
  </style>
 </defs>
 <g id="Слой_x0020_1">
  <metadata id="CorelCorpID_0Corel-Layer"/>
  <path class="fil0 str0" d="M1630.95 163.58c-16.79,-21.84 -52.28,-59.92 -75,-81.58 -22.8,-21.56 -32.78,-26.61 -42.23,-29.31 -9.63,-2.62 -18.57,-2.87 -26.95,-2.62 -8.26,0.41 -15.94,1.2 -21.68,2.01 -5.8,0.86 -9.66,1.48 -15.05,2.73 -5.56,1.37 -12.41,3.3 -16.4,5.44 -3.92,2.2 -4.64,4.76 -3.12,9.41 1.6,4.89 5.52,11.91 23.42,30.09 17.81,18.28 49.61,47.69 67.76,63.91 18.16,16.28 22.77,19.43 28.46,22.79 5.67,3.43 12.43,7.08 22.2,9.98 9.67,2.92 22.38,5.09 31.81,6.5 9.46,1.5 15.71,2.21 21.79,1.02 6.1,-1.14 12.04,-4.21 16.11,-8.58 3.87,-4.37 5.71,-9.86 -11.12,-31.79zm-149.57 -75.72l69.06 -8.68m-33.44 37.35l57.92 -11.59m-20.22 39.76l48.77 -12.84m-17.2 38.87l42.29 -10.61m122.92 15.79c-14.83,-23.21 -46.87,-64.25 -67.61,-87.81 -20.84,-23.46 -30.34,-29.36 -39.51,-32.88 -9.36,-3.44 -18.25,-4.46 -26.63,-4.95 -8.25,-0.31 -15.97,-0.2 -21.76,0.1 -5.85,0.37 -9.75,0.65 -15.23,1.42 -5.66,0.87 -12.65,2.2 -16.81,4 -4.1,1.84 -5.04,4.32 -3.94,9.09 1.17,5.01 4.46,12.34 20.71,32.02 16.15,19.75 45.27,51.83 61.94,69.56 16.66,17.81 20.98,21.34 26.36,25.19 5.35,3.91 11.77,8.14 21.25,11.89 9.37,3.74 21.85,7.01 31.12,9.24 9.29,2.32 15.46,3.57 21.62,2.91 6.17,-0.6 12.36,-3.15 16.79,-7.14 4.24,-4.01 6.55,-9.32 -8.3,-32.64zm-142.41 -88.47l69.56 -2.63m-36.57 34.3l58.71 -6.49m-23.61 37.84l49.71 -8.54m-20.52 37.22l43.05 -6.89m121.07 26.45c-12.75,-24.42 -41.08,-68.09 -59.7,-93.37 -18.71,-25.19 -27.66,-31.89 -36.5,-36.2 -9.02,-4.25 -17.78,-6.04 -26.08,-7.24 -8.21,-1.03 -15.9,-1.6 -21.69,-1.81 -5.86,-0.15 -9.77,-0.21 -15.3,0.08 -5.71,0.38 -12.8,1.1 -17.1,2.53 -4.24,1.47 -5.4,3.87 -4.72,8.72 0.74,5.09 3.37,12.67 17.85,33.69 14.37,21.09 40.58,55.58 55.64,74.7 15.05,19.19 19.05,23.09 24.07,27.39 4.98,4.36 11.01,9.13 20.12,13.69 9.02,4.55 21.17,8.9 30.2,11.93 9.06,3.11 15.09,4.9 21.29,4.77 6.2,-0.06 12.59,-2.05 17.35,-5.65 4.57,-3.62 7.33,-8.71 -5.43,-33.23zm-134.15 -100.55l69.52 3.45m-39.42 30.98l59.05 -1.36m-26.81 35.65l50.26 -4.17m-23.69 35.28l43.5 -3.1m118.3 36.89c-10.57,-25.44 -35,-71.41 -51.34,-98.21 -16.45,-26.72 -24.78,-34.19 -33.21,-39.25 -8.6,-5.02 -17.19,-7.56 -25.35,-9.49 -8.08,-1.74 -15.7,-2.97 -21.45,-3.69 -5.83,-0.66 -9.71,-1.06 -15.25,-1.25 -5.72,-0.12 -12.85,-0.03 -17.24,1.02 -4.36,1.11 -5.72,3.39 -5.46,8.28 0.28,5.13 2.24,12.92 14.83,35.12 12.48,22.26 35.58,58.91 48.92,79.27 13.32,20.43 16.96,24.66 21.58,29.38 4.6,4.78 10.18,10.05 18.87,15.39 8.59,5.32 20.3,10.71 29.04,14.52 8.75,3.89 14.61,6.19 20.79,6.6 6.18,0.49 12.72,-0.94 17.77,-4.11 4.87,-3.2 8.07,-8.04 -2.5,-33.58zm-124.89 -111.86l68.97 9.5m-41.97 27.42l58.94 3.8m-29.82 33.18l50.43 0.22m-26.67 33.09l43.6 0.69m114.64 47.07c-8.32,-26.27 -28.65,-74.19 -42.59,-102.32 -14.05,-28.05 -21.71,-36.22 -29.66,-41.99 -8.14,-5.75 -16.46,-9.04 -24.42,-11.66 -7.9,-2.45 -15.39,-4.33 -21.05,-5.54 -5.75,-1.17 -9.58,-1.91 -15.09,-2.58 -5.68,-0.62 -12.79,-1.15 -17.26,-0.49 -4.44,0.72 -6,2.88 -6.17,7.78 -0.17,5.13 1.12,13.05 11.73,36.27 10.49,23.26 30.31,61.78 41.82,83.23 11.48,21.51 14.75,26.05 18.94,31.15 4.16,5.17 9.26,10.9 17.45,16.99 8.1,6.04 19.29,12.43 27.66,16.99 8.39,4.63 14.01,7.43 20.14,8.39 6.12,1.02 12.76,0.17 18.07,-2.56 5.13,-2.75 8.73,-7.3 0.43,-33.66zm-114.66 -122.32l67.87 15.48m-44.2 23.65l58.39 8.92m-32.6 30.45l50.22 4.62m-29.46 30.64l43.38 4.49m110.1 56.88c-6,-26.89 -22.07,-76.4 -33.51,-105.64 -11.55,-29.18 -18.47,-37.97 -25.89,-44.42 -7.61,-6.44 -15.61,-10.44 -23.31,-13.74 -7.66,-3.13 -14.96,-5.65 -20.49,-7.36 -5.62,-1.67 -9.38,-2.73 -14.81,-3.87 -5.6,-1.12 -12.63,-2.27 -17.15,-2 -4.48,0.33 -6.22,2.35 -6.81,7.21 -0.63,5.1 -0.03,13.1 8.51,37.15 8.43,24.1 24.81,64.19 34.41,86.57 9.57,22.42 12.42,27.23 16.15,32.67 3.7,5.52 8.29,11.68 15.9,18.45 7.55,6.72 18.14,14.07 26.08,19.34 7.96,5.34 13.31,8.62 19.34,10.11 5.99,1.55 12.69,1.28 18.22,-0.98 5.35,-2.29 9.33,-6.51 3.36,-33.49zm-103.57 -131.85l66.27 21.33m-46.09 19.72l57.38 13.97m-35.12 27.49l49.62 8.98m-32.01 27.95l42.81 8.26m104.74 66.26c-3.64,-27.31 -15.33,-78.03 -24.19,-108.15 -8.96,-30.08 -15.08,-39.44 -21.91,-46.51 -7.02,-7.08 -14.65,-11.76 -22.03,-15.72 -7.36,-3.79 -14.4,-6.94 -19.76,-9.12 -5.45,-2.16 -9.11,-3.54 -14.42,-5.15 -5.48,-1.59 -12.39,-3.36 -16.92,-3.48 -4.48,-0.06 -6.4,1.8 -7.41,6.58 -1.06,5.02 -1.17,13.05 5.25,37.76 6.29,24.74 19.12,66.11 26.72,89.23 7.59,23.18 10.01,28.22 13.25,33.96 3.21,5.82 7.23,12.35 14.24,19.76 6.92,7.35 16.83,15.6 24.28,21.54 7.47,6.01 12.51,9.75 18.39,11.75 5.83,2.08 12.53,2.39 18.24,0.63 5.53,-1.82 9.86,-5.68 6.27,-33.08zm-91.69 -140.37l64.15 27.03m-47.63 15.62l55.95 18.92m-37.38 24.32l48.64 13.27m-34.32 25.06l41.93 11.96m98.56 75.13c-1.24,-27.52 -8.47,-79.06 -14.67,-109.85 -6.3,-30.74 -11.58,-40.6 -17.77,-48.24 -6.37,-7.66 -13.57,-12.99 -20.57,-17.57 -7.01,-4.42 -13.75,-8.17 -18.9,-10.82 -5.24,-2.62 -8.77,-4.31 -13.92,-6.38 -5.32,-2.06 -12.04,-4.43 -16.54,-4.94 -4.47,-0.45 -6.53,1.22 -7.97,5.91 -1.49,4.91 -2.3,12.9 1.95,38.07 4.11,25.19 13.28,67.52 18.85,91.23 5.53,23.74 7.5,28.97 10.23,34.98 2.68,6.08 6.13,12.93 12.46,20.92 6.25,7.93 15.41,17.01 22.31,23.57 6.92,6.65 11.62,10.81 17.3,13.32 5.63,2.57 12.27,3.47 18.11,2.2 5.66,-1.32 10.31,-4.79 9.13,-32.4zm-79.1 -147.83l61.55 32.52m-48.81 11.42l54.09 23.71m-39.37 20.98l47.31 17.46m-36.38 21.97l40.73 15.57m91.64 83.44c1.16,-27.54 -1.54,-79.51 -5.04,-110.71 -3.61,-31.17 -8,-41.45 -13.5,-49.61 -5.69,-8.18 -12.39,-14.13 -18.96,-19.31 -6.6,-5.01 -12.99,-9.33 -17.89,-12.41 -4.99,-3.08 -8.35,-5.07 -13.3,-7.58 -5.12,-2.51 -11.62,-5.46 -16.05,-6.36 -4.41,-0.83 -6.62,0.65 -8.45,5.2 -1.92,4.76 -3.43,12.65 -1.38,38.09 1.89,25.45 7.34,68.42 10.82,92.53 3.43,24.14 4.95,29.52 7.14,35.73 2.15,6.29 4.98,13.42 10.59,21.93 5.54,8.45 13.87,18.29 20.18,25.43 6.3,7.23 10.62,11.78 16.06,14.77 5.39,3.06 11.94,4.53 17.86,3.78 5.76,-0.82 10.69,-3.87 11.92,-31.48zm-65.92 -154.17l58.48 37.77m-49.61 7.11l51.81 28.34m-41.05 17.47l45.61 21.51m-38.15 18.72l39.21 19.07m84.03 91.1c3.55,-27.33 5.39,-79.34 4.63,-110.73 -0.89,-31.36 -4.37,-41.99 -9.14,-50.59 -4.94,-8.66 -11.1,-15.16 -17.21,-20.89 -6.13,-5.57 -12.12,-10.42 -16.73,-13.93 -4.7,-3.5 -7.88,-5.78 -12.59,-8.71 -4.88,-2.94 -11.09,-6.45 -15.44,-7.73 -4.32,-1.21 -6.65,0.07 -8.87,4.45 -2.32,4.57 -4.51,12.29 -4.69,37.81 -0.33,25.52 1.35,68.81 2.72,93.13 1.31,24.34 2.35,29.83 3.99,36.22 1.6,6.45 3.8,13.8 8.64,22.76 4.79,8.9 12.22,19.43 17.9,27.09 5.64,7.75 9.54,12.67 14.7,16.12 5.1,3.51 11.5,5.56 17.46,5.32 5.81,-0.31 10.99,-2.92 14.63,-30.32zm-52.24 -159.33l54.96 42.72m-50.04 2.76l49.15 32.75m-42.42 13.82l43.56 25.41m-39.63 15.32l37.4 22.42m75.77 98.07c5.92,-26.9 12.28,-78.56 14.26,-109.9 1.85,-31.32 -0.7,-42.22 -4.7,-51.2 -4.16,-9.04 -9.73,-16.07 -15.31,-22.3 -5.63,-6.09 -11.18,-11.44 -15.46,-15.34 -4.38,-3.89 -7.36,-6.44 -11.79,-9.77 -4.61,-3.35 -10.49,-7.39 -14.71,-9.05 -4.19,-1.58 -6.62,-0.51 -9.21,3.66 -2.71,4.35 -5.58,11.85 -7.98,37.26 -2.55,25.39 -4.65,68.66 -5.41,93.01 -0.81,24.36 -0.25,29.93 0.83,36.43 1.02,6.56 2.58,14.09 6.61,23.42 4,9.29 10.49,20.42 15.47,28.56 4.94,8.21 8.41,13.45 13.25,17.33 4.78,3.95 10.97,6.54 16.92,6.82 5.83,0.2 11.22,-1.95 17.23,-28.93zm-38.16 -163.27l51.03 47.34m-50.09 -1.6l46.1 36.9m-43.46 10.08l41.19 29.11m-40.83 11.8l35.31 25.59m66.93 104.31c8.25,-26.28 19.09,-77.19 23.79,-108.24 4.58,-31.04 2.98,-42.12 -0.22,-51.42 -3.36,-9.36 -8.3,-16.85 -13.31,-23.54 -5.08,-6.56 -10.13,-12.38 -14.07,-16.63 -4.01,-4.26 -6.76,-7.07 -10.88,-10.77 -4.3,-3.74 -9.81,-8.27 -13.87,-10.29 -4.04,-1.94 -6.55,-1.09 -9.49,2.84 -3.08,4.1 -6.59,11.32 -11.21,36.43 -4.75,25.07 -10.61,67.99 -13.49,92.17 -2.93,24.21 -2.86,29.8 -2.35,36.37 0.45,6.63 1.35,14.26 4.55,23.91 3.18,9.61 8.67,21.26 12.93,29.8 4.2,8.61 7.2,14.13 11.68,18.43 4.42,4.34 10.36,7.46 16.26,8.25 5.78,0.71 11.34,-0.96 19.68,-27.31zm-23.78 -165.98l46.72 51.61m-49.76 -5.96l42.7 40.78m-44.17 6.25l38.49 32.59m-41.7 8.2l32.94 28.57m57.59 109.75c10.51,-25.47 25.75,-75.24 33.13,-105.76 7.27,-30.52 6.64,-41.69 4.26,-51.24 -2.52,-9.62 -6.79,-17.51 -11.2,-24.62 -4.49,-6.97 -9.01,-13.21 -12.57,-17.8 -3.62,-4.58 -6.12,-7.62 -9.9,-11.66 -3.95,-4.11 -9.05,-9.1 -12.91,-11.46 -3.87,-2.29 -6.43,-1.65 -9.71,1.99 -3.43,3.82 -7.55,10.71 -14.34,35.32 -6.91,24.56 -16.49,66.8 -21.48,90.65 -5.02,23.86 -5.44,29.44 -5.5,36.03 -0.13,6.63 0.09,14.32 2.44,24.21 2.33,9.85 6.79,21.93 10.28,30.81 3.44,8.94 5.95,14.7 10.03,19.38 4.03,4.72 9.67,8.33 15.48,9.64 5.7,1.21 11.39,0.03 21.99,-25.49zm-9.22 -167.42l42.03 55.49m-49.05 -10.28l38.99 44.34m-44.55 2.38l35.51 35.82m-42.26 4.54l30.33 31.33m47.8 114.34c12.69,-24.45 32.21,-72.71 42.23,-102.47 9.9,-29.77 10.25,-40.95 8.7,-50.67 -1.67,-9.81 -5.24,-18.03 -9.01,-25.5 -3.86,-7.34 -7.82,-13.95 -10.97,-18.82 -3.21,-4.89 -5.43,-8.13 -8.84,-12.49 -3.59,-4.43 -8.23,-9.85 -11.87,-12.54 -3.65,-2.61 -6.26,-2.21 -9.85,1.14 -3.74,3.51 -8.44,10.02 -17.36,33.94 -9.03,23.86 -22.24,65.1 -29.3,88.43 -7.08,23.32 -7.98,28.85 -8.61,35.41 -0.71,6.6 -1.17,14.28 0.32,24.33 1.46,10.02 4.85,22.44 7.55,31.59 2.65,9.21 4.64,15.16 8.31,20.18 3.6,5.05 8.91,9.15 14.58,10.95 5.58,1.7 11.34,1.02 24.12,-23.48zm5.4 -167.59l37.05 58.95m-47.97 -14.52l34.97 47.57m-44.59 -1.51l32.26 38.78m-42.5 0.84l27.49 33.86m37.65 118.07c14.77,-23.26 38.42,-69.63 50.99,-98.41 12.47,-28.78 13.79,-39.89 13.1,-49.71 -0.81,-9.91 -3.65,-18.42 -6.77,-26.18 -3.2,-7.66 -6.57,-14.58 -9.27,-19.72 -2.78,-5.15 -4.7,-8.57 -7.73,-13.21 -3.18,-4.72 -7.33,-10.53 -10.72,-13.53 -3.42,-2.91 -6.05,-2.74 -9.92,0.28 -4.04,3.17 -9.28,9.24 -20.25,32.3 -11.07,22.98 -27.83,62.92 -36.89,85.54 -9.09,22.62 -10.47,28.04 -11.67,34.52 -1.29,6.52 -2.41,14.12 -1.81,24.26 0.59,10.11 2.88,22.79 4.78,32.14 1.83,9.4 3.3,15.51 6.51,20.83 3.15,5.34 8.08,9.89 13.57,12.17 5.41,2.18 11.21,2.01 26.08,-21.28zm19.99 -166.48l31.76 61.95m-46.51 -18.64l30.68 50.44m-44.27 -5.4l28.74 41.45m-42.4 -2.87l24.43 36.12m27.22 120.91c16.73,-21.88 44.34,-66.02 59.37,-93.6 14.93,-27.58 17.21,-38.53 17.38,-48.38 0.05,-9.94 -2.03,-18.66 -4.46,-26.67 -2.52,-7.91 -5.28,-15.09 -7.52,-20.45 -2.32,-5.37 -3.94,-8.94 -6.55,-13.83 -2.76,-4.98 -6.39,-11.13 -9.49,-14.41 -3.16,-3.2 -5.8,-3.26 -9.91,-0.58 -4.3,2.8 -10.05,8.39 -22.99,30.4 -13.03,21.93 -33.21,60.26 -44.21,82 -11.03,21.74 -12.87,27.02 -14.63,33.38 -1.85,6.37 -3.63,13.85 -3.92,24 -0.29,10.12 0.88,22.96 1.96,32.44 1,9.53 1.94,15.73 4.67,21.31 2.68,5.6 7.19,10.56 12.46,13.32 5.2,2.64 11,2.97 27.84,-18.93zm34.42 -164.1l26.24 64.47m-44.71 -22.62l26.17 52.92m-43.64 -9.23l25.03 43.79m-42 -6.55l21.19 38.11m16.58 122.82c18.57,-20.34 49.93,-61.9 67.3,-88.06 17.27,-26.18 20.51,-36.89 21.53,-46.69 0.92,-9.89 -0.4,-18.76 -2.11,-26.95 -1.83,-8.1 -3.95,-15.5 -5.71,-21.04 -1.85,-5.55 -3.15,-9.24 -5.32,-14.34 -2.32,-5.2 -5.39,-11.65 -8.21,-15.18 -2.86,-3.47 -5.48,-3.76 -9.82,-1.45 -4.52,2.42 -10.74,7.49 -25.55,28.29 -14.89,20.71 -38.33,57.13 -51.18,77.83 -12.88,20.7 -15.18,25.8 -17.49,31.98 -2.39,6.19 -4.82,13.48 -6,23.57 -1.17,10.05 -1.12,22.95 -0.87,32.49 0.17,9.57 0.56,15.83 2.8,21.63 2.17,5.81 6.23,11.15 11.24,14.35 4.95,3.09 10.7,3.92 29.39,-16.43zm48.59 -160.47l20.52 66.51m-42.56 -26.43l21.45 55m-42.67 -13l21.12 45.8m-41.26 -10.18l17.77 39.81m5.83 123.8c20.28,-18.65 55.12,-57.31 74.71,-81.86 19.49,-24.58 23.65,-34.97 25.52,-44.64 1.79,-9.77 1.23,-18.71 0.24,-27.03 -1.11,-8.23 -2.57,-15.79 -3.85,-21.45 -1.36,-5.69 -2.33,-9.49 -4.05,-14.76 -1.86,-5.38 -4.35,-12.07 -6.86,-15.83 -2.54,-3.71 -5.13,-4.23 -9.65,-2.3 -4.71,2.02 -11.35,6.53 -27.92,25.95 -16.63,19.33 -43.16,53.58 -57.76,73.08 -14.64,19.5 -17.38,24.38 -20.22,30.33 -2.92,5.96 -5.97,13.01 -8.03,22.96 -2.04,9.91 -3.11,22.76 -3.7,32.29 -0.66,9.55 -0.82,15.82 0.91,21.79 1.66,5.98 5.24,11.65 9.95,15.27 4.65,3.52 10.32,4.85 30.71,-13.8zm62.39 -155.62l14.65 68.04m-40.1 -30.04l16.57 56.65m-41.37 -16.66l17.04 47.47m-40.22 -13.75l14.24 41.22m-4.99 123.84c21.83,-16.81 59.92,-52.29 81.57,-75.04 21.55,-22.79 26.6,-32.77 29.31,-42.24 2.63,-9.58 2.87,-18.55 2.6,-26.91 -0.39,-8.3 -1.19,-15.96 -1.97,-21.71 -0.85,-5.79 -1.49,-9.66 -2.75,-15.06 -1.38,-5.52 -3.28,-12.39 -5.45,-16.37 -2.21,-3.91 -4.73,-4.66 -9.41,-3.12 -4.87,1.59 -11.88,5.51 -30.08,23.41 -18.25,17.81 -47.67,49.62 -63.91,67.76 -16.28,18.16 -19.44,22.78 -22.79,28.46 -3.42,5.68 -7.08,12.44 -9.99,22.17 -2.91,9.7 -5.09,22.41 -6.51,31.85 -1.49,9.45 -2.19,15.69 -1,21.78 1.15,6.11 4.21,12.07 8.59,16.08 4.34,3.91 9.86,5.73 31.79,-11.06zm75.72 -149.6l8.67 69.06m-37.34 -33.41l11.58 57.87m-39.76 -20.2l12.83 48.78m-38.86 -17.21l10.59 42.29m-15.76 122.95c23.21,-14.85 64.24,-46.88 87.8,-67.65 23.46,-20.83 29.36,-30.33 32.87,-39.52 3.46,-9.31 4.47,-18.23 4.94,-26.59 0.35,-8.29 0.2,-15.99 -0.07,-21.79 -0.35,-5.84 -0.65,-9.75 -1.43,-15.24 -0.89,-5.62 -2.18,-12.63 -4,-16.78 -1.86,-4.09 -4.3,-5.06 -9.1,-3.94 -4.99,1.16 -12.31,4.46 -32.01,20.7 -19.73,16.15 -51.81,45.28 -69.56,61.94 -17.81,16.66 -21.36,20.99 -25.19,26.36 -3.9,5.36 -8.14,11.78 -11.89,21.22 -3.74,9.4 -7.02,21.88 -9.25,31.16 -2.32,9.28 -3.56,15.44 -2.9,21.61 0.6,6.18 3.14,12.39 7.15,16.76 3.98,4.28 9.32,6.57 32.64,-8.24zm88.47 -142.43l2.62 69.55m-34.29 -36.54l6.49 58.66m-37.85 -23.59l8.53 49.71m-37.21 -20.52l6.86 43.05m-26.42 121.1c24.43,-12.77 68.1,-41.09 93.37,-59.74 25.19,-18.7 31.89,-27.65 36.2,-36.51 4.25,-8.97 6.04,-17.76 7.23,-26.05 1.06,-8.23 1.59,-15.91 1.84,-21.71 0.16,-5.85 0.2,-9.77 -0.1,-15.31 -0.41,-5.67 -1.08,-12.78 -2.53,-17.07 -1.49,-4.24 -3.85,-5.41 -8.73,-4.72 -5.07,0.74 -12.64,3.38 -33.68,17.84 -21.06,14.37 -55.56,40.59 -74.7,55.64 -19.19,15.05 -23.11,19.06 -27.39,24.07 -4.35,5 -9.13,11.02 -13.69,20.09 -4.55,9.05 -8.91,21.19 -11.94,30.24 -3.11,9.05 -4.89,15.07 -4.76,21.28 0.06,6.21 2.04,12.62 5.66,17.32 3.58,4.61 8.7,7.36 33.22,-5.37zm100.56 -134.17l-3.46 69.51m-30.98 -39.38l1.37 58.99m-35.66 -26.79l4.17 50.26m-35.29 -23.69l3.09 43.49m-36.87 118.34c25.45,-10.59 71.42,-35.01 98.21,-51.38 26.72,-16.43 34.19,-24.77 39.25,-33.22 5.01,-8.56 7.56,-17.17 9.48,-25.32 1.77,-8.1 2.97,-15.71 3.71,-21.47 0.68,-5.81 1.06,-9.71 1.24,-15.26 0.1,-5.68 0.05,-12.81 -1.03,-17.21 -1.12,-4.36 -3.36,-5.73 -8.28,-5.47 -5.11,0.29 -12.9,2.26 -35.11,14.84 -22.23,12.47 -58.89,35.58 -79.27,48.91 -20.43,13.32 -24.67,16.97 -29.38,21.58 -4.77,4.61 -10.05,10.19 -15.39,18.84 -5.32,8.62 -10.72,20.32 -14.53,29.08 -3.89,8.74 -6.19,14.59 -6.6,20.78 -0.48,6.19 0.94,12.75 4.13,17.75 3.17,4.9 8.04,8.09 33.57,-2.45zm111.87 -124.91l-9.51 68.96m-27.42 -41.94l-3.79 58.89m-33.19 -29.8l-0.22 50.43m-33.09 -26.67l-0.71 43.59m-47.05 114.68c26.28,-8.34 74.2,-28.66 102.31,-42.63 28.06,-14.04 36.23,-21.7 42,-29.67 5.74,-8.1 9.03,-16.44 11.65,-24.4 2.47,-7.91 4.33,-15.39 5.57,-21.06 1.18,-5.73 1.89,-9.58 2.57,-15.1 0.59,-5.65 1.16,-12.76 0.48,-17.23 -0.74,-4.44 -2.86,-6.01 -7.79,-6.18 -5.11,-0.15 -13.03,1.14 -36.26,11.73 -23.24,10.49 -61.77,30.32 -83.23,41.82 -21.52,11.48 -26.06,14.76 -31.15,18.94 -5.16,4.17 -10.91,9.27 -16.98,17.42 -6.05,8.13 -12.44,19.31 -17.01,27.7 -4.63,8.38 -7.43,13.99 -8.38,20.13 -1.02,6.13 -0.18,12.79 2.57,18.05 2.72,5.15 7.3,8.76 33.65,0.48zm122.33 -114.68l-15.49 67.86m-23.65 -44.17l-8.91 58.34m-30.46 -32.58l-4.62 50.22m-30.64 -29.46l-4.51 43.36m-56.86 110.16c26.9,-6.03 76.41,-22.09 105.64,-33.56 29.17,-11.54 37.97,-18.46 44.41,-25.9 6.43,-7.57 10.44,-15.59 13.74,-23.29 3.16,-7.67 5.65,-14.96 7.39,-20.5 1.67,-5.6 2.72,-9.37 3.86,-14.82 1.09,-5.57 2.28,-12.6 1.99,-17.12 -0.35,-4.49 -2.33,-6.22 -7.22,-6.82 -5.08,-0.61 -13.08,-0.01 -37.14,8.51 -24.07,8.43 -64.19,24.82 -86.57,34.41 -22.42,9.57 -27.24,12.43 -32.67,16.15 -5.51,3.71 -11.68,8.3 -18.44,15.88 -6.73,7.57 -14.08,18.15 -19.36,26.11 -5.34,7.95 -8.61,13.29 -10.1,19.33 -1.55,6 -1.29,12.72 0.98,18.2 2.27,5.37 6.52,9.36 33.49,3.42zm131.86 -103.6l-21.34 66.26m-19.72 -46.06l-13.96 57.33m-27.5 -35.1l-8.98 49.62m-27.96 -32.01l-8.27 42.79m-66.24 104.79c27.32,-3.66 78.04,-15.34 108.15,-24.23 30.08,-8.95 39.44,-15.07 46.51,-21.92 7.06,-6.98 11.75,-14.63 15.71,-22 3.82,-7.38 6.94,-14.41 9.15,-19.78 2.15,-5.43 3.53,-9.1 5.14,-14.43 1.56,-5.45 3.37,-12.36 3.47,-16.88 0.04,-4.5 -1.78,-6.41 -6.6,-7.43 -5,-1.04 -13.03,-1.15 -37.74,5.25 -24.71,6.29 -66.1,19.13 -89.23,26.72 -23.18,7.59 -28.23,10.02 -33.96,13.25 -5.81,3.22 -12.36,7.24 -19.75,14.22 -7.36,6.94 -15.61,16.84 -21.56,24.32 -6.01,7.45 -9.74,12.48 -11.75,18.37 -2.07,5.84 -2.39,12.56 -0.61,18.22 1.79,5.54 5.67,9.89 33.07,6.32zm140.38 -91.71l-27.04 64.15m-15.62 -47.61l-18.91 55.9m-24.34 -37.36l-13.26 48.64m-25.06 -34.32l-11.97 41.91m-75.13 98.61c27.54,-1.26 79.08,-8.47 109.85,-14.71 30.74,-6.29 40.6,-11.57 48.25,-17.78 7.63,-6.34 12.98,-13.55 17.56,-20.55 4.45,-7.02 8.17,-13.75 10.84,-18.91 2.62,-5.22 4.31,-8.76 6.39,-13.93 2.02,-5.29 4.43,-12.01 4.92,-16.51 0.43,-4.48 -1.22,-6.53 -5.92,-7.97 -4.89,-1.48 -12.89,-2.29 -38.06,1.94 -25.17,4.12 -67.51,13.3 -91.23,18.85 -23.75,5.53 -28.99,7.51 -34.98,10.23 -6.07,2.69 -12.93,6.14 -20.91,12.44 -7.94,6.27 -17.02,15.42 -23.6,22.34 -6.64,6.91 -10.79,11.6 -13.3,17.29 -2.58,5.64 -3.48,12.29 -2.19,18.09 1.29,5.68 4.78,10.34 32.38,9.18zm147.85 -79.12l-32.54 61.54m-11.41 -48.78l-23.7 54.04m-21 -39.35l-17.45 47.31m-21.97 -36.38l-15.58 40.71m-83.44 91.69c27.55,1.14 79.53,-1.55 110.72,-5.08 31.17,-3.59 41.45,-7.99 49.62,-13.51 8.15,-5.66 14.12,-12.37 19.29,-18.94 5.04,-6.6 9.32,-12.99 12.44,-17.9 3.06,-4.97 5.06,-8.34 7.57,-13.31 2.48,-5.09 5.47,-11.59 6.35,-16.02 0.81,-4.42 -0.64,-6.62 -5.21,-8.46 -4.74,-1.89 -12.64,-3.41 -38.08,-1.38 -25.44,1.9 -68.41,7.36 -92.53,10.82 -24.14,3.43 -29.53,4.96 -35.73,7.14 -6.28,2.16 -13.43,4.99 -21.92,10.57 -8.46,5.56 -18.3,13.88 -25.46,20.21 -7.22,6.29 -11.76,10.6 -14.75,16.05 -3.06,5.4 -4.54,11.95 -3.77,17.84 0.79,5.76 3.87,10.72 31.46,11.97zm154.19 -65.94l-37.78 58.47m-7.11 -49.58l-28.33 51.76m-17.48 -41.03l-21.51 45.61m-18.72 -38.15l-19.07 39.19m-91.11 84.08c27.34,3.54 79.36,5.38 110.74,4.59 31.36,-0.87 41.99,-4.36 50.61,-9.15 8.62,-4.92 15.14,-11.08 20.86,-17.18 5.6,-6.14 10.42,-12.13 13.96,-16.75 3.47,-4.68 5.77,-7.87 8.7,-12.6 2.91,-4.85 6.46,-11.06 7.72,-15.41 1.19,-4.33 -0.06,-6.65 -4.46,-8.88 -4.55,-2.29 -12.28,-4.49 -37.8,-4.69 -25.51,-0.32 -68.8,1.37 -93.13,2.72 -24.34,1.31 -29.84,2.36 -36.22,3.99 -6.44,1.61 -13.8,3.81 -22.75,8.63 -8.91,4.8 -19.44,12.23 -27.13,17.91 -7.73,5.64 -12.63,9.53 -16.09,14.71 -3.51,5.11 -5.57,11.5 -5.31,17.43 0.28,5.81 2.92,11.02 30.3,14.68zm159.35 -52.25l-42.73 54.94m-2.76 -50l-32.74 49.09m-13.84 -42.4l-25.41 43.56m-15.32 -39.63l-22.41 37.38m-98.08 75.81c26.91,5.91 78.58,12.28 109.91,14.23 31.32,1.86 42.22,-0.68 51.21,-4.7 9.02,-4.16 16.06,-9.72 22.28,-15.3 6.12,-5.62 11.44,-11.17 15.37,-15.47 3.87,-4.36 6.43,-7.34 9.77,-11.8 3.31,-4.58 7.39,-10.46 9.03,-14.68 1.56,-4.2 0.52,-6.62 -3.67,-9.23 -4.33,-2.68 -11.85,-5.54 -37.26,-7.97 -25.38,-2.53 -68.64,-4.63 -93,-5.41 -24.37,-0.81 -29.94,-0.24 -36.43,0.83 -6.55,1.03 -14.09,2.59 -23.42,6.61 -9.29,4 -20.43,10.49 -28.58,15.48 -8.2,4.93 -13.42,8.39 -17.32,13.24 -3.94,4.79 -6.55,10.97 -6.8,16.9 -0.23,5.83 1.94,11.25 28.91,17.27zm163.29 -38.17l-47.35 51.02m1.6 -50.05l-36.89 46.05m-10.09 -43.45l-29.11 41.19m-11.8 -40.83l-25.59 35.29m-104.32 66.97c26.29,8.24 77.21,19.09 108.25,23.76 31.03,4.59 42.12,2.99 51.43,-0.22 9.34,-3.36 16.84,-8.29 23.52,-13.3 6.59,-5.07 12.38,-10.14 16.66,-14.08 4.24,-3.99 7.05,-6.74 10.76,-10.89 3.71,-4.28 8.28,-9.78 10.27,-13.83 1.93,-4.06 1.11,-6.56 -2.84,-9.53 -4.08,-3.04 -11.31,-6.55 -36.42,-11.18 -25.06,-4.73 -67.98,-10.6 -92.17,-13.5 -24.21,-2.93 -29.81,-2.85 -36.37,-2.35 -6.62,0.47 -14.26,1.36 -23.9,4.55 -9.62,3.18 -21.27,8.66 -29.83,12.93 -8.6,4.2 -14.1,7.19 -18.41,11.68 -4.34,4.43 -7.48,10.36 -8.24,16.24 -0.74,5.78 0.95,11.38 27.29,19.72zm166 -23.78l-51.62 46.7m5.96 -49.73l-40.77 42.65m-6.27 -44.15l-32.58 38.49m-8.21 -41.7l-28.56 32.92m-109.76 57.63c25.48,10.5 75.26,25.75 105.77,33.1 30.52,7.28 41.69,6.66 51.26,4.26 9.59,-2.52 17.5,-6.78 24.59,-11.19 7,-4.48 13.21,-9.03 17.82,-12.58 4.57,-3.6 7.61,-6.1 11.67,-9.9 4.07,-3.94 9.1,-9.02 11.44,-12.89 2.26,-3.88 1.66,-6.43 -2,-9.75 -3.8,-3.38 -10.7,-7.49 -35.31,-14.31 -24.56,-6.89 -66.79,-16.47 -90.65,-21.48 -23.86,-5.02 -29.45,-5.43 -36.03,-5.5 -6.62,-0.12 -14.32,0.1 -24.2,2.44 -9.86,2.33 -21.94,6.78 -30.84,10.28 -8.93,3.43 -14.67,5.94 -19.36,10.03 -4.72,4.04 -8.35,9.67 -9.63,15.46 -1.24,5.71 -0.04,11.42 25.47,22.03zm167.44 -9.23l-55.5 42.02m10.28 -49.01l-44.33 38.93m-2.39 -44.52l-35.82 35.5m-4.54 -42.26l-31.32 30.31m-114.36 47.84c24.46,12.68 72.72,32.21 102.48,42.2 29.77,9.91 40.95,10.26 50.69,8.71 9.78,-1.68 18.02,-5.23 25.47,-9.01 7.37,-3.85 13.94,-7.84 18.85,-10.97 4.87,-3.2 8.11,-5.41 12.49,-8.86 4.39,-3.57 9.85,-8.19 12.51,-11.83 2.6,-3.67 2.23,-6.27 -1.14,-9.89 -3.49,-3.7 -10.01,-8.4 -33.93,-17.34 -23.86,-9.01 -65.1,-22.22 -88.43,-29.3 -23.33,-7.08 -28.86,-7.97 -35.41,-8.61 -6.59,-0.7 -14.28,-1.15 -24.32,0.32 -10.03,1.46 -22.45,4.84 -31.62,7.55 -9.2,2.64 -15.13,4.63 -20.16,8.31 -5.05,3.61 -9.17,8.91 -10.94,14.56 -1.73,5.57 -1.03,11.37 23.46,24.16zm167.61 5.4l-58.96 37.03m14.52 -47.94l-47.57 34.92m1.51 -44.56l-38.78 32.25m-0.84 -42.49l-33.85 27.46m-118.09 37.68c23.27,14.77 69.64,38.43 98.41,50.97 28.79,12.48 39.9,13.8 49.74,13.1 9.88,-0.81 18.41,-3.64 26.15,-6.75 7.69,-3.19 14.58,-6.6 19.75,-9.29 5.13,-2.76 8.55,-4.68 13.21,-7.74 4.68,-3.16 10.52,-7.29 13.5,-10.69 2.9,-3.43 2.76,-6.05 -0.28,-9.96 -3.15,-3.99 -9.24,-9.24 -32.29,-20.22 -22.98,-11.05 -62.92,-27.81 -85.54,-36.89 -22.62,-9.09 -28.05,-10.46 -34.52,-11.67 -6.51,-1.28 -14.12,-2.4 -24.25,-1.81 -10.12,0.59 -22.8,2.87 -32.17,4.77 -9.39,1.83 -15.48,3.3 -20.81,6.53 -5.34,3.15 -9.91,8.07 -12.16,13.54 -2.21,5.4 -2.02,11.24 21.26,26.11zm166.5 19.99l-61.96 31.76m18.64 -46.49l-50.43 30.64m5.39 -44.26l-41.45 28.74m2.87 -42.4l-36.11 24.41m-120.93 27.24c21.89,16.74 66.03,44.36 93.6,59.36 27.59,14.94 38.54,17.22 48.41,17.38 9.91,0.05 18.65,-2.02 26.64,-4.45 7.93,-2.5 15.09,-5.3 20.48,-7.53 5.35,-2.3 8.92,-3.92 13.83,-6.55 4.94,-2.75 11.12,-6.36 14.38,-9.48 3.19,-3.16 3.28,-5.78 0.6,-9.94 -2.8,-4.25 -8.41,-10.01 -30.41,-22.96 -21.93,-13.01 -60.26,-33.19 -82,-44.2 -21.74,-11.04 -27.03,-12.87 -33.38,-14.64 -6.37,-1.84 -13.85,-3.62 -23.99,-3.92 -10.13,-0.29 -22.96,0.87 -32.46,1.95 -9.53,1 -15.71,1.94 -21.3,4.68 -5.6,2.69 -10.58,7.19 -13.3,12.44 -2.68,5.19 -3,11.03 18.9,27.86zm164.12 34.43l-64.48 26.23m22.62 -44.68l-52.91 26.13m9.22 -43.63l-43.79 25.03m6.55 -41.99l-38.1 21.17m-122.84 16.59c20.35,18.59 61.91,49.95 88.07,67.29 26.18,17.29 36.89,20.52 46.71,21.53 9.87,0.93 18.75,-0.39 26.92,-2.1 8.12,-1.8 15.5,-3.97 21.06,-5.72 5.54,-1.83 9.23,-3.13 14.35,-5.32 5.16,-2.31 11.64,-5.36 15.15,-8.2 3.46,-2.86 3.78,-5.47 1.47,-9.85 -2.42,-4.47 -7.51,-10.7 -28.3,-25.52 -20.71,-14.87 -57.13,-38.31 -77.83,-51.18 -20.7,-12.88 -25.81,-15.17 -31.98,-17.49 -6.19,-2.38 -13.48,-4.81 -23.56,-5.99 -10.06,-1.18 -22.95,-1.14 -32.51,-0.89 -9.57,0.16 -15.81,0.57 -21.62,2.81 -5.81,2.18 -11.17,6.23 -14.33,11.23 -3.12,4.93 -3.95,10.72 16.4,29.4zm160.49 48.6l-66.52 20.52m26.43 -42.54l-54.99 21.42m12.99 -42.67l-45.8 21.12m10.18 -41.26l-39.8 17.77m-123.82 5.83c18.66,20.29 57.32,55.15 81.87,74.7 24.58,19.5 34.97,23.66 44.66,25.52 9.75,1.79 18.7,1.25 27,0.25 8.25,-1.08 15.79,-2.59 21.48,-3.85 5.67,-1.35 9.47,-2.32 14.76,-4.06 5.34,-1.85 12.06,-4.32 15.8,-6.84 3.7,-2.56 4.25,-5.12 2.32,-9.68 -2.02,-4.67 -6.55,-11.32 -25.96,-27.9 -19.34,-16.61 -53.58,-43.14 -73.08,-57.76 -19.5,-14.64 -24.39,-17.37 -30.33,-20.22 -5.96,-2.91 -13.01,-5.96 -22.95,-8.02 -9.92,-2.05 -22.76,-3.13 -32.31,-3.71 -9.54,-0.68 -15.79,-0.83 -21.78,0.91 -5.98,1.67 -11.67,5.23 -15.25,9.94 -3.55,4.64 -4.88,10.34 13.77,30.72zm155.64 62.4l-68.05 14.64m30.04 -40.07l-56.64 16.54m16.65 -41.37l-47.47 17.04m13.75 -40.21l-41.21 14.22m-123.86 -4.98c16.82,21.85 52.3,59.94 75.05,81.56 22.79,21.57 32.77,26.62 42.27,29.32 9.55,2.63 18.53,2.87 26.87,2.6 8.31,-0.35 15.97,-1.21 21.74,-1.97 5.77,-0.84 9.64,-1.48 15.06,-2.75 5.48,-1.38 12.38,-3.26 16.34,-5.44 3.91,-2.23 4.68,-4.73 3.14,-9.44 -1.6,-4.83 -5.53,-11.85 -23.42,-30.06 -17.83,-18.24 -49.62,-47.65 -67.76,-63.91 -18.16,-16.28 -22.79,-19.43 -28.46,-22.79 -5.68,-3.41 -12.44,-7.07 -22.16,-9.98 -9.71,-2.92 -22.4,-5.11 -31.87,-6.52 -9.44,-1.51 -15.66,-2.2 -21.77,-1 -6.11,1.16 -12.09,4.2 -16.06,8.58 -3.94,4.31 -5.76,9.88 11.03,31.8zm149.62 75.73l-69.07 8.66m33.41 -37.3l-57.86 11.54m20.19 -39.76l-48.77 12.84m17.2 -38.87l-42.28 10.59m-122.97 -15.76c14.86,23.22 46.89,64.27 67.66,87.79 20.83,23.47 30.33,29.37 39.55,32.89 9.28,3.44 18.21,4.46 26.55,4.93 8.3,0.38 16.01,0.19 21.82,-0.06 5.82,-0.35 9.73,-0.65 15.24,-1.44 5.58,-0.89 12.62,-2.16 16.75,-4 4.09,-1.87 5.08,-4.29 3.96,-9.12 -1.17,-4.95 -4.48,-12.29 -20.71,-31.99 -16.17,-19.71 -45.28,-51.79 -61.94,-69.56 -16.66,-17.81 -21,-21.34 -26.36,-25.19 -5.36,-3.89 -11.79,-8.13 -21.21,-11.88 -9.41,-3.75 -21.87,-7.04 -31.18,-9.27 -9.27,-2.33 -15.41,-3.55 -21.6,-2.89 -6.18,0.62 -12.41,3.13 -16.74,7.14 -4.3,3.95 -6.6,9.34 8.21,32.65zm142.45 88.48l-69.56 2.61m36.54 -34.26l-58.65 6.46m23.58 -37.85l-49.71 8.54m20.52 -37.22l-43.04 6.87m-121.12 -26.43c12.78,24.44 41.1,68.12 59.75,93.36 18.7,25.2 27.65,31.9 36.54,36.21 8.94,4.24 17.74,6.04 26.01,7.22 8.24,1.11 15.93,1.59 21.74,1.85 5.83,0.17 9.75,0.21 15.31,-0.1 5.63,-0.4 12.77,-1.06 17.04,-2.53 4.24,-1.5 5.43,-3.84 4.74,-8.75 -0.75,-5.03 -3.4,-12.62 -17.85,-33.66 -14.39,-21.05 -40.59,-55.54 -55.64,-74.7 -15.05,-19.19 -19.07,-23.09 -24.07,-27.39 -5,-4.34 -11.03,-9.12 -20.08,-13.68 -9.06,-4.56 -21.18,-8.92 -30.25,-11.96 -9.05,-3.12 -15.05,-4.87 -21.28,-4.75 -6.21,0.08 -12.64,2.02 -17.3,5.65 -4.63,3.56 -7.39,8.73 5.34,33.23zm134.19 100.57l-69.52 -3.47m39.39 -30.95l-58.99 1.34m26.78 -35.66l-50.26 4.17m23.69 -35.28l-43.48 3.08m-118.36 -36.87c10.6,25.46 35.01,71.43 51.39,98.2 16.44,26.73 24.77,34.2 33.25,39.26 8.53,5 17.15,7.56 25.28,9.47 8.1,1.81 15.73,2.96 21.5,3.73 5.79,0.68 9.69,1.06 15.26,1.23 5.64,0.09 12.81,0.07 17.18,-1.03 4.36,-1.13 5.75,-3.35 5.49,-8.3 -0.3,-5.07 -2.28,-12.88 -14.84,-35.09 -12.5,-22.23 -35.59,-58.87 -48.92,-79.27 -13.32,-20.43 -16.98,-24.66 -21.58,-29.38 -4.61,-4.76 -10.2,-10.04 -18.83,-15.38 -8.63,-5.33 -20.31,-10.72 -29.09,-14.55 -8.74,-3.9 -14.57,-6.16 -20.78,-6.58 -6.19,-0.47 -12.77,0.91 -17.72,4.11 -4.93,3.14 -8.13,8.05 2.41,33.58zm124.93 111.88l-68.97 -9.52m41.94 -27.39l-58.88 -3.82m29.79 -33.19l-50.43 -0.22m26.67 -33.09l-43.58 -0.71m-114.7 -47.05c8.35,26.29 28.66,74.21 42.64,102.31 14.04,28.06 21.7,36.23 29.7,42.01 8.07,5.72 16.42,9.03 24.36,11.63 7.91,2.52 15.41,4.33 21.09,5.58 5.71,1.19 9.56,1.91 15.1,2.57 5.61,0.58 12.75,1.18 17.2,0.47 4.44,-0.74 6.03,-2.84 6.2,-7.8 0.14,-5.07 -1.16,-13.01 -11.74,-36.24 -10.51,-23.24 -30.32,-61.75 -41.82,-83.23 -11.48,-21.51 -14.77,-26.05 -18.94,-31.15 -4.17,-5.15 -9.28,-10.89 -17.41,-16.97 -8.14,-6.06 -19.3,-12.45 -27.71,-17.03 -8.37,-4.64 -13.98,-7.4 -20.13,-8.37 -6.13,-1 -12.81,-0.2 -18.02,2.56 -5.18,2.69 -8.8,7.31 -0.52,33.66zm114.7 122.34l-67.87 -15.5m44.17 -23.62l-58.33 -8.94m32.57 -30.46l-50.22 -4.62m29.46 -30.64l-43.35 -4.51m-110.17 -56.86c6.03,26.91 22.08,76.42 33.56,105.63 11.54,29.19 18.46,37.98 25.93,44.44 7.54,6.4 15.57,10.43 23.25,13.71 7.66,3.2 14.98,5.65 20.53,7.4 5.58,1.68 9.35,2.73 14.82,3.87 5.53,1.07 12.58,2.29 17.09,1.97 4.49,-0.35 6.24,-2.31 6.84,-7.23 0.59,-5.04 -0.01,-13.06 -8.52,-37.12 -8.45,-24.08 -24.82,-64.16 -34.41,-86.57 -9.57,-22.42 -12.44,-27.23 -16.15,-32.67 -3.71,-5.5 -8.31,-11.67 -15.87,-18.43 -7.58,-6.74 -18.14,-14.09 -26.12,-19.38 -7.93,-5.35 -13.28,-8.59 -19.33,-10.09 -6.01,-1.53 -12.74,-1.31 -18.17,0.98 -5.39,2.23 -9.4,6.52 -3.45,33.49zm103.61 131.87l-66.27 -21.35m46.06 -19.69l-57.32 -13.99m35.09 -27.5l-49.62 -8.98m32.01 -27.95l-42.78 -8.28m-104.81 -66.25c3.67,27.34 15.34,78.06 24.24,108.15 8.95,30.09 15.07,39.45 21.95,46.53 6.96,7.04 14.61,11.76 21.97,15.69 7.35,3.85 14.42,6.94 19.8,9.16 5.41,2.17 9.08,3.54 14.43,5.15 5.41,1.54 12.34,3.38 16.86,3.45 4.49,0.04 6.42,-1.76 7.44,-6.6 1.02,-4.97 1.13,-13.02 -5.26,-37.73 -6.31,-24.72 -19.13,-66.08 -26.72,-89.23 -7.59,-23.18 -10.03,-28.22 -13.25,-33.96 -3.22,-5.8 -7.25,-12.34 -14.21,-19.74 -6.95,-7.37 -16.83,-15.62 -24.32,-21.58 -7.44,-6.02 -12.49,-9.72 -18.38,-11.73 -5.86,-2.06 -12.58,-2.43 -18.19,-0.63 -5.56,1.77 -9.93,5.69 -6.36,33.07zm91.73 140.4l-64.15 -27.05m47.59 -15.6l-55.88 -18.93m37.35 -24.33l-48.64 -13.27m34.32 -25.06l-41.9 -11.97m-98.63 -75.14c1.27,27.56 8.48,79.1 14.72,109.86 6.29,30.75 11.57,40.61 17.81,48.26 6.31,7.62 13.53,12.99 20.51,17.54 7,4.48 13.77,8.17 18.94,10.86 5.2,2.62 8.74,4.31 13.93,6.39 5.25,2 11.99,4.44 16.48,4.9 4.48,0.43 6.55,-1.18 8,-5.93 1.45,-4.86 2.26,-12.87 -1.96,-38.04 -4.13,-25.18 -13.29,-67.49 -18.85,-91.23 -5.53,-23.74 -7.52,-28.97 -10.23,-34.98 -2.69,-6.06 -6.15,-12.92 -12.43,-20.9 -6.28,-7.95 -15.41,-17.03 -22.35,-23.62 -6.89,-6.65 -11.6,-10.76 -17.29,-13.29 -5.66,-2.55 -12.31,-3.51 -18.06,-2.2 -5.69,1.27 -10.38,4.8 -9.22,32.38zm79.14 147.87l-61.55 -32.54m48.77 -11.4l-54.02 -23.72m39.34 -20.99l-47.31 -17.46m36.38 -21.97l-40.69 -15.58m-91.71 -83.45c-1.14,27.57 1.54,79.55 5.08,110.72 3.6,31.18 7.99,41.46 13.55,49.64 5.62,8.13 12.34,14.12 18.89,19.27 6.59,5.07 13.01,9.32 17.93,12.45 4.95,3.07 8.32,5.07 13.31,7.59 5.05,2.45 11.57,5.47 15.99,6.31 4.43,0.82 6.64,-0.6 8.49,-5.21 1.87,-4.71 3.38,-12.62 1.36,-38.06 -1.91,-25.45 -7.36,-68.39 -10.82,-92.53 -3.43,-24.14 -4.97,-29.52 -7.14,-35.73 -2.16,-6.27 -5,-13.41 -10.56,-21.91 -5.57,-8.47 -13.87,-18.31 -20.21,-25.48 -6.28,-7.22 -10.61,-11.73 -16.06,-14.74 -5.42,-3.05 -11.97,-4.57 -17.81,-3.78 -5.78,0.77 -10.76,3.88 -12,31.46zm65.95 154.21l-58.48 -37.79m49.57 -7.09l-51.74 -28.35m41.02 -17.48l-45.61 -21.51m38.15 -18.72l-39.17 -19.07m-84.09 -91.12c-3.54,27.36 -5.4,79.38 -4.59,110.74 0.87,31.37 4.35,42 9.17,50.63 4.89,8.6 11.06,15.14 17.15,20.84 6.11,5.62 12.14,10.43 16.77,13.97 4.66,3.49 7.84,5.78 12.6,8.72 4.81,2.88 11.04,6.46 15.38,7.68 4.34,1.2 6.66,-0.02 8.91,-4.45 2.27,-4.53 4.46,-12.27 4.67,-37.79 0.31,-25.52 -1.37,-68.78 -2.72,-93.13 -1.31,-24.34 -2.37,-29.83 -3.99,-36.22 -1.61,-6.43 -3.82,-13.79 -8.62,-22.74 -4.81,-8.92 -12.21,-19.45 -17.91,-27.14 -5.63,-7.74 -9.54,-12.62 -14.71,-16.09 -5.13,-3.5 -11.53,-5.6 -17.41,-5.32 -5.83,0.27 -11.06,2.93 -14.7,30.3zm52.26 159.37l-54.96 -42.74m50 -2.75l-49.08 -32.75m42.39 -13.83l-43.56 -25.41m39.63 -15.32l-37.36 -22.42m-75.82 -98.09c-5.92,26.93 -12.3,78.6 -14.23,109.91 -1.87,31.33 0.68,42.23 4.72,51.24 4.13,8.99 9.7,16.05 15.27,22.25 5.59,6.13 11.19,11.45 15.49,15.38 4.34,3.88 7.31,6.44 11.8,9.78 4.54,3.29 10.44,7.4 14.65,9 4.21,1.57 6.63,0.56 9.26,-3.66 2.65,-4.31 5.52,-11.83 7.95,-37.24 2.52,-25.39 4.62,-68.64 5.41,-93.01 0.81,-24.36 0.23,-29.93 -0.83,-36.43 -1.03,-6.54 -2.6,-14.08 -6.6,-23.4 -4.01,-9.31 -10.47,-20.44 -15.47,-28.61 -4.93,-8.2 -8.41,-13.4 -13.26,-17.3 -4.81,-3.94 -10.99,-6.59 -16.87,-6.82 -5.83,-0.24 -11.29,1.96 -17.29,28.91zm38.17 163.31l-51.03 -47.36m50.05 1.61l-46.03 -36.9m43.43 -10.09l-41.19 -29.11m40.83 -11.8l-35.27 -25.59m-66.98 -104.33c-8.25,26.31 -19.11,77.23 -23.76,108.25 -4.6,31.05 -3,42.13 0.24,51.46 3.33,9.31 8.27,16.83 13.27,23.49 5.04,6.6 10.15,12.39 14.1,16.67 3.97,4.25 6.71,7.06 10.89,10.78 4.24,3.67 9.76,8.28 13.81,10.24 4.06,1.93 6.56,1.14 9.55,-2.84 3.01,-4.06 6.52,-11.3 11.17,-36.41 4.73,-25.07 10.58,-67.97 13.49,-92.17 2.93,-24.21 2.84,-29.8 2.35,-36.37 -0.46,-6.61 -1.37,-14.25 -4.54,-23.89 -3.19,-9.63 -8.65,-21.27 -12.92,-29.85 -4.2,-8.6 -7.21,-14.08 -11.7,-18.4 -4.45,-4.33 -10.37,-7.51 -16.21,-8.25 -5.79,-0.74 -11.41,0.96 -19.74,27.29zm23.79 166.02l-46.72 -51.63m49.72 5.97l-42.63 -40.78m44.14 -6.26l-38.49 -32.59m41.7 -8.2l-32.9 -28.57m-57.64 -109.77c-10.51,25.5 -25.77,75.28 -33.1,105.78 -7.29,30.52 -6.66,41.69 -4.24,51.27 2.49,9.57 6.76,17.5 11.16,24.57 4.45,7.01 9.04,13.22 12.6,17.84 3.58,4.57 6.07,7.61 9.91,11.67 3.89,4.04 8.99,9.11 12.86,11.41 3.88,2.28 6.43,1.7 9.77,-1.99 3.35,-3.78 7.46,-10.69 14.29,-35.3 6.89,-24.57 16.46,-66.78 21.48,-90.65 5.02,-23.86 5.42,-29.44 5.5,-36.03 0.12,-6.61 -0.11,-14.31 -2.43,-24.19 -2.34,-9.87 -6.77,-21.94 -10.27,-30.86 -3.43,-8.93 -5.97,-14.65 -10.05,-19.35 -4.06,-4.71 -9.68,-8.38 -15.43,-9.64 -5.71,-1.24 -11.46,-0.03 -22.05,25.47zm9.23 167.46l-42.03 -55.51m49 10.29l-38.91 -44.34m44.52 -2.39l-35.51 -35.82m42.26 -4.54l-30.29 -31.32m-47.84 -114.37c-12.7,24.48 -32.24,72.74 -42.21,102.49 -9.92,29.77 -10.27,40.95 -8.68,50.71 1.64,9.75 5.21,18.01 8.97,25.44 3.82,7.37 7.85,13.96 11,18.86 3.17,4.88 5.38,8.12 8.85,12.5 3.53,4.36 8.17,9.86 11.82,12.48 3.66,2.61 6.26,2.27 9.91,-1.13 3.66,-3.47 8.36,-10 17.31,-33.92 9.01,-23.87 22.21,-65.09 29.3,-88.43 7.08,-23.32 7.96,-28.86 8.61,-35.41 0.7,-6.58 1.15,-14.27 -0.31,-24.31 -1.47,-10.04 -4.83,-22.45 -7.54,-31.64 -2.64,-9.19 -4.66,-15.11 -8.33,-20.15 -3.63,-5.04 -8.91,-9.2 -14.53,-10.95 -5.58,-1.73 -11.41,-1.02 -24.17,23.46zm-5.41 167.63l-37.04 -58.97m47.93 14.53l-34.9 -47.57m44.56 1.5l-32.26 -38.78m42.5 -0.84l-27.45 -33.84m-37.69 -118.11c-14.78,23.29 -38.46,69.66 -50.97,98.43 -12.49,28.78 -13.81,39.89 -13.08,49.75 0.78,9.85 3.62,18.4 6.73,26.12 3.15,7.69 6.6,14.59 9.3,19.76 2.74,5.14 4.65,8.56 7.74,13.22 3.12,4.65 7.27,10.53 10.68,13.47 3.43,2.91 6.04,2.8 9.97,-0.27 3.95,-3.13 9.21,-9.23 20.2,-32.28 11.05,-22.99 27.8,-62.91 36.89,-85.54 9.09,-22.62 10.45,-28.05 11.67,-34.52 1.28,-6.5 2.39,-14.12 1.82,-24.24 -0.6,-10.13 -2.86,-22.8 -4.76,-32.19 -1.83,-9.37 -3.33,-15.46 -6.54,-20.8 -3.18,-5.33 -8.08,-9.94 -13.52,-12.17 -5.41,-2.21 -11.28,-2.01 -26.13,21.26zm-20 166.52l-31.75 -61.97m46.47 18.65l-30.62 -50.44m44.25 5.39l-28.74 -41.45m42.4 2.87l-24.39 -36.1m-27.25 -120.95c-16.75,21.91 -44.39,66.04 -59.36,93.62 -14.95,27.58 -17.23,38.53 -17.36,48.42 -0.08,9.88 2,18.65 4.42,26.61 2.47,7.93 5.31,15.1 7.55,20.49 2.28,5.36 3.89,8.93 6.56,13.84 2.7,4.91 6.33,11.13 9.46,14.35 3.16,3.2 5.78,3.32 9.95,0.61 4.21,-2.79 9.98,-8.4 22.94,-30.4 13.01,-21.94 33.18,-60.25 44.21,-82 11.03,-21.74 12.85,-27.03 14.63,-33.38 1.84,-6.36 3.61,-13.85 3.92,-23.98 0.29,-10.14 -0.85,-22.96 -1.93,-32.48 -1,-9.51 -1.97,-15.69 -4.7,-21.29 -2.71,-5.59 -7.19,-10.61 -12.41,-13.31 -5.2,-2.67 -11.07,-2.99 -27.88,18.9zm-34.44 164.14l-26.23 -64.49m44.67 22.63l-26.11 -52.92m43.62 9.22l-25.03 -43.79m42 6.55l-21.16 -38.09m-16.6 -122.86c-18.59,20.37 -49.98,61.92 -67.29,88.08 -17.29,26.18 -20.53,36.89 -21.52,46.73 -0.94,9.84 0.37,18.75 2.08,26.89 1.77,8.12 3.98,15.51 5.74,21.08 1.81,5.54 3.1,9.23 5.32,14.35 2.27,5.13 5.34,11.65 8.19,15.12 2.86,3.47 5.46,3.82 9.86,1.48 4.43,-2.41 10.67,-7.5 25.5,-28.29 14.87,-20.72 38.3,-57.12 51.18,-77.83 12.88,-20.7 15.16,-25.81 17.49,-31.98 2.38,-6.18 4.8,-13.48 6,-23.55 1.17,-10.07 1.15,-22.95 0.9,-32.52 -0.17,-9.55 -0.59,-15.8 -2.83,-21.62 -2.2,-5.81 -6.23,-11.2 -11.19,-14.34 -4.95,-3.11 -10.77,-3.94 -29.43,16.4zm-48.61 160.51l-20.51 -66.53m42.52 26.44l-21.4 -55m42.66 12.99l-21.12 -45.8m41.26 10.18l-17.74 -39.79m-5.84 -123.84c-20.31,18.68 -55.18,57.33 -74.71,81.88 -19.51,24.58 -23.67,34.97 -25.51,44.68 -1.81,9.72 -1.27,18.7 -0.27,26.97 1.06,8.25 2.6,15.8 3.87,21.49 1.33,5.68 2.29,9.48 4.05,14.77 1.82,5.31 4.31,12.07 6.85,15.77 2.55,3.71 5.11,4.29 9.69,2.34 4.62,-2.02 11.28,-6.55 27.87,-25.96 16.61,-19.35 43.13,-53.57 57.76,-73.08 14.64,-19.5 17.36,-24.39 20.22,-30.33 2.91,-5.95 5.95,-13.01 8.02,-22.94 2.05,-9.93 3.15,-22.76 3.74,-32.31 0.66,-9.53 0.79,-15.8 -0.94,-21.79 -1.69,-5.98 -5.23,-11.7 -9.9,-15.26 -4.65,-3.54 -10.39,-4.87 -30.74,13.77zm-62.42 155.66l-14.64 -68.06m40.06 30.05l-16.52 -56.65m41.36 16.65l-17.04 -47.47m40.22 13.75l-14.21 -41.2m4.98 -123.87c-21.86,16.83 -59.98,52.3 -81.57,75.06 -21.57,22.78 -26.62,32.76 -29.31,42.28 -2.64,9.52 -2.9,18.53 -2.61,26.84 0.34,8.31 1.21,15.98 1.98,21.76 0.82,5.77 1.45,9.64 2.74,15.06 1.35,5.45 3.25,12.39 5.45,16.31 2.22,3.92 4.71,4.72 9.44,3.16 4.79,-1.6 11.82,-5.53 30.04,-23.42 18.24,-17.84 47.64,-49.61 63.91,-67.76 16.28,-18.16 19.42,-22.79 22.79,-28.46 3.41,-5.67 7.06,-12.44 9.98,-22.15 2.92,-9.72 5.13,-22.4 6.55,-31.87 1.48,-9.43 2.16,-15.67 0.97,-21.78 -1.18,-6.11 -4.2,-12.12 -8.54,-16.07 -4.33,-3.93 -9.93,-5.75 -31.82,11.04zm-75.75 149.63l-8.66 -69.08m37.3 33.42l-11.53 -57.87m39.75 20.19l-12.83 -48.78m38.86 17.21l-10.57 -42.27m15.76 -122.98c-23.24,14.87 -64.3,46.89 -87.8,67.67 -23.48,20.82 -29.38,30.32 -32.88,39.56 -3.46,9.25 -4.5,18.21 -4.94,26.52 -0.39,8.3 -0.18,16.02 0.08,21.84 0.31,5.82 0.61,9.73 1.42,15.24 0.86,5.55 2.15,12.63 4,16.72 1.87,4.1 4.28,5.12 9.13,3.98 4.91,-1.17 12.26,-4.48 31.97,-20.71 19.72,-16.18 51.78,-45.27 69.56,-61.94 17.81,-16.66 21.34,-21 25.19,-26.36 3.89,-5.35 8.12,-11.79 11.88,-21.2 3.75,-9.42 7.06,-21.86 9.29,-31.17 2.3,-9.27 3.52,-15.43 2.87,-21.62 -0.63,-6.19 -3.13,-12.44 -7.1,-16.75 -3.97,-4.29 -9.39,-6.59 -32.67,8.22zm-88.5 142.46l-2.61 -69.57m34.25 36.55l-6.44 -58.66m37.84 23.58l-8.53 -49.71m37.21 20.52l-6.84 -43.03m26.42 -121.13c-24.46,12.79 -68.16,41.1 -93.38,59.76 -25.2,18.69 -31.9,27.64 -36.2,36.55 -4.25,8.91 -6.07,17.74 -7.23,25.98 -1.1,8.24 -1.57,15.94 -1.83,21.76 -0.2,5.82 -0.24,9.75 0.09,15.31 0.38,5.6 1.05,12.78 2.53,17.01 1.51,4.25 3.83,5.47 8.76,4.76 4.99,-0.75 12.59,-3.4 33.64,-17.85 21.05,-14.4 55.53,-40.58 74.7,-55.64 19.19,-15.05 23.09,-19.07 27.39,-24.07 4.34,-4.99 9.11,-11.03 13.68,-20.07 4.56,-9.07 8.94,-21.17 11.97,-30.24 3.1,-9.05 4.85,-15.07 4.74,-21.3 -0.08,-6.22 -2.02,-12.67 -5.61,-17.31 -3.57,-4.61 -8.77,-7.38 -33.25,5.35zm-100.59 134.2l3.47 -69.53m30.93 39.39l-1.31 -58.99m35.65 26.78l-4.17 -50.26m35.29 23.69l-3.07 -43.47m36.87 -118.36c-25.48,10.6 -71.47,35 -98.22,51.39 -26.73,16.42 -34.2,24.76 -39.25,33.26 -5.01,8.5 -7.59,17.14 -9.48,25.25 -1.81,8.1 -2.95,15.74 -3.7,21.52 -0.72,5.78 -1.1,9.69 -1.25,15.26 -0.12,5.61 -0.08,12.81 1.04,17.16 1.13,4.36 3.33,5.78 8.3,5.5 5.03,-0.3 12.85,-2.28 35.07,-14.85 22.23,-12.5 58.86,-35.57 79.27,-48.91 20.43,-13.32 24.65,-16.98 29.38,-21.58 4.76,-4.6 10.03,-10.2 15.37,-18.82 5.34,-8.64 10.76,-20.3 14.57,-29.08 3.87,-8.74 6.15,-14.59 6.58,-20.8 0.46,-6.2 -0.92,-12.8 -4.08,-17.73 -3.17,-4.9 -8.1,-8.13 -33.6,2.43zm-111.9 124.93l9.52 -68.98m27.37 41.94l3.85 -58.88m33.18 29.79l0.22 -50.43m33.09 26.67l0.73 -43.57m47.05 -114.69c-26.31,8.34 -74.25,28.64 -102.32,42.63 -28.07,14.03 -36.24,21.69 -42.01,29.71 -5.73,8.04 -9.05,16.41 -11.64,24.33 -2.51,7.91 -4.32,15.42 -5.57,21.11 -1.21,5.7 -1.92,9.56 -2.57,15.1 -0.61,5.57 -1.19,12.76 -0.47,17.18 0.75,4.44 2.83,6.06 7.81,6.21 5.03,0.14 12.98,-1.16 36.22,-11.74 23.25,-10.52 61.74,-30.32 83.23,-41.82 21.52,-11.48 26.04,-14.77 31.15,-18.94 5.14,-4.16 10.89,-9.28 16.96,-17.4 6.07,-8.15 12.48,-19.29 17.05,-27.7 4.61,-8.38 7.39,-14 8.36,-20.15 1,-6.14 0.21,-12.84 -2.52,-18.02 -2.72,-5.16 -7.35,-8.81 -33.68,-0.5zm-122.36 114.69l15.5 -67.88m23.6 44.17l8.97 -58.33m30.45 32.57l4.62 -50.22m30.64 29.46l4.53 -43.34m56.86 -110.16c-26.93,6.02 -76.46,22.06 -105.65,33.55 -29.18,11.53 -37.98,18.45 -44.43,25.94 -6.41,7.51 -10.45,15.56 -13.72,23.22 -3.2,7.66 -5.64,14.99 -7.39,20.55 -1.7,5.57 -2.75,9.35 -3.87,14.82 -1.1,5.49 -2.3,12.59 -1.97,17.07 0.36,4.49 2.29,6.27 7.24,6.86 5,0.58 13.03,-0.02 37.1,-8.53 24.08,-8.46 64.16,-24.82 86.57,-34.41 22.42,-9.57 27.22,-12.44 32.67,-16.15 5.49,-3.71 11.66,-8.31 18.41,-15.86 6.76,-7.59 14.12,-18.13 19.41,-26.11 5.32,-7.95 8.57,-13.3 10.08,-19.35 1.53,-6.02 1.33,-12.77 -0.93,-18.17 -2.27,-5.37 -6.57,-9.41 -33.52,-3.43zm-131.89 103.6l21.35 -66.28m19.67 46.06l14.02 -57.32m27.49 35.09l8.98 -49.62m27.96 32.01l8.29 -42.77m66.24 -104.79c-27.35,3.65 -78.09,15.31 -108.16,24.22 -30.09,8.94 -39.45,15.06 -46.53,21.96 -7.04,6.92 -11.77,14.59 -15.69,21.93 -3.85,7.36 -6.93,14.44 -9.15,19.83 -2.18,5.4 -3.56,9.08 -5.15,14.43 -1.57,5.37 -3.39,12.35 -3.45,16.83 -0.03,4.51 1.73,6.46 6.61,7.47 4.94,1.01 12.99,1.12 37.71,-5.27 24.72,-6.32 66.07,-19.13 89.23,-26.72 23.18,-7.59 28.21,-10.03 33.96,-13.25 5.79,-3.22 12.34,-7.26 19.72,-14.2 7.39,-6.96 15.64,-16.82 21.61,-24.32 5.99,-7.45 9.7,-12.5 11.73,-18.39 2.05,-5.87 2.44,-12.61 0.66,-18.18 -1.8,-5.55 -5.72,-9.95 -33.1,-6.34zm-140.41 91.71l27.05 -64.17m15.58 47.6l18.96 -55.88m24.33 37.35l13.26 -48.64m25.06 34.32l11.99 -41.89m75.13 -98.61c-27.57,1.25 -79.13,8.44 -109.86,14.7 -30.75,6.28 -40.61,11.56 -48.27,17.82 -7.61,6.28 -13,13.51 -17.54,20.48 -4.48,7 -8.16,13.79 -10.84,18.96 -2.65,5.19 -4.34,8.74 -6.4,13.93 -2.03,5.21 -4.45,12 -4.9,16.46 -0.42,4.49 1.16,6.58 5.93,8.01 4.83,1.45 12.85,2.26 38.03,-1.96 25.18,-4.14 67.48,-13.3 91.23,-18.85 23.75,-5.53 28.97,-7.52 34.98,-10.23 6.05,-2.7 12.91,-6.16 20.88,-12.42 7.97,-6.29 17.04,-15.4 23.64,-22.34 6.63,-6.91 10.76,-11.62 13.29,-17.31 2.56,-5.67 3.54,-12.34 2.25,-18.04 -1.31,-5.7 -4.84,-10.41 -32.42,-9.21zm-147.88 79.12l32.55 -61.56m11.37 48.77l23.75 -54.02m20.99 39.34l17.45 -47.31m21.97 36.38l15.6 -40.68m83.44 -91.69c-27.59,-1.16 -79.58,1.51 -110.73,5.06 -31.18,3.57 -41.46,7.98 -49.64,13.55 -8.13,5.6 -14.14,12.32 -19.26,18.87 -5.08,6.58 -9.32,13.03 -12.45,17.95 -3.09,4.94 -5.09,8.32 -7.58,13.31 -2.49,5.01 -5.49,11.58 -6.32,15.97 -0.81,4.44 0.57,6.67 5.21,8.51 4.68,1.85 12.6,3.36 38.05,1.35 25.45,-1.92 68.38,-7.36 92.53,-10.82 24.14,-3.43 29.51,-4.97 35.73,-7.14 6.27,-2.17 13.41,-5.01 21.89,-10.56 8.49,-5.57 18.32,-13.86 25.5,-20.19 7.2,-6.3 11.73,-10.64 14.74,-16.08 3.05,-5.43 4.6,-12 3.81,-17.79 -0.8,-5.78 -3.91,-10.79 -31.48,-11.99zm-154.22 65.93l37.79 -58.49m7.07 49.57l28.38 -51.74m17.47 41.02l21.51 -45.61m18.72 38.15l19.09 -39.16m91.11 -84.07c-27.38,-3.57 -79.41,-5.43 -110.75,-4.61 -31.37,0.84 -42,4.34 -50.63,9.18 -8.6,4.86 -15.16,11.03 -20.83,17.11 -5.63,6.12 -10.43,12.17 -13.97,16.8 -3.5,4.65 -5.8,7.84 -8.71,12.6 -2.92,4.77 -6.48,11.05 -7.69,15.36 -1.19,4.35 -0.01,6.69 4.45,8.93 4.5,2.25 12.25,4.44 37.78,4.66 25.52,0.3 68.77,-1.37 93.13,-2.72 24.34,-1.31 29.82,-2.37 36.22,-3.99 6.43,-1.62 13.78,-3.83 22.72,-8.62 8.94,-4.81 19.46,-12.2 27.17,-17.89 7.71,-5.65 12.6,-9.57 16.08,-14.74 3.5,-5.14 5.63,-11.54 5.35,-17.38 -0.3,-5.83 -2.96,-11.09 -30.32,-14.69zm-159.38 52.23l42.74 -54.96m2.73 49.99l32.78 -49.07m13.83 42.39l25.41 -43.56m15.32 39.63l22.42 -37.35m98.09 -75.8c-26.96,-5.94 -78.63,-12.33 -109.92,-14.25 -31.33,-1.89 -42.23,0.66 -51.23,4.73 -8.99,4.1 -16.08,9.67 -22.25,15.24 -6.14,5.59 -11.45,11.2 -15.38,15.51 -3.9,4.32 -6.46,7.31 -9.78,11.8 -3.32,4.5 -7.41,10.45 -9,14.63 -1.56,4.22 -0.59,6.66 3.65,9.28 4.29,2.64 11.83,5.49 37.25,7.94 25.39,2.51 68.62,4.62 93,5.41 24.37,0.81 29.92,0.23 36.43,-0.83 6.54,-1.04 14.07,-2.61 23.39,-6.6 9.32,-4.01 20.45,-10.47 28.62,-15.46 8.18,-4.94 13.39,-8.43 17.31,-13.27 3.93,-4.82 6.61,-11.01 6.84,-16.85 0.21,-5.84 -1.98,-11.32 -28.93,-17.28zm-163.32 38.15l47.36 -51.04m-1.63 50.04l36.93 -46.03m10.08 43.44l29.11 -41.19m11.8 40.83l25.6 -35.26m104.33 -66.96c-26.34,-8.27 -77.26,-19.14 -108.26,-23.78 -31.04,-4.62 -42.13,-3.01 -51.45,0.25 -9.31,3.3 -16.86,8.23 -23.49,13.25 -6.61,5.03 -12.39,10.16 -16.67,14.11 -4.26,3.95 -7.08,6.71 -10.77,10.89 -3.71,4.2 -8.3,9.77 -10.24,13.78 -1.93,4.08 -1.18,6.6 2.82,9.58 4.04,3 11.3,6.5 36.41,11.15 25.07,4.72 67.96,10.59 92.17,13.5 24.21,2.93 29.79,2.84 36.37,2.35 6.61,-0.48 14.24,-1.38 23.87,-4.54 9.64,-3.19 21.28,-8.65 29.87,-12.9 8.58,-4.22 14.07,-7.24 18.4,-11.72 4.33,-4.46 7.54,-10.39 8.28,-16.19 0.71,-5.79 -0.99,-11.45 -27.31,-19.73zm-166.03 23.76l51.63 -46.72m-5.99 49.72l40.81 -42.63m6.26 44.14l32.58 -38.49m8.21 41.7l28.57 -32.89m109.76 -57.62c-25.52,-10.53 -75.3,-25.8 -105.78,-33.12 -30.52,-7.31 -41.69,-6.68 -51.27,-4.23 -9.56,2.46 -17.51,6.72 -24.56,11.14 -7.02,4.44 -13.22,9.05 -17.83,12.61 -4.59,3.56 -7.64,6.07 -11.69,9.9 -4.06,3.86 -9.11,9.01 -11.4,12.85 -2.26,3.89 -1.74,6.46 1.98,9.79 3.76,3.34 10.69,7.44 35.3,14.28 24.57,6.88 66.77,16.46 90.65,21.48 23.86,5.02 29.43,5.42 36.03,5.5 6.61,0.11 14.3,-0.12 24.17,-2.43 9.88,-2.34 21.95,-6.77 30.88,-10.25 8.91,-3.46 14.64,-6 19.35,-10.07 4.71,-4.07 8.41,-9.7 9.66,-15.41 1.22,-5.72 0.01,-11.49 -25.49,-22.04zm-167.46 9.21l55.51 -42.04m-10.31 49l44.37 -38.91m2.38 44.51l35.82 -35.5m4.54 42.26l31.33 -30.28m114.36 -47.83c-24.5,-12.71 -72.76,-32.27 -102.49,-42.22 -29.77,-9.94 -40.95,-10.28 -50.71,-8.68 -9.74,1.63 -18.02,5.17 -25.43,8.96 -7.38,3.81 -13.95,7.86 -18.86,11 -4.89,3.16 -8.14,5.38 -12.51,8.86 -4.38,3.49 -9.86,8.18 -12.47,11.8 -2.6,3.67 -2.31,6.29 1.12,9.92 3.45,3.65 10,8.35 33.92,17.31 23.87,9 65.08,22.21 88.43,29.3 23.33,7.08 28.85,7.96 35.41,8.61 6.58,0.69 14.26,1.13 24.29,-0.32 10.05,-1.46 22.46,-4.82 31.66,-7.51 9.17,-2.67 15.1,-4.69 20.15,-8.35 5.05,-3.64 9.23,-8.93 10.96,-14.51 1.72,-5.58 1.01,-11.44 -23.47,-24.17zm-167.63 -5.43l58.97 -37.04m-14.55 47.93l47.61 -34.9m-1.52 44.55l38.78 -32.25m0.84 42.49l33.85 -27.43m118.1 -37.67c-23.31,-14.8 -69.68,-38.5 -98.42,-50.99 -28.79,-12.51 -39.9,-13.82 -49.76,-13.07 -9.84,0.76 -18.41,3.58 -26.11,6.7 -7.7,3.15 -14.59,6.62 -19.76,9.32 -5.14,2.72 -8.58,4.65 -13.23,7.74 -4.67,3.08 -10.54,7.28 -13.45,10.67 -2.91,3.43 -2.85,6.05 0.25,9.98 3.11,3.93 9.23,9.19 32.28,20.19 22.99,11.04 62.9,27.8 85.54,36.89 22.62,9.09 28.04,10.45 34.52,11.67 6.5,1.27 14.11,2.38 24.23,1.8 10.13,-0.58 22.8,-2.84 32.2,-4.72 9.36,-1.87 15.45,-3.36 20.8,-6.57 5.35,-3.18 9.97,-8.08 12.18,-13.49 2.2,-5.41 2,-11.31 -21.27,-26.12zm-166.52 -20.02l61.97 -31.77m-18.67 46.48l50.47 -30.61m-5.4 44.24l41.45 -28.74m-2.87 42.4l36.1 -24.38m120.94 -27.23c-21.92,-16.77 -66.05,-44.43 -93.6,-59.38 -27.59,-14.97 -38.54,-17.24 -48.43,-17.35 -9.87,-0.1 -18.65,1.96 -26.6,4.4 -7.94,2.46 -15.11,5.32 -20.49,7.56 -5.36,2.26 -8.95,3.89 -13.85,6.55 -4.92,2.67 -11.14,6.34 -14.34,9.46 -3.19,3.16 -3.36,5.78 -0.62,9.96 2.77,4.19 8.41,9.96 30.4,22.93 21.94,13 60.24,33.18 82,44.2 21.74,11.04 27.02,12.86 33.38,14.64 6.36,1.83 13.84,3.6 23.97,3.9 10.14,0.31 22.96,-0.83 32.49,-1.89 9.5,-1.05 15.68,-2 21.29,-4.72 5.61,-2.72 10.64,-7.2 13.32,-12.39 2.66,-5.2 2.98,-11.1 -18.92,-27.87zm-164.13 -34.46l64.49 -26.24m-22.65 44.67l52.94 -26.1m-9.22 43.61l43.79 -25.03m-6.55 41.99l38.09 -21.14m122.84 -16.58c-20.37,-18.63 -61.92,-50.02 -88.07,-67.31 -26.17,-17.32 -36.88,-20.54 -46.72,-21.51 -9.83,-0.96 -18.75,0.33 -26.88,2.06 -8.13,1.76 -15.52,3.99 -21.07,5.75 -5.55,1.78 -9.26,3.1 -14.37,5.32 -5.13,2.23 -11.66,5.34 -15.11,8.18 -3.46,2.86 -3.86,5.46 -1.49,9.87 2.39,4.41 7.51,10.65 28.29,25.49 20.72,14.86 57.11,38.3 77.83,51.18 20.7,12.88 25.8,15.16 31.98,17.49 6.18,2.37 13.47,4.79 23.54,5.97 10.07,1.2 22.95,1.18 32.53,0.95 9.55,-0.21 15.8,-0.63 21.62,-2.85 5.83,-2.21 11.23,-6.24 14.35,-11.17 3.1,-4.95 3.93,-10.8 -16.43,-29.42zm-160.49 -48.63l66.53 -20.53m-26.46 42.53l55.02 -21.39m-12.99 42.65l45.8 -21.12m-10.18 41.26l39.79 -17.74m123.82 -5.82c-18.68,-20.33 -57.33,-55.22 -81.87,-74.72 -24.57,-19.53 -34.96,-23.68 -44.68,-25.5 -9.7,-1.82 -18.69,-1.32 -26.95,-0.29 -8.26,1.05 -15.81,2.61 -21.49,3.89 -5.68,1.3 -9.5,2.28 -14.78,4.04 -5.3,1.77 -12.08,4.31 -15.76,6.83 -3.7,2.56 -4.32,5.1 -2.35,9.7 2,4.6 6.56,11.28 25.96,27.87 19.35,16.6 53.56,43.13 73.08,57.76 19.5,14.64 24.38,17.36 30.33,20.22 5.95,2.9 13,5.94 22.93,8 9.93,2.06 22.76,3.16 32.32,3.77 9.54,0.63 15.8,0.77 21.79,-0.95 6,-1.69 11.73,-5.24 15.27,-9.88 3.52,-4.66 4.86,-10.42 -13.8,-30.74zm-155.64 -62.43l68.06 -14.65m-30.07 40.06l56.67 -16.51m-16.65 41.35l47.47 -17.04m-13.75 40.21l41.2 -14.19m123.85 4.99c-16.83,-21.89 -52.3,-60.01 -75.05,-81.58 -22.76,-21.6 -32.75,-26.64 -42.28,-29.3 -9.5,-2.66 -18.51,-2.94 -26.82,-2.64 -8.32,0.33 -15.99,1.23 -21.76,2.01 -5.77,0.79 -9.66,1.44 -15.07,2.73 -5.44,1.31 -12.4,3.25 -16.3,5.44 -3.91,2.22 -4.75,4.7 -3.17,9.45 1.58,4.76 5.54,11.81 23.42,30.03 17.84,18.23 49.6,47.63 67.76,63.91 18.16,16.28 22.78,19.42 28.46,22.79 5.67,3.4 12.43,7.05 22.15,9.96 9.71,2.93 22.39,5.14 31.86,6.58 9.45,1.45 15.68,2.14 21.79,0.96 6.13,-1.18 12.15,-4.2 16.08,-8.52 3.91,-4.33 5.74,-9.96 -11.07,-31.82zm-149.61 -75.76l69.08 -8.67m-33.44 37.28l57.89 -11.5m-20.19 39.74l48.77 -12.84m-17.2 38.87l42.27 -10.56"/>
  <path class="fil0 str1" d="M1448.61 732.5c51.42,-166.05 190.36,-95.28 200.39,-5.41m-285.29 20.49c33.78,-170.52 179.37,-114.66 198.73,-26.33m-281.58 50.2c15.76,-173.12 166.39,-132.78 194.88,-46.96m-274.79 79.36c-2.42,-173.82 151.6,-149.45 188.92,-67.08m-264.99 107.65c-20.59,-172.6 135.14,-164.47 180.86,-86.46m-252.28 134.77c-38.52,-169.51 117.21,-177.7 170.83,-104.9m-236.81 160.41c-56.03,-164.57 97.99,-188.98 158.93,-122.18m-218.75 184.28c-72.93,-157.81 77.7,-198.19 145.28,-138.13m-198.29 206.14c-89.01,-149.32 56.57,-205.23 130.06,-152.57m-175.66 225.75c-104.13,-139.2 34.8,-210.02 113.4,-165.33m-151.1 242.87c-118.11,-127.54 12.66,-212.5 95.49,-176.27m-124.88 257.33c-130.79,-114.5 -9.63,-212.66 76.54,-185.29m-97.3 268.97c-142.05,-100.19 -31.8,-210.48 56.76,-192.26m-68.65 277.66c-151.75,-84.8 -53.64,-206 36.35,-197.15m-39.26 283.33c-159.78,-68.47 -74.87,-199.27 15.55,-199.87m-9.42 285.88c-166.07,-51.4 -95.3,-190.35 -5.44,-200.4m20.51 285.3c-170.53,-33.77 -114.67,-179.36 -26.35,-198.74m50.22 281.59c-173.13,-15.75 -132.79,-166.39 -46.98,-194.89m79.38 274.8c-173.83,2.43 -149.46,-151.6 -67.1,-188.92m107.66 265c-172.6,20.59 -164.48,-135.15 -86.47,-180.87m134.78 252.29c-169.51,38.52 -177.71,-117.21 -104.91,-170.84m160.41 236.81c-164.55,56.05 -188.98,-97.99 -122.18,-158.93m184.27 218.75c-157.79,72.94 -198.19,-77.7 -138.12,-145.28m206.13 198.29c-149.3,89.02 -205.23,-56.56 -152.56,-130.06m225.74 175.66c-139.18,104.14 -210.02,-34.8 -165.32,-113.4m242.86 151.1c-127.52,118.12 -212.51,-12.65 -176.27,-95.49m257.33 124.88c-114.48,130.8 -212.67,9.63 -185.28,-76.53m268.96 97.29c-100.17,142.05 -210.49,31.8 -192.26,-56.74m277.66 68.63c-84.78,151.75 -206.01,53.64 -197.15,-36.33m283.32 39.24c-68.44,159.77 -199.27,74.87 -199.86,-15.52m285.87 9.4c-51.37,166.05 -190.35,95.29 -200.39,5.46m285.29 -20.53c-33.74,170.51 -179.36,114.66 -198.73,26.37m281.58 -50.24c-15.73,173.11 -166.39,132.78 -194.88,47m274.79 -79.39c2.44,173.8 -151.6,149.44 -188.91,67.11m264.98 -107.68c20.61,172.58 -135.14,164.47 -180.84,86.49m252.26 -134.8c38.54,169.49 -117.21,177.7 -170.8,104.93m236.78 -160.43c56.05,164.54 -97.99,188.97 -158.9,122.2m218.72 -184.29c72.95,157.77 -77.7,198.18 -145.25,138.14m198.26 -206.14c89.03,149.27 -56.57,205.21 -130.03,152.56m175.63 -225.74c104.15,139.15 -34.8,210.01 -113.37,165.32m151.07 -242.86c118.13,127.5 -12.66,212.49 -95.46,176.26m124.86 -257.32c130.8,114.46 9.62,212.65 -76.51,185.28m97.27 -268.96c142.05,100.15 31.79,210.47 -56.72,192.25m68.62 -277.65c151.74,84.76 53.62,205.99 -36.32,197.14m39.23 -283.31c159.76,68.42 74.85,199.26 -15.51,199.85m9.4 -285.86c166.03,51.35 95.26,190.34 5.46,200.38m-20.53 -285.28c170.49,33.72 114.63,179.35 26.37,198.72m-50.24 -281.57c173.09,15.71 132.75,166.38 47,194.87m-79.4 -274.78c173.79,-2.46 149.42,151.59 67.12,188.9m-107.68 -264.97c172.56,-20.63 164.44,135.13 86.49,180.83m-134.79 -252.26c169.46,-38.55 177.66,117.2 104.92,170.8m-160.42 -236.78c164.5,-56.05 188.93,97.99 122.19,158.89m-184.28 -218.72c157.74,-72.94 198.14,77.71 138.13,145.25m-206.13 -198.26c149.24,-89.02 205.17,56.57 152.55,130.02m-225.73 -175.63c139.12,-104.13 209.96,34.82 165.31,113.37m-242.85 -151.07c127.47,-118.11 212.45,12.67 176.25,95.46m-257.31 -124.86c114.43,-130.78 212.61,-9.6 185.26,76.51m-268.94 -97.27c100.12,-142.03 210.43,-31.77 192.24,56.72m-277.64 -68.62c84.73,-151.72 205.95,-53.6 197.12,36.32m-283.3 -39.23c68.4,-159.74 199.23,-74.83 199.83,15.51m-285.84 -9.4c51.33,-166.01 190.31,-95.24 200.36,-5.46m-285.26 20.53c33.7,-170.46 179.32,-114.61 198.69,-26.37m-281.54 50.24c15.69,-173.06 166.35,-132.73 194.84,-47m-274.75 79.39c-2.48,-173.75 151.56,-149.39 188.87,-67.11m-264.95 107.68c-20.64,-172.53 135.11,-164.42 180.81,-86.49m-252.24 134.8c-38.55,-169.44 117.19,-177.65 170.78,-104.93m-236.77 160.43c-56.04,-164.49 97.98,-188.92 158.88,-122.2m-218.71 184.29c-72.93,-157.72 77.7,-198.13 145.24,-138.13m-198.25 206.14c-89.01,-149.23 56.57,-205.17 130.01,-152.56m-175.62 225.74c-104.12,-139.11 34.81,-209.97 113.36,-165.32m-151.06 242.86c-118.1,-127.46 12.67,-212.45 95.45,-176.26m-124.85 257.32c-130.77,-114.42 -9.61,-212.61 76.5,-185.27m-97.26 268.95c-142.02,-100.11 -31.78,-210.43 56.71,-192.23"/>
  <circle class="fil0 str1" cx="1550" cy="1550" r="936.65"/>
  <polygon class="fil1" points="366.5,2034.12 306.89,1865.73 521.02,1789.9 531.12,1818.37 342.23,1885.24 381.77,1996.84 570.64,1929.98 580.69,1958.29 "/>
  <path id="_1" class="fil1" d="M576.65 1719.38l-225.94 27.06 -3.04 -25.19 21.23 -2.57c-8.99,-4.93 -16.02,-10.92 -21.1,-17.92 -5.01,-6.98 -8.17,-15.83 -9.49,-26.46 -1.67,-13.97 0.46,-26.67 6.35,-38.2 5.95,-11.53 15.11,-20.78 27.5,-27.8 12.45,-7.02 26.43,-11.45 42.04,-13.28 16.72,-2.04 32.12,-0.8 46.18,3.55 14.13,4.41 25.44,11.89 33.9,22.48 8.5,10.6 13.52,22.19 15.04,34.79 1.09,9.26 0.13,17.78 -2.89,25.56 -3.03,7.77 -7.22,14.38 -12.62,19.82l79.54 -9.53 3.3 27.69zm-146.36 -7.87c21.07,-2.56 36.04,-8.63 45.11,-18.36 9.01,-9.72 12.84,-20.61 11.36,-32.74 -1.46,-12.28 -7.96,-22.23 -19.38,-29.7 -11.47,-7.54 -28.13,-10 -49.94,-7.38 -20.85,2.46 -35.88,8.63 -45.26,18.41 -9.34,9.83 -13.27,20.68 -11.85,32.58 1.42,11.76 8.18,21.55 20.28,29.3 12.11,7.74 28.67,10.41 49.68,7.89z"/>
  <path id="_2" class="fil1" d="M305.25 1528.76l-32.07 -0.88 0.73 -27.89 32.07 0.88 -0.73 27.89zm194.97 5.33l-164.49 -4.5 0.79 -27.89 164.49 4.5 -0.79 27.89z"/>
  <path id="_3" class="fil1" d="M435.58 1401.95l-21.7 -2.61c1.3,-11.7 1.83,-19.75 1.56,-24.08 -0.33,-4.34 -2.29,-8.68 -5.95,-12.96 -3.66,-4.34 -8.52,-6.82 -14.66,-7.61 -7.52,-0.88 -13.76,0.87 -18.84,5.32 -5.07,4.4 -8.08,10.59 -9.03,18.49 -1.93,15.61 5.97,27.61 23.55,36.1l-7.53 25.79c-29.65,-11.92 -42.59,-33.6 -38.77,-64.99 2.15,-17.41 8.53,-30.49 19.31,-39.24 10.74,-8.75 22.69,-12.3 35.92,-10.68 13.35,1.63 23.2,9.34 29.51,23.24 5.38,-7.67 11.79,-13.13 19.08,-16.43 7.3,-3.23 15.66,-4.3 24.98,-3.2 14.66,1.78 25.88,8.58 33.73,20.33 7.85,11.79 10.56,27.24 8.26,46.44 -4.56,37.21 -23.74,56.76 -57.55,58.71l-2.36 -26.67c10.74,-1.06 19.41,-4.88 26.02,-11.4 6.61,-6.58 10.51,-14.46 11.6,-23.83 1.16,-9.32 -0.54,-17.41 -5.05,-24.23 -4.56,-6.87 -10.91,-10.78 -19.12,-11.78 -6.35,-0.78 -12.12,0.5 -17.3,3.84 -5.18,3.29 -8.67,7.1 -10.36,11.39 -1.73,4.23 -3.26,12.18 -4.67,23.76 -0.11,0.9 -0.31,3.01 -0.63,6.3z"/>
  <path id="_4" class="fil1" d="M374.48 1235.3l19.97 -61.08c4.9,-15.01 9.84,-25.8 14.71,-32.29 4.92,-6.5 11.54,-11.27 19.93,-14.3 8.38,-3.09 17.28,-3.11 26.57,-0.06 7.48,2.47 13.49,6.13 18.03,11.01 4.49,4.93 7.61,11.11 9.31,18.5 4.86,-6.56 11.5,-11.16 19.78,-13.82 8.34,-2.66 17.07,-2.47 26.31,0.52 14.49,5.85 23.77,14.72 27.79,26.7 4.01,11.97 3.03,27.12 -3,45.48l-23.07 70.53 -156.33 -51.19zm74.47 -4.96l9.24 -28.28c3.71,-11.26 5.66,-19.21 5.83,-23.81 0.23,-4.61 -0.92,-9.15 -3.4,-13.68 -2.52,-4.53 -6.25,-7.57 -11.24,-9.22 -8.28,-2.69 -14.93,-1.68 -20.08,3.14 -5.2,4.74 -10.04,14.2 -14.68,28.32l-9.55 29.19 43.88 14.34zm68.72 22.49l11.46 -34.86c4.9,-15.02 6.5,-25.93 4.85,-32.63 -1.64,-6.77 -6.65,-11.65 -15.15,-14.75 -4.99,-1.65 -10.17,-1.55 -15.5,0.29 -5.33,1.84 -9.37,5.21 -12.19,10.05 -2.87,4.78 -6.14,12.96 -9.91,24.43l-10.52 32.1 46.96 15.37z"/>
  <polygon id="_5" class="fil1" points="447.63,1038.45 460.16,1013.55 572.18,1070.04 494.95,944.56 508.48,917.69 655.37,991.76 642.84,1016.67 531.46,960.5 608.04,1085.65 594.51,1112.51 "/>
  <polygon id="_6" class="fil1" points="564.29,832.93 582.55,811.92 689.45,904.78 731.09,856.83 624.24,763.97 642.49,742.91 749.34,835.76 791.14,787.76 684.28,694.85 702.43,673.95 809.28,766.8 821.4,752.88 873.9,798.49 858.77,815.95 823.58,785.37 688.45,940.86 "/>
  <path id="_7" class="fil1" d="M937.38 633.28l25.59 -13.71c6.04,16.38 6.69,31.89 2,46.62 -4.63,14.69 -14.77,27.54 -30.38,38.56 -19.67,13.91 -39.54,18.88 -59.63,14.96 -20.08,-3.99 -37.84,-16.9 -53.33,-38.74 -15.95,-22.63 -22.55,-44.26 -19.72,-64.99 2.81,-20.72 13.5,-37.65 32.04,-50.78 17.96,-12.75 36.98,-16.97 57.01,-12.78 20.04,4.13 37.95,17.31 53.65,39.52 0.94,1.33 2.31,3.4 4.14,6.16l-100.21 70.91c11.24,14.14 23.41,22.53 36.47,25.03 13.05,2.56 25.24,-0.16 36.45,-8.09 8.35,-5.88 13.94,-13.16 16.75,-21.7 2.8,-8.57 2.48,-18.89 -0.83,-30.97zm-100.86 16.08l75.04 -53.06c-8.99,-10.59 -17.84,-17.04 -26.56,-19.37 -13.47,-3.61 -25.97,-1.36 -37.56,6.83 -10.46,7.4 -16.77,17.09 -18.95,29.15 -2.19,12.06 0.49,24.19 8.03,36.45z"/>
  <polygon id="_8" class="fil1" points="1112.61,595.52 1017.91,389 1045.25,376.45 1139.95,582.98 "/>
  <polygon id="_9" class="fil1" points="1158.69,398.5 1200.56,387.11 1276.96,502.83 1288.66,363.09 1327.41,352.53 1370.68,511.34 1343.81,518.69 1308.91,390.83 1296.84,531.47 1272.72,538.05 1191.82,416.17 1228.36,550.15 1202.02,557.36 "/>
  <polygon id="_10" class="fil1" points="1413.14,361.43 1401.02,320.14 1396.53,282.46 1428.07,278.69 1432.57,316.37 1430.24,359.38 "/>
  <path id="_11" class="fil1" d="M1641.58 337.48l-4.5 164.49 -27.74 -0.73 1.75 -64.15 -16.09 -0.41c-9.84,-0.27 -17.14,0.76 -22.05,3.17 -4.86,2.4 -12.08,10.36 -21.65,23.84l-25.3 35.24 -34.51 -0.91 31.25 -43.47c9.57,-13.32 18.91,-20.66 28.06,-22.18 -15.89,-2.64 -27.5,-8.67 -34.95,-18.17 -7.44,-9.5 -10.98,-20.33 -10.66,-32.4 0.36,-14.23 5.71,-25.68 16.05,-34.24 10.28,-8.62 25.02,-12.7 44.13,-12.15l76.21 2.07zm-28.37 22.35l-39.65 -1.11c-16.61,-0.46 -27.4,1.86 -32.35,6.85 -4.95,5.06 -7.53,11.04 -7.7,17.98 -0.28,9.78 3.09,17.07 10.03,21.86 6.96,4.78 19.4,7.44 37.34,7.94l30.85 0.83 1.48 -54.35z"/>
  <polygon id="_12" class="fil1" points="1835.63,303.84 2007.9,351.1 1947.8,570.13 1918.64,562.15 1971.66,369 1857.54,337.62 1804.52,530.83 1775.52,522.85 "/>
  <path id="_13" class="fil1" d="M2036.45 523.28c15.3,-26.35 33.98,-41.64 55.99,-45.82 18.36,-3.44 36.35,-0.11 53.97,10.11 19.58,11.38 31.86,27.05 36.83,47.1 4.97,20 0.95,41.32 -12.18,63.97 -10.63,18.31 -21.75,31.11 -33.33,38.47 -11.59,7.3 -24.3,10.84 -38.16,10.53 -13.92,-0.27 -27.04,-4.02 -39.47,-11.23 -19.95,-11.53 -32.33,-27.24 -37.19,-47.2 -4.92,-19.9 -0.37,-41.85 13.54,-65.93zm24.82 14.4c-10.59,18.25 -14.5,34.18 -11.8,47.89 2.7,13.7 10.04,24.02 22.16,31 11.96,6.93 24.56,8.16 37.79,3.66 13.28,-4.5 25.29,-16.09 36.14,-34.77 10.22,-17.62 13.92,-33.28 11.22,-46.98 -2.75,-13.71 -10.05,-24.03 -21.96,-30.92 -12.06,-6.97 -24.71,-8.29 -37.88,-3.86 -13.17,4.39 -25.08,15.72 -35.67,33.98z"/>
  <path id="_14" class="fil1" d="M2477.46 662.14l17.63 17.18c-8.43,7.23 -15.51,11.12 -21.22,11.68 -5.71,0.49 -11.17,-0.8 -16.32,-4.02 -5.14,-3.15 -14.01,-10.74 -26.6,-22.69 -16.68,-15.87 -29.58,-25.07 -38.69,-27.63 -9.11,-2.56 -18.37,-1.56 -27.77,2.97 -9.34,4.54 -19.53,12.25 -30.38,23.15 12.26,-2.76 23.58,-2.75 33.97,-0.03 10.44,2.7 19.88,8.06 28.43,16.18 15.62,14.91 23.47,32.55 23.5,53.03 0.02,20.48 -8.67,39.88 -26.12,58.21 -13.22,13.92 -26.63,22.85 -40.26,26.88 -13.64,3.97 -26.34,5.09 -37.99,3.17 -11.7,-1.85 -23.68,-8.58 -35.85,-20.17 -14.13,-13.43 -22.07,-27.16 -23.77,-41.07 -1.7,-13.96 0.15,-27.95 5.59,-42.04 5.41,-14.1 20.04,-33.68 43.91,-58.7 29.92,-31.5 55.42,-47.64 76.48,-48.42 21.05,-0.83 42.63,9.35 64.78,30.43 13.76,13.07 21.78,20.29 24.12,21.6 2.27,1.31 4.45,1.41 6.56,0.29zm-104.13 107.42c11.8,-12.43 18.58,-25.37 20.22,-38.87 1.68,-13.56 -2.81,-25.39 -13.54,-35.56 -11.15,-10.59 -23.71,-14.62 -37.72,-11.96 -14.07,2.59 -27.74,10.9 -41.02,24.88 -13.17,13.86 -19.89,27.59 -20.15,41.3 -0.32,13.71 4.44,25.22 14.27,34.55 10.04,9.54 22.17,13.04 36.5,10.49 14.33,-2.55 28.16,-10.86 41.44,-24.83z"/>
  <path id="_15" class="fil1" d="M2442.74 960.04c-13.16,-3.35 -23.93,-7.91 -32.41,-13.63 -8.49,-5.71 -15.86,-13.05 -22.21,-21.98 -10.44,-14.78 -14.86,-28.67 -13.25,-41.72 1.61,-13.01 8.02,-23.51 19.23,-31.43 6.6,-4.67 13.65,-7.44 21.22,-8.3 7.57,-0.85 14.71,-0.01 21.42,2.51 6.76,2.53 13.09,6.27 19.09,11.12 4.31,3.62 10.21,9.59 17.72,17.83 15.2,16.86 27.36,28.53 36.58,35.08 3.19,-2.09 5.21,-3.45 6,-4.08 9.3,-6.57 14.32,-13.31 15.1,-20.29 1.01,-9.46 -2.53,-19.97 -10.67,-31.44 -7.56,-10.69 -15.03,-17.29 -22.37,-19.76 -7.4,-2.43 -16.71,-1.53 -27.96,2.8l-12.71 -24.42c10.98,-4.76 20.99,-6.87 30.14,-6.34 9.15,0.48 18.39,3.97 27.77,10.54 9.39,6.56 18.17,15.61 26.31,27.14 8.13,11.48 13.36,21.77 15.74,30.83 2.38,9.07 2.71,16.74 1.03,23.03 -1.72,6.29 -5.2,12.3 -10.53,18.04 -3.3,3.52 -10.05,8.83 -20.19,16.02l-30.35 21.47c-21.2,14.96 -34.22,24.93 -39.17,29.88 -4.9,4.94 -8.95,10.63 -12.06,17.17l-16.85 -23.8c3.1,-5.69 7.53,-11.12 13.38,-16.27zm49.54 -37.87c-9.23,-5.92 -20.86,-16.25 -34.91,-31.16 -7.99,-8.4 -14.2,-13.94 -18.63,-16.61 -4.43,-2.73 -9.03,-3.97 -13.74,-3.79 -4.76,0.19 -9.11,1.7 -13.09,4.53 -6.06,4.25 -9.49,10.16 -10.27,17.61 -0.84,7.46 1.92,15.62 8.16,24.5 6.2,8.77 13.68,15.21 22.33,19.34 8.66,4.12 17.49,5.4 26.44,3.91 6.83,-1.18 15.33,-5.37 25.37,-12.45l8.34 -5.88z"/>
  <polygon id="_16" class="fil1" points="2608.97,952.46 2668.09,1072.44 2647.38,1082.62 2623.99,1035.11 2497,1097.63 2484.73,1072.72 2611.71,1010.21 2588.27,962.64 "/>
  <path id="_17" class="fil1" d="M2696.66 1141.55l7.36 26.93 -62.07 16.93 9.32 34.08c6.05,22.21 6.42,40.52 1.04,54.88 -5.33,14.36 -15.59,23.61 -30.75,27.76 -13.25,3.62 -25.94,1.69 -38.12,-5.74 -12.13,-7.49 -21.19,-22.2 -27.25,-44.25l-18.33 -67.31 158.8 -43.28zm-129.34 64.2l7.72 28.25c4.65,17.02 10.09,28.64 16.24,34.76 6.16,6.13 13.71,8.02 22.56,5.59 6.89,-1.87 12.27,-6.22 16.22,-13.08 3.91,-6.86 3.34,-19.51 -1.68,-37.95l-8.7 -31.86 -52.36 14.29z"/>
  <path id="_18" class="fil1" d="M2747.88 1341.8l3.3 27.69 -70.6 8.47c1.04,8.79 3.47,14.77 7.28,17.89 3.8,3.14 14.28,7.17 31.41,12.11 13.54,3.89 22.59,7.28 27.14,10.15 4.49,2.92 7.71,6.46 9.67,10.7 1.94,4.23 3.53,11.22 4.68,20.96l0.67 5.56 -22.91 2.72 -0.78 -7.67c-0.84,-7.31 -2.47,-11.86 -4.91,-13.66 -2.48,-1.86 -9.62,-4.35 -21.31,-7.39 -11.16,-2.97 -18.99,-5.9 -23.54,-8.92 -4.49,-2.96 -8.88,-7.89 -13.16,-14.77 -1.76,12.27 -11.4,25.27 -29,39.01l-46.98 36.4 -3.66 -30.49 47.09 -35.6c9.42,-7.24 15.46,-13.32 18.17,-18.23 2.71,-4.93 3.67,-10.48 2.88,-16.72l-75.52 9.05 -3.3 -27.74 163.38 -19.52z"/>
  <path id="_19" class="fil1" d="M2683.72 1511.84c30.42,0.82 52.8,9.89 67,27.23 11.81,14.51 17.44,31.89 16.83,52.26 -0.6,22.61 -8.51,40.89 -23.69,54.82 -15.23,13.93 -35.9,20.58 -62.05,19.84 -21.16,-0.55 -37.69,-4.18 -49.68,-10.85 -11.93,-6.67 -21.12,-16.22 -27.52,-28.52 -6.35,-12.3 -9.37,-25.68 -8.96,-40.02 0.6,-23.02 8.51,-41.41 23.64,-55.24 15.19,-13.76 36.65,-20.31 64.43,-19.52zm-0.79 28.63c-21.06,-0.55 -36.96,3.59 -47.67,12.53 -10.76,8.87 -16.33,20.32 -16.69,34.25 -0.36,13.8 4.55,25.48 14.86,34.96 10.25,9.49 26.2,14.51 47.79,15.1 20.33,0.56 35.86,-3.64 46.62,-12.57 10.71,-9 16.27,-20.34 16.64,-34.05 0.42,-13.97 -4.5,-25.65 -14.7,-35.12 -10.15,-9.49 -25.77,-14.5 -46.85,-15.1z"/>
  <path id="_20" class="fil1" d="M2749.8 1751.17l-14.78 62.58c-3.62,15.34 -7.62,26.49 -11.97,33.36 -4.3,6.88 -10.55,12.21 -18.66,16 -8.1,3.75 -16.94,4.47 -26.46,2.22 -7.67,-1.8 -13.96,-4.94 -18.88,-9.46 -4.9,-4.5 -8.55,-10.38 -10.86,-17.63 -4.3,6.98 -10.5,12.09 -18.55,15.46 -8.05,3.32 -16.83,3.89 -26.25,1.64 -14.97,-4.57 -24.95,-12.69 -29.96,-24.29 -5,-11.54 -5.29,-26.78 -0.81,-45.56l17.08 -72.2 160.1 37.88zm-73.79 11.18l-6.88 28.94c-2.72,11.58 -4.01,19.67 -3.8,24.28 0.2,4.6 1.72,9.05 4.57,13.34 2.85,4.29 6.87,7 12,8.23 8.41,1.97 15.03,0.4 19.75,-4.78 4.72,-5.23 8.81,-15.06 12.23,-29.5l7.04 -29.88 -44.91 -10.63zm-70.4 -16.64l-8.48 35.7c-3.63,15.39 -4.34,26.4 -2.13,32.96 2.22,6.57 7.66,11.03 16.33,13.43 5.13,1.17 10.26,0.65 15.39,-1.61 5.2,-2.33 8.96,-5.97 11.41,-11.05 2.39,-5.01 4.99,-13.43 7.77,-25.17l7.8 -32.9 -48.09 -11.36z"/>
  <path id="_21" class="fil1" d="M2728.06 1953.23l30.46 9.96 -8.67 26.53 -30.45 -10.01 8.66 -26.48zm-185.35 -60.68l156.33 51.19 -8.67 26.47 -156.33 -51.12 8.67 -26.54z"/>
  <polygon id="_22" class="fil2 str2" points="366.5,2034.12 306.89,1865.73 521.02,1789.9 531.12,1818.37 342.23,1885.24 381.77,1996.84 570.64,1929.98 580.69,1958.29 "/>
  <path id="_23" class="fil2 str2" d="M576.65 1719.38l-225.94 27.06 -3.04 -25.19 21.23 -2.57c-8.99,-4.93 -16.02,-10.92 -21.1,-17.92 -5.01,-6.98 -8.17,-15.83 -9.49,-26.46 -1.67,-13.97 0.46,-26.67 6.35,-38.2 5.95,-11.53 15.11,-20.78 27.5,-27.8 12.45,-7.02 26.43,-11.45 42.04,-13.28 16.72,-2.04 32.12,-0.8 46.18,3.55 14.13,4.41 25.44,11.89 33.9,22.48 8.5,10.6 13.52,22.19 15.04,34.79 1.09,9.26 0.13,17.78 -2.89,25.56 -3.03,7.77 -7.22,14.38 -12.62,19.82l79.54 -9.53 3.3 27.69zm-146.36 -7.87c21.07,-2.56 36.04,-8.63 45.11,-18.36 9.01,-9.72 12.84,-20.61 11.36,-32.74 -1.46,-12.28 -7.96,-22.23 -19.38,-29.7 -11.47,-7.54 -28.13,-10 -49.94,-7.38 -20.85,2.46 -35.88,8.63 -45.26,18.41 -9.34,9.83 -13.27,20.68 -11.85,32.58 1.42,11.76 8.18,21.55 20.28,29.3 12.11,7.74 28.67,10.41 49.68,7.89z"/>
  <path id="_24" class="fil2 str2" d="M305.25 1528.76l-32.07 -0.88 0.73 -27.89 32.07 0.88 -0.73 27.89zm194.97 5.33l-164.49 -4.5 0.79 -27.89 164.49 4.5 -0.79 27.89z"/>
  <path id="_25" class="fil2 str2" d="M435.58 1401.95l-21.7 -2.61c1.3,-11.7 1.83,-19.75 1.56,-24.08 -0.33,-4.34 -2.29,-8.68 -5.95,-12.96 -3.66,-4.34 -8.52,-6.82 -14.66,-7.61 -7.52,-0.88 -13.76,0.87 -18.84,5.32 -5.07,4.4 -8.08,10.59 -9.03,18.49 -1.93,15.61 5.97,27.61 23.55,36.1l-7.53 25.79c-29.65,-11.92 -42.59,-33.6 -38.77,-64.99 2.15,-17.41 8.53,-30.49 19.31,-39.24 10.74,-8.75 22.69,-12.3 35.92,-10.68 13.35,1.63 23.2,9.34 29.51,23.24 5.38,-7.67 11.79,-13.13 19.08,-16.43 7.3,-3.23 15.66,-4.3 24.98,-3.2 14.66,1.78 25.88,8.58 33.73,20.33 7.85,11.79 10.56,27.24 8.26,46.44 -4.56,37.21 -23.74,56.76 -57.55,58.71l-2.36 -26.67c10.74,-1.06 19.41,-4.88 26.02,-11.4 6.61,-6.58 10.51,-14.46 11.6,-23.83 1.16,-9.32 -0.54,-17.41 -5.05,-24.23 -4.56,-6.87 -10.91,-10.78 -19.12,-11.78 -6.35,-0.78 -12.12,0.5 -17.3,3.84 -5.18,3.29 -8.67,7.1 -10.36,11.39 -1.73,4.23 -3.26,12.18 -4.67,23.76 -0.11,0.9 -0.31,3.01 -0.63,6.3z"/>
  <path id="_26" class="fil2 str2" d="M374.48 1235.3l19.97 -61.08c4.9,-15.01 9.84,-25.8 14.71,-32.29 4.92,-6.5 11.54,-11.27 19.93,-14.3 8.38,-3.09 17.28,-3.11 26.57,-0.06 7.48,2.47 13.49,6.13 18.03,11.01 4.49,4.93 7.61,11.11 9.31,18.5 4.86,-6.56 11.5,-11.16 19.78,-13.82 8.34,-2.66 17.07,-2.47 26.31,0.52 14.49,5.85 23.77,14.72 27.79,26.7 4.01,11.97 3.03,27.12 -3,45.48l-23.07 70.53 -156.33 -51.19zm74.47 -4.96l9.24 -28.28c3.71,-11.26 5.66,-19.21 5.83,-23.81 0.23,-4.61 -0.92,-9.15 -3.4,-13.68 -2.52,-4.53 -6.25,-7.57 -11.24,-9.22 -8.28,-2.69 -14.93,-1.68 -20.08,3.14 -5.2,4.74 -10.04,14.2 -14.68,28.32l-9.55 29.19 43.88 14.34zm68.72 22.49l11.46 -34.86c4.9,-15.02 6.5,-25.93 4.85,-32.63 -1.64,-6.77 -6.65,-11.65 -15.15,-14.75 -4.99,-1.65 -10.17,-1.55 -15.5,0.29 -5.33,1.84 -9.37,5.21 -12.19,10.05 -2.87,4.78 -6.14,12.96 -9.91,24.43l-10.52 32.1 46.96 15.37z"/>
  <polygon id="_27" class="fil2 str2" points="447.63,1038.45 460.16,1013.55 572.18,1070.04 494.95,944.56 508.48,917.69 655.37,991.76 642.84,1016.67 531.46,960.5 608.04,1085.65 594.51,1112.51 "/>
  <polygon id="_28" class="fil2 str2" points="564.29,832.93 582.55,811.92 689.45,904.78 731.09,856.83 624.24,763.97 642.49,742.91 749.34,835.76 791.14,787.76 684.28,694.85 702.43,673.95 809.28,766.8 821.4,752.88 873.9,798.49 858.77,815.95 823.58,785.37 688.45,940.86 "/>
  <path id="_29" class="fil2 str2" d="M937.38 633.28l25.59 -13.71c6.04,16.38 6.69,31.89 2,46.62 -4.63,14.69 -14.77,27.54 -30.38,38.56 -19.67,13.91 -39.54,18.88 -59.63,14.96 -20.08,-3.99 -37.84,-16.9 -53.33,-38.74 -15.95,-22.63 -22.55,-44.26 -19.72,-64.99 2.81,-20.72 13.5,-37.65 32.04,-50.78 17.96,-12.75 36.98,-16.97 57.01,-12.78 20.04,4.13 37.95,17.31 53.65,39.52 0.94,1.33 2.31,3.4 4.14,6.16l-100.21 70.91c11.24,14.14 23.41,22.53 36.47,25.03 13.05,2.56 25.24,-0.16 36.45,-8.09 8.35,-5.88 13.94,-13.16 16.75,-21.7 2.8,-8.57 2.48,-18.89 -0.83,-30.97zm-100.86 16.08l75.04 -53.06c-8.99,-10.59 -17.84,-17.04 -26.56,-19.37 -13.47,-3.61 -25.97,-1.36 -37.56,6.83 -10.46,7.4 -16.77,17.09 -18.95,29.15 -2.19,12.06 0.49,24.19 8.03,36.45z"/>
  <polygon id="_30" class="fil2 str2" points="1112.61,595.52 1017.91,389 1045.25,376.45 1139.95,582.98 "/>
  <polygon id="_31" class="fil2 str2" points="1158.69,398.5 1200.56,387.11 1276.96,502.83 1288.66,363.09 1327.41,352.53 1370.68,511.34 1343.81,518.69 1308.91,390.83 1296.84,531.47 1272.72,538.05 1191.82,416.17 1228.36,550.15 1202.02,557.36 "/>
  <polygon id="_32" class="fil2 str2" points="1413.14,361.43 1401.02,320.14 1396.53,282.46 1428.07,278.69 1432.57,316.37 1430.24,359.38 "/>
  <path id="_33" class="fil2 str2" d="M1641.58 337.48l-4.5 164.49 -27.74 -0.73 1.75 -64.15 -16.09 -0.41c-9.84,-0.27 -17.14,0.76 -22.05,3.17 -4.86,2.4 -12.08,10.36 -21.65,23.84l-25.3 35.24 -34.51 -0.91 31.25 -43.47c9.57,-13.32 18.91,-20.66 28.06,-22.18 -15.89,-2.64 -27.5,-8.67 -34.95,-18.17 -7.44,-9.5 -10.98,-20.33 -10.66,-32.4 0.36,-14.23 5.71,-25.68 16.05,-34.24 10.28,-8.62 25.02,-12.7 44.13,-12.15l76.21 2.07zm-28.37 22.35l-39.65 -1.11c-16.61,-0.46 -27.4,1.86 -32.35,6.85 -4.95,5.06 -7.53,11.04 -7.7,17.98 -0.28,9.78 3.09,17.07 10.03,21.86 6.96,4.78 19.4,7.44 37.34,7.94l30.85 0.83 1.48 -54.35z"/>
  <polygon id="_34" class="fil2 str2" points="1835.63,303.84 2007.9,351.1 1947.8,570.13 1918.64,562.15 1971.66,369 1857.54,337.62 1804.52,530.83 1775.52,522.85 "/>
  <path id="_35" class="fil2 str2" d="M2036.45 523.28c15.3,-26.35 33.98,-41.64 55.99,-45.82 18.36,-3.44 36.35,-0.11 53.97,10.11 19.58,11.38 31.86,27.05 36.83,47.1 4.97,20 0.95,41.32 -12.18,63.97 -10.63,18.31 -21.75,31.11 -33.33,38.47 -11.59,7.3 -24.3,10.84 -38.16,10.53 -13.92,-0.27 -27.04,-4.02 -39.47,-11.23 -19.95,-11.53 -32.33,-27.24 -37.19,-47.2 -4.92,-19.9 -0.37,-41.85 13.54,-65.93zm24.82 14.4c-10.59,18.25 -14.5,34.18 -11.8,47.89 2.7,13.7 10.04,24.02 22.16,31 11.96,6.93 24.56,8.16 37.79,3.66 13.28,-4.5 25.29,-16.09 36.14,-34.77 10.22,-17.62 13.92,-33.28 11.22,-46.98 -2.75,-13.71 -10.05,-24.03 -21.96,-30.92 -12.06,-6.97 -24.71,-8.29 -37.88,-3.86 -13.17,4.39 -25.08,15.72 -35.67,33.98z"/>
  <path id="_36" class="fil2 str2" d="M2477.46 662.14l17.63 17.18c-8.43,7.23 -15.51,11.12 -21.22,11.68 -5.71,0.49 -11.17,-0.8 -16.32,-4.02 -5.14,-3.15 -14.01,-10.74 -26.6,-22.69 -16.68,-15.87 -29.58,-25.07 -38.69,-27.63 -9.11,-2.56 -18.37,-1.56 -27.77,2.97 -9.34,4.54 -19.53,12.25 -30.38,23.15 12.26,-2.76 23.58,-2.75 33.97,-0.03 10.44,2.7 19.88,8.06 28.43,16.18 15.62,14.91 23.47,32.55 23.5,53.03 0.02,20.48 -8.67,39.88 -26.12,58.21 -13.22,13.92 -26.63,22.85 -40.26,26.88 -13.64,3.97 -26.34,5.09 -37.99,3.17 -11.7,-1.85 -23.68,-8.58 -35.85,-20.17 -14.13,-13.43 -22.07,-27.16 -23.77,-41.07 -1.7,-13.96 0.15,-27.95 5.59,-42.04 5.41,-14.1 20.04,-33.68 43.91,-58.7 29.92,-31.5 55.42,-47.64 76.48,-48.42 21.05,-0.83 42.63,9.35 64.78,30.43 13.76,13.07 21.78,20.29 24.12,21.6 2.27,1.31 4.45,1.41 6.56,0.29zm-104.13 107.42c11.8,-12.43 18.58,-25.37 20.22,-38.87 1.68,-13.56 -2.81,-25.39 -13.54,-35.56 -11.15,-10.59 -23.71,-14.62 -37.72,-11.96 -14.07,2.59 -27.74,10.9 -41.02,24.88 -13.17,13.86 -19.89,27.59 -20.15,41.3 -0.32,13.71 4.44,25.22 14.27,34.55 10.04,9.54 22.17,13.04 36.5,10.49 14.33,-2.55 28.16,-10.86 41.44,-24.83z"/>
  <path id="_37" class="fil2 str2" d="M2442.74 960.04c-13.16,-3.35 -23.93,-7.91 -32.41,-13.63 -8.49,-5.71 -15.86,-13.05 -22.21,-21.98 -10.44,-14.78 -14.86,-28.67 -13.25,-41.72 1.61,-13.01 8.02,-23.51 19.23,-31.43 6.6,-4.67 13.65,-7.44 21.22,-8.3 7.57,-0.85 14.71,-0.01 21.42,2.51 6.76,2.53 13.09,6.27 19.09,11.12 4.31,3.62 10.21,9.59 17.72,17.83 15.2,16.86 27.36,28.53 36.58,35.08 3.19,-2.09 5.21,-3.45 6,-4.08 9.3,-6.57 14.32,-13.31 15.1,-20.29 1.01,-9.46 -2.53,-19.97 -10.67,-31.44 -7.56,-10.69 -15.03,-17.29 -22.37,-19.76 -7.4,-2.43 -16.71,-1.53 -27.96,2.8l-12.71 -24.42c10.98,-4.76 20.99,-6.87 30.14,-6.34 9.15,0.48 18.39,3.97 27.77,10.54 9.39,6.56 18.17,15.61 26.31,27.14 8.13,11.48 13.36,21.77 15.74,30.83 2.38,9.07 2.71,16.74 1.03,23.03 -1.72,6.29 -5.2,12.3 -10.53,18.04 -3.3,3.52 -10.05,8.83 -20.19,16.02l-30.35 21.47c-21.2,14.96 -34.22,24.93 -39.17,29.88 -4.9,4.94 -8.95,10.63 -12.06,17.17l-16.85 -23.8c3.1,-5.69 7.53,-11.12 13.38,-16.27zm49.54 -37.87c-9.23,-5.92 -20.86,-16.25 -34.91,-31.16 -7.99,-8.4 -14.2,-13.94 -18.63,-16.61 -4.43,-2.73 -9.03,-3.97 -13.74,-3.79 -4.76,0.19 -9.11,1.7 -13.09,4.53 -6.06,4.25 -9.49,10.16 -10.27,17.61 -0.84,7.46 1.92,15.62 8.16,24.5 6.2,8.77 13.68,15.21 22.33,19.34 8.66,4.12 17.49,5.4 26.44,3.91 6.83,-1.18 15.33,-5.37 25.37,-12.45l8.34 -5.88z"/>
  <polygon id="_38" class="fil2 str2" points="2608.97,952.46 2668.09,1072.44 2647.38,1082.62 2623.99,1035.11 2497,1097.63 2484.73,1072.72 2611.71,1010.21 2588.27,962.64 "/>
  <path id="_39" class="fil2 str2" d="M2696.66 1141.55l7.36 26.93 -62.07 16.93 9.32 34.08c6.05,22.21 6.42,40.52 1.04,54.88 -5.33,14.36 -15.59,23.61 -30.75,27.76 -13.25,3.62 -25.94,1.69 -38.12,-5.74 -12.13,-7.49 -21.19,-22.2 -27.25,-44.25l-18.33 -67.31 158.8 -43.28zm-129.34 64.2l7.72 28.25c4.65,17.02 10.09,28.64 16.24,34.76 6.16,6.13 13.71,8.02 22.56,5.59 6.89,-1.87 12.27,-6.22 16.22,-13.08 3.91,-6.86 3.34,-19.51 -1.68,-37.95l-8.7 -31.86 -52.36 14.29z"/>
  <path id="_40" class="fil2 str2" d="M2747.88 1341.8l3.3 27.69 -70.6 8.47c1.04,8.79 3.47,14.77 7.28,17.89 3.8,3.14 14.28,7.17 31.41,12.11 13.54,3.89 22.59,7.28 27.14,10.15 4.49,2.92 7.71,6.46 9.67,10.7 1.94,4.23 3.53,11.22 4.68,20.96l0.67 5.56 -22.91 2.72 -0.78 -7.67c-0.84,-7.31 -2.47,-11.86 -4.91,-13.66 -2.48,-1.86 -9.62,-4.35 -21.31,-7.39 -11.16,-2.97 -18.99,-5.9 -23.54,-8.92 -4.49,-2.96 -8.88,-7.89 -13.16,-14.77 -1.76,12.27 -11.4,25.27 -29,39.01l-46.98 36.4 -3.66 -30.49 47.09 -35.6c9.42,-7.24 15.46,-13.32 18.17,-18.23 2.71,-4.93 3.67,-10.48 2.88,-16.72l-75.52 9.05 -3.3 -27.74 163.38 -19.52z"/>
  <path id="_41" class="fil2 str2" d="M2683.72 1511.84c30.42,0.82 52.8,9.89 67,27.23 11.81,14.51 17.44,31.89 16.83,52.26 -0.6,22.61 -8.51,40.89 -23.69,54.82 -15.23,13.93 -35.9,20.58 -62.05,19.84 -21.16,-0.55 -37.69,-4.18 -49.68,-10.85 -11.93,-6.67 -21.12,-16.22 -27.52,-28.52 -6.35,-12.3 -9.37,-25.68 -8.96,-40.02 0.6,-23.02 8.51,-41.41 23.64,-55.24 15.19,-13.76 36.65,-20.31 64.43,-19.52zm-0.79 28.63c-21.06,-0.55 -36.96,3.59 -47.67,12.53 -10.76,8.87 -16.33,20.32 -16.69,34.25 -0.36,13.8 4.55,25.48 14.86,34.96 10.25,9.49 26.2,14.51 47.79,15.1 20.33,0.56 35.86,-3.64 46.62,-12.57 10.71,-9 16.27,-20.34 16.64,-34.05 0.42,-13.97 -4.5,-25.65 -14.7,-35.12 -10.15,-9.49 -25.77,-14.5 -46.85,-15.1z"/>
  <path id="_42" class="fil2 str2" d="M2749.8 1751.17l-14.78 62.58c-3.62,15.34 -7.62,26.49 -11.97,33.36 -4.3,6.88 -10.55,12.21 -18.66,16 -8.1,3.75 -16.94,4.47 -26.46,2.22 -7.67,-1.8 -13.96,-4.94 -18.88,-9.46 -4.9,-4.5 -8.55,-10.38 -10.86,-17.63 -4.3,6.98 -10.5,12.09 -18.55,15.46 -8.05,3.32 -16.83,3.89 -26.25,1.64 -14.97,-4.57 -24.95,-12.69 -29.96,-24.29 -5,-11.54 -5.29,-26.78 -0.81,-45.56l17.08 -72.2 160.1 37.88zm-73.79 11.18l-6.88 28.94c-2.72,11.58 -4.01,19.67 -3.8,24.28 0.2,4.6 1.72,9.05 4.57,13.34 2.85,4.29 6.87,7 12,8.23 8.41,1.97 15.03,0.4 19.75,-4.78 4.72,-5.23 8.81,-15.06 12.23,-29.5l7.04 -29.88 -44.91 -10.63zm-70.4 -16.64l-8.48 35.7c-3.63,15.39 -4.34,26.4 -2.13,32.96 2.22,6.57 7.66,11.03 16.33,13.43 5.13,1.17 10.26,0.65 15.39,-1.61 5.2,-2.33 8.96,-5.97 11.41,-11.05 2.39,-5.01 4.99,-13.43 7.77,-25.17l7.8 -32.9 -48.09 -11.36z"/>
  <path id="_43" class="fil2 str2" d="M2728.06 1953.23l30.46 9.96 -8.67 26.53 -30.45 -10.01 8.66 -26.48zm-185.35 -60.68l156.33 51.19 -8.67 26.47 -156.33 -51.12 8.67 -26.54z"/>
  <path class="fil1 str3" d="M599.47 2187.41c-0.56,-8.27 -2.44,-16.53 -5.71,-24.74 -4.61,-11.77 -6.91,-19.92 -6.91,-24.35 0,-6.3 1.68,-11.05 4.95,-14.32 3.35,-3.26 7.46,-4.87 12.4,-4.87 4.18,0 7.88,1.61 11.02,4.87 3.13,3.27 4.66,7.9 4.66,13.94 0,5.43 -1.81,12.96 -5.36,22.64 -3.63,9.74 -5.86,18.69 -6.69,26.83 7.52,-4.2 14.21,-9.31 20.2,-15.36 9.27,-9.5 16.17,-15.42 20.63,-17.7 4.52,-2.28 9.05,-3.4 13.72,-3.4 4.46,0 8.22,1.37 11.29,4.08 3.06,2.65 4.6,5.92 4.6,9.62 0,4.5 -2.23,8.45 -6.76,11.97 -4.46,3.45 -15.68,6.96 -33.65,10.48 -10.46,2.04 -19.16,4.38 -26.13,7.03 7.11,3.27 15.75,5.74 25.92,7.4 16.44,2.66 27.24,5.98 32.32,9.93 5.16,4.01 7.67,8.33 7.67,13.02 0,3.64 -1.53,6.72 -4.6,9.38 -3.07,2.64 -6.62,4 -10.66,4 -4.11,0 -8.64,-1.29 -13.58,-3.82 -4.95,-2.53 -11.71,-8.2 -20.14,-16.96 -5.58,-5.92 -12.47,-11.48 -20.83,-16.65 0.28,6.9 1.88,14.37 4.74,22.44 4.87,14.19 7.31,23.88 7.31,29.06 0,4.8 -1.6,8.88 -4.88,12.21 -3.27,3.33 -6.75,4.99 -10.37,4.99 -5.09,0 -9.62,-1.79 -13.73,-5.24 -2.86,-2.53 -4.25,-6.6 -4.25,-12.15 0,-5.74 1.53,-12.71 4.66,-20.85 3.14,-8.14 5.09,-13.75 5.93,-16.77 0.83,-3.09 1.6,-7.65 2.23,-13.69 -8.02,4.74 -15.05,9.92 -20.97,15.72 -9.97,9.87 -17.42,16.16 -22.51,18.81 -3.55,1.91 -7.17,2.9 -11.01,2.9 -4.59,0 -8.56,-1.42 -11.84,-4.19 -3.27,-2.78 -4.88,-5.8 -4.88,-9.19 0,-3.02 1.4,-6.17 4.18,-9.5 2.79,-3.33 6.97,-6.04 12.54,-8.2 3.7,-1.48 12.06,-3.39 25.09,-5.8 8.43,-1.54 16.72,-3.82 24.73,-6.85 -7.38,-3.27 -16.16,-5.8 -26.34,-7.58 -16.72,-3.15 -27.1,-5.99 -31,-8.52 -6.13,-3.95 -9.2,-8.82 -9.2,-14.43 0,-3.27 1.54,-6.23 4.6,-8.94 3.07,-2.72 6.62,-4.07 10.73,-4.07 4.46,0 9.2,1.23 14.28,3.76 5.02,2.53 11.29,7.65 18.74,15.3 7.53,7.65 15.13,13.56 22.86,17.76z"/>
  <path class="fil1" d="M645.82 2433.75l149.38 -171.35 33.99 29.63 -65.22 156.62c-6.1,14.56 -10.75,25.37 -13.95,32.49 7.39,-4.51 18.45,-11.01 33.14,-19.47l145.14 -83.23 30.35 26.46 -149.38 171.35 -21.78 -18.99 124.98 -143.35 -175 99.75 -20.42 -17.81 77.81 -189.1 -127.27 145.98 -21.77 -18.98zm263.26 81.54c16.78,-33.73 39.03,-55.64 66.68,-65.7 27.64,-10.07 55.77,-7.94 84.49,6.34 18.81,9.36 33.48,22.27 44.14,38.75 10.6,16.44 15.89,34.68 15.82,54.67 -0.05,19.96 -5.13,40.13 -15.24,60.45 -10.25,20.61 -23.61,37 -40.03,49.11 -16.45,12.15 -34.38,18.59 -53.78,19.35 -19.47,0.77 -38.03,-3.26 -55.71,-12.05 -19.18,-9.55 -33.97,-22.7 -44.49,-39.45 -10.47,-16.74 -15.67,-35.05 -15.47,-54.92 0.18,-19.84 4.71,-38.69 13.59,-56.55zm27.62 14.33c-12.19,24.5 -15.19,47.06 -9.02,67.68 6.17,20.63 19.19,35.91 39.09,45.81 20.28,10.09 40.43,11.26 60.63,3.57 20.14,-7.71 36.73,-24.63 49.74,-50.78 8.23,-16.54 12.61,-32.38 13.16,-47.48 0.54,-15.1 -2.91,-28.74 -10.29,-40.87 -7.42,-12.15 -17.81,-21.57 -31.21,-28.24 -19.05,-9.48 -38.69,-11.1 -58.94,-4.85 -20.24,6.24 -37.96,24.61 -53.16,55.16zm179.92 140.99l29.49 0.54c-0.83,11.19 1.86,23.35 8.02,36.45 6.21,13.13 16.8,21.75 31.85,25.89 15.3,4.21 28.47,3.62 39.52,-1.84 10.99,-5.43 18.06,-13.75 21.14,-24.93 3.31,-12.03 1.31,-22.95 -6.06,-32.62 -7.32,-9.7 -19.05,-16.76 -35.06,-21.17l-13.83 -3.81 6.99 -25.4c13.27,3.65 23.64,5.67 31.09,6.09 7.46,0.4 14.77,-1.82 21.91,-6.66 7.14,-4.78 11.83,-11.23 14.05,-19.29 2.61,-9.49 1.23,-18.82 -4.23,-27.89 -5.41,-9.06 -14.45,-15.34 -26.99,-18.79 -11.02,-3.03 -21.17,-2.86 -30.45,0.56 -9.29,3.43 -16.67,9.3 -22.19,17.6 -5.48,8.33 -8.84,14.75 -10.08,19.24l-26.08 -14.1c19.64,-44.64 51.66,-60.85 95.99,-48.65 21.38,5.88 36.63,16.5 45.85,31.83 9.22,15.33 11.68,30.93 7.3,46.85 -5.62,20.41 -19.61,33.56 -41.98,39.48 10.31,6.19 17.9,15.08 22.84,26.65 4.88,11.61 5.52,24.03 1.87,37.28 -5.19,18.88 -16.83,32.64 -34.91,41.33 -18.1,8.69 -39.19,9.74 -63.27,3.11 -41.42,-11.4 -62.35,-40.65 -62.78,-87.75zm287.94 -93.06l30.25 1.16 69.03 142.51 70.03 -137.17 29.61 1.14 -91.87 173.44c-11.47,21.7 -20.75,35.85 -27.84,42.41 -7.07,6.56 -16.94,9.56 -29.63,9.08 -7.72,-0.3 -17.11,-2.45 -28.24,-6.48l0.99 -25.7c7.85,4.96 16.28,7.62 25.27,7.96 7.3,0.28 13.68,-1.86 19.2,-6.36 5.47,-4.5 11.76,-15.02 18.79,-31.53l-85.59 -170.46zm208.09 65.47l27.86 -2.13 5.42 70.91c8.86,-0.68 14.96,-2.84 18.28,-6.54 3.27,-3.65 7.75,-13.91 13.46,-30.86 4.49,-13.4 8.27,-22.28 11.33,-26.66 3.12,-4.37 6.81,-7.47 11.13,-9.24 4.38,-1.76 11.44,-3.05 21.2,-3.79l5.6 -0.43 1.75 22.95 -7.77 0.44c-7.33,0.56 -11.94,2.02 -13.84,4.34 -1.99,2.44 -4.79,9.45 -8.36,21.02 -3.4,11.09 -6.69,18.83 -9.91,23.21 -3.17,4.38 -8.31,8.54 -15.38,12.53 12.22,2.31 24.89,12.53 37.95,30.75l34.45 48.58 -30.6 2.34 -34.01 -48.45c-6.85,-9.83 -12.65,-16.19 -17.38,-19.11 -4.79,-2.93 -10.3,-4.15 -16.57,-3.67l5.81 75.98 -27.86 2.13 -12.56 -164.3zm187.67 206.76l-51.27 -222.12 24.75 -5.71 4.87 21.08c3.94,-9.49 9.14,-17.14 15.56,-22.92 6.39,-5.76 14.83,-9.88 25.29,-12.3 13.72,-3.17 26.59,-2.44 38.69,2.21 12.08,4.59 22.27,12.72 30.58,24.27 8.28,11.62 14.19,25.02 17.73,40.33 3.77,16.35 4.24,31.77 1.4,46.28 -2.86,14.45 -9.1,26.47 -18.72,36.08 -9.58,9.54 -20.58,15.77 -32.95,18.63 -9.08,2.1 -17.66,2.07 -25.7,-0.09 -8.11,-2.15 -15.09,-5.59 -21.08,-10.35l18.08 78.32 -27.23 6.29zm-7.76 -146.57c4.75,20.57 12.44,34.81 23.01,42.75 10.63,7.91 21.87,10.53 33.73,7.79 12.07,-2.78 21.2,-10.27 27.4,-22.45 6.26,-12.2 6.9,-28.96 1.96,-50.36 -4.72,-20.42 -12.42,-34.71 -23.16,-42.93 -10.76,-8.22 -21.92,-10.96 -33.57,-8.27 -11.55,2.67 -20.51,10.43 -26.89,23.26 -6.43,12.88 -7.24,29.58 -2.48,50.21zm276.54 -28.21c-5.81,12.33 -12.37,22.09 -19.59,29.36 -7.21,7.27 -15.83,13.15 -25.86,17.69 -16.48,7.45 -30.97,9.19 -43.49,5.16 -12.48,-3.99 -21.57,-12.25 -27.22,-24.74 -3.31,-7.33 -4.66,-14.79 -4.08,-22.37 0.63,-7.61 2.83,-14.41 6.57,-20.52 3.8,-6.12 8.61,-11.67 14.55,-16.63 4.42,-3.57 11.43,-8.25 20.93,-14.06 19.45,-11.7 33.31,-21.51 41.47,-29.27 -1.47,-3.51 -2.43,-5.76 -2.85,-6.67 -4.67,-10.32 -10.37,-16.51 -17.11,-18.56 -9.1,-2.8 -20.08,-1.26 -32.9,4.54 -12.01,5.44 -19.91,11.57 -23.71,18.34 -3.84,6.78 -4.68,16.11 -2.58,28.05l-26.45 7.79c-2.55,-11.68 -2.75,-21.99 -0.5,-30.9 2.23,-8.91 7.49,-17.33 15.71,-25.35 8.19,-7.94 18.82,-14.9 31.73,-20.75 12.82,-5.8 23.96,-9.04 33.38,-9.65 9.38,-0.57 17.01,0.51 22.85,3.38 5.83,2.88 11.1,7.46 15.8,13.75 2.79,3.97 6.76,11.59 11.84,22.82l15.27 33.75c10.67,23.57 17.94,38.22 21.85,44.06 3.88,5.86 8.72,10.93 14.43,15.31l-26.61 12.05c-4.98,-4.2 -9.45,-9.72 -13.43,-16.58zm-27.55 -55.49c-7.55,7.95 -20,17.41 -37.33,28.4 -9.83,6.24 -16.49,11.29 -19.98,15.14 -3.49,3.84 -5.57,8.1 -6.32,12.73 -0.72,4.68 -0.13,9.23 1.88,13.67 3.04,6.7 8.15,11.18 15.33,13.33 7.19,2.15 15.74,1.01 25.62,-3.46 9.79,-4.43 17.55,-10.5 23.28,-18.26 5.69,-7.69 8.69,-16.07 8.92,-25.06 0.15,-6.98 -2.31,-16.03 -7.36,-27.17l-4.04 -9.32zm127.02 28.89l-83.84 -141.86 24.05 -14.21 83.85 141.85 -24.06 14.22zm-119.88 -144.16l-16.15 -27.33 25.14 -14.87 16.16 27.34 -25.15 14.86zm49.75 -29.41l-16.15 -27.33 25.13 -14.86 16.16 27.34 -25.14 14.85zm55.79 -6.86l21.93 -17.31 42.49 53.83 60.81 -48 -42.49 -53.83 21.93 -17.31 102.09 129.34 -21.93 17.31 -45.24 -57.32 -60.81 48 45.24 57.32 -21.93 17.31 -102.09 -129.34zm137.84 -109.7l19.4 -20.11 90.45 87.27 -36.55 -143.13 20.83 -21.59 118.59 114.41 -19.4 20.11 -89.87 -86.71 36.04 142.49 -20.9 21.67 -118.59 -114.41z"/>
  <path id="_1_0" class="fil2 str4" d="M645.82 2433.75l149.38 -171.35 33.99 29.63 -65.22 156.62c-6.1,14.56 -10.75,25.37 -13.95,32.49 7.39,-4.51 18.45,-11.01 33.14,-19.47l145.14 -83.23 30.35 26.46 -149.38 171.35 -21.78 -18.99 124.98 -143.35 -175 99.75 -20.42 -17.81 77.81 -189.1 -127.27 145.98 -21.77 -18.98zm263.26 81.54c16.78,-33.73 39.03,-55.64 66.68,-65.7 27.64,-10.07 55.77,-7.94 84.49,6.34 18.81,9.36 33.48,22.27 44.14,38.75 10.6,16.44 15.89,34.68 15.82,54.67 -0.05,19.96 -5.13,40.13 -15.24,60.45 -10.25,20.61 -23.61,37 -40.03,49.11 -16.45,12.15 -34.38,18.59 -53.78,19.35 -19.47,0.77 -38.03,-3.26 -55.71,-12.05 -19.18,-9.55 -33.97,-22.7 -44.49,-39.45 -10.47,-16.74 -15.67,-35.05 -15.47,-54.92 0.18,-19.84 4.71,-38.69 13.59,-56.55zm27.62 14.33c-12.19,24.5 -15.19,47.06 -9.02,67.68 6.17,20.63 19.19,35.91 39.09,45.81 20.28,10.09 40.43,11.26 60.63,3.57 20.14,-7.71 36.73,-24.63 49.74,-50.78 8.23,-16.54 12.61,-32.38 13.16,-47.48 0.54,-15.1 -2.91,-28.74 -10.29,-40.87 -7.42,-12.15 -17.81,-21.57 -31.21,-28.24 -19.05,-9.48 -38.69,-11.1 -58.94,-4.85 -20.24,6.24 -37.96,24.61 -53.16,55.16zm179.92 140.99l29.49 0.54c-0.83,11.19 1.86,23.35 8.02,36.45 6.21,13.13 16.8,21.75 31.85,25.89 15.3,4.21 28.47,3.62 39.52,-1.84 10.99,-5.43 18.06,-13.75 21.14,-24.93 3.31,-12.03 1.31,-22.95 -6.06,-32.62 -7.32,-9.7 -19.05,-16.76 -35.06,-21.17l-13.83 -3.81 6.99 -25.4c13.27,3.65 23.64,5.67 31.09,6.09 7.46,0.4 14.77,-1.82 21.91,-6.66 7.14,-4.78 11.83,-11.23 14.05,-19.29 2.61,-9.49 1.23,-18.82 -4.23,-27.89 -5.41,-9.06 -14.45,-15.34 -26.99,-18.79 -11.02,-3.03 -21.17,-2.86 -30.45,0.56 -9.29,3.43 -16.67,9.3 -22.19,17.6 -5.48,8.33 -8.84,14.75 -10.08,19.24l-26.08 -14.1c19.64,-44.64 51.66,-60.85 95.99,-48.65 21.38,5.88 36.63,16.5 45.85,31.83 9.22,15.33 11.68,30.93 7.3,46.85 -5.62,20.41 -19.61,33.56 -41.98,39.48 10.31,6.19 17.9,15.08 22.84,26.65 4.88,11.61 5.52,24.03 1.87,37.28 -5.19,18.88 -16.83,32.64 -34.91,41.33 -18.1,8.69 -39.19,9.74 -63.27,3.11 -41.42,-11.4 -62.35,-40.65 -62.78,-87.75zm287.94 -93.06l30.25 1.16 69.03 142.51 70.03 -137.17 29.61 1.14 -91.87 173.44c-11.47,21.7 -20.75,35.85 -27.84,42.41 -7.07,6.56 -16.94,9.56 -29.63,9.08 -7.72,-0.3 -17.11,-2.45 -28.24,-6.48l0.99 -25.7c7.85,4.96 16.28,7.62 25.27,7.96 7.3,0.28 13.68,-1.86 19.2,-6.36 5.47,-4.5 11.76,-15.02 18.79,-31.53l-85.59 -170.46zm208.09 65.47l27.86 -2.13 5.42 70.91c8.86,-0.68 14.96,-2.84 18.28,-6.54 3.27,-3.65 7.75,-13.91 13.46,-30.86 4.49,-13.4 8.27,-22.28 11.33,-26.66 3.12,-4.37 6.81,-7.47 11.13,-9.24 4.38,-1.76 11.44,-3.05 21.2,-3.79l5.6 -0.43 1.75 22.95 -7.77 0.44c-7.33,0.56 -11.94,2.02 -13.84,4.34 -1.99,2.44 -4.79,9.45 -8.36,21.02 -3.4,11.09 -6.69,18.83 -9.91,23.21 -3.17,4.38 -8.31,8.54 -15.38,12.53 12.22,2.31 24.89,12.53 37.95,30.75l34.45 48.58 -30.6 2.34 -34.01 -48.45c-6.85,-9.83 -12.65,-16.19 -17.38,-19.11 -4.79,-2.93 -10.3,-4.15 -16.57,-3.67l5.81 75.98 -27.86 2.13 -12.56 -164.3zm187.67 206.76l-51.27 -222.12 24.75 -5.71 4.87 21.08c3.94,-9.49 9.14,-17.14 15.56,-22.92 6.39,-5.76 14.83,-9.88 25.29,-12.3 13.72,-3.17 26.59,-2.44 38.69,2.21 12.08,4.59 22.27,12.72 30.58,24.27 8.28,11.62 14.19,25.02 17.73,40.33 3.77,16.35 4.24,31.77 1.4,46.28 -2.86,14.45 -9.1,26.47 -18.72,36.08 -9.58,9.54 -20.58,15.77 -32.95,18.63 -9.08,2.1 -17.66,2.07 -25.7,-0.09 -8.11,-2.15 -15.09,-5.59 -21.08,-10.35l18.08 78.32 -27.23 6.29zm-7.76 -146.57c4.75,20.57 12.44,34.81 23.01,42.75 10.63,7.91 21.87,10.53 33.73,7.79 12.07,-2.78 21.2,-10.27 27.4,-22.45 6.26,-12.2 6.9,-28.96 1.96,-50.36 -4.72,-20.42 -12.42,-34.71 -23.16,-42.93 -10.76,-8.22 -21.92,-10.96 -33.57,-8.27 -11.55,2.67 -20.51,10.43 -26.89,23.26 -6.43,12.88 -7.24,29.58 -2.48,50.21zm276.54 -28.21c-5.81,12.33 -12.37,22.09 -19.59,29.36 -7.21,7.27 -15.83,13.15 -25.86,17.69 -16.48,7.45 -30.97,9.19 -43.49,5.16 -12.48,-3.99 -21.57,-12.25 -27.22,-24.74 -3.31,-7.33 -4.66,-14.79 -4.08,-22.37 0.63,-7.61 2.83,-14.41 6.57,-20.52 3.8,-6.12 8.61,-11.67 14.55,-16.63 4.42,-3.57 11.43,-8.25 20.93,-14.06 19.45,-11.7 33.31,-21.51 41.47,-29.27 -1.47,-3.51 -2.43,-5.76 -2.85,-6.67 -4.67,-10.32 -10.37,-16.51 -17.11,-18.56 -9.1,-2.8 -20.08,-1.26 -32.9,4.54 -12.01,5.44 -19.91,11.57 -23.71,18.34 -3.84,6.78 -4.68,16.11 -2.58,28.05l-26.45 7.79c-2.55,-11.68 -2.75,-21.99 -0.5,-30.9 2.23,-8.91 7.49,-17.33 15.71,-25.35 8.19,-7.94 18.82,-14.9 31.73,-20.75 12.82,-5.8 23.96,-9.04 33.38,-9.65 9.38,-0.57 17.01,0.51 22.85,3.38 5.83,2.88 11.1,7.46 15.8,13.75 2.79,3.97 6.76,11.59 11.84,22.82l15.27 33.75c10.67,23.57 17.94,38.22 21.85,44.06 3.88,5.86 8.72,10.93 14.43,15.31l-26.61 12.05c-4.98,-4.2 -9.45,-9.72 -13.43,-16.58zm-27.55 -55.49c-7.55,7.95 -20,17.41 -37.33,28.4 -9.83,6.24 -16.49,11.29 -19.98,15.14 -3.49,3.84 -5.57,8.1 -6.32,12.73 -0.72,4.68 -0.13,9.23 1.88,13.67 3.04,6.7 8.15,11.18 15.33,13.33 7.19,2.15 15.74,1.01 25.62,-3.46 9.79,-4.43 17.55,-10.5 23.28,-18.26 5.69,-7.69 8.69,-16.07 8.92,-25.06 0.15,-6.98 -2.31,-16.03 -7.36,-27.17l-4.04 -9.32zm127.02 28.89l-83.84 -141.86 24.05 -14.21 83.85 141.85 -24.06 14.22zm-119.88 -144.16l-16.15 -27.33 25.14 -14.87 16.16 27.34 -25.15 14.86zm49.75 -29.41l-16.15 -27.33 25.13 -14.86 16.16 27.34 -25.14 14.85zm55.79 -6.86l21.93 -17.31 42.49 53.83 60.81 -48 -42.49 -53.83 21.93 -17.31 102.09 129.34 -21.93 17.31 -45.24 -57.32 -60.81 48 45.24 57.32 -21.93 17.31 -102.09 -129.34zm137.84 -109.7l19.4 -20.11 90.45 87.27 -36.55 -143.13 20.83 -21.59 118.59 114.41 -19.4 20.11 -89.87 -86.71 36.04 142.49 -20.9 21.67 -118.59 -114.41z"/>
  <g id="_1527414202464">
   <path class="fil3 str5" d="M1583.59 1771.87c37.01,0.31 110.98,0.31 150.21,-0.14 39.23,-0.43 43.72,-1.32 43.32,2.44 -0.41,3.76 -5.72,12.17 -12.87,20.36 -7.15,8.18 -16.15,16.15 -29.63,26.77 -13.49,10.61 -31.47,23.89 -46.99,32.29 -15.53,8.41 -28.61,11.96 -40.06,15.27 -11.44,3.32 -21.25,6.42 -33.51,9.07 -12.26,2.66 -26.97,4.87 -34.94,5.53 -7.96,0.67 -9.19,-0.22 -10.21,58.19 -1.02,58.4 -1.84,176.11 -2.25,236.06 -0.41,59.95 -0.41,62.17 4.7,62.83 5.11,0.67 15.33,-0.22 22.88,-0.22 7.56,0 12.47,0.89 19,3.98 6.54,3.1 14.72,8.41 20.03,12.83 5.31,4.43 7.77,7.97 0.51,9.46 -7.25,1.5 -24.21,0.94 -39.95,0.94 -15.73,0 -30.24,0.56 -37.6,-0.06 -7.37,-0.63 -7.61,-2.43 -7.61,-5.74 0,-3.33 0.24,-8.17 0.56,-82.49 0.32,-74.32 0.72,-218.12 0.32,-295.33 -0.41,-77.22 -1.64,-87.84 -2.28,-95.67 -0.63,-7.82 -0.69,-12.86 -0.69,-15.07 0,-2.22 0.06,-1.6 37.06,-1.3z"/>
   <path class="fil3 str5" d="M1512.43 1771.87c-40.08,0.31 -120.17,0.31 -162.65,-0.14 -42.47,-0.43 -47.34,-1.32 -46.9,2.44 0.44,3.76 6.2,12.17 13.94,20.36 7.74,8.18 17.48,16.15 32.08,26.77 14.6,10.61 34.07,23.89 50.88,32.29 16.82,8.41 30.97,11.96 43.36,15.27 12.4,3.32 23.02,6.42 36.29,9.07 13.27,2.66 29.2,4.87 37.83,5.53 8.63,0.67 9.95,-0.22 11.06,58.19 1.11,58.4 2,176.11 2.44,236.06 0.44,59.95 0.44,62.17 -5.09,62.83 -5.53,0.67 -16.59,-0.22 -24.78,-0.22 -8.19,0 -13.5,0.89 -20.57,3.98 -7.08,3.1 -15.94,8.41 -21.69,12.83 -5.75,4.43 -8.41,7.97 -0.55,9.46 7.85,1.5 26.22,0.94 43.25,0.94 17.04,0 32.75,0.56 40.72,-0.06 7.98,-0.63 8.23,-2.43 8.23,-5.74 0,-3.33 -0.25,-8.17 -0.59,-82.49 -0.35,-74.32 -0.79,-218.12 -0.35,-295.33 0.45,-77.22 1.77,-87.84 2.46,-95.67 0.69,-7.82 0.75,-12.86 0.75,-15.07 0,-2.22 -0.06,-1.6 -40.12,-1.3z"/>
   <path class="fil3 str5" d="M1597.52 1648.66c-3.73,-1.48 -10.15,-2.36 -16.82,0.47 -6.67,2.82 -13.59,9.37 -19.21,11.53 -5.63,2.17 -9.94,-0.05 -14.81,-2.76 -4.86,-2.71 -10.28,-5.92 -9.2,-13.5 1.09,-7.58 8.68,-19.55 21.66,-28.29 12.97,-8.75 31.33,-14.28 49.38,-17.49 18.04,-3.22 35.76,-4.12 63.25,-3.77 27.51,0.34 64.81,1.91 89.67,4.7 24.87,2.78 37.32,6.76 51.92,13.34 14.6,6.58 31.36,15.77 47.46,31.17 16.09,15.4 31.53,37.03 40.91,55.02 9.37,18 12.69,32.39 14.57,48.98 1.88,16.59 2.32,35.4 1.22,51.77 -1.11,16.37 -3.77,30.31 -9.44,46.1 -5.7,15.78 -14.41,33.41 -24.52,47.87 -10.12,14.45 -21.62,25.74 -41.2,38.24 -19.58,12.49 -47.24,26.21 -78.21,37.27 -30.97,11.07 -65.27,19.47 -102.99,26 -37.72,6.52 -78.87,11.17 -113.05,15.82 -34.18,4.64 -61.4,9.29 -81.53,15.38 -20.13,6.08 -33.19,13.6 -41.27,19.68 -8.07,6.09 -11.17,10.74 -12.27,16.6 -1.11,5.86 -0.22,12.94 5.86,18.8 6.09,5.87 17.37,10.52 31.31,14.5 13.93,3.97 30.53,7.3 48.56,9.73 18.03,2.43 37.5,3.99 56.08,5.42 18.59,1.44 36.29,2.77 50.33,5.09 14.05,2.32 24.46,5.64 32.86,10.73 8.41,5.09 14.83,11.95 18.37,19.91 3.54,7.97 4.2,17.04 3.76,25.89 -0.45,8.85 -1.99,17.48 -4.76,25.32 -2.76,7.86 -6.75,14.94 -13.61,20.03 -6.85,5.09 -16.59,8.19 -25.44,10.84 -8.85,2.66 -16.82,4.87 -28.54,6.19 -11.73,1.34 -27.22,1.77 -44.46,1.77 -17.27,0 -36.3,-0.43 -53.22,-6.96 -16.92,-6.53 -31.75,-19.14 -39.83,-26 -8.07,-6.86 -9.4,-7.96 -4.64,-6.64 4.75,1.34 15.6,5.1 25.88,9.41 10.29,4.31 20.03,9.18 32.64,12.5 12.61,3.32 28.1,5.09 43.25,5.75 15.16,0.66 29.98,0.22 40.71,-1.99 10.73,-2.21 17.37,-6.2 23.01,-10.18 5.64,-3.98 10.29,-7.96 14.49,-13.94 4.2,-5.97 7.96,-13.94 8.63,-22.34 0.67,-8.41 -1.77,-17.26 -7.63,-23.45 -5.87,-6.2 -15.16,-9.74 -27.88,-12.17 -12.72,-2.43 -28.87,-3.76 -54.42,-5.75 -25.56,-2 -60.52,-4.65 -83.86,-7.42 -23.34,-2.76 -35.07,-5.64 -44.13,-9.51 -9.07,-3.87 -15.49,-8.74 -21.47,-16.04 -5.97,-7.3 -11.5,-17.04 -13.6,-26.99 -2.1,-9.95 -0.77,-20.13 3.98,-29.53 4.76,-9.41 12.95,-18.04 26.33,-25.78 13.39,-7.74 31.97,-14.6 50.77,-19.69 18.81,-5.09 37.84,-8.41 56.98,-11.73 19.13,-3.31 38.38,-6.64 56.63,-10.17 18.25,-3.55 35.51,-7.31 55.31,-10.4 19.8,-3.1 42.15,-5.54 63.72,-9.3 21.57,-3.76 42.37,-8.85 59.85,-14.49 17.48,-5.64 31.64,-11.84 45.57,-20.24 13.94,-8.41 27.66,-19.04 39.17,-29.32 11.5,-10.29 20.79,-20.25 28.42,-31.19 7.64,-10.95 13.61,-22.9 17.48,-35.84 3.87,-12.94 5.64,-26.88 5.75,-45.47 0.12,-18.58 -1.43,-41.81 -6.41,-59.73 -4.98,-17.93 -13.39,-30.54 -22.35,-41.71 -8.95,-11.17 -18.47,-20.9 -30.59,-29.44 -12.13,-8.54 -26.86,-15.88 -42.06,-21.19 -15.2,-5.32 -30.87,-8.61 -52.41,-9.14 -21.55,-0.53 -48.95,1.72 -67.31,4.27 -18.35,2.56 -27.64,5.44 -34.83,11.13 -7.19,5.7 -12.28,14.21 -18.98,21.73 -6.68,7.53 -14.98,14.06 -20.28,17.65 -5.29,3.59 -7.59,4.26 -9.19,4.15 -1.61,-0.1 -2.52,-0.99 -2.5,-2.44 0.02,-1.44 0.98,-3.45 3.47,-6.32 2.48,-2.88 6.5,-6.62 9.34,-9.57 2.84,-2.96 4.5,-5.11 4.81,-7.23 0.31,-2.1 -0.72,-4.17 -4.44,-5.64z"/>
  </g>
  <path class="fil3 str5" d="M1941.5 1158.13c62.87,1.02 125.73,2.05 159.47,3.46 33.74,1.41 38.37,3.21 43.63,7.18 5.26,3.98 11.16,10.14 15.14,16.55 3.97,6.42 6.03,13.09 7.31,20.15 1.27,7.05 1.8,14.5 1.67,22.58 -0.13,8.07 -0.91,16.81 -4.37,23.86 -3.46,7.05 -9.62,12.45 -34.89,25.79 -25.28,13.34 -69.67,34.64 -114.06,55.93 0,39.58 0,79.17 0,118.74 6.74,6.16 13.48,12.32 20.21,18.48 -32.84,-0.13 -65.69,-0.26 -98.53,-0.39 8.15,-6.6 16.29,-13.22 24.44,-19.83 0.51,-88.52 1.03,-177.04 1.54,-265.56 -7.19,-8.98 -14.37,-17.97 -21.56,-26.94zm102.44 27.74c-13.45,2.66 -19.72,8.47 -25.97,14.25 -0.09,34.78 -0.17,69.55 -0.25,104.32 4.63,-1.08 9.27,-2.15 26.31,-11.74 17.03,-9.59 46.47,-27.69 61.33,-45.19 14.87,-17.52 15.16,-34.46 11.63,-44.91 -3.54,-10.45 -10.93,-14.44 -24.93,-16.66 -14.01,-2.23 -34.67,-2.72 -48.12,-0.07zm-310.43 -27.13c0.09,4.01 0.2,8.03 0.29,12.04 3.75,1.88 7.51,3.78 11.26,5.67 -0.77,6.16 -1.54,12.31 -2.31,18.47 -32.59,84.42 -65.18,168.84 -97.76,253.26 -0.16,8.21 -0.34,16.43 -0.5,24.65 23.23,0.35 46.45,0.7 69.67,1.05 -1.5,-3.43 -3.01,-6.88 -4.51,-10.32 -6.16,-2.56 -12.32,-5.13 -18.47,-7.69 -1.54,-15.14 -3.09,-30.28 -4.63,-45.41 7.7,-16.43 15.41,-32.85 20.79,-46.32 5.39,-13.47 8.47,-23.99 15.52,-28.99 7.06,-5.01 18.09,-4.49 26.81,-2.06 8.72,2.43 15.15,6.8 22.2,10.9 7.05,4.11 14.76,7.96 23.1,14.76 8.33,6.8 17.31,16.55 25.39,25.66 8.09,9.11 15.27,17.58 22.46,26.05 0,3.59 0,7.18 0,10.77 0,8.98 0,17.97 0,26.95 -5.39,7.95 -10.78,15.9 -16.17,23.85 31.3,-0.51 62.61,-1.02 93.91,-1.53 -7.65,-7.68 -15.31,-15.38 -22.96,-23.06 -26.73,-82.12 -53.46,-164.24 -80.18,-246.36 -0.77,-8.72 -1.55,-17.45 -2.32,-26.17 3.17,-1.37 6.36,-2.76 9.53,-4.13 0,-3.98 0,-7.96 0,-11.94 -30.37,-0.03 -60.75,-0.07 -91.12,-0.1zm29.78 40.55c-12.31,37.33 -24.63,74.66 -36.94,112 10.77,0.51 21.55,1.03 30.66,2.57 9.1,1.53 16.55,4.1 23.28,7.56 6.73,3.46 12.77,7.83 18.28,11.99 5.52,4.17 10.53,8.16 12.83,6.43 2.32,-1.73 1.92,-9.18 -0.51,-18.55 -2.44,-9.36 -6.93,-20.65 -13.47,-39.19 -6.54,-18.54 -15.14,-44.33 -20.14,-59.47 -5,-15.13 -6.42,-19.62 -7.83,-24.11 -2.06,0.25 -4.11,0.51 -6.16,0.77zm-387.68 -37c7.45,8.98 14.89,17.97 22.33,26.95 -0.19,86.27 -0.38,172.55 -0.57,258.82 -7.37,8.03 -14.75,16.05 -22.12,24.07 30.78,0 61.58,0 92.37,0 -8.34,-8.08 -16.68,-16.17 -25.02,-24.25 0.31,-45.61 0.64,-91.23 7.07,-120.18 6.45,-28.97 19.03,-41.29 26.85,-48.6 7.83,-7.31 10.91,-9.62 16.42,-3.34 5.52,6.29 13.48,21.18 24.51,39.78 11.03,18.6 25.14,40.92 34.63,57.6 9.5,16.68 14.38,27.71 17.45,38.74 3.08,11.03 4.37,22.07 3.99,31.18 -0.39,9.11 -2.45,16.29 -4.5,23.48 -0.51,1.79 -1.02,3.59 -1.53,5.39 25.14,0.25 50.29,0.52 75.43,0.77 -0.77,-8.47 -1.54,-16.94 -4.1,-27.2 -2.57,-10.26 -6.94,-22.33 -15.27,-41.31 -8.34,-18.99 -20.66,-44.91 -37.59,-72.74 -16.93,-27.84 -38.49,-57.61 -60.04,-87.37 27.45,-23.61 54.91,-47.22 82.36,-70.82 4.05,-0.44 8.1,-0.9 12.14,-1.34 0.05,-3.4 0.12,-6.81 0.18,-10.21 -28.89,-0.15 -57.79,-0.32 -86.69,-0.47 0.16,3.23 0.32,6.48 0.47,9.71 4.62,0.51 9.25,1.03 13.86,1.54 -1.79,3.59 -3.59,7.19 -5.39,10.78 -29.76,30.02 -59.53,60.04 -89.29,90.06 -4.1,1.02 -8.21,2.05 -12.31,3.07 0.51,-28.73 1.02,-57.47 1.53,-86.21 8.14,-9.16 16.3,-18.34 24.44,-27.51 -30.53,-0.13 -61.07,-0.26 -91.61,-0.39zm-142.6 1.34c34.51,-0.25 69.02,-0.51 103.54,-0.76 -9.68,8.27 -19.37,16.55 -29.05,24.83 0.51,86.46 1.03,172.93 1.54,259.4 7.43,7.95 14.88,15.91 22.32,23.87 -31.5,0.06 -62.99,0.13 -94.49,0.19 7.43,-7.82 14.88,-15.65 22.32,-23.47 1.02,-86.6 2.05,-173.21 3.07,-259.81 -9.74,-8.07 -19.51,-16.17 -29.25,-24.25zm-228.25 305.99c-4.87,-5.38 -9.74,-10.78 -14.62,-16.16 -6.16,-7.18 -12.31,-14.37 -18.47,-21.55 2.56,-35.67 5.13,-71.33 9.23,-96.48 4.1,-25.14 9.76,-39.78 15.4,-54.4 10.26,-21.8 20.53,-43.62 30.53,-59.14 10,-15.52 19.76,-24.76 27.84,-30.4 8.08,-5.65 14.51,-7.7 20.91,-9.76 10.27,1.03 20.53,2.06 26.94,5.26 6.42,3.21 8.99,8.6 11.42,14.37 2.44,5.77 4.75,11.94 5.26,52.73 0.52,40.8 -0.77,116.23 -2.05,191.67 -10.01,8.72 -20.02,17.45 -30.02,26.18 35.66,-0.51 71.33,-1.04 106.99,-1.55 -8.98,-7.95 -17.96,-15.9 -26.93,-23.86 -0.51,-87.49 -1.04,-174.99 -1.55,-262.49 8.15,-7.5 16.31,-15.01 24.45,-22.51 -62.03,0.32 -124.06,0.64 -186.09,0.96 5.64,6.67 11.29,13.35 16.93,20.02 -1.28,5.13 -2.57,10.26 -3.85,15.39 -12.32,21.04 -24.63,42.09 -35.02,66.97 -10.39,24.88 -18.87,53.63 -27.33,82.36 -3.08,17.19 -6.16,34.39 -9.24,51.58 -1.53,13.09 -3.08,26.17 -4.61,39.25 -2.31,10.78 -4.63,21.56 -6.93,32.33 23.6,-0.25 47.21,-0.51 70.81,-0.77z"/>
  <path class="fil1 str3" d="M2525.15 2149.08c-0.56,-8.27 -2.44,-16.53 -5.71,-24.74 -4.6,-11.77 -6.9,-19.92 -6.9,-24.35 0,-6.3 1.67,-11.05 4.95,-14.32 3.34,-3.26 7.45,-4.87 12.4,-4.87 4.18,0 7.87,1.61 11.01,4.87 3.13,3.27 4.66,7.9 4.66,13.94 0,5.43 -1.81,12.96 -5.36,22.64 -3.62,9.74 -5.86,18.69 -6.69,26.83 7.53,-4.2 14.21,-9.31 20.2,-15.36 9.27,-9.5 16.17,-15.42 20.63,-17.7 4.52,-2.28 9.06,-3.4 13.72,-3.4 4.46,0 8.22,1.37 11.29,4.08 3.07,2.65 4.6,5.92 4.6,9.62 0,4.5 -2.23,8.45 -6.76,11.97 -4.46,3.45 -15.68,6.96 -33.65,10.48 -10.45,2.04 -19.16,4.38 -26.13,7.03 7.11,3.27 15.75,5.74 25.92,7.4 16.44,2.66 27.24,5.98 32.33,9.93 5.15,4.01 7.66,8.33 7.66,13.02 0,3.64 -1.53,6.72 -4.6,9.38 -3.06,2.64 -6.62,4 -10.66,4 -4.11,0 -8.63,-1.29 -13.58,-3.82 -4.95,-2.53 -11.71,-8.2 -20.14,-16.96 -5.57,-5.92 -12.47,-11.48 -20.83,-16.65 0.28,6.9 1.88,14.37 4.74,22.44 4.87,14.19 7.31,23.88 7.31,29.06 0,4.8 -1.6,8.88 -4.87,12.21 -3.28,3.33 -6.76,4.99 -10.38,4.99 -5.09,0 -9.62,-1.79 -13.73,-5.24 -2.85,-2.53 -4.25,-6.6 -4.25,-12.15 0,-5.74 1.53,-12.71 4.67,-20.85 3.13,-8.14 5.08,-13.75 5.92,-16.77 0.83,-3.09 1.6,-7.65 2.23,-13.69 -8.01,4.74 -15.05,9.92 -20.97,15.72 -9.96,9.87 -17.42,16.16 -22.51,18.81 -3.55,1.91 -7.17,2.9 -11,2.9 -4.6,0 -8.57,-1.42 -11.85,-4.19 -3.27,-2.78 -4.87,-5.8 -4.87,-9.19 0,-3.02 1.39,-6.17 4.18,-9.5 2.79,-3.33 6.97,-6.04 12.54,-8.2 3.69,-1.48 12.05,-3.39 25.08,-5.8 8.43,-1.54 16.72,-3.82 24.73,-6.85 -7.38,-3.27 -16.16,-5.8 -26.33,-7.58 -16.73,-3.15 -27.1,-5.99 -31.01,-8.52 -6.13,-3.94 -9.19,-8.82 -9.19,-14.43 0,-3.26 1.53,-6.23 4.59,-8.94 3.07,-2.72 6.62,-4.07 10.73,-4.07 4.46,0 9.2,1.23 14.29,3.76 5.02,2.53 11.29,7.65 18.74,15.3 7.52,7.65 15.12,13.56 22.85,17.76z"/>
 </g>
</svg>
