<?xml version="1.0" encoding="UTF-8"?>
<!DOCTYPE svg PUBLIC "-//W3C//DTD SVG 1.1//EN" "http://www.w3.org/Graphics/SVG/1.1/DTD/svg11.dtd">
<!-- Creator: CorelDRAW 2019 (64-Bit) -->
<svg xmlns="http://www.w3.org/2000/svg" xml:space="preserve" width="31mm" height="31mm" version="1.1" style="shape-rendering:geometricPrecision; text-rendering:geometricPrecision; image-rendering:optimizeQuality; fill-rule:evenodd; clip-rule:evenodd"
viewBox="0 0 3100 3100"
 xmlns:xlink="http://www.w3.org/1999/xlink"
 xmlns:xodm="http://www.corel.com/coreldraw/odm/2003">
 <defs>
  <style type="text/css">
   <![CDATA[
    .str1 {stroke:#393185;stroke-width:75;stroke-miterlimit:22.9256}
    .str0 {stroke:#393185;stroke-width:50;stroke-miterlimit:22.9256}
    .str2 {stroke:#393185;stroke-width:20;stroke-miterlimit:22.9256}
    .str4 {stroke:#393185;stroke-width:15;stroke-miterlimit:22.9256}
    .str5 {stroke:#393185;stroke-width:25;stroke-linejoin:round;stroke-miterlimit:22.9256}
    .str3 {stroke:#393185;stroke-width:20;stroke-linecap:round;stroke-linejoin:round;stroke-miterlimit:22.9256}
    .fil0 {fill:none}
    .fil2 {fill:none;fill-rule:nonzero}
    .fil3 {fill:#393185}
    .fil1 {fill:#393185;fill-rule:nonzero}
   ]]>
  </style>
 </defs>
 <g id="Слой_x0020_1">
  <metadata id="CorelCorpID_0Corel-Layer"/>
  <circle class="fil0 str0" cx="1550" cy="1550" r="1314.16"/>
  <path class="fil0 str0" d="M1351.03 249.37c143.65,-265.82 282.73,-265.82 417.24,0m-618.26 47.14c100.31,-285.02 237.67,-306.78 412.12,-65.28m-603.28 143.29c54.48,-297.21 186.76,-340.18 396.83,-128.95m-573.44 235.9c7.32,-302.08 131.24,-365.21 371.78,-189.44m-529.48 322.69c-40.03,-299.5 72.49,-381.24 337.57,-245.26m-472.48 401.55c-86.39,-289.54 11.95,-387.89 295.04,-295.05m-403.84 470.52c-130.63,-272.46 -48.88,-384.98 245.25,-337.57m-325.27 527.89c-171.64,-248.66 -108.5,-372.59 189.42,-371.77m-238.67 572.28c-208.44,-218.76 -165.46,-351.03 128.93,-396.83m-146.22 602.56c-240.09,-183.44 -218.33,-320.82 65.26,-412.1m-50.15 618.02c-265.82,-143.63 -265.83,-282.72 0,-417.24m47.14 618.25c-285.02,-100.28 -306.79,-237.65 -65.28,-412.1m143.28 603.27c-297.2,-54.46 -340.18,-186.75 -128.94,-396.83m235.89 573.43c-302.07,-7.29 -365.21,-131.22 -189.43,-371.77m322.68 529.47c-299.49,40.06 -381.24,-72.47 -245.25,-337.55m401.54 472.47c-289.54,86.41 -387.89,-11.94 -295.04,-295.04m470.51 403.84c-272.46,130.65 -384.98,48.89 -337.56,-245.24m527.88 325.26c-248.65,171.66 -372.59,108.51 -371.76,-189.42m572.27 238.67c-218.75,208.46 -351.03,165.47 -396.82,-128.92m602.55 146.21c-183.44,240.11 -320.82,218.34 -412.09,-65.26m618.01 50.15c-143.63,265.84 -282.72,265.84 -417.23,0.01m618.24 -47.15c-100.27,285.04 -237.65,306.8 -412.1,65.28m603.26 -143.28c-54.44,297.22 -186.74,340.19 -396.81,128.94m573.41 -235.88c-7.27,302.08 -131.21,365.21 -371.75,189.42m529.45 -322.68c40.07,299.5 -72.46,381.25 -337.54,245.25m472.45 -401.53c86.44,289.54 -11.92,387.89 -295.01,295.03m403.82 -470.5c130.67,272.46 48.9,384.98 -245.23,337.55m325.24 -527.87c171.69,248.65 108.53,372.59 -189.39,371.75m238.66 -572.25c208.46,218.74 165.47,351.02 -128.92,396.8m146.2 -602.53c240.12,183.43 218.35,320.81 -65.25,412.07m50.14 -617.99c265.86,143.62 265.85,282.71 0.02,417.21m-47.16 -618.21c285.06,100.25 306.81,237.63 65.29,412.07m-143.29 -603.23c297.24,54.42 340.2,186.72 128.95,396.78m-235.88 -573.38c302.09,7.25 365.21,131.19 189.42,371.72m-322.68 -529.42c299.51,-40.1 381.25,72.44 245.25,337.51m-401.53 -472.43c289.54,-86.46 387.89,11.91 295.03,294.99m-470.49 -403.79c272.45,-130.7 384.97,-48.92 337.54,245.2m-527.86 -325.22c248.65,-171.71 372.58,-108.54 371.74,189.38m-572.24 -238.65c218.74,-208.48 351.01,-165.48 396.79,128.91m-602.53 -146.19c183.43,-240.14 320.81,-218.36 412.07,65.23"/>
  <circle class="fil0 str0" cx="1550" cy="1550" r="770.98"/>
  <circle class="fil0 str1" cx="1550" cy="1550" r="1232.06"/>
  <path class="fil1" d="M1001.79 2310.01l0.09 1.66 -4.68 4.83 -1.46 -0.04c-7.43,-6.86 -12.29,-10.83 -14.57,-11.99 -2.25,-1.19 -4.35,-1.52 -6.24,-1 -1.95,0.54 -4.65,2.51 -8.22,6 -3.53,3.45 -13.45,13.37 -29.72,29.68l-44.17 45.69c-6.37,6.59 -13.5,14.17 -21.34,22.68 -7.84,8.52 -12.11,13.75 -12.78,15.72 -0.69,1.94 -0.52,4.07 0.54,6.28 1.01,2.21 5.32,7.16 12.86,14.85l0.13 1.43 -4.71 4.87 -1.63 -0.08c-10.23,-11 -19.3,-20.35 -27.29,-28.08 -5.41,-5.22 -14.93,-13.84 -28.51,-25.85l-0.12 -1.63 4.6 -4.77 1.53 -0.02c7.47,6.82 12.36,10.83 14.57,11.99 2.29,1.16 4.39,1.49 6.28,0.96 1.91,-0.5 4.68,-2.54 8.31,-6.04 3.66,-3.52 13.54,-13.39 29.63,-29.64l70.29 -72.71 -103.33 38.48c-25.89,9.59 -49.64,19.2 -71.33,28.79l-3.86 -3.73c4.56,-12.08 8.08,-21.83 10.61,-29.25l47.75 -144.15 -66.95 69.26c-6.28,6.49 -13.4,14.01 -21.37,22.59 -7.97,8.58 -12.27,13.84 -12.87,15.82 -0.63,1.94 -0.4,4.06 0.57,6.31 1.04,2.24 5.34,7.19 12.93,14.78l0.06 1.57 -4.61 4.76 -1.73 0.03 -6.1 -6.41c-6.2,-6.65 -11.65,-12.25 -16.35,-16.79 -2.13,-2.06 -10.28,-9.41 -24.42,-22.11l-0.07 -1.56 4.61 -4.77 1.67 -0.1c7.39,6.9 12.18,10.88 14.4,12.03 2.25,1.13 4.35,1.47 6.31,0.92 1.99,-0.49 4.68,-2.47 8.08,-5.79 3.44,-3.35 13.42,-13.33 29.86,-30.01l43.87 -45.38c5.79,-5.99 12.82,-13.39 20.98,-22.18 8.14,-8.75 12.56,-14.15 13.27,-16.09 0.66,-1.98 0.52,-4.07 -0.51,-6.31 -1,-2.29 -5.32,-7.23 -12.93,-14.78l-0.02 -1.6 4.58 -4.74 1.79 -0.03c4.2,4.72 10.19,10.84 17.94,18.33 7.24,6.99 13.76,12.96 19.5,17.86 -6.85,18.18 -12.74,34.91 -17.65,50.2l-36.99 113.39 102.18 -37.89c27.67,-10.22 47.1,-18 58.39,-23.32 6.02,6.49 12.08,12.68 18.24,18.63 5.54,5.35 12.24,11.49 20.11,18.45zm-54.85 77.73c6.93,-11.9 15.11,-22 24.54,-30.34 9.42,-8.33 20.8,-14.5 34.1,-18.45 13.32,-4 27.2,-5.02 41.57,-3.07 14.4,1.92 28.88,7.14 43.52,15.66 27.06,15.77 44.32,35.67 51.74,59.75 7.48,24.07 3.77,48.85 -11.07,74.34 -10.44,17.92 -23.74,31.78 -39.93,41.46 -16.19,9.74 -33.91,14.28 -53.15,13.68 -19.32,-0.58 -38.07,-6.23 -56.32,-16.86 -12.93,-7.53 -23.58,-16.61 -31.97,-27.27 -8.31,-10.66 -13.84,-22.49 -16.53,-35.54 -2.64,-13.02 -2.44,-26.19 0.7,-39.5 3.1,-13.27 7.38,-24.55 12.8,-33.86zm29.33 6.58c-5.64,9.67 -10.15,21.04 -13.51,34 -3.37,13 -4.26,25.27 -2.68,36.86 1.62,11.62 5.36,21.74 11.21,30.38 5.86,8.64 13.99,15.98 24.39,22.04 12.32,7.18 24.91,10.7 37.77,10.68 12.92,-0.04 25.29,-4.55 37.2,-13.5 11.95,-8.93 22.19,-20.82 30.79,-35.58 9.35,-16.05 14.93,-32.17 16.76,-48.48 1.79,-16.26 -0.86,-30.38 -8,-42.43 -7.13,-11.99 -17.09,-21.77 -29.98,-29.28 -19.27,-11.22 -38,-14.02 -56.17,-8.43 -18.12,5.6 -34.05,20.16 -47.78,43.74zm217.13 109.53c1.43,-3.89 2.26,-6.09 2.43,-6.57 0.32,-0.89 0.72,-2.19 1.29,-3.93l2.41 -1.05c4.75,2.23 9.13,4.08 13.22,5.52 8.25,2.92 15.23,4.04 21.08,3.31 5.8,-0.74 11.26,-3.35 16.35,-7.88 5.11,-4.53 9,-10.49 11.61,-17.85 3.48,-9.84 3.3,-18.78 -0.52,-26.77 -3.8,-7.99 -11.46,-13.98 -22.99,-18.06 -11.27,-3.98 -21.34,-4.15 -30.23,-0.46 -8.89,3.69 -16.9,11.53 -23.94,23.56l-1.96 0.9 -2.09 -0.74 -0.92 -1.92c3.02,-9.96 5.72,-19.68 7.98,-29.2 10.84,-3.26 21.02,-4.7 30.55,-4.26 9.51,0.46 19.65,2.55 30.29,6.31 17.74,6.28 30.19,14.12 37.29,23.51 7.11,9.41 8.58,19.9 4.44,31.61 -3.86,10.91 -10.92,18.74 -21.18,23.49 -10.22,4.77 -22.34,6.17 -36.28,4.28l-0.79 2.23c15.7,5.55 27.05,11.1 34.06,16.67 7.04,5.63 11.58,12.83 13.65,21.64 2.01,8.85 1.28,18.26 -2.26,28.29 -6.36,17.96 -18.31,30.59 -35.9,37.9 -17.62,7.33 -38.63,6.64 -63.07,-2 -11.21,-3.97 -20.95,-8.76 -29.2,-14.32 -8.21,-5.59 -14.66,-12.61 -19.33,-21.1 4.23,-9.73 7.02,-16.63 8.46,-20.71 0.72,-2.04 2.98,-8.82 6.77,-20.25l5.88 -0.12 0.99 1.7c-2.06,18.53 -0.87,32.92 3.65,43.14 4.52,10.23 13.19,17.6 25.92,22.1 9.18,3.24 18.03,4.03 26.62,2.32 8.61,-1.64 16.32,-5.96 23.12,-12.88 6.82,-6.87 11.82,-14.82 15.01,-23.82 4.47,-12.65 4.39,-23.99 -0.28,-34.08 -4.66,-10.08 -14.78,-17.9 -30.26,-23.37 -6.43,-2.27 -13.31,-3.81 -20.69,-4.68l-1.18 -2.46zm174.46 -32.79l-0.98 -1.39 0.71 -6.4 1.25 -1c10.44,1.83 22.14,3.46 35.23,4.92 11.04,1.23 22,2.12 32.97,2.67l0.96 1.24 -0.71 6.41 -1.23 1.14c-7.46,0.83 -12.26,1.76 -14.32,2.85 -2.06,1.05 -3.23,2.58 -3.45,4.59 -0.23,2.1 0.64,6.18 2.53,12.2 2.54,8.24 8.66,25.49 18.38,51.7 8.97,24.09 13.97,36.95 14.98,38.53 0.16,0.21 0.34,0.32 0.53,0.34 0.19,0.03 0.43,-0.04 0.73,-0.2 0.31,-0.15 1.42,-1.64 3.35,-4.54 1.93,-2.87 6.51,-10.45 13.69,-22.67l19.98 -33.7c5.92,-10.22 10.03,-17.48 12.31,-21.77 2.28,-4.29 3.51,-7.28 3.7,-9 0.2,-1.83 -0.18,-3.44 -1.11,-4.82 -0.95,-1.33 -2.43,-2.44 -4.37,-3.32 -1.94,-0.83 -5.68,-2.19 -11.2,-3.99l-1.07 -1.4 0.71 -6.4 1.34 -0.99c13.25,2.14 23.31,3.59 30.18,4.35 7.11,0.8 15.51,1.4 25.16,1.81l0.95 1.24 -0.71 6.4 -1.21 1.14c-5.89,0.63 -10.48,1.97 -13.74,3.97 -3.29,1.95 -7.98,7.11 -14.15,15.32 -6.12,8.21 -16.49,23.58 -31.1,45.95 -11.25,17.44 -21.49,32.87 -30.65,46.24l-25.31 36.98c-6.36,8.61 -11.27,14.51 -14.87,17.56 -3.56,3.06 -7.26,5.16 -11.03,6.3 -3.77,1.19 -7.92,1.48 -12.36,0.99 -4.31,-0.48 -9.61,-2.11 -15.97,-4.95 0.78,-15.15 0.61,-28.9 -0.39,-41.22l5.72 -1.58c2.7,8.06 5.63,13.63 8.78,16.78 3.2,3.14 6.84,4.93 10.95,5.39 5.93,0.66 11.96,-1.14 18.1,-5.33 6.16,-4.23 11.83,-10.18 17.04,-17.84 -3.36,-9.79 -9.79,-26.88 -19.37,-51.38l-22.65 -58.08c-5.63,-14.39 -9.33,-22.8 -11.15,-25.23 -1.81,-2.42 -3.78,-4.3 -5.9,-5.67 -2.08,-1.32 -5.85,-2.74 -11.23,-4.14zm193.68 202.42l-0.44 -5.77 1.04 -1.06c6.8,-1.14 10.93,-2.07 12.38,-2.8 1.41,-0.71 2.54,-1.98 3.34,-3.79 0.86,-1.81 1.1,-6.07 0.78,-12.75 -0.33,-6.71 -0.92,-15.77 -1.79,-27.22l-1.79 -23.35c-0.55,-7.18 -1.26,-15.15 -2.11,-24 -0.87,-8.8 -1.88,-14.05 -3,-15.72 -1.17,-1.65 -2.52,-2.72 -4.07,-3.22 -1.55,-0.49 -5.72,-0.74 -12.42,-0.75l-1.2 -1.03 -0.44 -5.78 1.04 -1.02c9.11,0.01 18.99,-0.37 29.64,-1.18 11.07,-0.85 20.93,-1.98 29.6,-3.35l1.15 0.86 0.44 5.77 -0.99 1.2c-6.85,1.15 -10.98,2.07 -12.43,2.8 -1.51,0.72 -2.58,1.99 -3.35,3.79 -0.7,1.8 -0.95,6.06 -0.67,12.74 0.27,6.73 0.87,15.74 1.74,27.14l0.69 9.04 1.08 -0.08c11.03,-11.18 21.53,-22.59 31.39,-34.24 9.92,-11.7 15.31,-18.2 16.25,-19.59 0.98,-1.35 1.41,-2.51 1.33,-3.55 -0.08,-1.08 -0.94,-1.81 -2.66,-2.15l-0.41 -5.35 1.04 -1.16c7.94,0.1 13.21,0.07 15.89,-0.13 4.5,-0.35 9.73,-1.13 15.72,-2.29l1.02 1.01 0.45 5.77 -0.87 1.05c-5.92,0.98 -10.96,2.91 -15.03,5.77 -4.12,2.87 -18.8,17.63 -44.02,44.32l60.7 54.8c4.36,4 7.28,6.42 8.76,7.3 1.53,0.83 3.63,1.18 6.4,1.07l0.71 0.65 0.45 5.91 -0.59 0.9c-14.33,0.62 -23.06,0.63 -26.12,0.06 -3.12,-0.62 -6.6,-2.33 -10.59,-5.23 -3.95,-2.86 -10.62,-8.68 -20.01,-17.35 -19.11,-17.4 -32.29,-28.76 -39.54,-34l-1.07 0.08 0.82 10.74c0.57,7.51 1.28,15.61 2.13,24.28 0.86,8.7 1.82,13.87 2.89,15.53 1.12,1.66 2.47,2.73 4.06,3.13 1.59,0.44 5.77,0.74 12.52,0.84l1.15 0.89 0.44 5.78 -1 1.16c-9.14,-0.01 -19.07,0.37 -29.76,1.19 -11.03,0.84 -20.84,1.97 -29.47,3.33l-1.2 -0.99zm179.41 -153.27l2.8 1.03c1.52,10.76 3.11,19.96 4.75,27.49 4.35,-6.46 8.72,-12.64 13.01,-18.5 4.3,-5.87 7.31,-9.56 8.98,-11.1 1.66,-1.59 4.33,-3.22 7.99,-4.89 3.66,-1.71 8.29,-3.21 13.93,-4.51 16.35,-3.78 30.51,-1.69 42.34,6.3 11.83,7.94 19.56,19.92 23.24,35.86 1.52,6.61 2.02,13.58 1.43,20.86 -0.57,7.33 -1.94,14.16 -4.08,20.6 -2.13,6.42 -3.95,10.66 -5.47,12.65 -1.52,1.99 -6.01,6.6 -13.38,13.75 -3.01,2.87 -6,6.03 -9.02,9.47 -4.26,4.75 -7.09,7.77 -8.43,9.09 -1.34,1.28 -3.74,2.79 -7.18,4.46 -3.41,1.7 -7.21,3.02 -11.43,3.99 -9.31,2.15 -19.12,1.9 -29.46,-0.68l5.8 25.11c1.56,6.78 3.78,15.35 6.58,25.61 2.77,10.32 4.72,16.04 5.82,17.25 1.06,1.24 2.37,1.9 3.84,2.01 1.48,0.14 5.91,-0.31 13.35,-1.35l1.43 0.78 1.3 5.64 -0.9 1.51c-10.94,1.76 -20.97,3.68 -30.09,5.79 -9.12,2.1 -18.98,4.77 -29.53,7.97l-1.39 -0.98 -1.3 -5.64 0.86 -1.31c6.65,-2.11 10.67,-3.52 11.96,-4.21 1.3,-0.64 2.21,-1.47 2.69,-2.35 0.51,-0.94 0.77,-2.31 0.74,-4.13 0,-1.84 -1.02,-8.18 -3.17,-18.97 -2.1,-10.76 -3.64,-18.28 -4.61,-22.45l-23.76 -102.98c-0.93,-4.03 -2.27,-9.18 -4.05,-15.44 -1.77,-6.2 -2.89,-9.8 -3.39,-10.75 -0.51,-0.9 -1.34,-1.57 -2.55,-2.02 -1.15,-0.41 -3.44,-0.26 -6.88,0.53 -0.5,0.12 -3.41,0.69 -8.63,1.71l-1.48 -0.78 -1.33 -5.77 0.82 -1.45c15.46,-6.02 28.08,-12.41 37.85,-19.2zm24.69 102.77c12.7,7.98 25.73,10.47 39.07,7.39 13.7,-3.16 23.23,-10.81 28.7,-22.89 5.45,-12.12 6.5,-25.59 3.07,-40.44 -2.11,-9.17 -5.74,-16.92 -10.84,-23.33 -5.09,-6.4 -11.56,-10.79 -19.3,-13.15 -7.74,-2.37 -15.3,-2.7 -22.63,-1.01 -4.95,1.14 -9.48,3.1 -13.56,5.88 -4.13,2.79 -7.72,6.27 -10.83,10.37 -3.12,4.1 -5.13,7.7 -6.03,10.7 -0.89,3.06 -1.28,5.33 -1.14,6.78 0.14,1.47 0.64,4.01 1.46,7.59l12.03 52.11zm134.09 -105.63l-5.5 0.68 -1.56 -0.84c-0.46,-1.39 -1.11,-3.15 -1.97,-5.28l-4.39 -10.56c6.8,-9.68 12.88,-17.13 18.25,-22.34 5.29,-5.22 11.71,-9.31 19.21,-12.33 13.24,-5.32 25.05,-6.05 35.51,-2.24 10.46,3.85 18.05,11.65 22.82,23.52l9.67 25.97 15.31 38.11c1.84,4.58 3.46,7.48 4.78,8.62 1.37,1.12 2.8,1.67 4.32,1.66 1.52,0 4.44,-0.66 8.76,-2.04l1.48 0.77 2.05 5.11 -0.59 1.45c-6.88,2.05 -12.24,3.85 -15.94,5.34 -3.59,1.44 -9,3.97 -16.27,7.6l-2.65 -1.07 -7.79 -20.74 -11.23 19.36c-3.86,6.77 -6.49,11.32 -7.88,13.55 -3.93,3.86 -8.65,6.87 -14.19,9.09 -10.13,4.08 -19.2,4.58 -27.23,1.51 -8.02,-3.06 -13.88,-9.22 -17.62,-18.51 -3.87,-9.64 -4.5,-18.52 -1.93,-26.65 2.58,-8.08 8.29,-15.95 17.08,-23.48 8.78,-7.54 22.75,-16.8 41.79,-27.69 -2.12,-5.28 -4.29,-9.68 -6.5,-13.15 -2.25,-3.46 -5.42,-6.29 -9.56,-8.53 -4.11,-2.3 -8.62,-3.43 -13.54,-3.43 -4.87,-0.03 -9.97,1.06 -15.25,3.18 -2.83,1.14 -5.45,2.44 -7.92,3.99 -2.43,1.54 -4.62,3.28 -6.53,5.21 -1.89,1.98 -3.01,3.24 -3.35,3.88 -0.31,0.63 -0.49,1.57 -0.48,2.87 -0.06,0.59 -0.16,3.01 -0.33,7.24 -0.16,3.26 -0.22,6.28 -0.05,9.09l-0.78 1.08zm67.27 -4.01c-18.42,11.05 -30.7,20.49 -36.76,28.36 -6.13,7.83 -7.09,16.93 -2.95,27.23 2.66,6.63 6.46,11.05 11.4,13.11 4.93,2.07 10.48,1.87 16.63,-0.6 11.35,-4.56 19.92,-15.65 25.71,-33.18l-14.03 -34.92zm69.15 -99.8l3.14 0.22c5.31,10.85 12.67,24.26 22.17,40.23l15.91 26.77c1.04,1.73 4.52,7.21 10.44,16.44 5.95,9.28 9.54,14.57 10.84,15.94 1.31,1.35 2.51,2.18 3.63,2.5 1.15,0.29 2.27,0.23 3.45,-0.19 1.12,-0.4 5.6,-2.62 13.37,-6.59l1.64 0.28 2.96 4.98 -0.35 1.62c-10.22,5.27 -19.92,10.59 -29.1,16.05 -9.05,5.38 -18.36,11.36 -27.86,17.82l-1.68 -0.42 -2.96 -4.98 0.5 -1.55c7.36,-5.03 11.46,-7.97 12.33,-8.81 0.82,-0.81 1.43,-1.84 1.72,-2.99 0.31,-1.23 0.17,-2.67 -0.51,-4.35 -0.63,-1.71 -3.33,-6.99 -8.11,-15.86 -4.79,-8.87 -8.52,-15.52 -11.13,-19.92l-13.87 -23.33c-1.88,-3.15 -4.61,-7.38 -8.18,-12.65 -3.55,-5.23 -5.78,-8.44 -6.76,-9.61 -0.94,-1.13 -2.11,-1.7 -3.47,-1.71 -1.39,0.06 -3.61,0.94 -6.72,2.79l-9.99 5.83 -1.63 -0.34 -3.03 -5.1 0.38 -1.48c14.04,-10.8 24.98,-21.31 32.87,-31.59zm-3.05 -31.83c-3.56,2.12 -7.37,2.62 -11.36,1.6 -4.06,-1.03 -7.12,-3.32 -9.23,-6.88 -2.14,-3.59 -2.71,-7.41 -1.74,-11.38 1.04,-3.95 3.33,-7.01 6.97,-9.18 3.64,-2.16 7.46,-2.73 11.39,-1.73 4,1.01 7.07,3.34 9.21,6.94 2.11,3.56 2.63,7.36 1.63,11.39 -1.05,4.03 -3.31,7.13 -6.87,9.24zm-50.1 29.79c-3.55,2.11 -7.35,2.61 -11.4,1.62 -4.01,-1.06 -7.07,-3.34 -9.19,-6.9 -2.09,-3.52 -2.66,-7.33 -1.65,-11.33 1.04,-4.06 3.32,-7.12 6.88,-9.23 3.65,-2.17 7.42,-2.71 11.39,-1.74 4,1.01 7.04,3.37 9.18,6.96 2.12,3.56 2.66,7.34 1.67,11.38 -1.05,4.02 -3.32,7.12 -6.88,9.24zm163.23 3.27c13.84,-9.7 23.37,-16.43 28.57,-20.23 6,-4.38 15.2,-11.33 27.61,-20.81l-2.19 -3c-4.02,-5.5 -8.76,-11.84 -14.21,-18.98 -5.44,-7.2 -9.13,-11.21 -10.94,-12.1 -1.86,-0.87 -3.53,-1.09 -5.11,-0.69 -1.61,0.42 -5.29,2.4 -11.06,5.98l-1.58 -0.24 -3.41 -4.68 0.35 -1.42c7.82,-4.85 15.87,-10.26 24.11,-16.27 8.58,-6.27 16.18,-12.3 22.83,-18.02l1.43 0.12 3.42 4.67 -0.22 1.54c-5.21,4.58 -8.23,7.55 -9.08,8.92 -0.86,1.39 -1.15,3.06 -0.86,5.05 0.33,1.98 2.51,5.92 6.55,11.76 4.06,5.89 9.18,13.05 15.37,21.52l13.81 18.91 14.43 19.28c5.43,7.1 9.02,11.07 10.85,11.89 1.78,0.85 3.5,1.05 5.06,0.55 1.59,-0.47 5.3,-2.41 11.08,-5.88l1.45 0.15 3.42 4.68 -0.24 1.51c-7.82,4.84 -15.9,10.28 -24.11,16.28 -8.61,6.29 -16.21,12.31 -22.83,18.01l-1.55 -0.21 -3.41 -4.67 0.33 -1.46c5.18,-4.54 8.2,-7.51 9.09,-8.92 0.86,-1.38 1.15,-3.05 0.84,-4.98 -0.27,-1.96 -2.3,-5.71 -6.18,-11.26 -3.82,-5.55 -9.1,-12.94 -15.81,-22.12l-6.52 -8.93c-8.42,5.79 -17.8,12.47 -28.17,20.05 -9.42,6.88 -18.76,13.87 -28.01,20.99l6.52 8.92c4.27,5.85 9.1,12.29 14.5,19.36 5.33,7.05 8.96,10.99 10.74,11.84 1.83,0.82 3.54,1.02 5.1,0.52 1.58,-0.46 5.29,-2.4 11.05,-5.85l1.49 0.13 3.41 4.67 -0.27 1.54c-7.82,4.84 -15.87,10.25 -24.11,16.28 -8.66,6.32 -16.26,12.34 -22.84,18.02l-1.51 -0.24 -3.41 -4.67 0.29 -1.43c5.23,-4.58 8.24,-7.54 9.06,-8.9 0.81,-1.35 1.1,-3.02 0.84,-4.98 -0.23,-1.99 -2.27,-5.74 -6.06,-11.24 -3.81,-5.54 -9.09,-12.93 -15.86,-22.2l-13.81 -18.91c-4.25,-5.82 -9.05,-12.22 -14.45,-19.29 -5.36,-7.03 -8.99,-10.95 -10.82,-11.78 -1.86,-0.8 -3.54,-1.02 -5.15,-0.6 -1.58,0.4 -5.22,2.35 -10.96,5.9l-1.53 -0.27 -3.42 -4.67 0.32 -1.4c7.79,-4.82 15.84,-10.23 24.11,-16.27 8.63,-6.3 16.23,-12.33 22.84,-18.02l1.47 0.09 3.41 4.67 -0.25 1.58c-5.18,4.55 -8.2,7.51 -9.13,8.88 -0.9,1.3 -1.2,2.97 -0.87,4.94 0.3,2 2.34,5.75 6.17,11.23 3.79,5.5 9.03,12.85 15.83,22.16l2.19 3zm161.37 -34.5l-4.16 -4.02 0.08 -1.49c3.25,-4.51 5.42,-8.11 6.57,-10.72 1.08,-2.62 1.48,-4.72 1.12,-6.25 -0.33,-1.55 -1.11,-3.1 -2.34,-4.61 -1.26,-1.48 -4.68,-5.12 -10.3,-10.87 -5.61,-5.76 -9.91,-10.12 -12.96,-13.06l-17.92 -17.32c-15.59,-15.07 -25.12,-23.22 -28.47,-24.5 -3.34,-1.27 -9.25,1.46 -17.62,8.15l-1.59 0.03 -4.16 -4.02 0.1 -1.46c9.37,-8.68 17.03,-16.06 22.92,-22.15 5.68,-5.88 12.77,-13.76 21.31,-23.61l1.37 -0.06 4.16 4.02 0.12 1.49c-3.51,4.78 -5.71,8.36 -6.63,10.73 -0.96,2.35 -1.33,4.21 -1.23,5.61 0.15,1.39 0.64,2.72 1.59,4.03 0.92,1.28 4.31,4.94 10.13,11.03 5.8,6.06 10.47,10.77 13.98,14.17l40.92 39.55 2.11 -1.03c-3.31,-15.3 -8.62,-36.07 -15.93,-62.3 -7.29,-26.22 -13.23,-46.61 -17.82,-61.14 6.51,-5.73 11.79,-10.64 15.8,-14.8 4.16,-4.3 9.02,-9.87 14.56,-16.61l1.46 -0.16 4.16 4.03 0.02 1.59c-6.46,8.66 -8.95,14.69 -7.47,18.09 1.56,3.39 10,12.54 25.38,27.41l17.93 17.32c15.52,15.01 25,23.13 28.35,24.41 3.35,1.27 9.29,-1.42 17.73,-8.05l1.49 -0.13 4.16 4.02 0 1.56c-9.36,8.68 -17.02,16.06 -22.91,22.15 -5.69,5.89 -12.77,13.76 -21.32,23.61l-1.57 0.06 -4.16 -4.02 0.08 -1.49c6.41,-8.73 8.86,-14.79 7.44,-18.19 -1.45,-3.37 -9.89,-12.51 -25.28,-27.39l-40.31 -38.97 -2.14 1.01c2.49,11.7 7.78,31.73 15.88,60.1 8.14,28.34 14.37,48.76 18.74,61.29 -6.52,5.73 -11.7,10.55 -15.55,14.54 -4.15,4.29 -9.54,10.41 -16.26,18.37l-1.56 0.05z"/>
  <path id="_1" class="fil2 str2" d="M1001.79 2310.01l0.09 1.66 -4.68 4.83 -1.46 -0.04c-7.43,-6.86 -12.29,-10.83 -14.57,-11.99 -2.25,-1.19 -4.35,-1.52 -6.24,-1 -1.95,0.54 -4.65,2.51 -8.22,6 -3.53,3.45 -13.45,13.37 -29.72,29.68l-44.17 45.69c-6.37,6.59 -13.5,14.17 -21.34,22.68 -7.84,8.52 -12.11,13.75 -12.78,15.72 -0.69,1.94 -0.52,4.07 0.54,6.28 1.01,2.21 5.32,7.16 12.86,14.85l0.13 1.43 -4.71 4.87 -1.63 -0.08c-10.23,-11 -19.3,-20.35 -27.29,-28.08 -5.41,-5.22 -14.93,-13.84 -28.51,-25.85l-0.12 -1.63 4.6 -4.77 1.53 -0.02c7.47,6.82 12.36,10.83 14.57,11.99 2.29,1.16 4.39,1.49 6.28,0.96 1.91,-0.5 4.68,-2.54 8.31,-6.04 3.66,-3.52 13.54,-13.39 29.63,-29.64l70.29 -72.71 -103.33 38.48c-25.89,9.59 -49.64,19.2 -71.33,28.79l-3.86 -3.73c4.56,-12.08 8.08,-21.83 10.61,-29.25l47.75 -144.15 -66.95 69.26c-6.28,6.49 -13.4,14.01 -21.37,22.59 -7.97,8.58 -12.27,13.84 -12.87,15.82 -0.63,1.94 -0.4,4.06 0.57,6.31 1.04,2.24 5.34,7.19 12.93,14.78l0.06 1.57 -4.61 4.76 -1.73 0.03 -6.1 -6.41c-6.2,-6.65 -11.65,-12.25 -16.35,-16.79 -2.13,-2.06 -10.28,-9.41 -24.42,-22.11l-0.07 -1.56 4.61 -4.77 1.67 -0.1c7.39,6.9 12.18,10.88 14.4,12.03 2.25,1.13 4.35,1.47 6.31,0.92 1.99,-0.49 4.68,-2.47 8.08,-5.79 3.44,-3.35 13.42,-13.33 29.86,-30.01l43.87 -45.38c5.79,-5.99 12.82,-13.39 20.98,-22.18 8.14,-8.75 12.56,-14.15 13.27,-16.09 0.66,-1.98 0.52,-4.07 -0.51,-6.31 -1,-2.29 -5.32,-7.23 -12.93,-14.78l-0.02 -1.6 4.58 -4.74 1.79 -0.03c4.2,4.72 10.19,10.84 17.94,18.33 7.24,6.99 13.76,12.96 19.5,17.86 -6.85,18.18 -12.74,34.91 -17.65,50.2l-36.99 113.39 102.18 -37.89c27.67,-10.22 47.1,-18 58.39,-23.32 6.02,6.49 12.08,12.68 18.24,18.63 5.54,5.35 12.24,11.49 20.11,18.45zm-54.85 77.73c6.93,-11.9 15.11,-22 24.54,-30.34 9.42,-8.33 20.8,-14.5 34.1,-18.45 13.32,-4 27.2,-5.02 41.57,-3.07 14.4,1.92 28.88,7.14 43.52,15.66 27.06,15.77 44.32,35.67 51.74,59.75 7.48,24.07 3.77,48.85 -11.07,74.34 -10.44,17.92 -23.74,31.78 -39.93,41.46 -16.19,9.74 -33.91,14.28 -53.15,13.68 -19.32,-0.58 -38.07,-6.23 -56.32,-16.86 -12.93,-7.53 -23.58,-16.61 -31.97,-27.27 -8.31,-10.66 -13.84,-22.49 -16.53,-35.54 -2.64,-13.02 -2.44,-26.19 0.7,-39.5 3.1,-13.27 7.38,-24.55 12.8,-33.86zm29.33 6.58c-5.64,9.67 -10.15,21.04 -13.51,34 -3.37,13 -4.26,25.27 -2.68,36.86 1.62,11.62 5.36,21.74 11.21,30.38 5.86,8.64 13.99,15.98 24.39,22.04 12.32,7.18 24.91,10.7 37.77,10.68 12.92,-0.04 25.29,-4.55 37.2,-13.5 11.95,-8.93 22.19,-20.82 30.79,-35.58 9.35,-16.05 14.93,-32.17 16.76,-48.48 1.79,-16.26 -0.86,-30.38 -8,-42.43 -7.13,-11.99 -17.09,-21.77 -29.98,-29.28 -19.27,-11.22 -38,-14.02 -56.17,-8.43 -18.12,5.6 -34.05,20.16 -47.78,43.74zm217.13 109.53c1.43,-3.89 2.26,-6.09 2.43,-6.57 0.32,-0.89 0.72,-2.19 1.29,-3.93l2.41 -1.05c4.75,2.23 9.13,4.08 13.22,5.52 8.25,2.92 15.23,4.04 21.08,3.31 5.8,-0.74 11.26,-3.35 16.35,-7.88 5.11,-4.53 9,-10.49 11.61,-17.85 3.48,-9.84 3.3,-18.78 -0.52,-26.77 -3.8,-7.99 -11.46,-13.98 -22.99,-18.06 -11.27,-3.98 -21.34,-4.15 -30.23,-0.46 -8.89,3.69 -16.9,11.53 -23.94,23.56l-1.96 0.9 -2.09 -0.74 -0.92 -1.92c3.02,-9.96 5.72,-19.68 7.98,-29.2 10.84,-3.26 21.02,-4.7 30.55,-4.26 9.51,0.46 19.65,2.55 30.29,6.31 17.74,6.28 30.19,14.12 37.29,23.51 7.11,9.41 8.58,19.9 4.44,31.61 -3.86,10.91 -10.92,18.74 -21.18,23.49 -10.22,4.77 -22.34,6.17 -36.28,4.28l-0.79 2.23c15.7,5.55 27.05,11.1 34.06,16.67 7.04,5.63 11.58,12.83 13.65,21.64 2.01,8.85 1.28,18.26 -2.26,28.29 -6.36,17.96 -18.31,30.59 -35.9,37.9 -17.62,7.33 -38.63,6.64 -63.07,-2 -11.21,-3.97 -20.95,-8.76 -29.2,-14.32 -8.21,-5.59 -14.66,-12.61 -19.33,-21.1 4.23,-9.73 7.02,-16.63 8.46,-20.71 0.72,-2.04 2.98,-8.82 6.77,-20.25l5.88 -0.12 0.99 1.7c-2.06,18.53 -0.87,32.92 3.65,43.14 4.52,10.23 13.19,17.6 25.92,22.1 9.18,3.24 18.03,4.03 26.62,2.32 8.61,-1.64 16.32,-5.96 23.12,-12.88 6.82,-6.87 11.82,-14.82 15.01,-23.82 4.47,-12.65 4.39,-23.99 -0.28,-34.08 -4.66,-10.08 -14.78,-17.9 -30.26,-23.37 -6.43,-2.27 -13.31,-3.81 -20.69,-4.68l-1.18 -2.46zm174.46 -32.79l-0.98 -1.39 0.71 -6.4 1.25 -1c10.44,1.83 22.14,3.46 35.23,4.92 11.04,1.23 22,2.12 32.97,2.67l0.96 1.24 -0.71 6.41 -1.23 1.14c-7.46,0.83 -12.26,1.76 -14.32,2.85 -2.06,1.05 -3.23,2.58 -3.45,4.59 -0.23,2.1 0.64,6.18 2.53,12.2 2.54,8.24 8.66,25.49 18.38,51.7 8.97,24.09 13.97,36.95 14.98,38.53 0.16,0.21 0.34,0.32 0.53,0.34 0.19,0.03 0.43,-0.04 0.73,-0.2 0.31,-0.15 1.42,-1.64 3.35,-4.54 1.93,-2.87 6.51,-10.45 13.69,-22.67l19.98 -33.7c5.92,-10.22 10.03,-17.48 12.31,-21.77 2.28,-4.29 3.51,-7.28 3.7,-9 0.2,-1.83 -0.18,-3.44 -1.11,-4.82 -0.95,-1.33 -2.43,-2.44 -4.37,-3.32 -1.94,-0.83 -5.68,-2.19 -11.2,-3.99l-1.07 -1.4 0.71 -6.4 1.34 -0.99c13.25,2.14 23.31,3.59 30.18,4.35 7.11,0.8 15.51,1.4 25.16,1.81l0.95 1.24 -0.71 6.4 -1.21 1.14c-5.89,0.63 -10.48,1.97 -13.74,3.97 -3.29,1.95 -7.98,7.11 -14.15,15.32 -6.12,8.21 -16.49,23.58 -31.1,45.95 -11.25,17.44 -21.49,32.87 -30.65,46.24l-25.31 36.98c-6.36,8.61 -11.27,14.51 -14.87,17.56 -3.56,3.06 -7.26,5.16 -11.03,6.3 -3.77,1.19 -7.92,1.48 -12.36,0.99 -4.31,-0.48 -9.61,-2.11 -15.97,-4.95 0.78,-15.15 0.61,-28.9 -0.39,-41.22l5.72 -1.58c2.7,8.06 5.63,13.63 8.78,16.78 3.2,3.14 6.84,4.93 10.95,5.39 5.93,0.66 11.96,-1.14 18.1,-5.33 6.16,-4.23 11.83,-10.18 17.04,-17.84 -3.36,-9.79 -9.79,-26.88 -19.37,-51.38l-22.65 -58.08c-5.63,-14.39 -9.33,-22.8 -11.15,-25.23 -1.81,-2.42 -3.78,-4.3 -5.9,-5.67 -2.08,-1.32 -5.85,-2.74 -11.23,-4.14zm193.68 202.42l-0.44 -5.77 1.04 -1.06c6.8,-1.14 10.93,-2.07 12.38,-2.8 1.41,-0.71 2.54,-1.98 3.34,-3.79 0.86,-1.81 1.1,-6.07 0.78,-12.75 -0.33,-6.71 -0.92,-15.77 -1.79,-27.22l-1.79 -23.35c-0.55,-7.18 -1.26,-15.15 -2.11,-24 -0.87,-8.8 -1.88,-14.05 -3,-15.72 -1.17,-1.65 -2.52,-2.72 -4.07,-3.22 -1.55,-0.49 -5.72,-0.74 -12.42,-0.75l-1.2 -1.03 -0.44 -5.78 1.04 -1.02c9.11,0.01 18.99,-0.37 29.64,-1.18 11.07,-0.85 20.93,-1.98 29.6,-3.35l1.15 0.86 0.44 5.77 -0.99 1.2c-6.85,1.15 -10.98,2.07 -12.43,2.8 -1.51,0.72 -2.58,1.99 -3.35,3.79 -0.7,1.8 -0.95,6.06 -0.67,12.74 0.27,6.73 0.87,15.74 1.74,27.14l0.69 9.04 1.08 -0.08c11.03,-11.18 21.53,-22.59 31.39,-34.24 9.92,-11.7 15.31,-18.2 16.25,-19.59 0.98,-1.35 1.41,-2.51 1.33,-3.55 -0.08,-1.08 -0.94,-1.81 -2.66,-2.15l-0.41 -5.35 1.04 -1.16c7.94,0.1 13.21,0.07 15.89,-0.13 4.5,-0.35 9.73,-1.13 15.72,-2.29l1.02 1.01 0.45 5.77 -0.87 1.05c-5.92,0.98 -10.96,2.91 -15.03,5.77 -4.12,2.87 -18.8,17.63 -44.02,44.32l60.7 54.8c4.36,4 7.28,6.42 8.76,7.3 1.53,0.83 3.63,1.18 6.4,1.07l0.71 0.65 0.45 5.91 -0.59 0.9c-14.33,0.62 -23.06,0.63 -26.12,0.06 -3.12,-0.62 -6.6,-2.33 -10.59,-5.23 -3.95,-2.86 -10.62,-8.68 -20.01,-17.35 -19.11,-17.4 -32.29,-28.76 -39.54,-34l-1.07 0.08 0.82 10.74c0.57,7.51 1.28,15.61 2.13,24.28 0.86,8.7 1.82,13.87 2.89,15.53 1.12,1.66 2.47,2.73 4.06,3.13 1.59,0.44 5.77,0.74 12.52,0.84l1.15 0.89 0.44 5.78 -1 1.16c-9.14,-0.01 -19.07,0.37 -29.76,1.19 -11.03,0.84 -20.84,1.97 -29.47,3.33l-1.2 -0.99zm179.41 -153.27l2.8 1.03c1.52,10.76 3.11,19.96 4.75,27.49 4.35,-6.46 8.72,-12.64 13.01,-18.5 4.3,-5.87 7.31,-9.56 8.98,-11.1 1.66,-1.59 4.33,-3.22 7.99,-4.89 3.66,-1.71 8.29,-3.21 13.93,-4.51 16.35,-3.78 30.51,-1.69 42.34,6.3 11.83,7.94 19.56,19.92 23.24,35.86 1.52,6.61 2.02,13.58 1.43,20.86 -0.57,7.33 -1.94,14.16 -4.08,20.6 -2.13,6.42 -3.95,10.66 -5.47,12.65 -1.52,1.99 -6.01,6.6 -13.38,13.75 -3.01,2.87 -6,6.03 -9.02,9.47 -4.26,4.75 -7.09,7.77 -8.43,9.09 -1.34,1.28 -3.74,2.79 -7.18,4.46 -3.41,1.7 -7.21,3.02 -11.43,3.99 -9.31,2.15 -19.12,1.9 -29.46,-0.68l5.8 25.11c1.56,6.78 3.78,15.35 6.58,25.61 2.77,10.32 4.72,16.04 5.82,17.25 1.06,1.24 2.37,1.9 3.84,2.01 1.48,0.14 5.91,-0.31 13.35,-1.35l1.43 0.78 1.3 5.64 -0.9 1.51c-10.94,1.76 -20.97,3.68 -30.09,5.79 -9.12,2.1 -18.98,4.77 -29.53,7.97l-1.39 -0.98 -1.3 -5.64 0.86 -1.31c6.65,-2.11 10.67,-3.52 11.96,-4.21 1.3,-0.64 2.21,-1.47 2.69,-2.35 0.51,-0.94 0.77,-2.31 0.74,-4.13 0,-1.84 -1.02,-8.18 -3.17,-18.97 -2.1,-10.76 -3.64,-18.28 -4.61,-22.45l-23.76 -102.98c-0.93,-4.03 -2.27,-9.18 -4.05,-15.44 -1.77,-6.2 -2.89,-9.8 -3.39,-10.75 -0.51,-0.9 -1.34,-1.57 -2.55,-2.02 -1.15,-0.41 -3.44,-0.26 -6.88,0.53 -0.5,0.12 -3.41,0.69 -8.63,1.71l-1.48 -0.78 -1.33 -5.77 0.82 -1.45c15.46,-6.02 28.08,-12.41 37.85,-19.2zm24.69 102.77c12.7,7.98 25.73,10.47 39.07,7.39 13.7,-3.16 23.23,-10.81 28.7,-22.89 5.45,-12.12 6.5,-25.59 3.07,-40.44 -2.11,-9.17 -5.74,-16.92 -10.84,-23.33 -5.09,-6.4 -11.56,-10.79 -19.3,-13.15 -7.74,-2.37 -15.3,-2.7 -22.63,-1.01 -4.95,1.14 -9.48,3.1 -13.56,5.88 -4.13,2.79 -7.72,6.27 -10.83,10.37 -3.12,4.1 -5.13,7.7 -6.03,10.7 -0.89,3.06 -1.28,5.33 -1.14,6.78 0.14,1.47 0.64,4.01 1.46,7.59l12.03 52.11zm134.09 -105.63l-5.5 0.68 -1.56 -0.84c-0.46,-1.39 -1.11,-3.15 -1.97,-5.28l-4.39 -10.56c6.8,-9.68 12.88,-17.13 18.25,-22.34 5.29,-5.22 11.71,-9.31 19.21,-12.33 13.24,-5.32 25.05,-6.05 35.51,-2.24 10.46,3.85 18.05,11.65 22.82,23.52l9.67 25.97 15.31 38.11c1.84,4.58 3.46,7.48 4.78,8.62 1.37,1.12 2.8,1.67 4.32,1.66 1.52,0 4.44,-0.66 8.76,-2.04l1.48 0.77 2.05 5.11 -0.59 1.45c-6.88,2.05 -12.24,3.85 -15.94,5.34 -3.59,1.44 -9,3.97 -16.27,7.6l-2.65 -1.07 -7.79 -20.74 -11.23 19.36c-3.86,6.77 -6.49,11.32 -7.88,13.55 -3.93,3.86 -8.65,6.87 -14.19,9.09 -10.13,4.08 -19.2,4.58 -27.23,1.51 -8.02,-3.06 -13.88,-9.22 -17.62,-18.51 -3.87,-9.64 -4.5,-18.52 -1.93,-26.65 2.58,-8.08 8.29,-15.95 17.08,-23.48 8.78,-7.54 22.75,-16.8 41.79,-27.69 -2.12,-5.28 -4.29,-9.68 -6.5,-13.15 -2.25,-3.46 -5.42,-6.29 -9.56,-8.53 -4.11,-2.3 -8.62,-3.43 -13.54,-3.43 -4.87,-0.03 -9.97,1.06 -15.25,3.18 -2.83,1.14 -5.45,2.44 -7.92,3.99 -2.43,1.54 -4.62,3.28 -6.53,5.21 -1.89,1.98 -3.01,3.24 -3.35,3.88 -0.31,0.63 -0.49,1.57 -0.48,2.87 -0.06,0.59 -0.16,3.01 -0.33,7.24 -0.16,3.26 -0.22,6.28 -0.05,9.09l-0.78 1.08zm67.27 -4.01c-18.42,11.05 -30.7,20.49 -36.76,28.36 -6.13,7.83 -7.09,16.93 -2.95,27.23 2.66,6.63 6.46,11.05 11.4,13.11 4.93,2.07 10.48,1.87 16.63,-0.6 11.35,-4.56 19.92,-15.65 25.71,-33.18l-14.03 -34.92zm69.15 -99.8l3.14 0.22c5.31,10.85 12.67,24.26 22.17,40.23l15.91 26.77c1.04,1.73 4.52,7.21 10.44,16.44 5.95,9.28 9.54,14.57 10.84,15.94 1.31,1.35 2.51,2.18 3.63,2.5 1.15,0.29 2.27,0.23 3.45,-0.19 1.12,-0.4 5.6,-2.62 13.37,-6.59l1.64 0.28 2.96 4.98 -0.35 1.62c-10.22,5.27 -19.92,10.59 -29.1,16.05 -9.05,5.38 -18.36,11.36 -27.86,17.82l-1.68 -0.42 -2.96 -4.98 0.5 -1.55c7.36,-5.03 11.46,-7.97 12.33,-8.81 0.82,-0.81 1.43,-1.84 1.72,-2.99 0.31,-1.23 0.17,-2.67 -0.51,-4.35 -0.63,-1.71 -3.33,-6.99 -8.11,-15.86 -4.79,-8.87 -8.52,-15.52 -11.13,-19.92l-13.87 -23.33c-1.88,-3.15 -4.61,-7.38 -8.18,-12.65 -3.55,-5.23 -5.78,-8.44 -6.76,-9.61 -0.94,-1.13 -2.11,-1.7 -3.47,-1.71 -1.39,0.06 -3.61,0.94 -6.72,2.79l-9.99 5.83 -1.63 -0.34 -3.03 -5.1 0.38 -1.48c14.04,-10.8 24.98,-21.31 32.87,-31.59zm-3.05 -31.83c-3.56,2.12 -7.37,2.62 -11.36,1.6 -4.06,-1.03 -7.12,-3.32 -9.23,-6.88 -2.14,-3.59 -2.71,-7.41 -1.74,-11.38 1.04,-3.95 3.33,-7.01 6.97,-9.18 3.64,-2.16 7.46,-2.73 11.39,-1.73 4,1.01 7.07,3.34 9.21,6.94 2.11,3.56 2.63,7.36 1.63,11.39 -1.05,4.03 -3.31,7.13 -6.87,9.24zm-50.1 29.79c-3.55,2.11 -7.35,2.61 -11.4,1.62 -4.01,-1.06 -7.07,-3.34 -9.19,-6.9 -2.09,-3.52 -2.66,-7.33 -1.65,-11.33 1.04,-4.06 3.32,-7.12 6.88,-9.23 3.65,-2.17 7.42,-2.71 11.39,-1.74 4,1.01 7.04,3.37 9.18,6.96 2.12,3.56 2.66,7.34 1.67,11.38 -1.05,4.02 -3.32,7.12 -6.88,9.24zm163.23 3.27c13.84,-9.7 23.37,-16.43 28.57,-20.23 6,-4.38 15.2,-11.33 27.61,-20.81l-2.19 -3c-4.02,-5.5 -8.76,-11.84 -14.21,-18.98 -5.44,-7.2 -9.13,-11.21 -10.94,-12.1 -1.86,-0.87 -3.53,-1.09 -5.11,-0.69 -1.61,0.42 -5.29,2.4 -11.06,5.98l-1.58 -0.24 -3.41 -4.68 0.35 -1.42c7.82,-4.85 15.87,-10.26 24.11,-16.27 8.58,-6.27 16.18,-12.3 22.83,-18.02l1.43 0.12 3.42 4.67 -0.22 1.54c-5.21,4.58 -8.23,7.55 -9.08,8.92 -0.86,1.39 -1.15,3.06 -0.86,5.05 0.33,1.98 2.51,5.92 6.55,11.76 4.06,5.89 9.18,13.05 15.37,21.52l13.81 18.91 14.43 19.28c5.43,7.1 9.02,11.07 10.85,11.89 1.78,0.85 3.5,1.05 5.06,0.55 1.59,-0.47 5.3,-2.41 11.08,-5.88l1.45 0.15 3.42 4.68 -0.24 1.51c-7.82,4.84 -15.9,10.28 -24.11,16.28 -8.61,6.29 -16.21,12.31 -22.83,18.01l-1.55 -0.21 -3.41 -4.67 0.33 -1.46c5.18,-4.54 8.2,-7.51 9.09,-8.92 0.86,-1.38 1.15,-3.05 0.84,-4.98 -0.27,-1.96 -2.3,-5.71 -6.18,-11.26 -3.82,-5.55 -9.1,-12.94 -15.81,-22.12l-6.52 -8.93c-8.42,5.79 -17.8,12.47 -28.17,20.05 -9.42,6.88 -18.76,13.87 -28.01,20.99l6.52 8.92c4.27,5.85 9.1,12.29 14.5,19.36 5.33,7.05 8.96,10.99 10.74,11.84 1.83,0.82 3.54,1.02 5.1,0.52 1.58,-0.46 5.29,-2.4 11.05,-5.85l1.49 0.13 3.41 4.67 -0.27 1.54c-7.82,4.84 -15.87,10.25 -24.11,16.28 -8.66,6.32 -16.26,12.34 -22.84,18.02l-1.51 -0.24 -3.41 -4.67 0.29 -1.43c5.23,-4.58 8.24,-7.54 9.06,-8.9 0.81,-1.35 1.1,-3.02 0.84,-4.98 -0.23,-1.99 -2.27,-5.74 -6.06,-11.24 -3.81,-5.54 -9.09,-12.93 -15.86,-22.2l-13.81 -18.91c-4.25,-5.82 -9.05,-12.22 -14.45,-19.29 -5.36,-7.03 -8.99,-10.95 -10.82,-11.78 -1.86,-0.8 -3.54,-1.02 -5.15,-0.6 -1.58,0.4 -5.22,2.35 -10.96,5.9l-1.53 -0.27 -3.42 -4.67 0.32 -1.4c7.79,-4.82 15.84,-10.23 24.11,-16.27 8.63,-6.3 16.23,-12.33 22.84,-18.02l1.47 0.09 3.41 4.67 -0.25 1.58c-5.18,4.55 -8.2,7.51 -9.13,8.88 -0.9,1.3 -1.2,2.97 -0.87,4.94 0.3,2 2.34,5.75 6.17,11.23 3.79,5.5 9.03,12.85 15.83,22.16l2.19 3zm161.37 -34.5l-4.16 -4.02 0.08 -1.49c3.25,-4.51 5.42,-8.11 6.57,-10.72 1.08,-2.62 1.48,-4.72 1.12,-6.25 -0.33,-1.55 -1.11,-3.1 -2.34,-4.61 -1.26,-1.48 -4.68,-5.12 -10.3,-10.87 -5.61,-5.76 -9.91,-10.12 -12.96,-13.06l-17.92 -17.32c-15.59,-15.07 -25.12,-23.22 -28.47,-24.5 -3.34,-1.27 -9.25,1.46 -17.62,8.15l-1.59 0.03 -4.16 -4.02 0.1 -1.46c9.37,-8.68 17.03,-16.06 22.92,-22.15 5.68,-5.88 12.77,-13.76 21.31,-23.61l1.37 -0.06 4.16 4.02 0.12 1.49c-3.51,4.78 -5.71,8.36 -6.63,10.73 -0.96,2.35 -1.33,4.21 -1.23,5.61 0.15,1.39 0.64,2.72 1.59,4.03 0.92,1.28 4.31,4.94 10.13,11.03 5.8,6.06 10.47,10.77 13.98,14.17l40.92 39.55 2.11 -1.03c-3.31,-15.3 -8.62,-36.07 -15.93,-62.3 -7.29,-26.22 -13.23,-46.61 -17.82,-61.14 6.51,-5.73 11.79,-10.64 15.8,-14.8 4.16,-4.3 9.02,-9.87 14.56,-16.61l1.46 -0.16 4.16 4.03 0.02 1.59c-6.46,8.66 -8.95,14.69 -7.47,18.09 1.56,3.39 10,12.54 25.38,27.41l17.93 17.32c15.52,15.01 25,23.13 28.35,24.41 3.35,1.27 9.29,-1.42 17.73,-8.05l1.49 -0.13 4.16 4.02 0 1.56c-9.36,8.68 -17.02,16.06 -22.91,22.15 -5.69,5.89 -12.77,13.76 -21.32,23.61l-1.57 0.06 -4.16 -4.02 0.08 -1.49c6.41,-8.73 8.86,-14.79 7.44,-18.19 -1.45,-3.37 -9.89,-12.51 -25.28,-27.39l-40.31 -38.97 -2.14 1.01c2.49,11.7 7.78,31.73 15.88,60.1 8.14,28.34 14.37,48.76 18.74,61.29 -6.52,5.73 -11.7,10.55 -15.55,14.54 -4.15,4.29 -9.54,10.41 -16.26,18.37l-1.56 0.05z"/>
  <path class="fil1" d="M676.65 1844.93l1.36 0.8c0.19,0.62 1.55,6.47 4.14,17.53 2.51,10.65 4.2,17.72 5.16,21.17 0.5,1.88 4.22,14.37 11.2,37.48l-0.77 1.35 -6.64 1.79 -1.08 -0.86c-2.39,-7.74 -4.23,-13.01 -5.57,-15.94 -1.39,-2.93 -2.74,-4.72 -4.2,-5.39 -1.4,-0.67 -3.47,-0.83 -6.16,-0.47 -2.72,0.36 -9.41,1.86 -20.02,4.55 -10.65,2.65 -19.33,4.93 -26.06,6.71l-61.61 16.61c-9,2.42 -18.71,5.13 -29.08,8.15 -10.37,3.03 -16.45,5.05 -18.25,6.07 -1.84,1.02 -3.02,2.1 -3.64,3.27 -0.58,1.13 -0.74,3.14 -0.52,5.97 0.26,2.82 1.3,8.43 3.16,16.76l-0.67 1.32 -6.64 1.78 -1.21 -0.8 -2.02 -8.02 -1.28 -5.37 -2.33 -9.18 -4.89 -18.68 -7.16 -27.71c-2.75,-10.6 -5.77,-22.14 -9.06,-34.64l-14.74 -53.22 -8.71 -31.2c-1.68,-5.99 -3.43,-11.93 -5.22,-17.82l0.67 -1.32 6.65 -1.77 1.21 0.8c2.62,8.58 4.55,14.15 5.8,16.6 1.3,2.45 2.51,4.02 3.64,4.64 1.12,0.67 2.82,0.92 5.02,0.79 2.26,-0.12 9.14,-1.62 20.64,-4.55 11.46,-2.88 20.45,-5.2 26.91,-6.94l61.56 -16.56c6.93,-1.87 15.61,-4.3 26.02,-7.28 10.42,-3.03 16.92,-5.05 19.52,-6.06 2.64,-1.06 4.35,-2.22 5.2,-3.64 0.81,-1.35 1.07,-3.7 0.71,-6.99 -0.3,-3.34 -1.34,-8.76 -3.08,-16.3l0.49 -1.27 6.65 -1.79 1.35 0.76c0.23,0.72 1.6,6.56 4.15,17.59 2.51,10.64 4.24,17.72 5.2,21.25 0.46,1.79 4.22,14.28 11.19,37.48l-0.8 1.21 -6.65 1.79 -1.03 -0.72c-2.76,-8.76 -4.74,-14.33 -6.04,-16.73 -1.25,-2.47 -2.46,-3.92 -3.54,-4.55 -1.12,-0.62 -2.81,-0.82 -5.07,-0.69 -2.21,0.11 -9.09,1.61 -20.59,4.45 -11.5,2.88 -20.46,5.15 -26.82,6.85l-112.37 30.23 -1.09 1.87 27.31 101.35 1.83 1.05 112.37 -30.24c6.83,-1.83 15.5,-4.26 26.02,-7.28 10.46,-3.03 17.02,-5.05 19.57,-6.11 2.59,-1.06 4.3,-2.27 5.1,-3.59 0.81,-1.3 1.11,-3.61 0.76,-6.9 -0.31,-3.3 -1.34,-8.76 -3.07,-16.35l0.47 -1.31 6.65 -1.78z"/>
  <path id="_1_0" class="fil1" d="M501.2 1659.67l1.43 -2.59c10.87,0.02 20.19,-0.23 27.85,-0.75 -5.78,-5.23 -11.22,-10.41 -16.38,-15.51 -5.21,-5.14 -8.42,-8.6 -9.7,-10.48 -1.33,-1.87 -2.53,-4.78 -3.68,-8.62 -1.15,-3.91 -1.99,-8.7 -2.45,-14.48 -1.37,-16.73 2.77,-30.41 12.35,-40.96 9.62,-10.54 22.57,-16.46 38.84,-17.78 6.76,-0.57 13.72,-0.05 20.89,1.6 7.11,1.61 13.71,3.96 19.75,7.03 6.09,3.07 10.01,5.48 11.76,7.26 1.75,1.78 5.64,6.88 11.67,15.21 2.37,3.42 5.08,6.84 8.01,10.25 4.08,4.92 6.68,8.15 7.78,9.69 1.09,1.5 2.24,4.08 3.39,7.74 1.2,3.61 1.93,7.61 2.28,11.88 0.77,9.55 -0.86,19.21 -4.94,29.06l25.68 -2.1c6.95,-0.56 15.74,-1.5 26.32,-2.8 10.57,-1.24 16.54,-2.35 17.89,-3.26 1.36,-0.85 2.2,-2.03 2.57,-3.49 0.32,-1.46 0.52,-5.93 0.57,-13.42l0.99 -1.31 5.78 -0.47 1.32 1.13c0.16,11.05 0.61,21.25 1.37,30.6 0.76,9.31 1.96,19.47 3.58,30.37l-1.12 1.23 -5.78 0.46 -1.19 -1.03c-1.12,-6.9 -1.9,-11.04 -2.39,-12.45 -0.47,-1.36 -1.13,-2.39 -1.99,-3 -0.8,-0.65 -2.17,-1.07 -3.95,-1.33 -1.84,-0.27 -8.24,-0.14 -19.2,0.4 -10.95,0.5 -18.62,0.96 -22.9,1.28l-105.35 8.61c-4.08,0.31 -9.35,0.91 -15.79,1.75 -6.44,0.89 -10.16,1.47 -11.14,1.81 -0.99,0.39 -1.78,1.1 -2.38,2.23 -0.61,1.09 -0.73,3.39 -0.48,6.86 0.05,0.57 0.22,3.49 0.43,8.81l-0.97 1.31 -5.93 0.52 -1.32 -1.04c-3.68,-16.15 -8.19,-29.58 -13.47,-40.22zm105.21 -9.56c9.75,-11.35 14.1,-23.89 12.98,-37.53 -1.13,-14 -7.32,-24.59 -18.46,-31.72 -11.19,-7.17 -24.38,-10.15 -39.61,-8.88 -9.31,0.77 -17.53,3.23 -24.6,7.32 -7.08,4.13 -12.36,9.86 -15.79,17.22 -3.48,7.3 -4.9,14.7 -4.28,22.23 0.4,5.02 1.7,9.82 3.85,14.27 2.14,4.5 5.04,8.58 8.68,12.22 3.6,3.65 6.86,6.17 9.74,7.51 2.83,1.3 5.05,2.04 6.51,2.07 1.5,0.09 4.04,-0.01 7.7,-0.32l53.28 -4.39z"/>
  <path id="_2" class="fil1" d="M439.79 1466.66c0.35,-4.29 2.17,-7.8 5.43,-10.6 3.27,-2.76 7.03,-3.96 11.36,-3.6 4.18,0.35 7.65,2.16 10.45,5.42 2.76,3.27 3.96,7.05 3.6,11.37 -0.35,4.18 -2.11,7.7 -5.38,10.54 -3.22,2.81 -6.98,4 -11.27,3.65 -4.32,-0.35 -7.84,-2.17 -10.59,-5.48 -2.76,-3.31 -3.95,-7.08 -3.6,-11.3zm62.27 -6.52l2 -2.49c11.88,2.01 27.07,3.8 45.54,5.32l31.03 2.6c2.02,0.16 8.46,0.53 19.46,1.07 10.96,0.54 17.36,0.67 19.24,0.4 1.84,-0.22 3.2,-0.73 4.11,-1.52 0.9,-0.76 1.51,-1.69 1.85,-2.86 0.29,-1.18 1.11,-6.06 2.4,-14.71l1.18 -1.17 5.78 0.51 1.12 1.18c-1.67,11.37 -2.96,22.38 -3.83,32.95 -0.91,10.53 -1.45,21.53 -1.67,33.01l-1.32 1.16 -5.79 -0.5 -0.98 -1.33c0.21,-8.88 0.19,-13.91 0.01,-15.09 -0.18,-1.18 -0.64,-2.22 -1.44,-3.16 -0.79,-0.95 -2.1,-1.66 -3.84,-2.15 -1.74,-0.47 -7.61,-1.31 -17.63,-2.56 -9.96,-1.23 -17.53,-2.08 -22.65,-2.49l-26.99 -2.29c-3.67,-0.3 -8.65,-0.52 -15,-0.65 -6.35,-0.18 -10.25,-0.21 -11.76,-0.08 -1.46,0.08 -2.59,0.69 -3.4,1.81 -0.76,1.18 -1.29,3.52 -1.59,7.05l-1.11 11.52 -1.18 1.16 -5.93 -0.5 -1.02 -1.18c-0.64,-17.65 -2.85,-32.67 -6.59,-45.01z"/>
  <path id="_3" class="fil1" d="M598.27 1411.51l-0.18 -5.89c8.8,0.28 15.56,-0.15 20.31,-1.26 4.69,-1.12 9.23,-4.11 13.48,-8.99 4.3,-4.87 7.12,-11.15 8.53,-18.83 1.95,-10.78 -0.09,-19.56 -6.02,-26.44 -5.98,-6.87 -13.58,-11.09 -22.76,-12.77 -8.8,-1.59 -16.14,-0.03 -22.07,4.67 -5.95,4.64 -9.8,12.06 -11.61,22.18 -0.68,3.77 -1.03,7.77 -1.05,12l-2.1 1.43 -5.14 -0.9 -1.42 -2.11c0.64,-2.49 1.05,-4.43 1.27,-5.74 1.68,-9.14 0.41,-16.61 -3.73,-22.42 -4.13,-5.76 -10.08,-9.39 -17.86,-10.79 -6.87,-1.21 -12.74,0 -17.56,3.75 -4.82,3.7 -7.93,9.42 -9.34,17.19 -1.12,6.45 -0.9,12.09 0.74,17.01 1.63,4.94 4.11,8.87 7.42,11.86 3.27,2.94 7.37,5.36 12.28,7.15l-0.95 5.19c-9.1,-2.24 -17.62,-4.02 -25.49,-5.48 -2.26,-14.18 -2.13,-28.52 0.5,-43.04 5.02,-28.01 15.95,-40.51 32.76,-37.47 7.54,1.35 13.53,5.02 18.05,11.07 4.51,6.03 6.81,13.44 6.92,22.24l2.69 0.5c0.82,-4.43 2.79,-9.99 5.95,-16.7 3.2,-6.74 7.68,-11.75 13.43,-15.18 5.82,-3.38 12.58,-4.37 20.36,-2.97 7.86,1.4 14.85,5.03 20.96,10.81 6.11,5.84 10.15,13.57 12.11,23.29 1.99,9.69 2.02,19.88 0.12,30.67 -2.68,14.84 -8.46,28.99 -17.34,42.56 -9.05,-2.21 -15.89,-3.75 -20.6,-4.57 -2.92,-0.55 -7.1,-1.22 -12.66,-2.02z"/>
  <path id="_4" class="fil1" d="M663.83 1292.77l-5.46 -1.9 -0.55 -1.36c1.65,-6.72 2.46,-10.86 2.37,-12.46 -0.08,-1.56 -0.79,-3.1 -2.1,-4.62 -1.32,-1.46 -5.13,-3.39 -11.38,-5.8 -6.25,-2.37 -14.8,-5.49 -25.66,-9.27l-22.09 -7.76c-6.77,-2.36 -14.34,-4.92 -22.8,-7.66 -8.41,-2.8 -13.58,-3.98 -15.56,-3.61 -2.02,0.42 -3.53,1.21 -4.57,2.43 -1.08,1.23 -2.97,4.94 -5.71,11.05l-1.41 0.7 -5.46 -1.94 -0.56 -1.31c4.87,-11.66 8.37,-20.54 10.55,-26.7 0.98,-2.96 2.36,-7.1 4.06,-12.46 4.88,-15.27 8.28,-25.76 10.27,-31.4 3.51,-9.97 8.27,-16.54 14.34,-19.63 6.03,-3.14 12.42,-3.55 19.1,-1.23 14.19,5.01 20.52,18.05 18.93,39.21 4.91,-11.69 10.94,-19.5 18.2,-23.39 7.25,-3.89 15.1,-4.34 23.47,-1.41 10.35,3.6 18.23,10.76 23.71,21.5 5.49,10.74 5.22,24.75 -0.88,42.09 -0.42,1.23 -1.42,3.76 -2.93,7.57 -2.88,7.1 -5.06,12.74 -6.53,17.02 -3.36,10.57 -6.67,21.15 -9.93,31.68l-1.42 0.66zm-56.78 -63.38c1.41,-3.38 2.45,-6.16 3.21,-8.22 4.21,-12.04 5.17,-21.16 2.92,-27.37 -2.25,-6.17 -6.85,-10.51 -13.76,-12.92 -6.06,-2.12 -11.75,-1.95 -17.07,0.53 -5.28,2.49 -9.66,8.59 -13.07,18.36 -1.51,4.38 -2.89,8.98 -4.17,13.92l41.94 15.7zm7.8 2.74l54.57 18.08c2.12,-4.13 4.06,-8.79 5.9,-13.96 2.66,-7.56 3.28,-14.06 1.88,-19.56 -1.36,-5.51 -3.84,-9.93 -7.46,-13.33 -3.56,-3.39 -7.79,-5.99 -12.77,-7.69 -5.69,-2.04 -11.19,-2.46 -16.42,-1.4 -5.27,1.08 -9.55,3.84 -12.95,8.21 -3.39,4.42 -6.66,10.99 -9.72,19.78 -0.76,2.26 -1.81,5.55 -3.03,9.87z"/>
  <path id="_5" class="fil1" d="M712.76 1156.9l-4.98 -2.92 -0.28 -1.46c2.03,-5.17 3.3,-9.17 3.78,-11.94 0.42,-2.82 0.33,-4.94 -0.37,-6.35 -0.75,-1.47 -1.88,-2.74 -3.43,-3.91 -1.55,-1.18 -5.74,-3.87 -12.55,-8.11 -6.86,-4.24 -12.07,-7.4 -15.74,-9.52l-21.57 -12.54c-18.71,-10.9 -29.9,-16.6 -33.47,-17.03 -3.57,-0.43 -8.62,3.61 -15.16,12.16l-1.51 0.37 -5.03 -2.87 -0.28 -1.46c7.07,-10.66 12.73,-19.65 16.97,-26.98 4.1,-7.04 9.15,-16.4 15.05,-28.06l1.31 -0.32 4.99 2.88 0.51 1.4c-2.26,5.51 -3.54,9.51 -3.87,12 -0.38,2.54 -0.29,4.41 0.13,5.78 0.47,1.31 1.27,2.49 2.49,3.49 1.22,1.03 5.35,3.82 12.5,8.29 7.09,4.52 12.74,7.97 16.97,10.42l49.15 28.62 1.84 -1.5c-6.89,-14.07 -17.02,-33 -30.35,-56.68 -13.38,-23.73 -24.02,-42.08 -32,-55.12 4.99,-7.1 8.95,-13.12 11.82,-18.15 3.02,-5.11 6.42,-11.7 10.14,-19.59l1.41 -0.47 4.99 2.92 0.42 1.51c-4.25,9.96 -5.2,16.4 -2.9,19.37 2.26,2.92 12.69,9.76 31.17,20.5l21.56 12.55c18.66,10.84 29.75,16.51 33.34,16.93 3.56,0.42 8.69,-3.61 15.29,-12.07l1.42 -0.47 4.98 2.88 0.42 1.5c-7.07,10.68 -12.73,19.69 -16.97,26.98 -4.1,7.05 -9.1,16.41 -15.04,28.06l-1.51 0.42 -4.99 -2.92 -0.28 -1.41c4.11,-10.07 5.06,-16.56 2.86,-19.47 -2.21,-2.97 -12.6,-9.81 -31.07,-20.55l-48.5 -28.2 -1.84 1.5c5.21,10.79 15.15,28.96 29.85,54.56 14.63,25.57 25.57,43.92 32.84,55.03 -4.99,7.1 -8.86,13.02 -11.64,17.77 -2.97,5.17 -6.79,12.45 -11.37,21.76l-1.5 0.42z"/>
  <path id="_6" class="fil1" d="M806.62 994.13l-4.15 -3.99 0.04 -1.45c3.24,-4.58 5.38,-8.16 6.51,-10.75 1.12,-2.64 1.49,-4.71 1.1,-6.26 -0.33,-1.55 -1.14,-3.1 -2.36,-4.6 -1.28,-1.5 -4.67,-5.11 -10.34,-10.83 -5.65,-5.68 -9.99,-10.04 -13.07,-12.94l-18.02 -17.21c-15.61,-15 -25.14,-23.11 -28.54,-24.37 -3.33,-1.26 -9.21,1.49 -17.56,8.24l-1.55 0.06 -4.2 -3.99 0.09 -1.51c9.33,-8.69 16.93,-16.09 22.74,-22.22 5.86,-6.09 12.94,-14.01 21.19,-23.73l1.36 -0.05 4.2 4.03 0.15 1.46c-3.46,4.81 -5.67,8.39 -6.6,10.75 -0.94,2.35 -1.3,4.23 -1.2,5.64 0.15,1.37 0.66,2.73 1.6,4 0.95,1.26 4.35,4.92 10.2,10.97 5.85,6.05 10.53,10.74 14.01,14.12l47.98 45.85 1.55 -0.05 40.1 -41.9 -0.06 -1.55 -47.94 -45.85c-2.26,-2.16 -6.36,-5.95 -12.35,-11.35 -5.94,-5.39 -9.86,-8.8 -11.75,-10.41 -1.88,-1.54 -3.62,-2.43 -5.18,-2.75 -1.56,-0.28 -3.67,0.15 -6.3,1.33 -2.63,1.14 -6.2,3.56 -10.65,7.14l-1.46 -0.05 -4.19 -3.98 -0.01 -1.36c9.38,-8.78 16.98,-16.24 22.74,-22.27 5.9,-6.14 12.98,-14.06 21.18,-23.73l1.47 -0.14 4.2 4.03 0.04 1.55c-6.47,8.72 -8.89,14.75 -7.38,18.13 1.57,3.38 10.07,12.43 25.55,27.2l47.92 45.9 1.47 0.04 40.17 -41.99 -0.14 -1.45 -47.93 -45.85c-15.67,-15.01 -25.2,-23.11 -28.59,-24.37 -3.34,-1.26 -9.21,1.48 -17.57,8.24l-1.54 0.05 -4.2 -3.99 0.08 -1.46c9.33,-8.73 16.93,-16.14 22.8,-22.26 5.86,-6.14 12.93,-14.06 21.14,-23.74l1.5 -0.15 4.15 4.04 0.05 1.55c-6.41,8.67 -8.89,14.75 -7.38,18.19 1.47,3.37 9.97,12.47 25.44,27.29l47.94 45.85 1.55 -0.05c5.11,-5.57 9.75,-11.09 13.97,-16.56l2.53 -0.05c8.05,15.07 17.93,30.29 29.54,45.58l-4.07 4.29 -17.22 -15.51c-5.75,-5.11 -9.62,-8.01 -11.55,-8.67 -1.98,-0.7 -4.33,-0.46 -7,0.64 -2.72,1.08 -6.44,4.1 -11.13,9.02l-51.85 53.27 -41.3 43.77 -26.87 28.45c-5.58,5.81 -10.07,10.71 -13.45,14.72l-1.6 0z"/>
  <path id="_7" class="fil1" d="M1076.92 734l1.68 10.77c-4.69,10.33 -9.71,18.31 -14.99,23.9 -5.32,5.59 -10.41,10 -15.38,13.18 -9.23,5.96 -19.17,9.78 -29.83,11.5 -10.62,1.73 -21.35,-0.03 -32.12,-5.32 -10.76,-5.29 -20.09,-14.01 -27.98,-26.24 -5.19,-8.1 -8.91,-16.08 -11.13,-23.86 -2.17,-7.85 -3.2,-14.05 -3.05,-18.62 0.16,-4.55 1.62,-10.49 4.39,-17.75 2.78,-7.22 6.36,-13.88 10.73,-19.98 4.34,-6.09 9.94,-11.36 16.73,-15.74 9.27,-5.94 18.85,-9.01 28.72,-9.22 9.88,-0.22 18.41,2.17 25.64,7.15 7.23,4.94 13.3,11.25 18.24,18.88 1.53,2.39 2.9,4.78 4.15,7.17l-0.46 2.12c-4.53,4.5 -11.08,9.86 -19.69,15.94 -8.66,6.12 -14.37,10.07 -17.23,11.93l-37.18 23.96c10.46,15.88 22.05,25.06 34.81,27.56 12.73,2.5 24.83,0.06 36.26,-7.31 5.39,-3.51 9.97,-7.78 13.79,-12.83 3.78,-5.07 7.35,-11.02 10.79,-17.96l3.11 0.77zm-104.75 0.5c1.54,-0.66 7.08,-3.85 16.59,-9.52 9.5,-5.71 16.48,-9.99 20.98,-12.84 10.72,-6.95 17.09,-11.32 19.14,-13.22 -1.1,-1.92 -1.95,-3.37 -2.62,-4.35 -7.7,-11.95 -15.88,-19.32 -24.47,-21.98 -8.63,-2.72 -17.18,-1.34 -25.56,4.08 -9.17,5.94 -14.25,13.83 -15.16,23.67 -0.87,9.89 2.82,21.29 11.1,34.16z"/>
  <path id="_8" class="fil1" d="M1103.21 526.89l16.25 -5.76c10.65,-3.8 17.58,-6.3 20.83,-7.6 2.92,-1.12 15.04,-6.28 36.44,-15.44l1.35 0.48 2.52 6.41 -0.67 1.31c-5.84,2.47 -10.28,4.51 -13.34,6.14 -3.06,1.59 -5.19,3.13 -6.23,4.63 -1.09,1.55 -1.2,4.13 -0.33,7.76 0.88,3.63 2.55,8.53 4.97,14.7l11.33 29.59 23.26 59.39 9.94 24.98c3.86,9.62 6.6,15.79 8.14,18.43 1.49,2.64 2.85,4.3 4.07,4.91 1.17,0.62 3.05,0.82 5.6,0.55 2.54,-0.27 8.42,-2.03 17.61,-5.23l1.36 0.39 2.51 6.41 -0.62 1.4c-0.42,0.19 -8.05,2.88 -22.9,8.12 -6.12,2.18 -10.88,3.95 -14.33,5.29 -2.64,1.07 -14.75,6.18 -36.29,15.44l-1.41 -0.62 -2.51 -6.41 0.72 -1.18c7.82,-3.48 12.96,-6 15.41,-7.54 2.46,-1.53 3.97,-2.9 4.54,-4.06 0.57,-1.18 0.63,-3.2 0.12,-6.07 -0.45,-2.88 -2.45,-8.86 -5.97,-18.05l-10.49 -27.14 -23.27 -59.39 -10.09 -24.88c-3.9,-9.76 -6.6,-15.94 -8.09,-18.62 -1.49,-2.65 -2.85,-4.3 -4.02,-4.92 -1.17,-0.61 -3.05,-0.77 -5.59,-0.5 -2.54,0.32 -8.39,2.08 -17.62,5.33l-1.36 -0.53 -2.51 -6.41 0.67 -1.31z"/>
  <path id="_9" class="fil1" d="M1378.71 512.65c7.48,-1.13 13.97,-2.35 19.53,-3.63 6.72,-1.51 13.64,-3.38 20.74,-5.6l1.31 0.71 1.28 5.64 -0.85 1.32c-6.54,2.17 -10.49,3.71 -11.86,4.61 -1.31,0.94 -2.26,2.35 -2.72,4.33 -0.52,1.92 -0.05,6.44 1.36,13.45 1.41,7.01 3.29,15.56 5.6,25.69l5.22 22.8c1.55,6.64 3.39,14.35 5.6,23.1 2.16,8.8 3.94,13.93 5.26,15.38 1.32,1.51 2.83,2.35 4.42,2.63 1.6,0.24 5.79,-0.09 12.56,-0.98l1.27 0.7 1.33 5.65 -0.86 1.32c-9.03,1.31 -18.76,3.15 -29.2,5.55 -10.87,2.48 -20.37,5.03 -28.65,7.66l-1.31 -0.8 -1.28 -5.65 0.85 -1.17c6.58,-2.16 10.54,-3.71 11.85,-4.65 1.36,-0.9 2.26,-2.36 2.78,-4.29 0.52,-1.97 0,-6.39 -1.46,-13.4 -1.41,-6.96 -3.34,-15.57 -5.69,-25.87l-11.71 -51.13 -1.47 0.33 -26.19 113.21 -4.47 1.04 -71.07 -90.92 -1.51 0.33 17.22 69.52c1.27,5.17 2.02,8.36 2.35,9.64 1.23,5.46 2.4,8.89 3.48,10.4 1.13,1.5 2.63,2.35 4.61,2.54 1.98,0.23 6.34,-0.2 13.13,-1.14l1.26 0.67 1.27 5.64 -0.79 1.32c-8.24,1.13 -16.24,2.59 -24.05,4.37 -6.77,1.55 -14.25,3.67 -22.43,6.26l-1.32 -0.8 -1.27 -5.65 0.85 -1.17c7.48,-2.31 12.05,-4 13.69,-5.13 1.6,-1.13 2.5,-2.77 2.68,-4.94 0.14,-2.12 -1.03,-8.7 -3.53,-19.71l-13.21 -60.11c-2.36,-10.3 -4.05,-16.51 -5.08,-18.58 -1.04,-2.07 -2.49,-3.34 -4.38,-3.82 -1.83,-0.47 -7.01,-0.04 -15.56,1.28l-1.33 -0.85 -1.31 -5.65 0.85 -1.17c9.27,-1.55 16.56,-2.92 21.82,-4.14 5.55,-1.27 12.37,-3.1 20.46,-5.55l64.02 83.4 2.02 -0.47 23.89 -103.52z"/>
  <path id="_10" class="fil1" d="M1496.51 497.99l-9.81 -48.65c-0.97,-4.56 -1.49,-7.29 -1.53,-8.18 -0.1,-2.78 0.99,-5.23 3.21,-7.43 2.26,-2.16 5.17,-3.34 8.89,-3.42 3.76,-0.14 6.77,0.81 9.07,2.88 2.35,2.03 3.52,4.38 3.62,7.01 0.04,1.04 -0.24,3.86 -0.82,8.47l-6.84 49.15 -5.79 0.17z"/>
  <path id="_11" class="fil1" d="M1618.76 632.18l0.45 -5.74 1.18 -0.89c9.88,-0.26 15.5,-2.63 16.89,-6.99 1.39,-4.41 2.88,-16.35 4.5,-35.81l1.89 -22.67c1.32,-15.55 2.26,-30.08 2.82,-43.67l-1.64 -1.94c-3.24,-0.64 -6.77,-1.13 -10.52,-1.43 -7.11,-0.62 -12.93,-0.23 -17.51,1.11 -4.52,1.34 -8.21,3.89 -11.06,7.69 -2.85,3.84 -4.47,8.25 -4.88,13.27 -0.4,4.76 0.41,9.28 2.46,13.62 2.04,4.29 5.59,7.98 10.75,10.98 5.1,3 12.48,4.93 22.07,5.83l-0.31 3.72c-19.49,17.79 -38.48,38.04 -56.83,60.74 -7.09,-1.32 -13.15,-2.2 -18.28,-2.66 -4.8,-0.36 -10.87,-0.49 -18.21,-0.4l-1.02 -1.18 0.46 -5.78 1.18 -0.84c5.84,-0.01 9.88,-0.45 12.24,-1.48 2.31,-1.01 6.8,-4.79 13.44,-11.44l38.86 -38.65 0.2 -2.16c-22.88,-6.26 -33.62,-17.8 -32.2,-34.73 0.77,-9.17 5.2,-16.25 13.36,-21.27 8.17,-5.03 19.19,-6.98 33.11,-5.81 3.29,0.25 9.21,0.95 17.77,2.04 8.83,1.09 15.41,1.84 19.69,2.2 8.51,0.7 19.14,1.2 31.78,1.51l0.9 1.04 -0.47 5.79 -1.09 1.02c-10.86,0.46 -17.17,2.34 -18.8,5.67 -1.67,3.33 -3.39,15.64 -5.17,36.94l-2.09 24.82c-1.78,21.49 -2.09,33.95 -0.94,37.34 1.15,3.45 7.01,6.3 17.58,8.67l0.89 1.04 -0.51 5.74 -1.04 1.04c-12.73,-1.78 -23.26,-3.02 -31.58,-3.74 -6.4,-0.51 -16.18,-0.99 -29.34,-1.32l-0.98 -1.22z"/>
  <path id="_12" class="fil1" d="M1850.84 677.96l-1.41 0.62c-0.62,-0.24 -6.12,-2.64 -16.56,-7.25 -9.98,-4.46 -16.65,-7.33 -19.95,-8.69 -1.78,-0.71 -14.06,-5.27 -36.74,-13.64l-0.6 -1.41 2.58 -6.39 1.36 -0.34c7.57,2.78 12.94,4.47 16.09,5.18 3.15,0.66 5.41,0.61 6.82,-0.1 1.36,-0.76 2.73,-2.31 4.09,-4.66 1.37,-2.39 4.19,-8.61 8.47,-18.72 4.27,-10.12 7.7,-18.39 10.33,-24.88l23.89 -59.13c3.47,-8.71 7.14,-18.11 11,-28.18 3.8,-10.11 5.88,-16.19 6.15,-18.26 0.29,-2.07 0.15,-3.67 -0.42,-4.83 -0.57,-1.18 -2.07,-2.5 -4.47,-4.05 -2.4,-1.51 -7.48,-4.05 -15.28,-7.58l-0.67 -1.31 2.59 -6.35 1.41 -0.51 7.58 3.24 5.08 2.16 8.74 3.71 17.84 7.33 26.47 11.01c10.12,4.18 21.12,8.74 33.12,13.68l51.37 20.26 30.16 11.89c5.83,2.26 11.61,4.42 17.4,6.59l0.66 1.31 -2.59 6.35 -1.41 0.52c-8.42,-3.15 -14.02,-4.94 -16.74,-5.41 -2.73,-0.42 -4.7,-0.42 -5.93,0.1 -1.18,0.52 -2.4,1.69 -3.67,3.57 -1.22,1.88 -4.19,8.28 -8.74,19.2 -4.61,10.9 -8.18,19.47 -10.72,25.68l-23.88 59.18c-2.68,6.63 -5.92,15.01 -9.83,25.11 -3.9,10.12 -6.2,16.56 -6.95,19.25 -0.76,2.72 -0.85,4.85 -0.24,6.3 0.57,1.51 2.31,3.11 5.17,4.85 2.83,1.73 7.82,4.18 14.87,7.33l0.71 1.18 -2.59 6.39 -1.41 0.61c-0.71,-0.28 -6.21,-2.68 -16.56,-7.28 -9.97,-4.42 -16.7,-7.33 -20.08,-8.7 -1.69,-0.7 -13.98,-5.22 -36.7,-13.63l-0.52 -1.36 2.59 -6.4 1.22 -0.42c8.66,3.09 14.35,4.88 17.03,5.31 2.68,0.47 4.61,0.41 5.74,-0.1 1.18,-0.52 2.35,-1.75 3.63,-3.63 1.27,-1.88 4.18,-8.23 8.83,-19.14 4.65,-10.91 8.23,-19.42 10.72,-25.55l43.58 -107.95 -0.85 -1.97 -97.33 -39.31 -1.97 0.85 -43.63 107.96c-2.63,6.54 -5.92,14.91 -9.82,25.12 -3.95,10.2 -6.26,16.65 -6.91,19.33 -0.7,2.73 -0.8,4.8 -0.24,6.25 0.57,1.46 2.26,3.06 5.04,4.8 2.82,1.74 7.8,4.19 14.95,7.34l0.71 1.17 -2.58 6.4z"/>
  <path id="_13" class="fil1" d="M2151.16 759.53c-6.31,9.68 -13.56,17.4 -21.75,23.13 -8.19,5.73 -17.03,9.49 -26.53,11.23 -9.55,1.74 -18.16,1.68 -25.92,-0.16 -7.72,-1.79 -15.85,-5.46 -24.32,-11.02 -18.9,-12.34 -29.75,-27.16 -32.51,-44.43 -2.82,-17.26 1.05,-34.05 11.64,-50.26 7.29,-11.15 16.15,-19.47 26.59,-25.06 10.4,-5.6 21.64,-7.75 33.68,-6.43 12.04,1.28 24.13,5.9 36.31,13.81 11.8,7.72 20.5,16.52 26,26.4 5.5,9.93 7.93,20.38 7.31,31.47 -0.56,11.06 -4.06,21.49 -10.5,31.32zm-26.67 -7.68c10.03,-15.38 14.88,-29.82 14.61,-43.21 -0.23,-13.46 -6.48,-24.2 -18.7,-32.14 -10.25,-6.69 -20.93,-8.53 -32.08,-5.58 -11.15,3.01 -21.45,11.75 -30.92,26.28 -9.75,14.91 -14.88,29.86 -15.45,44.91 -0.57,15.05 5.3,26.54 17.47,34.54 10.73,6.97 21.87,8.14 33.54,3.54 11.67,-4.6 22.16,-14.05 31.53,-28.34z"/>
  <path id="_14" class="fil1" d="M2414.7 827.62l-0.3 5.08c-10.03,3.59 -17.47,5.92 -22.27,7.04 -4.84,1.12 -8.89,1.15 -12.13,0.16 -3.24,-1 -7.33,-4.07 -12.21,-9.21l-22.04 -21.74c-7.89,-7.84 -14.41,-13.07 -19.62,-15.77 -5.17,-2.65 -10.57,-3.89 -16.13,-3.71 -5.55,0.17 -11.81,2.08 -18.82,5.78 -6.98,3.69 -16.55,11.2 -28.72,22.54l1.41 1.46c14.12,-2.49 26.16,-1.9 36.26,1.8 10.06,3.74 19.54,10.21 28.41,19.51 14.68,15.42 22.49,30.82 23.44,46.25 0.94,15.38 -6.34,30.46 -21.82,45.24 -16.83,16.04 -34.25,23.94 -52.41,23.74 -18.15,-0.23 -34.5,-7.99 -49.14,-23.31 -11.16,-11.7 -17.85,-23.2 -20.09,-34.45 -2.22,-11.25 -0.35,-23.38 5.7,-36.39 6.02,-13.06 16.92,-27.09 32.72,-42.19 11.08,-10.56 22.39,-19.28 33.85,-26.16 11.44,-6.88 21.85,-11.33 31.26,-13.36 9.41,-2.05 17.74,-2.08 25.03,0.02 7.28,2.04 14,5.67 20.24,10.92 6.19,5.23 14.69,13.25 25.47,24.01 6.33,6.41 11.17,10.42 14.5,12.03 3.34,1.66 9.18,1.86 17.41,0.71zm-164.61 24.25c-7.78,7.4 -13.62,13.97 -17.54,19.65 -3.88,5.68 -6.67,11.88 -8.39,18.6 -1.66,6.77 -1.68,13.22 -0.09,19.44 1.63,6.21 4.95,11.95 10.02,17.29 10.64,11.17 23,14.82 37.17,11.05 14.13,-3.77 27.79,-11.96 40.94,-24.48 11.22,-10.7 18.17,-22.16 20.89,-34.38 2.67,-12.22 -0.97,-23.56 -11.01,-34.04 -9.48,-9.95 -20.66,-14.35 -33.54,-13.16 -12.9,1.18 -25.71,7.88 -38.45,20.03z"/>
  <path id="_15" class="fil1" d="M2383.95 969.93l-1.74 -5.25 0.55 -1.66c1.28,-0.71 2.91,-1.71 4.84,-2.94l9.5 -6.33c10.81,4.87 19.26,9.41 25.35,13.65 6.15,4.25 11.41,9.75 15.79,16.59 7.7,11.95 10.65,23.4 8.89,34.37 -1.76,11.02 -8.04,19.96 -18.77,26.85l-23.66 14.42 -34.5 22.25c-4.17,2.67 -6.65,4.8 -7.54,6.31 -0.88,1.56 -1.15,3.07 -0.81,4.56 0.3,1.51 1.49,4.24 3.64,8.21l-0.46 1.61 -4.64 2.99 -1.51 -0.32c-3.33,-6.37 -6.1,-11.24 -8.29,-14.66 -2.09,-3.23 -5.61,-8.1 -10.49,-14.51l0.5 -2.78 18.91 -11.56 -21.11 -7.37c-7.41,-2.54 -12.36,-4.24 -14.81,-5.18 -4.54,-3.11 -8.38,-7.17 -11.61,-12.19 -5.94,-9.18 -8.17,-18.01 -6.67,-26.43 1.49,-8.48 6.47,-15.39 14.85,-20.8 8.75,-5.66 17.36,-7.93 25.78,-6.96 8.47,0.98 17.2,5.1 26.29,12.33 9.08,7.18 20.78,19.14 35.1,35.79 4.82,-3.09 8.71,-6.04 11.64,-8.88 3,-2.9 5.18,-6.53 6.62,-11.01 1.42,-4.48 1.72,-9.13 0.78,-13.93 -0.92,-4.83 -2.93,-9.62 -6.02,-14.39 -1.62,-2.58 -3.42,-4.88 -5.41,-7.02 -1.94,-2.1 -4.08,-3.92 -6.34,-5.41 -2.27,-1.5 -3.74,-2.33 -4.44,-2.56 -0.66,-0.18 -1.65,-0.17 -2.92,0.06 -0.61,0.11 -3,0.46 -7.19,1.05 -3.19,0.44 -6.2,0.97 -8.92,1.66l-1.18 -0.56zm16.68 65.31c-14.36,-15.98 -25.96,-26.26 -34.78,-30.76 -8.88,-4.49 -18,-3.72 -27.32,2.27 -6.04,3.9 -9.58,8.44 -10.67,13.72 -1.09,5.22 0.12,10.63 3.68,16.2 6.66,10.25 19.12,16.56 37.48,18.93l31.61 -20.36z"/>
  <path id="_16" class="fil1" d="M2486.06 1075.04l1.36 0.56c6.6,16.66 14.57,35.09 23.82,55.31 9.44,20.5 18.25,38.55 26.39,54.12l-0.47 1.28c-11.26,4.58 -20.69,8.58 -28.29,12.06l-1.09 -0.41 -2.28 -5.02 0.41 -1.09c8.49,-5.22 13.41,-8.54 14.71,-9.96 1.35,-1.38 1.97,-2.84 1.91,-4.25 -0.06,-1.46 -0.87,-3.94 -2.49,-7.41l-11.64 -25.43 -32.27 14.21 -28.57 13.08c-6.19,2.85 -13.32,6.23 -21.48,10.19 -8.16,3.9 -12.8,6.66 -14.02,8.22 -1.21,1.56 -1.76,3.21 -1.66,4.86 0.15,1.69 1.31,5.73 3.56,12.16l-0.42 1.41 -5.25 2.43 -1.46 -0.56c-3.16,-8.68 -6.89,-17.59 -11.12,-26.88 -4.44,-9.66 -8.82,-18.34 -13.14,-25.93l0.55 -1.46 5.26 -2.43 1.36 0.6c3.43,6 5.75,9.56 6.93,10.68 1.19,1.12 2.74,1.72 4.77,1.81 2.02,0.08 6.29,-1.26 12.86,-4.08 6.52,-2.76 14.59,-6.39 24.2,-10.78l28.15 -12.91c10.74,-5.25 21.48,-10.44 32.12,-15.54l-11.63 -25.42c-1.66,-3.56 -3.04,-5.86 -4.13,-6.79 -1.09,-0.98 -2.69,-1.36 -4.76,-1.15 -2.07,0.2 -7.65,1.69 -16.77,4.57l-1.08 -0.42 -2.24 -4.88 0.33 -1.22c3.37,-1.53 12.52,-6.05 27.57,-13.53z"/>
  <path id="_17" class="fil1" d="M2426.58 1264.15l5.56 -1.51 1.21 0.81c2.28,5.1 4.22,8.83 5.85,11.14 1.67,2.28 3.26,3.7 4.77,4.18 1.54,0.49 3.23,0.64 5.16,0.32 1.94,-0.27 6.78,-1.36 14.61,-3.23 7.83,-1.82 13.76,-3.32 17.87,-4.42l24.03 -6.45c20.93,-5.68 32.81,-9.59 35.65,-11.82 2.8,-2.24 3.5,-8.68 2.08,-19.32l0.76 -1.36 5.56 -1.51 1.22 0.82c2.63,12.53 5.05,22.84 7.25,31 2.1,7.91 5.21,18.05 9.31,30.46l-0.67 1.17 -5.61 1.51 -1.31 -0.67c-2.31,-5.43 -4.26,-9.16 -5.79,-11.19 -1.54,-1.99 -2.94,-3.32 -4.2,-3.94 -1.27,-0.58 -2.68,-0.82 -4.23,-0.69 -1.61,0.13 -6.51,1.13 -14.7,2.99 -8.21,1.92 -14.62,3.47 -19.33,4.75l-2.26 0.59c2.53,7.59 4.65,14.67 6.43,21.22 3.1,11.55 4.4,20.63 3.84,27.26 -0.53,6.67 -3.06,12.54 -7.62,17.53 -4.55,5.05 -10.45,8.53 -17.72,10.5 -8.34,2.24 -16.19,1.99 -23.6,-0.79 -7.36,-2.74 -13.27,-6.97 -17.64,-12.6 -4.38,-5.58 -7.94,-13.65 -10.77,-24.11 -0.74,-2.74 -1.97,-8.02 -3.7,-15.84 -1.4,-6.64 -2.54,-11.64 -3.46,-15.03 -2.24,-8.25 -5.32,-18.38 -9.36,-30.41l0.81 -1.36zm76.53 25.33l-24.19 6.49c-13.15,3.76 -21.59,6.24 -25.22,7.43 -3.68,1.24 -5.99,2.68 -7,4.32 -0.99,1.64 -0.87,4.65 0.27,8.99 2.89,10.6 8.19,17.84 15.97,21.57 7.73,3.77 16.61,4.31 26.66,1.61 5.51,-1.51 9.9,-3.69 13.17,-6.63 3.32,-2.93 5.41,-6.63 6.3,-11.09 0.87,-4.47 0.31,-10.49 -1.7,-18.04 -0.97,-3.53 -2.38,-8.43 -4.26,-14.65z"/>
  <path id="_18" class="fil1" d="M2462.4 1402.97l5.78 -0.46 1.04 0.98c1.22,6.81 2.19,10.94 2.91,12.35 0.71,1.41 1.93,2.53 3.77,3.36 1.84,0.84 6.08,1.05 12.76,0.68 6.72,-0.38 15.8,-1 27.23,-1.91l23.36 -1.94c7.14,-0.56 15.09,-1.32 23.93,-2.22 8.83,-0.91 14.05,-1.93 15.73,-3.07 1.65,-1.14 2.72,-2.5 3.18,-4.06 0.46,-1.56 0.72,-5.7 0.72,-12.42l0.98 -1.19 5.78 -0.5 1.04 1.02c0.01,9.13 0.45,19 1.32,29.63 0.91,11.09 2.1,20.92 3.53,29.57l-0.89 1.18 -5.74 0.45 -1.18 -0.98c-1.22,-6.81 -2.19,-10.98 -2.9,-12.44 -0.72,-1.45 -1.99,-2.53 -3.78,-3.27 -1.84,-0.74 -6.08,-0.95 -12.81,-0.62 -6.67,0.33 -15.7,0.94 -27.07,1.86l-9.03 0.76 0.05 1.09c11.22,10.98 22.72,21.34 34.45,31.2 11.73,9.81 18.25,15.22 19.62,16.14 1.37,0.94 2.54,1.4 3.54,1.3 1.13,-0.1 1.82,-0.95 2.14,-2.64l5.37 -0.46 1.18 1.02c-0.1,7.95 -0.02,13.22 0.19,15.9 0.36,4.47 1.19,9.69 2.4,15.7l-1.03 1.04 -5.78 0.46 -1.04 -0.89c-1.03,-5.87 -2.99,-10.89 -5.84,-15.02 -2.89,-4.07 -17.7,-18.65 -44.58,-43.74l-54.46 60.98c-3.97,4.36 -6.35,7.34 -7.23,8.8 -0.84,1.51 -1.2,3.63 -1.04,6.39l-0.66 0.72 -5.88 0.51 -0.9 -0.61c-0.7,-14.34 -0.75,-23.05 -0.16,-26.15 0.54,-3.06 2.27,-6.6 5.1,-10.57 2.9,-3.97 8.65,-10.69 17.24,-20.15 17.32,-19.15 28.63,-32.4 33.8,-39.63l-0.05 -1.13 -10.73 0.87c-7.51,0.62 -15.6,1.37 -24.3,2.27 -8.64,0.9 -13.81,1.92 -15.5,3.02 -1.64,1.08 -2.71,2.46 -3.13,4.06 -0.41,1.6 -0.67,5.74 -0.76,12.47l-0.89 1.18 -5.74 0.46 -1.23 -0.98c0.04,-9.12 -0.4,-19.04 -1.32,-29.77 -0.86,-10.99 -2.05,-20.77 -3.47,-29.42l0.98 -1.18z"/>
  <path id="_19" class="fil1" d="M2530.56 1701.9c-11.52,-0.97 -21.75,-3.72 -30.71,-8.15 -8.9,-4.47 -16.4,-10.5 -22.46,-18.06 -6.02,-7.52 -10.11,-15.17 -12.18,-22.85 -2.07,-7.67 -2.67,-16.53 -1.86,-26.58 1.89,-22.52 9.75,-39.07 23.66,-49.76 13.84,-10.69 30.43,-15.24 49.75,-13.61 13.26,1.12 24.81,4.91 34.69,11.46 9.84,6.51 17.07,15.41 21.66,26.58 4.59,11.22 6.29,24.02 5.07,38.5 -1.17,14.07 -4.78,25.9 -10.9,35.41 -6.09,9.55 -14.13,16.65 -24.13,21.38 -10.05,4.74 -20.88,6.64 -32.59,5.68zm-5.9 -27.18c18.3,1.53 33.27,-1.01 44.97,-7.62 11.71,-6.65 18.18,-17.23 19.36,-31.77 1.01,-12.18 -2.4,-22.44 -10.35,-30.82 -7.89,-8.38 -20.51,-13.3 -37.77,-14.78 -17.77,-1.48 -33.36,1.15 -46.85,7.8 -13.5,6.63 -20.86,17.26 -22.07,31.79 -1.07,12.69 3.19,23.12 12.78,31.17 9.64,8.06 22.92,12.8 39.93,14.23z"/>
  <path id="_20" class="fil1" d="M2455.6 1721.99l5.64 1.33 0.7 1.27c-1.01,6.86 -1.35,11.1 -1.12,12.65 0.23,1.55 1.12,3.02 2.58,4.34 1.5,1.37 5.45,2.89 11.94,4.64 6.48,1.71 15.31,3.9 26.46,6.57l22.79 5.38c6.96,1.66 14.77,3.43 23.41,5.28 8.69,1.91 13.96,2.54 15.89,1.93 1.94,-0.55 3.4,-1.49 4.29,-2.86 0.95,-1.31 2.47,-5.21 4.55,-11.59l1.32 -0.81 5.65 1.34 0.64 1.32c-3.6,12.03 -6.17,21.24 -7.64,27.59 -0.77,3.05 -1.67,7.28 -2.77,12.79 -3.29,15.74 -5.58,26.5 -6.96,32.33 -2.47,10.25 -6.54,17.25 -12.25,20.99 -5.7,3.75 -11.96,4.82 -18.86,3.19 -14.62,-3.47 -22.3,-15.81 -22.9,-37.02 -3.65,12.16 -8.85,20.57 -15.69,25.15 -6.78,4.6 -14.55,5.89 -23.19,3.84 -10.63,-2.51 -19.22,-8.85 -25.78,-18.94 -6.6,-10.13 -7.73,-24.09 -3.5,-41.96 0.28,-1.22 1,-3.85 2.14,-7.84 2.14,-7.34 3.71,-13.17 4.76,-17.54 2.19,-10.9 4.38,-21.77 6.58,-32.58l1.32 -0.79zm63.01 57.14c-1,3.53 -1.81,6.39 -2.29,8.5 -2.95,12.42 -2.97,21.59 -0.12,27.52 2.9,5.93 7.92,9.72 15.07,11.43 6.24,1.47 11.89,0.74 16.88,-2.25 5,-3.06 8.73,-9.58 11.12,-19.68 1.04,-4.47 1.96,-9.22 2.67,-14.24l-43.33 -11.28zm-8.04 -1.9l-56.08 -12.35c-1.71,4.33 -3.18,9.16 -4.47,14.53 -1.85,7.75 -1.78,14.29 0.18,19.66 1.92,5.31 4.87,9.46 8.77,12.44 3.89,3.03 8.4,5.15 13.52,6.34 5.88,1.43 11.38,1.3 16.47,-0.33 5.13,-1.63 9.13,-4.77 12.02,-9.51 2.93,-4.74 5.49,-11.61 7.63,-20.63 0.53,-2.35 1.2,-5.74 1.96,-10.15z"/>
  <path id="_21" class="fil1" d="M2586.02 1959.83c-1.59,4 -4.37,6.87 -8.32,8.52 -3.95,1.69 -7.95,1.7 -11.95,0.09 -3.9,-1.6 -6.67,-4.32 -8.37,-8.27 -1.69,-3.95 -1.69,-7.9 -0.1,-11.95 1.61,-3.9 4.33,-6.73 8.28,-8.47 3.91,-1.74 7.85,-1.79 11.85,-0.18 4,1.63 6.87,4.41 8.52,8.41 1.65,4 1.69,7.95 0.09,11.85zm-61.47 -12.17l-2.64 1.74c-10.77,-5.45 -24.79,-11.65 -42.01,-18.57l-28.83 -11.65c-1.89,-0.76 -8,-3.01 -18.3,-6.82 -10.31,-3.76 -16.42,-5.78 -18.25,-6.11 -1.88,-0.28 -3.34,-0.19 -4.42,0.24 -1.09,0.47 -1.93,1.22 -2.59,2.21 -0.66,1.03 -2.87,5.5 -6.67,13.35l-1.46 0.76 -5.36 -2.16 -0.77 -1.51c4.99,-10.34 9.46,-20.46 13.45,-30.34 3.95,-9.83 7.76,-20.18 11.38,-31.09l1.6 -0.66 5.36 2.17 0.57 1.54c-2.82,8.47 -4.33,13.27 -4.51,14.44 -0.15,1.18 0,2.31 0.47,3.44 0.46,1.17 1.5,2.21 3.05,3.2 1.51,0.94 6.87,3.52 16.04,7.66 9.18,4.13 16.14,7.19 20.94,9.12l25.17 10.15c3.38,1.37 8.08,3.06 14.11,5.13 6.02,2.02 9.74,3.2 11.19,3.52 1.46,0.33 2.74,0.09 3.81,-0.75 1.09,-0.85 2.31,-2.97 3.62,-6.25l4.47 -10.69 1.51 -0.75 5.5 2.21 0.61 1.46c-4.61,17.03 -6.96,32.03 -7.04,45.01z"/>
  <path id="_22" class="fil2 str3" d="M676.65 1844.93l1.36 0.8c0.19,0.62 1.55,6.47 4.14,17.53 2.51,10.65 4.2,17.72 5.16,21.17 0.5,1.88 4.22,14.37 11.2,37.48l-0.77 1.35 -6.64 1.79 -1.08 -0.86c-2.39,-7.74 -4.23,-13.01 -5.57,-15.94 -1.39,-2.93 -2.74,-4.72 -4.2,-5.39 -1.4,-0.67 -3.47,-0.83 -6.16,-0.47 -2.72,0.36 -9.41,1.86 -20.02,4.55 -10.65,2.65 -19.33,4.93 -26.06,6.71l-61.61 16.61c-9,2.42 -18.71,5.13 -29.08,8.15 -10.37,3.03 -16.45,5.05 -18.25,6.07 -1.84,1.02 -3.02,2.1 -3.64,3.27 -0.58,1.13 -0.74,3.14 -0.52,5.97 0.26,2.82 1.3,8.43 3.16,16.76l-0.67 1.32 -6.64 1.78 -1.21 -0.8 -2.02 -8.02 -1.28 -5.37 -2.33 -9.18 -4.89 -18.68 -7.16 -27.71c-2.75,-10.6 -5.77,-22.14 -9.06,-34.64l-14.74 -53.22 -8.71 -31.2c-1.68,-5.99 -3.43,-11.93 -5.22,-17.82l0.67 -1.32 6.65 -1.77 1.21 0.8c2.62,8.58 4.55,14.15 5.8,16.6 1.3,2.45 2.51,4.02 3.64,4.64 1.12,0.67 2.82,0.92 5.02,0.79 2.26,-0.12 9.14,-1.62 20.64,-4.55 11.46,-2.88 20.45,-5.2 26.91,-6.94l61.56 -16.56c6.93,-1.87 15.61,-4.3 26.02,-7.28 10.42,-3.03 16.92,-5.05 19.52,-6.06 2.64,-1.06 4.35,-2.22 5.2,-3.64 0.81,-1.35 1.07,-3.7 0.71,-6.99 -0.3,-3.34 -1.34,-8.76 -3.08,-16.3l0.49 -1.27 6.65 -1.79 1.35 0.76c0.23,0.72 1.6,6.56 4.15,17.59 2.51,10.64 4.24,17.72 5.2,21.25 0.46,1.79 4.22,14.28 11.19,37.48l-0.8 1.21 -6.65 1.79 -1.03 -0.72c-2.76,-8.76 -4.74,-14.33 -6.04,-16.73 -1.25,-2.47 -2.46,-3.92 -3.54,-4.55 -1.12,-0.62 -2.81,-0.82 -5.07,-0.69 -2.21,0.11 -9.09,1.61 -20.59,4.45 -11.5,2.88 -20.46,5.15 -26.82,6.85l-112.37 30.23 -1.09 1.87 27.31 101.35 1.83 1.05 112.37 -30.24c6.83,-1.83 15.5,-4.26 26.02,-7.28 10.46,-3.03 17.02,-5.05 19.57,-6.11 2.59,-1.06 4.3,-2.27 5.1,-3.59 0.81,-1.3 1.11,-3.61 0.76,-6.9 -0.31,-3.3 -1.34,-8.76 -3.07,-16.35l0.47 -1.31 6.65 -1.78z"/>
  <path id="_23" class="fil2 str3" d="M501.2 1659.67l1.43 -2.59c10.87,0.02 20.19,-0.23 27.85,-0.75 -5.78,-5.23 -11.22,-10.41 -16.38,-15.51 -5.21,-5.14 -8.42,-8.6 -9.7,-10.48 -1.33,-1.87 -2.53,-4.78 -3.68,-8.62 -1.15,-3.91 -1.99,-8.7 -2.45,-14.48 -1.37,-16.73 2.77,-30.41 12.35,-40.96 9.62,-10.54 22.57,-16.46 38.84,-17.78 6.76,-0.57 13.72,-0.05 20.89,1.6 7.11,1.61 13.71,3.96 19.75,7.03 6.09,3.07 10.01,5.48 11.76,7.26 1.75,1.78 5.64,6.88 11.67,15.21 2.37,3.42 5.08,6.84 8.01,10.25 4.08,4.92 6.68,8.15 7.78,9.69 1.09,1.5 2.24,4.08 3.39,7.74 1.2,3.61 1.93,7.61 2.28,11.88 0.77,9.55 -0.86,19.21 -4.94,29.06l25.68 -2.1c6.95,-0.56 15.74,-1.5 26.32,-2.8 10.57,-1.24 16.54,-2.35 17.89,-3.26 1.36,-0.85 2.2,-2.03 2.57,-3.49 0.32,-1.46 0.52,-5.93 0.57,-13.42l0.99 -1.31 5.78 -0.47 1.32 1.13c0.16,11.05 0.61,21.25 1.37,30.6 0.76,9.31 1.96,19.47 3.58,30.37l-1.12 1.23 -5.78 0.46 -1.19 -1.03c-1.12,-6.9 -1.9,-11.04 -2.39,-12.45 -0.47,-1.36 -1.13,-2.39 -1.99,-3 -0.8,-0.65 -2.17,-1.07 -3.95,-1.33 -1.84,-0.27 -8.24,-0.14 -19.2,0.4 -10.95,0.5 -18.62,0.96 -22.9,1.28l-105.35 8.61c-4.08,0.31 -9.35,0.91 -15.79,1.75 -6.44,0.89 -10.16,1.47 -11.14,1.81 -0.99,0.39 -1.78,1.1 -2.38,2.23 -0.61,1.09 -0.73,3.39 -0.48,6.86 0.05,0.57 0.22,3.49 0.43,8.81l-0.97 1.31 -5.93 0.52 -1.32 -1.04c-3.68,-16.15 -8.19,-29.58 -13.47,-40.22zm105.21 -9.56c9.75,-11.35 14.1,-23.89 12.98,-37.53 -1.13,-14 -7.32,-24.59 -18.46,-31.72 -11.19,-7.17 -24.38,-10.15 -39.61,-8.88 -9.31,0.77 -17.53,3.23 -24.6,7.32 -7.08,4.13 -12.36,9.86 -15.79,17.22 -3.48,7.3 -4.9,14.7 -4.28,22.23 0.4,5.02 1.7,9.82 3.85,14.27 2.14,4.5 5.04,8.58 8.68,12.22 3.6,3.65 6.86,6.17 9.74,7.51 2.83,1.3 5.05,2.04 6.51,2.07 1.5,0.09 4.04,-0.01 7.7,-0.32l53.28 -4.39z"/>
  <path id="_24" class="fil2 str3" d="M439.79 1466.66c0.35,-4.29 2.17,-7.8 5.43,-10.6 3.27,-2.76 7.03,-3.96 11.36,-3.6 4.18,0.35 7.65,2.16 10.45,5.42 2.76,3.27 3.96,7.05 3.6,11.37 -0.35,4.18 -2.11,7.7 -5.38,10.54 -3.22,2.81 -6.98,4 -11.27,3.65 -4.32,-0.35 -7.84,-2.17 -10.59,-5.48 -2.76,-3.31 -3.95,-7.08 -3.6,-11.3zm62.27 -6.52l2 -2.49c11.88,2.01 27.07,3.8 45.54,5.32l31.03 2.6c2.02,0.16 8.46,0.53 19.46,1.07 10.96,0.54 17.36,0.67 19.24,0.4 1.84,-0.22 3.2,-0.73 4.11,-1.52 0.9,-0.76 1.51,-1.69 1.85,-2.86 0.29,-1.18 1.11,-6.06 2.4,-14.71l1.18 -1.17 5.78 0.51 1.12 1.18c-1.67,11.37 -2.96,22.38 -3.83,32.95 -0.91,10.53 -1.45,21.53 -1.67,33.01l-1.32 1.16 -5.79 -0.5 -0.98 -1.33c0.21,-8.88 0.19,-13.91 0.01,-15.09 -0.18,-1.18 -0.64,-2.22 -1.44,-3.16 -0.79,-0.95 -2.1,-1.66 -3.84,-2.15 -1.74,-0.47 -7.61,-1.31 -17.63,-2.56 -9.96,-1.23 -17.53,-2.08 -22.65,-2.49l-26.99 -2.29c-3.67,-0.3 -8.65,-0.52 -15,-0.65 -6.35,-0.18 -10.25,-0.21 -11.76,-0.08 -1.46,0.08 -2.59,0.69 -3.4,1.81 -0.76,1.18 -1.29,3.52 -1.59,7.05l-1.11 11.52 -1.18 1.16 -5.93 -0.5 -1.02 -1.18c-0.64,-17.65 -2.85,-32.67 -6.59,-45.01z"/>
  <path id="_25" class="fil2 str3" d="M598.27 1411.51l-0.18 -5.89c8.8,0.28 15.56,-0.15 20.31,-1.26 4.69,-1.12 9.23,-4.11 13.48,-8.99 4.3,-4.87 7.12,-11.15 8.53,-18.83 1.95,-10.78 -0.09,-19.56 -6.02,-26.44 -5.98,-6.87 -13.58,-11.09 -22.76,-12.77 -8.8,-1.59 -16.14,-0.03 -22.07,4.67 -5.95,4.64 -9.8,12.06 -11.61,22.18 -0.68,3.77 -1.03,7.77 -1.05,12l-2.1 1.43 -5.14 -0.9 -1.42 -2.11c0.64,-2.49 1.05,-4.43 1.27,-5.74 1.68,-9.14 0.41,-16.61 -3.73,-22.42 -4.13,-5.76 -10.08,-9.39 -17.86,-10.79 -6.87,-1.21 -12.74,0 -17.56,3.75 -4.82,3.7 -7.93,9.42 -9.34,17.19 -1.12,6.45 -0.9,12.09 0.74,17.01 1.63,4.94 4.11,8.87 7.42,11.86 3.27,2.94 7.37,5.36 12.28,7.15l-0.95 5.19c-9.1,-2.24 -17.62,-4.02 -25.49,-5.48 -2.26,-14.18 -2.13,-28.52 0.5,-43.04 5.02,-28.01 15.95,-40.51 32.76,-37.47 7.54,1.35 13.53,5.02 18.05,11.07 4.51,6.03 6.81,13.44 6.92,22.24l2.69 0.5c0.82,-4.43 2.79,-9.99 5.95,-16.7 3.2,-6.74 7.68,-11.75 13.43,-15.18 5.82,-3.38 12.58,-4.37 20.36,-2.97 7.86,1.4 14.85,5.03 20.96,10.81 6.11,5.84 10.15,13.57 12.11,23.29 1.99,9.69 2.02,19.88 0.12,30.67 -2.68,14.84 -8.46,28.99 -17.34,42.56 -9.05,-2.21 -15.89,-3.75 -20.6,-4.57 -2.92,-0.55 -7.1,-1.22 -12.66,-2.02z"/>
  <path id="_26" class="fil2 str3" d="M663.83 1292.77l-5.46 -1.9 -0.55 -1.36c1.65,-6.72 2.46,-10.86 2.37,-12.46 -0.08,-1.56 -0.79,-3.1 -2.1,-4.62 -1.32,-1.46 -5.13,-3.39 -11.38,-5.8 -6.25,-2.37 -14.8,-5.49 -25.66,-9.27l-22.09 -7.76c-6.77,-2.36 -14.34,-4.92 -22.8,-7.66 -8.41,-2.8 -13.58,-3.98 -15.56,-3.61 -2.02,0.42 -3.53,1.21 -4.57,2.43 -1.08,1.23 -2.97,4.94 -5.71,11.05l-1.41 0.7 -5.46 -1.94 -0.56 -1.31c4.87,-11.66 8.37,-20.54 10.55,-26.7 0.98,-2.96 2.36,-7.1 4.06,-12.46 4.88,-15.27 8.28,-25.76 10.27,-31.4 3.51,-9.97 8.27,-16.54 14.34,-19.63 6.03,-3.14 12.42,-3.55 19.1,-1.23 14.19,5.01 20.52,18.05 18.93,39.21 4.91,-11.69 10.94,-19.5 18.2,-23.39 7.25,-3.89 15.1,-4.34 23.47,-1.41 10.35,3.6 18.23,10.76 23.71,21.5 5.49,10.74 5.22,24.75 -0.88,42.09 -0.42,1.23 -1.42,3.76 -2.93,7.57 -2.88,7.1 -5.06,12.74 -6.53,17.02 -3.36,10.57 -6.67,21.15 -9.93,31.68l-1.42 0.66zm-56.78 -63.38c1.41,-3.38 2.45,-6.16 3.21,-8.22 4.21,-12.04 5.17,-21.16 2.92,-27.37 -2.25,-6.17 -6.85,-10.51 -13.76,-12.92 -6.06,-2.12 -11.75,-1.95 -17.07,0.53 -5.28,2.49 -9.66,8.59 -13.07,18.36 -1.51,4.38 -2.89,8.98 -4.17,13.92l41.94 15.7zm7.8 2.74l54.57 18.08c2.12,-4.13 4.06,-8.79 5.9,-13.96 2.66,-7.56 3.28,-14.06 1.88,-19.56 -1.36,-5.51 -3.84,-9.93 -7.46,-13.33 -3.56,-3.39 -7.79,-5.99 -12.77,-7.69 -5.69,-2.04 -11.19,-2.46 -16.42,-1.4 -5.27,1.08 -9.55,3.84 -12.95,8.21 -3.39,4.42 -6.66,10.99 -9.72,19.78 -0.76,2.26 -1.81,5.55 -3.03,9.87z"/>
  <path id="_27" class="fil2 str3" d="M712.76 1156.9l-4.98 -2.92 -0.28 -1.46c2.03,-5.17 3.3,-9.17 3.78,-11.94 0.42,-2.82 0.33,-4.94 -0.37,-6.35 -0.75,-1.47 -1.88,-2.74 -3.43,-3.91 -1.55,-1.18 -5.74,-3.87 -12.55,-8.11 -6.86,-4.24 -12.07,-7.4 -15.74,-9.52l-21.57 -12.54c-18.71,-10.9 -29.9,-16.6 -33.47,-17.03 -3.57,-0.43 -8.62,3.61 -15.16,12.16l-1.51 0.37 -5.03 -2.87 -0.28 -1.46c7.07,-10.66 12.73,-19.65 16.97,-26.98 4.1,-7.04 9.15,-16.4 15.05,-28.06l1.31 -0.32 4.99 2.88 0.51 1.4c-2.26,5.51 -3.54,9.51 -3.87,12 -0.38,2.54 -0.29,4.41 0.13,5.78 0.47,1.31 1.27,2.49 2.49,3.49 1.22,1.03 5.35,3.82 12.5,8.29 7.09,4.52 12.74,7.97 16.97,10.42l49.15 28.62 1.84 -1.5c-6.89,-14.07 -17.02,-33 -30.35,-56.68 -13.38,-23.73 -24.02,-42.08 -32,-55.12 4.99,-7.1 8.95,-13.12 11.82,-18.15 3.02,-5.11 6.42,-11.7 10.14,-19.59l1.41 -0.47 4.99 2.92 0.42 1.51c-4.25,9.96 -5.2,16.4 -2.9,19.37 2.26,2.92 12.69,9.76 31.17,20.5l21.56 12.55c18.66,10.84 29.75,16.51 33.34,16.93 3.56,0.42 8.69,-3.61 15.29,-12.07l1.42 -0.47 4.98 2.88 0.42 1.5c-7.07,10.68 -12.73,19.69 -16.97,26.98 -4.1,7.05 -9.1,16.41 -15.04,28.06l-1.51 0.42 -4.99 -2.92 -0.28 -1.41c4.11,-10.07 5.06,-16.56 2.86,-19.47 -2.21,-2.97 -12.6,-9.81 -31.07,-20.55l-48.5 -28.2 -1.84 1.5c5.21,10.79 15.15,28.96 29.85,54.56 14.63,25.57 25.57,43.92 32.84,55.03 -4.99,7.1 -8.86,13.02 -11.64,17.77 -2.97,5.17 -6.79,12.45 -11.37,21.76l-1.5 0.42z"/>
  <path id="_28" class="fil2 str3" d="M806.62 994.13l-4.15 -3.99 0.04 -1.45c3.24,-4.58 5.38,-8.16 6.51,-10.75 1.12,-2.64 1.49,-4.71 1.1,-6.26 -0.33,-1.55 -1.14,-3.1 -2.36,-4.6 -1.28,-1.5 -4.67,-5.11 -10.34,-10.83 -5.65,-5.68 -9.99,-10.04 -13.07,-12.94l-18.02 -17.21c-15.61,-15 -25.14,-23.11 -28.54,-24.37 -3.33,-1.26 -9.21,1.49 -17.56,8.24l-1.55 0.06 -4.2 -3.99 0.09 -1.51c9.33,-8.69 16.93,-16.09 22.74,-22.22 5.86,-6.09 12.94,-14.01 21.19,-23.73l1.36 -0.05 4.2 4.03 0.15 1.46c-3.46,4.81 -5.67,8.39 -6.6,10.75 -0.94,2.35 -1.3,4.23 -1.2,5.64 0.15,1.37 0.66,2.73 1.6,4 0.95,1.26 4.35,4.92 10.2,10.97 5.85,6.05 10.53,10.74 14.01,14.12l47.98 45.85 1.55 -0.05 40.1 -41.9 -0.06 -1.55 -47.94 -45.85c-2.26,-2.16 -6.36,-5.95 -12.35,-11.35 -5.94,-5.39 -9.86,-8.8 -11.75,-10.41 -1.88,-1.54 -3.62,-2.43 -5.18,-2.75 -1.56,-0.28 -3.67,0.15 -6.3,1.33 -2.63,1.14 -6.2,3.56 -10.65,7.14l-1.46 -0.05 -4.19 -3.98 -0.01 -1.36c9.38,-8.78 16.98,-16.24 22.74,-22.27 5.9,-6.14 12.98,-14.06 21.18,-23.73l1.47 -0.14 4.2 4.03 0.04 1.55c-6.47,8.72 -8.89,14.75 -7.38,18.13 1.57,3.38 10.07,12.43 25.55,27.2l47.92 45.9 1.47 0.04 40.17 -41.99 -0.14 -1.45 -47.93 -45.85c-15.67,-15.01 -25.2,-23.11 -28.59,-24.37 -3.34,-1.26 -9.21,1.48 -17.57,8.24l-1.54 0.05 -4.2 -3.99 0.08 -1.46c9.33,-8.73 16.93,-16.14 22.8,-22.26 5.86,-6.14 12.93,-14.06 21.14,-23.74l1.5 -0.15 4.15 4.04 0.05 1.55c-6.41,8.67 -8.89,14.75 -7.38,18.19 1.47,3.37 9.97,12.47 25.44,27.29l47.94 45.85 1.55 -0.05c5.11,-5.57 9.75,-11.09 13.97,-16.56l2.53 -0.05c8.05,15.07 17.93,30.29 29.54,45.58l-4.07 4.29 -17.22 -15.51c-5.75,-5.11 -9.62,-8.01 -11.55,-8.67 -1.98,-0.7 -4.33,-0.46 -7,0.64 -2.72,1.08 -6.44,4.1 -11.13,9.02l-51.85 53.27 -41.3 43.77 -26.87 28.45c-5.58,5.81 -10.07,10.71 -13.45,14.72l-1.6 0z"/>
  <path id="_29" class="fil2 str3" d="M1076.92 734l1.68 10.77c-4.69,10.33 -9.71,18.31 -14.99,23.9 -5.32,5.59 -10.41,10 -15.38,13.18 -9.23,5.96 -19.17,9.78 -29.83,11.5 -10.62,1.73 -21.35,-0.03 -32.12,-5.32 -10.76,-5.29 -20.09,-14.01 -27.98,-26.24 -5.19,-8.1 -8.91,-16.08 -11.13,-23.86 -2.17,-7.85 -3.2,-14.05 -3.05,-18.62 0.16,-4.55 1.62,-10.49 4.39,-17.75 2.78,-7.22 6.36,-13.88 10.73,-19.98 4.34,-6.09 9.94,-11.36 16.73,-15.74 9.27,-5.94 18.85,-9.01 28.72,-9.22 9.88,-0.22 18.41,2.17 25.64,7.15 7.23,4.94 13.3,11.25 18.24,18.88 1.53,2.39 2.9,4.78 4.15,7.17l-0.46 2.12c-4.53,4.5 -11.08,9.86 -19.69,15.94 -8.66,6.12 -14.37,10.07 -17.23,11.93l-37.18 23.96c10.46,15.88 22.05,25.06 34.81,27.56 12.73,2.5 24.83,0.06 36.26,-7.31 5.39,-3.51 9.97,-7.78 13.79,-12.83 3.78,-5.07 7.35,-11.02 10.79,-17.96l3.11 0.77zm-104.75 0.5c1.54,-0.66 7.08,-3.85 16.59,-9.52 9.5,-5.71 16.48,-9.99 20.98,-12.84 10.72,-6.95 17.09,-11.32 19.14,-13.22 -1.1,-1.92 -1.95,-3.37 -2.62,-4.35 -7.7,-11.95 -15.88,-19.32 -24.47,-21.98 -8.63,-2.72 -17.18,-1.34 -25.56,4.08 -9.17,5.94 -14.25,13.83 -15.16,23.67 -0.87,9.89 2.82,21.29 11.1,34.16z"/>
  <path id="_30" class="fil2 str3" d="M1103.21 526.89l16.25 -5.76c10.65,-3.8 17.58,-6.3 20.83,-7.6 2.92,-1.12 15.04,-6.28 36.44,-15.44l1.35 0.48 2.52 6.41 -0.67 1.31c-5.84,2.47 -10.28,4.51 -13.34,6.14 -3.06,1.59 -5.19,3.13 -6.23,4.63 -1.09,1.55 -1.2,4.13 -0.33,7.76 0.88,3.63 2.55,8.53 4.97,14.7l11.33 29.59 23.26 59.39 9.94 24.98c3.86,9.62 6.6,15.79 8.14,18.43 1.49,2.64 2.85,4.3 4.07,4.91 1.17,0.62 3.05,0.82 5.6,0.55 2.54,-0.27 8.42,-2.03 17.61,-5.23l1.36 0.39 2.51 6.41 -0.62 1.4c-0.42,0.19 -8.05,2.88 -22.9,8.12 -6.12,2.18 -10.88,3.95 -14.33,5.29 -2.64,1.07 -14.75,6.18 -36.29,15.44l-1.41 -0.62 -2.51 -6.41 0.72 -1.18c7.82,-3.48 12.96,-6 15.41,-7.54 2.46,-1.53 3.97,-2.9 4.54,-4.06 0.57,-1.18 0.63,-3.2 0.12,-6.07 -0.45,-2.88 -2.45,-8.86 -5.97,-18.05l-10.49 -27.14 -23.27 -59.39 -10.09 -24.88c-3.9,-9.76 -6.6,-15.94 -8.09,-18.62 -1.49,-2.65 -2.85,-4.3 -4.02,-4.92 -1.17,-0.61 -3.05,-0.77 -5.59,-0.5 -2.54,0.32 -8.39,2.08 -17.62,5.33l-1.36 -0.53 -2.51 -6.41 0.67 -1.31z"/>
  <path id="_31" class="fil2 str3" d="M1378.71 512.65c7.48,-1.13 13.97,-2.35 19.53,-3.63 6.72,-1.51 13.64,-3.38 20.74,-5.6l1.31 0.71 1.28 5.64 -0.85 1.32c-6.54,2.17 -10.49,3.71 -11.86,4.61 -1.31,0.94 -2.26,2.35 -2.72,4.33 -0.52,1.92 -0.05,6.44 1.36,13.45 1.41,7.01 3.29,15.56 5.6,25.69l5.22 22.8c1.55,6.64 3.39,14.35 5.6,23.1 2.16,8.8 3.94,13.93 5.26,15.38 1.32,1.51 2.83,2.35 4.42,2.63 1.6,0.24 5.79,-0.09 12.56,-0.98l1.27 0.7 1.33 5.65 -0.86 1.32c-9.03,1.31 -18.76,3.15 -29.2,5.55 -10.87,2.48 -20.37,5.03 -28.65,7.66l-1.31 -0.8 -1.28 -5.65 0.85 -1.17c6.58,-2.16 10.54,-3.71 11.85,-4.65 1.36,-0.9 2.26,-2.36 2.78,-4.29 0.52,-1.97 0,-6.39 -1.46,-13.4 -1.41,-6.96 -3.34,-15.57 -5.69,-25.87l-11.71 -51.13 -1.47 0.33 -26.19 113.21 -4.47 1.04 -71.07 -90.92 -1.51 0.33 17.22 69.52c1.27,5.17 2.02,8.36 2.35,9.64 1.23,5.46 2.4,8.89 3.48,10.4 1.13,1.5 2.63,2.35 4.61,2.54 1.98,0.23 6.34,-0.2 13.13,-1.14l1.26 0.67 1.27 5.64 -0.79 1.32c-8.24,1.13 -16.24,2.59 -24.05,4.37 -6.77,1.55 -14.25,3.67 -22.43,6.26l-1.32 -0.8 -1.27 -5.65 0.85 -1.17c7.48,-2.31 12.05,-4 13.69,-5.13 1.6,-1.13 2.5,-2.77 2.68,-4.94 0.14,-2.12 -1.03,-8.7 -3.53,-19.71l-13.21 -60.11c-2.36,-10.3 -4.05,-16.51 -5.08,-18.58 -1.04,-2.07 -2.49,-3.34 -4.38,-3.82 -1.83,-0.47 -7.01,-0.04 -15.56,1.28l-1.33 -0.85 -1.31 -5.65 0.85 -1.17c9.27,-1.55 16.56,-2.92 21.82,-4.14 5.55,-1.27 12.37,-3.1 20.46,-5.55l64.02 83.4 2.02 -0.47 23.89 -103.52z"/>
  <path id="_32" class="fil2 str3" d="M1496.51 497.99l-9.81 -48.65c-0.97,-4.56 -1.49,-7.29 -1.53,-8.18 -0.1,-2.78 0.99,-5.23 3.21,-7.43 2.26,-2.16 5.17,-3.34 8.89,-3.42 3.76,-0.14 6.77,0.81 9.07,2.88 2.35,2.03 3.52,4.38 3.62,7.01 0.04,1.04 -0.24,3.86 -0.82,8.47l-6.84 49.15 -5.79 0.17z"/>
  <path id="_33" class="fil2 str3" d="M1618.76 632.18l0.45 -5.74 1.18 -0.89c9.88,-0.26 15.5,-2.63 16.89,-6.99 1.39,-4.41 2.88,-16.35 4.5,-35.81l1.89 -22.67c1.32,-15.55 2.26,-30.08 2.82,-43.67l-1.64 -1.94c-3.24,-0.64 -6.77,-1.13 -10.52,-1.43 -7.11,-0.62 -12.93,-0.23 -17.51,1.11 -4.52,1.34 -8.21,3.89 -11.06,7.69 -2.85,3.84 -4.47,8.25 -4.88,13.27 -0.4,4.76 0.41,9.28 2.46,13.62 2.04,4.29 5.59,7.98 10.75,10.98 5.1,3 12.48,4.93 22.07,5.83l-0.31 3.72c-19.49,17.79 -38.48,38.04 -56.83,60.74 -7.09,-1.32 -13.15,-2.2 -18.28,-2.66 -4.8,-0.36 -10.87,-0.49 -18.21,-0.4l-1.02 -1.18 0.46 -5.78 1.18 -0.84c5.84,-0.01 9.88,-0.45 12.24,-1.48 2.31,-1.01 6.8,-4.79 13.44,-11.44l38.86 -38.65 0.2 -2.16c-22.88,-6.26 -33.62,-17.8 -32.2,-34.73 0.77,-9.17 5.2,-16.25 13.36,-21.27 8.17,-5.03 19.19,-6.98 33.11,-5.81 3.29,0.25 9.21,0.95 17.77,2.04 8.83,1.09 15.41,1.84 19.69,2.2 8.51,0.7 19.14,1.2 31.78,1.51l0.9 1.04 -0.47 5.79 -1.09 1.02c-10.86,0.46 -17.17,2.34 -18.8,5.67 -1.67,3.33 -3.39,15.64 -5.17,36.94l-2.09 24.82c-1.78,21.49 -2.09,33.95 -0.94,37.34 1.15,3.45 7.01,6.3 17.58,8.67l0.89 1.04 -0.51 5.74 -1.04 1.04c-12.73,-1.78 -23.26,-3.02 -31.58,-3.74 -6.4,-0.51 -16.18,-0.99 -29.34,-1.32l-0.98 -1.22z"/>
  <path id="_34" class="fil2 str3" d="M1850.84 677.96l-1.41 0.62c-0.62,-0.24 -6.12,-2.64 -16.56,-7.25 -9.98,-4.46 -16.65,-7.33 -19.95,-8.69 -1.78,-0.71 -14.06,-5.27 -36.74,-13.64l-0.6 -1.41 2.58 -6.39 1.36 -0.34c7.57,2.78 12.94,4.47 16.09,5.18 3.15,0.66 5.41,0.61 6.82,-0.1 1.36,-0.76 2.73,-2.31 4.09,-4.66 1.37,-2.39 4.19,-8.61 8.47,-18.72 4.27,-10.12 7.7,-18.39 10.33,-24.88l23.89 -59.13c3.47,-8.71 7.14,-18.11 11,-28.18 3.8,-10.11 5.88,-16.19 6.15,-18.26 0.29,-2.07 0.15,-3.67 -0.42,-4.83 -0.57,-1.18 -2.07,-2.5 -4.47,-4.05 -2.4,-1.51 -7.48,-4.05 -15.28,-7.58l-0.67 -1.31 2.59 -6.35 1.41 -0.51 7.58 3.24 5.08 2.16 8.74 3.71 17.84 7.33 26.47 11.01c10.12,4.18 21.12,8.74 33.12,13.68l51.37 20.26 30.16 11.89c5.83,2.26 11.61,4.42 17.4,6.59l0.66 1.31 -2.59 6.35 -1.41 0.52c-8.42,-3.15 -14.02,-4.94 -16.74,-5.41 -2.73,-0.42 -4.7,-0.42 -5.93,0.1 -1.18,0.52 -2.4,1.69 -3.67,3.57 -1.22,1.88 -4.19,8.28 -8.74,19.2 -4.61,10.9 -8.18,19.47 -10.72,25.68l-23.88 59.18c-2.68,6.63 -5.92,15.01 -9.83,25.11 -3.9,10.12 -6.2,16.56 -6.95,19.25 -0.76,2.72 -0.85,4.85 -0.24,6.3 0.57,1.51 2.31,3.11 5.17,4.85 2.83,1.73 7.82,4.18 14.87,7.33l0.71 1.18 -2.59 6.39 -1.41 0.61c-0.71,-0.28 -6.21,-2.68 -16.56,-7.28 -9.97,-4.42 -16.7,-7.33 -20.08,-8.7 -1.69,-0.7 -13.98,-5.22 -36.7,-13.63l-0.52 -1.36 2.59 -6.4 1.22 -0.42c8.66,3.09 14.35,4.88 17.03,5.31 2.68,0.47 4.61,0.41 5.74,-0.1 1.18,-0.52 2.35,-1.75 3.63,-3.63 1.27,-1.88 4.18,-8.23 8.83,-19.14 4.65,-10.91 8.23,-19.42 10.72,-25.55l43.58 -107.95 -0.85 -1.97 -97.33 -39.31 -1.97 0.85 -43.63 107.96c-2.63,6.54 -5.92,14.91 -9.82,25.12 -3.95,10.2 -6.26,16.65 -6.91,19.33 -0.7,2.73 -0.8,4.8 -0.24,6.25 0.57,1.46 2.26,3.06 5.04,4.8 2.82,1.74 7.8,4.19 14.95,7.34l0.71 1.17 -2.58 6.4z"/>
  <path id="_35" class="fil2 str3" d="M2151.16 759.53c-6.31,9.68 -13.56,17.4 -21.75,23.13 -8.19,5.73 -17.03,9.49 -26.53,11.23 -9.55,1.74 -18.16,1.68 -25.92,-0.16 -7.72,-1.79 -15.85,-5.46 -24.32,-11.02 -18.9,-12.34 -29.75,-27.16 -32.51,-44.43 -2.82,-17.26 1.05,-34.05 11.64,-50.26 7.29,-11.15 16.15,-19.47 26.59,-25.06 10.4,-5.6 21.64,-7.75 33.68,-6.43 12.04,1.28 24.13,5.9 36.31,13.81 11.8,7.72 20.5,16.52 26,26.4 5.5,9.93 7.93,20.38 7.31,31.47 -0.56,11.06 -4.06,21.49 -10.5,31.32zm-26.67 -7.68c10.03,-15.38 14.88,-29.82 14.61,-43.21 -0.23,-13.46 -6.48,-24.2 -18.7,-32.14 -10.25,-6.69 -20.93,-8.53 -32.08,-5.58 -11.15,3.01 -21.45,11.75 -30.92,26.28 -9.75,14.91 -14.88,29.86 -15.45,44.91 -0.57,15.05 5.3,26.54 17.47,34.54 10.73,6.97 21.87,8.14 33.54,3.54 11.67,-4.6 22.16,-14.05 31.53,-28.34z"/>
  <path id="_36" class="fil2 str3" d="M2414.7 827.62l-0.3 5.08c-10.03,3.59 -17.47,5.92 -22.27,7.04 -4.84,1.12 -8.89,1.15 -12.13,0.16 -3.24,-1 -7.33,-4.07 -12.21,-9.21l-22.04 -21.74c-7.89,-7.84 -14.41,-13.07 -19.62,-15.77 -5.17,-2.65 -10.57,-3.89 -16.13,-3.71 -5.55,0.17 -11.81,2.08 -18.82,5.78 -6.98,3.69 -16.55,11.2 -28.72,22.54l1.41 1.46c14.12,-2.49 26.16,-1.9 36.26,1.8 10.06,3.74 19.54,10.21 28.41,19.51 14.68,15.42 22.49,30.82 23.44,46.25 0.94,15.38 -6.34,30.46 -21.82,45.24 -16.83,16.04 -34.25,23.94 -52.41,23.74 -18.15,-0.23 -34.5,-7.99 -49.14,-23.31 -11.16,-11.7 -17.85,-23.2 -20.09,-34.45 -2.22,-11.25 -0.35,-23.38 5.7,-36.39 6.02,-13.06 16.92,-27.09 32.72,-42.19 11.08,-10.56 22.39,-19.28 33.85,-26.16 11.44,-6.88 21.85,-11.33 31.26,-13.36 9.41,-2.05 17.74,-2.08 25.03,0.02 7.28,2.04 14,5.67 20.24,10.92 6.19,5.23 14.69,13.25 25.47,24.01 6.33,6.41 11.17,10.42 14.5,12.03 3.34,1.66 9.18,1.86 17.41,0.71zm-164.61 24.25c-7.78,7.4 -13.62,13.97 -17.54,19.65 -3.88,5.68 -6.67,11.88 -8.39,18.6 -1.66,6.77 -1.68,13.22 -0.09,19.44 1.63,6.21 4.95,11.95 10.02,17.29 10.64,11.17 23,14.82 37.17,11.05 14.13,-3.77 27.79,-11.96 40.94,-24.48 11.22,-10.7 18.17,-22.16 20.89,-34.38 2.67,-12.22 -0.97,-23.56 -11.01,-34.04 -9.48,-9.95 -20.66,-14.35 -33.54,-13.16 -12.9,1.18 -25.71,7.88 -38.45,20.03z"/>
  <path id="_37" class="fil2 str3" d="M2383.95 969.93l-1.74 -5.25 0.55 -1.66c1.28,-0.71 2.91,-1.71 4.84,-2.94l9.5 -6.33c10.81,4.87 19.26,9.41 25.35,13.65 6.15,4.25 11.41,9.75 15.79,16.59 7.7,11.95 10.65,23.4 8.89,34.37 -1.76,11.02 -8.04,19.96 -18.77,26.85l-23.66 14.42 -34.5 22.25c-4.17,2.67 -6.65,4.8 -7.54,6.31 -0.88,1.56 -1.15,3.07 -0.81,4.56 0.3,1.51 1.49,4.24 3.64,8.21l-0.46 1.61 -4.64 2.99 -1.51 -0.32c-3.33,-6.37 -6.1,-11.24 -8.29,-14.66 -2.09,-3.23 -5.61,-8.1 -10.49,-14.51l0.5 -2.78 18.91 -11.56 -21.11 -7.37c-7.41,-2.54 -12.36,-4.24 -14.81,-5.18 -4.54,-3.11 -8.38,-7.17 -11.61,-12.19 -5.94,-9.18 -8.17,-18.01 -6.67,-26.43 1.49,-8.48 6.47,-15.39 14.85,-20.8 8.75,-5.66 17.36,-7.93 25.78,-6.96 8.47,0.98 17.2,5.1 26.29,12.33 9.08,7.18 20.78,19.14 35.1,35.79 4.82,-3.09 8.71,-6.04 11.64,-8.88 3,-2.9 5.18,-6.53 6.62,-11.01 1.42,-4.48 1.72,-9.13 0.78,-13.93 -0.92,-4.83 -2.93,-9.62 -6.02,-14.39 -1.62,-2.58 -3.42,-4.88 -5.41,-7.02 -1.94,-2.1 -4.08,-3.92 -6.34,-5.41 -2.27,-1.5 -3.74,-2.33 -4.44,-2.56 -0.66,-0.18 -1.65,-0.17 -2.92,0.06 -0.61,0.11 -3,0.46 -7.19,1.05 -3.19,0.44 -6.2,0.97 -8.92,1.66l-1.18 -0.56zm16.68 65.31c-14.36,-15.98 -25.96,-26.26 -34.78,-30.76 -8.88,-4.49 -18,-3.72 -27.32,2.27 -6.04,3.9 -9.58,8.44 -10.67,13.72 -1.09,5.22 0.12,10.63 3.68,16.2 6.66,10.25 19.12,16.56 37.48,18.93l31.61 -20.36z"/>
  <path id="_38" class="fil2 str3" d="M2486.06 1075.04l1.36 0.56c6.6,16.66 14.57,35.09 23.82,55.31 9.44,20.5 18.25,38.55 26.39,54.12l-0.47 1.28c-11.26,4.58 -20.69,8.58 -28.29,12.06l-1.09 -0.41 -2.28 -5.02 0.41 -1.09c8.49,-5.22 13.41,-8.54 14.71,-9.96 1.35,-1.38 1.97,-2.84 1.91,-4.25 -0.06,-1.46 -0.87,-3.94 -2.49,-7.41l-11.64 -25.43 -32.27 14.21 -28.57 13.08c-6.19,2.85 -13.32,6.23 -21.48,10.19 -8.16,3.9 -12.8,6.66 -14.02,8.22 -1.21,1.56 -1.76,3.21 -1.66,4.86 0.15,1.69 1.31,5.73 3.56,12.16l-0.42 1.41 -5.25 2.43 -1.46 -0.56c-3.16,-8.68 -6.89,-17.59 -11.12,-26.88 -4.44,-9.66 -8.82,-18.34 -13.14,-25.93l0.55 -1.46 5.26 -2.43 1.36 0.6c3.43,6 5.75,9.56 6.93,10.68 1.19,1.12 2.74,1.72 4.77,1.81 2.02,0.08 6.29,-1.26 12.86,-4.08 6.52,-2.76 14.59,-6.39 24.2,-10.78l28.15 -12.91c10.74,-5.25 21.48,-10.44 32.12,-15.54l-11.63 -25.42c-1.66,-3.56 -3.04,-5.86 -4.13,-6.79 -1.09,-0.98 -2.69,-1.36 -4.76,-1.15 -2.07,0.2 -7.65,1.69 -16.77,4.57l-1.08 -0.42 -2.24 -4.88 0.33 -1.22c3.37,-1.53 12.52,-6.05 27.57,-13.53z"/>
  <path id="_39" class="fil2 str3" d="M2426.58 1264.15l5.56 -1.51 1.21 0.81c2.28,5.1 4.22,8.83 5.85,11.14 1.67,2.28 3.26,3.7 4.77,4.18 1.54,0.49 3.23,0.64 5.16,0.32 1.94,-0.27 6.78,-1.36 14.61,-3.23 7.83,-1.82 13.76,-3.32 17.87,-4.42l24.03 -6.45c20.93,-5.68 32.81,-9.59 35.65,-11.82 2.8,-2.24 3.5,-8.68 2.08,-19.32l0.76 -1.36 5.56 -1.51 1.22 0.82c2.63,12.53 5.05,22.84 7.25,31 2.1,7.91 5.21,18.05 9.31,30.46l-0.67 1.17 -5.61 1.51 -1.31 -0.67c-2.31,-5.43 -4.26,-9.16 -5.79,-11.19 -1.54,-1.99 -2.94,-3.32 -4.2,-3.94 -1.27,-0.58 -2.68,-0.82 -4.23,-0.69 -1.61,0.13 -6.51,1.13 -14.7,2.99 -8.21,1.92 -14.62,3.47 -19.33,4.75l-2.26 0.59c2.53,7.59 4.65,14.67 6.43,21.22 3.1,11.55 4.4,20.63 3.84,27.26 -0.53,6.67 -3.06,12.54 -7.62,17.53 -4.55,5.05 -10.45,8.53 -17.72,10.5 -8.34,2.24 -16.19,1.99 -23.6,-0.79 -7.36,-2.74 -13.27,-6.97 -17.64,-12.6 -4.38,-5.58 -7.94,-13.65 -10.77,-24.11 -0.74,-2.74 -1.97,-8.02 -3.7,-15.84 -1.4,-6.64 -2.54,-11.64 -3.46,-15.03 -2.24,-8.25 -5.32,-18.38 -9.36,-30.41l0.81 -1.36zm76.53 25.33l-24.19 6.49c-13.15,3.76 -21.59,6.24 -25.22,7.43 -3.68,1.24 -5.99,2.68 -7,4.32 -0.99,1.64 -0.87,4.65 0.27,8.99 2.89,10.6 8.19,17.84 15.97,21.57 7.73,3.77 16.61,4.31 26.66,1.61 5.51,-1.51 9.9,-3.69 13.17,-6.63 3.32,-2.93 5.41,-6.63 6.3,-11.09 0.87,-4.47 0.31,-10.49 -1.7,-18.04 -0.97,-3.53 -2.38,-8.43 -4.26,-14.65z"/>
  <path id="_40" class="fil2 str3" d="M2462.4 1402.97l5.78 -0.46 1.04 0.98c1.22,6.81 2.19,10.94 2.91,12.35 0.71,1.41 1.93,2.53 3.77,3.36 1.84,0.84 6.08,1.05 12.76,0.68 6.72,-0.38 15.8,-1 27.23,-1.91l23.36 -1.94c7.14,-0.56 15.09,-1.32 23.93,-2.22 8.83,-0.91 14.05,-1.93 15.73,-3.07 1.65,-1.14 2.72,-2.5 3.18,-4.06 0.46,-1.56 0.72,-5.7 0.72,-12.42l0.98 -1.19 5.78 -0.5 1.04 1.02c0.01,9.13 0.45,19 1.32,29.63 0.91,11.09 2.1,20.92 3.53,29.57l-0.89 1.18 -5.74 0.45 -1.18 -0.98c-1.22,-6.81 -2.19,-10.98 -2.9,-12.44 -0.72,-1.45 -1.99,-2.53 -3.78,-3.27 -1.84,-0.74 -6.08,-0.95 -12.81,-0.62 -6.67,0.33 -15.7,0.94 -27.07,1.86l-9.03 0.76 0.05 1.09c11.22,10.98 22.72,21.34 34.45,31.2 11.73,9.81 18.25,15.22 19.62,16.14 1.37,0.94 2.54,1.4 3.54,1.3 1.13,-0.1 1.82,-0.95 2.14,-2.64l5.37 -0.46 1.18 1.02c-0.1,7.95 -0.02,13.22 0.19,15.9 0.36,4.47 1.19,9.69 2.4,15.7l-1.03 1.04 -5.78 0.46 -1.04 -0.89c-1.03,-5.87 -2.99,-10.89 -5.84,-15.02 -2.89,-4.07 -17.7,-18.65 -44.58,-43.74l-54.46 60.98c-3.97,4.36 -6.35,7.34 -7.23,8.8 -0.84,1.51 -1.2,3.63 -1.04,6.39l-0.66 0.72 -5.88 0.51 -0.9 -0.61c-0.7,-14.34 -0.75,-23.05 -0.16,-26.15 0.54,-3.06 2.27,-6.6 5.1,-10.57 2.9,-3.97 8.65,-10.69 17.24,-20.15 17.32,-19.15 28.63,-32.4 33.8,-39.63l-0.05 -1.13 -10.73 0.87c-7.51,0.62 -15.6,1.37 -24.3,2.27 -8.64,0.9 -13.81,1.92 -15.5,3.02 -1.64,1.08 -2.71,2.46 -3.13,4.06 -0.41,1.6 -0.67,5.74 -0.76,12.47l-0.89 1.18 -5.74 0.46 -1.23 -0.98c0.04,-9.12 -0.4,-19.04 -1.32,-29.77 -0.86,-10.99 -2.05,-20.77 -3.47,-29.42l0.98 -1.18z"/>
  <path id="_41" class="fil2 str3" d="M2530.56 1701.9c-11.52,-0.97 -21.75,-3.72 -30.71,-8.15 -8.9,-4.47 -16.4,-10.5 -22.46,-18.06 -6.02,-7.52 -10.11,-15.17 -12.18,-22.85 -2.07,-7.67 -2.67,-16.53 -1.86,-26.58 1.89,-22.52 9.75,-39.07 23.66,-49.76 13.84,-10.69 30.43,-15.24 49.75,-13.61 13.26,1.12 24.81,4.91 34.69,11.46 9.84,6.51 17.07,15.41 21.66,26.58 4.59,11.22 6.29,24.02 5.07,38.5 -1.17,14.07 -4.78,25.9 -10.9,35.41 -6.09,9.55 -14.13,16.65 -24.13,21.38 -10.05,4.74 -20.88,6.64 -32.59,5.68zm-5.9 -27.18c18.3,1.53 33.27,-1.01 44.97,-7.62 11.71,-6.65 18.18,-17.23 19.36,-31.77 1.01,-12.18 -2.4,-22.44 -10.35,-30.82 -7.89,-8.38 -20.51,-13.3 -37.77,-14.78 -17.77,-1.48 -33.36,1.15 -46.85,7.8 -13.5,6.63 -20.86,17.26 -22.07,31.79 -1.07,12.69 3.19,23.12 12.78,31.17 9.64,8.06 22.92,12.8 39.93,14.23z"/>
  <path id="_42" class="fil2 str3" d="M2455.6 1721.99l5.64 1.33 0.7 1.27c-1.01,6.86 -1.35,11.1 -1.12,12.65 0.23,1.55 1.12,3.02 2.58,4.34 1.5,1.37 5.45,2.89 11.94,4.64 6.48,1.71 15.31,3.9 26.46,6.57l22.79 5.38c6.96,1.66 14.77,3.43 23.41,5.28 8.69,1.91 13.96,2.54 15.89,1.93 1.94,-0.55 3.4,-1.49 4.29,-2.86 0.95,-1.31 2.47,-5.21 4.55,-11.59l1.32 -0.81 5.65 1.34 0.64 1.32c-3.6,12.03 -6.17,21.24 -7.64,27.59 -0.77,3.05 -1.67,7.28 -2.77,12.79 -3.29,15.74 -5.58,26.5 -6.96,32.33 -2.47,10.25 -6.54,17.25 -12.25,20.99 -5.7,3.75 -11.96,4.82 -18.86,3.19 -14.62,-3.47 -22.3,-15.81 -22.9,-37.02 -3.65,12.16 -8.85,20.57 -15.69,25.15 -6.78,4.6 -14.55,5.89 -23.19,3.84 -10.63,-2.51 -19.22,-8.85 -25.78,-18.94 -6.6,-10.13 -7.73,-24.09 -3.5,-41.96 0.28,-1.22 1,-3.85 2.14,-7.84 2.14,-7.34 3.71,-13.17 4.76,-17.54 2.19,-10.9 4.38,-21.77 6.58,-32.58l1.32 -0.79zm63.01 57.14c-1,3.53 -1.81,6.39 -2.29,8.5 -2.95,12.42 -2.97,21.59 -0.12,27.52 2.9,5.93 7.92,9.72 15.07,11.43 6.24,1.47 11.89,0.74 16.88,-2.25 5,-3.06 8.73,-9.58 11.12,-19.68 1.04,-4.47 1.96,-9.22 2.67,-14.24l-43.33 -11.28zm-8.04 -1.9l-56.08 -12.35c-1.71,4.33 -3.18,9.16 -4.47,14.53 -1.85,7.75 -1.78,14.29 0.18,19.66 1.92,5.31 4.87,9.46 8.77,12.44 3.89,3.03 8.4,5.15 13.52,6.34 5.88,1.43 11.38,1.3 16.47,-0.33 5.13,-1.63 9.13,-4.77 12.02,-9.51 2.93,-4.74 5.49,-11.61 7.63,-20.63 0.53,-2.35 1.2,-5.74 1.96,-10.15z"/>
  <path id="_43" class="fil2 str3" d="M2586.02 1959.83c-1.59,4 -4.37,6.87 -8.32,8.52 -3.95,1.69 -7.95,1.7 -11.95,0.09 -3.9,-1.6 -6.67,-4.32 -8.37,-8.27 -1.69,-3.95 -1.69,-7.9 -0.1,-11.95 1.61,-3.9 4.33,-6.73 8.28,-8.47 3.91,-1.74 7.85,-1.79 11.85,-0.18 4,1.63 6.87,4.41 8.52,8.41 1.65,4 1.69,7.95 0.09,11.85zm-61.47 -12.17l-2.64 1.74c-10.77,-5.45 -24.79,-11.65 -42.01,-18.57l-28.83 -11.65c-1.89,-0.76 -8,-3.01 -18.3,-6.82 -10.31,-3.76 -16.42,-5.78 -18.25,-6.11 -1.88,-0.28 -3.34,-0.19 -4.42,0.24 -1.09,0.47 -1.93,1.22 -2.59,2.21 -0.66,1.03 -2.87,5.5 -6.67,13.35l-1.46 0.76 -5.36 -2.16 -0.77 -1.51c4.99,-10.34 9.46,-20.46 13.45,-30.34 3.95,-9.83 7.76,-20.18 11.38,-31.09l1.6 -0.66 5.36 2.17 0.57 1.54c-2.82,8.47 -4.33,13.27 -4.51,14.44 -0.15,1.18 0,2.31 0.47,3.44 0.46,1.17 1.5,2.21 3.05,3.2 1.51,0.94 6.87,3.52 16.04,7.66 9.18,4.13 16.14,7.19 20.94,9.12l25.17 10.15c3.38,1.37 8.08,3.06 14.11,5.13 6.02,2.02 9.74,3.2 11.19,3.52 1.46,0.33 2.74,0.09 3.81,-0.75 1.09,-0.85 2.31,-2.97 3.62,-6.25l4.47 -10.69 1.51 -0.75 5.5 2.21 0.61 1.46c-4.61,17.03 -6.96,32.03 -7.04,45.01z"/>
  <path class="fil1 str4" d="M656.04 2101.03c-0.55,-8.27 -2.44,-16.53 -5.71,-24.74 -4.6,-11.78 -6.9,-19.92 -6.9,-24.36 0,-6.29 1.67,-11.04 4.95,-14.31 3.34,-3.27 7.46,-4.87 12.4,-4.87 4.18,0 7.87,1.6 11.01,4.87 3.13,3.27 4.66,7.9 4.66,13.94 0,5.43 -1.8,12.95 -5.36,22.64 -3.62,9.74 -5.85,18.68 -6.69,26.83 7.53,-4.2 14.22,-9.32 20.2,-15.36 9.27,-9.5 16.17,-15.42 20.63,-17.7 4.53,-2.29 9.06,-3.4 13.72,-3.4 4.46,0 8.22,1.36 11.29,4.08 3.06,2.65 4.6,5.92 4.6,9.62 0,4.5 -2.23,8.45 -6.76,11.96 -4.46,3.46 -15.67,6.97 -33.65,10.49 -10.45,2.03 -19.16,4.38 -26.13,7.03 7.11,3.27 15.75,5.73 25.92,7.4 16.44,2.65 27.24,5.98 32.33,9.93 5.15,4.01 7.66,8.33 7.66,13.02 0,3.63 -1.53,6.72 -4.6,9.37 -3.06,2.65 -6.61,4.01 -10.66,4.01 -4.11,0 -8.64,-1.29 -13.58,-3.82 -4.95,-2.53 -11.71,-8.21 -20.14,-16.97 -5.57,-5.92 -12.46,-11.47 -20.83,-16.65 0.28,6.91 1.88,14.37 4.74,22.45 4.88,14.19 7.31,23.87 7.31,29.05 0,4.81 -1.6,8.88 -4.87,12.21 -3.28,3.33 -6.76,5 -10.38,5 -5.09,0 -9.61,-1.79 -13.73,-5.24 -2.85,-2.53 -4.25,-6.6 -4.25,-12.15 0,-5.74 1.54,-12.71 4.67,-20.85 3.14,-8.14 5.09,-13.75 5.92,-16.78 0.84,-3.08 1.61,-7.65 2.23,-13.69 -8.01,4.75 -15.05,9.93 -20.97,15.73 -9.96,9.87 -17.41,16.16 -22.5,18.81 -3.55,1.91 -7.18,2.9 -11.01,2.9 -4.59,0 -8.57,-1.42 -11.84,-4.2 -3.28,-2.77 -4.88,-5.79 -4.88,-9.18 0,-3.03 1.39,-6.17 4.18,-9.5 2.79,-3.33 6.97,-6.05 12.54,-8.21 3.7,-1.48 12.05,-3.39 25.08,-5.8 8.43,-1.53 16.72,-3.82 24.73,-6.84 -7.38,-3.27 -16.16,-5.8 -26.33,-7.59 -16.72,-3.14 -27.1,-5.98 -31,-8.51 -6.13,-3.94 -9.2,-8.82 -9.2,-14.43 0,-3.27 1.54,-6.23 4.6,-8.94 3.06,-2.72 6.62,-4.07 10.73,-4.07 4.46,0 9.19,1.23 14.28,3.76 5.01,2.53 11.29,7.65 18.74,15.29 7.52,7.65 15.12,13.57 22.85,17.77z"/>
  <path class="fil1 str4" d="M2436.38 2101.03c-0.55,-8.27 -2.44,-16.53 -5.71,-24.74 -4.6,-11.78 -6.9,-19.92 -6.9,-24.36 0,-6.29 1.67,-11.04 4.95,-14.31 3.34,-3.27 7.46,-4.87 12.4,-4.87 4.18,0 7.87,1.6 11.01,4.87 3.13,3.27 4.66,7.9 4.66,13.94 0,5.43 -1.8,12.95 -5.36,22.64 -3.62,9.74 -5.85,18.68 -6.69,26.83 7.53,-4.2 14.22,-9.32 20.2,-15.36 9.27,-9.5 16.17,-15.42 20.63,-17.7 4.53,-2.29 9.06,-3.4 13.72,-3.4 4.46,0 8.22,1.36 11.29,4.08 3.06,2.65 4.6,5.92 4.6,9.62 0,4.5 -2.23,8.45 -6.76,11.96 -4.46,3.46 -15.67,6.97 -33.65,10.49 -10.45,2.03 -19.16,4.38 -26.13,7.03 7.11,3.27 15.75,5.73 25.92,7.4 16.44,2.65 27.24,5.98 32.33,9.93 5.15,4.01 7.66,8.33 7.66,13.02 0,3.63 -1.53,6.72 -4.6,9.37 -3.06,2.65 -6.61,4.01 -10.66,4.01 -4.11,0 -8.64,-1.29 -13.58,-3.82 -4.95,-2.53 -11.71,-8.21 -20.14,-16.97 -5.57,-5.92 -12.46,-11.47 -20.83,-16.65 0.28,6.91 1.88,14.37 4.74,22.45 4.88,14.19 7.31,23.87 7.31,29.05 0,4.81 -1.6,8.88 -4.87,12.21 -3.28,3.33 -6.76,5 -10.38,5 -5.09,0 -9.61,-1.79 -13.73,-5.24 -2.85,-2.53 -4.25,-6.6 -4.25,-12.15 0,-5.74 1.54,-12.71 4.67,-20.85 3.14,-8.14 5.09,-13.75 5.92,-16.78 0.84,-3.08 1.61,-7.65 2.23,-13.69 -8.01,4.75 -15.05,9.93 -20.97,15.73 -9.96,9.87 -17.41,16.16 -22.5,18.81 -3.55,1.91 -7.18,2.9 -11.01,2.9 -4.59,0 -8.57,-1.42 -11.84,-4.2 -3.28,-2.77 -4.88,-5.79 -4.88,-9.18 0,-3.03 1.39,-6.17 4.18,-9.5 2.79,-3.33 6.97,-6.05 12.54,-8.21 3.7,-1.48 12.05,-3.39 25.08,-5.8 8.43,-1.53 16.72,-3.82 24.73,-6.84 -7.38,-3.27 -16.16,-5.8 -26.33,-7.59 -16.72,-3.14 -27.1,-5.98 -31,-8.51 -6.13,-3.94 -9.2,-8.82 -9.2,-14.43 0,-3.27 1.54,-6.23 4.6,-8.94 3.06,-2.72 6.62,-4.07 10.73,-4.07 4.46,0 9.19,1.23 14.28,3.76 5.01,2.53 11.29,7.65 18.74,15.29 7.52,7.65 15.12,13.57 22.85,17.77z"/>
  <g id="_1528160478128">
   <path class="fil3 str2" d="M1510.6 2017.72l2.47 -69.7c72.7,-15.75 59.94,60.42 -2.47,69.7zm-18.47 -115c-56.34,9.66 -148.15,-35.56 -56.99,-97.93 6.24,-4.27 42.65,-22.79 52.04,-22l4.95 119.93zm-49.12 -418.32c37.17,-1.48 81.41,-8.9 118.78,-13.15 33.86,-3.85 71.36,-16.82 104.35,-26.21 37.65,-10.71 67.32,-23.48 109.64,-19.44 38.26,3.66 70.96,19.38 65.87,67.9 -8.76,83.46 -163.01,149.36 -223.48,177.01 -25.52,11.67 -66.54,32.47 -94.01,36.61l2.85 -51.91c69.41,-10.7 106.34,-20.99 160.38,-51.8 23.06,-13.15 109.41,-72.92 121.13,-94.11l-609.5 0.2c6.01,9.91 44.82,41.04 57.78,51.11 73.39,56.99 131.25,80.57 224.25,94.62l2.61 67.83c-8.96,6.6 -30.57,14.62 -41.48,20.42 -37.24,19.77 -78.66,49.84 -87.56,101.11 -14.78,85.21 59.16,96.88 115.08,101.13 8.8,0.67 17.81,-0.27 25.1,4.42l2.12 72c-32.48,2.64 -51.9,1.55 -82.25,-4.83 3.88,25.17 60.75,38.02 84.7,43.35 1.87,17.24 -3.47,17.32 -24.06,35.45 -28.86,25.4 -57.6,45.72 -93.02,58.92l-15.94 6.17c-3.9,2.28 -2.96,1.82 -5.29,3.69l289.82 -0.13 -11.54 -6.84c-30.7,-11.83 -137.11,-58.36 -130.54,-96.8 26.73,-2.52 48.45,-4.4 65.95,-19.68 16.04,-14.01 26.48,-30.19 31.57,-57.87 13.2,-71.86 -37.08,-69.5 -91.21,-78.53l6.22 -139.71c36.86,-14.24 80.17,-35.13 117.66,-51.61 29.39,-12.92 150.54,-63.31 172.39,-79.63 48.37,-36.13 99.46,-87.76 87.94,-170.68 -15.74,-113.37 -127.67,-111.8 -225.86,-87.03 -22.32,5.63 -43.9,11.52 -64.82,18.24 -22.84,7.33 -44.96,9.84 -66.78,16.58 -36.3,11.21 -85.84,46.29 -98.85,73.2z"/>
  </g>
  <path class="fil1" d="M1126.72 1049l126.15 0 0 202.07 -26.81 0 0 -178.36 -72.53 0 0 104.09c0,21.17 -0.99,36.64 -2.96,46.47 -1.98,9.88 -6.17,17.5 -12.52,23 -6.35,5.46 -14.44,8.19 -24.17,8.19 -5.93,0 -13.03,-1.23 -21.31,-3.67l4.8 -23.71c4.37,2.26 8.14,3.39 11.24,3.39 6.02,0 10.58,-2.26 13.59,-6.82 3.01,-4.56 4.52,-15.29 4.52,-32.22l0 -142.43z"/>
  <polygon id="_1_1" class="fil1" points="1339.93,1251.07 1339.93,1049 1366.74,1049 1366.74,1251.07 "/>
  <path id="_2_2" class="fil1" d="M1452.81 1049l26.81 0 0 88.62c12.18,0 20.79,-2.4 25.73,-7.15 4.98,-4.75 11.28,-16.14 19,-34.2 5.6,-13.31 10.21,-22.67 13.87,-28.13 3.63,-5.5 8.8,-10.11 15.53,-13.82 6.68,-3.72 14.11,-5.6 22.2,-5.6 10.3,0 15.71,0.09 16.27,0.28l0 23.14c-0.94,0 -2.73,-0.04 -5.36,-0.14 -2.96,-0.09 -4.75,-0.14 -5.41,-0.14 -8.51,0 -14.86,2.07 -19,6.21 -4.24,4.14 -9.03,12.98 -14.49,26.48 -6.77,17.12 -12.51,27.94 -17.21,32.41 -4.66,4.42 -10.31,8 -16.8,10.68 13.03,3.57 25.92,15.66 38.62,36.17l41.63 67.26 -33.21 0 -33.91 -54.75c-9.27,-15.19 -17.03,-25.64 -23.24,-31.28 -6.26,-5.69 -14.3,-8.51 -24.22,-8.51l0 94.54 -26.81 0 0 -202.07z"/>
  <path id="_3_3" class="fil1" d="M1632.9 1251.07l77.51 -202.07 29.4 0 82.27 202.07 -30.43 0 -23.38 -61.24 -85.09 0 -21.92 61.24 -28.36 0zm58.13 -82.97l68.87 0 -21.08 -56.02c-6.35,-17.03 -11.14,-31.09 -14.48,-42.2 -2.78,13.18 -6.5,26.11 -11.15,38.9l-22.16 59.32z"/>
  <path id="_4_4" class="fil1" d="M1881.71 1251.07l0 -202.07 76.29 0c13.41,0 23.66,0.66 30.77,1.93 9.92,1.65 18.25,4.8 24.97,9.41 6.73,4.65 12.14,11.14 16.23,19.47 4.09,8.32 6.12,17.5 6.12,27.52 0,17.12 -5.46,31.65 -16.42,43.5 -10.91,11.91 -30.72,17.83 -59.31,17.83l-51.84 0 0 82.41 -26.81 0zm26.81 -106.11l52.21 0c17.31,0 29.54,-3.2 36.83,-9.65 7.25,-6.44 10.87,-15.47 10.87,-27.18 0,-8.42 -2.12,-15.67 -6.4,-21.69 -4.28,-6.02 -9.92,-10.02 -16.89,-11.95 -4.51,-1.17 -12.84,-1.78 -24.92,-1.78l-51.7 0 0 72.25z"/>
  <path id="_5_5" class="fil2 str5" d="M1126.72 1049l126.15 0 0 202.07 -26.81 0 0 -178.36 -72.53 0 0 104.09c0,21.17 -0.99,36.64 -2.96,46.47 -1.98,9.88 -6.17,17.5 -12.52,23 -6.35,5.46 -14.44,8.19 -24.17,8.19 -5.93,0 -13.03,-1.23 -21.31,-3.67l4.8 -23.71c4.37,2.26 8.14,3.39 11.24,3.39 6.02,0 10.58,-2.26 13.59,-6.82 3.01,-4.56 4.52,-15.29 4.52,-32.22l0 -142.43z"/>
  <polygon id="_6_6" class="fil2 str5" points="1339.93,1251.07 1339.93,1049 1366.74,1049 1366.74,1251.07 "/>
  <path id="_7_7" class="fil2 str5" d="M1452.81 1049l26.81 0 0 88.62c12.18,0 20.79,-2.4 25.73,-7.15 4.98,-4.75 11.28,-16.14 19,-34.2 5.6,-13.31 10.21,-22.67 13.87,-28.13 3.63,-5.5 8.8,-10.11 15.53,-13.82 6.68,-3.72 14.11,-5.6 22.2,-5.6 10.3,0 15.71,0.09 16.27,0.28l0 23.14c-0.94,0 -2.73,-0.04 -5.36,-0.14 -2.96,-0.09 -4.75,-0.14 -5.41,-0.14 -8.51,0 -14.86,2.07 -19,6.21 -4.24,4.14 -9.03,12.98 -14.49,26.48 -6.77,17.12 -12.51,27.94 -17.21,32.41 -4.66,4.42 -10.31,8 -16.8,10.68 13.03,3.57 25.92,15.66 38.62,36.17l41.63 67.26 -33.21 0 -33.91 -54.75c-9.27,-15.19 -17.03,-25.64 -23.24,-31.28 -6.26,-5.69 -14.3,-8.51 -24.22,-8.51l0 94.54 -26.81 0 0 -202.07z"/>
  <path id="_8_8" class="fil2 str5" d="M1632.9 1251.07l77.51 -202.07 29.4 0 82.27 202.07 -30.43 0 -23.38 -61.24 -85.09 0 -21.92 61.24 -28.36 0zm58.13 -82.97l68.87 0 -21.08 -56.02c-6.35,-17.03 -11.14,-31.09 -14.48,-42.2 -2.78,13.18 -6.5,26.11 -11.15,38.9l-22.16 59.32z"/>
  <path id="_9_9" class="fil2 str5" d="M1881.71 1251.07l0 -202.07 76.29 0c13.41,0 23.66,0.66 30.77,1.93 9.92,1.65 18.25,4.8 24.97,9.41 6.73,4.65 12.14,11.14 16.23,19.47 4.09,8.32 6.12,17.5 6.12,27.52 0,17.12 -5.46,31.65 -16.42,43.5 -10.91,11.91 -30.72,17.83 -59.31,17.83l-51.84 0 0 82.41 -26.81 0zm26.81 -106.11l52.21 0c17.31,0 29.54,-3.2 36.83,-9.65 7.25,-6.44 10.87,-15.47 10.87,-27.18 0,-8.42 -2.12,-15.67 -6.4,-21.69 -4.28,-6.02 -9.92,-10.02 -16.89,-11.95 -4.51,-1.17 -12.84,-1.78 -24.92,-1.78l-51.7 0 0 72.25z"/>
 </g>
</svg>
