<?xml version="1.0" encoding="UTF-8"?>
<!DOCTYPE svg PUBLIC "-//W3C//DTD SVG 1.1//EN" "http://www.w3.org/Graphics/SVG/1.1/DTD/svg11.dtd">
<!-- Creator: CorelDRAW 2019 (64-Bit) -->
<svg xmlns="http://www.w3.org/2000/svg" xml:space="preserve" width="31mm" height="31mm" version="1.1" style="shape-rendering:geometricPrecision; text-rendering:geometricPrecision; image-rendering:optimizeQuality; fill-rule:evenodd; clip-rule:evenodd"
viewBox="0 0 3100 3100"
 xmlns:xlink="http://www.w3.org/1999/xlink"
 xmlns:xodm="http://www.corel.com/coreldraw/odm/2003">
 <defs>
  <style type="text/css">
   <![CDATA[
    .str3 {stroke:#393185;stroke-width:250;stroke-miterlimit:22.9256}
    .str2 {stroke:#393185;stroke-width:25;stroke-miterlimit:22.9256}
    .str0 {stroke:#393185;stroke-width:40;stroke-linejoin:round;stroke-miterlimit:22.9256}
    .str1 {stroke:#393185;stroke-width:20;stroke-linecap:round;stroke-linejoin:round;stroke-miterlimit:22.9256}
    .fil0 {fill:none}
    .fil2 {fill:none;fill-rule:nonzero}
    .fil4 {fill:#393185}
    .fil1 {fill:#393185;fill-rule:nonzero}
    .fil3 {fill:#FEFEFE;fill-rule:nonzero}
   ]]>
  </style>
 </defs>
 <g id="Слой_x0020_1">
  <metadata id="CorelCorpID_0Corel-Layer"/>
  <g id="_1160365632">
   <path class="fil0 str0" d="M877.34 2106.67c-303.01,-338.26 -311.87,-849.18 -20.79,-1197.87 322.48,-386.3 895.45,-436.7 1279.77,-112.56 384.31,324.13 434.43,900.06 111.95,1286.36"/>
   <path class="fil1" d="M506.95 2007.36l43.04 82.94 137.79 -71.54c11.94,-6.2 18.75,-11.63 20.36,-16.3 1.65,-4.7 -0.26,-12.71 -5.67,-24.01l4.9 -2.54 39.95 76.96 -4.91 2.55c-6.08,-10.83 -11.51,-16.96 -16.33,-18.36 -4.76,-1.43 -13.14,0.98 -25.09,7.17l-114.63 59.52c-11.94,6.2 -18.72,11.67 -20.3,16.39 -1.63,4.75 0.26,12.71 5.62,23.93l-4.9 2.54 -96.21 -185.39 4.9 -2.54c6.09,10.84 11.51,16.96 16.33,18.36 4.77,1.43 13.14,-0.98 25.08,-7.17l114.64 -59.52c11.94,-6.2 18.72,-11.67 20.31,-16.4 1.63,-4.74 -0.26,-12.7 -5.63,-23.91l4.91 -2.54 39.94 76.96 -4.9 2.56c-6.08,-10.84 -11.48,-16.93 -16.23,-18.43 -4.78,-1.42 -13.14,0.98 -25.19,7.23l-137.78 71.54zm8.6 -149.6l-26.83 -36.44 -1.4 -5.47 30.79 -7.95c-13.36,-3.86 -23.29,-8.6 -29.73,-14.29 -6.43,-5.71 -10.63,-12.36 -12.6,-19.99 -3.43,-13.31 -1.09,-25.73 7.06,-37.3 9.98,-14.19 25.21,-23.91 45.7,-29.2 22.92,-5.91 43.55,-4.24 61.92,5 15.07,7.61 24.71,19.63 28.94,35.99 1.83,7.14 2.44,13.56 1.76,19.31 -0.45,4.22 -2.2,9.29 -5.31,15.26l40.5 -10.46c9.16,-2.37 14.82,-4.4 17,-6.18 2.19,-1.73 3.66,-4.2 4.43,-7.35 0.75,-3.09 0.19,-8.3 -1.68,-15.54l5.35 -1.38 17.93 69.48 -5.35 1.38 -0.95 -3.65c-1.27,-5.34 -3.43,-9.62 -6.52,-12.81 -1.57,-1.6 -3.63,-2.59 -6.25,-2.96 -2.6,-0.44 -8.77,0.62 -18.38,3.1l-126.26 32.6c-8.51,2.19 -13.81,3.99 -15.89,5.31 -2.13,1.39 -3.54,3.06 -4.24,5.04 -0.71,1.97 -0.72,4.38 0.03,7.3 0.58,2.27 2.03,5.05 4.28,8.25l-4.3 2.95zm11.18 -52.08l49.7 -12.84c10.8,-2.78 17.77,-5.05 20.92,-6.76 5.28,-2.83 9.38,-7.43 12.29,-13.74 2.9,-6.38 3.32,-13.58 1.26,-21.56 -2.5,-9.66 -8.27,-16.48 -17.38,-20.48 -11.93,-5.28 -26.85,-5.58 -44.77,-0.95 -20.35,5.25 -34.91,13.74 -43.55,25.42 -5.99,8.13 -7.85,16.43 -5.67,24.92 1.19,4.63 3.51,8.92 7.01,12.85 2.68,2.98 9.35,7.41 20.19,13.14zm-151.04 -182.16c-0.51,-4.09 0.52,-7.8 3.05,-11.09 2.58,-3.26 5.95,-5.15 10.07,-5.67 4.15,-0.52 7.93,0.5 11.24,3.01 3.36,2.55 5.27,5.91 5.79,9.99 0.51,4.15 -0.52,7.91 -3.15,11.22 -2.57,3.35 -5.99,5.25 -10.14,5.78 -4.12,0.51 -7.85,-0.51 -11.16,-3.02 -3.26,-2.57 -5.17,-5.98 -5.7,-10.22zm69.73 -21.05l109.6 -13.65c8.47,-1.07 14.03,-2.36 16.67,-3.98 2.69,-1.56 4.54,-3.64 5.61,-6.24 1.06,-2.59 1.22,-7.11 0.43,-13.54l5.48 -0.69 8.19 65.77 -5.5 0.67c-0.81,-6.56 -2.02,-10.92 -3.56,-12.98 -1.56,-2.11 -3.91,-3.62 -7.02,-4.61 -3.11,-0.96 -8.88,-0.91 -17.24,0.14l-52.67 6.56c-14.67,1.83 -24.09,3.47 -28.35,4.87 -3.07,1.1 -5.12,2.44 -6.15,4.1 -1.07,1.62 -1.44,3.72 -1.12,6.24 0.35,2.79 1.53,6.02 3.48,9.78l-5.22 2.75 -21.82 -38.67 -0.81 -6.52zm40.53 -100.18l-42.91 -2.16 0.33 -6.41c1.78,-1.69 2.69,-3.64 2.79,-5.82 0.09,-1.67 -0.49,-5.43 -1.83,-11.15 -2.25,-9.54 -3.23,-17.29 -2.92,-23.28 0.64,-13.07 4.21,-23.84 10.73,-32.32 6.54,-8.5 14.87,-12.46 24.93,-11.95 15.43,0.78 26.02,13.03 31.85,36.72 7.03,-26.91 20.53,-39.88 40.5,-38.87 10.48,0.53 19.54,5.37 27.12,14.52 7.58,9.14 10.98,22.05 10.14,38.73 -0.55,10.87 -2.98,20.38 -7.29,28.47 -4.29,8.09 -11.32,16.8 -21.07,26.05l-3.69 -4.17c13.5,-15.62 20.61,-30.65 21.34,-45.24 0.42,-8.34 -2.09,-15.29 -7.61,-20.92 -5.45,-5.62 -12.75,-8.7 -21.9,-9.16 -20.02,-1.02 -31.28,11.15 -33.79,36.52l-8.59 -0.44c0.61,-11.99 -2.16,-20.85 -8.27,-26.56 -6.16,-5.71 -12.88,-8.76 -20.23,-9.12 -6.49,-0.33 -12.29,1.73 -17.36,6.1 -5.08,4.38 -7.85,10.4 -8.23,18.08 -0.9,17.74 11.17,30.13 36.22,37.19l-0.26 5.19zm52.05 -251.35c10.69,-23.08 24.99,-32.58 42.88,-28.44 12.21,2.81 20.21,9.99 23.92,21.5 3.73,11.51 3.51,26.35 -0.67,44.45l-15.15 65.66 -5.39 -1.24c1.99,-8.58 1.59,-14.36 -1.13,-17.39 -2.76,-2.99 -9.52,-5.75 -20.34,-8.26l-71.15 -16.42c-10.55,-2.44 -16.91,-3.38 -19.05,-2.77 -2.05,0.56 -4.12,1.77 -6.12,3.6 -2.03,1.77 -3.82,6.05 -5.38,12.81l-5.37 -1.25 14.15 -61.34c2.74,-11.85 5.89,-21.2 9.41,-28.07 3.55,-6.91 8.56,-12.08 15.09,-15.54 6.52,-3.46 13.69,-4.25 21.41,-2.46 15.14,3.5 22.77,15.22 22.89,35.16zm-13.22 42.29c1.09,-4.24 1.73,-6.82 1.94,-7.71 3.08,-13.33 2.75,-23.55 -0.96,-30.67 -3.77,-7.09 -9.26,-11.49 -16.53,-13.17 -8.42,-1.94 -15.24,-0.33 -20.42,4.8 -5.18,5.18 -9.29,14.35 -12.34,27.59l-1.76 7.6 50.07 11.56zm62.38 14.4c2.67,-4.51 4.79,-10.08 6.35,-16.77 2.66,-11.56 2.09,-20.71 -1.7,-27.5 -3.73,-6.76 -9.67,-11.11 -17.63,-12.95 -8.98,-2.07 -16.68,-0.04 -23.15,6.15 -6.46,6.18 -11.17,15.69 -14.15,28.59 -0.73,3.18 -1.43,6.67 -2.08,10.39l52.36 12.09zm24.15 -187.9l-40.59 -81.46c-7.13,-2.82 -12.53,-3.58 -16.38,-2.24 -3.78,1.32 -7.02,4.97 -9.72,11.01l-5.08 -2.17 25.09 -58.68 5.07 2.16c-2.62,6.13 -3.76,10.52 -3.4,13.17 0.33,2.63 1.18,4.93 2.54,6.95 1.32,1.95 7.1,5.13 17.25,9.48l67.14 28.7c9.74,4.17 15.79,6.15 18.08,5.97 2.32,-0.23 4.65,-1.11 7.02,-2.65 2.34,-1.54 4.86,-5.5 7.6,-11.92l5.08 2.18 -26.04 60.93 -5.08 -2.18c3.24,-7.57 4.01,-13.28 2.34,-17.04 -1.72,-3.78 -7.96,-7.93 -18.72,-12.54l-59.81 -25.58 40.6 81.46c7.83,3.13 13.66,4.34 17.48,3.6 3.78,-0.77 7.14,-4.47 10.08,-11.09l5.07 2.18 -24.84 58.11 -5.09 -2.16c3.49,-8.14 4.23,-14.02 2.24,-17.58 -2.03,-3.59 -8.22,-7.57 -18.61,-12.02l-67.2 -28.72c-9.87,-4.23 -15.92,-6.2 -18.12,-5.97 -2.27,0.24 -4.54,1.1 -6.85,2.61 -2.35,1.47 -4.91,5.48 -7.68,11.98l-5.07 -2.17 26.03 -60.93 5.08 2.17c-2.62,6.13 -3.77,10.52 -3.41,13.16 0.33,2.63 1.18,4.93 2.54,6.95 1.33,1.96 7.1,5.15 17.25,9.48l58.11 24.85zm104 -124.84l-4.48 -3.24c4.83,-6.68 6.84,-12.07 6.03,-16.1 -0.84,-4.07 -6.01,-9.51 -15.5,-16.37l-59.18 -42.78c-8.7,-6.29 -14.21,-9.58 -16.41,-9.85 -2.24,-0.23 -4.67,0.08 -7.25,1.04 -2.63,0.93 -5.99,4.27 -10.14,10l-4.47 -3.24 38.8 -53.7 4.48 3.24c-3.91,5.4 -5.99,9.42 -6.21,12.09 -0.27,2.63 0.05,5.07 0.94,7.34 0.87,2.19 5.79,6.57 14.74,13.05l61.43 44.39c7.66,5.55 12.76,8.17 15.21,7.86 2.42,-0.31 6.5,-4.4 12.15,-12.19l9.45 -13.08c3.72,-5.16 5.87,-8.74 6.41,-10.8 0.54,-2.06 0.27,-3.88 -0.78,-5.46 -1.07,-1.6 -5.68,-5.32 -13.82,-11.2l-59.01 -42.66c-8.62,-6.23 -14.09,-9.49 -16.37,-9.81 -2.31,-0.3 -4.78,0.06 -7.36,1.08 -2.57,1.04 -5.91,4.33 -9.99,9.98l-4.46 -3.23 37.38 -51.73 4.46 3.24c-3.07,4.43 -4.68,8.22 -4.83,11.33 -0.15,3.09 0.57,5.75 2.25,7.89 1.63,2.2 6.12,5.94 13.41,11.2l62.9 45.49c7.01,5.05 11.66,7.36 14.01,6.99 2.31,-0.41 6.01,-4.13 11.12,-11.19l10.42 -14.44c5.55,-7.67 7.75,-12.47 6.64,-14.42 -1.16,-1.9 -5.94,-5.92 -14.36,-12l-59.71 -43.18c-8.71,-6.29 -14.21,-9.57 -16.42,-9.85 -2.23,-0.24 -4.65,0.08 -7.24,1.04 -2.63,0.93 -5.99,4.26 -10.15,10l-4.47 -3.23 38.81 -53.71 4.48 3.23c-3.97,5.49 -6.09,9.55 -6.28,12.18 -0.22,2.59 0.12,4.98 1.01,7.26 0.87,2.19 5.79,6.57 14.74,13.04l52.6 38.02c10.85,7.85 17.82,12.44 20.83,13.69 3.05,1.25 5.99,1.31 8.85,0.05 2.87,-1.26 6.45,-4.64 10.7,-10.17l35.31 25.52 -3.04 4.22c-10.45,-6.68 -20.36,-9.13 -29.67,-7.33 -9.32,1.81 -19.36,10.2 -30.13,25.12l-97.83 135.38zm136.12 -292.82c13.06,15.54 27.11,24.48 42.16,26.86 15.01,2.35 27.66,-0.81 37.91,-9.51 6.79,-5.76 11.14,-12.68 13,-20.7 1.9,-7.99 0.59,-18.08 -3.81,-30.2l5.46 -0.65c7.34,11.88 10.84,25.35 10.44,40.38 -0.4,15.02 -6.34,27.45 -17.82,37.2 -12.48,10.6 -27.34,14.82 -44.53,12.58 -17.18,-2.25 -32.78,-11.59 -46.8,-28.09 -15.15,-17.85 -22.42,-35.71 -21.78,-53.42 0.61,-17.76 7.81,-32.48 21.59,-44.17 11.63,-9.88 24.5,-14.15 38.54,-12.79 14.03,1.36 26.56,8.5 37.55,21.45l-71.91 61.06zm-5.56 -6.55l48.17 -40.9c-6.08,-6.38 -10.86,-10.44 -14.37,-12.15 -5.51,-2.64 -11.2,-3.59 -17.01,-2.81 -5.8,0.71 -10.75,2.82 -14.86,6.31 -6.29,5.34 -9.83,12.58 -10.62,21.7 -0.79,9.13 2.13,18.39 8.69,27.85zm330.32 -106.12l2.39 4.98 -78.14 37.6 -2.39 -4.98 6.47 -3.11c7.55,-3.63 11.95,-8.48 13.29,-14.51 0.75,-3.94 -1.51,-11.36 -6.79,-22.33l-57.07 -118.64c-4.45,-9.26 -8,-15.1 -10.56,-17.5 -2,-1.81 -4.78,-2.86 -8.33,-3.13 -4.99,-0.27 -9.64,0.65 -13.95,2.72l-6.46 3.11 -2.39 -4.96 78.14 -37.6 2.38 4.97 -6.55 3.16c-7.43,3.56 -11.78,8.39 -13.07,14.4 -0.84,3.98 1.38,11.42 6.66,22.39l57.07 118.64c4.45,9.26 7.99,15.11 10.55,17.5 1.96,1.85 4.78,2.88 8.44,3.1 4.89,0.31 9.44,-0.58 13.75,-2.65l6.56 -3.16zm128.97 -73.59l15.48 -109.12 44.56 -11.67 1.4 5.34c-6.55,1.71 -10.77,3.51 -12.58,5.41 -1.83,1.86 -3.08,3.92 -3.84,6.24 -0.71,2.25 0.3,8.76 3.1,19.44l18.51 70.65c2.4,9.2 4.39,14.98 6.03,17.4 1.59,2.45 4.04,3.97 7.2,4.57 3.21,0.58 7.76,0.12 13.61,-1.41l1.4 5.35 -63.49 16.64 -1.4 -5.35c7.74,-2.02 12.51,-4.85 14.39,-8.53 1.85,-3.59 1.3,-11.11 -1.66,-22.4l-20.97 -80.05 -17.53 123.45 -5.02 1.32 -76.98 -98.69 20.98 80.06c2.38,9.15 4.43,14.96 6.07,17.38 1.69,2.42 4.07,3.9 7.25,4.56 3.14,0.6 7.67,0.15 13.52,-1.39l1.4 5.35 -50.5 13.24 -1.4 -5.35c8.55,-2.25 13.67,-5.27 15.26,-9.01 1.59,-3.81 0.92,-11.14 -1.94,-22.08l-18.51 -70.64c-2.72,-10.4 -4.89,-16.43 -6.41,-18.05 -1.58,-1.59 -3.66,-2.9 -6.26,-3.81 -2.61,-0.94 -7.34,-0.51 -14.18,1.29l-1.39 -5.35 46.21 -12.11 67.69 87.32zm155.73 -111.77l-11.21 -43.71c-3.17,-12.09 -4.88,-20.28 -5.16,-24.57 -0.42,-6.38 0.61,-11.05 3,-14.14 2.4,-3.07 5.87,-4.73 10.39,-5.03 4.46,-0.29 8.32,0.94 11.45,3.67 3.15,2.75 4.87,6.54 5.17,11.29 0.24,3.73 -0.43,12.84 -2.08,27.46l-5.15 44.61 -6.41 0.42zm214.54 -17.06l-0.19 5.51c-6.16,-0.21 -10.77,0.49 -13.77,2.08 -2.97,1.63 -4.98,3.71 -5.97,6.29 -0.97,2.57 -1.63,8.44 -1.95,17.59l-2.58 72.98c-0.31,8.69 -0.1,14.43 0.56,17.22 0.72,2.79 2.56,5.11 5.55,7.01 2.95,1.89 7.54,2.97 13.7,3.19l-0.2 5.52 -66.2 -2.33 0.19 -5.53c8.23,0.29 13.84,-1.05 16.74,-3.96 2.9,-2.97 4.54,-10.28 4.95,-21.99l1.05 -29.9 -6.17 -0.07c-0.85,-0.03 -2.47,-0.13 -4.76,-0.32l-45.87 60.57 -33.72 -1.2 0.18 -5.52c5,0.17 8.48,-0.36 10.46,-1.67 1.98,-1.27 5.69,-5.59 11.24,-12.92l33.49 -44.21c-22.54,-8.77 -33.56,-21.44 -32.97,-37.9 0.33,-9.31 4.73,-17.24 13.15,-23.8 8.44,-6.55 22.59,-9.49 42.38,-8.79l60.71 2.15zm-45.86 9.84c-3.83,-1.21 -7.46,-1.9 -10.92,-2.02 -10.03,-0.36 -17.59,1.87 -22.75,6.67 -5.1,4.83 -7.82,10.67 -8.06,17.57 -0.31,8.8 2.95,16.17 9.81,22.2 6.81,6.02 15.56,9.24 26.28,9.62 1.08,0.04 2.35,-0.01 3.73,-0.17l1.91 -53.87zm389.46 28.71l-86.93 -34.23 -56.86 144.49c-4.93,12.52 -6.49,21.08 -4.63,25.66 1.85,4.63 8.55,9.41 20.04,14.37l-2.02 5.15 -80.69 -31.77 2.03 -5.14c11.7,4.17 19.82,5.22 24.37,3.12 4.54,-2.06 9.27,-9.38 14.21,-21.91l47.3 -120.22c4.93,-12.5 6.44,-21.09 4.53,-25.69 -1.89,-4.64 -8.56,-9.41 -19.95,-14.34l2.02 -5.14 194.31 76.5 -2.01 5.13c-11.7,-4.15 -19.82,-5.21 -24.37,-3.09 -4.53,2.06 -9.27,9.38 -14.2,21.88l-47.3 120.22c-4.94,12.53 -6.44,21.11 -4.54,25.7 1.89,4.65 8.55,9.42 19.95,14.33l-2.02 5.15 -80.68 -31.76 2.02 -5.15c11.7,4.17 19.78,5.21 24.34,3.21 4.52,-2.07 9.26,-9.37 14.22,-21.99l56.86 -144.48zm166.29 152.34c16.81,12.1 25.68,28.19 26.62,48.33 0.78,17.13 -3.93,32.82 -14.15,47.03 -7.17,9.97 -16.81,18.33 -28.91,25.13 -12.1,6.79 -24.21,9.79 -36.28,8.98 -12.13,-0.84 -23.27,-4.95 -33.52,-12.32 -16.72,-12.04 -25.22,-28.28 -25.44,-48.74 -0.18,-17.26 4.72,-32.89 14.81,-46.92 7.35,-10.21 17.18,-18.58 29.48,-25.03 12.3,-6.48 24.32,-9.16 36.05,-8.04 11.68,1.11 22.13,4.96 31.34,11.58zm-9.48 5.28c-4.26,-3.06 -9.48,-4.87 -15.65,-5.45 -6.14,-0.52 -12.86,1.39 -20.09,5.88 -7.28,4.47 -14.52,11.75 -21.75,21.8 -11.63,16.19 -18.45,32.45 -20.49,48.81 -2.04,16.35 2.21,28.3 12.7,35.85 7.81,5.62 16.58,7.02 26.32,4.19 9.74,-2.82 20.29,-12.1 31.63,-27.88 14.23,-19.77 21.14,-38.35 20.82,-55.79 -0.12,-11.86 -4.62,-21.03 -13.49,-27.41zm170.52 193.68c29.41,-9.84 52.9,-4.33 70.36,16.43 12.24,14.56 16.75,31.05 13.63,49.5 -3.15,18.42 -11.75,33.56 -25.84,45.41 -14.5,12.22 -31.62,18.64 -51.42,19.26 -19.71,0.62 -36.34,-7.06 -49.77,-23.04 -13.72,-16.31 -17.37,-34.4 -11,-54.32 6.38,-19.92 19.28,-38.09 38.73,-54.45 15.11,-12.71 31.09,-22.38 47.87,-28.97 16.85,-6.6 30.53,-10.19 41.07,-10.75 10.6,-0.6 20.07,1.07 28.46,4.98 8.34,3.89 19.41,13.88 33.23,29.97 9.95,11.52 16.21,18.28 18.79,20.31 2.62,1.99 6.08,3 10.5,3.08l3.73 4.44c-9.7,3.83 -17.64,5.33 -23.9,4.48 -6.27,-0.86 -11.68,-2.83 -16.25,-6.04 -4.6,-3.17 -11.46,-9.89 -20.69,-20.23 -9.93,-11.18 -17.41,-18.32 -22.47,-21.57 -5.09,-3.18 -12.36,-4.84 -21.72,-5.01 -9.44,-0.17 -19.64,2.16 -30.68,6.91 -10.99,4.8 -21.89,11.31 -32.63,19.61zm59.47 19.21c-6.46,-7.67 -14.87,-11.24 -25.34,-10.82 -10.47,0.51 -22.52,6.44 -36.09,17.87 -18.43,15.5 -29.65,30.53 -33.59,45.08 -3.98,14.58 -2.31,26.16 4.93,34.77 6.66,7.94 15.24,11.38 25.68,10.37 10.44,-1 22.91,-7.63 37.43,-19.85 15.46,-13 25.81,-26.76 31.05,-41.35 5.24,-14.58 3.88,-26.61 -4.07,-36.07zm28.24 245.85c-16.21,-7.17 -25.97,-11.93 -29.16,-14.32 -4.73,-3.52 -8.56,-7.94 -11.42,-13.27 -4.49,-8.34 -5.28,-16.75 -2.46,-25.2 2.84,-8.45 8.92,-15.19 18.25,-20.19 5.89,-3.17 11.74,-4.63 17.43,-4.29 7.91,0.36 16.9,3.57 26.98,9.6 10.06,6.09 24.43,17.38 43.09,33.99l4.73 -2.55c12.03,-6.46 19.27,-12.77 21.72,-19.01 2.41,-6.2 1.71,-12.93 -2.2,-20.19 -2.94,-5.47 -6.78,-9.07 -11.53,-10.67 -4.76,-1.72 -9.07,-1.54 -12.94,0.54l-7.52 4.38c-4.05,2.17 -7.76,2.85 -11.08,1.97 -3.31,-0.88 -5.85,-3.03 -7.64,-6.36 -1.76,-3.27 -2.08,-6.55 -0.89,-9.86 1.19,-3.29 3.79,-6.02 7.75,-8.15 7.58,-4.06 16.63,-3.96 27.12,0.34 10.49,4.29 19.48,13.46 26.96,27.4 5.75,10.71 8.65,20.43 8.73,29.22 0.06,6.6 -2.17,12.71 -6.66,18.31 -2.88,3.58 -10.21,8.54 -21.88,14.82l-40.99 22.01c-11.49,6.18 -18.44,10.2 -20.77,12.03 -2.37,1.85 -3.69,3.49 -4.07,4.96 -0.31,1.49 -0.12,2.9 0.58,4.2 0.77,1.43 1.73,2.48 2.89,3.24 2.16,1.21 7.27,3.02 15.38,5.49l-7.4 3.97c-18.58,-2.73 -30.25,-8.58 -35.08,-17.55 -2.3,-4.3 -2.66,-8.56 -1.07,-12.71 1.64,-4.18 6.04,-8.21 13.15,-12.15zm8.6 -4.62l46 -24.72c-12.42,-10.48 -20.76,-17.03 -25.06,-19.75 -7.6,-4.86 -14.29,-7.69 -20.14,-8.42 -5.84,-0.72 -11.23,0.26 -16.23,2.95 -6.35,3.41 -10.57,8.1 -12.71,14.16 -2.17,6.03 -1.88,11.53 0.77,16.46 3.58,6.69 12.71,13.09 27.37,19.32zm143.2 50.3l35.2 112.81 -33.68 16.74 -1.98 -6.4c6.78,-3.35 11.68,-7.02 14.72,-10.84 3.06,-3.89 4.72,-7.71 4.86,-11.54 0.15,-3.79 -1.02,-9.82 -3.6,-18.06l-3.56 -11.43 -91.09 28.44c-9.71,3.02 -15.73,5.54 -18,7.54 -2.26,2.03 -3.37,4.46 -3.42,7.4 -0.01,2.89 1.29,9.15 3.95,18.65l-5.28 1.66 -22.1 -70.83 5.27 -1.65c3.05,9.07 6.34,14.49 9.94,16.25 3.61,1.75 10.99,0.89 22.28,-2.64l91.09 -28.42 -3.65 -11.67c-2.55,-8.16 -4.78,-13.6 -6.71,-16.2 -1.91,-2.65 -5.17,-4.71 -9.79,-6.27 -4.54,-1.56 -11.12,-2.02 -19.57,-1.46l-2 -6.41 37.12 -5.67zm-1 237.52l2.89 16.7c6.18,39.94 -3.17,61.83 -28.02,65.67 -11.58,1.79 -21.58,-1.66 -30.02,-10.34 -8.48,-8.68 -14.15,-22.22 -16.98,-40.58l-10.02 -64.78 5.46 -0.84c1.36,8.75 3.84,14.13 7.39,16.1 3.63,1.97 10.99,2.07 22.16,0.34l72.16 -11.16c10.62,-1.65 16.84,-3.18 18.6,-4.54 1.75,-1.4 3.27,-3.33 4.43,-5.83 1.22,-2.51 1.26,-7.25 0.18,-14.23l5.45 -0.85 10.93 70.61 -5.46 0.84c-1.49,-9.65 -2.98,-15.56 -4.47,-17.59 -1.52,-2.09 -3.28,-3.71 -5.33,-4.89 -2.09,-1.17 -8.93,-0.89 -20.55,0.91l-28.8 4.46zm-63.43 9.81c-0.55,5.39 -0.46,10.68 0.34,15.86 1.52,9.81 5.36,17.35 11.52,22.68 6.2,5.27 13.29,7.32 21.28,6.08 18.96,-2.93 26.39,-17.47 22.35,-43.57 -0.35,-2.26 -0.9,-5.37 -1.61,-9.39l-53.88 8.34zm-2.14 272.05l1.42 -40.23c18.72,-11.87 37.87,-22.5 57.4,-32 4.53,-2.23 7.87,-4.25 10.08,-6.12 2.22,-1.85 3.39,-4.45 3.51,-7.86 0.04,-1.18 0,-3.06 -0.11,-5.66l-36.79 -1.3c-9.93,-0.34 -16.23,-0.01 -19.02,1.07 -2.8,1.02 -4.82,2.98 -6.15,5.94 -1.28,2.91 -2.06,7.93 -2.31,14.95l-5.52 -0.19 2.39 -68.36 5.53 0.19c-0.31,8.84 1.12,14.6 4.25,17.2 3.18,2.61 10.4,4.09 21.7,4.49l72.97 2.57c10.74,0.38 17.15,0.03 19.12,-0.97 1.97,-1.04 3.83,-2.66 5.44,-4.9 1.66,-2.23 2.6,-6.88 2.85,-13.94l5.51 0.19 -2.4 68.35 -5.52 -0.19c0.29,-8.24 -0.14,-13.35 -1.25,-15.33 -1.16,-1.97 -2.58,-3.75 -4.26,-5.39 -1.73,-1.64 -8.5,-2.69 -20.35,-3.11l-26.99 -0.95c-0.28,2.28 -0.44,3.81 -0.47,4.62 -0.21,6.06 1.32,11.81 4.56,17.22 3.24,5.46 10.37,10.45 21.43,15.01 10.43,4.24 17.43,7.7 21.02,10.36 3.64,2.68 6.48,6.3 8.67,10.91 2.2,4.61 3.21,9.37 3.04,14.31 -0.2,5.38 -1.63,9.62 -4.34,12.68 -2.73,3.11 -6.21,4.56 -10.4,4.42 -3.47,-0.13 -6.39,-1.34 -8.75,-3.71 -2.38,-2.38 -3.49,-5.64 -3.36,-9.7 0.08,-2.19 0.78,-4.86 2.13,-8.13 1.69,-4.11 2.55,-7.24 2.63,-9.43 0.16,-4.57 -3.64,-8.47 -11.45,-11.76 -8.92,-3.67 -14.67,-6.36 -17.22,-8.03 -2.59,-1.72 -5.97,-4.85 -10.21,-9.48 -1.02,3.02 -3.49,6.3 -7.35,9.82 -3.86,3.48 -14.68,9.83 -32.4,19.08 -14.16,7.35 -23.23,12.94 -27.2,16.71 -3.97,3.79 -6.15,9.41 -6.62,16.83l-5.21 -0.18zm118.59 130.61c-4.64,20.19 -16.04,34.59 -34.24,43.25 -15.49,7.35 -31.8,9.08 -48.83,5.15 -11.97,-2.74 -23.42,-8.41 -34.37,-16.93 -10.93,-8.53 -18.39,-18.55 -22.32,-29.99 -3.92,-11.51 -4.43,-23.38 -1.61,-35.68 4.63,-20.08 16.32,-34.21 35.08,-42.33 15.84,-6.85 32.16,-8.37 49,-4.5 12.25,2.82 23.77,8.66 34.49,17.51 10.71,8.83 17.85,18.87 21.34,30.13 3.52,11.21 4,22.33 1.46,33.39zm-8.53 -6.71c1.17,-5.11 0.82,-10.63 -1.03,-16.54 -1.91,-5.86 -6.26,-11.32 -13.21,-16.25 -6.93,-4.98 -16.43,-8.84 -28.5,-11.62 -19.42,-4.47 -37.06,-4.46 -52.94,-0.02 -15.86,4.45 -25.23,13 -28.13,25.6 -2.14,9.38 -0.04,18 6.32,25.89 6.37,7.89 19.01,14.04 37.96,18.4 23.72,5.45 43.53,4.64 59.48,-2.41 10.89,-4.7 17.6,-12.4 20.05,-23.05zm-129.5 203.22c-14.96,20.56 -30.84,27.1 -47.58,19.57 -11.43,-5.14 -17.88,-13.74 -19.27,-25.75 -1.44,-12.03 1.66,-26.53 9.29,-43.48l27.62 -61.45 5.04 2.26c-3.6,8.03 -4.35,13.79 -2.28,17.28 2.13,3.47 8.23,7.5 18.36,12.06l66.6 29.94c9.88,4.45 15.93,6.61 18.14,6.43 2.13,-0.16 4.38,-0.93 6.7,-2.35 2.35,-1.33 4.92,-5.19 7.77,-11.51l5.03 2.26 -25.8 57.42c-5,11.1 -9.91,19.65 -14.7,25.7 -4.81,6.1 -10.74,10.18 -17.81,12.31 -7.06,2.12 -14.24,1.5 -21.48,-1.74 -14.18,-6.38 -19.38,-19.36 -15.63,-38.95zm21.2 -38.91c-1.9,3.95 -3.03,6.35 -3.41,7.19 -5.6,12.48 -7.27,22.56 -5.01,30.27 2.32,7.69 6.84,13.06 13.65,16.13 7.89,3.54 14.89,3.29 20.96,-0.73 6.1,-4.08 11.91,-12.27 17.48,-24.67l3.19 -7.11 -46.86 -21.08zm-58.4 -26.25c-3.49,3.91 -6.66,8.95 -9.47,15.21 -4.86,10.82 -6.1,19.91 -3.69,27.3 2.34,7.36 7.31,12.79 14.78,16.14 8.39,3.77 16.35,3.28 23.89,-1.53 7.56,-4.81 14.02,-13.23 19.44,-25.29 1.35,-2.98 2.71,-6.26 4.06,-9.79l-49.01 -22.04zm87.42 265.53c-2.25,3.46 -5.44,5.63 -9.49,6.51 -4.07,0.81 -7.86,0.09 -11.34,-2.17 -3.52,-2.29 -5.75,-5.5 -6.65,-9.55 -0.93,-4.13 -0.21,-7.92 2.04,-11.38 2.28,-3.5 5.48,-5.71 9.62,-6.53 4.14,-0.9 7.98,-0.16 11.48,2.13 3.48,2.27 5.68,5.46 6.57,9.51 0.84,4.06 0.09,7.9 -2.23,11.48zm-66.85 -28.92l-92.54 -60.31c-7.16,-4.67 -12.23,-7.26 -15.28,-7.74 -3.08,-0.54 -5.84,-0.14 -8.32,1.15 -2.49,1.3 -5.53,4.65 -9.07,10.08l-4.62 -3.02 36.16 -55.52 4.64 3.02c-3.62,5.54 -5.51,9.64 -5.64,12.23 -0.18,2.61 0.63,5.28 2.37,8.05 1.76,2.72 6.2,6.41 13.26,11.01l44.49 28.99c12.36,8.07 20.63,12.9 24.78,14.58 3.06,1.14 5.48,1.45 7.34,0.84 1.87,-0.54 3.5,-1.92 4.9,-4.04 1.52,-2.35 2.7,-5.59 3.64,-9.73l5.76 1.28 -8.28 43.62 -3.59 5.51z"/>
   <path id="_1" class="fil2 str1" d="M506.95 2007.36l43.04 82.94 137.79 -71.54c11.94,-6.2 18.75,-11.63 20.36,-16.3 1.65,-4.7 -0.26,-12.71 -5.67,-24.01l4.9 -2.54 39.95 76.96 -4.91 2.55c-6.08,-10.83 -11.51,-16.96 -16.33,-18.36 -4.76,-1.43 -13.14,0.98 -25.09,7.17l-114.63 59.52c-11.94,6.2 -18.72,11.67 -20.3,16.39 -1.63,4.75 0.26,12.71 5.62,23.93l-4.9 2.54 -96.21 -185.39 4.9 -2.54c6.09,10.84 11.51,16.96 16.33,18.36 4.77,1.43 13.14,-0.98 25.08,-7.17l114.64 -59.52c11.94,-6.2 18.72,-11.67 20.31,-16.4 1.63,-4.74 -0.26,-12.7 -5.63,-23.91l4.91 -2.54 39.94 76.96 -4.9 2.56c-6.08,-10.84 -11.48,-16.93 -16.23,-18.43 -4.78,-1.42 -13.14,0.98 -25.19,7.23l-137.78 71.54zm8.6 -149.6l-26.83 -36.44 -1.4 -5.47 30.79 -7.95c-13.36,-3.86 -23.29,-8.6 -29.73,-14.29 -6.43,-5.71 -10.63,-12.36 -12.6,-19.99 -3.43,-13.31 -1.09,-25.73 7.06,-37.3 9.98,-14.19 25.21,-23.91 45.7,-29.2 22.92,-5.91 43.55,-4.24 61.92,5 15.07,7.61 24.71,19.63 28.94,35.99 1.83,7.14 2.44,13.56 1.76,19.31 -0.45,4.22 -2.2,9.29 -5.31,15.26l40.5 -10.46c9.16,-2.37 14.82,-4.4 17,-6.18 2.19,-1.73 3.66,-4.2 4.43,-7.35 0.75,-3.09 0.19,-8.3 -1.68,-15.54l5.35 -1.38 17.93 69.48 -5.35 1.38 -0.95 -3.65c-1.27,-5.34 -3.43,-9.62 -6.52,-12.81 -1.57,-1.6 -3.63,-2.59 -6.25,-2.96 -2.6,-0.44 -8.77,0.62 -18.38,3.1l-126.26 32.6c-8.51,2.19 -13.81,3.99 -15.89,5.31 -2.13,1.39 -3.54,3.06 -4.24,5.04 -0.71,1.97 -0.72,4.38 0.03,7.3 0.58,2.27 2.03,5.05 4.28,8.25l-4.3 2.95zm11.18 -52.08l49.7 -12.84c10.8,-2.78 17.77,-5.05 20.92,-6.76 5.28,-2.83 9.38,-7.43 12.29,-13.74 2.9,-6.38 3.32,-13.58 1.26,-21.56 -2.5,-9.66 -8.27,-16.48 -17.38,-20.48 -11.93,-5.28 -26.85,-5.58 -44.77,-0.95 -20.35,5.25 -34.91,13.74 -43.55,25.42 -5.99,8.13 -7.85,16.43 -5.67,24.92 1.19,4.63 3.51,8.92 7.01,12.85 2.68,2.98 9.35,7.41 20.19,13.14zm-151.04 -182.16c-0.51,-4.09 0.52,-7.8 3.05,-11.09 2.58,-3.26 5.95,-5.15 10.07,-5.67 4.15,-0.52 7.93,0.5 11.24,3.01 3.36,2.55 5.27,5.91 5.79,9.99 0.51,4.15 -0.52,7.91 -3.15,11.22 -2.57,3.35 -5.99,5.25 -10.14,5.78 -4.12,0.51 -7.85,-0.51 -11.16,-3.02 -3.26,-2.57 -5.17,-5.98 -5.7,-10.22zm69.73 -21.05l109.6 -13.65c8.47,-1.07 14.03,-2.36 16.67,-3.98 2.69,-1.56 4.54,-3.64 5.61,-6.24 1.06,-2.59 1.22,-7.11 0.43,-13.54l5.48 -0.69 8.19 65.77 -5.5 0.67c-0.81,-6.56 -2.02,-10.92 -3.56,-12.98 -1.56,-2.11 -3.91,-3.62 -7.02,-4.61 -3.11,-0.96 -8.88,-0.91 -17.24,0.14l-52.67 6.56c-14.67,1.83 -24.09,3.47 -28.35,4.87 -3.07,1.1 -5.12,2.44 -6.15,4.1 -1.07,1.62 -1.44,3.72 -1.12,6.24 0.35,2.79 1.53,6.02 3.48,9.78l-5.22 2.75 -21.82 -38.67 -0.81 -6.52zm40.53 -100.18l-42.91 -2.16 0.33 -6.41c1.78,-1.69 2.69,-3.64 2.79,-5.82 0.09,-1.67 -0.49,-5.43 -1.83,-11.15 -2.25,-9.54 -3.23,-17.29 -2.92,-23.28 0.64,-13.07 4.21,-23.84 10.73,-32.32 6.54,-8.5 14.87,-12.46 24.93,-11.95 15.43,0.78 26.02,13.03 31.85,36.72 7.03,-26.91 20.53,-39.88 40.5,-38.87 10.48,0.53 19.54,5.37 27.12,14.52 7.58,9.14 10.98,22.05 10.14,38.73 -0.55,10.87 -2.98,20.38 -7.29,28.47 -4.29,8.09 -11.32,16.8 -21.07,26.05l-3.69 -4.17c13.5,-15.62 20.61,-30.65 21.34,-45.24 0.42,-8.34 -2.09,-15.29 -7.61,-20.92 -5.45,-5.62 -12.75,-8.7 -21.9,-9.16 -20.02,-1.02 -31.28,11.15 -33.79,36.52l-8.59 -0.44c0.61,-11.99 -2.16,-20.85 -8.27,-26.56 -6.16,-5.71 -12.88,-8.76 -20.23,-9.12 -6.49,-0.33 -12.29,1.73 -17.36,6.1 -5.08,4.38 -7.85,10.4 -8.23,18.08 -0.9,17.74 11.17,30.13 36.22,37.19l-0.26 5.19zm52.05 -251.35c10.69,-23.08 24.99,-32.58 42.88,-28.44 12.21,2.81 20.21,9.99 23.92,21.5 3.73,11.51 3.51,26.35 -0.67,44.45l-15.15 65.66 -5.39 -1.24c1.99,-8.58 1.59,-14.36 -1.13,-17.39 -2.76,-2.99 -9.52,-5.75 -20.34,-8.26l-71.15 -16.42c-10.55,-2.44 -16.91,-3.38 -19.05,-2.77 -2.05,0.56 -4.12,1.77 -6.12,3.6 -2.03,1.77 -3.82,6.05 -5.38,12.81l-5.37 -1.25 14.15 -61.34c2.74,-11.85 5.89,-21.2 9.41,-28.07 3.55,-6.91 8.56,-12.08 15.09,-15.54 6.52,-3.46 13.69,-4.25 21.41,-2.46 15.14,3.5 22.77,15.22 22.89,35.16zm-13.22 42.29c1.09,-4.24 1.73,-6.82 1.94,-7.71 3.08,-13.33 2.75,-23.55 -0.96,-30.67 -3.77,-7.09 -9.26,-11.49 -16.53,-13.17 -8.42,-1.94 -15.24,-0.33 -20.42,4.8 -5.18,5.18 -9.29,14.35 -12.34,27.59l-1.76 7.6 50.07 11.56zm62.38 14.4c2.67,-4.51 4.79,-10.08 6.35,-16.77 2.66,-11.56 2.09,-20.71 -1.7,-27.5 -3.73,-6.76 -9.67,-11.11 -17.63,-12.95 -8.98,-2.07 -16.68,-0.04 -23.15,6.15 -6.46,6.18 -11.17,15.69 -14.15,28.59 -0.73,3.18 -1.43,6.67 -2.08,10.39l52.36 12.09zm24.15 -187.9l-40.59 -81.46c-7.13,-2.82 -12.53,-3.58 -16.38,-2.24 -3.78,1.32 -7.02,4.97 -9.72,11.01l-5.08 -2.17 25.09 -58.68 5.07 2.16c-2.62,6.13 -3.76,10.52 -3.4,13.17 0.33,2.63 1.18,4.93 2.54,6.95 1.32,1.95 7.1,5.13 17.25,9.48l67.14 28.7c9.74,4.17 15.79,6.15 18.08,5.97 2.32,-0.23 4.65,-1.11 7.02,-2.65 2.34,-1.54 4.86,-5.5 7.6,-11.92l5.08 2.18 -26.04 60.93 -5.08 -2.18c3.24,-7.57 4.01,-13.28 2.34,-17.04 -1.72,-3.78 -7.96,-7.93 -18.72,-12.54l-59.81 -25.58 40.6 81.46c7.83,3.13 13.66,4.34 17.48,3.6 3.78,-0.77 7.14,-4.47 10.08,-11.09l5.07 2.18 -24.84 58.11 -5.09 -2.16c3.49,-8.14 4.23,-14.02 2.24,-17.58 -2.03,-3.59 -8.22,-7.57 -18.61,-12.02l-67.2 -28.72c-9.87,-4.23 -15.92,-6.2 -18.12,-5.97 -2.27,0.24 -4.54,1.1 -6.85,2.61 -2.35,1.47 -4.91,5.48 -7.68,11.98l-5.07 -2.17 26.03 -60.93 5.08 2.17c-2.62,6.13 -3.77,10.52 -3.41,13.16 0.33,2.63 1.18,4.93 2.54,6.95 1.33,1.96 7.1,5.15 17.25,9.48l58.11 24.85zm104 -124.84l-4.48 -3.24c4.83,-6.68 6.84,-12.07 6.03,-16.1 -0.84,-4.07 -6.01,-9.51 -15.5,-16.37l-59.18 -42.78c-8.7,-6.29 -14.21,-9.58 -16.41,-9.85 -2.24,-0.23 -4.67,0.08 -7.25,1.04 -2.63,0.93 -5.99,4.27 -10.14,10l-4.47 -3.24 38.8 -53.7 4.48 3.24c-3.91,5.4 -5.99,9.42 -6.21,12.09 -0.27,2.63 0.05,5.07 0.94,7.34 0.87,2.19 5.79,6.57 14.74,13.05l61.43 44.39c7.66,5.55 12.76,8.17 15.21,7.86 2.42,-0.31 6.5,-4.4 12.15,-12.19l9.45 -13.08c3.72,-5.16 5.87,-8.74 6.41,-10.8 0.54,-2.06 0.27,-3.88 -0.78,-5.46 -1.07,-1.6 -5.68,-5.32 -13.82,-11.2l-59.01 -42.66c-8.62,-6.23 -14.09,-9.49 -16.37,-9.81 -2.31,-0.3 -4.78,0.06 -7.36,1.08 -2.57,1.04 -5.91,4.33 -9.99,9.98l-4.46 -3.23 37.38 -51.73 4.46 3.24c-3.07,4.43 -4.68,8.22 -4.83,11.33 -0.15,3.09 0.57,5.75 2.25,7.89 1.63,2.2 6.12,5.94 13.41,11.2l62.9 45.49c7.01,5.05 11.66,7.36 14.01,6.99 2.31,-0.41 6.01,-4.13 11.12,-11.19l10.42 -14.44c5.55,-7.67 7.75,-12.47 6.64,-14.42 -1.16,-1.9 -5.94,-5.92 -14.36,-12l-59.71 -43.18c-8.71,-6.29 -14.21,-9.57 -16.42,-9.85 -2.23,-0.24 -4.65,0.08 -7.24,1.04 -2.63,0.93 -5.99,4.26 -10.15,10l-4.47 -3.23 38.81 -53.71 4.48 3.23c-3.97,5.49 -6.09,9.55 -6.28,12.18 -0.22,2.59 0.12,4.98 1.01,7.26 0.87,2.19 5.79,6.57 14.74,13.04l52.6 38.02c10.85,7.85 17.82,12.44 20.83,13.69 3.05,1.25 5.99,1.31 8.85,0.05 2.87,-1.26 6.45,-4.64 10.7,-10.17l35.31 25.52 -3.04 4.22c-10.45,-6.68 -20.36,-9.13 -29.67,-7.33 -9.32,1.81 -19.36,10.2 -30.13,25.12l-97.83 135.38zm136.12 -292.82c13.06,15.54 27.11,24.48 42.16,26.86 15.01,2.35 27.66,-0.81 37.91,-9.51 6.79,-5.76 11.14,-12.68 13,-20.7 1.9,-7.99 0.59,-18.08 -3.81,-30.2l5.46 -0.65c7.34,11.88 10.84,25.35 10.44,40.38 -0.4,15.02 -6.34,27.45 -17.82,37.2 -12.48,10.6 -27.34,14.82 -44.53,12.58 -17.18,-2.25 -32.78,-11.59 -46.8,-28.09 -15.15,-17.85 -22.42,-35.71 -21.78,-53.42 0.61,-17.76 7.81,-32.48 21.59,-44.17 11.63,-9.88 24.5,-14.15 38.54,-12.79 14.03,1.36 26.56,8.5 37.55,21.45l-71.91 61.06zm-5.56 -6.55l48.17 -40.9c-6.08,-6.38 -10.86,-10.44 -14.37,-12.15 -5.51,-2.64 -11.2,-3.59 -17.01,-2.81 -5.8,0.71 -10.75,2.82 -14.86,6.31 -6.29,5.34 -9.83,12.58 -10.62,21.7 -0.79,9.13 2.13,18.39 8.69,27.85zm330.32 -106.12l2.39 4.98 -78.14 37.6 -2.39 -4.98 6.47 -3.11c7.55,-3.63 11.95,-8.48 13.29,-14.51 0.75,-3.94 -1.51,-11.36 -6.79,-22.33l-57.07 -118.64c-4.45,-9.26 -8,-15.1 -10.56,-17.5 -2,-1.81 -4.78,-2.86 -8.33,-3.13 -4.99,-0.27 -9.64,0.65 -13.95,2.72l-6.46 3.11 -2.39 -4.96 78.14 -37.6 2.38 4.97 -6.55 3.16c-7.43,3.56 -11.78,8.39 -13.07,14.4 -0.84,3.98 1.38,11.42 6.66,22.39l57.07 118.64c4.45,9.26 7.99,15.11 10.55,17.5 1.96,1.85 4.78,2.88 8.44,3.1 4.89,0.31 9.44,-0.58 13.75,-2.65l6.56 -3.16zm128.97 -73.59l15.48 -109.12 44.56 -11.67 1.4 5.34c-6.55,1.71 -10.77,3.51 -12.58,5.41 -1.83,1.86 -3.08,3.92 -3.84,6.24 -0.71,2.25 0.3,8.76 3.1,19.44l18.51 70.65c2.4,9.2 4.39,14.98 6.03,17.4 1.59,2.45 4.04,3.97 7.2,4.57 3.21,0.58 7.76,0.12 13.61,-1.41l1.4 5.35 -63.49 16.64 -1.4 -5.35c7.74,-2.02 12.51,-4.85 14.39,-8.53 1.85,-3.59 1.3,-11.11 -1.66,-22.4l-20.97 -80.05 -17.53 123.45 -5.02 1.32 -76.98 -98.69 20.98 80.06c2.38,9.15 4.43,14.96 6.07,17.38 1.69,2.42 4.07,3.9 7.25,4.56 3.14,0.6 7.67,0.15 13.52,-1.39l1.4 5.35 -50.5 13.24 -1.4 -5.35c8.55,-2.25 13.67,-5.27 15.26,-9.01 1.59,-3.81 0.92,-11.14 -1.94,-22.08l-18.51 -70.64c-2.72,-10.4 -4.89,-16.43 -6.41,-18.05 -1.58,-1.59 -3.66,-2.9 -6.26,-3.81 -2.61,-0.94 -7.34,-0.51 -14.18,1.29l-1.39 -5.35 46.21 -12.11 67.69 87.32zm155.73 -111.77l-11.21 -43.71c-3.17,-12.09 -4.88,-20.28 -5.16,-24.57 -0.42,-6.38 0.61,-11.05 3,-14.14 2.4,-3.07 5.87,-4.73 10.39,-5.03 4.46,-0.29 8.32,0.94 11.45,3.67 3.15,2.75 4.87,6.54 5.17,11.29 0.24,3.73 -0.43,12.84 -2.08,27.46l-5.15 44.61 -6.41 0.42zm214.54 -17.06l-0.19 5.51c-6.16,-0.21 -10.77,0.49 -13.77,2.08 -2.97,1.63 -4.98,3.71 -5.97,6.29 -0.97,2.57 -1.63,8.44 -1.95,17.59l-2.58 72.98c-0.31,8.69 -0.1,14.43 0.56,17.22 0.72,2.79 2.56,5.11 5.55,7.01 2.95,1.89 7.54,2.97 13.7,3.19l-0.2 5.52 -66.2 -2.33 0.19 -5.53c8.23,0.29 13.84,-1.05 16.74,-3.96 2.9,-2.97 4.54,-10.28 4.95,-21.99l1.05 -29.9 -6.17 -0.07c-0.85,-0.03 -2.47,-0.13 -4.76,-0.32l-45.87 60.57 -33.72 -1.2 0.18 -5.52c5,0.17 8.48,-0.36 10.46,-1.67 1.98,-1.27 5.69,-5.59 11.24,-12.92l33.49 -44.21c-22.54,-8.77 -33.56,-21.44 -32.97,-37.9 0.33,-9.31 4.73,-17.24 13.15,-23.8 8.44,-6.55 22.59,-9.49 42.38,-8.79l60.71 2.15zm-45.86 9.84c-3.83,-1.21 -7.46,-1.9 -10.92,-2.02 -10.03,-0.36 -17.59,1.87 -22.75,6.67 -5.1,4.83 -7.82,10.67 -8.06,17.57 -0.31,8.8 2.95,16.17 9.81,22.2 6.81,6.02 15.56,9.24 26.28,9.62 1.08,0.04 2.35,-0.01 3.73,-0.17l1.91 -53.87zm389.46 28.71l-86.93 -34.23 -56.86 144.49c-4.93,12.52 -6.49,21.08 -4.63,25.66 1.85,4.63 8.55,9.41 20.04,14.37l-2.02 5.15 -80.69 -31.77 2.03 -5.14c11.7,4.17 19.82,5.22 24.37,3.12 4.54,-2.06 9.27,-9.38 14.21,-21.91l47.3 -120.22c4.93,-12.5 6.44,-21.09 4.53,-25.69 -1.89,-4.64 -8.56,-9.41 -19.95,-14.34l2.02 -5.14 194.31 76.5 -2.01 5.13c-11.7,-4.15 -19.82,-5.21 -24.37,-3.09 -4.53,2.06 -9.27,9.38 -14.2,21.88l-47.3 120.22c-4.94,12.53 -6.44,21.11 -4.54,25.7 1.89,4.65 8.55,9.42 19.95,14.33l-2.02 5.15 -80.68 -31.76 2.02 -5.15c11.7,4.17 19.78,5.21 24.34,3.21 4.52,-2.07 9.26,-9.37 14.22,-21.99l56.86 -144.48zm166.29 152.34c16.81,12.1 25.68,28.19 26.62,48.33 0.78,17.13 -3.93,32.82 -14.15,47.03 -7.17,9.97 -16.81,18.33 -28.91,25.13 -12.1,6.79 -24.21,9.79 -36.28,8.98 -12.13,-0.84 -23.27,-4.95 -33.52,-12.32 -16.72,-12.04 -25.22,-28.28 -25.44,-48.74 -0.18,-17.26 4.72,-32.89 14.81,-46.92 7.35,-10.21 17.18,-18.58 29.48,-25.03 12.3,-6.48 24.32,-9.16 36.05,-8.04 11.68,1.11 22.13,4.96 31.34,11.58zm-9.48 5.28c-4.26,-3.06 -9.48,-4.87 -15.65,-5.45 -6.14,-0.52 -12.86,1.39 -20.09,5.88 -7.28,4.47 -14.52,11.75 -21.75,21.8 -11.63,16.19 -18.45,32.45 -20.49,48.81 -2.04,16.35 2.21,28.3 12.7,35.85 7.81,5.62 16.58,7.02 26.32,4.19 9.74,-2.82 20.29,-12.1 31.63,-27.88 14.23,-19.77 21.14,-38.35 20.82,-55.79 -0.12,-11.86 -4.62,-21.03 -13.49,-27.41zm170.52 193.68c29.41,-9.84 52.9,-4.33 70.36,16.43 12.24,14.56 16.75,31.05 13.63,49.5 -3.15,18.42 -11.75,33.56 -25.84,45.41 -14.5,12.22 -31.62,18.64 -51.42,19.26 -19.71,0.62 -36.34,-7.06 -49.77,-23.04 -13.72,-16.31 -17.37,-34.4 -11,-54.32 6.38,-19.92 19.28,-38.09 38.73,-54.45 15.11,-12.71 31.09,-22.38 47.87,-28.97 16.85,-6.6 30.53,-10.19 41.07,-10.75 10.6,-0.6 20.07,1.07 28.46,4.98 8.34,3.89 19.41,13.88 33.23,29.97 9.95,11.52 16.21,18.28 18.79,20.31 2.62,1.99 6.08,3 10.5,3.08l3.73 4.44c-9.7,3.83 -17.64,5.33 -23.9,4.48 -6.27,-0.86 -11.68,-2.83 -16.25,-6.04 -4.6,-3.17 -11.46,-9.89 -20.69,-20.23 -9.93,-11.18 -17.41,-18.32 -22.47,-21.57 -5.09,-3.18 -12.36,-4.84 -21.72,-5.01 -9.44,-0.17 -19.64,2.16 -30.68,6.91 -10.99,4.8 -21.89,11.31 -32.63,19.61zm59.47 19.21c-6.46,-7.67 -14.87,-11.24 -25.34,-10.82 -10.47,0.51 -22.52,6.44 -36.09,17.87 -18.43,15.5 -29.65,30.53 -33.59,45.08 -3.98,14.58 -2.31,26.16 4.93,34.77 6.66,7.94 15.24,11.38 25.68,10.37 10.44,-1 22.91,-7.63 37.43,-19.85 15.46,-13 25.81,-26.76 31.05,-41.35 5.24,-14.58 3.88,-26.61 -4.07,-36.07zm28.24 245.85c-16.21,-7.17 -25.97,-11.93 -29.16,-14.32 -4.73,-3.52 -8.56,-7.94 -11.42,-13.27 -4.49,-8.34 -5.28,-16.75 -2.46,-25.2 2.84,-8.45 8.92,-15.19 18.25,-20.19 5.89,-3.17 11.74,-4.63 17.43,-4.29 7.91,0.36 16.9,3.57 26.98,9.6 10.06,6.09 24.43,17.38 43.09,33.99l4.73 -2.55c12.03,-6.46 19.27,-12.77 21.72,-19.01 2.41,-6.2 1.71,-12.93 -2.2,-20.19 -2.94,-5.47 -6.78,-9.07 -11.53,-10.67 -4.76,-1.72 -9.07,-1.54 -12.94,0.54l-7.52 4.38c-4.05,2.17 -7.76,2.85 -11.08,1.97 -3.31,-0.88 -5.85,-3.03 -7.64,-6.36 -1.76,-3.27 -2.08,-6.55 -0.89,-9.86 1.19,-3.29 3.79,-6.02 7.75,-8.15 7.58,-4.06 16.63,-3.96 27.12,0.34 10.49,4.29 19.48,13.46 26.96,27.4 5.75,10.71 8.65,20.43 8.73,29.22 0.06,6.6 -2.17,12.71 -6.66,18.31 -2.88,3.58 -10.21,8.54 -21.88,14.82l-40.99 22.01c-11.49,6.18 -18.44,10.2 -20.77,12.03 -2.37,1.85 -3.69,3.49 -4.07,4.96 -0.31,1.49 -0.12,2.9 0.58,4.2 0.77,1.43 1.73,2.48 2.89,3.24 2.16,1.21 7.27,3.02 15.38,5.49l-7.4 3.97c-18.58,-2.73 -30.25,-8.58 -35.08,-17.55 -2.3,-4.3 -2.66,-8.56 -1.07,-12.71 1.64,-4.18 6.04,-8.21 13.15,-12.15zm8.6 -4.62l46 -24.72c-12.42,-10.48 -20.76,-17.03 -25.06,-19.75 -7.6,-4.86 -14.29,-7.69 -20.14,-8.42 -5.84,-0.72 -11.23,0.26 -16.23,2.95 -6.35,3.41 -10.57,8.1 -12.71,14.16 -2.17,6.03 -1.88,11.53 0.77,16.46 3.58,6.69 12.71,13.09 27.37,19.32zm143.2 50.3l35.2 112.81 -33.68 16.74 -1.98 -6.4c6.78,-3.35 11.68,-7.02 14.72,-10.84 3.06,-3.89 4.72,-7.71 4.86,-11.54 0.15,-3.79 -1.02,-9.82 -3.6,-18.06l-3.56 -11.43 -91.09 28.44c-9.71,3.02 -15.73,5.54 -18,7.54 -2.26,2.03 -3.37,4.46 -3.42,7.4 -0.01,2.89 1.29,9.15 3.95,18.65l-5.28 1.66 -22.1 -70.83 5.27 -1.65c3.05,9.07 6.34,14.49 9.94,16.25 3.61,1.75 10.99,0.89 22.28,-2.64l91.09 -28.42 -3.65 -11.67c-2.55,-8.16 -4.78,-13.6 -6.71,-16.2 -1.91,-2.65 -5.17,-4.71 -9.79,-6.27 -4.54,-1.56 -11.12,-2.02 -19.57,-1.46l-2 -6.41 37.12 -5.67zm-1 237.52l2.89 16.7c6.18,39.94 -3.17,61.83 -28.02,65.67 -11.58,1.79 -21.58,-1.66 -30.02,-10.34 -8.48,-8.68 -14.15,-22.22 -16.98,-40.58l-10.02 -64.78 5.46 -0.84c1.36,8.75 3.84,14.13 7.39,16.1 3.63,1.97 10.99,2.07 22.16,0.34l72.16 -11.16c10.62,-1.65 16.84,-3.18 18.6,-4.54 1.75,-1.4 3.27,-3.33 4.43,-5.83 1.22,-2.51 1.26,-7.25 0.18,-14.23l5.45 -0.85 10.93 70.61 -5.46 0.84c-1.49,-9.65 -2.98,-15.56 -4.47,-17.59 -1.52,-2.09 -3.28,-3.71 -5.33,-4.89 -2.09,-1.17 -8.93,-0.89 -20.55,0.91l-28.8 4.46zm-63.43 9.81c-0.55,5.39 -0.46,10.68 0.34,15.86 1.52,9.81 5.36,17.35 11.52,22.68 6.2,5.27 13.29,7.32 21.28,6.08 18.96,-2.93 26.39,-17.47 22.35,-43.57 -0.35,-2.26 -0.9,-5.37 -1.61,-9.39l-53.88 8.34zm-2.14 272.05l1.42 -40.23c18.72,-11.87 37.87,-22.5 57.4,-32 4.53,-2.23 7.87,-4.25 10.08,-6.12 2.22,-1.85 3.39,-4.45 3.51,-7.86 0.04,-1.18 0,-3.06 -0.11,-5.66l-36.79 -1.3c-9.93,-0.34 -16.23,-0.01 -19.02,1.07 -2.8,1.02 -4.82,2.98 -6.15,5.94 -1.28,2.91 -2.06,7.93 -2.31,14.95l-5.52 -0.19 2.39 -68.36 5.53 0.19c-0.31,8.84 1.12,14.6 4.25,17.2 3.18,2.61 10.4,4.09 21.7,4.49l72.97 2.57c10.74,0.38 17.15,0.03 19.12,-0.97 1.97,-1.04 3.83,-2.66 5.44,-4.9 1.66,-2.23 2.6,-6.88 2.85,-13.94l5.51 0.19 -2.4 68.35 -5.52 -0.19c0.29,-8.24 -0.14,-13.35 -1.25,-15.33 -1.16,-1.97 -2.58,-3.75 -4.26,-5.39 -1.73,-1.64 -8.5,-2.69 -20.35,-3.11l-26.99 -0.95c-0.28,2.28 -0.44,3.81 -0.47,4.62 -0.21,6.06 1.32,11.81 4.56,17.22 3.24,5.46 10.37,10.45 21.43,15.01 10.43,4.24 17.43,7.7 21.02,10.36 3.64,2.68 6.48,6.3 8.67,10.91 2.2,4.61 3.21,9.37 3.04,14.31 -0.2,5.38 -1.63,9.62 -4.34,12.68 -2.73,3.11 -6.21,4.56 -10.4,4.42 -3.47,-0.13 -6.39,-1.34 -8.75,-3.71 -2.38,-2.38 -3.49,-5.64 -3.36,-9.7 0.08,-2.19 0.78,-4.86 2.13,-8.13 1.69,-4.11 2.55,-7.24 2.63,-9.43 0.16,-4.57 -3.64,-8.47 -11.45,-11.76 -8.92,-3.67 -14.67,-6.36 -17.22,-8.03 -2.59,-1.72 -5.97,-4.85 -10.21,-9.48 -1.02,3.02 -3.49,6.3 -7.35,9.82 -3.86,3.48 -14.68,9.83 -32.4,19.08 -14.16,7.35 -23.23,12.94 -27.2,16.71 -3.97,3.79 -6.15,9.41 -6.62,16.83l-5.21 -0.18zm118.59 130.61c-4.64,20.19 -16.04,34.59 -34.24,43.25 -15.49,7.35 -31.8,9.08 -48.83,5.15 -11.97,-2.74 -23.42,-8.41 -34.37,-16.93 -10.93,-8.53 -18.39,-18.55 -22.32,-29.99 -3.92,-11.51 -4.43,-23.38 -1.61,-35.68 4.63,-20.08 16.32,-34.21 35.08,-42.33 15.84,-6.85 32.16,-8.37 49,-4.5 12.25,2.82 23.77,8.66 34.49,17.51 10.71,8.83 17.85,18.87 21.34,30.13 3.52,11.21 4,22.33 1.46,33.39zm-8.53 -6.71c1.17,-5.11 0.82,-10.63 -1.03,-16.54 -1.91,-5.86 -6.26,-11.32 -13.21,-16.25 -6.93,-4.98 -16.43,-8.84 -28.5,-11.62 -19.42,-4.47 -37.06,-4.46 -52.94,-0.02 -15.86,4.45 -25.23,13 -28.13,25.6 -2.14,9.38 -0.04,18 6.32,25.89 6.37,7.89 19.01,14.04 37.96,18.4 23.72,5.45 43.53,4.64 59.48,-2.41 10.89,-4.7 17.6,-12.4 20.05,-23.05zm-129.5 203.22c-14.96,20.56 -30.84,27.1 -47.58,19.57 -11.43,-5.14 -17.88,-13.74 -19.27,-25.75 -1.44,-12.03 1.66,-26.53 9.29,-43.48l27.62 -61.45 5.04 2.26c-3.6,8.03 -4.35,13.79 -2.28,17.28 2.13,3.47 8.23,7.5 18.36,12.06l66.6 29.94c9.88,4.45 15.93,6.61 18.14,6.43 2.13,-0.16 4.38,-0.93 6.7,-2.35 2.35,-1.33 4.92,-5.19 7.77,-11.51l5.03 2.26 -25.8 57.42c-5,11.1 -9.91,19.65 -14.7,25.7 -4.81,6.1 -10.74,10.18 -17.81,12.31 -7.06,2.12 -14.24,1.5 -21.48,-1.74 -14.18,-6.38 -19.38,-19.36 -15.63,-38.95zm21.2 -38.91c-1.9,3.95 -3.03,6.35 -3.41,7.19 -5.6,12.48 -7.27,22.56 -5.01,30.27 2.32,7.69 6.84,13.06 13.65,16.13 7.89,3.54 14.89,3.29 20.96,-0.73 6.1,-4.08 11.91,-12.27 17.48,-24.67l3.19 -7.11 -46.86 -21.08zm-58.4 -26.25c-3.49,3.91 -6.66,8.95 -9.47,15.21 -4.86,10.82 -6.1,19.91 -3.69,27.3 2.34,7.36 7.31,12.79 14.78,16.14 8.39,3.77 16.35,3.28 23.89,-1.53 7.56,-4.81 14.02,-13.23 19.44,-25.29 1.35,-2.98 2.71,-6.26 4.06,-9.79l-49.01 -22.04zm87.42 265.53c-2.25,3.46 -5.44,5.63 -9.49,6.51 -4.07,0.81 -7.86,0.09 -11.34,-2.17 -3.52,-2.29 -5.75,-5.5 -6.65,-9.55 -0.93,-4.13 -0.21,-7.92 2.04,-11.38 2.28,-3.5 5.48,-5.71 9.62,-6.53 4.14,-0.9 7.98,-0.16 11.48,2.13 3.48,2.27 5.68,5.46 6.57,9.51 0.84,4.06 0.09,7.9 -2.23,11.48zm-66.85 -28.92l-92.54 -60.31c-7.16,-4.67 -12.23,-7.26 -15.28,-7.74 -3.08,-0.54 -5.84,-0.14 -8.32,1.15 -2.49,1.3 -5.53,4.65 -9.07,10.08l-4.62 -3.02 36.16 -55.52 4.64 3.02c-3.62,5.54 -5.51,9.64 -5.64,12.23 -0.18,2.61 0.63,5.28 2.37,8.05 1.76,2.72 6.2,6.41 13.26,11.01l44.49 28.99c12.36,8.07 20.63,12.9 24.78,14.58 3.06,1.14 5.48,1.45 7.34,0.84 1.87,-0.54 3.5,-1.92 4.9,-4.04 1.52,-2.35 2.7,-5.59 3.64,-9.73l5.76 1.28 -8.28 43.62 -3.59 5.51z"/>
   <path class="fil1" d="M1137.02 2554.74l-87.67 0 0 -10.22c11.71,-2.76 18.78,-6.81 21.32,-12.2 2.46,-5.46 3.67,-15.25 3.67,-29.51l0 -213.46 -57.45 0c-2.9,35.61 -8.47,73.7 -16.74,114.29 -8.32,40.57 -16.93,72.63 -25.88,96.26 -8.98,23.55 -18.15,39.09 -27.6,46.75 -9.46,7.6 -20.05,11.42 -31.91,11.42 -11.86,0 -22.58,-1.7 -32.1,-4.96l0 -42 20.31 0c1.21,9.79 6.08,14.76 14.47,14.76 6.22,0 12.22,-3.12 18.13,-9.37 5.94,-6.24 12.86,-21.49 20.69,-45.75 7.91,-24.2 15.17,-53.36 21.88,-87.26 6.63,-33.99 10.02,-58.67 10.02,-74.2 0,-10.29 -1.55,-17.32 -4.59,-21.08 -3.02,-3.82 -8.46,-6.24 -16.3,-7.16l0 -10 169.75 0 0 10.22c-10.24,2.47 -16.74,5.8 -19.63,10.07 -2.9,4.18 -4.38,14.75 -4.38,31.63l0 179.84c0,16.46 1.48,26.89 4.38,31.35 2.89,4.41 9.39,7.88 19.63,10.36l0 10.22z"/>
   <path id="_1_0" class="fil1" d="M1296.91 2502.81c0,9.23 0.28,16.03 0.9,20.36 0.64,4.25 1.71,7.67 3.12,10.14 1.47,2.48 3.6,4.61 6.42,6.24 2.82,1.71 7.41,3.34 13.75,4.97l0 10.22 -87.3 0 0 -10.22c8.62,-2.19 14.34,-4.61 17.22,-7.37 2.9,-2.7 4.81,-6.53 5.65,-11.49 0.93,-4.97 1.35,-12.64 1.35,-22.85l0 -179.84c0,-9.5 -0.36,-16.53 -0.99,-20.86 -0.7,-4.39 -1.84,-7.73 -3.46,-10.2 -1.55,-2.42 -3.67,-4.33 -6.29,-5.82 -2.59,-1.42 -7.12,-3.06 -13.48,-4.82l0 -10.22 87.3 0 0 10.22c-6.06,1.48 -10.43,3.04 -13.12,4.53 -2.68,1.49 -4.86,3.41 -6.43,5.75 -1.61,2.27 -2.74,5.67 -3.52,10.28 -0.77,4.55 -1.12,11.64 -1.12,21.14l0 179.84z"/>
   <path id="_2" class="fil1" d="M1588.5 2554.74l0 -10.22c-5.64,-13.97 -10.38,-26.25 -14.25,-36.75l-15.47 -41.99c-5.28,-14.12 -10.02,-24.33 -14.33,-30.57 -4.22,-6.18 -9.23,-10.79 -14.96,-13.7 -5.71,-2.91 -13.48,-4.4 -23.28,-4.4l-25.2 0 0 85.91c0,16.6 1.48,27.03 4.45,31.36 2.96,4.26 9.46,7.66 19.55,10.14l0 10.22 -87.31 0 0 -10.22c9.38,-2.19 15.81,-5.18 19.27,-8.94 3.47,-3.68 5.16,-14.61 5.16,-32.56l0 -179.84c0,-18.29 -1.77,-29.29 -5.38,-33.05 -3.59,-3.69 -9.95,-6.67 -19.05,-8.86l0 -10.22 87.31 0 0 10.22c-9.25,2.33 -15.53,5.38 -18.92,9.22 -3.39,3.82 -5.08,14.68 -5.08,32.69l0 76.13 24.84 0c11.15,0 19.9,-3.41 26.33,-10.07 6.42,-6.75 14.6,-23.98 24.49,-51.72 9.1,-26.18 18.21,-44.34 27.24,-54.55 8.97,-10.15 23.71,-15.26 44.11,-15.26 6.5,0 15.04,1.56 25.63,4.62l0 47.73 -20.48 0c-1.62,-13.68 -7.61,-20.57 -17.99,-20.57 -6.29,0 -11.79,2.98 -16.3,8.95 -4.59,5.95 -10.81,19.14 -18.86,39.51 -6.34,16.59 -11.85,28.87 -16.5,36.67 -4.66,7.81 -11.08,14.33 -19.28,19.44l0 1.63c22.66,6.96 40.09,24.19 52.38,51.79l18.56 42.2c6.92,15.61 13.19,26.68 18.84,33.14 5.65,6.45 14.11,10.36 25.42,11.7l0 10.22 -70.94 0z"/>
   <path id="_3" class="fil1" d="M1879.1 2554.74l0 -10.22c6.92,-1.34 12,-2.91 15.38,-4.54 3.39,-1.62 5.93,-3.97 7.56,-6.95 1.7,-2.98 2.46,-6.95 2.46,-11.98 0,-4.69 -0.48,-9.8 -1.61,-15.26 -1.13,-5.47 -2.68,-11.63 -4.73,-18.37l-7.69 -26.82 -96.34 0 -7.07 20.36c-3.53,10.22 -5.92,18.02 -6.97,23.27 -1.14,5.25 -1.71,10.07 -1.71,14.33 0,8.3 2.13,14.4 6.36,18.3 4.16,3.9 10.65,6.45 19.34,7.66l0 10.22 -88.3 0 0 -10.22c7.7,-1.21 14.39,-5.74 20.12,-13.47 5.72,-7.73 11.29,-18.88 16.65,-33.28l86.25 -230.06 32.67 0 70.3 231.76c3.33,10.79 6.22,19.01 8.76,24.7 2.54,5.67 5.64,10.14 9.24,13.33 3.52,3.19 8.47,5.53 14.68,7.02l0 10.22 -95.35 0zm-79.4 -112.23l86.46 0 -39.31 -134.07 -47.15 134.07z"/>
   <path id="_4" class="fil1" d="M2112.82 2502.17c0,8.16 0.43,14.69 1.34,19.51 0.93,4.89 2.26,8.72 4.16,11.56 1.84,2.84 4.38,5.04 7.56,6.67 3.18,1.56 8.12,3.12 14.89,4.61l0 10.22 -90.84 0 0 -10.22c8.62,-2.19 14.34,-4.61 17.23,-7.37 2.89,-2.7 4.8,-6.53 5.64,-11.49 0.93,-4.97 1.35,-12.64 1.35,-22.85l0 -179.84c0,-9.5 -0.36,-16.53 -0.99,-20.86 -0.7,-4.39 -1.84,-7.73 -3.46,-10.2 -1.55,-2.42 -3.67,-4.33 -6.28,-5.82 -2.61,-1.42 -7.13,-3.06 -13.49,-4.82l0 -10.22 102.63 0c32.25,0 56.25,6.17 72.06,18.59 15.74,12.41 23.65,31.27 23.65,56.61 0,14.47 -2.48,27.38 -7.43,38.87 -5,11.49 -11.99,20.93 -21.1,28.3 -9.09,7.31 -19.83,12.63 -32.25,15.76 -12.42,3.18 -25.47,4.82 -39.09,4.82 -15.32,0 -27.18,-0.28 -35.58,-0.85l0 69.02zm0 -86.27l24 0c15.6,0 28.44,-2.05 38.54,-6.09 10.16,-4.12 17.92,-10.93 23.28,-20.44 5.37,-9.43 8.05,-22.05 8.05,-37.66 0,-11.92 -1.55,-21.86 -4.73,-29.87 -3.17,-7.94 -7.55,-14.33 -13.12,-19.22 -5.58,-4.83 -12.29,-8.24 -19.98,-10.29 -7.69,-1.99 -16.09,-2.98 -25.2,-2.98 -13.69,0 -23.93,0.29 -30.84,0.85l0 125.7z"/>
   <path id="_5" class="fil2 str2" d="M1137.02 2554.74l-87.67 0 0 -10.22c11.71,-2.76 18.78,-6.81 21.32,-12.2 2.46,-5.46 3.67,-15.25 3.67,-29.51l0 -213.46 -57.45 0c-2.9,35.61 -8.47,73.7 -16.74,114.29 -8.32,40.57 -16.93,72.63 -25.88,96.26 -8.98,23.55 -18.15,39.09 -27.6,46.75 -9.46,7.6 -20.05,11.42 -31.91,11.42 -11.86,0 -22.58,-1.7 -32.1,-4.96l0 -42 20.31 0c1.21,9.79 6.08,14.76 14.47,14.76 6.22,0 12.22,-3.12 18.13,-9.37 5.94,-6.24 12.86,-21.49 20.69,-45.75 7.91,-24.2 15.17,-53.36 21.88,-87.26 6.63,-33.99 10.02,-58.67 10.02,-74.2 0,-10.29 -1.55,-17.32 -4.59,-21.08 -3.02,-3.82 -8.46,-6.24 -16.3,-7.16l0 -10 169.75 0 0 10.22c-10.24,2.47 -16.74,5.8 -19.63,10.07 -2.9,4.18 -4.38,14.75 -4.38,31.63l0 179.84c0,16.46 1.48,26.89 4.38,31.35 2.89,4.41 9.39,7.88 19.63,10.36l0 10.22z"/>
   <path id="_6" class="fil2 str2" d="M1296.91 2502.81c0,9.23 0.28,16.03 0.9,20.36 0.64,4.25 1.71,7.67 3.12,10.14 1.47,2.48 3.6,4.61 6.42,6.24 2.82,1.71 7.41,3.34 13.75,4.97l0 10.22 -87.3 0 0 -10.22c8.62,-2.19 14.34,-4.61 17.22,-7.37 2.9,-2.7 4.81,-6.53 5.65,-11.49 0.93,-4.97 1.35,-12.64 1.35,-22.85l0 -179.84c0,-9.5 -0.36,-16.53 -0.99,-20.86 -0.7,-4.39 -1.84,-7.73 -3.46,-10.2 -1.55,-2.42 -3.67,-4.33 -6.29,-5.82 -2.59,-1.42 -7.12,-3.06 -13.48,-4.82l0 -10.22 87.3 0 0 10.22c-6.06,1.48 -10.43,3.04 -13.12,4.53 -2.68,1.49 -4.86,3.41 -6.43,5.75 -1.61,2.27 -2.74,5.67 -3.52,10.28 -0.77,4.55 -1.12,11.64 -1.12,21.14l0 179.84z"/>
   <path id="_7" class="fil2 str2" d="M1588.5 2554.74l0 -10.22c-5.64,-13.97 -10.38,-26.25 -14.25,-36.75l-15.47 -41.99c-5.28,-14.12 -10.02,-24.33 -14.33,-30.57 -4.22,-6.18 -9.23,-10.79 -14.96,-13.7 -5.71,-2.91 -13.48,-4.4 -23.28,-4.4l-25.2 0 0 85.91c0,16.6 1.48,27.03 4.45,31.36 2.96,4.26 9.46,7.66 19.55,10.14l0 10.22 -87.31 0 0 -10.22c9.38,-2.19 15.81,-5.18 19.27,-8.94 3.47,-3.68 5.16,-14.61 5.16,-32.56l0 -179.84c0,-18.29 -1.77,-29.29 -5.38,-33.05 -3.59,-3.69 -9.95,-6.67 -19.05,-8.86l0 -10.22 87.31 0 0 10.22c-9.25,2.33 -15.53,5.38 -18.92,9.22 -3.39,3.82 -5.08,14.68 -5.08,32.69l0 76.13 24.84 0c11.15,0 19.9,-3.41 26.33,-10.07 6.42,-6.75 14.6,-23.98 24.49,-51.72 9.1,-26.18 18.21,-44.34 27.24,-54.55 8.97,-10.15 23.71,-15.26 44.11,-15.26 6.5,0 15.04,1.56 25.63,4.62l0 47.73 -20.48 0c-1.62,-13.68 -7.61,-20.57 -17.99,-20.57 -6.29,0 -11.79,2.98 -16.3,8.95 -4.59,5.95 -10.81,19.14 -18.86,39.51 -6.34,16.59 -11.85,28.87 -16.5,36.67 -4.66,7.81 -11.08,14.33 -19.28,19.44l0 1.63c22.66,6.96 40.09,24.19 52.38,51.79l18.56 42.2c6.92,15.61 13.19,26.68 18.84,33.14 5.65,6.45 14.11,10.36 25.42,11.7l0 10.22 -70.94 0z"/>
   <path id="_8" class="fil2 str2" d="M1879.1 2554.74l0 -10.22c6.92,-1.34 12,-2.91 15.38,-4.54 3.39,-1.62 5.93,-3.97 7.56,-6.95 1.7,-2.98 2.46,-6.95 2.46,-11.98 0,-4.69 -0.48,-9.8 -1.61,-15.26 -1.13,-5.47 -2.68,-11.63 -4.73,-18.37l-7.69 -26.82 -96.34 0 -7.07 20.36c-3.53,10.22 -5.92,18.02 -6.97,23.27 -1.14,5.25 -1.71,10.07 -1.71,14.33 0,8.3 2.13,14.4 6.36,18.3 4.16,3.9 10.65,6.45 19.34,7.66l0 10.22 -88.3 0 0 -10.22c7.7,-1.21 14.39,-5.74 20.12,-13.47 5.72,-7.73 11.29,-18.88 16.65,-33.28l86.25 -230.06 32.67 0 70.3 231.76c3.33,10.79 6.22,19.01 8.76,24.7 2.54,5.67 5.64,10.14 9.24,13.33 3.52,3.19 8.47,5.53 14.68,7.02l0 10.22 -95.35 0zm-79.4 -112.23l86.46 0 -39.31 -134.07 -47.15 134.07z"/>
   <path id="_9" class="fil2 str2" d="M2112.82 2502.17c0,8.16 0.43,14.69 1.34,19.51 0.93,4.89 2.26,8.72 4.16,11.56 1.84,2.84 4.38,5.04 7.56,6.67 3.18,1.56 8.12,3.12 14.89,4.61l0 10.22 -90.84 0 0 -10.22c8.62,-2.19 14.34,-4.61 17.23,-7.37 2.89,-2.7 4.8,-6.53 5.64,-11.49 0.93,-4.97 1.35,-12.64 1.35,-22.85l0 -179.84c0,-9.5 -0.36,-16.53 -0.99,-20.86 -0.7,-4.39 -1.84,-7.73 -3.46,-10.2 -1.55,-2.42 -3.67,-4.33 -6.28,-5.82 -2.61,-1.42 -7.13,-3.06 -13.49,-4.82l0 -10.22 102.63 0c32.25,0 56.25,6.17 72.06,18.59 15.74,12.41 23.65,31.27 23.65,56.61 0,14.47 -2.48,27.38 -7.43,38.87 -5,11.49 -11.99,20.93 -21.1,28.3 -9.09,7.31 -19.83,12.63 -32.25,15.76 -12.42,3.18 -25.47,4.82 -39.09,4.82 -15.32,0 -27.18,-0.28 -35.58,-0.85l0 69.02zm0 -86.27l24 0c15.6,0 28.44,-2.05 38.54,-6.09 10.16,-4.12 17.92,-10.93 23.28,-20.44 5.37,-9.43 8.05,-22.05 8.05,-37.66 0,-11.92 -1.55,-21.86 -4.73,-29.87 -3.17,-7.94 -7.55,-14.33 -13.12,-19.22 -5.58,-4.83 -12.29,-8.24 -19.98,-10.29 -7.69,-1.99 -16.09,-2.98 -25.2,-2.98 -13.69,0 -23.93,0.29 -30.84,0.85l0 125.7z"/>
   <ellipse class="fil2 str3" cx="1550.74" cy="1549.31" rx="1399.57" ry="1406.78"/>
   <ellipse class="fil2" cx="1550.74" cy="1549.31" rx="1256.83" ry="1263.32"/>
   <path class="fil3" d="M1392.87 2880.31l-21.08 115.56 -22.8 -4.17 -12.27 -86.75c-1.12,-8.08 -1.91,-14.12 -2.37,-18.12 -2.07,3.96 -5.26,9.77 -9.54,17.42l-42.31 75.32 -20.37 -3.71 21.07 -115.56 14.61 2.67 -17.62 96.67 51.18 -90.55 13.71 2.5 15.22 104.5 17.95 -98.45 14.62 2.67zm-146.26 32.39c-5.31,18.72 -14.49,31.98 -27.51,39.74 -13.03,7.76 -27.46,9.38 -43.3,4.88 -10.4,-2.94 -19.04,-8.08 -25.98,-15.42 -6.91,-7.34 -11.31,-16.09 -13.14,-26.24 -1.86,-10.13 -1.2,-20.85 2.01,-32.13 3.24,-11.45 8.44,-21.05 15.61,-28.78 7.16,-7.74 15.62,-12.73 25.36,-14.97 9.77,-2.26 19.54,-2 29.3,0.76 10.6,3.01 19.32,8.28 26.21,15.77 6.87,7.49 11.21,16.28 12.99,26.39 1.78,10.08 1.26,20.08 -1.55,30zm-15.31 -4.62c3.86,-13.61 3.26,-25.35 -1.82,-35.22 -5.05,-9.87 -13.07,-16.39 -24.07,-19.5 -11.2,-3.18 -21.51,-1.84 -31,4 -9.45,5.85 -16.23,16.03 -20.35,30.55 -2.61,9.19 -3.33,17.63 -2.17,25.36 1.15,7.71 4.16,14.31 9.03,19.75 4.91,5.45 11.06,9.25 18.45,11.35 10.51,2.98 20.6,1.91 30.25,-3.2 9.65,-5.1 16.88,-16.13 21.68,-33.09zm-100.91 -54.1l-15.13 -1.13c0.76,-5.74 -0.25,-12.1 -3.02,-19.03 -2.78,-6.95 -7.96,-11.7 -15.57,-14.27 -7.72,-2.62 -14.5,-2.69 -20.34,-0.19 -5.81,2.48 -9.69,6.57 -11.61,12.25 -2.06,6.11 -1.38,11.8 2.13,17 3.46,5.21 9.27,9.19 17.36,11.92l6.98 2.36 -4.36 12.9c-6.69,-2.27 -11.96,-3.61 -15.78,-4.04 -3.81,-0.42 -7.64,0.52 -11.45,2.81 -3.8,2.26 -6.4,5.44 -7.79,9.54 -1.63,4.82 -1.2,9.66 1.33,14.5 2.5,4.83 6.95,8.33 13.29,10.47 5.56,1.88 10.78,2.09 15.66,0.58 4.86,-1.5 8.83,-4.31 11.91,-8.44 3.07,-4.12 4.99,-7.34 5.76,-9.62l12.96 8.01c-11.43,22.46 -28.37,29.9 -50.75,22.33 -10.8,-3.65 -18.31,-9.57 -22.58,-17.74 -4.27,-8.17 -5.07,-16.27 -2.33,-24.36 3.5,-10.36 11.08,-16.74 22.75,-19.15 -5.11,-3.48 -8.75,-8.3 -10.92,-14.4 -2.15,-6.12 -2.11,-12.55 0.16,-19.29 3.24,-9.57 9.63,-16.33 19.18,-20.29 9.55,-3.96 20.41,-3.9 32.58,0.21 20.92,7.07 30.78,22.77 29.58,47.07zm-213.25 4.7l-13.85 -7.09 -1.23 -81.72 -62.47 49.15 -13.56 -6.93 80.53 -61.44c10.08,-7.7 17.48,-12.33 22.21,-13.86 4.74,-1.55 9.99,-0.82 15.81,2.14 3.53,1.81 7.44,4.85 11.76,9.16l-6.05 11.83c-2.59,-4.02 -5.94,-7.1 -10.06,-9.21 -3.34,-1.7 -6.78,-2.07 -10.34,-1.16 -3.53,0.92 -8.73,4.49 -15.62,10.71l2.87 98.42zm-113.15 -61.37l-13.02 -8.43 27.99 -43.24c-5.92,-3.83 -10.86,-5.37 -14.75,-4.6 -3.92,0.75 -10.58,4.32 -20.03,10.72 -6.91,4.73 -12.11,7.85 -15.62,9.35 -3.49,1.55 -7.46,2.18 -11.9,1.88 -4.41,-0.29 -8.62,-1.7 -12.56,-4.24 -4.98,-3.24 -7.59,-4.99 -7.8,-5.26l7.31 -11.3c0.46,0.3 1.31,0.89 2.56,1.76 1.41,0.97 2.26,1.56 2.58,1.77 4.13,2.67 7.87,3.66 11.18,2.94 3.37,-0.68 8.49,-3.49 15.41,-8.36 8.69,-6.23 14.9,-9.71 18.59,-10.4 3.65,-0.7 7.52,-0.67 11.52,0.06 -5.19,-5.84 -7.64,-15.79 -7.32,-29.8l1.03 -45.9 16.12 10.44 -0.83 37.38c-0.29,10.32 0.17,17.85 1.4,22.57 1.24,4.73 4.27,8.65 9.08,11.76l29.86 -46.13 13 8.42 -63.8 98.61zm-15.96 -151.37l-67.97 95.79 -35.99 -25.55c-6.33,-4.48 -10.93,-8.23 -13.85,-11.21 -4.13,-4.1 -6.99,-8.39 -8.6,-12.82 -1.62,-4.46 -1.97,-9.35 -1.11,-14.66 0.86,-5.33 3.01,-10.35 6.37,-15.1 5.76,-8.12 13.22,-13.18 22.38,-15.12 9.14,-2 20.48,1.82 33.96,11.4l24.46 17.36 27.71 -39.06 12.64 8.97zm-48.33 41.33l-24.63 -17.48c-8.15,-5.8 -15,-8.38 -20.61,-7.77 -5.57,0.63 -10.33,3.7 -14.27,9.25 -2.83,3.99 -4.28,8.13 -4.28,12.42 -0.01,4.29 1.32,8.08 3.94,11.31 1.74,2.08 5.47,5.15 11.17,9.2l24.37 17.32 24.31 -34.25zm-21.14 -92.17l-110.95 59.12 -12.82 -11.18 41.29 -119.82 13.26 11.56 -13.18 35.72 37.09 32.33 32.94 -18.5 12.37 10.77zm-57.02 14.28l-30.03 -26.17 -12.2 32.56c-3.73,9.87 -7.02,17.86 -9.8,24 6.23,-4.72 12.81,-8.97 19.71,-12.82l32.32 -17.57zm-36.02 -98l-81.34 84.72 -11.19 -10.75 81.35 -84.72 11.18 10.75zm-76.11 99.75l-11.36 11.84 -10.83 -10.4 11.37 -11.84 10.82 10.4zm-21.42 -20.58l-11.36 11.84 -10.84 -10.4 11.38 -11.84 10.82 10.4zm64.71 -109.12l-88.9 76.77 -10.11 -11.74 36.61 -31.63 -39.46 -45.72 -36.62 31.63 -10.15 -11.74 88.91 -76.77 10.12 11.75 -41.83 36.12 39.47 45.72 41.83 -36.13 10.13 11.74zm-169.66 -17.96l-8.62 -11.09 73.43 -57.08 -111.6 7.95 -9.4 -12.1 92.72 -72.07 8.62 11.08 -73.23 56.93 111.31 -7.92 9.49 12.21 -92.72 72.09zm-87.48 -363.58l-109.21 43.22 -8.52 -21.56 67.14 -56.29c6.24,-5.23 10.96,-9.08 14.11,-11.59 -4.46,0.33 -11.07,0.7 -19.81,1.12l-86.31 3.89 -7.62 -19.25 109.21 -43.22 5.46 13.82 -91.35 36.15 103.9 -4.42 5.13 12.95 -80.63 68.18 93.03 -36.82 5.47 13.82zm-103.68 -107.93c-18.76,5.24 -34.86,4.31 -48.27,-2.75 -13.42,-7.08 -22.32,-18.54 -26.75,-34.42 -2.91,-10.4 -3.02,-20.45 -0.39,-30.21 2.66,-9.72 7.83,-18.03 15.52,-24.9 7.68,-6.87 17.18,-11.89 28.48,-15.04 11.45,-3.2 22.36,-3.77 32.69,-1.69 10.34,2.08 19,6.7 26,13.84 7.02,7.16 11.89,15.63 14.62,25.41 2.96,10.61 3.02,20.8 0.22,30.58 -2.81,9.77 -8.04,18.06 -15.73,24.85 -7.68,6.78 -16.48,11.56 -26.39,14.33zm-4.05 -15.48c13.61,-3.8 23.32,-10.44 29.09,-19.91 5.78,-9.47 7.15,-19.71 4.08,-30.71 -3.13,-11.22 -9.64,-19.31 -19.58,-24.37 -9.91,-5.01 -22.14,-5.51 -36.68,-1.45 -9.19,2.57 -16.77,6.36 -22.77,11.37 -5.97,5.01 -10.03,11.03 -12.13,18.02 -2.1,7.03 -2.13,14.25 -0.06,21.66 2.95,10.53 9.12,18.58 18.51,24.15 9.38,5.58 22.56,5.98 39.54,1.24zm-7.9 -115.58l-6.32 -13.79c5.39,-2.11 10.47,-6.07 15.19,-11.84 4.74,-5.81 6.4,-12.63 4.97,-20.53 -1.46,-8.03 -4.68,-14 -9.67,-17.9 -4.99,-3.89 -10.44,-5.3 -16.33,-4.24 -6.35,1.14 -10.99,4.5 -13.85,10.07 -2.88,5.55 -3.57,12.57 -2.05,20.97l1.31 7.26 -13.4 2.42c-1.26,-6.97 -2.61,-12.22 -4.1,-15.77 -1.47,-3.54 -4.13,-6.44 -7.98,-8.67 -3.82,-2.24 -7.86,-2.98 -12.11,-2.21 -5.01,0.9 -9.05,3.62 -12.06,8.18 -3.01,4.52 -3.92,10.1 -2.74,16.69 1.05,5.78 3.39,10.45 7.07,13.99 3.67,3.54 8.03,5.65 13.14,6.36 5.1,0.69 8.84,0.81 11.2,0.39l-0.73 15.22c-25.19,0.84 -39.88,-10.38 -44.08,-33.65 -2.03,-11.21 -0.49,-20.65 4.6,-28.34 5.08,-7.69 11.8,-12.31 20.19,-13.83 10.76,-1.94 20.02,1.62 27.77,10.66 0.58,-6.14 3.03,-11.65 7.31,-16.52 4.32,-4.84 9.96,-7.91 16.96,-9.18 9.95,-1.79 18.95,0.54 27.04,6.98 8.08,6.45 13.28,15.99 15.56,28.62 3.93,21.75 -5.03,37.97 -26.89,48.66zm-112.2 -178.66l-1.17 -15.51 69.09 -43.64 -74.5 -27.72 -1.15 -15.18 94.4 36.73c11.82,4.59 19.63,8.5 23.41,11.73 3.77,3.24 5.9,8.1 6.39,14.61 0.3,3.96 -0.25,8.88 -1.68,14.81l-13.25 1c2.09,-4.31 2.97,-8.76 2.61,-13.38 -0.28,-3.74 -1.76,-6.87 -4.38,-9.43 -2.64,-2.53 -8.4,-5.12 -17.28,-7.76l-82.49 53.74zm-6.63 -128.76l0.43 -15.5 51.48 1.44c0.21,-7.05 -1.05,-12.07 -3.73,-15 -2.68,-2.96 -9.19,-6.79 -19.57,-11.54 -7.63,-3.46 -12.99,-6.27 -16.1,-8.48 -3.13,-2.19 -5.74,-5.25 -7.79,-9.2 -2.05,-3.92 -3.03,-8.25 -2.89,-12.94 0.16,-5.94 0.3,-9.07 0.41,-9.4l13.46 0.38c-0.01,0.55 -0.07,1.58 -0.16,3.1 -0.11,1.71 -0.16,2.74 -0.17,3.12 -0.15,4.92 0.95,8.63 3.29,11.09 2.33,2.52 7.39,5.43 15.14,8.8 9.85,4.21 16.05,7.7 18.56,10.49 2.49,2.76 4.47,6.08 5.93,9.89 2.29,-7.48 9.52,-14.74 21.65,-21.75l39.73 -22.97 -0.53 19.2 -32.36 18.71c-8.96,5.12 -15.15,9.43 -18.54,12.94 -3.41,3.51 -5.18,8.12 -5.34,13.87l54.93 1.53 -0.45 15.5 -117.38 -3.28zm121 -92.31l-117.1 -8.87 3.32 -44c0.59,-7.74 1.42,-13.62 2.46,-17.66 1.4,-5.65 3.59,-10.32 6.55,-13.99 2.99,-3.68 7,-6.51 11.99,-8.5 5.01,-2.01 10.42,-2.77 16.22,-2.32 9.93,0.75 18.11,4.53 24.49,11.37 6.42,6.82 9,18.5 7.74,34.99l-2.27 29.91 47.77 3.62 -1.17 15.45zm-60.34 -20.12l2.29 -30.11c0.75,-9.98 -0.55,-17.18 -3.98,-21.67 -3.41,-4.46 -8.49,-6.95 -15.28,-7.46 -4.87,-0.37 -9.17,0.52 -12.84,2.74 -3.67,2.2 -6.24,5.28 -7.66,9.21 -0.89,2.55 -1.61,7.33 -2.13,14.3l-2.26 29.82 41.86 3.17zm66.92 -65.78l-107.56 -65.08 3.04 -16.73 124.05 -25.85 -3.14 17.32 -37.44 6.95 -8.77 48.42 32.75 18.84 -2.93 16.13zm-41.45 -41.69l7.11 -39.19 -34.21 6.17c-10.38,1.86 -18.93,3.12 -25.63,3.87 7.26,2.95 14.26,6.41 21.1,10.39l31.63 18.76zm65.06 -81.25l-114.45 -26.31 3.47 -15.12 114.45 26.31 -3.47 15.12zm-124.65 -14.1l-16 -3.67 3.36 -14.63 15.99 3.68 -3.35 14.62zm6.66 -28.95l-16 -3.68 3.36 -14.62 15.99 3.67 -3.35 14.63zm128.17 -0.06l-113.21 -31.25 4.13 -14.94 46.64 12.87 16.07 -58.22 -46.65 -12.88 4.12 -14.95 113.21 31.25 -4.12 14.95 -53.29 -14.71 -16.07 58.22 53.3 14.71 -4.13 14.95zm-74.79 -156.54l5.17 -13.06 86.46 34.22 -63.58 -92.08 5.63 -14.25 109.21 43.23 -5.17 13.06 -86.24 -34.14 63.4 91.84 -5.69 14.39 -109.19 -43.21zm291.39 -298.88l-92.27 -72.68 14.35 -18.21 82.41 29.74c7.65,2.77 13.35,4.9 17.1,6.38 -2.52,-3.69 -6.16,-9.23 -10.92,-16.58l-46.76 -72.65 12.81 -16.27 92.25 72.68 -9.19 11.67 -77.18 -60.8 56.07 87.6 -8.61 10.95 -99.47 -35.43 78.6 61.93 -9.19 11.67zm42.43 -141.95c-14.1,-13.42 -21.56,-27.72 -22.35,-42.87 -0.81,-15.15 4.49,-28.67 15.84,-40.6 7.44,-7.83 16.03,-13.08 25.76,-15.81 9.7,-2.7 19.49,-2.52 29.33,0.58 9.83,3.08 19,8.66 27.49,16.74 8.62,8.21 14.69,17.29 18.18,27.23 3.51,9.95 4,19.76 1.43,29.42 -2.54,9.71 -7.32,18.22 -14.31,25.58 -7.59,7.98 -16.32,13.24 -26.16,15.86 -9.82,2.59 -19.62,2.35 -29.39,-0.79 -9.75,-3.13 -18.35,-8.24 -25.82,-15.34zm11.22 -11.4c10.23,9.74 20.9,14.67 31.99,14.79 11.11,0.11 20.59,-3.94 28.47,-12.23 8.03,-8.44 11.64,-18.18 10.89,-29.29 -0.76,-11.1 -6.61,-21.85 -17.54,-32.25 -6.92,-6.58 -14.06,-11.16 -21.42,-13.74 -7.37,-2.57 -14.6,-2.97 -21.7,-1.19 -7.1,1.8 -13.31,5.46 -18.62,11.04 -7.53,7.92 -11.28,17.35 -11.26,28.27 0.01,10.91 6.41,22.44 19.19,34.6zm97.26 -63.67l8.56 -12.52c4.58,3.54 10.58,5.85 17.96,6.93 7.44,1.06 14.12,-1.04 20.15,-6.33 6.14,-5.39 9.6,-11.22 10.36,-17.53 0.76,-6.27 -0.84,-11.67 -4.79,-16.18 -4.25,-4.84 -9.52,-7.1 -15.76,-6.66 -6.24,0.38 -12.59,3.41 -19.02,9.04l-5.54 4.87 -8.98 -10.24c5.32,-4.67 9.12,-8.55 11.4,-11.63 2.27,-3.09 3.39,-6.87 3.31,-11.32 -0.05,-4.43 -1.5,-8.27 -4.35,-11.52 -3.36,-3.84 -7.76,-5.89 -13.22,-6.12 -5.43,-0.25 -10.68,1.84 -15.72,6.26 -4.41,3.87 -7.2,8.29 -8.35,13.26 -1.14,4.97 -0.68,9.81 1.33,14.54 2.04,4.72 3.87,8 5.46,9.8l-13.42 7.22c-13.72,-21.15 -11.67,-39.54 6.08,-55.13 8.57,-7.52 17.46,-11.05 26.67,-10.66 9.2,0.39 16.63,3.77 22.25,10.19 7.21,8.22 8.94,17.98 5.18,29.29 5.56,-2.68 11.55,-3.42 17.93,-2.26 6.36,1.22 11.91,4.47 16.6,9.81 6.66,7.61 9.3,16.52 7.95,26.78 -1.35,10.24 -6.84,19.62 -16.51,28.09 -16.59,14.57 -35.11,15.25 -55.53,2.02zm101.45 -189l13.08 -8.42 71.27 39.99 -11.11 -78.72 12.81 -8.25 12.65 100.53c1.59,12.57 1.87,21.3 0.83,26.16 -1.04,4.87 -4.31,9.06 -9.8,12.58 -3.34,2.16 -7.93,4.02 -13.82,5.58l-7.19 -11.17c4.77,-0.21 9.11,-1.58 13.01,-4.08 3.16,-2.03 5.21,-4.82 6.2,-8.35 0.97,-3.52 0.5,-9.82 -1.41,-18.9l-86.52 -46.95zm108.57 -68.68l13.8 -7.06 23.45 45.87c6.28,-3.21 10.07,-6.72 11.37,-10.48 1.3,-3.77 1.55,-11.31 0.73,-22.7 -0.63,-8.36 -0.74,-14.41 -0.3,-18.2 0.42,-3.81 1.85,-7.56 4.34,-11.25 2.46,-3.67 5.78,-6.61 9.96,-8.75 5.29,-2.7 8.11,-4.09 8.45,-4.13l6.13 11.97c-0.49,0.25 -1.44,0.7 -2.8,1.34 -1.56,0.74 -2.5,1.18 -2.84,1.36 -4.37,2.23 -7.1,4.99 -8.13,8.21 -1.09,3.26 -1.22,9.1 -0.46,17.52 1.04,10.65 0.94,17.76 -0.3,21.31 -1.22,3.52 -3.18,6.85 -5.82,9.95 7.66,-1.59 17.49,1.28 29.46,8.55l39.22 23.85 -17.09 8.75 -31.95 -19.42c-8.79,-5.41 -15.54,-8.77 -20.24,-10.06 -4.72,-1.3 -9.62,-0.65 -14.73,1.97l25.01 48.93 -13.8 7.06 -53.46 -104.59zm138.76 61.31l-48.4 -107.02 40.2 -18.18c7.07,-3.2 12.62,-5.3 16.66,-6.31 5.63,-1.5 10.79,-1.81 15.42,-0.98 4.66,0.86 9.07,3.01 13.22,6.45 4.15,3.43 7.42,7.81 9.8,13.11 4.11,9.07 4.72,18.07 1.79,26.96 -2.91,8.9 -11.91,16.76 -26.99,23.58l-27.32 12.35 19.75 43.65 -14.13 6.39zm-11.3 -62.59l27.51 -12.45c9.13,-4.12 14.82,-8.73 17.1,-13.88 2.28,-5.14 2.03,-10.79 -0.77,-16.99 -2.02,-4.46 -4.87,-7.79 -8.58,-9.97 -3.69,-2.16 -7.62,-2.92 -11.75,-2.29 -2.65,0.45 -7.2,2.11 -13.56,4.99l-27.25 12.32 17.3 38.27zm89.71 26.94l3.97 -125.66 16.06 -5.57 83.36 95.46 -16.62 5.75 -24.42 -29.22 -46.5 16.09 -0.35 37.78 -15.5 5.37zm16.01 -56.57l37.63 -13.02 -22.16 -26.8c-6.7,-8.14 -11.99,-14.97 -15.93,-20.44 0.99,7.76 1.41,15.57 1.3,23.49l-0.84 36.77zm102.68 16.85l-32.02 -113.02 14.92 -4.22 32.02 113.01 -14.92 4.23zm-47.64 -116.08l-4.48 -15.79 14.45 -4.09 4.48 15.79 -14.45 4.09zm28.58 -8.1l-4.48 -15.79 14.44 -4.09 4.48 15.78 -14.44 4.1zm61.69 112.14l-26.54 -114.43 15.11 -3.5 10.93 47.14 58.82 -13.65 -10.93 -47.14 15.11 -3.51 26.54 114.42 -15.12 3.51 -12.49 -53.85 -58.82 13.64 12.49 53.86 -15.1 3.51zm101.15 -141.62l13.94 -1.74 11.56 92.3 50.16 -100.03 15.2 -1.91 14.6 116.55 -13.93 1.75 -11.53 -92.05 -50.04 99.76 -15.34 1.93 -14.62 -116.56zm357.01 105.28l14.54 -116.57 22.99 2.87 17.13 85.94c1.6,7.99 2.71,13.97 3.4,17.95 1.85,-4.07 4.7,-10.06 8.53,-17.92l38.02 -77.6 20.55 2.56 -14.54 116.57 -14.74 -1.85 12.16 -97.5 -46 93.29 -13.83 -1.73 -21.09 -103.48 -12.38 99.3 -14.74 -1.83zm144.06 -36.76c4.41,-18.95 12.96,-32.63 25.61,-41 12.65,-8.36 26.98,-10.66 43.02,-6.92 10.52,2.45 19.39,7.18 26.68,14.19 7.24,6.99 12.05,15.53 14.36,25.58 2.33,10.03 2.17,20.78 -0.48,32.2 -2.71,11.59 -7.45,21.42 -14.25,29.48 -6.79,8.07 -15,13.45 -24.63,16.15 -9.64,2.72 -19.41,2.92 -29.3,0.62 -10.73,-2.51 -19.68,-7.36 -26.92,-14.51 -7.22,-7.16 -11.97,-15.74 -14.22,-25.74 -2.26,-10 -2.21,-20.01 0.13,-30.05zm15.51 3.89c-3.22,13.78 -2.05,25.47 3.47,35.1 5.52,9.62 13.84,15.74 24.96,18.34 11.34,2.64 21.58,0.82 30.78,-5.46 9.17,-6.29 15.47,-16.78 18.9,-31.48 2.16,-9.29 2.48,-17.77 0.97,-25.43 -1.51,-7.64 -4.84,-14.1 -9.97,-19.3 -5.15,-5.23 -11.46,-8.72 -18.95,-10.47 -10.66,-2.48 -20.67,-0.93 -30.07,4.62 -9.4,5.56 -16.09,16.92 -20.09,34.08zm104.73 50.46l15.12 1.14c-0.76,5.74 0.25,12.09 3.02,19.02 2.78,6.96 7.96,11.7 15.57,14.28 7.72,2.61 14.5,2.68 20.34,0.18 5.8,-2.48 9.68,-6.56 11.59,-12.25 2.07,-6.11 1.4,-11.79 -2.11,-16.99 -3.46,-5.21 -9.27,-9.19 -17.36,-11.93l-6.98 -2.35 4.36 -12.91c6.7,2.26 11.97,3.62 15.77,4.04 3.82,0.43 7.65,-0.51 11.46,-2.8 3.81,-2.26 6.41,-5.44 7.79,-9.54 1.63,-4.82 1.2,-9.67 -1.32,-14.51 -2.5,-4.82 -6.95,-8.32 -13.29,-10.47 -5.56,-1.88 -10.78,-2.08 -15.66,-0.58 -4.86,1.5 -8.83,4.31 -11.93,8.44 -3.05,4.13 -4.97,7.34 -5.75,9.62l-12.95 -8.01c11.43,-22.46 28.37,-29.9 50.75,-22.32 10.8,3.64 18.31,9.57 22.58,17.74 4.27,8.16 5.07,16.27 2.33,24.36 -3.51,10.35 -11.09,16.73 -22.76,19.15 5.11,3.48 8.74,8.29 10.93,14.4 2.14,6.12 2.1,12.55 -0.18,19.28 -3.23,9.58 -9.63,16.34 -19.18,20.3 -9.55,3.95 -20.4,3.89 -32.57,-0.22 -20.92,-7.08 -30.78,-22.76 -29.57,-47.07zm215.04 -8.93l13.86 7.08 1.22 81.72 62.47 -49.15 13.57 6.93 -80.55 61.44c-10.08,7.69 -17.48,12.32 -22.21,13.87 -4.74,1.53 -9.99,0.81 -15.8,-2.16 -3.54,-1.81 -7.44,-4.85 -11.76,-9.15l6.05 -11.83c2.59,4.02 5.94,7.09 10.06,9.2 3.34,1.71 6.78,2.08 10.33,1.17 3.53,-0.93 8.74,-4.5 15.63,-10.71l-2.87 -98.41zm108.92 57.3l13.4 7.79 -25.88 44.54c6.1,3.55 11.09,4.84 14.95,3.89 3.89,-0.94 10.36,-4.83 19.49,-11.66 6.69,-5.06 11.72,-8.43 15.15,-10.1 3.42,-1.71 7.36,-2.53 11.8,-2.44 4.43,0.07 8.7,1.28 12.75,3.64 5.14,2.99 7.83,4.62 8.05,4.87l-6.77 11.64c-0.47,-0.28 -1.35,-0.82 -2.64,-1.64 -1.45,-0.9 -2.33,-1.46 -2.65,-1.64 -4.26,-2.47 -8.04,-3.28 -11.32,-2.4 -3.33,0.83 -8.31,3.89 -14.98,9.09 -8.38,6.64 -14.41,10.41 -18.07,11.28 -3.63,0.87 -7.49,1.03 -11.52,0.48 5.47,5.59 8.38,15.41 8.75,29.41l1.16 45.9 -16.6 -9.65 -0.97 -37.37c-0.2,-10.33 -1.02,-17.83 -2.47,-22.48 -1.48,-4.67 -4.67,-8.43 -9.63,-11.32l-27.61 47.52 -13.41 -7.79 59.02 -101.56zm22.55 151.52l67.98 -95.78 35.98 25.55c6.32,4.49 10.93,8.23 13.85,11.21 4.12,4.11 6.99,8.4 8.62,12.83 1.6,4.46 1.96,9.35 1.1,14.66 -0.87,5.33 -3.01,10.35 -6.38,15.1 -5.76,8.11 -13.22,13.17 -22.38,15.12 -9.14,1.98 -20.48,-1.83 -33.96,-11.41l-24.45 -17.36 -27.73 39.06 -12.63 -8.98zm48.34 -41.32l24.61 17.48c8.17,5.8 15.02,8.38 20.62,7.76 5.59,-0.61 10.33,-3.68 14.27,-9.24 2.84,-3.99 4.28,-8.12 4.28,-12.42 0.01,-4.28 -1.31,-8.07 -3.95,-11.3 -1.73,-2.08 -5.45,-5.17 -11.15,-9.22l-24.37 -17.31 -24.31 34.25zm23.18 89.54l110.94 -59.11 12.83 11.18 -41.29 119.82 -13.27 -11.56 13.19 -35.72 -37.09 -32.34 -32.95 18.5 -12.36 -10.77zm57.02 -14.27l30.03 26.17 12.2 -32.56c3.73,-9.87 7.02,-17.86 9.8,-24 -6.23,4.72 -12.8,8.97 -19.72,12.81l-32.31 17.58zm37.04 96.86l81.35 -84.72 11.2 10.75 -81.37 84.72 -11.18 -10.75zm76.11 -99.75l11.37 -11.84 10.83 10.4 -11.37 11.84 -10.83 -10.4zm21.43 20.58l11.36 -11.84 10.83 10.4 -11.36 11.84 -10.83 -10.4zm-65.23 109.52l85.06 -80.97 10.7 11.23 -35.07 33.36 41.64 43.75 35.05 -33.35 10.7 11.23 -85.09 80.98 -10.68 -11.24 40.03 -38.12 -41.62 -43.75 -40.04 38.11 -10.68 -11.23zm173.6 14.48l8.61 11.08 -73.41 57.1 111.6 -7.98 9.39 12.1 -92.72 72.1 -8.61 -11.09 73.22 -56.94 -111.3 7.95 -9.5 -12.23 92.72 -72.09zm112.1 401.26l109.27 -43.03 8.49 21.56 -67.23 56.19c-6.25,5.21 -10.96,9.05 -14.12,11.56 4.44,-0.32 11.07,-0.68 19.82,-1.09l86.3 -3.75 7.59 19.27 -109.29 43.04 -5.44 -13.84 91.42 -35.99 -103.9 4.25 -5.11 -12.97 80.74 -68.04 -93.09 36.66 -5.45 -13.82zm102.21 108.42c18.75,-5.23 34.85,-4.31 48.26,2.76 13.42,7.07 22.33,18.54 26.76,34.42 2.9,10.4 3.02,20.45 0.38,30.2 -2.65,9.72 -7.83,18.04 -15.52,24.9 -7.68,6.87 -17.18,11.9 -28.47,15.05 -11.45,3.2 -22.37,3.77 -32.69,1.68 -10.34,-2.08 -19.01,-6.7 -26,-13.84 -7.02,-7.15 -11.89,-15.63 -14.63,-25.4 -2.95,-10.61 -3.01,-20.8 -0.21,-30.58 2.8,-9.77 8.03,-18.07 15.73,-24.85 7.68,-6.79 16.48,-11.56 26.39,-14.34zm4.05 15.49c-13.61,3.8 -23.31,10.44 -29.09,19.91 -5.78,9.46 -7.16,19.71 -4.08,30.71 3.12,11.22 9.64,19.31 19.58,24.36 9.91,5.02 22.15,5.51 36.67,1.45 9.19,-2.57 16.79,-6.36 22.77,-11.36 5.97,-5.01 10.03,-11.03 12.13,-18.03 2.1,-7.03 2.13,-14.25 0.06,-21.65 -2.94,-10.54 -9.11,-18.59 -18.5,-24.15 -9.38,-5.58 -22.57,-5.99 -39.54,-1.24zm6.66 115.86l6.31 13.79c-5.39,2.11 -10.45,6.06 -15.19,11.83 -4.72,5.82 -6.4,12.63 -4.96,20.54 1.45,8.02 4.66,13.99 9.68,17.9 4.97,3.89 10.42,5.3 16.32,4.23 6.35,-1.14 11,-4.49 13.85,-10.07 2.89,-5.55 3.55,-12.55 2.04,-20.96l-1.31 -7.26 13.4 -2.43c1.26,6.97 2.62,12.23 4.1,15.78 1.47,3.54 4.14,6.44 7.98,8.67 3.83,2.24 7.87,2.97 12.12,2.21 5.01,-0.91 9.05,-3.62 12.05,-8.19 3.02,-4.52 3.92,-10.1 2.75,-16.68 -1.05,-5.79 -3.4,-10.46 -7.07,-13.99 -3.66,-3.54 -8.04,-5.66 -13.15,-6.36 -5.09,-0.69 -8.83,-0.82 -11.21,-0.38l0.75 -15.23c25.19,-0.85 39.87,10.38 44.08,33.64 2.03,11.21 0.48,20.66 -4.6,28.35 -5.08,7.68 -11.8,12.3 -20.2,13.82 -10.75,1.94 -20.01,-1.61 -27.76,-10.66 -0.58,6.16 -3.03,11.66 -7.32,16.53 -4.32,4.83 -9.96,7.9 -16.96,9.17 -9.94,1.8 -18.95,-0.53 -27.03,-6.98 -8.09,-6.44 -13.28,-15.98 -15.56,-28.62 -3.93,-21.73 5.03,-37.96 26.89,-48.65zm113.08 184.32l0.44 15.55 -71.09 40.29 73.1 31.23 0.42 15.23 -92.54 -41.18c-11.59,-5.15 -19.2,-9.42 -22.83,-12.84 -3.61,-3.41 -5.51,-8.37 -5.69,-14.89 -0.12,-3.97 0.69,-8.86 2.39,-14.71l13.27 -0.38c-2.29,4.21 -3.37,8.62 -3.23,13.24 0.1,3.75 1.43,6.96 3.93,9.63 2.5,2.66 8.14,5.52 16.89,8.57l84.94 -49.74zm2.95 123.32l-0.43 15.5 -51.48 -1.44c-0.2,7.05 1.04,12.06 3.73,15 2.68,2.96 9.19,6.79 19.57,11.54 7.63,3.45 12.99,6.27 16.11,8.48 3.13,2.18 5.74,5.25 7.78,9.2 2.05,3.91 3.03,8.24 2.89,12.93 -0.16,5.95 -0.31,9.08 -0.42,9.41l-13.45 -0.38c0.02,-0.55 0.07,-1.59 0.16,-3.1 0.11,-1.71 0.17,-2.75 0.18,-3.12 0.14,-4.92 -0.96,-8.64 -3.3,-11.09 -2.33,-2.52 -7.4,-5.43 -15.15,-8.81 -9.84,-4.2 -16.03,-7.69 -18.55,-10.48 -2.5,-2.77 -4.48,-6.08 -5.93,-9.89 -2.29,7.48 -9.52,14.74 -21.65,21.75l-39.74 22.97 0.54 -19.2 32.36 -18.72c8.96,-5.11 15.15,-9.42 18.54,-12.93 3.4,-3.52 5.18,-8.13 5.33,-13.87l-54.93 -1.54 0.45 -15.49 117.39 3.28zm-119.98 92.43l116.55 14.42 -5.41 43.79c-0.96,7.71 -2.07,13.53 -3.31,17.53 -1.65,5.57 -4.07,10.14 -7.2,13.66 -3.16,3.53 -7.29,6.17 -12.38,7.93 -5.1,1.76 -10.53,2.26 -16.31,1.55 -9.87,-1.23 -17.86,-5.4 -23.92,-12.53 -6.09,-7.12 -8.11,-18.91 -6.08,-35.33l3.68 -29.76 -47.51 -5.87 1.89 -15.39zm59.3 22.95l-3.71 29.98c-1.22,9.93 -0.26,17.19 2.95,21.83 3.2,4.62 8.15,7.35 14.91,8.19 4.84,0.6 9.18,-0.1 12.96,-2.14 3.77,-2.02 6.47,-4.98 8.08,-8.83 1.01,-2.52 1.95,-7.25 2.81,-14.19l3.67 -29.68 -41.67 -5.16zm-68.94 62.62l107.55 65.07 -3.04 16.73 -124.04 25.86 3.15 -17.32 37.43 -6.95 8.78 -48.42 -32.75 -18.84 2.92 -16.13zm41.44 41.68l-7.1 39.2 34.2 -6.18c10.4,-1.85 18.94,-3.11 25.62,-3.87 -7.23,-2.94 -14.24,-6.4 -21.08,-10.39l-31.64 -18.76zm-65.68 81.11l114.45 26.32 -3.47 15.12 -114.45 -26.31 3.47 -15.13zm124.66 14.11l15.99 3.67 -3.35 14.63 -16 -3.68 3.36 -14.62zm-6.65 28.94l15.98 3.69 -3.35 14.62 -15.99 -3.67 3.36 -14.64zm-128.75 -0.07l113.25 31.12 -4.1 14.94 -46.66 -12.81 -16 58.24 46.66 12.82 -4.11 14.96 -113.24 -31.11 4.1 -14.97 53.3 14.65 16 -58.25 -53.3 -14.64 4.1 -14.95zm73.39 155.85l-5.15 13.07 -86.53 -34.08 63.74 91.97 -5.61 14.25 -109.28 -43.03 5.14 -13.07 86.31 33.99 -63.57 -91.74 5.67 -14.39 109.28 43.03zm-294.76 297.16l92.51 72.34 -14.27 18.26 -82.52 -29.43c-7.66,-2.75 -13.37,-4.86 -17.12,-6.32 2.52,3.68 6.19,9.21 10.98,16.53l47.03 72.48 -12.76 16.32 -92.51 -72.35 9.14 -11.7 77.41 60.52 -56.4 -87.4 8.58 -10.98 99.6 35.07 -78.84 -61.64 9.17 -11.7zm-43.54 144.85c13.43,14.09 20.19,28.74 20.26,43.9 0.06,15.17 -5.87,28.42 -17.79,39.79 -7.81,7.47 -16.63,12.29 -26.49,14.55 -9.82,2.22 -19.59,1.57 -29.26,-2 -9.68,-3.55 -18.57,-9.57 -26.66,-18.06 -8.22,-8.61 -13.84,-17.97 -16.86,-28.06 -3.02,-10.11 -3.02,-19.93 -0.01,-29.46 3.02,-9.56 8.21,-17.85 15.55,-24.85 7.96,-7.61 16.93,-12.44 26.89,-14.58 9.94,-2.12 19.71,-1.4 29.31,2.2 9.6,3.6 17.95,9.12 25.06,16.57zm-11.76 10.86c-9.76,-10.24 -20.18,-15.68 -31.25,-16.33 -11.06,-0.66 -20.75,2.95 -29.02,10.84 -8.43,8.04 -12.5,17.6 -12.29,28.73 0.23,11.12 5.55,22.14 15.96,33.06 6.59,6.91 13.5,11.83 20.73,14.76 7.24,2.92 14.46,3.67 21.61,2.24 7.2,-1.45 13.58,-4.83 19.14,-10.13 7.91,-7.55 12.11,-16.78 12.61,-27.69 0.51,-10.91 -5.32,-22.74 -17.49,-35.48zm-97.42 59.55l-8.57 12.54c-4.58,-3.54 -10.58,-5.85 -17.97,-6.92 -7.42,-1.06 -14.11,1.03 -20.15,6.33 -6.13,5.37 -9.58,11.22 -10.35,17.52 -0.75,6.28 0.84,11.68 4.79,16.18 4.26,4.85 9.52,7.1 15.77,6.67 6.24,-0.38 12.6,-3.42 19.02,-9.05l5.54 -4.88 8.98 10.24c-5.32,4.67 -9.12,8.55 -11.4,11.64 -2.28,3.09 -3.38,6.87 -3.3,11.32 0.05,4.43 1.5,8.27 4.35,11.52 3.36,3.82 7.77,5.89 13.22,6.11 5.43,0.26 10.68,-1.84 15.71,-6.25 4.42,-3.87 7.2,-8.29 8.35,-13.27 1.14,-4.97 0.69,-9.81 -1.34,-14.55 -2.04,-4.71 -3.86,-7.99 -5.44,-9.8l13.42 -7.21c13.71,21.15 11.67,39.52 -6.1,55.12 -8.55,7.52 -17.44,11.06 -26.65,10.68 -9.2,-0.4 -16.63,-3.77 -22.26,-10.19 -7.2,-8.22 -8.92,-17.98 -5.18,-29.29 -5.56,2.68 -11.54,3.41 -17.93,2.25 -6.37,-1.2 -11.91,-4.45 -16.59,-9.8 -6.68,-7.6 -9.33,-16.51 -7.97,-26.77 1.36,-10.25 6.85,-19.62 16.49,-28.09 16.61,-14.57 35.12,-15.26 55.56,-2.05zm-102.77 187.29l-13.08 8.43 -71.26 -39.99 11.12 78.73 -12.82 8.24 -12.66 -100.53c-1.58,-12.57 -1.87,-21.29 -0.84,-26.16 1.06,-4.86 4.31,-9.05 9.8,-12.59 3.35,-2.15 7.93,-4 13.82,-5.57l7.2 11.17c-4.78,0.21 -9.12,1.57 -13.02,4.08 -3.15,2.03 -5.2,4.82 -6.19,8.35 -0.97,3.52 -0.5,9.82 1.42,18.9l86.51 46.94zm-109.24 67.52l-13.81 7.06 -23.44 -45.86c-6.27,3.2 -10.07,6.71 -11.36,10.47 -1.31,3.77 -1.54,11.32 -0.73,22.71 0.64,8.36 0.74,14.41 0.29,18.2 -0.41,3.81 -1.85,7.56 -4.33,11.25 -2.45,3.68 -5.78,6.62 -9.95,8.74 -5.31,2.72 -8.12,4.09 -8.46,4.14l-6.13 -11.97c0.5,-0.26 1.42,-0.7 2.81,-1.35 1.55,-0.72 2.48,-1.18 2.82,-1.34 4.39,-2.24 7.11,-5 8.14,-8.23 1.1,-3.24 1.21,-9.09 0.46,-17.51 -1.04,-10.65 -0.96,-17.76 0.3,-21.31 1.22,-3.51 3.18,-6.85 5.82,-9.95 -7.66,1.59 -17.49,-1.27 -29.47,-8.55l-39.22 -23.86 17.09 -8.73 31.95 19.4c8.79,5.42 15.55,8.78 20.24,10.07 4.73,1.3 9.62,0.64 14.73,-1.98l-25.01 -48.92 13.8 -7.07 53.46 104.59zm-139.05 -61.88l48.4 107.03 -40.2 18.18c-7.08,3.2 -12.63,5.29 -16.67,6.31 -5.63,1.5 -10.78,1.81 -15.41,0.97 -4.67,-0.86 -9.08,-3.02 -13.22,-6.45 -4.16,-3.43 -7.43,-7.81 -9.82,-13.11 -4.09,-9.07 -4.7,-18.07 -1.77,-26.96 2.91,-8.89 11.91,-16.76 26.99,-23.58l27.32 -12.35 -19.73 -43.65 14.11 -6.39zm11.3 62.6l-27.51 12.44c-9.13,4.12 -14.82,8.73 -17.12,13.89 -2.27,5.13 -2.01,10.77 0.8,16.99 2.01,4.45 4.86,7.79 8.56,9.95 3.69,2.18 7.62,2.94 11.75,2.3 2.67,-0.45 7.2,-2.1 13.58,-4.98l27.24 -12.33 -17.3 -38.26zm-90.15 -28.08l-3.96 125.66 -16.07 5.57 -83.36 -95.46 16.62 -5.75 24.42 29.22 46.5 -16.09 0.35 -37.79 15.5 -5.36zm-16.01 56.57l-37.63 13.02 22.16 26.79c6.7,8.15 12,14.97 15.93,20.45 -0.98,-7.77 -1.41,-15.58 -1.29,-23.49l0.83 -36.77zm-102.9 -17.58l32.02 113.02 -14.92 4.22 -32.03 -113.01 14.93 -4.23zm47.63 116.08l4.49 15.79 -14.45 4.09 -4.47 -15.79 14.43 -4.09zm-28.57 8.1l4.48 15.79 -14.44 4.09 -4.49 -15.78 14.45 -4.1zm-61.85 -112.77l26.53 114.43 -15.09 3.5 -10.94 -47.14 -58.82 13.65 10.93 47.14 -15.11 3.51 -26.54 -114.42 15.11 -3.51 12.49 53.86 58.82 -13.65 -12.49 -53.86 15.11 -3.51zm-101.4 140.27l-13.93 1.74 -11.57 -92.3 -50.16 100.03 -15.19 1.92 -14.61 -116.56 13.93 -1.75 11.53 92.05 50.05 -99.76 15.34 -1.93 14.61 116.56z"/>
   <g id="_1527966539584">
    <path class="fil4" d="M941.78 1201.93c0,33.63 -0.41,160.93 36.19,160.93l32.88 -1.62c-14.75,-131.29 -32.22,-234.19 64.06,-363.32 125.15,-167.87 309.31,-144.41 437.66,33.08 15.82,21.86 31.49,58.1 46.98,77.82 44.99,-42 91.6,-223.92 292.89,-223.92 168.19,0 283.45,196.12 272.86,366.01 -6.78,108.83 -36.63,109.81 32.83,109.81 27.82,-118.88 20.98,-67.04 20.98,-193.78 0,-75.4 -49.16,-187.32 -86.19,-233.46 -175,-218.12 -423.79,-110.62 -525.16,137.65 -21.64,-11.07 -22.29,-21.75 -35.14,-46.15 -11,-20.86 -15.71,-29.36 -28.82,-48.08 -239.21,-341.46 -562.02,-78.61 -562.02,225.03z"/>
    <path class="fil4" d="M1368.52 1587.7c-26.42,-13.16 -10.31,-47.95 -33.76,-84.42l-108.58 -24.38 -11.02 -24.21c-38.72,-81.8 -84.14,26.84 -95.13,41.14l-232.99 -0.3c-30.67,-1.71 -35.63,4.44 -39.85,26.13 30.74,18.15 204.76,9.13 250.58,9.13 66.88,0 49.62,-37.57 82.16,-68.75 21.07,21.08 14.76,44.46 38.4,59.22 23.68,14.78 63.86,5.19 94.23,10.75 16.94,44.46 28.71,182.88 64.18,202.93 12.05,-10.85 13.79,-16.78 16.96,-47.02 12.95,-123.51 7.9,-277.55 31.08,-423.93 26.31,45.23 12.27,329.39 45.04,383.62 27.81,-5.41 26.19,-24.96 41.18,-52.83 12.91,-24 23.64,-43.09 34.84,-62.77 128.27,-23.49 95.96,40.33 180.3,-92.4 14.93,-23.5 1.72,-9.8 21.37,-22.91 33.84,34.8 40.43,108.15 104.88,112.33 67.92,4.4 146.13,-1.11 216.93,1.76 43.13,-19.96 25.2,-47.34 65.1,-65.11 21.87,66.06 28.92,66.33 95.8,66.33 37.44,0 27.25,4.61 27.97,-30.41l-55.95 0c-44.31,0 -19.46,-45.37 -69.95,-68.74 -66.46,14.23 -12.12,68.74 -111.94,68.74l-160.69 0c-63.22,0 -61.27,-98.5 -112.15,-125.95 -42.77,23.67 -42.38,59.99 -71.68,97.37 -31.45,40.11 -81.08,28.58 -146.4,28.58 -17.37,27.31 -25,50.7 -42.91,64.2l-38.84 -392.7c-4.69,-45.74 6.05,-103.4 -28.98,-117.65 -25.25,26.96 -24.63,211.02 -28.32,258.55 -6.82,87.61 -19.6,184.47 -21.86,273.7z"/>
    <path class="fil4" d="M1085.06 1594.69c46.3,103.51 251.27,247.55 344.17,317.5 146.88,110.61 123,94.03 277.83,-8.93 103.03,-68.52 161.47,-116.98 246.37,-201.47 16.68,-16.59 115.27,-112.87 66.92,-112.87 -62.58,0 -62.52,44.05 -114.9,92.85l-52.83 45.2c-49.33,42.72 -245.2,191.02 -293.74,189.29 -60.78,-2.16 -321.67,-197.9 -390.45,-288.93 -36.96,-48.9 -74.93,-42.01 -83.37,-32.64z"/>
   </g>
  </g>
 </g>
 <g id="Слой_x0020_1_1">
  <metadata id="CorelCorpID_1Corel-Layer"/>
 </g>
</svg>
