<?xml version="1.0" encoding="UTF-8"?>
<!DOCTYPE svg PUBLIC "-//W3C//DTD SVG 1.1//EN" "http://www.w3.org/Graphics/SVG/1.1/DTD/svg11.dtd">
<!-- Creator: CorelDRAW 2019 (64-Bit) -->
<svg xmlns="http://www.w3.org/2000/svg" xml:space="preserve" width="31mm" height="31mm" version="1.1" style="shape-rendering:geometricPrecision; text-rendering:geometricPrecision; image-rendering:optimizeQuality; fill-rule:evenodd; clip-rule:evenodd"
viewBox="0 0 3100 3100"
 xmlns:xlink="http://www.w3.org/1999/xlink"
 xmlns:xodm="http://www.corel.com/coreldraw/odm/2003">
 <defs>
  <style type="text/css">
   <![CDATA[
    .str0 {stroke:#393185;stroke-width:210;stroke-miterlimit:22.9256}
    .str4 {stroke:#393185;stroke-width:40;stroke-miterlimit:22.9256}
    .str5 {stroke:#393185;stroke-width:30;stroke-miterlimit:22.9256}
    .str6 {stroke:#393185;stroke-width:20;stroke-miterlimit:22.9256}
    .str2 {stroke:#393185;stroke-width:15;stroke-miterlimit:22.9256}
    .str7 {stroke:#393185;stroke-width:10;stroke-miterlimit:22.9256}
    .str3 {stroke:#393185;stroke-width:25;stroke-linejoin:round;stroke-miterlimit:22.9256}
    .str1 {stroke:#393185;stroke-width:20;stroke-linecap:round;stroke-linejoin:round;stroke-miterlimit:22.9256}
    .fil0 {fill:none}
    .fil61 {fill:none;fill-rule:nonzero}
    .fil63 {fill:#393185}
    .fil62 {fill:#393185;fill-rule:nonzero}
    .fil7 {fill:url(#id0);fill-rule:nonzero}
    .fil53 {fill:url(#id1);fill-rule:nonzero}
    .fil12 {fill:url(#id2);fill-rule:nonzero}
    .fil25 {fill:url(#id3);fill-rule:nonzero}
    .fil56 {fill:url(#id4);fill-rule:nonzero}
    .fil16 {fill:url(#id5);fill-rule:nonzero}
    .fil58 {fill:url(#id6);fill-rule:nonzero}
    .fil23 {fill:url(#id7);fill-rule:nonzero}
    .fil44 {fill:url(#id8);fill-rule:nonzero}
    .fil46 {fill:url(#id9);fill-rule:nonzero}
    .fil32 {fill:url(#id10);fill-rule:nonzero}
    .fil50 {fill:url(#id11);fill-rule:nonzero}
    .fil27 {fill:url(#id12);fill-rule:nonzero}
    .fil37 {fill:url(#id13);fill-rule:nonzero}
    .fil22 {fill:url(#id14);fill-rule:nonzero}
    .fil34 {fill:url(#id15);fill-rule:nonzero}
    .fil29 {fill:url(#id16);fill-rule:nonzero}
    .fil24 {fill:url(#id17);fill-rule:nonzero}
    .fil49 {fill:url(#id18);fill-rule:nonzero}
    .fil45 {fill:url(#id19);fill-rule:nonzero}
    .fil10 {fill:url(#id20);fill-rule:nonzero}
    .fil57 {fill:url(#id21);fill-rule:nonzero}
    .fil42 {fill:url(#id22);fill-rule:nonzero}
    .fil38 {fill:url(#id23);fill-rule:nonzero}
    .fil3 {fill:url(#id24);fill-rule:nonzero}
    .fil6 {fill:url(#id25);fill-rule:nonzero}
    .fil21 {fill:url(#id26);fill-rule:nonzero}
    .fil43 {fill:url(#id27);fill-rule:nonzero}
    .fil48 {fill:url(#id28);fill-rule:nonzero}
    .fil20 {fill:url(#id29);fill-rule:nonzero}
    .fil17 {fill:url(#id30);fill-rule:nonzero}
    .fil11 {fill:url(#id31);fill-rule:nonzero}
    .fil14 {fill:url(#id32);fill-rule:nonzero}
    .fil8 {fill:url(#id33);fill-rule:nonzero}
    .fil13 {fill:url(#id34);fill-rule:nonzero}
    .fil28 {fill:url(#id35);fill-rule:nonzero}
    .fil33 {fill:url(#id36);fill-rule:nonzero}
    .fil2 {fill:url(#id37);fill-rule:nonzero}
    .fil1 {fill:url(#id38);fill-rule:nonzero}
    .fil9 {fill:url(#id39);fill-rule:nonzero}
    .fil40 {fill:url(#id40);fill-rule:nonzero}
    .fil39 {fill:url(#id41);fill-rule:nonzero}
    .fil5 {fill:url(#id42);fill-rule:nonzero}
    .fil31 {fill:url(#id43);fill-rule:nonzero}
    .fil51 {fill:url(#id44);fill-rule:nonzero}
    .fil19 {fill:url(#id45);fill-rule:nonzero}
    .fil47 {fill:url(#id46);fill-rule:nonzero}
    .fil15 {fill:url(#id47);fill-rule:nonzero}
    .fil18 {fill:url(#id48);fill-rule:nonzero}
    .fil55 {fill:url(#id49);fill-rule:nonzero}
    .fil4 {fill:url(#id50);fill-rule:nonzero}
    .fil52 {fill:url(#id51);fill-rule:nonzero}
    .fil41 {fill:url(#id52);fill-rule:nonzero}
    .fil26 {fill:url(#id53);fill-rule:nonzero}
    .fil59 {fill:url(#id54);fill-rule:nonzero}
    .fil36 {fill:url(#id55);fill-rule:nonzero}
    .fil54 {fill:url(#id56);fill-rule:nonzero}
    .fil35 {fill:url(#id57);fill-rule:nonzero}
    .fil30 {fill:url(#id58);fill-rule:nonzero}
    .fil60 {fill:url(#id59);fill-rule:nonzero}
   ]]>
  </style>
  <linearGradient id="id0" gradientUnits="userSpaceOnUse" x1="549.75" y1="2516.25" x2="664.46" y2="2516.25">
   <stop offset="0" style="stop-opacity:1; stop-color:#FEFEFE"/>
   <stop offset="1" style="stop-opacity:1; stop-color:#FEFEFE"/>
  </linearGradient>
  <linearGradient id="id1" gradientUnits="userSpaceOnUse" xlink:href="#id0" x1="2423.84" y1="2528.44" x2="2533.01" y2="2528.44">
  </linearGradient>
  <linearGradient id="id2" gradientUnits="userSpaceOnUse" xlink:href="#id0" x1="238.9" y1="2023.26" x2="365.63" y2="2023.26">
  </linearGradient>
  <linearGradient id="id3" gradientUnits="userSpaceOnUse" xlink:href="#id0" x1="796.98" y1="390.07" x2="921.9" y2="390.07">
  </linearGradient>
  <linearGradient id="id4" gradientUnits="userSpaceOnUse" xlink:href="#id0" x1="2161.72" y1="2732.26" x2="2257.84" y2="2732.26">
  </linearGradient>
  <linearGradient id="id5" gradientUnits="userSpaceOnUse" xlink:href="#id0" x1="172.71" y1="1252.03" x2="298.67" y2="1252.03">
  </linearGradient>
  <linearGradient id="id6" gradientUnits="userSpaceOnUse" xlink:href="#id0" x1="2002.51" y1="2824.94" x2="2079.09" y2="2824.94">
  </linearGradient>
  <linearGradient id="id7" gradientUnits="userSpaceOnUse" xlink:href="#id0" x1="600.64" y1="541.39" x2="708.16" y2="541.39">
  </linearGradient>
  <linearGradient id="id8" gradientUnits="userSpaceOnUse" xlink:href="#id0" x1="2779.11" y1="1170.67" x2="2911.5" y2="1170.67">
  </linearGradient>
  <linearGradient id="id9" gradientUnits="userSpaceOnUse" xlink:href="#id0" x1="2811.56" y1="1805.38" x2="2935.46" y2="1805.38">
  </linearGradient>
  <linearGradient id="id10" gradientUnits="userSpaceOnUse" xlink:href="#id0" x1="1886.53" y1="248.8" x2="1931.91" y2="248.8">
  </linearGradient>
  <linearGradient id="id11" gradientUnits="userSpaceOnUse" xlink:href="#id0" x1="2717.15" y1="2154.11" x2="2824.58" y2="2154.11">
  </linearGradient>
  <linearGradient id="id12" gradientUnits="userSpaceOnUse" xlink:href="#id0" x1="1008.17" y1="309.82" x2="1107.19" y2="309.82">
  </linearGradient>
  <linearGradient id="id13" gradientUnits="userSpaceOnUse" xlink:href="#id0" x1="2405.91" y1="555.42" x2="2520.62" y2="555.42">
  </linearGradient>
  <linearGradient id="id14" gradientUnits="userSpaceOnUse" xlink:href="#id0" x1="511.87" y1="621.88" x2="627.24" y2="621.88">
  </linearGradient>
  <linearGradient id="id15" gradientUnits="userSpaceOnUse" xlink:href="#id0" x1="2004.09" y1="313.16" x2="2102.52" y2="313.16">
  </linearGradient>
  <linearGradient id="id16" gradientUnits="userSpaceOnUse" xlink:href="#id0" x1="1132.64" y1="249.07" x2="1248.05" y2="249.07">
  </linearGradient>
  <linearGradient id="id17" gradientUnits="userSpaceOnUse" xlink:href="#id0" x1="694.87" y1="444.28" x2="794.39" y2="444.28">
  </linearGradient>
  <linearGradient id="id18" gradientUnits="userSpaceOnUse" xlink:href="#id0" x1="2730.38" y1="2034.3" x2="2858.26" y2="2034.3">
  </linearGradient>
  <linearGradient id="id19" gradientUnits="userSpaceOnUse" xlink:href="#id0" x1="2810.87" y1="1287.32" x2="2938.04" y2="1287.32">
  </linearGradient>
  <linearGradient id="id20" gradientUnits="userSpaceOnUse" xlink:href="#id0" x1="311.48" y1="2222.78" x2="448.18" y2="2222.78">
  </linearGradient>
  <linearGradient id="id21" gradientUnits="userSpaceOnUse" xlink:href="#id0" x1="2031.69" y1="2771.82" x2="2135.37" y2="2771.82">
  </linearGradient>
  <linearGradient id="id22" gradientUnits="userSpaceOnUse" xlink:href="#id0" x1="2716.55" y1="1035.04" x2="2843.95" y2="1035.04">
  </linearGradient>
  <linearGradient id="id23" gradientUnits="userSpaceOnUse" xlink:href="#id0" x1="2488.58" y1="636.26" x2="2596.65" y2="636.26">
  </linearGradient>
  <linearGradient id="id24" gradientUnits="userSpaceOnUse" xlink:href="#id0" x1="1019.02" y1="2814.37" x2="1132.71" y2="2814.37">
  </linearGradient>
  <linearGradient id="id25" gradientUnits="userSpaceOnUse" xlink:href="#id0" x1="630.79" y1="2605.13" x2="785.27" y2="2605.13">
  </linearGradient>
  <linearGradient id="id26" gradientUnits="userSpaceOnUse" xlink:href="#id0" x1="404.52" y1="724.15" x2="559.86" y2="724.15">
  </linearGradient>
  <linearGradient id="id27" gradientUnits="userSpaceOnUse" xlink:href="#id0" x1="2764.22" y1="1081.52" x2="2901.98" y2="1081.52">
  </linearGradient>
  <linearGradient id="id28" gradientUnits="userSpaceOnUse" xlink:href="#id0" x1="2769.07" y1="1963.73" x2="2901.45" y2="1963.73">
  </linearGradient>
  <linearGradient id="id29" gradientUnits="userSpaceOnUse" xlink:href="#id0" x1="294.94" y1="907.19" x2="400.27" y2="907.19">
  </linearGradient>
  <linearGradient id="id30" gradientUnits="userSpaceOnUse" xlink:href="#id0" x1="197.93" y1="1171.04" x2="310.57" y2="1171.04">
  </linearGradient>
  <linearGradient id="id31" gradientUnits="userSpaceOnUse" xlink:href="#id0" x1="274.15" y1="2150.33" x2="402.65" y2="2150.33">
  </linearGradient>
  <linearGradient id="id32" gradientUnits="userSpaceOnUse" xlink:href="#id0" x1="177.31" y1="1889.91" x2="309.7" y2="1889.91">
  </linearGradient>
  <linearGradient id="id33" gradientUnits="userSpaceOnUse" xlink:href="#id0" x1="473.2" y1="2430" x2="582.96" y2="2430">
  </linearGradient>
  <linearGradient id="id34" gradientUnits="userSpaceOnUse" xlink:href="#id0" x1="184.84" y1="1979.69" x2="322.6" y2="1979.69">
  </linearGradient>
  <linearGradient id="id35" gradientUnits="userSpaceOnUse" xlink:href="#id0" x1="1065.74" y1="260.27" x2="1136.04" y2="260.27">
  </linearGradient>
  <linearGradient id="id36" gradientUnits="userSpaceOnUse" xlink:href="#id0" x1="1927.98" y1="271.29" x2="2038.17" y2="271.29">
  </linearGradient>
  <linearGradient id="id37" gradientUnits="userSpaceOnUse" xlink:href="#id0" x1="1128.63" y1="2840.23" x2="1174.01" y2="2840.23">
  </linearGradient>
  <linearGradient id="id38" gradientUnits="userSpaceOnUse" xlink:href="#id0" x1="1175.61" y1="2859.62" x2="1288.61" y2="2859.62">
  </linearGradient>
  <linearGradient id="id39" gradientUnits="userSpaceOnUse" xlink:href="#id0" x1="362.5" y1="2338.64" x2="502.36" y2="2338.64">
  </linearGradient>
  <linearGradient id="id40" gradientUnits="userSpaceOnUse" xlink:href="#id0" x1="2629.28" y1="840.49" x2="2766.21" y2="840.49">
  </linearGradient>
  <linearGradient id="id41" gradientUnits="userSpaceOnUse" xlink:href="#id0" x1="2573.86" y1="727.96" x2="2713.72" y2="727.96">
  </linearGradient>
  <linearGradient id="id42" gradientUnits="userSpaceOnUse" xlink:href="#id0" x1="829.67" y1="2742.12" x2="949.26" y2="2742.12">
  </linearGradient>
  <linearGradient id="id43" gradientUnits="userSpaceOnUse" xlink:href="#id0" x1="1771.48" y1="231.07" x2="1884.48" y2="231.07">
  </linearGradient>
  <linearGradient id="id44" gradientUnits="userSpaceOnUse" xlink:href="#id0" x1="2565.61" y1="2341.05" x2="2720.27" y2="2341.05">
  </linearGradient>
  <linearGradient id="id45" gradientUnits="userSpaceOnUse" xlink:href="#id0" x1="260.07" y1="1025.8" x2="388.66" y2="1025.8">
  </linearGradient>
  <linearGradient id="id46" gradientUnits="userSpaceOnUse" xlink:href="#id0" x1="2800.26" y1="1889.51" x2="2912.9" y2="1889.51">
  </linearGradient>
  <linearGradient id="id47" gradientUnits="userSpaceOnUse" xlink:href="#id0" x1="154.57" y1="1772.36" x2="281.74" y2="1772.36">
  </linearGradient>
  <linearGradient id="id48" gradientUnits="userSpaceOnUse" xlink:href="#id0" x1="211.73" y1="1097.51" x2="344.11" y2="1097.51">
  </linearGradient>
  <linearGradient id="id49" gradientUnits="userSpaceOnUse" xlink:href="#id0" x1="2213.25" y1="2686.73" x2="2340.09" y2="2686.73">
  </linearGradient>
  <linearGradient id="id50" gradientUnits="userSpaceOnUse" xlink:href="#id0" x1="956.67" y1="2767.17" x2="1057.61" y2="2767.17">
  </linearGradient>
  <linearGradient id="id51" gradientUnits="userSpaceOnUse" xlink:href="#id0" x1="2501.83" y1="2445.99" x2="2617.53" y2="2445.99">
  </linearGradient>
  <linearGradient id="id52" gradientUnits="userSpaceOnUse" xlink:href="#id0" x1="2678.8" y1="913.13" x2="2807.3" y2="913.13">
  </linearGradient>
  <linearGradient id="id53" gradientUnits="userSpaceOnUse" xlink:href="#id0" x1="883.5" y1="347.64" x2="979.23" y2="347.64">
  </linearGradient>
  <linearGradient id="id54" gradientUnits="userSpaceOnUse" xlink:href="#id0" x1="1891.25" y1="2839.75" x2="2006.66" y2="2839.75">
  </linearGradient>
  <linearGradient id="id55" gradientUnits="userSpaceOnUse" xlink:href="#id0" x1="2282.39" y1="469.6" x2="2436.87" y2="469.6">
  </linearGradient>
  <linearGradient id="id56" gradientUnits="userSpaceOnUse" xlink:href="#id0" x1="2338.79" y1="2629.97" x2="2441.21" y2="2629.97">
  </linearGradient>
  <linearGradient id="id57" gradientUnits="userSpaceOnUse" xlink:href="#id0" x1="2113.73" y1="338.35" x2="2230.94" y2="338.35">
  </linearGradient>
  <linearGradient id="id58" gradientUnits="userSpaceOnUse" xlink:href="#id0" x1="1253.58" y1="221.81" x2="1361.31" y2="221.81">
  </linearGradient>
  <linearGradient id="id59" gradientUnits="userSpaceOnUse" xlink:href="#id0" x1="1779.14" y1="2869.43" x2="1890.71" y2="2869.43">
  </linearGradient>
 </defs>
 <g id="Слой_x0020_1">
  <metadata id="CorelCorpID_0Corel-Layer"/>
  <circle class="fil0 str0" cx="1550" cy="1550" r="1360.99"/>
  <circle class="fil0" cx="1550" cy="1550" r="1500"/>
  <circle class="fil0" cx="1550" cy="1550" r="1222.19"/>
  <path class="fil1" d="M1244.52 2923.02l-69.22 -16.18 25.83 -110.54 14.64 3.43 -22.79 97.5 39.97 9.32 13.3 -56.93c2.69,-11.56 5.2,-19.88 7.56,-25.01 2.33,-5.14 5.59,-8.79 9.75,-10.98 4.16,-2.16 8.92,-2.63 14.23,-1.39 3.23,0.75 6.96,2.26 11.19,4.52l-5.51 12.39c-2.18,-1.58 -4.12,-2.57 -5.82,-2.96 -3.33,-0.77 -6.11,-0.11 -8.34,2 -2.24,2.09 -4.45,7.78 -6.6,17.01l-18.19 77.82z"/>
  <polygon id="_1" class="fil2" points="1174.16,2787.75 1142.93,2896.93 1128.5,2892.79 1159.72,2783.61 "/>
  <path id="_2" class="fil3" d="M1091.65 2881.81l-14 -5.48 18.13 -46.35c-6.39,-2.51 -11.37,-3.04 -14.93,-1.56 -3.59,1.45 -9.23,6.11 -16.96,13.96 -5.65,5.77 -9.97,9.73 -13.01,11.84 -3.03,2.11 -6.67,3.45 -10.93,4.03 -4.28,0.58 -8.54,0.05 -12.79,-1.62 -5.37,-2.12 -8.19,-3.27 -8.45,-3.47l4.74 -12.12c0.51,0.19 1.43,0.57 2.78,1.18 1.54,0.64 2.47,1.04 2.82,1.17 4.46,1.75 8.22,1.96 11.22,0.65 3.06,-1.31 7.38,-4.93 13.01,-10.89 7.05,-7.55 12.26,-12.03 15.64,-13.39 3.35,-1.37 7.03,-2.1 11,-2.16 -6.12,-4.54 -10.37,-13.49 -12.83,-26.8l-7.99 -43.78 17.4 6.81 6.44 35.66c1.75,9.83 3.66,16.88 5.78,21.14 2.11,4.22 5.77,7.37 10.98,9.41l19.38 -49.51 14 5.48 -41.43 105.8z"/>
  <path id="_3" class="fil4" d="M1057.94 2746.67l-86.81 85.22 -14.74 -6.72 4.84 -122.64 15.57 7.13 -2.22 36.78 43.2 19.7 25.63 -26.12 14.53 6.65zm-49.16 28.83l-35.05 -15.98 -2.27 33.54c-0.68,10.18 -1.47,18.43 -2.45,24.75 4.36,-6.02 9.19,-11.74 14.59,-17.2l25.18 -25.11z"/>
  <path id="_4" class="fil5" d="M949.65 2696.71l-56.73 98.43 -37.13 -21.4c-6.54,-3.78 -11.36,-6.95 -14.46,-9.56 -4.37,-3.59 -7.52,-7.46 -9.48,-11.61 -1.98,-4.15 -2.78,-8.83 -2.42,-14.04 0.34,-5.24 1.93,-10.29 4.76,-15.16 4.81,-8.37 11.57,-13.94 20.22,-16.66 8.68,-2.73 19.98,-0.07 33.9,7.96l25.25 14.53 23.06 -40.02 13.03 7.53zm-42.8 44.11l-25.44 -14.66c-8.42,-4.84 -15.3,-6.74 -20.64,-5.63 -5.35,1.1 -9.65,4.48 -12.92,10.18 -2.39,4.09 -3.39,8.23 -2.99,12.38 0.41,4.13 2.01,7.65 4.88,10.52 1.85,1.86 5.74,4.5 11.65,7.91l25.19 14.5 20.27 -35.2z"/>
  <path id="_5" class="fil6" d="M785.78 2593.78l-69.95 89.54 -17.83 -13.92 28.32 -79.95c2.65,-7.44 4.68,-12.99 6.09,-16.61 -3.57,2.45 -8.89,6 -15.99,10.63l-70.1 45.56 -15.95 -12.46 69.94 -89.53 11.43 8.92 -58.54 74.92 84.57 -54.61 10.69 8.36 -33.66 96.46 59.54 -76.22 11.44 8.91z"/>
  <path id="_6" class="fil7" d="M647.6 2552.59c-12.96,13.67 -26.79,20.89 -41.48,21.65 -14.67,0.77 -27.83,-4.35 -39.41,-15.38 -7.61,-7.2 -12.74,-15.52 -15.4,-24.94 -2.64,-9.44 -2.5,-18.91 0.46,-28.45 2.96,-9.54 8.37,-18.43 16.18,-26.65 7.93,-8.35 16.7,-14.24 26.32,-17.62 9.61,-3.38 19.13,-3.85 28.51,-1.36 9.41,2.46 17.68,7.1 24.84,13.88 7.74,7.35 12.88,15.79 15.45,25.32 2.54,9.54 2.32,19.04 -0.67,28.5 -3.02,9.46 -7.95,17.82 -14.8,25.05zm-11.09 -10.84c9.43,-9.92 14.19,-20.26 14.26,-31.03 0.08,-10.8 -3.91,-19.98 -11.94,-27.64 -8.21,-7.76 -17.7,-11.28 -28.47,-10.56 -10.77,0.74 -21.19,6.4 -31.24,17.01 -6.37,6.7 -10.77,13.63 -13.25,20.79 -2.47,7.13 -2.84,14.14 -1.11,21.04 1.76,6.89 5.36,12.9 10.79,18.06 7.71,7.32 16.85,10.97 27.43,10.95 10.62,-0.01 21.77,-6.23 33.53,-18.62z"/>
  <path id="_7" class="fil8" d="M573.66 2447.05l-12.09 -8.58c3.53,-4.4 5.9,-10.18 7.09,-17.36 1.19,-7.17 -0.75,-13.74 -5.76,-19.7 -5.12,-6.1 -10.72,-9.58 -16.8,-10.47 -6.08,-0.89 -11.33,0.53 -15.78,4.25 -4.75,4.04 -7.02,9.08 -6.72,15.19 0.3,6.09 3.16,12.33 8.54,18.74l4.64 5.51 -10.01 8.42c-4.46,-5.3 -8.19,-9.08 -11.15,-11.38 -2.98,-2.29 -6.63,-3.46 -10.94,-3.49 -4.33,-0.03 -8.08,1.29 -11.3,3.96 -3.77,3.21 -5.85,7.45 -6.18,12.77 -0.33,5.29 1.62,10.45 5.85,15.46 3.69,4.39 7.93,7.24 12.74,8.48 4.81,1.25 9.52,0.94 14.13,-0.9 4.63,-1.87 7.81,-3.54 9.59,-5.03l6.79 13.11c-20.76,12.82 -38.55,10.38 -53.43,-7.29 -7.16,-8.5 -10.45,-17.22 -9.91,-26.16 0.52,-8.96 3.96,-16.09 10.26,-21.41 8.12,-6.82 17.64,-8.28 28.53,-4.37 -2.5,-5.47 -3.12,-11.27 -1.86,-17.42 1.27,-6.16 4.53,-11.45 9.81,-15.89 7.45,-6.26 16.15,-8.63 26.05,-7.08 9.91,1.53 18.9,7.1 26.95,16.66 13.82,16.45 14.14,34.44 0.96,53.98z"/>
  <path id="_8" class="fil9" d="M420.22 2388.74l-8.85 -12.31 34.89 -70.7 -75.41 14.3 -8.73 -12.17 96.64 -16.9c12.08,-2.15 20.49,-2.81 25.25,-2.02 4.77,0.79 9,3.75 12.71,8.91 2.24,3.13 4.29,7.53 6.1,13.15l-10.43 7.51c-0.48,-4.63 -2.02,-8.76 -4.63,-12.42 -2.15,-2.98 -4.96,-4.86 -8.41,-5.64 -3.47,-0.79 -9.52,-0.04 -18.18,2.25l-40.95 86.04z"/>
  <path id="_9" class="fil10" d="M350.29 2285.66l-7.53 -13.01 43.05 -24.94c-3.44,-5.95 -6.99,-9.46 -10.7,-10.54 -3.71,-1.09 -11.03,-0.98 -21.96,0.36 -8.01,0.98 -13.89,1.39 -17.56,1.15 -3.68,-0.23 -7.39,-1.45 -11.07,-3.67 -3.71,-2.22 -6.69,-5.29 -8.97,-9.22 -2.88,-5.03 -4.37,-7.68 -4.45,-7.99l11.29 -6.54c0.24,0.45 0.71,1.34 1.43,2.67 0.79,1.45 1.27,2.33 1.45,2.65 2.42,4.17 5.19,6.65 8.37,7.49 3.2,0.9 8.87,0.77 16.96,-0.38 10.24,-1.52 17.08,-1.76 20.58,-0.73 3.49,1.03 6.81,2.75 9.93,5.18 -1.91,-7.36 0.33,-17.02 6.72,-28.95l21.03 -39.2 9.35 16.16 -17.19 31.89c-4.78,8.79 -7.66,15.51 -8.64,20.14 -1,4.63 -0.1,9.37 2.68,14.18l46.04 -26.62 7.53 13.03 -98.34 56.89z"/>
  <path id="_10" class="fil11" d="M403.07 2147.57l-101.48 50.95 -19.22 -38.28c-3.36,-6.72 -5.63,-12.04 -6.76,-15.91 -1.68,-5.4 -2.19,-10.38 -1.55,-14.93 0.63,-4.52 2.54,-8.88 5.7,-13.03 3.18,-4.16 7.26,-7.52 12.29,-10.05 8.64,-4.32 17.32,-5.25 26.04,-2.74 8.76,2.48 16.73,10.89 23.91,25.25l13.09 26.04 41.25 -20.73 6.73 13.43zm-59.95 13.29l-13.19 -26.22c-4.34,-8.68 -9.04,-14.01 -14.11,-16.06 -5.05,-2.03 -10.54,-1.56 -16.38,1.39 -4.25,2.13 -7.35,5.03 -9.29,8.7 -1.96,3.65 -2.53,7.49 -1.74,11.48 0.55,2.57 2.33,6.89 5.38,12.98l13.04 25.96 36.29 -18.23z"/>
  <path id="_11" class="fil12" d="M366.05 2072.51l-121.6 0.59 -5.9 -15.08 88.95 -84.53 6.2 15.94 -27.23 24.83 17.22 44.25 36.57 -0.86 5.79 14.86zm-55.33 -13.59l-13.98 -35.87 -25 22.45c-7.58,6.83 -13.93,12.17 -19,16.03 7.31,-1.28 14.78,-2.01 22.42,-2.15l35.56 -0.46z"/>
  <path id="_12" class="fil13" d="M323.05 1958.61l-107.83 35.61 -4.71 -14.26 107.8 -35.61 4.74 14.26zm-109.88 51.47l-15.08 5 -4.55 -13.84 15.05 -4.97 4.58 13.81zm-9.05 -27.43l-15.08 4.99 -4.58 -13.83 15.08 -4.97 4.58 13.81z"/>
  <polygon id="_13" class="fil14" points="310.13,1917.74 200.68,1948 196.69,1933.53 241.62,1921.1 225.91,1864.21 180.96,1876.63 176.95,1862.15 286.39,1831.89 290.4,1846.36 238.81,1860.63 254.54,1917.54 306.12,1903.25 "/>
  <polygon id="_14" class="fil15" points="170.46,1826.59 167.98,1813.19 256.45,1796.82 156.97,1753.75 154.22,1738.89 265.92,1718.21 268.43,1731.61 180.17,1747.96 279.45,1791.14 282.16,1805.91 "/>
  <path id="_15" class="fil16" d="M172.36 1264.44l16.18 -69.22 110.54 25.83 -3.43 14.64 -97.5 -22.79 -9.32 39.97 56.93 13.3c11.56,2.69 19.88,5.2 25.01,7.56 5.14,2.33 8.79,5.59 10.98,9.75 2.16,4.16 2.63,8.92 1.39,14.23 -0.75,3.23 -2.26,6.96 -4.52,11.19l-12.39 -5.51c1.58,-2.18 2.57,-4.12 2.96,-5.82 0.77,-3.33 0.11,-6.11 -2,-8.34 -2.09,-2.24 -7.78,-4.45 -17.01,-6.6l-77.82 -18.19z"/>
  <polygon id="_16" class="fil17" points="306.8,1193.88 197.62,1162.65 201.76,1148.22 310.94,1179.44 "/>
  <path id="_17" class="fil18" d="M211.37 1116.17l4.86 -14.21 47.05 16.11c2.23,-6.52 2.55,-11.51 0.92,-15 -1.62,-3.52 -6.5,-8.96 -14.68,-16.33 -6.01,-5.38 -10.15,-9.56 -12.38,-12.47 -2.25,-2.93 -3.77,-6.52 -4.51,-10.75 -0.75,-4.26 -0.41,-8.52 1.06,-12.84 1.9,-5.45 2.93,-8.34 3.12,-8.57l12.3 4.21c-0.16,0.47 -0.49,1.43 -1.05,2.83 -0.58,1.54 -0.93,2.49 -1.03,2.83 -1.58,4.52 -1.62,8.28 -0.16,11.24 1.4,2.99 5.22,7.16 11.41,12.53 7.84,6.7 12.54,11.72 14.05,15.03 1.51,3.3 2.4,6.92 2.61,10.9 4.31,-6.29 13.03,-10.95 26.25,-13.96l43.35 -9.89 -6.05 17.68 -35.34 7.97c-9.73,2.15 -16.68,4.39 -20.84,6.7 -4.12,2.28 -7.11,6.07 -8.92,11.34l50.27 17.22 -4.87 14.22 -107.42 -36.79z"/>
  <path id="_18" class="fil19" d="M344.94 1076.6l-85.22 -86.81 6.72 -14.74 122.64 4.84 -7.13 15.57 -36.78 -2.22 -19.7 43.2 26.12 25.63 -6.65 14.53zm-28.83 -49.16l15.98 -35.05 -33.54 -2.27c-10.18,-0.68 -18.43,-1.47 -24.75,-2.45 6.02,4.36 11.74,9.19 17.2,14.59l25.11 25.18z"/>
  <path id="_19" class="fil20" d="M393.08 967.37l-98.43 -56.73 21.4 -37.13c3.78,-6.54 6.95,-11.36 9.56,-14.46 3.59,-4.37 7.46,-7.52 11.61,-9.5 4.15,-1.96 8.83,-2.76 14.04,-2.4 5.24,0.34 10.29,1.93 15.16,4.76 8.37,4.81 13.94,11.57 16.66,20.22 2.73,8.68 0.07,19.98 -7.96,33.9l-14.53 25.25 40.02 23.06 -7.53 13.03zm-44.11 -42.8l14.66 -25.44c4.84,-8.42 6.74,-15.3 5.63,-20.64 -1.1,-5.35 -4.48,-9.65 -10.18,-12.92 -4.09,-2.39 -8.23,-3.39 -12.38,-2.99 -4.13,0.41 -7.65,2.01 -10.52,4.88 -1.86,1.85 -4.5,5.74 -7.91,11.65l-14.5 25.19 35.2 20.27z"/>
  <path id="_20" class="fil21" d="M493.63 801.9l-89.54 -69.95 13.92 -17.83 79.95 28.32c7.44,2.65 12.99,4.68 16.61,6.09 -2.45,-3.57 -6,-8.89 -10.63,-15.99l-45.56 -70.1 12.46 -15.95 89.53 69.94 -8.92 11.43 -74.92 -58.54 54.61 84.57 -8.36 10.69 -96.46 -33.66 76.22 59.54 -8.91 11.44z"/>
  <path id="_21" class="fil22" d="M533.28 662.38c-13.67,-12.96 -20.89,-26.79 -21.65,-41.48 -0.77,-14.67 4.35,-27.83 15.38,-39.41 7.2,-7.61 15.52,-12.74 24.94,-15.4 9.44,-2.64 18.91,-2.5 28.45,0.46 9.54,2.96 18.43,8.37 26.65,16.18 8.35,7.93 14.24,16.7 17.62,26.32 3.38,9.61 3.85,19.13 1.36,28.51 -2.46,9.41 -7.1,17.68 -13.88,24.84 -7.35,7.74 -15.79,12.88 -25.32,15.45 -9.54,2.54 -19.04,2.32 -28.5,-0.67 -9.46,-3.02 -17.82,-7.95 -25.05,-14.8zm10.84 -11.09c9.92,9.43 20.26,14.19 31.03,14.26 10.8,0.08 19.98,-3.91 27.64,-11.94 7.76,-8.21 11.28,-17.7 10.56,-28.47 -0.74,-10.77 -6.4,-21.19 -17.01,-31.24 -6.7,-6.37 -13.63,-10.77 -20.79,-13.25 -7.13,-2.47 -14.14,-2.84 -21.04,-1.11 -6.89,1.76 -12.9,5.36 -18.06,10.79 -7.32,7.71 -10.97,16.85 -10.95,27.43 0.01,10.62 6.23,21.77 18.62,33.53z"/>
  <path id="_22" class="fil23" d="M637.41 586.97l8.58 -12.09c4.4,3.53 10.18,5.9 17.36,7.09 7.17,1.19 13.74,-0.75 19.7,-5.76 6.1,-5.12 9.58,-10.72 10.47,-16.8 0.89,-6.08 -0.53,-11.33 -4.25,-15.78 -4.04,-4.75 -9.08,-7.02 -15.19,-6.72 -6.09,0.3 -12.33,3.16 -18.74,8.54l-5.51 4.64 -8.42 -10.01c5.3,-4.46 9.08,-8.19 11.38,-11.15 2.29,-2.98 3.46,-6.63 3.49,-10.94 0.03,-4.33 -1.29,-8.08 -3.96,-11.3 -3.21,-3.77 -7.45,-5.85 -12.77,-6.18 -5.29,-0.33 -10.45,1.62 -15.46,5.85 -4.39,3.69 -7.24,7.93 -8.48,12.74 -1.25,4.81 -0.94,9.52 0.9,14.13 1.87,4.63 3.54,7.81 5.03,9.59l-13.11 6.79c-12.82,-20.76 -10.38,-38.55 7.29,-53.43 8.5,-7.16 17.22,-10.45 26.16,-9.91 8.96,0.52 16.09,3.96 21.41,10.26 6.82,8.12 8.28,17.64 4.37,28.53 5.47,-2.5 11.27,-3.12 17.42,-1.86 6.16,1.27 11.45,4.53 15.89,9.81 6.26,7.45 8.63,16.15 7.08,26.05 -1.53,9.91 -7.1,18.9 -16.66,26.95 -16.45,13.82 -34.44,14.14 -53.98,0.96z"/>
  <path id="_23" class="fil24" d="M694.59 432.07l12.31 -8.85 70.7 34.89 -14.3 -75.41 12.17 -8.73 16.9 96.64c2.15,12.08 2.81,20.49 2.02,25.25 -0.79,4.77 -3.75,9 -8.91,12.71 -3.13,2.24 -7.53,4.29 -13.15,6.1l-7.51 -10.43c4.63,-0.48 8.76,-2.02 12.42,-4.63 2.98,-2.15 4.86,-4.96 5.64,-8.41 0.79,-3.47 0.04,-9.52 -2.25,-18.18l-86.04 -40.95z"/>
  <path id="_24" class="fil25" d="M796.64 360.53l13.01 -7.53 24.94 43.05c5.95,-3.44 9.46,-6.99 10.54,-10.7 1.09,-3.71 0.98,-11.03 -0.36,-21.96 -0.98,-8.01 -1.39,-13.89 -1.15,-17.56 0.23,-3.68 1.45,-7.39 3.67,-11.07 2.22,-3.71 5.29,-6.69 9.22,-8.97 5.03,-2.88 7.68,-4.37 7.99,-4.45l6.54 11.29c-0.45,0.24 -1.34,0.71 -2.67,1.43 -1.45,0.79 -2.33,1.27 -2.65,1.45 -4.17,2.42 -6.65,5.19 -7.49,8.37 -0.9,3.2 -0.77,8.87 0.38,16.96 1.52,10.24 1.76,17.08 0.73,20.58 -1.03,3.49 -2.75,6.81 -5.18,9.93 7.36,-1.91 17.01,0.3 28.95,6.72l39.2 21.03 -16.16 9.35 -31.89 -17.19c-8.79,-4.78 -15.51,-7.66 -20.14,-8.64 -4.63,-1 -9.37,-0.1 -14.18,2.68l26.62 46.04 -13.03 7.53 -56.89 -98.34z"/>
  <path id="_25" class="fil26" d="M934.18 412.31l-50.95 -101.48 38.28 -19.22c6.72,-3.36 12.04,-5.63 15.91,-6.76 5.4,-1.68 10.38,-2.19 14.93,-1.55 4.52,0.63 8.88,2.54 13.03,5.7 4.16,3.18 7.52,7.26 10.05,12.29 4.32,8.64 5.25,17.32 2.74,26.04 -2.48,8.76 -10.89,16.73 -25.25,23.91l-26.04 13.09 20.73 41.25 -13.43 6.73zm-13.29 -59.95l26.22 -13.19c8.68,-4.34 14.01,-9.04 16.06,-14.11 2.03,-5.05 1.56,-10.54 -1.39,-16.38 -2.13,-4.25 -5.03,-7.35 -8.7,-9.29 -3.65,-1.96 -7.49,-2.53 -11.48,-1.74 -2.57,0.55 -6.89,2.33 -12.98,5.38l-25.96 13.04 18.23 36.29z"/>
  <path id="_26" class="fil27" d="M1008.49 373.6l-0.59 -121.6 15.08 -5.9 84.53 88.95 -15.94 6.2 -24.83 -27.23 -44.25 17.22 0.86 36.57 -14.86 5.79zm13.59 -55.33l35.87 -13.98 -22.45 -25c-6.83,-7.58 -12.17,-13.93 -16.03,-19 1.28,7.31 2.01,14.78 2.15,22.42l0.46 35.56z"/>
  <path id="_27" class="fil28" d="M1122.01 329.6l-35.61 -107.83 14.26 -4.71 35.61 107.8 -14.26 4.74zm-51.47 -109.88l-5 -15.08 13.84 -4.55 4.97 15.05 -13.81 4.58zm27.43 -9.05l-4.99 -15.08 13.83 -4.58 4.97 15.08 -13.81 4.58z"/>
  <polygon id="_28" class="fil29" points="1162.58,315.69 1132.32,206.24 1146.79,202.25 1159.22,247.18 1216.11,231.47 1203.69,186.52 1218.17,182.51 1248.43,291.95 1233.96,295.96 1219.69,244.37 1162.78,260.1 1177.07,311.68 "/>
  <polygon id="_29" class="fil30" points="1253.28,174.11 1266.68,171.63 1283.05,260.1 1326.12,160.62 1340.98,157.87 1361.66,269.57 1348.26,272.08 1331.91,183.82 1288.73,283.1 1273.96,285.81 "/>
  <path id="_30" class="fil31" d="M1815.64 167.74l69.22 16.18 -25.83 110.54 -14.64 -3.43 22.79 -97.5 -39.97 -9.32 -13.3 56.93c-2.69,11.56 -5.2,19.88 -7.56,25.01 -2.33,5.14 -5.59,8.79 -9.75,10.98 -4.16,2.16 -8.92,2.63 -14.23,1.39 -3.23,-0.75 -6.96,-2.26 -11.19,-4.52l5.51 -12.39c2.18,1.58 4.12,2.57 5.82,2.96 3.33,0.77 6.11,0.11 8.34,-2 2.24,-2.09 4.45,-7.78 6.6,-17.01l18.19 -77.82z"/>
  <polygon id="_31" class="fil32" points="1886.41,301.35 1917.64,192.17 1932.07,196.31 1900.85,305.49 "/>
  <path id="_32" class="fil33" d="M1964.48 204.74l14.21 4.86 -16.11 47.05c6.52,2.23 11.51,2.55 15,0.92 3.52,-1.62 8.96,-6.5 16.33,-14.68 5.38,-6.01 9.56,-10.15 12.47,-12.38 2.93,-2.25 6.52,-3.77 10.75,-4.51 4.26,-0.75 8.52,-0.41 12.84,1.06 5.45,1.88 8.34,2.93 8.57,3.12l-4.21 12.3c-0.47,-0.16 -1.43,-0.49 -2.83,-1.05 -1.54,-0.58 -2.49,-0.93 -2.83,-1.03 -4.52,-1.58 -8.28,-1.62 -11.24,-0.16 -2.99,1.4 -7.16,5.22 -12.53,11.41 -6.7,7.84 -11.72,12.54 -15.03,14.05 -3.3,1.51 -6.92,2.4 -10.9,2.61 6.29,4.31 10.95,13.03 13.96,26.25l9.89 43.35 -17.68 -6.05 -7.97 -35.34c-2.15,-9.73 -4.39,-16.68 -6.7,-20.84 -2.28,-4.12 -6.07,-7.11 -11.34,-8.92l-17.22 50.27 -14.22 -4.87 36.79 -107.42z"/>
  <path id="_33" class="fil34" d="M2003.83 338.75l82.06 -89.88 15.09 5.9 1.87 122.75 -15.94 -6.26 0.19 -36.86 -44.23 -17.32 -24.19 27.49 -14.85 -5.82zm47.54 -31.5l35.87 14.06 0.43 -33.64c0.12,-10.21 0.48,-18.52 1.07,-24.87 -3.98,6.26 -8.53,12.24 -13.6,17.96l-23.77 26.49z"/>
  <path id="_34" class="fil35" d="M2113.42 385.6l51.56 -101.26 38.21 19.45c6.72,3.41 11.69,6.35 14.9,8.81 4.55,3.36 7.91,7.05 10.11,11.1 2.16,4.02 3.2,8.66 3.12,13.89 -0.07,5.24 -1.4,10.37 -3.96,15.38 -4.39,8.63 -10.81,14.52 -19.33,17.67 -8.52,3.18 -19.95,1.12 -34.27,-6.18l-25.96 -13.21 -20.96 41.17 -13.42 -6.82zm40.46 -46.28l26.17 13.32c8.66,4.42 15.62,5.92 20.91,4.54 5.29,-1.35 9.41,-4.97 12.38,-10.82 2.16,-4.24 2.93,-8.42 2.32,-12.52 -0.59,-4.1 -2.42,-7.54 -5.4,-10.29 -1.97,-1.74 -5.98,-4.15 -12.07,-7.25l-25.88 -13.18 -18.43 36.2z"/>
  <path id="_35" class="fil36" d="M2281.98 481.04l69.95 -89.54 17.83 13.92 -28.32 79.95c-2.65,7.44 -4.68,12.97 -6.09,16.61 3.57,-2.45 8.89,-6 15.99,-10.63l70.1 -45.56 15.95 12.46 -69.94 89.53 -11.43 -8.92 58.54 -74.92 -84.57 54.61 -10.69 -8.36 33.66 -96.46 -59.54 76.22 -11.44 -8.91z"/>
  <path id="_36" class="fil37" d="M2422.83 519.15c12.96,-13.67 26.79,-20.89 41.48,-21.65 14.67,-0.77 27.83,4.35 39.41,15.38 7.61,7.2 12.74,15.52 15.4,24.94 2.64,9.44 2.5,18.91 -0.46,28.45 -2.96,9.54 -8.37,18.43 -16.18,26.65 -7.93,8.35 -16.7,14.22 -26.32,17.62 -9.61,3.38 -19.13,3.85 -28.51,1.36 -9.41,-2.46 -17.68,-7.1 -24.84,-13.88 -7.74,-7.35 -12.88,-15.79 -15.45,-25.32 -2.54,-9.54 -2.32,-19.04 0.67,-28.5 3.02,-9.46 7.95,-17.82 14.8,-25.05zm11.09 10.84c-9.43,9.92 -14.19,20.26 -14.26,31.03 -0.08,10.77 3.91,19.98 11.94,27.64 8.21,7.76 17.7,11.28 28.47,10.56 10.77,-0.74 21.19,-6.4 31.24,-17.01 6.37,-6.7 10.77,-13.63 13.25,-20.79 2.47,-7.13 2.84,-14.14 1.11,-21.04 -1.76,-6.89 -5.36,-12.93 -10.79,-18.06 -7.71,-7.32 -16.85,-10.97 -27.43,-10.95 -10.62,0.01 -21.77,6.23 -33.53,18.62z"/>
  <path id="_37" class="fil38" d="M2496.26 622.31l12.6 7.8c-3.26,4.6 -5.22,10.5 -5.98,17.75 -0.73,7.22 1.61,13.66 6.99,19.3 5.49,5.75 11.28,8.85 17.43,9.37 6.1,0.51 11.27,-1.26 15.43,-5.23 4.53,-4.31 6.44,-9.49 5.77,-15.56 -0.7,-6.05 -3.92,-12.12 -9.71,-18.16l-4.96 -5.19 9.46 -9.06c4.79,5.01 8.72,8.55 11.84,10.66 3.09,2.1 6.82,3.03 11.13,2.8 4.32,-0.23 7.97,-1.79 10.99,-4.66 3.61,-3.43 5.39,-7.8 5.36,-13.12 0.02,-5.32 -2.25,-10.35 -6.79,-15.09 -3.96,-4.13 -8.37,-6.69 -13.23,-7.64 -4.87,-0.94 -9.56,-0.35 -14.03,1.8 -4.51,2.12 -7.58,3.99 -9.24,5.61l-7.6 -12.66c19.87,-14.06 37.8,-12.76 53.72,3.91 7.69,8.03 11.53,16.54 11.57,25.5 0.01,8.94 -2.94,16.29 -8.93,22 -7.63,7.31 -17.03,9.35 -28.16,6.13 2.82,5.3 3.81,11.05 2.92,17.28 -0.85,6.22 -3.77,11.7 -8.74,16.44 -7.07,6.74 -15.57,9.65 -25.56,8.74 -9.98,-0.95 -19.28,-5.91 -27.91,-14.95 -14.84,-15.53 -16.29,-33.45 -4.37,-53.77z"/>
  <path id="_38" class="fil39" d="M2656.09 677.92l8.85 12.31 -34.89 70.7 75.41 -14.3 8.73 12.17 -96.64 16.9c-12.08,2.15 -20.49,2.81 -25.25,2.02 -4.77,-0.79 -9,-3.75 -12.71,-8.91 -2.24,-3.16 -4.29,-7.53 -6.1,-13.15l10.43 -7.51c0.48,4.63 2.02,8.76 4.63,12.42 2.15,2.98 4.96,4.86 8.41,5.64 3.47,0.79 9.52,0.04 18.18,-2.25l40.95 -86.04z"/>
  <path id="_39" class="fil40" d="M2725.16 776.72l7.97 12.75 -42.13 26.4c3.64,5.82 7.34,9.21 11.06,10.16 3.75,0.95 11.05,0.59 21.91,-1.1 8,-1.3 13.83,-1.89 17.51,-1.78 3.7,0.08 7.43,1.17 11.19,3.26 3.78,2.09 6.87,5.06 9.28,8.9 3.08,4.9 4.65,7.53 4.72,7.84l-11.03 6.91c-0.26,-0.45 -0.78,-1.31 -1.54,-2.6 -0.83,-1.44 -1.33,-2.29 -1.54,-2.61 -2.53,-4.07 -5.4,-6.47 -8.62,-7.2 -3.22,-0.79 -8.86,-0.44 -16.92,1 -10.17,1.86 -17.03,2.34 -20.54,1.44 -3.51,-0.9 -6.88,-2.51 -10.1,-4.81 2.17,7.26 0.3,16.99 -5.69,29.14l-19.61 39.91 -9.92 -15.82 16.05 -32.45c4.46,-8.96 7.1,-15.76 7.93,-20.41 0.83,-4.68 -0.25,-9.37 -3.2,-14.11l-45.03 28.24 -8 -12.73 96.25 -60.33z"/>
  <path id="_40" class="fil41" d="M2678.45 915.94l101.48 -50.95 19.22 38.28c3.36,6.72 5.63,12.04 6.76,15.91 1.68,5.4 2.19,10.38 1.54,14.9 -0.62,4.55 -2.53,8.91 -5.69,13.06 -3.18,4.16 -7.26,7.52 -12.29,10.05 -8.64,4.32 -17.32,5.25 -26.04,2.74 -8.76,-2.48 -16.73,-10.89 -23.91,-25.25l-13.09 -26.04 -41.25 20.73 -6.73 -13.43zm59.95 -13.29l13.19 26.22c4.34,8.68 9.04,14.01 14.11,16.06 5.05,2.03 10.54,1.56 16.38,-1.39 4.25,-2.13 7.35,-5.03 9.29,-8.7 1.96,-3.65 2.53,-7.49 1.74,-11.48 -0.55,-2.57 -2.33,-6.89 -5.38,-12.98l-13.04 -25.96 -36.29 18.23z"/>
  <path id="_41" class="fil42" d="M2716.21 990.59l121.46 -7.68 6.71 14.72 -83.86 89.59 -7.15 -15.56 25.75 -26.37 -19.77 -43.17 -36.46 2.99 -6.68 -14.52zm56.07 10.37l16.05 34.98 23.65 -23.89c7.17,-7.26 13.2,-12.98 18.05,-17.14 -7.21,1.74 -14.64,2.89 -22.26,3.49l-35.49 2.56z"/>
  <path id="_42" class="fil43" d="M2763.85 1102.64l107.83 -35.61 4.71 14.26 -107.8 35.61 -4.74 -14.26zm109.88 -51.47l15.08 -5 4.55 13.84 -15.05 4.97 -4.58 -13.81zm9.05 27.43l15.08 -4.99 4.58 13.83 -15.08 4.97 -4.58 -13.81z"/>
  <polygon id="_43" class="fil44" points="2778.76,1142.9 2888.21,1112.64 2892.2,1127.11 2847.27,1139.54 2862.98,1196.43 2907.93,1184.01 2911.94,1198.49 2802.5,1228.75 2798.49,1214.28 2850.08,1200.01 2834.35,1143.1 2782.77,1157.39 "/>
  <polygon id="_44" class="fil45" points="2922.23,1233.16 2924.71,1246.56 2836.24,1262.93 2935.72,1306 2938.47,1320.86 2826.77,1341.54 2824.26,1328.14 2912.52,1311.79 2813.24,1268.61 2810.53,1253.84 "/>
  <path id="_45" class="fil46" d="M2935.88 1790.32l-13.05 69.88 -111.6 -20.86 2.76 -14.78 98.43 18.42 7.53 -40.34 -57.46 -10.77c-11.66,-2.17 -20.12,-4.3 -25.34,-6.42 -5.23,-2.09 -9.02,-5.18 -11.38,-9.27 -2.36,-4.06 -3.05,-8.76 -2.05,-14.16 0.6,-3.25 1.94,-7.03 4.02,-11.39l12.63 4.97c-1.47,2.26 -2.38,4.24 -2.71,5.96 -0.62,3.36 0.19,6.09 2.37,8.25 2.21,2.15 7.97,4.08 17.31,5.82l78.54 14.69z"/>
  <polygon id="_46" class="fil47" points="2804.1,1866.7 2913.28,1897.93 2909.14,1912.36 2799.96,1881.14 "/>
  <path id="_47" class="fil48" d="M2901.89 1945.13l-4.86 14.21 -47.05 -16.11c-2.23,6.52 -2.55,11.51 -0.92,15 1.62,3.52 6.5,8.96 14.68,16.33 6.01,5.38 10.15,9.56 12.38,12.47 2.25,2.93 3.77,6.52 4.51,10.75 0.75,4.26 0.41,8.52 -1.06,12.84 -1.88,5.45 -2.93,8.31 -3.12,8.57l-12.3 -4.21c0.16,-0.47 0.49,-1.43 1.05,-2.83 0.58,-1.54 0.93,-2.49 1.03,-2.83 1.58,-4.55 1.62,-8.28 0.16,-11.24 -1.4,-2.99 -5.22,-7.16 -11.41,-12.53 -7.84,-6.7 -12.54,-11.72 -14.05,-15.03 -1.51,-3.3 -2.4,-6.92 -2.61,-10.9 -4.31,6.29 -13.03,10.95 -26.25,13.96l-43.35 9.89 6.05 -17.68 35.34 -7.97c9.73,-2.15 16.68,-4.39 20.84,-6.7 4.12,-2.28 7.11,-6.07 8.92,-11.34l-50.27 -17.22 4.87 -14.22 107.42 36.79z"/>
  <path id="_48" class="fil49" d="M2768.81 1984.82l89.88 82.06 -5.9 15.09 -122.75 1.87 6.26 -15.94 36.86 0.19 17.32 -44.23 -27.49 -24.19 5.82 -14.85zm31.5 47.54l-14.06 35.87 33.64 0.43c10.21,0.12 18.52,0.48 24.87,1.07 -6.26,-3.98 -12.24,-8.53 -17.96,-13.6l-26.49 -23.77z"/>
  <path id="_49" class="fil50" d="M2723.68 2095.19l101.26 51.56 -19.45 38.21c-3.41,6.72 -6.35,11.69 -8.81,14.9 -3.36,4.55 -7.05,7.91 -11.1,10.11 -4.02,2.16 -8.66,3.2 -13.89,3.12 -5.24,-0.07 -10.37,-1.4 -15.38,-3.96 -8.63,-4.39 -14.52,-10.81 -17.67,-19.33 -3.18,-8.52 -1.12,-19.95 6.18,-34.27l13.21 -25.96 -41.17 -20.96 6.82 -13.42zm46.28 40.46l-13.32 26.17c-4.42,8.66 -5.92,15.62 -4.54,20.91 1.35,5.29 4.97,9.41 10.82,12.38 4.24,2.16 8.42,2.93 12.52,2.32 4.1,-0.59 7.54,-2.42 10.29,-5.4 1.74,-1.97 4.15,-5.98 7.25,-12.07l13.18 -25.88 -36.2 -18.43z"/>
  <path id="_50" class="fil51" d="M2628.82 2263.87l91.97 66.68 -13.27 18.34 -80.91 -25.49c-7.52,-2.38 -13.12,-4.19 -16.81,-5.47 2.59,3.49 6.34,8.68 11.2,15.6l48.03 68.42 -11.87 16.38 -91.97 -66.7 8.5 -11.74 76.99 55.83 -57.62 -82.55 7.97 -10.97 97.6 30.16 -78.31 -56.78 8.5 -11.71z"/>
  <path id="_51" class="fil52" d="M2594.17 2403.98c14.25,12.35 22.07,25.83 23.49,40.46 1.41,14.63 -3.1,28 -13.58,40.07 -6.88,7.92 -14.97,13.43 -24.25,16.51 -9.31,3.06 -18.78,3.33 -28.44,0.8 -9.66,-2.53 -18.77,-7.53 -27.37,-14.98 -8.69,-7.53 -14.94,-16.04 -18.76,-25.51 -3.83,-9.43 -4.71,-18.93 -2.65,-28.43 2.05,-9.5 6.3,-17.98 12.78,-25.41 7,-8.08 15.19,-13.59 24.61,-16.57 9.41,-2.98 18.91,-3.17 28.49,-0.61 9.61,2.58 18.16,7.15 25.68,13.67zm-10.34 11.55c-10.32,-8.98 -20.85,-13.25 -31.62,-12.85 -10.77,0.41 -19.81,4.79 -27.08,13.18 -7.4,8.53 -10.51,18.16 -9.28,28.89 1.23,10.72 7.35,20.88 18.4,30.47 6.95,6.05 14.09,10.14 21.33,12.31 7.25,2.16 14.29,2.2 21.09,0.13 6.82,-2.04 12.66,-5.91 17.58,-11.55 6.97,-8.06 10.19,-17.34 9.7,-27.93 -0.49,-10.58 -7.19,-21.47 -20.12,-32.65z"/>
  <path id="_52" class="fil53" d="M2492.43 2482.08l-7.8 12.6c-4.6,-3.26 -10.5,-5.22 -17.75,-5.98 -7.22,-0.73 -13.66,1.61 -19.3,6.99 -5.75,5.49 -8.85,11.28 -9.37,17.43 -0.51,6.1 1.26,11.27 5.23,15.43 4.31,4.53 9.49,6.44 15.56,5.77 6.05,-0.7 12.12,-3.92 18.16,-9.71l5.19 -4.96 9.06 9.46c-5.01,4.79 -8.55,8.72 -10.66,11.84 -2.1,3.09 -3.03,6.82 -2.8,11.13 0.23,4.32 1.79,7.97 4.66,10.99 3.43,3.61 7.8,5.39 13.12,5.36 5.32,0.02 10.35,-2.25 15.09,-6.79 4.13,-3.96 6.69,-8.37 7.64,-13.23 0.94,-4.87 0.35,-9.56 -1.8,-14.03 -2.12,-4.51 -3.99,-7.58 -5.61,-9.24l12.66 -7.6c14.06,19.87 12.76,37.8 -3.91,53.72 -8.03,7.69 -16.54,11.53 -25.5,11.57 -8.94,0.01 -16.29,-2.94 -22,-8.93 -7.31,-7.63 -9.35,-17.03 -6.13,-28.16 -5.3,2.82 -11.05,3.81 -17.28,2.92 -6.22,-0.85 -11.7,-3.77 -16.44,-8.74 -6.74,-7.07 -9.65,-15.57 -8.74,-25.56 0.95,-9.98 5.91,-19.28 14.95,-27.91 15.53,-14.84 33.45,-16.29 53.77,-4.37z"/>
  <path id="_53" class="fil54" d="M2441.56 2638.13l-11.85 9.49 -72.34 -31.19 18.17 74.52 -11.66 9.34 -21.91 -95.53c-2.74,-11.95 -3.85,-20.33 -3.32,-25.12 0.55,-4.77 3.27,-9.14 8.25,-13.12 3.03,-2.42 7.3,-4.68 12.81,-6.77l8.03 10.03c-4.6,0.68 -8.64,2.46 -12.17,5.25 -2.83,2.3 -4.6,5.2 -5.17,8.69 -0.62,3.5 0.42,9.5 3.14,18.03l88.02 36.38z"/>
  <path id="_54" class="fil55" d="M2340.52 2714.15l-12.75 7.97 -26.4 -42.13c-5.82,3.64 -9.21,7.34 -10.16,11.06 -0.95,3.75 -0.59,11.05 1.1,21.91 1.29,7.98 1.89,13.83 1.78,17.51 -0.09,3.67 -1.17,7.43 -3.26,11.19 -2.09,3.78 -5.06,6.87 -8.9,9.28 -4.9,3.08 -7.53,4.65 -7.84,4.72l-6.91 -11.03c0.45,-0.26 1.31,-0.78 2.6,-1.54 1.44,-0.83 2.29,-1.33 2.61,-1.54 4.07,-2.53 6.47,-5.4 7.2,-8.62 0.79,-3.22 0.44,-8.86 -1,-16.92 -1.86,-10.17 -2.34,-17.03 -1.44,-20.54 0.9,-3.51 2.51,-6.88 4.81,-10.1 -7.26,2.17 -16.98,0.27 -29.14,-5.69l-39.91 -19.61 15.82 -9.92 32.45 16.05c8.96,4.46 15.76,7.1 20.41,7.93 4.68,0.83 9.37,-0.25 14.11,-3.2l-28.24 -45.03 12.73 -8 60.33 96.25z"/>
  <path id="_55" class="fil56" d="M2201.26 2667.26l56.91 98.38 -37.1 21.46c-6.54,3.78 -11.72,6.35 -15.53,7.71 -5.29,1.98 -10.2,2.81 -14.78,2.42 -4.58,-0.37 -9.03,-2 -13.4,-4.92 -4.34,-2.93 -7.91,-6.81 -10.74,-11.71 -4.83,-8.36 -6.27,-16.98 -4.29,-25.84 1.98,-8.87 9.91,-17.34 23.82,-25.36l25.22 -14.6 -23.13 -39.99 13.02 -7.55zm16.82 59.15l-25.42 14.7c-8.4,4.85 -13.48,9.88 -15.2,15.06 -1.71,5.17 -0.93,10.59 2.35,16.28 2.38,4.12 5.45,7.03 9.24,8.77 3.76,1.72 7.62,2.06 11.56,1.05 2.54,-0.69 6.75,-2.76 12.67,-6.18l25.15 -14.54 -20.35 -35.14z"/>
  <path id="_56" class="fil57" d="M2128.04 2707.78l7.68 121.46 -14.72 6.71 -89.59 -83.86 15.56 -7.15 26.37 25.75 43.17 -19.77 -2.99 -36.46 14.52 -6.68zm-10.37 56.07l-34.98 16.05 23.89 23.65c7.26,7.17 12.98,13.2 17.14,18.05 -1.74,-7.21 -2.89,-14.64 -3.49,-22.26l-2.56 -35.49z"/>
  <path id="_57" class="fil58" d="M2016.31 2756.18l41.22 105.78 -14 5.46 -41.22 -105.8 14 -5.44zm57.27 107.06l5.77 14.78 -13.56 5.29 -5.76 -14.8 13.55 -5.27zm-26.91 10.5l5.77 14.76 -13.58 5.29 -5.74 -14.79 13.55 -5.26z"/>
  <polygon id="_58" class="fil59" points="1976.79,2773.2 2007.05,2882.65 1992.58,2886.64 1980.15,2841.71 1923.26,2857.42 1935.68,2902.37 1921.2,2906.38 1890.94,2796.94 1905.41,2792.93 1919.68,2844.52 1976.59,2828.79 1962.3,2777.21 "/>
  <polygon id="_59" class="fil60" points="1891.09,2914.85 1877.81,2917.89 1857.73,2830.26 1818.91,2931.37 1804.18,2934.76 1778.84,2824.06 1792.12,2821.02 1812.14,2908.47 1851.1,2807.53 1865.75,2804.18 "/>
  <circle class="fil61" cx="1549.04" cy="1555.66" r="779.08"/>
  <polygon class="fil62" points="459.09,1996.39 409.45,1845.6 601.16,1782.45 609.56,1807.94 440.47,1863.62 473.37,1963.56 642.45,1907.88 650.84,1933.24 "/>
  <path id="_1_0" class="fil62" d="M645.38 1708.9l-201.16 22.15 -2.46 -22.45 18.88 -2.1c-7.98,-4.48 -14.16,-9.87 -18.59,-16.1 -4.43,-6.29 -7.17,-14.15 -8.24,-23.61 -1.34,-12.43 0.65,-23.76 5.97,-33.94 5.37,-10.17 13.56,-18.36 24.69,-24.46 11.09,-6.15 23.58,-9.93 37.47,-11.5 14.86,-1.61 28.55,-0.4 41.09,3.61 12.48,4.03 22.46,10.76 29.94,20.26 7.47,9.49 11.78,19.82 13.04,31.07 0.9,8.19 -0.04,15.76 -2.76,22.71 -2.76,6.9 -6.56,12.71 -11.39,17.52l70.79 -7.78 2.73 24.62zm-130.1 -8.27c18.73,-2.05 32.12,-7.38 40.25,-15.95 8.09,-8.56 11.58,-18.23 10.38,-28.96 -1.21,-10.97 -6.86,-19.84 -16.98,-26.63 -10.12,-6.78 -24.93,-9.12 -44.36,-6.98 -18.54,2.07 -31.99,7.4 -40.35,16.01 -8.38,8.66 -12.01,18.28 -10.85,28.86 1.17,10.5 7.1,19.24 17.78,26.26 10.73,6.97 25.44,9.46 44.13,7.39z"/>
  <path id="_2_1" class="fil62" d="M404.47 1525.07l-28.51 -0.98 0.9 -24.78 28.5 0.98 -0.89 24.78zm173.32 6.05l-146.19 -5.1 0.85 -24.75 146.19 5.07 -0.85 24.78z"/>
  <path id="_3_2" class="fil62" d="M522.68 1397.1l-19.11 -3.53c1.82,-10.31 2.73,-17.42 2.72,-21.32 -0.03,-3.86 -1.55,-7.8 -4.54,-11.83 -2.98,-3.98 -7.18,-6.5 -12.64,-7.51 -6.6,-1.23 -12.23,-0.03 -16.97,3.67 -4.73,3.64 -7.75,8.92 -9.04,15.89 -2.56,13.7 3.76,24.82 18.89,33.35l-8.11 22.43c-25.66,-12.24 -35.92,-32.14 -30.79,-59.77 2.84,-15.35 9.27,-26.63 19.31,-33.78 9.98,-7.15 20.84,-9.65 32.46,-7.5 11.77,2.2 20.04,9.64 24.91,22.26 5.23,-6.47 11.18,-10.96 17.84,-13.49 6.67,-2.48 14.1,-2.99 22.34,-1.43 12.9,2.38 22.53,9.01 28.79,19.88 6.31,10.89 7.89,24.8 4.78,41.66 -6.09,32.77 -24.22,49.09 -54.37,48.92l-0.64 -23.81c9.65,-0.37 17.54,-3.23 23.76,-8.67 6.28,-5.45 10.15,-12.29 11.66,-20.48 1.51,-8.24 0.48,-15.48 -3.17,-21.81 -3.65,-6.33 -9.09,-10.16 -16.29,-11.54 -5.6,-1 -10.81,-0.17 -15.6,2.48 -4.79,2.66 -8.06,5.83 -9.83,9.5 -1.72,3.69 -3.57,10.66 -5.45,20.87 -0.18,0.8 -0.45,2.64 -0.91,5.56z"/>
  <path id="_4_3" class="fil62" d="M475.54 1237.1l19.55 -53.74c4.76,-13.18 9.45,-22.59 13.97,-28.2 4.56,-5.66 10.62,-9.69 18.11,-12.17 7.55,-2.48 15.45,-2.27 23.66,0.72 6.52,2.4 11.76,5.83 15.63,10.33 3.91,4.5 6.49,10.03 7.81,16.67 4.51,-5.71 10.47,-9.6 17.96,-11.7 7.46,-2.15 15.26,-1.71 23.32,1.22 12.75,5.61 20.73,13.77 23.93,24.53 3.26,10.75 1.92,24.19 -3.96,40.31l-22.53 62.01 -137.45 -49.98zm66.34 -2.26l9 -24.86c3.62,-9.95 5.6,-16.94 5.92,-21.02 0.27,-4.1 -0.59,-8.15 -2.68,-12.26 -2.08,-4.06 -5.35,-6.91 -9.71,-8.5 -7.26,-2.65 -13.24,-1.9 -17.94,2.2 -4.74,4.11 -9.32,12.34 -13.84,24.77l-9.35 25.65 38.6 14.02zm60.41 21.95l11.16 -30.68c4.82,-13.17 6.54,-22.8 5.28,-28.83 -1.27,-6.04 -5.61,-10.54 -13.02,-13.52 -4.4,-1.63 -9.01,-1.67 -13.78,-0.21 -4.81,1.51 -8.49,4.36 -11.16,8.57 -2.68,4.21 -5.84,11.37 -9.5,21.46l-10.25 28.24 41.27 14.97z"/>
  <polygon id="_5_4" class="fil62" points="550.58,1048.09 563.03,1026.66 659.5,1082.74 597.59,967.21 611.03,944.1 737.54,1017.67 725.04,1039.15 629.18,983.35 690.47,1098.55 677.03,1121.67 "/>
  <polygon id="_6_5" class="fil62" points="667.02,859.96 684.15,842.05 775,929.12 814.11,888.41 723.25,801.29 740.38,783.43 831.24,870.5 870.39,829.64 779.53,742.57 796.62,724.76 887.48,811.83 898.79,800 943.41,842.81 929.24,857.61 899.31,828.92 772.57,961.16 "/>
  <path id="_7_6" class="fil62" d="M1013.91 687.68l23.26 -11.14c4.7,14.79 4.64,28.61 -0.08,41.49 -4.77,12.82 -14.3,23.83 -28.6,32.99 -18.03,11.54 -35.84,15.18 -53.51,10.82 -17.7,-4.32 -32.92,-16.51 -45.75,-36.56 -13.29,-20.71 -18.25,-40.2 -14.93,-58.47 3.38,-18.32 13.54,-32.92 30.56,-43.79 16.49,-10.54 33.5,-13.56 51.12,-9.05 17.62,4.55 32.98,16.96 45.99,37.3 0.8,1.22 1.95,3.1 3.47,5.63l-91.89 58.87c9.43,13.02 19.92,20.96 31.41,23.71 11.45,2.8 22.35,0.9 32.66,-5.7 7.64,-4.89 12.87,-11.08 15.74,-18.58 2.83,-7.49 3.01,-16.67 0.55,-27.52zm-90.21 10.18l68.79 -44.06c-7.53,-9.78 -15.14,-15.86 -22.83,-18.26 -11.78,-3.78 -22.97,-2.31 -33.6,4.49 -9.57,6.17 -15.57,14.53 -18.01,25.13 -2.43,10.59 -0.53,21.5 5.65,32.7z"/>
  <polygon id="_8_7" class="fil62" points="1170.82,660.48 1094.86,473.34 1119.63,463.28 1195.6,650.47 "/>
  <polygon id="_9_8" class="fil62" points="1230.41,482.11 1268,473.51 1331.57,579.03 1347.06,455.41 1381.83,447.48 1414.45,590 1390.32,595.55 1364.05,480.77 1348.16,605.18 1326.53,610.12 1259.15,499 1286.69,619.23 1263.03,624.64 "/>
  <polygon id="_10_9" class="fil62" points="1469.7,456.6 1460.33,419.5 1457.58,385.84 1485.74,383.54 1488.45,417.2 1484.93,455.37 "/>
  <path id="_11_10" class="fil62" d="M1688.37 446.46l-12.18 145.68 -24.55 -2.03 4.75 -56.8 -14.29 -1.22c-8.65,-0.71 -15.25,-0.14 -19.67,1.76 -4.44,1.89 -11.26,8.58 -20.41,20.05l-24.18 30.03 -30.6 -2.55 29.91 -37c9.15,-11.33 17.8,-17.39 25.94,-18.28 -13.9,-3.1 -23.93,-9.04 -30.04,-17.83 -6.14,-8.84 -8.76,-18.54 -7.85,-29.27 1.03,-12.64 6.36,-22.49 15.9,-29.62 9.6,-7.13 22.84,-9.96 39.76,-8.53l67.51 5.61zm-26.27 18.41l-35.12 -2.96c-14.72,-1.22 -24.42,0.26 -29.05,4.51 -4.64,4.21 -7.21,9.37 -7.72,15.48 -0.71,8.69 1.88,15.35 7.81,19.94 5.9,4.61 16.85,7.55 32.78,8.88l27.27 2.28 4.03 -48.13z"/>
  <polygon id="_12_11" class="fil62" points="1867.97,423.34 2017.19,477.55 1948.25,667.29 1922.97,658.15 1983.83,490.77 1884.97,454.87 1824.12,622.19 1799.03,613.04 "/>
  <path id="_13_12" class="fil62" d="M2042.74 630.24c14.87,-22.64 32.16,-35.26 51.92,-37.89 16.47,-2.13 32.21,1.76 47.34,11.68 16.81,11.04 26.89,25.6 30.33,43.62 3.4,17.97 -1.25,36.68 -13.99,56.08 -10.35,15.74 -20.86,26.58 -31.5,32.48 -10.64,5.9 -22.08,8.37 -34.4,7.45 -12.27,-0.97 -23.75,-4.94 -34.41,-11.94 -17.09,-11.22 -27.31,-25.82 -30.66,-43.71 -3.34,-17.88 1.78,-37.16 15.37,-57.77zm21.27 13.97c-10.28,15.64 -14.6,29.6 -12.88,41.88 1.71,12.27 7.76,21.8 18.09,28.59 10.29,6.79 21.38,8.52 33.39,5.15 11.95,-3.3 23.21,-13.02 33.74,-29.03 9.95,-15.12 14.04,-28.81 12.28,-41.13 -1.72,-12.29 -7.72,-21.8 -17.91,-28.5 -10.34,-6.8 -21.48,-8.56 -33.38,-5.3 -11.96,3.22 -23.04,12.7 -33.33,28.34z"/>
  <path id="_14_13" class="fil62" d="M2428.58 770.52l14.93 15.97c-7.78,6.09 -14.22,9.23 -19.34,9.51 -5.09,0.23 -9.89,-1.14 -14.3,-4.21 -4.46,-3.06 -12.03,-10.13 -22.69,-21.25 -14.18,-14.79 -25.27,-23.5 -33.26,-26.11 -8,-2.64 -16.27,-2.14 -24.79,1.52 -8.53,3.65 -17.84,10.08 -27.97,19.29 11.06,-1.91 21.13,-1.47 30.24,1.36 9.12,2.83 17.3,8.02 24.53,15.56 13.29,13.85 19.52,29.85 18.74,48.06 -0.78,18.19 -9.32,35.07 -25.52,50.66 -12.34,11.79 -24.63,19.2 -36.91,22.2 -12.23,2.98 -23.53,3.43 -33.87,1.3 -10.3,-2.13 -20.64,-8.59 -31.02,-19.37 -11.97,-12.54 -18.44,-25.01 -19.41,-37.47 -0.92,-12.47 1.31,-24.84 6.69,-37.11 5.38,-12.31 19.14,-29.09 41.33,-50.41 27.88,-26.72 51.19,-40.04 69.96,-39.87 18.71,0.17 37.47,10.03 56.29,29.67 11.7,12.16 18.51,18.89 20.53,20.16 1.97,1.28 3.9,1.47 5.84,0.54zm-96.85 91.19c10.98,-10.57 17.49,-21.8 19.52,-33.74 2.04,-11.94 -1.47,-22.63 -10.58,-32.1 -9.49,-9.89 -20.48,-13.95 -33.05,-12.18 -12.56,1.76 -25.03,8.57 -37.42,20.45 -12.25,11.74 -18.8,23.72 -19.62,35.86 -0.77,12.17 2.97,22.58 11.28,31.24 8.55,8.91 19.22,12.5 32.02,10.82 12.84,-1.67 25.46,-8.47 37.85,-20.35z"/>
  <path id="_15_14" class="fil62" d="M2395.83 1041.51c-11.49,-3.56 -20.93,-8.01 -28.21,-13.43 -7.27,-5.41 -13.57,-12.24 -18.84,-20.44 -8.63,-13.49 -12.01,-26.04 -10.05,-37.52 1.95,-11.54 8.06,-20.57 18.37,-27.17 6.05,-3.83 12.43,-5.99 19.16,-6.45 6.76,-0.46 13.08,0.58 18.92,3.08 5.9,2.5 11.37,6.05 16.48,10.62 3.69,3.42 8.71,8.94 15.01,16.57 12.8,15.59 23.16,26.44 31.05,32.64 2.91,-1.75 4.74,-2.9 5.53,-3.36 8.48,-5.47 13.24,-11.28 14.2,-17.45 1.27,-8.37 -1.42,-17.82 -8.16,-28.31 -6.32,-9.84 -12.67,-15.96 -19.12,-18.47 -6.41,-2.45 -14.74,-2.03 -24.92,1.33l-10.3 -22.19c9.96,-3.73 18.98,-5.19 27.07,-4.4 8.1,0.8 16.16,4.33 24.19,10.49 8.08,6.21 15.52,14.59 22.26,25.18 6.74,10.53 10.99,19.87 12.73,28 1.74,8.18 1.74,15 -0.02,20.51 -1.8,5.46 -5.17,10.66 -10.07,15.59 -3.13,2.97 -9.32,7.43 -18.59,13.37l-27.84 17.85c-19.4,12.43 -31.39,20.74 -35.97,24.91 -4.59,4.21 -8.37,9.13 -11.44,14.74l-13.96 -21.79c2.93,-4.96 7.14,-9.59 12.52,-13.9zm45.54 -31.64c-7.94,-5.61 -17.88,-15.28 -29.76,-29.04 -6.73,-7.76 -11.98,-12.96 -15.81,-15.52 -3.82,-2.56 -7.87,-3.86 -12.06,-3.88 -4.24,-0.07 -8.18,1.09 -11.79,3.41 -5.57,3.61 -8.88,8.66 -9.88,15.25 -0.99,6.59 1.07,13.96 6.29,22.07 5.14,8.06 11.48,14.09 19.02,18.09 7.55,4 15.28,5.51 23.32,4.56 6.1,-0.79 13.8,-4.12 23.03,-10.01l7.64 -4.93z"/>
  <polygon id="_16_15" class="fil62" points="2547.47,1050.82 2597.05,1158.84 2578.43,1167.37 2558.74,1124.59 2444.48,1177.04 2434.18,1154.61 2548.49,1102.18 2528.86,1059.35 "/>
  <path id="_17_16" class="fil62" d="M2622.33 1235.91l5.49 24.14 -55.69 12.78 7 30.58c4.56,19.95 4.23,36.22 -1.04,48.77 -5.28,12.56 -14.72,20.36 -28.32,23.47 -11.9,2.72 -23.1,0.56 -33.63,-6.5 -10.49,-7.05 -18.01,-20.46 -22.57,-40.21l-13.82 -60.4 142.58 -32.63zm-117.18 52.24l5.83 25.36c3.47,15.29 7.84,25.77 13.12,31.46 5.26,5.66 11.84,7.59 19.84,5.75 6.17,-1.41 11.11,-5.08 14.82,-11 3.77,-5.93 3.72,-17.18 -0.09,-33.73l-6.53 -28.6 -46.99 10.76z"/>
  <path id="_18_17" class="fil62" d="M2660.24 1427.82l2.05 24.73 -63.05 5.16c0.66,7.85 2.63,13.25 5.89,16.14 3.27,2.95 12.47,6.88 27.5,11.82 11.93,3.87 19.86,7.2 23.77,9.91 3.93,2.75 6.67,6.02 8.25,9.87 1.62,3.8 2.8,10.1 3.51,18.79l0.41 4.94 -20.49 1.64 -0.43 -6.87c-0.52,-6.49 -1.81,-10.57 -3.88,-12.25 -2.19,-1.78 -8.41,-4.18 -18.73,-7.31 -9.8,-2.99 -16.69,-5.87 -20.61,-8.71 -3.92,-2.8 -7.67,-7.33 -11.19,-13.57 -2,10.83 -11,22.09 -27.12,33.71l-42.98 30.77 -2.19 -27.19 43.03 -30.09c8.62,-6.13 14.19,-11.34 16.74,-15.58 2.56,-4.25 3.61,-9.21 3.15,-14.8l-67.41 5.52 -2.05 -24.73 145.83 -11.9z"/>
  <path id="_19_18" class="fil62" d="M2593.76 1590.62c26.99,2.24 46.36,11.39 58.06,27.46 9.8,13.42 13.88,29.16 12.39,47.17 -1.68,20.02 -9.59,35.87 -23.78,47.5 -14.18,11.61 -32.83,16.43 -55.96,14.49 -18.76,-1.53 -33.28,-5.58 -43.58,-12.08 -10.26,-6.56 -17.92,-15.4 -22.97,-26.68 -5.05,-11.23 -7.05,-23.19 -5.97,-35.93 1.68,-20.4 9.58,-36.34 23.73,-47.82 14.14,-11.49 33.5,-16.2 58.08,-14.11zm-2.09 25.38c-18.66,-1.58 -32.97,1.34 -42.95,8.7 -9.93,7.38 -15.45,17.21 -16.46,29.53 -1.03,12.27 2.76,22.88 11.41,31.79 8.64,8.89 22.53,14.15 41.67,15.79 18,1.47 31.99,-1.49 41.96,-8.91 9.97,-7.41 15.45,-17.16 16.47,-29.33 1.02,-12.37 -2.73,-22.98 -11.27,-31.87 -8.61,-8.96 -22.21,-14.17 -40.83,-15.7z"/>
  <path id="_20_19" class="fil62" d="M2636.77 1813.99l-14.69 55.26c-3.63,13.57 -7.47,23.37 -11.46,29.36 -4.04,6 -9.72,10.57 -17.03,13.72 -7.27,3.14 -15.13,3.6 -23.58,1.37 -6.76,-1.83 -12.24,-4.79 -16.54,-8.92 -4.25,-4.11 -7.31,-9.45 -9.2,-15.91 -4,6.04 -9.62,10.47 -16.88,13.24 -7.27,2.76 -15.03,3.04 -23.39,0.81 -13.19,-4.42 -21.83,-11.87 -25.99,-22.29 -4.16,-10.42 -4.01,-23.92 0.38,-40.54l16.98 -63.76 141.4 37.66zm-65.91 8.09l-6.77 25.59c-2.76,10.18 -4.08,17.32 -4.02,21.47 0.02,4.09 1.27,8.04 3.73,11.92 2.42,3.92 5.93,6.44 10.44,7.65 7.46,1.99 13.35,0.75 17.66,-3.77 4.37,-4.49 8.24,-13.12 11.62,-25.94l7.01 -26.33 -39.67 -10.59zm-62.16 -16.53l-8.41 31.54c-3.62,13.57 -4.49,23.3 -2.7,29.19 1.78,5.94 6.51,10.03 14.16,12.34 4.55,1.21 9.11,0.86 13.74,-1.04 4.67,-1.88 8.13,-5.06 10.37,-9.46 2.3,-4.46 4.84,-11.87 7.59,-22.24l7.74 -29.02 -42.49 -11.31z"/>
  <path id="_21_20" class="fil62" d="M2598.01 2014.79l26.02 11.6 -10.05 22.63 -26.07 -11.56 10.1 -22.67zm-158.45 -70.45l133.66 59.45 -10.1 22.64 -133.61 -59.46 10.05 -22.63z"/>
  <polygon id="_22_21" class="fil61 str1" points="459.09,1996.39 409.45,1845.6 601.16,1782.45 609.56,1807.94 440.47,1863.62 473.37,1963.56 642.45,1907.88 650.84,1933.24 "/>
  <path id="_23_22" class="fil61 str1" d="M645.38 1708.9l-201.16 22.15 -2.46 -22.45 18.88 -2.1c-7.98,-4.48 -14.16,-9.87 -18.59,-16.1 -4.43,-6.29 -7.17,-14.15 -8.24,-23.61 -1.34,-12.43 0.65,-23.76 5.97,-33.94 5.37,-10.17 13.56,-18.36 24.69,-24.46 11.09,-6.15 23.58,-9.93 37.47,-11.5 14.86,-1.61 28.55,-0.4 41.09,3.61 12.48,4.03 22.46,10.76 29.94,20.26 7.47,9.49 11.78,19.82 13.04,31.07 0.9,8.19 -0.04,15.76 -2.76,22.71 -2.76,6.9 -6.56,12.71 -11.39,17.52l70.79 -7.78 2.73 24.62zm-130.1 -8.27c18.73,-2.05 32.12,-7.38 40.25,-15.95 8.09,-8.56 11.58,-18.23 10.38,-28.96 -1.21,-10.97 -6.86,-19.84 -16.98,-26.63 -10.12,-6.78 -24.93,-9.12 -44.36,-6.98 -18.54,2.07 -31.99,7.4 -40.35,16.01 -8.38,8.66 -12.01,18.28 -10.85,28.86 1.17,10.5 7.1,19.24 17.78,26.26 10.73,6.97 25.44,9.46 44.13,7.39z"/>
  <path id="_24_23" class="fil61 str1" d="M404.47 1525.07l-28.51 -0.98 0.9 -24.78 28.5 0.98 -0.89 24.78zm173.32 6.05l-146.19 -5.1 0.85 -24.75 146.19 5.07 -0.85 24.78z"/>
  <path id="_25_24" class="fil61 str1" d="M522.68 1397.1l-19.11 -3.53c1.82,-10.31 2.73,-17.42 2.72,-21.32 -0.03,-3.86 -1.55,-7.8 -4.54,-11.83 -2.98,-3.98 -7.18,-6.5 -12.64,-7.51 -6.6,-1.23 -12.23,-0.03 -16.97,3.67 -4.73,3.64 -7.75,8.92 -9.04,15.89 -2.56,13.7 3.76,24.82 18.89,33.35l-8.11 22.43c-25.66,-12.24 -35.92,-32.14 -30.79,-59.77 2.84,-15.35 9.27,-26.63 19.31,-33.78 9.98,-7.15 20.84,-9.65 32.46,-7.5 11.77,2.2 20.04,9.64 24.91,22.26 5.23,-6.47 11.18,-10.96 17.84,-13.49 6.67,-2.48 14.1,-2.99 22.34,-1.43 12.9,2.38 22.53,9.01 28.79,19.88 6.31,10.89 7.89,24.8 4.78,41.66 -6.09,32.77 -24.22,49.09 -54.37,48.92l-0.64 -23.81c9.65,-0.37 17.54,-3.23 23.76,-8.67 6.28,-5.45 10.15,-12.29 11.66,-20.48 1.51,-8.24 0.48,-15.48 -3.17,-21.81 -3.65,-6.33 -9.09,-10.16 -16.29,-11.54 -5.6,-1 -10.81,-0.17 -15.6,2.48 -4.79,2.66 -8.06,5.83 -9.83,9.5 -1.72,3.69 -3.57,10.66 -5.45,20.87 -0.18,0.8 -0.45,2.64 -0.91,5.56z"/>
  <path id="_26_25" class="fil61 str1" d="M475.54 1237.1l19.55 -53.74c4.76,-13.18 9.45,-22.59 13.97,-28.2 4.56,-5.66 10.62,-9.69 18.11,-12.17 7.55,-2.48 15.45,-2.27 23.66,0.72 6.52,2.4 11.76,5.83 15.63,10.33 3.91,4.5 6.49,10.03 7.81,16.67 4.51,-5.71 10.47,-9.6 17.96,-11.7 7.46,-2.15 15.26,-1.71 23.32,1.22 12.75,5.61 20.73,13.77 23.93,24.53 3.26,10.75 1.92,24.19 -3.96,40.31l-22.53 62.01 -137.45 -49.98zm66.34 -2.26l9 -24.86c3.62,-9.95 5.6,-16.94 5.92,-21.02 0.27,-4.1 -0.59,-8.15 -2.68,-12.26 -2.08,-4.06 -5.35,-6.91 -9.71,-8.5 -7.26,-2.65 -13.24,-1.9 -17.94,2.2 -4.74,4.11 -9.32,12.34 -13.84,24.77l-9.35 25.65 38.6 14.02zm60.41 21.95l11.16 -30.68c4.82,-13.17 6.54,-22.8 5.28,-28.83 -1.27,-6.04 -5.61,-10.54 -13.02,-13.52 -4.4,-1.63 -9.01,-1.67 -13.78,-0.21 -4.81,1.51 -8.49,4.36 -11.16,8.57 -2.68,4.21 -5.84,11.37 -9.5,21.46l-10.25 28.24 41.27 14.97z"/>
  <polygon id="_27_26" class="fil61 str1" points="550.58,1048.09 563.03,1026.66 659.5,1082.74 597.59,967.21 611.03,944.1 737.54,1017.67 725.04,1039.15 629.18,983.35 690.47,1098.55 677.03,1121.67 "/>
  <polygon id="_28_27" class="fil61 str1" points="667.02,859.96 684.15,842.05 775,929.12 814.11,888.41 723.25,801.29 740.38,783.43 831.24,870.5 870.39,829.64 779.53,742.57 796.62,724.76 887.48,811.83 898.79,800 943.41,842.81 929.24,857.61 899.31,828.92 772.57,961.16 "/>
  <path id="_29_28" class="fil61 str1" d="M1013.91 687.68l23.26 -11.14c4.7,14.79 4.64,28.61 -0.08,41.49 -4.77,12.82 -14.3,23.83 -28.6,32.99 -18.03,11.54 -35.84,15.18 -53.51,10.82 -17.7,-4.32 -32.92,-16.51 -45.75,-36.56 -13.29,-20.71 -18.25,-40.2 -14.93,-58.47 3.38,-18.32 13.54,-32.92 30.56,-43.79 16.49,-10.54 33.5,-13.56 51.12,-9.05 17.62,4.55 32.98,16.96 45.99,37.3 0.8,1.22 1.95,3.1 3.47,5.63l-91.89 58.87c9.43,13.02 19.92,20.96 31.41,23.71 11.45,2.8 22.35,0.9 32.66,-5.7 7.64,-4.89 12.87,-11.08 15.74,-18.58 2.83,-7.49 3.01,-16.67 0.55,-27.52zm-90.21 10.18l68.79 -44.06c-7.53,-9.78 -15.14,-15.86 -22.83,-18.26 -11.78,-3.78 -22.97,-2.31 -33.6,4.49 -9.57,6.17 -15.57,14.53 -18.01,25.13 -2.43,10.59 -0.53,21.5 5.65,32.7z"/>
  <polygon id="_30_29" class="fil61 str1" points="1170.82,660.48 1094.86,473.34 1119.63,463.28 1195.6,650.47 "/>
  <polygon id="_31_30" class="fil61 str1" points="1230.41,482.11 1268,473.51 1331.57,579.03 1347.06,455.41 1381.83,447.48 1414.45,590 1390.32,595.55 1364.05,480.77 1348.16,605.18 1326.53,610.12 1259.15,499 1286.69,619.23 1263.03,624.64 "/>
  <polygon id="_32_31" class="fil61 str1" points="1469.7,456.6 1460.33,419.5 1457.58,385.84 1485.74,383.54 1488.45,417.2 1484.93,455.37 "/>
  <path id="_33_32" class="fil61 str1" d="M1688.37 446.46l-12.18 145.68 -24.55 -2.03 4.75 -56.8 -14.29 -1.22c-8.65,-0.71 -15.25,-0.14 -19.67,1.76 -4.44,1.89 -11.26,8.58 -20.41,20.05l-24.18 30.03 -30.6 -2.55 29.91 -37c9.15,-11.33 17.8,-17.39 25.94,-18.28 -13.9,-3.1 -23.93,-9.04 -30.04,-17.83 -6.14,-8.84 -8.76,-18.54 -7.85,-29.27 1.03,-12.64 6.36,-22.49 15.9,-29.62 9.6,-7.13 22.84,-9.96 39.76,-8.53l67.51 5.61zm-26.27 18.41l-35.12 -2.96c-14.72,-1.22 -24.42,0.26 -29.05,4.51 -4.64,4.21 -7.21,9.37 -7.72,15.48 -0.71,8.69 1.88,15.35 7.81,19.94 5.9,4.61 16.85,7.55 32.78,8.88l27.27 2.28 4.03 -48.13z"/>
  <polygon id="_34_33" class="fil61 str1" points="1867.97,423.34 2017.19,477.55 1948.25,667.29 1922.97,658.15 1983.83,490.77 1884.97,454.87 1824.12,622.19 1799.03,613.04 "/>
  <path id="_35_34" class="fil61 str1" d="M2042.74 630.24c14.87,-22.64 32.16,-35.26 51.92,-37.89 16.47,-2.13 32.21,1.76 47.34,11.68 16.81,11.04 26.89,25.6 30.33,43.62 3.4,17.97 -1.25,36.68 -13.99,56.08 -10.35,15.74 -20.86,26.58 -31.5,32.48 -10.64,5.9 -22.08,8.37 -34.4,7.45 -12.27,-0.97 -23.75,-4.94 -34.41,-11.94 -17.09,-11.22 -27.31,-25.82 -30.66,-43.71 -3.34,-17.88 1.78,-37.16 15.37,-57.77zm21.27 13.97c-10.28,15.64 -14.6,29.6 -12.88,41.88 1.71,12.27 7.76,21.8 18.09,28.59 10.29,6.79 21.38,8.52 33.39,5.15 11.95,-3.3 23.21,-13.02 33.74,-29.03 9.95,-15.12 14.04,-28.81 12.28,-41.13 -1.72,-12.29 -7.72,-21.8 -17.91,-28.5 -10.34,-6.8 -21.48,-8.56 -33.38,-5.3 -11.96,3.22 -23.04,12.7 -33.33,28.34z"/>
  <path id="_36_35" class="fil61 str1" d="M2428.58 770.52l14.93 15.97c-7.78,6.09 -14.22,9.23 -19.34,9.51 -5.09,0.23 -9.89,-1.14 -14.3,-4.21 -4.46,-3.06 -12.03,-10.13 -22.69,-21.25 -14.18,-14.79 -25.27,-23.5 -33.26,-26.11 -8,-2.64 -16.27,-2.14 -24.79,1.52 -8.53,3.65 -17.84,10.08 -27.97,19.29 11.06,-1.91 21.13,-1.47 30.24,1.36 9.12,2.83 17.3,8.02 24.53,15.56 13.29,13.85 19.52,29.85 18.74,48.06 -0.78,18.19 -9.32,35.07 -25.52,50.66 -12.34,11.79 -24.63,19.2 -36.91,22.2 -12.23,2.98 -23.53,3.43 -33.87,1.3 -10.3,-2.13 -20.64,-8.59 -31.02,-19.37 -11.97,-12.54 -18.44,-25.01 -19.41,-37.47 -0.92,-12.47 1.31,-24.84 6.69,-37.11 5.38,-12.31 19.14,-29.09 41.33,-50.41 27.88,-26.72 51.19,-40.04 69.96,-39.87 18.71,0.17 37.47,10.03 56.29,29.67 11.7,12.16 18.51,18.89 20.53,20.16 1.97,1.28 3.9,1.47 5.84,0.54zm-96.85 91.19c10.98,-10.57 17.49,-21.8 19.52,-33.74 2.04,-11.94 -1.47,-22.63 -10.58,-32.1 -9.49,-9.89 -20.48,-13.95 -33.05,-12.18 -12.56,1.76 -25.03,8.57 -37.42,20.45 -12.25,11.74 -18.8,23.72 -19.62,35.86 -0.77,12.17 2.97,22.58 11.28,31.24 8.55,8.91 19.22,12.5 32.02,10.82 12.84,-1.67 25.46,-8.47 37.85,-20.35z"/>
  <path id="_37_36" class="fil61 str1" d="M2395.83 1041.51c-11.49,-3.56 -20.93,-8.01 -28.21,-13.43 -7.27,-5.41 -13.57,-12.24 -18.84,-20.44 -8.63,-13.49 -12.01,-26.04 -10.05,-37.52 1.95,-11.54 8.06,-20.57 18.37,-27.17 6.05,-3.83 12.43,-5.99 19.16,-6.45 6.76,-0.46 13.08,0.58 18.92,3.08 5.9,2.5 11.37,6.05 16.48,10.62 3.69,3.42 8.71,8.94 15.01,16.57 12.8,15.59 23.16,26.44 31.05,32.64 2.91,-1.75 4.74,-2.9 5.53,-3.36 8.48,-5.47 13.24,-11.28 14.2,-17.45 1.27,-8.37 -1.42,-17.82 -8.16,-28.31 -6.32,-9.84 -12.67,-15.96 -19.12,-18.47 -6.41,-2.45 -14.74,-2.03 -24.92,1.33l-10.3 -22.19c9.96,-3.73 18.98,-5.19 27.07,-4.4 8.1,0.8 16.16,4.33 24.19,10.49 8.08,6.21 15.52,14.59 22.26,25.18 6.74,10.53 10.99,19.87 12.73,28 1.74,8.18 1.74,15 -0.02,20.51 -1.8,5.46 -5.17,10.66 -10.07,15.59 -3.13,2.97 -9.32,7.43 -18.59,13.37l-27.84 17.85c-19.4,12.43 -31.39,20.74 -35.97,24.91 -4.59,4.21 -8.37,9.13 -11.44,14.74l-13.96 -21.79c2.93,-4.96 7.14,-9.59 12.52,-13.9zm45.54 -31.64c-7.94,-5.61 -17.88,-15.28 -29.76,-29.04 -6.73,-7.76 -11.98,-12.96 -15.81,-15.52 -3.82,-2.56 -7.87,-3.86 -12.06,-3.88 -4.24,-0.07 -8.18,1.09 -11.79,3.41 -5.57,3.61 -8.88,8.66 -9.88,15.25 -0.99,6.59 1.07,13.96 6.29,22.07 5.14,8.06 11.48,14.09 19.02,18.09 7.55,4 15.28,5.51 23.32,4.56 6.1,-0.79 13.8,-4.12 23.03,-10.01l7.64 -4.93z"/>
  <polygon id="_38_37" class="fil61 str1" points="2547.47,1050.82 2597.05,1158.84 2578.43,1167.37 2558.74,1124.59 2444.48,1177.04 2434.18,1154.61 2548.49,1102.18 2528.86,1059.35 "/>
  <path id="_39_38" class="fil61 str1" d="M2622.33 1235.91l5.49 24.14 -55.69 12.78 7 30.58c4.56,19.95 4.23,36.22 -1.04,48.77 -5.28,12.56 -14.72,20.36 -28.32,23.47 -11.9,2.72 -23.1,0.56 -33.63,-6.5 -10.49,-7.05 -18.01,-20.46 -22.57,-40.21l-13.82 -60.4 142.58 -32.63zm-117.18 52.24l5.83 25.36c3.47,15.29 7.84,25.77 13.12,31.46 5.26,5.66 11.84,7.59 19.84,5.75 6.17,-1.41 11.11,-5.08 14.82,-11 3.77,-5.93 3.72,-17.18 -0.09,-33.73l-6.53 -28.6 -46.99 10.76z"/>
  <path id="_40_39" class="fil61 str1" d="M2660.24 1427.82l2.05 24.73 -63.05 5.16c0.66,7.85 2.63,13.25 5.89,16.14 3.27,2.95 12.47,6.88 27.5,11.82 11.93,3.87 19.86,7.2 23.77,9.91 3.93,2.75 6.67,6.02 8.25,9.87 1.62,3.8 2.8,10.1 3.51,18.79l0.41 4.94 -20.49 1.64 -0.43 -6.87c-0.52,-6.49 -1.81,-10.57 -3.88,-12.25 -2.19,-1.78 -8.41,-4.18 -18.73,-7.31 -9.8,-2.99 -16.69,-5.87 -20.61,-8.71 -3.92,-2.8 -7.67,-7.33 -11.19,-13.57 -2,10.83 -11,22.09 -27.12,33.71l-42.98 30.77 -2.19 -27.19 43.03 -30.09c8.62,-6.13 14.19,-11.34 16.74,-15.58 2.56,-4.25 3.61,-9.21 3.15,-14.8l-67.41 5.52 -2.05 -24.73 145.83 -11.9z"/>
  <path id="_41_40" class="fil61 str1" d="M2593.76 1590.62c26.99,2.24 46.36,11.39 58.06,27.46 9.8,13.42 13.88,29.16 12.39,47.17 -1.68,20.02 -9.59,35.87 -23.78,47.5 -14.18,11.61 -32.83,16.43 -55.96,14.49 -18.76,-1.53 -33.28,-5.58 -43.58,-12.08 -10.26,-6.56 -17.92,-15.4 -22.97,-26.68 -5.05,-11.23 -7.05,-23.19 -5.97,-35.93 1.68,-20.4 9.58,-36.34 23.73,-47.82 14.14,-11.49 33.5,-16.2 58.08,-14.11zm-2.09 25.38c-18.66,-1.58 -32.97,1.34 -42.95,8.7 -9.93,7.38 -15.45,17.21 -16.46,29.53 -1.03,12.27 2.76,22.88 11.41,31.79 8.64,8.89 22.53,14.15 41.67,15.79 18,1.47 31.99,-1.49 41.96,-8.91 9.97,-7.41 15.45,-17.16 16.47,-29.33 1.02,-12.37 -2.73,-22.98 -11.27,-31.87 -8.61,-8.96 -22.21,-14.17 -40.83,-15.7z"/>
  <path id="_42_41" class="fil61 str1" d="M2636.77 1813.99l-14.69 55.26c-3.63,13.57 -7.47,23.37 -11.46,29.36 -4.04,6 -9.72,10.57 -17.03,13.72 -7.27,3.14 -15.13,3.6 -23.58,1.37 -6.76,-1.83 -12.24,-4.79 -16.54,-8.92 -4.25,-4.11 -7.31,-9.45 -9.2,-15.91 -4,6.04 -9.62,10.47 -16.88,13.24 -7.27,2.76 -15.03,3.04 -23.39,0.81 -13.19,-4.42 -21.83,-11.87 -25.99,-22.29 -4.16,-10.42 -4.01,-23.92 0.38,-40.54l16.98 -63.76 141.4 37.66zm-65.91 8.09l-6.77 25.59c-2.76,10.18 -4.08,17.32 -4.02,21.47 0.02,4.09 1.27,8.04 3.73,11.92 2.42,3.92 5.93,6.44 10.44,7.65 7.46,1.99 13.35,0.75 17.66,-3.77 4.37,-4.49 8.24,-13.12 11.62,-25.94l7.01 -26.33 -39.67 -10.59zm-62.16 -16.53l-8.41 31.54c-3.62,13.57 -4.49,23.3 -2.7,29.19 1.78,5.94 6.51,10.03 14.16,12.34 4.55,1.21 9.11,0.86 13.74,-1.04 4.67,-1.88 8.13,-5.06 10.37,-9.46 2.3,-4.46 4.84,-11.87 7.59,-22.24l7.74 -29.02 -42.49 -11.31z"/>
  <path id="_43_42" class="fil61 str1" d="M2598.01 2014.79l26.02 11.6 -10.05 22.63 -26.07 -11.56 10.1 -22.67zm-158.45 -70.45l133.66 59.45 -10.1 22.64 -133.61 -59.46 10.05 -22.63z"/>
  <path class="fil62 str2" d="M630 2129.02c-0.56,-8.26 -2.44,-16.53 -5.71,-24.73 -4.61,-11.78 -6.91,-19.92 -6.91,-24.36 0,-6.29 1.68,-11.04 4.95,-14.31 3.35,-3.27 7.46,-4.87 12.4,-4.87 4.18,0 7.88,1.6 11.02,4.87 3.13,3.27 4.66,7.89 4.66,13.94 0,5.42 -1.81,12.95 -5.36,22.64 -3.63,9.74 -5.86,18.68 -6.69,26.82 7.52,-4.19 14.21,-9.31 20.2,-15.36 9.27,-9.49 16.17,-15.41 20.63,-17.69 4.52,-2.29 9.05,-3.4 13.72,-3.4 4.46,0 8.22,1.36 11.29,4.07 3.06,2.65 4.6,5.92 4.6,9.63 0,4.5 -2.23,8.45 -6.76,11.96 -4.46,3.45 -15.68,6.97 -33.65,10.49 -10.46,2.03 -19.16,4.37 -26.13,7.03 7.11,3.27 15.75,5.73 25.92,7.4 16.44,2.65 27.24,5.98 32.32,9.93 5.16,4.01 7.67,8.32 7.67,13.01 0,3.64 -1.53,6.72 -4.6,9.38 -3.07,2.65 -6.62,4.01 -10.66,4.01 -4.11,0 -8.64,-1.3 -13.58,-3.83 -4.95,-2.53 -11.71,-8.2 -20.14,-16.96 -5.58,-5.92 -12.47,-11.47 -20.83,-16.65 0.28,6.91 1.88,14.37 4.74,22.45 4.87,14.18 7.31,23.87 7.31,29.05 0,4.81 -1.6,8.88 -4.88,12.21 -3.27,3.33 -6.75,5 -10.37,5 -5.09,0 -9.62,-1.79 -13.73,-5.24 -2.86,-2.53 -4.25,-6.61 -4.25,-12.16 0,-5.73 1.53,-12.7 4.66,-20.84 3.14,-8.15 5.09,-13.76 5.93,-16.78 0.83,-3.09 1.6,-7.65 2.23,-13.69 -8.02,4.75 -15.05,9.93 -20.97,15.73 -9.97,9.86 -17.42,16.16 -22.51,18.81 -3.55,1.91 -7.17,2.9 -11.01,2.9 -4.59,0 -8.56,-1.42 -11.84,-4.2 -3.27,-2.77 -4.88,-5.79 -4.88,-9.19 0,-3.02 1.4,-6.17 4.18,-9.5 2.79,-3.33 6.97,-6.04 12.54,-8.2 3.7,-1.48 12.06,-3.39 25.09,-5.8 8.43,-1.54 16.72,-3.82 24.73,-6.84 -7.38,-3.27 -16.16,-5.8 -26.34,-7.59 -16.72,-3.14 -27.1,-5.98 -31,-8.51 -6.13,-3.95 -9.2,-8.82 -9.2,-14.44 0,-3.26 1.54,-6.23 4.6,-8.94 3.07,-2.71 6.62,-4.07 10.73,-4.07 4.46,0 9.2,1.23 14.28,3.77 5.02,2.52 11.29,7.64 18.74,15.29 7.53,7.65 15.13,13.57 22.86,17.76z"/>
  <path class="fil62" d="M676.46 2341.06l140.55 -145.17 28.79 27.87 -65.16 136c-6.08,12.64 -10.72,22.03 -13.88,28.2 6.75,-3.67 16.89,-8.92 30.31,-15.76l132.7 -67.14 25.72 24.9 -140.55 145.17 -18.46 -17.87 117.58 -121.45 -159.95 80.42 -17.3 -16.75 77.84 -164.24 -119.74 123.68 -18.45 -17.86zm234.72 85.43c16.87,-28.93 37.88,-47.05 62.99,-54.37 25.11,-7.29 49.94,-3.77 74.57,10.58 16.13,9.41 28.39,21.72 36.87,36.96 8.45,15.21 12.07,31.7 10.83,49.42 -1.22,17.7 -6.9,35.29 -17.06,52.72 -10.31,17.68 -23.12,31.44 -38.39,41.21 -15.3,9.81 -31.58,14.48 -48.83,14.01 -17.32,-0.46 -33.55,-5.12 -48.71,-13.96 -16.46,-9.59 -28.81,-22.13 -37.15,-37.6 -8.3,-15.47 -11.83,-32 -10.49,-49.62 1.31,-17.58 6.44,-34.03 15.37,-49.35zm23.65 14.33c-12.24,21.01 -16.23,40.84 -11.96,59.5 4.25,18.65 14.91,32.97 31.97,42.92 17.39,10.14 35.21,12.35 53.58,6.72 18.31,-5.65 34.01,-19.7 47.09,-42.13 8.26,-14.17 13.09,-27.97 14.46,-41.33 1.36,-13.36 -0.89,-25.67 -6.73,-36.86 -5.88,-11.2 -14.53,-20.17 -26.03,-26.87 -16.33,-9.52 -33.67,-12.11 -51.99,-7.77 -18.32,4.36 -35.11,19.61 -50.39,45.82zm159.65 132.31l25.95 3.71c-1.96,9.78 -0.91,20.8 3.09,33.04 4.03,12.26 12.42,21.03 25.24,26.33 13.04,5.39 24.72,6.31 35.07,2.7 10.29,-3.59 17.43,-10.15 21.37,-19.67 4.24,-10.25 3.69,-20.1 -1.76,-29.43 -5.39,-9.37 -14.96,-16.89 -28.61,-22.53l-11.78 -4.87 8.96 -21.64c11.3,4.67 20.22,7.59 26.76,8.77 6.53,1.18 13.22,0.03 20.05,-3.46 6.82,-3.44 11.66,-8.61 14.5,-15.48 3.34,-8.08 3.14,-16.47 -0.68,-25.07 -3.77,-8.59 -11.05,-15.11 -21.74,-19.54 -9.39,-3.88 -18.35,-4.84 -26.92,-2.83 -8.57,2 -15.72,6.37 -21.5,13.09 -5.74,6.74 -9.42,12.04 -11,15.86l-21.47 -15.28c22.23,-37.23 52.25,-48.03 90.02,-32.41 18.21,7.54 30.5,18.57 36.95,33.1 6.46,14.54 6.91,28.58 1.31,42.13 -7.19,17.38 -20.99,27.47 -41.37,30.23 8.42,6.59 14.15,15.26 17.24,26.01 3.02,10.77 2.22,21.8 -2.45,33.1 -6.65,16.08 -18.42,26.93 -35.33,32.62 -16.91,5.68 -35.62,4.3 -56.14,-4.19 -35.3,-14.6 -50.55,-42.69 -45.76,-84.29zm297.48 -58.22l26.83 2.05 56.52 128.9 66.83 -119.48 26.26 2.01 -87.43 150.97c-10.93,18.88 -19.65,31.14 -26.16,36.72 -6.51,5.59 -15.37,7.94 -26.63,7.08 -6.84,-0.53 -15.11,-2.76 -24.86,-6.72l1.74 -22.78c6.81,4.66 14.2,7.3 22.18,7.91 6.47,0.5 12.21,-1.18 17.27,-5 5.01,-3.81 10.94,-12.93 17.75,-27.36l-70.3 -154.3zm180.29 65.96l24.77 -1.89 4.81 63.03c7.88,-0.6 13.3,-2.53 16.26,-5.81 2.91,-3.24 6.89,-12.37 11.95,-27.43 4.01,-11.91 7.37,-19.81 10.09,-23.7 2.77,-3.89 6.05,-6.64 9.89,-8.21 3.88,-1.57 10.17,-2.71 18.85,-3.37l4.97 -0.38 1.55 20.4 -6.9 0.39c-6.52,0.5 -10.62,1.8 -12.3,3.86 -1.77,2.17 -4.26,8.39 -7.44,18.69 -3.03,9.85 -5.94,16.73 -8.8,20.63 -2.82,3.88 -7.39,7.58 -13.68,11.13 10.86,2.05 22.12,11.14 33.74,27.33l30.61 43.18 -27.2 2.08 -30.22 -43.07c-6.1,-8.73 -11.24,-14.38 -15.45,-16.98 -4.26,-2.6 -9.15,-3.69 -14.73,-3.26l5.15 67.53 -24.76 1.89 -11.16 -146.04zm170.8 189.06l-45.56 -197.44 21.99 -5.07 4.33 18.74c3.51,-8.43 8.12,-15.24 13.83,-20.37 5.67,-5.12 13.18,-8.79 22.49,-10.93 12.19,-2.82 23.64,-2.17 34.38,1.96 10.74,4.08 19.8,11.31 27.19,21.57 7.35,10.33 12.61,22.25 15.75,35.85 3.35,14.53 3.77,28.25 1.24,41.14 -2.53,12.84 -8.08,23.54 -16.64,32.08 -8.51,8.48 -18.29,14.01 -29.29,16.55 -8.07,1.86 -15.7,1.83 -22.85,-0.09 -7.2,-1.91 -13.41,-4.96 -18.73,-9.19l16.06 69.62 -24.19 5.58zm-6.9 -130.28c4.22,18.29 11.05,30.95 20.46,38 9.43,7.04 19.43,9.37 29.98,6.94 10.72,-2.48 18.84,-9.13 24.35,-19.96 5.57,-10.85 6.13,-25.75 1.74,-44.77 -4.19,-18.15 -11.03,-30.86 -20.59,-38.15 -9.54,-7.31 -19.48,-9.75 -29.83,-7.36 -10.27,2.36 -18.24,9.27 -23.91,20.67 -5.7,11.46 -6.43,26.3 -2.2,44.63zm251.96 -18.28c-5.52,10.78 -11.63,19.26 -18.26,25.52 -6.62,6.26 -14.44,11.21 -23.49,14.95 -14.86,6.15 -27.78,7.27 -38.78,3.33 -10.98,-3.91 -18.81,-11.51 -23.47,-22.77 -2.73,-6.6 -3.71,-13.28 -2.98,-20 0.78,-6.72 2.93,-12.71 6.44,-18.03 3.54,-5.34 7.97,-10.11 13.41,-14.35 4.03,-3.05 10.38,-6.99 19,-11.88 17.62,-9.84 30.21,-18.15 37.69,-24.81 -1.21,-3.16 -2,-5.18 -2.34,-6.01 -3.84,-9.3 -8.73,-14.96 -14.67,-16.99 -8,-2.74 -17.79,-1.69 -29.35,3.09 -10.83,4.48 -18.04,9.7 -21.6,15.6 -3.6,5.92 -4.62,14.18 -3.11,24.85l-23.72 6.15c-1.93,-10.45 -1.79,-19.61 0.45,-27.47 2.24,-7.85 7.16,-15.18 14.7,-22.06 7.51,-6.82 17.14,-12.69 28.79,-17.51 11.56,-4.78 21.55,-7.33 29.94,-7.6 8.35,-0.25 15.09,0.93 20.19,3.66 5.1,2.73 9.65,6.95 13.64,12.68 2.36,3.61 5.67,10.49 9.86,20.6l12.59 30.43c8.79,21.26 14.82,34.49 18.13,39.78 3.28,5.33 7.44,9.97 12.37,14.03l-23.99 9.93c-4.3,-3.88 -8.12,-8.92 -11.44,-15.12zm-22.87 -50.09c-6.94,6.83 -18.27,14.88 -33.99,24.13 -8.92,5.27 -14.99,9.56 -18.19,12.88 -3.21,3.3 -5.19,7.02 -5.99,11.12 -0.78,4.14 -0.37,8.19 1.28,12.19 2.5,6.05 6.91,10.18 13.23,12.3 6.33,2.11 13.95,1.35 22.86,-2.33 8.82,-3.65 15.9,-8.82 21.21,-15.54 5.29,-6.67 8.19,-14.03 8.66,-22.01 0.33,-6.2 -1.59,-14.31 -5.74,-24.35l-3.33 -8.39zm115 28.27l-63.2 -132.13 22.41 -10.72 63.2 132.13 -22.41 10.72zm-94.92 -136.98l-12.18 -25.46 23.42 -11.2 12.18 25.46 -23.42 11.2zm46.33 -22.16l-12.17 -25.46 23.41 -11.2 12.18 25.46 -23.42 11.2zm45.46 -1.33l20.03 -14.67 36.01 49.19 55.57 -40.67 -36.01 -49.19 20.04 -14.67 86.51 118.19 -20.04 14.67 -38.34 -52.38 -55.56 40.67 38.34 52.38 -20.04 14.67 -86.51 -118.19zm130 -96.82l18.17 -16.92 76.16 81.72 -25.68 -128.76 19.51 -18.19 99.86 107.16 -18.17 16.93 -75.67 -81.21 25.26 128.19 -19.58 18.24 -99.86 -107.16z"/>
  <path id="_1_43" class="fil61 str3" d="M676.46 2341.06l140.55 -145.17 28.79 27.87 -65.16 136c-6.08,12.64 -10.72,22.03 -13.88,28.2 6.75,-3.67 16.89,-8.92 30.31,-15.76l132.7 -67.14 25.72 24.9 -140.55 145.17 -18.46 -17.87 117.58 -121.45 -159.95 80.42 -17.3 -16.75 77.84 -164.24 -119.74 123.68 -18.45 -17.86zm234.72 85.43c16.87,-28.93 37.88,-47.05 62.99,-54.37 25.11,-7.29 49.94,-3.77 74.57,10.58 16.13,9.41 28.39,21.72 36.87,36.96 8.45,15.21 12.07,31.7 10.83,49.42 -1.22,17.7 -6.9,35.29 -17.06,52.72 -10.31,17.68 -23.12,31.44 -38.39,41.21 -15.3,9.81 -31.58,14.48 -48.83,14.01 -17.32,-0.46 -33.55,-5.12 -48.71,-13.96 -16.46,-9.59 -28.81,-22.13 -37.15,-37.6 -8.3,-15.47 -11.83,-32 -10.49,-49.62 1.31,-17.58 6.44,-34.03 15.37,-49.35zm23.65 14.33c-12.24,21.01 -16.23,40.84 -11.96,59.5 4.25,18.65 14.91,32.97 31.97,42.92 17.39,10.14 35.21,12.35 53.58,6.72 18.31,-5.65 34.01,-19.7 47.09,-42.13 8.26,-14.17 13.09,-27.97 14.46,-41.33 1.36,-13.36 -0.89,-25.67 -6.73,-36.86 -5.88,-11.2 -14.53,-20.17 -26.03,-26.87 -16.33,-9.52 -33.67,-12.11 -51.99,-7.77 -18.32,4.36 -35.11,19.61 -50.39,45.82zm159.65 132.31l25.95 3.71c-1.96,9.78 -0.91,20.8 3.09,33.04 4.03,12.26 12.42,21.03 25.24,26.33 13.04,5.39 24.72,6.31 35.07,2.7 10.29,-3.59 17.43,-10.15 21.37,-19.67 4.24,-10.25 3.69,-20.1 -1.76,-29.43 -5.39,-9.37 -14.96,-16.89 -28.61,-22.53l-11.78 -4.87 8.96 -21.64c11.3,4.67 20.22,7.59 26.76,8.77 6.53,1.18 13.22,0.03 20.05,-3.46 6.82,-3.44 11.66,-8.61 14.5,-15.48 3.34,-8.08 3.14,-16.47 -0.68,-25.07 -3.77,-8.59 -11.05,-15.11 -21.74,-19.54 -9.39,-3.88 -18.35,-4.84 -26.92,-2.83 -8.57,2 -15.72,6.37 -21.5,13.09 -5.74,6.74 -9.42,12.04 -11,15.86l-21.47 -15.28c22.23,-37.23 52.25,-48.03 90.02,-32.41 18.21,7.54 30.5,18.57 36.95,33.1 6.46,14.54 6.91,28.58 1.31,42.13 -7.19,17.38 -20.99,27.47 -41.37,30.23 8.42,6.59 14.15,15.26 17.24,26.01 3.02,10.77 2.22,21.8 -2.45,33.1 -6.65,16.08 -18.42,26.93 -35.33,32.62 -16.91,5.68 -35.62,4.3 -56.14,-4.19 -35.3,-14.6 -50.55,-42.69 -45.76,-84.29zm297.48 -58.22l26.83 2.05 56.52 128.9 66.83 -119.48 26.26 2.01 -87.43 150.97c-10.93,18.88 -19.65,31.14 -26.16,36.72 -6.51,5.59 -15.37,7.94 -26.63,7.08 -6.84,-0.53 -15.11,-2.76 -24.86,-6.72l1.74 -22.78c6.81,4.66 14.2,7.3 22.18,7.91 6.47,0.5 12.21,-1.18 17.27,-5 5.01,-3.81 10.94,-12.93 17.75,-27.36l-70.3 -154.3zm180.29 65.96l24.77 -1.89 4.81 63.03c7.88,-0.6 13.3,-2.53 16.26,-5.81 2.91,-3.24 6.89,-12.37 11.95,-27.43 4.01,-11.91 7.37,-19.81 10.09,-23.7 2.77,-3.89 6.05,-6.64 9.89,-8.21 3.88,-1.57 10.17,-2.71 18.85,-3.37l4.97 -0.38 1.55 20.4 -6.9 0.39c-6.52,0.5 -10.62,1.8 -12.3,3.86 -1.77,2.17 -4.26,8.39 -7.44,18.69 -3.03,9.85 -5.94,16.73 -8.8,20.63 -2.82,3.88 -7.39,7.58 -13.68,11.13 10.86,2.05 22.12,11.14 33.74,27.33l30.61 43.18 -27.2 2.08 -30.22 -43.07c-6.1,-8.73 -11.24,-14.38 -15.45,-16.98 -4.26,-2.6 -9.15,-3.69 -14.73,-3.26l5.15 67.53 -24.76 1.89 -11.16 -146.04zm170.8 189.06l-45.56 -197.44 21.99 -5.07 4.33 18.74c3.51,-8.43 8.12,-15.24 13.83,-20.37 5.67,-5.12 13.18,-8.79 22.49,-10.93 12.19,-2.82 23.64,-2.17 34.38,1.96 10.74,4.08 19.8,11.31 27.19,21.57 7.35,10.33 12.61,22.25 15.75,35.85 3.35,14.53 3.77,28.25 1.24,41.14 -2.53,12.84 -8.08,23.54 -16.64,32.08 -8.51,8.48 -18.29,14.01 -29.29,16.55 -8.07,1.86 -15.7,1.83 -22.85,-0.09 -7.2,-1.91 -13.41,-4.96 -18.73,-9.19l16.06 69.62 -24.19 5.58zm-6.9 -130.28c4.22,18.29 11.05,30.95 20.46,38 9.43,7.04 19.43,9.37 29.98,6.94 10.72,-2.48 18.84,-9.13 24.35,-19.96 5.57,-10.85 6.13,-25.75 1.74,-44.77 -4.19,-18.15 -11.03,-30.86 -20.59,-38.15 -9.54,-7.31 -19.48,-9.75 -29.83,-7.36 -10.27,2.36 -18.24,9.27 -23.91,20.67 -5.7,11.46 -6.43,26.3 -2.2,44.63zm251.96 -18.28c-5.52,10.78 -11.63,19.26 -18.26,25.52 -6.62,6.26 -14.44,11.21 -23.49,14.95 -14.86,6.15 -27.78,7.27 -38.78,3.33 -10.98,-3.91 -18.81,-11.51 -23.47,-22.77 -2.73,-6.6 -3.71,-13.28 -2.98,-20 0.78,-6.72 2.93,-12.71 6.44,-18.03 3.54,-5.34 7.97,-10.11 13.41,-14.35 4.03,-3.05 10.38,-6.99 19,-11.88 17.62,-9.84 30.21,-18.15 37.69,-24.81 -1.21,-3.16 -2,-5.18 -2.34,-6.01 -3.84,-9.3 -8.73,-14.96 -14.67,-16.99 -8,-2.74 -17.79,-1.69 -29.35,3.09 -10.83,4.48 -18.04,9.7 -21.6,15.6 -3.6,5.92 -4.62,14.18 -3.11,24.85l-23.72 6.15c-1.93,-10.45 -1.79,-19.61 0.45,-27.47 2.24,-7.85 7.16,-15.18 14.7,-22.06 7.51,-6.82 17.14,-12.69 28.79,-17.51 11.56,-4.78 21.55,-7.33 29.94,-7.6 8.35,-0.25 15.09,0.93 20.19,3.66 5.1,2.73 9.65,6.95 13.64,12.68 2.36,3.61 5.67,10.49 9.86,20.6l12.59 30.43c8.79,21.26 14.82,34.49 18.13,39.78 3.28,5.33 7.44,9.97 12.37,14.03l-23.99 9.93c-4.3,-3.88 -8.12,-8.92 -11.44,-15.12zm-22.87 -50.09c-6.94,6.83 -18.27,14.88 -33.99,24.13 -8.92,5.27 -14.99,9.56 -18.19,12.88 -3.21,3.3 -5.19,7.02 -5.99,11.12 -0.78,4.14 -0.37,8.19 1.28,12.19 2.5,6.05 6.91,10.18 13.23,12.3 6.33,2.11 13.95,1.35 22.86,-2.33 8.82,-3.65 15.9,-8.82 21.21,-15.54 5.29,-6.67 8.19,-14.03 8.66,-22.01 0.33,-6.2 -1.59,-14.31 -5.74,-24.35l-3.33 -8.39zm115 28.27l-63.2 -132.13 22.41 -10.72 63.2 132.13 -22.41 10.72zm-94.92 -136.98l-12.18 -25.46 23.42 -11.2 12.18 25.46 -23.42 11.2zm46.33 -22.16l-12.17 -25.46 23.41 -11.2 12.18 25.46 -23.42 11.2zm45.46 -1.33l20.03 -14.67 36.01 49.19 55.57 -40.67 -36.01 -49.19 20.04 -14.67 86.51 118.19 -20.04 14.67 -38.34 -52.38 -55.56 40.67 38.34 52.38 -20.04 14.67 -86.51 -118.19zm130 -96.82l18.17 -16.92 76.16 81.72 -25.68 -128.76 19.51 -18.19 99.86 107.16 -18.17 16.93 -75.67 -81.21 25.26 128.19 -19.58 18.24 -99.86 -107.16z"/>
  <circle class="fil61 str4" cx="1550" cy="1550" r="866.09"/>
  <circle class="fil61 str5" cx="1550" cy="1550" r="806.56"/>
  <path class="fil62" d="M994.6 1109.71c-3.11,-1.53 -7.76,-2.82 -13.99,-3.88 -6.23,-1.12 -10.35,-1.82 -12.29,-2.18l0 -12.34 194.37 0 0 12.34c-3.23,0.12 -7.23,0.65 -11.93,1.53 -4.71,0.94 -8.23,1.83 -10.59,2.59 -3.94,1.41 -6.58,3.7 -7.93,6.88 -1.36,3.23 -2,6.76 -2,10.52l0 176.03c0,4.06 0.64,7.41 2,10.17 1.35,2.76 3.99,5.17 7.93,7.23 2,1.06 5.53,2.06 10.59,3.12 5.05,1 9.05,1.59 11.93,1.7l0 12.35 -101.59 0 0 -12.35c2.76,-0.23 6.7,-0.58 11.87,-1.05 5.18,-0.42 8.76,-1.12 10.7,-2.06 3.41,-1.35 5.88,-3.47 7.47,-6.29 1.59,-2.83 2.41,-6.47 2.41,-10.94l0 -197.66 -65.61 0c0,40.15 -2.65,75.25 -8,105.18 -5.35,29.98 -12.4,54.56 -21.11,73.61 -8.4,18.58 -17.75,32.33 -27.98,41.45 -10.29,9.11 -20.7,13.64 -31.1,13.64 -9.65,0 -17.11,-2.47 -22.4,-7.35 -5.29,-4.88 -7.94,-10.58 -7.94,-17.17 0,-5.06 1.7,-9.99 5.06,-14.82 3.41,-4.82 8.29,-7.23 14.58,-7.23 4.46,0 8.35,0.89 11.52,2.59 3.23,1.76 5.88,3.76 7.94,6.11 2.11,2.3 3.88,4.71 5.46,7.18 1.53,2.47 2.83,4.47 3.89,5.99 4.35,-3.58 9.23,-9.7 14.63,-18.46 5.41,-8.7 10.71,-20.93 16,-36.68 5.05,-14.82 9.4,-31.58 12.93,-50.33 3.59,-18.76 5.35,-39.69 5.35,-62.91 0,-11.05 -0.76,-19.28 -2.29,-24.75 -1.59,-5.41 -4.88,-9.35 -9.88,-11.76z"/>
  <path id="_1_44" class="fil62" d="M1341.34 1335.77l-110.06 0 0 -12.35c3.11,-0.23 7.58,-0.58 13.46,-1.05 5.82,-0.42 9.94,-1.12 12.35,-2.06 3.82,-1.47 6.58,-3.53 8.29,-6.12 1.7,-2.58 2.58,-6.17 2.58,-10.76l0 -176.91c0,-3.99 -0.64,-7.34 -1.88,-10.05 -1.29,-2.7 -4.23,-4.94 -8.99,-6.82 -3.41,-1.35 -7.76,-2.64 -13,-3.82 -5.23,-1.24 -9.46,-1.94 -12.81,-2.18l0 -12.34 110.06 0 0 12.34c-3.59,0.12 -7.82,0.53 -12.76,1.3 -4.94,0.76 -9.23,1.7 -12.88,2.82 -4.4,1.41 -7.34,3.64 -8.81,6.7 -1.47,3.12 -2.24,6.59 -2.24,10.35l0 176.73c0,3.82 0.82,7.18 2.47,10.06 1.71,2.94 4.53,5.29 8.58,6.99 2.42,0.94 6.3,1.94 11.76,3 5.47,1.12 10.12,1.71 13.88,1.82l0 12.35z"/>
  <path id="_2_45" class="fil62" d="M1641.46 1335.77l-67.38 0c-4.7,-13.35 -9.29,-25.52 -13.82,-36.51 -4.46,-11 -9.11,-21.64 -13.81,-32.04 -7.7,-17.35 -15.52,-29.11 -23.34,-35.16 -7.88,-6.12 -18.46,-9.17 -31.75,-9.17l-12.52 0 0 78.31c0,3.76 0.7,7.17 2.11,10.17 1.47,2.94 4.06,5.41 7.76,7.23 1.83,0.83 5.24,1.77 10.17,2.94 5,1.12 9.12,1.77 12.41,1.88l0 12.35 -101.59 0 0 -12.35c2.7,-0.23 6.58,-0.58 11.7,-1.05 5.11,-0.42 8.7,-1.12 10.81,-2.06 3.47,-1.47 6,-3.71 7.59,-6.59 1.58,-2.94 2.35,-6.46 2.35,-10.58l0 -176.26c0,-3.88 -0.65,-7.29 -2,-10.17 -1.35,-2.83 -4,-5.18 -7.94,-7.06 -3.17,-1.47 -6.88,-2.76 -11.17,-3.94 -4.29,-1.12 -8.11,-1.82 -11.34,-2.06l0 -12.34 101.59 0 0 12.34c-3.17,0.12 -7.17,0.65 -11.93,1.53 -4.83,0.94 -8.35,1.83 -10.65,2.59 -3.82,1.41 -6.46,3.7 -7.82,6.88 -1.35,3.23 -2.05,6.7 -2.05,10.52l0 83.61 16.05 0c4.29,0 8.46,-0.94 12.52,-2.77 4.12,-1.82 7.88,-4.52 11.35,-8.05 4.94,-5.06 8.93,-11.23 11.87,-18.52 3,-7.29 6.24,-16.11 9.65,-26.4 3.23,-9.52 6.52,-18.34 9.99,-26.52 3.41,-8.11 8.47,-15.63 15.11,-22.51 4.53,-4.59 9.76,-8.23 15.87,-10.88 6.06,-2.65 12.7,-3.94 19.82,-3.94 4.94,0 9.23,0.59 12.93,1.82 3.65,1.18 6.76,2.88 9.29,5.06 2.29,1.94 4,4.23 5.18,6.88 1.11,2.64 1.7,5.52 1.7,8.58 0,2.53 -0.35,5 -1.12,7.41 -0.76,2.41 -1.82,4.41 -3.17,6.06 -1.65,1.94 -3.41,3.46 -5.35,4.52 -2,1.12 -4.76,1.65 -8.29,1.65 -3.82,0 -7.12,-0.65 -9.94,-1.88 -2.82,-1.3 -5.23,-3 -7.35,-5.18 -2.05,-2.17 -3.94,-4.76 -5.58,-7.7 -1.65,-2.94 -3.24,-5.88 -4.76,-8.88 -3.18,2.18 -5.94,4.88 -8.18,8.12 -2.23,3.23 -4.23,6.7 -5.93,10.35 -1.77,3.7 -3.24,7.58 -4.59,11.7 -1.29,4.17 -2.82,8.76 -4.53,13.75 -1.41,4.29 -3,9 -4.82,14.23 -1.88,5.23 -4,10.05 -6.41,14.52 -2.53,4.82 -5.47,9.64 -8.88,14.47 -3.35,4.82 -7.4,9.34 -12.11,13.58l0 2.41c12.7,3.53 23.34,9.17 31.75,16.99 8.47,7.76 15.52,17.81 21.28,30.1 3.24,7 6.77,14.58 10.59,22.7 3.88,8.11 7.05,14.99 9.58,20.63 3.53,7.7 7,12.82 10.35,15.41 3.29,2.58 6.7,4.11 10.17,4.7 2.94,0.47 6.17,0.88 9.64,1.29 3.41,0.41 6.41,0.71 8.94,0.94l0 12.35z"/>
  <path id="_3_46" class="fil62" d="M1919.77 1335.77l-101.6 0 0 -12.35c9,-0.58 16.4,-1.7 22.34,-3.47 5.88,-1.7 8.82,-3.82 8.82,-6.35 0,-1.05 -0.06,-2.29 -0.29,-3.76 -0.24,-1.53 -0.59,-2.82 -1.06,-4l-20.23 -54.73 -85.78 0c-3.23,8.05 -5.82,15.05 -7.87,20.99 -2,5.99 -3.83,11.46 -5.41,16.52 -1.47,4.94 -2.53,8.99 -3.12,12.05 -0.59,3.12 -0.88,5.64 -0.88,7.58 0,4.59 3.64,8.18 10.88,10.71 7.23,2.52 15.4,3.99 24.45,4.46l0 12.35 -92.13 0 0 -12.35c3,-0.23 6.71,-0.88 11.23,-2 4.47,-1.05 8.12,-2.52 11,-4.35 4.58,-3.11 8.17,-6.35 10.7,-9.76 2.53,-3.41 5,-8.05 7.41,-14.05 12.28,-30.63 25.81,-65.08 40.62,-103.36 14.82,-38.21 28.05,-72.25 39.63,-102.12l13.82 0 81.48 210.83c1.71,4.47 3.65,8.12 5.82,10.88 2.18,2.76 5.24,5.41 9.18,8.05 2.58,1.65 6.05,3 10.29,4.06 4.29,1.12 7.81,1.71 10.7,1.82l0 12.35zm-98.25 -99.83l-37.1 -94.95 -36.51 94.95 73.61 0z"/>
  <path id="_4_47" class="fil62" d="M2152.92 1151.63c0,12.76 -2.47,24.05 -7.47,33.86 -5,9.88 -11.94,17.99 -20.76,24.4 -8.7,6.47 -18.28,11.17 -28.69,14.17 -10.46,3 -21.52,4.47 -33.21,4.47l-27.34 0 0 73.9c0,4.06 0.64,7.53 2,10.59 1.29,3.05 4.05,5.35 8.23,6.93 2.05,0.83 5.7,1.59 10.93,2.3 5.29,0.64 10.11,1.06 14.46,1.17l0 12.35 -104.76 0 0 -12.35c2.76,-0.23 6.7,-0.64 11.87,-1.17 5.18,-0.59 8.82,-1.35 10.82,-2.3 3.47,-1.47 5.94,-3.64 7.47,-6.52 1.52,-2.88 2.29,-6.53 2.29,-11l0 -176.26c0,-4 -0.59,-7.58 -1.71,-10.82 -1.17,-3.23 -3.88,-5.64 -8.11,-7.23 -4.35,-1.47 -8.64,-2.53 -12.93,-3.17 -4.35,-0.65 -8,-1.06 -11.12,-1.3l0 -12.34 111.48 0c22.69,0 41.15,5.47 55.32,16.46 14.17,10.99 21.23,25.57 21.23,43.86zm-52.33 41.57c3.94,-5.47 6.47,-11.17 7.76,-17.11 1.23,-5.94 1.88,-11.23 1.88,-15.94 0,-6.52 -0.76,-13.17 -2.29,-19.93 -1.59,-6.82 -4.23,-12.7 -8,-17.75 -4.05,-5.41 -9.29,-9.59 -15.81,-12.58 -6.59,-3 -14.7,-4.47 -24.46,-4.47l-24.22 0 0 107.94 17.52 0c12.4,0 22.46,-1.94 30.16,-5.76 7.76,-3.88 13.58,-8.64 17.46,-14.4z"/>
  <path id="_5_48" class="fil61 str6" d="M994.6 1109.71c-3.11,-1.53 -7.76,-2.82 -13.99,-3.88 -6.23,-1.12 -10.35,-1.82 -12.29,-2.18l0 -12.34 194.37 0 0 12.34c-3.23,0.12 -7.23,0.65 -11.93,1.53 -4.71,0.94 -8.23,1.83 -10.59,2.59 -3.94,1.41 -6.58,3.7 -7.93,6.88 -1.36,3.23 -2,6.76 -2,10.52l0 176.03c0,4.06 0.64,7.41 2,10.17 1.35,2.76 3.99,5.17 7.93,7.23 2,1.06 5.53,2.06 10.59,3.12 5.05,1 9.05,1.59 11.93,1.7l0 12.35 -101.59 0 0 -12.35c2.76,-0.23 6.7,-0.58 11.87,-1.05 5.18,-0.42 8.76,-1.12 10.7,-2.06 3.41,-1.35 5.88,-3.47 7.47,-6.29 1.59,-2.83 2.41,-6.47 2.41,-10.94l0 -197.66 -65.61 0c0,40.15 -2.65,75.25 -8,105.18 -5.35,29.98 -12.4,54.56 -21.11,73.61 -8.4,18.58 -17.75,32.33 -27.98,41.45 -10.29,9.11 -20.7,13.64 -31.1,13.64 -9.65,0 -17.11,-2.47 -22.4,-7.35 -5.29,-4.88 -7.94,-10.58 -7.94,-17.17 0,-5.06 1.7,-9.99 5.06,-14.82 3.41,-4.82 8.29,-7.23 14.58,-7.23 4.46,0 8.35,0.89 11.52,2.59 3.23,1.76 5.88,3.76 7.94,6.11 2.11,2.3 3.88,4.71 5.46,7.18 1.53,2.47 2.83,4.47 3.89,5.99 4.35,-3.58 9.23,-9.7 14.63,-18.46 5.41,-8.7 10.71,-20.93 16,-36.68 5.05,-14.82 9.4,-31.58 12.93,-50.33 3.59,-18.76 5.35,-39.69 5.35,-62.91 0,-11.05 -0.76,-19.28 -2.29,-24.75 -1.59,-5.41 -4.88,-9.35 -9.88,-11.76z"/>
  <path id="_6_49" class="fil61 str6" d="M1341.34 1335.77l-110.06 0 0 -12.35c3.11,-0.23 7.58,-0.58 13.46,-1.05 5.82,-0.42 9.94,-1.12 12.35,-2.06 3.82,-1.47 6.58,-3.53 8.29,-6.12 1.7,-2.58 2.58,-6.17 2.58,-10.76l0 -176.91c0,-3.99 -0.64,-7.34 -1.88,-10.05 -1.29,-2.7 -4.23,-4.94 -8.99,-6.82 -3.41,-1.35 -7.76,-2.64 -13,-3.82 -5.23,-1.24 -9.46,-1.94 -12.81,-2.18l0 -12.34 110.06 0 0 12.34c-3.59,0.12 -7.82,0.53 -12.76,1.3 -4.94,0.76 -9.23,1.7 -12.88,2.82 -4.4,1.41 -7.34,3.64 -8.81,6.7 -1.47,3.12 -2.24,6.59 -2.24,10.35l0 176.73c0,3.82 0.82,7.18 2.47,10.06 1.71,2.94 4.53,5.29 8.58,6.99 2.42,0.94 6.3,1.94 11.76,3 5.47,1.12 10.12,1.71 13.88,1.82l0 12.35z"/>
  <path id="_7_50" class="fil61 str6" d="M1641.46 1335.77l-67.38 0c-4.7,-13.35 -9.29,-25.52 -13.82,-36.51 -4.46,-11 -9.11,-21.64 -13.81,-32.04 -7.7,-17.35 -15.52,-29.11 -23.34,-35.16 -7.88,-6.12 -18.46,-9.17 -31.75,-9.17l-12.52 0 0 78.31c0,3.76 0.7,7.17 2.11,10.17 1.47,2.94 4.06,5.41 7.76,7.23 1.83,0.83 5.24,1.77 10.17,2.94 5,1.12 9.12,1.77 12.41,1.88l0 12.35 -101.59 0 0 -12.35c2.7,-0.23 6.58,-0.58 11.7,-1.05 5.11,-0.42 8.7,-1.12 10.81,-2.06 3.47,-1.47 6,-3.71 7.59,-6.59 1.58,-2.94 2.35,-6.46 2.35,-10.58l0 -176.26c0,-3.88 -0.65,-7.29 -2,-10.17 -1.35,-2.83 -4,-5.18 -7.94,-7.06 -3.17,-1.47 -6.88,-2.76 -11.17,-3.94 -4.29,-1.12 -8.11,-1.82 -11.34,-2.06l0 -12.34 101.59 0 0 12.34c-3.17,0.12 -7.17,0.65 -11.93,1.53 -4.83,0.94 -8.35,1.83 -10.65,2.59 -3.82,1.41 -6.46,3.7 -7.82,6.88 -1.35,3.23 -2.05,6.7 -2.05,10.52l0 83.61 16.05 0c4.29,0 8.46,-0.94 12.52,-2.77 4.12,-1.82 7.88,-4.52 11.35,-8.05 4.94,-5.06 8.93,-11.23 11.87,-18.52 3,-7.29 6.24,-16.11 9.65,-26.4 3.23,-9.52 6.52,-18.34 9.99,-26.52 3.41,-8.11 8.47,-15.63 15.11,-22.51 4.53,-4.59 9.76,-8.23 15.87,-10.88 6.06,-2.65 12.7,-3.94 19.82,-3.94 4.94,0 9.23,0.59 12.93,1.82 3.65,1.18 6.76,2.88 9.29,5.06 2.29,1.94 4,4.23 5.18,6.88 1.11,2.64 1.7,5.52 1.7,8.58 0,2.53 -0.35,5 -1.12,7.41 -0.76,2.41 -1.82,4.41 -3.17,6.06 -1.65,1.94 -3.41,3.46 -5.35,4.52 -2,1.12 -4.76,1.65 -8.29,1.65 -3.82,0 -7.12,-0.65 -9.94,-1.88 -2.82,-1.3 -5.23,-3 -7.35,-5.18 -2.05,-2.17 -3.94,-4.76 -5.58,-7.7 -1.65,-2.94 -3.24,-5.88 -4.76,-8.88 -3.18,2.18 -5.94,4.88 -8.18,8.12 -2.23,3.23 -4.23,6.7 -5.93,10.35 -1.77,3.7 -3.24,7.58 -4.59,11.7 -1.29,4.17 -2.82,8.76 -4.53,13.75 -1.41,4.29 -3,9 -4.82,14.23 -1.88,5.23 -4,10.05 -6.41,14.52 -2.53,4.82 -5.47,9.64 -8.88,14.47 -3.35,4.82 -7.4,9.34 -12.11,13.58l0 2.41c12.7,3.53 23.34,9.17 31.75,16.99 8.47,7.76 15.52,17.81 21.28,30.1 3.24,7 6.77,14.58 10.59,22.7 3.88,8.11 7.05,14.99 9.58,20.63 3.53,7.7 7,12.82 10.35,15.41 3.29,2.58 6.7,4.11 10.17,4.7 2.94,0.47 6.17,0.88 9.64,1.29 3.41,0.41 6.41,0.71 8.94,0.94l0 12.35z"/>
  <path id="_8_51" class="fil61 str6" d="M1919.77 1335.77l-101.6 0 0 -12.35c9,-0.58 16.4,-1.7 22.34,-3.47 5.88,-1.7 8.82,-3.82 8.82,-6.35 0,-1.05 -0.06,-2.29 -0.29,-3.76 -0.24,-1.53 -0.59,-2.82 -1.06,-4l-20.23 -54.73 -85.78 0c-3.23,8.05 -5.82,15.05 -7.87,20.99 -2,5.99 -3.83,11.46 -5.41,16.52 -1.47,4.94 -2.53,8.99 -3.12,12.05 -0.59,3.12 -0.88,5.64 -0.88,7.58 0,4.59 3.64,8.18 10.88,10.71 7.23,2.52 15.4,3.99 24.45,4.46l0 12.35 -92.13 0 0 -12.35c3,-0.23 6.71,-0.88 11.23,-2 4.47,-1.05 8.12,-2.52 11,-4.35 4.58,-3.11 8.17,-6.35 10.7,-9.76 2.53,-3.41 5,-8.05 7.41,-14.05 12.28,-30.63 25.81,-65.08 40.62,-103.36 14.82,-38.21 28.05,-72.25 39.63,-102.12l13.82 0 81.48 210.83c1.71,4.47 3.65,8.12 5.82,10.88 2.18,2.76 5.24,5.41 9.18,8.05 2.58,1.65 6.05,3 10.29,4.06 4.29,1.12 7.81,1.71 10.7,1.82l0 12.35zm-98.25 -99.83l-37.1 -94.95 -36.51 94.95 73.61 0z"/>
  <path id="_9_52" class="fil61 str6" d="M2152.92 1151.63c0,12.76 -2.47,24.05 -7.47,33.86 -5,9.88 -11.94,17.99 -20.76,24.4 -8.7,6.47 -18.28,11.17 -28.69,14.17 -10.46,3 -21.52,4.47 -33.21,4.47l-27.34 0 0 73.9c0,4.06 0.64,7.53 2,10.59 1.29,3.05 4.05,5.35 8.23,6.93 2.05,0.83 5.7,1.59 10.93,2.3 5.29,0.64 10.11,1.06 14.46,1.17l0 12.35 -104.76 0 0 -12.35c2.76,-0.23 6.7,-0.64 11.87,-1.17 5.18,-0.59 8.82,-1.35 10.82,-2.3 3.47,-1.47 5.94,-3.64 7.47,-6.52 1.52,-2.88 2.29,-6.53 2.29,-11l0 -176.26c0,-4 -0.59,-7.58 -1.71,-10.82 -1.17,-3.23 -3.88,-5.64 -8.11,-7.23 -4.35,-1.47 -8.64,-2.53 -12.93,-3.17 -4.35,-0.65 -8,-1.06 -11.12,-1.3l0 -12.34 111.48 0c22.69,0 41.15,5.47 55.32,16.46 14.17,10.99 21.23,25.57 21.23,43.86zm-52.33 41.57c3.94,-5.47 6.47,-11.17 7.76,-17.11 1.23,-5.94 1.88,-11.23 1.88,-15.94 0,-6.52 -0.76,-13.17 -2.29,-19.93 -1.59,-6.82 -4.23,-12.7 -8,-17.75 -4.05,-5.41 -9.29,-9.59 -15.81,-12.58 -6.59,-3 -14.7,-4.47 -24.46,-4.47l-24.22 0 0 107.94 17.52 0c12.4,0 22.46,-1.94 30.16,-5.76 7.76,-3.88 13.58,-8.64 17.46,-14.4z"/>
  <g id="_1528166148688">
   <path class="fil63 str7" d="M1481.67 1525.23c-9.76,2.13 -26.07,8.46 -35.37,10.57 -9.3,2.11 -11.58,0.01 -6.33,-6.66 5.24,-6.68 18.01,-17.92 33.36,-30.69 15.35,-12.78 33.27,-27.09 54.84,-36.72 21.55,-9.62 46.75,-14.57 75.32,-18.05 28.58,-3.47 60.54,-5.48 86.68,-1.4 26.14,4.07 46.45,14.23 61.99,23.19 15.55,8.96 26.33,16.72 37.11,27.28 10.78,10.56 21.56,23.94 29.39,36.57 7.83,12.64 12.72,24.54 16.67,40.65 3.94,16.11 6.95,36.43 7.2,53.55 0.25,17.12 -2.25,31.02 -6.26,43.32 -4.02,12.31 -9.53,23 -15.05,32.63 -5.51,9.63 -11.03,18.18 -18.14,28.01 -7.11,9.83 -15.81,20.93 -26.93,31.03 -11.12,10.1 -24.66,19.19 -39.36,27.28 -14.7,8.09 -30.56,15.16 -45.42,21.85 -14.85,6.68 -28.7,12.97 -44.58,18.86 -15.89,5.88 -33.81,11.37 -55.53,14.54 -21.72,3.18 -47.23,4.05 -71.76,5.83 -24.54,1.77 -48.11,4.44 -70.74,8.82 -22.63,4.38 -44.33,10.47 -58.43,18.09 -14.1,7.62 -20.61,16.78 -22.99,28.27 -2.37,11.5 -0.62,25.33 2.32,36.1 2.95,10.76 7.09,18.45 13.36,25.67 6.26,7.22 14.65,13.97 23.87,18.12 9.21,4.14 19.24,5.68 33.22,8.86 13.98,3.18 31.91,7.99 46.19,16.05 14.29,8.05 24.94,19.34 32.21,28.1 7.27,8.76 11.16,14.98 14.17,28.2 3.01,13.2 5.15,33.4 3.58,45.5 -1.57,12.1 -6.84,16.12 -11.6,19.75 -4.77,3.64 -9.03,6.91 -11.41,16.29 -2.39,9.39 -2.89,24.9 0.37,37.2 3.25,12.31 10.28,21.4 14.35,32.8 4.08,11.41 5.21,25.12 2.43,33.12 -2.79,7.99 -9.5,10.27 -16.21,12.54 -0.5,-9.5 -1,-18.99 -2.22,-29.12 -1.23,-10.14 -3.17,-20.91 -8.91,-30.04 -5.73,-9.14 -15.26,-16.63 -20.28,-26.25 -5.01,-9.63 -5.51,-21.39 -3.75,-32.09 1.75,-10.69 5.76,-20.32 10.8,-27.7 5.05,-7.39 11.12,-12.53 14.1,-19.1 2.98,-6.59 2.85,-14.61 -1.1,-23.5 -3.95,-8.89 -11.72,-18.65 -22.46,-27.85 -10.75,-9.2 -24.48,-17.83 -41.87,-24.68 -17.39,-6.86 -38.46,-11.93 -53.19,-17.34 -14.73,-5.41 -23.13,-11.16 -33.47,-19.19 -10.34,-8.02 -22.63,-18.32 -28.96,-34.76 -6.33,-16.44 -6.71,-39.04 -0.62,-56.29 6.08,-17.25 18.62,-29.16 36.17,-38.6 17.55,-9.43 40.12,-16.38 60.42,-22 20.31,-5.62 38.36,-9.89 63.93,-13.64 25.57,-3.74 58.67,-6.96 82.74,-10.43 24.06,-3.48 39.1,-7.22 54.14,-11.23 15.04,-4 30.09,-8.28 46.13,-14.97 16.05,-6.69 33.09,-15.78 51.64,-30.22 18.56,-14.45 38.62,-34.24 53.16,-55.36 14.54,-21.13 23.56,-43.58 27.57,-64.71 4.01,-21.12 3.01,-40.91 -8.27,-64.18 -11.28,-23.27 -32.85,-50.01 -49.64,-65.25 -16.8,-15.25 -28.83,-18.99 -41.36,-20.33 -12.54,-1.33 -25.57,-0.26 -37.36,1.34 -11.78,1.61 -22.31,3.75 -32.72,6.56 -10.41,2.8 -20.69,6.28 -30.96,11.63 -10.28,5.34 -20.56,12.57 -28.83,18.12 -8.28,5.54 -14.54,9.42 -24.26,13.83 -9.71,4.41 -22.88,9.37 -37.14,14.18 -14.26,4.81 -29.61,9.49 -40.62,13.09 -11,3.59 -17.65,6.11 -22.53,6.31 -4.87,0.2 -7.98,-1.9 -5.9,-4.17 2.07,-2.26 9.33,-4.7 14.82,-7.13 5.5,-2.43 9.24,-4.86 14.74,-7.57 5.49,-2.71 12.75,-5.7 17.24,-8.35 4.49,-2.66 6.21,-4.97 7.83,-6.94 1.61,-1.96 3.12,-3.56 2.27,-5.4 -0.85,-1.84 -4.05,-3.92 -13.8,-1.79z"/>
   <path class="fil63 str6" d="M1513.24 1603.89c-90.25,0 -180.51,0 -270.76,0 4.14,13.77 8.28,27.54 16.3,43.05 8.02,15.52 19.93,32.76 36.92,49.14 16.98,16.38 39.04,31.89 58.6,43.93 19.55,12.03 36.6,20.59 52.21,27.54 15.6,6.96 29.76,12.3 42.74,16.25 12.97,3.94 24.76,6.48 36.54,9.02 0.5,39.44 1,78.89 1.5,118.33 -1.44,10.36 -2.88,20.73 -7.3,29.52 -4.42,8.79 -11.82,16.02 -19.21,23.23 -9.59,8.9 -19.18,17.79 -28.77,26.68 -9.53,2.14 -19.05,4.28 -28.58,6.42 -17.23,3.14 -34.47,6.28 -51.7,9.42 -7.84,3.28 -15.67,6.55 -23.51,9.83 0,0.53 0,1.07 0,1.6 22.06,0 44.12,0 66.19,0 36.81,0.01 73.61,0.01 110.42,0.01 1.88,0 3.77,0 5.65,0 0.92,-137.99 1.84,-275.98 2.76,-413.97z"/>
   <path class="fil63 str6" d="M1485.95 1603.89c93.91,0 187.82,0 281.72,0 -4.3,13.77 -8.6,27.54 -16.95,43.05 -8.35,15.52 -20.74,32.76 -38.42,49.14 -17.67,16.38 -40.62,31.89 -60.97,43.93 -20.35,12.03 -38.08,20.59 -54.32,27.54 -16.24,6.96 -30.98,12.3 -44.48,16.25 -13.5,3.94 -25.76,6.48 -38.02,9.02 -0.52,39.44 -1.04,78.89 -1.56,118.33 1.5,10.36 2.99,20.73 7.59,29.52 4.6,8.79 12.3,16.02 19.99,23.23 9.98,8.9 19.96,17.79 29.94,26.68 9.91,2.14 19.82,4.28 29.73,6.42 17.94,3.14 35.87,6.28 53.8,9.42 8.16,3.28 16.31,6.55 24.46,9.83 0,0.53 0,1.07 0,1.6 -22.95,0 -45.91,0 -68.86,0 -38.3,0.01 -76.6,0.01 -114.9,0.01 -1.96,0 -3.92,0 -5.88,0 -0.95,-137.99 -1.91,-275.98 -2.87,-413.97z"/>
  </g>
  <path class="fil62 str2" d="M2430.55 2164.98c-0.56,-8.26 -2.44,-16.53 -5.71,-24.73 -4.6,-11.78 -6.9,-19.92 -6.9,-24.36 0,-6.29 1.67,-11.04 4.95,-14.31 3.34,-3.27 7.45,-4.87 12.4,-4.87 4.18,0 7.87,1.6 11.01,4.87 3.13,3.27 4.66,7.89 4.66,13.94 0,5.42 -1.81,12.95 -5.36,22.64 -3.62,9.74 -5.86,18.68 -6.69,26.82 7.53,-4.19 14.21,-9.31 20.2,-15.36 9.27,-9.49 16.17,-15.41 20.63,-17.69 4.52,-2.29 9.06,-3.4 13.72,-3.4 4.46,0 8.22,1.36 11.29,4.07 3.07,2.65 4.6,5.92 4.6,9.63 0,4.5 -2.23,8.45 -6.76,11.96 -4.46,3.45 -15.68,6.97 -33.65,10.49 -10.45,2.03 -19.16,4.37 -26.13,7.03 7.11,3.27 15.75,5.73 25.92,7.4 16.44,2.65 27.24,5.98 32.33,9.93 5.15,4.01 7.66,8.32 7.66,13.01 0,3.64 -1.53,6.72 -4.6,9.38 -3.06,2.65 -6.62,4.01 -10.66,4.01 -4.11,0 -8.63,-1.3 -13.58,-3.83 -4.95,-2.53 -11.71,-8.2 -20.14,-16.96 -5.57,-5.92 -12.47,-11.47 -20.83,-16.65 0.28,6.91 1.88,14.37 4.74,22.45 4.87,14.18 7.31,23.87 7.31,29.05 0,4.81 -1.6,8.88 -4.87,12.21 -3.28,3.33 -6.76,5 -10.38,5 -5.09,0 -9.62,-1.79 -13.73,-5.24 -2.85,-2.53 -4.25,-6.61 -4.25,-12.16 0,-5.73 1.53,-12.7 4.67,-20.84 3.13,-8.15 5.08,-13.76 5.92,-16.78 0.83,-3.09 1.6,-7.65 2.23,-13.69 -8.01,4.75 -15.05,9.93 -20.97,15.73 -9.96,9.86 -17.42,16.16 -22.51,18.81 -3.55,1.91 -7.17,2.9 -11,2.9 -4.6,0 -8.57,-1.42 -11.85,-4.2 -3.27,-2.77 -4.87,-5.79 -4.87,-9.19 0,-3.02 1.39,-6.17 4.18,-9.5 2.79,-3.33 6.97,-6.04 12.54,-8.2 3.69,-1.48 12.05,-3.39 25.08,-5.8 8.43,-1.54 16.72,-3.82 24.73,-6.84 -7.38,-3.27 -16.16,-5.8 -26.33,-7.59 -16.73,-3.14 -27.1,-5.98 -31.01,-8.51 -6.13,-3.95 -9.19,-8.82 -9.19,-14.44 0,-3.26 1.53,-6.23 4.59,-8.94 3.07,-2.71 6.62,-4.07 10.73,-4.07 4.46,0 9.2,1.23 14.29,3.77 5.02,2.52 11.29,7.64 18.74,15.29 7.52,7.65 15.12,13.57 22.85,17.76z"/>
 </g>
</svg>
