<?xml version="1.0" encoding="UTF-8"?>
<!DOCTYPE svg PUBLIC "-//W3C//DTD SVG 1.1//EN" "http://www.w3.org/Graphics/SVG/1.1/DTD/svg11.dtd">
<!-- Creator: CorelDRAW 2019 (64-Bit) -->
<svg xmlns="http://www.w3.org/2000/svg" xml:space="preserve" width="31mm" height="31mm" version="1.1" style="shape-rendering:geometricPrecision; text-rendering:geometricPrecision; image-rendering:optimizeQuality; fill-rule:evenodd; clip-rule:evenodd"
viewBox="0 0 3100 3100"
 xmlns:xlink="http://www.w3.org/1999/xlink"
 xmlns:xodm="http://www.corel.com/coreldraw/odm/2003">
 <defs>
  <style type="text/css">
   <![CDATA[
    .str0 {stroke:#393185;stroke-width:50;stroke-miterlimit:22.9256}
    .str1 {stroke:#393185;stroke-width:34.99;stroke-miterlimit:22.9256}
    .str5 {stroke:#393185;stroke-width:25;stroke-miterlimit:22.9256}
    .str6 {stroke:#393185;stroke-width:20;stroke-miterlimit:22.9256}
    .str2 {stroke:#393185;stroke-width:15;stroke-miterlimit:22.9256}
    .str3 {stroke:#393185;stroke-width:40;stroke-linejoin:round;stroke-miterlimit:22.9256}
    .str4 {stroke:#393185;stroke-width:20;stroke-linecap:round;stroke-linejoin:round;stroke-miterlimit:22.9256}
    .fil0 {fill:none}
    .fil2 {fill:none;fill-rule:nonzero}
    .fil3 {fill:#393185}
    .fil1 {fill:#393185;fill-rule:nonzero}
   ]]>
  </style>
 </defs>
 <g id="Слой_x0020_1">
  <metadata id="CorelCorpID_0Corel-Layer"/>
  <g id="_1373713328">
   <ellipse class="fil0 str0" cx="1550" cy="1550" rx="1493.69" ry="1493.68"/>
   <ellipse class="fil0 str0" cx="1550.01" cy="1550" rx="1353.52" ry="1353.51"/>
   <g id="_1528156993392">
    <path class="fil0 str1" d="M1417.23 182.5c92.53,-44.07 185.07,-88.13 231.33,-110.17 46.27,-22.03 46.27,-22.03 42.97,-18.73 -3.31,3.31 -9.92,9.93 -16.53,16.54m-257.77 -8.15c92.53,44.07 190.03,93.09 236.29,115.12m-238.19 -120.14c0.27,8.53 0.54,17.07 0.81,25.61 14.32,0 28.65,0 42.97,0 0.66,-8.47 1.34,-16.93 2,-25.39 -15.26,-0.07 -30.52,-0.15 -45.78,-0.22zm209.85 0c0.27,8.53 0.54,17.07 0.81,25.61 14.32,0 28.65,0 42.97,0 0.66,-8.47 1.34,-16.93 2,-25.39 -15.26,-0.07 -30.52,-0.15 -45.78,-0.22zm-209.85 120.78c0.27,8.54 0.54,17.08 0.81,25.61 14.32,0 28.65,0 42.97,0 0.66,-8.46 1.34,-16.92 2,-25.39 -15.26,-0.07 -30.52,-0.15 -45.78,-0.22zm211.35 0c0.27,8.54 0.54,17.08 0.81,25.61 14.32,0 28.65,0 42.97,0 0.66,-8.46 1.34,-16.92 1.99,-25.39 -15.25,-0.07 -30.51,-0.15 -45.77,-0.22z"/>
    <path class="fil0 str1" d="M1181.79 226.33c83.47,-59.46 166.95,-118.93 208.68,-148.66 41.74,-29.73 41.74,-29.73 39.06,-25.91 -2.68,3.83 -8.05,11.5 -13.4,19.15m-255.27 36.74c98.77,27.33 203.3,58.68 252.69,72.34m-255.43 -76.96c1.74,8.36 3.49,16.73 5.24,25.08 14.1,-2.48 28.21,-4.97 42.32,-7.46 -0.82,-8.45 -1.63,-16.9 -2.45,-25.35 -15.03,2.58 -30.07,5.15 -45.11,7.73zm206.66 -36.44c1.74,8.36 3.49,16.73 5.24,25.08 14.1,-2.48 28.21,-4.97 42.31,-7.46 -0.82,-8.45 -1.62,-16.9 -2.44,-25.35 -15.04,2.58 -30.08,5.15 -45.11,7.73zm-185.69 155.39c1.75,8.36 3.5,16.73 5.25,25.08 14.1,-2.48 28.21,-4.97 42.31,-7.46 -0.82,-8.45 -1.62,-16.9 -2.44,-25.35 -15.04,2.58 -30.08,5.15 -45.12,7.73zm208.14 -36.7c1.74,8.36 3.49,16.73 5.24,25.08 14.1,-2.48 28.21,-4.97 42.31,-7.46 -0.82,-8.45 -1.62,-16.9 -2.44,-25.35 -15.04,2.58 -30.08,5.15 -45.11,7.73z"/>
    <path class="fil0 str1" d="M957.53 310.38c71.87,-73.06 143.76,-146.11 179.7,-182.64 35.93,-36.53 35.93,-36.53 33.96,-32.3 -1.97,4.24 -5.92,12.72 -9.87,21.19m-245.01 80.51c102.02,9.76 210.4,22.48 261.41,27.36m-264.91 -31.43c3.17,7.92 6.34,15.86 9.52,23.78 13.45,-4.89 26.92,-9.79 40.37,-14.69 -2.27,-8.18 -4.53,-16.36 -6.8,-24.54 -14.37,5.15 -28.73,10.29 -43.09,15.45zm197.19 -71.78c3.17,7.93 6.35,15.87 9.52,23.79 13.45,-4.89 26.92,-9.8 40.37,-14.69 -2.27,-8.18 -4.53,-16.37 -6.8,-24.54 -14.36,5.15 -28.73,10.29 -43.09,15.44zm-155.88 185.28c3.17,7.92 6.35,15.86 9.52,23.79 13.45,-4.9 26.92,-9.8 40.37,-14.7 -2.27,-8.18 -4.53,-16.36 -6.8,-24.54 -14.36,5.15 -28.73,10.29 -43.09,15.45zm198.6 -72.29c3.17,7.93 6.35,15.87 9.52,23.79 13.45,-4.9 26.92,-9.8 40.37,-14.69 -2.27,-8.18 -4.53,-16.37 -6.8,-24.55 -14.36,5.16 -28.73,10.3 -43.09,15.45z"/>
    <path class="fil0 str1" d="M751.27 432.09c58.1,-84.42 116.2,-168.85 145.25,-211.07 29.05,-42.21 29.05,-42.21 27.85,-37.71 -1.21,4.52 -3.63,13.57 -6.05,22.59m-227.31 121.83c102.17,-8.1 211.11,-14.39 262.19,-18.44m-266.34 15.04c4.5,7.25 9,14.52 13.5,21.77 12.4,-7.16 24.81,-14.32 37.21,-21.48 -3.66,-7.66 -7.3,-15.33 -10.96,-22.99 -13.25,7.57 -26.5,15.13 -39.75,22.7zm181.73 -104.93c4.5,7.26 9.01,14.52 13.51,21.78 12.4,-7.16 24.81,-14.32 37.21,-21.48 -3.66,-7.66 -7.31,-15.33 -10.97,-22.99 -13.25,7.57 -26.5,15.13 -39.75,22.69zm-121.34 209.53c4.5,7.26 9.01,14.52 13.51,21.78 12.4,-7.16 24.81,-14.33 37.21,-21.49 -3.66,-7.66 -7.31,-15.33 -10.97,-22.99 -13.25,7.57 -26.5,15.13 -39.75,22.7zm183.03 -105.67c4.5,7.25 9.01,14.52 13.51,21.77 12.4,-7.16 24.81,-14.32 37.21,-21.48 -3.66,-7.66 -7.31,-15.33 -10.97,-22.99 -13.25,7.57 -26.5,15.13 -39.75,22.7z"/>
    <path class="fil0 str1" d="M569.28 587.77c42.55,-93.23 85.12,-186.47 106.4,-233.08 21.27,-46.62 21.27,-46.62 20.87,-41.97 -0.41,4.66 -1.22,13.98 -2.03,23.29m-202.7 159.45c99.2,-25.72 205.4,-50.83 255,-63.69m-259.69 61.06c5.7,6.36 11.39,12.74 17.09,19.1 10.96,-9.2 21.94,-18.42 32.91,-27.62 -4.93,-6.91 -9.85,-13.83 -14.79,-20.73 -11.73,9.75 -23.47,19.5 -35.21,29.25zm160.76 -134.89c5.69,6.37 11.39,12.74 17.08,19.1 10.97,-9.2 21.94,-18.41 32.91,-27.62 -4.93,-6.9 -9.85,-13.82 -14.79,-20.73 -11.73,9.75 -23.47,19.5 -35.2,29.25zm-83.12 227.42c5.7,6.36 11.39,12.73 17.09,19.1 10.96,-9.21 21.94,-18.42 32.91,-27.62 -4.94,-6.91 -9.85,-13.83 -14.79,-20.74 -11.73,9.76 -23.47,19.5 -35.21,29.26zm161.9 -135.85c5.7,6.36 11.39,12.73 17.09,19.1 10.96,-9.21 21.94,-18.42 32.91,-27.62 -4.94,-6.91 -9.85,-13.83 -14.79,-20.74 -11.73,9.76 -23.47,19.5 -35.21,29.26z"/>
    <path class="fil0 str1" d="M417.09 772.69c25.72,-99.2 51.44,-198.42 64.3,-248.02 12.86,-49.6 12.86,-49.6 13.27,-44.96 0.41,4.66 1.23,13.99 2.05,23.29m-171.93 192.23c93.23,-42.55 193.45,-85.73 240.06,-107.01m-245.13 105.24c6.71,5.27 13.42,10.56 20.13,15.84 9.21,-10.97 18.42,-21.95 27.62,-32.92 -6.06,-5.94 -12.1,-11.9 -18.16,-17.85 -9.86,11.65 -19.73,23.28 -29.59,34.93zm134.88 -160.76c6.71,5.28 13.43,10.57 20.14,15.85 9.2,-10.97 18.42,-21.95 27.62,-32.92 -6.06,-5.94 -12.11,-11.9 -18.17,-17.85 -9.86,11.64 -19.73,23.28 -29.59,34.92zm-42.36 238.4c6.71,5.27 13.43,10.56 20.14,15.84 9.21,-10.97 18.42,-21.95 27.62,-32.92 -6.06,-5.94 -12.11,-11.9 -18.17,-17.85 -9.86,11.65 -19.73,23.28 -29.59,34.93zm135.85 -161.9c6.71,5.27 13.43,10.56 20.14,15.84 9.21,-10.97 18.42,-21.95 27.62,-32.92 -6.06,-5.94 -12.11,-11.9 -18.17,-17.85 -9.86,11.65 -19.73,23.28 -29.59,34.93z"/>
    <path class="fil0 str1" d="M299.32 981.23c8.1,-102.17 16.21,-204.34 20.26,-255.42 4.05,-51.08 4.05,-51.08 5.26,-46.58 1.21,4.52 3.64,13.56 6.06,22.58m-135.94 219.17c84.43,-58.1 175.63,-118.02 217.84,-147.07m-223.14 146.2c7.52,4.03 15.06,8.07 22.58,12.1 7.16,-12.4 14.33,-24.81 21.49,-37.21 -7,-4.8 -13.99,-9.62 -20.99,-14.43 -7.69,13.18 -15.39,26.36 -23.08,39.54zm104.92 -181.74c7.53,4.04 15.06,8.08 22.59,12.11 7.15,-12.4 14.32,-24.81 21.48,-37.21 -7,-4.8 -13.99,-9.62 -20.99,-14.43 -7.69,13.18 -15.39,26.36 -23.08,39.53zm-0.32 242.13c7.53,4.03 15.06,8.07 22.59,12.1 7.16,-12.4 14.32,-24.81 21.48,-37.21 -7,-4.8 -13.99,-9.62 -20.99,-14.42 -7.69,13.18 -15.39,26.35 -23.08,39.53zm105.67 -183.03c7.53,4.03 15.06,8.07 22.59,12.1 7.16,-12.4 14.32,-24.81 21.48,-37.21 -7,-4.8 -13.99,-9.62 -20.99,-14.42 -7.69,13.18 -15.39,26.35 -23.08,39.53z"/>
    <path class="fil0 str1" d="M219.56 1207.05c-9.77,-102.02 -19.52,-204.05 -24.41,-255.06 -4.88,-51.01 -4.88,-51.01 -2.91,-46.78 1.98,4.24 5.94,12.72 9.89,21.18m-95.81 239.44c73.05,-71.88 152.46,-146.72 188.99,-182.66m-194.37 182.73c8.12,2.66 16.24,5.33 24.35,7.99 4.89,-13.45 9.8,-26.92 14.69,-40.37 -7.72,-3.51 -15.45,-7.05 -23.17,-10.56 -5.29,14.31 -10.58,28.62 -15.87,42.94zm71.78 -197.19c8.11,2.66 16.23,5.33 24.34,7.99 4.9,-13.45 9.8,-26.92 14.69,-40.37 -7.72,-3.52 -15.44,-7.05 -23.17,-10.56 -5.29,14.31 -10.58,28.62 -15.86,42.94zm41.73 238.5c8.11,2.66 16.23,5.33 24.34,8 4.9,-13.46 9.8,-26.92 14.69,-40.38 -7.72,-3.51 -15.44,-7.05 -23.17,-10.56 -5.29,14.31 -10.58,28.62 -15.86,42.94zm72.28 -198.6c8.11,2.66 16.23,5.33 24.34,8 4.9,-13.46 9.8,-26.92 14.7,-40.38 -7.73,-3.51 -15.45,-7.05 -23.18,-10.56 -5.28,14.31 -10.57,28.62 -15.86,42.94z"/>
    <path class="fil0 str1" d="M180.21 1443.29c-27.32,-98.78 -54.65,-197.56 -68.32,-246.95 -13.66,-49.39 -13.66,-49.39 -10.99,-45.57 2.69,3.84 8.06,11.5 13.42,19.15m-52.78 252.44c59.46,-83.47 124.67,-170.97 154.4,-212.71m-159.68 213.71c8.45,1.21 16.91,2.43 25.36,3.65 2.49,-14.1 4.98,-28.22 7.46,-42.32 -8.22,-2.12 -16.43,-4.26 -24.65,-6.37 -2.72,15.01 -5.45,30.02 -8.17,45.04zm36.44 -206.66c8.45,1.21 16.91,2.43 25.36,3.65 2.49,-14.1 4.98,-28.21 7.46,-42.32 -8.22,-2.11 -16.44,-4.25 -24.66,-6.37 -2.71,15.01 -5.44,30.02 -8.16,45.04zm82.51 227.63c8.45,1.22 16.91,2.43 25.36,3.65 2.49,-14.1 4.98,-28.21 7.46,-42.31 -8.22,-2.12 -16.43,-4.26 -24.65,-6.38 -2.72,15.01 -5.45,30.03 -8.17,45.04zm36.7 -208.13c8.45,1.21 16.91,2.43 25.36,3.65 2.49,-14.1 4.98,-28.22 7.46,-42.32 -8.22,-2.12 -16.43,-4.25 -24.65,-6.37 -2.72,15.01 -5.45,30.02 -8.17,45.04z"/>
    <path class="fil0 str1" d="M182.49 1682.77c-44.06,-92.53 -88.13,-185.07 -110.16,-231.33 -22.03,-46.27 -22.03,-46.27 -18.74,-42.97 3.31,3.31 9.94,9.92 16.54,16.53m-8.14 257.77c44.06,-92.53 93.09,-190.03 115.12,-236.29m-120.15 238.18c8.54,-0.27 17.08,-0.53 25.61,-0.8 0,-14.32 0,-28.65 0,-42.97 -8.46,-0.66 -16.92,-1.34 -25.39,-2 -0.07,15.26 -0.15,30.52 -0.22,45.77zm0 -209.84c8.54,-0.27 17.08,-0.54 25.61,-0.81 0,-14.32 0,-28.65 0,-42.97 -8.46,-0.66 -16.92,-1.34 -25.39,-2 -0.07,15.26 -0.15,30.52 -0.22,45.78zm120.79 209.84c8.53,-0.27 17.07,-0.53 25.61,-0.8 0,-14.32 0,-28.65 0,-42.97 -8.47,-0.66 -16.93,-1.34 -25.39,-2 -0.07,15.26 -0.15,30.52 -0.22,45.77zm0 -211.34c8.53,-0.27 17.07,-0.54 25.61,-0.81 0,-14.32 0,-28.65 0,-42.97 -8.47,-0.66 -16.93,-1.33 -25.39,-1.99 -0.07,15.25 -0.15,30.51 -0.22,45.77z"/>
    <path class="fil0 str1" d="M226.32 1918.21c-59.46,-83.47 -118.92,-166.95 -148.66,-208.68 -29.73,-41.74 -29.73,-41.74 -25.91,-39.06 3.83,2.68 11.51,8.04 19.16,13.4m36.74 255.27c27.33,-98.77 58.68,-203.3 72.34,-252.69m-76.96 255.43c8.36,-1.75 16.72,-3.5 25.08,-5.24 -2.49,-14.1 -4.98,-28.22 -7.46,-42.32 -8.45,0.82 -16.9,1.62 -25.35,2.44 2.58,15.04 5.15,30.08 7.73,45.12zm-36.44 -206.66c8.36,-1.74 16.72,-3.49 25.08,-5.24 -2.49,-14.1 -4.97,-28.21 -7.46,-42.31 -8.45,0.82 -16.9,1.62 -25.35,2.44 2.58,15.03 5.15,30.08 7.73,45.11zm155.39 185.69c8.36,-1.75 16.72,-3.5 25.08,-5.25 -2.49,-14.1 -4.97,-28.21 -7.46,-42.31 -8.45,0.82 -16.9,1.62 -25.35,2.44 2.58,15.04 5.15,30.08 7.73,45.12zm-36.7 -208.14c8.36,-1.74 16.72,-3.49 25.08,-5.24 -2.49,-14.1 -4.97,-28.21 -7.46,-42.31 -8.45,0.82 -16.9,1.62 -25.35,2.44 2.58,15.03 5.15,30.07 7.73,45.11z"/>
    <path class="fil0 str1" d="M310.37 2142.47c-73.05,-71.87 -146.11,-143.76 -182.64,-179.7 -36.52,-35.94 -36.52,-35.94 -32.3,-33.96 4.24,1.97 12.73,5.92 21.2,9.87m80.5 245.01c9.77,-102.02 22.49,-210.4 27.37,-261.41m-31.44 264.91c7.93,-3.17 15.86,-6.35 23.79,-9.52 -4.9,-13.45 -9.8,-26.92 -14.7,-40.37 -8.17,2.27 -16.36,4.53 -24.54,6.8 5.15,14.36 10.3,28.73 15.45,43.09zm-71.77 -197.19c7.93,-3.17 15.86,-6.35 23.79,-9.52 -4.9,-13.45 -9.8,-26.92 -14.7,-40.37 -8.18,2.27 -16.36,4.53 -24.54,6.8 5.15,14.36 10.3,28.73 15.45,43.09zm185.27 155.88c7.93,-3.17 15.87,-6.35 23.79,-9.52 -4.9,-13.46 -9.8,-26.92 -14.69,-40.38 -8.18,2.28 -16.37,4.54 -24.55,6.81 5.16,14.36 10.3,28.73 15.45,43.09zm-72.28 -198.6c7.92,-3.17 15.86,-6.35 23.79,-9.52 -4.9,-13.45 -9.8,-26.92 -14.7,-40.37 -8.18,2.27 -16.36,4.53 -24.54,6.8 5.15,14.36 10.3,28.73 15.45,43.09z"/>
    <path class="fil0 str1" d="M432.09 2348.73c-84.43,-58.1 -168.86,-116.21 -211.07,-145.26 -42.21,-29.04 -42.21,-29.04 -37.71,-27.84 4.52,1.21 13.56,3.63 22.58,6.05m121.84 227.3c-8.1,-102.16 -14.4,-211.1 -18.45,-262.19m15.04 266.35c7.26,-4.5 14.52,-9.01 21.78,-13.51 -7.16,-12.4 -14.33,-24.81 -21.49,-37.21 -7.65,3.66 -15.32,7.31 -22.98,10.97 7.57,13.25 15.13,26.5 22.69,39.75zm-104.92 -181.73c7.26,-4.5 14.52,-9.01 21.77,-13.51 -7.15,-12.4 -14.32,-24.81 -21.48,-37.21 -7.66,3.66 -15.33,7.31 -22.99,10.97 7.57,13.25 15.13,26.5 22.7,39.75zm209.53 121.34c7.25,-4.5 14.52,-9.01 21.77,-13.51 -7.16,-12.4 -14.32,-24.81 -21.48,-37.21 -7.66,3.66 -15.33,7.3 -22.99,10.97 7.57,13.24 15.13,26.5 22.7,39.75zm-105.68 -183.03c7.26,-4.5 14.52,-9.01 21.78,-13.51 -7.16,-12.4 -14.33,-24.81 -21.48,-37.21 -7.66,3.66 -15.33,7.3 -22.99,10.97 7.57,13.24 15.13,26.5 22.69,39.75z"/>
    <path class="fil0 str1" d="M587.77 2530.72c-93.23,-42.56 -186.47,-85.12 -233.09,-106.4 -46.61,-21.28 -46.61,-21.28 -41.97,-20.87 4.66,0.41 13.99,1.22 23.29,2.03m159.46 202.7c-25.72,-99.21 -50.84,-205.4 -63.7,-255.01m61.07 259.69c6.36,-5.69 12.73,-11.39 19.1,-17.08 -9.21,-10.97 -18.42,-21.94 -27.62,-32.91 -6.91,4.93 -13.83,9.85 -20.74,14.79 9.76,11.73 19.5,23.47 29.26,35.2zm-134.89 -160.75c6.36,-5.69 12.74,-11.39 19.1,-17.08 -9.21,-10.97 -18.42,-21.95 -27.62,-32.91 -6.91,4.93 -13.83,9.85 -20.73,14.78 9.75,11.74 19.5,23.48 29.25,35.21zm227.41 83.11c6.37,-5.69 12.74,-11.39 19.1,-17.08 -9.2,-10.97 -18.41,-21.94 -27.62,-32.91 -6.9,4.93 -13.82,9.85 -20.73,14.79 9.75,11.73 19.5,23.47 29.25,35.2zm-135.85 -161.9c6.37,-5.69 12.74,-11.39 19.1,-17.08 -9.2,-10.97 -18.41,-21.94 -27.62,-32.91 -6.9,4.93 -13.82,9.85 -20.73,14.79 9.75,11.73 19.5,23.47 29.25,35.2z"/>
    <path class="fil0 str1" d="M772.69 2682.91c-99.21,-25.72 -198.42,-51.45 -248.02,-64.31 -49.6,-12.86 -49.6,-12.86 -44.96,-13.26 4.66,-0.41 13.99,-1.23 23.29,-2.05m192.23 171.93c-42.56,-93.23 -85.73,-193.45 -107.01,-240.07m105.23 245.14c5.28,-6.71 10.57,-13.43 15.84,-20.14 -10.96,-9.2 -21.94,-18.41 -32.91,-27.62 -5.94,6.06 -11.91,12.11 -17.85,18.17 11.64,9.86 23.28,19.73 34.92,29.59zm-160.75 -134.89c5.28,-6.71 10.56,-13.42 15.84,-20.13 -10.97,-9.21 -21.94,-18.42 -32.91,-27.62 -5.95,6.06 -11.91,12.1 -17.85,18.16 11.64,9.86 23.28,19.73 34.92,29.59zm238.39 42.36c5.28,-6.71 10.57,-13.42 15.84,-20.14 -10.96,-9.2 -21.94,-18.41 -32.91,-27.61 -5.95,6.06 -11.91,12.1 -17.85,18.16 11.64,9.86 23.28,19.73 34.92,29.59zm-161.9 -135.85c5.28,-6.71 10.57,-13.42 15.84,-20.13 -10.96,-9.21 -21.94,-18.42 -32.91,-27.62 -5.95,6.06 -11.91,12.1 -17.85,18.16 11.64,9.86 23.28,19.73 34.92,29.59z"/>
    <path class="fil0 str1" d="M981.23 2800.67c-102.17,-8.1 -204.34,-16.2 -255.42,-20.26 -51.09,-4.05 -51.09,-4.05 -46.58,-5.25 4.52,-1.21 13.56,-3.64 22.58,-6.06m219.16 135.94c-58.1,-84.43 -118.02,-175.63 -147.07,-217.84m146.2 223.14c4.04,-7.53 8.08,-15.06 12.11,-22.59 -12.4,-7.16 -24.81,-14.32 -37.21,-21.48 -4.8,7 -9.62,13.99 -14.43,20.99 13.18,7.69 26.36,15.39 39.53,23.08zm-181.73 -104.93c4.03,-7.52 8.07,-15.05 12.11,-22.58 -12.4,-7.16 -24.81,-14.32 -37.21,-21.48 -4.81,7 -9.63,13.99 -14.43,20.99 13.18,7.69 26.35,15.38 39.53,23.07zm242.13 0.32c4.03,-7.52 8.07,-15.05 12.1,-22.58 -12.4,-7.16 -24.81,-14.32 -37.21,-21.48 -4.8,7 -9.62,13.99 -14.42,20.99 13.17,7.69 26.35,15.38 39.53,23.07zm-183.03 -105.67c4.03,-7.52 8.07,-15.06 12.1,-22.58 -12.4,-7.16 -24.81,-14.33 -37.21,-21.49 -4.8,7 -9.62,13.99 -14.43,20.99 13.18,7.69 26.36,15.39 39.54,23.08z"/>
    <path class="fil0 str1" d="M1207.05 2880.44c-102.02,9.76 -204.05,19.52 -255.06,24.4 -51.01,4.88 -51.01,4.88 -46.79,2.91 4.24,-1.98 12.73,-5.94 21.19,-9.89m239.44 95.82c-71.88,-73.06 -146.72,-152.47 -182.66,-188.99m182.72 194.36c2.67,-8.11 5.34,-16.23 8,-24.34 -13.45,-4.9 -26.92,-9.8 -40.37,-14.7 -3.52,7.73 -7.05,15.45 -10.56,23.18 14.31,5.28 28.62,10.58 42.93,15.86zm-197.19 -71.77c2.67,-8.11 5.34,-16.23 8,-24.34 -13.45,-4.9 -26.92,-9.8 -40.37,-14.7 -3.52,7.73 -7.05,15.45 -10.57,23.18 14.32,5.28 28.63,10.57 42.94,15.86zm238.51 -41.73c2.66,-8.11 5.33,-16.23 7.99,-24.34 -13.45,-4.9 -26.92,-9.8 -40.37,-14.7 -3.52,7.73 -7.05,15.45 -10.56,23.18 14.31,5.28 28.62,10.57 42.94,15.86zm-198.6 -72.29c2.66,-8.11 5.33,-16.23 7.99,-24.34 -13.45,-4.89 -26.92,-9.8 -40.37,-14.69 -3.51,7.72 -7.05,15.45 -10.56,23.17 14.31,5.29 28.62,10.58 42.94,15.86z"/>
    <path class="fil0 str1" d="M1443.28 2919.78c-98.77,27.33 -197.55,54.66 -246.94,68.32 -49.39,13.67 -49.39,13.67 -45.57,10.99 3.83,-2.68 11.5,-8.06 19.15,-13.42m252.44 52.79c-83.47,-59.47 -170.97,-124.67 -212.71,-154.41m213.71 159.68c1.21,-8.45 2.43,-16.91 3.65,-25.36 -14.11,-2.48 -28.22,-4.97 -42.32,-7.46 -2.12,8.22 -4.26,16.44 -6.37,24.66 15.01,2.72 30.02,5.45 45.04,8.16zm-206.66 -36.43c1.21,-8.45 2.43,-16.92 3.65,-25.37 -14.1,-2.48 -28.22,-4.97 -42.32,-7.46 -2.12,8.22 -4.25,16.44 -6.37,24.66 15.01,2.72 30.02,5.45 45.04,8.17zm227.63 -82.52c1.22,-8.45 2.43,-16.91 3.65,-25.36 -14.1,-2.48 -28.21,-4.97 -42.31,-7.46 -2.12,8.22 -4.26,16.44 -6.38,24.66 15.01,2.72 30.03,5.45 45.04,8.16zm-208.13 -36.7c1.21,-8.45 2.43,-16.91 3.65,-25.36 -14.11,-2.48 -28.22,-4.97 -42.32,-7.46 -2.12,8.22 -4.26,16.44 -6.38,24.66 15.02,2.72 30.03,5.45 45.05,8.16z"/>
    <path class="fil0 str1" d="M1682.77 2917.5c-92.53,44.07 -185.07,88.13 -231.33,110.17 -46.27,22.03 -46.27,22.03 -42.97,18.73 3.31,-3.31 9.92,-9.93 16.53,-16.54m257.77 8.15c-92.53,-44.07 -190.03,-93.09 -236.29,-115.12m238.19 120.14c-0.27,-8.53 -0.54,-17.07 -0.81,-25.61 -14.32,0 -28.65,0 -42.97,0 -0.66,8.47 -1.34,16.93 -2,25.39 15.26,0.07 30.52,0.15 45.78,0.22zm-209.85 0c-0.27,-8.53 -0.54,-17.07 -0.81,-25.61 -14.32,0 -28.65,0 -42.97,0 -0.66,8.47 -1.34,16.93 -2,25.39 15.26,0.07 30.52,0.15 45.78,0.22zm209.85 -120.78c-0.27,-8.54 -0.54,-17.08 -0.81,-25.61 -14.32,0 -28.65,0 -42.97,0 -0.66,8.46 -1.34,16.92 -2,25.39 15.26,0.07 30.52,0.15 45.78,0.22zm-211.35 0c-0.27,-8.54 -0.54,-17.08 -0.81,-25.61 -14.32,0 -28.65,0 -42.97,0 -0.66,8.46 -1.34,16.92 -1.99,25.39 15.25,0.07 30.51,0.15 45.77,0.22z"/>
    <path class="fil0 str1" d="M1918.21 2873.67c-83.47,59.46 -166.95,118.93 -208.68,148.66 -41.74,29.73 -41.74,29.73 -39.06,25.91 2.68,-3.83 8.05,-11.5 13.4,-19.15m255.27 -36.74c-98.77,-27.33 -203.3,-58.68 -252.69,-72.34m255.43 76.96c-1.74,-8.36 -3.49,-16.73 -5.24,-25.08 -14.1,2.48 -28.21,4.97 -42.32,7.46 0.82,8.45 1.63,16.9 2.45,25.35 15.03,-2.58 30.07,-5.15 45.11,-7.73zm-206.66 36.44c-1.74,-8.36 -3.49,-16.73 -5.24,-25.08 -14.1,2.48 -28.21,4.97 -42.31,7.46 0.82,8.45 1.62,16.9 2.44,25.35 15.04,-2.58 30.08,-5.15 45.11,-7.73zm185.69 -155.39c-1.75,-8.36 -3.5,-16.73 -5.25,-25.08 -14.1,2.48 -28.21,4.97 -42.31,7.46 0.82,8.45 1.62,16.9 2.44,25.35 15.04,-2.58 30.08,-5.15 45.12,-7.73zm-208.14 36.7c-1.74,-8.36 -3.49,-16.73 -5.24,-25.08 -14.1,2.48 -28.21,4.97 -42.31,7.46 0.82,8.45 1.62,16.9 2.44,25.35 15.04,-2.58 30.08,-5.15 45.11,-7.73z"/>
    <path class="fil0 str1" d="M2142.47 2789.62c-71.87,73.06 -143.76,146.11 -179.7,182.64 -35.93,36.53 -35.93,36.53 -33.96,32.3 1.97,-4.24 5.92,-12.72 9.87,-21.19m245.01 -80.51c-102.02,-9.76 -210.4,-22.48 -261.41,-27.36m264.91 31.43c-3.17,-7.92 -6.34,-15.86 -9.52,-23.78 -13.45,4.89 -26.92,9.79 -40.37,14.69 2.27,8.18 4.53,16.36 6.8,24.54 14.37,-5.15 28.73,-10.29 43.09,-15.45zm-197.19 71.78c-3.17,-7.93 -6.35,-15.87 -9.52,-23.79 -13.45,4.89 -26.92,9.8 -40.37,14.69 2.27,8.18 4.53,16.37 6.8,24.54 14.36,-5.15 28.73,-10.29 43.09,-15.44zm155.88 -185.28c-3.17,-7.92 -6.35,-15.86 -9.52,-23.79 -13.45,4.9 -26.92,9.8 -40.37,14.7 2.27,8.18 4.53,16.36 6.8,24.54 14.36,-5.15 28.73,-10.29 43.09,-15.45zm-198.6 72.29c-3.17,-7.93 -6.35,-15.87 -9.52,-23.79 -13.45,4.9 -26.92,9.8 -40.37,14.69 2.27,8.18 4.53,16.37 6.8,24.55 14.36,-5.16 28.73,-10.3 43.09,-15.45z"/>
    <path class="fil0 str1" d="M2348.73 2667.91c-58.1,84.42 -116.2,168.85 -145.25,211.07 -29.05,42.21 -29.05,42.21 -27.85,37.71 1.21,-4.52 3.63,-13.57 6.05,-22.59m227.31 -121.83c-102.17,8.1 -211.11,14.39 -262.19,18.44m266.34 -15.04c-4.5,-7.25 -9,-14.52 -13.5,-21.77 -12.4,7.16 -24.81,14.32 -37.21,21.48 3.66,7.66 7.3,15.33 10.96,22.99 13.25,-7.57 26.5,-15.13 39.75,-22.7zm-181.73 104.93c-4.5,-7.26 -9.01,-14.52 -13.51,-21.78 -12.4,7.16 -24.81,14.32 -37.21,21.48 3.66,7.66 7.31,15.33 10.97,22.99 13.25,-7.57 26.5,-15.13 39.75,-22.69zm121.34 -209.53c-4.5,-7.26 -9.01,-14.52 -13.51,-21.78 -12.4,7.16 -24.81,14.33 -37.21,21.49 3.66,7.66 7.31,15.33 10.97,22.99 13.25,-7.57 26.5,-15.13 39.75,-22.7zm-183.03 105.67c-4.5,-7.25 -9.01,-14.52 -13.51,-21.77 -12.4,7.16 -24.81,14.32 -37.21,21.48 3.66,7.66 7.31,15.33 10.97,22.99 13.25,-7.57 26.5,-15.13 39.75,-22.7z"/>
    <path class="fil0 str1" d="M2530.72 2512.23c-42.55,93.23 -85.12,186.47 -106.4,233.08 -21.27,46.62 -21.27,46.62 -20.87,41.97 0.41,-4.66 1.22,-13.98 2.03,-23.29m202.7 -159.45c-99.2,25.72 -205.4,50.83 -255,63.69m259.69 -61.06c-5.7,-6.36 -11.39,-12.74 -17.09,-19.1 -10.96,9.2 -21.94,18.42 -32.91,27.62 4.93,6.91 9.85,13.83 14.79,20.73 11.73,-9.75 23.47,-19.5 35.21,-29.25zm-160.76 134.89c-5.69,-6.37 -11.39,-12.74 -17.08,-19.1 -10.97,9.2 -21.94,18.41 -32.91,27.62 4.93,6.9 9.85,13.82 14.79,20.73 11.73,-9.75 23.47,-19.5 35.2,-29.25zm83.12 -227.42c-5.7,-6.36 -11.39,-12.73 -17.09,-19.1 -10.96,9.21 -21.94,18.42 -32.91,27.62 4.94,6.91 9.85,13.83 14.79,20.74 11.73,-9.76 23.47,-19.5 35.21,-29.26zm-161.9 135.85c-5.7,-6.36 -11.39,-12.73 -17.09,-19.1 -10.96,9.21 -21.94,18.42 -32.91,27.62 4.94,6.91 9.85,13.83 14.79,20.74 11.73,-9.76 23.47,-19.5 35.21,-29.26z"/>
    <path class="fil0 str1" d="M2682.91 2327.31c-25.72,99.2 -51.44,198.42 -64.3,248.02 -12.86,49.6 -12.86,49.6 -13.27,44.96 -0.41,-4.66 -1.23,-13.99 -2.05,-23.29m171.93 -192.23c-93.23,42.55 -193.45,85.73 -240.06,107.01m245.13 -105.24c-6.71,-5.27 -13.42,-10.56 -20.13,-15.84 -9.21,10.97 -18.42,21.95 -27.62,32.92 6.06,5.94 12.1,11.9 18.16,17.85 9.86,-11.65 19.73,-23.28 29.59,-34.93zm-134.88 160.76c-6.71,-5.28 -13.43,-10.57 -20.14,-15.85 -9.2,10.97 -18.42,21.95 -27.62,32.92 6.06,5.94 12.11,11.9 18.17,17.85 9.86,-11.64 19.73,-23.28 29.59,-34.92zm42.36 -238.4c-6.71,-5.27 -13.43,-10.56 -20.14,-15.84 -9.21,10.97 -18.42,21.95 -27.62,32.92 6.06,5.94 12.11,11.9 18.17,17.85 9.86,-11.65 19.73,-23.28 29.59,-34.93zm-135.85 161.9c-6.71,-5.27 -13.43,-10.56 -20.14,-15.84 -9.21,10.97 -18.42,21.95 -27.62,32.92 6.06,5.94 12.11,11.9 18.17,17.85 9.86,-11.65 19.73,-23.28 29.59,-34.93z"/>
    <path class="fil0 str1" d="M2800.68 2118.77c-8.1,102.17 -16.21,204.34 -20.26,255.42 -4.05,51.08 -4.05,51.08 -5.26,46.58 -1.21,-4.52 -3.64,-13.56 -6.06,-22.58m135.94 -219.17c-84.43,58.1 -175.63,118.02 -217.84,147.07m223.14 -146.2c-7.52,-4.03 -15.06,-8.07 -22.58,-12.1 -7.16,12.4 -14.33,24.81 -21.49,37.21 7,4.8 13.99,9.62 20.99,14.43 7.69,-13.18 15.39,-26.36 23.08,-39.54zm-104.92 181.74c-7.53,-4.04 -15.06,-8.08 -22.59,-12.11 -7.15,12.4 -14.32,24.81 -21.48,37.21 7,4.8 13.99,9.62 20.99,14.43 7.69,-13.18 15.39,-26.36 23.08,-39.53zm0.32 -242.13c-7.53,-4.03 -15.06,-8.07 -22.59,-12.1 -7.16,12.4 -14.32,24.81 -21.48,37.21 7,4.8 13.99,9.62 20.99,14.42 7.69,-13.18 15.39,-26.35 23.08,-39.53zm-105.67 183.03c-7.53,-4.03 -15.06,-8.07 -22.59,-12.1 -7.16,12.4 -14.32,24.81 -21.48,37.21 7,4.8 13.99,9.62 20.99,14.42 7.69,-13.18 15.39,-26.35 23.08,-39.53z"/>
    <path class="fil0 str1" d="M2880.44 1892.95c9.77,102.02 19.52,204.05 24.41,255.06 4.88,51.01 4.88,51.01 2.91,46.78 -1.98,-4.24 -5.94,-12.72 -9.89,-21.18m95.81 -239.44c-73.05,71.88 -152.46,146.72 -188.99,182.66m194.37 -182.73c-8.12,-2.66 -16.24,-5.33 -24.35,-7.99 -4.89,13.45 -9.8,26.92 -14.69,40.37 7.72,3.51 15.45,7.05 23.17,10.56 5.29,-14.31 10.58,-28.62 15.87,-42.94zm-71.78 197.19c-8.11,-2.66 -16.23,-5.33 -24.34,-7.99 -4.9,13.45 -9.8,26.92 -14.69,40.37 7.72,3.52 15.44,7.05 23.17,10.56 5.29,-14.31 10.58,-28.62 15.86,-42.94zm-41.73 -238.5c-8.11,-2.66 -16.23,-5.33 -24.34,-8 -4.9,13.46 -9.8,26.92 -14.69,40.38 7.72,3.51 15.44,7.05 23.17,10.56 5.29,-14.31 10.58,-28.62 15.86,-42.94zm-72.28 198.6c-8.11,-2.66 -16.23,-5.33 -24.34,-8 -4.9,13.46 -9.8,26.92 -14.7,40.38 7.73,3.51 15.45,7.05 23.18,10.56 5.28,-14.31 10.57,-28.62 15.86,-42.94z"/>
    <path class="fil0 str1" d="M2919.79 1656.71c27.32,98.78 54.65,197.56 68.32,246.95 13.66,49.39 13.66,49.39 10.99,45.57 -2.69,-3.84 -8.06,-11.5 -13.42,-19.15m52.78 -252.44c-59.46,83.47 -124.67,170.97 -154.4,212.71m159.68 -213.71c-8.45,-1.21 -16.91,-2.43 -25.36,-3.65 -2.49,14.1 -4.98,28.22 -7.46,42.32 8.22,2.12 16.43,4.26 24.65,6.37 2.72,-15.01 5.45,-30.02 8.17,-45.04zm-36.44 206.66c-8.45,-1.21 -16.91,-2.43 -25.36,-3.65 -2.49,14.1 -4.98,28.21 -7.46,42.32 8.22,2.11 16.44,4.25 24.66,6.37 2.71,-15.01 5.44,-30.02 8.16,-45.04zm-82.51 -227.63c-8.45,-1.22 -16.91,-2.43 -25.36,-3.65 -2.49,14.1 -4.98,28.21 -7.46,42.31 8.22,2.12 16.43,4.26 24.65,6.38 2.72,-15.01 5.45,-30.03 8.17,-45.04zm-36.7 208.13c-8.45,-1.21 -16.91,-2.43 -25.36,-3.65 -2.49,14.1 -4.98,28.22 -7.46,42.32 8.22,2.12 16.43,4.25 24.65,6.37 2.72,-15.01 5.45,-30.02 8.17,-45.04z"/>
    <path class="fil0 str1" d="M2917.51 1417.23c44.06,92.53 88.13,185.07 110.16,231.33 22.03,46.27 22.03,46.27 18.74,42.97 -3.31,-3.31 -9.94,-9.92 -16.54,-16.53m8.14 -257.77c-44.06,92.53 -93.09,190.03 -115.12,236.29m120.15 -238.18c-8.54,0.27 -17.08,0.53 -25.61,0.8 0,14.32 0,28.65 0,42.97 8.46,0.66 16.92,1.34 25.39,2 0.07,-15.26 0.15,-30.52 0.22,-45.77zm0 209.84c-8.54,0.27 -17.08,0.54 -25.61,0.81 0,14.32 0,28.65 0,42.97 8.46,0.66 16.92,1.34 25.39,2 0.07,-15.26 0.15,-30.52 0.22,-45.78zm-120.79 -209.84c-8.53,0.27 -17.07,0.53 -25.61,0.8 0,14.32 0,28.65 0,42.97 8.47,0.66 16.93,1.34 25.39,2 0.07,-15.26 0.15,-30.52 0.22,-45.77zm0 211.34c-8.53,0.27 -17.07,0.54 -25.61,0.81 0,14.32 0,28.65 0,42.97 8.47,0.66 16.93,1.33 25.39,1.99 0.07,-15.25 0.15,-30.51 0.22,-45.77z"/>
    <path class="fil0 str1" d="M2873.68 1181.79c59.46,83.47 118.92,166.95 148.66,208.68 29.73,41.74 29.73,41.74 25.91,39.06 -3.83,-2.68 -11.51,-8.04 -19.16,-13.4m-36.74 -255.27c-27.33,98.77 -58.68,203.3 -72.34,252.69m76.96 -255.43c-8.36,1.75 -16.72,3.5 -25.08,5.24 2.49,14.1 4.98,28.22 7.46,42.32 8.45,-0.82 16.9,-1.62 25.35,-2.44 -2.58,-15.04 -5.15,-30.08 -7.73,-45.12zm36.44 206.66c-8.36,1.74 -16.72,3.49 -25.08,5.24 2.49,14.1 4.97,28.21 7.46,42.31 8.45,-0.82 16.9,-1.62 25.35,-2.44 -2.58,-15.03 -5.15,-30.08 -7.73,-45.11zm-155.39 -185.69c-8.36,1.75 -16.72,3.5 -25.08,5.25 2.49,14.1 4.97,28.21 7.46,42.31 8.45,-0.82 16.9,-1.62 25.35,-2.44 -2.58,-15.04 -5.15,-30.08 -7.73,-45.12zm36.7 208.14c-8.36,1.74 -16.72,3.49 -25.08,5.24 2.49,14.1 4.97,28.21 7.46,42.31 8.45,-0.82 16.9,-1.62 25.35,-2.44 -2.58,-15.03 -5.15,-30.07 -7.73,-45.11z"/>
    <path class="fil0 str1" d="M2789.63 957.53c73.05,71.87 146.11,143.76 182.64,179.7 36.52,35.94 36.52,35.94 32.3,33.96 -4.24,-1.97 -12.73,-5.92 -21.2,-9.87m-80.5 -245.01c-9.77,102.02 -22.49,210.4 -27.37,261.41m31.44 -264.91c-7.93,3.17 -15.86,6.35 -23.79,9.52 4.9,13.45 9.8,26.92 14.7,40.37 8.17,-2.27 16.36,-4.53 24.54,-6.8 -5.15,-14.36 -10.3,-28.73 -15.45,-43.09zm71.77 197.19c-7.93,3.17 -15.86,6.35 -23.79,9.52 4.9,13.45 9.8,26.92 14.7,40.37 8.18,-2.27 16.36,-4.53 24.54,-6.8 -5.15,-14.36 -10.3,-28.73 -15.45,-43.09zm-185.27 -155.88c-7.93,3.17 -15.87,6.35 -23.79,9.52 4.9,13.46 9.8,26.92 14.69,40.38 8.18,-2.28 16.37,-4.54 24.55,-6.81 -5.16,-14.36 -10.3,-28.73 -15.45,-43.09zm72.28 198.6c-7.92,3.17 -15.86,6.35 -23.79,9.52 4.9,13.45 9.8,26.92 14.7,40.37 8.18,-2.27 16.36,-4.53 24.54,-6.8 -5.15,-14.36 -10.3,-28.73 -15.45,-43.09z"/>
    <path class="fil0 str1" d="M2667.91 751.27c84.43,58.1 168.86,116.21 211.07,145.26 42.21,29.04 42.21,29.04 37.71,27.84 -4.52,-1.21 -13.56,-3.63 -22.58,-6.05m-121.84 -227.3c8.1,102.16 14.4,211.1 18.45,262.19m-15.04 -266.35c-7.26,4.5 -14.52,9.01 -21.78,13.51 7.16,12.4 14.33,24.81 21.49,37.21 7.65,-3.66 15.32,-7.31 22.98,-10.97 -7.57,-13.25 -15.13,-26.5 -22.69,-39.75zm104.92 181.73c-7.26,4.5 -14.52,9.01 -21.77,13.51 7.15,12.4 14.32,24.81 21.48,37.21 7.66,-3.66 15.33,-7.31 22.99,-10.97 -7.57,-13.25 -15.13,-26.5 -22.7,-39.75zm-209.53 -121.34c-7.25,4.5 -14.52,9.01 -21.77,13.51 7.16,12.4 14.32,24.81 21.48,37.21 7.66,-3.66 15.33,-7.3 22.99,-10.97 -7.57,-13.24 -15.13,-26.5 -22.7,-39.75zm105.68 183.03c-7.26,4.5 -14.52,9.01 -21.78,13.51 7.16,12.4 14.33,24.81 21.48,37.21 7.66,-3.66 15.33,-7.3 22.99,-10.97 -7.57,-13.24 -15.13,-26.5 -22.69,-39.75z"/>
    <path class="fil0 str1" d="M2512.23 569.28c93.23,42.56 186.47,85.12 233.09,106.4 46.61,21.28 46.61,21.28 41.97,20.87 -4.66,-0.41 -13.99,-1.22 -23.29,-2.03m-159.46 -202.7c25.72,99.21 50.84,205.4 63.7,255.01m-61.07 -259.69c-6.36,5.69 -12.73,11.39 -19.1,17.08 9.21,10.97 18.42,21.94 27.62,32.91 6.91,-4.93 13.83,-9.85 20.74,-14.79 -9.76,-11.73 -19.5,-23.47 -29.26,-35.2zm134.89 160.75c-6.36,5.69 -12.74,11.39 -19.1,17.08 9.21,10.97 18.42,21.95 27.62,32.91 6.91,-4.93 13.83,-9.85 20.73,-14.78 -9.75,-11.74 -19.5,-23.48 -29.25,-35.21zm-227.41 -83.11c-6.37,5.69 -12.74,11.39 -19.1,17.08 9.2,10.97 18.41,21.94 27.62,32.91 6.9,-4.93 13.82,-9.85 20.73,-14.79 -9.75,-11.73 -19.5,-23.47 -29.25,-35.2zm135.85 161.9c-6.37,5.69 -12.74,11.39 -19.1,17.08 9.2,10.97 18.41,21.94 27.62,32.91 6.9,-4.93 13.82,-9.85 20.73,-14.79 -9.75,-11.73 -19.5,-23.47 -29.25,-35.2z"/>
    <path class="fil0 str1" d="M2327.31 417.09c99.21,25.72 198.42,51.45 248.02,64.31 49.6,12.86 49.6,12.86 44.96,13.26 -4.66,0.41 -13.99,1.23 -23.29,2.05m-192.23 -171.93c42.56,93.23 85.73,193.45 107.01,240.07m-105.23 -245.14c-5.28,6.71 -10.57,13.43 -15.84,20.14 10.96,9.2 21.94,18.41 32.91,27.62 5.94,-6.06 11.91,-12.11 17.85,-18.17 -11.64,-9.86 -23.28,-19.73 -34.92,-29.59zm160.75 134.89c-5.28,6.71 -10.56,13.42 -15.84,20.13 10.97,9.21 21.94,18.42 32.91,27.62 5.95,-6.06 11.91,-12.1 17.85,-18.16 -11.64,-9.86 -23.28,-19.73 -34.92,-29.59zm-238.39 -42.36c-5.28,6.71 -10.57,13.42 -15.84,20.14 10.96,9.2 21.94,18.41 32.91,27.61 5.95,-6.06 11.91,-12.1 17.85,-18.16 -11.64,-9.86 -23.28,-19.73 -34.92,-29.59zm161.9 135.85c-5.28,6.71 -10.57,13.42 -15.84,20.13 10.96,9.21 21.94,18.42 32.91,27.62 5.95,-6.06 11.91,-12.1 17.85,-18.16 -11.64,-9.86 -23.28,-19.73 -34.92,-29.59z"/>
    <path class="fil0 str1" d="M2118.77 299.33c102.17,8.1 204.34,16.2 255.42,20.26 51.09,4.05 51.09,4.05 46.58,5.25 -4.52,1.21 -13.56,3.64 -22.58,6.06m-219.16 -135.94c58.1,84.43 118.02,175.63 147.07,217.84m-146.2 -223.14c-4.04,7.53 -8.08,15.06 -12.11,22.59 12.4,7.16 24.81,14.32 37.21,21.48 4.8,-7 9.62,-13.99 14.43,-20.99 -13.18,-7.69 -26.36,-15.39 -39.53,-23.08zm181.73 104.93c-4.03,7.52 -8.07,15.05 -12.11,22.58 12.4,7.16 24.81,14.32 37.21,21.48 4.81,-7 9.63,-13.99 14.43,-20.99 -13.18,-7.69 -26.35,-15.38 -39.53,-23.07zm-242.13 -0.32c-4.03,7.52 -8.07,15.05 -12.1,22.58 12.4,7.16 24.81,14.32 37.21,21.48 4.8,-7 9.62,-13.99 14.42,-20.99 -13.17,-7.69 -26.35,-15.38 -39.53,-23.07zm183.03 105.67c-4.03,7.52 -8.07,15.06 -12.1,22.58 12.4,7.16 24.81,14.33 37.21,21.49 4.8,-7 9.62,-13.99 14.43,-20.99 -13.18,-7.69 -26.36,-15.39 -39.54,-23.08z"/>
    <path class="fil0 str1" d="M1892.95 219.56c102.02,-9.76 204.05,-19.52 255.06,-24.4 51.01,-4.88 51.01,-4.88 46.79,-2.91 -4.24,1.98 -12.73,5.94 -21.19,9.89m-239.44 -95.82c71.88,73.06 146.72,152.47 182.66,188.99m-182.72 -194.36c-2.67,8.11 -5.34,16.23 -8,24.34 13.45,4.9 26.92,9.8 40.37,14.7 3.52,-7.73 7.05,-15.45 10.56,-23.18 -14.31,-5.28 -28.62,-10.58 -42.93,-15.86zm197.19 71.77c-2.67,8.11 -5.34,16.23 -8,24.34 13.45,4.9 26.92,9.8 40.37,14.7 3.52,-7.73 7.05,-15.45 10.57,-23.18 -14.32,-5.28 -28.63,-10.57 -42.94,-15.86zm-238.51 41.73c-2.66,8.11 -5.33,16.23 -7.99,24.34 13.45,4.9 26.92,9.8 40.37,14.7 3.52,-7.73 7.05,-15.45 10.56,-23.18 -14.31,-5.28 -28.62,-10.57 -42.94,-15.86zm198.6 72.29c-2.66,8.11 -5.33,16.23 -7.99,24.34 13.45,4.89 26.92,9.8 40.37,14.69 3.51,-7.72 7.05,-15.45 10.56,-23.17 -14.31,-5.29 -28.62,-10.58 -42.94,-15.86z"/>
    <path class="fil0 str1" d="M1656.72 180.22c98.77,-27.33 197.55,-54.66 246.94,-68.32 49.39,-13.67 49.39,-13.67 45.57,-10.99 -3.83,2.68 -11.5,8.06 -19.15,13.42m-252.44 -52.79c83.47,59.47 170.97,124.67 212.71,154.41m-213.71 -159.68c-1.21,8.45 -2.43,16.91 -3.65,25.36 14.11,2.48 28.22,4.97 42.32,7.46 2.12,-8.22 4.26,-16.44 6.37,-24.66 -15.01,-2.72 -30.02,-5.45 -45.04,-8.16zm206.66 36.43c-1.21,8.45 -2.43,16.92 -3.65,25.37 14.1,2.48 28.22,4.97 42.32,7.46 2.12,-8.22 4.25,-16.44 6.37,-24.66 -15.01,-2.72 -30.02,-5.45 -45.04,-8.17zm-227.63 82.52c-1.22,8.45 -2.43,16.91 -3.65,25.36 14.1,2.48 28.21,4.97 42.31,7.46 2.12,-8.22 4.26,-16.44 6.38,-24.66 -15.01,-2.72 -30.03,-5.45 -45.04,-8.16zm208.13 36.7c-1.21,8.45 -2.43,16.91 -3.65,25.36 14.11,2.48 28.22,4.97 42.32,7.46 2.12,-8.22 4.26,-16.44 6.38,-24.66 -15.02,-2.72 -30.03,-5.45 -45.05,-8.16z"/>
   </g>
   <path class="fil1 str2" d="M2402.96 2165.08c6.9,0 10.32,4.89 10.32,14.68 0,4.13 -0.53,10.74 -1.53,19.82l-3.3 28.01 -0.18 1.54c0,1.53 0.47,2.24 1.42,2.24 0.64,0 1.41,-0.65 2.24,-2.07 18.87,-29.13 32.49,-43.7 40.98,-43.7 1.95,0 3.78,0.71 5.55,2.19 1.71,1.41 2.59,3.3 2.59,5.6 0,2.29 -0.53,4.18 -1.65,5.66 -1.06,1.53 -7.25,6.43 -18.57,14.8 -11.27,8.31 -19.29,14.09 -24.01,17.34 -1.47,0.94 -2.24,1.83 -2.24,2.77 0,1.12 0.83,1.71 2.42,1.71 0.71,0 1.41,-0.12 2.24,-0.35 3.89,-0.89 11.68,-2.24 23.24,-3.95 11.56,-1.71 18.63,-2.6 21.17,-2.6 10.32,0 15.45,3.36 15.45,10.09 0,5.78 -3.3,8.66 -9.97,8.66 -2.83,0 -9.26,-0.76 -19.28,-2.24l-29.55 -4.48 -3.66 -0.71c-1.23,0 -1.88,0.48 -1.88,1.36 0,0.59 0.65,1.3 1.88,2.12 10.03,6.31 20.11,13.62 30.26,21.94 10.14,8.32 15.21,14.63 15.21,18.87 0,2.19 -0.94,4.07 -2.83,5.66 -1.94,1.6 -4.01,2.42 -6.37,2.42 -4.01,0 -8.84,-3.12 -14.5,-9.43 -5.67,-6.26 -13.86,-17.46 -24.6,-33.56 -1.12,-1.77 -2,-2.59 -2.59,-2.59 -0.77,0 -1.18,0.64 -1.18,2.06 0,0.65 0.12,1.65 0.35,2.89 2.89,20.17 4.31,36.68 4.31,49.48 0,7.78 -3.01,11.68 -9.03,11.68 -6.96,0 -10.43,-4.31 -10.43,-12.86 0,-5.19 1,-13.56 3,-25.12 2.01,-11.62 3.72,-19.94 5.13,-25.01l0.36 -1c0,-1.3 -0.59,-1.95 -1.77,-1.95l-1.18 1.06c-6.6,10.15 -14.21,20.47 -22.88,31.03 -8.73,10.55 -14.81,15.8 -18.22,15.8 -2.42,0 -4.43,-0.94 -5.96,-2.77 -1.6,-1.83 -2.36,-3.72 -2.36,-5.72 0,-2.42 0.59,-4.43 1.71,-6.14 1.18,-1.65 5.9,-6.07 14.21,-13.21 8.26,-7.13 16.04,-13.03 23.3,-17.75 4.01,-2.65 6.07,-4.36 6.07,-5.01 0,-0.71 -0.47,-1.06 -1.41,-1.06l-1.54 0.18c-2.18,0.47 -10.08,1.82 -23.65,4.12 -13.62,2.3 -22.29,3.48 -26.06,3.48 -8.79,0 -13.16,-3.3 -13.16,-9.96 0,-6.31 4.25,-9.5 12.68,-9.5 4.72,0 11.74,0.77 21.06,2.24l27.13 4.31 3.6 0.88c1.29,0 1.88,-0.47 1.88,-1.41 0,-0.65 -1.29,-1.89 -3.95,-3.6 -1.95,-1.3 -5.19,-3.6 -9.67,-6.9 -10.14,-7.61 -18.81,-13.92 -26.01,-18.93 -7.19,-5.01 -10.79,-9.79 -10.79,-14.27 0,-2.3 0.94,-4.31 2.77,-5.9 1.89,-1.59 3.89,-2.42 6.08,-2.42 3,0 6.78,2.19 11.2,6.49 4.48,4.3 12.27,13.33 23.35,27.01 7.14,8.55 11.03,12.8 11.62,12.8 0.89,0 1.36,-0.59 1.36,-1.71l-0.53 -2.6c-5.84,-20.76 -8.79,-36.92 -8.79,-48.48 0,-9.37 3.07,-14.03 9.14,-14.03z"/>
   <path class="fil1 str2" d="M713.99 2164.9c6.9,0 10.32,4.89 10.32,14.68 0,4.13 -0.53,10.74 -1.53,19.82l-3.31 28.01 -0.18 1.54c0,1.53 0.48,2.24 1.42,2.24 0.65,0 1.42,-0.65 2.24,-2.07 18.87,-29.13 32.49,-43.7 40.99,-43.7 1.94,0 3.77,0.71 5.54,2.19 1.71,1.41 2.6,3.3 2.6,5.6 0,2.29 -0.53,4.18 -1.65,5.66 -1.06,1.53 -7.26,6.43 -18.58,14.8 -11.27,8.31 -19.29,14.09 -24.01,17.34 -1.47,0.94 -2.24,1.83 -2.24,2.77 0,1.12 0.83,1.71 2.42,1.71 0.71,0 1.42,-0.12 2.24,-0.35 3.9,-0.89 11.68,-2.24 23.24,-3.95 11.56,-1.71 18.64,-2.6 21.17,-2.6 10.32,0 15.45,3.36 15.45,10.09 0,5.78 -3.3,8.66 -9.96,8.66 -2.83,0 -9.26,-0.76 -19.29,-2.24l-29.54 -4.48 -3.66 -0.71c-1.24,0 -1.89,0.48 -1.89,1.36 0,0.59 0.65,1.3 1.89,2.12 10.03,6.31 20.11,13.62 30.25,21.94 10.15,8.32 15.22,14.63 15.22,18.87 0,2.19 -0.94,4.07 -2.83,5.66 -1.95,1.6 -4.01,2.42 -6.37,2.42 -4.01,0 -8.85,-3.12 -14.51,-9.43 -5.66,-6.26 -13.86,-17.46 -24.59,-33.56 -1.12,-1.77 -2.01,-2.59 -2.6,-2.59 -0.76,0 -1.17,0.64 -1.17,2.06 0,0.65 0.11,1.65 0.35,2.89 2.89,20.17 4.3,36.68 4.3,49.48 0,7.78 -3,11.68 -9.02,11.68 -6.96,0 -10.44,-4.31 -10.44,-12.86 0,-5.19 1.01,-13.56 3.01,-25.12 2,-11.62 3.71,-19.94 5.13,-25.01l0.35 -1c0,-1.3 -0.58,-1.95 -1.77,-1.95l-1.18 1.06c-6.6,10.15 -14.21,20.47 -22.88,31.03 -8.72,10.55 -14.8,15.8 -18.22,15.8 -2.42,0 -4.42,-0.94 -5.96,-2.77 -1.59,-1.83 -2.36,-3.72 -2.36,-5.72 0,-2.42 0.59,-4.43 1.71,-6.14 1.18,-1.65 5.9,-6.07 14.22,-13.21 8.26,-7.13 16.04,-13.03 23.29,-17.75 4.01,-2.65 6.08,-4.36 6.08,-5.01 0,-0.71 -0.47,-1.06 -1.42,-1.06l-1.53 0.18c-2.18,0.47 -10.09,1.82 -23.65,4.12 -13.62,2.3 -22.29,3.48 -26.07,3.48 -8.78,0 -13.15,-3.3 -13.15,-9.96 0,-6.31 4.25,-9.5 12.68,-9.5 4.72,0 11.74,0.77 21.05,2.24l27.13 4.31 3.6 0.88c1.3,0 1.89,-0.47 1.89,-1.41 0,-0.65 -1.3,-1.89 -3.95,-3.6 -1.95,-1.3 -5.19,-3.6 -9.67,-6.9 -10.15,-7.61 -18.82,-13.92 -26.01,-18.93 -7.2,-5.01 -10.8,-9.79 -10.8,-14.27 0,-2.3 0.95,-4.31 2.78,-5.9 1.88,-1.59 3.89,-2.42 6.07,-2.42 3.01,0 6.78,2.19 11.21,6.49 4.48,4.3 12.26,13.33 23.35,27.01 7.14,8.55 11.03,12.8 11.62,12.8 0.88,0 1.36,-0.59 1.36,-1.71l-0.54 -2.6c-5.83,-20.76 -8.78,-36.92 -8.78,-48.48 0,-9.37 3.06,-14.03 9.14,-14.03z"/>
   <path class="fil2 str3" d="M853.91 2125.94c-313.57,-349.97 -322.74,-878.58 -21.52,-1239.34 333.72,-399.67 926.65,-451.81 1324.35,-116.45 397.7,335.35 449.57,931.21 115.85,1330.89"/>
   <path class="fil1" d="M395.23 1824.95l28.99 92.23 153.26 -48.16c13.27,-4.18 21.18,-8.49 23.66,-12.96 2.53,-4.49 2.01,-13 -1.47,-25.48l5.46 -1.71 26.9 85.6 -5.45 1.71c-4.25,-12.13 -8.69,-19.35 -13.35,-21.64 -4.6,-2.31 -13.57,-1.37 -26.85,2.8l-127.52 40.08c-13.28,4.17 -21.17,8.53 -23.63,13.05 -2.51,4.55 -2.01,13.01 1.43,25.39l-5.45 1.71 -64.78 -206.15 5.45 -1.72c4.26,12.13 8.69,19.34 13.34,21.63 4.61,2.31 13.58,1.37 26.85,-2.8l127.52 -40.07c13.28,-4.18 21.17,-8.54 23.63,-13.06 2.52,-4.55 2.02,-13 -1.43,-25.38l5.45 -1.71 26.91 85.6 -5.47 1.71c-4.25,-12.13 -8.66,-19.31 -13.23,-21.68 -4.62,-2.3 -13.57,-1.36 -26.96,2.84l-153.26 48.17zm37.34 -139.36l-21.01 -41.84 -0.49 -5.82 32.8 -2.73c-12.94,-6.27 -22.26,-12.84 -27.83,-19.77 -5.56,-6.94 -8.69,-14.45 -9.36,-22.58 -1.19,-14.17 3.37,-26.43 13.71,-36.81 12.65,-12.72 29.88,-19.98 51.7,-21.8 24.42,-2.03 45.16,3.27 62.29,15.9 14.04,10.41 21.79,24.34 23.24,41.76 0.63,7.61 0.12,14.26 -1.57,20 -1.2,4.22 -3.87,9.09 -8.08,14.63l43.14 -3.6c9.74,-0.81 15.87,-1.9 18.41,-3.33 2.54,-1.38 4.47,-3.65 5.81,-6.72 1.3,-3.02 1.63,-8.43 0.99,-16.14l5.7 -0.48 6.17 73.99 -5.7 0.47 -0.33 -3.88c-0.36,-5.67 -1.82,-10.42 -4.42,-14.21 -1.32,-1.9 -3.24,-3.28 -5.86,-4.11 -2.58,-0.9 -9.05,-0.89 -19.29,-0.04l-134.47 11.2c-9.06,0.76 -14.79,1.66 -17.14,2.65 -2.41,1.05 -4.14,2.51 -5.21,4.4 -1.06,1.88 -1.5,4.34 -1.24,7.45 0.21,2.41 1.2,5.5 2.94,9.16l-4.9 2.25zm20.48 -51.16l52.94 -4.41c11.5,-0.96 19,-2.06 22.51,-3.25 5.89,-1.97 10.87,-5.93 14.94,-11.86 4.07,-6 5.75,-13.27 5.04,-21.77 -0.85,-10.28 -5.56,-18.25 -14.16,-23.92 -11.23,-7.46 -26.4,-10.37 -45.49,-8.78 -21.67,1.8 -37.99,7.92 -48.86,18.33 -7.52,7.23 -10.87,15.38 -10.13,24.41 0.41,4.93 2.02,9.71 4.91,14.33 2.21,3.51 8.25,9.19 18.3,16.92zm-123.48 -202.18c0.21,-4.26 1.93,-7.86 5.09,-10.76 3.23,-2.85 7,-4.18 11.28,-3.96 4.34,0.22 8.01,1.93 10.91,5.08 2.98,3.21 4.32,6.97 4.1,11.23 -0.22,4.31 -1.93,7.96 -5.21,10.86 -3.23,2.95 -7.05,4.28 -11.38,4.06 -4.28,-0.22 -7.91,-1.92 -10.82,-5.08 -2.86,-3.2 -4.2,-7.02 -3.97,-11.43zm74.84 -8.92l114.14 5.79c8.84,0.45 14.73,0.12 17.7,-1.04 3.03,-1.11 5.3,-2.9 6.85,-5.35 1.55,-2.46 2.52,-7.04 2.86,-13.73l5.72 0.29 -3.48 68.47 -5.72 -0.29c0.35,-6.83 -0.09,-11.49 -1.3,-13.87 -1.2,-2.43 -3.32,-4.4 -6.32,-5.96 -2.99,-1.53 -8.89,-2.52 -17.6,-2.96l-54.86 -2.78c-15.27,-0.77 -25.18,-0.8 -29.76,-0.13 -3.33,0.56 -5.64,1.55 -7,3.07 -1.39,1.45 -2.14,3.53 -2.27,6.15 -0.15,2.9 0.47,6.41 1.79,10.59l-5.82 1.86 -15.28 -43.32 0.35 -6.79zm55.77 -78.72l-43.79 -7.61 1.13 -6.54c2.04,-1.51 3.22,-3.39 3.61,-5.62 0.29,-1.71 0.17,-5.64 -0.48,-11.68 -1.11,-10.08 -1.16,-18.16 -0.09,-24.28 2.32,-13.33 7.33,-23.95 15.1,-31.84 7.76,-7.9 16.83,-10.92 27.11,-9.14 15.74,2.74 25.08,16.66 28.09,41.71 10.61,-26.75 26.11,-38.37 46.49,-34.83 10.69,1.86 19.4,7.97 26.04,18.31 6.64,10.35 8.5,24.03 5.53,41.05 -1.92,11.1 -5.61,20.56 -11.05,28.33 -5.43,7.76 -13.76,15.83 -24.92,24.1l-3.25 -4.74c15.81,-14.35 24.99,-28.89 27.59,-43.78 1.47,-8.51 -0.23,-15.97 -5.17,-22.43 -4.9,-6.47 -12.03,-10.55 -21.37,-12.17 -20.44,-3.56 -33.53,7.53 -39.29,33.25l-8.77 -1.52c2.13,-12.25 0.4,-21.68 -5.16,-28.31 -5.62,-6.64 -12.12,-10.61 -19.63,-11.92 -6.62,-1.15 -12.83,0.24 -18.6,4.09 -5.78,3.86 -9.37,9.7 -10.73,17.54 -3.15,18.1 7.7,32.33 32.53,42.74l-0.92 5.29zm84.95 -240.28c13.9,-22.34 29.8,-30.28 47.65,-23.77 12.18,4.45 19.49,12.83 21.83,25.12 2.37,12.3 0.26,27.5 -6.32,45.56l-23.89 65.5 -5.38 -1.96c3.13,-8.56 3.45,-14.55 1.06,-18.01 -2.47,-3.42 -9.06,-7.11 -19.85,-11.05l-70.99 -25.9c-10.54,-3.84 -16.94,-5.62 -19.21,-5.26 -2.19,0.32 -4.47,1.29 -6.75,2.92 -2.31,1.56 -4.69,5.74 -7.15,12.47l-5.36 -1.96 22.33 -61.19c4.31,-11.83 8.73,-21.03 13.22,-27.63 4.52,-6.65 10.32,-11.31 17.45,-14.03 7.15,-2.73 14.6,-2.63 22.3,0.18 15.12,5.51 21.47,18.52 19.06,39.01zm-18.94 41.74c1.66,-4.22 2.64,-6.78 2.97,-7.67 4.85,-13.3 5.82,-23.83 2.9,-31.61 -2.96,-7.76 -8.05,-12.97 -15.3,-15.62 -8.41,-3.06 -15.62,-2.27 -21.58,2.33 -5.98,4.66 -11.37,13.56 -16.19,26.77l-2.76 7.57 49.96 18.23zm62.24 22.7c3.31,-4.29 6.2,-9.73 8.63,-16.41 4.21,-11.52 4.8,-21 1.76,-28.44 -2.98,-7.42 -8.51,-12.64 -16.46,-15.54 -8.95,-3.27 -17.13,-2.16 -24.55,3.37 -7.43,5.53 -13.48,14.7 -18.17,27.56 -1.16,3.17 -2.31,6.67 -3.46,10.41l52.25 19.05zm44.47 -179.83l-30.98 -88.92c-6.95,-3.84 -12.4,-5.33 -16.53,-4.46 -4.06,0.86 -7.86,4.18 -11.42,10.03l-4.92 -2.89 33.44 -56.94 4.92 2.89c-3.49,5.95 -5.24,10.29 -5.21,13.06 -0.01,2.74 0.55,5.22 1.69,7.47 1.11,2.17 6.62,6.2 16.47,11.99l65.15 38.27c9.45,5.55 15.4,8.37 17.78,8.49 2.41,0.07 4.91,-0.53 7.56,-1.79 2.6,-1.28 5.7,-5.02 9.35,-11.24l4.94 2.9 -34.72 59.11 -4.94 -2.89c4.32,-7.36 5.86,-13.11 4.64,-17.18 -1.27,-4.11 -7.12,-9.2 -17.57,-15.34l-58.04 -34.09 30.99 88.93c7.63,4.24 13.46,6.25 17.48,5.98 3.98,-0.29 7.91,-3.65 11.79,-10.05l4.92 2.89 -33.11 56.39 -4.94 -2.89c4.64,-7.9 6.17,-13.84 4.61,-17.75 -1.61,-3.95 -7.45,-8.84 -17.54,-14.77l-65.2 -38.3c-9.58,-5.62 -15.53,-8.44 -17.83,-8.5 -2.36,-0.05 -4.8,0.54 -7.37,1.77 -2.61,1.22 -5.76,4.99 -9.46,11.3l-4.92 -2.9 34.71 -59.1 4.93 2.89c-3.49,5.94 -5.25,10.29 -5.22,13.06 -0.01,2.74 0.56,5.21 1.7,7.47 1.11,2.17 6.6,6.2 16.46,11.99l56.39 33.12zm112.48 -109.16l-4.09 -4.01c5.97,-6.09 8.86,-11.29 8.66,-15.54 -0.23,-4.3 -4.68,-10.65 -13.33,-19.14l-53.93 -52.92c-7.94,-7.79 -13.07,-12 -15.28,-12.62 -2.25,-0.58 -4.78,-0.63 -7.58,-0.06 -2.82,0.55 -6.79,3.44 -11.91,8.67l-4.08 -4 48.01 -48.93 4.08 3.99c-4.83,4.93 -7.59,8.72 -8.23,11.41 -0.66,2.66 -0.71,5.19 -0.17,7.66 0.56,2.38 4.92,7.62 13.08,15.62l55.97 54.92c6.99,6.86 11.8,10.33 14.35,10.39 2.54,0.06 7.34,-3.49 14.32,-10.59l11.69 -11.92c4.61,-4.69 7.36,-8.03 8.24,-10.05 0.87,-2.03 0.89,-3.93 0.04,-5.71 -0.85,-1.8 -4.99,-6.32 -12.41,-13.59l-53.78 -52.77c-7.86,-7.71 -12.95,-11.89 -15.24,-12.57 -2.31,-0.67 -4.89,-0.68 -7.68,-0.04 -2.79,0.67 -6.71,3.52 -11.77,8.67l-4.08 -4 46.25 -47.13 4.07 4c-3.83,4.06 -6.06,7.69 -6.7,10.84 -0.62,3.14 -0.29,5.97 1.08,8.43 1.33,2.49 5.35,7.01 11.99,13.53l57.35 56.26c6.37,6.26 10.77,9.34 13.24,9.32 2.43,-0.06 6.79,-3.29 13.09,-9.72l12.91 -13.16c6.87,-6.99 9.86,-11.56 9.03,-13.73 -0.89,-2.12 -5.17,-6.97 -12.84,-14.5l-54.42 -53.4c-7.94,-7.79 -13.07,-12 -15.27,-12.62 -2.24,-0.59 -4.78,-0.64 -7.58,-0.06 -2.82,0.54 -6.79,3.44 -11.92,8.67l-4.08 -4 48.01 -48.94 4.08 4c-4.9,5 -7.69,8.83 -8.3,11.48 -0.62,2.62 -0.64,5.11 -0.08,7.58 0.54,2.38 4.9,7.62 13.06,15.62l47.93 47.03c9.89,9.71 16.31,15.49 19.21,17.23 2.93,1.76 5.92,2.27 9.04,1.42 3.13,-0.84 7.32,-3.75 12.51,-8.75l32.19 31.58 -3.76 3.84c-9.66,-8.45 -19.41,-12.49 -29.23,-12.09 -9.81,0.41 -21.37,7.44 -34.71,21.04l-121.03 123.36zm167.56 -276.4c11.64,17.5 25.05,28.3 40.25,32.5 15.16,4.15 28.55,2.35 40.09,-5.41 7.64,-5.14 12.91,-11.74 15.76,-19.78 2.88,-7.99 2.7,-18.53 -0.43,-31.48l5.68 -0.05c6.17,13.06 8.22,27.31 6.07,42.72 -2.13,15.41 -9.68,27.49 -22.61,36.2 -14.07,9.46 -29.83,12.07 -47.24,7.78 -17.42,-4.29 -32.39,-15.71 -44.89,-34.29 -13.52,-20.1 -18.94,-39.29 -16.23,-57.44 2.68,-18.18 11.78,-32.48 27.3,-42.91 13.1,-8.81 26.82,-11.72 41.11,-8.7 14.28,3.02 26.34,11.81 36.14,26.39l-81 54.47zm-4.96 -7.37l54.26 -36.5c-5.51,-7.25 -9.96,-11.98 -13.38,-14.14 -5.36,-3.35 -11.1,-4.98 -17.16,-4.85 -6.06,0.05 -11.38,1.65 -16.02,4.77 -7.08,4.76 -11.55,11.79 -13.42,21.08 -1.87,9.29 0.06,19.15 5.72,29.64zm305.84 -59.26l2.21 5.28 -82.78 34.61 -2.21 -5.28 6.85 -2.86c8.01,-3.35 12.82,-8.11 14.53,-14.27 0.98,-4.03 -0.96,-11.82 -5.81,-23.44l-52.55 -125.67c-4.1,-9.8 -7.45,-16.03 -9.97,-18.65 -1.97,-1.99 -4.78,-3.22 -8.45,-3.69 -5.14,-0.55 -9.98,0.15 -14.55,2.06l-6.84 2.86 -2.2 -5.26 82.78 -34.62 2.2 5.27 -6.95 2.91c-7.87,3.29 -12.63,8.03 -14.28,14.17 -1.09,4.07 0.81,11.88 5.66,23.5l52.55 125.66c4.1,9.82 7.44,16.05 9.97,18.66 1.92,2.01 4.77,3.23 8.54,3.66 5.05,0.59 9.79,-0.09 14.35,-1.99l6.95 -2.91zm126.2 -66.75l21.24 -112.04 46.61 -9.93 1.19 5.58c-6.85,1.46 -11.29,3.11 -13.25,5 -1.98,1.83 -3.37,3.9 -4.28,6.26 -0.85,2.29 -0.11,9.07 2.27,20.24l15.74 73.91c2.05,9.62 3.83,15.68 5.41,18.27 1.53,2.6 3.99,4.3 7.22,5.07 3.29,0.75 8.02,0.5 14.14,-0.81l1.2 5.6 -66.44 14.15 -1.19 -5.59c8.09,-1.73 13.17,-4.42 15.28,-8.13 2.08,-3.63 1.89,-11.43 -0.63,-23.23l-17.84 -83.74 -24.04 126.75 -5.26 1.12 -74.84 -105.69 17.84 83.74c2.04,9.58 3.89,15.68 5.45,18.27 1.63,2.58 4.03,4.22 7.27,5.05 3.23,0.77 7.92,0.53 14.05,-0.78l1.19 5.59 -52.83 11.26 -1.2 -5.59c8.96,-1.91 14.37,-4.79 16.2,-8.59 1.82,-3.85 1.5,-11.46 -0.94,-22.9l-15.74 -73.91c-2.32,-10.87 -4.27,-17.21 -5.78,-18.95 -1.54,-1.73 -3.63,-3.17 -6.27,-4.23 -2.66,-1.11 -7.57,-0.89 -14.72,0.64l-1.2 -5.59 48.35 -10.3 65.8 93.5zm149.47 -107.68l-11.6 -45.22c-3.29,-12.51 -5.06,-20.99 -5.35,-25.42 -0.44,-6.6 0.63,-11.44 3.11,-14.63 2.47,-3.18 6.07,-4.9 10.74,-5.21 4.62,-0.3 8.61,0.98 11.85,3.8 3.26,2.85 5.04,6.77 5.36,11.68 0.25,3.86 -0.45,13.29 -2.16,28.41l-5.33 46.16 -6.62 0.43zm217.22 -10.62l-0.46 5.69c-6.36,-0.51 -11.14,0.01 -14.34,1.5 -3.13,1.55 -5.31,3.61 -6.46,6.22 -1.12,2.62 -2.07,8.65 -2.84,18.09l-6.09 75.32c-0.73,8.97 -0.79,14.9 -0.24,17.82 0.62,2.91 2.42,5.4 5.41,7.5 2.96,2.09 7.66,3.42 14.02,3.94l-0.46 5.7 -68.34 -5.53 0.46 -5.7c8.5,0.69 14.35,-0.42 17.49,-3.3 3.14,-2.94 5.17,-10.42 6.15,-22.5l2.49 -30.85 -6.36 -0.36c-0.89,-0.07 -2.57,-0.26 -4.92,-0.55l-50.26 60.43 -34.81 -2.81 0.46 -5.7c5.15,0.41 8.78,0.02 10.89,-1.24 2.11,-1.21 6.15,-5.5 12.23,-12.82l36.68 -44.12c-22.89,-10.13 -33.67,-23.74 -32.3,-40.73 0.78,-9.6 5.7,-17.59 14.72,-23.97 9.03,-6.38 23.8,-8.75 44.21,-7.1l62.67 5.07zm-47.87 8.02c-3.9,-1.43 -7.63,-2.31 -11.21,-2.6 -10.34,-0.84 -18.27,1.12 -23.82,5.82 -5.5,4.76 -8.58,10.67 -9.15,17.78 -0.74,9.08 2.28,16.86 9.09,23.41 6.77,6.55 15.65,10.29 26.73,11.18 1.1,0.09 2.43,0.1 3.86,0.01l4.5 -55.6zm344.55 12.08l-91.5 -31.21 -51.87 152.05c-4.5,13.17 -5.7,22.1 -3.56,26.74 2.13,4.7 9.29,9.32 21.4,13.89l-1.84 5.42 -84.92 -28.97 1.84 -5.42c12.3,3.75 20.74,4.46 25.35,2.06 4.58,-2.35 9.13,-10.14 13.63,-23.31l43.16 -126.51c4.48,-13.17 5.65,-22.11 3.45,-26.77 -2.18,-4.72 -9.29,-9.32 -21.31,-13.87l1.85 -5.41 204.52 69.77 -1.85 5.41c-12.29,-3.74 -20.73,-4.44 -25.33,-2.04 -4.58,2.34 -9.14,10.13 -13.63,23.3l-43.15 126.51c-4.5,13.17 -5.65,22.12 -3.47,26.78 2.18,4.71 9.29,9.31 21.31,13.86l-1.84 5.41 -84.92 -28.97 1.84 -5.41c12.3,3.75 20.69,4.43 25.3,2.15 4.59,-2.35 9.14,-10.13 13.68,-23.41l51.86 -152.05zm167.2 147.8c18,11.63 28,27.79 30.01,48.55 1.69,17.67 -2.37,34.13 -12.19,49.33 -6.89,10.67 -16.44,19.82 -28.59,27.47 -12.15,7.64 -24.51,11.37 -37.04,11.15 -12.57,-0.24 -24.3,-3.91 -35.27,-11 -17.91,-11.57 -27.53,-27.93 -28.81,-49.04 -1.08,-17.83 3.18,-34.23 12.89,-49.26 7.06,-10.93 16.8,-20.08 29.18,-27.39 12.37,-7.32 24.64,-10.72 36.83,-10.16 12.13,0.53 23.13,3.98 32.99,10.35zm-9.53 5.94c-4.56,-2.95 -10.05,-4.54 -16.44,-4.83 -6.39,-0.22 -13.23,2.11 -20.47,7.13 -7.29,4.99 -14.4,12.88 -21.34,23.64 -11.2,17.32 -17.41,34.48 -18.68,51.49 -1.26,17.01 3.75,29.13 14.99,36.39 8.36,5.4 17.49,6.4 27.41,2.97 9.92,-3.41 20.36,-13.55 31.27,-30.44 13.67,-21.16 19.86,-40.73 18.62,-58.72 -0.72,-12.25 -5.86,-21.49 -15.36,-27.63zm152.6 159.91c29.92,-11.6 54.47,-7.04 73.52,13.56 13.37,14.46 18.83,31.28 16.5,50.5 -2.36,19.2 -10.5,35.26 -24.49,48.19 -14.41,13.33 -31.8,20.79 -52.21,22.4 -20.35,1.61 -37.93,-5.53 -52.58,-21.38 -14.98,-16.19 -19.63,-34.71 -14.01,-55.61 5.62,-20.89 18.08,-40.3 37.38,-58.16 15,-13.86 31.06,-24.63 48.07,-32.27 17.1,-7.63 31.07,-12.01 41.94,-13.1 10.92,-1.14 20.8,0.12 29.66,3.76 8.81,3.62 20.73,13.4 35.8,29.36 10.85,11.43 17.65,18.1 20.42,20.07 2.79,1.93 6.42,2.8 10.98,2.67l4.08 4.41c-9.83,4.42 -17.97,6.37 -24.49,5.79 -6.5,-0.57 -12.19,-2.35 -17.07,-5.44 -4.92,-3.06 -12.34,-9.67 -22.37,-19.91 -10.82,-11.07 -18.9,-18.09 -24.3,-21.2 -5.4,-3.04 -13,-4.4 -22.69,-4.12 -9.76,0.28 -20.19,3.19 -31.37,8.64 -11.14,5.49 -22.08,12.76 -32.77,21.84zm62.39 16.97c-7.03,-7.61 -15.91,-10.89 -26.71,-9.94 -10.79,1.02 -22.96,7.75 -36.44,20.21 -18.29,16.92 -29.16,33 -32.52,48.23 -3.4,15.26 -1.13,27.14 6.77,35.69 7.3,7.88 16.32,11.02 27.07,9.47 10.75,-1.55 23.31,-9.01 37.72,-22.34 15.35,-14.19 25.38,-28.91 30.08,-44.24 4.72,-15.33 2.72,-27.69 -5.97,-37.08zm40.95 237.68c-17.44,-5.68 -27.99,-9.55 -31.52,-11.67 -5.25,-3.13 -9.66,-7.27 -13.17,-12.46 -5.49,-8.11 -7.19,-16.68 -5.16,-25.68 2.03,-9 7.57,-16.57 16.64,-22.71 5.75,-3.88 11.61,-6 17.5,-6.24 8.19,-0.45 17.78,1.9 28.78,7.05 11.01,5.21 26.98,15.31 47.95,30.44l4.59 -3.11c11.71,-7.92 18.49,-15.18 20.36,-21.85 1.83,-6.65 0.39,-13.49 -4.39,-20.55 -3.6,-5.33 -7.93,-8.62 -12.99,-9.78 -5.08,-1.27 -9.49,-0.63 -13.27,1.92l-7.27 5.3c-3.95,2.67 -7.69,3.75 -11.19,3.19 -3.51,-0.55 -6.36,-2.5 -8.55,-5.73 -2.15,-3.19 -2.83,-6.54 -1.94,-10.06 0.87,-3.52 3.26,-6.6 7.12,-9.21 7.37,-4.98 16.69,-5.82 27.94,-2.5 11.26,3.32 21.47,11.8 30.65,25.37 7.05,10.41 11.05,20.11 12.05,29.15 0.76,6.8 -0.89,13.32 -4.92,19.54 -2.6,4 -9.62,9.88 -20.97,17.56l-39.88 26.98c-11.19,7.56 -17.92,12.43 -20.12,14.55 -2.25,2.16 -3.43,3.99 -3.66,5.54 -0.16,1.57 0.17,2.99 1.03,4.26 0.94,1.39 2.04,2.36 3.32,3.03 2.34,1.01 7.8,2.35 16.4,4.04l-7.19 4.86c-19.42,-0.86 -32.06,-5.65 -37.96,-14.38 -2.83,-4.18 -3.65,-8.53 -2.44,-12.96 1.24,-4.47 5.34,-9.09 12.26,-13.89zm8.37 -5.66l44.75 -30.27c-13.9,-9.49 -23.16,-15.36 -27.88,-17.71 -8.33,-4.21 -15.51,-6.41 -21.61,-6.54 -6.09,-0.13 -11.54,1.45 -16.41,4.74 -6.18,4.18 -10.02,9.45 -11.59,15.91 -1.6,6.43 -0.73,12.06 2.52,16.86 4.4,6.5 14.48,12.14 30.22,17.01zm142.38 23l52.63 110.36 -32.02 22.1 -3 -6.27c6.46,-4.43 10.95,-8.91 13.51,-13.26 2.56,-4.44 3.7,-8.59 3.28,-12.54 -0.4,-3.9 -2.5,-9.9 -6.35,-17.97l-5.33 -11.18 -89.12 42.5c-9.5,4.54 -15.29,8 -17.33,10.38 -2.02,2.41 -2.81,5.06 -2.42,8.08 0.42,2.96 2.68,9.18 6.78,18.53l-5.16 2.46 -33.05 -69.29 5.17 -2.46c4.46,8.84 8.62,13.91 12.57,15.18 3.95,1.27 11.39,-0.7 22.43,-5.97l89.12 -42.5 -5.44 -11.41c-3.81,-7.98 -6.9,-13.22 -9.25,-15.6 -2.34,-2.44 -5.99,-4.08 -10.95,-4.99 -4.9,-0.93 -11.69,-0.43 -20.27,1.39l-2.98 -6.27 37.18 -11.27zm26.31 238.14l4.7 16.9c10.45,40.48 3.06,63.98 -22.13,70.49 -11.74,3.03 -22.4,0.5 -31.97,-7.57 -9.63,-8.07 -16.85,-21.43 -21.66,-40.04l-16.94 -65.67 5.53 -1.43c2.29,8.87 5.4,14.16 9.27,15.82 3.93,1.66 11.52,1.01 22.85,-1.92l73.16 -18.89c10.76,-2.78 17.01,-5 18.69,-6.57 1.66,-1.62 3.01,-3.77 3.96,-6.46 0.99,-2.7 0.56,-7.6 -1.27,-14.68l5.52 -1.42 18.49 71.57 -5.53 1.43c-2.53,-9.79 -4.67,-15.71 -6.42,-17.65 -1.77,-1.99 -3.75,-3.49 -5.97,-4.5 -2.28,-0.98 -9.29,0.01 -21.07,3.05l-29.21 7.54zm-64.3 16.6c-0.03,5.61 0.61,11.05 1.97,16.3 2.57,9.94 7.3,17.31 14.19,22.17 6.93,4.79 14.44,6.17 22.54,4.08 19.2,-4.96 25.37,-20.69 18.54,-47.15 -0.59,-2.29 -1.47,-5.44 -2.62,-9.5l-54.62 14.1zm31.17 268.52l-4.52 -41.41c17.41,-14.92 35.45,-28.65 54.04,-41.29 4.31,-2.95 7.43,-5.51 9.42,-7.75 1.99,-2.23 2.81,-5.07 2.42,-8.58 -0.13,-1.2 -0.45,-3.13 -0.94,-5.78l-37.89 4.14c-10.21,1.12 -16.61,2.4 -19.31,3.91 -2.72,1.47 -4.49,3.78 -5.41,7 -0.89,3.17 -0.95,8.42 -0.15,15.65l-5.69 0.62 -7.69 -70.35 5.68 -0.62c1,9.1 3.33,14.79 6.91,16.99 3.65,2.2 11.25,2.64 22.89,1.37l75.11 -8.21c11.06,-1.21 17.57,-2.51 19.44,-3.82 1.87,-1.37 3.52,-3.3 4.84,-5.83 1.38,-2.53 1.65,-7.43 0.85,-14.7l5.68 -0.63 7.68 70.36 -5.67 0.62c-0.92,-8.49 -2.14,-13.65 -3.56,-15.51 -1.48,-1.85 -3.19,-3.47 -5.16,-4.89 -2.02,-1.42 -9.11,-1.5 -21.32,-0.17l-27.77 3.04c0.05,2.38 0.12,3.96 0.21,4.8 0.67,6.23 3.1,11.89 7.22,16.96 4.13,5.1 12.18,9.15 24.17,12.18 11.32,2.79 19,5.29 23.07,7.49 4.13,2.2 7.57,5.48 10.51,9.88 2.92,4.39 4.66,9.12 5.22,14.2 0.61,5.55 -0.24,10.09 -2.56,13.63 -2.33,3.59 -5.67,5.6 -9.99,6.07 -3.58,0.39 -6.74,-0.43 -9.52,-2.5 -2.79,-2.08 -4.41,-5.25 -4.87,-9.43 -0.25,-2.26 0.08,-5.1 0.97,-8.64 1.11,-4.46 1.54,-7.79 1.29,-10.05 -0.51,-4.71 -4.97,-8.13 -13.48,-10.34 -9.68,-2.43 -15.95,-4.34 -18.82,-5.67 -2.91,-1.38 -6.82,-4.08 -11.85,-8.18 -0.62,3.24 -2.66,6.95 -6.08,11.14 -3.44,4.14 -13.57,12.25 -30.35,24.35 -13.42,9.62 -21.86,16.69 -25.36,21.15 -3.52,4.47 -4.92,10.55 -4.29,18.21l-5.37 0.59zm138.24 104.79c-1.71,21.37 -11.2,37.83 -28.54,49.44 -14.76,9.85 -31.17,14.08 -49.21,12.63 -12.67,-1.01 -25.24,-5.08 -37.74,-12.15 -12.49,-7.08 -21.63,-16.21 -27.37,-27.34 -5.74,-11.19 -8.07,-23.26 -7.03,-36.27 1.7,-21.26 11.56,-37.48 29.54,-48.62 15.19,-9.39 31.65,-13.41 49.48,-11.99 12.98,1.04 25.64,5.28 37.95,12.72 12.31,7.42 21.12,16.63 26.4,27.63 5.29,10.93 7.46,22.25 6.52,33.95zm-9.75 -5.58c0.44,-5.41 -0.76,-11 -3.54,-16.76 -2.83,-5.73 -8.11,-10.65 -15.98,-14.65 -7.85,-4.06 -18.16,-6.58 -30.92,-7.6 -20.57,-1.65 -38.62,1.02 -54.2,7.96 -15.58,6.94 -23.87,17.1 -24.94,30.44 -0.8,9.92 2.66,18.43 10.37,25.55 7.71,7.11 21.58,11.5 41.62,13.11 25.12,2.01 45.28,-1.82 60.54,-11.43 10.44,-6.45 16.15,-15.34 17.05,-26.62zm-100.27 216.49c-12.18,23.33 -27.44,32.44 -45.73,27.3 -12.49,-3.51 -20.4,-11.32 -23.66,-23.4 -3.29,-12.08 -2.35,-27.4 2.87,-45.91l18.87 -67.11 5.5 1.55c-2.46,8.76 -2.34,14.76 0.31,18.03 2.72,3.22 9.58,6.41 20.63,9.52l72.74 20.46c10.81,3.04 17.31,4.33 19.55,3.8 2.16,-0.48 4.35,-1.62 6.51,-3.42 2.2,-1.73 4.25,-6.07 6.19,-12.97l5.49 1.54 -17.63 62.71c-3.41,12.12 -7.13,21.62 -11.1,28.55 -4,6.97 -9.45,12.05 -16.35,15.31 -6.92,3.25 -14.36,3.72 -22.25,1.5 -15.5,-4.35 -22.8,-16.85 -21.94,-37.46zm15.73 -43.05c-1.34,4.33 -2.13,6.96 -2.38,7.87 -3.84,13.63 -4.01,24.2 -0.52,31.74 3.55,7.51 9.01,12.32 16.44,14.42 8.62,2.42 15.75,1.09 21.34,-3.95 5.62,-5.1 10.32,-14.39 14.12,-27.92l2.19 -7.76 -51.19 -14.4zm-63.78 -17.94c-2.97,4.53 -5.45,10.18 -7.37,17.02 -3.32,11.81 -3.19,21.3 0.4,28.49 3.52,7.18 9.44,11.96 17.58,14.25 9.18,2.59 17.25,0.86 24.23,-5.21 6.99,-6.08 12.33,-15.68 16.03,-28.86 0.92,-3.25 1.81,-6.82 2.66,-10.63l-53.53 -15.06zm135.37 246.95c-1.75,3.9 -4.65,6.63 -8.66,8.17 -4.03,1.49 -8.03,1.36 -11.95,-0.4 -3.96,-1.78 -6.75,-4.71 -8.31,-8.71 -1.61,-4.07 -1.5,-8.05 0.25,-11.94 1.78,-3.94 4.7,-6.72 8.81,-8.22 4.07,-1.58 8.12,-1.44 12.08,0.34 3.91,1.76 6.66,4.67 8.23,8.67 1.5,4.02 1.36,8.06 -0.45,12.09zm-72.97 -18.88l-104.24 -46.87c-8.07,-3.62 -13.67,-5.46 -16.87,-5.45 -3.23,-0.07 -5.99,0.77 -8.32,2.49 -2.33,1.73 -4.91,5.64 -7.66,11.75l-5.21 -2.35 28.11 -62.53 5.21 2.35c-2.8,6.24 -4.08,10.74 -3.82,13.4 0.24,2.7 1.51,5.3 3.72,7.85 2.24,2.51 7.37,5.57 15.33,9.15l50.1 22.52c13.95,6.27 23.17,9.89 27.68,10.94 3.31,0.68 5.82,0.6 7.64,-0.32 1.83,-0.85 3.27,-2.51 4.34,-4.9 1.2,-2.65 1.89,-6.15 2.18,-10.53l6.1 0.39 -1.5 45.91 -2.79 6.2z"/>
   <path id="_1" class="fil2 str4" d="M395.23 1824.95l28.99 92.23 153.26 -48.16c13.27,-4.18 21.18,-8.49 23.66,-12.96 2.53,-4.49 2.01,-13 -1.47,-25.48l5.46 -1.71 26.9 85.6 -5.45 1.71c-4.25,-12.13 -8.69,-19.35 -13.35,-21.64 -4.6,-2.31 -13.57,-1.37 -26.85,2.8l-127.52 40.08c-13.28,4.17 -21.17,8.53 -23.63,13.05 -2.51,4.55 -2.01,13.01 1.43,25.39l-5.45 1.71 -64.78 -206.15 5.45 -1.72c4.26,12.13 8.69,19.34 13.34,21.63 4.61,2.31 13.58,1.37 26.85,-2.8l127.52 -40.07c13.28,-4.18 21.17,-8.54 23.63,-13.06 2.52,-4.55 2.02,-13 -1.43,-25.38l5.45 -1.71 26.91 85.6 -5.47 1.71c-4.25,-12.13 -8.66,-19.31 -13.23,-21.68 -4.62,-2.3 -13.57,-1.36 -26.96,2.84l-153.26 48.17zm37.34 -139.36l-21.01 -41.84 -0.49 -5.82 32.8 -2.73c-12.94,-6.27 -22.26,-12.84 -27.83,-19.77 -5.56,-6.94 -8.69,-14.45 -9.36,-22.58 -1.19,-14.17 3.37,-26.43 13.71,-36.81 12.65,-12.72 29.88,-19.98 51.7,-21.8 24.42,-2.03 45.16,3.27 62.29,15.9 14.04,10.41 21.79,24.34 23.24,41.76 0.63,7.61 0.12,14.26 -1.57,20 -1.2,4.22 -3.87,9.09 -8.08,14.63l43.14 -3.6c9.74,-0.81 15.87,-1.9 18.41,-3.33 2.54,-1.38 4.47,-3.65 5.81,-6.72 1.3,-3.02 1.63,-8.43 0.99,-16.14l5.7 -0.48 6.17 73.99 -5.7 0.47 -0.33 -3.88c-0.36,-5.67 -1.82,-10.42 -4.42,-14.21 -1.32,-1.9 -3.24,-3.28 -5.86,-4.11 -2.58,-0.9 -9.05,-0.89 -19.29,-0.04l-134.47 11.2c-9.06,0.76 -14.79,1.66 -17.14,2.65 -2.41,1.05 -4.14,2.51 -5.21,4.4 -1.06,1.88 -1.5,4.34 -1.24,7.45 0.21,2.41 1.2,5.5 2.94,9.16l-4.9 2.25zm20.48 -51.16l52.94 -4.41c11.5,-0.96 19,-2.06 22.51,-3.25 5.89,-1.97 10.87,-5.93 14.94,-11.86 4.07,-6 5.75,-13.27 5.04,-21.77 -0.85,-10.28 -5.56,-18.25 -14.16,-23.92 -11.23,-7.46 -26.4,-10.37 -45.49,-8.78 -21.67,1.8 -37.99,7.92 -48.86,18.33 -7.52,7.23 -10.87,15.38 -10.13,24.41 0.41,4.93 2.02,9.71 4.91,14.33 2.21,3.51 8.25,9.19 18.3,16.92zm-123.48 -202.18c0.21,-4.26 1.93,-7.86 5.09,-10.76 3.23,-2.85 7,-4.18 11.28,-3.96 4.34,0.22 8.01,1.93 10.91,5.08 2.98,3.21 4.32,6.97 4.1,11.23 -0.22,4.31 -1.93,7.96 -5.21,10.86 -3.23,2.95 -7.05,4.28 -11.38,4.06 -4.28,-0.22 -7.91,-1.92 -10.82,-5.08 -2.86,-3.2 -4.2,-7.02 -3.97,-11.43zm74.84 -8.92l114.14 5.79c8.84,0.45 14.73,0.12 17.7,-1.04 3.03,-1.11 5.3,-2.9 6.85,-5.35 1.55,-2.46 2.52,-7.04 2.86,-13.73l5.72 0.29 -3.48 68.47 -5.72 -0.29c0.35,-6.83 -0.09,-11.49 -1.3,-13.87 -1.2,-2.43 -3.32,-4.4 -6.32,-5.96 -2.99,-1.53 -8.89,-2.52 -17.6,-2.96l-54.86 -2.78c-15.27,-0.77 -25.18,-0.8 -29.76,-0.13 -3.33,0.56 -5.64,1.55 -7,3.07 -1.39,1.45 -2.14,3.53 -2.27,6.15 -0.15,2.9 0.47,6.41 1.79,10.59l-5.82 1.86 -15.28 -43.32 0.35 -6.79zm55.77 -78.72l-43.79 -7.61 1.13 -6.54c2.04,-1.51 3.22,-3.39 3.61,-5.62 0.29,-1.71 0.17,-5.64 -0.48,-11.68 -1.11,-10.08 -1.16,-18.16 -0.09,-24.28 2.32,-13.33 7.33,-23.95 15.1,-31.84 7.76,-7.9 16.83,-10.92 27.11,-9.14 15.74,2.74 25.08,16.66 28.09,41.71 10.61,-26.75 26.11,-38.37 46.49,-34.83 10.69,1.86 19.4,7.97 26.04,18.31 6.64,10.35 8.5,24.03 5.53,41.05 -1.92,11.1 -5.61,20.56 -11.05,28.33 -5.43,7.76 -13.76,15.83 -24.92,24.1l-3.25 -4.74c15.81,-14.35 24.99,-28.89 27.59,-43.78 1.47,-8.51 -0.23,-15.97 -5.17,-22.43 -4.9,-6.47 -12.03,-10.55 -21.37,-12.17 -20.44,-3.56 -33.53,7.53 -39.29,33.25l-8.77 -1.52c2.13,-12.25 0.4,-21.68 -5.16,-28.31 -5.62,-6.64 -12.12,-10.61 -19.63,-11.92 -6.62,-1.15 -12.83,0.24 -18.6,4.09 -5.78,3.86 -9.37,9.7 -10.73,17.54 -3.15,18.1 7.7,32.33 32.53,42.74l-0.92 5.29zm84.95 -240.28c13.9,-22.34 29.8,-30.28 47.65,-23.77 12.18,4.45 19.49,12.83 21.83,25.12 2.37,12.3 0.26,27.5 -6.32,45.56l-23.89 65.5 -5.38 -1.96c3.13,-8.56 3.45,-14.55 1.06,-18.01 -2.47,-3.42 -9.06,-7.11 -19.85,-11.05l-70.99 -25.9c-10.54,-3.84 -16.94,-5.62 -19.21,-5.26 -2.19,0.32 -4.47,1.29 -6.75,2.92 -2.31,1.56 -4.69,5.74 -7.15,12.47l-5.36 -1.96 22.33 -61.19c4.31,-11.83 8.73,-21.03 13.22,-27.63 4.52,-6.65 10.32,-11.31 17.45,-14.03 7.15,-2.73 14.6,-2.63 22.3,0.18 15.12,5.51 21.47,18.52 19.06,39.01zm-18.94 41.74c1.66,-4.22 2.64,-6.78 2.97,-7.67 4.85,-13.3 5.82,-23.83 2.9,-31.61 -2.96,-7.76 -8.05,-12.97 -15.3,-15.62 -8.41,-3.06 -15.62,-2.27 -21.58,2.33 -5.98,4.66 -11.37,13.56 -16.19,26.77l-2.76 7.57 49.96 18.23zm62.24 22.7c3.31,-4.29 6.2,-9.73 8.63,-16.41 4.21,-11.52 4.8,-21 1.76,-28.44 -2.98,-7.42 -8.51,-12.64 -16.46,-15.54 -8.95,-3.27 -17.13,-2.16 -24.55,3.37 -7.43,5.53 -13.48,14.7 -18.17,27.56 -1.16,3.17 -2.31,6.67 -3.46,10.41l52.25 19.05zm44.47 -179.83l-30.98 -88.92c-6.95,-3.84 -12.4,-5.33 -16.53,-4.46 -4.06,0.86 -7.86,4.18 -11.42,10.03l-4.92 -2.89 33.44 -56.94 4.92 2.89c-3.49,5.95 -5.24,10.29 -5.21,13.06 -0.01,2.74 0.55,5.22 1.69,7.47 1.11,2.17 6.62,6.2 16.47,11.99l65.15 38.27c9.45,5.55 15.4,8.37 17.78,8.49 2.41,0.07 4.91,-0.53 7.56,-1.79 2.6,-1.28 5.7,-5.02 9.35,-11.24l4.94 2.9 -34.72 59.11 -4.94 -2.89c4.32,-7.36 5.86,-13.11 4.64,-17.18 -1.27,-4.11 -7.12,-9.2 -17.57,-15.34l-58.04 -34.09 30.99 88.93c7.63,4.24 13.46,6.25 17.48,5.98 3.98,-0.29 7.91,-3.65 11.79,-10.05l4.92 2.89 -33.11 56.39 -4.94 -2.89c4.64,-7.9 6.17,-13.84 4.61,-17.75 -1.61,-3.95 -7.45,-8.84 -17.54,-14.77l-65.2 -38.3c-9.58,-5.62 -15.53,-8.44 -17.83,-8.5 -2.36,-0.05 -4.8,0.54 -7.37,1.77 -2.61,1.22 -5.76,4.99 -9.46,11.3l-4.92 -2.9 34.71 -59.1 4.93 2.89c-3.49,5.94 -5.25,10.29 -5.22,13.06 -0.01,2.74 0.56,5.21 1.7,7.47 1.11,2.17 6.6,6.2 16.46,11.99l56.39 33.12zm112.48 -109.16l-4.09 -4.01c5.97,-6.09 8.86,-11.29 8.66,-15.54 -0.23,-4.3 -4.68,-10.65 -13.33,-19.14l-53.93 -52.92c-7.94,-7.79 -13.07,-12 -15.28,-12.62 -2.25,-0.58 -4.78,-0.63 -7.58,-0.06 -2.82,0.55 -6.79,3.44 -11.91,8.67l-4.08 -4 48.01 -48.93 4.08 3.99c-4.83,4.93 -7.59,8.72 -8.23,11.41 -0.66,2.66 -0.71,5.19 -0.17,7.66 0.56,2.38 4.92,7.62 13.08,15.62l55.97 54.92c6.99,6.86 11.8,10.33 14.35,10.39 2.54,0.06 7.34,-3.49 14.32,-10.59l11.69 -11.92c4.61,-4.69 7.36,-8.03 8.24,-10.05 0.87,-2.03 0.89,-3.93 0.04,-5.71 -0.85,-1.8 -4.99,-6.32 -12.41,-13.59l-53.78 -52.77c-7.86,-7.71 -12.95,-11.89 -15.24,-12.57 -2.31,-0.67 -4.89,-0.68 -7.68,-0.04 -2.79,0.67 -6.71,3.52 -11.77,8.67l-4.08 -4 46.25 -47.13 4.07 4c-3.83,4.06 -6.06,7.69 -6.7,10.84 -0.62,3.14 -0.29,5.97 1.08,8.43 1.33,2.49 5.35,7.01 11.99,13.53l57.35 56.26c6.37,6.26 10.77,9.34 13.24,9.32 2.43,-0.06 6.79,-3.29 13.09,-9.72l12.91 -13.16c6.87,-6.99 9.86,-11.56 9.03,-13.73 -0.89,-2.12 -5.17,-6.97 -12.84,-14.5l-54.42 -53.4c-7.94,-7.79 -13.07,-12 -15.27,-12.62 -2.24,-0.59 -4.78,-0.64 -7.58,-0.06 -2.82,0.54 -6.79,3.44 -11.92,8.67l-4.08 -4 48.01 -48.94 4.08 4c-4.9,5 -7.69,8.83 -8.3,11.48 -0.62,2.62 -0.64,5.11 -0.08,7.58 0.54,2.38 4.9,7.62 13.06,15.62l47.93 47.03c9.89,9.71 16.31,15.49 19.21,17.23 2.93,1.76 5.92,2.27 9.04,1.42 3.13,-0.84 7.32,-3.75 12.51,-8.75l32.19 31.58 -3.76 3.84c-9.66,-8.45 -19.41,-12.49 -29.23,-12.09 -9.81,0.41 -21.37,7.44 -34.71,21.04l-121.03 123.36zm167.56 -276.4c11.64,17.5 25.05,28.3 40.25,32.5 15.16,4.15 28.55,2.35 40.09,-5.41 7.64,-5.14 12.91,-11.74 15.76,-19.78 2.88,-7.99 2.7,-18.53 -0.43,-31.48l5.68 -0.05c6.17,13.06 8.22,27.31 6.07,42.72 -2.13,15.41 -9.68,27.49 -22.61,36.2 -14.07,9.46 -29.83,12.07 -47.24,7.78 -17.42,-4.29 -32.39,-15.71 -44.89,-34.29 -13.52,-20.1 -18.94,-39.29 -16.23,-57.44 2.68,-18.18 11.78,-32.48 27.3,-42.91 13.1,-8.81 26.82,-11.72 41.11,-8.7 14.28,3.02 26.34,11.81 36.14,26.39l-81 54.47zm-4.96 -7.37l54.26 -36.5c-5.51,-7.25 -9.96,-11.98 -13.38,-14.14 -5.36,-3.35 -11.1,-4.98 -17.16,-4.85 -6.06,0.05 -11.38,1.65 -16.02,4.77 -7.08,4.76 -11.55,11.79 -13.42,21.08 -1.87,9.29 0.06,19.15 5.72,29.64zm305.84 -59.26l2.21 5.28 -82.78 34.61 -2.21 -5.28 6.85 -2.86c8.01,-3.35 12.82,-8.11 14.53,-14.27 0.98,-4.03 -0.96,-11.82 -5.81,-23.44l-52.55 -125.67c-4.1,-9.8 -7.45,-16.03 -9.97,-18.65 -1.97,-1.99 -4.78,-3.22 -8.45,-3.69 -5.14,-0.55 -9.98,0.15 -14.55,2.06l-6.84 2.86 -2.2 -5.26 82.78 -34.62 2.2 5.27 -6.95 2.91c-7.87,3.29 -12.63,8.03 -14.28,14.17 -1.09,4.07 0.81,11.88 5.66,23.5l52.55 125.66c4.1,9.82 7.44,16.05 9.97,18.66 1.92,2.01 4.77,3.23 8.54,3.66 5.05,0.59 9.79,-0.09 14.35,-1.99l6.95 -2.91zm126.2 -66.75l21.24 -112.04 46.61 -9.93 1.19 5.58c-6.85,1.46 -11.29,3.11 -13.25,5 -1.98,1.83 -3.37,3.9 -4.28,6.26 -0.85,2.29 -0.11,9.07 2.27,20.24l15.74 73.91c2.05,9.62 3.83,15.68 5.41,18.27 1.53,2.6 3.99,4.3 7.22,5.07 3.29,0.75 8.02,0.5 14.14,-0.81l1.2 5.6 -66.44 14.15 -1.19 -5.59c8.09,-1.73 13.17,-4.42 15.28,-8.13 2.08,-3.63 1.89,-11.43 -0.63,-23.23l-17.84 -83.74 -24.04 126.75 -5.26 1.12 -74.84 -105.69 17.84 83.74c2.04,9.58 3.89,15.68 5.45,18.27 1.63,2.58 4.03,4.22 7.27,5.05 3.23,0.77 7.92,0.53 14.05,-0.78l1.19 5.59 -52.83 11.26 -1.2 -5.59c8.96,-1.91 14.37,-4.79 16.2,-8.59 1.82,-3.85 1.5,-11.46 -0.94,-22.9l-15.74 -73.91c-2.32,-10.87 -4.27,-17.21 -5.78,-18.95 -1.54,-1.73 -3.63,-3.17 -6.27,-4.23 -2.66,-1.11 -7.57,-0.89 -14.72,0.64l-1.2 -5.59 48.35 -10.3 65.8 93.5zm149.47 -107.68l-11.6 -45.22c-3.29,-12.51 -5.06,-20.99 -5.35,-25.42 -0.44,-6.6 0.63,-11.44 3.11,-14.63 2.47,-3.18 6.07,-4.9 10.74,-5.21 4.62,-0.3 8.61,0.98 11.85,3.8 3.26,2.85 5.04,6.77 5.36,11.68 0.25,3.86 -0.45,13.29 -2.16,28.41l-5.33 46.16 -6.62 0.43zm217.22 -10.62l-0.46 5.69c-6.36,-0.51 -11.14,0.01 -14.34,1.5 -3.13,1.55 -5.31,3.61 -6.46,6.22 -1.12,2.62 -2.07,8.65 -2.84,18.09l-6.09 75.32c-0.73,8.97 -0.79,14.9 -0.24,17.82 0.62,2.91 2.42,5.4 5.41,7.5 2.96,2.09 7.66,3.42 14.02,3.94l-0.46 5.7 -68.34 -5.53 0.46 -5.7c8.5,0.69 14.35,-0.42 17.49,-3.3 3.14,-2.94 5.17,-10.42 6.15,-22.5l2.49 -30.85 -6.36 -0.36c-0.89,-0.07 -2.57,-0.26 -4.92,-0.55l-50.26 60.43 -34.81 -2.81 0.46 -5.7c5.15,0.41 8.78,0.02 10.89,-1.24 2.11,-1.21 6.15,-5.5 12.23,-12.82l36.68 -44.12c-22.89,-10.13 -33.67,-23.74 -32.3,-40.73 0.78,-9.6 5.7,-17.59 14.72,-23.97 9.03,-6.38 23.8,-8.75 44.21,-7.1l62.67 5.07zm-47.87 8.02c-3.9,-1.43 -7.63,-2.31 -11.21,-2.6 -10.34,-0.84 -18.27,1.12 -23.82,5.82 -5.5,4.76 -8.58,10.67 -9.15,17.78 -0.74,9.08 2.28,16.86 9.09,23.41 6.77,6.55 15.65,10.29 26.73,11.18 1.1,0.09 2.43,0.1 3.86,0.01l4.5 -55.6zm344.55 12.08l-91.5 -31.21 -51.87 152.05c-4.5,13.17 -5.7,22.1 -3.56,26.74 2.13,4.7 9.29,9.32 21.4,13.89l-1.84 5.42 -84.92 -28.97 1.84 -5.42c12.3,3.75 20.74,4.46 25.35,2.06 4.58,-2.35 9.13,-10.14 13.63,-23.31l43.16 -126.51c4.48,-13.17 5.65,-22.11 3.45,-26.77 -2.18,-4.72 -9.29,-9.32 -21.31,-13.87l1.85 -5.41 204.52 69.77 -1.85 5.41c-12.29,-3.74 -20.73,-4.44 -25.33,-2.04 -4.58,2.34 -9.14,10.13 -13.63,23.3l-43.15 126.51c-4.5,13.17 -5.65,22.12 -3.47,26.78 2.18,4.71 9.29,9.31 21.31,13.86l-1.84 5.41 -84.92 -28.97 1.84 -5.41c12.3,3.75 20.69,4.43 25.3,2.15 4.59,-2.35 9.14,-10.13 13.68,-23.41l51.86 -152.05zm167.2 147.8c18,11.63 28,27.79 30.01,48.55 1.69,17.67 -2.37,34.13 -12.19,49.33 -6.89,10.67 -16.44,19.82 -28.59,27.47 -12.15,7.64 -24.51,11.37 -37.04,11.15 -12.57,-0.24 -24.3,-3.91 -35.27,-11 -17.91,-11.57 -27.53,-27.93 -28.81,-49.04 -1.08,-17.83 3.18,-34.23 12.89,-49.26 7.06,-10.93 16.8,-20.08 29.18,-27.39 12.37,-7.32 24.64,-10.72 36.83,-10.16 12.13,0.53 23.13,3.98 32.99,10.35zm-9.53 5.94c-4.56,-2.95 -10.05,-4.54 -16.44,-4.83 -6.39,-0.22 -13.23,2.11 -20.47,7.13 -7.29,4.99 -14.4,12.88 -21.34,23.64 -11.2,17.32 -17.41,34.48 -18.68,51.49 -1.26,17.01 3.75,29.13 14.99,36.39 8.36,5.4 17.49,6.4 27.41,2.97 9.92,-3.41 20.36,-13.55 31.27,-30.44 13.67,-21.16 19.86,-40.73 18.62,-58.72 -0.72,-12.25 -5.86,-21.49 -15.36,-27.63zm152.6 159.91c29.92,-11.6 54.47,-7.04 73.52,13.56 13.37,14.46 18.83,31.28 16.5,50.5 -2.36,19.2 -10.5,35.26 -24.49,48.19 -14.41,13.33 -31.8,20.79 -52.21,22.4 -20.35,1.61 -37.93,-5.53 -52.58,-21.38 -14.98,-16.19 -19.63,-34.71 -14.01,-55.61 5.62,-20.89 18.08,-40.3 37.38,-58.16 15,-13.86 31.06,-24.63 48.07,-32.27 17.1,-7.63 31.07,-12.01 41.94,-13.1 10.92,-1.14 20.8,0.12 29.66,3.76 8.81,3.62 20.73,13.4 35.8,29.36 10.85,11.43 17.65,18.1 20.42,20.07 2.79,1.93 6.42,2.8 10.98,2.67l4.08 4.41c-9.83,4.42 -17.97,6.37 -24.49,5.79 -6.5,-0.57 -12.19,-2.35 -17.07,-5.44 -4.92,-3.06 -12.34,-9.67 -22.37,-19.91 -10.82,-11.07 -18.9,-18.09 -24.3,-21.2 -5.4,-3.04 -13,-4.4 -22.69,-4.12 -9.76,0.28 -20.19,3.19 -31.37,8.64 -11.14,5.49 -22.08,12.76 -32.77,21.84zm62.39 16.97c-7.03,-7.61 -15.91,-10.89 -26.71,-9.94 -10.79,1.02 -22.96,7.75 -36.44,20.21 -18.29,16.92 -29.16,33 -32.52,48.23 -3.4,15.26 -1.13,27.14 6.77,35.69 7.3,7.88 16.32,11.02 27.07,9.47 10.75,-1.55 23.31,-9.01 37.72,-22.34 15.35,-14.19 25.38,-28.91 30.08,-44.24 4.72,-15.33 2.72,-27.69 -5.97,-37.08zm40.95 237.68c-17.44,-5.68 -27.99,-9.55 -31.52,-11.67 -5.25,-3.13 -9.66,-7.27 -13.17,-12.46 -5.49,-8.11 -7.19,-16.68 -5.16,-25.68 2.03,-9 7.57,-16.57 16.64,-22.71 5.75,-3.88 11.61,-6 17.5,-6.24 8.19,-0.45 17.78,1.9 28.78,7.05 11.01,5.21 26.98,15.31 47.95,30.44l4.59 -3.11c11.71,-7.92 18.49,-15.18 20.36,-21.85 1.83,-6.65 0.39,-13.49 -4.39,-20.55 -3.6,-5.33 -7.93,-8.62 -12.99,-9.78 -5.08,-1.27 -9.49,-0.63 -13.27,1.92l-7.27 5.3c-3.95,2.67 -7.69,3.75 -11.19,3.19 -3.51,-0.55 -6.36,-2.5 -8.55,-5.73 -2.15,-3.19 -2.83,-6.54 -1.94,-10.06 0.87,-3.52 3.26,-6.6 7.12,-9.21 7.37,-4.98 16.69,-5.82 27.94,-2.5 11.26,3.32 21.47,11.8 30.65,25.37 7.05,10.41 11.05,20.11 12.05,29.15 0.76,6.8 -0.89,13.32 -4.92,19.54 -2.6,4 -9.62,9.88 -20.97,17.56l-39.88 26.98c-11.19,7.56 -17.92,12.43 -20.12,14.55 -2.25,2.16 -3.43,3.99 -3.66,5.54 -0.16,1.57 0.17,2.99 1.03,4.26 0.94,1.39 2.04,2.36 3.32,3.03 2.34,1.01 7.8,2.35 16.4,4.04l-7.19 4.86c-19.42,-0.86 -32.06,-5.65 -37.96,-14.38 -2.83,-4.18 -3.65,-8.53 -2.44,-12.96 1.24,-4.47 5.34,-9.09 12.26,-13.89zm8.37 -5.66l44.75 -30.27c-13.9,-9.49 -23.16,-15.36 -27.88,-17.71 -8.33,-4.21 -15.51,-6.41 -21.61,-6.54 -6.09,-0.13 -11.54,1.45 -16.41,4.74 -6.18,4.18 -10.02,9.45 -11.59,15.91 -1.6,6.43 -0.73,12.06 2.52,16.86 4.4,6.5 14.48,12.14 30.22,17.01zm142.38 23l52.63 110.36 -32.02 22.1 -3 -6.27c6.46,-4.43 10.95,-8.91 13.51,-13.26 2.56,-4.44 3.7,-8.59 3.28,-12.54 -0.4,-3.9 -2.5,-9.9 -6.35,-17.97l-5.33 -11.18 -89.12 42.5c-9.5,4.54 -15.29,8 -17.33,10.38 -2.02,2.41 -2.81,5.06 -2.42,8.08 0.42,2.96 2.68,9.18 6.78,18.53l-5.16 2.46 -33.05 -69.29 5.17 -2.46c4.46,8.84 8.62,13.91 12.57,15.18 3.95,1.27 11.39,-0.7 22.43,-5.97l89.12 -42.5 -5.44 -11.41c-3.81,-7.98 -6.9,-13.22 -9.25,-15.6 -2.34,-2.44 -5.99,-4.08 -10.95,-4.99 -4.9,-0.93 -11.69,-0.43 -20.27,1.39l-2.98 -6.27 37.18 -11.27zm26.31 238.14l4.7 16.9c10.45,40.48 3.06,63.98 -22.13,70.49 -11.74,3.03 -22.4,0.5 -31.97,-7.57 -9.63,-8.07 -16.85,-21.43 -21.66,-40.04l-16.94 -65.67 5.53 -1.43c2.29,8.87 5.4,14.16 9.27,15.82 3.93,1.66 11.52,1.01 22.85,-1.92l73.16 -18.89c10.76,-2.78 17.01,-5 18.69,-6.57 1.66,-1.62 3.01,-3.77 3.96,-6.46 0.99,-2.7 0.56,-7.6 -1.27,-14.68l5.52 -1.42 18.49 71.57 -5.53 1.43c-2.53,-9.79 -4.67,-15.71 -6.42,-17.65 -1.77,-1.99 -3.75,-3.49 -5.97,-4.5 -2.28,-0.98 -9.29,0.01 -21.07,3.05l-29.21 7.54zm-64.3 16.6c-0.03,5.61 0.61,11.05 1.97,16.3 2.57,9.94 7.3,17.31 14.19,22.17 6.93,4.79 14.44,6.17 22.54,4.08 19.2,-4.96 25.37,-20.69 18.54,-47.15 -0.59,-2.29 -1.47,-5.44 -2.62,-9.5l-54.62 14.1zm31.17 268.52l-4.52 -41.41c17.41,-14.92 35.45,-28.65 54.04,-41.29 4.31,-2.95 7.43,-5.51 9.42,-7.75 1.99,-2.23 2.81,-5.07 2.42,-8.58 -0.13,-1.2 -0.45,-3.13 -0.94,-5.78l-37.89 4.14c-10.21,1.12 -16.61,2.4 -19.31,3.91 -2.72,1.47 -4.49,3.78 -5.41,7 -0.89,3.17 -0.95,8.42 -0.15,15.65l-5.69 0.62 -7.69 -70.35 5.68 -0.62c1,9.1 3.33,14.79 6.91,16.99 3.65,2.2 11.25,2.64 22.89,1.37l75.11 -8.21c11.06,-1.21 17.57,-2.51 19.44,-3.82 1.87,-1.37 3.52,-3.3 4.84,-5.83 1.38,-2.53 1.65,-7.43 0.85,-14.7l5.68 -0.63 7.68 70.36 -5.67 0.62c-0.92,-8.49 -2.14,-13.65 -3.56,-15.51 -1.48,-1.85 -3.19,-3.47 -5.16,-4.89 -2.02,-1.42 -9.11,-1.5 -21.32,-0.17l-27.77 3.04c0.05,2.38 0.12,3.96 0.21,4.8 0.67,6.23 3.1,11.89 7.22,16.96 4.13,5.1 12.18,9.15 24.17,12.18 11.32,2.79 19,5.29 23.07,7.49 4.13,2.2 7.57,5.48 10.51,9.88 2.92,4.39 4.66,9.12 5.22,14.2 0.61,5.55 -0.24,10.09 -2.56,13.63 -2.33,3.59 -5.67,5.6 -9.99,6.07 -3.58,0.39 -6.74,-0.43 -9.52,-2.5 -2.79,-2.08 -4.41,-5.25 -4.87,-9.43 -0.25,-2.26 0.08,-5.1 0.97,-8.64 1.11,-4.46 1.54,-7.79 1.29,-10.05 -0.51,-4.71 -4.97,-8.13 -13.48,-10.34 -9.68,-2.43 -15.95,-4.34 -18.82,-5.67 -2.91,-1.38 -6.82,-4.08 -11.85,-8.18 -0.62,3.24 -2.66,6.95 -6.08,11.14 -3.44,4.14 -13.57,12.25 -30.35,24.35 -13.42,9.62 -21.86,16.69 -25.36,21.15 -3.52,4.47 -4.92,10.55 -4.29,18.21l-5.37 0.59zm138.24 104.79c-1.71,21.37 -11.2,37.83 -28.54,49.44 -14.76,9.85 -31.17,14.08 -49.21,12.63 -12.67,-1.01 -25.24,-5.08 -37.74,-12.15 -12.49,-7.08 -21.63,-16.21 -27.37,-27.34 -5.74,-11.19 -8.07,-23.26 -7.03,-36.27 1.7,-21.26 11.56,-37.48 29.54,-48.62 15.19,-9.39 31.65,-13.41 49.48,-11.99 12.98,1.04 25.64,5.28 37.95,12.72 12.31,7.42 21.12,16.63 26.4,27.63 5.29,10.93 7.46,22.25 6.52,33.95zm-9.75 -5.58c0.44,-5.41 -0.76,-11 -3.54,-16.76 -2.83,-5.73 -8.11,-10.65 -15.98,-14.65 -7.85,-4.06 -18.16,-6.58 -30.92,-7.6 -20.57,-1.65 -38.62,1.02 -54.2,7.96 -15.58,6.94 -23.87,17.1 -24.94,30.44 -0.8,9.92 2.66,18.43 10.37,25.55 7.71,7.11 21.58,11.5 41.62,13.11 25.12,2.01 45.28,-1.82 60.54,-11.43 10.44,-6.45 16.15,-15.34 17.05,-26.62zm-100.27 216.49c-12.18,23.33 -27.44,32.44 -45.73,27.3 -12.49,-3.51 -20.4,-11.32 -23.66,-23.4 -3.29,-12.08 -2.35,-27.4 2.87,-45.91l18.87 -67.11 5.5 1.55c-2.46,8.76 -2.34,14.76 0.31,18.03 2.72,3.22 9.58,6.41 20.63,9.52l72.74 20.46c10.81,3.04 17.31,4.33 19.55,3.8 2.16,-0.48 4.35,-1.62 6.51,-3.42 2.2,-1.73 4.25,-6.07 6.19,-12.97l5.49 1.54 -17.63 62.71c-3.41,12.12 -7.13,21.62 -11.1,28.55 -4,6.97 -9.45,12.05 -16.35,15.31 -6.92,3.25 -14.36,3.72 -22.25,1.5 -15.5,-4.35 -22.8,-16.85 -21.94,-37.46zm15.73 -43.05c-1.34,4.33 -2.13,6.96 -2.38,7.87 -3.84,13.63 -4.01,24.2 -0.52,31.74 3.55,7.51 9.01,12.32 16.44,14.42 8.62,2.42 15.75,1.09 21.34,-3.95 5.62,-5.1 10.32,-14.39 14.12,-27.92l2.19 -7.76 -51.19 -14.4zm-63.78 -17.94c-2.97,4.53 -5.45,10.18 -7.37,17.02 -3.32,11.81 -3.19,21.3 0.4,28.49 3.52,7.18 9.44,11.96 17.58,14.25 9.18,2.59 17.25,0.86 24.23,-5.21 6.99,-6.08 12.33,-15.68 16.03,-28.86 0.92,-3.25 1.81,-6.82 2.66,-10.63l-53.53 -15.06zm135.37 246.95c-1.75,3.9 -4.65,6.63 -8.66,8.17 -4.03,1.49 -8.03,1.36 -11.95,-0.4 -3.96,-1.78 -6.75,-4.71 -8.31,-8.71 -1.61,-4.07 -1.5,-8.05 0.25,-11.94 1.78,-3.94 4.7,-6.72 8.81,-8.22 4.07,-1.58 8.12,-1.44 12.08,0.34 3.91,1.76 6.66,4.67 8.23,8.67 1.5,4.02 1.36,8.06 -0.45,12.09zm-72.97 -18.88l-104.24 -46.87c-8.07,-3.62 -13.67,-5.46 -16.87,-5.45 -3.23,-0.07 -5.99,0.77 -8.32,2.49 -2.33,1.73 -4.91,5.64 -7.66,11.75l-5.21 -2.35 28.11 -62.53 5.21 2.35c-2.8,6.24 -4.08,10.74 -3.82,13.4 0.24,2.7 1.51,5.3 3.72,7.85 2.24,2.51 7.37,5.57 15.33,9.15l50.1 22.52c13.95,6.27 23.17,9.89 27.68,10.94 3.31,0.68 5.82,0.6 7.64,-0.32 1.83,-0.85 3.27,-2.51 4.34,-4.9 1.2,-2.65 1.89,-6.15 2.18,-10.53l6.1 0.39 -1.5 45.91 -2.79 6.2z"/>
   <path class="fil1" d="M1046.4 2083.93l-79.74 0 0 74.5c0,75.23 -6.29,124 -18.8,146.45 -12.57,22.38 -29.83,33.61 -51.86,33.61 -9.41,0 -16.66,-2.41 -21.73,-7.15 -5.06,-4.81 -7.58,-10.36 -7.58,-16.64 0,-4.88 1.62,-9.09 4.92,-12.63 3.31,-3.54 7.33,-5.27 12,-5.27 3.89,0 8.43,2 13.48,5.94 5.71,4.34 10.83,6.48 15.43,6.48 11.02,0 19.97,-9.42 26.98,-28.33 6.94,-18.9 10.44,-54.65 10.44,-107.37l0 -55.65c0,-17.51 -2.21,-28.6 -6.69,-33.34 -4.4,-4.68 -14.65,-7.28 -30.66,-7.82l0 -7.21 207.33 0 0 7.21c-15.81,0.54 -25.93,3.14 -30.34,7.89 -4.4,4.67 -6.61,15.83 -6.61,33.4l0 168.77c0,17.58 2.21,28.73 6.61,33.41 4.41,4.74 14.53,7.35 30.34,7.88l0 7.22 -110.47 0 0 -7.22c15.82,-0.53 25.94,-3.14 30.34,-7.88 4.41,-4.68 6.61,-15.83 6.61,-33.41l0 -202.84z"/>
   <path id="_1_0" class="fil1" d="M1296.2 2328.06l0 7.22 -110.48 0 0 -7.22 9.14 0c10.71,0 18.42,-3.2 23.28,-9.55 3.05,-4.21 4.54,-14.23 4.54,-30.13l0 -171.98c0,-13.43 -0.84,-22.32 -2.46,-26.59 -1.3,-3.28 -3.89,-6.08 -7.85,-8.42 -5.57,-3.14 -11.41,-4.68 -17.51,-4.68l-9.14 0 0 -7.21 110.48 0 0 7.21 -9.27 0c-10.51,0 -18.16,3.21 -22.95,9.56 -3.18,4.21 -4.73,14.23 -4.73,30.13l0 171.98c0,13.43 0.84,22.31 2.46,26.59 1.23,3.27 3.89,6.08 7.98,8.42 5.44,3.14 11.15,4.67 17.24,4.67l9.27 0z"/>
   <path id="_2" class="fil1" d="M1612.19 2328.06l0 7.22 -66.39 0c-7.2,-11.89 -22.37,-34.34 -45.51,-67.35 -23.15,-33 -37.21,-51.31 -42.28,-54.92 -5.05,-3.61 -12.7,-5.48 -22.95,-5.61l0 79.37c0,17.58 2.15,28.73 6.49,33.41 4.34,4.74 14.52,7.35 30.47,7.88l0 7.22 -110.47 0 0 -7.22c15.69,-0.53 25.8,-3.14 30.27,-7.75 4.48,-4.67 6.68,-15.83 6.68,-33.54l0 -168.77c0,-17.57 -2.2,-28.73 -6.61,-33.4 -4.41,-4.75 -14.52,-7.35 -30.34,-7.89l0 -7.21 110.47 0 0 7.21c-15.95,0.54 -26.13,3.14 -30.47,7.89 -4.34,4.67 -6.49,15.83 -6.49,33.4l0 74.17c13.81,-0.14 23.35,-1.07 28.66,-2.88 5.32,-1.73 11.28,-5.74 17.9,-12.02 6.61,-6.28 11.86,-13.1 15.75,-20.38 3.82,-7.22 8.82,-19.18 14.85,-35.81 5.7,-15.57 10.37,-26.39 13.94,-32.47 3.63,-6.08 9.39,-11.36 17.37,-15.77 7.97,-4.35 17.44,-6.55 28.46,-6.55 19.45,0 29.18,7.08 29.18,21.25 0,4.94 -1.95,9.28 -5.78,12.96 -3.89,3.67 -8.22,5.48 -13.15,5.48 -3.58,0 -9.53,-2.07 -17.83,-6.28 -7.33,-3.81 -12.45,-5.75 -15.37,-5.75 -4.08,0 -7.52,2.21 -10.44,6.55 -2.91,4.41 -7.52,15.57 -13.87,33.47 -12.13,33.47 -27.62,54.72 -46.42,63.74 11.47,2.07 27.36,18.38 47.78,48.78 21.59,32.27 37.48,53.85 47.59,64.67 10.11,10.82 22.95,16.5 38.51,16.9z"/>
   <path id="_3" class="fil1" d="M1840.46 2246.69l-99.9 0 -17.25 41.62c-4.27,10.29 -6.48,18.04 -6.48,23.12 0,4.01 1.88,7.61 5.64,10.69 3.7,3 11.8,5.01 24.18,5.94l0 7.22 -81.29 0 0 -7.22c10.76,-1.93 17.69,-4.47 20.87,-7.61 6.48,-6.28 13.61,-19.04 21.46,-38.22l90.7 -218.75 6.41 0 89.67 221.09c7.19,17.77 13.74,29.26 19.64,34.61 5.9,5.28 14.07,8.22 24.64,8.88l0 7.22 -101.65 0 0 -7.22c10.23,-0.53 17.17,-2.27 20.8,-5.27 3.63,-3.01 5.39,-6.69 5.39,-11.03 0,-5.74 -2.54,-14.83 -7.59,-27.26l-15.24 -37.81zm-5.83 -14.44l-43.44 -107.23 -44.61 107.23 88.05 0z"/>
   <path id="_4" class="fil1" d="M2071.52 2210.67l0 77.71c0,16.7 1.75,27.06 5.32,31.07 4.79,5.74 12.06,8.61 21.79,8.61l9.84 0 0 7.22 -110.47 0 0 -7.22 9.73 0c10.89,0 18.74,-3.67 23.41,-10.95 2.52,-4.01 3.82,-13.63 3.82,-28.73l0 -171.98c0,-16.7 -1.69,-27.06 -5.12,-31.07 -5,-5.74 -12.33,-8.62 -22.11,-8.62l-9.73 0 0 -7.21 94.53 0c23.08,0 41.23,2.47 54.58,7.35 13.3,4.87 24.51,13.16 33.66,24.78 9.14,11.63 13.68,25.39 13.68,41.29 0,21.72 -6.94,39.36 -20.82,52.92 -13.87,13.56 -33.44,20.38 -58.8,20.38 -6.22,0 -12.9,-0.47 -20.1,-1.4 -7.25,-0.87 -14.97,-2.28 -23.21,-4.15zm0 -11.22c6.68,1.33 12.65,2.34 17.83,2.94 5.12,0.67 9.6,1 13.22,1 13.17,0 24.45,-5.28 33.98,-15.77 9.54,-10.49 14.33,-24.05 14.33,-40.69 0,-11.49 -2.27,-22.18 -6.81,-32 -4.53,-9.82 -11.02,-17.17 -19.32,-22.05 -8.36,-4.88 -17.83,-7.35 -28.4,-7.35 -6.48,0 -14.72,1.27 -24.83,3.74l0 110.18z"/>
   <path id="_5" class="fil2 str5" d="M1046.4 2083.93l-79.74 0 0 74.5c0,75.23 -6.29,124 -18.8,146.45 -12.57,22.38 -29.83,33.61 -51.86,33.61 -9.41,0 -16.66,-2.41 -21.73,-7.15 -5.06,-4.81 -7.58,-10.36 -7.58,-16.64 0,-4.88 1.62,-9.09 4.92,-12.63 3.31,-3.54 7.33,-5.27 12,-5.27 3.89,0 8.43,2 13.48,5.94 5.71,4.34 10.83,6.48 15.43,6.48 11.02,0 19.97,-9.42 26.98,-28.33 6.94,-18.9 10.44,-54.65 10.44,-107.37l0 -55.65c0,-17.51 -2.21,-28.6 -6.69,-33.34 -4.4,-4.68 -14.65,-7.28 -30.66,-7.82l0 -7.21 207.33 0 0 7.21c-15.81,0.54 -25.93,3.14 -30.34,7.89 -4.4,4.67 -6.61,15.83 -6.61,33.4l0 168.77c0,17.58 2.21,28.73 6.61,33.41 4.41,4.74 14.53,7.35 30.34,7.88l0 7.22 -110.47 0 0 -7.22c15.82,-0.53 25.94,-3.14 30.34,-7.88 4.41,-4.68 6.61,-15.83 6.61,-33.41l0 -202.84z"/>
   <path id="_6" class="fil2 str5" d="M1296.2 2328.06l0 7.22 -110.48 0 0 -7.22 9.14 0c10.71,0 18.42,-3.2 23.28,-9.55 3.05,-4.21 4.54,-14.23 4.54,-30.13l0 -171.98c0,-13.43 -0.84,-22.32 -2.46,-26.59 -1.3,-3.28 -3.89,-6.08 -7.85,-8.42 -5.57,-3.14 -11.41,-4.68 -17.51,-4.68l-9.14 0 0 -7.21 110.48 0 0 7.21 -9.27 0c-10.51,0 -18.16,3.21 -22.95,9.56 -3.18,4.21 -4.73,14.23 -4.73,30.13l0 171.98c0,13.43 0.84,22.31 2.46,26.59 1.23,3.27 3.89,6.08 7.98,8.42 5.44,3.14 11.15,4.67 17.24,4.67l9.27 0z"/>
   <path id="_7" class="fil2 str5" d="M1612.19 2328.06l0 7.22 -66.39 0c-7.2,-11.89 -22.37,-34.34 -45.51,-67.35 -23.15,-33 -37.21,-51.31 -42.28,-54.92 -5.05,-3.61 -12.7,-5.48 -22.95,-5.61l0 79.37c0,17.58 2.15,28.73 6.49,33.41 4.34,4.74 14.52,7.35 30.47,7.88l0 7.22 -110.47 0 0 -7.22c15.69,-0.53 25.8,-3.14 30.27,-7.75 4.48,-4.67 6.68,-15.83 6.68,-33.54l0 -168.77c0,-17.57 -2.2,-28.73 -6.61,-33.4 -4.41,-4.75 -14.52,-7.35 -30.34,-7.89l0 -7.21 110.47 0 0 7.21c-15.95,0.54 -26.13,3.14 -30.47,7.89 -4.34,4.67 -6.49,15.83 -6.49,33.4l0 74.17c13.81,-0.14 23.35,-1.07 28.66,-2.88 5.32,-1.73 11.28,-5.74 17.9,-12.02 6.61,-6.28 11.86,-13.1 15.75,-20.38 3.82,-7.22 8.82,-19.18 14.85,-35.81 5.7,-15.57 10.37,-26.39 13.94,-32.47 3.63,-6.08 9.39,-11.36 17.37,-15.77 7.97,-4.35 17.44,-6.55 28.46,-6.55 19.45,0 29.18,7.08 29.18,21.25 0,4.94 -1.95,9.28 -5.78,12.96 -3.89,3.67 -8.22,5.48 -13.15,5.48 -3.58,0 -9.53,-2.07 -17.83,-6.28 -7.33,-3.81 -12.45,-5.75 -15.37,-5.75 -4.08,0 -7.52,2.21 -10.44,6.55 -2.91,4.41 -7.52,15.57 -13.87,33.47 -12.13,33.47 -27.62,54.72 -46.42,63.74 11.47,2.07 27.36,18.38 47.78,48.78 21.59,32.27 37.48,53.85 47.59,64.67 10.11,10.82 22.95,16.5 38.51,16.9z"/>
   <path id="_8" class="fil2 str5" d="M1840.46 2246.69l-99.9 0 -17.25 41.62c-4.27,10.29 -6.48,18.04 -6.48,23.12 0,4.01 1.88,7.61 5.64,10.69 3.7,3 11.8,5.01 24.18,5.94l0 7.22 -81.29 0 0 -7.22c10.76,-1.93 17.69,-4.47 20.87,-7.61 6.48,-6.28 13.61,-19.04 21.46,-38.22l90.7 -218.75 6.41 0 89.67 221.09c7.19,17.77 13.74,29.26 19.64,34.61 5.9,5.28 14.07,8.22 24.64,8.88l0 7.22 -101.65 0 0 -7.22c10.23,-0.53 17.17,-2.27 20.8,-5.27 3.63,-3.01 5.39,-6.69 5.39,-11.03 0,-5.74 -2.54,-14.83 -7.59,-27.26l-15.24 -37.81zm-5.83 -14.44l-43.44 -107.23 -44.61 107.23 88.05 0z"/>
   <path id="_9" class="fil2 str5" d="M2071.52 2210.67l0 77.71c0,16.7 1.75,27.06 5.32,31.07 4.79,5.74 12.06,8.61 21.79,8.61l9.84 0 0 7.22 -110.47 0 0 -7.22 9.73 0c10.89,0 18.74,-3.67 23.41,-10.95 2.52,-4.01 3.82,-13.63 3.82,-28.73l0 -171.98c0,-16.7 -1.69,-27.06 -5.12,-31.07 -5,-5.74 -12.33,-8.62 -22.11,-8.62l-9.73 0 0 -7.21 94.53 0c23.08,0 41.23,2.47 54.58,7.35 13.3,4.87 24.51,13.16 33.66,24.78 9.14,11.63 13.68,25.39 13.68,41.29 0,21.72 -6.94,39.36 -20.82,52.92 -13.87,13.56 -33.44,20.38 -58.8,20.38 -6.22,0 -12.9,-0.47 -20.1,-1.4 -7.25,-0.87 -14.97,-2.28 -23.21,-4.15zm0 -11.22c6.68,1.33 12.65,2.34 17.83,2.94 5.12,0.67 9.6,1 13.22,1 13.17,0 24.45,-5.28 33.98,-15.77 9.54,-10.49 14.33,-24.05 14.33,-40.69 0,-11.49 -2.27,-22.18 -6.81,-32 -4.53,-9.82 -11.02,-17.17 -19.32,-22.05 -8.36,-4.88 -17.83,-7.35 -28.4,-7.35 -6.48,0 -14.72,1.27 -24.83,3.74l0 110.18z"/>
   <ellipse class="fil2" cx="1550.77" cy="1549.29" rx="1300.61" ry="1307.05"/>
   <g id="_1528156980208">
    <path class="fil3" d="M1519.89 1010.04c-60.05,-19.48 -172.31,-88.86 -289.12,23.91 -30.56,29.5 -59.45,78.07 -52.55,137.29 4.94,42.3 33.92,112.88 62.14,132.62 -10.89,-68.84 -39.16,-110.23 -5.39,-188.18 52.97,-122.3 240.44,-120.57 295.84,-51.62 41.49,51.64 32.59,148.36 50.94,165.37l5.6 -42.54c18.58,5.03 14.03,-5.34 22,19.52 2.53,7.89 9.05,52.29 -10.33,65.18 -9.19,6.12 2.13,0.08 -11.41,3.34 -44.27,10.64 26.8,-17.51 -11.43,1.89 0,56.46 -1.36,93.01 -33.82,127.07 -18.11,19 -63.39,64.64 -95.14,67 -23.23,1.73 -101.21,-28.65 -123.35,-38.12 -60.67,-25.94 -40.27,-47.01 -75,-83.76 12.71,94.58 36.11,98.48 160.93,140.89 51.9,17.64 41.99,1.61 82.14,-4.6 0.81,88.16 14.43,61.61 -115.61,62.39 -58.33,0.36 -105.02,9.96 -133.94,47.55l22.77 63.88c47.02,13.05 69.36,-27.67 169.24,13.46 170.83,70.35 44.98,-36.2 333.58,113.45 24.17,12.53 47.91,26.41 68.09,41.95 20.68,15.91 44.14,39.52 63.18,49.42 -11.41,-73.02 -98.53,-146.63 -154.35,-178.79 -24.48,-14.1 -57.63,-22.39 -78.35,-39.49 13.52,-43.66 23.6,-34.42 22.07,-97.26 -0.83,-33.85 -4.07,-72.15 -18.57,-96.22 -13.91,115.81 17.47,200.03 -119,205.53 -49.76,2 -91.33,-10.81 -133.51,-27.42 -72.7,-28.62 -65.37,-6.63 -131.82,1.85 -7.76,-14.19 3.94,-9.26 -1.58,-20.52 -4.36,-8.89 -7.84,15.63 -13.81,-21.13 -4.69,-28.93 27.55,-32.19 54.73,-34.47 62.71,-5.26 129.28,2.32 193.02,-3.1 3.72,-37.37 -14.23,-76 7.72,-114.38 16.79,-29.37 50.29,-36.07 63.03,-79.83 6.57,-22.61 1.85,-49.34 9.88,-66.35 0.68,-1.45 1.72,-2.97 2.54,-4.29 2.47,-4.02 42.32,-30.49 23.01,-97.56 -7.79,-27.05 -13.59,-23.95 -39.36,-29.91 -13.55,-138.2 -51.29,-129.22 46.64,-186.37 55.86,-32.6 134.38,-80.46 75.35,-162.97 -22.56,32.67 -2.52,55.95 -83.61,102.66 -42.41,24.44 -80.86,43.68 -103.39,82.66z"/>
    <path class="fil3" d="M1121.69 1432.33c0,-90.48 62.06,-84.61 87.39,-130.71 -300.4,16.87 -145.42,315 -65.43,402.38 58.37,63.76 126.75,107.13 224.62,151.36 86.9,39.27 196.46,60.89 293.04,82.62 126.95,28.56 403.09,129.02 403.09,-19.67 0,-41.89 2.17,-31.27 -12.05,-37.97 -8.91,168.21 -217.82,43.35 -350.91,4.74 -88.61,-25.72 -175,-49.59 -263.22,-80.55 -160,-56.16 -316.53,-192.81 -316.53,-372.2z"/>
    <path class="fil3" d="M1011.54 1593.42c-7.84,-50.11 -10.86,-49.37 -9.81,-96.29 5.09,-225.2 257.91,-734.71 507.52,-780.77 92.84,-17.13 125.14,24.82 146.93,36.74 -7.31,-37.82 -20.77,-36.45 -27.04,-65.92 46.43,-3.74 80.08,2.48 115.64,20.64 38.01,19.4 53.23,42.14 83.2,56.2 -10.22,-60.72 -102.03,-110.36 -179.4,-110.36 -171.13,0 -237.2,0.8 -361.51,99.59 -138.63,110.18 -269.52,313.32 -306.12,497.24 -19.1,95.95 -22.21,274.51 30.59,342.93z"/>
    <path class="fil3" d="M1953.84 1076.18c9.35,-258.2 -187.43,-289.68 -231.96,-264.98 37.22,31.1 62.08,21.43 85.63,66.85 32.17,62.04 34.26,123.95 11.12,186.65 -29.05,78.75 -31.74,28.98 -65.36,50.13 17.66,17.35 23.29,13.81 49.69,20.56 3.12,54.71 -26.45,106.01 -50.28,141.95 -56.98,85.93 -76.91,61.1 -108.55,52.23l160.34 141.17c18.3,20.61 25.04,31.36 45.54,51.81 36.09,36 146.09,186.47 141.51,259.73l-3.97 62.72c27.93,-9.97 50.93,-60.41 50.93,-101.64 0,-171.05 -274.56,-321.55 -319.08,-375.82 25.45,-24.19 22.28,-12.8 44.71,-46.58 37.66,-56.71 70.2,-121.38 73.5,-194.08l25.92 -19.65c-22.67,-3.11 -11.58,2.45 -22.6,-11.84 22.38,-106.45 2,-95.87 -9.8,-188.81 33.06,37.74 56.07,130.99 56.07,195.29 0,194.84 -97.94,251.05 -110.15,273.27 109.16,-38.23 171.63,-156.42 176.79,-298.96z"/>
    <path class="fil3" d="M1687.45 1264.99c28.99,0 34.66,-5.05 49.81,-18.53l-95.16 -9.64c8.1,17.16 16.18,28.17 45.35,28.17z"/>
    <path class="fil3" d="M1585.81 1093.36c24.27,14.67 77.28,40.24 96.29,8.51 -81.99,-4.74 -64.78,-30.01 -96.29,-8.51z"/>
    <path class="fil3" d="M1293.22 1338.63c4.89,13.73 -7.15,4.81 13.25,15.3 19.25,9.91 45.63,2.92 54.97,-23.24l-68.22 7.94z"/>
    <path class="fil3" d="M1430.3 1304.77c13.93,36.21 57.88,12.12 67.21,-12.96 -24.84,12.2 -33.45,12.83 -67.21,12.96z"/>
    <path class="fil3" d="M1397.9 1414.93c18.95,33.42 46.21,16.05 60.73,-6.48 -27.82,2.14 -26.08,8.23 -60.73,6.48z"/>
   </g>
   <path class="fil1" d="M1089.15 2493.31l-86.36 0 0 142.8c0,12.37 1.55,20.23 4.71,23.52 3.15,3.34 10.53,5.17 22.1,5.55l0 5.08 -80.15 0 0 -5.08c11.48,-0.38 18.82,-2.21 22.02,-5.55 3.19,-3.29 4.79,-11.15 4.79,-23.52l0 -118.81c0,-12.37 -1.6,-20.23 -4.79,-23.52 -3.2,-3.34 -10.54,-5.18 -22.02,-5.55l0 -5.08 193.04 0 0 5.08c-11.48,0.37 -18.81,2.21 -22.01,5.55 -3.2,3.29 -4.8,11.15 -4.8,23.52l0 118.81c0,12.37 1.6,20.23 4.8,23.52 3.2,3.34 10.53,5.17 22.01,5.55l0 5.08 -80.15 0 0 -5.08c11.48,-0.38 18.77,-2.21 22.01,-5.46 3.2,-3.29 4.8,-11.14 4.8,-23.61l0 -142.8z"/>
   <path id="_1_1" class="fil1" d="M1206.88 2493.31l0 73.94 41.21 0c10.68,0 17.78,-1.6 21.35,-4.8 4.8,-4.23 7.43,-11.66 8,-22.29l5.08 0 0 65.19 -5.08 0c-1.27,-9.13 -2.59,-15.01 -3.86,-17.59 -1.64,-3.2 -4.37,-5.74 -8.14,-7.58 -3.76,-1.83 -9.54,-2.77 -17.35,-2.77l-41.21 0 0 61.71c0,8.28 0.38,13.31 1.09,15.1 0.75,1.79 2.02,3.25 3.85,4.28 1.84,1.08 5.37,1.6 10.49,1.6l31.66 0c10.53,0 18.2,-0.75 23,-2.21 4.75,-1.46 9.36,-4.38 13.73,-8.7 5.69,-5.69 11.53,-14.3 17.5,-25.78l5.65 0 -16.14 46.85 -144.17 0 0 -5.08 6.64 0c4.42,0 8.6,-1.08 12.56,-3.2 2.96,-1.46 4.98,-3.67 6.02,-6.63 1.08,-2.96 1.6,-8.98 1.6,-18.11l0 -121.64c0,-11.85 -1.18,-19.14 -3.58,-21.87 -3.34,-3.67 -8.84,-5.5 -16.6,-5.5l-6.64 0 0 -5.08 144.22 0 1.97 41.2 -5.36 0c-1.93,-9.92 -4.04,-16.74 -6.39,-20.46 -2.36,-3.71 -5.84,-6.54 -10.4,-8.51 -3.67,-1.37 -10.16,-2.07 -19.43,-2.07l-51.27 0z"/>
   <path id="_2_2" class="fil1" d="M1353.31 2483.15l154.66 0 0 5.08c-11.62,0.37 -19.05,2.21 -22.25,5.5 -3.25,3.34 -4.85,11.15 -4.85,23.47l0 103.67c0,20.04 1.13,32.46 3.44,37.21 2.3,4.75 9.69,7.1 22.25,7.1l0 58.7 -4.8 0c-2.73,-13.54 -7.2,-24.5 -13.27,-32.78 -6.11,-8.33 -13.03,-13.83 -20.79,-16.65 -7.76,-2.78 -17.07,-4.19 -27.89,-4.19l-47.6 0c-20.84,0 -36.13,5.64 -45.91,16.93 -9.78,11.24 -15.61,23.47 -17.54,36.69l-4.8 0 0 -58.7c14.72,-1.27 26.67,-10.16 35.89,-26.62 9.22,-16.51 15.61,-36.69 19.14,-60.68 3.58,-23.99 5.36,-43.65 5.36,-59.03 0,-9.17 -1.12,-15.95 -3.43,-20.27 -2.3,-4.33 -5.03,-7.06 -8.18,-8.14 -3.16,-1.13 -9.65,-1.84 -19.43,-2.21l0 -5.08zm45.15 10.44c-2.3,54.47 -6.63,92.71 -13.07,114.68 -6.4,21.96 -15.05,39.22 -25.87,51.83l69.1 0c12.27,0 19.66,-1.08 22.06,-3.25 2.44,-2.16 3.66,-9.17 3.66,-21.02l0 -142.24 -55.88 0z"/>
   <path id="_3_3" class="fil1" d="M1600.02 2665.18l0 5.08 -80.15 0 0 -5.08 6.63 0c7.76,0 13.36,-2.26 16.88,-6.73 2.21,-2.96 3.3,-10.02 3.3,-21.21l0 -121.07c0,-9.46 -0.62,-15.71 -1.79,-18.72 -0.94,-2.31 -2.82,-4.28 -5.69,-5.93 -4.05,-2.21 -8.28,-3.29 -12.7,-3.29l-6.63 0 0 -5.08 80.15 0 0 5.08 -6.73 0c-7.62,0 -13.17,2.26 -16.65,6.72 -2.31,2.97 -3.43,10.02 -3.43,21.22l0 121.07c0,9.45 0.61,15.71 1.78,18.72 0.9,2.31 2.82,4.28 5.79,5.93 3.95,2.21 8.09,3.29 12.51,3.29l6.73 0z"/>
   <path id="_4_4" class="fil1" d="M1736.09 2607.89l-72.48 0 -12.51 29.3c-3.11,7.25 -4.71,12.7 -4.71,16.28 0,2.82 1.37,5.36 4.1,7.52 2.68,2.12 8.56,3.53 17.54,4.19l0 5.08 -58.98 0 0 -5.08c7.81,-1.36 12.84,-3.15 15.14,-5.36 4.71,-4.42 9.88,-13.41 15.57,-26.91l65.81 -154 4.65 0 65.06 155.65c5.22,12.51 9.97,20.6 14.25,24.36 4.28,3.72 10.2,5.79 17.87,6.26l0 5.08 -73.75 0 0 -5.08c7.43,-0.38 12.46,-1.6 15.1,-3.72 2.63,-2.11 3.9,-4.7 3.9,-7.76 0,-4.04 -1.83,-10.44 -5.5,-19.19l-11.06 -26.62zm-4.23 -10.16l-31.51 -75.49 -32.37 75.49 63.88 0z"/>
   <path id="_5_5" class="fil1" d="M1949.22 2483.15l1.97 43.98 -5.22 0c-1.03,-7.72 -2.4,-13.27 -4.14,-16.56 -2.87,-5.31 -6.63,-9.27 -11.38,-11.76 -4.75,-2.54 -10.96,-3.81 -18.68,-3.81l-26.34 0 0 142.8c0,11.53 1.23,18.73 3.72,21.59 3.48,3.86 8.84,5.79 16.09,5.79l6.44 0 0 5.08 -79.59 0 0 -5.08 6.73 0c8,0 13.64,-2.4 17.03,-7.2 2.02,-2.96 3.05,-9.69 3.05,-20.18l0 -142.8 -22.43 0c-8.75,0 -14.96,0.66 -18.63,1.93 -4.8,1.74 -8.84,5.08 -12.27,10.07 -3.39,4.93 -5.41,11.66 -6.07,20.13l-5.22 0 1.97 -43.98 152.97 0z"/>
   <path id="_6_6" class="fil1" d="M2016.06 2582.54l0 54.7c0,11.76 1.27,19.05 3.85,21.87 3.48,4.05 8.75,6.07 15.81,6.07l7.15 0 0 5.08 -80.15 0 0 -5.08 7.05 0c7.9,0 13.59,-2.59 16.98,-7.71 1.84,-2.83 2.78,-9.6 2.78,-20.23l0 -121.07c0,-11.76 -1.23,-19.05 -3.72,-21.87 -3.62,-4.05 -8.94,-6.07 -16.04,-6.07l-7.05 0 0 -5.08 68.57 0c16.75,0 29.92,1.74 39.61,5.17 9.64,3.44 17.78,9.27 24.41,17.45 6.63,8.19 9.93,17.88 9.93,29.07 0,15.29 -5.04,27.71 -15.1,37.25 -10.07,9.55 -24.27,14.35 -42.66,14.35 -4.52,0 -9.36,-0.33 -14.59,-0.99 -5.26,-0.61 -10.86,-1.6 -16.83,-2.91zm0 -7.91c4.84,0.95 9.17,1.65 12.93,2.07 3.72,0.47 6.96,0.71 9.6,0.71 9.54,0 17.73,-3.72 24.64,-11.1 6.92,-7.39 10.4,-16.93 10.4,-28.65 0,-8.09 -1.65,-15.61 -4.94,-22.53 -3.29,-6.91 -8,-12.09 -14.02,-15.52 -6.07,-3.43 -12.93,-5.17 -20.6,-5.17 -4.7,0 -10.68,0.89 -18.01,2.63l0 77.56z"/>
   <path id="_7_7" class="fil2 str6" d="M1089.15 2493.31l-86.36 0 0 142.8c0,12.37 1.55,20.23 4.71,23.52 3.15,3.34 10.53,5.17 22.1,5.55l0 5.08 -80.15 0 0 -5.08c11.48,-0.38 18.82,-2.21 22.02,-5.55 3.19,-3.29 4.79,-11.15 4.79,-23.52l0 -118.81c0,-12.37 -1.6,-20.23 -4.79,-23.52 -3.2,-3.34 -10.54,-5.18 -22.02,-5.55l0 -5.08 193.04 0 0 5.08c-11.48,0.37 -18.81,2.21 -22.01,5.55 -3.2,3.29 -4.8,11.15 -4.8,23.52l0 118.81c0,12.37 1.6,20.23 4.8,23.52 3.2,3.34 10.53,5.17 22.01,5.55l0 5.08 -80.15 0 0 -5.08c11.48,-0.38 18.77,-2.21 22.01,-5.46 3.2,-3.29 4.8,-11.14 4.8,-23.61l0 -142.8z"/>
   <path id="_8_8" class="fil2 str6" d="M1206.88 2493.31l0 73.94 41.21 0c10.68,0 17.78,-1.6 21.35,-4.8 4.8,-4.23 7.43,-11.66 8,-22.29l5.08 0 0 65.19 -5.08 0c-1.27,-9.13 -2.59,-15.01 -3.86,-17.59 -1.64,-3.2 -4.37,-5.74 -8.14,-7.58 -3.76,-1.83 -9.54,-2.77 -17.35,-2.77l-41.21 0 0 61.71c0,8.28 0.38,13.31 1.09,15.1 0.75,1.79 2.02,3.25 3.85,4.28 1.84,1.08 5.37,1.6 10.49,1.6l31.66 0c10.53,0 18.2,-0.75 23,-2.21 4.75,-1.46 9.36,-4.38 13.73,-8.7 5.69,-5.69 11.53,-14.3 17.5,-25.78l5.65 0 -16.14 46.85 -144.17 0 0 -5.08 6.64 0c4.42,0 8.6,-1.08 12.56,-3.2 2.96,-1.46 4.98,-3.67 6.02,-6.63 1.08,-2.96 1.6,-8.98 1.6,-18.11l0 -121.64c0,-11.85 -1.18,-19.14 -3.58,-21.87 -3.34,-3.67 -8.84,-5.5 -16.6,-5.5l-6.64 0 0 -5.08 144.22 0 1.97 41.2 -5.36 0c-1.93,-9.92 -4.04,-16.74 -6.39,-20.46 -2.36,-3.71 -5.84,-6.54 -10.4,-8.51 -3.67,-1.37 -10.16,-2.07 -19.43,-2.07l-51.27 0z"/>
   <path id="_9_9" class="fil2 str6" d="M1353.31 2483.15l154.66 0 0 5.08c-11.62,0.37 -19.05,2.21 -22.25,5.5 -3.25,3.34 -4.85,11.15 -4.85,23.47l0 103.67c0,20.04 1.13,32.46 3.44,37.21 2.3,4.75 9.69,7.1 22.25,7.1l0 58.7 -4.8 0c-2.73,-13.54 -7.2,-24.5 -13.27,-32.78 -6.11,-8.33 -13.03,-13.83 -20.79,-16.65 -7.76,-2.78 -17.07,-4.19 -27.89,-4.19l-47.6 0c-20.84,0 -36.13,5.64 -45.91,16.93 -9.78,11.24 -15.61,23.47 -17.54,36.69l-4.8 0 0 -58.7c14.72,-1.27 26.67,-10.16 35.89,-26.62 9.22,-16.51 15.61,-36.69 19.14,-60.68 3.58,-23.99 5.36,-43.65 5.36,-59.03 0,-9.17 -1.12,-15.95 -3.43,-20.27 -2.3,-4.33 -5.03,-7.06 -8.18,-8.14 -3.16,-1.13 -9.65,-1.84 -19.43,-2.21l0 -5.08zm45.15 10.44c-2.3,54.47 -6.63,92.71 -13.07,114.68 -6.4,21.96 -15.05,39.22 -25.87,51.83l69.1 0c12.27,0 19.66,-1.08 22.06,-3.25 2.44,-2.16 3.66,-9.17 3.66,-21.02l0 -142.24 -55.88 0z"/>
   <path id="_10" class="fil2 str6" d="M1600.02 2665.18l0 5.08 -80.15 0 0 -5.08 6.63 0c7.76,0 13.36,-2.26 16.88,-6.73 2.21,-2.96 3.3,-10.02 3.3,-21.21l0 -121.07c0,-9.46 -0.62,-15.71 -1.79,-18.72 -0.94,-2.31 -2.82,-4.28 -5.69,-5.93 -4.05,-2.21 -8.28,-3.29 -12.7,-3.29l-6.63 0 0 -5.08 80.15 0 0 5.08 -6.73 0c-7.62,0 -13.17,2.26 -16.65,6.72 -2.31,2.97 -3.43,10.02 -3.43,21.22l0 121.07c0,9.45 0.61,15.71 1.78,18.72 0.9,2.31 2.82,4.28 5.79,5.93 3.95,2.21 8.09,3.29 12.51,3.29l6.73 0z"/>
   <path id="_11" class="fil2 str6" d="M1736.09 2607.89l-72.48 0 -12.51 29.3c-3.11,7.25 -4.71,12.7 -4.71,16.28 0,2.82 1.37,5.36 4.1,7.52 2.68,2.12 8.56,3.53 17.54,4.19l0 5.08 -58.98 0 0 -5.08c7.81,-1.36 12.84,-3.15 15.14,-5.36 4.71,-4.42 9.88,-13.41 15.57,-26.91l65.81 -154 4.65 0 65.06 155.65c5.22,12.51 9.97,20.6 14.25,24.36 4.28,3.72 10.2,5.79 17.87,6.26l0 5.08 -73.75 0 0 -5.08c7.43,-0.38 12.46,-1.6 15.1,-3.72 2.63,-2.11 3.9,-4.7 3.9,-7.76 0,-4.04 -1.83,-10.44 -5.5,-19.19l-11.06 -26.62zm-4.23 -10.16l-31.51 -75.49 -32.37 75.49 63.88 0z"/>
   <path id="_12" class="fil2 str6" d="M1949.22 2483.15l1.97 43.98 -5.22 0c-1.03,-7.72 -2.4,-13.27 -4.14,-16.56 -2.87,-5.31 -6.63,-9.27 -11.38,-11.76 -4.75,-2.54 -10.96,-3.81 -18.68,-3.81l-26.34 0 0 142.8c0,11.53 1.23,18.73 3.72,21.59 3.48,3.86 8.84,5.79 16.09,5.79l6.44 0 0 5.08 -79.59 0 0 -5.08 6.73 0c8,0 13.64,-2.4 17.03,-7.2 2.02,-2.96 3.05,-9.69 3.05,-20.18l0 -142.8 -22.43 0c-8.75,0 -14.96,0.66 -18.63,1.93 -4.8,1.74 -8.84,5.08 -12.27,10.07 -3.39,4.93 -5.41,11.66 -6.07,20.13l-5.22 0 1.97 -43.98 152.97 0z"/>
   <path id="_13" class="fil2 str6" d="M2016.06 2582.54l0 54.7c0,11.76 1.27,19.05 3.85,21.87 3.48,4.05 8.75,6.07 15.81,6.07l7.15 0 0 5.08 -80.15 0 0 -5.08 7.05 0c7.9,0 13.59,-2.59 16.98,-7.71 1.84,-2.83 2.78,-9.6 2.78,-20.23l0 -121.07c0,-11.76 -1.23,-19.05 -3.72,-21.87 -3.62,-4.05 -8.94,-6.07 -16.04,-6.07l-7.05 0 0 -5.08 68.57 0c16.75,0 29.92,1.74 39.61,5.17 9.64,3.44 17.78,9.27 24.41,17.45 6.63,8.19 9.93,17.88 9.93,29.07 0,15.29 -5.04,27.71 -15.1,37.25 -10.07,9.55 -24.27,14.35 -42.66,14.35 -4.52,0 -9.36,-0.33 -14.59,-0.99 -5.26,-0.61 -10.86,-1.6 -16.83,-2.91zm0 -7.91c4.84,0.95 9.17,1.65 12.93,2.07 3.72,0.47 6.96,0.71 9.6,0.71 9.54,0 17.73,-3.72 24.64,-11.1 6.92,-7.39 10.4,-16.93 10.4,-28.65 0,-8.09 -1.65,-15.61 -4.94,-22.53 -3.29,-6.91 -8,-12.09 -14.02,-15.52 -6.07,-3.43 -12.93,-5.17 -20.6,-5.17 -4.7,0 -10.68,0.89 -18.01,2.63l0 77.56z"/>
  </g>
 </g>
 <g id="Слой_x0020_1_10">
  <metadata id="CorelCorpID_1Corel-Layer"/>
 </g>
</svg>
