<?xml version="1.0" encoding="UTF-8"?>
<!DOCTYPE svg PUBLIC "-//W3C//DTD SVG 1.1//EN" "http://www.w3.org/Graphics/SVG/1.1/DTD/svg11.dtd">
<!-- Creator: CorelDRAW 2019 (64-Bit) -->
<svg xmlns="http://www.w3.org/2000/svg" xml:space="preserve" width="31mm" height="31mm" version="1.1" style="shape-rendering:geometricPrecision; text-rendering:geometricPrecision; image-rendering:optimizeQuality; fill-rule:evenodd; clip-rule:evenodd"
viewBox="0 0 3100 3100"
 xmlns:xlink="http://www.w3.org/1999/xlink"
 xmlns:xodm="http://www.corel.com/coreldraw/odm/2003">
 <defs>
  <style type="text/css">
   <![CDATA[
    .str0 {stroke:#393185;stroke-width:60;stroke-miterlimit:22.9256}
    .str5 {stroke:#393185;stroke-width:45;stroke-miterlimit:22.9256}
    .str1 {stroke:#393185;stroke-width:35;stroke-miterlimit:22.9256}
    .str4 {stroke:#393185;stroke-width:25;stroke-miterlimit:22.9256}
    .str2 {stroke:#393185;stroke-width:15;stroke-miterlimit:22.9256}
    .str6 {stroke:#393185;stroke-width:7.62;stroke-miterlimit:22.9256}
    .str3 {stroke:#393185;stroke-width:25;stroke-linecap:round;stroke-linejoin:round;stroke-miterlimit:22.9256}
    .fil0 {fill:none}
    .fil2 {fill:none;fill-rule:nonzero}
    .fil3 {fill:#393185}
    .fil1 {fill:#393185;fill-rule:nonzero}
   ]]>
  </style>
 </defs>
 <g id="Слой_x0020_1">
  <metadata id="CorelCorpID_0Corel-Layer"/>
  <g id="_1211364736">
   <circle class="fil0 str0" cx="1550" cy="1550" r="1500"/>
   <circle class="fil0 str1" cx="1550" cy="1550" r="1407.83"/>
   <circle class="fil0" cx="1550" cy="1550" r="873.65"/>
   <path class="fil1 str2" d="M872.68 2550.7c-0.56,-8.26 -2.44,-16.52 -5.71,-24.73 -4.6,-11.78 -6.9,-19.92 -6.9,-24.36 0,-6.29 1.67,-11.04 4.95,-14.31 3.34,-3.27 7.45,-4.87 12.4,-4.87 4.18,0 7.87,1.6 11.01,4.87 3.13,3.27 4.66,7.9 4.66,13.94 0,5.43 -1.81,12.95 -5.36,22.64 -3.62,9.74 -5.86,18.68 -6.69,26.82 7.53,-4.19 14.21,-9.31 20.2,-15.35 9.27,-9.5 16.17,-15.42 20.63,-17.7 4.52,-2.29 9.06,-3.4 13.72,-3.4 4.46,0 8.22,1.36 11.29,4.08 3.06,2.65 4.6,5.92 4.6,9.62 0,4.5 -2.23,8.45 -6.76,11.96 -4.46,3.45 -15.68,6.97 -33.65,10.49 -10.45,2.04 -19.16,4.38 -26.13,7.03 7.11,3.27 15.75,5.74 25.92,7.4 16.44,2.65 27.24,5.98 32.33,9.93 5.15,4.01 7.66,8.33 7.66,13.02 0,3.64 -1.53,6.72 -4.6,9.37 -3.06,2.65 -6.62,4.01 -10.66,4.01 -4.11,0 -8.64,-1.29 -13.58,-3.83 -4.95,-2.52 -11.71,-8.2 -20.14,-16.96 -5.57,-5.92 -12.47,-11.47 -20.83,-16.65 0.28,6.91 1.88,14.37 4.74,22.45 4.87,14.19 7.31,23.87 7.31,29.05 0,4.81 -1.6,8.88 -4.87,12.22 -3.28,3.32 -6.76,4.99 -10.38,4.99 -5.09,0 -9.62,-1.79 -13.73,-5.24 -2.85,-2.53 -4.25,-6.6 -4.25,-12.15 0,-5.74 1.53,-12.71 4.67,-20.85 3.13,-8.14 5.08,-13.75 5.92,-16.78 0.83,-3.08 1.6,-7.65 2.23,-13.69 -8.01,4.75 -15.05,9.93 -20.97,15.73 -9.96,9.87 -17.42,16.16 -22.51,18.81 -3.54,1.91 -7.17,2.9 -11,2.9 -4.6,0 -8.57,-1.42 -11.85,-4.19 -3.27,-2.78 -4.87,-5.8 -4.87,-9.19 0,-3.03 1.39,-6.17 4.18,-9.51 2.79,-3.32 6.97,-6.04 12.54,-8.2 3.69,-1.48 12.05,-3.39 25.08,-5.8 8.43,-1.54 16.72,-3.82 24.73,-6.84 -7.38,-3.27 -16.16,-5.8 -26.33,-7.59 -16.72,-3.14 -27.1,-5.98 -31.01,-8.51 -6.13,-3.95 -9.19,-8.82 -9.19,-14.43 0,-3.27 1.53,-6.23 4.59,-8.95 3.07,-2.71 6.62,-4.07 10.73,-4.07 4.46,0 9.2,1.24 14.29,3.77 5.02,2.53 11.29,7.64 18.74,15.29 7.52,7.65 15.12,13.57 22.85,17.76z"/>
   <path class="fil1" d="M559.99 2350.09l64.23 73.33 120.6 -105.67c10.4,-9.12 15.84,-16.27 16.3,-21.36 0.46,-5.13 -3.52,-12.79 -11.84,-22.94l4.33 -3.77 59.61 68.04 -4.32 3.82c-8.87,-9.56 -15.92,-14.41 -21.1,-14.72 -5.18,-0.26 -12.95,4.15 -23.36,13.27l-100.47 88c-10.41,9.13 -15.84,16.28 -16.25,21.47 -0.42,5.13 3.52,12.74 11.79,22.83l-4.33 3.77 -143.37 -163.74 4.28 -3.77c8.91,9.56 15.91,14.41 21.09,14.67 5.19,0.31 13.01,-4.16 23.41,-13.23l100.42 -88c10.4,-9.12 15.84,-16.27 16.25,-21.46 0.41,-5.13 -3.51,-12.74 -11.8,-22.84l4.34 -3.77 59.51 67.93 -4.33 3.77c-8.81,-9.4 -15.8,-14.31 -20.93,-14.61 -5.14,-0.31 -12.96,4.15 -23.42,13.33l-120.64 105.65z"/>
   <path id="_1" class="fil1" d="M535.56 2138.08l52.65 -31.21c11.32,-6.75 17.7,-12.19 18.94,-16.33 1.91,-5.68 0.86,-11.96 -3.2,-18.81l-4.12 -6.91 4.9 -2.94 45.98 77.42 -4.95 2.94 -4.02 -6.8c-4.55,-7.64 -10.29,-11.62 -17.18,-12 -3.81,-0.13 -10.87,2.88 -21.21,8.99l-116.68 69.27c-11.38,6.75 -17.75,12.14 -19.09,16.22 -1.81,5.78 -0.71,12.07 3.35,18.92l4.01 6.8 -4.94 2.89 -39.3 -66.19c-9.59,-16.18 -15.5,-29.9 -17.69,-41.21 -2.2,-11.31 -1.27,-22.53 2.83,-33.62 4.11,-11.09 11.61,-19.82 22.42,-26.24 14.76,-8.78 29.61,-11.06 44.67,-6.77 15,4.24 27.78,15.21 38.32,32.97 2.57,4.38 5.04,9.28 7.47,14.72 2.36,5.43 4.68,11.4 6.84,17.89zm-7.59 4.49c-1.89,-5.22 -3.72,-9.76 -5.44,-13.66 -1.73,-3.91 -3.33,-7.17 -4.88,-9.76 -5.47,-9.23 -13.81,-15.09 -24.94,-17.56 -11.14,-2.46 -22.39,-0.32 -33.72,6.48 -7.86,4.61 -14.16,10.52 -18.98,17.7 -4.77,7.17 -7.1,14.71 -6.99,22.54 0.15,7.83 2.49,15.49 6.88,22.97 2.72,4.53 6.99,9.85 12.91,15.94l75.16 -44.65z"/>
   <path id="_2" class="fil1" d="M518.87 1873.23l5.38 -1.94 30.54 84.69 -5.39 1.96 -2.48 -6.97c-2.98,-8.18 -7.51,-13.28 -13.61,-15.24 -3.92,-1.2 -11.85,0.3 -23.68,4.62l-127.71 46.05c-10.03,3.62 -16.41,6.64 -19.19,9.03 -2.05,1.87 -3.41,4.59 -4.12,8.24 -0.76,5.14 -0.29,10 1.38,14.7l2.49 6.97 -5.38 1.94 -30.54 -84.7 5.38 -1.94 2.59 7.17c2.92,8.03 7.4,13.07 13.5,15.04 3.98,1.29 11.91,-0.15 23.78,-4.47l127.71 -46.06c10.03,-3.62 16.41,-6.62 19.15,-9.03 2.04,-1.87 3.4,-4.63 4.06,-8.39 0.81,-5.04 0.41,-9.85 -1.27,-14.54l-2.59 -7.13z"/>
   <path id="_3" class="fil1" d="M357.53 1849.45l-60.12 10.93 -0.92 -5.35c6.37,-2.87 9.09,-7.2 8.01,-13.13 -0.41,-2.22 -2.65,-6.74 -6.74,-13.59 -6.24,-10.72 -10.51,-22.39 -12.83,-35 -3.07,-17.11 -0.39,-31.74 7.99,-43.98 8.38,-12.23 19.42,-19.62 33.14,-22.09 12.56,-2.3 23.97,-0.28 34.26,5.91 10.34,6.21 18.75,15.41 25.24,27.57 0.03,-14.5 4.34,-26.97 12.97,-37.5 8.69,-10.48 19.94,-16.98 33.76,-19.49 17.07,-3.09 32.23,0.98 45.39,12.27 13.17,11.24 21.55,26.69 25.09,46.34 5.28,29.19 -4.44,54.32 -29.17,75.4l-4.32 -4.57c7.5,-6.74 13.43,-15.54 17.73,-26.52 4.35,-10.99 5.47,-22.14 3.37,-33.59 -2.42,-13.5 -8.87,-23.17 -19.21,-29.06 -10.33,-5.82 -22.02,-7.58 -35.05,-5.22 -13.41,2.46 -23.92,9.22 -31.44,20.35 -7.54,11.18 -9.32,27.67 -5.37,49.55l-10.06 1.79c-2.83,-15.46 -6.57,-26.8 -11.24,-34.03 -4.67,-7.22 -11.1,-12.66 -19.32,-16.2 -8.19,-3.54 -17.12,-4.43 -26.82,-2.7 -11.18,2.01 -19.68,7.09 -25.6,15.2 -5.86,8.07 -7.77,18 -5.61,29.71 2.61,14.52 8.95,25.08 19.08,31.75 10.07,6.62 22.32,9.92 36.82,9.96l0.97 5.29z"/>
   <path id="_4" class="fil1" d="M369.87 1503.22c3.66,-14.44 8.94,-25.13 16.03,-32.12 9.84,-9.68 21.65,-14.28 35.35,-13.81 10.47,0.37 20.32,4.02 29.64,10.95 9.31,6.93 15.97,16.24 19.95,27.89 4.01,11.69 5.61,29.37 4.77,52.96l-3.49 99.17 -5.71 -0.21 0.25 -7.94c0.33,-8.73 -2.21,-15.13 -7.66,-19.15 -3.55,-2.49 -11.17,-3.97 -22.98,-4.39l-135.67 -4.7c-13.02,-0.47 -21.27,0.74 -24.76,3.6 -4.71,3.86 -7.15,9.79 -7.47,17.73l-0.26 7.94 -5.72 -0.21 3.17 -90.76c0.58,-16.94 2.28,-30.48 5.13,-40.64 4.24,-15.35 11.28,-26.94 20.95,-34.77 9.74,-7.83 20.75,-11.54 33.08,-11.06 10.52,0.32 19.84,3.86 27.89,10.58 8.09,6.67 13.97,16.35 17.51,28.94zm-11.15 80.91c0.84,-3.81 1.53,-8.15 2.05,-13.06 0.53,-4.88 0.9,-10.27 1.12,-16.14 0.52,-15.08 -0.69,-26.46 -3.72,-34.19 -2.95,-7.67 -7.72,-13.65 -14.33,-17.93 -6.57,-4.24 -13.81,-6.52 -21.76,-6.83 -12.27,-0.42 -22.96,4.24 -31.95,13.97 -9.05,9.68 -13.86,24.13 -14.55,43.34 -0.37,10.33 0.47,19.69 2.44,27.99l80.7 2.85zm100.33 3.49c3.22,-11.9 5.02,-23.66 5.44,-35.35 0.63,-18.68 -3.07,-33.07 -11.17,-43.18 -8.05,-10.1 -18.26,-15.34 -30.69,-15.76 -8.15,-0.32 -16.04,1.64 -23.76,5.82 -7.67,4.18 -13.87,11.17 -18.57,21.06 -4.66,9.84 -7.25,22.17 -7.78,36.94 -0.21,6.4 -0.31,11.91 -0.26,16.45 0.05,4.55 0.27,8.2 0.69,11.01l86.1 3.01z"/>
   <path id="_5" class="fil1" d="M346.44 1213.9c-12.26,-2.95 -20.52,-2.82 -24.71,0.4 -4.19,3.16 -7.75,10.82 -10.6,22.88l-5.61 -1.35 21.08 -88.46 5.55 1.34c-2.57,12.75 -2.49,21.32 0.3,25.67 2.74,4.4 10.87,8.18 24.35,11.4l129.93 30.9c13.48,3.22 22.42,3.46 26.87,0.83 4.45,-2.68 8.39,-10.3 11.82,-22.82l5.55 1.29 -21.03 88.51 -5.6 -1.34c2.69,-13.06 2.61,-21.79 -0.23,-26.2 -2.79,-4.35 -10.94,-8.12 -24.25,-11.35l-117.28 -27.89 98.92 123.72c8.77,1.99 14.76,2.8 17.98,2.44 3.18,-0.36 6.1,-2.25 8.75,-5.69 2.61,-3.48 5.22,-10.09 7.74,-19.93l5.6 1.35 -20.97 88.2 -5.6 -1.34c2.63,-12.75 2.55,-21.32 -0.24,-25.73 -2.79,-4.34 -10.92,-8.17 -24.35,-11.34l-129.98 -30.95c-13.43,-3.17 -22.37,-3.47 -26.88,-0.84 -4.45,2.69 -8.34,10.3 -11.77,22.88l-5.6 -1.34 20.97 -88.19 5.61 1.33c-2.64,12.86 -2.55,21.49 0.24,25.88 2.74,4.35 10.87,8.13 24.35,11.35l117.7 28.01 -98.61 -123.62z"/>
   <path id="_6" class="fil1" d="M539.09 1151.76l-4.97 -2.92c0.16,-0.48 0.95,-2.23 2.33,-5.24 3.45,-7.19 4.57,-13 3.31,-17.4 -1.27,-4.4 -8.03,-10.12 -20.3,-17.23l-115.36 -67.11c-11.69,-6.79 -20,-9.71 -24.97,-8.71 -4.92,1 -10.53,6.28 -16.8,15.8l-4.96 -2.86 40.53 -69.69 4.96 2.86c-4.19,9.31 -5.31,16.13 -3.41,20.54 1.89,4.39 8.45,9.85 19.61,16.31l115.36 67.11c9.2,5.36 15.23,8.44 18.09,9.18 2.85,0.75 5.08,0.54 6.72,-0.57 1.58,-1.16 4.08,-4.55 7.32,-10.2l20.58 -35.37c5.19,-8.88 7.53,-14.6 7.06,-17.04 -0.47,-2.43 -7.08,-7.35 -19.77,-14.73l-115.37 -67.11c-10.89,-6.31 -18.76,-9.29 -23.69,-8.92 -4.87,0.41 -10.38,4.8 -16.42,13.2l-4.97 -2.87 38.88 -66.88 4.98 2.92c-4.26,9.36 -5.37,16.24 -3.37,20.63 2.06,4.4 8.56,9.81 19.55,16.23l115.37 67.1c11.79,6.85 19.09,10.04 21.84,9.61 2.75,-0.42 7.04,-5.65 12.83,-15.65l21.01 -36c2.81,-4.92 4.29,-8.41 4.3,-10.41 0.06,-2.02 -0.68,-3.72 -2.12,-5.09 -1.48,-1.38 -7.44,-5.14 -17.86,-11.19l-115.36 -67.11c-11.11,-6.46 -19.04,-9.44 -23.86,-8.97 -4.82,0.51 -10.27,4.9 -16.32,13.25l-4.91 -2.91 40.32 -69.42 4.97 2.91c-3.67,6.72 -5.58,12.26 -5.75,16.66 -0.16,4.39 1.1,8.05 3.74,10.96 2.7,2.92 8.25,6.84 16.77,11.77l115.36 67.11c9.36,5.47 15.6,8.54 18.61,9.23 3.08,0.7 6.45,0.33 10.12,-1.14 3.64,-1.43 8.05,-6.5 13.13,-15.12l57.21 33.31 -2.6 4.55c-17.13,-4.94 -31,-6.66 -41.58,-5.19 -10.58,1.52 -19.48,5.32 -26.63,11.45 -7.16,6.12 -15,16.59 -23.65,31.4l-109.86 188.96z"/>
   <path id="_7" class="fil1" d="M621.88 679.08l59.93 57.44 31.94 -33.35c8.29,-8.65 12.51,-15.69 12.7,-21.09 0.31,-7.14 -3.68,-15.13 -11.91,-23.84l3.97 -4.14 52.81 50.59 -3.96 4.13c-8.43,-6.01 -14.15,-9.5 -17.21,-10.49 -3.93,-1.16 -8.05,-0.89 -12.49,0.71 -4.45,1.65 -9.68,5.63 -15.75,11.94l-31.94 33.35 50.01 47.9c6.73,6.43 11.08,10.07 13.09,10.87 2.06,0.79 4.19,0.83 6.51,0.19 2.28,-0.69 5.39,-3.14 9.4,-7.27l24.66 -25.72c8.24,-8.59 13.56,-15.37 16.09,-20.41 2.53,-5.02 3.73,-11.01 3.67,-17.94 -0.18,-9.05 -2.58,-20.47 -7.27,-34.28l4.27 -4.45 25.51 49.53 -112.04 116.87 -4.13 -3.96 5.18 -5.35c3.42,-3.61 5.8,-7.8 7.16,-12.66 1.11,-3.5 0.83,-6.84 -0.71,-10.01 -1.59,-3.12 -6.05,-8.24 -13.42,-15.32l-98.53 -94.4c-9.65,-9.23 -16.48,-13.93 -20.61,-14.12 -5.55,-0.21 -11.32,2.87 -17.34,9.13l-5.12 5.35 -4.13 -3.95 111.98 -116.93 34.82 30.19 -4.16 4.35c-9.48,-6.07 -16.64,-9.59 -21.4,-10.54 -4.82,-0.99 -9.79,-0.35 -14.92,1.89 -4.02,1.91 -9.62,6.64 -16.8,14.16l-39.86 41.63z"/>
   <path id="_8" class="fil1" d="M1071.48 578.06l2.95 4.9 -77.42 45.99 -2.95 -4.96 6.43 -3.8c7.43,-4.45 11.58,-9.81 12.38,-16.17 0.45,-4.14 -2.57,-11.57 -8.99,-22.43l-69.27 -116.74c-5.47,-9.12 -9.64,-14.8 -12.5,-17.06 -2.24,-1.73 -5.15,-2.56 -8.87,-2.48 -5.18,0.2 -9.93,1.55 -14.14,4.07l-6.43 3.8 -2.95 -4.95 77.43 -45.94 2.94 4.9 -6.54 3.91c-7.38,4.34 -11.47,9.7 -12.22,16.07 -0.55,4.18 2.41,11.68 8.83,22.53l69.28 116.68c5.46,9.17 9.63,14.86 12.51,17.12 2.23,1.68 5.2,2.5 9,2.43 5.09,-0.15 9.73,-1.5 14,-4.02l6.53 -3.85z"/>
   <path id="_9" class="fil1" d="M1229.77 525.46l-124.23 -149.68 36.4 135.57c3.33,12.46 6.76,19.9 10.29,22.25 4.84,3.23 11.24,3.75 19.2,1.59l7.21 -1.9 1.48 5.53 -70.63 18.94 -1.5 -5.53 7.17 -1.89c8.58,-2.31 13.96,-6.55 16.18,-12.73 1.36,-3.74 0.47,-11.32 -2.55,-22.72l-35.59 -132.54c-2.41,-9.01 -5.16,-15.23 -8.25,-18.69 -2.15,-2.51 -5.36,-4.23 -9.64,-5.17 -4.28,-0.93 -10.53,-0.29 -18.8,1.91l-1.49 -5.51 57.44 -15.46 116.27 139.04 29.79 -178.2 57.43 -15.45 1.5 5.57 -7 1.84c-8.71,2.37 -14.14,6.61 -16.35,12.73 -1.31,3.8 -0.47,11.37 2.61,22.72l35.57 132.6c3.34,12.46 6.83,19.9 10.46,22.2 4.78,3.21 11.19,3.74 19.19,1.59l7 -1.85 1.5 5.52 -86.19 23.15 -1.49 -5.57 7.21 -1.9c8.65,-2.36 14.02,-6.55 16.14,-12.73 1.36,-3.74 0.52,-11.32 -2.57,-22.72l-36.39 -135.55 -32.44 191.77 -4.93 1.27z"/>
   <path id="_10" class="fil1" d="M1415.77 359.34l-13.42 -44.67c-3.81,-12.34 -5.93,-20.72 -6.43,-25.16 -0.72,-6.57 0.05,-11.49 2.4,-14.75 2.34,-3.28 5.84,-5.21 10.45,-5.73 4.6,-0.5 8.62,0.58 11.99,3.25 3.37,2.71 5.31,6.53 5.87,11.46 0.41,3.81 0.14,13.27 -0.83,28.46l-3.25 46.39 -6.78 0.75z"/>
   <path id="_11" class="fil1" d="M1487.12 473.39l56.1 1.96 74.49 -95.68c5.24,0.37 9.53,0.63 12.87,0.74 1.32,0.05 2.75,0.05 4.34,0.05 1.53,0.01 3.12,0 4.81,-0.05l-2.16 61.01c-0.42,13.23 -2.17,21.38 -5.19,24.51 -4.08,4.39 -10.05,6.45 -17.89,6.19l-8.2 -0.32 -0.21 5.77 90.01 3.11 0.16 -5.72 -7.88 -0.26c-8.9,-0.32 -15.14,-3.44 -18.74,-9.37 -2.06,-3.27 -2.91,-10.9 -2.48,-22.86l4.74 -135.68c0.49,-13.22 2.17,-21.37 5.19,-24.49 4.18,-4.4 10.26,-6.46 18.21,-6.2l7.88 0.33 0.21 -5.78 -76.52 -2.64c-22.28,-0.79 -38.79,0.27 -49.47,3.13 -10.7,2.91 -19.9,8.57 -27.57,17.04 -7.67,8.47 -11.75,18.74 -12.17,30.85 -0.47,12.91 3.39,24.24 11.43,34.03 8.09,9.78 20.9,16.98 38.42,21.48l-45.45 58.74c-10.42,13.5 -19.26,22.38 -26.51,26.67 -7.31,4.29 -16.67,6.88 -28.2,7.73l-0.22 5.71zm152.92 -102.72c-1.96,-0.1 -3.65,-0.1 -5.13,-0.1 -1.43,0 -2.59,0 -3.54,-0.06 -20.01,-0.68 -34.98,-5.55 -44.83,-14.6 -9.89,-9.05 -14.6,-20.27 -14.12,-33.65 0.47,-13.12 4.91,-23.65 13.43,-31.59 8.52,-7.89 19.53,-11.65 33.02,-11.17 5.98,0.21 14.08,1.47 24.24,3.81l-3.07 87.36z"/>
   <path id="_12" class="fil1" d="M2093.6 399.4l-89.01 -39.63 -65.24 146.48c-5.6,12.64 -7.56,21.43 -5.81,26.24 1.74,4.87 8.51,10.16 20.32,15.88l-2.34 5.23 -82.66 -36.82 2.34 -5.24c12.06,4.92 20.48,6.4 25.3,4.49 4.81,-1.95 10.05,-9.2 15.66,-21.85l54.33 -122.03c5.61,-12.65 7.57,-21.37 5.77,-26.25 -1.8,-4.86 -8.57,-10.15 -20.27,-15.82l2.33 -5.23 198.87 88.52 -2.33 5.24c-12.07,-4.92 -20.48,-6.4 -25.3,-4.51 -4.81,1.97 -10.04,9.27 -15.66,21.92l-54.34 121.97c-5.61,12.65 -7.57,21.44 -5.76,26.3 1.79,4.87 8.57,10.11 20.26,15.78l-2.33 5.23 -82.49 -36.72 2.32 -5.24c11.96,4.87 20.32,6.35 25.14,4.5 4.76,-1.91 10,-9.21 15.66,-21.91l65.24 -146.53z"/>
   <path id="_13" class="fil1" d="M2318.56 516.02c22.06,16.04 35.07,38.38 38.97,66.9 3.96,28.53 -3.2,55.3 -21.51,80.37 -18.8,25.77 -42.57,41.26 -71.31,46.43 -28.68,5.12 -54.61,-0.76 -77.72,-17.59 -23.38,-17.1 -36.98,-39.71 -40.78,-67.97 -3.74,-28.21 3.99,-55.51 23.21,-81.9 19.71,-26.93 44.96,-42.27 75.75,-45.85 26.73,-3.17 51.22,3.41 73.39,19.61zm-9.05 7.4c-15.19,-11.11 -31.48,-14.35 -48.89,-9.81 -21.71,5.71 -42.4,22.06 -62.15,49.08 -20.22,27.73 -29.87,53.38 -28.87,76.98 0.78,17.99 8.66,32.45 23.64,43.35 15.92,11.66 33.64,15.05 53.12,10.18 19.47,-4.86 38.96,-20.67 58.55,-47.49 21.17,-29.04 31.29,-54.87 30.25,-77.51 -0.9,-18.05 -9.41,-32.97 -25.65,-44.78z"/>
   <path id="_14" class="fil1" d="M2601.92 810.92l-34.5 30.31 -3.48 -4.35c9.56,-11.87 13.78,-21.76 12.64,-29.65 -1.14,-7.88 -7.18,-18.7 -18.14,-32.39l-22.03 -27.64 -65.05 51.95 5.22 6.53c16.07,20.11 26.59,35.86 31.58,47.36 4.99,11.51 6.27,23.05 3.85,34.73 -2.47,11.68 -8.75,21.51 -18.82,29.57 -12.21,9.75 -26.52,13.77 -42.92,12.08 -16.44,-1.7 -33.5,-13.61 -51.15,-35.74l-55.49 -69.51 4.46 -3.58c8.49,9.92 15.3,15.13 20.43,15.62 5.18,0.55 13.19,-3.55 23.96,-12.19l104.42 -83.3c8.28,-6.65 13.44,-11.7 15.4,-15.25 1.97,-3.48 2.51,-7.02 1.63,-10.67 -0.94,-3.61 -4.04,-9.18 -9.42,-16.71l4.51 -3.59 92.9 116.42zm-210.95 52.41c4.52,8 8.37,14 11.53,17.92 7.95,9.98 18.41,16.31 31.47,19.06 13,2.74 25.4,-0.55 37.08,-9.93 12.15,-9.64 17.75,-21 16.89,-34.08 -0.86,-13.06 -6.43,-26.05 -16.75,-39 -2.9,-3.61 -6.11,-7.06 -9.75,-10.25l-70.47 56.28z"/>
   <path id="_15" class="fil1" d="M2596.59 1087.53l-33.94 -73.99 -36.08 0.91c-8.9,0.21 -15.13,1.15 -18.83,2.81 -2.91,1.34 -4.84,3.9 -5.78,7.71 -0.92,3.77 0.38,10.42 4,19.93l-5.24 2.35 -27.61 -60.1 5.22 -2.42c5.08,7.33 9.28,11.64 12.62,13 6.69,2.71 18.28,3.81 34.74,3.28l188.03 -4.89 2.25 4.9 -128.37 139.37c-10.3,11.22 -16.39,19.9 -18.15,25.99 -1.81,6.09 -1.14,13.19 1.93,21.2l-5.17 2.37 -34.59 -75.37 5.22 -2.35c3.86,7.39 7.48,11.97 10.88,13.64 3.39,1.67 6.62,1.81 9.69,0.41 4.16,-1.93 9.79,-6.77 17,-14.6l22.18 -24.15zm8.63 -8.73l62.3 -67.81 -92.44 2.15 30.14 65.66z"/>
   <path id="_16" class="fil1" d="M2819.44 1344.38l-47.52 13.39 -1.32 -5.77c8.2,-3.06 13.91,-5.97 17.08,-8.72 5.13,-4.45 8.47,-9.59 10.06,-15.4 1.53,-5.83 1.37,-12.97 -0.58,-21.44l-6.68 -28.84 -156.41 36.11c-12.6,2.91 -20.11,6.09 -22.6,9.53 -3.38,4.81 -4.12,11.16 -2.28,19.15l1.65 7.09 -5.61 1.28 -20.06 -86.84 5.61 -1.27 1.64 7.25c2,8.68 6.09,14.18 12.12,16.62 3.75,1.48 11.37,0.84 22.8,-1.81l156.48 -36.1 -5.73 -24.61c-2.17,-9.57 -4.44,-16.19 -6.82,-19.89 -3.12,-4.82 -7.83,-8.41 -14.13,-10.9 -6.29,-2.49 -14.13,-2.97 -23.55,-1.54l-1.32 -5.76 48.58 -8.69 38.59 167.16z"/>
   <path id="_17" class="fil1" d="M2737.12 1491.45l0.28 8.36c0.91,25.72 -0.04,44.66 -2.83,56.83 -2.85,12.23 -8.72,22.28 -17.66,30.18 -8.88,7.94 -19.83,12.13 -32.69,12.56 -15.61,0.53 -29.48,-4.75 -41.65,-15.91 -12.23,-11.1 -18.81,-30.84 -19.83,-59.15l-3.12 -88.89 5.71 -0.17c0.86,12.97 3.24,21.22 7.11,24.72 3.8,3.48 12.64,4.96 26.51,4.48l133.51 -4.74c13.81,-0.55 22.54,-2.61 26.13,-6.37 3.55,-3.76 5.34,-12.12 5.28,-25.19l5.72 -0.16 3.22 90.43 -5.71 0.21c-0.91,-13.01 -3.24,-21.27 -7.11,-24.7 -3.81,-3.5 -12.65,-5.03 -26.51,-4.48l-56.36 1.99zm-102.81 3.66c-1.16,9.1 -1.63,16.19 -1.42,21.28 0.43,12.69 5.05,24.01 13.89,34 8.84,9.95 20.75,14.71 35.72,14.16 15.45,-0.53 26.77,-6.31 33.86,-17.32 7.14,-11.01 10.35,-24.77 9.82,-41.27 -0.17,-4.66 -0.74,-9.37 -1.75,-14.08l-90.12 3.23z"/>
   <path id="_18" class="fil1" d="M2592.58 1848.73l-5.67 -1.03 9.81 -53.34c10.29,-4.08 29.98,-13.08 59,-27.01 29.08,-13.87 45.38,-22.59 48.91,-26.15 3.52,-3.57 6.14,-9.46 7.72,-17.67l-61.71 -11.29c-13.61,-2.52 -22.61,-2.31 -26.87,0.52 -4.33,2.84 -7.83,10.69 -10.61,23.51l-5.67 -1.02 16.31 -89.05 5.62 1.02c-1.89,12.82 -1.36,21.33 1.58,25.61 2.93,4.27 11.26,7.66 24.97,10.17l131.38 24.01c13.62,2.52 22.55,2.31 26.88,-0.58 4.32,-2.88 7.82,-10.68 10.61,-23.45l5.62 1.02 -16.27 89.05 -5.67 -1.03c1.99,-13.02 1.41,-21.59 -1.57,-25.75 -3.04,-4.17 -11.32,-7.51 -24.94,-9.97l-57.63 -10.56c-1.95,11.07 -2.59,18.9 -1.98,23.39 0.55,4.55 2.81,9.93 6.7,16.15 3.91,6.23 8.43,11.39 13.49,15.54 5.05,4.1 13.6,9.82 25.59,17.05 11.27,6.77 19.02,12.06 23.17,15.8 4.2,3.78 7.41,9.17 9.67,16.19 2.22,7.03 2.52,14.96 0.94,23.8 -2.87,15.63 -9.83,22.45 -20.8,20.44 -3.86,-0.71 -6.88,-2.86 -9.18,-6.5 -2.3,-3.59 -3.06,-7.39 -2.35,-11.37 0.52,-2.85 3.03,-7.32 7.5,-13.42 4.04,-5.38 6.24,-9.2 6.7,-11.53 0.57,-3.28 -0.62,-6.35 -3.59,-9.35 -2.99,-2.94 -10.96,-8.24 -23.91,-15.84 -24.26,-14.51 -38.48,-29.99 -42.7,-46.43 -3.34,8.97 -18.31,19.43 -45.02,31.48 -28.23,12.76 -47.33,22.44 -57.24,29.06 -9.97,6.57 -16.21,16.08 -18.79,28.53z"/>
   <path id="_19" class="fil1" d="M2737.22 2048.92c-10.29,25.23 -28.83,43.19 -55.51,53.91 -26.74,10.72 -54.46,10.2 -83.14,-1.47 -29.56,-12.04 -50.28,-31.38 -62.22,-57.96 -11.93,-26.63 -12.48,-53.19 -1.65,-79.69 10.88,-26.77 29.58,-45.38 56.04,-55.88 26.42,-10.45 54.79,-9.51 85.04,2.8 30.89,12.57 51.82,33.34 62.74,62.35 9.5,25.15 9.05,50.49 -1.3,75.94zm-9.35 -7c7.05,-17.4 6.28,-34.02 -2.33,-49.8 -10.72,-19.65 -31.6,-35.8 -62.6,-48.43 -31.74,-12.95 -58.94,-16.11 -81.65,-9.46 -17.2,5.11 -29.33,16.22 -36.33,33.35 -7.43,18.3 -6.44,36.29 2.96,53.98 9.39,17.73 29.44,32.84 60.16,45.36 33.28,13.54 60.79,17.1 82.49,10.68 17.31,-5.22 29.71,-17.12 37.3,-35.68z"/>
   <path id="_20" class="fil1" d="M2479.29 2278.19c-11.06,9.93 -21.54,15.81 -31.28,17.66 -13.59,2.48 -25.98,-0.34 -37.03,-8.43 -8.46,-6.15 -14.6,-14.71 -18.41,-25.73 -3.8,-10.95 -4.11,-22.38 -0.88,-34.29 3.29,-11.9 11.86,-27.4 25.79,-46.5l58.5 -80.15 4.66 3.34 -4.66 6.4c-5.18,7.09 -6.68,13.87 -4.41,20.21 1.54,4.08 7.04,9.59 16.57,16.52l109.71 80.06c10.54,7.67 18.04,11.33 22.54,10.91 6.08,-0.58 11.43,-4.08 16.15,-10.53l4.65 -6.4 4.61 3.4 -53.53 73.37c-10.01,13.7 -19.01,23.96 -27.06,30.78 -12.17,10.31 -24.45,15.97 -36.88,16.97 -12.49,1.06 -23.66,-2.07 -33.61,-9.32 -8.51,-6.2 -14.23,-14.36 -17.18,-24.46 -2.96,-10.05 -2.37,-21.32 1.75,-33.81zm54.65 -60.68c-2.81,2.64 -5.83,5.88 -9.01,9.63 -3.18,3.76 -6.51,7.98 -10,12.75 -8.9,12.17 -14.24,22.33 -16.1,30.37 -1.86,8.03 -1.29,15.66 1.79,22.91 3.06,7.19 7.78,13.18 14.22,17.84 9.95,7.25 21.38,9.38 34.29,6.41 12.92,-2.95 25.04,-12.2 36.36,-27.76 6.09,-8.36 10.65,-16.51 13.72,-24.54l-65.27 -47.61zm-81.16 -59.25c-9.31,8.05 -17.41,16.78 -24.29,26.24 -11.02,15.08 -16,29.1 -15,42.01 1,12.86 6.5,22.97 16.55,30.28 6.56,4.82 14.23,7.68 22.97,8.53 8.73,0.84 17.77,-1.48 27.2,-7.03 9.42,-5.55 18.47,-14.28 27.2,-26.24 3.77,-5.12 6.89,-9.63 9.43,-13.43 2.5,-3.81 4.39,-6.98 5.61,-9.52l-69.67 -50.84z"/>
   <path id="_21" class="fil1" d="M2265.77 2357.6l-3.96 -4.13 65.03 -62.17 3.96 4.19 -5.35 5.12c-6.25,5.97 -9.07,12.15 -8.44,18.5 0.52,4.14 5.11,10.71 13.83,19.82l93.7 98.12c7.34,7.68 12.67,12.3 16,13.78 2.54,1.18 5.61,1.34 9.21,0.44 4.98,-1.31 9.26,-3.74 12.88,-7.12l5.35 -5.17 3.95 4.18 -65.03 62.17 -3.96 -4.18 5.46 -5.23c6.2,-5.92 8.96,-12.05 8.34,-18.46 -0.42,-4.13 -5.01,-10.8 -13.67,-19.86l-93.75 -98.13c-7.35,-7.68 -12.68,-12.29 -16.01,-13.83 -2.54,-1.17 -5.61,-1.23 -9.32,-0.34 -4.92,1.32 -9.16,3.64 -12.76,7.07l-5.46 5.23z"/>
   <path id="_22" class="fil2 str3" d="M559.99 2350.09l64.23 73.33 120.6 -105.67c10.4,-9.12 15.84,-16.27 16.3,-21.36 0.46,-5.13 -3.52,-12.79 -11.84,-22.94l4.33 -3.77 59.61 68.04 -4.32 3.82c-8.87,-9.56 -15.92,-14.41 -21.1,-14.72 -5.18,-0.26 -12.95,4.15 -23.36,13.27l-100.47 88c-10.41,9.13 -15.84,16.28 -16.25,21.47 -0.42,5.13 3.52,12.74 11.79,22.83l-4.33 3.77 -143.37 -163.74 4.28 -3.77c8.91,9.56 15.91,14.41 21.09,14.67 5.19,0.31 13.01,-4.16 23.41,-13.23l100.42 -88c10.4,-9.12 15.84,-16.27 16.25,-21.46 0.41,-5.13 -3.51,-12.74 -11.8,-22.84l4.34 -3.77 59.51 67.93 -4.33 3.77c-8.81,-9.4 -15.8,-14.31 -20.93,-14.61 -5.14,-0.31 -12.96,4.15 -23.42,13.33l-120.64 105.65z"/>
   <path id="_23" class="fil2 str3" d="M535.56 2138.08l52.65 -31.21c11.32,-6.75 17.7,-12.19 18.94,-16.33 1.91,-5.68 0.86,-11.96 -3.2,-18.81l-4.12 -6.91 4.9 -2.94 45.98 77.42 -4.95 2.94 -4.02 -6.8c-4.55,-7.64 -10.29,-11.62 -17.18,-12 -3.81,-0.13 -10.87,2.88 -21.21,8.99l-116.68 69.27c-11.38,6.75 -17.75,12.14 -19.09,16.22 -1.81,5.78 -0.71,12.07 3.35,18.92l4.01 6.8 -4.94 2.89 -39.3 -66.19c-9.59,-16.18 -15.5,-29.9 -17.69,-41.21 -2.2,-11.31 -1.27,-22.53 2.83,-33.62 4.11,-11.09 11.61,-19.82 22.42,-26.24 14.76,-8.78 29.61,-11.06 44.67,-6.77 15,4.24 27.78,15.21 38.32,32.97 2.57,4.38 5.04,9.28 7.47,14.72 2.36,5.43 4.68,11.4 6.84,17.89zm-7.59 4.49c-1.89,-5.22 -3.72,-9.76 -5.44,-13.66 -1.73,-3.91 -3.33,-7.17 -4.88,-9.76 -5.47,-9.23 -13.81,-15.09 -24.94,-17.56 -11.14,-2.46 -22.39,-0.32 -33.72,6.48 -7.86,4.61 -14.16,10.52 -18.98,17.7 -4.77,7.17 -7.1,14.71 -6.99,22.54 0.15,7.83 2.49,15.49 6.88,22.97 2.72,4.53 6.99,9.85 12.91,15.94l75.16 -44.65z"/>
   <path id="_24" class="fil2 str3" d="M518.87 1873.23l5.38 -1.94 30.54 84.69 -5.39 1.96 -2.48 -6.97c-2.98,-8.18 -7.51,-13.28 -13.61,-15.24 -3.92,-1.2 -11.85,0.3 -23.68,4.62l-127.71 46.05c-10.03,3.62 -16.41,6.64 -19.19,9.03 -2.05,1.87 -3.41,4.59 -4.12,8.24 -0.76,5.14 -0.29,10 1.38,14.7l2.49 6.97 -5.38 1.94 -30.54 -84.7 5.38 -1.94 2.59 7.17c2.92,8.03 7.4,13.07 13.5,15.04 3.98,1.29 11.91,-0.15 23.78,-4.47l127.71 -46.06c10.03,-3.62 16.41,-6.62 19.15,-9.03 2.04,-1.87 3.4,-4.63 4.06,-8.39 0.81,-5.04 0.41,-9.85 -1.27,-14.54l-2.59 -7.13z"/>
   <path id="_25" class="fil2 str3" d="M357.53 1849.45l-60.12 10.93 -0.92 -5.35c6.37,-2.87 9.09,-7.2 8.01,-13.13 -0.41,-2.22 -2.65,-6.74 -6.74,-13.59 -6.24,-10.72 -10.51,-22.39 -12.83,-35 -3.07,-17.11 -0.39,-31.74 7.99,-43.98 8.38,-12.23 19.42,-19.62 33.14,-22.09 12.56,-2.3 23.97,-0.28 34.26,5.91 10.34,6.21 18.75,15.41 25.24,27.57 0.03,-14.5 4.34,-26.97 12.97,-37.5 8.69,-10.48 19.94,-16.98 33.76,-19.49 17.07,-3.09 32.23,0.98 45.39,12.27 13.17,11.24 21.55,26.69 25.09,46.34 5.28,29.19 -4.44,54.32 -29.17,75.4l-4.32 -4.57c7.5,-6.74 13.43,-15.54 17.73,-26.52 4.35,-10.99 5.47,-22.14 3.37,-33.59 -2.42,-13.5 -8.87,-23.17 -19.21,-29.06 -10.33,-5.82 -22.02,-7.58 -35.05,-5.22 -13.41,2.46 -23.92,9.22 -31.44,20.35 -7.54,11.18 -9.32,27.67 -5.37,49.55l-10.06 1.79c-2.83,-15.46 -6.57,-26.8 -11.24,-34.03 -4.67,-7.22 -11.1,-12.66 -19.32,-16.2 -8.19,-3.54 -17.12,-4.43 -26.82,-2.7 -11.18,2.01 -19.68,7.09 -25.6,15.2 -5.86,8.07 -7.77,18 -5.61,29.71 2.61,14.52 8.95,25.08 19.08,31.75 10.07,6.62 22.32,9.92 36.82,9.96l0.97 5.29z"/>
   <path id="_26" class="fil2 str3" d="M369.87 1503.22c3.66,-14.44 8.94,-25.13 16.03,-32.12 9.84,-9.68 21.65,-14.28 35.35,-13.81 10.47,0.37 20.32,4.02 29.64,10.95 9.31,6.93 15.97,16.24 19.95,27.89 4.01,11.69 5.61,29.37 4.77,52.96l-3.49 99.17 -5.71 -0.21 0.25 -7.94c0.33,-8.73 -2.21,-15.13 -7.66,-19.15 -3.55,-2.49 -11.17,-3.97 -22.98,-4.39l-135.67 -4.7c-13.02,-0.47 -21.27,0.74 -24.76,3.6 -4.71,3.86 -7.15,9.79 -7.47,17.73l-0.26 7.94 -5.72 -0.21 3.17 -90.76c0.58,-16.94 2.28,-30.48 5.13,-40.64 4.24,-15.35 11.28,-26.94 20.95,-34.77 9.74,-7.83 20.75,-11.54 33.08,-11.06 10.52,0.32 19.84,3.86 27.89,10.58 8.09,6.67 13.97,16.35 17.51,28.94zm-11.15 80.91c0.84,-3.81 1.53,-8.15 2.05,-13.06 0.53,-4.88 0.9,-10.27 1.12,-16.14 0.52,-15.08 -0.69,-26.46 -3.72,-34.19 -2.95,-7.67 -7.72,-13.65 -14.33,-17.93 -6.57,-4.24 -13.81,-6.52 -21.76,-6.83 -12.27,-0.42 -22.96,4.24 -31.95,13.97 -9.05,9.68 -13.86,24.13 -14.55,43.34 -0.37,10.33 0.47,19.69 2.44,27.99l80.7 2.85zm100.33 3.49c3.22,-11.9 5.02,-23.66 5.44,-35.35 0.63,-18.68 -3.07,-33.07 -11.17,-43.18 -8.05,-10.1 -18.26,-15.34 -30.69,-15.76 -8.15,-0.32 -16.04,1.64 -23.76,5.82 -7.67,4.18 -13.87,11.17 -18.57,21.06 -4.66,9.84 -7.25,22.17 -7.78,36.94 -0.21,6.4 -0.31,11.91 -0.26,16.45 0.05,4.55 0.27,8.2 0.69,11.01l86.1 3.01z"/>
   <path id="_27" class="fil2 str3" d="M346.44 1213.9c-12.26,-2.95 -20.52,-2.82 -24.71,0.4 -4.19,3.16 -7.75,10.82 -10.6,22.88l-5.61 -1.35 21.08 -88.46 5.55 1.34c-2.57,12.75 -2.49,21.32 0.3,25.67 2.74,4.4 10.87,8.18 24.35,11.4l129.93 30.9c13.48,3.22 22.42,3.46 26.87,0.83 4.45,-2.68 8.39,-10.3 11.82,-22.82l5.55 1.29 -21.03 88.51 -5.6 -1.34c2.69,-13.06 2.61,-21.79 -0.23,-26.2 -2.79,-4.35 -10.94,-8.12 -24.25,-11.35l-117.28 -27.89 98.92 123.72c8.77,1.99 14.76,2.8 17.98,2.44 3.18,-0.36 6.1,-2.25 8.75,-5.69 2.61,-3.48 5.22,-10.09 7.74,-19.93l5.6 1.35 -20.97 88.2 -5.6 -1.34c2.63,-12.75 2.55,-21.32 -0.24,-25.73 -2.79,-4.34 -10.92,-8.17 -24.35,-11.34l-129.98 -30.95c-13.43,-3.17 -22.37,-3.47 -26.88,-0.84 -4.45,2.69 -8.34,10.3 -11.77,22.88l-5.6 -1.34 20.97 -88.19 5.61 1.33c-2.64,12.86 -2.55,21.49 0.24,25.88 2.74,4.35 10.87,8.13 24.35,11.35l117.7 28.01 -98.61 -123.62z"/>
   <path id="_28" class="fil2 str3" d="M539.09 1151.76l-4.97 -2.92c0.16,-0.48 0.95,-2.23 2.33,-5.24 3.45,-7.19 4.57,-13 3.31,-17.4 -1.27,-4.4 -8.03,-10.12 -20.3,-17.23l-115.36 -67.11c-11.69,-6.79 -20,-9.71 -24.97,-8.71 -4.92,1 -10.53,6.28 -16.8,15.8l-4.96 -2.86 40.53 -69.69 4.96 2.86c-4.19,9.31 -5.31,16.13 -3.41,20.54 1.89,4.39 8.45,9.85 19.61,16.31l115.36 67.11c9.2,5.36 15.23,8.44 18.09,9.18 2.85,0.75 5.08,0.54 6.72,-0.57 1.58,-1.16 4.08,-4.55 7.32,-10.2l20.58 -35.37c5.19,-8.88 7.53,-14.6 7.06,-17.04 -0.47,-2.43 -7.08,-7.35 -19.77,-14.73l-115.37 -67.11c-10.89,-6.31 -18.76,-9.29 -23.69,-8.92 -4.87,0.41 -10.38,4.8 -16.42,13.2l-4.97 -2.87 38.88 -66.88 4.98 2.92c-4.26,9.36 -5.37,16.24 -3.37,20.63 2.06,4.4 8.56,9.81 19.55,16.23l115.37 67.1c11.79,6.85 19.09,10.04 21.84,9.61 2.75,-0.42 7.04,-5.65 12.83,-15.65l21.01 -36c2.81,-4.92 4.29,-8.41 4.3,-10.41 0.06,-2.02 -0.68,-3.72 -2.12,-5.09 -1.48,-1.38 -7.44,-5.14 -17.86,-11.19l-115.36 -67.11c-11.11,-6.46 -19.04,-9.44 -23.86,-8.97 -4.82,0.51 -10.27,4.9 -16.32,13.25l-4.91 -2.91 40.32 -69.42 4.97 2.91c-3.67,6.72 -5.58,12.26 -5.75,16.66 -0.16,4.39 1.1,8.05 3.74,10.96 2.7,2.92 8.25,6.84 16.77,11.77l115.36 67.11c9.36,5.47 15.6,8.54 18.61,9.23 3.08,0.7 6.45,0.33 10.12,-1.14 3.64,-1.43 8.05,-6.5 13.13,-15.12l57.21 33.31 -2.6 4.55c-17.13,-4.94 -31,-6.66 -41.58,-5.19 -10.58,1.52 -19.48,5.32 -26.63,11.45 -7.16,6.12 -15,16.59 -23.65,31.4l-109.86 188.96z"/>
   <path id="_29" class="fil2 str3" d="M621.88 679.08l59.93 57.44 31.94 -33.35c8.29,-8.65 12.51,-15.69 12.7,-21.09 0.31,-7.14 -3.68,-15.13 -11.91,-23.84l3.97 -4.14 52.81 50.59 -3.96 4.13c-8.43,-6.01 -14.15,-9.5 -17.21,-10.49 -3.93,-1.16 -8.05,-0.89 -12.49,0.71 -4.45,1.65 -9.68,5.63 -15.75,11.94l-31.94 33.35 50.01 47.9c6.73,6.43 11.08,10.07 13.09,10.87 2.06,0.79 4.19,0.83 6.51,0.19 2.28,-0.69 5.39,-3.14 9.4,-7.27l24.66 -25.72c8.24,-8.59 13.56,-15.37 16.09,-20.41 2.53,-5.02 3.73,-11.01 3.67,-17.94 -0.18,-9.05 -2.58,-20.47 -7.27,-34.28l4.27 -4.45 25.51 49.53 -112.04 116.87 -4.13 -3.96 5.18 -5.35c3.42,-3.61 5.8,-7.8 7.16,-12.66 1.11,-3.5 0.83,-6.84 -0.71,-10.01 -1.59,-3.12 -6.05,-8.24 -13.42,-15.32l-98.53 -94.4c-9.65,-9.23 -16.48,-13.93 -20.61,-14.12 -5.55,-0.21 -11.32,2.87 -17.34,9.13l-5.12 5.35 -4.13 -3.95 111.98 -116.93 34.82 30.19 -4.16 4.35c-9.48,-6.07 -16.64,-9.59 -21.4,-10.54 -4.82,-0.99 -9.79,-0.35 -14.92,1.89 -4.02,1.91 -9.62,6.64 -16.8,14.16l-39.86 41.63z"/>
   <path id="_30" class="fil2 str3" d="M1071.48 578.06l2.95 4.9 -77.42 45.99 -2.95 -4.96 6.43 -3.8c7.43,-4.45 11.58,-9.81 12.38,-16.17 0.45,-4.14 -2.57,-11.57 -8.99,-22.43l-69.27 -116.74c-5.47,-9.12 -9.64,-14.8 -12.5,-17.06 -2.24,-1.73 -5.15,-2.56 -8.87,-2.48 -5.18,0.2 -9.93,1.55 -14.14,4.07l-6.43 3.8 -2.95 -4.95 77.43 -45.94 2.94 4.9 -6.54 3.91c-7.38,4.34 -11.47,9.7 -12.22,16.07 -0.55,4.18 2.41,11.68 8.83,22.53l69.28 116.68c5.46,9.17 9.63,14.86 12.51,17.12 2.23,1.68 5.2,2.5 9,2.43 5.09,-0.15 9.73,-1.5 14,-4.02l6.53 -3.85z"/>
   <path id="_31" class="fil2 str3" d="M1229.77 525.46l-124.23 -149.68 36.4 135.57c3.33,12.46 6.76,19.9 10.29,22.25 4.84,3.23 11.24,3.75 19.2,1.59l7.21 -1.9 1.48 5.53 -70.63 18.94 -1.5 -5.53 7.17 -1.89c8.58,-2.31 13.96,-6.55 16.18,-12.73 1.36,-3.74 0.47,-11.32 -2.55,-22.72l-35.59 -132.54c-2.41,-9.01 -5.16,-15.23 -8.25,-18.69 -2.15,-2.51 -5.36,-4.23 -9.64,-5.17 -4.28,-0.93 -10.53,-0.29 -18.8,1.91l-1.49 -5.51 57.44 -15.46 116.27 139.04 29.79 -178.2 57.43 -15.45 1.5 5.57 -7 1.84c-8.71,2.37 -14.14,6.61 -16.35,12.73 -1.31,3.8 -0.47,11.37 2.61,22.72l35.57 132.6c3.34,12.46 6.83,19.9 10.46,22.2 4.78,3.21 11.19,3.74 19.19,1.59l7 -1.85 1.5 5.52 -86.19 23.15 -1.49 -5.57 7.21 -1.9c8.65,-2.36 14.02,-6.55 16.14,-12.73 1.36,-3.74 0.52,-11.32 -2.57,-22.72l-36.39 -135.55 -32.44 191.77 -4.93 1.27z"/>
   <path id="_32" class="fil2 str3" d="M1415.77 359.34l-13.42 -44.67c-3.81,-12.34 -5.93,-20.72 -6.43,-25.16 -0.72,-6.57 0.05,-11.49 2.4,-14.75 2.34,-3.28 5.84,-5.21 10.45,-5.73 4.6,-0.5 8.62,0.58 11.99,3.25 3.37,2.71 5.31,6.53 5.87,11.46 0.41,3.81 0.14,13.27 -0.83,28.46l-3.25 46.39 -6.78 0.75z"/>
   <path id="_33" class="fil2 str3" d="M1487.12 473.39l56.1 1.96 74.49 -95.68c5.24,0.37 9.53,0.63 12.87,0.74 1.32,0.05 2.75,0.05 4.34,0.05 1.53,0.01 3.12,0 4.81,-0.05l-2.16 61.01c-0.42,13.23 -2.17,21.38 -5.19,24.51 -4.08,4.39 -10.05,6.45 -17.89,6.19l-8.2 -0.32 -0.21 5.77 90.01 3.11 0.16 -5.72 -7.88 -0.26c-8.9,-0.32 -15.14,-3.44 -18.74,-9.37 -2.06,-3.27 -2.91,-10.9 -2.48,-22.86l4.74 -135.68c0.49,-13.22 2.17,-21.37 5.19,-24.49 4.18,-4.4 10.26,-6.46 18.21,-6.2l7.88 0.33 0.21 -5.78 -76.52 -2.64c-22.28,-0.79 -38.79,0.27 -49.47,3.13 -10.7,2.91 -19.9,8.57 -27.57,17.04 -7.67,8.47 -11.75,18.74 -12.17,30.85 -0.47,12.91 3.39,24.24 11.43,34.03 8.09,9.78 20.9,16.98 38.42,21.48l-45.45 58.74c-10.42,13.5 -19.26,22.38 -26.51,26.67 -7.31,4.29 -16.67,6.88 -28.2,7.73l-0.22 5.71zm152.92 -102.72c-1.96,-0.1 -3.65,-0.1 -5.13,-0.1 -1.43,0 -2.59,0 -3.54,-0.06 -20.01,-0.68 -34.98,-5.55 -44.83,-14.6 -9.89,-9.05 -14.6,-20.27 -14.12,-33.65 0.47,-13.12 4.91,-23.65 13.43,-31.59 8.52,-7.89 19.53,-11.65 33.02,-11.17 5.98,0.21 14.08,1.47 24.24,3.81l-3.07 87.36z"/>
   <path id="_34" class="fil2 str3" d="M2093.6 399.4l-89.01 -39.63 -65.24 146.48c-5.6,12.64 -7.56,21.43 -5.81,26.24 1.74,4.87 8.51,10.16 20.32,15.88l-2.34 5.23 -82.66 -36.82 2.34 -5.24c12.06,4.92 20.48,6.4 25.3,4.49 4.81,-1.95 10.05,-9.2 15.66,-21.85l54.33 -122.03c5.61,-12.65 7.57,-21.37 5.77,-26.25 -1.8,-4.86 -8.57,-10.15 -20.27,-15.82l2.33 -5.23 198.87 88.52 -2.33 5.24c-12.07,-4.92 -20.48,-6.4 -25.3,-4.51 -4.81,1.97 -10.04,9.27 -15.66,21.92l-54.34 121.97c-5.61,12.65 -7.57,21.44 -5.76,26.3 1.79,4.87 8.57,10.11 20.26,15.78l-2.33 5.23 -82.49 -36.72 2.32 -5.24c11.96,4.87 20.32,6.35 25.14,4.5 4.76,-1.91 10,-9.21 15.66,-21.91l65.24 -146.53z"/>
   <path id="_35" class="fil2 str3" d="M2318.56 516.02c22.06,16.04 35.07,38.38 38.97,66.9 3.96,28.53 -3.2,55.3 -21.51,80.37 -18.8,25.77 -42.57,41.26 -71.31,46.43 -28.68,5.12 -54.61,-0.76 -77.72,-17.59 -23.38,-17.1 -36.98,-39.71 -40.78,-67.97 -3.74,-28.21 3.99,-55.51 23.21,-81.9 19.71,-26.93 44.96,-42.27 75.75,-45.85 26.73,-3.17 51.22,3.41 73.39,19.61zm-9.05 7.4c-15.19,-11.11 -31.48,-14.35 -48.89,-9.81 -21.71,5.71 -42.4,22.06 -62.15,49.08 -20.22,27.73 -29.87,53.38 -28.87,76.98 0.78,17.99 8.66,32.45 23.64,43.35 15.92,11.66 33.64,15.05 53.12,10.18 19.47,-4.86 38.96,-20.67 58.55,-47.49 21.17,-29.04 31.29,-54.87 30.25,-77.51 -0.9,-18.05 -9.41,-32.97 -25.65,-44.78z"/>
   <path id="_36" class="fil2 str3" d="M2601.92 810.92l-34.5 30.31 -3.48 -4.35c9.56,-11.87 13.78,-21.76 12.64,-29.65 -1.14,-7.88 -7.18,-18.7 -18.14,-32.39l-22.03 -27.64 -65.05 51.95 5.22 6.53c16.07,20.11 26.59,35.86 31.58,47.36 4.99,11.51 6.27,23.05 3.85,34.73 -2.47,11.68 -8.75,21.51 -18.82,29.57 -12.21,9.75 -26.52,13.77 -42.92,12.08 -16.44,-1.7 -33.5,-13.61 -51.15,-35.74l-55.49 -69.51 4.46 -3.58c8.49,9.92 15.3,15.13 20.43,15.62 5.18,0.55 13.19,-3.55 23.96,-12.19l104.42 -83.3c8.28,-6.65 13.44,-11.7 15.4,-15.25 1.97,-3.48 2.51,-7.02 1.63,-10.67 -0.94,-3.61 -4.04,-9.18 -9.42,-16.71l4.51 -3.59 92.9 116.42zm-210.95 52.41c4.52,8 8.37,14 11.53,17.92 7.95,9.98 18.41,16.31 31.47,19.06 13,2.74 25.4,-0.55 37.08,-9.93 12.15,-9.64 17.75,-21 16.89,-34.08 -0.86,-13.06 -6.43,-26.05 -16.75,-39 -2.9,-3.61 -6.11,-7.06 -9.75,-10.25l-70.47 56.28z"/>
   <path id="_37" class="fil2 str3" d="M2596.59 1087.53l-33.94 -73.99 -36.08 0.91c-8.9,0.21 -15.13,1.15 -18.83,2.81 -2.91,1.34 -4.84,3.9 -5.78,7.71 -0.92,3.77 0.38,10.42 4,19.93l-5.24 2.35 -27.61 -60.1 5.22 -2.42c5.08,7.33 9.28,11.64 12.62,13 6.69,2.71 18.28,3.81 34.74,3.28l188.03 -4.89 2.25 4.9 -128.37 139.37c-10.3,11.22 -16.39,19.9 -18.15,25.99 -1.81,6.09 -1.14,13.19 1.93,21.2l-5.17 2.37 -34.59 -75.37 5.22 -2.35c3.86,7.39 7.48,11.97 10.88,13.64 3.39,1.67 6.62,1.81 9.69,0.41 4.16,-1.93 9.79,-6.77 17,-14.6l22.18 -24.15zm8.63 -8.73l62.3 -67.81 -92.44 2.15 30.14 65.66z"/>
   <path id="_38" class="fil2 str3" d="M2819.44 1344.38l-47.52 13.39 -1.32 -5.77c8.2,-3.06 13.91,-5.97 17.08,-8.72 5.13,-4.45 8.47,-9.59 10.06,-15.4 1.53,-5.83 1.37,-12.97 -0.58,-21.44l-6.68 -28.84 -156.41 36.11c-12.6,2.91 -20.11,6.09 -22.6,9.53 -3.38,4.81 -4.12,11.16 -2.28,19.15l1.65 7.09 -5.61 1.28 -20.06 -86.84 5.61 -1.27 1.64 7.25c2,8.68 6.09,14.18 12.12,16.62 3.75,1.48 11.37,0.84 22.8,-1.81l156.48 -36.1 -5.73 -24.61c-2.17,-9.57 -4.44,-16.19 -6.82,-19.89 -3.12,-4.82 -7.83,-8.41 -14.13,-10.9 -6.29,-2.49 -14.13,-2.97 -23.55,-1.54l-1.32 -5.76 48.58 -8.69 38.59 167.16z"/>
   <path id="_39" class="fil2 str3" d="M2737.12 1491.45l0.28 8.36c0.91,25.72 -0.04,44.66 -2.83,56.83 -2.85,12.23 -8.72,22.28 -17.66,30.18 -8.88,7.94 -19.83,12.13 -32.69,12.56 -15.61,0.53 -29.48,-4.75 -41.65,-15.91 -12.23,-11.1 -18.81,-30.84 -19.83,-59.15l-3.12 -88.89 5.71 -0.17c0.86,12.97 3.24,21.22 7.11,24.72 3.8,3.48 12.64,4.96 26.51,4.48l133.51 -4.74c13.81,-0.55 22.54,-2.61 26.13,-6.37 3.55,-3.76 5.34,-12.12 5.28,-25.19l5.72 -0.16 3.22 90.43 -5.71 0.21c-0.91,-13.01 -3.24,-21.27 -7.11,-24.7 -3.81,-3.5 -12.65,-5.03 -26.51,-4.48l-56.36 1.99zm-102.81 3.66c-1.16,9.1 -1.63,16.19 -1.42,21.28 0.43,12.69 5.05,24.01 13.89,34 8.84,9.95 20.75,14.71 35.72,14.16 15.45,-0.53 26.77,-6.31 33.86,-17.32 7.14,-11.01 10.35,-24.77 9.82,-41.27 -0.17,-4.66 -0.74,-9.37 -1.75,-14.08l-90.12 3.23z"/>
   <path id="_40" class="fil2 str3" d="M2592.58 1848.73l-5.67 -1.03 9.81 -53.34c10.29,-4.08 29.98,-13.08 59,-27.01 29.08,-13.87 45.38,-22.59 48.91,-26.15 3.52,-3.57 6.14,-9.46 7.72,-17.67l-61.71 -11.29c-13.61,-2.52 -22.61,-2.31 -26.87,0.52 -4.33,2.84 -7.83,10.69 -10.61,23.51l-5.67 -1.02 16.31 -89.05 5.62 1.02c-1.89,12.82 -1.36,21.33 1.58,25.61 2.93,4.27 11.26,7.66 24.97,10.17l131.38 24.01c13.62,2.52 22.55,2.31 26.88,-0.58 4.32,-2.88 7.82,-10.68 10.61,-23.45l5.62 1.02 -16.27 89.05 -5.67 -1.03c1.99,-13.02 1.41,-21.59 -1.57,-25.75 -3.04,-4.17 -11.32,-7.51 -24.94,-9.97l-57.63 -10.56c-1.95,11.07 -2.59,18.9 -1.98,23.39 0.55,4.55 2.81,9.93 6.7,16.15 3.91,6.23 8.43,11.39 13.49,15.54 5.05,4.1 13.6,9.82 25.59,17.05 11.27,6.77 19.02,12.06 23.17,15.8 4.2,3.78 7.41,9.17 9.67,16.19 2.22,7.03 2.52,14.96 0.94,23.8 -2.87,15.63 -9.83,22.45 -20.8,20.44 -3.86,-0.71 -6.88,-2.86 -9.18,-6.5 -2.3,-3.59 -3.06,-7.39 -2.35,-11.37 0.52,-2.85 3.03,-7.32 7.5,-13.42 4.04,-5.38 6.24,-9.2 6.7,-11.53 0.57,-3.28 -0.62,-6.35 -3.59,-9.35 -2.99,-2.94 -10.96,-8.24 -23.91,-15.84 -24.26,-14.51 -38.48,-29.99 -42.7,-46.43 -3.34,8.97 -18.31,19.43 -45.02,31.48 -28.23,12.76 -47.33,22.44 -57.24,29.06 -9.97,6.57 -16.21,16.08 -18.79,28.53z"/>
   <path id="_41" class="fil2 str3" d="M2737.22 2048.92c-10.29,25.23 -28.83,43.19 -55.51,53.91 -26.74,10.72 -54.46,10.2 -83.14,-1.47 -29.56,-12.04 -50.28,-31.38 -62.22,-57.96 -11.93,-26.63 -12.48,-53.19 -1.65,-79.69 10.88,-26.77 29.58,-45.38 56.04,-55.88 26.42,-10.45 54.79,-9.51 85.04,2.8 30.89,12.57 51.82,33.34 62.74,62.35 9.5,25.15 9.05,50.49 -1.3,75.94zm-9.35 -7c7.05,-17.4 6.28,-34.02 -2.33,-49.8 -10.72,-19.65 -31.6,-35.8 -62.6,-48.43 -31.74,-12.95 -58.94,-16.11 -81.65,-9.46 -17.2,5.11 -29.33,16.22 -36.33,33.35 -7.43,18.3 -6.44,36.29 2.96,53.98 9.39,17.73 29.44,32.84 60.16,45.36 33.28,13.54 60.79,17.1 82.49,10.68 17.31,-5.22 29.71,-17.12 37.3,-35.68z"/>
   <path id="_42" class="fil2 str3" d="M2479.29 2278.19c-11.06,9.93 -21.54,15.81 -31.28,17.66 -13.59,2.48 -25.98,-0.34 -37.03,-8.43 -8.46,-6.15 -14.6,-14.71 -18.41,-25.73 -3.8,-10.95 -4.11,-22.38 -0.88,-34.29 3.29,-11.9 11.86,-27.4 25.79,-46.5l58.5 -80.15 4.66 3.34 -4.66 6.4c-5.18,7.09 -6.68,13.87 -4.41,20.21 1.54,4.08 7.04,9.59 16.57,16.52l109.71 80.06c10.54,7.67 18.04,11.33 22.54,10.91 6.08,-0.58 11.43,-4.08 16.15,-10.53l4.65 -6.4 4.61 3.4 -53.53 73.37c-10.01,13.7 -19.01,23.96 -27.06,30.78 -12.17,10.31 -24.45,15.97 -36.88,16.97 -12.49,1.06 -23.66,-2.07 -33.61,-9.32 -8.51,-6.2 -14.23,-14.36 -17.18,-24.46 -2.96,-10.05 -2.37,-21.32 1.75,-33.81zm54.65 -60.68c-2.81,2.64 -5.83,5.88 -9.01,9.63 -3.18,3.76 -6.51,7.98 -10,12.75 -8.9,12.17 -14.24,22.33 -16.1,30.37 -1.86,8.03 -1.29,15.66 1.79,22.91 3.06,7.19 7.78,13.18 14.22,17.84 9.95,7.25 21.38,9.38 34.29,6.41 12.92,-2.95 25.04,-12.2 36.36,-27.76 6.09,-8.36 10.65,-16.51 13.72,-24.54l-65.27 -47.61zm-81.16 -59.25c-9.31,8.05 -17.41,16.78 -24.29,26.24 -11.02,15.08 -16,29.1 -15,42.01 1,12.86 6.5,22.97 16.55,30.28 6.56,4.82 14.23,7.68 22.97,8.53 8.73,0.84 17.77,-1.48 27.2,-7.03 9.42,-5.55 18.47,-14.28 27.2,-26.24 3.77,-5.12 6.89,-9.63 9.43,-13.43 2.5,-3.81 4.39,-6.98 5.61,-9.52l-69.67 -50.84z"/>
   <path id="_43" class="fil2 str3" d="M2265.77 2357.6l-3.96 -4.13 65.03 -62.17 3.96 4.19 -5.35 5.12c-6.25,5.97 -9.07,12.15 -8.44,18.5 0.52,4.14 5.11,10.71 13.83,19.82l93.7 98.12c7.34,7.68 12.67,12.3 16,13.78 2.54,1.18 5.61,1.34 9.21,0.44 4.98,-1.31 9.26,-3.74 12.88,-7.12l5.35 -5.17 3.95 4.18 -65.03 62.17 -3.96 -4.18 5.46 -5.23c6.2,-5.92 8.96,-12.05 8.34,-18.46 -0.42,-4.13 -5.01,-10.8 -13.67,-19.86l-93.75 -98.13c-7.35,-7.68 -12.68,-12.29 -16.01,-13.83 -2.54,-1.17 -5.61,-1.23 -9.32,-0.34 -4.92,1.32 -9.16,3.64 -12.76,7.07l-5.46 5.23z"/>
   <path class="fil1" d="M1184.27 2602.81l-63.48 -26.3 -23.83 57.55c-24.07,58.1 -44.68,93.7 -61.82,106.92 -17.17,13.14 -34.49,16.12 -52.03,8.85 -7.48,-3.1 -12.5,-7.35 -15,-12.68 -2.49,-5.38 -2.73,-10.5 -0.72,-15.35 1.56,-3.76 4.2,-6.48 7.96,-8.13 3.76,-1.64 7.52,-1.66 11.24,-0.12 3.09,1.28 6.06,4.32 8.83,9.04 3.15,5.23 6.55,8.58 10.2,10.09 8.78,3.64 18.92,-0.69 30.54,-12.99 11.56,-12.31 25.79,-38.77 42.65,-79.49l17.81 -42.99c5.6,-13.51 7.39,-22.81 5.35,-27.95 -2.02,-5.06 -9.34,-10.46 -21.91,-16.15l2.31 -5.57 165.04 68.35 -2.31 5.57c-12.77,-4.8 -21.66,-6.12 -26.68,-3.9 -5,2.16 -10.33,10.04 -15.95,23.61l-53.99 130.36c-5.62,13.58 -7.43,22.92 -5.42,27.99 1.99,5.11 9.21,10.46 21.63,16.09l-2.31 5.57 -87.93 -36.42 2.3 -5.57c12.77,4.8 21.65,6.12 26.67,3.91 5.01,-2.15 10.34,-10.05 15.96,-23.62l64.89 -156.67zm148.67 246.31l-1.17 5.92 -93.39 -18.36 1.17 -5.92 7.72 1.52c9.04,1.78 16.09,0.43 21.22,-3.97 3.25,-2.95 6.13,-10.92 8.7,-23.96l27.73 -141.08c2.17,-11.01 2.89,-18.44 2.2,-22.23 -0.56,-2.89 -2.3,-5.63 -5.26,-8.21 -4.22,-3.5 -8.9,-5.73 -14.05,-6.74l-7.73 -1.52 1.17 -5.92 93.39 18.36 -1.16 5.92 -7.84 -1.54c-8.88,-1.75 -15.87,-0.38 -20.94,4.02 -3.37,2.93 -6.3,10.89 -8.87,23.93l-27.73 141.08c-2.17,11.02 -2.88,18.44 -2.21,22.22 0.51,2.9 2.31,5.63 5.38,8.24 4.1,3.47 8.68,5.69 13.83,6.7l7.84 1.54zm290.39 21.63l-0.25 6.03 -57.15 -2.45c-5.77,-10.19 -18.03,-29.5 -36.77,-57.92 -18.74,-28.43 -30.2,-44.23 -34.42,-47.43 -4.22,-3.2 -10.75,-5.05 -19.56,-5.53l-2.83 66.3c-0.63,14.67 0.81,24.07 4.38,28.14 3.58,4.12 12.25,6.67 25.95,7.7l-0.25 6.03 -95.1 -4.07 0.26 -6.02c13.52,0.13 22.32,-1.68 26.33,-5.36 4.03,-3.74 6.33,-12.98 6.96,-27.77l6.03 -140.97c0.62,-14.68 -0.88,-24.07 -4.51,-28.14 -3.62,-4.13 -12.23,-6.68 -25.83,-7.71l0.26 -6.02 95.09 4.06 -0.26 6.03c-13.74,-0.14 -22.6,1.66 -26.51,5.47 -3.91,3.74 -6.14,12.98 -6.77,27.65l-2.65 61.96c11.89,0.39 20.13,-0.04 24.77,-1.36 4.64,-1.25 9.91,-4.38 15.82,-9.38 5.92,-5 10.69,-10.5 14.3,-16.44 3.54,-5.89 8.27,-15.69 14.06,-29.37 5.46,-12.79 9.87,-21.66 13.16,-26.6 3.34,-4.95 8.49,-9.15 15.52,-12.53 7.01,-3.34 15.24,-4.83 24.73,-4.43 16.74,0.72 24.85,6.99 24.35,18.82 -0.18,4.14 -2.01,7.69 -5.43,10.62 -3.48,2.92 -7.28,4.27 -11.53,4.09 -3.07,-0.13 -8.13,-2.08 -15.12,-5.9 -6.17,-3.45 -10.51,-5.25 -13.01,-5.36 -3.52,-0.15 -6.56,1.56 -9.23,5.08 -2.66,3.58 -7.03,12.72 -13.13,27.44 -11.64,27.52 -25.74,44.69 -42.23,51.54 9.79,2.15 22.89,16.35 39.38,42.5 17.43,27.75 30.33,46.36 38.65,55.77 8.31,9.4 19.16,14.62 32.54,15.53zm199.97 -102.39l-84.47 16.61 -7.85 37.01c-1.97,9.15 -2.58,15.87 -1.76,20.04 0.65,3.29 2.82,5.94 6.49,7.84 3.61,1.85 10.79,2.15 21.41,0.85l1.16 5.92 -68.73 13.51 -1.16 -5.91c8.78,-3.38 14.24,-6.62 16.42,-9.72 4.46,-6.23 8.44,-17.89 11.98,-34.92l41.39 -194.51 5.43 -1.07 111.45 166.45c8.95,13.38 16.34,21.73 22.19,25.13 5.84,3.35 13.22,4.41 22.26,3.2l1.17 5.91 -85.94 16.9 -1.16 -5.92c8.56,-2.14 14.15,-4.72 16.74,-7.79 2.57,-3.07 3.46,-6.37 2.76,-9.93 -0.92,-4.72 -4.53,-11.75 -10.8,-21.11l-18.98 -28.49zm-7.26 -10.86l-54.02 -80.75 -20.41 95.38 74.43 -14.63zm187.69 -76.45l26.8 59.17c5.76,12.72 10.7,19.98 14.88,21.77 5.76,2.67 12.44,2.28 20.07,-1.18l7.74 -3.5 2.49 5.49 -86.71 39.27 -2.48 -5.49 7.63 -3.46c8.54,-3.87 13.43,-9.46 14.58,-16.66 0.61,-3.95 -1.69,-11.75 -6.9,-23.24l-59.31 -130.98c-5.76,-12.72 -10.66,-20.01 -14.73,-21.84 -5.9,-2.6 -12.64,-2.19 -20.33,1.29l-7.64 3.46 -2.48 -5.49 74.18 -33.6c18.12,-8.2 33.22,-12.77 45.38,-13.8 12.11,-1.01 23.78,1.31 34.96,6.92 11.19,5.6 19.49,14.46 24.98,26.58 7.49,16.53 8.12,32.44 1.92,47.7 -6.22,15.26 -19.23,27.4 -39.13,36.41 -4.89,2.21 -10.29,4.23 -16.26,6.08 -6,1.91 -12.53,3.59 -19.64,5.1zm-3.88 -8.56c5.71,-1.35 10.74,-2.71 15.01,-4.09 4.26,-1.32 7.88,-2.65 10.73,-3.94 10.33,-4.68 17.37,-12.71 21.23,-24.08 3.86,-11.38 2.94,-23.41 -2.8,-36.08 -3.96,-8.76 -9.42,-16.09 -16.37,-21.96 -6.95,-5.87 -14.58,-9.16 -22.77,-9.92 -8.25,-0.75 -16.53,0.74 -24.82,4.5 -5.09,2.3 -11.11,6.19 -18.2,11.67l37.99 83.9z"/>
   <path id="_1_0" class="fil2 str4" d="M1184.27 2602.81l-63.48 -26.3 -23.83 57.55c-24.07,58.1 -44.68,93.7 -61.82,106.92 -17.17,13.14 -34.49,16.12 -52.03,8.85 -7.48,-3.1 -12.5,-7.35 -15,-12.68 -2.49,-5.38 -2.73,-10.5 -0.72,-15.35 1.56,-3.76 4.2,-6.48 7.96,-8.13 3.76,-1.64 7.52,-1.66 11.24,-0.12 3.09,1.28 6.06,4.32 8.83,9.04 3.15,5.23 6.55,8.58 10.2,10.09 8.78,3.64 18.92,-0.69 30.54,-12.99 11.56,-12.31 25.79,-38.77 42.65,-79.49l17.81 -42.99c5.6,-13.51 7.39,-22.81 5.35,-27.95 -2.02,-5.06 -9.34,-10.46 -21.91,-16.15l2.31 -5.57 165.04 68.35 -2.31 5.57c-12.77,-4.8 -21.66,-6.12 -26.68,-3.9 -5,2.16 -10.33,10.04 -15.95,23.61l-53.99 130.36c-5.62,13.58 -7.43,22.92 -5.42,27.99 1.99,5.11 9.21,10.46 21.63,16.09l-2.31 5.57 -87.93 -36.42 2.3 -5.57c12.77,4.8 21.65,6.12 26.67,3.91 5.01,-2.15 10.34,-10.05 15.96,-23.62l64.89 -156.67zm148.67 246.31l-1.17 5.92 -93.39 -18.36 1.17 -5.92 7.72 1.52c9.04,1.78 16.09,0.43 21.22,-3.97 3.25,-2.95 6.13,-10.92 8.7,-23.96l27.73 -141.08c2.17,-11.01 2.89,-18.44 2.2,-22.23 -0.56,-2.89 -2.3,-5.63 -5.26,-8.21 -4.22,-3.5 -8.9,-5.73 -14.05,-6.74l-7.73 -1.52 1.17 -5.92 93.39 18.36 -1.16 5.92 -7.84 -1.54c-8.88,-1.75 -15.87,-0.38 -20.94,4.02 -3.37,2.93 -6.3,10.89 -8.87,23.93l-27.73 141.08c-2.17,11.02 -2.88,18.44 -2.21,22.22 0.51,2.9 2.31,5.63 5.38,8.24 4.1,3.47 8.68,5.69 13.83,6.7l7.84 1.54zm290.39 21.63l-0.25 6.03 -57.15 -2.45c-5.77,-10.19 -18.03,-29.5 -36.77,-57.92 -18.74,-28.43 -30.2,-44.23 -34.42,-47.43 -4.22,-3.2 -10.75,-5.05 -19.56,-5.53l-2.83 66.3c-0.63,14.67 0.81,24.07 4.38,28.14 3.58,4.12 12.25,6.67 25.95,7.7l-0.25 6.03 -95.1 -4.07 0.26 -6.02c13.52,0.13 22.32,-1.68 26.33,-5.36 4.03,-3.74 6.33,-12.98 6.96,-27.77l6.03 -140.97c0.62,-14.68 -0.88,-24.07 -4.51,-28.14 -3.62,-4.13 -12.23,-6.68 -25.83,-7.71l0.26 -6.02 95.09 4.06 -0.26 6.03c-13.74,-0.14 -22.6,1.66 -26.51,5.47 -3.91,3.74 -6.14,12.98 -6.77,27.65l-2.65 61.96c11.89,0.39 20.13,-0.04 24.77,-1.36 4.64,-1.25 9.91,-4.38 15.82,-9.38 5.92,-5 10.69,-10.5 14.3,-16.44 3.54,-5.89 8.27,-15.69 14.06,-29.37 5.46,-12.79 9.87,-21.66 13.16,-26.6 3.34,-4.95 8.49,-9.15 15.52,-12.53 7.01,-3.34 15.24,-4.83 24.73,-4.43 16.74,0.72 24.85,6.99 24.35,18.82 -0.18,4.14 -2.01,7.69 -5.43,10.62 -3.48,2.92 -7.28,4.27 -11.53,4.09 -3.07,-0.13 -8.13,-2.08 -15.12,-5.9 -6.17,-3.45 -10.51,-5.25 -13.01,-5.36 -3.52,-0.15 -6.56,1.56 -9.23,5.08 -2.66,3.58 -7.03,12.72 -13.13,27.44 -11.64,27.52 -25.74,44.69 -42.23,51.54 9.79,2.15 22.89,16.35 39.38,42.5 17.43,27.75 30.33,46.36 38.65,55.77 8.31,9.4 19.16,14.62 32.54,15.53zm199.97 -102.39l-84.47 16.61 -7.85 37.01c-1.97,9.15 -2.58,15.87 -1.76,20.04 0.65,3.29 2.82,5.94 6.49,7.84 3.61,1.85 10.79,2.15 21.41,0.85l1.16 5.92 -68.73 13.51 -1.16 -5.91c8.78,-3.38 14.24,-6.62 16.42,-9.72 4.46,-6.23 8.44,-17.89 11.98,-34.92l41.39 -194.51 5.43 -1.07 111.45 166.45c8.95,13.38 16.34,21.73 22.19,25.13 5.84,3.35 13.22,4.41 22.26,3.2l1.17 5.91 -85.94 16.9 -1.16 -5.92c8.56,-2.14 14.15,-4.72 16.74,-7.79 2.57,-3.07 3.46,-6.37 2.76,-9.93 -0.92,-4.72 -4.53,-11.75 -10.8,-21.11l-18.98 -28.49zm-7.26 -10.86l-54.02 -80.75 -20.41 95.38 74.43 -14.63zm187.69 -76.45l26.8 59.17c5.76,12.72 10.7,19.98 14.88,21.77 5.76,2.67 12.44,2.28 20.07,-1.18l7.74 -3.5 2.49 5.49 -86.71 39.27 -2.48 -5.49 7.63 -3.46c8.54,-3.87 13.43,-9.46 14.58,-16.66 0.61,-3.95 -1.69,-11.75 -6.9,-23.24l-59.31 -130.98c-5.76,-12.72 -10.66,-20.01 -14.73,-21.84 -5.9,-2.6 -12.64,-2.19 -20.33,1.29l-7.64 3.46 -2.48 -5.49 74.18 -33.6c18.12,-8.2 33.22,-12.77 45.38,-13.8 12.11,-1.01 23.78,1.31 34.96,6.92 11.19,5.6 19.49,14.46 24.98,26.58 7.49,16.53 8.12,32.44 1.92,47.7 -6.22,15.26 -19.23,27.4 -39.13,36.41 -4.89,2.21 -10.29,4.23 -16.26,6.08 -6,1.91 -12.53,3.59 -19.64,5.1zm-3.88 -8.56c5.71,-1.35 10.74,-2.71 15.01,-4.09 4.26,-1.32 7.88,-2.65 10.73,-3.94 10.33,-4.68 17.37,-12.71 21.23,-24.08 3.86,-11.38 2.94,-23.41 -2.8,-36.08 -3.96,-8.76 -9.42,-16.09 -16.37,-21.96 -6.95,-5.87 -14.58,-9.16 -22.77,-9.92 -8.25,-0.75 -16.53,0.74 -24.82,4.5 -5.09,2.3 -11.11,6.19 -18.2,11.67l37.99 83.9z"/>
   <circle class="fil2 str5" cx="1550" cy="1550" r="959.33"/>
   <path class="fil1 str2" d="M2217.32 2554.35c-0.56,-8.26 -2.44,-16.52 -5.71,-24.73 -4.6,-11.78 -6.9,-19.92 -6.9,-24.36 0,-6.29 1.67,-11.04 4.95,-14.31 3.34,-3.27 7.45,-4.87 12.4,-4.87 4.18,0 7.87,1.6 11.01,4.87 3.13,3.27 4.66,7.9 4.66,13.94 0,5.43 -1.81,12.95 -5.36,22.64 -3.62,9.74 -5.86,18.68 -6.69,26.82 7.53,-4.19 14.21,-9.31 20.2,-15.35 9.27,-9.5 16.17,-15.42 20.63,-17.7 4.52,-2.29 9.06,-3.4 13.72,-3.4 4.46,0 8.22,1.36 11.29,4.08 3.06,2.65 4.6,5.92 4.6,9.62 0,4.5 -2.23,8.45 -6.76,11.96 -4.46,3.45 -15.68,6.97 -33.65,10.49 -10.45,2.04 -19.16,4.38 -26.13,7.03 7.11,3.27 15.75,5.74 25.92,7.4 16.44,2.65 27.24,5.98 32.33,9.93 5.15,4.01 7.66,8.33 7.66,13.02 0,3.64 -1.53,6.72 -4.6,9.37 -3.06,2.65 -6.62,4.01 -10.66,4.01 -4.11,0 -8.64,-1.29 -13.58,-3.83 -4.95,-2.52 -11.71,-8.2 -20.14,-16.96 -5.57,-5.92 -12.47,-11.47 -20.83,-16.65 0.28,6.91 1.88,14.37 4.74,22.45 4.87,14.19 7.31,23.87 7.31,29.05 0,4.81 -1.6,8.88 -4.87,12.22 -3.28,3.32 -6.76,4.99 -10.38,4.99 -5.09,0 -9.62,-1.79 -13.73,-5.24 -2.85,-2.53 -4.25,-6.6 -4.25,-12.15 0,-5.74 1.53,-12.71 4.67,-20.85 3.13,-8.14 5.08,-13.75 5.92,-16.78 0.83,-3.08 1.6,-7.65 2.23,-13.69 -8.01,4.75 -15.05,9.93 -20.97,15.73 -9.96,9.87 -17.42,16.16 -22.51,18.81 -3.54,1.91 -7.17,2.9 -11,2.9 -4.6,0 -8.57,-1.42 -11.85,-4.19 -3.27,-2.78 -4.87,-5.8 -4.87,-9.19 0,-3.03 1.39,-6.17 4.18,-9.51 2.79,-3.32 6.97,-6.04 12.54,-8.2 3.69,-1.48 12.05,-3.39 25.08,-5.8 8.43,-1.54 16.72,-3.82 24.73,-6.84 -7.38,-3.27 -16.16,-5.8 -26.33,-7.59 -16.72,-3.14 -27.1,-5.98 -31.01,-8.51 -6.13,-3.95 -9.19,-8.82 -9.19,-14.43 0,-3.27 1.53,-6.23 4.59,-8.95 3.07,-2.71 6.62,-4.07 10.73,-4.07 4.46,0 9.2,1.24 14.29,3.77 5.02,2.53 11.29,7.64 18.74,15.29 7.52,7.65 15.12,13.57 22.85,17.76z"/>
   <path class="fil3 str6" d="M859.71 1633.1l1 1.06 13.57 18.45c4.92,7.12 12.69,21.57 19.26,30.43 2.42,3.27 4.83,6.23 7.14,9.39 13.16,18.07 36.75,33.67 57.33,40.93 46.29,16.34 17.96,-12.22 47.95,50.86 2,4.22 2.92,7.64 4.98,11.68l17.1 32.72c2.25,3.96 3.92,6.59 6.15,10.44 11.64,20.06 32.32,51.04 48.15,67.6 3.22,3.38 4.41,5.77 7.46,9.03 2.84,3.05 5.62,5.33 7.77,8.73 -16.28,-4.02 -39.36,-31.48 -57.54,-46 -62.03,-49.55 -114.42,-3.55 -126.35,-0.61l0 2.11c9.06,-0.79 14.3,-0.42 23.67,4.59 3.59,1.92 6.46,3.24 9.89,5.4 18.41,11.56 26.64,19.19 48.05,30.63 28.09,15.01 65.4,18.84 96.41,9.31 9.62,-2.95 7.72,-3.07 11.2,-0.56l29.07 26.46c34.32,28.4 67.03,46.6 106.8,64.78 4.2,1.92 7,3.37 11.71,4.53l0 2.11c-46.08,0 -100.83,-64.42 -172.16,10.33l-11.18 13.56c-2.25,3 -2.65,2.21 -3.55,5.78 39.6,-22.21 91.6,38.32 178.1,-18.86l11.78 -8.82c3.22,-2.19 0.35,-2.72 13.58,2.7 37.67,15.45 77.6,24.2 117.17,34.72 8.96,2.38 19.19,4.15 22.17,6.15 -21.23,0.5 -5.64,2.25 -32.16,-0.87 -35.89,-4.21 -59.34,-9.95 -92.78,4.04 -23.68,9.9 -41.98,31.22 -54.52,53.43 -2.89,5.12 -10.97,19.12 -11.43,24.97 13.11,-9.3 19.46,-13.99 41.99,-13.76l39.95 -2.14c17.36,-0.24 41.64,-6.92 55.97,-13.78l18.2 -10.36c1.73,-1.19 2.56,-1.54 4.35,-2.81 1.87,-1.31 2.03,-1.64 4.05,-3.12 3.38,-2.48 4.79,-3.73 7.97,-6.38 5.37,-4.52 9.4,-8.56 14.16,-13.6 13.68,-14.45 7.16,-16.13 26.36,-10.45 3.62,1.07 7.68,2.15 10.99,3.18 24.63,7.68 37.67,11.81 61.26,22.99 7.06,3.34 32.42,17.07 35.57,21.63 -3.5,5.53 -37.79,34.06 -61.97,83.69l-26.98 61.44 0 1.05 39.97 0c3.16,-1.34 1.04,0.79 4.42,-8.02l28.88 -59.43c4.69,-8.4 18.58,-29.33 25.42,-36.61 4.33,-4.62 10.81,-14.61 18.24,-19.87 3.17,5.02 7.77,8.39 11.75,12.96 2.38,2.72 2.86,4.11 5.48,6.91 2.61,2.78 3.23,3.88 5.52,6.86 13.89,18.05 27.42,41.44 37.21,62.25l12.93 30.79c1.95,4.89 0,2.85 3.07,4.16l39.97 0 0 -1.05c-3.87,-17.62 -29.57,-66.47 -37.4,-80.06 -7.38,-12.83 -26.49,-39.04 -36.81,-49.98 -4.8,-5.09 -11.2,-9.49 -14.74,-15.09 3.08,-4.46 28.2,-18.14 34.86,-21.32 6.43,-3.04 12.47,-5.72 19.68,-8.8 15.9,-6.8 35.95,-12.39 52.51,-17.44 28.79,-8.77 7.4,2.76 57.05,35.7 20.82,13.83 49.07,24.23 73.76,24.58 6.01,0.08 7.37,1.02 12.95,1.09 4.67,0.06 9.41,-0.15 14.08,-0.09 8.54,0.12 29.93,2.25 37.74,4.5 5.24,1.5 9.94,3.59 14.34,7.05 1.78,1.4 1.92,1.97 3.85,3.33 -0.84,-10.63 -19.64,-37.93 -25.99,-46.62 -22.05,-30.28 -62.51,-45.57 -101.37,-39.64l-46.54 5.75c-7.05,0.42 -11.76,-0.94 -17,-1.06 1.18,-0.8 -0.13,-0.17 2.07,-0.99l84.88 -22.32c14.35,-4 27.44,-8.46 41.36,-13.36 7.32,-2.59 12.84,-5.12 19.92,-7.62 3.18,-1.14 0.46,-2.69 8.26,3.42 12.6,9.85 29.14,20.22 44.61,24.75 24.75,7.28 44.91,9.24 72.66,3.33 22.48,-4.81 51.1,-13.16 69.04,-3.1 -0.8,-3.23 -4.38,-7.18 -6.74,-9.8 -3.04,-3.38 -4.3,-5.67 -7.48,-9.02 -37.28,-39.07 -71.48,-45.38 -120.84,-25.83 -15.68,6.22 -34.49,14.98 -51.82,14.98l0 -2.11c20.9,-5.16 81.1,-40.07 100.1,-54.92 15.95,-12.48 28.2,-21.74 42.54,-36.47 5.79,-5.94 6.19,-6.24 9.81,-5.75 1.96,0.27 14.64,4.07 24.86,5.59 37.88,5.6 65.44,-4.12 96.59,-23.86 6.63,-4.21 12.25,-8.62 18.88,-12.82 8.71,-5.53 20.2,-13.92 30.61,-16.29 7.43,-1.7 6.93,-1.18 13.41,-0.62l0 -2.11c-11.37,-2.81 -64.73,-48.71 -125.79,0.15 -16.73,13.38 -42.8,42.68 -58.11,46.46l43.7 -54.32c4.76,-6.76 8.66,-13.02 13.07,-20.04 8.47,-13.46 16.82,-27.54 23.86,-42.52 9.89,-21.08 16.7,-34.3 25.46,-57.76 6.18,-16.58 0,-5.11 32.73,-16.16 30.2,-10.19 46.73,-26.44 64.76,-49.99 11.53,-15.06 16.84,-29.42 33.28,-49.47l1 -1.06c4.32,-3.07 7.35,-7.9 14,-8.48l0 -2.12c-9.38,0 -20.16,-1.62 -29.99,-1.07 -35.63,2.03 -59.2,19.26 -77.16,49.58 -9.36,15.82 -21.2,55.57 -32.77,63.79 0.54,-2.44 2.16,-7.09 3.01,-9.53 1.06,-3.07 2.05,-6.01 3.11,-9.41 6.38,-20.35 10.59,-39.43 14.29,-61.12 4.81,-28.15 7.57,-61.22 7.57,-93.68 13.15,-3.24 28.94,-18.09 39.28,-27.23l15.41 -17.57c26.5,-37.75 23.32,-63.45 38.23,-98.25 5.02,-11.72 8.74,-11.72 14.02,-20.1 -23.35,5.77 -48.34,12.71 -65.73,30.97 -14.63,15.37 -23.13,33.64 -27.83,55.25 -1.11,5.06 -1.51,9.39 -2.47,14.32 -1.75,8.87 -3.05,50.15 -10.91,56.25l-2.26 -49.5c-4.12,-33.36 -6.84,-56.02 -13.63,-89.37 -11.48,-56.31 -15.9,-30.56 1.91,-54.98l10.8 -16.1c14.73,-24.23 20.89,-59.75 16.9,-90.62 -4.33,-33.49 3.04,-37.79 5.28,-47.95 -46.31,25.97 -61.17,62.17 -51.08,115.57 2.62,13.87 8.26,29.07 6.38,43.55 -0.73,5.55 0.91,3.66 -2.28,6.14 -0.36,-4.53 -3.17,-11.65 -4.62,-16.3 -1.95,-6.29 -3.71,-10.07 -5.74,-16.15 -1.97,-5.87 -3.68,-9.7 -5.77,-15.08l-20.17 -44.29c-1.28,-2.48 -3.01,-4.56 -3.68,-6.58 -2.39,-7.24 5.62,-31.92 -15.28,-58.08 -19.33,-24.21 -38.43,-24.01 -44,-62.48 -1.14,-7.89 0.32,-11.53 0.32,-20.47 -3.52,4.3 -5.64,9.89 -7.72,15.14 -9.22,23.34 -13.99,53.24 -5.92,78.78 9,28.48 28.59,43.04 55.76,47.9 6.01,1.07 11.18,-0.75 14.1,5.17l0.98 2.14c6.55,13.26 11.8,26.96 17.47,40.8 4.49,10.97 16.42,42.84 17.27,53.73 -34.31,-19.25 -39.88,-107.36 -137.46,-81.09 -3.02,0.82 -3.26,1.36 -6.45,1.63l0 2.13c35.3,0 43.39,80.51 144.91,80.51 3.78,8.35 8.01,30.58 9.72,40.54 5.23,30.33 9.84,58.75 11.29,89.74l0.99 24.38c0,8.83 0,17.67 0,26.49 -14.48,-10.27 -17.25,-66.81 -38.17,-99.39 -16.85,-26.27 -49.33,-43.62 -90.77,-43.62 1.52,1.39 0.4,0.43 2.35,1.76 13.3,9.16 19.12,23.45 25.36,38.79 12.94,31.88 27.78,63.47 55.64,82.97 10.09,7.08 33.34,21.58 45.59,22.67 0,28.89 -2.96,64.36 -8.79,91.31 -4.38,20.18 -8.5,39.95 -15.08,59.25l-4.94 13.83c-0.67,1.66 -0.24,0.83 -0.96,2.17 -0.72,1.37 -0.55,1.06 -1.21,1.87 -1.15,-14.54 -2.07,-8.66 -2.04,-28.63 0,-6.55 1.06,-8.21 1.07,-14.76 0.02,-24.1 -0.54,-50.02 -9.34,-68.57 -9.71,-20.48 -26.42,-35.77 -45.66,-45.88 -5.39,-2.84 -14.83,-8.01 -20.99,-9.53 2.33,9.27 8.77,-0.04 14.27,47.37 4.83,41.6 10.33,72.33 36.93,102.8 5.5,6.3 21.12,18.35 23.76,22.5 -4.13,18.72 -39.52,86 -51.26,102.47l-21.14 30.56c-2.62,3.52 -4.58,5.89 -7.25,9.26 -6.84,8.62 -15.65,21.07 -24.29,27.21 8.49,-38.66 66.97,-99.32 6.76,-172.44 -1.71,-2.08 -1.82,-2.68 -3.52,-4.72 -1.43,-1.72 -2.5,-2.57 -3.99,-4.26 -1.78,-1.99 -1.92,-2.58 -3.74,-4.52 -1.74,-1.86 -2.68,-2.38 -4.51,-3.68 4.63,21.04 2.24,28.45 -4.12,49.67 -4.76,15.92 -9.14,29.72 -12.33,48.37 -6.05,35.52 3.85,69.76 18.45,98.99 -3.76,5.94 -9.37,9.45 -14.24,14.57 -2.6,2.75 -4.71,4.26 -7.53,6.86 -2.74,2.54 -5.52,4.65 -8.35,7.04 -15.8,13.42 -33.56,24.82 -51.02,35.95 -3.06,1.96 -6.17,3.74 -8.98,5.32l-29.46 15.38c-6.76,3.46 -14.08,5.65 -20.34,9.17 2.34,-9.32 49.63,-46.09 62.32,-72.73 6.03,-12.68 9.55,-24.24 10.71,-39.5 0.71,-9.37 0.04,-6.86 -0.08,-15.95 -0.19,-14.96 -4.65,-28.87 -9.55,-41.78 -1.74,-4.54 -2.57,-8.76 -5.44,-12.25 0,36.52 -49.68,62.95 -64.52,125.46 -3.66,15.44 -5.04,43.57 -1.44,59.93 -5.88,1.45 -11.61,4.56 -17.59,6.77 -18.6,6.88 -36.04,11.95 -55.77,17.17 -26,6.87 -53.4,11.97 -79.55,18.43 6.89,-10.89 21.34,-17.74 32.03,-24.31 3.94,-2.43 8.08,-4.67 12.29,-7.11 36.11,-20.91 57.42,-40.88 68.52,-84.15 3.87,-15.09 3.22,-36.4 1.29,-53.07 -0.81,-6.83 -2.2,-11.25 -2.2,-17.81 -2.23,1.75 -6.07,15.52 -13.72,23.59 -9.26,9.76 -19.48,18.05 -29.82,26.66 -18.86,15.71 -22.32,19.29 -38.66,37.42 -20.53,22.78 -35.72,67.29 -35.72,99.84 -46.98,11.6 -97.89,20.07 -139.52,48.1l-3.4 2.75c-23.01,-12.91 -40.88,-23.62 -66.39,-31.34 -13.02,-3.93 -24.22,-7.38 -37.98,-10.58 -13.47,-3.14 -26.43,-5.69 -39.55,-8.93 0,-31.38 -11.3,-64.96 -27.12,-87.77 -7.55,-10.87 -15.68,-22.54 -25.7,-31.03 -14.68,-12.46 -51.43,-40.98 -58.8,-55.26 -2.05,-3.99 -3.28,-11.09 -6.31,-13.45 0,11.53 -3.4,23.17 -4.01,34.96 -1.19,23.52 3.62,45.53 12.99,64.64 16.73,34.12 51.78,51.95 82.31,69.53 7.4,4.27 16.32,10.47 20.64,17.32 -13.13,-3.24 -26.52,-5.4 -39.77,-8.69 -31.68,-7.86 -63.71,-15.66 -94.79,-26.65 -5.82,-2.04 -12.58,-5.6 -18.34,-7.03 3.55,-16.15 2.16,-43.69 -1.25,-59.06 -7.34,-33.2 -25.06,-56.89 -44.5,-82.09 -10.11,-13.11 -20.22,-25.2 -20.22,-44.24 -9.21,11.24 -16.95,55.16 -15.29,68.06 2.31,17.98 3.18,25.11 10.95,41.42 3.52,7.4 8.53,13.79 13.19,19.93 2.01,2.64 5.25,6.1 7.74,8.74 3.09,3.28 5.57,5.54 8.65,8.84l8.5 7.93c1.59,1.55 2.39,2.65 3.97,4.27 5.97,6.12 18.06,14.31 20.26,23.02 -5.84,-3.28 -13.16,-5.63 -19.66,-8.83l-28.83 -14.99c-16.32,-9.32 -38.19,-22.3 -52.21,-34.7 -3.01,-2.65 -5.38,-4.09 -8.55,-6.82l-15.94 -13.84c-4.82,-4.96 -11.16,-9.45 -14.73,-15.11 6.89,-13.8 12.28,-25.68 16.4,-43 3.73,-15.7 5.11,-38.01 2.04,-55.99 -3.09,-18.15 -7.14,-31.55 -12.08,-47.58 -2.39,-7.75 -4.96,-16.48 -6.09,-24.27 -1.56,-10.98 -0.57,-15.74 1.73,-26.19 -4.34,1.23 -12.16,12.8 -15.77,17.18 -10.42,12.66 -18.13,26.94 -23.1,43.32 -5.75,19.02 -3.76,39.49 1.11,57.92 6.57,25.03 23.53,47.4 28.77,71.2 -13.84,-9.81 -35.42,-41.88 -45.7,-56.45 -9.57,-13.56 -17.66,-27.86 -25.83,-42.53 -10.41,-18.63 -19.64,-37.66 -27.71,-57.5 -1.49,-3.66 -3.94,-9.53 -4.7,-13.02 1.39,-2.22 19.42,-16.68 30.13,-30.55 34.43,-44.64 25.44,-89.27 34.45,-121.33 1.33,-4.76 2.53,-7.6 4.35,-11.3 2.28,-4.67 5.02,-5.52 6.02,-9.49 -12.8,3.16 -28.64,13.26 -38.98,21.18 -34.75,26.59 -36.83,57.46 -36.99,101.73 -0.05,10.71 1.53,20 1.02,30.71 -0.23,4.89 -1.64,9.21 -2,13.75l-17.79 -56.35c-1.69,-7.16 -2.79,-13.33 -4.4,-20.77 -2.93,-13.5 -4.1,-27.95 -6.1,-43.32 -1.86,-14.28 -2.69,-31.27 -2.69,-47.99 12.05,-1.07 35.15,-15.36 44.98,-22.24 42.53,-29.81 48.26,-74.79 66.75,-106.15 3.93,-6.65 8.06,-11.48 14.24,-15.64l2.95 -2.16c-41.44,0 -73.91,17.35 -90.77,43.62 -20.84,32.48 -23.83,89.22 -38.15,99.39 0,-40.93 1.79,-78.9 8.26,-118.36 1.09,-6.67 2.68,-14.09 3.85,-21.34 1.08,-6.63 2.84,-13.76 4.47,-20.69 1.39,-5.86 3.45,-16.44 5.4,-20.76 45.03,0 72.51,-13.46 98.21,-41.04l13.48 -15.37c7.64,-8.09 19.4,-24.1 33.23,-24.1l0 -2.13c-3.11,-0.26 -7.57,-1.85 -11.37,-2.76 -49.52,-11.99 -78.66,6.32 -105.57,49.37 -5.58,8.94 -11.04,18.6 -18.22,26.25 -4.05,4.32 -3.75,3.79 -8.76,6.6 0.52,-6.57 7.92,-28.7 10.41,-35.57 7.53,-20.8 15.15,-42.43 25.64,-61.81 1.39,-2.58 0.28,-2.1 3.16,-3.01 12.11,-3.78 15.61,1.3 35.76,-9.77 9.53,-5.23 17.23,-13 22.99,-22.24 16.85,-27.04 13.13,-66.59 2,-95.38 -1.17,-2.99 -2.05,-4.75 -3.42,-8.03l-4.59 -7.85c0,14.6 2.04,23.5 -3.39,37.73 -1.72,4.49 -5.16,9.8 -7.58,13.16 -3.52,4.88 -6.24,6.86 -10.72,10.88 -21.79,19.54 -37.53,34.43 -37.32,68.55 0.08,12.95 1.85,6.98 -3.28,16.6l-26.04 59.26c-2.02,6.06 -3.89,10.18 -5.75,16.15 -1.29,4.12 -4.51,12.55 -4.87,17.1 -3.36,-2.62 -1.27,0.31 -2.26,-5.07 -4.15,-22.66 16.18,-57.14 7.68,-96.01 -3.67,-16.77 -10.78,-27.26 -19.95,-38.19 -4.3,-5.12 -9.69,-9.67 -14.75,-14.03 -5.01,-4.3 -11.98,-8.77 -17.69,-11.96 1.66,7.53 4.85,9.79 5.87,20.26 2.69,27.6 -5.13,43.56 1.54,78.88 2.83,14.97 7.93,27.83 14.38,38.79 3.5,5.97 6.68,10.6 10.75,16.13 14.94,20.32 14.54,6.66 7.31,34.36 -5.54,21.24 -10.11,42.04 -13.03,64.59l-5.56 46.01c-0.51,4.15 -0.02,8 -0.54,12.13 -0.49,3.78 -0.76,6.59 -0.72,11.97l-1.01 25.4c-15.65,-12.14 4.73,-103.32 -59.29,-139.49 -16.16,-9.13 -27.94,-12.42 -47.65,-17.3 4.85,7.69 9.46,9.21 13.72,19.37 10.31,24.51 14.16,52.42 25.6,76.69 10.73,22.79 26.36,40.78 46.23,54.8 5.05,3.57 15.51,10.84 21.39,12.29 0,32.59 2.75,65.45 7.58,93.68 4.21,24.7 9.38,47.43 17.41,70.53 0.83,2.44 2.47,7.09 2.99,9.53 -9.48,-6.74 -17.58,-30.51 -22.39,-41.94 -2.87,-6.79 -6.89,-15.95 -10.38,-21.85 -24.06,-40.65 -49.45,-49.4 -93.17,-49.59 -6.63,-0.03 -8.61,1.08 -14.97,1.08 1.91,2.77 4.17,2.51 7.6,4.66 3.45,2.13 4.63,3.98 7.39,5.94z"/>
   <path class="fil3" d="M1547.64 1636.1l0 41.09c-12.75,-3.4 -22.33,-29.27 0,-41.09zm47.25 -51.36l0 -36.99c38.05,3.17 33.87,36.23 0,36.99zm-100.67 -106.85l0 -8.22c0,-13.31 26.18,-16.43 41.09,-16.43l12.33 0 0 49.31c-16.65,-0.37 -53.42,-10.22 -53.42,-24.66zm100.67 -71.91l0 -34.93c12.82,0 51.96,0.77 45.99,19.22 -4.37,13.49 -33.81,15.44 -45.99,15.71zm-162.32 -117.12c0,-24.08 26.16,-29.59 47.83,-32.31 18.77,-2.34 51.04,-6.39 67.24,-2.61l0 61.63c-29.65,0 -115.07,4.6 -115.07,-26.71zm113.01 -285.58c9.46,6.32 8.03,8.22 22.9,9.96 20.56,2.42 21.56,-0.15 26.41,6.47 -6.01,0 -7.79,-0.36 -13.34,1.03 -6.63,1.67 -5.79,1.47 -9.26,5.14 2.47,9.25 4.57,7.76 15.18,9.48 24.31,3.92 32.28,4.02 57.33,-0.67 23.5,-4.4 11.58,-9.48 60.68,-15.35 43.98,-5.25 182.46,-13.72 211.22,29.94 6.82,10.36 3.99,30.02 -7.44,30.02l-704.75 0c0,40.13 21.06,62.06 46.8,84.7 19.07,16.76 42.41,28.64 65.2,39.57 5.79,2.79 10.11,3.82 16.1,6.51 16.22,7.33 19.32,6.56 31.85,11.3l33.19 9.96c-9.83,14.68 -23.34,21.64 -24.58,59.7 -1.16,35.57 31.02,58.69 62.06,67.19 25.57,6.99 69.14,11.13 96.19,10.65 19.82,-0.36 16.32,-4.33 16.32,39.16 -48.27,0 -104.79,-0.56 -104.79,59.57 0,54.68 65.52,73.98 104.79,73.98l0 57.52c-7.12,1.67 -24.84,11.51 -29.12,16.08 -8.14,8.69 -12.41,22.71 -11.48,34.77 1.03,13.5 6.02,23.25 13.55,31.68 18.84,21.08 27.05,3.42 27.05,28.43 -40.94,0 -113.7,15.06 -144.4,46.68 -5.44,5.61 -9.48,9.14 -9.7,19.06l359.56 0c-0.21,-9.42 -3.58,-12.66 -8.69,-18.02 -12.12,-12.73 -26.6,-21.08 -42.91,-26.92 -16.57,-5.94 -7.09,-4.24 -30.97,-10.14 -27.85,-6.87 -44.2,-10.66 -75.64,-10.66l0 -12.32c10.91,-2.54 16.08,0.84 18.49,-8.23l-18.49 0 0 -69.85c7.56,-0.63 17.48,-3.11 25.9,-4.94 40.36,-8.69 57.76,-44.58 42.6,-75.89 -8.49,-17.5 -49.35,-30.12 -68.5,-30.12l0 -59.59c40.86,0 104.79,-7.26 104.79,-59.58 0,-36.1 -16.23,-54.01 -49.81,-63.2 -5.85,-1.6 -10.83,-2.26 -17.11,-3.43 -10.4,-1.94 -27.94,-5.06 -37.87,-5.29 0,-75.18 -6.58,-63.87 28.77,-63.69 35.39,0.19 91.63,-7.85 126.87,-14.9 9.63,-1.92 19.98,-3.64 30.04,-6.94 19.82,-6.5 30.81,-6.94 55.34,-16.59l60.4 -27.94c5.75,-3.2 6.29,-3.31 11.49,-6.99 29.97,-21.3 51.84,-34.71 67.01,-76.83 5.02,-13.91 0.88,-19.58 0.23,-32.72 -1.35,-27.54 -4.47,-38.69 -16.39,-55.52 -7.82,-11.05 -30.19,-24.37 -43.44,-28.46 -20.43,-6.3 -34.35,-10.53 -59.32,-12.6 -10.63,-0.88 -20.54,-3.54 -30.86,-4.06 -11.99,-0.62 -25.04,0.67 -37.01,0.02l-69.85 -2.07c-23.77,0 -49.64,0.68 -70.22,-1.68 -20.01,-2.3 -45.53,-2.36 -63.11,3.95 -4.01,1.45 -6.72,3.17 -11.19,5.26 -16.1,7.48 -23.61,8.28 -28.07,27.41z"/>
  </g>
 </g>
 <g id="Слой_x0020_1_1">
  <metadata id="CorelCorpID_1Corel-Layer"/>
 </g>
</svg>
