<?xml version="1.0" encoding="UTF-8"?>
<!DOCTYPE svg PUBLIC "-//W3C//DTD SVG 1.1//EN" "http://www.w3.org/Graphics/SVG/1.1/DTD/svg11.dtd">
<!-- Creator: CorelDRAW 2019 (64-Bit) -->
<svg xmlns="http://www.w3.org/2000/svg" xml:space="preserve" width="31mm" height="31mm" version="1.1" style="shape-rendering:geometricPrecision; text-rendering:geometricPrecision; image-rendering:optimizeQuality; fill-rule:evenodd; clip-rule:evenodd"
viewBox="0 0 3100 3100"
 xmlns:xlink="http://www.w3.org/1999/xlink"
 xmlns:xodm="http://www.corel.com/coreldraw/odm/2003">
 <defs>
  <style type="text/css">
   <![CDATA[
    .str1 {stroke:#393185;stroke-width:50;stroke-miterlimit:22.9256}
    .str0 {stroke:#393185;stroke-width:35;stroke-miterlimit:22.9256}
    .str5 {stroke:#393185;stroke-width:25;stroke-miterlimit:22.9256}
    .str6 {stroke:#393185;stroke-width:20;stroke-miterlimit:22.9256}
    .str3 {stroke:#393185;stroke-width:15;stroke-miterlimit:22.9256}
    .str4 {stroke:#393185;stroke-width:10;stroke-miterlimit:22.9256}
    .str2 {stroke:#393185;stroke-width:25;stroke-linecap:round;stroke-linejoin:round;stroke-miterlimit:22.9256}
    .fil0 {fill:none}
    .fil2 {fill:none;fill-rule:nonzero}
    .fil3 {fill:#393185}
    .fil4 {fill:#2B2A29;fill-rule:nonzero}
    .fil1 {fill:#393185;fill-rule:nonzero}
   ]]>
  </style>
 </defs>
 <g id="Слой_x0020_1">
  <metadata id="CorelCorpID_0Corel-Layer"/>
  <path class="fil0 str0" d="M1634.32 259.74c60.55,-59.7 121.1,-119.37 154.09,-150.08 32.98,-30.69 38.41,-32.4 46.55,-33.36 8.14,-0.92 18.99,-1.08 46.75,42.13 27.8,43.25 72.56,129.88 117.27,216.52 -28.25,-11.02 -56.49,-22.04 -89.55,-32.33 -33.06,-10.3 -70.95,-19.86 -108.74,-26.62 -37.8,-6.79 -75.53,-10.81 -103.23,-13.06 -27.72,-2.25 -45.42,-2.71 -63.14,-3.2zm-67.61 -2.14c57.33,-62.76 114.67,-125.53 146.01,-157.92 31.33,-32.36 36.67,-34.39 44.74,-35.73 8.09,-1.36 18.9,-2.09 48.9,39.63 30.04,41.73 79.25,125.91 128.46,210.07 -28.78,-9.5 -57.58,-19.05 -91.13,-27.59 -33.54,-8.55 -71.88,-16.12 -109.96,-20.92 -38.11,-4.8 -76,-6.84 -103.8,-7.65 -27.8,-0.76 -45.49,-0.33 -63.22,0.11zm-67.64 1.4c53.97,-65.66 107.97,-131.34 137.57,-165.33 29.56,-33.97 34.79,-36.24 42.78,-38.02 7.99,-1.78 18.75,-3.09 50.92,37.02 32.16,40.11 85.74,121.59 139.29,203.09 -29.23,-8.01 -58.48,-16.02 -92.44,-22.81 -33.97,-6.79 -72.65,-12.33 -110.94,-15.14 -38.28,-2.82 -76.23,-2.87 -104.04,-2.19 -27.8,0.64 -45.44,2.03 -63.14,3.38zm-67.47 4.94c50.47,-68.4 100.93,-136.81 128.7,-172.29 27.75,-35.49 32.84,-38.01 40.74,-40.22 7.91,-2.2 18.57,-4.05 52.79,34.31 34.25,38.38 92,116.97 149.75,195.55 -29.61,-6.47 -59.24,-12.94 -93.5,-17.94 -34.26,-5.02 -73.18,-8.54 -111.57,-9.34 -38.4,-0.82 -76.28,1.11 -104.01,3.24 -27.72,2.09 -45.29,4.4 -62.9,6.69zm-67.08 8.42c46.79,-70.93 93.59,-141.89 119.46,-178.76 25.85,-36.86 30.82,-39.67 38.59,-42.27 7.75,-2.63 18.34,-5.02 54.51,31.5 36.19,36.52 97.99,112 159.79,187.44 -29.9,-4.91 -59.84,-9.84 -94.32,-13.04 -34.47,-3.21 -73.53,-4.7 -111.93,-3.46 -38.37,1.18 -76.08,5.07 -103.67,8.64 -27.58,3.56 -44.98,6.77 -62.43,9.95zm788.42 131.82c79.64,-29.96 159.28,-59.9 201.94,-74.57 42.63,-14.65 48.3,-14 56.12,-11.57 7.82,2.46 17.78,6.7 25.54,57.46 7.76,50.79 13.34,148.1 18.88,245.39 -21.32,-21.52 -42.63,-43.06 -68.64,-65.88 -26,-22.82 -56.72,-46.93 -88.48,-68.46 -31.77,-21.54 -64.6,-40.52 -88.98,-53.82 -24.42,-13.3 -40.4,-20.91 -56.38,-28.55zm-60.9 -29.4c77.96,-34.06 155.93,-68.13 197.76,-85 41.8,-16.86 47.51,-16.54 55.43,-14.48 7.95,2.03 18.12,5.76 28.52,56.06 10.44,50.3 21.08,147.17 31.73,244.04 -22.41,-20.37 -44.84,-40.78 -72,-62.2 -27.16,-21.43 -59.1,-43.9 -91.94,-63.74 -32.85,-19.85 -66.63,-37.1 -91.7,-49.12 -25.08,-11.98 -41.42,-18.76 -57.8,-25.56zm-62.35 -26.17c76.05,-38.09 152.15,-76.17 193.05,-95.21 40.85,-19.03 46.56,-18.98 54.58,-17.37 8.03,1.62 18.39,4.79 31.43,54.49 13.04,49.7 28.76,145.88 44.47,242.07 -23.44,-19.18 -46.9,-38.37 -75.15,-58.35 -28.26,-20 -61.34,-40.76 -95.18,-58.86 -33.82,-18.12 -68.47,-33.57 -94.14,-44.24 -25.66,-10.69 -42.35,-16.59 -59.06,-22.53zm-63.66 -22.88c73.98,-42 147.97,-84.02 187.8,-105.15 39.82,-21.16 45.5,-21.4 53.61,-20.21 8.12,1.2 18.61,3.84 34.25,52.77 15.63,48.96 36.36,144.2 57.09,239.42 -24.42,-17.93 -48.84,-35.87 -78.11,-54.34 -29.25,-18.49 -63.37,-37.5 -98.12,-53.82 -34.74,-16.33 -70.13,-29.94 -96.33,-39.25 -26.18,-9.34 -43.17,-14.37 -60.19,-19.42zm-64.71 -19.53c71.65,-45.8 143.33,-91.63 181.99,-114.82 38.63,-23.18 44.33,-23.72 52.49,-22.96 8.14,0.75 18.79,2.86 36.95,50.91 18.18,48.05 43.87,142.09 69.58,236.09 -25.32,-16.62 -50.66,-33.27 -80.86,-50.19 -30.17,-16.93 -65.25,-34.14 -100.83,-48.59 -35.54,-14.5 -71.57,-26.25 -98.23,-34.19 -26.65,-7.94 -43.85,-12.08 -61.09,-16.25zm666.52 440.43c84.98,4.95 169.93,9.92 214.87,13.84 44.93,3.92 49.84,6.81 56,12.21 6.14,5.42 13.51,13.34 -0.09,62.86 -13.61,49.55 -48.18,140.7 -82.77,231.84 -10.7,-28.31 -21.4,-56.64 -35.86,-88.05 -14.45,-31.4 -32.69,-65.89 -52.93,-98.45 -20.23,-32.57 -42.49,-63.24 -59.35,-85.28 -16.88,-22.06 -28.37,-35.5 -39.87,-48.97zm-43.64 -51.58c85.1,0.53 170.21,1.05 215.31,2.62 45.06,1.57 50.14,4.18 56.53,9.27 6.43,5.08 14.21,12.62 3.22,62.79 -10.98,50.19 -40.74,143.01 -70.49,235.82 -12.18,-27.71 -24.34,-55.45 -40.43,-86.04 -16.07,-30.61 -36.09,-64.1 -58,-95.56 -21.93,-31.46 -45.75,-60.93 -63.76,-82.08 -18.02,-21.13 -30.19,-33.96 -42.38,-46.82zm-46.3 -49.21c85.01,-3.93 170.05,-7.83 215.16,-8.62 45.09,-0.81 50.28,1.55 56.95,6.29 6.68,4.73 14.85,11.84 6.5,62.53 -8.34,50.69 -33.18,144.94 -58.04,239.19 -13.59,-27.03 -27.2,-54.09 -44.87,-83.81 -17.66,-29.73 -39.42,-62.14 -62.96,-92.4 -23.51,-30.28 -48.87,-58.46 -67.97,-78.63 -19.08,-20.18 -31.92,-32.34 -44.77,-44.55zm-48.83 -46.73c84.71,-8.35 169.42,-16.71 214.42,-19.86 45,-3.15 50.29,-1.07 57.22,3.32 6.92,4.38 15.43,11.06 9.77,62.1 -5.66,51.08 -25.55,146.49 -45.42,241.89 -15,-26.29 -30,-52.59 -49.21,-81.34 -19.19,-28.77 -42.62,-59.98 -67.7,-88.99 -25.08,-29.02 -51.87,-55.82 -72.01,-74.96 -20.11,-19.16 -33.57,-30.65 -47.07,-42.16zm-51.16 -44.11c84.13,-12.77 168.29,-25.54 213.06,-31.04 44.74,-5.49 50.16,-3.68 57.31,0.34 7.13,3.98 16.01,10.24 13.01,61.5 -2.98,51.28 -17.84,147.61 -32.66,243.92 -16.37,-25.46 -32.72,-50.96 -53.41,-78.66 -20.67,-27.72 -45.71,-57.68 -72.31,-85.33 -26.57,-27.67 -54.69,-53.03 -75.81,-71.1 -21.1,-18.06 -35.14,-28.83 -49.19,-39.63zm429.4 672.87c75.6,39.02 151.19,78.04 190.64,99.87 39.45,21.81 42.76,26.45 46.18,33.88 3.4,7.44 6.91,17.67 -25.7,57.38 -32.63,39.75 -101.36,108.99 -170.11,178.21 1.77,-30.21 3.54,-60.43 3.13,-94.99 -0.4,-34.55 -3.01,-73.47 -8.22,-111.43 -5.22,-37.97 -13.05,-75.01 -19.47,-101.99 -6.42,-27.01 -11.45,-43.96 -16.45,-60.93zm-18.86 -64.82c77.54,35.02 155.07,70.04 195.63,89.77 40.52,19.73 44.1,24.17 47.87,31.42 3.8,7.25 7.84,17.3 -22.66,58.67 -30.48,41.39 -95.5,114.1 -160.51,186.82 0.17,-30.25 0.37,-60.53 -1.86,-95.02 -2.21,-34.47 -6.85,-73.2 -14.05,-110.83 -7.2,-37.64 -16.95,-74.23 -24.78,-100.86 -7.86,-26.62 -13.74,-43.28 -19.64,-59.97zm-22.23 -63.75c79.25,30.91 158.54,61.86 200.07,79.45 41.52,17.56 45.3,21.83 49.46,28.86 4.18,7.04 8.74,16.85 -19.55,59.76 -28.28,42.92 -89.38,118.95 -150.51,194.96 -1.4,-30.21 -2.81,-60.45 -6.83,-94.78 -4.02,-34.33 -10.69,-72.76 -19.86,-109.97 -9.13,-37.2 -20.81,-73.24 -30.04,-99.41 -9.21,-26.19 -15.97,-42.51 -22.74,-58.87zm-25.56 -62.51c80.78,26.75 161.57,53.5 203.97,68.89 42.4,15.38 46.38,19.43 50.92,26.25 4.53,6.81 9.59,16.37 -16.38,60.69 -26,44.37 -83.05,123.46 -140.09,202.56 -2.99,-30.12 -5.98,-60.23 -11.8,-94.29 -5.81,-34.07 -14.49,-72.09 -25.58,-108.78 -11.08,-36.69 -24.63,-72.05 -35.23,-97.7 -10.56,-25.66 -18.18,-41.63 -25.81,-57.62zm-28.76 -61.07c82.05,22.49 164.14,44.98 207.29,58.13 43.11,13.15 47.33,17 52.21,23.56 4.9,6.54 10.45,15.86 -13.18,61.47 -23.63,45.64 -76.45,127.61 -129.26,209.58 -4.57,-29.9 -9.12,-59.84 -16.73,-93.54 -7.59,-33.71 -18.24,-71.25 -31.28,-107.3 -12.99,-36.06 -28.34,-70.65 -40.27,-95.72 -11.92,-25.08 -20.35,-40.61 -28.78,-56.18zm118.02 788.99c53.15,66.33 106.31,132.67 133.45,168.62 27.15,35.94 28.28,41.51 28.38,49.68 0.07,8.18 -0.89,18.95 -46.87,42 -46.01,23.07 -137.02,58.42 -228.04,93.75 13.93,-26.88 27.87,-53.76 41.58,-85.5 13.71,-31.73 27.2,-68.34 37.9,-105.14 10.72,-36.8 18.66,-73.82 23.79,-101.08 5.14,-27.27 7.46,-44.79 9.81,-62.33zm9.19 -66.87c56.56,63.46 113.12,126.92 142.13,161.41 28.98,34.47 30.43,39.99 30.92,48.13 0.52,8.17 0.11,18.98 -44.61,44.4 -44.71,25.45 -133.75,65.48 -222.78,105.53 12.49,-27.57 25.01,-55.15 37.03,-87.56 12.03,-32.39 23.58,-69.66 32.34,-106.96 8.76,-37.3 14.76,-74.69 18.47,-102.2 3.67,-27.5 5.09,-45.1 6.5,-62.75zm5.67 -67.27c59.8,60.41 119.62,120.87 150.4,153.8 30.77,32.89 32.48,38.32 33.42,46.44 0.94,8.12 1.11,18.93 -42.21,46.66 -43.34,27.72 -130.15,72.37 -216.97,117.01 11.03,-28.18 22.07,-56.37 32.38,-89.36 10.33,-33 19.9,-70.81 26.69,-108.52 6.81,-37.7 10.84,-75.36 13.07,-103.01 2.26,-27.66 2.74,-45.32 3.22,-63.02zm2.13 -67.47c62.9,57.22 125.81,114.45 158.26,145.71 32.46,31.27 34.45,36.59 35.81,44.66 1.37,8.05 2.1,18.84 -39.69,48.79 -41.83,29.98 -126.19,79.08 -210.54,128.18 9.54,-28.72 19.09,-57.43 27.65,-90.92 8.58,-33.48 16.15,-71.74 20.96,-109.76 4.84,-38.02 6.87,-75.81 7.64,-103.55 0.82,-27.73 0.36,-45.41 -0.09,-63.11zm-1.38 -67.46c65.79,53.84 131.62,107.7 165.67,137.23 34.03,29.51 36.31,34.74 38.1,42.72 1.81,7.96 3.08,18.73 -37.1,50.8 -40.18,32.1 -121.85,85.54 -203.5,139 8.01,-29.17 16.06,-58.36 22.84,-92.25 6.81,-33.87 12.37,-72.49 15.17,-110.71 2.82,-38.22 2.89,-76.05 2.21,-103.8 -0.66,-27.74 -2.04,-45.35 -3.39,-62.99zm-213.77 768.67c21.53,82.18 43.05,164.35 53.19,208.21 10.15,43.85 8.92,49.4 5.67,56.91 -3.26,7.5 -8.53,16.95 -59.93,19.33 -51.44,2.41 -148.98,-2.24 -246.53,-6.91 23.67,-18.89 47.36,-37.8 72.83,-61.22 25.46,-23.42 52.7,-51.4 77.48,-80.67 24.79,-29.27 47.13,-59.86 62.93,-82.68 15.81,-22.83 25.07,-37.9 34.36,-52.97zm35.65 -57.35c25.8,80.93 51.61,161.86 64.05,205.14 12.43,43.25 11.51,48.88 8.64,56.52 -2.86,7.67 -7.64,17.38 -58.85,22.46 -51.22,5.09 -148.88,5.53 -246.54,5.97 22.65,-20.12 45.33,-40.23 69.52,-64.96 24.2,-24.7 49.93,-54.06 73.14,-84.58 23.22,-30.52 43.93,-62.24 58.53,-85.86 14.57,-23.64 23.04,-39.15 31.51,-54.69zm32.6 -59.15c30.01,79.45 60.02,158.97 74.71,201.54 14.7,42.54 14.06,48.19 11.6,55.99 -2.44,7.8 -6.69,17.74 -57.57,25.49 -50.9,7.74 -148.4,13.29 -245.91,18.83 21.57,-21.26 43.14,-42.53 66.01,-68.49 22.88,-25.96 47.04,-56.61 68.61,-88.31 21.59,-31.67 40.61,-64.44 53.93,-88.79 13.33,-24.36 20.97,-40.29 28.62,-56.26zm29.45 -60.78c34.14,77.81 68.28,155.62 85.19,197.36 16.91,41.73 16.56,47.4 14.51,55.32 -2.03,7.92 -5.76,18.07 -56.15,28.47 -50.44,10.4 -147.51,21.02 -244.58,31.64 20.42,-22.37 40.85,-44.73 62.32,-71.84 21.48,-27.1 43.99,-58.98 63.89,-91.76 19.9,-32.77 37.17,-66.48 49.18,-91.5 12.05,-25 18.84,-41.34 25.64,-57.69zm26.23 -62.19c38.17,75.89 76.35,151.82 95.42,192.61 19.05,40.77 19.01,46.48 17.39,54.5 -1.6,8 -4.81,18.35 -54.6,31.35 -49.79,13.02 -146.18,28.68 -242.56,44.37 19.21,-23.39 38.46,-46.79 58.47,-74.99 20.02,-28.19 40.85,-61.2 58.98,-94.99 18.15,-33.76 33.64,-68.3 44.33,-93.93 10.7,-25.6 16.62,-42.25 22.57,-58.92zm-508.59 615.45c-13.82,83.81 -27.66,167.62 -36.26,211.8 -8.6,44.18 -11.99,48.75 -18.02,54.29 -6.03,5.52 -14.71,12.02 -62.63,-6.67 -47.97,-18.67 -135.19,-62.51 -222.41,-106.37 29.33,-7.65 58.68,-15.31 91.49,-26.37 32.81,-11.06 69.1,-25.56 103.67,-42.24 34.57,-16.68 67.45,-35.56 91.19,-50 23.75,-14.43 38.35,-24.44 52.97,-34.44zm55.95 -37.92c-9.42,84.41 -18.83,168.81 -25.1,213.4 -6.28,44.56 -9.41,49.33 -15.15,55.14 -5.73,5.85 -14.06,12.78 -62.91,-3.37 -48.87,-16.13 -138.27,-55.38 -227.66,-94.61 28.9,-9.19 57.8,-18.35 89.98,-31.12 32.18,-12.76 67.66,-29.13 101.29,-47.59 33.66,-18.46 65.51,-39.03 88.47,-54.68 22.94,-15.68 37,-26.41 51.08,-37.17zm53.89 -40.81c-4.97,84.77 -9.96,169.59 -13.9,214.44 -3.9,44.83 -6.79,49.73 -12.22,55.86 -5.41,6.14 -13.35,13.49 -62.98,-0.08 -49.66,-13.58 -140.99,-48.1 -232.32,-82.61 28.36,-10.67 56.74,-21.35 88.21,-35.78 31.48,-14.42 66.05,-32.62 98.67,-52.82 32.63,-20.17 63.37,-42.39 85.46,-59.23 22.11,-16.84 35.58,-28.29 49.08,-39.78zm51.68 -43.56c-0.53,84.93 -1.05,169.87 -2.62,214.87 -1.56,44.98 -4.2,50.02 -9.29,56.43 -5.08,6.4 -12.64,14.16 -62.9,3.21 -50.32,-10.97 -143.33,-40.67 -236.33,-70.36 27.76,-12.15 55.54,-24.29 86.21,-40.33 30.66,-16.05 64.23,-36.03 95.77,-57.9 31.54,-21.87 61.05,-45.65 82.22,-63.63 21.19,-17.95 34.06,-30.12 46.94,-42.29zm49.31 -46.17c3.93,84.82 7.86,169.68 8.66,214.68 0.79,44.99 -1.57,50.18 -6.33,56.85 -4.72,6.66 -11.87,14.81 -62.65,6.48 -50.79,-8.32 -145.24,-33.13 -239.68,-57.92 27.09,-13.57 54.21,-27.13 83.99,-44.78 29.77,-17.62 62.26,-39.33 92.59,-62.84 30.34,-23.47 58.56,-48.74 78.78,-67.81 20.21,-19.04 32.41,-31.85 44.64,-44.66zm-715.47 355.81c-46.8,70.95 -93.59,141.9 -119.46,178.77 -25.87,36.86 -30.82,39.67 -38.59,42.28 -7.76,2.6 -18.33,5.01 -54.5,-31.51 -36.21,-36.53 -98.02,-111.99 -159.82,-187.45 29.92,4.91 59.85,9.84 94.33,13.05 34.48,3.2 73.54,4.69 111.92,3.48 38.38,-1.21 76.11,-5.11 103.68,-8.67 27.58,-3.54 45,-6.75 62.44,-9.95zm66.57 -11.94c-43.01,73.29 -86.01,146.58 -109.92,184.77 -23.89,38.16 -28.7,41.24 -36.31,44.23 -7.62,3.01 -18.05,5.96 -56.1,-28.62 -38.07,-34.58 -103.74,-106.72 -169.41,-178.84 30.14,3.34 60.29,6.7 94.88,8.1 34.6,1.4 73.68,0.85 111.94,-2.36 38.26,-3.21 75.74,-9.07 103.11,-14.05 27.34,-5.02 44.56,-9.11 61.81,-13.23zm65.85 -15.4c-39.08,75.42 -78.22,150.88 -100.09,190.26 -21.84,39.37 -26.48,42.67 -33.93,46.06 -7.45,3.41 -17.7,6.91 -57.51,-25.63 -39.83,-32.56 -109.19,-101.16 -178.57,-169.76 30.27,1.76 60.55,3.53 95.18,3.12 34.63,-0.4 73.63,-3 111.67,-8.21 38.03,-5.18 75.16,-13.01 102.21,-19.43 27.06,-6.4 44.03,-11.4 61.04,-16.41zm64.97 -18.83c-35.09,77.38 -70.19,154.77 -89.96,195.24 -19.77,40.46 -24.23,43.99 -31.5,47.78 -7.24,3.79 -17.31,7.81 -58.77,-22.6 -41.49,-30.44 -114.35,-95.32 -187.22,-160.2 30.32,0.17 60.65,0.36 95.2,-1.86 34.56,-2.21 73.37,-6.84 111.09,-14.02 37.72,-7.17 74.38,-16.91 101.05,-24.75 26.68,-7.8 43.38,-13.69 60.11,-19.59zm63.87 -22.16c-30.98,79.09 -61.97,158.21 -79.59,199.64 -17.61,41.42 -21.89,45.2 -28.95,49.36 -7.03,4.17 -16.89,8.71 -59.88,-19.5 -43.01,-28.22 -119.18,-89.22 -195.35,-150.2 30.28,-1.4 60.58,-2.79 94.98,-6.82 34.38,-4.01 72.9,-10.66 110.2,-19.82 37.28,-9.13 73.37,-20.76 99.6,-29.98 26.24,-9.19 42.6,-15.94 58.99,-22.68zm-798.64 34.65c-71.67,45.82 -143.33,91.64 -181.99,114.83 -38.66,23.18 -44.33,23.73 -52.49,22.96 -8.14,-0.77 -18.79,-2.86 -36.95,-50.9 -18.19,-48.07 -43.89,-142.09 -69.59,-236.11 25.32,16.62 50.66,33.27 80.85,50.2 30.19,16.92 65.27,34.14 100.82,48.61 35.56,14.48 71.62,26.23 98.26,34.16 26.64,7.95 43.86,12.09 61.09,16.25zm65.68 16.11c-69.16,49.5 -138.32,99 -175.72,124.19 -37.38,25.16 -43.02,26.02 -51.19,25.66 -8.2,-0.34 -18.93,-1.88 -39.6,-48.91 -20.68,-47.04 -51.27,-139.6 -81.87,-232.14 26.17,15.28 52.34,30.59 83.38,45.91 31.03,15.32 66.96,30.68 103.22,43.28 36.26,12.59 72.9,22.45 99.92,29 27.03,6.53 44.42,9.77 61.86,13.01zm66.44 12.66c-66.45,53.05 -132.95,106.1 -168.98,133.19 -36,27.1 -41.59,28.23 -49.78,28.31 -8.19,0.09 -18.98,-0.87 -42.08,-46.76 -23.12,-45.92 -58.53,-136.73 -93.95,-227.57 26.93,13.9 53.88,27.81 85.68,41.48 31.8,13.7 68.48,27.15 105.36,37.84 36.86,10.7 73.97,18.62 101.29,23.73 27.33,5.13 44.88,7.46 62.46,9.78zm67.02 9.17c-63.59,56.45 -127.2,112.9 -161.76,141.84 -34.54,28.94 -40.06,30.36 -48.24,30.87 -8.16,0.52 -19,0.11 -44.48,-44.5 -25.5,-44.65 -65.62,-133.49 -105.74,-222.34 27.63,12.47 55.26,24.95 87.73,36.95 32.46,12 69.81,23.53 107.2,32.28 37.37,8.75 74.84,14.73 102.4,18.4 27.55,3.7 45.21,5.1 62.89,6.5zm67.39 5.68c-60.54,59.68 -121.1,119.38 -154.09,150.08 -32.96,30.69 -38.41,32.41 -46.56,33.34 -8.13,0.96 -18.97,1.1 -46.75,-42.12 -27.79,-43.24 -72.51,-129.88 -117.25,-216.5 28.24,11.01 56.48,22.03 89.55,32.32 33.05,10.29 70.95,19.85 108.75,26.62 37.78,6.79 75.49,10.82 103.21,13.04 27.71,2.25 45.42,2.73 63.14,3.22zm-743.72 -292.5c-84.15,12.77 -168.29,25.55 -213.06,31.03 -44.77,5.49 -50.17,3.69 -57.31,-0.32 -7.13,-4.02 -16,-10.25 -13.01,-61.51 2.98,-51.29 17.82,-147.61 32.66,-243.94 16.36,25.47 32.72,50.96 53.4,78.68 20.69,27.71 45.71,57.68 72.3,85.33 26.58,27.65 54.73,53.02 75.83,71.09 21.09,18.07 35.14,28.85 49.19,39.64zm53.44 41.38c-83.36,17.14 -166.72,34.3 -211.15,42.12 -44.41,7.82 -49.91,6.31 -57.23,2.67 -7.35,-3.64 -16.53,-9.4 -16.24,-60.75 0.29,-51.37 10.06,-148.35 19.83,-245.31 17.68,24.59 35.35,49.19 57.46,75.79 22.1,26.59 48.67,55.2 76.65,81.43 28,26.23 57.45,50.1 79.47,67.05 22.02,16.94 36.6,26.96 51.21,37zm55.53 38.53c-82.33,21.49 -164.7,42.96 -208.65,53.09 -43.94,10.14 -49.51,8.9 -57.02,5.65 -7.52,-3.24 -16.99,-8.5 -19.39,-59.8 -2.4,-51.32 2.27,-148.66 6.93,-246.02 18.94,23.63 37.89,47.27 61.36,72.67 23.47,25.42 51.5,52.6 80.84,77.33 29.31,24.73 59.98,47.03 82.86,62.8 22.87,15.78 37.96,25.02 53.07,34.28zm57.49 35.58c-81.1,25.76 -162.22,51.51 -205.58,63.93 -43.36,12.41 -48.97,11.46 -56.67,8.61 -7.66,-2.84 -17.39,-7.62 -22.49,-58.71 -5.09,-51.13 -5.53,-148.58 -5.98,-246.04 20.16,22.61 40.31,45.22 65.09,69.37 24.77,24.14 54.18,49.83 84.77,73 30.58,23.17 62.37,43.83 86.05,58.38 23.66,14.56 39.23,23 54.81,31.46zm59.25 32.53c-79.63,29.96 -159.29,59.91 -201.94,74.57 -42.63,14.66 -48.3,14.02 -56.13,11.56 -7.81,-2.43 -17.78,-6.69 -25.54,-57.45 -7.76,-50.78 -13.3,-148.09 -18.87,-245.38 21.31,21.52 42.62,43.06 68.64,65.87 26,22.82 56.72,46.93 88.49,68.47 31.75,21.54 64.56,40.52 88.98,53.8 24.4,13.3 40.38,20.92 56.37,28.56zm-560.21 -569.08c-82.07,-22.48 -164.15,-44.96 -207.29,-58.12 -43.13,-13.16 -47.33,-17 -52.21,-23.56 -4.88,-6.56 -10.45,-15.85 13.18,-61.46 23.63,-45.66 76.45,-127.63 129.26,-209.6 4.57,29.91 9.12,59.83 16.72,93.55 7.6,33.72 18.25,71.24 31.26,107.3 13.01,36.05 28.39,70.65 40.3,95.73 11.9,25.06 20.34,40.61 28.78,56.16zm31.96 59.5c-83.14,-18.17 -166.29,-36.33 -210.06,-47.22 -43.77,-10.88 -48.17,-14.49 -53.38,-20.79 -5.23,-6.31 -11.26,-15.3 9.93,-62.09 21.2,-46.81 69.66,-131.43 118.1,-216.05 6.13,29.63 12.24,59.28 21.61,92.55 9.35,33.27 21.96,70.19 36.83,105.5 14.88,35.34 32.06,69.1 45.27,93.52 13.21,24.41 22.44,39.48 31.7,54.58zm35.03 57.74c-83.98,-13.78 -167.98,-27.6 -212.26,-36.19 -44.27,-8.57 -48.85,-11.95 -54.39,-17.98 -5.55,-6.01 -12.05,-14.66 6.66,-62.5 18.72,-47.86 62.67,-134.89 106.61,-221.93 7.67,29.27 15.34,58.55 26.43,91.29 11.08,32.75 25.61,68.95 42.33,103.45 16.69,34.49 35.63,67.32 50.11,91 14.46,23.69 24.47,38.27 34.51,52.86zm38 55.84c-84.58,-9.39 -169.18,-18.79 -213.86,-25.04 -44.66,-6.26 -49.41,-9.41 -55.27,-15.13 -5.85,-5.71 -12.79,-14.02 3.38,-62.76 16.19,-48.78 55.51,-137.99 94.82,-227.2 9.21,28.83 18.4,57.67 31.19,89.79 12.79,32.1 29.19,67.51 47.69,101.1 18.49,33.57 39.11,65.35 54.81,88.25 15.68,22.91 26.46,36.94 37.24,50.99zm40.88 53.77c-84.96,-4.96 -169.94,-9.92 -214.88,-13.85 -44.92,-3.91 -49.83,-6.79 -55.98,-12.22 -6.15,-5.39 -13.52,-13.32 0.08,-62.85 13.61,-49.53 48.21,-140.68 82.78,-231.82 10.7,28.3 21.38,56.63 35.85,88.03 14.45,31.4 32.7,65.9 52.94,98.47 20.22,32.56 42.46,63.22 59.35,85.26 16.87,22.06 28.36,35.51 39.86,48.98zm-279.82 -747.26c-65.82,-53.86 -131.64,-107.7 -165.69,-137.24 -34.04,-29.52 -36.31,-34.74 -38.1,-42.71 -1.78,-7.98 -3.08,-18.72 37.1,-50.81 40.19,-32.11 121.86,-85.55 203.52,-139.01 -8.03,29.19 -16.06,58.37 -22.86,92.25 -6.8,33.89 -12.36,72.5 -15.18,110.72 -2.81,38.21 -2.86,76.06 -2.2,103.81 0.66,27.73 2.03,45.35 3.41,62.99zm4.94 67.32c-68.55,-50.34 -137.1,-100.68 -172.66,-128.4 -35.54,-27.7 -38.09,-32.79 -40.28,-40.66 -2.21,-7.88 -4.06,-18.54 34.37,-52.68 38.45,-34.16 117.21,-91.8 195.95,-149.44 -6.48,29.56 -12.97,59.13 -17.98,93.32 -5.02,34.18 -8.55,73.03 -9.36,111.33 -0.8,38.32 1.14,76.13 3.24,103.8 2.13,27.66 4.42,45.18 6.72,62.73zm8.46 66.97c-71.1,-46.68 -142.2,-93.4 -179.16,-119.21 -36.94,-25.8 -39.75,-30.75 -42.35,-38.5 -2.62,-7.76 -5.03,-18.29 31.56,-54.4 36.6,-36.12 112.23,-97.79 187.84,-159.48 -4.92,29.86 -9.85,59.72 -13.06,94.14 -3.22,34.41 -4.71,73.38 -3.49,111.68 1.19,38.29 5.11,75.96 8.68,103.47 3.55,27.52 6.76,44.9 9.98,62.3zm11.96 66.43c-73.44,-42.9 -146.9,-85.83 -185.16,-109.68 -38.25,-23.85 -41.31,-28.64 -44.33,-36.25 -3.01,-7.59 -5.96,-18 28.67,-55.97 34.67,-37.98 106.95,-103.52 179.22,-169.06 -3.34,30.08 -6.7,60.15 -8.09,94.69 -1.41,34.52 -0.86,73.52 2.36,111.71 3.2,38.17 9.08,75.58 14.1,102.87 4.98,27.29 9.11,44.48 13.23,61.69zm15.43 65.72c-75.59,-39.02 -151.2,-78.04 -190.66,-99.87 -39.44,-21.8 -42.75,-26.44 -46.16,-33.88 -3.42,-7.43 -6.91,-17.66 25.69,-57.39 32.63,-39.73 101.38,-108.95 170.11,-178.18 -1.76,30.2 -3.54,60.42 -3.12,94.97 0.4,34.55 3,73.47 8.22,111.45 5.2,37.95 13.03,74.99 19.47,101.98 6.42,27 11.43,43.95 16.45,60.92zm48.95 -796.23c-38.19,-75.92 -76.37,-151.83 -95.43,-192.62 -19.06,-40.79 -19.02,-46.48 -17.39,-54.49 1.62,-8.02 4.81,-18.35 54.59,-31.36 49.8,-13.02 146.2,-28.7 242.58,-44.38 -19.22,23.4 -38.46,46.8 -58.48,74.99 -20.02,28.2 -40.84,61.21 -58.99,94.98 -18.15,33.77 -33.62,68.33 -44.32,93.95 -10.71,25.6 -16.63,42.25 -22.56,58.93zm-22.93 63.5c-42.11,-73.81 -84.21,-147.63 -105.4,-187.38 -21.17,-39.73 -21.43,-45.42 -20.23,-53.49 1.2,-8.1 3.85,-18.59 52.88,-34.17 49.05,-15.61 144.49,-36.3 239.91,-57 -17.96,24.38 -35.94,48.75 -54.46,77.96 -18.52,29.19 -37.57,63.24 -53.92,97.91 -16.35,34.68 -30,70 -39.35,96.14 -9.33,26.13 -14.38,43.06 -19.43,60.03zm-19.57 64.61c-45.92,-71.5 -91.83,-143.03 -115.08,-181.61 -23.23,-38.57 -23.78,-44.23 -23,-52.37 0.77,-8.15 2.86,-18.75 51.01,-36.89 48.16,-18.14 142.38,-43.78 236.6,-69.45 -16.67,25.29 -33.34,50.57 -50.3,80.7 -16.96,30.13 -34.21,65.13 -48.71,100.61 -14.52,35.47 -26.29,71.47 -34.24,98.05 -7.97,26.58 -12.12,43.76 -16.28,60.96zm-16.14 65.55c-49.61,-69 -99.22,-138.04 -124.46,-175.35 -25.22,-37.32 -26.06,-42.94 -25.72,-51.11 0.34,-8.16 1.89,-18.86 49.01,-39.49 47.15,-20.63 139.9,-51.17 232.64,-81.71 -15.32,26.13 -30.65,52.23 -46,83.21 -15.36,30.97 -30.74,66.82 -43.38,103.02 -12.63,36.17 -22.5,72.73 -29.04,99.7 -6.57,26.96 -9.81,44.33 -13.05,61.73zm-12.7 66.3c-53.15,-66.32 -106.32,-132.67 -133.47,-168.62 -27.14,-35.93 -28.29,-41.51 -28.36,-49.69 -0.1,-8.17 0.89,-18.94 46.87,-42 45.99,-23.06 137.02,-58.39 228.02,-93.73 -13.92,26.88 -27.86,53.76 -41.57,85.49 -13.71,31.73 -27.19,68.34 -37.91,105.15 -10.71,36.78 -18.66,73.8 -23.78,101.07 -5.13,27.26 -7.47,44.79 -9.8,62.33zm369.25 -707.53c-3.94,-84.84 -7.88,-169.69 -8.67,-214.7 -0.79,-45 1.57,-50.18 6.32,-56.84 4.75,-6.66 11.88,-14.81 62.66,-6.48 50.8,8.32 145.25,33.12 239.69,57.91 -27.09,13.58 -54.21,27.14 -83.99,44.78 -29.78,17.63 -62.25,39.33 -92.59,62.82 -30.35,23.48 -58.57,48.78 -78.79,67.83 -20.21,19.05 -32.41,31.85 -44.63,44.68zm-46.83 48.71c-8.38,-84.52 -16.76,-169.05 -19.91,-213.95 -3.15,-44.91 -1.07,-50.2 3.33,-57.09 4.38,-6.91 11.09,-15.42 62.23,-9.76 51.17,5.65 146.79,25.5 242.4,45.32 -26.35,14.97 -52.71,29.94 -81.52,49.11 -28.82,19.15 -60.11,42.52 -89.18,67.56 -29.07,25.04 -55.93,51.77 -75.12,71.85 -19.18,20.09 -30.7,33.51 -42.23,46.96zm-44.21 51.08c-12.81,-83.96 -25.6,-167.94 -31.1,-212.62 -5.51,-44.67 -3.7,-50.06 0.33,-57.18 4.02,-7.13 10.26,-15.96 61.63,-12.99 51.39,2.98 147.92,17.79 244.45,32.59 -25.53,16.33 -51.06,32.66 -78.84,53.3 -27.77,20.64 -57.79,45.61 -85.51,72.14 -27.71,26.51 -53.14,54.62 -71.25,75.67 -18.1,21.05 -28.9,35.07 -39.71,49.09zm-41.47 53.33c-17.19,-83.18 -34.37,-166.38 -42.21,-210.71 -7.84,-44.32 -6.32,-49.8 -2.67,-57.13 3.64,-7.32 9.41,-16.47 60.87,-16.18 51.48,0.29 148.65,10.04 245.82,19.78 -24.64,17.65 -49.28,35.28 -75.93,57.35 -26.65,22.05 -55.33,48.56 -81.62,76.5 -26.28,27.92 -50.21,57.31 -67.17,79.29 -16.99,21.96 -27.03,36.52 -37.09,51.1zm-38.61 55.42c-21.53,-82.17 -43.05,-164.36 -53.21,-208.22 -10.15,-43.85 -8.92,-49.4 -5.65,-56.91 3.24,-7.5 8.52,-16.94 59.93,-19.34 51.41,-2.4 148.97,2.27 246.52,6.92 -23.68,18.9 -47.37,37.8 -72.83,61.23 -25.45,23.42 -52.7,51.39 -77.48,80.66 -24.79,29.26 -47.14,59.86 -62.93,82.68 -15.8,22.83 -25.08,37.9 -34.35,52.98zm625.7 -496.49c30.98,-79.11 61.97,-158.22 79.6,-199.66 17.61,-41.44 21.88,-45.2 28.93,-49.36 7.05,-4.16 16.89,-8.7 59.89,19.51 43.01,28.22 119.19,89.21 195.36,150.19 -30.28,1.41 -60.58,2.8 -94.97,6.82 -34.4,4.02 -72.91,10.66 -110.2,19.8 -37.3,9.14 -73.39,20.8 -99.62,29.99 -26.23,9.2 -42.6,15.95 -58.99,22.71zm-62.63 25.48c26.79,-80.61 53.59,-161.23 69.01,-203.53 15.43,-42.3 19.48,-46.29 26.31,-50.81 6.82,-4.52 16.41,-9.57 60.83,16.36 44.44,25.93 123.7,82.86 202.97,139.78 -30.17,2.98 -60.35,5.96 -94.49,11.77 -34.13,5.81 -72.24,14.45 -109,25.53 -36.77,11.08 -72.2,24.6 -97.91,35.16 -25.72,10.55 -41.71,18.14 -57.72,25.74zm-61.21 28.73c22.52,-81.9 45.06,-163.81 58.25,-206.86 13.18,-43.05 17.03,-47.24 23.61,-52.11 6.57,-4.88 15.87,-10.42 61.59,13.15 45.74,23.58 127.89,76.3 210.04,128.99 -29.98,4.56 -59.96,9.11 -93.75,16.7 -33.79,7.58 -71.38,18.2 -107.52,31.19 -36.13,12.97 -70.81,28.32 -95.93,40.21 -25.13,11.88 -40.7,20.3 -56.29,28.73zm-59.61 31.88c18.19,-82.96 36.4,-165.94 47.31,-209.62 10.9,-43.67 14.53,-48.06 20.85,-53.27 6.3,-5.21 15.31,-11.23 62.2,9.92 46.91,21.16 131.71,69.51 216.51,117.84 -29.71,6.13 -59.4,12.23 -92.75,21.58 -33.34,9.33 -70.33,21.9 -105.74,36.76 -35.39,14.84 -69.22,31.98 -93.68,45.16 -24.47,13.18 -39.58,22.4 -54.7,31.63zm-57.87 34.96c13.82,-83.8 27.65,-167.62 36.26,-211.81 8.59,-44.18 11.98,-48.75 18.02,-54.28 6.03,-5.54 14.7,-12.02 62.64,6.65 47.95,18.68 135.17,62.54 222.39,106.38 -29.34,7.66 -58.68,15.3 -91.49,26.38 -32.8,11.06 -69.08,25.55 -103.66,42.24 -34.57,16.66 -67.46,35.54 -91.19,49.99 -23.74,14.44 -38.35,24.44 -52.97,34.45z"/>
  <ellipse class="fil0 str1" cx="1550" cy="1550" rx="1284.87" ry="1284.88"/>
  <ellipse class="fil0" cx="1550" cy="1550" rx="798.7" ry="798.71"/>
  <path class="fil1" d="M1038.11 2640.87l-172.63 -102.4 128.86 -217.24 43.99 26.1 -107.08 180.52 84.65 50.21 107.08 -180.52 43.99 26.09 -128.86 217.24zm-242.92 -245.66l-31.27 -32.56 19.38 -18.61c-10.7,2.12 -21.49,1.56 -32.53,-1.69 -11,-3.3 -20.73,-9.36 -29.16,-18.14 -14.7,-15.3 -21.18,-34.11 -19.41,-56.35 1.74,-22.22 13.4,-43.68 34.86,-64.29 22.09,-21.22 44.39,-32.3 66.99,-33.29 22.6,-1.01 41.25,6.19 55.99,21.53 7.01,7.29 11.92,15.3 14.7,24.05 2.77,8.66 3.84,19.7 3.07,32.99l66.06 -63.45 33.48 34.85 -182.16 174.96zm31 -95.8c14.88,-14.29 23.05,-27.77 24.52,-40.5 1.46,-12.66 -1.86,-23.25 -9.93,-31.64 -7.78,-8.1 -17.52,-11.71 -29.22,-10.81 -11.7,0.88 -24.96,8.47 -39.84,22.76 -13.91,13.37 -21.56,26.02 -22.97,38.05 -1.45,11.99 1.81,22.08 9.66,30.25 8.19,8.53 18.3,12.44 30.29,11.68 12.03,-0.71 24.52,-7.33 37.49,-19.79zm-236.29 -108.16l-37.56 24.43 -26.34 -40.52 37.55 -24.42 26.35 40.51zm174.19 -113.26l-153.48 99.8 -26.35 -40.52 153.49 -99.8 26.34 40.52zm-155.62 -131.16l-29.11 11.75c-3.15,-7.8 -5.92,-13.27 -8.4,-16.4 -2.43,-3.07 -6.23,-5.41 -11.43,-6.99 -5.21,-1.58 -10.32,-1.35 -15.38,0.69 -5.35,2.16 -9.57,6.15 -12.54,11.85 -3.01,5.72 -2.94,12.48 0.18,20.21 2.4,5.94 5.8,10.78 10.26,14.44 4.4,3.68 12.16,5.48 23.25,5.45l7.13 41.25c-16.37,2.17 -30.8,-1.57 -43.29,-11.13 -12.47,-9.54 -21.96,-22.38 -28.43,-38.42 -8.25,-20.43 -9.95,-38.14 -5.05,-53.18 4.85,-15.02 14.36,-25.38 28.59,-31.12 8.88,-3.59 17.16,-4.14 24.95,-1.64 7.79,2.5 16.28,7.95 25.51,16.4 -1.62,-13.93 -0.23,-25.4 4.21,-34.36 4.42,-9 11.78,-15.59 22.14,-19.77 13.19,-5.32 27.07,-3.76 41.58,4.71 14.51,8.47 26.44,24.33 35.79,47.5 16.3,40.39 10.46,71.48 -17.51,93.29l-24.03 -37.85c13.92,-13.29 17.8,-27.54 11.66,-42.74 -3.41,-8.46 -8.35,-14.26 -14.82,-17.56 -6.45,-3.28 -12.65,-3.7 -18.65,-1.28 -6.59,2.66 -10.72,7.37 -12.4,14.2 -1.63,6.81 -0.74,14.51 2.69,23.01l3.1 7.69zm-167.82 -158.25l-12.56 -105.31c-2.57,-21.61 -0.58,-38.19 6.01,-49.86 6.61,-11.69 17.87,-18.48 33.76,-20.37 10.16,-1.21 19.37,0.65 27.61,5.65 8.23,4.94 14.13,11.75 17.7,20.33 1.6,-12.86 6.21,-22.89 13.94,-30.08 7.73,-7.14 16.59,-11.34 26.64,-12.54 14.12,-1.68 26.24,2.14 36.29,11.49 10.06,9.33 16.33,24.17 18.75,44.48l13.65 114.54 -181.79 21.67zm69.93 -57.01l-3.71 -31.18c-1.8,-15.05 -4.96,-25.69 -9.55,-31.95 -4.6,-6.26 -10.96,-8.94 -19.07,-7.97 -7.71,0.92 -12.76,4.72 -15.29,11.35 -2.52,6.64 -2.83,17.93 -0.93,33.92l3.72 31.18 44.83 -5.35zm75.32 -8.97l-4.55 -38.18c-1.65,-13.79 -4.48,-23.63 -8.56,-29.54 -4.08,-5.91 -10.35,-8.35 -18.93,-7.33 -8.94,1.07 -14.63,5.41 -17.1,13.05 -2.53,7.58 -2.55,21.85 -0.05,42.75l2.95 24.76 46.24 -5.51zm-167.32 -226l5.51 -46.23 114.25 13.61 -105.44 -87.52 5.64 -47.3 181.79 21.67 -5.51 46.25 -115.88 -13.82 106.94 88.78 -5.51 46.23 -181.79 -21.67zm53.08 -302.7l18.11 -40.59 131.44 58.63 22.85 -51.22 -131.44 -58.64 18.11 -40.59 131.44 58.64 23.14 -51.87 -131.44 -58.63 18.11 -40.59 131.44 58.63 8.04 -18.04 79.9 35.65 -15.95 35.75 -44.14 -19.69 -92.41 207.15 -167.2 -74.59zm348.97 -336.36l37.83 -31.14c9.3,16.28 13.01,32.52 11.27,48.68 -1.84,16.18 -9.32,31.87 -22.48,46.99 -20.88,24 -44.21,34.96 -69.9,32.79 -20.51,-1.86 -40.37,-11.11 -59.58,-27.82 -22.88,-19.9 -35.64,-41.52 -38.21,-64.72 -2.62,-23.24 4.06,-43.99 19.96,-62.28 17.82,-20.49 38.69,-30.78 62.61,-30.86 23.87,-0.04 49.62,12.38 77.19,37.31l-79.4 91.28c11.05,9.15 22.02,13.55 32.96,13.17 10.89,-0.35 20,-4.73 27.26,-13.07 4.97,-5.72 7.59,-11.86 7.84,-18.42 0.29,-6.61 -2.18,-13.89 -7.35,-21.91zm-35.16 -34.31c-10.83,-8.96 -21.26,-13.27 -31.27,-12.87 -10.06,0.37 -18.29,4.28 -24.77,11.73 -6.91,7.94 -9.69,17.06 -8.39,27.3 1.29,10.24 7.04,19.68 17.09,28.27l47.34 -54.43zm225.84 -52.18l-137.69 -211.75 42.88 -27.88 137.69 211.75 -42.88 27.88zm49.1 -242.97l56.3 -21.64 87.77 102.94 -3.09 -135.5 55.92 -21.5 65.7 170.88 -38.52 14.81 -43.25 -112.5 1.87 128.41 -38.8 14.92 -82.93 -97.24 43.25 112.5 -38.52 14.81 -65.7 -170.89zm326.38 -76.17l-14.61 -45.56 -5.05 -42.33 52.2 -6.23 5.05 42.33 -2.27 47.58 -35.32 4.21zm308.02 -23.76l-13.9 182.56 -48.19 -3.67 5.76 -75.62 -4.46 -0.34c-10.43,-0.8 -18.22,-0.04 -23.29,2.28 -5.13,2.33 -10.95,7.61 -17.59,15.82l-3.2 3.36 -35.72 48.52 -56.22 -4.28 38.61 -50.18c11.01,-14.38 20.57,-22.38 28.72,-24.06 -13.41,-1.85 -24,-7.78 -31.71,-17.92 -7.66,-10.07 -10.96,-22.48 -9.84,-37.19 0.9,-11.84 4.48,-21.71 10.68,-29.67 6.21,-7.96 14.03,-13.08 23.53,-15.43 9.44,-2.34 23.32,-2.82 41.56,-1.43l95.26 7.25zm-50.54 27.29l-34.65 -2.64c-12.79,-0.98 -21.83,0.16 -27.32,3.4 -5.44,3.24 -8.47,9.03 -9.11,17.41 -0.64,8.44 1.82,14.7 7.4,18.84 5.58,4.14 15.07,6.69 28.37,7.7l31.72 2.42 3.59 -47.13zm291.75 -46.55l183.31 81.78 -102.91 230.67 -46.71 -20.84 85.51 -191.68 -89.88 -40.1 -85.51 191.68 -46.72 -20.84 102.91 -230.67zm208.35 278.82c10.57,-12.15 23.76,-21.32 39.64,-27.48 15.89,-6.2 31.89,-7.47 48.06,-3.93 16.15,3.54 30.98,11.13 44.51,22.9 20.9,18.17 32.08,39.8 33.63,64.99 1.51,25.23 -6.73,48.15 -24.78,68.91 -18.21,20.94 -40.04,32.42 -65.43,34.49 -25.45,2.02 -48.38,-5.83 -68.83,-23.62 -12.65,-10.99 -22.2,-24.37 -28.72,-40.09 -6.47,-15.66 -7.92,-31.66 -4.26,-47.95 3.61,-16.26 12.37,-32.34 26.18,-48.22zm35.84 34.59c-11.92,13.71 -17.83,27.04 -17.67,39.95 0.15,13 4.97,23.58 14.51,31.87 9.49,8.25 20.65,11.57 33.45,9.83 12.76,-1.68 25.21,-9.47 37.28,-23.35 11.76,-13.53 17.59,-26.78 17.48,-39.65 -0.06,-12.91 -4.89,-23.49 -14.38,-31.75 -9.54,-8.29 -20.68,-11.6 -33.56,-9.95 -12.81,1.64 -25.19,9.34 -37.11,23.05zm431.85 255.7l16.55 28.32c-13.07,6.41 -24.49,8.66 -34.31,6.78 -9.77,-1.92 -21.26,-14.13 -34.38,-36.57 -1.54,-2.64 -3.06,-5.36 -4.53,-8.11l-3.15 -5.38c-7.77,-13.29 -15.57,-23.25 -23.38,-29.85 -7.75,-6.63 -17.44,-10.17 -28.95,-10.52 -11.6,-0.38 -26.8,4.84 -45.65,15.58 15.16,-0.62 28.45,2.31 39.91,8.75 11.43,6.39 21.11,16.41 28.97,29.86 12.13,20.75 14.33,43.04 6.55,66.91 -7.74,23.8 -22.26,41.96 -43.52,54.39 -22.18,12.96 -45.64,16.53 -70.41,10.72 -24.77,-5.89 -44.28,-20.97 -58.55,-45.39 -9.82,-16.8 -14.41,-33.87 -13.79,-51.33 0.61,-17.38 6.3,-32.89 17.06,-46.53 10.79,-13.59 32.27,-29.84 64.55,-48.71 37.97,-22.19 69.33,-31.11 94.09,-26.86 24.75,4.26 47.27,23.78 67.59,58.55l12.38 21.17c3.44,5.89 7.75,8.61 12.97,8.22zm-194.61 0.97c-14.46,8.45 -23.83,18.77 -28.07,30.85 -4.24,12.08 -3.35,23.27 2.7,33.62 6.53,11.18 16.26,17.81 29.18,19.86 12.91,2.06 26.2,-0.94 40.02,-9.01 14.05,-8.22 23.26,-18.44 27.65,-30.75 4.39,-12.29 3.45,-23.8 -2.78,-34.47 -6.05,-10.35 -15.48,-16.69 -28.23,-19.04 -12.75,-2.35 -26.26,0.63 -40.47,8.94zm152.96 233.88l-4.27 -44.22c18.54,-0.04 33.58,4.62 45.08,13.92 11.51,9.32 20.45,25.44 26.83,48.32 5.79,20.79 7.67,36.98 5.59,48.55 -2.11,11.5 -6.33,20.43 -12.77,26.68 -6.43,6.26 -19.72,12.21 -40,17.86l-54.56 14.48c-15.46,4.3 -26.7,8.23 -33.65,11.75 -6.96,3.53 -14.05,8.49 -21.3,14.9l-12.87 -46.21c2.72,-2.04 6.83,-4.84 12.34,-8.26 2.57,-1.51 4.22,-2.58 4.98,-3.15 -10.03,-5.77 -18.22,-12.63 -24.66,-20.6 -6.43,-7.98 -11.1,-17.05 -13.95,-27.3 -5.04,-18.07 -4.08,-33.72 2.87,-46.88 6.89,-13.15 17.9,-21.83 32.96,-26.03 9.92,-2.76 19.47,-2.86 28.62,-0.28 9.08,2.6 16.92,7.54 23.46,15 6.52,7.4 13.58,18.74 21.19,34.01 10.15,20.62 18.2,34.67 24.05,42.07l4.7 -1.31c9.07,-2.52 14.91,-6.53 17.59,-12.04 2.59,-5.55 2.19,-14.47 -1.24,-26.75 -2.32,-8.33 -5.75,-14.33 -10.39,-18.04 -4.6,-3.79 -11.47,-5.9 -20.6,-6.47zm-20.3 73.04c-3.64,-5.41 -8.65,-14.19 -15.04,-26.4 -6.37,-12.13 -11.46,-19.87 -15.17,-23.11 -6.05,-4.85 -12.34,-6.39 -18.96,-4.54 -6.57,1.83 -11.5,5.83 -14.9,12.02 -3.41,6.2 -4.06,13.04 -1.97,20.57 2.34,8.38 7.35,15.65 14.98,21.76 5.81,4.42 11.95,6.74 18.56,6.8 4.29,0.08 12.05,-1.41 23.21,-4.52l9.29 -2.58zm121.38 114.92l12.56 164.96 -39.04 2.97 -4.44 -58.39 -143.52 10.93 -3.67 -48.18 143.52 -10.93 -4.45 -58.39 39.04 -2.97zm3.95 277.59l-8.88 47.5 -74.9 -14 -8.92 47.73c-3.5,18.73 -7.52,32.81 -12.11,42.36 -4.6,9.55 -11.99,16.77 -22.19,21.75 -10.21,4.97 -21.23,6.38 -33.08,4.16 -17.4,-3.25 -29.35,-11.65 -35.84,-25.18 -6.5,-13.54 -7.57,-32.16 -3.12,-55.97l19.08 -102 179.96 33.65zm-158.33 19.56l-8.31 44.44c-2.6,13.87 -2,23.19 1.71,27.95 3.79,4.72 8.74,7.68 14.92,8.83 8.61,1.61 15.18,-0.63 19.75,-6.77 4.49,-6.1 8.34,-17.76 11.55,-34.92l5.8 -31.04 -45.42 -8.49zm87.16 262.08l-19.69 44.14 -68.29 -30.47c-2.42,7.74 -2.49,13.96 -0.2,18.64 2.3,4.64 8.64,11.91 19.09,21.72 13.94,13.04 21.65,23.89 23.26,32.71 1.61,8.77 0,18.61 -4.89,29.56 -1.51,3.38 -4.36,9.06 -8.61,17.14l-29.24 -12.84c5.23,-11.71 7.49,-19.65 6.72,-23.85 -0.85,-4.3 -6.14,-10.91 -15.9,-19.78 -13.05,-12 -19.23,-23.7 -18.46,-34.95 -10.09,12.24 -27.55,18.61 -52.32,19.15 -1.3,0.01 -2.63,0.11 -4.1,0.23l-57.08 4.15 21.19 -47.52 58.31 -0.38c11.78,-0.15 19.82,-1.27 24.09,-3.35 4.25,-2.04 7.85,-6.35 10.75,-12.85l-71.52 -31.9 19.7 -44.14 167.19 74.59zm-179.77 159.91c12.75,9.84 22.68,22.48 29.75,37.97 7.11,15.51 9.32,31.4 6.73,47.75 -2.6,16.34 -9.31,31.59 -20.27,45.78 -16.92,21.92 -37.86,34.34 -62.92,37.36 -25.1,2.98 -48.46,-3.91 -70.24,-20.72 -21.96,-16.95 -34.7,-38.08 -38.25,-63.32 -3.5,-25.28 3.01,-48.64 19.57,-70.09 10.24,-13.26 23.04,-23.58 38.35,-31.01 15.26,-7.37 31.15,-9.75 47.62,-7.05 16.44,2.66 33,10.47 49.66,23.33zm-32.44 37.79c-14.38,-11.1 -28.03,-16.21 -40.91,-15.3 -12.97,0.9 -23.25,6.33 -30.97,16.34 -7.69,9.96 -10.34,21.28 -7.86,33.96 2.42,12.64 10.92,24.62 25.48,35.87 14.2,10.95 27.76,16 40.6,15.14 12.89,-0.82 23.17,-6.25 30.86,-16.21 7.72,-10.01 10.37,-21.33 7.97,-34.1 -2.38,-12.69 -10.79,-24.59 -25.17,-35.7zm-105.69 256.49l-87.13 60.46c-17.88,12.4 -33.46,18.42 -46.87,18.06 -13.41,-0.35 -24.69,-7.12 -33.81,-20.27 -5.83,-8.4 -8.51,-17.41 -7.95,-27.04 0.51,-9.58 3.75,-17.99 9.65,-25.16 -12.11,4.62 -23.12,5.25 -33.1,1.79 -9.93,-3.48 -17.79,-9.34 -23.56,-17.65 -8.1,-11.69 -10.41,-24.19 -6.87,-37.45 3.54,-13.25 13.7,-25.74 30.51,-37.41l94.77 -65.75 104.36 150.42zm-83.13 -35.05l-25.8 17.9c-12.46,8.64 -20.38,16.42 -23.75,23.41 -3.38,7 -2.76,13.87 1.9,20.58 4.42,6.38 10.14,9.07 17.19,8.18 7.04,-0.88 17.17,-5.9 30.39,-15.07l25.8 -17.9 -25.73 -37.1zm-43.24 -62.32l-31.59 21.92c-11.41,7.91 -18.77,15.03 -22.08,21.4 -3.31,6.37 -2.53,13.06 2.4,20.16 5.13,7.4 11.64,10.39 19.54,8.99 7.88,-1.32 20.5,-8 37.79,-19.99l20.49 -14.22 -26.55 -38.26zm-103.47 271.09l18.46 40.82 -44.03 19.92 -18.47 -40.82 44.04 -19.92zm-85.63 -189.31l75.45 166.81 -44.04 19.92 -75.45 -166.81 44.04 -19.92z"/>
  <path id="_1" class="fil2 str2" d="M1038.11 2640.87l-172.63 -102.4 128.86 -217.24 43.99 26.1 -107.08 180.52 84.65 50.21 107.08 -180.52 43.99 26.09 -128.86 217.24zm-242.92 -245.66l-31.27 -32.56 19.38 -18.61c-10.7,2.12 -21.49,1.56 -32.53,-1.69 -11,-3.3 -20.73,-9.36 -29.16,-18.14 -14.7,-15.3 -21.18,-34.11 -19.41,-56.35 1.74,-22.22 13.4,-43.68 34.86,-64.29 22.09,-21.22 44.39,-32.3 66.99,-33.29 22.6,-1.01 41.25,6.19 55.99,21.53 7.01,7.29 11.92,15.3 14.7,24.05 2.77,8.66 3.84,19.7 3.07,32.99l66.06 -63.45 33.48 34.85 -182.16 174.96zm31 -95.8c14.88,-14.29 23.05,-27.77 24.52,-40.5 1.46,-12.66 -1.86,-23.25 -9.93,-31.64 -7.78,-8.1 -17.52,-11.71 -29.22,-10.81 -11.7,0.88 -24.96,8.47 -39.84,22.76 -13.91,13.37 -21.56,26.02 -22.97,38.05 -1.45,11.99 1.81,22.08 9.66,30.25 8.19,8.53 18.3,12.44 30.29,11.68 12.03,-0.71 24.52,-7.33 37.49,-19.79zm-236.29 -108.16l-37.56 24.43 -26.34 -40.52 37.55 -24.42 26.35 40.51zm174.19 -113.26l-153.48 99.8 -26.35 -40.52 153.49 -99.8 26.34 40.52zm-155.62 -131.16l-29.11 11.75c-3.15,-7.8 -5.92,-13.27 -8.4,-16.4 -2.43,-3.07 -6.23,-5.41 -11.43,-6.99 -5.21,-1.58 -10.32,-1.35 -15.38,0.69 -5.35,2.16 -9.57,6.15 -12.54,11.85 -3.01,5.72 -2.94,12.48 0.18,20.21 2.4,5.94 5.8,10.78 10.26,14.44 4.4,3.68 12.16,5.48 23.25,5.45l7.13 41.25c-16.37,2.17 -30.8,-1.57 -43.29,-11.13 -12.47,-9.54 -21.96,-22.38 -28.43,-38.42 -8.25,-20.43 -9.95,-38.14 -5.05,-53.18 4.85,-15.02 14.36,-25.38 28.59,-31.12 8.88,-3.59 17.16,-4.14 24.95,-1.64 7.79,2.5 16.28,7.95 25.51,16.4 -1.62,-13.93 -0.23,-25.4 4.21,-34.36 4.42,-9 11.78,-15.59 22.14,-19.77 13.19,-5.32 27.07,-3.76 41.58,4.71 14.51,8.47 26.44,24.33 35.79,47.5 16.3,40.39 10.46,71.48 -17.51,93.29l-24.03 -37.85c13.92,-13.29 17.8,-27.54 11.66,-42.74 -3.41,-8.46 -8.35,-14.26 -14.82,-17.56 -6.45,-3.28 -12.65,-3.7 -18.65,-1.28 -6.59,2.66 -10.72,7.37 -12.4,14.2 -1.63,6.81 -0.74,14.51 2.69,23.01l3.1 7.69zm-167.82 -158.25l-12.56 -105.31c-2.57,-21.61 -0.58,-38.19 6.01,-49.86 6.61,-11.69 17.87,-18.48 33.76,-20.37 10.16,-1.21 19.37,0.65 27.61,5.65 8.23,4.94 14.13,11.75 17.7,20.33 1.6,-12.86 6.21,-22.89 13.94,-30.08 7.73,-7.14 16.59,-11.34 26.64,-12.54 14.12,-1.68 26.24,2.14 36.29,11.49 10.06,9.33 16.33,24.17 18.75,44.48l13.65 114.54 -181.79 21.67zm69.93 -57.01l-3.71 -31.18c-1.8,-15.05 -4.96,-25.69 -9.55,-31.95 -4.6,-6.26 -10.96,-8.94 -19.07,-7.97 -7.71,0.92 -12.76,4.72 -15.29,11.35 -2.52,6.64 -2.83,17.93 -0.93,33.92l3.72 31.18 44.83 -5.35zm75.32 -8.97l-4.55 -38.18c-1.65,-13.79 -4.48,-23.63 -8.56,-29.54 -4.08,-5.91 -10.35,-8.35 -18.93,-7.33 -8.94,1.07 -14.63,5.41 -17.1,13.05 -2.53,7.58 -2.55,21.85 -0.05,42.75l2.95 24.76 46.24 -5.51zm-167.32 -226l5.51 -46.23 114.25 13.61 -105.44 -87.52 5.64 -47.3 181.79 21.67 -5.51 46.25 -115.88 -13.82 106.94 88.78 -5.51 46.23 -181.79 -21.67zm53.08 -302.7l18.11 -40.59 131.44 58.63 22.85 -51.22 -131.44 -58.64 18.11 -40.59 131.44 58.64 23.14 -51.87 -131.44 -58.63 18.11 -40.59 131.44 58.63 8.04 -18.04 79.9 35.65 -15.95 35.75 -44.14 -19.69 -92.41 207.15 -167.2 -74.59zm348.97 -336.36l37.83 -31.14c9.3,16.28 13.01,32.52 11.27,48.68 -1.84,16.18 -9.32,31.87 -22.48,46.99 -20.88,24 -44.21,34.96 -69.9,32.79 -20.51,-1.86 -40.37,-11.11 -59.58,-27.82 -22.88,-19.9 -35.64,-41.52 -38.21,-64.72 -2.62,-23.24 4.06,-43.99 19.96,-62.28 17.82,-20.49 38.69,-30.78 62.61,-30.86 23.87,-0.04 49.62,12.38 77.19,37.31l-79.4 91.28c11.05,9.15 22.02,13.55 32.96,13.17 10.89,-0.35 20,-4.73 27.26,-13.07 4.97,-5.72 7.59,-11.86 7.84,-18.42 0.29,-6.61 -2.18,-13.89 -7.35,-21.91zm-35.16 -34.31c-10.83,-8.96 -21.26,-13.27 -31.27,-12.87 -10.06,0.37 -18.29,4.28 -24.77,11.73 -6.91,7.94 -9.69,17.06 -8.39,27.3 1.29,10.24 7.04,19.68 17.09,28.27l47.34 -54.43zm225.84 -52.18l-137.69 -211.75 42.88 -27.88 137.69 211.75 -42.88 27.88zm49.1 -242.97l56.3 -21.64 87.77 102.94 -3.09 -135.5 55.92 -21.5 65.7 170.88 -38.52 14.81 -43.25 -112.5 1.87 128.41 -38.8 14.92 -82.93 -97.24 43.25 112.5 -38.52 14.81 -65.7 -170.89zm326.38 -76.17l-14.61 -45.56 -5.05 -42.33 52.2 -6.23 5.05 42.33 -2.27 47.58 -35.32 4.21zm308.02 -23.76l-13.9 182.56 -48.19 -3.67 5.76 -75.62 -4.46 -0.34c-10.43,-0.8 -18.22,-0.04 -23.29,2.28 -5.13,2.33 -10.95,7.61 -17.59,15.82l-3.2 3.36 -35.72 48.52 -56.22 -4.28 38.61 -50.18c11.01,-14.38 20.57,-22.38 28.72,-24.06 -13.41,-1.85 -24,-7.78 -31.71,-17.92 -7.66,-10.07 -10.96,-22.48 -9.84,-37.19 0.9,-11.84 4.48,-21.71 10.68,-29.67 6.21,-7.96 14.03,-13.08 23.53,-15.43 9.44,-2.34 23.32,-2.82 41.56,-1.43l95.26 7.25zm-50.54 27.29l-34.65 -2.64c-12.79,-0.98 -21.83,0.16 -27.32,3.4 -5.44,3.24 -8.47,9.03 -9.11,17.41 -0.64,8.44 1.82,14.7 7.4,18.84 5.58,4.14 15.07,6.69 28.37,7.7l31.72 2.42 3.59 -47.13zm291.75 -46.55l183.31 81.78 -102.91 230.67 -46.71 -20.84 85.51 -191.68 -89.88 -40.1 -85.51 191.68 -46.72 -20.84 102.91 -230.67zm208.35 278.82c10.57,-12.15 23.76,-21.32 39.64,-27.48 15.89,-6.2 31.89,-7.47 48.06,-3.93 16.15,3.54 30.98,11.13 44.51,22.9 20.9,18.17 32.08,39.8 33.63,64.99 1.51,25.23 -6.73,48.15 -24.78,68.91 -18.21,20.94 -40.04,32.42 -65.43,34.49 -25.45,2.02 -48.38,-5.83 -68.83,-23.62 -12.65,-10.99 -22.2,-24.37 -28.72,-40.09 -6.47,-15.66 -7.92,-31.66 -4.26,-47.95 3.61,-16.26 12.37,-32.34 26.18,-48.22zm35.84 34.59c-11.92,13.71 -17.83,27.04 -17.67,39.95 0.15,13 4.97,23.58 14.51,31.87 9.49,8.25 20.65,11.57 33.45,9.83 12.76,-1.68 25.21,-9.47 37.28,-23.35 11.76,-13.53 17.59,-26.78 17.48,-39.65 -0.06,-12.91 -4.89,-23.49 -14.38,-31.75 -9.54,-8.29 -20.68,-11.6 -33.56,-9.95 -12.81,1.64 -25.19,9.34 -37.11,23.05zm431.85 255.7l16.55 28.32c-13.07,6.41 -24.49,8.66 -34.31,6.78 -9.77,-1.92 -21.26,-14.13 -34.38,-36.57 -1.54,-2.64 -3.06,-5.36 -4.53,-8.11l-3.15 -5.38c-7.77,-13.29 -15.57,-23.25 -23.38,-29.85 -7.75,-6.63 -17.44,-10.17 -28.95,-10.52 -11.6,-0.38 -26.8,4.84 -45.65,15.58 15.16,-0.62 28.45,2.31 39.91,8.75 11.43,6.39 21.11,16.41 28.97,29.86 12.13,20.75 14.33,43.04 6.55,66.91 -7.74,23.8 -22.26,41.96 -43.52,54.39 -22.18,12.96 -45.64,16.53 -70.41,10.72 -24.77,-5.89 -44.28,-20.97 -58.55,-45.39 -9.82,-16.8 -14.41,-33.87 -13.79,-51.33 0.61,-17.38 6.3,-32.89 17.06,-46.53 10.79,-13.59 32.27,-29.84 64.55,-48.71 37.97,-22.19 69.33,-31.11 94.09,-26.86 24.75,4.26 47.27,23.78 67.59,58.55l12.38 21.17c3.44,5.89 7.75,8.61 12.97,8.22zm-194.61 0.97c-14.46,8.45 -23.83,18.77 -28.07,30.85 -4.24,12.08 -3.35,23.27 2.7,33.62 6.53,11.18 16.26,17.81 29.18,19.86 12.91,2.06 26.2,-0.94 40.02,-9.01 14.05,-8.22 23.26,-18.44 27.65,-30.75 4.39,-12.29 3.45,-23.8 -2.78,-34.47 -6.05,-10.35 -15.48,-16.69 -28.23,-19.04 -12.75,-2.35 -26.26,0.63 -40.47,8.94zm152.96 233.88l-4.27 -44.22c18.54,-0.04 33.58,4.62 45.08,13.92 11.51,9.32 20.45,25.44 26.83,48.32 5.79,20.79 7.67,36.98 5.59,48.55 -2.11,11.5 -6.33,20.43 -12.77,26.68 -6.43,6.26 -19.72,12.21 -40,17.86l-54.56 14.48c-15.46,4.3 -26.7,8.23 -33.65,11.75 -6.96,3.53 -14.05,8.49 -21.3,14.9l-12.87 -46.21c2.72,-2.04 6.83,-4.84 12.34,-8.26 2.57,-1.51 4.22,-2.58 4.98,-3.15 -10.03,-5.77 -18.22,-12.63 -24.66,-20.6 -6.43,-7.98 -11.1,-17.05 -13.95,-27.3 -5.04,-18.07 -4.08,-33.72 2.87,-46.88 6.89,-13.15 17.9,-21.83 32.96,-26.03 9.92,-2.76 19.47,-2.86 28.62,-0.28 9.08,2.6 16.92,7.54 23.46,15 6.52,7.4 13.58,18.74 21.19,34.01 10.15,20.62 18.2,34.67 24.05,42.07l4.7 -1.31c9.07,-2.52 14.91,-6.53 17.59,-12.04 2.59,-5.55 2.19,-14.47 -1.24,-26.75 -2.32,-8.33 -5.75,-14.33 -10.39,-18.04 -4.6,-3.79 -11.47,-5.9 -20.6,-6.47zm-20.3 73.04c-3.64,-5.41 -8.65,-14.19 -15.04,-26.4 -6.37,-12.13 -11.46,-19.87 -15.17,-23.11 -6.05,-4.85 -12.34,-6.39 -18.96,-4.54 -6.57,1.83 -11.5,5.83 -14.9,12.02 -3.41,6.2 -4.06,13.04 -1.97,20.57 2.34,8.38 7.35,15.65 14.98,21.76 5.81,4.42 11.95,6.74 18.56,6.8 4.29,0.08 12.05,-1.41 23.21,-4.52l9.29 -2.58zm121.38 114.92l12.56 164.96 -39.04 2.97 -4.44 -58.39 -143.52 10.93 -3.67 -48.18 143.52 -10.93 -4.45 -58.39 39.04 -2.97zm3.95 277.59l-8.88 47.5 -74.9 -14 -8.92 47.73c-3.5,18.73 -7.52,32.81 -12.11,42.36 -4.6,9.55 -11.99,16.77 -22.19,21.75 -10.21,4.97 -21.23,6.38 -33.08,4.16 -17.4,-3.25 -29.35,-11.65 -35.84,-25.18 -6.5,-13.54 -7.57,-32.16 -3.12,-55.97l19.08 -102 179.96 33.65zm-158.33 19.56l-8.31 44.44c-2.6,13.87 -2,23.19 1.71,27.95 3.79,4.72 8.74,7.68 14.92,8.83 8.61,1.61 15.18,-0.63 19.75,-6.77 4.49,-6.1 8.34,-17.76 11.55,-34.92l5.8 -31.04 -45.42 -8.49zm87.16 262.08l-19.69 44.14 -68.29 -30.47c-2.42,7.74 -2.49,13.96 -0.2,18.64 2.3,4.64 8.64,11.91 19.09,21.72 13.94,13.04 21.65,23.89 23.26,32.71 1.61,8.77 0,18.61 -4.89,29.56 -1.51,3.38 -4.36,9.06 -8.61,17.14l-29.24 -12.84c5.23,-11.71 7.49,-19.65 6.72,-23.85 -0.85,-4.3 -6.14,-10.91 -15.9,-19.78 -13.05,-12 -19.23,-23.7 -18.46,-34.95 -10.09,12.24 -27.55,18.61 -52.32,19.15 -1.3,0.01 -2.63,0.11 -4.1,0.23l-57.08 4.15 21.19 -47.52 58.31 -0.38c11.78,-0.15 19.82,-1.27 24.09,-3.35 4.25,-2.04 7.85,-6.35 10.75,-12.85l-71.52 -31.9 19.7 -44.14 167.19 74.59zm-179.77 159.91c12.75,9.84 22.68,22.48 29.75,37.97 7.11,15.51 9.32,31.4 6.73,47.75 -2.6,16.34 -9.31,31.59 -20.27,45.78 -16.92,21.92 -37.86,34.34 -62.92,37.36 -25.1,2.98 -48.46,-3.91 -70.24,-20.72 -21.96,-16.95 -34.7,-38.08 -38.25,-63.32 -3.5,-25.28 3.01,-48.64 19.57,-70.09 10.24,-13.26 23.04,-23.58 38.35,-31.01 15.26,-7.37 31.15,-9.75 47.62,-7.05 16.44,2.66 33,10.47 49.66,23.33zm-32.44 37.79c-14.38,-11.1 -28.03,-16.21 -40.91,-15.3 -12.97,0.9 -23.25,6.33 -30.97,16.34 -7.69,9.96 -10.34,21.28 -7.86,33.96 2.42,12.64 10.92,24.62 25.48,35.87 14.2,10.95 27.76,16 40.6,15.14 12.89,-0.82 23.17,-6.25 30.86,-16.21 7.72,-10.01 10.37,-21.33 7.97,-34.1 -2.38,-12.69 -10.79,-24.59 -25.17,-35.7zm-105.69 256.49l-87.13 60.46c-17.88,12.4 -33.46,18.42 -46.87,18.06 -13.41,-0.35 -24.69,-7.12 -33.81,-20.27 -5.83,-8.4 -8.51,-17.41 -7.95,-27.04 0.51,-9.58 3.75,-17.99 9.65,-25.16 -12.11,4.62 -23.12,5.25 -33.1,1.79 -9.93,-3.48 -17.79,-9.34 -23.56,-17.65 -8.1,-11.69 -10.41,-24.19 -6.87,-37.45 3.54,-13.25 13.7,-25.74 30.51,-37.41l94.77 -65.75 104.36 150.42zm-83.13 -35.05l-25.8 17.9c-12.46,8.64 -20.38,16.42 -23.75,23.41 -3.38,7 -2.76,13.87 1.9,20.58 4.42,6.38 10.14,9.07 17.19,8.18 7.04,-0.88 17.17,-5.9 30.39,-15.07l25.8 -17.9 -25.73 -37.1zm-43.24 -62.32l-31.59 21.92c-11.41,7.91 -18.77,15.03 -22.08,21.4 -3.31,6.37 -2.53,13.06 2.4,20.16 5.13,7.4 11.64,10.39 19.54,8.99 7.88,-1.32 20.5,-8 37.79,-19.99l20.49 -14.22 -26.55 -38.26zm-103.47 271.09l18.46 40.82 -44.03 19.92 -18.47 -40.82 44.04 -19.92zm-85.63 -189.31l75.45 166.81 -44.04 19.92 -75.45 -166.81 44.04 -19.92z"/>
  <path class="fil1 str3" d="M1440.91 2592.73l14.19 -44.03c32.91,11.64 56.72,21.59 71.64,30.05 -3.91,-37.35 -6.03,-63.07 -6.24,-77.15l44.98 0c-0.64,20.43 -2.96,46.04 -7.1,76.84 21.28,-10.69 45.62,-20.64 73.14,-29.74l14.28 44.03c-26.24,8.67 -51.96,14.49 -77.15,17.35 12.59,11.01 30.38,30.48 53.24,58.64l-37.15 26.35c-11.96,-16.3 -26.14,-38.53 -42.44,-66.67 -15.35,29.1 -28.79,51.33 -40.32,66.67l-36.62 -26.35c24.03,-29.53 41.17,-49.11 51.44,-58.64 -26.67,-5.18 -51.97,-10.9 -75.89,-17.35z"/>
  <g id="_1527770186448">
   <path class="fil3 str4" d="M1483.85 1265.63l-4.86 -6.13c-2.89,5.27 -2.29,2.97 -0.38,6.53l6.06 15.13 22.46 1.41 -23.28 -16.94zm-37.36 -66.07c6.97,7.29 8.72,6.36 19.86,6.62l-18.59 -8.09c-22.26,-7.43 -65.73,-29.34 -85.73,-43.01 -13.59,-9.29 -25.19,-19.4 -35.54,-30.68 -15.69,-17.08 -12.8,-25.03 -34.78,-29l-8.23 -2.44 2.49 6.24c12.03,11.48 16.27,21.26 30.24,32.38 12.21,9.71 23.7,19.85 37.96,28.23 22.09,12.99 67.88,37.06 92.32,39.75zm264.99 -129.44c-105.39,-30.85 -307.67,-31.52 -412.76,0.2 72.62,29.61 342.74,31.91 412.76,-0.2zm-78.6 -114.58c-13.5,0.72 -22.3,10.31 -23.4,23.52 14.67,-1.69 21.93,-9.03 23.4,-23.52zm-83.04 78.05l12.29 3.26 -4.7 -6.73 35.47 -27.6c11.62,-153 278.48,-73.62 223.91,98.54 -28.95,91.37 -193.82,189.21 -280.48,220.36 3.17,-90.01 129.24,-82.91 211.34,-187.14 100.01,-126.96 -87.94,-227.45 -128.64,-100.91l-19.31 -17.07 -27.36 18.47 191.68 30.9c-10.72,60.03 -114.62,121.51 -173.04,140.96 -32.82,10.93 -28.28,2.31 -38.58,36.59 -7.64,25.41 -21.33,42.61 -24.73,52.22 -8.15,23.03 2.92,125.29 -6.17,150.64 -23.9,-9.8 8.71,-126.53 -9.07,-146 -17.45,5.61 -6.37,110.64 -7.44,132.89 -33.22,-13.26 -16.53,-101.88 -21.33,-133.06 -0.2,-1.28 -19.59,-37.37 -24.38,-52.64 -11.22,-35.75 -2.21,-28.29 -38.04,-40.14 -63.23,-20.91 -151.72,-72.15 -174.11,-137.4 153.22,-46.72 191.07,-23.47 302.69,-36.14z"/>
   <path class="fil3 str4" d="M1432.83 1819.9l10.01 -3.82 51.05 -11.57c3.81,-9.34 1.35,-78.24 1.32,-93.58l20.39 19.11 1.6 70.28c30.2,30.11 152.12,18.25 176.01,62.29l-376 0.22c16.18,-26.76 84.71,-39.05 115.62,-42.93z"/>
   <path class="fil3 str4" d="M1529.76 1581.8l0.84 -28.3 20.35 -16.39c-3.8,-31.1 -72.23,-60.02 -96.11,-88 -47.3,-55.38 5.66,-122.75 19.56,-124.44 -0.15,85.17 -17.25,89.35 56.26,142.13 50.59,36.33 80.37,93.58 -0.9,115z"/>
   <path class="fil3 str4" d="M1479.54 1608.87c-26.67,29.36 34.29,66.69 51.14,85.29 27.96,30.86 57.87,66.4 -5.09,85.67 -3.57,-51.04 44.92,-18.26 -49.18,-97.75 -31.09,-26.26 -48.51,-82.97 0.33,-103.62 4.63,7.55 3.5,20.38 2.8,30.41z"/>
   <path class="fil3 str4" d="M1504.86 1501.14l0.84 153.45c-23,-7.62 -14.41,-53.31 -15.01,-73.99 -0.71,-24.68 -4,-65.42 -1.27,-88.36l15.44 8.9z"/>
   <path class="fil3 str4" d="M1447.76 1198.09l-1.27 1.47c-24.44,-2.69 -70.23,-26.76 -92.32,-39.75 -14.26,-8.38 -25.75,-18.52 -37.96,-28.23 -13.97,-11.12 -18.21,-20.9 -30.24,-32.38 0,-5.6 -1.13,-3.54 5.74,-3.8 21.98,3.97 19.09,11.92 34.78,29 10.35,11.28 21.95,21.39 35.54,30.68 20,13.67 63.47,35.58 85.73,43.01z"/>
   <path class="fil3 str4" d="M1517.73 1665.11c-15.35,-3.52 -8.23,-40.45 -7.56,-73.22l1.41 -74.28c1.38,-8.22 -1.51,3.32 1.38,-5.23l2.51 -4.39c9.63,8.44 5.52,19.6 5.19,33.72 -0.33,13.97 -0.55,27.95 -0.87,41.92 -0.63,27.15 -1.91,54.31 -2.06,81.48z"/>
   <path class="fil3 str4" d="M1445.63 1806.87l-0.81 -2.37c5.39,-9.15 28.49,-18.48 39.5,-22.13l1.34 10.82 -40.03 13.68z"/>
   <path class="fil3 str4" d="M1609.48 979.06c1.1,-13.21 9.9,-22.8 23.4,-23.52 -1.47,14.49 -8.73,21.83 -23.4,23.52z"/>
   <polygon class="fil3 str4" points="1478.61,1266.03 1483.85,1265.63 1507.13,1282.57 1484.67,1281.16 "/>
   <path class="fil3 str4" d="M1479.54 1608.87c0.7,-10.03 1.83,-22.86 -2.8,-30.41l3.71 -3.5c2.57,12.97 4.45,24.57 -0.91,33.91z"/>
   <path class="fil3 str4" d="M1446.49 1199.56l1.27 -1.47 18.59 8.09c-11.14,-0.26 -12.89,0.67 -19.86,-6.62z"/>
   <path class="fil3 str4" d="M1442.84 1816.08l-10.01 3.82c0.45,-15.07 -0.03,-5.85 4.18,-10.26l-0.28 3.95 6.11 2.49z"/>
   <polygon class="fil3 str4" points="1549.84,1033.59 1557.43,1030.12 1562.13,1036.85 "/>
   <polygon class="fil3 str4" points="1445.63,1806.87 1436.73,1813.59 1437.01,1809.64 1444.82,1804.5 "/>
   <path class="fil3 str4" d="M1483.85 1265.63l-5.24 0.4c-1.91,-3.56 -2.51,-1.26 0.38,-6.53l4.86 6.13z"/>
   <path class="fil3 str4" d="M1285.97 1099.2l-2.49 -6.24 8.23 2.44c-6.87,0.26 -5.74,-1.8 -5.74,3.8z"/>
  </g>
  <path class="fil1" d="M1192.47 1914.94l124.48 0 0 199.41 -26.45 0 0 -176.01 -71.58 0 0 102.72c0,20.89 -0.97,36.16 -2.92,45.86 -1.95,9.75 -6.08,17.26 -12.35,22.7 -6.26,5.38 -14.25,8.07 -23.86,8.07 -5.85,0 -12.85,-1.2 -21.02,-3.62l4.73 -23.39c4.32,2.23 8.03,3.34 11.09,3.34 5.95,0 10.45,-2.23 13.42,-6.73 2.97,-4.5 4.46,-15.09 4.46,-31.8l0 -140.55z"/>
  <path id="_1_0" class="fil1" d="M1388.38 1942.79l0 -27.85 24.51 0 0 27.85 -24.51 0zm0 171.56l0 -144.54 24.51 0 0 144.54 -24.51 0z"/>
  <path id="_2" class="fil1" d="M1480.92 1969.81l24.51 0 0 62.38c7.8,0 13.28,-1.48 16.43,-4.5 3.11,-2.97 7.71,-11.65 13.83,-26.09 4.83,-11.41 8.73,-18.93 11.7,-22.55 3.02,-3.63 6.45,-6.09 10.35,-7.34 3.95,-1.25 10.21,-1.9 18.8,-1.9l4.92 0 0 20.19 -6.82 -0.14c-6.45,0 -10.59,0.98 -12.4,2.88 -1.9,1.99 -4.82,7.94 -8.72,17.82 -3.72,9.47 -7.1,16.02 -10.21,19.64 -3.07,3.62 -7.85,6.91 -14.3,9.93 10.54,2.83 20.93,12.63 31.15,29.43l26.87 44.79 -26.92 0 -26.5 -44.65c-5.34,-9.05 -9.98,-15 -13.93,-17.87 -3.99,-2.88 -8.73,-4.32 -14.25,-4.32l0 66.84 -24.51 0 0 -144.54z"/>
  <path id="_3" class="fil1" d="M1734.53 2096.25c-9.1,7.75 -17.87,13.18 -26.27,16.38 -8.4,3.21 -17.41,4.78 -27.06,4.78 -15.87,0 -28.08,-3.85 -36.62,-11.6 -8.54,-7.71 -12.81,-17.59 -12.81,-29.61 0,-7.06 1.62,-13.51 4.82,-19.36 3.25,-5.85 7.48,-10.49 12.68,-14.02 5.24,-3.53 11.09,-6.22 17.63,-8.03 4.83,-1.25 12.12,-2.46 21.82,-3.67 19.77,-2.32 34.39,-5.15 43.72,-8.4 0.1,-3.34 0.14,-5.47 0.14,-6.36 0,-9.93 -2.32,-16.94 -6.96,-21.02 -6.27,-5.53 -15.6,-8.26 -27.94,-8.26 -11.56,0 -20.1,2.04 -25.58,6.08 -5.52,4.03 -9.56,11.18 -12.21,21.49l-23.95 -3.35c2.19,-10.25 5.76,-18.56 10.77,-24.87 5.02,-6.32 12.26,-11.14 21.73,-14.58 9.42,-3.39 20.42,-5.11 32.86,-5.11 12.35,0 22.42,1.44 30.17,4.37 7.7,2.92 13.41,6.54 17.03,10.95 3.62,4.41 6.18,9.98 7.66,16.71 0.79,4.18 1.21,11.7 1.21,22.51l0 32.5c0,22.69 0.51,37.04 1.53,43.12 0.98,6.08 3.02,11.88 5.99,17.45l-25.62 0c-2.46,-5.15 -4.04,-11.19 -4.74,-18.1zm-1.95 -54.31c-8.91,3.62 -22.28,6.68 -40.1,9.19 -10.12,1.44 -17.27,3.06 -21.45,4.87 -4.17,1.81 -7.38,4.46 -9.65,7.9 -2.27,3.48 -3.43,7.33 -3.43,11.6 0,6.45 2.46,11.88 7.42,16.2 4.97,4.32 12.21,6.5 21.72,6.5 9.43,0 17.83,-2.05 25.21,-6.18 7.33,-4.08 12.76,-9.7 16.2,-16.8 2.64,-5.52 3.94,-13.65 3.94,-24.37l0.14 -8.91z"/>
  <path id="_4" class="fil1" d="M1825.96 2169.77l0 -199.96 22.28 0 0 18.98c5.25,-7.33 11.19,-12.85 17.83,-16.52 6.59,-3.67 14.62,-5.53 24.04,-5.53 12.35,0 23.21,3.16 32.63,9.52 9.42,6.31 16.52,15.27 21.35,26.78 4.78,11.56 7.2,24.19 7.2,37.97 0,14.72 -2.65,27.99 -7.94,39.83 -5.29,11.79 -13,20.84 -23.12,27.15 -10.07,6.27 -20.7,9.42 -31.84,9.42 -8.17,0 -15.5,-1.71 -21.95,-5.15 -6.5,-3.43 -11.79,-7.75 -15.97,-13l0 70.51 -24.51 0zm22.28 -126.81c0,18.52 3.76,32.21 11.23,41.08 7.52,8.87 16.62,13.32 27.3,13.32 10.86,0 20.14,-4.59 27.85,-13.78 7.75,-9.19 11.6,-23.4 11.6,-42.66 0,-18.38 -3.76,-32.12 -11.32,-41.27 -7.57,-9.14 -16.58,-13.69 -27.07,-13.69 -10.39,0 -19.58,4.88 -27.57,14.58 -8.03,9.74 -12.02,23.85 -12.02,42.42z"/>
  <path id="_5" class="fil2 str5" d="M1192.47 1914.94l124.48 0 0 199.41 -26.45 0 0 -176.01 -71.58 0 0 102.72c0,20.89 -0.97,36.16 -2.92,45.86 -1.95,9.75 -6.08,17.26 -12.35,22.7 -6.26,5.38 -14.25,8.07 -23.86,8.07 -5.85,0 -12.85,-1.2 -21.02,-3.62l4.73 -23.39c4.32,2.23 8.03,3.34 11.09,3.34 5.95,0 10.45,-2.23 13.42,-6.73 2.97,-4.5 4.46,-15.09 4.46,-31.8l0 -140.55z"/>
  <path id="_6" class="fil2 str5" d="M1388.38 1942.79l0 -27.85 24.51 0 0 27.85 -24.51 0zm0 171.56l0 -144.54 24.51 0 0 144.54 -24.51 0z"/>
  <path id="_7" class="fil2 str5" d="M1480.92 1969.81l24.51 0 0 62.38c7.8,0 13.28,-1.48 16.43,-4.5 3.11,-2.97 7.71,-11.65 13.83,-26.09 4.83,-11.41 8.73,-18.93 11.7,-22.55 3.02,-3.63 6.45,-6.09 10.35,-7.34 3.95,-1.25 10.21,-1.9 18.8,-1.9l4.92 0 0 20.19 -6.82 -0.14c-6.45,0 -10.59,0.98 -12.4,2.88 -1.9,1.99 -4.82,7.94 -8.72,17.82 -3.72,9.47 -7.1,16.02 -10.21,19.64 -3.07,3.62 -7.85,6.91 -14.3,9.93 10.54,2.83 20.93,12.63 31.15,29.43l26.87 44.79 -26.92 0 -26.5 -44.65c-5.34,-9.05 -9.98,-15 -13.93,-17.87 -3.99,-2.88 -8.73,-4.32 -14.25,-4.32l0 66.84 -24.51 0 0 -144.54z"/>
  <path id="_8" class="fil2 str5" d="M1734.53 2096.25c-9.1,7.75 -17.87,13.18 -26.27,16.38 -8.4,3.21 -17.41,4.78 -27.06,4.78 -15.87,0 -28.08,-3.85 -36.62,-11.6 -8.54,-7.71 -12.81,-17.59 -12.81,-29.61 0,-7.06 1.62,-13.51 4.82,-19.36 3.25,-5.85 7.48,-10.49 12.68,-14.02 5.24,-3.53 11.09,-6.22 17.63,-8.03 4.83,-1.25 12.12,-2.46 21.82,-3.67 19.77,-2.32 34.39,-5.15 43.72,-8.4 0.1,-3.34 0.14,-5.47 0.14,-6.36 0,-9.93 -2.32,-16.94 -6.96,-21.02 -6.27,-5.53 -15.6,-8.26 -27.94,-8.26 -11.56,0 -20.1,2.04 -25.58,6.08 -5.52,4.03 -9.56,11.18 -12.21,21.49l-23.95 -3.35c2.19,-10.25 5.76,-18.56 10.77,-24.87 5.02,-6.32 12.26,-11.14 21.73,-14.58 9.42,-3.39 20.42,-5.11 32.86,-5.11 12.35,0 22.42,1.44 30.17,4.37 7.7,2.92 13.41,6.54 17.03,10.95 3.62,4.41 6.18,9.98 7.66,16.71 0.79,4.18 1.21,11.7 1.21,22.51l0 32.5c0,22.69 0.51,37.04 1.53,43.12 0.98,6.08 3.02,11.88 5.99,17.45l-25.62 0c-2.46,-5.15 -4.04,-11.19 -4.74,-18.1zm-1.95 -54.31c-8.91,3.62 -22.28,6.68 -40.1,9.19 -10.12,1.44 -17.27,3.06 -21.45,4.87 -4.17,1.81 -7.38,4.46 -9.65,7.9 -2.27,3.48 -3.43,7.33 -3.43,11.6 0,6.45 2.46,11.88 7.42,16.2 4.97,4.32 12.21,6.5 21.72,6.5 9.43,0 17.83,-2.05 25.21,-6.18 7.33,-4.08 12.76,-9.7 16.2,-16.8 2.64,-5.52 3.94,-13.65 3.94,-24.37l0.14 -8.91z"/>
  <path id="_9" class="fil2 str5" d="M1825.96 2169.77l0 -199.96 22.28 0 0 18.98c5.25,-7.33 11.19,-12.85 17.83,-16.52 6.59,-3.67 14.62,-5.53 24.04,-5.53 12.35,0 23.21,3.16 32.63,9.52 9.42,6.31 16.52,15.27 21.35,26.78 4.78,11.56 7.2,24.19 7.2,37.97 0,14.72 -2.65,27.99 -7.94,39.83 -5.29,11.79 -13,20.84 -23.12,27.15 -10.07,6.27 -20.7,9.42 -31.84,9.42 -8.17,0 -15.5,-1.71 -21.95,-5.15 -6.5,-3.43 -11.79,-7.75 -15.97,-13l0 70.51 -24.51 0zm22.28 -126.81c0,18.52 3.76,32.21 11.23,41.08 7.52,8.87 16.62,13.32 27.3,13.32 10.86,0 20.14,-4.59 27.85,-13.78 7.75,-9.19 11.6,-23.4 11.6,-42.66 0,-18.38 -3.76,-32.12 -11.32,-41.27 -7.57,-9.14 -16.58,-13.69 -27.07,-13.69 -10.39,0 -19.58,4.88 -27.57,14.58 -8.03,9.74 -12.02,23.85 -12.02,42.42z"/>
  <circle class="fil2" cx="1550" cy="1550" r="684.6"/>
  <path class="fil4 str6" d="M1029.13 996.77l-3.27 -53.61 -48.3 -11.57 14.2 -11.91 22.8 6.28c4.3,1.24 7.87,2.29 10.64,3.25 -0.37,-4.2 -0.61,-7.96 -0.76,-11.32l-1.33 -24.51 13.56 -11.39 1.99 49.4 53.18 12.77 -13.93 11.69 -30.36 -8.24 -8.14 -2.26 3.48 39.88 -13.76 11.54zm50.11 -43.39l1.41 -53.71 -47.1 -15.72 15.17 -10.63 22.17 8.24c4.18,1.61 7.64,2.97 10.32,4.16 0.01,-4.22 0.08,-7.98 0.23,-11.35l0.81 -24.52 14.5 -10.16 -2.32 49.38 51.86 17.36 -14.89 10.43 -29.53 -10.85 -7.91 -2.97 0 40.03 -14.72 10.31zm53.69 -38.87l6.09 -53.38 -45.54 -19.77 16.03 -9.26 21.37 10.14c4.02,1.96 7.35,3.62 9.91,5.04 0.38,-4.2 0.79,-7.94 1.22,-11.28l2.95 -24.37 15.33 -8.85 -6.62 48.99 50.16 21.81 -15.75 9.09 -28.47 -13.38 -7.63 -3.65 -3.48 39.88 -15.57 8.99zm56.89 -34.05l10.72 -52.63 -43.66 -23.68 16.79 -7.82 20.39 11.97c3.84,2.31 7.01,4.24 9.44,5.88 0.74,-4.15 1.47,-7.84 2.2,-11.13l5.06 -24.01 16.04 -7.49 -10.85 48.23 48.05 26.09 -16.48 7.69 -27.19 -15.81 -7.28 -4.3 -6.96 39.43 -16.27 7.58zm59.63 -28.94l15.26 -51.51 -41.42 -27.39 17.4 -6.33 19.28 13.7c3.62,2.64 6.61,4.84 8.89,6.68 1.1,-4.07 2.14,-7.68 3.15,-10.9l7.14 -23.48 16.64 -6.06 -15.02 47.1 45.6 30.19 -17.09 6.22 -25.71 -18.12 -6.88 -4.92 -10.36 38.68 -16.88 6.14zm61.93 -23.65l19.69 -49.98 -38.88 -30.89 17.89 -4.8 18.02 15.33c3.37,2.94 6.15,5.4 8.26,7.44 1.46,-3.96 2.81,-7.47 4.1,-10.59l9.15 -22.77 17.11 -4.58 -19.07 45.61 42.79 34.04 -17.56 4.71 -24.04 -20.3 -6.42 -5.49 -13.69 37.62 -17.35 4.65zm63.75 -18.16l23.98 -48.07 -36.05 -34.16 18.25 -3.22 16.6 16.84c3.11,3.22 5.67,5.91 7.6,8.12 1.79,-3.81 3.44,-7.19 4.99,-10.18l11.1 -21.89 17.45 -3.07 -22.97 43.77 39.66 37.65 -17.91 3.15 -22.17 -22.31 -5.92 -6.04 -16.92 36.29 -17.69 3.12zm65.1 -12.54l28.07 -45.79 -32.93 -37.18 18.45 -1.61 15.08 18.22c2.82,3.48 5.13,6.38 6.85,8.76 2.11,-3.65 4.07,-6.86 5.87,-9.71l12.97 -20.84 17.64 -1.54 -26.7 41.6 36.23 40.97 -18.11 1.57 -20.14 -24.15 -5.38 -6.53 -20.02 34.67 -17.88 1.56zm65.93 -6.8l31.96 -43.18 -29.56 -39.9 18.52 0 13.43 19.47c2.5,3.71 4.56,6.8 6.07,9.32 2.42,-3.45 4.64,-6.49 6.69,-9.17l14.73 -19.62 17.72 0 -30.23 39.12 32.52 43.96 -18.18 0 -17.96 -25.82 -4.78 -6.98 -22.97 32.8 -17.96 0zm66.28 -1.05l35.6 -40.22 -25.97 -42.33 18.45 1.61 11.68 20.57c2.17,3.91 3.95,7.18 5.24,9.81 2.71,-3.22 5.19,-6.05 7.46,-8.54l16.39 -18.27 17.64 1.54 -33.51 36.34 28.56 46.63 -18.11 -1.59 -15.65 -27.28 -4.15 -7.37 -25.73 30.67 -17.9 -1.57zm66.12 4.75l38.98 -36.98 -22.2 -44.43 18.24 3.22 9.86 21.5c1.81,4.1 3.3,7.5 4.35,10.24 2.98,-2.97 5.7,-5.58 8.18,-7.86l17.92 -16.77 17.44 3.08 -36.56 33.27 24.4 48.94 -17.91 -3.15 -13.2 -28.55 -3.5 -7.71 -28.31 28.32 -17.69 -3.12zm65.45 10.48l42.05 -33.43 -18.23 -46.19 17.89 4.78 7.94 22.29c1.45,4.24 2.64,7.75 3.44,10.58 3.24,-2.71 6.17,-5.07 8.84,-7.12l19.32 -15.15 17.1 4.58 -39.32 29.97 20.04 50.88 -17.57 -4.71 -10.67 -29.59 -2.8 -7.97 -30.68 25.74 -17.35 -4.66zm64.3 16.16l44.8 -29.65 -14.14 -47.6 17.4 6.33 5.97 22.89c1.08,4.35 1.95,7.95 2.52,10.83 3.45,-2.41 6.58,-4.51 9.41,-6.32l20.56 -13.4 16.64 6.06 -41.78 26.42 15.53 52.43 -17.08 -6.22 -8.05 -30.41 -2.11 -8.18 -32.8 22.96 -16.87 -6.14zm62.63 21.69l47.22 -25.63 -9.93 -48.66 16.78 7.83 3.95 23.32c0.7,4.42 1.25,8.09 1.56,11.02 3.65,-2.1 6.95,-3.92 9.93,-5.49l21.65 -11.55 16.05 7.48 -43.92 22.68 10.89 53.59 -16.48 -7.68 -5.36 -31 -1.38 -8.34 -34.68 20.02 -16.28 -7.59zm60.51 27.07l49.27 -21.42 -5.65 -49.34 16.04 9.27 1.9 23.57c0.3,4.47 0.54,8.18 0.59,11.11 3.83,-1.77 7.27,-3.3 10.37,-4.59l22.58 -9.63 15.34 8.85 -45.74 18.77 6.19 54.33 -15.75 -9.09 -2.64 -31.34 -0.66 -8.43 -36.28 16.92 -15.56 -8.98zm57.92 32.24l50.96 -17.04 -1.34 -49.65 15.17 10.63 -0.17 23.66c-0.08,4.47 -0.16,8.18 -0.37,11.11 3.96,-1.43 7.53,-2.66 10.73,-3.67l23.34 -7.63 14.5 10.16 -47.19 14.71 1.42 54.67 -14.89 -10.43 0.1 -31.46 0.07 -8.45 -37.62 13.69 -14.71 -10.3zm54.89 37.17l52.24 -12.54 3 -49.57 14.19 11.9 -2.22 23.55c-0.48,4.46 -0.89,8.14 -1.35,11.04 4.07,-1.08 7.73,-1.98 11.02,-2.71l23.9 -5.57 13.56 11.38 -48.29 10.55 -3.35 54.58 -13.92 -11.69 2.84 -31.33 0.81 -8.41 -38.67 10.36 -13.76 -11.54zm51.44 41.8l53.14 -7.93 7.3 -49.12 13.1 13.09 -4.26 23.27c-0.87,4.4 -1.6,8.03 -2.31,10.88 4.15,-0.72 7.87,-1.3 11.21,-1.75l24.3 -3.45 12.52 12.52 -49.03 6.29 -8.09 54.08 -12.86 -12.85 5.56 -30.96 1.55 -8.32 -39.43 6.95 -12.7 -12.7zm47.61 46.13l53.61 -3.26 11.57 -48.3 11.91 14.19 -6.28 22.8c-1.24,4.3 -2.29,7.87 -3.24,10.64 4.19,-0.36 7.95,-0.61 11.31,-0.76l24.51 -1.33 11.39 13.57 -49.4 1.98 -12.77 53.18 -11.69 -13.93 8.24 -30.36 2.26 -8.14 -39.88 3.48 -11.54 -13.76zm43.39 50.11l53.71 1.42 15.72 -47.11 10.63 15.17 -8.24 22.17c-1.61,4.18 -2.97,7.64 -4.16,10.32 4.22,0.01 7.98,0.08 11.35,0.23l24.52 0.81 10.16 14.5 -49.38 -2.32 -17.36 51.86 -10.43 -14.89 10.85 -29.53 2.97 -7.91 -40.03 0 -10.31 -14.72zm38.87 53.7l53.38 6.09 19.77 -45.55 9.26 16.03 -10.14 21.37c-1.96,4.02 -3.62,7.35 -5.04,9.92 4.2,0.37 7.94,0.78 11.28,1.21l24.37 2.95 8.85 15.33 -48.99 -6.62 -21.81 50.16 -9.09 -15.75 13.38 -28.46 3.65 -7.64 -39.88 -3.48 -8.99 -15.56zm34.05 56.88l52.63 10.72 23.68 -43.66 7.82 16.79 -11.97 20.39c-2.31,3.84 -4.24,7.01 -5.88,9.44 4.15,0.74 7.84,1.47 11.13,2.2l24.01 5.06 7.49 16.04 -48.23 -10.85 -26.09 48.05 -7.69 -16.48 15.81 -27.19 4.3 -7.28 -39.43 -6.95 -7.58 -16.28zm28.94 59.63l51.51 15.27 27.39 -41.43 6.33 17.4 -13.7 19.28c-2.64,3.62 -4.84,6.61 -6.68,8.89 4.07,1.1 7.68,2.15 10.9,3.15l23.48 7.14 6.06 16.64 -47.1 -15.02 -30.19 45.6 -6.22 -17.08 18.12 -25.72 4.92 -6.88 -38.68 -10.36 -6.14 -16.88zm23.65 61.93l49.98 19.69 30.89 -38.88 4.8 17.89 -15.33 18.02c-2.94,3.37 -5.4,6.15 -7.44,8.26 3.96,1.46 7.47,2.81 10.59,4.1l22.77 9.15 4.58 17.11 -45.61 -19.07 -34.04 42.79 -4.71 -17.56 20.3 -24.04 5.49 -6.42 -37.62 -13.69 -4.65 -17.35zm18.16 63.75l48.07 23.98 34.16 -36.05 3.22 18.25 -16.84 16.6c-3.22,3.12 -5.91,5.67 -8.12,7.6 3.81,1.79 7.19,3.44 10.18,5l21.89 11.1 3.07 17.44 -43.77 -22.97 -37.65 39.66 -3.15 -17.91 22.31 -22.16 6.04 -5.93 -36.29 -16.92 -3.12 -17.69zm12.53 65.1l45.8 28.07 37.18 -32.93 1.61 18.45 -18.22 15.08c-3.48,2.82 -6.38,5.13 -8.76,6.86 3.65,2.11 6.86,4.06 9.71,5.86l20.83 12.97 1.55 17.64 -41.6 -26.69 -40.97 36.22 -1.57 -18.11 24.15 -20.14 6.53 -5.38 -34.67 -20.01 -1.57 -17.89zm6.81 65.93l43.18 31.96 39.9 -29.56 0 18.52 -19.47 13.43c-3.71,2.5 -6.8,4.56 -9.32,6.07 3.45,2.42 6.49,4.65 9.17,6.69l19.62 14.73 0 17.72 -39.12 -30.23 -43.96 32.52 0 -18.18 25.82 -17.95 6.98 -4.79 -32.8 -22.97 0 -17.96zm1.05 66.28l40.22 35.6 42.33 -25.97 -1.62 18.45 -20.56 11.69c-3.91,2.17 -7.18,3.94 -9.81,5.23 3.22,2.71 6.05,5.19 8.54,7.46l18.27 16.39 -1.55 17.65 -36.33 -33.52 -46.63 28.56 1.59 -18.11 27.28 -15.64 7.36 -4.16 -30.66 -25.73 1.57 -17.9zm-4.75 66.12l36.98 38.98 44.43 -22.19 -3.22 18.24 -21.5 9.85c-4.1,1.81 -7.5,3.3 -10.24,4.35 2.97,2.99 5.58,5.7 7.86,8.18l16.77 17.92 -3.08 17.44 -33.27 -36.56 -48.94 24.4 3.15 -17.91 28.55 -13.2 7.71 -3.5 -28.32 -28.31 3.12 -17.69zm-10.48 65.45l33.43 42.06 46.19 -18.23 -4.78 17.88 -22.29 7.94c-4.24,1.45 -7.75,2.64 -10.58,3.45 2.71,3.23 5.07,6.16 7.12,8.83l15.15 19.32 -4.59 17.1 -29.96 -39.32 -50.88 20.04 4.71 -17.56 29.59 -10.67 7.97 -2.81 -25.74 -30.68 4.66 -17.35zm-16.16 64.3l29.65 44.8 47.6 -14.13 -6.33 17.4 -22.89 5.96c-4.35,1.08 -7.95,1.95 -10.84,2.52 2.42,3.46 4.52,6.58 6.33,9.41l13.4 20.57 -6.06 16.63 -26.42 -41.77 -52.43 15.52 6.22 -17.08 30.41 -8.05 8.18 -2.11 -22.96 -32.8 6.14 -16.87zm-21.69 62.63l25.63 47.22 48.66 -9.93 -7.83 16.79 -23.32 3.94c-4.42,0.7 -8.09,1.26 -11.02,1.57 2.1,3.64 3.92,6.94 5.49,9.92l11.55 21.66 -7.48 16.04 -22.68 -43.92 -53.59 10.89 7.68 -16.47 31 -5.36 8.34 -1.39 -20.02 -34.67 7.59 -16.29zm-27.07 60.52l21.42 49.27 49.34 -5.66 -9.27 16.04 -23.57 1.9c-4.47,0.31 -8.18,0.54 -11.11,0.6 1.77,3.82 3.3,7.26 4.59,10.37l9.63 22.57 -8.85 15.34 -18.77 -45.73 -54.33 6.18 9.09 -15.75 31.34 -2.64 8.43 -0.65 -16.92 -36.29 8.98 -15.55zm-32.24 57.92l17.04 50.95 49.65 -1.34 -10.63 15.17 -23.66 -0.16c-4.47,-0.09 -8.18,-0.17 -11.11,-0.38 1.43,3.97 2.66,7.53 3.67,10.74l7.63 23.33 -10.16 14.51 -14.71 -47.2 -54.67 1.42 10.43 -14.89 31.46 0.1 8.45 0.08 -13.69 -37.62 10.3 -14.71zm-37.17 54.89l12.54 52.24 49.57 3 -11.9 14.18 -23.55 -2.22c-4.45,-0.47 -8.14,-0.89 -11.04,-1.35 1.08,4.08 1.98,7.73 2.71,11.02l5.57 23.91 -11.38 13.56 -10.55 -48.29 -54.58 -3.35 11.69 -13.93 31.33 2.84 8.41 0.82 -10.36 -38.67 11.54 -13.76zm-41.8 51.44l7.93 53.13 49.12 7.31 -13.09 13.09 -23.27 -4.26c-4.4,-0.86 -8.03,-1.59 -10.88,-2.3 0.72,4.15 1.3,7.87 1.75,11.21l3.46 24.29 -12.53 12.53 -6.29 -49.04 -54.08 -8.09 12.85 -12.85 30.96 5.56 8.32 1.55 -6.95 -39.44 12.7 -12.69zm-46.13 47.6l3.27 53.62 48.3 11.57 -14.2 11.9 -22.8 -6.28c-4.3,-1.24 -7.87,-2.28 -10.64,-3.24 0.37,4.2 0.61,7.95 0.76,11.32l1.33 24.51 -13.56 11.38 -1.99 -49.4 -53.18 -12.77 13.93 -11.69 30.36 8.25 8.14 2.26 -3.48 -39.89 13.76 -11.54zm-50.11 43.4l-1.41 53.71 47.1 15.72 -15.17 10.63 -22.17 -8.25c-4.18,-1.61 -7.64,-2.96 -10.32,-4.16 -0.01,4.22 -0.08,7.99 -0.23,11.35l-0.81 24.53 -14.5 10.15 2.32 -49.38 -51.86 -17.36 14.89 -10.42 29.53 10.85 7.91 2.96 0 -40.03 14.72 -10.3zm-53.69 38.87l-6.09 53.38 45.54 19.76 -16.03 9.27 -21.37 -10.15c-4.02,-1.96 -7.35,-3.61 -9.91,-5.03 -0.38,4.19 -0.79,7.93 -1.22,11.27l-2.95 24.37 -15.33 8.85 6.62 -48.99 -50.16 -21.81 15.75 -9.09 28.47 13.39 7.63 3.64 3.48 -39.88 15.57 -8.98zm-56.89 34.04l-10.72 52.64 43.66 23.67 -16.79 7.83 -20.39 -11.98c-3.84,-2.31 -7.01,-4.23 -9.44,-5.88 -0.74,4.16 -1.47,7.85 -2.2,11.14l-5.06 24.01 -16.04 7.48 10.85 -48.22 -48.05 -26.1 16.48 -7.68 27.19 15.81 7.28 4.29 6.96 -39.42 16.27 -7.59zm-59.63 28.95l-15.26 51.51 41.42 27.38 -17.4 6.33 -19.28 -13.7c-3.62,-2.63 -6.61,-4.83 -8.89,-6.68 -1.1,4.07 -2.14,7.69 -3.15,10.9l-7.14 23.49 -16.64 6.05 15.02 -47.09 -45.6 -30.2 17.09 -6.21 25.71 18.12 6.88 4.92 10.36 -38.68 16.88 -6.14zm-61.93 23.65l-19.69 49.98 38.88 30.89 -17.89 4.79 -18.02 -15.33c-3.37,-2.94 -6.15,-5.39 -8.26,-7.43 -1.46,3.96 -2.81,7.47 -4.1,10.58l-9.15 22.78 -17.11 4.57 19.07 -45.6 -42.79 -34.05 17.56 -4.71 24.04 20.3 6.42 5.49 13.69 -37.62 17.35 -4.64zm-63.75 18.15l-23.98 48.08 36.05 34.16 -18.25 3.22 -16.6 -16.84c-3.11,-3.23 -5.67,-5.91 -7.6,-8.13 -1.79,3.82 -3.44,7.2 -4.99,10.19l-11.1 21.88 -17.45 3.08 22.97 -43.77 -39.66 -37.65 17.91 -3.16 22.17 22.31 5.92 6.04 16.92 -36.28 17.69 -3.13zm-65.1 12.54l-28.07 45.8 32.93 37.17 -18.45 1.62 -15.08 -18.23c-2.82,-3.48 -5.13,-6.38 -6.85,-8.75 -2.11,3.64 -4.07,6.86 -5.87,9.71l-12.97 20.83 -17.64 1.55 26.7 -41.61 -36.23 -40.96 18.11 -1.58 20.14 24.15 5.38 6.54 20.02 -34.68 17.88 -1.56zm-65.93 6.81l-31.96 43.18 29.56 39.9 -18.52 0 -13.43 -19.47c-2.5,-3.72 -4.56,-6.81 -6.07,-9.32 -2.42,3.44 -4.64,6.49 -6.69,9.16l-14.73 19.63 -17.72 0 30.23 -39.12 -32.52 -43.96 18.18 0 17.96 25.82 4.78 6.97 22.97 -32.79 17.96 0zm-66.28 1.04l-35.6 40.23 25.97 42.32 -18.45 -1.61 -11.68 -20.56c-2.17,-3.92 -3.95,-7.18 -5.24,-9.82 -2.71,3.23 -5.19,6.06 -7.46,8.54l-16.39 18.28 -17.64 -1.55 33.51 -36.34 -28.56 -46.63 18.11 1.59 15.65 27.29 4.15 7.36 25.73 -30.67 17.9 1.57zm-66.12 -4.74l-38.98 36.97 22.2 44.43 -18.24 -3.21 -9.86 -21.51c-1.81,-4.09 -3.3,-7.49 -4.35,-10.24 -2.98,2.98 -5.7,5.59 -8.18,7.87l-17.92 16.76 -17.44 -3.07 36.56 -33.27 -24.4 -48.95 17.91 3.16 13.2 28.55 3.5 7.7 28.31 -28.32 17.69 3.13zm-65.45 -10.49l-42.05 33.44 18.23 46.19 -17.89 -4.79 -7.94 -22.28c-1.45,-4.24 -2.64,-7.76 -3.44,-10.58 -3.24,2.71 -6.17,5.07 -8.84,7.12l-19.32 15.15 -17.1 -4.59 39.32 -29.96 -20.04 -50.89 17.57 4.71 10.67 29.59 2.8 7.98 30.68 -25.74 17.35 4.65zm-64.3 -16.15l-44.8 29.65 14.14 47.6 -17.4 -6.33 -5.97 -22.9c-1.08,-4.34 -1.95,-7.95 -2.52,-10.83 -3.45,2.42 -6.58,4.51 -9.41,6.32l-20.56 13.41 -16.64 -6.06 41.78 -26.42 -15.53 -52.43 17.08 6.21 8.05 30.41 2.11 8.19 32.8 -22.96 16.87 6.14zm-62.63 -21.7l-47.22 25.64 9.93 48.65 -16.78 -7.82 -3.95 -23.33c-0.7,-4.42 -1.25,-8.09 -1.56,-11.01 -3.65,2.1 -6.95,3.92 -9.93,5.48l-21.65 11.56 -16.05 -7.49 43.92 -22.67 -10.89 -53.6 16.48 7.69 5.36 30.99 1.38 8.34 34.68 -20.01 16.28 7.58zm-60.51 -27.07l-49.27 21.42 5.65 49.34 -16.04 -9.26 -1.9 -23.57c-0.3,-4.47 -0.54,-8.18 -0.59,-11.11 -3.83,1.77 -7.27,3.3 -10.37,4.58l-22.58 9.63 -15.34 -8.85 45.74 -18.77 -6.19 -54.33 15.75 9.09 2.64 31.34 0.66 8.44 36.28 -16.92 15.56 8.97zm-57.92 -32.24l-50.96 17.05 1.34 49.64 -15.17 -10.62 0.17 -23.66c0.08,-4.47 0.16,-8.18 0.37,-11.12 -3.96,1.44 -7.53,2.66 -10.73,3.67l-23.34 7.63 -14.5 -10.16 47.19 -14.71 -1.42 -54.66 14.89 10.43 -0.1 31.45 -0.07 8.45 37.62 -13.69 14.71 10.3zm-54.89 -37.16l-52.24 12.54 -3 49.57 -14.19 -11.91 2.22 -23.55c0.48,-4.45 0.89,-8.14 1.35,-11.04 -4.07,1.08 -7.73,1.99 -11.02,2.72l-23.9 5.56 -13.56 -11.38 48.29 -10.54 3.35 -54.58 13.92 11.69 -2.84 31.32 -0.81 8.42 38.67 -10.36 13.76 11.54zm-51.44 -41.8l-53.14 7.92 -7.3 49.13 -13.1 -13.1 4.26 -23.27c0.87,-4.39 1.6,-8.03 2.31,-10.88 -4.15,0.72 -7.87,1.3 -11.21,1.75l-24.3 3.46 -12.52 -12.52 49.03 -6.29 8.09 -54.08 12.86 12.85 -5.56 30.96 -1.55 8.32 39.43 -6.96 12.7 12.71zm-47.61 -46.14l-53.61 3.27 -11.57 48.3 -11.91 -14.19 6.28 -22.8c1.24,-4.31 2.29,-7.87 3.24,-10.65 -4.19,0.37 -7.95,0.62 -11.31,0.77l-24.51 1.33 -11.39 -13.57 49.4 -1.99 12.77 -53.17 11.69 13.92 -8.24 30.36 -2.26 8.15 39.88 -3.49 11.54 13.76zm-43.39 -50.11l-53.71 -1.41 -15.72 47.1 -10.63 -15.17 8.24 -22.17c1.61,-4.18 2.97,-7.63 4.16,-10.32 -4.22,-0.01 -7.98,-0.08 -11.35,-0.22l-24.52 -0.82 -10.16 -14.49 49.38 2.31 17.36 -51.85 10.43 14.89 -10.85 29.53 -2.97 7.91 40.03 0 10.31 14.71zm-38.87 -53.69l-53.38 -6.09 -19.77 45.55 -9.26 -16.04 10.14 -21.37c1.96,-4.02 3.62,-7.34 5.04,-9.91 -4.2,-0.37 -7.94,-0.78 -11.28,-1.21l-24.37 -2.95 -8.85 -15.33 48.99 6.61 21.81 -50.15 9.09 15.74 -13.38 28.47 -3.65 7.64 39.88 3.48 8.99 15.56zm-34.05 -56.88l-52.63 -10.72 -23.68 43.65 -7.82 -16.78 11.97 -20.4c2.31,-3.84 4.24,-7 5.88,-9.44 -4.15,-0.74 -7.84,-1.47 -11.13,-2.19l-24.01 -5.06 -7.49 -16.05 48.23 10.85 26.09 -48.05 7.69 16.48 -15.81 27.2 -4.3 7.27 39.43 6.96 7.58 16.28zm-28.94 -59.64l-51.51 -15.26 -27.39 41.43 -6.33 -17.41 13.7 -19.28c2.64,-3.62 4.84,-6.6 6.68,-8.89 -4.07,-1.09 -7.68,-2.14 -10.9,-3.15l-23.48 -7.13 -6.06 -16.65 47.1 15.03 30.19 -45.6 6.22 17.08 -18.12 25.72 -4.92 6.88 38.68 10.36 6.14 16.87zm-23.65 -61.92l-49.98 -19.7 -30.89 38.88 -4.8 -17.89 15.33 -18.01c2.94,-3.38 5.4,-6.16 7.44,-8.27 -3.96,-1.45 -7.47,-2.81 -10.59,-4.1l-22.77 -9.14 -4.58 -17.11 45.61 19.07 34.04 -42.79 4.71 17.55 -20.3 24.04 -5.49 6.42 37.62 13.7 4.65 17.35zm-18.16 -63.76l-48.07 -23.98 -34.16 36.05 -3.22 -18.24 16.84 -16.6c3.22,-3.12 5.91,-5.68 8.12,-7.61 -3.81,-1.78 -7.19,-3.44 -10.18,-4.99l-21.89 -11.1 -3.07 -17.44 43.77 22.96 37.65 -39.66 3.15 17.91 -22.31 22.17 -6.04 5.92 36.29 16.92 3.12 17.69zm-12.53 -65.09l-45.8 -28.08 -37.18 32.93 -1.61 -18.45 18.22 -15.08c3.48,-2.81 6.38,-5.12 8.76,-6.85 -3.65,-2.11 -6.86,-4.06 -9.71,-5.87l-20.83 -12.97 -1.55 -17.64 41.6 26.7 40.97 -36.23 1.57 18.11 -24.15 20.15 -6.53 5.37 34.67 20.02 1.57 17.89zm-6.81 -65.93l-43.18 -31.97 -39.9 29.56 0 -18.52 19.47 -13.42c3.71,-2.5 6.8,-4.57 9.32,-6.08 -3.45,-2.42 -6.49,-4.64 -9.17,-6.69l-19.62 -14.73 0 -17.71 39.12 30.23 43.96 -32.53 0 18.18 -25.82 17.96 -6.98 4.79 32.8 22.96 0 17.97zm-1.05 -66.29l-40.22 -35.6 -42.33 25.97 1.62 -18.45 20.56 -11.68c3.91,-2.17 7.18,-3.95 9.81,-5.24 -3.22,-2.71 -6.05,-5.19 -8.54,-7.46l-18.27 -16.38 1.55 -17.65 36.33 33.52 46.63 -28.57 -1.59 18.11 -27.28 15.65 -7.36 4.15 30.66 25.74 -1.57 17.89zm4.75 -66.12l-36.98 -38.98 -44.43 22.2 3.22 -18.24 21.5 -9.86c4.1,-1.81 7.5,-3.29 10.24,-4.35 -2.97,-2.98 -5.58,-5.7 -7.86,-8.18l-16.77 -17.92 3.08 -17.44 33.27 36.56 48.94 -24.39 -3.15 17.9 -28.55 13.2 -7.71 3.5 28.32 28.31 -3.12 17.69zm10.48 -65.45l-33.43 -42.05 -46.19 18.23 4.78 -17.89 22.29 -7.93c4.24,-1.46 7.75,-2.65 10.58,-3.45 -2.71,-3.24 -5.07,-6.17 -7.12,-8.84l-15.15 -19.31 4.59 -17.1 29.96 39.31 50.88 -20.04 -4.71 17.57 -29.59 10.67 -7.97 2.81 25.74 30.67 -4.66 17.35zm16.16 -64.29l-29.65 -44.81 -47.6 14.14 6.33 -17.4 22.89 -5.97c4.35,-1.08 7.95,-1.95 10.84,-2.51 -2.42,-3.46 -4.52,-6.59 -6.33,-9.42l-13.4 -20.56 6.06 -16.64 26.42 41.78 52.43 -15.53 -6.22 17.08 -30.41 8.05 -8.18 2.12 22.96 32.79 -6.14 16.88zm21.69 -62.64l-25.63 -47.22 -48.66 9.93 7.83 -16.78 23.32 -3.95c4.42,-0.7 8.09,-1.25 11.02,-1.56 -2.1,-3.65 -3.92,-6.95 -5.49,-9.93l-11.55 -21.65 7.48 -16.05 22.68 43.92 53.59 -10.89 -7.68 16.48 -31 5.36 -8.34 1.38 20.02 34.68 -7.59 16.28zm27.07 -60.51l-21.42 -49.27 -49.34 5.65 9.27 -16.04 23.57 -1.89c4.47,-0.31 8.18,-0.54 11.11,-0.6 -1.77,-3.82 -3.3,-7.26 -4.59,-10.37l-9.63 -22.58 8.85 -15.34 18.77 45.74 54.33 -6.19 -9.09 15.75 -31.34 2.64 -8.43 0.66 16.92 36.28 -8.98 15.56zm32.24 -57.92l-17.04 -50.95 -49.65 1.33 10.63 -15.17 23.66 0.17c4.47,0.08 8.18,0.16 11.11,0.37 -1.43,-3.96 -2.66,-7.53 -3.67,-10.73l-7.63 -23.34 10.16 -14.5 14.71 47.19 54.67 -1.42 -10.43 14.89 -31.46 -0.1 -8.45 -0.07 13.69 37.62 -10.3 14.71zm37.17 -54.89l-12.54 -52.24 -49.57 -3 11.9 -14.18 23.55 2.21c4.45,0.48 8.14,0.89 11.04,1.35 -1.08,-4.07 -1.98,-7.73 -2.71,-11.02l-5.57 -23.9 11.38 -13.56 10.55 48.29 54.58 3.35 -11.69 13.92 -31.33 -2.84 -8.41 -0.81 10.36 38.67 -11.54 13.76zm41.8 -51.44l-7.93 -53.14 -49.12 -7.3 13.09 -13.1 23.27 4.26c4.4,0.87 8.03,1.6 10.88,2.31 -0.72,-4.15 -1.3,-7.87 -1.75,-11.21l-3.46 -24.3 12.53 -12.52 6.29 49.03 54.08 8.09 -12.85 12.86 -30.96 -5.56 -8.32 -1.55 6.95 39.43 -12.7 12.7zm46.13 -47.61l-3.27 -53.61 -48.3 -11.57 14.2 -11.91 22.8 6.28c4.3,1.24 7.87,2.29 10.64,3.25 -0.37,-4.2 -0.61,-7.96 -0.76,-11.32l-1.33 -24.51 13.56 -11.39 1.99 49.4 53.18 12.77 -13.93 11.69 -30.36 -8.24 -8.14 -2.26 3.48 39.88 -13.76 11.54zm50.11 -43.39l1.41 -53.71 -47.1 -15.72 15.17 -10.63 22.17 8.24c4.18,1.61 7.64,2.97 10.32,4.16 0.01,-4.22 0.08,-7.98 0.23,-11.35l0.81 -24.52 14.5 -10.16 -2.32 49.38 51.86 17.36 -14.89 10.43 -29.53 -10.85 -7.91 -2.97 0 40.03 -14.72 10.31zm53.69 -38.87l6.09 -53.38 -45.54 -19.77 16.03 -9.26 21.37 10.14c4.02,1.96 7.35,3.62 9.91,5.04 0.38,-4.2 0.79,-7.94 1.22,-11.28l2.95 -24.37 15.33 -8.85 -6.62 48.99 50.16 21.81 -15.75 9.09 -28.47 -13.38 -7.63 -3.65 -3.48 39.88 -15.57 8.99zm56.89 -34.05l10.72 -52.63 -43.66 -23.68 16.79 -7.82 20.39 11.97c3.84,2.31 7.01,4.24 9.44,5.88 0.74,-4.15 1.47,-7.84 2.2,-11.13l5.06 -24.01 16.04 -7.49 -10.85 48.23 48.05 26.09 -16.48 7.69 -27.19 -15.81 -7.28 -4.3 -6.96 39.43 -16.27 7.58zm59.63 -28.94l15.26 -51.51 -41.42 -27.39 17.4 -6.33 19.28 13.7c3.62,2.64 6.61,4.84 8.89,6.68 1.1,-4.07 2.14,-7.68 3.15,-10.9l7.14 -23.48 16.64 -6.06 -15.02 47.1 45.6 30.19 -17.09 6.22 -25.71 -18.12 -6.88 -4.92 -10.36 38.68 -16.88 6.14zm61.93 -23.65l19.69 -49.98 -38.88 -30.89 17.89 -4.8 18.02 15.33c3.37,2.94 6.15,5.4 8.26,7.44 1.46,-3.96 2.81,-7.47 4.1,-10.59l9.15 -22.77 17.11 -4.58 -19.07 45.61 42.79 34.04 -17.56 4.71 -24.04 -20.3 -6.42 -5.49 -13.69 37.62 -17.35 4.65zm63.75 -18.16l23.98 -48.07 -36.05 -34.16 18.25 -3.22 16.6 16.84c3.11,3.22 5.67,5.91 7.6,8.12 1.79,-3.81 3.44,-7.19 4.99,-10.18l11.1 -21.89 17.45 -3.07 -22.97 43.77 39.66 37.65 -17.91 3.15 -22.17 -22.31 -5.92 -6.04 -16.92 36.29 -17.69 3.12zm65.1 -12.54l28.07 -45.79 -32.93 -37.18 18.45 -1.61 15.08 18.22c2.82,3.48 5.13,6.38 6.85,8.76 2.11,-3.65 4.07,-6.86 5.87,-9.71l12.97 -20.84 17.64 -1.54 -26.7 41.6 36.23 40.97 -18.11 1.57 -20.14 -24.15 -5.38 -6.53 -20.02 34.67 -17.88 1.56zm65.93 -6.8l31.96 -43.18 -29.56 -39.9 18.52 0 13.43 19.47c2.5,3.71 4.56,6.8 6.07,9.32 2.42,-3.45 4.64,-6.49 6.69,-9.17l14.73 -19.62 17.72 0 -30.23 39.12 32.52 43.96 -18.18 0 -17.96 -25.82 -4.78 -6.98 -22.97 32.8 -17.96 0z"/>
 </g>
</svg>
