<?xml version="1.0" encoding="UTF-8"?>
<!DOCTYPE svg PUBLIC "-//W3C//DTD SVG 1.1//EN" "http://www.w3.org/Graphics/SVG/1.1/DTD/svg11.dtd">
<!-- Creator: CorelDRAW 2019 (64-Bit) -->
<svg xmlns="http://www.w3.org/2000/svg" xml:space="preserve" width="41mm" height="41mm" version="1.1" style="shape-rendering:geometricPrecision; text-rendering:geometricPrecision; image-rendering:optimizeQuality; fill-rule:evenodd; clip-rule:evenodd"
viewBox="0 0 4100 4100"
 xmlns:xlink="http://www.w3.org/1999/xlink"
 xmlns:xodm="http://www.corel.com/coreldraw/odm/2003">
 <defs>
  <style type="text/css">
   <![CDATA[
    .str3 {stroke:#393185;stroke-width:32.46;stroke-miterlimit:22.9256}
    .str2 {stroke:#393185;stroke-width:25;stroke-miterlimit:22.9256}
    .str0 {stroke:#393185;stroke-width:20;stroke-miterlimit:22.9256}
    .str1 {stroke:#393185;stroke-width:25;stroke-linecap:round;stroke-linejoin:round;stroke-miterlimit:22.9256}
    .str4 {stroke:#393185;stroke-width:20;stroke-linecap:round;stroke-linejoin:round;stroke-miterlimit:22.9256}
    .fil1 {fill:none}
    .fil3 {fill:none;fill-rule:nonzero}
    .fil0 {fill:#393185}
    .fil2 {fill:#393185;fill-rule:nonzero}
    .fil4 {fill:#FEFEFE;fill-rule:nonzero}
   ]]>
  </style>
 </defs>
 <g id="Слой_x0020_1">
  <metadata id="CorelCorpID_0Corel-Layer"/>
  <g id="_1733442720">
   <path class="fil0 str0" d="M1668.88 87.78l36.8 316.33c-763.34,158.88 -1336.85,835.41 -1336.85,1645.89 0,928.49 752.69,1681.18 1681.18,1681.18l0 318.82c-1104.57,0 -1998.69,-896.43 -2000,-2000 -1.16,-974.23 690.63,-1781.5 1618.87,-1962.22z"/>
   <path class="fil1" d="M2050.01 350.97c938.35,0 1699.03,760.68 1699.03,1699.03 0,938.35 -760.68,1699.03 -1699.03,1699.03 -938.35,0 -1699.03,-760.68 -1699.03,-1699.03 0,-938.35 760.68,-1699.03 1699.03,-1699.03z"/>
   <path class="fil2 str1" d="M1786.21 300.44l-19.64 -157.06 -59.78 7.47 -2.64 -21.07 143.34 -17.93 2.64 21.08 -59.79 7.47 19.65 157.07 -23.78 2.97zm216.15 -179.85c7.42,7.31 13.45,16.63 18.11,27.96 4.66,11.32 7.55,24.44 8.69,39.34 1.1,14.52 0.26,27.76 -2.54,39.73 -2.81,11.98 -7.4,22.19 -13.77,30.69 -6.67,8.88 -14.74,15.64 -24.21,20.37 -9.42,4.72 -20.02,7.51 -31.71,8.4 -12.16,0.92 -23.22,-0.29 -33.22,-3.62 -10.04,-3.36 -18.87,-8.81 -26.46,-16.35 -7.51,-7.44 -13.54,-16.8 -18.12,-28.14 -4.58,-11.33 -7.43,-24.32 -8.54,-39.01 -1.15,-15.07 -0.31,-28.42 2.56,-40.07 2.87,-11.65 7.47,-21.82 13.73,-30.51 6.29,-8.49 14.16,-15.16 23.61,-20 9.46,-4.89 20.18,-7.78 32.25,-8.69 12.18,-0.93 23.34,0.36 33.43,3.85 10.13,3.52 18.87,8.84 26.19,16.05zm1.93 69.19c-0.9,-11.82 -2.97,-22.19 -6.25,-31.11 -3.24,-8.95 -7.42,-16.23 -12.52,-21.87 -5.23,-5.79 -11.29,-9.95 -18.21,-12.52 -6.91,-2.56 -14.55,-3.56 -22.88,-2.92 -8.65,0.66 -16.13,2.76 -22.35,6.24 -6.21,3.49 -11.56,8.56 -16.09,15.26 -4.26,6.44 -7.29,14.34 -9.13,23.73 -1.8,9.42 -2.29,19.9 -1.41,31.48 1.79,23.43 8.08,40.98 18.88,52.67 10.84,11.69 24.52,16.91 41.14,15.65 16.59,-1.27 29.32,-8.5 38.19,-21.69 8.85,-13.19 12.41,-31.49 10.63,-54.92zm181.11 39.44c-0.24,8.92 -2.14,16.77 -5.7,23.52 -3.56,6.73 -8.24,12.25 -14.08,16.49 -6.89,5.13 -14.23,8.72 -21.99,10.69 -7.79,2 -17.78,2.84 -29.96,2.51l-51.47 -1.4 4.9 -179.47 47.6 1.3c12.79,0.35 22.37,1.03 28.72,2.07 6.36,0.99 12.43,3.14 18.23,6.42 6.33,3.63 10.89,8.28 13.74,13.96 2.82,5.63 4.12,12.26 3.91,19.79 -0.23,8.43 -2.65,15.9 -7.28,22.45 -4.66,6.54 -10.98,11.59 -18.94,15.17l-0.03 0.99c10.58,3.17 18.7,8.7 24.38,16.51 5.63,7.85 8.28,17.52 7.97,29zm-31.13 -81.22c0.12,-4.28 -0.52,-8.04 -1.87,-11.21 -1.36,-3.21 -3.6,-5.74 -6.76,-7.67 -3.77,-2.25 -8.05,-3.69 -12.76,-4.3 -4.72,-0.59 -11.22,-1.01 -19.57,-1.24l-22.83 -0.62 -1.42 52.08 27.03 0.74c7.49,0.2 12.97,-0.02 16.53,-0.7 3.52,-0.65 7.22,-2.12 11.03,-4.39 3.68,-2.21 6.35,-5.18 7.98,-8.89 1.63,-3.7 2.49,-8.28 2.64,-13.8zm6.18 81.36c0.18,-6.71 -0.61,-12.25 -2.43,-16.66 -1.81,-4.42 -5.58,-8.22 -11.33,-11.38 -3.74,-2.12 -7.82,-3.51 -12.24,-4.2 -4.44,-0.67 -10.72,-1.13 -18.9,-1.35l-27.03 -0.74 -1.8 65.92 19.33 0.53c10.41,0.28 18.65,0 24.68,-0.77 6.04,-0.79 11.4,-2.7 16.05,-5.66 4.58,-3 7.92,-6.45 10.13,-10.35 2.2,-3.89 3.36,-9.01 3.54,-15.34zm27.82 55.33l82.39 -170.63 29.24 3.66 37.84 185.66 -25.08 -3.14 -9.9 -51.5 -68.2 -8.53 -22.24 47.49 -24.05 -3.01zm110.36 -57.37l-16.97 -87.07 -37.83 80.22 54.8 6.85zm189.23 -23.22c-1.39,7.7 -4.08,14.69 -8.02,21.05 -3.96,6.35 -8.78,11.5 -14.43,15.46 -7.16,4.9 -15.11,8.18 -23.89,9.78 -8.74,1.6 -19.39,1.26 -31.94,-1.01l-19.84 -3.58 -11.9 65.85 -23.58 -4.26 31.93 -176.67 44.27 8c10.45,1.89 19.16,4.35 26.18,7.41 7.01,3.07 12.98,7.08 17.91,11.94 5.7,5.72 9.82,12.35 12.29,19.95 2.44,7.6 2.79,16.28 1.02,26.08zm-24.65 -3.87c1.09,-6.04 0.99,-11.49 -0.27,-16.32 -1.29,-4.88 -3.79,-9.09 -7.5,-12.65 -3.27,-3.14 -7.27,-5.62 -11.98,-7.52 -4.72,-1.9 -10.74,-3.52 -18.07,-4.85l-19.32 -3.49 -12.64 69.99 15.91 2.87c9.44,1.71 17.19,2.31 23.3,1.82 6.06,-0.44 11.38,-2.33 15.97,-5.51 4.09,-2.94 7.29,-6.3 9.62,-10.18 2.33,-3.89 3.98,-8.61 4.98,-14.16zm148.33 170.16l-23.05 -6.51 38.75 -137.16 -116.34 115.23 -23.41 -6.61 48.82 -172.77 23.06 6.52 -38.13 134.94 114.68 -113.31 24.44 6.91 -48.82 172.76zm98.3 41.59c-10.91,-4.33 -20.23,-10.15 -27.94,-17.42 -7.68,-7.29 -13.44,-15.9 -17.23,-25.77 -3.79,-9.87 -5.36,-20.98 -4.7,-33.25 0.62,-12.29 3.7,-25.45 9.27,-39.49 5.54,-13.97 12.13,-25.43 19.79,-34.39 7.67,-8.96 16.43,-15.98 26.28,-20.97 9.62,-4.83 19.76,-7.4 30.46,-7.68 10.66,-0.33 21.65,1.76 32.94,6.24 5.58,2.21 10.69,4.73 15.28,7.48 4.56,2.78 8.66,5.6 12.37,8.54 3.12,2.51 6.27,5.4 9.36,8.57 3.12,3.18 6.1,6.49 8.96,9.97l-10.6 26.75 -1.79 -0.71c-1.26,-2.53 -2.9,-5.67 -4.97,-9.36 -2.07,-3.71 -4.85,-7.64 -8.28,-11.84 -3.36,-3.93 -7.25,-7.64 -11.68,-11.09 -4.42,-3.47 -9.9,-6.49 -16.49,-9.1 -7.08,-2.8 -14.38,-4.02 -21.89,-3.63 -7.5,0.39 -14.79,2.47 -21.77,6.21 -6.94,3.79 -13.44,9.45 -19.44,16.99 -6.02,7.49 -11.14,16.61 -15.39,27.33 -4.52,11.4 -7.03,21.74 -7.52,31.05 -0.48,9.33 0.53,17.75 3.07,25.3 2.44,7.35 6.26,13.7 11.43,18.97 5.17,5.29 11.28,9.3 18.28,12.08 6.42,2.54 12.66,4.12 18.75,4.73 6.06,0.58 11.71,0.52 16.9,-0.16 5.05,-0.7 9.51,-1.68 13.49,-2.9 3.94,-1.22 7.09,-2.36 9.5,-3.41l1.68 0.67 -10.5 26.49c-4.35,0.26 -8.45,0.54 -12.34,0.86 -3.87,0.27 -8.42,0.24 -13.64,-0.1 -5.47,-0.36 -10.46,-0.96 -14.97,-1.78 -4.45,-0.82 -10.02,-2.55 -16.67,-5.18zm111.24 45.33l71.9 -141.02 -53.68 -27.37 9.65 -18.92 128.7 65.62 -9.65 18.93 -53.68 -27.37 -71.9 141.01 -21.34 -10.88zm223.58 60.35c-4.46,7.73 -9.85,13.74 -16.2,17.98 -6.33,4.24 -13.07,6.86 -20.22,7.82 -8.5,1.24 -16.66,0.91 -24.42,-1.05 -7.82,-1.94 -17,-5.95 -27.56,-12.02l-44.62 -25.7 89.6 -155.57 41.27 23.76c11.09,6.39 19.19,11.54 24.29,15.47 5.12,3.89 9.44,8.67 12.98,14.32 3.85,6.19 5.65,12.46 5.45,18.81 -0.19,6.29 -2.2,12.74 -5.96,19.27 -4.21,7.31 -9.89,12.73 -17.08,16.29 -7.21,3.54 -15.17,4.98 -23.87,4.34l-0.49 0.86c7.8,7.82 12.31,16.54 13.6,26.11 1.22,9.59 -1.04,19.36 -6.77,29.31zm11.21 -86.26c2.14,-3.71 3.37,-7.32 3.68,-10.75 0.33,-3.46 -0.43,-6.76 -2.29,-9.96 -2.25,-3.77 -5.34,-7.07 -9.19,-9.85 -3.87,-2.76 -9.39,-6.22 -16.63,-10.39l-19.79 -11.4 -26 45.15 23.43 13.5c6.49,3.74 11.41,6.14 14.87,7.24 3.4,1.1 7.36,1.57 11.8,1.38 4.28,-0.2 8.05,-1.54 11.24,-4.03 3.19,-2.48 6.13,-6.1 8.88,-10.89zm-33.23 74.52c3.35,-5.82 5.28,-11.06 5.78,-15.81 0.51,-4.75 -1,-9.88 -4.56,-15.4 -2.28,-3.64 -5.21,-6.81 -8.77,-9.52 -3.59,-2.68 -8.9,-6.07 -15.99,-10.16l-23.44 -13.5 -32.9 57.14 16.75 9.66c9.03,5.19 16.41,8.87 22.08,11.05 5.69,2.18 11.32,3.04 16.81,2.65 5.46,-0.47 10.04,-1.91 13.83,-4.29 3.79,-2.37 7.25,-6.33 10.41,-11.82zm208.78 18.9c1.01,10.37 -0.32,21.39 -4,33.07 -3.66,11.68 -9.83,23.62 -18.5,35.79 -8.45,11.87 -17.57,21.49 -27.38,28.9 -9.83,7.4 -19.89,12.31 -30.23,14.76 -10.8,2.56 -21.33,2.59 -31.63,0.16 -10.26,-2.4 -20.18,-7.05 -29.74,-13.85 -9.93,-7.07 -17.65,-15.09 -23.21,-24.05 -5.56,-9 -8.86,-18.84 -9.86,-29.49 -1,-10.52 0.35,-21.58 4.09,-33.22 3.73,-11.64 9.86,-23.44 18.41,-35.44 8.76,-12.31 17.95,-22.03 27.62,-29.14 9.66,-7.12 19.7,-11.99 30.08,-14.65 10.26,-2.51 20.58,-2.59 30.94,-0.26 10.4,2.3 20.48,6.95 30.34,13.96 9.95,7.09 17.7,15.23 23.21,24.36 5.54,9.2 8.84,18.88 9.86,29.1zm-42.81 54.39c6.87,-9.65 11.91,-18.95 15.11,-27.9 3.24,-8.94 4.68,-17.22 4.38,-24.81 -0.32,-7.8 -2.3,-14.87 -5.98,-21.28 -3.67,-6.4 -8.9,-12.05 -15.7,-16.89 -7.08,-5.03 -14.17,-8.21 -21.17,-9.51 -7.01,-1.29 -14.37,-0.82 -22.13,1.42 -7.4,2.22 -14.78,6.36 -22.21,12.39 -7.41,6.09 -14.49,13.82 -21.22,23.28 -13.63,19.15 -20.04,36.66 -19.22,52.55 0.85,15.92 8.01,28.69 21.6,38.36 13.54,9.65 27.96,12.24 43.22,7.78 15.24,-4.46 29.69,-16.24 43.32,-35.39zm172.6 157.54c0.56,5.25 -0.01,10.68 -1.69,16.25 -1.72,5.54 -5.39,11.3 -11.05,17.23 -5.54,5.8 -11.84,10.08 -18.91,12.83 -7.07,2.76 -14.44,4.04 -22.07,3.86 -7.83,-0.14 -15.79,-2.17 -23.92,-6 -8.12,-3.89 -15.94,-9.42 -23.49,-16.64 -8.1,-7.72 -14.74,-15.61 -19.97,-23.67 -5.22,-8 -9.04,-14.84 -11.44,-20.5l18.5 -19.37 1.22 1.17c1.69,7.53 4.7,15.7 9.09,24.39 4.37,8.72 9.9,16.28 16.57,22.65 4.25,4.06 8.98,7.5 14.3,10.41 5.27,2.87 10.57,4.41 15.85,4.55 5.3,0.17 10.05,-0.64 14.26,-2.37 4.19,-1.69 8.45,-4.85 12.77,-9.37 4.24,-4.44 6.98,-8.92 8.31,-13.46 1.27,-4.54 1.33,-9.14 0.24,-13.78 -1.07,-4.61 -3.22,-9.16 -6.46,-13.74 -3.23,-4.61 -7.08,-9.03 -11.63,-13.39l-13.58 -12.96 13.82 -14.46 11.79 11.26c9.14,8.73 18.24,13.9 27.28,15.53 9.06,1.64 16.94,-1.06 23.68,-8.12 3.04,-3.18 5.01,-6.6 5.82,-10.21 0.85,-3.57 0.71,-7.29 -0.37,-11.11 -1.23,-4.19 -3.06,-7.99 -5.53,-11.36 -2.44,-3.41 -5.43,-6.78 -8.96,-10.16 -3.7,-3.53 -7.72,-6.58 -12.15,-9.15 -4.37,-2.58 -8.76,-4.78 -13.13,-6.57 -4.18,-1.65 -8.05,-2.9 -11.59,-3.67 -3.54,-0.82 -6.43,-1.48 -8.75,-1.98l-1.13 -1.08 18.25 -19.1c5.75,1.89 12.72,5.32 21.05,10.26 8.3,4.89 15.76,10.54 22.37,16.85 6.7,6.4 11.89,12.45 15.64,18.19 3.75,5.73 6.38,11.79 7.96,18.19 1.61,7 1.7,13.46 0.18,19.41 -1.52,5.94 -4.83,11.61 -9.91,16.93 -6.72,7.03 -14.92,10.91 -24.6,11.69 -9.67,0.77 -19.04,-1.63 -28.17,-7.21l-1.22 1.28c2.41,3.32 4.68,7.25 6.82,11.87 2.12,4.57 3.43,9.46 3.95,14.63zm224.41 147.67c-1.95,10.23 -6.33,20.43 -13.16,30.6 -6.8,10.18 -16.09,19.88 -27.84,29.12 -11.45,9 -22.92,15.66 -34.42,20 -11.52,4.34 -22.55,6.21 -33.16,5.64 -11.09,-0.59 -21.2,-3.53 -30.4,-8.76 -9.16,-5.2 -17.37,-12.46 -24.62,-21.68 -7.54,-9.58 -12.69,-19.45 -15.49,-29.61 -2.79,-10.21 -3.19,-20.58 -1.14,-31.08 2,-10.38 6.42,-20.61 13.29,-30.72 6.86,-10.11 16.07,-19.71 27.65,-28.81 11.88,-9.34 23.44,-16.08 34.72,-20.17 11.28,-4.11 22.28,-5.95 32.99,-5.58 10.56,0.5 20.48,3.33 29.76,8.49 9.33,5.13 17.69,12.43 25.17,21.95 7.55,9.6 12.69,19.6 15.4,29.91 2.72,10.38 3.16,20.61 1.25,30.7zm-56.41 40.11c9.32,-7.32 16.78,-14.82 22.36,-22.5 5.64,-7.68 9.36,-15.21 11.21,-22.58 1.89,-7.57 1.98,-14.91 0.27,-22.1 -1.72,-7.17 -5.15,-14.07 -10.31,-20.63 -5.37,-6.82 -11.28,-11.87 -17.63,-15.09 -6.36,-3.22 -13.55,-4.84 -21.63,-4.88 -7.72,0.05 -15.97,1.93 -24.8,5.62 -8.83,3.75 -17.8,9.18 -26.93,16.35 -18.48,14.53 -29.56,29.53 -33.25,45 -3.68,15.51 -0.41,29.79 9.9,42.9 10.27,13.07 23.38,19.62 39.27,19.64 15.88,0.02 33.07,-7.2 51.54,-21.73zm74.25 167.98c-7.31,4.68 -14.88,7.51 -22.62,8.46 -7.79,0.97 -15.08,0.27 -21.88,-2.12 -8.08,-2.85 -15.14,-6.88 -21.21,-12.14 -6.05,-5.27 -12.35,-13.06 -18.91,-23.32l-27.95 -43.69 151.24 -96.73 58.82 91.95 -17.9 11.44 -45.9 -71.76 -41.4 26.47 15.48 24.2c6.57,10.27 11.32,19 14.29,26.23 2.94,7.21 4.02,15.17 3.21,23.74 -0.71,7.69 -3.24,14.64 -7.59,20.83 -4.34,6.2 -10.22,11.67 -17.68,16.44zm-13.75 -20.81c5.03,-3.22 8.94,-6.89 11.75,-10.98 2.77,-4.12 4.21,-8.7 4.28,-13.78 0.12,-5.31 -1.14,-10.56 -3.69,-15.76 -2.58,-5.19 -6.68,-12.2 -12.34,-21.04l-11.44 -17.89 -56.99 36.46 11.13 17.41c5.72,8.94 10.59,15.55 14.54,19.81 3.95,4.27 8.35,7.41 13.13,9.48 5.06,2.1 9.9,2.86 14.54,2.33 4.59,-0.54 9.65,-2.56 15.09,-6.04zm52.31 206.15l-10.86 -21.36 137.9 -70.07 -115.06 5.98 -6.54 -12.88 72.83 -89.08 -137.89 70.07 -10.07 -19.82 160.05 -81.33 14.71 28.96 -68.8 85.28 108.72 -6.73 15.06 29.65 -160.05 81.33zm15.24 33.07l163.58 -73.97 46.29 102.38 -19.35 8.75 -36.42 -80.55 -44.78 20.25 33.98 75.15 -19.35 8.75 -33.98 -75.15 -60.75 27.47 36.42 80.55 -19.35 8.75 -46.29 -102.38zm113.43 322.65l-7.96 -28.16 63.3 -80.2 -3.14 -11.09 -79.6 22.49 -6.45 -22.81 79.61 -22.49 -3.2 -11.33 -95.87 -35.05 -7.6 -26.89 107.6 39.94c1.79,-5.93 4.63,-11.48 8.52,-16.6 3.86,-5.16 10.98,-11.11 21.38,-17.89 9.11,-5.91 15.07,-11.15 17.88,-15.75 2.85,-4.57 2.85,-11.84 0.07,-21.7l-1.31 -4.63 20.44 -5.78 1.66 5.9c3.66,12.95 4.02,23.63 1.08,32.12 -2.97,8.44 -10.4,16.92 -22.38,25.39 -3.08,2.12 -6.08,4.2 -9,6.27 -2.93,2.07 -5.3,3.81 -7.03,5.24 -7.33,5.7 -12.31,11.52 -14.97,17.4 -2.63,5.88 -3.31,12.22 -2.06,19.06l77.95 -22.03 6.44 22.81 -77.94 22.03c2.68,6.94 6.58,12.26 11.71,16.03 5.12,3.76 12.53,6.2 22.2,7.27 3.88,0.4 7.53,0.74 10.97,0.97 3.44,0.23 6.35,0.38 8.72,0.44 14.54,0.9 25.31,4.23 32.34,10.02 6.98,5.81 12.31,15.08 15.91,27.84l1.68 5.94 -20.44 5.78 -1.31 -4.64c-2.8,-9.9 -6.64,-16.08 -11.49,-18.56 -4.9,-2.51 -12.69,-3.9 -23.46,-4.19 -11.23,-0.38 -19.96,-1.89 -26.26,-4.65 -6.24,-2.72 -11.64,-6.07 -16.1,-10.07l-71.89 91.57zm4.58 16.25l176.67 -31.92 19.98 110.57 -20.9 3.77 -15.72 -86.99 -48.36 8.74 14.66 81.15 -20.9 3.78 -14.66 -81.15 -65.61 11.85 15.72 86.99 -20.9 3.78 -19.98 -110.57zm40.49 265.5l-2.97 -23.76 87.23 -10.91 -10.21 -81.6 -87.23 10.91 -2.97 -23.77 178.14 -22.28 2.97 23.77 -69.83 8.74 10.2 81.59 69.84 -8.73 2.97 23.76 -178.14 22.28zm163.14 159.4c-7.67,7.06 -17.27,12.63 -28.81,16.73 -11.53,4.1 -24.78,6.36 -39.71,6.77 -14.57,0.39 -27.74,-1.1 -39.57,-4.47 -11.83,-3.39 -21.8,-8.47 -29.98,-15.25 -8.54,-7.09 -14.9,-15.48 -19.17,-25.17 -4.26,-9.63 -6.52,-20.36 -6.84,-32.08 -0.33,-12.19 1.42,-23.18 5.23,-33.01 3.84,-9.86 9.71,-18.42 17.62,-25.63 7.79,-7.13 17.43,-12.71 28.98,-16.73 11.54,-4.02 24.66,-6.23 39.38,-6.63 15.11,-0.42 28.4,1.07 39.9,4.51 11.5,3.42 21.43,8.51 29.81,15.2 8.17,6.69 14.45,14.88 18.83,24.55 4.42,9.68 6.78,20.53 7.11,32.63 0.33,12.22 -1.5,23.3 -5.48,33.2 -4,9.96 -9.75,18.43 -17.3,25.38zm-69.2 -1.44c11.84,-0.32 22.3,-1.89 31.37,-4.72 9.1,-2.8 16.57,-6.63 22.46,-11.44 6.03,-4.95 10.48,-10.79 13.39,-17.58 2.9,-6.79 4.26,-14.37 4.03,-22.71 -0.24,-8.68 -1.97,-16.26 -5.15,-22.63 -3.19,-6.38 -7.99,-11.97 -14.45,-16.81 -6.23,-4.57 -13.98,-7.98 -23.26,-10.28 -9.33,-2.26 -19.77,-3.25 -31.38,-2.93 -23.49,0.64 -41.33,6.07 -53.52,16.28 -12.21,10.26 -18.09,23.68 -17.64,40.34 0.46,16.63 7.07,29.7 19.81,39.19 12.74,9.49 30.85,13.94 54.34,13.29zm-18.18 268.35c-29.5,-2.25 -51.86,-11.13 -67.06,-26.61 -15.21,-15.53 -21.93,-35.11 -20.12,-58.83 1.8,-23.72 11.19,-41.91 28.13,-54.49 16.93,-12.62 39.63,-18.07 68.15,-16.39l2.13 -28.07 -86.67 -6.6 1.82 -23.89 179.01 13.63 -1.81 23.89 -71.66 -5.46 -2.22 29.26c23.81,4.74 41.75,14.32 53.82,28.78 12.05,14.45 17.31,32.27 15.69,53.53 -1.81,23.72 -11.38,42.06 -28.68,55.11 -17.29,13.01 -40.81,18.4 -70.53,16.14zm1.9 -24.87c23.64,1.8 42.02,-1.68 55.1,-10.38 13.09,-8.7 20.28,-21.24 21.53,-37.61 1.26,-16.58 -3.94,-30.19 -15.56,-40.77 -11.61,-10.58 -29.26,-16.8 -52.9,-18.6 -23.43,-1.79 -41.73,1.7 -54.9,10.43 -13.18,8.78 -20.41,21.39 -21.67,37.9 -1.25,16.37 3.96,29.85 15.62,40.44 11.66,10.58 29.26,16.8 52.78,18.59zm-90.77 249.89c-8.7,-2.01 -16.02,-5.43 -21.92,-10.27 -5.89,-4.82 -10.37,-10.51 -13.36,-17.07 -3.65,-7.77 -5.71,-15.68 -6.1,-23.68 -0.42,-8.04 0.75,-17.99 3.5,-29.86l11.61 -50.16 174.9 40.49 -10.74 46.4c-2.88,12.47 -5.46,21.71 -7.73,27.74 -2.24,6.03 -5.55,11.55 -9.93,16.58 -4.81,5.48 -10.28,9.03 -16.41,10.69 -6.08,1.64 -12.83,1.59 -20.17,-0.1 -8.22,-1.91 -15.06,-5.77 -20.55,-11.61 -5.49,-5.87 -9.18,-13.07 -11.1,-21.58l-0.97 -0.22c-5.21,9.73 -12.24,16.59 -21.03,20.61 -8.81,3.95 -18.82,4.63 -30,2.04zm85.79 -14.35c4.17,0.97 7.98,1.09 11.35,0.39 3.41,-0.69 6.34,-2.38 8.87,-5.09 2.95,-3.25 5.21,-7.16 6.75,-11.66 1.52,-4.5 3.22,-10.79 5.1,-18.92l5.15 -22.26 -50.75 -11.75 -6.1 26.35c-1.69,7.29 -2.57,12.71 -2.6,16.33 -0.07,3.58 0.63,7.5 2.1,11.69 1.44,4.05 3.82,7.25 7.13,9.58 3.29,2.34 7.62,4.1 13,5.34zm-80.96 -10.13c6.53,1.51 12.11,1.84 16.8,0.93 4.69,-0.89 9.17,-3.83 13.41,-8.84 2.82,-3.24 5,-6.96 6.55,-11.16 1.53,-4.21 3.24,-10.28 5.08,-18.25l6.1 -26.35 -64.24 -14.87 -4.36 18.84c-2.35,10.14 -3.72,18.27 -4.16,24.34 -0.43,6.07 0.38,11.71 2.35,16.86 2.04,5.08 4.75,9.04 8.13,11.98 3.37,2.93 8.16,5.09 14.34,6.52zm-88.05 93.62l22.4 -66.21 17.31 5.86 -7.37 21.76 135.44 45.82 7.36 -21.76 17.32 5.86 -22.4 66.2 -17.31 -5.86 7.36 -21.75 -135.44 -45.83 -7.36 21.76 -17.31 -5.85zm-101.26 148.15l8.37 -21.12 38.34 15.2 42.86 -108.12 -38.33 -15.2 8.37 -21.12 57.63 22.84 -3.64 9.19c12.06,16.02 29.81,32.1 53.29,48.26 23.47,16.17 50.45,30.32 81.02,42.44l-36.86 92.97 -147.15 -58.33 -6.28 15.84 -57.62 -22.85zm72.73 -15.26l127.86 50.69 19.84 -50.05c-26.56,-11.72 -49.67,-24.78 -69.41,-39.11 -19.75,-14.38 -35.02,-28.81 -45.89,-43.25l-32.4 81.72zm-106.32 166.08l10.88 -21.34 141.01 71.92 37.36 -73.26 -141.02 -71.91 10.89 -21.34 159.93 81.56 -59.12 115.93 -159.93 -81.56zm44.91 223.36c-10.31,1.51 -21.38,0.72 -33.23,-2.38 -11.84,-3.09 -24.06,-8.67 -36.64,-16.73 -12.27,-7.87 -22.32,-16.51 -30.2,-25.95 -7.88,-9.46 -13.27,-19.26 -16.22,-29.47 -3.08,-10.67 -3.62,-21.18 -1.7,-31.59 1.9,-10.36 6.06,-20.5 12.39,-30.38 6.57,-10.26 14.2,-18.37 22.88,-24.35 8.72,-5.99 18.39,-9.77 28.98,-11.28 10.46,-1.52 21.57,-0.71 33.38,2.46 11.81,3.17 23.89,8.71 36.3,16.66 12.72,8.15 22.88,16.86 30.45,26.17 7.58,9.3 12.93,19.09 16.1,29.33 3,10.13 3.58,20.43 1.76,30.89 -1.79,10.5 -5.94,20.8 -12.47,30.98 -6.59,10.29 -14.35,18.42 -23.2,24.38 -8.91,5.97 -18.42,9.75 -28.58,11.26zm-56.41 -40.11c9.97,6.39 19.5,10.98 28.6,13.73 9.09,2.8 17.43,3.84 25,3.17 7.77,-0.69 14.74,-3.02 20.96,-7.01 6.21,-3.97 11.6,-9.48 16.1,-16.51 4.69,-7.3 7.51,-14.54 8.47,-21.6 0.95,-7.07 0.12,-14.39 -2.5,-22.03 -2.58,-7.28 -7.06,-14.46 -13.45,-21.58 -6.44,-7.11 -14.52,-13.81 -24.29,-20.07 -19.79,-12.68 -37.59,-18.22 -53.42,-16.63 -15.86,1.62 -28.27,9.4 -37.27,23.43 -8.97,14.01 -10.86,28.53 -5.66,43.55 5.2,15.01 17.67,28.87 37.46,41.55zm-138.69 121.76c-7.02,-5.52 -12.19,-11.73 -15.48,-18.61 -3.29,-6.87 -4.92,-13.92 -4.84,-21.13 0,-8.59 1.49,-16.63 4.54,-24.03 3.04,-7.45 8.32,-15.97 15.85,-25.54l31.83 -40.48 141.12 110.97 -29.43 37.44c-7.92,10.06 -14.17,17.34 -18.79,21.82 -4.59,4.51 -9.94,8.1 -16.04,10.8 -6.68,2.91 -13.14,3.8 -19.4,2.7 -6.19,-1.1 -12.29,-4.01 -18.21,-8.66 -6.63,-5.22 -11.18,-11.62 -13.67,-19.24 -2.48,-7.65 -2.76,-15.73 -0.88,-24.25l-0.78 -0.61c-8.85,6.6 -18.14,9.81 -27.79,9.72 -9.66,-0.17 -19.01,-3.81 -28.03,-10.9zm83.75 23.46c3.37,2.64 6.77,4.37 10.12,5.18 3.38,0.82 6.75,0.54 10.19,-0.84 4.05,-1.69 7.75,-4.27 11.06,-7.69 3.29,-3.43 7.5,-8.4 12.66,-14.96l14.12 -17.96 -40.95 -32.2 -16.72 21.25c-4.63,5.89 -7.72,10.42 -9.29,13.68 -1.59,3.21 -2.61,7.06 -3.06,11.48 -0.42,4.27 0.37,8.19 2.37,11.7 2,3.52 5.16,6.95 9.5,10.36zm-68.98 -43.57c5.27,4.14 10.19,6.81 14.81,7.98 4.63,1.19 9.93,0.43 15.9,-2.31 3.93,-1.73 7.48,-4.17 10.68,-7.31 3.17,-3.17 7.29,-7.93 12.35,-14.37l16.71 -21.25 -51.83 -40.76 -11.95 15.2c-6.44,8.18 -11.13,14.96 -14.11,20.27 -2.97,5.31 -4.63,10.75 -5.03,16.25 -0.32,5.47 0.45,10.21 2.26,14.3 1.81,4.09 5.23,8.08 10.21,12zm-117.5 49.04l48.27 -50.55 13.21 12.62 -15.87 16.61 103.4 98.76 15.87 -16.62 13.22 12.63 -48.27 50.54 -13.22 -12.62 15.86 -16.61 -103.4 -98.76 -15.86 16.62 -13.21 -12.62zm-153.17 93.18l16.39 -15.73 28.55 29.75 83.92 -80.54 -28.56 -29.75 16.39 -15.73 42.93 44.72 -7.13 6.84c4.31,19.59 13.79,41.59 28.42,66.05 14.63,24.46 33.29,48.53 56.07,72.26l-72.16 69.26 -109.61 -114.2 -12.29 11.8 -42.92 -44.73zm72.49 16.34l95.25 99.23 38.84 -37.28c-19.29,-21.7 -34.89,-43.18 -46.89,-64.42 -11.99,-21.28 -19.88,-40.75 -23.77,-58.4l-63.43 60.87zm-47.74 14.75l63.36 178.57 -23.16 18.21 -158.6 -103.66 19.86 -15.62 43.58 29.18 54.03 -42.49 -18.13 -49.21 19.06 -14.98zm-36.83 118.81l73.84 49.16 -30.43 -83.31 -43.41 34.15zm-205.4 55.13l20.18 -12.9 85.28 133.35 51.18 -32.73c-4.67,-7.77 -9.19,-15.43 -13.51,-22.88 -4.31,-7.5 -8.2,-14.2 -11.68,-20.08 -8.61,-14.63 -15.28,-26.97 -20.07,-37.05 -4.8,-10.11 -8.27,-18.89 -10.4,-26.42 -2.09,-7.31 -3.17,-13.66 -3.12,-19.01 0.05,-5.36 0.71,-10.27 1.98,-14.71 1.25,-4.7 3.18,-8.86 5.75,-12.47 2.59,-3.6 6.19,-6.89 10.77,-9.81 1.42,-0.91 2.87,-1.79 4.39,-2.61 1.53,-0.84 2.71,-1.49 3.51,-2.01l12.44 19.46 -1.43 0.91c-0.71,0.4 -1.31,0.69 -1.81,0.97 -0.51,0.27 -1.22,0.68 -2.2,1.31 -2.43,1.55 -4.47,3.39 -6.12,5.47 -1.59,2.09 -2.66,4.39 -3.15,6.9 -1.74,7.46 0.04,17.71 5.35,30.68 5.26,12.95 13.71,29.53 25.4,49.71 3.88,6.85 9.14,15.84 15.76,26.95 6.65,11.09 12.74,21.31 18.3,30.61l-90.07 57.6 -96.73 -151.24zm-113.4 124.26c-3.93,-7.74 -6.01,-15.55 -6.18,-23.35 -0.21,-7.84 1.22,-15.03 4.31,-21.59 3.63,-7.75 8.37,-14.4 14.21,-19.92 5.84,-5.5 14.21,-11 25.11,-16.54l45.24 -22.98 81.33 160.05 -21.37 10.85 -31.88 -62.74 -24.58 12.49c-10.85,5.51 -20.05,9.4 -27.55,11.64 -7.53,2.26 -15.52,2.53 -24.01,0.9 -7.58,-1.47 -14.24,-4.68 -20.02,-9.6 -5.73,-4.93 -10.6,-11.32 -14.61,-19.21zm22.07 -11.63c2.71,5.32 5.97,9.57 9.8,12.75 3.79,3.19 8.24,5.05 13.29,5.62 5.31,0.63 10.62,-0.09 16.09,-2.13 5.42,-2.05 12.83,-5.46 22.22,-10.23l17.9 -9.1 -30.64 -60.32 -17.4 8.84c-9.49,4.82 -16.59,9.04 -21.23,12.54 -4.63,3.51 -8.23,7.6 -10.76,12.16 -2.58,4.82 -3.85,9.58 -3.76,14.24 0.06,4.63 1.56,9.87 4.49,15.63zm-186.53 25.33l21.83 -9.87 36.21 80.11 74.93 -33.87 -36.21 -80.11 21.83 -9.86 73.95 163.59 -21.83 9.87 -28.99 -64.13 -74.93 33.87 28.99 64.13 -21.83 9.86 -73.95 -163.59zm-94.79 30.4l66.18 -22.46 5.87 17.3 -21.75 7.38 45.95 135.4 21.75 -7.38 5.87 17.31 -66.18 22.46 -5.88 -17.31 21.76 -7.38 -45.95 -135.4 -21.75 7.38 -5.87 -17.3zm-96.4 24.58c11.28,-3.19 22.24,-4.23 32.77,-3.14 10.53,1.13 20.33,4.47 29.33,10.01 9.02,5.54 17.01,13.41 23.94,23.56 6.97,10.13 12.51,22.46 16.62,37 4.09,14.46 5.82,27.57 5.17,39.34 -0.65,11.77 -3.35,22.67 -8.14,32.62 -4.71,9.68 -11.2,17.88 -19.53,24.6 -8.27,6.74 -18.27,11.75 -29.96,15.05 -5.78,1.64 -11.37,2.74 -16.68,3.34 -5.32,0.56 -10.28,0.81 -15.01,0.73 -4.01,-0.1 -8.27,-0.48 -12.65,-1.12 -4.4,-0.64 -8.78,-1.46 -13.18,-2.48l-7.82 -27.69 1.86 -0.52c2.53,1.25 5.74,2.74 9.63,4.42 3.9,1.68 8.49,3.12 13.77,4.37 5.05,1.08 10.4,1.67 16.01,1.72 5.62,0.07 11.81,-0.87 18.62,-2.79 7.34,-2.07 13.88,-5.54 19.6,-10.41 5.72,-4.87 10.25,-10.94 13.53,-18.15 3.21,-7.24 4.93,-15.68 5.12,-25.31 0.23,-9.61 -1.24,-19.97 -4.37,-31.06 -3.34,-11.8 -7.63,-21.54 -12.89,-29.24 -5.29,-7.7 -11.21,-13.77 -17.81,-18.23 -6.4,-4.36 -13.29,-7.08 -20.6,-8.13 -7.32,-1.06 -14.61,-0.54 -21.86,1.51 -6.65,1.88 -12.56,4.41 -17.77,7.63 -5.16,3.22 -9.61,6.7 -13.32,10.4 -3.59,3.62 -6.54,7.1 -8.96,10.49 -2.39,3.36 -4.2,6.18 -5.47,8.48l-1.75 0.49 -7.74 -27.42c3.3,-2.85 6.37,-5.56 9.27,-8.18 2.91,-2.57 6.55,-5.31 10.9,-8.2 4.57,-3.05 8.9,-5.6 12.97,-7.69 4.04,-2.04 9.51,-4.06 16.4,-6zm-116.58 28.65l28.15 155.77 59.29 -10.71 3.78 20.9 -142.16 25.69 -3.78 -20.9 59.29 -10.72 -28.15 -155.76 23.58 -4.27zm-302.03 123.16c-2.24,-29.51 3.16,-52.96 16.16,-70.32 13.05,-17.38 31.38,-26.99 55.11,-28.79 23.72,-1.81 43.12,4.72 58.12,19.56 15.03,14.83 23.86,36.44 26.51,64.89l28.07 -2.14 -6.59 -86.67 23.89 -1.82 13.61 179.02 -23.89 1.81 -5.45 -71.65 -29.25 2.23c-1.09,24.26 -7.84,43.43 -20.31,57.55 -12.46,14.11 -29.28,21.99 -50.54,23.61 -23.72,1.8 -43.3,-4.88 -58.82,-20.01 -15.47,-15.12 -24.36,-37.56 -26.62,-67.27zm24.87 -1.9c1.8,23.65 8.02,41.3 18.6,52.91 10.58,11.62 24.06,16.83 40.43,15.59 16.59,-1.26 29.25,-8.46 37.95,-21.55 8.7,-13.08 12.18,-31.47 10.38,-55.11 -1.78,-23.43 -7.99,-40.99 -18.62,-52.69 -10.66,-11.7 -24.23,-16.94 -40.73,-15.68 -16.37,1.24 -28.92,8.42 -37.62,21.55 -8.7,13.13 -12.18,31.47 -10.39,54.98z"/>
   <circle class="fil3" cx="2050.01" cy="2050" r="2000"/>
   <rect class="fil0 str2" x="991.65" y="2529.78" width="2487.09" height="319.15"/>
   <rect class="fil0 str3" transform="matrix(1.89178E-14 -1.29857 0.416898 2.00729E-14 1108.15 3664.83)" width="2487.09" height="546.81"/>
   <path class="fil4" d="M1702.36 2603.01l-64.98 151.09c-2.76,6.38 -5.81,11.44 -9.22,15.31 -3.42,3.87 -6.96,6.75 -10.66,8.69 -3.71,2.01 -7.33,3.33 -10.91,3.99 -3.58,0.61 -7.16,0.94 -10.78,0.94 -3.21,0 -7,-0.08 -11.32,-0.24 -4.32,-0.17 -7.12,-0.29 -8.31,-0.37l0 -22.1 1.68 0c1.24,0.12 3.05,0.28 5.52,0.49 2.47,0.16 5.6,0.25 9.38,0.25 1.77,0 3.87,-0.09 6.26,-0.29 2.43,-0.21 4.65,-0.78 6.67,-1.73 2.34,-1.11 4.52,-2.59 6.58,-4.49 2.06,-1.85 3.95,-4.81 5.64,-8.85l4.11 -9.42 -63.13 -133.27 26.5 0 48.73 105.74 44.04 -105.74 24.2 0z"/>
   <path id="_1" class="fil4" d="M1943.11 2782.54l-30.46 0 -63.5 -82.23 -14.94 0 0 82.23 -23.96 0 0 -179.53 23.96 0 0 81c9.42,-0.33 16.87,-2.67 22.39,-7.12 5.47,-4.44 9.96,-10.78 13.41,-19.05 1.44,-3.63 2.76,-7.08 3.91,-10.34 1.16,-3.29 2.1,-6.05 2.84,-8.27 4.82,-13.78 10.95,-23.25 18.44,-28.44 7.49,-5.18 17.86,-7.78 31.16,-7.78l7.36 0 0 21.24 -6.05 0c-9.79,0 -16.66,1.94 -20.62,5.8 -3.91,3.87 -7.53,11.12 -10.86,21.74 -3.29,10.61 -7,18.39 -11.07,23.33 -4.12,4.94 -9.06,9.3 -14.86,13.09l72.85 94.33z"/>
   <path id="_2" class="fil4" d="M2163.19 2657.14c0,7.82 -1.4,15.18 -4.15,22.14 -2.76,6.95 -6.59,12.88 -11.45,17.78 -6.17,6.09 -13.41,10.74 -21.77,13.87 -8.31,3.13 -18.85,4.69 -31.61,4.69l-20.16 0 0 66.92 -23.96 0 0 -179.53 44.99 0c10.62,0 19.63,0.87 27.08,2.64 7.45,1.77 14.03,4.65 19.75,8.56 6.63,4.61 11.86,10.41 15.64,17.45 3.75,7.04 5.64,15.52 5.64,25.48zm-24.94 0.57c0,-6.13 -1.07,-11.48 -3.17,-16.01 -2.14,-4.57 -5.35,-8.27 -9.63,-11.11 -3.78,-2.51 -8.15,-4.24 -13.13,-5.27 -4.98,-1.03 -11.19,-1.56 -18.64,-1.56l-19.63 0 0 71.12 16.17 0c9.59,0 17.33,-0.79 23.25,-2.35 5.89,-1.52 10.79,-4.32 14.74,-8.27 3.5,-3.62 6.05,-7.49 7.65,-11.73 1.61,-4.24 2.39,-9.18 2.39,-14.82z"/>
   <path id="_3" class="fil4" d="M2257.8 2782.54l60.58 -179.53 29.47 0 60.58 179.53 -25.27 0 -16.22 -49.88 -68.73 0 -16.17 49.88 -24.24 0zm102.39 -70.62l-27.65 -84.29 -27.58 84.29 55.23 0z"/>
   <path id="_4" class="fil4" d="M2579.17 2782.54l-69.89 0 0 -18.27 22.97 0 0 -142.98 -22.97 0 0 -18.28 69.89 0 0 18.28 -22.97 0 0 142.98 22.97 0 0 18.27zm2.22 -202.24l-23.95 0 0 -23.46 23.95 0 0 23.46zm-50.13 0l-23.95 0 0 -23.46 23.95 0 0 23.46z"/>
   <polygon id="_5" class="fil4" points="2829.75,2782.54 2805.8,2782.54 2805.8,2694.63 2723.57,2694.63 2723.57,2782.54 2699.61,2782.54 2699.61,2603.01 2723.57,2603.01 2723.57,2673.39 2805.8,2673.39 2805.8,2603.01 2829.75,2603.01 "/>
   <path id="_6" class="fil4" d="M2937.94 2782.54l60.58 -179.53 29.47 0 60.58 179.53 -25.27 0 -16.22 -49.88 -68.73 0 -16.17 49.88 -24.24 0zm102.39 -70.62l-27.65 -84.29 -27.58 84.29 55.23 0z"/>
   <path class="fil2" d="M1581.21 1548.38l-19.35 0 -37.66 -92.77 34.37 0 22.64 92.77zm-56.71 0l-19.35 0 -37.66 -92.77 34.36 0 22.65 92.77z"/>
   <polygon id="_1_0" class="fil2" points="1792.12,1713.88 1763.46,1713.88 1763.46,1592.9 1665.1,1592.9 1665.1,1713.88 1636.45,1713.88 1636.45,1466.82 1665.1,1466.82 1665.1,1563.68 1763.46,1563.68 1763.46,1466.82 1792.12,1466.82 "/>
   <path id="_2_1" class="fil2" d="M1831.98 1713.88l72.47 -247.06 35.26 0 72.47 247.06 -30.24 0 -19.39 -68.65 -82.22 0 -19.35 68.65 -29 0zm122.5 -97.19l-33.09 -116 -32.99 116 66.08 0z"/>
   <path id="_3_2" class="fil2" d="M2162.81 1594.77c4.82,4.7 8.81,10.65 11.96,17.78 3.1,7.14 4.68,16.37 4.68,27.64 0,11.05 -1.92,21.3 -5.76,30.76 -3.84,9.46 -9.16,17.73 -15.91,24.81 -6.89,7.3 -15.45,12.85 -25.65,16.76 -10.24,3.85 -21.55,5.78 -34.06,5.78 -13.39,0 -25.65,-1.53 -36.82,-4.59 -11.13,-3 -20.09,-6.17 -26.84,-9.52l0 -36.87 2.02 0c7.68,5.89 17.04,11.16 28.01,15.64 10.98,4.53 22.01,6.79 33.04,6.79 7.04,0 13.98,-1.07 20.97,-3.23 6.95,-2.15 12.8,-5.66 17.48,-10.53 4.72,-4.87 8.17,-10.2 10.39,-15.92 2.22,-5.66 3.29,-12.85 3.29,-21.46 0,-8.44 -1.33,-15.52 -3.93,-21.3 -2.66,-5.72 -6.4,-10.36 -11.18,-13.93 -4.72,-3.57 -10.34,-6.06 -16.94,-7.53 -6.59,-1.53 -13.58,-2.27 -21.12,-2.27l-22.45 0 0 -27.53 19.5 0c15.11,0 27.27,-3.51 36.43,-10.47 9.21,-6.97 13.78,-17.17 13.78,-30.59 0,-6.06 -1.13,-11.33 -3.39,-15.69 -2.21,-4.36 -5.41,-7.93 -9.5,-10.7 -4.54,-3 -9.26,-5.04 -14.18,-6.06 -4.92,-1.08 -10.29,-1.59 -16.15,-1.59 -6.11,0 -12.11,0.79 -18.07,2.44 -5.91,1.58 -11.52,3.57 -16.78,5.94 -4.98,2.33 -9.36,4.76 -13.05,7.37 -3.75,2.55 -6.8,4.64 -9.21,6.34l-1.87 0 0 -36.36c6.55,-3.57 15.41,-6.8 26.68,-9.8 11.22,-3 22.36,-4.47 33.29,-4.47 11.07,0 20.57,1.07 28.55,3.22 7.97,2.16 15.26,5.67 21.91,10.54 7.18,5.44 12.6,11.78 16.2,19.14 3.59,7.37 5.41,16.14 5.41,26.28 0,13.37 -3.89,25.04 -11.62,35.01 -7.73,9.96 -17.82,16.48 -30.33,19.59l0 2.44c4.83,1.02 10.05,2.77 15.71,5.32 5.62,2.55 10.78,6.18 15.51,10.82z"/>
   <path id="_4_3" class="fil2" d="M2374.2 1637.98c0,12.3 -2.02,23.17 -6.05,32.57 -4.04,9.4 -9.46,17.16 -16.3,23.22 -8.07,7.31 -16.74,12.52 -25.94,15.52 -9.26,3.06 -21.17,4.59 -35.75,4.59l-61.58 0 0 -247.06 56.96 0c15.3,0 26.78,0.57 34.41,1.76 7.63,1.13 14.97,3.85 22.01,8.16 7.68,4.75 13.29,10.98 16.88,18.69 3.55,7.64 5.32,16.7 5.32,27.07 0,11.61 -2.66,21.97 -7.98,31.15 -5.36,9.18 -12.75,16.37 -22.15,21.58l0 1.36c12.75,3.96 22.65,11.27 29.69,21.8 6.99,10.6 10.48,23.79 10.48,39.59zm-39.87 -110.55c0,-5.89 -0.89,-11.05 -2.62,-15.35 -1.72,-4.36 -4.47,-7.76 -8.32,-10.31 -4.57,-2.95 -9.74,-4.76 -15.4,-5.44 -5.67,-0.62 -13.45,-0.96 -23.43,-0.96l-27.33 0 0 71.7 32.34 0c8.96,0 15.51,-0.51 19.74,-1.58 4.19,-1.02 8.57,-3.17 13.05,-6.46 4.34,-3.17 7.44,-7.36 9.26,-12.52 1.82,-5.15 2.71,-11.49 2.71,-19.08zm10.04 111.69c0,-9.23 -1.13,-16.82 -3.44,-22.83 -2.33,-6 -6.95,-11.1 -13.94,-15.23 -4.53,-2.78 -9.46,-4.53 -14.77,-5.33 -5.32,-0.73 -12.85,-1.13 -22.65,-1.13l-32.34 0 0 90.73 23.14 0c12.45,0 22.3,-0.68 29.49,-1.98 7.19,-1.3 13.53,-4.13 19,-8.38 5.36,-4.31 9.26,-9.18 11.77,-14.61 2.5,-5.44 3.74,-12.52 3.74,-21.24z"/>
   <path id="_5_4" class="fil2" d="M2398.7 1713.88l72.47 -247.06 35.26 0 72.47 247.06 -30.23 0 -19.4 -68.65 -82.22 0 -19.35 68.65 -29 0zm122.5 -97.19l-33.08 -116 -32.99 116 66.07 0z"/>
   <polygon id="_6_5" class="fil2" points="1548.72,2124.05 1548.72,1906.22 1476.64,1906.22 1476.64,1876.99 1649.45,1876.99 1649.45,1906.22 1577.37,1906.22 1577.37,2124.05 "/>
   <path id="_7" class="fil2" d="M1842.38 1905.43c8.17,10.81 14.52,24.24 19.05,40.27 4.53,16.02 6.8,34.32 6.8,54.88 0,20.05 -2.22,38.12 -6.65,54.26 -4.43,16.14 -10.83,29.68 -19.2,40.66 -8.76,11.5 -19,19.94 -30.72,25.43 -11.67,5.5 -24.57,8.22 -38.6,8.22 -14.57,0 -27.67,-2.83 -39.29,-8.44 -11.67,-5.67 -21.71,-14.05 -30.08,-25.21 -8.28,-10.98 -14.62,-24.46 -19.05,-40.49 -4.44,-16.03 -6.65,-34.16 -6.65,-54.43 0,-20.79 2.21,-39.03 6.7,-54.71 4.48,-15.69 10.87,-29.17 19.15,-40.44 8.26,-10.99 18.26,-19.32 29.98,-24.98 11.72,-5.72 24.76,-8.55 39.24,-8.55 14.62,0 27.81,2.94 39.53,8.78 11.77,5.89 21.71,14.1 29.79,24.75zm-3.99 95.15c0,-16.31 -1.52,-30.76 -4.63,-43.33 -3.05,-12.63 -7.38,-23.05 -12.95,-31.32 -5.71,-8.5 -12.55,-14.84 -20.57,-19.09 -8.03,-4.25 -17.04,-6.4 -27.04,-6.4 -10.38,0 -19.49,2.1 -27.22,6.23 -7.73,4.14 -14.57,10.54 -20.58,19.26 -5.66,8.38 -9.99,18.92 -13.04,31.6 -3.01,12.75 -4.53,27.08 -4.53,43.05 0,32.34 5.9,57.09 17.72,74.25 11.87,17.16 27.71,25.77 47.65,25.77 19.89,0 35.75,-8.61 47.52,-25.77 11.77,-17.16 17.67,-41.91 17.67,-74.25z"/>
   <path id="_8" class="fil2" d="M2064.4 2048.15c0,12.3 -2.02,23.17 -6.05,32.57 -4.04,9.4 -9.46,17.16 -16.3,23.22 -8.07,7.31 -16.74,12.52 -25.94,15.52 -9.26,3.06 -21.17,4.59 -35.75,4.59l-61.58 0 0 -247.06 56.96 0c15.31,0 26.78,0.57 34.41,1.76 7.63,1.13 14.97,3.85 22.01,8.16 7.68,4.75 13.29,10.98 16.88,18.69 3.55,7.64 5.32,16.7 5.32,27.07 0,11.61 -2.66,21.97 -7.98,31.15 -5.36,9.18 -12.75,16.37 -22.15,21.58l0 1.36c12.76,3.96 22.65,11.27 29.69,21.8 6.99,10.6 10.48,23.79 10.48,39.59zm-39.87 -110.55c0,-5.89 -0.89,-11.05 -2.62,-15.35 -1.72,-4.36 -4.47,-7.76 -8.32,-10.31 -4.57,-2.95 -9.74,-4.76 -15.4,-5.44 -5.67,-0.62 -13.45,-0.96 -23.43,-0.96l-27.33 0 0 71.7 32.34 0c8.96,0 15.51,-0.51 19.74,-1.58 4.19,-1.02 8.57,-3.17 13.05,-6.46 4.34,-3.17 7.44,-7.36 9.26,-12.52 1.82,-5.15 2.71,-11.49 2.71,-19.08zm10.04 111.69c0,-9.23 -1.13,-16.82 -3.44,-22.83 -2.32,-6 -6.95,-11.1 -13.94,-15.23 -4.53,-2.78 -9.45,-4.53 -14.77,-5.33 -5.32,-0.73 -12.85,-1.13 -22.65,-1.13l-32.34 0 0 90.73 23.14 0c12.45,0 22.3,-0.68 29.49,-1.98 7.19,-1.3 13.53,-4.13 19,-8.38 5.36,-4.31 9.26,-9.18 11.77,-14.61 2.5,-5.44 3.74,-12.52 3.74,-21.24z"/>
   <path id="_9" class="fil2" d="M2088.91 2124.05l72.46 -247.06 35.26 0 72.47 247.06 -30.23 0 -19.4 -68.65 -82.22 0 -19.35 68.65 -28.99 0zm122.49 -97.19l-33.08 -116 -32.99 116 66.07 0z"/>
   <path id="_10" class="fil2" d="M2444.05 1951.47c0,10.76 -1.67,20.9 -4.97,30.47 -3.3,9.58 -7.87,17.73 -13.69,24.47 -7.38,8.38 -16.05,14.78 -26.04,19.09 -9.95,4.3 -22.55,6.46 -37.81,6.46l-24.13 0 0 92.09 -28.65 0 0 -247.06 53.81 0c12.71,0 23.49,1.19 32.4,3.63 8.91,2.43 16.78,6.4 23.63,11.78 7.93,6.34 14.18,14.33 18.71,24.01 4.47,9.69 6.74,21.36 6.74,35.06zm-29.83 0.8c0,-8.44 -1.29,-15.81 -3.79,-22.04 -2.56,-6.28 -6.41,-11.38 -11.53,-15.29 -4.52,-3.45 -9.74,-5.83 -15.7,-7.25 -5.96,-1.41 -13.39,-2.15 -22.3,-2.15l-23.49 0 0 97.87 19.35 0c11.48,0 20.73,-1.08 27.82,-3.23 7.04,-2.09 12.9,-5.95 17.63,-11.38 4.18,-4.99 7.23,-10.31 9.15,-16.14 1.92,-5.84 2.86,-12.63 2.86,-20.39z"/>
   <polygon id="_11" class="fil2" points="2645.21,2124.05 2616.56,2124.05 2616.56,1927.91 2520.1,2124.05 2491.01,2124.05 2491.01,1876.99 2519.66,1876.99 2519.66,2069.96 2614.83,1876.99 2645.21,1876.99 "/>
   <path id="_12" class="fil2" d="M2792.15 2128.47c-14.03,0 -26.98,-2.72 -38.74,-8.1 -11.77,-5.44 -21.96,-13.54 -30.53,-24.24 -8.56,-10.71 -15.21,-24.13 -19.89,-40.16 -4.73,-16.03 -7.09,-34.44 -7.09,-55.22 0,-20.67 2.27,-38.69 6.85,-54.03 4.57,-15.35 11.22,-28.78 19.98,-40.16 8.57,-11.05 18.72,-19.48 30.48,-25.26 11.72,-5.84 24.86,-8.72 39.38,-8.72 7.19,0 13.99,0.62 20.29,1.81 6.3,1.24 12.11,2.77 17.53,4.64 4.58,1.65 9.35,3.74 14.17,6.23 4.88,2.49 9.65,5.21 14.38,8.22l0 39.59 -2.31 0c-2.51,-2.61 -5.71,-5.78 -9.65,-9.46 -3.94,-3.68 -8.76,-7.31 -14.43,-10.93 -5.46,-3.35 -11.42,-6.12 -17.87,-8.27 -6.45,-2.21 -13.88,-3.29 -22.35,-3.29 -9.11,0 -17.77,2.15 -25.95,6.46 -8.17,4.3 -15.36,10.65 -21.46,18.97 -6.06,8.38 -10.78,18.92 -14.13,31.61 -3.4,12.63 -5.07,26.9 -5.07,42.76 0,16.88 1.77,31.38 5.31,43.55 3.6,12.18 8.43,22.43 14.58,30.81 5.95,8.16 12.99,14.33 21.07,18.47 8.08,4.13 16.64,6.17 25.65,6.17 8.27,0 15.9,-1.13 22.94,-3.45 7,-2.33 13.25,-5.27 18.72,-8.78 5.31,-3.46 9.84,-6.97 13.73,-10.54 3.83,-3.56 6.84,-6.62 9.06,-9.17l2.16 0 0 39.19c-4.73,2.55 -9.15,4.99 -13.34,7.36 -4.18,2.33 -9.26,4.59 -15.21,6.8 -6.25,2.32 -12.07,4.08 -17.43,5.33 -5.32,1.18 -12.26,1.81 -20.83,1.81z"/>
   <polygon id="_13" class="fil2" points="2955.34,2124.05 2955.34,1906.22 2883.27,1906.22 2883.27,1876.99 3056.07,1876.99 3056.07,1906.22 2983.99,1906.22 2983.99,2124.05 "/>
   <path id="_14" class="fil2" d="M3242.65 2048.15c0,12.3 -2.02,23.17 -6.05,32.57 -4.05,9.4 -9.46,17.16 -16.3,23.22 -8.08,7.31 -16.74,12.52 -25.95,15.52 -9.26,3.06 -21.16,4.59 -35.74,4.59l-61.59 0 0 -247.06 56.96 0c15.31,0 26.79,0.57 34.42,1.76 7.63,1.13 14.97,3.85 22.01,8.16 7.67,4.75 13.29,10.98 16.88,18.69 3.54,7.64 5.32,16.7 5.32,27.07 0,11.61 -2.66,21.97 -7.98,31.15 -5.37,9.18 -12.75,16.37 -22.15,21.58l0 1.36c12.75,3.96 22.64,11.27 29.68,21.8 6.99,10.6 10.49,23.79 10.49,39.59zm-39.88 -110.55c0,-5.89 -0.88,-11.05 -2.61,-15.35 -1.72,-4.36 -4.48,-7.76 -8.32,-10.31 -4.57,-2.95 -9.74,-4.76 -15.4,-5.44 -5.67,-0.62 -13.45,-0.96 -23.44,-0.96l-27.33 0 0 71.7 32.35 0c8.96,0 15.5,-0.51 19.74,-1.58 4.19,-1.02 8.57,-3.17 13.05,-6.46 4.33,-3.17 7.44,-7.36 9.25,-12.52 1.83,-5.15 2.71,-11.49 2.71,-19.08zm10.04 111.69c0,-9.23 -1.13,-16.82 -3.44,-22.83 -2.32,-6 -6.94,-11.1 -13.93,-15.23 -4.53,-2.78 -9.46,-4.53 -14.77,-5.33 -5.32,-0.73 -12.86,-1.13 -22.65,-1.13l-32.35 0 0 90.73 23.14 0c12.46,0 22.31,-0.68 29.5,-1.98 7.18,-1.3 13.53,-4.13 19,-8.38 5.36,-4.31 9.25,-9.18 11.77,-14.61 2.5,-5.44 3.73,-12.52 3.73,-21.24z"/>
   <path id="_15" class="fil2" d="M3267.15 2124.05l72.47 -247.06 35.26 0 72.47 247.06 -30.24 0 -19.39 -68.65 -82.22 0 -19.35 68.65 -29 0zm122.5 -97.19l-33.09 -116 -32.99 116 66.08 0z"/>
   <path id="_16" class="fil2" d="M3594.24 1865.78l-37.66 92.77 -19.35 0 22.64 -92.77 34.37 0zm-56.72 0l-37.66 92.77 -19.35 0 22.64 -92.77 34.37 0z"/>
   <path id="_17" class="fil3 str4" d="M1581.21 1548.38l-19.35 0 -37.66 -92.77 34.37 0 22.64 92.77zm-56.71 0l-19.35 0 -37.66 -92.77 34.36 0 22.65 92.77z"/>
   <polygon id="_18" class="fil3 str4" points="1792.12,1713.88 1763.46,1713.88 1763.46,1592.9 1665.1,1592.9 1665.1,1713.88 1636.45,1713.88 1636.45,1466.82 1665.1,1466.82 1665.1,1563.68 1763.46,1563.68 1763.46,1466.82 1792.12,1466.82 "/>
   <path id="_19" class="fil3 str4" d="M1831.98 1713.88l72.47 -247.06 35.26 0 72.47 247.06 -30.24 0 -19.39 -68.65 -82.22 0 -19.35 68.65 -29 0zm122.5 -97.19l-33.09 -116 -32.99 116 66.08 0z"/>
   <path id="_20" class="fil3 str4" d="M2162.81 1594.77c4.82,4.7 8.81,10.65 11.96,17.78 3.1,7.14 4.68,16.37 4.68,27.64 0,11.05 -1.92,21.3 -5.76,30.76 -3.84,9.46 -9.16,17.73 -15.91,24.81 -6.89,7.3 -15.45,12.85 -25.65,16.76 -10.24,3.85 -21.55,5.78 -34.06,5.78 -13.39,0 -25.65,-1.53 -36.82,-4.59 -11.13,-3 -20.09,-6.17 -26.84,-9.52l0 -36.87 2.02 0c7.68,5.89 17.04,11.16 28.01,15.64 10.98,4.53 22.01,6.79 33.04,6.79 7.04,0 13.98,-1.07 20.97,-3.23 6.95,-2.15 12.8,-5.66 17.48,-10.53 4.72,-4.87 8.17,-10.2 10.39,-15.92 2.22,-5.66 3.29,-12.85 3.29,-21.46 0,-8.44 -1.33,-15.52 -3.93,-21.3 -2.66,-5.72 -6.4,-10.36 -11.18,-13.93 -4.72,-3.57 -10.34,-6.06 -16.94,-7.53 -6.59,-1.53 -13.58,-2.27 -21.12,-2.27l-22.45 0 0 -27.53 19.5 0c15.11,0 27.27,-3.51 36.43,-10.47 9.21,-6.97 13.78,-17.17 13.78,-30.59 0,-6.06 -1.13,-11.33 -3.39,-15.69 -2.21,-4.36 -5.41,-7.93 -9.5,-10.7 -4.54,-3 -9.26,-5.04 -14.18,-6.06 -4.92,-1.08 -10.29,-1.59 -16.15,-1.59 -6.11,0 -12.11,0.79 -18.07,2.44 -5.91,1.58 -11.52,3.57 -16.78,5.94 -4.98,2.33 -9.36,4.76 -13.05,7.37 -3.75,2.55 -6.8,4.64 -9.21,6.34l-1.87 0 0 -36.36c6.55,-3.57 15.41,-6.8 26.68,-9.8 11.22,-3 22.36,-4.47 33.29,-4.47 11.07,0 20.57,1.07 28.55,3.22 7.97,2.16 15.26,5.67 21.91,10.54 7.18,5.44 12.6,11.78 16.2,19.14 3.59,7.37 5.41,16.14 5.41,26.28 0,13.37 -3.89,25.04 -11.62,35.01 -7.73,9.96 -17.82,16.48 -30.33,19.59l0 2.44c4.83,1.02 10.05,2.77 15.71,5.32 5.62,2.55 10.78,6.18 15.51,10.82z"/>
   <path id="_21" class="fil3 str4" d="M2374.2 1637.98c0,12.3 -2.02,23.17 -6.05,32.57 -4.04,9.4 -9.46,17.16 -16.3,23.22 -8.07,7.31 -16.74,12.52 -25.94,15.52 -9.26,3.06 -21.17,4.59 -35.75,4.59l-61.58 0 0 -247.06 56.96 0c15.3,0 26.78,0.57 34.41,1.76 7.63,1.13 14.97,3.85 22.01,8.16 7.68,4.75 13.29,10.98 16.88,18.69 3.55,7.64 5.32,16.7 5.32,27.07 0,11.61 -2.66,21.97 -7.98,31.15 -5.36,9.18 -12.75,16.37 -22.15,21.58l0 1.36c12.75,3.96 22.65,11.27 29.69,21.8 6.99,10.6 10.48,23.79 10.48,39.59zm-39.87 -110.55c0,-5.89 -0.89,-11.05 -2.62,-15.35 -1.72,-4.36 -4.47,-7.76 -8.32,-10.31 -4.57,-2.95 -9.74,-4.76 -15.4,-5.44 -5.67,-0.62 -13.45,-0.96 -23.43,-0.96l-27.33 0 0 71.7 32.34 0c8.96,0 15.51,-0.51 19.74,-1.58 4.19,-1.02 8.57,-3.17 13.05,-6.46 4.34,-3.17 7.44,-7.36 9.26,-12.52 1.82,-5.15 2.71,-11.49 2.71,-19.08zm10.04 111.69c0,-9.23 -1.13,-16.82 -3.44,-22.83 -2.33,-6 -6.95,-11.1 -13.94,-15.23 -4.53,-2.78 -9.46,-4.53 -14.77,-5.33 -5.32,-0.73 -12.85,-1.13 -22.65,-1.13l-32.34 0 0 90.73 23.14 0c12.45,0 22.3,-0.68 29.49,-1.98 7.19,-1.3 13.53,-4.13 19,-8.38 5.36,-4.31 9.26,-9.18 11.77,-14.61 2.5,-5.44 3.74,-12.52 3.74,-21.24z"/>
   <path id="_22" class="fil3 str4" d="M2398.7 1713.88l72.47 -247.06 35.26 0 72.47 247.06 -30.23 0 -19.4 -68.65 -82.22 0 -19.35 68.65 -29 0zm122.5 -97.19l-33.08 -116 -32.99 116 66.07 0z"/>
   <polygon id="_23" class="fil3 str4" points="1548.72,2124.05 1548.72,1906.22 1476.64,1906.22 1476.64,1876.99 1649.45,1876.99 1649.45,1906.22 1577.37,1906.22 1577.37,2124.05 "/>
   <path id="_24" class="fil3 str4" d="M1842.38 1905.43c8.17,10.81 14.52,24.24 19.05,40.27 4.53,16.02 6.8,34.32 6.8,54.88 0,20.05 -2.22,38.12 -6.65,54.26 -4.43,16.14 -10.83,29.68 -19.2,40.66 -8.76,11.5 -19,19.94 -30.72,25.43 -11.67,5.5 -24.57,8.22 -38.6,8.22 -14.57,0 -27.67,-2.83 -39.29,-8.44 -11.67,-5.67 -21.71,-14.05 -30.08,-25.21 -8.28,-10.98 -14.62,-24.46 -19.05,-40.49 -4.44,-16.03 -6.65,-34.16 -6.65,-54.43 0,-20.79 2.21,-39.03 6.7,-54.71 4.48,-15.69 10.87,-29.17 19.15,-40.44 8.26,-10.99 18.26,-19.32 29.98,-24.98 11.72,-5.72 24.76,-8.55 39.24,-8.55 14.62,0 27.81,2.94 39.53,8.78 11.77,5.89 21.71,14.1 29.79,24.75zm-3.99 95.15c0,-16.31 -1.52,-30.76 -4.63,-43.33 -3.05,-12.63 -7.38,-23.05 -12.95,-31.32 -5.71,-8.5 -12.55,-14.84 -20.57,-19.09 -8.03,-4.25 -17.04,-6.4 -27.04,-6.4 -10.38,0 -19.49,2.1 -27.22,6.23 -7.73,4.14 -14.57,10.54 -20.58,19.26 -5.66,8.38 -9.99,18.92 -13.04,31.6 -3.01,12.75 -4.53,27.08 -4.53,43.05 0,32.34 5.9,57.09 17.72,74.25 11.87,17.16 27.71,25.77 47.65,25.77 19.89,0 35.75,-8.61 47.52,-25.77 11.77,-17.16 17.67,-41.91 17.67,-74.25z"/>
   <path id="_25" class="fil3 str4" d="M2064.4 2048.15c0,12.3 -2.02,23.17 -6.05,32.57 -4.04,9.4 -9.46,17.16 -16.3,23.22 -8.07,7.31 -16.74,12.52 -25.94,15.52 -9.26,3.06 -21.17,4.59 -35.75,4.59l-61.58 0 0 -247.06 56.96 0c15.31,0 26.78,0.57 34.41,1.76 7.63,1.13 14.97,3.85 22.01,8.16 7.68,4.75 13.29,10.98 16.88,18.69 3.55,7.64 5.32,16.7 5.32,27.07 0,11.61 -2.66,21.97 -7.98,31.15 -5.36,9.18 -12.75,16.37 -22.15,21.58l0 1.36c12.76,3.96 22.65,11.27 29.69,21.8 6.99,10.6 10.48,23.79 10.48,39.59zm-39.87 -110.55c0,-5.89 -0.89,-11.05 -2.62,-15.35 -1.72,-4.36 -4.47,-7.76 -8.32,-10.31 -4.57,-2.95 -9.74,-4.76 -15.4,-5.44 -5.67,-0.62 -13.45,-0.96 -23.43,-0.96l-27.33 0 0 71.7 32.34 0c8.96,0 15.51,-0.51 19.74,-1.58 4.19,-1.02 8.57,-3.17 13.05,-6.46 4.34,-3.17 7.44,-7.36 9.26,-12.52 1.82,-5.15 2.71,-11.49 2.71,-19.08zm10.04 111.69c0,-9.23 -1.13,-16.82 -3.44,-22.83 -2.32,-6 -6.95,-11.1 -13.94,-15.23 -4.53,-2.78 -9.45,-4.53 -14.77,-5.33 -5.32,-0.73 -12.85,-1.13 -22.65,-1.13l-32.34 0 0 90.73 23.14 0c12.45,0 22.3,-0.68 29.49,-1.98 7.19,-1.3 13.53,-4.13 19,-8.38 5.36,-4.31 9.26,-9.18 11.77,-14.61 2.5,-5.44 3.74,-12.52 3.74,-21.24z"/>
   <path id="_26" class="fil3 str4" d="M2088.91 2124.05l72.46 -247.06 35.26 0 72.47 247.06 -30.23 0 -19.4 -68.65 -82.22 0 -19.35 68.65 -28.99 0zm122.49 -97.19l-33.08 -116 -32.99 116 66.07 0z"/>
   <path id="_27" class="fil3 str4" d="M2444.05 1951.47c0,10.76 -1.67,20.9 -4.97,30.47 -3.3,9.58 -7.87,17.73 -13.69,24.47 -7.38,8.38 -16.05,14.78 -26.04,19.09 -9.95,4.3 -22.55,6.46 -37.81,6.46l-24.13 0 0 92.09 -28.65 0 0 -247.06 53.81 0c12.71,0 23.49,1.19 32.4,3.63 8.91,2.43 16.78,6.4 23.63,11.78 7.93,6.34 14.18,14.33 18.71,24.01 4.47,9.69 6.74,21.36 6.74,35.06zm-29.83 0.8c0,-8.44 -1.29,-15.81 -3.79,-22.04 -2.56,-6.28 -6.41,-11.38 -11.53,-15.29 -4.52,-3.45 -9.74,-5.83 -15.7,-7.25 -5.96,-1.41 -13.39,-2.15 -22.3,-2.15l-23.49 0 0 97.87 19.35 0c11.48,0 20.73,-1.08 27.82,-3.23 7.04,-2.09 12.9,-5.95 17.63,-11.38 4.18,-4.99 7.23,-10.31 9.15,-16.14 1.92,-5.84 2.86,-12.63 2.86,-20.39z"/>
   <polygon id="_28" class="fil3 str4" points="2645.21,2124.05 2616.56,2124.05 2616.56,1927.91 2520.1,2124.05 2491.01,2124.05 2491.01,1876.99 2519.66,1876.99 2519.66,2069.96 2614.83,1876.99 2645.21,1876.99 "/>
   <path id="_29" class="fil3 str4" d="M2792.15 2128.47c-14.03,0 -26.98,-2.72 -38.74,-8.1 -11.77,-5.44 -21.96,-13.54 -30.53,-24.24 -8.56,-10.71 -15.21,-24.13 -19.89,-40.16 -4.73,-16.03 -7.09,-34.44 -7.09,-55.22 0,-20.67 2.27,-38.69 6.85,-54.03 4.57,-15.35 11.22,-28.78 19.98,-40.16 8.57,-11.05 18.72,-19.48 30.48,-25.26 11.72,-5.84 24.86,-8.72 39.38,-8.72 7.19,0 13.99,0.62 20.29,1.81 6.3,1.24 12.11,2.77 17.53,4.64 4.58,1.65 9.35,3.74 14.17,6.23 4.88,2.49 9.65,5.21 14.38,8.22l0 39.59 -2.31 0c-2.51,-2.61 -5.71,-5.78 -9.65,-9.46 -3.94,-3.68 -8.76,-7.31 -14.43,-10.93 -5.46,-3.35 -11.42,-6.12 -17.87,-8.27 -6.45,-2.21 -13.88,-3.29 -22.35,-3.29 -9.11,0 -17.77,2.15 -25.95,6.46 -8.17,4.3 -15.36,10.65 -21.46,18.97 -6.06,8.38 -10.78,18.92 -14.13,31.61 -3.4,12.63 -5.07,26.9 -5.07,42.76 0,16.88 1.77,31.38 5.31,43.55 3.6,12.18 8.43,22.43 14.58,30.81 5.95,8.16 12.99,14.33 21.07,18.47 8.08,4.13 16.64,6.17 25.65,6.17 8.27,0 15.9,-1.13 22.94,-3.45 7,-2.33 13.25,-5.27 18.72,-8.78 5.31,-3.46 9.84,-6.97 13.73,-10.54 3.83,-3.56 6.84,-6.62 9.06,-9.17l2.16 0 0 39.19c-4.73,2.55 -9.15,4.99 -13.34,7.36 -4.18,2.33 -9.26,4.59 -15.21,6.8 -6.25,2.32 -12.07,4.08 -17.43,5.33 -5.32,1.18 -12.26,1.81 -20.83,1.81z"/>
   <polygon id="_30" class="fil3 str4" points="2955.34,2124.05 2955.34,1906.22 2883.27,1906.22 2883.27,1876.99 3056.07,1876.99 3056.07,1906.22 2983.99,1906.22 2983.99,2124.05 "/>
   <path id="_31" class="fil3 str4" d="M3242.65 2048.15c0,12.3 -2.02,23.17 -6.05,32.57 -4.05,9.4 -9.46,17.16 -16.3,23.22 -8.08,7.31 -16.74,12.52 -25.95,15.52 -9.26,3.06 -21.16,4.59 -35.74,4.59l-61.59 0 0 -247.06 56.96 0c15.31,0 26.79,0.57 34.42,1.76 7.63,1.13 14.97,3.85 22.01,8.16 7.67,4.75 13.29,10.98 16.88,18.69 3.54,7.64 5.32,16.7 5.32,27.07 0,11.61 -2.66,21.97 -7.98,31.15 -5.37,9.18 -12.75,16.37 -22.15,21.58l0 1.36c12.75,3.96 22.64,11.27 29.68,21.8 6.99,10.6 10.49,23.79 10.49,39.59zm-39.88 -110.55c0,-5.89 -0.88,-11.05 -2.61,-15.35 -1.72,-4.36 -4.48,-7.76 -8.32,-10.31 -4.57,-2.95 -9.74,-4.76 -15.4,-5.44 -5.67,-0.62 -13.45,-0.96 -23.44,-0.96l-27.33 0 0 71.7 32.35 0c8.96,0 15.5,-0.51 19.74,-1.58 4.19,-1.02 8.57,-3.17 13.05,-6.46 4.33,-3.17 7.44,-7.36 9.25,-12.52 1.83,-5.15 2.71,-11.49 2.71,-19.08zm10.04 111.69c0,-9.23 -1.13,-16.82 -3.44,-22.83 -2.32,-6 -6.94,-11.1 -13.93,-15.23 -4.53,-2.78 -9.46,-4.53 -14.77,-5.33 -5.32,-0.73 -12.86,-1.13 -22.65,-1.13l-32.35 0 0 90.73 23.14 0c12.46,0 22.31,-0.68 29.5,-1.98 7.18,-1.3 13.53,-4.13 19,-8.38 5.36,-4.31 9.25,-9.18 11.77,-14.61 2.5,-5.44 3.73,-12.52 3.73,-21.24z"/>
   <path id="_32" class="fil3 str4" d="M3267.15 2124.05l72.47 -247.06 35.26 0 72.47 247.06 -30.24 0 -19.39 -68.65 -82.22 0 -19.35 68.65 -29 0zm122.5 -97.19l-33.09 -116 -32.99 116 66.08 0z"/>
   <path id="_33" class="fil3 str4" d="M3594.24 1865.78l-37.66 92.77 -19.35 0 22.64 -92.77 34.37 0zm-56.72 0l-37.66 92.77 -19.35 0 22.64 -92.77 34.37 0z"/>
   <path class="fil2" d="M1729.52 3121.85c0,36.83 -5.36,63.88 -16.04,81.14 -10.72,17.22 -27.23,25.82 -49.57,25.82 -22.63,0 -39.18,-8.79 -49.77,-26.34 -10.58,-17.54 -15.85,-44.31 -15.85,-80.34 0,-37.01 5.36,-64.11 16.04,-81.23 10.72,-17.17 27.23,-25.73 49.58,-25.73 22.62,0 39.18,8.89 49.76,26.63 10.59,17.73 15.85,44.4 15.85,80.05zm-35.27 62.51c2.68,-6.82 4.56,-15.38 5.69,-25.77 1.08,-10.35 1.64,-22.58 1.64,-36.74 0,-14.02 -0.56,-26.24 -1.64,-36.59 -1.13,-10.4 -3.06,-19.01 -5.79,-25.87 -2.77,-7.01 -6.58,-12.28 -11.38,-15.9 -4.85,-3.62 -11.15,-5.46 -18.86,-5.46 -7.62,0 -13.93,1.84 -18.82,5.46 -4.94,3.62 -8.84,8.98 -11.66,16.13 -2.78,7.01 -4.66,15.81 -5.69,26.44 -0.99,10.67 -1.51,22.67 -1.51,36.07 0,14.3 0.42,26.3 1.32,35.94 0.84,9.6 2.77,18.25 5.74,25.87 2.63,7.06 6.44,12.51 11.38,16.32 4.89,3.81 11.34,5.69 19.24,5.69 7.62,0 13.92,-1.83 18.86,-5.45 4.89,-3.62 8.75,-8.99 11.48,-16.14z"/>
   <path id="_1_6" class="fil2" d="M1929.43 3121.85c0,36.83 -5.36,63.88 -16.04,81.14 -10.72,17.22 -27.23,25.82 -49.57,25.82 -22.63,0 -39.18,-8.79 -49.77,-26.34 -10.58,-17.54 -15.85,-44.31 -15.85,-80.34 0,-37.01 5.36,-64.11 16.04,-81.23 10.72,-17.17 27.23,-25.73 49.58,-25.73 22.62,0 39.18,8.89 49.76,26.63 10.59,17.73 15.85,44.4 15.85,80.05zm-35.27 62.51c2.68,-6.82 4.56,-15.38 5.69,-25.77 1.08,-10.35 1.64,-22.58 1.64,-36.74 0,-14.02 -0.56,-26.24 -1.64,-36.59 -1.13,-10.4 -3.06,-19.01 -5.79,-25.87 -2.77,-7.01 -6.58,-12.28 -11.38,-15.9 -4.85,-3.62 -11.15,-5.46 -18.86,-5.46 -7.62,0 -13.93,1.84 -18.82,5.46 -4.94,3.62 -8.84,8.98 -11.66,16.13 -2.78,7.01 -4.66,15.81 -5.69,26.44 -0.99,10.67 -1.51,22.67 -1.51,36.07 0,14.3 0.42,26.3 1.32,35.94 0.84,9.6 2.77,18.25 5.74,25.87 2.63,7.06 6.44,12.51 11.38,16.32 4.89,3.81 11.34,5.69 19.24,5.69 7.62,0 13.92,-1.83 18.86,-5.45 4.89,-3.62 8.75,-8.99 11.48,-16.14z"/>
   <path id="_2_7" class="fil2" d="M2129.34 3121.85c0,36.83 -5.36,63.88 -16.04,81.14 -10.72,17.22 -27.23,25.82 -49.57,25.82 -22.63,0 -39.18,-8.79 -49.77,-26.34 -10.58,-17.54 -15.85,-44.31 -15.85,-80.34 0,-37.01 5.36,-64.11 16.04,-81.23 10.72,-17.17 27.23,-25.73 49.58,-25.73 22.62,0 39.18,8.89 49.76,26.63 10.59,17.73 15.85,44.4 15.85,80.05zm-35.27 62.51c2.68,-6.82 4.56,-15.38 5.69,-25.77 1.08,-10.35 1.64,-22.58 1.64,-36.74 0,-14.02 -0.56,-26.24 -1.64,-36.59 -1.13,-10.4 -3.06,-19.01 -5.79,-25.87 -2.77,-7.01 -6.58,-12.28 -11.38,-15.9 -4.85,-3.62 -11.15,-5.46 -18.86,-5.46 -7.62,0 -13.93,1.84 -18.82,5.46 -4.94,3.62 -8.84,8.98 -11.66,16.13 -2.78,7.01 -4.66,15.81 -5.69,26.44 -0.99,10.67 -1.51,22.67 -1.51,36.07 0,14.3 0.42,26.3 1.32,35.94 0.84,9.6 2.77,18.25 5.74,25.87 2.63,7.06 6.44,12.51 11.38,16.32 4.89,3.81 11.34,5.69 19.24,5.69 7.62,0 13.92,-1.83 18.86,-5.45 4.89,-3.62 8.75,-8.99 11.48,-16.14z"/>
   <path id="_3_8" class="fil2" d="M2329.25 3121.85c0,36.83 -5.36,63.88 -16.04,81.14 -10.72,17.22 -27.23,25.82 -49.57,25.82 -22.63,0 -39.18,-8.79 -49.77,-26.34 -10.58,-17.54 -15.85,-44.31 -15.85,-80.34 0,-37.01 5.36,-64.11 16.04,-81.23 10.72,-17.17 27.23,-25.73 49.58,-25.73 22.62,0 39.18,8.89 49.76,26.63 10.59,17.73 15.85,44.4 15.85,80.05zm-35.27 62.51c2.68,-6.82 4.56,-15.38 5.69,-25.77 1.08,-10.35 1.64,-22.58 1.64,-36.74 0,-14.02 -0.56,-26.24 -1.64,-36.59 -1.13,-10.4 -3.06,-19.01 -5.79,-25.87 -2.77,-7.01 -6.58,-12.28 -11.38,-15.9 -4.85,-3.62 -11.15,-5.46 -18.86,-5.46 -7.62,0 -13.93,1.84 -18.82,5.46 -4.94,3.62 -8.84,8.98 -11.66,16.13 -2.78,7.01 -4.66,15.81 -5.69,26.44 -0.99,10.67 -1.51,22.67 -1.51,36.07 0,14.3 0.42,26.3 1.32,35.94 0.84,9.6 2.77,18.25 5.74,25.87 2.63,7.06 6.44,12.51 11.38,16.32 4.89,3.81 11.34,5.69 19.24,5.69 7.62,0 13.92,-1.83 18.86,-5.45 4.89,-3.62 8.75,-8.99 11.48,-16.14z"/>
   <path id="_4_9" class="fil2" d="M2529.16 3121.85c0,36.83 -5.36,63.88 -16.04,81.14 -10.72,17.22 -27.23,25.82 -49.57,25.82 -22.63,0 -39.18,-8.79 -49.77,-26.34 -10.58,-17.54 -15.85,-44.31 -15.85,-80.34 0,-37.01 5.36,-64.11 16.04,-81.23 10.72,-17.17 27.23,-25.73 49.58,-25.73 22.62,0 39.18,8.89 49.76,26.63 10.59,17.73 15.85,44.4 15.85,80.05zm-35.27 62.51c2.68,-6.82 4.56,-15.38 5.69,-25.77 1.08,-10.35 1.64,-22.58 1.64,-36.74 0,-14.02 -0.56,-26.24 -1.64,-36.59 -1.13,-10.4 -3.06,-19.01 -5.79,-25.87 -2.77,-7.01 -6.58,-12.28 -11.38,-15.9 -4.85,-3.62 -11.15,-5.46 -18.86,-5.46 -7.62,0 -13.93,1.84 -18.82,5.46 -4.94,3.62 -8.84,8.98 -11.66,16.13 -2.78,7.01 -4.66,15.81 -5.69,26.44 -0.99,10.67 -1.51,22.67 -1.51,36.07 0,14.3 0.42,26.3 1.32,35.94 0.84,9.6 2.77,18.25 5.74,25.87 2.63,7.06 6.44,12.51 11.38,16.32 4.89,3.81 11.34,5.69 19.24,5.69 7.62,0 13.92,-1.83 18.86,-5.45 4.89,-3.62 8.75,-8.99 11.48,-16.14z"/>
   <path id="_5_10" class="fil2" d="M2729.07 3121.85c0,36.83 -5.36,63.88 -16.04,81.14 -10.72,17.22 -27.23,25.82 -49.57,25.82 -22.63,0 -39.18,-8.79 -49.77,-26.34 -10.58,-17.54 -15.85,-44.31 -15.85,-80.34 0,-37.01 5.36,-64.11 16.04,-81.23 10.72,-17.17 27.23,-25.73 49.58,-25.73 22.62,0 39.18,8.89 49.76,26.63 10.59,17.73 15.85,44.4 15.85,80.05zm-35.27 62.51c2.68,-6.82 4.56,-15.38 5.69,-25.77 1.08,-10.35 1.64,-22.58 1.64,-36.74 0,-14.02 -0.56,-26.24 -1.64,-36.59 -1.13,-10.4 -3.06,-19.01 -5.79,-25.87 -2.77,-7.01 -6.58,-12.28 -11.38,-15.9 -4.85,-3.62 -11.15,-5.46 -18.86,-5.46 -7.62,0 -13.93,1.84 -18.82,5.46 -4.94,3.62 -8.84,8.98 -11.66,16.13 -2.78,7.01 -4.66,15.81 -5.69,26.44 -0.99,10.67 -1.51,22.67 -1.51,36.07 0,14.3 0.42,26.3 1.32,35.94 0.84,9.6 2.77,18.25 5.74,25.87 2.63,7.06 6.44,12.51 11.38,16.32 4.89,3.81 11.34,5.69 19.24,5.69 7.62,0 13.92,-1.83 18.86,-5.45 4.89,-3.62 8.75,-8.99 11.48,-16.14z"/>
   <path id="_6_11" class="fil2" d="M2928.98 3121.85c0,36.83 -5.36,63.88 -16.04,81.14 -10.72,17.22 -27.23,25.82 -49.57,25.82 -22.63,0 -39.18,-8.79 -49.77,-26.34 -10.58,-17.54 -15.85,-44.31 -15.85,-80.34 0,-37.01 5.36,-64.11 16.04,-81.23 10.72,-17.17 27.23,-25.73 49.58,-25.73 22.62,0 39.18,8.89 49.76,26.63 10.59,17.73 15.85,44.4 15.85,80.05zm-35.27 62.51c2.68,-6.82 4.56,-15.38 5.69,-25.77 1.08,-10.35 1.64,-22.58 1.64,-36.74 0,-14.02 -0.56,-26.24 -1.64,-36.59 -1.13,-10.4 -3.06,-19.01 -5.79,-25.87 -2.77,-7.01 -6.58,-12.28 -11.38,-15.9 -4.85,-3.62 -11.15,-5.46 -18.86,-5.46 -7.62,0 -13.93,1.84 -18.82,5.46 -4.94,3.62 -8.84,8.98 -11.66,16.13 -2.78,7.01 -4.66,15.81 -5.69,26.44 -0.99,10.67 -1.51,22.67 -1.51,36.07 0,14.3 0.42,26.3 1.32,35.94 0.84,9.6 2.77,18.25 5.74,25.87 2.63,7.06 6.44,12.51 11.38,16.32 4.89,3.81 11.34,5.69 19.24,5.69 7.62,0 13.92,-1.83 18.86,-5.45 4.89,-3.62 8.75,-8.99 11.48,-16.14z"/>
   <path id="_7_12" class="fil2" d="M3128.89 3121.85c0,36.83 -5.36,63.88 -16.04,81.14 -10.72,17.22 -27.23,25.82 -49.57,25.82 -22.63,0 -39.18,-8.79 -49.77,-26.34 -10.58,-17.54 -15.85,-44.31 -15.85,-80.34 0,-37.01 5.36,-64.11 16.04,-81.23 10.72,-17.17 27.23,-25.73 49.58,-25.73 22.62,0 39.18,8.89 49.76,26.63 10.59,17.73 15.85,44.4 15.85,80.05zm-35.27 62.51c2.68,-6.82 4.56,-15.38 5.69,-25.77 1.08,-10.35 1.64,-22.58 1.64,-36.74 0,-14.02 -0.56,-26.24 -1.64,-36.59 -1.13,-10.4 -3.06,-19.01 -5.79,-25.87 -2.77,-7.01 -6.58,-12.28 -11.38,-15.9 -4.85,-3.62 -11.15,-5.46 -18.86,-5.46 -7.62,0 -13.93,1.84 -18.82,5.46 -4.94,3.62 -8.84,8.98 -11.66,16.13 -2.78,7.01 -4.66,15.81 -5.69,26.44 -0.99,10.67 -1.51,22.67 -1.51,36.07 0,14.3 0.42,26.3 1.32,35.94 0.84,9.6 2.77,18.25 5.74,25.87 2.63,7.06 6.44,12.51 11.38,16.32 4.89,3.81 11.34,5.69 19.24,5.69 7.62,0 13.92,-1.83 18.86,-5.45 4.89,-3.62 8.75,-8.99 11.48,-16.14z"/>
   <path id="_8_13" class="fil3 str4" d="M1729.52 3121.85c0,36.83 -5.36,63.88 -16.04,81.14 -10.72,17.22 -27.23,25.82 -49.57,25.82 -22.63,0 -39.18,-8.79 -49.77,-26.34 -10.58,-17.54 -15.85,-44.31 -15.85,-80.34 0,-37.01 5.36,-64.11 16.04,-81.23 10.72,-17.17 27.23,-25.73 49.58,-25.73 22.62,0 39.18,8.89 49.76,26.63 10.59,17.73 15.85,44.4 15.85,80.05zm-35.27 62.51c2.68,-6.82 4.56,-15.38 5.69,-25.77 1.08,-10.35 1.64,-22.58 1.64,-36.74 0,-14.02 -0.56,-26.24 -1.64,-36.59 -1.13,-10.4 -3.06,-19.01 -5.79,-25.87 -2.77,-7.01 -6.58,-12.28 -11.38,-15.9 -4.85,-3.62 -11.15,-5.46 -18.86,-5.46 -7.62,0 -13.93,1.84 -18.82,5.46 -4.94,3.62 -8.84,8.98 -11.66,16.13 -2.78,7.01 -4.66,15.81 -5.69,26.44 -0.99,10.67 -1.51,22.67 -1.51,36.07 0,14.3 0.42,26.3 1.32,35.94 0.84,9.6 2.77,18.25 5.74,25.87 2.63,7.06 6.44,12.51 11.38,16.32 4.89,3.81 11.34,5.69 19.24,5.69 7.62,0 13.92,-1.83 18.86,-5.45 4.89,-3.62 8.75,-8.99 11.48,-16.14z"/>
   <path id="_9_14" class="fil3 str4" d="M1929.43 3121.85c0,36.83 -5.36,63.88 -16.04,81.14 -10.72,17.22 -27.23,25.82 -49.57,25.82 -22.63,0 -39.18,-8.79 -49.77,-26.34 -10.58,-17.54 -15.85,-44.31 -15.85,-80.34 0,-37.01 5.36,-64.11 16.04,-81.23 10.72,-17.17 27.23,-25.73 49.58,-25.73 22.62,0 39.18,8.89 49.76,26.63 10.59,17.73 15.85,44.4 15.85,80.05zm-35.27 62.51c2.68,-6.82 4.56,-15.38 5.69,-25.77 1.08,-10.35 1.64,-22.58 1.64,-36.74 0,-14.02 -0.56,-26.24 -1.64,-36.59 -1.13,-10.4 -3.06,-19.01 -5.79,-25.87 -2.77,-7.01 -6.58,-12.28 -11.38,-15.9 -4.85,-3.62 -11.15,-5.46 -18.86,-5.46 -7.62,0 -13.93,1.84 -18.82,5.46 -4.94,3.62 -8.84,8.98 -11.66,16.13 -2.78,7.01 -4.66,15.81 -5.69,26.44 -0.99,10.67 -1.51,22.67 -1.51,36.07 0,14.3 0.42,26.3 1.32,35.94 0.84,9.6 2.77,18.25 5.74,25.87 2.63,7.06 6.44,12.51 11.38,16.32 4.89,3.81 11.34,5.69 19.24,5.69 7.62,0 13.92,-1.83 18.86,-5.45 4.89,-3.62 8.75,-8.99 11.48,-16.14z"/>
   <path id="_10_15" class="fil3 str4" d="M2129.34 3121.85c0,36.83 -5.36,63.88 -16.04,81.14 -10.72,17.22 -27.23,25.82 -49.57,25.82 -22.63,0 -39.18,-8.79 -49.77,-26.34 -10.58,-17.54 -15.85,-44.31 -15.85,-80.34 0,-37.01 5.36,-64.11 16.04,-81.23 10.72,-17.17 27.23,-25.73 49.58,-25.73 22.62,0 39.18,8.89 49.76,26.63 10.59,17.73 15.85,44.4 15.85,80.05zm-35.27 62.51c2.68,-6.82 4.56,-15.38 5.69,-25.77 1.08,-10.35 1.64,-22.58 1.64,-36.74 0,-14.02 -0.56,-26.24 -1.64,-36.59 -1.13,-10.4 -3.06,-19.01 -5.79,-25.87 -2.77,-7.01 -6.58,-12.28 -11.38,-15.9 -4.85,-3.62 -11.15,-5.46 -18.86,-5.46 -7.62,0 -13.93,1.84 -18.82,5.46 -4.94,3.62 -8.84,8.98 -11.66,16.13 -2.78,7.01 -4.66,15.81 -5.69,26.44 -0.99,10.67 -1.51,22.67 -1.51,36.07 0,14.3 0.42,26.3 1.32,35.94 0.84,9.6 2.77,18.25 5.74,25.87 2.63,7.06 6.44,12.51 11.38,16.32 4.89,3.81 11.34,5.69 19.24,5.69 7.62,0 13.92,-1.83 18.86,-5.45 4.89,-3.62 8.75,-8.99 11.48,-16.14z"/>
   <path id="_11_16" class="fil3 str4" d="M2329.25 3121.85c0,36.83 -5.36,63.88 -16.04,81.14 -10.72,17.22 -27.23,25.82 -49.57,25.82 -22.63,0 -39.18,-8.79 -49.77,-26.34 -10.58,-17.54 -15.85,-44.31 -15.85,-80.34 0,-37.01 5.36,-64.11 16.04,-81.23 10.72,-17.17 27.23,-25.73 49.58,-25.73 22.62,0 39.18,8.89 49.76,26.63 10.59,17.73 15.85,44.4 15.85,80.05zm-35.27 62.51c2.68,-6.82 4.56,-15.38 5.69,-25.77 1.08,-10.35 1.64,-22.58 1.64,-36.74 0,-14.02 -0.56,-26.24 -1.64,-36.59 -1.13,-10.4 -3.06,-19.01 -5.79,-25.87 -2.77,-7.01 -6.58,-12.28 -11.38,-15.9 -4.85,-3.62 -11.15,-5.46 -18.86,-5.46 -7.62,0 -13.93,1.84 -18.82,5.46 -4.94,3.62 -8.84,8.98 -11.66,16.13 -2.78,7.01 -4.66,15.81 -5.69,26.44 -0.99,10.67 -1.51,22.67 -1.51,36.07 0,14.3 0.42,26.3 1.32,35.94 0.84,9.6 2.77,18.25 5.74,25.87 2.63,7.06 6.44,12.51 11.38,16.32 4.89,3.81 11.34,5.69 19.24,5.69 7.62,0 13.92,-1.83 18.86,-5.45 4.89,-3.62 8.75,-8.99 11.48,-16.14z"/>
   <path id="_12_17" class="fil3 str4" d="M2529.16 3121.85c0,36.83 -5.36,63.88 -16.04,81.14 -10.72,17.22 -27.23,25.82 -49.57,25.82 -22.63,0 -39.18,-8.79 -49.77,-26.34 -10.58,-17.54 -15.85,-44.31 -15.85,-80.34 0,-37.01 5.36,-64.11 16.04,-81.23 10.72,-17.17 27.23,-25.73 49.58,-25.73 22.62,0 39.18,8.89 49.76,26.63 10.59,17.73 15.85,44.4 15.85,80.05zm-35.27 62.51c2.68,-6.82 4.56,-15.38 5.69,-25.77 1.08,-10.35 1.64,-22.58 1.64,-36.74 0,-14.02 -0.56,-26.24 -1.64,-36.59 -1.13,-10.4 -3.06,-19.01 -5.79,-25.87 -2.77,-7.01 -6.58,-12.28 -11.38,-15.9 -4.85,-3.62 -11.15,-5.46 -18.86,-5.46 -7.62,0 -13.93,1.84 -18.82,5.46 -4.94,3.62 -8.84,8.98 -11.66,16.13 -2.78,7.01 -4.66,15.81 -5.69,26.44 -0.99,10.67 -1.51,22.67 -1.51,36.07 0,14.3 0.42,26.3 1.32,35.94 0.84,9.6 2.77,18.25 5.74,25.87 2.63,7.06 6.44,12.51 11.38,16.32 4.89,3.81 11.34,5.69 19.24,5.69 7.62,0 13.92,-1.83 18.86,-5.45 4.89,-3.62 8.75,-8.99 11.48,-16.14z"/>
   <path id="_13_18" class="fil3 str4" d="M2729.07 3121.85c0,36.83 -5.36,63.88 -16.04,81.14 -10.72,17.22 -27.23,25.82 -49.57,25.82 -22.63,0 -39.18,-8.79 -49.77,-26.34 -10.58,-17.54 -15.85,-44.31 -15.85,-80.34 0,-37.01 5.36,-64.11 16.04,-81.23 10.72,-17.17 27.23,-25.73 49.58,-25.73 22.62,0 39.18,8.89 49.76,26.63 10.59,17.73 15.85,44.4 15.85,80.05zm-35.27 62.51c2.68,-6.82 4.56,-15.38 5.69,-25.77 1.08,-10.35 1.64,-22.58 1.64,-36.74 0,-14.02 -0.56,-26.24 -1.64,-36.59 -1.13,-10.4 -3.06,-19.01 -5.79,-25.87 -2.77,-7.01 -6.58,-12.28 -11.38,-15.9 -4.85,-3.62 -11.15,-5.46 -18.86,-5.46 -7.62,0 -13.93,1.84 -18.82,5.46 -4.94,3.62 -8.84,8.98 -11.66,16.13 -2.78,7.01 -4.66,15.81 -5.69,26.44 -0.99,10.67 -1.51,22.67 -1.51,36.07 0,14.3 0.42,26.3 1.32,35.94 0.84,9.6 2.77,18.25 5.74,25.87 2.63,7.06 6.44,12.51 11.38,16.32 4.89,3.81 11.34,5.69 19.24,5.69 7.62,0 13.92,-1.83 18.86,-5.45 4.89,-3.62 8.75,-8.99 11.48,-16.14z"/>
   <path id="_14_19" class="fil3 str4" d="M2928.98 3121.85c0,36.83 -5.36,63.88 -16.04,81.14 -10.72,17.22 -27.23,25.82 -49.57,25.82 -22.63,0 -39.18,-8.79 -49.77,-26.34 -10.58,-17.54 -15.85,-44.31 -15.85,-80.34 0,-37.01 5.36,-64.11 16.04,-81.23 10.72,-17.17 27.23,-25.73 49.58,-25.73 22.62,0 39.18,8.89 49.76,26.63 10.59,17.73 15.85,44.4 15.85,80.05zm-35.27 62.51c2.68,-6.82 4.56,-15.38 5.69,-25.77 1.08,-10.35 1.64,-22.58 1.64,-36.74 0,-14.02 -0.56,-26.24 -1.64,-36.59 -1.13,-10.4 -3.06,-19.01 -5.79,-25.87 -2.77,-7.01 -6.58,-12.28 -11.38,-15.9 -4.85,-3.62 -11.15,-5.46 -18.86,-5.46 -7.62,0 -13.93,1.84 -18.82,5.46 -4.94,3.62 -8.84,8.98 -11.66,16.13 -2.78,7.01 -4.66,15.81 -5.69,26.44 -0.99,10.67 -1.51,22.67 -1.51,36.07 0,14.3 0.42,26.3 1.32,35.94 0.84,9.6 2.77,18.25 5.74,25.87 2.63,7.06 6.44,12.51 11.38,16.32 4.89,3.81 11.34,5.69 19.24,5.69 7.62,0 13.92,-1.83 18.86,-5.45 4.89,-3.62 8.75,-8.99 11.48,-16.14z"/>
   <path id="_15_20" class="fil3 str4" d="M3128.89 3121.85c0,36.83 -5.36,63.88 -16.04,81.14 -10.72,17.22 -27.23,25.82 -49.57,25.82 -22.63,0 -39.18,-8.79 -49.77,-26.34 -10.58,-17.54 -15.85,-44.31 -15.85,-80.34 0,-37.01 5.36,-64.11 16.04,-81.23 10.72,-17.17 27.23,-25.73 49.58,-25.73 22.62,0 39.18,8.89 49.76,26.63 10.59,17.73 15.85,44.4 15.85,80.05zm-35.27 62.51c2.68,-6.82 4.56,-15.38 5.69,-25.77 1.08,-10.35 1.64,-22.58 1.64,-36.74 0,-14.02 -0.56,-26.24 -1.64,-36.59 -1.13,-10.4 -3.06,-19.01 -5.79,-25.87 -2.77,-7.01 -6.58,-12.28 -11.38,-15.9 -4.85,-3.62 -11.15,-5.46 -18.86,-5.46 -7.62,0 -13.93,1.84 -18.82,5.46 -4.94,3.62 -8.84,8.98 -11.66,16.13 -2.78,7.01 -4.66,15.81 -5.69,26.44 -0.99,10.67 -1.51,22.67 -1.51,36.07 0,14.3 0.42,26.3 1.32,35.94 0.84,9.6 2.77,18.25 5.74,25.87 2.63,7.06 6.44,12.51 11.38,16.32 4.89,3.81 11.34,5.69 19.24,5.69 7.62,0 13.92,-1.83 18.86,-5.45 4.89,-3.62 8.75,-8.99 11.48,-16.14z"/>
  </g>
 </g>
 <g id="Слой_x0020_1_21">
  <metadata id="CorelCorpID_1Corel-Layer"/>
 </g>
</svg>
