<?xml version="1.0" encoding="UTF-8"?>
<!DOCTYPE svg PUBLIC "-//W3C//DTD SVG 1.1//EN" "http://www.w3.org/Graphics/SVG/1.1/DTD/svg11.dtd">
<!-- Creator: CorelDRAW 2019 (64-Bit) -->
<svg xmlns="http://www.w3.org/2000/svg" xml:space="preserve" width="41mm" height="41mm" version="1.1" style="shape-rendering:geometricPrecision; text-rendering:geometricPrecision; image-rendering:optimizeQuality; fill-rule:evenodd; clip-rule:evenodd"
viewBox="0 0 4100 4100"
 xmlns:xlink="http://www.w3.org/1999/xlink"
 xmlns:xodm="http://www.corel.com/coreldraw/odm/2003">
 <defs>
  <style type="text/css">
   <![CDATA[
    .str0 {stroke:#393185;stroke-width:75;stroke-miterlimit:22.9256}
    .str1 {stroke:#393185;stroke-width:15;stroke-miterlimit:22.9256}
    .str2 {stroke:#393185;stroke-width:55;stroke-linecap:round;stroke-linejoin:round;stroke-miterlimit:22.9256}
    .str3 {stroke:#393185;stroke-width:25;stroke-linecap:round;stroke-linejoin:round;stroke-miterlimit:22.9256}
    .fil0 {fill:none}
    .fil2 {fill:none;fill-rule:nonzero}
    .fil1 {fill:#393185;fill-rule:nonzero}
   ]]>
  </style>
 </defs>
 <g id="Слой_x0020_1">
  <metadata id="CorelCorpID_0Corel-Layer"/>
  <g id="_2425369573120">
   <g>
    <circle class="fil0 str0" cx="2050" cy="2050.01" r="1752.21"/>
    <path class="fil0 str0" d="M1784.71 315.83c191.54,-354.43 376.98,-354.43 556.32,0m-824.34 62.86c133.74,-380.03 316.89,-409.04 549.48,-87.04m-804.37 191.05c72.65,-396.28 249.01,-453.58 529.11,-171.93m-764.58 314.52c9.75,-402.76 174.98,-486.94 495.7,-252.57m-705.97 430.25c-53.37,-399.33 96.65,-508.32 450.08,-327.01m-629.96 535.39c-115.19,-386.06 15.93,-517.18 393.38,-393.39m-538.45 627.35c-174.17,-363.28 -65.18,-513.31 326.99,-450.09m-433.68 703.86c-228.86,-331.56 -144.68,-496.79 252.56,-495.69m-318.23 763.03c-277.92,-291.68 -220.62,-468.04 171.9,-529.1m-194.95 803.41c-320.12,-244.6 -291.11,-427.76 87.01,-549.47m-66.86 824.02c-354.44,-191.51 -354.45,-376.96 -0.01,-556.32m62.86 824.34c-380.04,-133.71 -409.05,-316.87 -87.04,-549.47m191.03 804.36c-396.26,-72.61 -453.57,-248.99 -171.91,-529.1m314.51 764.57c-402.75,-9.72 -486.94,-174.96 -252.56,-495.69m430.23 705.96c-399.31,53.4 -508.31,-96.63 -326.99,-450.08m535.38 629.97c-386.05,115.21 -517.18,-15.92 -393.38,-393.38m627.34 538.45c-363.27,174.2 -513.31,65.19 -450.08,-327m703.84 433.69c-331.54,228.88 -496.79,144.69 -495.68,-252.56m763.02 318.23c-291.66,277.94 -468.04,220.63 -529.08,-171.9m803.4 194.95c-244.59,320.14 -427.76,291.12 -549.46,-87.02m824.01 66.87c-191.5,354.46 -376.96,354.46 -556.31,0.01m824.33 -62.86c-133.7,380.06 -316.87,409.06 -549.46,87.04m804.33 -191.04c-72.59,396.3 -248.98,453.59 -529.07,171.92m764.55 -314.51c-9.7,402.77 -174.96,486.95 -495.67,252.56m705.93 -430.24c53.43,399.33 -96.61,508.33 -450.05,327m629.93 -535.37c115.25,386.05 -15.89,517.18 -393.34,393.37m538.42 -627.33c174.22,363.27 65.2,513.31 -326.97,450.07m433.65 -703.83c228.92,331.54 144.71,496.79 -252.53,495.66m318.22 -762.99c277.96,291.65 220.64,468.03 -171.9,529.06m194.94 -803.38c320.17,244.58 291.14,427.75 -87,549.44m66.85 -823.99c354.49,191.49 354.48,376.95 0.03,556.29m-62.87 -824.29c380.08,133.67 409.07,316.84 87.05,549.42m-191.05 -804.3c396.31,72.57 453.6,248.96 171.93,529.04m-314.52 -764.51c402.79,9.67 486.96,174.93 252.57,495.63m-430.24 -705.9c399.34,-53.46 508.33,96.59 327,450.02m-535.37 -629.9c386.06,-115.29 517.18,15.87 393.37,393.31m-627.32 -538.38c363.27,-174.27 513.3,-65.23 450.05,326.93m-703.81 -433.63c331.54,-228.95 496.77,-144.72 495.65,252.5m-762.98 -318.19c291.65,-277.98 468.01,-220.65 529.05,171.87m-803.37 -194.91c244.58,-320.19 427.74,-291.15 549.43,86.98"/>
    <circle class="fil0 str0" cx="2050" cy="2050.01" r="1642.75"/>
   </g>
   <path class="fil1 str1" d="M1197.13 3196.7c-0.74,-11.02 -3.25,-22.04 -7.61,-32.98 -6.14,-15.71 -9.2,-26.57 -9.2,-32.49 0,-8.38 2.23,-14.71 6.6,-19.07 4.45,-4.36 9.94,-6.5 16.53,-6.5 5.57,0 10.5,2.14 14.68,6.5 4.18,4.36 6.22,10.52 6.22,18.58 0,7.24 -2.41,17.27 -7.15,30.19 -4.83,12.99 -7.8,24.91 -8.92,35.77 10.03,-5.6 18.95,-12.42 26.94,-20.48 12.35,-12.67 21.55,-20.56 27.49,-23.61 6.05,-3.04 12.08,-4.52 18.3,-4.52 5.95,0 10.96,1.81 15.05,5.43 4.09,3.54 6.14,7.89 6.14,12.83 0,6 -2.98,11.27 -9.02,15.95 -5.94,4.61 -20.9,9.3 -44.86,13.98 -13.94,2.72 -25.55,5.84 -34.84,9.38 9.48,4.36 21,7.65 34.56,9.87 21.92,3.53 36.32,7.97 43.1,13.24 6.88,5.35 10.22,11.1 10.22,17.35 0,4.85 -2.05,8.97 -6.13,12.5 -4.09,3.54 -8.83,5.35 -14.22,5.35 -5.47,0 -11.52,-1.73 -18.11,-5.1 -6.59,-3.38 -15.6,-10.94 -26.85,-22.62 -7.42,-7.89 -16.62,-15.29 -27.77,-22.2 0.37,9.21 2.51,19.16 6.32,29.93 6.5,18.92 9.75,31.83 9.75,38.74 0,6.41 -2.13,11.84 -6.5,16.28 -4.37,4.44 -9.01,6.66 -13.84,6.66 -6.78,0 -12.82,-2.38 -18.3,-6.99 -3.81,-3.37 -5.67,-8.8 -5.67,-16.2 0,-7.65 2.05,-16.94 6.23,-27.8 4.18,-10.85 6.78,-18.33 7.89,-22.37 1.12,-4.1 2.14,-10.19 2.97,-18.25 -10.68,6.33 -20.06,13.24 -27.96,20.97 -13.28,13.16 -23.22,21.55 -30,25.08 -4.74,2.55 -9.57,3.87 -14.68,3.87 -6.13,0 -11.43,-1.9 -15.79,-5.6 -4.36,-3.7 -6.5,-7.72 -6.5,-12.25 0,-4.03 1.85,-8.22 5.57,-12.66 3.72,-4.44 9.29,-8.06 16.72,-10.94 4.93,-1.98 16.07,-4.52 33.44,-7.73 11.24,-2.06 22.3,-5.1 32.98,-9.13 -9.84,-4.36 -21.55,-7.73 -35.12,-10.12 -22.29,-4.19 -36.13,-7.97 -41.33,-11.34 -8.18,-5.27 -12.26,-11.76 -12.26,-19.25 0,-4.36 2.04,-8.3 6.13,-11.92 4.08,-3.62 8.82,-5.43 14.31,-5.43 5.94,0 12.25,1.65 19.03,5.01 6.69,3.38 15.06,10.2 24.99,20.4 10.03,10.2 20.17,18.09 30.47,23.69z"/>
   <path class="fil1 str1" d="M2785.31 3243.65c-0.75,-11.02 -3.25,-22.04 -7.62,-32.98 -6.13,-15.71 -9.19,-26.57 -9.19,-32.49 0,-8.38 2.22,-14.71 6.59,-19.07 4.46,-4.36 9.94,-6.5 16.53,-6.5 5.58,0 10.5,2.14 14.68,6.5 4.18,4.36 6.22,10.52 6.22,18.58 0,7.24 -2.41,17.27 -7.15,30.19 -4.83,12.99 -7.8,24.91 -8.92,35.77 10.03,-5.6 18.95,-12.42 26.94,-20.48 12.36,-12.67 21.55,-20.56 27.5,-23.61 6.04,-3.04 12.08,-4.52 18.3,-4.52 5.94,0 10.96,1.81 15.04,5.43 4.09,3.54 6.14,7.89 6.14,12.83 0,6 -2.98,11.27 -9.01,15.95 -5.95,4.61 -20.9,9.3 -44.87,13.98 -13.94,2.72 -25.54,5.84 -34.84,9.38 9.48,4.36 21,7.65 34.56,9.87 21.92,3.53 36.32,7.97 43.1,13.24 6.88,5.35 10.22,11.1 10.22,17.35 0,4.85 -2.04,8.97 -6.13,12.5 -4.09,3.54 -8.82,5.35 -14.21,5.35 -5.48,0 -11.52,-1.73 -18.11,-5.1 -6.6,-3.38 -15.61,-10.94 -26.85,-22.62 -7.43,-7.89 -16.63,-15.29 -27.78,-22.2 0.38,9.21 2.51,19.16 6.32,29.93 6.51,18.92 9.75,31.83 9.75,38.74 0,6.41 -2.13,11.84 -6.5,16.28 -4.37,4.44 -9.01,6.66 -13.84,6.66 -6.78,0 -12.82,-2.38 -18.3,-6.99 -3.8,-3.37 -5.67,-8.8 -5.67,-16.2 0,-7.65 2.05,-16.94 6.23,-27.8 4.18,-10.85 6.78,-18.33 7.89,-22.37 1.12,-4.1 2.14,-10.19 2.98,-18.25 -10.69,6.33 -20.07,13.24 -27.97,20.97 -13.27,13.16 -23.21,21.55 -30,25.08 -4.73,2.55 -9.57,3.87 -14.67,3.87 -6.13,0 -11.43,-1.9 -15.8,-5.6 -4.36,-3.7 -6.5,-7.72 -6.5,-12.25 0,-4.03 1.86,-8.22 5.58,-12.66 3.71,-4.44 9.28,-8.06 16.72,-10.94 4.92,-1.98 16.06,-4.52 33.44,-7.73 11.23,-2.06 22.29,-5.1 32.97,-9.13 -9.84,-4.36 -21.55,-7.73 -35.11,-10.12 -22.29,-4.19 -36.14,-7.97 -41.34,-11.34 -8.17,-5.27 -12.26,-11.76 -12.26,-19.25 0,-4.36 2.05,-8.3 6.14,-11.92 4.08,-3.62 8.82,-5.43 14.3,-5.43 5.94,0 12.26,1.65 19.04,5.01 6.69,3.38 15.05,10.2 24.99,20.4 10.03,10.2 20.16,18.09 30.47,23.69z"/>
   <circle class="fil2 str2" cx="2050" cy="2050.01" r="1234.99"/>
   <path class="fil1" d="M1527.68 2941.75c-20.08,30.88 -39.32,50.63 -57.68,59.28 -18.37,8.6 -36.9,6.81 -55.63,-5.37 -18.97,-12.33 -28.06,-28.72 -27.37,-49.21 0.69,-20.47 10.86,-45.79 30.5,-76 20.18,-31.02 39.44,-50.82 57.73,-59.35 18.34,-8.56 36.85,-6.73 55.59,5.45 18.96,12.33 28,28.81 27.2,49.45 -0.78,20.63 -10.91,45.86 -30.34,75.75zm-63.65 33.18c5.97,-4.25 12.21,-10.41 18.82,-18.5 6.55,-8.09 13.68,-18.04 21.4,-29.91 7.64,-11.75 13.84,-22.3 18.57,-31.57 4.72,-9.34 7.8,-17.61 9.25,-24.85 1.5,-7.38 1.18,-13.88 -0.87,-19.53 -2.1,-5.68 -6.38,-10.65 -12.84,-14.86 -6.39,-4.15 -12.68,-6.05 -18.76,-5.68 -6.11,0.35 -12.3,2.71 -18.56,7.17 -6.15,4.36 -12.53,10.72 -19.19,19.07 -6.64,8.4 -13.62,18.18 -20.92,29.41 -7.8,11.99 -13.99,22.28 -18.49,30.85 -4.52,8.51 -7.62,16.81 -9.28,24.82 -1.65,7.35 -1.42,14 0.64,19.89 2.02,5.86 6.41,10.95 13.03,15.26 6.39,4.15 12.67,6.05 18.78,5.71 6.08,-0.37 12.24,-2.77 18.42,-7.28zm230.5 47.76c-15.27,33.52 -31.36,55.92 -48.23,67.2 -16.89,11.23 -35.48,12.21 -55.82,2.95 -20.59,-9.38 -32.01,-24.24 -34.37,-44.6 -2.36,-20.34 3.94,-46.89 18.87,-79.68 15.34,-33.68 31.45,-56.12 48.27,-67.28 16.87,-11.18 35.44,-12.13 55.78,-2.86 20.59,9.37 31.97,24.32 34.25,44.85 2.29,20.53 -3.98,46.98 -18.75,79.42zm-58.01 42.27c5.26,-5.09 10.52,-12.1 15.86,-21.09 5.27,-8.97 10.85,-19.87 16.72,-32.76 5.81,-12.76 10.36,-24.11 13.67,-33.98 3.28,-9.93 5.09,-18.56 5.45,-25.94 0.39,-7.53 -0.9,-13.9 -3.76,-19.19 -2.92,-5.3 -7.89,-9.59 -14.9,-12.78 -6.94,-3.16 -13.44,-4.1 -19.39,-2.83 -6,1.25 -11.77,4.51 -17.3,9.84 -5.44,5.23 -10.79,12.46 -16.14,21.71 -5.32,9.3 -10.77,20 -16.32,32.2 -5.93,13.01 -10.52,24.11 -13.7,33.25 -3.21,9.09 -5.04,17.76 -5.49,25.93 -0.54,7.51 0.67,14.05 3.59,19.57 2.87,5.49 7.96,9.87 15.15,13.15 6.93,3.16 13.43,4.1 19.42,2.85 5.95,-1.26 11.69,-4.55 17.14,-9.93zm232.51 2.9c-8.23,35.9 -19.49,61.07 -33.76,75.51 -14.3,14.39 -32.31,19.09 -54.09,14.1 -22.05,-5.06 -36.22,-17.32 -42.62,-36.8 -6.4,-19.46 -5.56,-46.73 2.49,-81.85 8.27,-36.07 19.55,-61.29 33.78,-75.59 14.29,-14.34 32.29,-19 54.08,-14.01 22.04,5.06 36.2,17.42 42.55,37.08 6.36,19.64 5.53,46.81 -2.43,81.56zm-48.34 53.06c4.13,-6.05 7.88,-13.98 11.3,-23.85 3.36,-9.85 6.64,-21.65 9.8,-35.45 3.14,-13.66 5.32,-25.7 6.58,-36.03 1.22,-10.39 1.26,-19.21 0.13,-26.51 -1.13,-7.45 -3.67,-13.44 -7.54,-18.04 -3.92,-4.61 -9.64,-7.81 -17.16,-9.53 -7.43,-1.71 -13.99,-1.32 -19.56,1.11 -5.63,2.43 -10.63,6.78 -14.97,13.12 -4.28,6.21 -8.08,14.37 -11.45,24.5 -3.35,10.18 -6.54,21.76 -9.53,34.82 -3.2,13.94 -5.47,25.73 -6.75,35.33 -1.32,9.55 -1.37,18.41 -0.18,26.5 0.99,7.47 3.48,13.63 7.45,18.45 3.91,4.8 9.78,8.08 17.48,9.84 7.43,1.7 13.98,1.33 19.6,-1.1 5.58,-2.43 10.54,-6.8 14.8,-13.16zm232.96 -35.41c-2.79,36.72 -10.18,63.29 -22.14,79.69 -11.99,16.35 -29.11,23.68 -51.38,21.99 -22.57,-1.72 -38.4,-11.74 -47.63,-30.04 -9.22,-18.29 -12.45,-45.38 -9.72,-81.31 2.8,-36.9 10.2,-63.52 22.15,-79.78 11.99,-16.31 29.1,-23.59 51.39,-21.9 22.55,1.71 38.39,11.83 47.59,30.32 9.22,18.49 12.44,45.48 9.74,81.03zm-39.9 59.65c3.19,-6.59 5.71,-14.99 7.62,-25.26 1.87,-10.24 3.35,-22.39 4.42,-36.51 1.07,-13.98 1.43,-26.21 1.14,-36.61 -0.34,-10.46 -1.61,-19.19 -3.81,-26.24 -2.23,-7.19 -5.63,-12.74 -10.14,-16.71 -4.57,-3.98 -10.71,-6.29 -18.4,-6.88 -7.6,-0.57 -14.03,0.78 -19.18,4.02 -5.2,3.24 -9.49,8.29 -12.85,15.2 -3.3,6.78 -5.84,15.41 -7.67,25.94 -1.8,10.56 -3.23,22.49 -4.24,35.85 -1.08,14.26 -1.57,26.25 -1.41,35.93 0.11,9.64 1.38,18.41 3.77,26.24 2.08,7.23 5.47,12.96 10.11,17.13 4.58,4.17 10.87,6.53 18.75,7.13 7.6,0.58 14.02,-0.77 19.22,-4 5.15,-3.24 9.4,-8.3 12.67,-15.23zm218.8 -78.11c4.8,36.51 3.01,64.03 -5.33,82.54 -8.38,18.47 -23.63,29.15 -45.78,32.06 -22.43,2.95 -39.99,-3.61 -52.78,-19.63 -12.77,-16.01 -21.49,-41.86 -26.19,-77.58 -4.82,-36.7 -3.04,-64.27 5.32,-82.63 8.39,-18.42 23.64,-29.06 45.8,-31.98 22.43,-2.95 40,3.71 52.81,19.92 12.81,16.2 21.5,41.95 26.15,77.3zm-26.82 66.57c1.77,-7.11 2.51,-15.84 2.28,-26.29 -0.28,-10.4 -1.32,-22.6 -3.16,-36.64 -1.83,-13.9 -3.98,-25.94 -6.4,-36.06 -2.48,-10.17 -5.51,-18.45 -9.11,-24.9 -3.66,-6.59 -8.13,-11.31 -13.36,-14.28 -5.28,-2.95 -11.77,-3.96 -19.41,-2.95 -7.56,0.99 -13.57,3.64 -17.95,7.87 -4.42,4.23 -7.59,10.05 -9.46,17.51 -1.84,7.31 -2.55,16.28 -2.19,26.95 0.41,10.71 1.46,22.68 3.21,35.96 1.86,14.18 3.84,26.02 5.99,35.46 2.08,9.41 5.13,17.74 9.06,24.91 3.53,6.65 8.02,11.56 13.41,14.69 5.35,3.14 11.99,4.17 19.82,3.14 7.56,-1 13.56,-3.63 17.99,-7.87 4.38,-4.22 7.5,-10.05 9.28,-17.5zm206.28 -113.45c10.15,35.4 12.46,62.88 6.95,82.42 -5.55,19.5 -19.05,32.32 -40.53,38.48 -21.75,6.24 -40.08,2.36 -55.1,-11.59 -15.01,-13.95 -27.45,-38.23 -37.39,-72.86 -10.2,-35.57 -12.52,-63.1 -6.98,-82.5 5.57,-19.46 19.08,-32.24 40.57,-38.41 21.74,-6.23 40.11,-2.25 55.17,11.88 15.07,14.12 27.48,38.31 37.31,72.58zm-16.67 69.81c0.7,-7.3 0.14,-16.04 -1.63,-26.34 -1.82,-10.25 -4.65,-22.16 -8.56,-35.77 -3.86,-13.47 -7.77,-25.07 -11.66,-34.72 -3.96,-9.68 -8.19,-17.43 -12.7,-23.27 -4.6,-5.97 -9.71,-9.99 -15.33,-12.14 -5.66,-2.15 -12.22,-2.18 -19.63,-0.05 -7.32,2.1 -12.88,5.61 -16.59,10.44 -3.75,4.84 -6.02,11.06 -6.76,18.72 -0.74,7.5 -0.12,16.48 1.83,26.98 1.99,10.53 4.79,22.21 8.49,35.09 3.94,13.74 7.65,25.16 11.18,34.18 3.45,9 7.69,16.78 12.65,23.28 4.47,6.07 9.64,10.25 15.44,12.55 5.75,2.32 12.47,2.35 20.06,0.17 7.33,-2.1 12.88,-5.6 16.63,-10.44 3.7,-4.83 5.93,-11.05 6.58,-18.68zm178.6 -149.11c17.03,32.66 24.79,59.12 23.3,79.36 -1.54,20.23 -12.2,35.49 -32,45.82 -20.07,10.47 -38.81,10.33 -56.31,-0.33 -17.5,-10.66 -34.55,-31.96 -51.21,-63.91 -17.12,-32.81 -24.9,-59.32 -23.35,-79.43 1.56,-20.19 12.24,-35.41 32.06,-45.75 20.06,-10.46 38.85,-10.24 56.43,0.6 17.59,10.82 34.59,32.04 51.08,63.64zm-2.36 71.74c-0.78,-7.29 -3.07,-15.75 -6.88,-25.48 -3.82,-9.68 -8.98,-20.78 -15.53,-33.33 -6.49,-12.43 -12.64,-23.01 -18.38,-31.69 -5.81,-8.7 -11.5,-15.44 -17.1,-20.26 -5.7,-4.93 -11.51,-7.84 -17.44,-8.83 -5.98,-0.97 -12.41,0.31 -19.25,3.88 -6.75,3.52 -11.5,8.07 -14.16,13.55 -2.7,5.49 -3.68,12.05 -2.88,19.69 0.78,7.5 3.18,16.17 7.19,26.07 4.05,9.92 9.14,20.8 15.34,32.68 6.61,12.68 12.53,23.13 17.79,31.26 5.19,8.12 10.9,14.9 17.05,20.28 5.6,5.04 11.5,8.11 17.64,9.21 6.1,1.11 12.69,-0.2 19.69,-3.86 6.76,-3.52 11.5,-8.06 14.2,-13.55 2.67,-5.47 3.6,-12.02 2.72,-19.62zm150.05 -177.71c22.74,28.97 35.22,53.56 37.47,73.73 2.2,20.16 -5.48,37.12 -23.05,50.91 -17.81,13.98 -36.25,17.28 -55.42,10.01 -19.15,-7.27 -39.82,-25.07 -62.07,-53.42 -22.84,-29.11 -35.36,-53.74 -37.52,-73.8 -2.17,-20.13 5.53,-37.06 23.12,-50.85 17.79,-13.97 36.31,-17.2 55.58,-9.77 19.28,7.41 39.88,25.14 61.89,53.19zm10.84 70.95c-2.1,-7.02 -5.9,-14.92 -11.43,-23.79 -5.54,-8.81 -12.65,-18.78 -21.39,-29.92 -8.66,-11.02 -16.64,-20.29 -23.88,-27.77 -7.31,-7.48 -14.14,-13.06 -20.53,-16.78 -6.5,-3.8 -12.75,-5.59 -18.76,-5.48 -6.05,0.15 -12.15,2.59 -18.21,7.35 -6,4.7 -9.82,10.05 -11.44,15.91 -1.65,5.9 -1.41,12.53 0.79,19.89 2.14,7.23 6.09,15.32 11.84,24.31 5.81,9.01 12.81,18.77 21.08,29.31 8.83,11.25 16.57,20.43 23.23,27.46 6.59,7.03 13.45,12.65 20.49,16.81 6.42,3.93 12.79,5.86 19.02,5.81 6.2,-0.02 12.44,-2.52 18.65,-7.4 6,-4.7 9.82,-10.03 11.48,-15.93 1.61,-5.87 1.33,-12.47 -0.94,-19.78z"/>
   <path id="_1" class="fil2 str3" d="M1527.68 2941.75c-20.08,30.88 -39.32,50.63 -57.68,59.28 -18.37,8.6 -36.9,6.81 -55.63,-5.37 -18.97,-12.33 -28.06,-28.72 -27.37,-49.21 0.69,-20.47 10.86,-45.79 30.5,-76 20.18,-31.02 39.44,-50.82 57.73,-59.35 18.34,-8.56 36.85,-6.73 55.59,5.45 18.96,12.33 28,28.81 27.2,49.45 -0.78,20.63 -10.91,45.86 -30.34,75.75zm-63.65 33.18c5.97,-4.25 12.21,-10.41 18.82,-18.5 6.55,-8.09 13.68,-18.04 21.4,-29.91 7.64,-11.75 13.84,-22.3 18.57,-31.57 4.72,-9.34 7.8,-17.61 9.25,-24.85 1.5,-7.38 1.18,-13.88 -0.87,-19.53 -2.1,-5.68 -6.38,-10.65 -12.84,-14.86 -6.39,-4.15 -12.68,-6.05 -18.76,-5.68 -6.11,0.35 -12.3,2.71 -18.56,7.17 -6.15,4.36 -12.53,10.72 -19.19,19.07 -6.64,8.4 -13.62,18.18 -20.92,29.41 -7.8,11.99 -13.99,22.28 -18.49,30.85 -4.52,8.51 -7.62,16.81 -9.28,24.82 -1.65,7.35 -1.42,14 0.64,19.89 2.02,5.86 6.41,10.95 13.03,15.26 6.39,4.15 12.67,6.05 18.78,5.71 6.08,-0.37 12.24,-2.77 18.42,-7.28zm230.5 47.76c-15.27,33.52 -31.36,55.92 -48.23,67.2 -16.89,11.23 -35.48,12.21 -55.82,2.95 -20.59,-9.38 -32.01,-24.24 -34.37,-44.6 -2.36,-20.34 3.94,-46.89 18.87,-79.68 15.34,-33.68 31.45,-56.12 48.27,-67.28 16.87,-11.18 35.44,-12.13 55.78,-2.86 20.59,9.37 31.97,24.32 34.25,44.85 2.29,20.53 -3.98,46.98 -18.75,79.42zm-58.01 42.27c5.26,-5.09 10.52,-12.1 15.86,-21.09 5.27,-8.97 10.85,-19.87 16.72,-32.76 5.81,-12.76 10.36,-24.11 13.67,-33.98 3.28,-9.93 5.09,-18.56 5.45,-25.94 0.39,-7.53 -0.9,-13.9 -3.76,-19.19 -2.92,-5.3 -7.89,-9.59 -14.9,-12.78 -6.94,-3.16 -13.44,-4.1 -19.39,-2.83 -6,1.25 -11.77,4.51 -17.3,9.84 -5.44,5.23 -10.79,12.46 -16.14,21.71 -5.32,9.3 -10.77,20 -16.32,32.2 -5.93,13.01 -10.52,24.11 -13.7,33.25 -3.21,9.09 -5.04,17.76 -5.49,25.93 -0.54,7.51 0.67,14.05 3.59,19.57 2.87,5.49 7.96,9.87 15.15,13.15 6.93,3.16 13.43,4.1 19.42,2.85 5.95,-1.26 11.69,-4.55 17.14,-9.93zm232.51 2.9c-8.23,35.9 -19.49,61.07 -33.76,75.51 -14.3,14.39 -32.31,19.09 -54.09,14.1 -22.05,-5.06 -36.22,-17.32 -42.62,-36.8 -6.4,-19.46 -5.56,-46.73 2.49,-81.85 8.27,-36.07 19.55,-61.29 33.78,-75.59 14.29,-14.34 32.29,-19 54.08,-14.01 22.04,5.06 36.2,17.42 42.55,37.08 6.36,19.64 5.53,46.81 -2.43,81.56zm-48.34 53.06c4.13,-6.05 7.88,-13.98 11.3,-23.85 3.36,-9.85 6.64,-21.65 9.8,-35.45 3.14,-13.66 5.32,-25.7 6.58,-36.03 1.22,-10.39 1.26,-19.21 0.13,-26.51 -1.13,-7.45 -3.67,-13.44 -7.54,-18.04 -3.92,-4.61 -9.64,-7.81 -17.16,-9.53 -7.43,-1.71 -13.99,-1.32 -19.56,1.11 -5.63,2.43 -10.63,6.78 -14.97,13.12 -4.28,6.21 -8.08,14.37 -11.45,24.5 -3.35,10.18 -6.54,21.76 -9.53,34.82 -3.2,13.94 -5.47,25.73 -6.75,35.33 -1.32,9.55 -1.37,18.41 -0.18,26.5 0.99,7.47 3.48,13.63 7.45,18.45 3.91,4.8 9.78,8.08 17.48,9.84 7.43,1.7 13.98,1.33 19.6,-1.1 5.58,-2.43 10.54,-6.8 14.8,-13.16zm232.96 -35.41c-2.79,36.72 -10.18,63.29 -22.14,79.69 -11.99,16.35 -29.11,23.68 -51.38,21.99 -22.57,-1.72 -38.4,-11.74 -47.63,-30.04 -9.22,-18.29 -12.45,-45.38 -9.72,-81.31 2.8,-36.9 10.2,-63.52 22.15,-79.78 11.99,-16.31 29.1,-23.59 51.39,-21.9 22.55,1.71 38.39,11.83 47.59,30.32 9.22,18.49 12.44,45.48 9.74,81.03zm-39.9 59.65c3.19,-6.59 5.71,-14.99 7.62,-25.26 1.87,-10.24 3.35,-22.39 4.42,-36.51 1.07,-13.98 1.43,-26.21 1.14,-36.61 -0.34,-10.46 -1.61,-19.19 -3.81,-26.24 -2.23,-7.19 -5.63,-12.74 -10.14,-16.71 -4.57,-3.98 -10.71,-6.29 -18.4,-6.88 -7.6,-0.57 -14.03,0.78 -19.18,4.02 -5.2,3.24 -9.49,8.29 -12.85,15.2 -3.3,6.78 -5.84,15.41 -7.67,25.94 -1.8,10.56 -3.23,22.49 -4.24,35.85 -1.08,14.26 -1.57,26.25 -1.41,35.93 0.11,9.64 1.38,18.41 3.77,26.24 2.08,7.23 5.47,12.96 10.11,17.13 4.58,4.17 10.87,6.53 18.75,7.13 7.6,0.58 14.02,-0.77 19.22,-4 5.15,-3.24 9.4,-8.3 12.67,-15.23zm218.8 -78.11c4.8,36.51 3.01,64.03 -5.33,82.54 -8.38,18.47 -23.63,29.15 -45.78,32.06 -22.43,2.95 -39.99,-3.61 -52.78,-19.63 -12.77,-16.01 -21.49,-41.86 -26.19,-77.58 -4.82,-36.7 -3.04,-64.27 5.32,-82.63 8.39,-18.42 23.64,-29.06 45.8,-31.98 22.43,-2.95 40,3.71 52.81,19.92 12.81,16.2 21.5,41.95 26.15,77.3zm-26.82 66.57c1.77,-7.11 2.51,-15.84 2.28,-26.29 -0.28,-10.4 -1.32,-22.6 -3.16,-36.64 -1.83,-13.9 -3.98,-25.94 -6.4,-36.06 -2.48,-10.17 -5.51,-18.45 -9.11,-24.9 -3.66,-6.59 -8.13,-11.31 -13.36,-14.28 -5.28,-2.95 -11.77,-3.96 -19.41,-2.95 -7.56,0.99 -13.57,3.64 -17.95,7.87 -4.42,4.23 -7.59,10.05 -9.46,17.51 -1.84,7.31 -2.55,16.28 -2.19,26.95 0.41,10.71 1.46,22.68 3.21,35.96 1.86,14.18 3.84,26.02 5.99,35.46 2.08,9.41 5.13,17.74 9.06,24.91 3.53,6.65 8.02,11.56 13.41,14.69 5.35,3.14 11.99,4.17 19.82,3.14 7.56,-1 13.56,-3.63 17.99,-7.87 4.38,-4.22 7.5,-10.05 9.28,-17.5zm206.28 -113.45c10.15,35.4 12.46,62.88 6.95,82.42 -5.55,19.5 -19.05,32.32 -40.53,38.48 -21.75,6.24 -40.08,2.36 -55.1,-11.59 -15.01,-13.95 -27.45,-38.23 -37.39,-72.86 -10.2,-35.57 -12.52,-63.1 -6.98,-82.5 5.57,-19.46 19.08,-32.24 40.57,-38.41 21.74,-6.23 40.11,-2.25 55.17,11.88 15.07,14.12 27.48,38.31 37.31,72.58zm-16.67 69.81c0.7,-7.3 0.14,-16.04 -1.63,-26.34 -1.82,-10.25 -4.65,-22.16 -8.56,-35.77 -3.86,-13.47 -7.77,-25.07 -11.66,-34.72 -3.96,-9.68 -8.19,-17.43 -12.7,-23.27 -4.6,-5.97 -9.71,-9.99 -15.33,-12.14 -5.66,-2.15 -12.22,-2.18 -19.63,-0.05 -7.32,2.1 -12.88,5.61 -16.59,10.44 -3.75,4.84 -6.02,11.06 -6.76,18.72 -0.74,7.5 -0.12,16.48 1.83,26.98 1.99,10.53 4.79,22.21 8.49,35.09 3.94,13.74 7.65,25.16 11.18,34.18 3.45,9 7.69,16.78 12.65,23.28 4.47,6.07 9.64,10.25 15.44,12.55 5.75,2.32 12.47,2.35 20.06,0.17 7.33,-2.1 12.88,-5.6 16.63,-10.44 3.7,-4.83 5.93,-11.05 6.58,-18.68zm178.6 -149.11c17.03,32.66 24.79,59.12 23.3,79.36 -1.54,20.23 -12.2,35.49 -32,45.82 -20.07,10.47 -38.81,10.33 -56.31,-0.33 -17.5,-10.66 -34.55,-31.96 -51.21,-63.91 -17.12,-32.81 -24.9,-59.32 -23.35,-79.43 1.56,-20.19 12.24,-35.41 32.06,-45.75 20.06,-10.46 38.85,-10.24 56.43,0.6 17.59,10.82 34.59,32.04 51.08,63.64zm-2.36 71.74c-0.78,-7.29 -3.07,-15.75 -6.88,-25.48 -3.82,-9.68 -8.98,-20.78 -15.53,-33.33 -6.49,-12.43 -12.64,-23.01 -18.38,-31.69 -5.81,-8.7 -11.5,-15.44 -17.1,-20.26 -5.7,-4.93 -11.51,-7.84 -17.44,-8.83 -5.98,-0.97 -12.41,0.31 -19.25,3.88 -6.75,3.52 -11.5,8.07 -14.16,13.55 -2.7,5.49 -3.68,12.05 -2.88,19.69 0.78,7.5 3.18,16.17 7.19,26.07 4.05,9.92 9.14,20.8 15.34,32.68 6.61,12.68 12.53,23.13 17.79,31.26 5.19,8.12 10.9,14.9 17.05,20.28 5.6,5.04 11.5,8.11 17.64,9.21 6.1,1.11 12.69,-0.2 19.69,-3.86 6.76,-3.52 11.5,-8.06 14.2,-13.55 2.67,-5.47 3.6,-12.02 2.72,-19.62zm150.05 -177.71c22.74,28.97 35.22,53.56 37.47,73.73 2.2,20.16 -5.48,37.12 -23.05,50.91 -17.81,13.98 -36.25,17.28 -55.42,10.01 -19.15,-7.27 -39.82,-25.07 -62.07,-53.42 -22.84,-29.11 -35.36,-53.74 -37.52,-73.8 -2.17,-20.13 5.53,-37.06 23.12,-50.85 17.79,-13.97 36.31,-17.2 55.58,-9.77 19.28,7.41 39.88,25.14 61.89,53.19zm10.84 70.95c-2.1,-7.02 -5.9,-14.92 -11.43,-23.79 -5.54,-8.81 -12.65,-18.78 -21.39,-29.92 -8.66,-11.02 -16.64,-20.29 -23.88,-27.77 -7.31,-7.48 -14.14,-13.06 -20.53,-16.78 -6.5,-3.8 -12.75,-5.59 -18.76,-5.48 -6.05,0.15 -12.15,2.59 -18.21,7.35 -6,4.7 -9.82,10.05 -11.44,15.91 -1.65,5.9 -1.41,12.53 0.79,19.89 2.14,7.23 6.09,15.32 11.84,24.31 5.81,9.01 12.81,18.77 21.08,29.31 8.83,11.25 16.57,20.43 23.23,27.46 6.59,7.03 13.45,12.65 20.49,16.81 6.42,3.93 12.79,5.86 19.02,5.81 6.2,-0.02 12.44,-2.52 18.65,-7.4 6,-4.7 9.82,-10.03 11.48,-15.93 1.61,-5.87 1.33,-12.47 -0.94,-19.78z"/>
   <path class="fil1" d="M1158.28 2105.57l-120.67 -103.95 0 -21.04 120.67 -103.69 0 46.65 -78.42 67.69 78.42 67.69 0 46.65zm-106.48 7.09l-126.25 -110.53 0 -22.06 126.25 -110.28 0 48.59 -81.97 72.85 81.97 72.84 0 48.59z"/>
   <polygon id="_1_0" class="fil1" points="1528.82,2152.72 1479.64,2152.72 1479.64,1972.21 1310.79,1972.21 1310.79,2152.72 1261.61,2152.72 1261.61,1784.1 1310.79,1784.1 1310.79,1928.61 1479.64,1928.61 1479.64,1784.1 1528.82,1784.1 "/>
   <path id="_2" class="fil1" d="M1597.24 2152.72l124.4 -368.62 60.51 0 124.39 368.62 -51.89 0 -33.29 -102.42 -141.13 0 -33.21 102.42 -49.78 0zm210.26 -145.01l-56.79 -173.07 -56.62 173.07 113.41 0z"/>
   <path id="_3" class="fil1" d="M2165.1 1975c8.28,7.02 15.13,15.89 20.53,26.54 5.33,10.65 8.03,24.42 8.03,41.24 0,16.48 -3.29,31.77 -9.89,45.88 -6.59,14.12 -15.71,26.45 -27.29,37.02 -11.83,10.9 -26.54,19.18 -44.03,25.01 -17.58,5.75 -37.01,8.62 -58.48,8.62 -22.98,0 -44.03,-2.28 -63.21,-6.84 -19.1,-4.48 -34.48,-9.21 -46.05,-14.2l0 -55.01 3.46 0c13.18,8.78 29.24,16.64 48.08,23.32 18.85,6.76 37.78,10.14 56.71,10.14 12.08,0 24,-1.61 36,-4.82 11.91,-3.21 21.97,-8.45 30,-15.71 8.11,-7.27 14.03,-15.22 17.83,-23.75 3.8,-8.45 5.66,-19.18 5.66,-32.03 0,-12.59 -2.28,-23.15 -6.76,-31.77 -4.56,-8.54 -10.99,-15.47 -19.18,-20.79 -8.11,-5.33 -17.75,-9.04 -29.07,-11.24 -11.33,-2.28 -23.33,-3.38 -36.26,-3.38l-38.53 0 0 -41.07 33.46 0c25.95,0 46.82,-5.24 62.54,-15.64 15.8,-10.39 23.66,-25.6 23.66,-45.63 0,-9.04 -1.94,-16.9 -5.83,-23.41 -3.8,-6.51 -9.3,-11.83 -16.31,-15.97 -7.77,-4.48 -15.89,-7.52 -24.34,-9.04 -8.45,-1.61 -17.66,-2.37 -27.72,-2.37 -10.48,0 -20.79,1.18 -31.01,3.64 -10.14,2.36 -19.77,5.32 -28.82,8.87 -8.53,3.46 -16.05,7.1 -22.39,10.98 -6.42,3.81 -11.66,6.93 -15.8,9.47l-3.22 0 0 -54.25c11.24,-5.33 26.46,-10.14 45.81,-14.62 19.26,-4.48 38.36,-6.68 57.12,-6.68 19.02,0 35.33,1.61 49.02,4.82 13.69,3.21 26.19,8.45 37.6,15.72 12.34,8.11 21.64,17.57 27.81,28.56 6.16,10.98 9.29,24.08 9.29,39.21 0,19.94 -6.67,37.35 -19.94,52.22 -13.27,14.88 -30.59,24.6 -52.06,29.24l0 3.64c8.28,1.52 17.24,4.14 26.96,7.94 9.63,3.8 18.51,9.21 26.62,16.14z"/>
   <path id="_4" class="fil1" d="M2527.94 2039.48c0,18.34 -3.46,34.56 -10.39,48.59 -6.93,14.03 -16.23,25.61 -27.97,34.65 -13.86,10.9 -28.74,18.68 -44.54,23.15 -15.89,4.57 -36.34,6.85 -61.35,6.85l-105.72 0 0 -368.62 97.78 0c26.28,0 45.97,0.85 59.07,2.62 13.09,1.69 25.69,5.75 37.77,12.17 13.18,7.1 22.82,16.39 28.99,27.89 6.08,11.41 9.12,24.93 9.12,40.39 0,17.33 -4.56,32.79 -13.69,46.48 -9.21,13.69 -21.88,24.42 -38.03,32.2l0 2.03c21.89,5.91 38.88,16.81 50.96,32.53 12,15.8 18,35.49 18,59.07zm-68.45 -164.96c0,-8.78 -1.52,-16.47 -4.48,-22.9 -2.96,-6.5 -7.69,-11.57 -14.28,-15.38 -7.86,-4.39 -16.73,-7.1 -26.45,-8.11 -9.72,-0.93 -23.07,-1.44 -40.22,-1.44l-46.91 0 0 106.99 55.52 0c15.38,0 26.62,-0.76 33.89,-2.37 7.18,-1.52 14.71,-4.73 22.4,-9.63 7.43,-4.73 12.76,-10.99 15.88,-18.68 3.13,-7.69 4.65,-17.15 4.65,-28.48zm17.24 166.65c0,-13.77 -1.94,-25.1 -5.91,-34.05 -3.98,-8.96 -11.92,-16.57 -23.92,-22.74 -7.77,-4.14 -16.23,-6.76 -25.35,-7.94 -9.13,-1.1 -22.06,-1.69 -38.88,-1.69l-55.52 0 0 135.38 39.72 0c21.38,0 38.28,-1.02 50.62,-2.96 12.34,-1.94 23.24,-6.17 32.62,-12.51 9.21,-6.42 15.89,-13.69 20.2,-21.8 4.31,-8.11 6.42,-18.67 6.42,-31.69z"/>
   <path id="_5" class="fil1" d="M2570 2152.72l124.4 -368.62 60.51 0 124.39 368.62 -51.89 0 -33.29 -102.42 -141.13 0 -33.21 102.42 -49.78 0zm210.26 -145.01l-56.79 -173.07 -56.62 173.07 113.41 0z"/>
   <path id="_6" class="fil1" d="M3175.04 2002.13l-126.25 110.53 0 -48.59 81.97 -72.84 -81.97 -72.85 0 -48.59 126.25 110.28 0 22.06zm-112.05 -0.51l-120.68 103.95 0 -46.65 78.42 -67.69 -78.42 -67.69 0 -46.65 120.68 103.69 0 21.04z"/>
   <path id="_7" class="fil2 str3" d="M1158.28 2105.57l-120.67 -103.95 0 -21.04 120.67 -103.69 0 46.65 -78.42 67.69 78.42 67.69 0 46.65zm-106.48 7.09l-126.25 -110.53 0 -22.06 126.25 -110.28 0 48.59 -81.97 72.85 81.97 72.84 0 48.59z"/>
   <polygon id="_8" class="fil2 str3" points="1528.82,2152.72 1479.64,2152.72 1479.64,1972.21 1310.79,1972.21 1310.79,2152.72 1261.61,2152.72 1261.61,1784.1 1310.79,1784.1 1310.79,1928.61 1479.64,1928.61 1479.64,1784.1 1528.82,1784.1 "/>
   <path id="_9" class="fil2 str3" d="M1597.24 2152.72l124.4 -368.62 60.51 0 124.39 368.62 -51.89 0 -33.29 -102.42 -141.13 0 -33.21 102.42 -49.78 0zm210.26 -145.01l-56.79 -173.07 -56.62 173.07 113.41 0z"/>
   <path id="_10" class="fil2 str3" d="M2165.1 1975c8.28,7.02 15.13,15.89 20.53,26.54 5.33,10.65 8.03,24.42 8.03,41.24 0,16.48 -3.29,31.77 -9.89,45.88 -6.59,14.12 -15.71,26.45 -27.29,37.02 -11.83,10.9 -26.54,19.18 -44.03,25.01 -17.58,5.75 -37.01,8.62 -58.48,8.62 -22.98,0 -44.03,-2.28 -63.21,-6.84 -19.1,-4.48 -34.48,-9.21 -46.05,-14.2l0 -55.01 3.46 0c13.18,8.78 29.24,16.64 48.08,23.32 18.85,6.76 37.78,10.14 56.71,10.14 12.08,0 24,-1.61 36,-4.82 11.91,-3.21 21.97,-8.45 30,-15.71 8.11,-7.27 14.03,-15.22 17.83,-23.75 3.8,-8.45 5.66,-19.18 5.66,-32.03 0,-12.59 -2.28,-23.15 -6.76,-31.77 -4.56,-8.54 -10.99,-15.47 -19.18,-20.79 -8.11,-5.33 -17.75,-9.04 -29.07,-11.24 -11.33,-2.28 -23.33,-3.38 -36.26,-3.38l-38.53 0 0 -41.07 33.46 0c25.95,0 46.82,-5.24 62.54,-15.64 15.8,-10.39 23.66,-25.6 23.66,-45.63 0,-9.04 -1.94,-16.9 -5.83,-23.41 -3.8,-6.51 -9.3,-11.83 -16.31,-15.97 -7.77,-4.48 -15.89,-7.52 -24.34,-9.04 -8.45,-1.61 -17.66,-2.37 -27.72,-2.37 -10.48,0 -20.79,1.18 -31.01,3.64 -10.14,2.36 -19.77,5.32 -28.82,8.87 -8.53,3.46 -16.05,7.1 -22.39,10.98 -6.42,3.81 -11.66,6.93 -15.8,9.47l-3.22 0 0 -54.25c11.24,-5.33 26.46,-10.14 45.81,-14.62 19.26,-4.48 38.36,-6.68 57.12,-6.68 19.02,0 35.33,1.61 49.02,4.82 13.69,3.21 26.19,8.45 37.6,15.72 12.34,8.11 21.64,17.57 27.81,28.56 6.16,10.98 9.29,24.08 9.29,39.21 0,19.94 -6.67,37.35 -19.94,52.22 -13.27,14.88 -30.59,24.6 -52.06,29.24l0 3.64c8.28,1.52 17.24,4.14 26.96,7.94 9.63,3.8 18.51,9.21 26.62,16.14z"/>
   <path id="_11" class="fil2 str3" d="M2527.94 2039.48c0,18.34 -3.46,34.56 -10.39,48.59 -6.93,14.03 -16.23,25.61 -27.97,34.65 -13.86,10.9 -28.74,18.68 -44.54,23.15 -15.89,4.57 -36.34,6.85 -61.35,6.85l-105.72 0 0 -368.62 97.78 0c26.28,0 45.97,0.85 59.07,2.62 13.09,1.69 25.69,5.75 37.77,12.17 13.18,7.1 22.82,16.39 28.99,27.89 6.08,11.41 9.12,24.93 9.12,40.39 0,17.33 -4.56,32.79 -13.69,46.48 -9.21,13.69 -21.88,24.42 -38.03,32.2l0 2.03c21.89,5.91 38.88,16.81 50.96,32.53 12,15.8 18,35.49 18,59.07zm-68.45 -164.96c0,-8.78 -1.52,-16.47 -4.48,-22.9 -2.96,-6.5 -7.69,-11.57 -14.28,-15.38 -7.86,-4.39 -16.73,-7.1 -26.45,-8.11 -9.72,-0.93 -23.07,-1.44 -40.22,-1.44l-46.91 0 0 106.99 55.52 0c15.38,0 26.62,-0.76 33.89,-2.37 7.18,-1.52 14.71,-4.73 22.4,-9.63 7.43,-4.73 12.76,-10.99 15.88,-18.68 3.13,-7.69 4.65,-17.15 4.65,-28.48zm17.24 166.65c0,-13.77 -1.94,-25.1 -5.91,-34.05 -3.98,-8.96 -11.92,-16.57 -23.92,-22.74 -7.77,-4.14 -16.23,-6.76 -25.35,-7.94 -9.13,-1.1 -22.06,-1.69 -38.88,-1.69l-55.52 0 0 135.38 39.72 0c21.38,0 38.28,-1.02 50.62,-2.96 12.34,-1.94 23.24,-6.17 32.62,-12.51 9.21,-6.42 15.89,-13.69 20.2,-21.8 4.31,-8.11 6.42,-18.67 6.42,-31.69z"/>
   <path id="_12" class="fil2 str3" d="M2570 2152.72l124.4 -368.62 60.51 0 124.39 368.62 -51.89 0 -33.29 -102.42 -141.13 0 -33.21 102.42 -49.78 0zm210.26 -145.01l-56.79 -173.07 -56.62 173.07 113.41 0z"/>
   <path id="_13" class="fil2 str3" d="M3175.04 2002.13l-126.25 110.53 0 -48.59 81.97 -72.84 -81.97 -72.85 0 -48.59 126.25 110.28 0 22.06zm-112.05 -0.51l-120.68 103.95 0 -46.65 78.42 -67.69 -78.42 -67.69 0 -46.65 120.68 103.69 0 21.04z"/>
   <path class="fil1" d="M1611.4 3337.33l-134.46 132.61c-5.68,5.6 -11.11,9.67 -16.42,12.3 -5.31,2.64 -10.32,4.17 -15.09,4.64 -4.82,0.53 -9.24,0.37 -13.34,-0.48 -4.07,-0.89 -8.02,-2.08 -11.88,-3.65 -3.41,-1.39 -7.4,-3.12 -11.93,-5.16 -4.52,-2.05 -7.44,-3.39 -8.68,-3.98l9.56 -23.52 1.8 0.73c1.25,0.66 3.1,1.62 5.65,2.92 2.55,1.24 5.85,2.68 9.87,4.31 1.89,0.77 4.15,1.59 6.78,2.4 2.68,0.83 5.29,1.18 7.83,1.05 2.99,-0.17 5.94,-0.8 8.95,-1.93 3,-1.08 6.29,-3.41 9.83,-6.98l8.45 -8.24 -9.53 -169.06 28.19 11.46 6.12 133.55 92.55 -93.43 25.75 10.46zm113.38 245.07l-33.7 -9.33 -45.09 -110.45 -16.53 -4.57 -25.19 90.99 -26.51 -7.33 54.99 -198.68 26.51 7.34 -24.81 89.63c10.53,2.53 19.49,2.21 26.96,-1.01 7.42,-3.25 14.32,-8.89 20.68,-16.98 2.71,-3.57 5.22,-6.99 7.49,-10.24 2.28,-3.3 4.18,-6.05 5.67,-8.28 9.56,-13.79 19.24,-22.38 29.12,-25.83 9.87,-3.44 22.15,-3.14 36.86,0.94l8.16 2.25 -6.5 23.5 -6.7 -1.85c-10.85,-3.01 -19.04,-2.96 -24.6,0.11 -5.52,3.08 -11.73,9.99 -18.68,20.72 -6.89,10.74 -13.38,18.21 -19.4,22.44 -6.07,4.2 -12.87,7.52 -20.44,9.92l51.71 126.71zm189.81 -118.65c-1.04,8.92 -3.62,17.13 -7.68,24.7 -4.07,7.57 -9.23,13.82 -15.41,18.76 -7.85,6.13 -16.73,10.48 -26.67,12.93 -9.9,2.47 -22.13,2.86 -36.68,1.16l-23 -2.67 -8.87 76.32 -27.33 -3.18 23.82 -204.75 51.31 5.96c12.11,1.41 22.28,3.59 30.54,6.6 8.26,3.01 15.39,7.16 21.4,12.38 6.93,6.15 12.13,13.46 15.51,21.98 3.34,8.53 4.38,18.45 3.06,29.81zm-28.53 -2.65c0.82,-7 0.31,-13.24 -1.49,-18.69 -1.84,-5.49 -5,-10.14 -9.51,-13.95 -3.99,-3.36 -8.72,-5.92 -14.27,-7.75 -5.54,-1.83 -12.57,-3.26 -21.06,-4.25l-22.39 -2.61 -9.43 81.12 18.44 2.14c10.94,1.28 19.87,1.41 26.83,0.42 6.92,-0.96 12.88,-3.51 17.91,-7.48 4.47,-3.67 7.9,-7.74 10.29,-12.37 2.39,-4.62 3.94,-10.15 4.68,-16.58zm42.37 149.46l76.97 -203.5 33.8 1.23 62.09 208.51 -29 -1.05 -16.54 -57.91 -78.87 -2.85 -20.63 56.57 -27.82 -1zm120.43 -76.8l-28.24 -97.87 -35.14 95.58 63.38 2.29zm170.21 71.56l-80.01 6.1 -1.59 -20.92 26.29 -2 -12.48 -163.71 -26.29 2.01 -1.6 -20.92 80.01 -6.1 1.59 20.92 -26.29 2 12.48 163.71 26.3 -2.01 1.59 20.92zm-15.1 -231.75l-27.43 2.09 -2.05 -26.85 27.43 -2.09 2.05 26.85zm-57.4 4.37l-27.43 2.09 -2.04 -26.85 27.43 -2.09 2.04 26.85zm279.3 192.83l-27.02 5.13 -18.83 -99.17 -92.76 17.62 18.83 99.16 -27.03 5.14 -38.46 -202.52 27.03 -5.14 15.08 79.39 92.76 -17.61 -15.08 -79.39 27.02 -5.13 38.46 202.52zm45.37 -10.41l-4.65 -217.51 31.81 -11.5 135.51 170.21 -27.29 9.86 -36.99 -47.53 -74.21 26.83 2.01 60.18 -26.19 9.46zm83.01 -116.24l-62.77 -80.22 3.13 101.78 59.64 -21.56z"/>
   <path id="_1_1" class="fil2 str3" d="M1611.4 3337.33l-134.46 132.61c-5.68,5.6 -11.11,9.67 -16.42,12.3 -5.31,2.64 -10.32,4.17 -15.09,4.64 -4.82,0.53 -9.24,0.37 -13.34,-0.48 -4.07,-0.89 -8.02,-2.08 -11.88,-3.65 -3.41,-1.39 -7.4,-3.12 -11.93,-5.16 -4.52,-2.05 -7.44,-3.39 -8.68,-3.98l9.56 -23.52 1.8 0.73c1.25,0.66 3.1,1.62 5.65,2.92 2.55,1.24 5.85,2.68 9.87,4.31 1.89,0.77 4.15,1.59 6.78,2.4 2.68,0.83 5.29,1.18 7.83,1.05 2.99,-0.17 5.94,-0.8 8.95,-1.93 3,-1.08 6.29,-3.41 9.83,-6.98l8.45 -8.24 -9.53 -169.06 28.19 11.46 6.12 133.55 92.55 -93.43 25.75 10.46zm113.38 245.07l-33.7 -9.33 -45.09 -110.45 -16.53 -4.57 -25.19 90.99 -26.51 -7.33 54.99 -198.68 26.51 7.34 -24.81 89.63c10.53,2.53 19.49,2.21 26.96,-1.01 7.42,-3.25 14.32,-8.89 20.68,-16.98 2.71,-3.57 5.22,-6.99 7.49,-10.24 2.28,-3.3 4.18,-6.05 5.67,-8.28 9.56,-13.79 19.24,-22.38 29.12,-25.83 9.87,-3.44 22.15,-3.14 36.86,0.94l8.16 2.25 -6.5 23.5 -6.7 -1.85c-10.85,-3.01 -19.04,-2.96 -24.6,0.11 -5.52,3.08 -11.73,9.99 -18.68,20.72 -6.89,10.74 -13.38,18.21 -19.4,22.44 -6.07,4.2 -12.87,7.52 -20.44,9.92l51.71 126.71zm189.81 -118.65c-1.04,8.92 -3.62,17.13 -7.68,24.7 -4.07,7.57 -9.23,13.82 -15.41,18.76 -7.85,6.13 -16.73,10.48 -26.67,12.93 -9.9,2.47 -22.13,2.86 -36.68,1.16l-23 -2.67 -8.87 76.32 -27.33 -3.18 23.82 -204.75 51.31 5.96c12.11,1.41 22.28,3.59 30.54,6.6 8.26,3.01 15.39,7.16 21.4,12.38 6.93,6.15 12.13,13.46 15.51,21.98 3.34,8.53 4.38,18.45 3.06,29.81zm-28.53 -2.65c0.82,-7 0.31,-13.24 -1.49,-18.69 -1.84,-5.49 -5,-10.14 -9.51,-13.95 -3.99,-3.36 -8.72,-5.92 -14.27,-7.75 -5.54,-1.83 -12.57,-3.26 -21.06,-4.25l-22.39 -2.61 -9.43 81.12 18.44 2.14c10.94,1.28 19.87,1.41 26.83,0.42 6.92,-0.96 12.88,-3.51 17.91,-7.48 4.47,-3.67 7.9,-7.74 10.29,-12.37 2.39,-4.62 3.94,-10.15 4.68,-16.58zm42.37 149.46l76.97 -203.5 33.8 1.23 62.09 208.51 -29 -1.05 -16.54 -57.91 -78.87 -2.85 -20.63 56.57 -27.82 -1zm120.43 -76.8l-28.24 -97.87 -35.14 95.58 63.38 2.29zm170.21 71.56l-80.01 6.1 -1.59 -20.92 26.29 -2 -12.48 -163.71 -26.29 2.01 -1.6 -20.92 80.01 -6.1 1.59 20.92 -26.29 2 12.48 163.71 26.3 -2.01 1.59 20.92zm-15.1 -231.75l-27.43 2.09 -2.05 -26.85 27.43 -2.09 2.05 26.85zm-57.4 4.37l-27.43 2.09 -2.04 -26.85 27.43 -2.09 2.04 26.85zm279.3 192.83l-27.02 5.13 -18.83 -99.17 -92.76 17.62 18.83 99.16 -27.03 5.14 -38.46 -202.52 27.03 -5.14 15.08 79.39 92.76 -17.61 -15.08 -79.39 27.02 -5.13 38.46 202.52zm45.37 -10.41l-4.65 -217.51 31.81 -11.5 135.51 170.21 -27.29 9.86 -36.99 -47.53 -74.21 26.83 2.01 60.18 -26.19 9.46zm83.01 -116.24l-62.77 -80.22 3.13 101.78 59.64 -21.56z"/>
   <polygon class="fil1" points="1070.09,2925.73 915.22,3057.79 965.51,3116.74 944.8,3134.44 824.42,2993.27 845.13,2975.58 895.36,3034.53 1050.24,2902.47 "/>
   <path id="_1_2" class="fil1" d="M837.41 2753.47c24.56,-15.74 47.32,-21.92 68.27,-18.62 20.95,3.29 37.68,14.78 50.32,34.46 13,20.31 16.27,40.69 9.96,61.15 -6.36,20.45 -21.4,38.29 -45.1,53.46 -24.34,15.57 -47.12,21.69 -68.33,18.34 -21.15,-3.34 -37.99,-14.83 -50.52,-34.4 -12.64,-19.73 -15.96,-39.79 -10.13,-60.25 5.89,-20.46 21.09,-38.51 45.53,-54.14zm16.27 25.45c-18.83,12.05 -30.62,24.45 -35.42,37.14 -4.75,12.73 -3.04,25.43 5.06,38.17 8.16,12.77 19.04,19.69 32.64,20.74 13.59,1.05 29.8,-4.45 48.63,-16.51 18.24,-11.69 29.87,-23.98 34.84,-36.93 5.01,-12.95 3.42,-25.81 -4.75,-38.59 -8.05,-12.56 -18.93,-19.37 -32.64,-20.37 -13.65,-1 -29.75,4.46 -48.36,16.35z"/>
   <path id="_2_3" class="fil1" d="M788.04 2582.76c7.52,-3.78 14.84,-5.67 22.08,-5.7 7.2,-0.04 13.97,1.47 20.36,4.5 8.09,3.83 14.69,8.77 19.86,14.82 5.17,5.99 10.12,13.84 14.96,23.43l30.52 60.89 -154.84 77.66 -28.53 -56.91c-5.73,-11.33 -9.51,-19.86 -11.51,-25.48 -1.94,-5.61 -2.77,-11.76 -2.48,-18.37 0.22,-6.93 2.1,-12.91 5.71,-17.98 3.61,-5.01 8.81,-9.23 15.54,-12.66 7.42,-3.67 15.04,-4.97 22.97,-3.9 7.88,1.14 15.13,4.23 21.72,9.38l0.65 -1.16c-2.1,-9.48 -1.33,-18.63 2.3,-27.51 3.62,-8.94 10.52,-15.91 20.69,-21.01zm-50.68 69.18c-3.5,1.74 -6.25,3.85 -8.22,6.28 -2.02,2.42 -3.03,5.43 -3.09,9.04 -0.07,4.18 0.72,8.41 2.45,12.65 1.74,4.24 4.42,9.96 8.05,17.22l12.36 24.64 42.29 -21.21 -14.94 -29.72c-3.16,-6.3 -5.74,-10.66 -7.63,-13.04 -1.96,-2.34 -4.71,-4.67 -8.25,-6.9 -3.32,-2.08 -6.92,-2.99 -10.68,-2.73 -3.8,0.31 -7.88,1.56 -12.34,3.77zm64.21 -42.15c-5.25,2.63 -9.13,5.53 -11.52,8.65 -2.43,3.11 -3.61,7.87 -3.52,14.22 0.04,4.03 0.82,7.94 2.29,11.81 1.47,3.87 3.84,9.06 7.1,15.58l15.32 30.47 50.55 -25.37 -11.32 -22.47c-4.63,-9.27 -8.63,-16.32 -11.95,-21.09 -3.32,-4.77 -7.02,-8.44 -11.03,-10.99 -4.38,-2.66 -8.56,-4.09 -12.53,-4.26 -4.02,-0.18 -8.47,0.98 -13.39,3.45z"/>
   <path id="_3_4" class="fil1" d="M753.17 2452.73l-45.34 15.64c2.81,6.3 6.46,14.29 10.97,23.96 4.45,9.64 8.69,17.2 12.67,22.7 4.75,6.56 10.27,11.37 16.56,14.6 6.25,3.16 13.56,3.31 21.81,0.46 9.36,-3.25 15.55,-8.32 18.51,-15.21 2.96,-6.93 2.69,-15.45 -0.81,-25.61 -3.03,-8.68 -7.58,-15.87 -13.78,-21.58 -6.15,-5.7 -13.03,-10.73 -20.59,-14.96zm22.85 -7.91c2.43,1.7 5.77,3.87 10.05,6.62 4.29,2.75 7.9,5.54 10.86,8.46 4.24,4.01 7.79,8.03 10.75,12.1 2.91,4.07 5.83,10.22 8.63,18.41 2.34,6.78 3.3,13.6 2.83,20.53 -0.47,6.94 -2.21,13.5 -5.22,19.64 -2.96,5.98 -7.29,11.38 -13.01,16.31 -5.65,4.92 -12.16,8.63 -19.52,11.18 -11.37,3.92 -21.85,4.83 -31.43,2.83 -9.63,-2.06 -18.57,-7.45 -26.84,-16.18 -7.41,-7.71 -14.03,-17.55 -19.97,-29.51 -5.94,-11.9 -11.77,-24.97 -17.55,-39.2l-5.33 1.85c-6.46,2.23 -11.38,5.04 -14.72,8.38 -3.27,3.33 -5.44,7.1 -6.38,11.38 -1.06,4.29 -1.06,9.1 -0.05,14.45 1.01,5.34 2.44,10.69 4.3,16.03 2.23,6.35 5.78,13.49 10.7,21.42 4.93,7.94 10.71,15.55 17.38,22.85l0.53 1.58 -28.03 9.71c-3.24,-4.55 -7.37,-11.31 -12.41,-20.21 -5.03,-8.88 -9.17,-17.92 -12.35,-27.24 -3.87,-11.26 -6.31,-21.05 -7.21,-29.41 -0.91,-8.31 -0.13,-16.36 2.36,-24.13 2.42,-7.52 6.71,-13.98 12.84,-19.38 6.14,-5.4 14.33,-9.85 24.6,-13.4l112.15 -38.73 9.54 27.62 -17.5 6.04z"/>
   <path id="_4_5" class="fil1" d="M655.97 2245.46c28.35,-5.29 52.22,-2.72 71.54,7.76 19.38,10.42 31,26.07 34.92,46.85 1.58,8.46 1.99,16.13 1.29,23.01 -0.71,6.89 -2.42,14.15 -5.23,21.72l71.2 -13.34 5.34 28.54 -232.81 43.6 -5.34 -28.56 17.82 -3.32c-7.76,-5.94 -14.63,-12.83 -20.54,-20.74 -5.97,-7.9 -9.89,-16.98 -11.84,-27.29 -3.65,-19.56 1.23,-36.31 14.6,-50.14 13.36,-13.83 33.05,-23.19 59.05,-28.09zm8.79 28.89c-19.4,3.65 -33.92,9.61 -43.46,17.81 -9.53,8.24 -13.02,19.38 -10.4,33.33 1.52,8.2 4.8,15.75 9.86,22.66 5.01,6.95 11.03,13.32 17.99,19.1l96.47 -18.08c2.24,-8.28 3.52,-15.16 3.86,-20.77 0.29,-5.61 -0.16,-11.9 -1.47,-18.83 -2.79,-14.91 -10.4,-25.5 -22.82,-31.74 -12.43,-6.22 -29.1,-7.4 -50.03,-3.48z"/>
   <polygon id="_5_6" class="fil1" points="731.92,2062.26 734.33,2091.45 605.59,2101.93 740.85,2172.01 743.03,2198.72 570.38,2212.74 568.04,2183.54 694.76,2173.24 561.52,2103.93 559.29,2076.27 "/>
   <path id="_6_7" class="fil1" d="M743.73 1951.73c-0.97,11.85 -3.69,22.62 -8.19,32.23 -4.46,9.55 -10.7,17.61 -18.72,24.12 -7.98,6.51 -17.8,11.27 -29.36,14.21 -11.61,3 -24.99,3.88 -40.23,2.62 -15.13,-1.26 -28.02,-4.41 -38.68,-9.39 -10.71,-4.99 -19.51,-11.19 -26.45,-18.63 -6.94,-7.4 -12.01,-16.38 -15.23,-26.88 -3.22,-10.49 -4.37,-21.61 -3.4,-33.25 0.8,-9.52 2.92,-18.55 6.3,-27.16 3.4,-8.61 7.14,-16.21 11.2,-22.8l32.42 2.69 -0.11 1.7c-1.86,1.94 -4.1,4.42 -6.55,7.52 -2.5,3.06 -5.13,6.85 -7.85,11.28 -2.36,3.9 -4.5,8.49 -6.48,13.88 -1.94,5.33 -3.14,10.56 -3.6,15.64 -1.25,15.13 3.43,27.7 14.01,37.81 10.52,10.13 26.2,16.04 46.88,17.76 20.31,1.65 36.47,-1.42 48.53,-9.34 12.06,-7.92 18.75,-19.73 20.06,-35.49 0.8,-9.53 -0.36,-18.74 -3.49,-27.64 -3.11,-8.91 -7.45,-16.93 -12.97,-24.06l0.12 -1.69 32.47 2.69c1.1,2.97 2.4,6.73 3.96,11.24 1.56,4.45 2.64,8.54 3.25,12.08 1.03,5.09 1.75,9.59 2.19,13.62 0.46,3.96 0.43,9.05 -0.08,15.24z"/>
   <polygon id="_7_8" class="fil1" points="624.43,1722.5 613.54,1780.22 758.49,1807.62 753.09,1836.17 608.14,1808.78 597.2,1866.5 572.14,1861.76 599.37,1717.76 "/>
   <path id="_8_9" class="fil1" d="M760.41 1583.66c8.06,2.24 14.8,5.76 20.16,10.61 5.43,4.79 9.42,10.48 12.15,17.03 3.42,8.18 4.99,16.27 4.77,24.21 -0.18,7.94 -1.73,17.05 -4.64,27.39l-18.17 65.49 -166.9 -46.38 16.97 -61.21c3.43,-12.23 6.3,-21.09 8.61,-26.55 2.3,-5.46 5.82,-10.55 10.4,-15.28 4.85,-5 10.29,-8.14 16.31,-9.44 6.08,-1.35 12.7,-0.96 19.96,1.01 7.95,2.24 14.47,6.39 19.58,12.51 5.11,6.12 8.37,13.3 9.84,21.49l1.26 -0.43c4.78,-8.38 11.52,-14.65 20.19,-18.82 8.71,-4.12 18.54,-4.7 29.51,-1.63zm-83.95 17.06c-3.76,-1.03 -7.26,-1.33 -10.32,-0.84 -3.12,0.43 -5.92,1.97 -8.34,4.64 -2.9,3.02 -5.1,6.68 -6.67,10.98 -1.56,4.35 -3.44,10.38 -5.63,18.23l-7.4 26.54 45.47 12.66 8.9 -32.06c1.93,-6.83 2.96,-11.77 3.1,-14.83 0.15,-3.07 -0.34,-6.61 -1.47,-10.63 -1.03,-3.81 -3.1,-6.92 -6.08,-9.23 -2.97,-2.32 -6.85,-4.16 -11.56,-5.46zm75.88 11.88c-5.66,-1.62 -10.48,-2.07 -14.4,-1.37 -3.85,0.66 -7.91,3.43 -12.18,8.22 -2.68,3.02 -4.73,6.41 -6.25,10.29 -1.51,3.87 -3.23,9.28 -5.16,16.32l-9.17 32.84 54.69 15.21 6.76 -24.22c2.76,-10.01 4.53,-17.9 5.29,-23.67 0.72,-5.77 0.43,-10.96 -0.86,-15.61 -1.4,-4.86 -3.59,-8.77 -6.46,-11.56 -2.87,-2.84 -6.95,-5 -12.26,-6.45z"/>
   <path id="_9_10" class="fil1" d="M805.09 1403.89c26.52,12.11 44.08,27.89 52.69,47.29 8.6,19.41 8.05,39.72 -1.66,61.01 -10.04,21.98 -25.38,35.83 -45.98,41.63 -20.67,5.74 -43.79,2.8 -69.41,-8.89 -26.35,-12.01 -43.86,-27.79 -52.52,-47.39 -8.65,-19.62 -8.15,-40.04 1.51,-61.22 9.71,-21.3 24.73,-35.05 45.13,-41.22 20.4,-6.16 43.77,-3.27 70.24,8.79zm-12.43 27.26c-20.33,-9.24 -37.16,-12.42 -50.44,-9.46 -13.3,2.97 -23.07,11.35 -29.37,25.19 -6.35,13.89 -6.29,26.86 0.17,38.9 6.47,11.97 19.82,22.66 40.15,31.89 19.65,8.97 36.31,12.05 49.92,9.13 13.56,-2.85 23.54,-11.23 29.89,-25.17 6.24,-13.69 6.08,-26.6 -0.44,-38.63 -6.56,-12.1 -19.86,-22.67 -39.88,-31.85z"/>
   <path id="_10_11" class="fil1" d="M978.3 1207.98c7.84,5.73 13.24,12.23 16.19,19.61 2.97,7.37 4.07,14.9 3.37,22.52 -0.58,7.34 -2.5,14.84 -5.74,22.44 -3.18,7.59 -7.15,14.65 -11.91,21.18 -6.64,9.2 -13.84,17.25 -21.57,24.12 -7.73,6.87 -16.5,12.93 -26.29,18.21l-25.99 -18.84 1.07 -1.52c9.28,-1.89 18.52,-6.06 27.68,-12.44 9.19,-6.33 16.87,-13.78 23.03,-22.25 2.67,-3.69 5.14,-7.9 7.4,-12.69 2.26,-4.75 3.62,-9.24 4.07,-13.31 0.43,-5.55 -0.07,-10.06 -1.58,-13.61 -1.45,-3.56 -4.5,-7.02 -9.18,-10.39 -4.94,-3.64 -9.63,-5.59 -14.02,-5.94 -4.4,-0.29 -8.53,0.57 -12.36,2.77 -3.83,2.13 -7.39,5.07 -10.7,8.8 -3.26,3.78 -6.57,7.88 -9.78,12.36l-11.94 16.41 -20.52 -14.87 9.1 -12.53c2.24,-3.15 5.03,-7.15 8.18,-11.99 3.22,-4.85 5.32,-9.12 6.25,-12.71 1.25,-4.54 1.39,-8.78 0.47,-12.69 -0.92,-3.98 -4.33,-8.09 -10.23,-12.36 -4.15,-2.99 -8.1,-4.51 -11.97,-4.49 -3.86,-0.03 -7.46,0.84 -10.92,2.56 -3.56,1.72 -6.8,4.02 -9.74,6.97 -2.98,2.88 -5.55,5.88 -7.79,8.98 -5.73,7.89 -10.08,16.27 -13.07,25.19 -2.97,8.92 -4.1,17.64 -3.43,26.11l-1.07 1.47 -25.57 -18.51c2.28,-7.49 5.25,-15.51 8.97,-23.95 3.66,-8.44 8.17,-16.34 13.53,-23.66 4.28,-5.94 9.24,-11.51 14.89,-16.75 5.65,-5.25 11.99,-9.59 18.89,-12.92 6.59,-3.13 13.64,-4.61 21.15,-4.5 7.51,0.12 14.91,2.77 22.11,7.96 7.58,5.56 12.71,12.54 15.34,20.97 2.63,8.44 2.3,16.84 -0.94,25.23l0.89 0.65c8.3,-5.86 17.01,-9.24 26.12,-10.22 9.11,-0.98 18.35,1.89 27.61,8.63z"/>
   <path id="_11_12" class="fil1" d="M1147.22 977.33c19.87,21.29 30.07,42.54 30.58,63.71 0.5,21.23 -7.8,39.79 -24.87,55.73 -17.65,16.46 -37.08,23.45 -58.34,20.89 -21.3,-2.52 -41.47,-14.07 -60.66,-34.6 -19.67,-21.12 -29.81,-42.38 -30.32,-63.81 -0.5,-21.39 7.75,-40.05 24.76,-55.94 17.13,-15.95 36.29,-22.88 57.44,-20.84 21.15,2.08 41.64,13.68 61.41,34.86zm-22.08 20.61c-15.21,-16.27 -29.47,-25.59 -42.84,-27.99 -13.38,-2.33 -25.57,1.64 -36.56,11.92 -11.15,10.38 -16.02,22.31 -14.59,35.86 1.36,13.51 9.64,28.45 24.85,44.71 14.75,15.79 28.9,24.97 42.53,27.51 13.58,2.55 25.94,-1.36 37.09,-11.75 10.94,-10.22 15.7,-22.15 14.23,-35.7 -1.48,-13.61 -9.72,-28.45 -24.71,-44.56z"/>
   <path id="_12_13" class="fil1" d="M1243.56 828.9c9.42,1.67 18.7,5.72 27.76,12.14 9.12,6.39 17.66,15.25 25.69,26.56 7.64,10.93 13.08,22.18 16.12,33.87 3.05,11.69 3.88,22.8 2.48,33.28 -1.46,10.9 -4.71,20.65 -9.71,29.18 -5.05,8.54 -11.92,15.91 -20.63,22.07 -8.82,6.27 -18.07,10.47 -27.64,12.62 -9.57,2.14 -19.2,1.85 -29,-0.82 -12.18,-3.4 -24.11,-10.04 -35.88,-19.8 -11.77,-9.75 -23.98,-23.48 -36.58,-41.27 -4.45,-6.34 -8.71,-12.94 -12.81,-19.92 -4.04,-6.91 -8.34,-15.58 -12.98,-26 -3.99,-9.3 -7.04,-18.45 -9.07,-27.38 -2.04,-8.99 -2.43,-17.56 -1.18,-25.66 1.55,-10.49 5.92,-20.98 12.98,-31.53 7.01,-10.55 18.04,-22.22 33.03,-34.95 5.28,-4.52 11.03,-9.3 17.16,-14.29 6.12,-5.05 10.82,-8.92 13.99,-11.52l15.72 22.18c-4.22,3.35 -8.71,6.96 -13.46,10.88 -4.7,3.88 -10.09,8.39 -16.21,13.43 -8.08,6.7 -15.94,14.5 -23.59,23.41 -7.7,8.86 -12.17,17.39 -13.52,25.6 -1,6.14 -0.18,13.27 2.44,21.47 2.62,8.2 6.39,16.7 11.34,25.48 3.1,-8.9 7.15,-17.38 12.1,-25.54 4.95,-8.11 11.6,-15.12 19.84,-20.96 7.71,-5.42 15.95,-9.3 24.68,-11.66 8.71,-2.3 17.71,-2.58 26.93,-0.87zm30.69 57.01c-10.53,-14.94 -22.02,-23.96 -34.48,-27.1 -12.38,-3.19 -24.92,-0.3 -37.49,8.58 -6.86,4.88 -12.77,10.72 -17.67,17.45 -4.91,6.79 -8.91,14 -12.01,21.73 1.33,2.22 2.92,4.81 4.83,7.87 1.87,3.01 3.62,5.71 5.32,8.03 10.36,14.63 19.92,25.71 28.83,33.2 8.86,7.49 17.23,12.34 25.18,14.54 7.14,1.99 13.5,2.4 18.99,1.22 5.55,-1.18 10.84,-3.58 15.86,-7.09 12.2,-8.66 18.51,-20 18.85,-33.91 0.33,-13.92 -5.05,-28.78 -16.21,-44.52z"/>
   <polygon id="_13_14" class="fil1" points="1515,847.72 1488.93,860.82 1427.89,739.1 1430.53,836.79 1411.19,846.47 1334.73,785.83 1395.77,907.55 1371.29,919.81 1293.63,764.97 1325.16,749.18 1408.94,814.77 1405.06,709.09 1437.34,692.87 "/>
   <path id="_14" class="fil1" d="M1625.51 809.79c-26.08,9.02 -48.89,8.66 -68.37,-1.06 -19.48,-9.68 -33.88,-28.03 -43.15,-55.07 -9.23,-26.6 -9.51,-50.21 -1,-70.8 8.56,-20.54 24.17,-34.72 46.75,-42.52 10.15,-3.55 19.68,-5.15 28.52,-4.94 8.84,0.21 17.25,2.48 25.24,6.71 8.04,4.17 15.2,10.3 21.45,18.24 6.25,7.94 11.6,18.46 16.1,31.53l5.2 14.98 -113.64 39.17c6.51,18.94 16.31,31.79 29.33,38.45 13.03,6.72 28,7.12 44.93,1.29 6.08,-2.06 11.8,-4.82 17.14,-8.15 5.35,-3.39 10,-6.94 13.91,-10.7 4.24,-3.97 7.72,-7.58 10.42,-10.86 2.7,-3.28 4.87,-6.19 6.45,-8.83l1.64 -0.54 10.34 30c-2.75,2.38 -6.24,5.35 -10.37,8.95 -4.12,3.55 -7.93,6.52 -11.37,8.9 -4.87,3.34 -9.36,6.08 -13.43,8.42 -4.08,2.27 -9.42,4.55 -16.09,6.83zm-3.19 -114.71c-2.76,-7.37 -5.83,-13.45 -9.27,-18.26 -3.4,-4.81 -7.2,-8.57 -11.44,-11.26 -4.66,-3.02 -9.89,-4.7 -15.67,-5.07 -5.82,-0.43 -12.43,0.64 -19.89,3.23 -7.35,2.55 -13.22,5.78 -17.61,9.75 -4.39,3.97 -7.98,8.8 -10.74,14.45 -2.64,5.73 -4.17,11.55 -4.49,17.53 -0.36,5.97 0.33,12.54 2.13,19.63l86.98 -30z"/>
   <path id="_15" class="fil1" d="M1917.96 736.29l-34.57 6.48 -68.1 -68 -10.89 2.01 14.6 78.03 -28.55 5.4 -14.6 -78.03 -10.94 2.01 -40.33 88.33 -33.09 6.22 47.72 -100.97c-5.35,-1.71 -10.45,-4.76 -15.19,-9.07 -4.72,-4.37 -9.58,-11.01 -14.55,-19.92 -4.48,-8.13 -8.96,-13.4 -13.37,-15.97 -4.35,-2.52 -10.86,-2.96 -19.43,-1.37l-6.6 1.25 -4.69 -25.05 7.77 -1.48c12.53,-2.34 23.28,-1.71 32.34,1.89 9.07,3.6 17.11,11.29 24.1,23.1 1.44,2.48 3.15,5.28 5.18,8.38 2.03,3.17 3.79,5.81 5.23,7.97 4.85,7.06 9.86,11.9 14.95,14.52 5.14,2.62 11.02,3.49 17.64,2.71l-13.96 -74.53 28.55 -5.4 13.95 74.54c6.4,-1.68 11.57,-4.72 15.51,-9.03 3.99,-4.31 6.87,-10.62 8.63,-18.83 0.61,-2.76 1.29,-5.93 2.06,-9.54 0.72,-3.59 1.24,-6.78 1.54,-9.48 2.1,-13.35 6.65,-23.32 13.6,-29.97 6.95,-6.65 16.81,-11.15 29.5,-13.54l7.82 -1.47 4.69 25.05 -6.55 1.25c-8.03,1.47 -13.74,4.2 -17.16,8.14 -3.41,3.93 -5.65,10.51 -6.72,19.78 -1.16,9.37 -3.19,16.94 -6.12,22.78 -2.93,5.79 -6.45,10.46 -10.61,13.98l80.64 77.83z"/>
   <path id="_16" class="fil1" d="M2015.8 740.16c-27.63,0.62 -49.27,-6.71 -64.89,-21.89 -15.62,-15.18 -23.74,-37.09 -24.35,-65.62 -0.62,-28.15 6.3,-50.76 20.75,-67.71 14.45,-16.99 33.6,-25.71 57.53,-26.25 10.8,-0.24 20.37,1.08 28.71,4.05 8.34,2.91 15.72,7.61 22.03,14.05 6.36,6.5 11.33,14.48 14.83,23.97 3.53,9.44 5.41,21.09 5.74,34.96l0.33 15.78 -120.35 2.61c0.45,20.06 5.86,35.28 16.22,45.67 10.41,10.38 24.56,15.39 42.55,14.98 6.4,-0.11 12.71,-0.97 18.86,-2.58 6.1,-1.54 11.66,-3.52 16.6,-5.92 5.26,-2.52 9.66,-4.92 13.22,-7.22 3.56,-2.31 6.54,-4.46 8.88,-6.45l1.74 -0.05 0.65 31.81c-3.4,1.41 -7.59,3.18 -12.63,5.32 -5.03,2.08 -9.55,3.8 -13.58,5 -5.67,1.65 -10.76,2.93 -15.37,3.92 -4.61,0.92 -10.43,1.41 -17.47,1.57zm31.93 -110.28c-0.38,-7.83 -1.45,-14.57 -3.21,-20.19 -1.81,-5.67 -4.33,-10.4 -7.48,-14.22 -3.57,-4.26 -8,-7.47 -13.43,-9.61 -5.38,-2.16 -12.04,-3.15 -19.93,-2.99 -7.78,0.16 -14.35,1.45 -19.76,3.89 -5.41,2.46 -10.3,5.92 -14.68,10.44 -4.26,4.63 -7.46,9.74 -9.67,15.34 -2.16,5.54 -3.46,11.99 -3.93,19.35l92.09 -2.01z"/>
   <polygon id="_17" class="fil1" points="2243.71,747.32 2214.83,744.91 2221.24,667.8 2142.86,661.28 2136.45,738.39 2107.57,735.99 2121.94,563.67 2150.82,566.07 2144.98,635.89 2223.37,642.42 2229.2,572.6 2258.07,575 "/>
   <path id="_18" class="fil1" d="M2443.55 702.98c-6.64,28.41 -18.56,48.71 -35.88,60.98 -17.26,12.26 -37.26,15.73 -59.96,10.43 -23.44,-5.48 -39.99,-17.77 -49.66,-36.83 -9.73,-19.11 -11.34,-42.34 -4.97,-69.75 6.59,-28.2 18.63,-48.46 36.09,-60.87 17.48,-12.37 37.54,-15.9 60.13,-10.64 22.75,5.31 39.09,17.35 49.13,36.09 10.03,18.79 11.76,42.29 5.12,70.59zm-29.21 -6.86c5.1,-21.74 4.91,-38.83 -0.58,-51.27 -5.45,-12.39 -15.54,-20.34 -30.25,-23.79 -14.77,-3.45 -27.41,-0.82 -37.9,7.91 -10.42,8.67 -18.23,23.9 -23.32,45.69 -4.89,21.01 -4.64,37.95 0.8,50.7 5.5,12.7 15.6,20.81 30.41,24.27 14.6,3.39 27.09,0.7 37.62,-8.07 10.5,-8.82 18.23,-23.96 23.22,-45.44z"/>
   <path id="_19" class="fil1" d="M2682.25 791.69c-10.6,27.05 -25.31,45.44 -44.15,55.18 -18.84,9.68 -38.94,10.37 -60.42,1.97 -21.05,-8.24 -34.99,-21.77 -41.93,-40.51 -6.87,-18.8 -6.2,-40.45 2.14,-64.99l-28.64 -11.23 -28.81 73.51 -27.04 -10.59 63.19 -161.33 27.05 10.59 -25.83 65.87 29.22 11.42c10.83,-21.12 24.88,-35.48 42.15,-43.04 17.26,-7.61 35.67,-7.61 55.19,0.07 22.59,8.82 37.07,23.4 43.53,43.68 6.41,20.29 4.53,43.42 -5.65,69.4zm-28.01 -10.96c8.05,-20.57 10.33,-37.46 6.82,-50.67 -3.52,-13.21 -12.09,-22.54 -25.82,-27.85 -13.89,-5.49 -26.64,-4.47 -38.25,2.96 -11.55,7.42 -21.31,21.28 -29.29,41.65 -7.94,20.15 -10.12,36.94 -6.6,50.31 3.46,13.42 12.13,22.79 25.93,28.21 13.68,5.33 26.32,4.47 37.76,-2.74 11.5,-7.16 21.32,-21.13 29.45,-41.87z"/>
   <path id="_20" class="fil1" d="M2901.09 979.16c-4.93,6.8 -10.58,11.83 -16.95,15.22 -6.43,3.33 -13.11,5.14 -20.21,5.39 -8.89,0.36 -17.03,-0.98 -24.42,-3.94 -7.32,-2.97 -15.33,-7.64 -24.07,-13.95l-55.03 -39.92 101.66 -140.17 51.46 37.29c10.26,7.49 17.56,13.27 21.87,17.32 4.3,4.11 7.86,9.11 10.67,15.12 3.03,6.26 4.08,12.42 3.19,18.55 -0.84,6.12 -3.54,12.24 -7.92,18.35 -4.87,6.68 -11.05,11.34 -18.53,13.98 -7.53,2.64 -15.37,3.21 -23.52,1.67l0 1.32c6.19,7.46 9.66,15.95 10.54,25.54 0.88,9.59 -2.05,18.98 -8.74,28.23zm13.21 -84.66c2.3,-3.17 3.81,-6.27 4.41,-9.34 0.66,-3.11 0.21,-6.24 -1.4,-9.43 -1.83,-3.77 -4.5,-7.13 -7.97,-10.06 -3.47,-2.99 -8.52,-6.85 -15.04,-11.6l-22.31 -16.16 -27.66 38.2 26.83 19.47c5.74,4.18 10,6.86 12.8,8.04 2.79,1.24 6.28,2.01 10.46,2.36 3.96,0.3 7.52,-0.52 10.71,-2.51 3.25,-1.98 6.29,-4.98 9.17,-8.97zm-37.47 66.96c3.48,-4.79 5.58,-9.16 6.3,-13.02 0.77,-3.91 -0.36,-8.68 -3.38,-14.37 -1.88,-3.51 -4.34,-6.65 -7.44,-9.43 -3.1,-2.71 -7.57,-6.25 -13.47,-10.52l-27.57 -20.02 -33.43 46.09 20.31 14.77c8.41,6.1 15.2,10.49 20.32,13.19 5.16,2.68 10.13,4.25 14.93,4.65 5.08,0.32 9.43,-0.34 13.1,-2.05 3.66,-1.73 7.07,-4.82 10.33,-9.29z"/>
   <path id="_21" class="fil1" d="M2916.4 1060.73l-21.99 -18.84 112.58 -131.65 22 18.84 -112.59 131.65zm133.28 -152.01l-25.18 -21.53 19.64 -22.95 25.18 21.53 -19.64 22.95z"/>
   <path id="_22" class="fil1" d="M3020.56 1225.32l-18.52 -19.84 30.4 -28.38 -77.92 -83.53 -30.41 28.38 -18.51 -19.85 48.32 -45.1 7.77 8.32c18.55,-3.75 39.47,-12.21 62.76,-25.35 23.29,-13.13 46.19,-30.19 68.75,-51.22l72.53 77.77 -108.49 101.22 11.64 12.47 -48.32 45.11zm16.69 -79.03l90.58 -84.49 -33.78 -36.16c-19.77,16.67 -39.41,30.15 -58.92,40.57 -19.45,10.42 -37.29,17.25 -53.42,20.56l55.54 59.52z"/>
   <polygon id="_23" class="fil1" points="3151.18,1328.37 3134.16,1304.65 3254.32,1218.56 3208.55,1154.68 3088.39,1240.78 3071.37,1217.06 3212.09,1116.25 3291.89,1227.55 "/>
   <path id="_24" class="fil1" d="M3318.95 1444.51c-25.22,14.57 -48.19,19.78 -68.93,15.52 -20.75,-4.22 -37.01,-16.42 -48.68,-36.63 -12.07,-20.89 -14.48,-41.36 -7.25,-61.48 7.28,-20.17 23.04,-37.23 47.37,-51.33 25.01,-14.46 48.02,-19.56 68.98,-15.3 20.96,4.32 37.28,16.53 48.93,36.62 11.66,20.25 14.17,40.42 7.37,60.59 -6.75,20.16 -22.67,37.48 -47.79,52.01zm-15.06 -26.02c19.31,-11.18 31.63,-23 36.96,-35.55 5.28,-12.5 4.16,-25.29 -3.37,-38.36 -7.63,-13.11 -18.17,-20.56 -31.72,-22.19 -13.5,-1.68 -29.95,3.04 -49.26,14.23 -18.71,10.82 -30.82,22.57 -36.37,35.28 -5.54,12.76 -4.52,25.66 3.11,38.83 7.48,12.96 18.07,20.26 31.67,21.88 13.6,1.63 29.9,-3.1 48.98,-14.12z"/>
   <path id="_25" class="fil1" d="M3352.36 1623.58c-7.81,3.12 -15.32,4.37 -22.51,3.78 -7.21,-0.59 -13.83,-2.67 -19.94,-6.24 -7.7,-4.5 -13.82,-9.96 -18.46,-16.4 -4.63,-6.49 -8.92,-14.66 -12.83,-24.64l-25.07 -63.2 160.92 -63.77 23.41 59.03c4.72,11.82 7.79,20.58 9.2,26.34 1.46,5.77 1.76,11.95 0.95,18.53 -0.8,6.88 -3.26,12.66 -7.26,17.34 -3.99,4.73 -9.52,8.47 -16.49,11.2 -7.72,3.06 -15.44,3.69 -23.18,1.88 -7.73,-1.81 -14.68,-5.58 -20.75,-11.26l-0.68 1.12c1.22,9.57 -0.37,18.63 -4.77,27.17 -4.45,8.54 -11.92,14.94 -22.54,19.12zm56.48 -64.13c3.64,-1.46 6.54,-3.32 8.75,-5.56 2.15,-2.23 3.46,-5.15 3.81,-8.75 0.45,-4.18 -0.05,-8.41 -1.4,-12.85 -1.34,-4.38 -3.5,-10.35 -6.5,-17.9l-10.2 -25.72 -43.71 17.35 12.29 30.99c2.63,6.6 4.77,11.19 6.48,13.72 1.76,2.53 4.26,5.06 7.6,7.63 3.14,2.42 6.64,3.61 10.4,3.7 3.76,0.03 7.93,-0.84 12.48,-2.61zm-67.38 36.21c5.49,-2.16 9.6,-4.72 12.29,-7.59 2.74,-2.93 4.3,-7.59 4.79,-14 0.35,-3.97 -0.1,-7.98 -1.23,-11.95 -1.14,-4.01 -3.01,-9.4 -5.76,-16.21l-12.56 -31.73 -52.91 20.98 9.29 23.4c3.82,9.66 7.19,17.05 10.07,22.11 2.95,5.06 6.3,9.07 10.13,11.96 4.15,3.04 8.18,4.82 12.2,5.32 3.98,0.51 8.57,-0.25 13.69,-2.29z"/>
   <path id="_26" class="fil1" d="M3317.97 1701.97l-7.76 -27.97 166.9 -46.08 7.76 27.97 -166.9 46.08zm195.18 -51.51l-8.91 -32.11 29.25 -8.06 8.9 32.1 -29.24 8.07z"/>
   <path id="_27" class="fil1" d="M3317.18 1896.48l-4.95 -26.65 41.23 -7.74 -20.98 -111.96 -41.23 7.73 -5.01 -26.64 65.35 -12.25 2.17 11.41c17.6,6.73 39.75,10.74 66.43,12.13 26.67,1.39 55.08,-0.77 85.31,-6.38l19.51 104.03 -145.59 27.24 3.11 16.82 -65.35 12.26zm56.9 -57.62l121.48 -22.78 -9.09 -48.52c-25.59,3.47 -49.41,4.29 -71.38,2.55 -22.02,-1.68 -40.67,-5.55 -56.05,-11.5l15.04 80.25z"/>
   <path id="_28" class="fil1" d="M3408.9 2010.61l47.66 -3.9c-1.22,-6.87 -2.74,-15.49 -4.72,-25.95 -1.92,-10.47 -4.08,-18.87 -6.56,-25.15 -3.01,-7.54 -7.12,-13.61 -12.39,-18.28 -5.27,-4.62 -12.21,-6.59 -20.94,-5.91 -9.79,0.81 -16.96,4.18 -21.52,10.14 -4.57,5.95 -6.42,14.33 -5.51,25.01 0.74,9.15 3.34,17.29 7.88,24.35 4.54,7.12 9.87,13.64 16.1,19.69zm-24.06 1.95c-1.98,-2.21 -4.69,-5.21 -8.15,-8.9 -3.47,-3.68 -6.25,-7.3 -8.43,-10.84 -3.11,-4.96 -5.57,-9.75 -7.4,-14.4 -1.82,-4.64 -3.08,-11.31 -3.77,-19.93 -0.57,-7.09 0.23,-13.92 2.35,-20.55 2.19,-6.57 5.48,-12.46 9.95,-17.67 4.36,-5.06 9.89,-9.22 16.59,-12.55 6.76,-3.38 13.99,-5.32 21.71,-5.96 11.95,-0.97 22.34,0.71 31.15,5.05 8.76,4.33 16.11,11.81 21.94,22.29 5.19,9.29 9.23,20.43 11.96,33.43 2.78,13.05 5.2,27.12 7.3,42.24l5.56 -0.41c6.87,-0.57 12.26,-2.03 16.32,-4.44 4,-2.41 7,-5.55 8.98,-9.43 2.1,-3.92 3.29,-8.59 3.67,-13.99 0.34,-5.4 0.26,-10.96 -0.2,-16.61 -0.52,-6.67 -2.21,-14.43 -5.02,-23.3 -2.8,-8.94 -6.51,-17.69 -11.17,-26.45l-0.12 -1.69 29.51 -2.41c2,5.23 4.32,12.78 7.02,22.6 2.66,9.88 4.41,19.72 5.22,29.5 0.92,11.85 0.82,21.95 -0.34,30.22 -1.22,8.31 -3.98,15.9 -8.28,22.81 -4.24,6.69 -9.97,11.86 -17.25,15.56 -7.23,3.75 -16.31,6.02 -27.11,6.89l-118.05 9.63 -2.35 -29.2 18.41 -1.49z"/>
   <path id="_29" class="fil1" d="M3354.62 2217.98l2.4 -28.88 147.88 12.3 4.98 -59.34c-8.52,-1.01 -16.66,-2.01 -24.49,-2.96 -7.82,-0.95 -14.91,-1.89 -21.25,-2.72 -16.02,-1.96 -29.45,-4.16 -40.18,-6.56 -10.78,-2.39 -19.34,-4.98 -25.72,-7.83 -6.55,-2.79 -11.66,-5.74 -15.18,-8.82 -3.58,-3.04 -6.79,-6.4 -9.58,-10.07 -2.78,-3.77 -4.77,-7.7 -6,-11.89 -1.2,-4.13 -1.59,-8.74 -1.13,-13.82 0.11,-1.63 0.33,-3.75 0.67,-6.29 0.33,-2.59 0.5,-4.39 0.61,-5.44l25.39 2.11 -0.12 1.59c-0.05,0.69 -0.22,1.43 -0.38,2.22 -0.16,0.74 -0.27,1.64 -0.38,2.69 -0.18,2.49 -0.04,4.93 0.48,7.36 0.52,2.44 1.66,4.67 3.45,6.69 4.62,5.59 13.11,10.09 25.47,13.5 12.37,3.41 29.8,6.58 52.28,9.48 8.35,1.11 18.29,2.34 29.72,3.68 11.47,1.28 22.42,2.57 32.84,3.75l-9.45 113.61 -172.31 -14.36z"/>
   <path id="_30" class="fil1" d="M3373.26 2400.24c-8.15,-1.92 -15.12,-5.31 -21,-10.13 -5.87,-4.82 -10.2,-10.49 -13.05,-17.1 -3.43,-7.84 -5.38,-15.72 -5.69,-23.77 -0.37,-8.04 0.85,-17.99 3.62,-29.84l13.76 -58.99 168.55 39.36 -6.58 28.26 -65.71 -15.35 -7.34 31.43c-2.97,12.69 -5.94,22.37 -8.85,29.04 -2.98,6.71 -7.8,12.9 -14.57,18.66 -5.67,4.86 -12.23,7.93 -19.64,9.3 -7.41,1.31 -15.24,1.04 -23.5,-0.87zm6.53 -29.31c5.14,1.22 9.79,1.39 14.08,0.48 4.29,-0.83 8.1,-3.01 11.44,-6.49 3.49,-3.65 6.09,-8.1 7.9,-13.38 1.74,-5.23 3.81,-12.97 6.15,-23.02l4.94 -21.16 -57.14 -13.33 -4.77 20.52c-2.4,10.11 -3.78,18 -4.21,23.76 -0.48,5.72 0.04,10.9 1.52,15.51 1.64,4.71 4.02,8.47 7.13,11.12 3.12,2.7 7.46,4.72 12.96,5.99z"/>
   <polygon id="_31" class="fil1" points="3272.11,2544.99 3281.23,2517.3 3355.07,2541.54 3379.51,2467.06 3305.67,2442.83 3314.79,2415.14 3479.33,2469.21 3470.22,2496.9 3403.7,2475.04 3379.26,2549.51 3445.77,2571.37 3436.65,2599.06 "/>
   <path id="_32" class="fil1" d="M3239.83 2609.53l12.18 -26.62 157.51 71.85 -12.17 26.62 -157.52 -71.85zm182.97 85.76l13.77 -30.11 27.57 12.6 -13.76 30.11 -27.58 -12.6z"/>
   <path id="_33" class="fil1" d="M3184.46 2706.04c6.07,-10.29 13.19,-18.78 21.35,-25.48 8.23,-6.74 17.35,-11.31 27.36,-13.71 10.07,-2.41 20.96,-2.42 32.7,-0.11 11.74,2.38 24.21,7.39 37.41,15.11 13.11,7.72 23.39,16.12 30.87,25.24 7.49,9.13 12.74,18.57 15.78,28.26 3.04,9.75 3.74,20.02 2.12,30.91 -1.62,10.85 -5.42,21.31 -11.33,31.45 -4.84,8.19 -10.64,15.47 -17.44,21.74 -6.84,6.27 -13.47,11.54 -20.05,15.75l-28.09 -16.5 0.85 -1.48c2.55,-0.94 5.62,-2.2 9.22,-3.88 3.61,-1.68 7.63,-3.95 11.98,-6.78 3.82,-2.48 7.8,-5.69 11.9,-9.65 4.14,-3.95 7.43,-8.12 10.04,-12.51 7.65,-13.09 8.87,-26.48 3.68,-40.14 -5.19,-13.73 -16.8,-25.83 -34.74,-36.43 -17.64,-10.32 -33.67,-14.56 -47.96,-12.65 -14.35,1.86 -25.48,9.6 -33.47,23.22 -4.85,8.24 -7.73,17.07 -8.77,26.43 -0.98,9.42 -0.49,18.57 1.44,27.42l-0.85 1.47 -28.15 -16.55c0.28,-3.18 0.71,-7.15 1.26,-11.85 0.59,-4.71 1.35,-8.84 2.32,-12.33 1.29,-5.02 2.57,-9.45 3.9,-13.2 1.34,-3.82 3.53,-8.41 6.67,-13.75z"/>
   <polygon id="_34" class="fil1" points="3195.42,2963.79 3229.54,2915.62 3108.95,2830.17 3125.94,2806.25 3246.53,2891.69 3280.66,2843.52 3301.39,2858.2 3216.15,2978.47 "/>
   <path id="_35" class="fil1" d="M2977.85 3108.08c-21.01,-20 -32.5,-40.53 -34.4,-61.63 -1.85,-21.11 5.1,-39.98 20.99,-56.73 15.58,-16.37 33.31,-24.25 53.32,-23.6 19.96,0.63 39.74,9.43 59.35,26.31l20.9 -22.01 -57.11 -54.22 20 -21.06 125.38 119.02 -20 21.05 -51.05 -48.42 -21.31 22.44c15.43,17.91 23.36,36.29 23.82,55.12 0.52,18.84 -6.48,35.86 -20.9,51.07 -16.74,17.6 -35.7,25.58 -56.87,23.93 -21.18,-1.69 -41.92,-12.11 -62.12,-31.27zm20.58 -21.69c15.95,15.11 30.64,23.5 44.2,25.17 13.56,1.68 25.39,-2.88 35.55,-13.57 10.32,-10.84 14.28,-23.04 11.82,-36.57 -2.44,-13.48 -11.57,-27.72 -27.36,-42.67 -15.58,-14.85 -30.28,-23.13 -43.94,-24.86 -13.72,-1.78 -25.65,2.77 -35.92,13.57 -10.15,10.69 -14.12,22.73 -11.83,36.05 2.24,13.32 11.42,27.61 27.48,42.88z"/>
   <polygon id="_36" class="fil2 str3" points="1070.09,2925.73 915.22,3057.79 965.51,3116.74 944.8,3134.44 824.42,2993.27 845.13,2975.58 895.36,3034.53 1050.24,2902.47 "/>
   <path id="_37" class="fil2 str3" d="M837.41 2753.47c24.56,-15.74 47.32,-21.92 68.27,-18.62 20.95,3.29 37.68,14.78 50.32,34.46 13,20.31 16.27,40.69 9.96,61.15 -6.36,20.45 -21.4,38.29 -45.1,53.46 -24.34,15.57 -47.12,21.69 -68.33,18.34 -21.15,-3.34 -37.99,-14.83 -50.52,-34.4 -12.64,-19.73 -15.96,-39.79 -10.13,-60.25 5.89,-20.46 21.09,-38.51 45.53,-54.14zm16.27 25.45c-18.83,12.05 -30.62,24.45 -35.42,37.14 -4.75,12.73 -3.04,25.43 5.06,38.17 8.16,12.77 19.04,19.69 32.64,20.74 13.59,1.05 29.8,-4.45 48.63,-16.51 18.24,-11.69 29.87,-23.98 34.84,-36.93 5.01,-12.95 3.42,-25.81 -4.75,-38.59 -8.05,-12.56 -18.93,-19.37 -32.64,-20.37 -13.65,-1 -29.75,4.46 -48.36,16.35z"/>
   <path id="_38" class="fil2 str3" d="M788.04 2582.76c7.52,-3.78 14.84,-5.67 22.08,-5.7 7.2,-0.04 13.97,1.47 20.36,4.5 8.09,3.83 14.69,8.77 19.86,14.82 5.17,5.99 10.12,13.84 14.96,23.43l30.52 60.89 -154.84 77.66 -28.53 -56.91c-5.73,-11.33 -9.51,-19.86 -11.51,-25.48 -1.94,-5.61 -2.77,-11.76 -2.48,-18.37 0.22,-6.93 2.1,-12.91 5.71,-17.98 3.61,-5.01 8.81,-9.23 15.54,-12.66 7.42,-3.67 15.04,-4.97 22.97,-3.9 7.88,1.14 15.13,4.23 21.72,9.38l0.65 -1.16c-2.1,-9.48 -1.33,-18.63 2.3,-27.51 3.62,-8.94 10.52,-15.91 20.69,-21.01zm-50.68 69.18c-3.5,1.74 -6.25,3.85 -8.22,6.28 -2.02,2.42 -3.03,5.43 -3.09,9.04 -0.07,4.18 0.72,8.41 2.45,12.65 1.74,4.24 4.42,9.96 8.05,17.22l12.36 24.64 42.29 -21.21 -14.94 -29.72c-3.16,-6.3 -5.74,-10.66 -7.63,-13.04 -1.96,-2.34 -4.71,-4.67 -8.25,-6.9 -3.32,-2.08 -6.92,-2.99 -10.68,-2.73 -3.8,0.31 -7.88,1.56 -12.34,3.77zm64.21 -42.15c-5.25,2.63 -9.13,5.53 -11.52,8.65 -2.43,3.11 -3.61,7.87 -3.52,14.22 0.04,4.03 0.82,7.94 2.29,11.81 1.47,3.87 3.84,9.06 7.1,15.58l15.32 30.47 50.55 -25.37 -11.32 -22.47c-4.63,-9.27 -8.63,-16.32 -11.95,-21.09 -3.32,-4.77 -7.02,-8.44 -11.03,-10.99 -4.38,-2.66 -8.56,-4.09 -12.53,-4.26 -4.02,-0.18 -8.47,0.98 -13.39,3.45z"/>
   <path id="_39" class="fil2 str3" d="M753.17 2452.73l-45.34 15.64c2.81,6.3 6.46,14.29 10.97,23.96 4.45,9.64 8.69,17.2 12.67,22.7 4.75,6.56 10.27,11.37 16.56,14.6 6.25,3.16 13.56,3.31 21.81,0.46 9.36,-3.25 15.55,-8.32 18.51,-15.21 2.96,-6.93 2.69,-15.45 -0.81,-25.61 -3.03,-8.68 -7.58,-15.87 -13.78,-21.58 -6.15,-5.7 -13.03,-10.73 -20.59,-14.96zm22.85 -7.91c2.43,1.7 5.77,3.87 10.05,6.62 4.29,2.75 7.9,5.54 10.86,8.46 4.24,4.01 7.79,8.03 10.75,12.1 2.91,4.07 5.83,10.22 8.63,18.41 2.34,6.78 3.3,13.6 2.83,20.53 -0.47,6.94 -2.21,13.5 -5.22,19.64 -2.96,5.98 -7.29,11.38 -13.01,16.31 -5.65,4.92 -12.16,8.63 -19.52,11.18 -11.37,3.92 -21.85,4.83 -31.43,2.83 -9.63,-2.06 -18.57,-7.45 -26.84,-16.18 -7.41,-7.71 -14.03,-17.55 -19.97,-29.51 -5.94,-11.9 -11.77,-24.97 -17.55,-39.2l-5.33 1.85c-6.46,2.23 -11.38,5.04 -14.72,8.38 -3.27,3.33 -5.44,7.1 -6.38,11.38 -1.06,4.29 -1.06,9.1 -0.05,14.45 1.01,5.34 2.44,10.69 4.3,16.03 2.23,6.35 5.78,13.49 10.7,21.42 4.93,7.94 10.71,15.55 17.38,22.85l0.53 1.58 -28.03 9.71c-3.24,-4.55 -7.37,-11.31 -12.41,-20.21 -5.03,-8.88 -9.17,-17.92 -12.35,-27.24 -3.87,-11.26 -6.31,-21.05 -7.21,-29.41 -0.91,-8.31 -0.13,-16.36 2.36,-24.13 2.42,-7.52 6.71,-13.98 12.84,-19.38 6.14,-5.4 14.33,-9.85 24.6,-13.4l112.15 -38.73 9.54 27.62 -17.5 6.04z"/>
   <path id="_40" class="fil2 str3" d="M655.97 2245.46c28.35,-5.29 52.22,-2.72 71.54,7.76 19.38,10.42 31,26.07 34.92,46.85 1.58,8.46 1.99,16.13 1.29,23.01 -0.71,6.89 -2.42,14.15 -5.23,21.72l71.2 -13.34 5.34 28.54 -232.81 43.6 -5.34 -28.56 17.82 -3.32c-7.76,-5.94 -14.63,-12.83 -20.54,-20.74 -5.97,-7.9 -9.89,-16.98 -11.84,-27.29 -3.65,-19.56 1.23,-36.31 14.6,-50.14 13.36,-13.83 33.05,-23.19 59.05,-28.09zm8.79 28.89c-19.4,3.65 -33.92,9.61 -43.46,17.81 -9.53,8.24 -13.02,19.38 -10.4,33.33 1.52,8.2 4.8,15.75 9.86,22.66 5.01,6.95 11.03,13.32 17.99,19.1l96.47 -18.08c2.24,-8.28 3.52,-15.16 3.86,-20.77 0.29,-5.61 -0.16,-11.9 -1.47,-18.83 -2.79,-14.91 -10.4,-25.5 -22.82,-31.74 -12.43,-6.22 -29.1,-7.4 -50.03,-3.48z"/>
   <polygon id="_41" class="fil2 str3" points="731.92,2062.26 734.33,2091.45 605.59,2101.93 740.85,2172.01 743.03,2198.72 570.38,2212.74 568.04,2183.54 694.76,2173.24 561.52,2103.93 559.29,2076.27 "/>
   <path id="_42" class="fil2 str3" d="M743.73 1951.73c-0.97,11.85 -3.69,22.62 -8.19,32.23 -4.46,9.55 -10.7,17.61 -18.72,24.12 -7.98,6.51 -17.8,11.27 -29.36,14.21 -11.61,3 -24.99,3.88 -40.23,2.62 -15.13,-1.26 -28.02,-4.41 -38.68,-9.39 -10.71,-4.99 -19.51,-11.19 -26.45,-18.63 -6.94,-7.4 -12.01,-16.38 -15.23,-26.88 -3.22,-10.49 -4.37,-21.61 -3.4,-33.25 0.8,-9.52 2.92,-18.55 6.3,-27.16 3.4,-8.61 7.14,-16.21 11.2,-22.8l32.42 2.69 -0.11 1.7c-1.86,1.94 -4.1,4.42 -6.55,7.52 -2.5,3.06 -5.13,6.85 -7.85,11.28 -2.36,3.9 -4.5,8.49 -6.48,13.88 -1.94,5.33 -3.14,10.56 -3.6,15.64 -1.25,15.13 3.43,27.7 14.01,37.81 10.52,10.13 26.2,16.04 46.88,17.76 20.31,1.65 36.47,-1.42 48.53,-9.34 12.06,-7.92 18.75,-19.73 20.06,-35.49 0.8,-9.53 -0.36,-18.74 -3.49,-27.64 -3.11,-8.91 -7.45,-16.93 -12.97,-24.06l0.12 -1.69 32.47 2.69c1.1,2.97 2.4,6.73 3.96,11.24 1.56,4.45 2.64,8.54 3.25,12.08 1.03,5.09 1.75,9.59 2.19,13.62 0.46,3.96 0.43,9.05 -0.08,15.24z"/>
   <polygon id="_43" class="fil2 str3" points="624.43,1722.5 613.54,1780.22 758.49,1807.62 753.09,1836.17 608.14,1808.78 597.2,1866.5 572.14,1861.76 599.37,1717.76 "/>
   <path id="_44" class="fil2 str3" d="M760.41 1583.66c8.06,2.24 14.8,5.76 20.16,10.61 5.43,4.79 9.42,10.48 12.15,17.03 3.42,8.18 4.99,16.27 4.77,24.21 -0.18,7.94 -1.73,17.05 -4.64,27.39l-18.17 65.49 -166.9 -46.38 16.97 -61.21c3.43,-12.23 6.3,-21.09 8.61,-26.55 2.3,-5.46 5.82,-10.55 10.4,-15.28 4.85,-5 10.29,-8.14 16.31,-9.44 6.08,-1.35 12.7,-0.96 19.96,1.01 7.95,2.24 14.47,6.39 19.58,12.51 5.11,6.12 8.37,13.3 9.84,21.49l1.26 -0.43c4.78,-8.38 11.52,-14.65 20.19,-18.82 8.71,-4.12 18.54,-4.7 29.51,-1.63zm-83.95 17.06c-3.76,-1.03 -7.26,-1.33 -10.32,-0.84 -3.12,0.43 -5.92,1.97 -8.34,4.64 -2.9,3.02 -5.1,6.68 -6.67,10.98 -1.56,4.35 -3.44,10.38 -5.63,18.23l-7.4 26.54 45.47 12.66 8.9 -32.06c1.93,-6.83 2.96,-11.77 3.1,-14.83 0.15,-3.07 -0.34,-6.61 -1.47,-10.63 -1.03,-3.81 -3.1,-6.92 -6.08,-9.23 -2.97,-2.32 -6.85,-4.16 -11.56,-5.46zm75.88 11.88c-5.66,-1.62 -10.48,-2.07 -14.4,-1.37 -3.85,0.66 -7.91,3.43 -12.18,8.22 -2.68,3.02 -4.73,6.41 -6.25,10.29 -1.51,3.87 -3.23,9.28 -5.16,16.32l-9.17 32.84 54.69 15.21 6.76 -24.22c2.76,-10.01 4.53,-17.9 5.29,-23.67 0.72,-5.77 0.43,-10.96 -0.86,-15.61 -1.4,-4.86 -3.59,-8.77 -6.46,-11.56 -2.87,-2.84 -6.95,-5 -12.26,-6.45z"/>
   <path id="_45" class="fil2 str3" d="M805.09 1403.89c26.52,12.11 44.08,27.89 52.69,47.29 8.6,19.41 8.05,39.72 -1.66,61.01 -10.04,21.98 -25.38,35.83 -45.98,41.63 -20.67,5.74 -43.79,2.8 -69.41,-8.89 -26.35,-12.01 -43.86,-27.79 -52.52,-47.39 -8.65,-19.62 -8.15,-40.04 1.51,-61.22 9.71,-21.3 24.73,-35.05 45.13,-41.22 20.4,-6.16 43.77,-3.27 70.24,8.79zm-12.43 27.26c-20.33,-9.24 -37.16,-12.42 -50.44,-9.46 -13.3,2.97 -23.07,11.35 -29.37,25.19 -6.35,13.89 -6.29,26.86 0.17,38.9 6.47,11.97 19.82,22.66 40.15,31.89 19.65,8.97 36.31,12.05 49.92,9.13 13.56,-2.85 23.54,-11.23 29.89,-25.17 6.24,-13.69 6.08,-26.6 -0.44,-38.63 -6.56,-12.1 -19.86,-22.67 -39.88,-31.85z"/>
   <path id="_46" class="fil2 str3" d="M978.3 1207.98c7.84,5.73 13.24,12.23 16.19,19.61 2.97,7.37 4.07,14.9 3.37,22.52 -0.58,7.34 -2.5,14.84 -5.74,22.44 -3.18,7.59 -7.15,14.65 -11.91,21.18 -6.64,9.2 -13.84,17.25 -21.57,24.12 -7.73,6.87 -16.5,12.93 -26.29,18.21l-25.99 -18.84 1.07 -1.52c9.28,-1.89 18.52,-6.06 27.68,-12.44 9.19,-6.33 16.87,-13.78 23.03,-22.25 2.67,-3.69 5.14,-7.9 7.4,-12.69 2.26,-4.75 3.62,-9.24 4.07,-13.31 0.43,-5.55 -0.07,-10.06 -1.58,-13.61 -1.45,-3.56 -4.5,-7.02 -9.18,-10.39 -4.94,-3.64 -9.63,-5.59 -14.02,-5.94 -4.4,-0.29 -8.53,0.57 -12.36,2.77 -3.83,2.13 -7.39,5.07 -10.7,8.8 -3.26,3.78 -6.57,7.88 -9.78,12.36l-11.94 16.41 -20.52 -14.87 9.1 -12.53c2.24,-3.15 5.03,-7.15 8.18,-11.99 3.22,-4.85 5.32,-9.12 6.25,-12.71 1.25,-4.54 1.39,-8.78 0.47,-12.69 -0.92,-3.98 -4.33,-8.09 -10.23,-12.36 -4.15,-2.99 -8.1,-4.51 -11.97,-4.49 -3.86,-0.03 -7.46,0.84 -10.92,2.56 -3.56,1.72 -6.8,4.02 -9.74,6.97 -2.98,2.88 -5.55,5.88 -7.79,8.98 -5.73,7.89 -10.08,16.27 -13.07,25.19 -2.97,8.92 -4.1,17.64 -3.43,26.11l-1.07 1.47 -25.57 -18.51c2.28,-7.49 5.25,-15.51 8.97,-23.95 3.66,-8.44 8.17,-16.34 13.53,-23.66 4.28,-5.94 9.24,-11.51 14.89,-16.75 5.65,-5.25 11.99,-9.59 18.89,-12.92 6.59,-3.13 13.64,-4.61 21.15,-4.5 7.51,0.12 14.91,2.77 22.11,7.96 7.58,5.56 12.71,12.54 15.34,20.97 2.63,8.44 2.3,16.84 -0.94,25.23l0.89 0.65c8.3,-5.86 17.01,-9.24 26.12,-10.22 9.11,-0.98 18.35,1.89 27.61,8.63z"/>
   <path id="_47" class="fil2 str3" d="M1147.22 977.33c19.87,21.29 30.07,42.54 30.58,63.71 0.5,21.23 -7.8,39.79 -24.87,55.73 -17.65,16.46 -37.08,23.45 -58.34,20.89 -21.3,-2.52 -41.47,-14.07 -60.66,-34.6 -19.67,-21.12 -29.81,-42.38 -30.32,-63.81 -0.5,-21.39 7.75,-40.05 24.76,-55.94 17.13,-15.95 36.29,-22.88 57.44,-20.84 21.15,2.08 41.64,13.68 61.41,34.86zm-22.08 20.61c-15.21,-16.27 -29.47,-25.59 -42.84,-27.99 -13.38,-2.33 -25.57,1.64 -36.56,11.92 -11.15,10.38 -16.02,22.31 -14.59,35.86 1.36,13.51 9.64,28.45 24.85,44.71 14.75,15.79 28.9,24.97 42.53,27.51 13.58,2.55 25.94,-1.36 37.09,-11.75 10.94,-10.22 15.7,-22.15 14.23,-35.7 -1.48,-13.61 -9.72,-28.45 -24.71,-44.56z"/>
   <path id="_48" class="fil2 str3" d="M1243.56 828.9c9.42,1.67 18.7,5.72 27.76,12.14 9.12,6.39 17.66,15.25 25.69,26.56 7.64,10.93 13.08,22.18 16.12,33.87 3.05,11.69 3.88,22.8 2.48,33.28 -1.46,10.9 -4.71,20.65 -9.71,29.18 -5.05,8.54 -11.92,15.91 -20.63,22.07 -8.82,6.27 -18.07,10.47 -27.64,12.62 -9.57,2.14 -19.2,1.85 -29,-0.82 -12.18,-3.4 -24.11,-10.04 -35.88,-19.8 -11.77,-9.75 -23.98,-23.48 -36.58,-41.27 -4.45,-6.34 -8.71,-12.94 -12.81,-19.92 -4.04,-6.91 -8.34,-15.58 -12.98,-26 -3.99,-9.3 -7.04,-18.45 -9.07,-27.38 -2.04,-8.99 -2.43,-17.56 -1.18,-25.66 1.55,-10.49 5.92,-20.98 12.98,-31.53 7.01,-10.55 18.04,-22.22 33.03,-34.95 5.28,-4.52 11.03,-9.3 17.16,-14.29 6.12,-5.05 10.82,-8.92 13.99,-11.52l15.72 22.18c-4.22,3.35 -8.71,6.96 -13.46,10.88 -4.7,3.88 -10.09,8.39 -16.21,13.43 -8.08,6.7 -15.94,14.5 -23.59,23.41 -7.7,8.86 -12.17,17.39 -13.52,25.6 -1,6.14 -0.18,13.27 2.44,21.47 2.62,8.2 6.39,16.7 11.34,25.48 3.1,-8.9 7.15,-17.38 12.1,-25.54 4.95,-8.11 11.6,-15.12 19.84,-20.96 7.71,-5.42 15.95,-9.3 24.68,-11.66 8.71,-2.3 17.71,-2.58 26.93,-0.87zm30.69 57.01c-10.53,-14.94 -22.02,-23.96 -34.48,-27.1 -12.38,-3.19 -24.92,-0.3 -37.49,8.58 -6.86,4.88 -12.77,10.72 -17.67,17.45 -4.91,6.79 -8.91,14 -12.01,21.73 1.33,2.22 2.92,4.81 4.83,7.87 1.87,3.01 3.62,5.71 5.32,8.03 10.36,14.63 19.92,25.71 28.83,33.2 8.86,7.49 17.23,12.34 25.18,14.54 7.14,1.99 13.5,2.4 18.99,1.22 5.55,-1.18 10.84,-3.58 15.86,-7.09 12.2,-8.66 18.51,-20 18.85,-33.91 0.33,-13.92 -5.05,-28.78 -16.21,-44.52z"/>
   <polygon id="_49" class="fil2 str3" points="1515,847.72 1488.93,860.82 1427.89,739.1 1430.53,836.79 1411.19,846.47 1334.73,785.83 1395.77,907.55 1371.29,919.81 1293.63,764.97 1325.16,749.18 1408.94,814.77 1405.06,709.09 1437.34,692.87 "/>
   <path id="_50" class="fil2 str3" d="M1625.51 809.79c-26.08,9.02 -48.89,8.66 -68.37,-1.06 -19.48,-9.68 -33.88,-28.03 -43.15,-55.07 -9.23,-26.6 -9.51,-50.21 -1,-70.8 8.56,-20.54 24.17,-34.72 46.75,-42.52 10.15,-3.55 19.68,-5.15 28.52,-4.94 8.84,0.21 17.25,2.48 25.24,6.71 8.04,4.17 15.2,10.3 21.45,18.24 6.25,7.94 11.6,18.46 16.1,31.53l5.2 14.98 -113.64 39.17c6.51,18.94 16.31,31.79 29.33,38.45 13.03,6.72 28,7.12 44.93,1.29 6.08,-2.06 11.8,-4.82 17.14,-8.15 5.35,-3.39 10,-6.94 13.91,-10.7 4.24,-3.97 7.72,-7.58 10.42,-10.86 2.7,-3.28 4.87,-6.19 6.45,-8.83l1.64 -0.54 10.34 30c-2.75,2.38 -6.24,5.35 -10.37,8.95 -4.12,3.55 -7.93,6.52 -11.37,8.9 -4.87,3.34 -9.36,6.08 -13.43,8.42 -4.08,2.27 -9.42,4.55 -16.09,6.83zm-3.19 -114.71c-2.76,-7.37 -5.83,-13.45 -9.27,-18.26 -3.4,-4.81 -7.2,-8.57 -11.44,-11.26 -4.66,-3.02 -9.89,-4.7 -15.67,-5.07 -5.82,-0.43 -12.43,0.64 -19.89,3.23 -7.35,2.55 -13.22,5.78 -17.61,9.75 -4.39,3.97 -7.98,8.8 -10.74,14.45 -2.64,5.73 -4.17,11.55 -4.49,17.53 -0.36,5.97 0.33,12.54 2.13,19.63l86.98 -30z"/>
   <path id="_51" class="fil2 str3" d="M1917.96 736.29l-34.57 6.48 -68.1 -68 -10.89 2.01 14.6 78.03 -28.55 5.4 -14.6 -78.03 -10.94 2.01 -40.33 88.33 -33.09 6.22 47.72 -100.97c-5.35,-1.71 -10.45,-4.76 -15.19,-9.07 -4.72,-4.37 -9.58,-11.01 -14.55,-19.92 -4.48,-8.13 -8.96,-13.4 -13.37,-15.97 -4.35,-2.52 -10.86,-2.96 -19.43,-1.37l-6.6 1.25 -4.69 -25.05 7.77 -1.48c12.53,-2.34 23.28,-1.71 32.34,1.89 9.07,3.6 17.11,11.29 24.1,23.1 1.44,2.48 3.15,5.28 5.18,8.38 2.03,3.17 3.79,5.81 5.23,7.97 4.85,7.06 9.86,11.9 14.95,14.52 5.14,2.62 11.02,3.49 17.64,2.71l-13.96 -74.53 28.55 -5.4 13.95 74.54c6.4,-1.68 11.57,-4.72 15.51,-9.03 3.99,-4.31 6.87,-10.62 8.63,-18.83 0.61,-2.76 1.29,-5.93 2.06,-9.54 0.72,-3.59 1.24,-6.78 1.54,-9.48 2.1,-13.35 6.65,-23.32 13.6,-29.97 6.95,-6.65 16.81,-11.15 29.5,-13.54l7.82 -1.47 4.69 25.05 -6.55 1.25c-8.03,1.47 -13.74,4.2 -17.16,8.14 -3.41,3.93 -5.65,10.51 -6.72,19.78 -1.16,9.37 -3.19,16.94 -6.12,22.78 -2.93,5.79 -6.45,10.46 -10.61,13.98l80.64 77.83z"/>
   <path id="_52" class="fil2 str3" d="M2015.8 740.16c-27.63,0.62 -49.27,-6.71 -64.89,-21.89 -15.62,-15.18 -23.74,-37.09 -24.35,-65.62 -0.62,-28.15 6.3,-50.76 20.75,-67.71 14.45,-16.99 33.6,-25.71 57.53,-26.25 10.8,-0.24 20.37,1.08 28.71,4.05 8.34,2.91 15.72,7.61 22.03,14.05 6.36,6.5 11.33,14.48 14.83,23.97 3.53,9.44 5.41,21.09 5.74,34.96l0.33 15.78 -120.35 2.61c0.45,20.06 5.86,35.28 16.22,45.67 10.41,10.38 24.56,15.39 42.55,14.98 6.4,-0.11 12.71,-0.97 18.86,-2.58 6.1,-1.54 11.66,-3.52 16.6,-5.92 5.26,-2.52 9.66,-4.92 13.22,-7.22 3.56,-2.31 6.54,-4.46 8.88,-6.45l1.74 -0.05 0.65 31.81c-3.4,1.41 -7.59,3.18 -12.63,5.32 -5.03,2.08 -9.55,3.8 -13.58,5 -5.67,1.65 -10.76,2.93 -15.37,3.92 -4.61,0.92 -10.43,1.41 -17.47,1.57zm31.93 -110.28c-0.38,-7.83 -1.45,-14.57 -3.21,-20.19 -1.81,-5.67 -4.33,-10.4 -7.48,-14.22 -3.57,-4.26 -8,-7.47 -13.43,-9.61 -5.38,-2.16 -12.04,-3.15 -19.93,-2.99 -7.78,0.16 -14.35,1.45 -19.76,3.89 -5.41,2.46 -10.3,5.92 -14.68,10.44 -4.26,4.63 -7.46,9.74 -9.67,15.34 -2.16,5.54 -3.46,11.99 -3.93,19.35l92.09 -2.01z"/>
   <polygon id="_53" class="fil2 str3" points="2243.71,747.32 2214.83,744.91 2221.24,667.8 2142.86,661.28 2136.45,738.39 2107.57,735.99 2121.94,563.67 2150.82,566.07 2144.98,635.89 2223.37,642.42 2229.2,572.6 2258.07,575 "/>
   <path id="_54" class="fil2 str3" d="M2443.55 702.98c-6.64,28.41 -18.56,48.71 -35.88,60.98 -17.26,12.26 -37.26,15.73 -59.96,10.43 -23.44,-5.48 -39.99,-17.77 -49.66,-36.83 -9.73,-19.11 -11.34,-42.34 -4.97,-69.75 6.59,-28.2 18.63,-48.46 36.09,-60.87 17.48,-12.37 37.54,-15.9 60.13,-10.64 22.75,5.31 39.09,17.35 49.13,36.09 10.03,18.79 11.76,42.29 5.12,70.59zm-29.21 -6.86c5.1,-21.74 4.91,-38.83 -0.58,-51.27 -5.45,-12.39 -15.54,-20.34 -30.25,-23.79 -14.77,-3.45 -27.41,-0.82 -37.9,7.91 -10.42,8.67 -18.23,23.9 -23.32,45.69 -4.89,21.01 -4.64,37.95 0.8,50.7 5.5,12.7 15.6,20.81 30.41,24.27 14.6,3.39 27.09,0.7 37.62,-8.07 10.5,-8.82 18.23,-23.96 23.22,-45.44z"/>
   <path id="_55" class="fil2 str3" d="M2682.25 791.69c-10.6,27.05 -25.31,45.44 -44.15,55.18 -18.84,9.68 -38.94,10.37 -60.42,1.97 -21.05,-8.24 -34.99,-21.77 -41.93,-40.51 -6.87,-18.8 -6.2,-40.45 2.14,-64.99l-28.64 -11.23 -28.81 73.51 -27.04 -10.59 63.19 -161.33 27.05 10.59 -25.83 65.87 29.22 11.42c10.83,-21.12 24.88,-35.48 42.15,-43.04 17.26,-7.61 35.67,-7.61 55.19,0.07 22.59,8.82 37.07,23.4 43.53,43.68 6.41,20.29 4.53,43.42 -5.65,69.4zm-28.01 -10.96c8.05,-20.57 10.33,-37.46 6.82,-50.67 -3.52,-13.21 -12.09,-22.54 -25.82,-27.85 -13.89,-5.49 -26.64,-4.47 -38.25,2.96 -11.55,7.42 -21.31,21.28 -29.29,41.65 -7.94,20.15 -10.12,36.94 -6.6,50.31 3.46,13.42 12.13,22.79 25.93,28.21 13.68,5.33 26.32,4.47 37.76,-2.74 11.5,-7.16 21.32,-21.13 29.45,-41.87z"/>
   <path id="_56" class="fil2 str3" d="M2901.09 979.16c-4.93,6.8 -10.58,11.83 -16.95,15.22 -6.43,3.33 -13.11,5.14 -20.21,5.39 -8.89,0.36 -17.03,-0.98 -24.42,-3.94 -7.32,-2.97 -15.33,-7.64 -24.07,-13.95l-55.03 -39.92 101.66 -140.17 51.46 37.29c10.26,7.49 17.56,13.27 21.87,17.32 4.3,4.11 7.86,9.11 10.67,15.12 3.03,6.26 4.08,12.42 3.19,18.55 -0.84,6.12 -3.54,12.24 -7.92,18.35 -4.87,6.68 -11.05,11.34 -18.53,13.98 -7.53,2.64 -15.37,3.21 -23.52,1.67l0 1.32c6.19,7.46 9.66,15.95 10.54,25.54 0.88,9.59 -2.05,18.98 -8.74,28.23zm13.21 -84.66c2.3,-3.17 3.81,-6.27 4.41,-9.34 0.66,-3.11 0.21,-6.24 -1.4,-9.43 -1.83,-3.77 -4.5,-7.13 -7.97,-10.06 -3.47,-2.99 -8.52,-6.85 -15.04,-11.6l-22.31 -16.16 -27.66 38.2 26.83 19.47c5.74,4.18 10,6.86 12.8,8.04 2.79,1.24 6.28,2.01 10.46,2.36 3.96,0.3 7.52,-0.52 10.71,-2.51 3.25,-1.98 6.29,-4.98 9.17,-8.97zm-37.47 66.96c3.48,-4.79 5.58,-9.16 6.3,-13.02 0.77,-3.91 -0.36,-8.68 -3.38,-14.37 -1.88,-3.51 -4.34,-6.65 -7.44,-9.43 -3.1,-2.71 -7.57,-6.25 -13.47,-10.52l-27.57 -20.02 -33.43 46.09 20.31 14.77c8.41,6.1 15.2,10.49 20.32,13.19 5.16,2.68 10.13,4.25 14.93,4.65 5.08,0.32 9.43,-0.34 13.1,-2.05 3.66,-1.73 7.07,-4.82 10.33,-9.29z"/>
   <path id="_57" class="fil2 str3" d="M2916.4 1060.73l-21.99 -18.84 112.58 -131.65 22 18.84 -112.59 131.65zm133.28 -152.01l-25.18 -21.53 19.64 -22.95 25.18 21.53 -19.64 22.95z"/>
   <path id="_58" class="fil2 str3" d="M3020.56 1225.32l-18.52 -19.84 30.4 -28.38 -77.92 -83.53 -30.41 28.38 -18.51 -19.85 48.32 -45.1 7.77 8.32c18.55,-3.75 39.47,-12.21 62.76,-25.35 23.29,-13.13 46.19,-30.19 68.75,-51.22l72.53 77.77 -108.49 101.22 11.64 12.47 -48.32 45.11zm16.69 -79.03l90.58 -84.49 -33.78 -36.16c-19.77,16.67 -39.41,30.15 -58.92,40.57 -19.45,10.42 -37.29,17.25 -53.42,20.56l55.54 59.52z"/>
   <polygon id="_59" class="fil2 str3" points="3151.18,1328.37 3134.16,1304.65 3254.32,1218.56 3208.55,1154.68 3088.39,1240.78 3071.37,1217.06 3212.09,1116.25 3291.89,1227.55 "/>
   <path id="_60" class="fil2 str3" d="M3318.95 1444.51c-25.22,14.57 -48.19,19.78 -68.93,15.52 -20.75,-4.22 -37.01,-16.42 -48.68,-36.63 -12.07,-20.89 -14.48,-41.36 -7.25,-61.48 7.28,-20.17 23.04,-37.23 47.37,-51.33 25.01,-14.46 48.02,-19.56 68.98,-15.3 20.96,4.32 37.28,16.53 48.93,36.62 11.66,20.25 14.17,40.42 7.37,60.59 -6.75,20.16 -22.67,37.48 -47.79,52.01zm-15.06 -26.02c19.31,-11.18 31.63,-23 36.96,-35.55 5.28,-12.5 4.16,-25.29 -3.37,-38.36 -7.63,-13.11 -18.17,-20.56 -31.72,-22.19 -13.5,-1.68 -29.95,3.04 -49.26,14.23 -18.71,10.82 -30.82,22.57 -36.37,35.28 -5.54,12.76 -4.52,25.66 3.11,38.83 7.48,12.96 18.07,20.26 31.67,21.88 13.6,1.63 29.9,-3.1 48.98,-14.12z"/>
   <path id="_61" class="fil2 str3" d="M3352.36 1623.58c-7.81,3.12 -15.32,4.37 -22.51,3.78 -7.21,-0.59 -13.83,-2.67 -19.94,-6.24 -7.7,-4.5 -13.82,-9.96 -18.46,-16.4 -4.63,-6.49 -8.92,-14.66 -12.83,-24.64l-25.07 -63.2 160.92 -63.77 23.41 59.03c4.72,11.82 7.79,20.58 9.2,26.34 1.46,5.77 1.76,11.95 0.95,18.53 -0.8,6.88 -3.26,12.66 -7.26,17.34 -3.99,4.73 -9.52,8.47 -16.49,11.2 -7.72,3.06 -15.44,3.69 -23.18,1.88 -7.73,-1.81 -14.68,-5.58 -20.75,-11.26l-0.68 1.12c1.22,9.57 -0.37,18.63 -4.77,27.17 -4.45,8.54 -11.92,14.94 -22.54,19.12zm56.48 -64.13c3.64,-1.46 6.54,-3.32 8.75,-5.56 2.15,-2.23 3.46,-5.15 3.81,-8.75 0.45,-4.18 -0.05,-8.41 -1.4,-12.85 -1.34,-4.38 -3.5,-10.35 -6.5,-17.9l-10.2 -25.72 -43.71 17.35 12.29 30.99c2.63,6.6 4.77,11.19 6.48,13.72 1.76,2.53 4.26,5.06 7.6,7.63 3.14,2.42 6.64,3.61 10.4,3.7 3.76,0.03 7.93,-0.84 12.48,-2.61zm-67.38 36.21c5.49,-2.16 9.6,-4.72 12.29,-7.59 2.74,-2.93 4.3,-7.59 4.79,-14 0.35,-3.97 -0.1,-7.98 -1.23,-11.95 -1.14,-4.01 -3.01,-9.4 -5.76,-16.21l-12.56 -31.73 -52.91 20.98 9.29 23.4c3.82,9.66 7.19,17.05 10.07,22.11 2.95,5.06 6.3,9.07 10.13,11.96 4.15,3.04 8.18,4.82 12.2,5.32 3.98,0.51 8.57,-0.25 13.69,-2.29z"/>
   <path id="_62" class="fil2 str3" d="M3317.97 1701.97l-7.76 -27.97 166.9 -46.08 7.76 27.97 -166.9 46.08zm195.18 -51.51l-8.91 -32.11 29.25 -8.06 8.9 32.1 -29.24 8.07z"/>
   <path id="_63" class="fil2 str3" d="M3317.18 1896.48l-4.95 -26.65 41.23 -7.74 -20.98 -111.96 -41.23 7.73 -5.01 -26.64 65.35 -12.25 2.17 11.41c17.6,6.73 39.75,10.74 66.43,12.13 26.67,1.39 55.08,-0.77 85.31,-6.38l19.51 104.03 -145.59 27.24 3.11 16.82 -65.35 12.26zm56.9 -57.62l121.48 -22.78 -9.09 -48.52c-25.59,3.47 -49.41,4.29 -71.38,2.55 -22.02,-1.68 -40.67,-5.55 -56.05,-11.5l15.04 80.25z"/>
   <path id="_64" class="fil2 str3" d="M3408.9 2010.61l47.66 -3.9c-1.22,-6.87 -2.74,-15.49 -4.72,-25.95 -1.92,-10.47 -4.08,-18.87 -6.56,-25.15 -3.01,-7.54 -7.12,-13.61 -12.39,-18.28 -5.27,-4.62 -12.21,-6.59 -20.94,-5.91 -9.79,0.81 -16.96,4.18 -21.52,10.14 -4.57,5.95 -6.42,14.33 -5.51,25.01 0.74,9.15 3.34,17.29 7.88,24.35 4.54,7.12 9.87,13.64 16.1,19.69zm-24.06 1.95c-1.98,-2.21 -4.69,-5.21 -8.15,-8.9 -3.47,-3.68 -6.25,-7.3 -8.43,-10.84 -3.11,-4.96 -5.57,-9.75 -7.4,-14.4 -1.82,-4.64 -3.08,-11.31 -3.77,-19.93 -0.57,-7.09 0.23,-13.92 2.35,-20.55 2.19,-6.57 5.48,-12.46 9.95,-17.67 4.36,-5.06 9.89,-9.22 16.59,-12.55 6.76,-3.38 13.99,-5.32 21.71,-5.96 11.95,-0.97 22.34,0.71 31.15,5.05 8.76,4.33 16.11,11.81 21.94,22.29 5.19,9.29 9.23,20.43 11.96,33.43 2.78,13.05 5.2,27.12 7.3,42.24l5.56 -0.41c6.87,-0.57 12.26,-2.03 16.32,-4.44 4,-2.41 7,-5.55 8.98,-9.43 2.1,-3.92 3.29,-8.59 3.67,-13.99 0.34,-5.4 0.26,-10.96 -0.2,-16.61 -0.52,-6.67 -2.21,-14.43 -5.02,-23.3 -2.8,-8.94 -6.51,-17.69 -11.17,-26.45l-0.12 -1.69 29.51 -2.41c2,5.23 4.32,12.78 7.02,22.6 2.66,9.88 4.41,19.72 5.22,29.5 0.92,11.85 0.82,21.95 -0.34,30.22 -1.22,8.31 -3.98,15.9 -8.28,22.81 -4.24,6.69 -9.97,11.86 -17.25,15.56 -7.23,3.75 -16.31,6.02 -27.11,6.89l-118.05 9.63 -2.35 -29.2 18.41 -1.49z"/>
   <path id="_65" class="fil2 str3" d="M3354.62 2217.98l2.4 -28.88 147.88 12.3 4.98 -59.34c-8.52,-1.01 -16.66,-2.01 -24.49,-2.96 -7.82,-0.95 -14.91,-1.89 -21.25,-2.72 -16.02,-1.96 -29.45,-4.16 -40.18,-6.56 -10.78,-2.39 -19.34,-4.98 -25.72,-7.83 -6.55,-2.79 -11.66,-5.74 -15.18,-8.82 -3.58,-3.04 -6.79,-6.4 -9.58,-10.07 -2.78,-3.77 -4.77,-7.7 -6,-11.89 -1.2,-4.13 -1.59,-8.74 -1.13,-13.82 0.11,-1.63 0.33,-3.75 0.67,-6.29 0.33,-2.59 0.5,-4.39 0.61,-5.44l25.39 2.11 -0.12 1.59c-0.05,0.69 -0.22,1.43 -0.38,2.22 -0.16,0.74 -0.27,1.64 -0.38,2.69 -0.18,2.49 -0.04,4.93 0.48,7.36 0.52,2.44 1.66,4.67 3.45,6.69 4.62,5.59 13.11,10.09 25.47,13.5 12.37,3.41 29.8,6.58 52.28,9.48 8.35,1.11 18.29,2.34 29.72,3.68 11.47,1.28 22.42,2.57 32.84,3.75l-9.45 113.61 -172.31 -14.36z"/>
   <path id="_66" class="fil2 str3" d="M3373.26 2400.24c-8.15,-1.92 -15.12,-5.31 -21,-10.13 -5.87,-4.82 -10.2,-10.49 -13.05,-17.1 -3.43,-7.84 -5.38,-15.72 -5.69,-23.77 -0.37,-8.04 0.85,-17.99 3.62,-29.84l13.76 -58.99 168.55 39.36 -6.58 28.26 -65.71 -15.35 -7.34 31.43c-2.97,12.69 -5.94,22.37 -8.85,29.04 -2.98,6.71 -7.8,12.9 -14.57,18.66 -5.67,4.86 -12.23,7.93 -19.64,9.3 -7.41,1.31 -15.24,1.04 -23.5,-0.87zm6.53 -29.31c5.14,1.22 9.79,1.39 14.08,0.48 4.29,-0.83 8.1,-3.01 11.44,-6.49 3.49,-3.65 6.09,-8.1 7.9,-13.38 1.74,-5.23 3.81,-12.97 6.15,-23.02l4.94 -21.16 -57.14 -13.33 -4.77 20.52c-2.4,10.11 -3.78,18 -4.21,23.76 -0.48,5.72 0.04,10.9 1.52,15.51 1.64,4.71 4.02,8.47 7.13,11.12 3.12,2.7 7.46,4.72 12.96,5.99z"/>
   <polygon id="_67" class="fil2 str3" points="3272.11,2544.99 3281.23,2517.3 3355.07,2541.54 3379.51,2467.06 3305.67,2442.83 3314.79,2415.14 3479.33,2469.21 3470.22,2496.9 3403.7,2475.04 3379.26,2549.51 3445.77,2571.37 3436.65,2599.06 "/>
   <path id="_68" class="fil2 str3" d="M3239.83 2609.53l12.18 -26.62 157.51 71.85 -12.17 26.62 -157.52 -71.85zm182.97 85.76l13.77 -30.11 27.57 12.6 -13.76 30.11 -27.58 -12.6z"/>
   <path id="_69" class="fil2 str3" d="M3184.46 2706.04c6.07,-10.29 13.19,-18.78 21.35,-25.48 8.23,-6.74 17.35,-11.31 27.36,-13.71 10.07,-2.41 20.96,-2.42 32.7,-0.11 11.74,2.38 24.21,7.39 37.41,15.11 13.11,7.72 23.39,16.12 30.87,25.24 7.49,9.13 12.74,18.57 15.78,28.26 3.04,9.75 3.74,20.02 2.12,30.91 -1.62,10.85 -5.42,21.31 -11.33,31.45 -4.84,8.19 -10.64,15.47 -17.44,21.74 -6.84,6.27 -13.47,11.54 -20.05,15.75l-28.09 -16.5 0.85 -1.48c2.55,-0.94 5.62,-2.2 9.22,-3.88 3.61,-1.68 7.63,-3.95 11.98,-6.78 3.82,-2.48 7.8,-5.69 11.9,-9.65 4.14,-3.95 7.43,-8.12 10.04,-12.51 7.65,-13.09 8.87,-26.48 3.68,-40.14 -5.19,-13.73 -16.8,-25.83 -34.74,-36.43 -17.64,-10.32 -33.67,-14.56 -47.96,-12.65 -14.35,1.86 -25.48,9.6 -33.47,23.22 -4.85,8.24 -7.73,17.07 -8.77,26.43 -0.98,9.42 -0.49,18.57 1.44,27.42l-0.85 1.47 -28.15 -16.55c0.28,-3.18 0.71,-7.15 1.26,-11.85 0.59,-4.71 1.35,-8.84 2.32,-12.33 1.29,-5.02 2.57,-9.45 3.9,-13.2 1.34,-3.82 3.53,-8.41 6.67,-13.75z"/>
   <polygon id="_70" class="fil2 str3" points="3195.42,2963.79 3229.54,2915.62 3108.95,2830.17 3125.94,2806.25 3246.53,2891.69 3280.66,2843.52 3301.39,2858.2 3216.15,2978.47 "/>
   <path id="_71" class="fil2 str3" d="M2977.85 3108.08c-21.01,-20 -32.5,-40.53 -34.4,-61.63 -1.85,-21.11 5.1,-39.98 20.99,-56.73 15.58,-16.37 33.31,-24.25 53.32,-23.6 19.96,0.63 39.74,9.43 59.35,26.31l20.9 -22.01 -57.11 -54.22 20 -21.06 125.38 119.02 -20 21.05 -51.05 -48.42 -21.31 22.44c15.43,17.91 23.36,36.29 23.82,55.12 0.52,18.84 -6.48,35.86 -20.9,51.07 -16.74,17.6 -35.7,25.58 -56.87,23.93 -21.18,-1.69 -41.92,-12.11 -62.12,-31.27zm20.58 -21.69c15.95,15.11 30.64,23.5 44.2,25.17 13.56,1.68 25.39,-2.88 35.55,-13.57 10.32,-10.84 14.28,-23.04 11.82,-36.57 -2.44,-13.48 -11.57,-27.72 -27.36,-42.67 -15.58,-14.85 -30.28,-23.13 -43.94,-24.86 -13.72,-1.78 -25.65,2.77 -35.92,13.57 -10.15,10.69 -14.12,22.73 -11.83,36.05 2.24,13.32 11.42,27.61 27.48,42.88z"/>
  </g>
 </g>
</svg>
