<?xml version="1.0" encoding="UTF-8"?>
<!DOCTYPE svg PUBLIC "-//W3C//DTD SVG 1.1//EN" "http://www.w3.org/Graphics/SVG/1.1/DTD/svg11.dtd">
<!-- Creator: CorelDRAW 2019 (64-Bit) -->
<svg xmlns="http://www.w3.org/2000/svg" xml:space="preserve" width="41mm" height="41mm" version="1.1" style="shape-rendering:geometricPrecision; text-rendering:geometricPrecision; image-rendering:optimizeQuality; fill-rule:evenodd; clip-rule:evenodd"
viewBox="0 0 4100 4100"
 xmlns:xlink="http://www.w3.org/1999/xlink"
 xmlns:xodm="http://www.corel.com/coreldraw/odm/2003">
 <defs>
  <style type="text/css">
   <![CDATA[
    .str3 {stroke:#393185;stroke-width:35;stroke-miterlimit:22.9256}
    .str2 {stroke:#393185;stroke-width:35.27;stroke-miterlimit:22.9256}
    .str0 {stroke:#393185;stroke-width:7.62;stroke-miterlimit:22.9256}
    .str1 {stroke:#393185;stroke-width:25;stroke-linecap:round;stroke-linejoin:round;stroke-miterlimit:22.9256}
    .str4 {stroke:#393185;stroke-width:20;stroke-linecap:round;stroke-linejoin:round;stroke-miterlimit:22.9256}
    .fil1 {fill:none}
    .fil3 {fill:none;fill-rule:nonzero}
    .fil0 {fill:#393185}
    .fil2 {fill:#393185;fill-rule:nonzero}
   ]]>
  </style>
 </defs>
 <g id="Слой_x0020_1">
  <metadata id="CorelCorpID_0Corel-Layer"/>
  <path class="fil0 str0" d="M355.49 1513.06c219.29,-720.14 895.8,-1246.29 1694.51,-1246.29 798.72,-0.01 1475.24,526.15 1694.51,1246.29l210.54 0c-224.59,-832.75 -992.22,-1446.29 -1905.05,-1446.29 -912.82,-0.01 -1680.44,613.54 -1905.02,1446.29l210.51 0z"/>
  <polygon class="fil0 str0" points="216.43,1570.55 234.15,1625.09 291.49,1625.09 245.1,1658.79 262.82,1713.32 216.43,1679.62 170.04,1713.32 187.76,1658.79 141.37,1625.09 198.71,1625.09 "/>
  <path class="fil0 str1" d="M2912.46 3045.37c-4.29,10.62 -15.99,19.38 -28.33,26.47 -17.85,10.26 -39.27,17.79 -60.9,24.06 -60.01,17.14 -128.16,25.14 -192.14,24.67 -13.03,-0.1 -29.51,-0.76 -44.28,-1.72 -15.54,-1.01 -31,-2.53 -46.36,-4.38 -30.71,-3.73 -60.95,-9.32 -90.25,-16.39 -56.93,-13.74 -110.45,-34.37 -155.3,-61.14 44.1,-26.31 96.2,-46.27 151.83,-60.27 29.08,-7.32 59.37,-12.87 89.95,-16.77 15.3,-1.96 30.74,-3.49 46.25,-4.6 6.92,-0.49 15.03,-0.97 21.21,-1.24 3.93,-0.16 7.87,-0.31 11.8,-0.42 1.97,-0.07 3.94,-0.12 5.91,-0.16 1.32,-0.03 2.64,-0.06 3.95,-0.08 1.33,-0.02 2.01,-0.04 2.04,-0.04 30.95,-0.38 62.72,1.59 94.59,5.63 32.73,4.15 64.97,10.65 95.52,19.37 27.76,7.92 55.64,17.96 76.88,32.33 14.03,9.5 23.01,21.41 17.63,34.68zm-759.41 61.09c-34.32,22.67 -68.64,45.35 -102.96,68.03 -29.72,-19.64 -59.45,-39.28 -89.17,-58.92 -39.53,-26.12 -79.06,-52.24 -118.6,-78.37 -0.13,-0.08 -0.26,-0.17 -0.39,-0.26 35.07,-23.17 70.13,-46.34 105.2,-69.51 34.32,-22.68 68.64,-45.36 102.96,-68.03 29.72,19.64 59.45,39.28 89.17,58.92 39.53,26.12 79.06,52.25 118.59,78.37 0.14,0.08 0.26,0.17 0.4,0.25 -35.07,23.18 -70.14,46.35 -105.2,69.52zm-589.55 7.53c-15.3,1.96 -30.75,3.5 -46.25,4.6 -6.91,0.49 -15.02,0.97 -21.22,1.24 -3.93,0.17 -7.86,0.3 -11.79,0.42 -1.98,0.06 -3.94,0.11 -5.92,0.16 -1.31,0.03 -2.63,0.06 -3.95,0.08 -1.48,0.02 -2.15,0.03 -2.02,0.04 -3.73,0.05 -7.47,0.06 -11.2,0.07 -63.88,-0.09 -132.7,-8.95 -192.01,-27.02 -25.71,-7.84 -52.19,-18.14 -69.63,-33.12 -11.84,-10.19 -17.66,-22.97 -9.72,-35.13 9.91,-15.15 33.48,-25.92 54.24,-34.17 28.68,-11.39 60.44,-19.46 92.57,-25.58 32.22,-6.16 65.39,-10.05 98.85,-11.7 29.25,-1.44 57.13,-0.58 87.96,1.87 103.21,8.22 204.64,35.11 281.87,81.19 -44.1,26.32 -96.2,46.28 -151.83,60.27 -29.09,7.33 -59.37,12.88 -89.95,16.78zm1383.85 -84.6c-6.19,-14.53 -27.15,-25.71 -45.24,-33.91 -27.1,-12.31 -58.14,-20.89 -89.28,-27.78 -67.39,-14.89 -139.24,-19.71 -210.05,-17.39 -65.38,2.15 -130.1,10.46 -191.24,25.85 -48.28,12.14 -93.93,29.05 -133.82,50.59 -30.41,-20.09 -60.82,-40.18 -91.22,-60.27 -39.53,-26.12 -79.07,-52.24 -118.6,-78.37 -0.35,-0.23 -0.72,-0.47 -1.09,-0.72 -1.41,-0.41 -2.9,-0.68 -4.46,-0.79 -4.03,-0.41 -8.17,-0.52 -12.26,-0.52 -2.93,0 -5.84,0.07 -8.75,0.24 -1.68,0.11 -6.57,0.13 -7.98,1.07 -35.3,23.33 -70.59,46.65 -105.9,69.98 -35,23.12 -70,46.26 -105,69.38 -91.27,-49.27 -209.77,-72.66 -327.03,-76.5 -70.9,-2.32 -142.59,2.98 -209.98,17.88 -31.14,6.87 -61.79,15.72 -88.85,28.01 -18.16,8.24 -37.9,19.46 -44.06,33.92 -5.49,12.91 5.6,25.7 18.2,35.11 19.65,14.67 47.5,24.47 74.45,32.16 64.27,18.36 135.73,25.94 205.51,26.77 1.42,0.02 2.84,0.02 4.27,0.03 3.01,0.07 5.59,0.04 6.18,0.04 0.58,0 3.14,0.03 6.13,-0.03 125.03,-0.83 252.38,-22.98 351.06,-74.77 1.39,-0.73 2.73,-1.49 4.11,-2.24 30.4,20.09 60.82,40.18 91.22,60.28 39.54,26.12 79.07,52.24 118.6,78.36 0.36,0.24 0.73,0.48 1.09,0.73 1.42,0.41 2.91,0.67 4.46,0.79 4.05,0.41 8.18,0.52 12.27,0.52 2.93,0 5.84,-0.08 8.75,-0.25 1.68,-0.1 6.57,-0.13 7.97,-1.06 35.3,-23.33 70.6,-46.66 105.91,-69.98 35,-23.13 70,-46.26 105,-69.39 91.27,49.28 209.76,72.67 327.02,76.51 85.05,2.78 173.47,-4.37 251.95,-26.8 26.97,-7.82 54.03,-17.69 73.69,-32.38 12.77,-9.54 22.44,-22.21 16.97,-35.07z"/>
  <line class="fil1 str2" x1="941.69" y1="2095.33" x2="3158.32" y2= "2095.33" />
  <path class="fil1 str3" d="M3654.86 1730.06c27.48,1.5 50.59,21.96 54.51,49.21 11.11,77.59 17.1,156.82 17.1,237.5 0,925.89 -750.57,1676.47 -1676.47,1676.47 -925.89,0 -1676.48,-750.58 -1676.48,-1676.47 0,-80.68 6.01,-159.91 17.14,-237.5 3.9,-27.25 26.99,-47.71 54.48,-49.21l158.01 -8.63c26.14,-1.43 47.73,-20.09 53.93,-45.53 152.99,-627.32 718.49,-1093.02 1392.92,-1093.02 674.44,0 1239.94,465.7 1392.91,1093.02 6.21,25.44 27.8,44.1 53.94,45.53l158.01 8.63z"/>
  <circle class="fil1" cx="2050" cy="2050" r="2000"/>
  <path class="fil2" d="M104.94 1918.76l155.62 11.83 4.42 -58.11 20.68 1.57 -10.61 139.61 -20.69 -1.58 4.42 -58.1 -155.62 -11.83 1.78 -23.39zm80.49 95.73c29.29,-0.7 52.44,6.65 69.4,22.01 16.96,15.36 25.72,35.48 26.32,60.42 0.39,16.33 -3.17,31.12 -10.63,44.43 -7.46,13.27 -18.08,23.53 -31.86,30.74 -13.74,7.2 -29.47,11.04 -47.11,11.46 -17.91,0.43 -34.04,-2.8 -48.32,-9.71 -14.33,-6.9 -25.27,-16.89 -32.84,-29.96 -7.59,-13.12 -11.56,-27.35 -11.92,-42.7 -0.4,-16.66 3.27,-31.61 10.98,-44.92 7.7,-13.28 18.41,-23.5 32.16,-30.58 13.7,-7.08 28.3,-10.82 43.82,-11.19zm0.17 24.2c-21.27,0.51 -37.88,6.64 -49.83,18.38 -11.94,11.73 -17.73,26.23 -17.31,43.51 0.42,17.61 6.93,31.91 19.55,43.01 12.62,11.06 30.28,16.31 53,15.77 14.35,-0.35 26.84,-3.08 37.42,-8.19 10.59,-5.11 18.73,-12.42 24.38,-21.91 5.67,-9.52 8.37,-20.09 8.09,-31.73 -0.39,-16.54 -6.41,-30.64 -18.06,-42.29 -11.63,-11.67 -30.71,-17.18 -57.24,-16.55zm-78.6 186.3l175.38 -22.49 8.44 65.8c1.71,13.39 1.33,24.35 -1.18,32.93 -2.51,8.54 -7.17,15.57 -13.98,21.09 -6.74,5.55 -14.17,8.83 -22.25,9.87 -7.47,0.96 -14.79,-0.18 -21.93,-3.37 -7.13,-3.2 -13.26,-8.63 -18.4,-16.31 -1.74,11.01 -6,19.86 -12.79,26.49 -6.73,6.67 -15.22,10.67 -25.43,11.98 -8.24,1.05 -16.11,0.28 -23.61,-2.29 -7.51,-2.57 -13.49,-6.15 -17.98,-10.76 -4.45,-4.62 -8.17,-10.66 -11.12,-18.07 -2.94,-7.47 -5.13,-16.78 -6.57,-27.96l-8.58 -66.91zm104.64 10.24l4.86 37.92c1.32,10.28 2.96,17.58 4.88,21.86 2.51,5.7 6.02,9.77 10.49,12.23 4.46,2.45 9.76,3.3 15.92,2.51 5.84,-0.75 10.8,-2.79 14.85,-6.18 4.09,-3.33 6.64,-7.73 7.61,-13.13 0.97,-5.39 0.65,-14.39 -0.96,-26.97l-4.5 -35.06 -53.15 6.82zm-81.08 10.39l5.6 43.68c0.96,7.52 1.93,12.75 2.89,15.73 1.62,5.18 3.79,9.47 6.49,12.78 2.71,3.3 6.36,5.82 10.94,7.6 4.58,1.78 9.67,2.28 15.26,1.57 6.58,-0.85 12.04,-3.25 16.45,-7.25 4.43,-3.98 7.23,-9.07 8.42,-15.28 1.2,-6.17 1.09,-14.87 -0.34,-26.01l-5.21 -40.57 -60.5 7.75zm-7.1 127.13l187.53 26.32 5.79 25.06 -156.09 109.91 -5.99 -25.95 47.62 -31.98 -16.75 -72.54 -56.53 -6.64 -5.58 -24.18zm82.18 33.24l13.55 58.7 43.62 -28.99c13.27,-8.76 24.31,-15.62 33.12,-20.65 -11.78,0.22 -23.54,-0.4 -35.36,-1.85l-54.93 -7.21zm-37.2 155.83l170.04 -48.44 18.29 64.21c3.22,11.28 5.12,20.07 5.75,26.35 1,8.74 0.34,16.51 -1.93,23.27 -2.3,6.78 -6.46,12.89 -12.49,18.33 -6.02,5.43 -13.26,9.33 -21.7,11.74 -14.4,4.1 -27.93,3 -40.54,-3.38 -12.63,-6.34 -22.36,-21.58 -29.22,-45.65l-12.42 -43.62 -69.35 19.76 -6.43 -22.57zm95.72 -2.87l12.52 43.94c4.15,14.56 9.77,24.08 16.94,28.67 7.17,4.56 15.63,5.44 25.49,2.63 7.08,-2.01 12.67,-5.53 16.71,-10.58 4.04,-5.04 6.05,-10.75 6,-17.07 -0.09,-4.08 -1.57,-11.24 -4.46,-21.41l-12.4 -43.5 -60.8 17.32zm122.13 105.23l7.78 19.77 -130.29 51.29 164.77 36.28 8.48 21.56 -164.52 64.77 -7.78 -19.76 129.94 -51.15 -164.32 -36.19 -8.58 -21.8 164.52 -64.77zm21.79 320.53l5.48 23.57c-19.33,4.45 -36.35,3.31 -51.15,-3.38 -14.78,-6.69 -26.4,-18.2 -34.82,-34.56 -8.71,-16.91 -12.35,-32.44 -10.91,-46.61 1.42,-14.15 7.26,-27.35 17.48,-39.6 10.25,-12.27 22.84,-22.26 37.84,-29.99 16.36,-8.42 32.23,-12.66 47.63,-12.68 15.41,-0.02 29.24,4.11 41.51,12.38 12.26,8.26 21.95,19.34 29.07,33.17 8.11,15.74 10.92,30.99 8.41,45.81 -2.49,14.84 -9.89,28.1 -22.2,39.76l-15.35 -17.93c9.55,-9.5 15.16,-19.1 16.79,-28.69 1.68,-9.62 -0.21,-19.66 -5.62,-30.16 -6.2,-12.04 -14.29,-20.65 -24.23,-25.76 -9.95,-5.1 -20.68,-6.8 -32.09,-5.05 -11.47,1.74 -22.38,5.28 -32.73,10.61 -13.36,6.88 -24.03,14.83 -31.99,23.83 -7.99,9.02 -12.31,18.88 -13.03,29.62 -0.71,10.74 1.39,20.86 6.31,30.41 5.99,11.64 14.41,19.71 25.26,24.31 10.87,4.58 23.62,4.91 38.34,0.94zm-2.31 112.71l131.33 -84.32 -31.49 -49.04 17.45 -11.21 75.65 117.82 -17.46 11.21 -31.48 -49.04 -131.33 84.32 -12.67 -19.74zm63.57 96.13l139.04 -109.22 40.98 52.17c8.34,10.62 13.63,20.22 15.88,28.87 2.21,8.62 1.81,17.05 -1.2,25.28 -2.94,8.22 -7.64,14.85 -14.04,19.88 -5.93,4.65 -12.8,7.43 -20.56,8.35 -7.76,0.91 -15.81,-0.61 -24.16,-4.57 4.15,10.34 5.03,20.12 2.6,29.3 -2.36,9.18 -7.6,16.96 -15.7,23.32 -6.53,5.13 -13.68,8.5 -21.44,10.14 -7.76,1.65 -14.73,1.63 -20.95,-0.02 -6.19,-1.69 -12.48,-4.96 -18.81,-9.82 -6.36,-4.9 -13.01,-11.77 -19.98,-20.64l-41.66 -53.04zm95.08 -44.86l23.61 30.07c6.41,8.15 11.56,13.58 15.41,16.27 5.08,3.6 10.17,5.3 15.27,5.12 5.09,-0.18 10.07,-2.17 14.96,-6 4.63,-3.64 7.84,-7.94 9.58,-12.92 1.8,-4.96 1.74,-10.05 -0.2,-15.18 -1.93,-5.12 -6.82,-12.69 -14.65,-22.66l-21.84 -27.8 -42.14 33.1zm-64.28 50.5l27.2 34.62c4.68,5.96 8.19,9.96 10.55,12.02 4.04,3.63 8.1,6.2 12.12,7.65 4.02,1.44 8.44,1.75 13.28,0.92 4.85,-0.82 9.48,-2.99 13.91,-6.48 5.22,-4.09 8.67,-8.96 10.41,-14.66 1.77,-5.68 1.56,-11.48 -0.6,-17.43 -2.13,-5.91 -6.69,-13.32 -13.63,-22.15l-25.27 -32.17 -47.97 37.68zm129.99 61.95c21.18,-20.23 43.26,-30.38 66.13,-30.44 22.88,-0.06 42.91,8.93 60.13,26.96 11.29,11.82 18.62,25.15 22.05,40.01 3.43,14.83 2.47,29.57 -2.86,44.18 -5.31,14.58 -14.36,28 -27.12,40.19 -12.95,12.37 -27.06,20.84 -42.27,25.35 -15.24,4.54 -30.05,4.52 -44.45,-0.05 -14.45,-4.59 -26.96,-12.45 -37.56,-23.55 -11.52,-12.05 -18.87,-25.58 -22.12,-40.61 -3.25,-15.01 -2.21,-29.77 3.19,-44.26 5.37,-14.46 13.65,-27.06 24.88,-37.78zm16.42 17.79c-15.39,14.7 -23.55,30.4 -24.49,47.13 -0.93,16.71 4.55,31.33 16.5,43.83 12.16,12.74 26.6,18.92 43.41,18.64 16.78,-0.32 33.37,-8.32 49.8,-24.02 10.39,-9.91 17.78,-20.34 22.16,-31.25 4.4,-10.9 5.49,-21.79 3.28,-32.61 -2.22,-10.85 -7.33,-20.49 -15.37,-28.91 -11.43,-11.96 -25.37,-18.34 -41.83,-19.12 -16.45,-0.79 -34.27,7.97 -53.46,26.31zm136.49 186.58l20.51 10.28c-4.33,7.57 -6.53,17 -6.61,28.27 -0.04,11.29 4.48,20.89 13.65,28.85 9.32,8.1 18.76,12.1 28.35,11.97 9.54,-0.12 17.28,-3.58 23.19,-10.38 6.37,-7.34 8.65,-15.66 6.71,-24.92 -1.88,-9.26 -7.73,-18.16 -17.49,-26.63l-8.42 -7.31 13.44 -15.48c8.08,7.01 14.66,11.92 19.76,14.71 5.1,2.79 10.97,3.69 17.61,2.69 6.62,-0.95 12.07,-3.9 16.33,-8.81 5.02,-5.79 7.18,-12.79 6.4,-21 -0.75,-8.17 -4.99,-15.61 -12.63,-22.24 -6.71,-5.83 -13.89,-9.11 -21.55,-9.83 -7.67,-0.71 -14.82,0.92 -21.48,4.9 -6.63,4 -11.14,7.38 -13.52,10.12l-13.57 -18.66c28.77,-24.72 56.68,-25.35 83.68,-1.9 13.02,11.31 20.15,23.87 21.49,37.73 1.32,13.85 -2.2,25.62 -10.62,35.32 -10.79,12.43 -25.03,16.96 -42.71,13.6 5.16,7.8 7.5,16.6 7.08,26.37 -0.48,9.78 -4.2,18.71 -11.21,26.79 -9.99,11.5 -22.77,17.23 -38.37,17.26 -15.61,0.02 -30.76,-6.33 -45.43,-19.06 -25.23,-21.91 -30.09,-49.45 -14.59,-82.64zm184.54 104.19c15.79,-24.68 34.83,-39.77 57.04,-45.24 22.22,-5.48 43.8,-1.49 64.81,11.95 13.76,8.8 24.04,20.02 30.9,33.64 6.84,13.6 9.4,28.15 7.68,43.6 -1.71,15.42 -7.31,30.61 -16.82,45.47 -9.66,15.09 -21.35,26.66 -35.07,34.64 -13.73,8.03 -28.13,11.52 -43.19,10.48 -15.13,-1.03 -29.14,-5.7 -42.07,-13.97 -14.05,-8.98 -24.39,-20.39 -31.12,-34.22 -6.7,-13.81 -9.19,-28.4 -7.38,-43.76 1.79,-15.32 6.86,-29.52 15.22,-42.59zm20.16 13.39c-11.46,17.92 -15.67,35.12 -12.62,51.59 3.05,16.46 11.85,29.36 26.41,38.68 14.84,9.49 30.33,12.08 46.59,7.82 16.23,-4.29 30.46,-15.99 42.7,-35.13 7.74,-12.1 12.46,-23.98 14.13,-35.61 1.68,-11.64 0.16,-22.47 -4.54,-32.46 -4.73,-10.02 -11.98,-18.17 -21.79,-24.45 -13.94,-8.91 -28.99,-11.8 -45.16,-8.66 -16.18,3.12 -31.41,15.86 -45.72,38.22zm192.83 13.35l102.14 52.48 -9.48 18.45 -81.27 -41.76 -24.94 48.55 37.56 19.3c13.88,7.13 24.21,14.1 31.04,20.98 6.84,6.86 10.84,15.2 12.01,25.11 1.17,9.85 -0.76,19.64 -5.76,29.38 -4.08,7.95 -9.66,14.47 -16.74,19.53 -7.11,5.1 -15.28,8.02 -24.54,8.76 -9.23,0.77 -22.33,-3.18 -39.21,-11.85l-61.61 -31.66 80.8 -157.27zm-50.79 150.2l41.62 21.39c11.24,5.77 20.83,7.83 28.82,6.15 7.94,-1.7 14.28,-7.1 18.97,-16.22 3.34,-6.51 4.51,-12.75 3.53,-18.76 -0.98,-6.02 -3.96,-11.2 -8.93,-15.57 -5.03,-4.38 -14.44,-10.09 -28.24,-17.18l-27.79 -14.28 -27.98 54.47zm122.28 84.79l64.64 -164.57 32.64 12.82 -6.84 131.78c-0.66,12.26 -1.24,21.4 -1.71,27.44 4.22,-5.24 10.62,-12.88 19.17,-22.92l84.57 -98.91 29.15 11.45 -64.64 164.57 -20.91 -8.22 54.07 -137.68 -102.11 118.82 -19.61 -7.71 7.56 -158.86 -55.07 140.2 -20.91 -8.21zm203.09 76.33l48.77 -169.95 122.71 35.21 -5.72 19.93 -100.16 -28.74 -14.99 52.23 93.76 26.9 -5.72 19.93 -93.76 -26.9 -16.62 57.93 104.2 29.89 -5.72 19.94 -126.75 -36.37zm304.37 -108.81l-13.54 76.35c11.31,2 19.42,1.27 24.42,-2.15 4.95,-3.43 12.04,-12.25 21.29,-26.53 6.82,-10.63 12.18,-17.99 16.17,-22.13 3.96,-4.18 9.12,-7.33 15.48,-9.5 6.37,-2.18 13.02,-2.67 19.91,-1.45 7.53,1.33 12.22,2.26 14.02,2.74l-3.54 19.94c-0.73,-0.13 -2.22,-0.44 -4.48,-0.92 -2.53,-0.54 -4.07,-0.85 -4.59,-0.95 -7.38,-1.3 -13.17,-0.49 -17.33,2.46 -4.27,2.92 -9.8,9.8 -16.52,20.64 -7.32,11.74 -13.21,19.55 -17.75,23.47 -4.51,3.93 -10.56,6.74 -18.15,8.53 10.87,5.19 20.05,17.48 27.65,36.93l25.55 64.29 -28.5 -5.05 -20.81 -52.34c-5.52,-13.93 -10.48,-23.93 -14.83,-30 -4.36,-6.09 -11.31,-9.99 -20.87,-11.69l-14.44 81.45 -23.59 -4.18 14.44 -81.45c-7.58,-1.34 -14.61,-0.55 -21.17,2.44 -6.5,2.98 -14.8,10.41 -24.89,22.29l-1.87 2.09 -37.59 42.03 -28.61 -5.07 46.13 -51.59c14.08,-15.69 27.01,-24.06 38.83,-25.14 -5.83,-3.66 -10.34,-7.98 -13.51,-12.93 -3.23,-4.95 -6.33,-14.79 -9.38,-29.45 -2.77,-13.37 -5.67,-21.95 -8.68,-25.74 -2.99,-3.84 -7.98,-6.36 -15.04,-7.61l-9.32 -1.4 3.54 -19.93c0.91,0 5.35,0.69 13.37,2.11 7.62,1.35 13.95,4.11 18.99,8.22 5.04,4.12 8.71,8.82 11.08,14.08 2.32,5.31 4.93,14.17 7.85,26.68 3.84,16.82 7.48,27.58 10.92,32.29 3.47,4.71 10.88,8.16 22.24,10.34l13.54 -76.35 23.58 4.18zm99.8 191.59l13.41 -176.3 127.3 9.68 -1.57 20.68 -103.91 -7.9 -4.12 54.17 97.26 7.4 -1.57 20.68 -97.26 -7.4 -4.57 60.09 108.09 8.22 -1.58 20.68 -131.48 -10zm175.21 9.64l-4.24 -176.76 23.45 -0.56 1.75 72.83 91.35 -2.2 -1.75 -72.82 23.45 -0.57 4.24 176.76 -23.45 0.56 -2 -83.19 -91.34 2.19 2 83.2 -23.46 0.56zm169.48 -91.25c-3.73,-29.06 1.19,-52.85 14.72,-71.3 13.52,-18.46 32.63,-29.25 57.37,-32.42 16.21,-2.08 31.28,-0.07 45.29,5.98 13.97,6.04 25.27,15.55 33.87,28.51 8.58,12.92 14.03,28.16 16.27,45.67 2.28,17.77 0.73,34.15 -4.67,49.06 -5.38,14.97 -14.18,26.89 -26.4,35.76 -12.27,8.92 -26.01,14.33 -41.24,16.28 -16.53,2.12 -31.78,0.01 -45.82,-6.28 -14,-6.29 -25.27,-15.89 -33.74,-28.82 -8.46,-12.9 -13.68,-27.04 -15.65,-42.44zm24.05 -2.67c2.71,21.11 10.51,36.99 23.43,47.67 12.9,10.66 27.92,14.92 45.07,12.72 17.47,-2.24 31.01,-10.2 40.75,-23.9 9.7,-13.69 13.1,-31.8 10.21,-54.34 -1.82,-14.24 -5.83,-26.38 -12.01,-36.38 -6.18,-10 -14.29,-17.34 -24.32,-21.98 -10.05,-4.65 -20.84,-6.25 -32.39,-4.77 -16.41,2.1 -29.81,9.55 -40.2,22.33 -10.4,12.78 -13.91,32.33 -10.54,58.65zm155.59 -113.69l22.86 -5.27 17.83 77.23 33.2 -7.66c-3.98,-24.76 -0.5,-46.1 10.55,-63.89 11.01,-17.84 27.14,-29.2 48.39,-34.11 22.38,-5.17 42.77,-1.55 61.15,10.89 18.36,12.4 30.7,32.16 36.95,59.26 6.5,28.15 4.25,51.91 -6.8,71.19 -11,19.3 -27.98,31.58 -50.92,36.87 -20.81,4.81 -39.73,1.91 -56.78,-8.64 -17.05,-10.55 -29.61,-27.67 -37.63,-51.42l-33.45 7.72 17.28 74.83 -22.86 5.28 -39.77 -172.28zm98.75 68.78c5.03,21.78 13.95,37.54 26.7,47.23 12.76,9.73 27.26,12.71 43.51,8.96 16.6,-3.83 28.48,-12.91 35.61,-27.27 7.11,-14.35 8.09,-32.83 2.86,-55.48 -4.95,-21.46 -13.75,-37.21 -26.35,-47.31 -12.58,-10.07 -27.2,-13.2 -43.85,-9.36 -16.92,3.91 -28.82,13.25 -35.78,27.99 -6.89,14.77 -7.79,33.18 -2.7,55.24zm244.92 17.52l-64.77 -164.53 61.73 -24.3c12.56,-4.94 23.28,-7.26 32.21,-6.93 8.9,0.35 16.86,3.15 23.87,8.39 7.04,5.19 12.04,11.58 15.03,19.16 2.75,7.01 3.45,14.39 2.1,22.09 -1.35,7.7 -5.12,14.97 -11.3,21.84 11.09,-1.02 20.71,0.94 28.81,5.9 8.12,4.9 14.07,12.15 17.84,21.73 3.04,7.73 4.22,15.54 3.57,23.45 -0.65,7.91 -2.67,14.58 -6.03,20.06 -3.39,5.45 -8.33,10.54 -14.8,15.21 -6.52,4.68 -15,9.09 -25.5,13.22l-62.76 24.71zm-15.71 -103.96l35.57 -14c9.65,-3.8 16.33,-7.18 20.01,-10.09 4.9,-3.83 7.99,-8.23 9.28,-13.16 1.29,-4.93 0.81,-10.27 -1.46,-16.05 -2.16,-5.48 -5.36,-9.79 -9.63,-12.89 -4.24,-3.15 -9.13,-4.54 -14.6,-4.16 -5.46,0.38 -14.11,2.9 -25.91,7.54l-32.89 12.95 19.63 49.86zm29.94 76.06l40.97 -16.12c7.05,-2.78 11.89,-5 14.54,-6.66 4.63,-2.84 8.26,-5.99 10.8,-9.42 2.54,-3.44 4.1,-7.59 4.69,-12.47 0.61,-4.88 -0.15,-9.93 -2.21,-15.18 -2.43,-6.17 -6.1,-10.87 -11.06,-14.18 -4.94,-3.32 -10.56,-4.78 -16.88,-4.41 -6.28,0.34 -14.68,2.59 -25.13,6.7l-38.06 14.98 22.34 56.76zm151.49 -42.09l-80.95 -157.19 20.84 -10.73 80.96 157.19 -20.85 10.73zm-6.91 -194.8l93.4 -53.55 77.63 135.4 13.71 -7.87 30.83 53.77 -18 10.32 -20.51 -35.77 -101.55 58.21 20.51 35.78 -17.99 10.32 -30.83 -53.77 11.79 -6.76c1.73,-25.76 -13.65,-67 -46.13,-123.66l-12.86 -22.42zm83.36 -23.89l-53.55 30.71 4.51 7.85c7.49,13.07 16.56,31.63 27.21,55.66 10.68,24 16.72,45.3 18.23,63.84l70.91 -40.66 -67.31 -117.4zm41.79 -48.76l113.18 -80.3 102.31 144.2 -19.13 13.58 -90.31 -127.29 -74.92 53.15 90.31 127.29 -19.13 13.58 -102.31 -144.21zm192.74 -25.92c-19.17,-22.15 -28.22,-44.7 -27.15,-67.55 1.07,-22.86 11.03,-42.41 29.89,-58.73 12.36,-10.69 26.03,-17.35 41.05,-20.05 14.98,-2.69 29.65,-1.02 43.98,5.03 14.3,6.03 27.26,15.72 38.81,29.07 11.72,13.54 19.48,28.05 23.23,43.46 3.79,15.45 3.04,30.24 -2.24,44.4 -5.29,14.2 -13.75,26.31 -25.36,36.35 -12.61,10.91 -26.48,17.59 -41.66,20.1 -15.14,2.5 -29.84,0.73 -44.05,-5.37 -14.17,-6.07 -26.34,-14.97 -36.5,-26.71zm18.57 -15.52c13.93,16.09 29.21,25.02 45.87,26.78 16.65,1.75 31.52,-3.01 44.59,-14.32 13.32,-11.52 20.21,-25.64 20.75,-42.44 0.51,-16.77 -6.66,-33.75 -21.53,-50.93 -9.39,-10.86 -19.44,-18.76 -30.12,-23.67 -10.67,-4.93 -21.49,-6.55 -32.41,-4.88 -10.95,1.68 -20.83,6.31 -29.63,13.93 -12.52,10.83 -19.57,24.44 -21.16,40.84 -1.6,16.39 6.28,34.62 23.64,54.69zm193.57 -57.99l-128.03 -121.95 45.76 -48.03c9.31,-9.78 18.05,-16.39 26.3,-19.85 8.21,-3.43 16.61,-4.24 25.18,-2.44 8.57,1.73 15.79,5.43 21.69,11.05 5.46,5.19 9.19,11.59 11.21,19.14 2.02,7.56 1.67,15.74 -1.06,24.57 9.64,-5.59 19.19,-7.86 28.63,-6.78 9.42,1.03 17.87,5.1 25.33,12.2 6.01,5.73 10.37,12.32 13.11,19.77 2.74,7.44 3.72,14.34 2.98,20.73 -0.78,6.37 -3.12,13.07 -7.02,20.03 -3.94,6.99 -9.78,14.56 -17.56,22.73l-46.52 48.83zm-58.03 -87.66l26.37 -27.69c7.15,-7.5 11.79,-13.38 13.9,-17.57 2.83,-5.54 3.78,-10.83 2.87,-15.85 -0.9,-5.01 -3.58,-9.66 -8.08,-13.94 -4.26,-4.07 -8.98,-6.63 -14.16,-7.64 -5.17,-1.07 -10.19,-0.27 -15,2.37 -4.78,2.65 -11.57,8.58 -20.32,17.76l-24.38 25.59 38.8 36.97zm59.19 56.37l30.37 -31.88c5.23,-5.49 8.68,-9.53 10.38,-12.16 3.01,-4.52 4.97,-8.91 5.83,-13.09 0.85,-4.19 0.52,-8.61 -0.99,-13.28 -1.51,-4.69 -4.32,-8.95 -8.41,-12.84 -4.8,-4.58 -10.1,-7.3 -16,-8.2 -5.88,-0.93 -11.59,0.1 -17.16,3.1 -5.55,2.95 -12.23,8.53 -19.97,16.66l-28.22 29.62 44.17 42.07zm120.62 -101.11l-133.51 -115.92 15.38 -17.71 133.5 115.92 -15.37 17.71zm-85.84 -172.35l62.36 -87.76 127.22 90.4 9.16 -12.89 50.52 35.9 -12.02 16.92 -33.62 -23.89 -67.8 95.41 33.62 23.89 -12.01 16.91 -50.53 -35.9 7.87 -11.07c-9.22,-24.12 -40.46,-55.12 -93.7,-92.95l-21.07 -14.97zm65.68 -56.63l-35.76 50.32 7.38 5.25c12.28,8.72 28.3,21.78 48.03,39.14 19.76,17.31 34.17,34.11 43.31,50.31l47.35 -66.63 -110.31 -78.39zm162.94 44.51l-119.54 -146.88 12.8 -22.3 189.18 25.64 -13.27 23.09 -56.65 -8.95 -37.08 64.56 36.92 43.32 -12.36 21.52zm-37.63 -80.27l30.01 -52.24 -51.69 -8.43c-15.69,-2.61 -28.44,-5.09 -38.33,-7.4 8.79,7.85 16.99,16.31 24.66,25.42l35.35 42.65zm-15.45 -186.14l50.44 -98.18 157.27 80.8 -10.72 20.85 -138.82 -71.31 -29 56.45 81.01 41.62c16.47,8.47 28.12,15.42 34.99,20.89 6.9,5.49 11.16,11.79 12.9,18.93 1.71,7.13 0.59,14.51 -3.3,22.09 -2.37,4.62 -6.16,9.65 -11.38,15.12l-16.53 -13.21c3.51,-2.5 5.89,-4.98 7.13,-7.4 2.41,-4.68 2.48,-9.14 0.13,-13.3 -2.35,-4.18 -10.09,-9.63 -23.27,-16.4l-110.85 -56.95zm60.29 -129.08l8.58 -21.83 70.11 27.53 15.39 -39.18c7.19,-18.32 14.54,-30.73 22.03,-37.3 7.51,-6.5 15.65,-10.12 24.38,-10.85 8.76,-0.67 17.05,0.51 24.82,3.56 12.76,5.02 22.25,13.74 28.41,26.19 6.22,12.44 4.66,30.45 -4.62,54.08l-24.53 62.44 -164.57 -64.64zm154.53 35.5l15.62 -39.77c6.34,-16.13 7.59,-27.75 3.8,-34.89 -3.79,-7.11 -9.76,-12.28 -17.85,-15.46 -6.54,-2.57 -12.83,-3.01 -18.83,-1.25 -5.98,1.71 -10.83,5.3 -14.49,10.66 -3.66,5.38 -8.27,15.1 -13.81,29.2l-11.44 29.12 57 22.39zm68.89 -132.81l-169.96 -48.77 6.47 -22.55 70.03 20.09 25.2 -87.82 -70.03 -20.09 6.47 -22.55 169.95 48.76 -6.47 22.55 -79.99 -22.95 -25.2 87.82 80 22.96 -6.47 22.55zm48.28 -185.35l-174.1 -30.86 4.1 -23.09 174.09 30.86 -4.09 23.09zm-31.15 -206.4l8.86 -22.52c18.44,7.3 31.81,17.89 40.2,31.79 8.38,13.9 11.42,29.97 9.08,48.22 -2.42,18.87 -8.23,33.72 -17.45,44.57 -9.2,10.85 -21.5,18.41 -36.86,22.7 -15.4,4.3 -31.44,5.38 -48.17,3.24 -18.25,-2.34 -33.73,-7.86 -46.42,-16.57 -12.7,-8.73 -21.76,-19.97 -27.17,-33.74 -5.41,-13.76 -7.11,-28.38 -5.13,-43.81 2.25,-17.56 8.59,-31.72 19.06,-42.49 10.47,-10.82 24.08,-17.54 40.84,-20.16l2.47 23.48c-13.25,2.4 -23.32,7.13 -30.11,14.1 -6.83,6.97 -10.97,16.31 -12.47,28.02 -1.72,13.43 0.05,25.11 5.34,34.97 5.3,9.84 13.18,17.32 23.57,22.35 10.43,5.07 21.42,8.35 32.97,9.83 14.91,1.91 28.21,1.42 39.86,-1.48 11.7,-2.9 20.85,-8.57 27.54,-17.01 6.68,-8.44 10.68,-17.97 12.05,-28.62 1.66,-12.98 -0.69,-24.41 -7.01,-34.35 -6.36,-9.94 -16.68,-17.44 -31.05,-22.52zm68.96 -91.27l-156.03 -3.75 -1.4 58.27 -20.73 -0.5 3.36 -139.97 20.73 0.5 -1.4 58.25 156.03 3.75 -0.56 23.45zm-170.08 -103.95l-1.78 -23.39 79.05 -6.01 -2.59 -33.98c-25.07,0.21 -45.65,-6.44 -61.57,-20.04 -15.98,-13.57 -24.79,-31.22 -26.45,-52.97 -1.74,-22.9 4.9,-42.51 19.96,-58.81 15.03,-16.29 36.41,-25.51 64.15,-27.62 28.81,-2.19 51.96,3.61 69.35,17.43 17.43,13.78 27.02,32.41 28.8,55.89 1.62,21.29 -4.09,39.56 -17.08,54.83 -13,15.27 -31.82,25.11 -56.5,29.47l2.61 34.23 76.57 -5.82 1.78 23.39 -176.3 13.4zm82.85 -87.28c22.29,-1.69 39.21,-8.15 50.71,-19.29 11.53,-11.16 16.67,-25.05 15.4,-41.67 -1.29,-16.99 -8.47,-30.1 -21.6,-39.3 -13.13,-9.19 -31.24,-12.94 -54.42,-11.18 -21.96,1.67 -38.86,8 -50.74,18.93 -11.84,10.93 -17.14,24.91 -15.84,41.94 1.32,17.32 8.76,30.5 22.28,39.59 13.57,9.04 31.64,12.7 54.21,10.98z"/>
  <path id="_1" class="fil3 str4" d="M104.94 1918.76l155.62 11.83 4.42 -58.11 20.68 1.57 -10.61 139.61 -20.69 -1.58 4.42 -58.1 -155.62 -11.83 1.78 -23.39zm80.49 95.73c29.29,-0.7 52.44,6.65 69.4,22.01 16.96,15.36 25.72,35.48 26.32,60.42 0.39,16.33 -3.17,31.12 -10.63,44.43 -7.46,13.27 -18.08,23.53 -31.86,30.74 -13.74,7.2 -29.47,11.04 -47.11,11.46 -17.91,0.43 -34.04,-2.8 -48.32,-9.71 -14.33,-6.9 -25.27,-16.89 -32.84,-29.96 -7.59,-13.12 -11.56,-27.35 -11.92,-42.7 -0.4,-16.66 3.27,-31.61 10.98,-44.92 7.7,-13.28 18.41,-23.5 32.16,-30.58 13.7,-7.08 28.3,-10.82 43.82,-11.19zm0.17 24.2c-21.27,0.51 -37.88,6.64 -49.83,18.38 -11.94,11.73 -17.73,26.23 -17.31,43.51 0.42,17.61 6.93,31.91 19.55,43.01 12.62,11.06 30.28,16.31 53,15.77 14.35,-0.35 26.84,-3.08 37.42,-8.19 10.59,-5.11 18.73,-12.42 24.38,-21.91 5.67,-9.52 8.37,-20.09 8.09,-31.73 -0.39,-16.54 -6.41,-30.64 -18.06,-42.29 -11.63,-11.67 -30.71,-17.18 -57.24,-16.55zm-78.6 186.3l175.38 -22.49 8.44 65.8c1.71,13.39 1.33,24.35 -1.18,32.93 -2.51,8.54 -7.17,15.57 -13.98,21.09 -6.74,5.55 -14.17,8.83 -22.25,9.87 -7.47,0.96 -14.79,-0.18 -21.93,-3.37 -7.13,-3.2 -13.26,-8.63 -18.4,-16.31 -1.74,11.01 -6,19.86 -12.79,26.49 -6.73,6.67 -15.22,10.67 -25.43,11.98 -8.24,1.05 -16.11,0.28 -23.61,-2.29 -7.51,-2.57 -13.49,-6.15 -17.98,-10.76 -4.45,-4.62 -8.17,-10.66 -11.12,-18.07 -2.94,-7.47 -5.13,-16.78 -6.57,-27.96l-8.58 -66.91zm104.64 10.24l4.86 37.92c1.32,10.28 2.96,17.58 4.88,21.86 2.51,5.7 6.02,9.77 10.49,12.23 4.46,2.45 9.76,3.3 15.92,2.51 5.84,-0.75 10.8,-2.79 14.85,-6.18 4.09,-3.33 6.64,-7.73 7.61,-13.13 0.97,-5.39 0.65,-14.39 -0.96,-26.97l-4.5 -35.06 -53.15 6.82zm-81.08 10.39l5.6 43.68c0.96,7.52 1.93,12.75 2.89,15.73 1.62,5.18 3.79,9.47 6.49,12.78 2.71,3.3 6.36,5.82 10.94,7.6 4.58,1.78 9.67,2.28 15.26,1.57 6.58,-0.85 12.04,-3.25 16.45,-7.25 4.43,-3.98 7.23,-9.07 8.42,-15.28 1.2,-6.17 1.09,-14.87 -0.34,-26.01l-5.21 -40.57 -60.5 7.75zm-7.1 127.13l187.53 26.32 5.79 25.06 -156.09 109.91 -5.99 -25.95 47.62 -31.98 -16.75 -72.54 -56.53 -6.64 -5.58 -24.18zm82.18 33.24l13.55 58.7 43.62 -28.99c13.27,-8.76 24.31,-15.62 33.12,-20.65 -11.78,0.22 -23.54,-0.4 -35.36,-1.85l-54.93 -7.21zm-37.2 155.83l170.04 -48.44 18.29 64.21c3.22,11.28 5.12,20.07 5.75,26.35 1,8.74 0.34,16.51 -1.93,23.27 -2.3,6.78 -6.46,12.89 -12.49,18.33 -6.02,5.43 -13.26,9.33 -21.7,11.74 -14.4,4.1 -27.93,3 -40.54,-3.38 -12.63,-6.34 -22.36,-21.58 -29.22,-45.65l-12.42 -43.62 -69.35 19.76 -6.43 -22.57zm95.72 -2.87l12.52 43.94c4.15,14.56 9.77,24.08 16.94,28.67 7.17,4.56 15.63,5.44 25.49,2.63 7.08,-2.01 12.67,-5.53 16.71,-10.58 4.04,-5.04 6.05,-10.75 6,-17.07 -0.09,-4.08 -1.57,-11.24 -4.46,-21.41l-12.4 -43.5 -60.8 17.32zm122.13 105.23l7.78 19.77 -130.29 51.29 164.77 36.28 8.48 21.56 -164.52 64.77 -7.78 -19.76 129.94 -51.15 -164.32 -36.19 -8.58 -21.8 164.52 -64.77zm21.79 320.53l5.48 23.57c-19.33,4.45 -36.35,3.31 -51.15,-3.38 -14.78,-6.69 -26.4,-18.2 -34.82,-34.56 -8.71,-16.91 -12.35,-32.44 -10.91,-46.61 1.42,-14.15 7.26,-27.35 17.48,-39.6 10.25,-12.27 22.84,-22.26 37.84,-29.99 16.36,-8.42 32.23,-12.66 47.63,-12.68 15.41,-0.02 29.24,4.11 41.51,12.38 12.26,8.26 21.95,19.34 29.07,33.17 8.11,15.74 10.92,30.99 8.41,45.81 -2.49,14.84 -9.89,28.1 -22.2,39.76l-15.35 -17.93c9.55,-9.5 15.16,-19.1 16.79,-28.69 1.68,-9.62 -0.21,-19.66 -5.62,-30.16 -6.2,-12.04 -14.29,-20.65 -24.23,-25.76 -9.95,-5.1 -20.68,-6.8 -32.09,-5.05 -11.47,1.74 -22.38,5.28 -32.73,10.61 -13.36,6.88 -24.03,14.83 -31.99,23.83 -7.99,9.02 -12.31,18.88 -13.03,29.62 -0.71,10.74 1.39,20.86 6.31,30.41 5.99,11.64 14.41,19.71 25.26,24.31 10.87,4.58 23.62,4.91 38.34,0.94zm-2.31 112.71l131.33 -84.32 -31.49 -49.04 17.45 -11.21 75.65 117.82 -17.46 11.21 -31.48 -49.04 -131.33 84.32 -12.67 -19.74zm63.57 96.13l139.04 -109.22 40.98 52.17c8.34,10.62 13.63,20.22 15.88,28.87 2.21,8.62 1.81,17.05 -1.2,25.28 -2.94,8.22 -7.64,14.85 -14.04,19.88 -5.93,4.65 -12.8,7.43 -20.56,8.35 -7.76,0.91 -15.81,-0.61 -24.16,-4.57 4.15,10.34 5.03,20.12 2.6,29.3 -2.36,9.18 -7.6,16.96 -15.7,23.32 -6.53,5.13 -13.68,8.5 -21.44,10.14 -7.76,1.65 -14.73,1.63 -20.95,-0.02 -6.19,-1.69 -12.48,-4.96 -18.81,-9.82 -6.36,-4.9 -13.01,-11.77 -19.98,-20.64l-41.66 -53.04zm95.08 -44.86l23.61 30.07c6.41,8.15 11.56,13.58 15.41,16.27 5.08,3.6 10.17,5.3 15.27,5.12 5.09,-0.18 10.07,-2.17 14.96,-6 4.63,-3.64 7.84,-7.94 9.58,-12.92 1.8,-4.96 1.74,-10.05 -0.2,-15.18 -1.93,-5.12 -6.82,-12.69 -14.65,-22.66l-21.84 -27.8 -42.14 33.1zm-64.28 50.5l27.2 34.62c4.68,5.96 8.19,9.96 10.55,12.02 4.04,3.63 8.1,6.2 12.12,7.65 4.02,1.44 8.44,1.75 13.28,0.92 4.85,-0.82 9.48,-2.99 13.91,-6.48 5.22,-4.09 8.67,-8.96 10.41,-14.66 1.77,-5.68 1.56,-11.48 -0.6,-17.43 -2.13,-5.91 -6.69,-13.32 -13.63,-22.15l-25.27 -32.17 -47.97 37.68zm129.99 61.95c21.18,-20.23 43.26,-30.38 66.13,-30.44 22.88,-0.06 42.91,8.93 60.13,26.96 11.29,11.82 18.62,25.15 22.05,40.01 3.43,14.83 2.47,29.57 -2.86,44.18 -5.31,14.58 -14.36,28 -27.12,40.19 -12.95,12.37 -27.06,20.84 -42.27,25.35 -15.24,4.54 -30.05,4.52 -44.45,-0.05 -14.45,-4.59 -26.96,-12.45 -37.56,-23.55 -11.52,-12.05 -18.87,-25.58 -22.12,-40.61 -3.25,-15.01 -2.21,-29.77 3.19,-44.26 5.37,-14.46 13.65,-27.06 24.88,-37.78zm16.42 17.79c-15.39,14.7 -23.55,30.4 -24.49,47.13 -0.93,16.71 4.55,31.33 16.5,43.83 12.16,12.74 26.6,18.92 43.41,18.64 16.78,-0.32 33.37,-8.32 49.8,-24.02 10.39,-9.91 17.78,-20.34 22.16,-31.25 4.4,-10.9 5.49,-21.79 3.28,-32.61 -2.22,-10.85 -7.33,-20.49 -15.37,-28.91 -11.43,-11.96 -25.37,-18.34 -41.83,-19.12 -16.45,-0.79 -34.27,7.97 -53.46,26.31zm136.49 186.58l20.51 10.28c-4.33,7.57 -6.53,17 -6.61,28.27 -0.04,11.29 4.48,20.89 13.65,28.85 9.32,8.1 18.76,12.1 28.35,11.97 9.54,-0.12 17.28,-3.58 23.19,-10.38 6.37,-7.34 8.65,-15.66 6.71,-24.92 -1.88,-9.26 -7.73,-18.16 -17.49,-26.63l-8.42 -7.31 13.44 -15.48c8.08,7.01 14.66,11.92 19.76,14.71 5.1,2.79 10.97,3.69 17.61,2.69 6.62,-0.95 12.07,-3.9 16.33,-8.81 5.02,-5.79 7.18,-12.79 6.4,-21 -0.75,-8.17 -4.99,-15.61 -12.63,-22.24 -6.71,-5.83 -13.89,-9.11 -21.55,-9.83 -7.67,-0.71 -14.82,0.92 -21.48,4.9 -6.63,4 -11.14,7.38 -13.52,10.12l-13.57 -18.66c28.77,-24.72 56.68,-25.35 83.68,-1.9 13.02,11.31 20.15,23.87 21.49,37.73 1.32,13.85 -2.2,25.62 -10.62,35.32 -10.79,12.43 -25.03,16.96 -42.71,13.6 5.16,7.8 7.5,16.6 7.08,26.37 -0.48,9.78 -4.2,18.71 -11.21,26.79 -9.99,11.5 -22.77,17.23 -38.37,17.26 -15.61,0.02 -30.76,-6.33 -45.43,-19.06 -25.23,-21.91 -30.09,-49.45 -14.59,-82.64zm184.54 104.19c15.79,-24.68 34.83,-39.77 57.04,-45.24 22.22,-5.48 43.8,-1.49 64.81,11.95 13.76,8.8 24.04,20.02 30.9,33.64 6.84,13.6 9.4,28.15 7.68,43.6 -1.71,15.42 -7.31,30.61 -16.82,45.47 -9.66,15.09 -21.35,26.66 -35.07,34.64 -13.73,8.03 -28.13,11.52 -43.19,10.48 -15.13,-1.03 -29.14,-5.7 -42.07,-13.97 -14.05,-8.98 -24.39,-20.39 -31.12,-34.22 -6.7,-13.81 -9.19,-28.4 -7.38,-43.76 1.79,-15.32 6.86,-29.52 15.22,-42.59zm20.16 13.39c-11.46,17.92 -15.67,35.12 -12.62,51.59 3.05,16.46 11.85,29.36 26.41,38.68 14.84,9.49 30.33,12.08 46.59,7.82 16.23,-4.29 30.46,-15.99 42.7,-35.13 7.74,-12.1 12.46,-23.98 14.13,-35.61 1.68,-11.64 0.16,-22.47 -4.54,-32.46 -4.73,-10.02 -11.98,-18.17 -21.79,-24.45 -13.94,-8.91 -28.99,-11.8 -45.16,-8.66 -16.18,3.12 -31.41,15.86 -45.72,38.22zm192.83 13.35l102.14 52.48 -9.48 18.45 -81.27 -41.76 -24.94 48.55 37.56 19.3c13.88,7.13 24.21,14.1 31.04,20.98 6.84,6.86 10.84,15.2 12.01,25.11 1.17,9.85 -0.76,19.64 -5.76,29.38 -4.08,7.95 -9.66,14.47 -16.74,19.53 -7.11,5.1 -15.28,8.02 -24.54,8.76 -9.23,0.77 -22.33,-3.18 -39.21,-11.85l-61.61 -31.66 80.8 -157.27zm-50.79 150.2l41.62 21.39c11.24,5.77 20.83,7.83 28.82,6.15 7.94,-1.7 14.28,-7.1 18.97,-16.22 3.34,-6.51 4.51,-12.75 3.53,-18.76 -0.98,-6.02 -3.96,-11.2 -8.93,-15.57 -5.03,-4.38 -14.44,-10.09 -28.24,-17.18l-27.79 -14.28 -27.98 54.47zm122.28 84.79l64.64 -164.57 32.64 12.82 -6.84 131.78c-0.66,12.26 -1.24,21.4 -1.71,27.44 4.22,-5.24 10.62,-12.88 19.17,-22.92l84.57 -98.91 29.15 11.45 -64.64 164.57 -20.91 -8.22 54.07 -137.68 -102.11 118.82 -19.61 -7.71 7.56 -158.86 -55.07 140.2 -20.91 -8.21zm203.09 76.33l48.77 -169.95 122.71 35.21 -5.72 19.93 -100.16 -28.74 -14.99 52.23 93.76 26.9 -5.72 19.93 -93.76 -26.9 -16.62 57.93 104.2 29.89 -5.72 19.94 -126.75 -36.37zm304.37 -108.81l-13.54 76.35c11.31,2 19.42,1.27 24.42,-2.15 4.95,-3.43 12.04,-12.25 21.29,-26.53 6.82,-10.63 12.18,-17.99 16.17,-22.13 3.96,-4.18 9.12,-7.33 15.48,-9.5 6.37,-2.18 13.02,-2.67 19.91,-1.45 7.53,1.33 12.22,2.26 14.02,2.74l-3.54 19.94c-0.73,-0.13 -2.22,-0.44 -4.48,-0.92 -2.53,-0.54 -4.07,-0.85 -4.59,-0.95 -7.38,-1.3 -13.17,-0.49 -17.33,2.46 -4.27,2.92 -9.8,9.8 -16.52,20.64 -7.32,11.74 -13.21,19.55 -17.75,23.47 -4.51,3.93 -10.56,6.74 -18.15,8.53 10.87,5.19 20.05,17.48 27.65,36.93l25.55 64.29 -28.5 -5.05 -20.81 -52.34c-5.52,-13.93 -10.48,-23.93 -14.83,-30 -4.36,-6.09 -11.31,-9.99 -20.87,-11.69l-14.44 81.45 -23.59 -4.18 14.44 -81.45c-7.58,-1.34 -14.61,-0.55 -21.17,2.44 -6.5,2.98 -14.8,10.41 -24.89,22.29l-1.87 2.09 -37.59 42.03 -28.61 -5.07 46.13 -51.59c14.08,-15.69 27.01,-24.06 38.83,-25.14 -5.83,-3.66 -10.34,-7.98 -13.51,-12.93 -3.23,-4.95 -6.33,-14.79 -9.38,-29.45 -2.77,-13.37 -5.67,-21.95 -8.68,-25.74 -2.99,-3.84 -7.98,-6.36 -15.04,-7.61l-9.32 -1.4 3.54 -19.93c0.91,0 5.35,0.69 13.37,2.11 7.62,1.35 13.95,4.11 18.99,8.22 5.04,4.12 8.71,8.82 11.08,14.08 2.32,5.31 4.93,14.17 7.85,26.68 3.84,16.82 7.48,27.58 10.92,32.29 3.47,4.71 10.88,8.16 22.24,10.34l13.54 -76.35 23.58 4.18zm99.8 191.59l13.41 -176.3 127.3 9.68 -1.57 20.68 -103.91 -7.9 -4.12 54.17 97.26 7.4 -1.57 20.68 -97.26 -7.4 -4.57 60.09 108.09 8.22 -1.58 20.68 -131.48 -10zm175.21 9.64l-4.24 -176.76 23.45 -0.56 1.75 72.83 91.35 -2.2 -1.75 -72.82 23.45 -0.57 4.24 176.76 -23.45 0.56 -2 -83.19 -91.34 2.19 2 83.2 -23.46 0.56zm169.48 -91.25c-3.73,-29.06 1.19,-52.85 14.72,-71.3 13.52,-18.46 32.63,-29.25 57.37,-32.42 16.21,-2.08 31.28,-0.07 45.29,5.98 13.97,6.04 25.27,15.55 33.87,28.51 8.58,12.92 14.03,28.16 16.27,45.67 2.28,17.77 0.73,34.15 -4.67,49.06 -5.38,14.97 -14.18,26.89 -26.4,35.76 -12.27,8.92 -26.01,14.33 -41.24,16.28 -16.53,2.12 -31.78,0.01 -45.82,-6.28 -14,-6.29 -25.27,-15.89 -33.74,-28.82 -8.46,-12.9 -13.68,-27.04 -15.65,-42.44zm24.05 -2.67c2.71,21.11 10.51,36.99 23.43,47.67 12.9,10.66 27.92,14.92 45.07,12.72 17.47,-2.24 31.01,-10.2 40.75,-23.9 9.7,-13.69 13.1,-31.8 10.21,-54.34 -1.82,-14.24 -5.83,-26.38 -12.01,-36.38 -6.18,-10 -14.29,-17.34 -24.32,-21.98 -10.05,-4.65 -20.84,-6.25 -32.39,-4.77 -16.41,2.1 -29.81,9.55 -40.2,22.33 -10.4,12.78 -13.91,32.33 -10.54,58.65zm155.59 -113.69l22.86 -5.27 17.83 77.23 33.2 -7.66c-3.98,-24.76 -0.5,-46.1 10.55,-63.89 11.01,-17.84 27.14,-29.2 48.39,-34.11 22.38,-5.17 42.77,-1.55 61.15,10.89 18.36,12.4 30.7,32.16 36.95,59.26 6.5,28.15 4.25,51.91 -6.8,71.19 -11,19.3 -27.98,31.58 -50.92,36.87 -20.81,4.81 -39.73,1.91 -56.78,-8.64 -17.05,-10.55 -29.61,-27.67 -37.63,-51.42l-33.45 7.72 17.28 74.83 -22.86 5.28 -39.77 -172.28zm98.75 68.78c5.03,21.78 13.95,37.54 26.7,47.23 12.76,9.73 27.26,12.71 43.51,8.96 16.6,-3.83 28.48,-12.91 35.61,-27.27 7.11,-14.35 8.09,-32.83 2.86,-55.48 -4.95,-21.46 -13.75,-37.21 -26.35,-47.31 -12.58,-10.07 -27.2,-13.2 -43.85,-9.36 -16.92,3.91 -28.82,13.25 -35.78,27.99 -6.89,14.77 -7.79,33.18 -2.7,55.24zm244.92 17.52l-64.77 -164.53 61.73 -24.3c12.56,-4.94 23.28,-7.26 32.21,-6.93 8.9,0.35 16.86,3.15 23.87,8.39 7.04,5.19 12.04,11.58 15.03,19.16 2.75,7.01 3.45,14.39 2.1,22.09 -1.35,7.7 -5.12,14.97 -11.3,21.84 11.09,-1.02 20.71,0.94 28.81,5.9 8.12,4.9 14.07,12.15 17.84,21.73 3.04,7.73 4.22,15.54 3.57,23.45 -0.65,7.91 -2.67,14.58 -6.03,20.06 -3.39,5.45 -8.33,10.54 -14.8,15.21 -6.52,4.68 -15,9.09 -25.5,13.22l-62.76 24.71zm-15.71 -103.96l35.57 -14c9.65,-3.8 16.33,-7.18 20.01,-10.09 4.9,-3.83 7.99,-8.23 9.28,-13.16 1.29,-4.93 0.81,-10.27 -1.46,-16.05 -2.16,-5.48 -5.36,-9.79 -9.63,-12.89 -4.24,-3.15 -9.13,-4.54 -14.6,-4.16 -5.46,0.38 -14.11,2.9 -25.91,7.54l-32.89 12.95 19.63 49.86zm29.94 76.06l40.97 -16.12c7.05,-2.78 11.89,-5 14.54,-6.66 4.63,-2.84 8.26,-5.99 10.8,-9.42 2.54,-3.44 4.1,-7.59 4.69,-12.47 0.61,-4.88 -0.15,-9.93 -2.21,-15.18 -2.43,-6.17 -6.1,-10.87 -11.06,-14.18 -4.94,-3.32 -10.56,-4.78 -16.88,-4.41 -6.28,0.34 -14.68,2.59 -25.13,6.7l-38.06 14.98 22.34 56.76zm151.49 -42.09l-80.95 -157.19 20.84 -10.73 80.96 157.19 -20.85 10.73zm-6.91 -194.8l93.4 -53.55 77.63 135.4 13.71 -7.87 30.83 53.77 -18 10.32 -20.51 -35.77 -101.55 58.21 20.51 35.78 -17.99 10.32 -30.83 -53.77 11.79 -6.76c1.73,-25.76 -13.65,-67 -46.13,-123.66l-12.86 -22.42zm83.36 -23.89l-53.55 30.71 4.51 7.85c7.49,13.07 16.56,31.63 27.21,55.66 10.68,24 16.72,45.3 18.23,63.84l70.91 -40.66 -67.31 -117.4zm41.79 -48.76l113.18 -80.3 102.31 144.2 -19.13 13.58 -90.31 -127.29 -74.92 53.15 90.31 127.29 -19.13 13.58 -102.31 -144.21zm192.74 -25.92c-19.17,-22.15 -28.22,-44.7 -27.15,-67.55 1.07,-22.86 11.03,-42.41 29.89,-58.73 12.36,-10.69 26.03,-17.35 41.05,-20.05 14.98,-2.69 29.65,-1.02 43.98,5.03 14.3,6.03 27.26,15.72 38.81,29.07 11.72,13.54 19.48,28.05 23.23,43.46 3.79,15.45 3.04,30.24 -2.24,44.4 -5.29,14.2 -13.75,26.31 -25.36,36.35 -12.61,10.91 -26.48,17.59 -41.66,20.1 -15.14,2.5 -29.84,0.73 -44.05,-5.37 -14.17,-6.07 -26.34,-14.97 -36.5,-26.71zm18.57 -15.52c13.93,16.09 29.21,25.02 45.87,26.78 16.65,1.75 31.52,-3.01 44.59,-14.32 13.32,-11.52 20.21,-25.64 20.75,-42.44 0.51,-16.77 -6.66,-33.75 -21.53,-50.93 -9.39,-10.86 -19.44,-18.76 -30.12,-23.67 -10.67,-4.93 -21.49,-6.55 -32.41,-4.88 -10.95,1.68 -20.83,6.31 -29.63,13.93 -12.52,10.83 -19.57,24.44 -21.16,40.84 -1.6,16.39 6.28,34.62 23.64,54.69zm193.57 -57.99l-128.03 -121.95 45.76 -48.03c9.31,-9.78 18.05,-16.39 26.3,-19.85 8.21,-3.43 16.61,-4.24 25.18,-2.44 8.57,1.73 15.79,5.43 21.69,11.05 5.46,5.19 9.19,11.59 11.21,19.14 2.02,7.56 1.67,15.74 -1.06,24.57 9.64,-5.59 19.19,-7.86 28.63,-6.78 9.42,1.03 17.87,5.1 25.33,12.2 6.01,5.73 10.37,12.32 13.11,19.77 2.74,7.44 3.72,14.34 2.98,20.73 -0.78,6.37 -3.12,13.07 -7.02,20.03 -3.94,6.99 -9.78,14.56 -17.56,22.73l-46.52 48.83zm-58.03 -87.66l26.37 -27.69c7.15,-7.5 11.79,-13.38 13.9,-17.57 2.83,-5.54 3.78,-10.83 2.87,-15.85 -0.9,-5.01 -3.58,-9.66 -8.08,-13.94 -4.26,-4.07 -8.98,-6.63 -14.16,-7.64 -5.17,-1.07 -10.19,-0.27 -15,2.37 -4.78,2.65 -11.57,8.58 -20.32,17.76l-24.38 25.59 38.8 36.97zm59.19 56.37l30.37 -31.88c5.23,-5.49 8.68,-9.53 10.38,-12.16 3.01,-4.52 4.97,-8.91 5.83,-13.09 0.85,-4.19 0.52,-8.61 -0.99,-13.28 -1.51,-4.69 -4.32,-8.95 -8.41,-12.84 -4.8,-4.58 -10.1,-7.3 -16,-8.2 -5.88,-0.93 -11.59,0.1 -17.16,3.1 -5.55,2.95 -12.23,8.53 -19.97,16.66l-28.22 29.62 44.17 42.07zm120.62 -101.11l-133.51 -115.92 15.38 -17.71 133.5 115.92 -15.37 17.71zm-85.84 -172.35l62.36 -87.76 127.22 90.4 9.16 -12.89 50.52 35.9 -12.02 16.92 -33.62 -23.89 -67.8 95.41 33.62 23.89 -12.01 16.91 -50.53 -35.9 7.87 -11.07c-9.22,-24.12 -40.46,-55.12 -93.7,-92.95l-21.07 -14.97zm65.68 -56.63l-35.76 50.32 7.38 5.25c12.28,8.72 28.3,21.78 48.03,39.14 19.76,17.31 34.17,34.11 43.31,50.31l47.35 -66.63 -110.31 -78.39zm162.94 44.51l-119.54 -146.88 12.8 -22.3 189.18 25.64 -13.27 23.09 -56.65 -8.95 -37.08 64.56 36.92 43.32 -12.36 21.52zm-37.63 -80.27l30.01 -52.24 -51.69 -8.43c-15.69,-2.61 -28.44,-5.09 -38.33,-7.4 8.79,7.85 16.99,16.31 24.66,25.42l35.35 42.65zm-15.45 -186.14l50.44 -98.18 157.27 80.8 -10.72 20.85 -138.82 -71.31 -29 56.45 81.01 41.62c16.47,8.47 28.12,15.42 34.99,20.89 6.9,5.49 11.16,11.79 12.9,18.93 1.71,7.13 0.59,14.51 -3.3,22.09 -2.37,4.62 -6.16,9.65 -11.38,15.12l-16.53 -13.21c3.51,-2.5 5.89,-4.98 7.13,-7.4 2.41,-4.68 2.48,-9.14 0.13,-13.3 -2.35,-4.18 -10.09,-9.63 -23.27,-16.4l-110.85 -56.95zm60.29 -129.08l8.58 -21.83 70.11 27.53 15.39 -39.18c7.19,-18.32 14.54,-30.73 22.03,-37.3 7.51,-6.5 15.65,-10.12 24.38,-10.85 8.76,-0.67 17.05,0.51 24.82,3.56 12.76,5.02 22.25,13.74 28.41,26.19 6.22,12.44 4.66,30.45 -4.62,54.08l-24.53 62.44 -164.57 -64.64zm154.53 35.5l15.62 -39.77c6.34,-16.13 7.59,-27.75 3.8,-34.89 -3.79,-7.11 -9.76,-12.28 -17.85,-15.46 -6.54,-2.57 -12.83,-3.01 -18.83,-1.25 -5.98,1.71 -10.83,5.3 -14.49,10.66 -3.66,5.38 -8.27,15.1 -13.81,29.2l-11.44 29.12 57 22.39zm68.89 -132.81l-169.96 -48.77 6.47 -22.55 70.03 20.09 25.2 -87.82 -70.03 -20.09 6.47 -22.55 169.95 48.76 -6.47 22.55 -79.99 -22.95 -25.2 87.82 80 22.96 -6.47 22.55zm48.28 -185.35l-174.1 -30.86 4.1 -23.09 174.09 30.86 -4.09 23.09zm-31.15 -206.4l8.86 -22.52c18.44,7.3 31.81,17.89 40.2,31.79 8.38,13.9 11.42,29.97 9.08,48.22 -2.42,18.87 -8.23,33.72 -17.45,44.57 -9.2,10.85 -21.5,18.41 -36.86,22.7 -15.4,4.3 -31.44,5.38 -48.17,3.24 -18.25,-2.34 -33.73,-7.86 -46.42,-16.57 -12.7,-8.73 -21.76,-19.97 -27.17,-33.74 -5.41,-13.76 -7.11,-28.38 -5.13,-43.81 2.25,-17.56 8.59,-31.72 19.06,-42.49 10.47,-10.82 24.08,-17.54 40.84,-20.16l2.47 23.48c-13.25,2.4 -23.32,7.13 -30.11,14.1 -6.83,6.97 -10.97,16.31 -12.47,28.02 -1.72,13.43 0.05,25.11 5.34,34.97 5.3,9.84 13.18,17.32 23.57,22.35 10.43,5.07 21.42,8.35 32.97,9.83 14.91,1.91 28.21,1.42 39.86,-1.48 11.7,-2.9 20.85,-8.57 27.54,-17.01 6.68,-8.44 10.68,-17.97 12.05,-28.62 1.66,-12.98 -0.69,-24.41 -7.01,-34.35 -6.36,-9.94 -16.68,-17.44 -31.05,-22.52zm68.96 -91.27l-156.03 -3.75 -1.4 58.27 -20.73 -0.5 3.36 -139.97 20.73 0.5 -1.4 58.25 156.03 3.75 -0.56 23.45zm-170.08 -103.95l-1.78 -23.39 79.05 -6.01 -2.59 -33.98c-25.07,0.21 -45.65,-6.44 -61.57,-20.04 -15.98,-13.57 -24.79,-31.22 -26.45,-52.97 -1.74,-22.9 4.9,-42.51 19.96,-58.81 15.03,-16.29 36.41,-25.51 64.15,-27.62 28.81,-2.19 51.96,3.61 69.35,17.43 17.43,13.78 27.02,32.41 28.8,55.89 1.62,21.29 -4.09,39.56 -17.08,54.83 -13,15.27 -31.82,25.11 -56.5,29.47l2.61 34.23 76.57 -5.82 1.78 23.39 -176.3 13.4zm82.85 -87.28c22.29,-1.69 39.21,-8.15 50.71,-19.29 11.53,-11.16 16.67,-25.05 15.4,-41.67 -1.29,-16.99 -8.47,-30.1 -21.6,-39.3 -13.13,-9.19 -31.24,-12.94 -54.42,-11.18 -21.96,1.67 -38.86,8 -50.74,18.93 -11.84,10.93 -17.14,24.91 -15.84,41.94 1.32,17.32 8.76,30.5 22.28,39.59 13.57,9.04 31.64,12.7 54.21,10.98z"/>
  <polygon class="fil0 str0" points="3893.56,1570.55 3911.28,1625.09 3968.62,1625.09 3922.23,1658.79 3939.95,1713.32 3893.56,1679.62 3847.17,1713.32 3864.89,1658.79 3818.5,1625.09 3875.84,1625.09 "/>
  <path class="fil2" d="M598.48 1154.75l14.99 -22.43 139.46 13.97 -70.88 -116.65 14.75 -22.11 88.56 150.28c11.07,18.79 17.45,32.36 19.12,40.78 1.67,8.41 -0.61,17.31 -6.89,26.73 -3.84,5.71 -9.84,11.84 -18.1,18.4l-18.99 -12.7c7.38,-3.69 13.33,-8.83 17.79,-15.48 3.6,-5.42 4.99,-11.25 4.12,-17.5 -0.85,-6.26 -5.87,-15.88 -15.08,-28.89l-168.85 -14.4z"/>
  <path id="_1_0" class="fil2" d="M979.44 713.22l21.08 -16.4 54.3 69.78c9.66,-7.51 14.97,-14.65 16,-21.44 0.98,-6.73 -0.96,-19.61 -5.92,-38.57 -3.73,-13.84 -5.8,-24.08 -6.32,-30.62 -0.47,-6.53 0.79,-13.32 3.78,-20.39 3,-7.03 7.7,-13.05 14.11,-17.99 8.09,-6.33 12.44,-9.56 13,-9.75l14.21 18.27c-0.75,0.53 -2.19,1.62 -4.35,3.19 -2.38,1.71 -3.78,2.76 -4.3,3.19 -6.78,5.22 -10.5,10.76 -11.2,16.55 -0.8,5.84 0.79,15.75 4.81,29.74 5.13,17.64 7.2,29.67 6.22,36.07 -0.98,6.41 -3.19,12.64 -6.71,18.73 12.51,-5.18 30.02,-3.59 52.58,4.83l74.12 27.53 -26.22 20.34 -60.25 -22.55c-16.66,-6.26 -29.15,-9.68 -37.53,-10.33 -8.43,-0.63 -16.53,2.12 -24.34,8.21l58 74.59 -21.09 16.4 -123.98 -159.38z"/>
  <path id="_2" class="fil2" d="M1520.23 628.75l-63.95 -191.42 72.23 -24.15c12.68,-4.24 22.59,-6.88 29.69,-7.9 9.96,-1.55 18.8,-1.22 26.63,1.04 7.81,2.28 14.98,6.76 21.51,13.36 6.52,6.64 11.36,14.71 14.55,24.2 5.44,16.25 4.86,31.78 -1.75,46.48 -6.57,14.76 -23.39,26.64 -50.48,35.66l-49.08 16.42 26.01 77.82 -25.36 8.49zm-8.2 -108.9l49.46 -16.52c16.39,-5.48 26.98,-12.4 31.83,-20.8 4.81,-8.39 5.42,-18.13 1.7,-29.17 -2.67,-7.98 -6.98,-14.16 -12.93,-18.51 -5.95,-4.35 -12.54,-6.34 -19.78,-5.98 -4.62,0.3 -12.7,2.37 -24.2,6.19l-48.94 16.36 22.86 68.43z"/>
  <path id="_3" class="fil2" d="M1976.79 530.95l83.71 -199.43 28.78 0.89 76.38 204.34 -30.43 -0.95 -21.68 -61.85 -84.36 -2.55 -24.04 60.43 -28.36 -0.88zm60.76 -81.09l68.43 2.13 -19.35 -56.57c-5.91,-17.16 -10.25,-31.25 -13,-42.28 -3,12.87 -7.03,25.59 -12.1,38.21l-23.98 58.51z"/>
  <path id="_4" class="fil2" d="M2504.89 604.36l65.76 -190.92 25.28 8.69 -65.77 190.97 -25.27 -8.74zm45.52 -210.9l9.17 -26.68 24.48 8.44 -9.17 26.68 -24.48 -8.44zm48.59 16.74l9.17 -26.73 24.48 8.45 -9.17 26.73 -24.48 -8.45z"/>
  <polygon id="_5" class="fil2" points="2863,770.74 2987.23,611.57 3008.31,628.02 2957.29,693.4 3040.01,757.96 3091.03,692.63 3112.1,709.08 2987.87,868.21 2966.79,851.8 3025.37,776.75 2942.65,712.19 2884.07,787.19 "/>
  <path id="_6" class="fil2" d="M3229.12 1111.53l210.96 -48.28 16.03 23.96 -121.57 181.25 -16.97 -25.26 37.64 -53.7 -47.12 -70.1 -63.13 15.7 -15.84 -23.57zm101.36 2.13l38.18 56.84 34.67 -48.68c10.54,-14.82 19.49,-26.58 26.83,-35.28 -12.18,5.08 -24.89,9.27 -38.11,12.46l-61.57 14.66z"/>
  <path id="_7" class="fil3 str1" d="M598.48 1154.75l14.99 -22.43 139.46 13.97 -70.88 -116.65 14.75 -22.11 88.56 150.28c11.07,18.79 17.45,32.36 19.12,40.78 1.67,8.41 -0.61,17.31 -6.89,26.73 -3.84,5.71 -9.84,11.84 -18.1,18.4l-18.99 -12.7c7.38,-3.69 13.33,-8.83 17.79,-15.48 3.6,-5.42 4.99,-11.25 4.12,-17.5 -0.85,-6.26 -5.87,-15.88 -15.08,-28.89l-168.85 -14.4z"/>
  <path id="_8" class="fil3 str1" d="M979.44 713.22l21.08 -16.4 54.3 69.78c9.66,-7.51 14.97,-14.65 16,-21.44 0.98,-6.73 -0.96,-19.61 -5.92,-38.57 -3.73,-13.84 -5.8,-24.08 -6.32,-30.62 -0.47,-6.53 0.79,-13.32 3.78,-20.39 3,-7.03 7.7,-13.05 14.11,-17.99 8.09,-6.33 12.44,-9.56 13,-9.75l14.21 18.27c-0.75,0.53 -2.19,1.62 -4.35,3.19 -2.38,1.71 -3.78,2.76 -4.3,3.19 -6.78,5.22 -10.5,10.76 -11.2,16.55 -0.8,5.84 0.79,15.75 4.81,29.74 5.13,17.64 7.2,29.67 6.22,36.07 -0.98,6.41 -3.19,12.64 -6.71,18.73 12.51,-5.18 30.02,-3.59 52.58,4.83l74.12 27.53 -26.22 20.34 -60.25 -22.55c-16.66,-6.26 -29.15,-9.68 -37.53,-10.33 -8.43,-0.63 -16.53,2.12 -24.34,8.21l58 74.59 -21.09 16.4 -123.98 -159.38z"/>
  <path id="_9" class="fil3 str1" d="M1520.23 628.75l-63.95 -191.42 72.23 -24.15c12.68,-4.24 22.59,-6.88 29.69,-7.9 9.96,-1.55 18.8,-1.22 26.63,1.04 7.81,2.28 14.98,6.76 21.51,13.36 6.52,6.64 11.36,14.71 14.55,24.2 5.44,16.25 4.86,31.78 -1.75,46.48 -6.57,14.76 -23.39,26.64 -50.48,35.66l-49.08 16.42 26.01 77.82 -25.36 8.49zm-8.2 -108.9l49.46 -16.52c16.39,-5.48 26.98,-12.4 31.83,-20.8 4.81,-8.39 5.42,-18.13 1.7,-29.17 -2.67,-7.98 -6.98,-14.16 -12.93,-18.51 -5.95,-4.35 -12.54,-6.34 -19.78,-5.98 -4.62,0.3 -12.7,2.37 -24.2,6.19l-48.94 16.36 22.86 68.43z"/>
  <path id="_10" class="fil3 str1" d="M1976.79 530.95l83.71 -199.43 28.78 0.89 76.38 204.34 -30.43 -0.95 -21.68 -61.85 -84.36 -2.55 -24.04 60.43 -28.36 -0.88zm60.76 -81.09l68.43 2.13 -19.35 -56.57c-5.91,-17.16 -10.25,-31.25 -13,-42.28 -3,12.87 -7.03,25.59 -12.1,38.21l-23.98 58.51z"/>
  <path id="_11" class="fil3 str1" d="M2504.89 604.36l65.76 -190.92 25.28 8.69 -65.77 190.97 -25.27 -8.74zm45.52 -210.9l9.17 -26.68 24.48 8.44 -9.17 26.68 -24.48 -8.44zm48.59 16.74l9.17 -26.73 24.48 8.45 -9.17 26.73 -24.48 -8.45z"/>
  <polygon id="_12" class="fil3 str1" points="2863,770.74 2987.23,611.57 3008.31,628.02 2957.29,693.4 3040.01,757.96 3091.03,692.63 3112.1,709.08 2987.87,868.21 2966.79,851.8 3025.37,776.75 2942.65,712.19 2884.07,787.19 "/>
  <path id="_13" class="fil3 str1" d="M3229.12 1111.53l210.96 -48.28 16.03 23.96 -121.57 181.25 -16.97 -25.26 37.64 -53.7 -47.12 -70.1 -63.13 15.7 -15.84 -23.57zm101.36 2.13l38.18 56.84 34.67 -48.68c10.54,-14.82 19.49,-26.58 26.83,-35.28 -12.18,5.08 -24.89,9.27 -38.11,12.46l-61.57 14.66z"/>
  <path class="fil2" d="M1438.61 1351.65l-45.8 79.46 45.8 81.38 -38.58 0 -55.9 -81.38 55.9 -79.46 38.58 0zm68.89 0l-45.44 79.46 45.44 81.38 -38.59 0 -55.9 -81.38 55.9 -79.46 38.59 0z"/>
  <polygon id="_1_1" class="fil2" points="1554.08,1524.75 1554.08,1266.54 1606.37,1266.54 1606.37,1368.24 1708.07,1368.24 1708.07,1266.54 1760.36,1266.54 1760.36,1524.75 1708.07,1524.75 1708.07,1411.87 1606.37,1411.87 1606.37,1524.75 "/>
  <path id="_2_2" class="fil2" d="M2047.11 1524.75l-56.32 0 -22.29 -58.78 -103.57 0 -21.45 58.78 -55.3 0 100.26 -258.21 55.23 0 103.44 258.21zm-95.56 -102.42l-35.89 -95.57 -34.86 95.57 70.75 0z"/>
  <path id="_3_3" class="fil2" d="M2111.72 1336.86l-50.85 -11.9c10.94,-42.07 42.01,-63.11 93.22,-63.11 30.3,0 53.2,6.67 68.64,20.02 15.45,13.34 23.14,29.03 23.14,47.06 0,12.32 -3.54,23.44 -10.57,33.42 -7.04,9.91 -17.61,18.63 -31.68,26.2 17.07,5.89 29.93,14.19 38.47,24.95 8.53,10.81 12.8,24.04 12.8,39.85 0,22.71 -8.29,41.05 -24.94,55.05 -16.59,14.01 -41.48,21.04 -74.59,21.04 -26.99,0 -48.33,-4.51 -63.96,-13.53 -15.62,-9.01 -27.34,-25.9 -35.22,-50.66l47.61 -15.51c4.93,15.57 11.54,25.66 19.71,30.23 8.18,4.63 18.27,6.91 30.29,6.91 16.47,0 28.49,-3.54 36.07,-10.69 7.51,-7.16 11.3,-15.33 11.3,-24.59 0,-10.58 -4.27,-19.17 -12.81,-25.66 -8.47,-6.49 -21.33,-9.74 -38.46,-9.74l-11.84 0 0 -38.95 5.95 0c15.92,0 28.13,-3.6 36.54,-10.76 8.48,-7.15 12.68,-16.71 12.68,-28.55 0,-9.43 -3.42,-17.37 -10.28,-23.86 -6.85,-6.43 -16.64,-9.67 -29.39,-9.67 -21.81,0 -35.76,10.81 -41.83,32.45z"/>
  <path id="_4_4" class="fil2" d="M2300.87 1266.54l103.26 0c20.49,0 35.7,0.84 45.74,2.52 10.09,1.75 19.05,5.29 26.98,10.64 7.94,5.41 14.55,12.56 19.84,21.52 5.29,8.96 7.93,19.05 7.93,30.17 0,12.02 -3.24,23.14 -9.74,33.18 -6.49,10.1 -15.32,17.61 -26.44,22.66 15.69,4.63 27.71,12.44 36.18,23.5 8.42,11.06 12.62,24.04 12.62,39.01 0,11.78 -2.7,23.2 -8.17,34.32 -5.47,11.12 -12.92,20.01 -22.42,26.69 -9.44,6.61 -21.1,10.69 -34.98,12.26 -8.66,0.9 -29.63,1.5 -62.87,1.74l-87.93 0 0 -258.21zm52.29 42.91l0 59.51 34.14 0c20.25,0 32.87,-0.3 37.8,-0.9 8.9,-1.03 15.93,-4.09 21.04,-9.2 5.11,-5.11 7.63,-11.78 7.63,-20.07 0,-8 -2.22,-14.43 -6.61,-19.42 -4.39,-4.99 -10.94,-7.99 -19.59,-9.01 -5.17,-0.61 -20.02,-0.91 -44.48,-0.91l-29.93 0zm0 102.42l0 69.24 48.32 0c18.75,0 30.72,-0.54 35.76,-1.56 7.76,-1.44 14.07,-4.87 18.94,-10.34 4.87,-5.53 7.33,-12.8 7.33,-22 0,-7.81 -1.86,-14.36 -5.65,-19.77 -3.73,-5.41 -9.2,-9.38 -16.29,-11.84 -7.09,-2.46 -22.54,-3.73 -46.28,-3.73l-42.13 0z"/>
  <path id="_5_5" class="fil2" d="M2775.93 1524.75l-56.32 0 -22.29 -58.78 -103.57 0 -21.45 58.78 -55.3 0 100.26 -258.21 55.23 0 103.44 258.21zm-95.56 -102.42l-35.89 -95.57 -34.86 95.57 70.75 0z"/>
  <polygon id="_6_6" class="fil2" points="801.85,1927.63 801.85,1713.06 725.39,1713.06 725.39,1669.42 930.23,1669.42 930.23,1713.06 854.14,1713.06 854.14,1927.63 "/>
  <path id="_7_7" class="fil2" d="M944.29 1800.09c0,-26.33 3.96,-48.45 11.84,-66.36 5.83,-13.16 13.88,-25 24.04,-35.46 10.16,-10.46 21.28,-18.21 33.36,-23.32 16.11,-6.79 34.68,-10.22 55.72,-10.22 38.1,0 68.52,11.84 91.42,35.46 22.84,23.68 34.25,56.56 34.25,98.7 0,41.77 -11.35,74.47 -34.01,98.03 -22.66,23.62 -53.02,35.4 -90.94,35.4 -38.41,0 -69,-11.72 -91.66,-35.22 -22.66,-23.44 -34.02,-55.78 -34.02,-97.01zm53.73 -1.75c0,29.28 6.79,51.45 20.32,66.6 13.52,15.09 30.71,22.66 51.51,22.66 20.85,0 37.92,-7.51 51.33,-22.48 13.34,-15.03 20.01,-37.5 20.01,-67.5 0,-29.63 -6.49,-51.75 -19.53,-66.29 -12.99,-14.61 -30.24,-21.88 -51.81,-21.88 -21.52,0 -38.89,7.39 -52.05,22.12 -13.17,14.78 -19.78,37.02 -19.78,66.77z"/>
  <path id="_8_8" class="fil2" d="M1235.62 1669.42l103.26 0c20.49,0 35.7,0.84 45.74,2.52 10.09,1.75 19.05,5.29 26.98,10.64 7.94,5.41 14.55,12.56 19.84,21.52 5.29,8.96 7.93,19.05 7.93,30.17 0,12.02 -3.24,23.14 -9.74,33.18 -6.49,10.1 -15.32,17.61 -26.44,22.66 15.69,4.63 27.71,12.44 36.18,23.5 8.42,11.06 12.62,24.04 12.62,39.01 0,11.78 -2.7,23.2 -8.17,34.32 -5.47,11.12 -12.92,20.01 -22.42,26.69 -9.44,6.61 -21.1,10.69 -34.98,12.26 -8.66,0.9 -29.63,1.5 -62.87,1.74l-87.93 0 0 -258.21zm52.29 42.91l0 59.51 34.14 0c20.25,0 32.87,-0.3 37.8,-0.9 8.9,-1.03 15.93,-4.09 21.04,-9.2 5.11,-5.11 7.63,-11.78 7.63,-20.07 0,-8 -2.22,-14.43 -6.61,-19.42 -4.39,-4.99 -10.94,-7.99 -19.59,-9.01 -5.17,-0.61 -20.02,-0.91 -44.48,-0.91l-29.93 0zm0 102.42l0 69.24 48.32 0c18.75,0 30.72,-0.54 35.76,-1.56 7.76,-1.44 14.07,-4.87 18.94,-10.34 4.87,-5.53 7.33,-12.8 7.33,-22 0,-7.81 -1.86,-14.36 -5.65,-19.77 -3.73,-5.41 -9.2,-9.38 -16.29,-11.84 -7.09,-2.46 -22.54,-3.73 -46.28,-3.73l-42.13 0z"/>
  <path id="_9_9" class="fil2" d="M1710.68 1927.63l-56.32 0 -22.29 -58.78 -103.57 0 -21.45 58.78 -55.3 0 100.26 -258.21 55.23 0 103.44 258.21zm-95.56 -102.42l-35.89 -95.57 -34.86 95.57 70.75 0z"/>
  <path id="_10_10" class="fil2" d="M1738.51 1927.63l0 -258.21 83.6 0c31.68,0 52.29,1.26 61.91,3.85 14.79,3.9 27.17,12.32 37.15,25.3 9.97,12.98 14.96,29.75 14.96,50.31 0,15.87 -2.88,29.15 -8.59,39.97 -5.77,10.82 -13.05,19.29 -21.88,25.48 -8.84,6.13 -17.85,10.22 -26.99,12.2 -12.44,2.47 -30.41,3.73 -53.97,3.73l-33.9 0 0 97.37 -52.29 0zm52.29 -214.57l0 73.56 28.43 0c20.49,0 34.14,-1.38 41.05,-4.08 6.91,-2.71 12.32,-6.92 16.23,-12.75 3.9,-5.77 5.89,-12.44 5.89,-20.13 0,-9.44 -2.77,-17.19 -8.24,-23.32 -5.53,-6.13 -12.44,-9.98 -20.91,-11.54 -6.19,-1.14 -18.64,-1.74 -37.39,-1.74l-25.06 0z"/>
  <polygon id="_11_11" class="fil2" points="1979.77,1669.42 2028.45,1669.42 2028.45,1841.32 2133.04,1669.42 2184.97,1669.42 2184.97,1927.63 2136.28,1927.63 2136.28,1758.49 2031.7,1927.63 1979.77,1927.63 "/>
  <path id="_12_12" class="fil2" d="M2403.44 1832.42l50.49 15.51c-7.75,28.43 -20.67,49.53 -38.7,63.35 -18.04,13.77 -40.88,20.68 -68.58,20.68 -34.32,0 -62.51,-11.72 -84.63,-35.16 -22.06,-23.44 -33.12,-55.48 -33.12,-96.17 0,-42.98 11.12,-76.4 33.3,-100.2 22.18,-23.8 51.39,-35.7 87.57,-35.7 31.62,0 57.28,9.38 77,28.07 11.78,11.06 20.55,26.93 26.44,47.66l-51.57 12.26c-3.06,-13.34 -9.44,-23.92 -19.11,-31.67 -9.74,-7.75 -21.52,-11.6 -35.34,-11.6 -19.18,0 -34.74,6.85 -46.65,20.61 -11.96,13.71 -17.91,35.95 -17.91,66.72 0,32.58 5.89,55.84 17.61,69.66 11.78,13.89 27.05,20.8 45.86,20.8 13.89,0 25.85,-4.39 35.83,-13.22 9.97,-8.84 17.19,-22.66 21.51,-41.6z"/>
  <polygon id="_13_13" class="fil2" points="2547.81,1927.63 2547.81,1713.06 2471.35,1713.06 2471.35,1669.42 2676.19,1669.42 2676.19,1713.06 2600.1,1713.06 2600.1,1927.63 "/>
  <path id="_14" class="fil2" d="M2710.03 1669.42l103.26 0c20.49,0 35.7,0.84 45.74,2.52 10.09,1.75 19.05,5.29 26.98,10.64 7.94,5.41 14.55,12.56 19.84,21.52 5.29,8.96 7.93,19.05 7.93,30.17 0,12.02 -3.24,23.14 -9.74,33.18 -6.49,10.1 -15.32,17.61 -26.44,22.66 15.69,4.63 27.71,12.44 36.18,23.5 8.42,11.06 12.62,24.04 12.62,39.01 0,11.78 -2.7,23.2 -8.17,34.32 -5.47,11.12 -12.92,20.01 -22.42,26.69 -9.44,6.61 -21.1,10.69 -34.98,12.26 -8.66,0.9 -29.63,1.5 -62.87,1.74l-87.93 0 0 -258.21zm52.29 42.91l0 59.51 34.14 0c20.25,0 32.87,-0.3 37.8,-0.9 8.9,-1.03 15.93,-4.09 21.04,-9.2 5.11,-5.11 7.63,-11.78 7.63,-20.07 0,-8 -2.22,-14.43 -6.61,-19.42 -4.39,-4.99 -10.94,-7.99 -19.59,-9.01 -5.17,-0.61 -20.02,-0.91 -44.48,-0.91l-29.93 0zm0 102.42l0 69.24 48.32 0c18.75,0 30.72,-0.54 35.76,-1.56 7.76,-1.44 14.07,-4.87 18.94,-10.34 4.87,-5.53 7.33,-12.8 7.33,-22 0,-7.81 -1.86,-14.36 -5.65,-19.77 -3.73,-5.41 -9.2,-9.38 -16.29,-11.84 -7.09,-2.46 -22.54,-3.73 -46.28,-3.73l-42.13 0z"/>
  <path id="_15" class="fil2" d="M3185.09 1927.63l-56.32 0 -22.29 -58.78 -103.57 0 -21.45 58.78 -55.3 0 100.26 -258.21 55.23 0 103.44 258.21zm-95.56 -102.42l-35.89 -95.57 -34.86 95.57 70.75 0z"/>
  <path id="_16" class="fil2" d="M3274.22 1915.37l45.8 -79.64 -45.8 -81.2 38.59 0 55.9 81.2 -55.9 79.64 -38.59 0zm-69.24 0l45.8 -79.64 -45.8 -81.2 38.59 0 55.9 81.2 -55.9 79.64 -38.59 0z"/>
  <path id="_17" class="fil3 str4" d="M1438.61 1351.65l-45.8 79.46 45.8 81.38 -38.58 0 -55.9 -81.38 55.9 -79.46 38.58 0zm68.89 0l-45.44 79.46 45.44 81.38 -38.59 0 -55.9 -81.38 55.9 -79.46 38.59 0z"/>
  <polygon id="_18" class="fil3 str4" points="1554.08,1524.75 1554.08,1266.54 1606.37,1266.54 1606.37,1368.24 1708.07,1368.24 1708.07,1266.54 1760.36,1266.54 1760.36,1524.75 1708.07,1524.75 1708.07,1411.87 1606.37,1411.87 1606.37,1524.75 "/>
  <path id="_19" class="fil3 str4" d="M2047.11 1524.75l-56.32 0 -22.29 -58.78 -103.57 0 -21.45 58.78 -55.3 0 100.26 -258.21 55.23 0 103.44 258.21zm-95.56 -102.42l-35.89 -95.57 -34.86 95.57 70.75 0z"/>
  <path id="_20" class="fil3 str4" d="M2111.72 1336.86l-50.85 -11.9c10.94,-42.07 42.01,-63.11 93.22,-63.11 30.3,0 53.2,6.67 68.64,20.02 15.45,13.34 23.14,29.03 23.14,47.06 0,12.32 -3.54,23.44 -10.57,33.42 -7.04,9.91 -17.61,18.63 -31.68,26.2 17.07,5.89 29.93,14.19 38.47,24.95 8.53,10.81 12.8,24.04 12.8,39.85 0,22.71 -8.29,41.05 -24.94,55.05 -16.59,14.01 -41.48,21.04 -74.59,21.04 -26.99,0 -48.33,-4.51 -63.96,-13.53 -15.62,-9.01 -27.34,-25.9 -35.22,-50.66l47.61 -15.51c4.93,15.57 11.54,25.66 19.71,30.23 8.18,4.63 18.27,6.91 30.29,6.91 16.47,0 28.49,-3.54 36.07,-10.69 7.51,-7.16 11.3,-15.33 11.3,-24.59 0,-10.58 -4.27,-19.17 -12.81,-25.66 -8.47,-6.49 -21.33,-9.74 -38.46,-9.74l-11.84 0 0 -38.95 5.95 0c15.92,0 28.13,-3.6 36.54,-10.76 8.48,-7.15 12.68,-16.71 12.68,-28.55 0,-9.43 -3.42,-17.37 -10.28,-23.86 -6.85,-6.43 -16.64,-9.67 -29.39,-9.67 -21.81,0 -35.76,10.81 -41.83,32.45z"/>
  <path id="_21" class="fil3 str4" d="M2300.87 1266.54l103.26 0c20.49,0 35.7,0.84 45.74,2.52 10.09,1.75 19.05,5.29 26.98,10.64 7.94,5.41 14.55,12.56 19.84,21.52 5.29,8.96 7.93,19.05 7.93,30.17 0,12.02 -3.24,23.14 -9.74,33.18 -6.49,10.1 -15.32,17.61 -26.44,22.66 15.69,4.63 27.71,12.44 36.18,23.5 8.42,11.06 12.62,24.04 12.62,39.01 0,11.78 -2.7,23.2 -8.17,34.32 -5.47,11.12 -12.92,20.01 -22.42,26.69 -9.44,6.61 -21.1,10.69 -34.98,12.26 -8.66,0.9 -29.63,1.5 -62.87,1.74l-87.93 0 0 -258.21zm52.29 42.91l0 59.51 34.14 0c20.25,0 32.87,-0.3 37.8,-0.9 8.9,-1.03 15.93,-4.09 21.04,-9.2 5.11,-5.11 7.63,-11.78 7.63,-20.07 0,-8 -2.22,-14.43 -6.61,-19.42 -4.39,-4.99 -10.94,-7.99 -19.59,-9.01 -5.17,-0.61 -20.02,-0.91 -44.48,-0.91l-29.93 0zm0 102.42l0 69.24 48.32 0c18.75,0 30.72,-0.54 35.76,-1.56 7.76,-1.44 14.07,-4.87 18.94,-10.34 4.87,-5.53 7.33,-12.8 7.33,-22 0,-7.81 -1.86,-14.36 -5.65,-19.77 -3.73,-5.41 -9.2,-9.38 -16.29,-11.84 -7.09,-2.46 -22.54,-3.73 -46.28,-3.73l-42.13 0z"/>
  <path id="_22" class="fil3 str4" d="M2775.93 1524.75l-56.32 0 -22.29 -58.78 -103.57 0 -21.45 58.78 -55.3 0 100.26 -258.21 55.23 0 103.44 258.21zm-95.56 -102.42l-35.89 -95.57 -34.86 95.57 70.75 0z"/>
  <polygon id="_23" class="fil3 str4" points="801.85,1927.63 801.85,1713.06 725.39,1713.06 725.39,1669.42 930.23,1669.42 930.23,1713.06 854.14,1713.06 854.14,1927.63 "/>
  <path id="_24" class="fil3 str4" d="M944.29 1800.09c0,-26.33 3.96,-48.45 11.84,-66.36 5.83,-13.16 13.88,-25 24.04,-35.46 10.16,-10.46 21.28,-18.21 33.36,-23.32 16.11,-6.79 34.68,-10.22 55.72,-10.22 38.1,0 68.52,11.84 91.42,35.46 22.84,23.68 34.25,56.56 34.25,98.7 0,41.77 -11.35,74.47 -34.01,98.03 -22.66,23.62 -53.02,35.4 -90.94,35.4 -38.41,0 -69,-11.72 -91.66,-35.22 -22.66,-23.44 -34.02,-55.78 -34.02,-97.01zm53.73 -1.75c0,29.28 6.79,51.45 20.32,66.6 13.52,15.09 30.71,22.66 51.51,22.66 20.85,0 37.92,-7.51 51.33,-22.48 13.34,-15.03 20.01,-37.5 20.01,-67.5 0,-29.63 -6.49,-51.75 -19.53,-66.29 -12.99,-14.61 -30.24,-21.88 -51.81,-21.88 -21.52,0 -38.89,7.39 -52.05,22.12 -13.17,14.78 -19.78,37.02 -19.78,66.77z"/>
  <path id="_25" class="fil3 str4" d="M1235.62 1669.42l103.26 0c20.49,0 35.7,0.84 45.74,2.52 10.09,1.75 19.05,5.29 26.98,10.64 7.94,5.41 14.55,12.56 19.84,21.52 5.29,8.96 7.93,19.05 7.93,30.17 0,12.02 -3.24,23.14 -9.74,33.18 -6.49,10.1 -15.32,17.61 -26.44,22.66 15.69,4.63 27.71,12.44 36.18,23.5 8.42,11.06 12.62,24.04 12.62,39.01 0,11.78 -2.7,23.2 -8.17,34.32 -5.47,11.12 -12.92,20.01 -22.42,26.69 -9.44,6.61 -21.1,10.69 -34.98,12.26 -8.66,0.9 -29.63,1.5 -62.87,1.74l-87.93 0 0 -258.21zm52.29 42.91l0 59.51 34.14 0c20.25,0 32.87,-0.3 37.8,-0.9 8.9,-1.03 15.93,-4.09 21.04,-9.2 5.11,-5.11 7.63,-11.78 7.63,-20.07 0,-8 -2.22,-14.43 -6.61,-19.42 -4.39,-4.99 -10.94,-7.99 -19.59,-9.01 -5.17,-0.61 -20.02,-0.91 -44.48,-0.91l-29.93 0zm0 102.42l0 69.24 48.32 0c18.75,0 30.72,-0.54 35.76,-1.56 7.76,-1.44 14.07,-4.87 18.94,-10.34 4.87,-5.53 7.33,-12.8 7.33,-22 0,-7.81 -1.86,-14.36 -5.65,-19.77 -3.73,-5.41 -9.2,-9.38 -16.29,-11.84 -7.09,-2.46 -22.54,-3.73 -46.28,-3.73l-42.13 0z"/>
  <path id="_26" class="fil3 str4" d="M1710.68 1927.63l-56.32 0 -22.29 -58.78 -103.57 0 -21.45 58.78 -55.3 0 100.26 -258.21 55.23 0 103.44 258.21zm-95.56 -102.42l-35.89 -95.57 -34.86 95.57 70.75 0z"/>
  <path id="_27" class="fil3 str4" d="M1738.51 1927.63l0 -258.21 83.6 0c31.68,0 52.29,1.26 61.91,3.85 14.79,3.9 27.17,12.32 37.15,25.3 9.97,12.98 14.96,29.75 14.96,50.31 0,15.87 -2.88,29.15 -8.59,39.97 -5.77,10.82 -13.05,19.29 -21.88,25.48 -8.84,6.13 -17.85,10.22 -26.99,12.2 -12.44,2.47 -30.41,3.73 -53.97,3.73l-33.9 0 0 97.37 -52.29 0zm52.29 -214.57l0 73.56 28.43 0c20.49,0 34.14,-1.38 41.05,-4.08 6.91,-2.71 12.32,-6.92 16.23,-12.75 3.9,-5.77 5.89,-12.44 5.89,-20.13 0,-9.44 -2.77,-17.19 -8.24,-23.32 -5.53,-6.13 -12.44,-9.98 -20.91,-11.54 -6.19,-1.14 -18.64,-1.74 -37.39,-1.74l-25.06 0z"/>
  <polygon id="_28" class="fil3 str4" points="1979.77,1669.42 2028.45,1669.42 2028.45,1841.32 2133.04,1669.42 2184.97,1669.42 2184.97,1927.63 2136.28,1927.63 2136.28,1758.49 2031.7,1927.63 1979.77,1927.63 "/>
  <path id="_29" class="fil3 str4" d="M2403.44 1832.42l50.49 15.51c-7.75,28.43 -20.67,49.53 -38.7,63.35 -18.04,13.77 -40.88,20.68 -68.58,20.68 -34.32,0 -62.51,-11.72 -84.63,-35.16 -22.06,-23.44 -33.12,-55.48 -33.12,-96.17 0,-42.98 11.12,-76.4 33.3,-100.2 22.18,-23.8 51.39,-35.7 87.57,-35.7 31.62,0 57.28,9.38 77,28.07 11.78,11.06 20.55,26.93 26.44,47.66l-51.57 12.26c-3.06,-13.34 -9.44,-23.92 -19.11,-31.67 -9.74,-7.75 -21.52,-11.6 -35.34,-11.6 -19.18,0 -34.74,6.85 -46.65,20.61 -11.96,13.71 -17.91,35.95 -17.91,66.72 0,32.58 5.89,55.84 17.61,69.66 11.78,13.89 27.05,20.8 45.86,20.8 13.89,0 25.85,-4.39 35.83,-13.22 9.97,-8.84 17.19,-22.66 21.51,-41.6z"/>
  <polygon id="_30" class="fil3 str4" points="2547.81,1927.63 2547.81,1713.06 2471.35,1713.06 2471.35,1669.42 2676.19,1669.42 2676.19,1713.06 2600.1,1713.06 2600.1,1927.63 "/>
  <path id="_31" class="fil3 str4" d="M2710.03 1669.42l103.26 0c20.49,0 35.7,0.84 45.74,2.52 10.09,1.75 19.05,5.29 26.98,10.64 7.94,5.41 14.55,12.56 19.84,21.52 5.29,8.96 7.93,19.05 7.93,30.17 0,12.02 -3.24,23.14 -9.74,33.18 -6.49,10.1 -15.32,17.61 -26.44,22.66 15.69,4.63 27.71,12.44 36.18,23.5 8.42,11.06 12.62,24.04 12.62,39.01 0,11.78 -2.7,23.2 -8.17,34.32 -5.47,11.12 -12.92,20.01 -22.42,26.69 -9.44,6.61 -21.1,10.69 -34.98,12.26 -8.66,0.9 -29.63,1.5 -62.87,1.74l-87.93 0 0 -258.21zm52.29 42.91l0 59.51 34.14 0c20.25,0 32.87,-0.3 37.8,-0.9 8.9,-1.03 15.93,-4.09 21.04,-9.2 5.11,-5.11 7.63,-11.78 7.63,-20.07 0,-8 -2.22,-14.43 -6.61,-19.42 -4.39,-4.99 -10.94,-7.99 -19.59,-9.01 -5.17,-0.61 -20.02,-0.91 -44.48,-0.91l-29.93 0zm0 102.42l0 69.24 48.32 0c18.75,0 30.72,-0.54 35.76,-1.56 7.76,-1.44 14.07,-4.87 18.94,-10.34 4.87,-5.53 7.33,-12.8 7.33,-22 0,-7.81 -1.86,-14.36 -5.65,-19.77 -3.73,-5.41 -9.2,-9.38 -16.29,-11.84 -7.09,-2.46 -22.54,-3.73 -46.28,-3.73l-42.13 0z"/>
  <path id="_32" class="fil3 str4" d="M3185.09 1927.63l-56.32 0 -22.29 -58.78 -103.57 0 -21.45 58.78 -55.3 0 100.26 -258.21 55.23 0 103.44 258.21zm-95.56 -102.42l-35.89 -95.57 -34.86 95.57 70.75 0z"/>
  <path id="_33" class="fil3 str4" d="M3274.22 1915.37l45.8 -79.64 -45.8 -81.2 38.59 0 55.9 81.2 -55.9 79.64 -38.59 0zm-69.24 0l45.8 -79.64 -45.8 -81.2 38.59 0 55.9 81.2 -55.9 79.64 -38.59 0z"/>
  <path class="fil2" d="M1128.34 2279.91l44.77 0 89.53 149.81 0 -149.81 43.5 0 0 227.33 -46.99 0 -87.95 -145.94 0 145.94 -42.86 0 0 -227.33zm192.41 104.25c0,-19.37 5.76,-34.72 17.25,-46.15 11.53,-11.43 26.19,-17.14 43.97,-17.14 17.94,0 32.7,6.14 44.29,18.36 11.59,12.28 17.36,27.57 17.36,45.98 0,11.59 -2.33,21.91 -6.99,30.96 -4.65,9.05 -11.27,16.56 -19.89,22.65 -8.63,6.03 -19.79,9.05 -33.55,9.05 -19.42,0 -34.66,-6.14 -45.78,-18.47 -11.11,-12.28 -16.66,-27.36 -16.66,-45.24zm42.22 4.07c0,9.84 1.59,17.2 4.77,22.12 3.22,4.92 7.99,7.35 14.39,7.35 6.67,0 11.64,-3.06 14.97,-9.15 3.28,-6.09 4.93,-15.24 4.93,-27.46 0,-10.11 -1.54,-17.73 -4.56,-22.76 -3.01,-5.08 -7.56,-7.62 -13.65,-7.62 -6.88,0 -12.12,3.12 -15.61,9.37 -3.49,6.24 -5.24,15.66 -5.24,28.15zm-36.51 74.56l110.81 0 0 34.29 -110.81 0 0 -34.29z"/>
  <path id="_1_14" class="fil2" d="M1632.21 2278.64c22.02,0 39.22,7.88 51.65,23.65 14.76,18.63 22.17,49.59 22.17,92.77 0,43.12 -7.46,74.13 -22.33,92.97 -12.33,15.56 -29.47,23.34 -51.49,23.34 -22.12,0 -39.95,-8.52 -53.49,-25.56 -13.55,-17.04 -20.32,-47.47 -20.32,-91.18 0,-42.91 7.46,-73.82 22.33,-92.65 12.33,-15.56 29.47,-23.34 51.48,-23.34zm0 36.19c-5.18,0 -9.84,1.7 -13.86,5.08 -4.07,3.34 -7.25,9.37 -9.47,18.1 -2.97,11.27 -4.45,30.32 -4.45,57.05 0,26.77 1.33,45.13 3.97,55.14 2.65,10 5.98,16.66 10,20 4.02,3.33 8.63,4.97 13.81,4.97 5.19,0 9.85,-1.69 13.92,-5.08 4.02,-3.33 7.2,-9.36 9.42,-18.1 2.96,-11.16 4.45,-30.16 4.45,-56.93 0,-26.73 -1.33,-45.09 -3.97,-55.09 -2.65,-10 -5.98,-16.72 -10,-20.06 -4.03,-3.38 -8.63,-5.08 -13.82,-5.08z"/>
  <path id="_2_15" class="fil2" d="M1808.79 2278.64c22.02,0 39.22,7.88 51.65,23.65 14.76,18.63 22.17,49.59 22.17,92.77 0,43.12 -7.46,74.13 -22.33,92.97 -12.33,15.56 -29.47,23.34 -51.49,23.34 -22.12,0 -39.95,-8.52 -53.49,-25.56 -13.55,-17.04 -20.32,-47.47 -20.32,-91.18 0,-42.91 7.46,-73.82 22.33,-92.65 12.33,-15.56 29.47,-23.34 51.48,-23.34zm0 36.19c-5.18,0 -9.84,1.7 -13.86,5.08 -4.07,3.34 -7.25,9.37 -9.47,18.1 -2.97,11.27 -4.45,30.32 -4.45,57.05 0,26.77 1.33,45.13 3.97,55.14 2.65,10 5.98,16.66 10,20 4.02,3.33 8.63,4.97 13.81,4.97 5.19,0 9.85,-1.69 13.92,-5.08 4.02,-3.33 7.2,-9.36 9.42,-18.1 2.96,-11.16 4.45,-30.16 4.45,-56.93 0,-26.73 -1.33,-45.09 -3.97,-55.09 -2.65,-10 -5.98,-16.72 -10,-20.06 -4.03,-3.38 -8.63,-5.08 -13.82,-5.08z"/>
  <path id="_3_16" class="fil2" d="M1985.37 2278.64c22.02,0 39.22,7.88 51.65,23.65 14.76,18.63 22.17,49.59 22.17,92.77 0,43.12 -7.46,74.13 -22.33,92.97 -12.33,15.56 -29.47,23.34 -51.49,23.34 -22.12,0 -39.95,-8.52 -53.49,-25.56 -13.55,-17.04 -20.32,-47.47 -20.32,-91.18 0,-42.91 7.46,-73.82 22.33,-92.65 12.33,-15.56 29.47,-23.34 51.48,-23.34zm0 36.19c-5.18,0 -9.84,1.7 -13.86,5.08 -4.07,3.34 -7.25,9.37 -9.47,18.1 -2.97,11.27 -4.45,30.32 -4.45,57.05 0,26.77 1.33,45.13 3.97,55.14 2.65,10 5.98,16.66 10,20 4.02,3.33 8.63,4.97 13.81,4.97 5.19,0 9.85,-1.69 13.92,-5.08 4.02,-3.33 7.2,-9.36 9.42,-18.1 2.96,-11.16 4.45,-30.16 4.45,-56.93 0,-26.73 -1.33,-45.09 -3.97,-55.09 -2.65,-10 -5.98,-16.72 -10,-20.06 -4.03,-3.38 -8.63,-5.08 -13.82,-5.08z"/>
  <path id="_4_17" class="fil2" d="M2161.95 2278.64c22.02,0 39.22,7.88 51.65,23.65 14.76,18.63 22.17,49.59 22.17,92.77 0,43.12 -7.46,74.13 -22.33,92.97 -12.33,15.56 -29.47,23.34 -51.49,23.34 -22.12,0 -39.95,-8.52 -53.49,-25.56 -13.55,-17.04 -20.32,-47.47 -20.32,-91.18 0,-42.91 7.46,-73.82 22.33,-92.65 12.33,-15.56 29.47,-23.34 51.48,-23.34zm0 36.19c-5.18,0 -9.84,1.7 -13.86,5.08 -4.07,3.34 -7.25,9.37 -9.47,18.1 -2.97,11.27 -4.45,30.32 -4.45,57.05 0,26.77 1.33,45.13 3.97,55.14 2.65,10 5.98,16.66 10,20 4.02,3.33 8.63,4.97 13.81,4.97 5.19,0 9.85,-1.69 13.92,-5.08 4.02,-3.33 7.2,-9.36 9.42,-18.1 2.96,-11.16 4.45,-30.16 4.45,-56.93 0,-26.73 -1.33,-45.09 -3.97,-55.09 -2.65,-10 -5.98,-16.72 -10,-20.06 -4.03,-3.38 -8.63,-5.08 -13.82,-5.08z"/>
  <path id="_5_18" class="fil2" d="M2338.53 2278.64c22.02,0 39.22,7.88 51.65,23.65 14.76,18.63 22.17,49.59 22.17,92.77 0,43.12 -7.46,74.13 -22.33,92.97 -12.33,15.56 -29.47,23.34 -51.49,23.34 -22.12,0 -39.95,-8.52 -53.49,-25.56 -13.55,-17.04 -20.32,-47.47 -20.32,-91.18 0,-42.91 7.46,-73.82 22.33,-92.65 12.33,-15.56 29.47,-23.34 51.48,-23.34zm0 36.19c-5.18,0 -9.84,1.7 -13.86,5.08 -4.07,3.34 -7.25,9.37 -9.47,18.1 -2.97,11.27 -4.45,30.32 -4.45,57.05 0,26.77 1.33,45.13 3.97,55.14 2.65,10 5.98,16.66 10,20 4.02,3.33 8.63,4.97 13.81,4.97 5.19,0 9.85,-1.69 13.92,-5.08 4.02,-3.33 7.2,-9.36 9.42,-18.1 2.96,-11.16 4.45,-30.16 4.45,-56.93 0,-26.73 -1.33,-45.09 -3.97,-55.09 -2.65,-10 -5.98,-16.72 -10,-20.06 -4.03,-3.38 -8.63,-5.08 -13.82,-5.08z"/>
  <path id="_6_19" class="fil2" d="M2515.11 2278.64c22.02,0 39.22,7.88 51.65,23.65 14.76,18.63 22.17,49.59 22.17,92.77 0,43.12 -7.46,74.13 -22.33,92.97 -12.33,15.56 -29.47,23.34 -51.49,23.34 -22.12,0 -39.95,-8.52 -53.49,-25.56 -13.55,-17.04 -20.32,-47.47 -20.32,-91.18 0,-42.91 7.46,-73.82 22.33,-92.65 12.33,-15.56 29.47,-23.34 51.48,-23.34zm0 36.19c-5.18,0 -9.84,1.7 -13.86,5.08 -4.07,3.34 -7.25,9.37 -9.47,18.1 -2.97,11.27 -4.45,30.32 -4.45,57.05 0,26.77 1.33,45.13 3.97,55.14 2.65,10 5.98,16.66 10,20 4.02,3.33 8.63,4.97 13.81,4.97 5.19,0 9.85,-1.69 13.92,-5.08 4.02,-3.33 7.2,-9.36 9.42,-18.1 2.96,-11.16 4.45,-30.16 4.45,-56.93 0,-26.73 -1.33,-45.09 -3.97,-55.09 -2.65,-10 -5.98,-16.72 -10,-20.06 -4.03,-3.38 -8.63,-5.08 -13.82,-5.08z"/>
  <path id="_7_20" class="fil2" d="M2691.69 2278.64c22.02,0 39.22,7.88 51.65,23.65 14.76,18.63 22.17,49.59 22.17,92.77 0,43.12 -7.46,74.13 -22.33,92.97 -12.33,15.56 -29.47,23.34 -51.49,23.34 -22.12,0 -39.95,-8.52 -53.49,-25.56 -13.55,-17.04 -20.32,-47.47 -20.32,-91.18 0,-42.91 7.46,-73.82 22.33,-92.65 12.33,-15.56 29.47,-23.34 51.48,-23.34zm0 36.19c-5.18,0 -9.84,1.7 -13.86,5.08 -4.07,3.34 -7.25,9.37 -9.47,18.1 -2.97,11.27 -4.45,30.32 -4.45,57.05 0,26.77 1.33,45.13 3.97,55.14 2.65,10 5.98,16.66 10,20 4.02,3.33 8.63,4.97 13.81,4.97 5.19,0 9.85,-1.69 13.92,-5.08 4.02,-3.33 7.2,-9.36 9.42,-18.1 2.96,-11.16 4.45,-30.16 4.45,-56.93 0,-26.73 -1.33,-45.09 -3.97,-55.09 -2.65,-10 -5.98,-16.72 -10,-20.06 -4.03,-3.38 -8.63,-5.08 -13.82,-5.08z"/>
  <path id="_8_21" class="fil2" d="M2868.27 2278.64c22.02,0 39.22,7.88 51.65,23.65 14.76,18.63 22.17,49.59 22.17,92.77 0,43.12 -7.46,74.13 -22.33,92.97 -12.33,15.56 -29.47,23.34 -51.49,23.34 -22.12,0 -39.95,-8.52 -53.49,-25.56 -13.55,-17.04 -20.32,-47.47 -20.32,-91.18 0,-42.91 7.46,-73.82 22.33,-92.65 12.33,-15.56 29.47,-23.34 51.48,-23.34zm0 36.19c-5.18,0 -9.84,1.7 -13.86,5.08 -4.07,3.34 -7.25,9.37 -9.47,18.1 -2.97,11.27 -4.45,30.32 -4.45,57.05 0,26.77 1.33,45.13 3.97,55.14 2.65,10 5.98,16.66 10,20 4.02,3.33 8.63,4.97 13.81,4.97 5.19,0 9.85,-1.69 13.92,-5.08 4.02,-3.33 7.2,-9.36 9.42,-18.1 2.96,-11.16 4.45,-30.16 4.45,-56.93 0,-26.73 -1.33,-45.09 -3.97,-55.09 -2.65,-10 -5.98,-16.72 -10,-20.06 -4.03,-3.38 -8.63,-5.08 -13.82,-5.08z"/>
  <path id="_9_22" class="fil3 str0" d="M1128.34 2279.91l44.77 0 89.53 149.81 0 -149.81 43.5 0 0 227.33 -46.99 0 -87.95 -145.94 0 145.94 -42.86 0 0 -227.33zm192.41 104.25c0,-19.37 5.76,-34.72 17.25,-46.15 11.53,-11.43 26.19,-17.14 43.97,-17.14 17.94,0 32.7,6.14 44.29,18.36 11.59,12.28 17.36,27.57 17.36,45.98 0,11.59 -2.33,21.91 -6.99,30.96 -4.65,9.05 -11.27,16.56 -19.89,22.65 -8.63,6.03 -19.79,9.05 -33.55,9.05 -19.42,0 -34.66,-6.14 -45.78,-18.47 -11.11,-12.28 -16.66,-27.36 -16.66,-45.24zm42.22 4.07c0,9.84 1.59,17.2 4.77,22.12 3.22,4.92 7.99,7.35 14.39,7.35 6.67,0 11.64,-3.06 14.97,-9.15 3.28,-6.09 4.93,-15.24 4.93,-27.46 0,-10.11 -1.54,-17.73 -4.56,-22.76 -3.01,-5.08 -7.56,-7.62 -13.65,-7.62 -6.88,0 -12.12,3.12 -15.61,9.37 -3.49,6.24 -5.24,15.66 -5.24,28.15zm-36.51 74.56l110.81 0 0 34.29 -110.81 0 0 -34.29z"/>
  <path id="_10_23" class="fil3 str0" d="M1632.21 2278.64c22.02,0 39.22,7.88 51.65,23.65 14.76,18.63 22.17,49.59 22.17,92.77 0,43.12 -7.46,74.13 -22.33,92.97 -12.33,15.56 -29.47,23.34 -51.49,23.34 -22.12,0 -39.95,-8.52 -53.49,-25.56 -13.55,-17.04 -20.32,-47.47 -20.32,-91.18 0,-42.91 7.46,-73.82 22.33,-92.65 12.33,-15.56 29.47,-23.34 51.48,-23.34zm0 36.19c-5.18,0 -9.84,1.7 -13.86,5.08 -4.07,3.34 -7.25,9.37 -9.47,18.1 -2.97,11.27 -4.45,30.32 -4.45,57.05 0,26.77 1.33,45.13 3.97,55.14 2.65,10 5.98,16.66 10,20 4.02,3.33 8.63,4.97 13.81,4.97 5.19,0 9.85,-1.69 13.92,-5.08 4.02,-3.33 7.2,-9.36 9.42,-18.1 2.96,-11.16 4.45,-30.16 4.45,-56.93 0,-26.73 -1.33,-45.09 -3.97,-55.09 -2.65,-10 -5.98,-16.72 -10,-20.06 -4.03,-3.38 -8.63,-5.08 -13.82,-5.08z"/>
  <path id="_11_24" class="fil3 str0" d="M1808.79 2278.64c22.02,0 39.22,7.88 51.65,23.65 14.76,18.63 22.17,49.59 22.17,92.77 0,43.12 -7.46,74.13 -22.33,92.97 -12.33,15.56 -29.47,23.34 -51.49,23.34 -22.12,0 -39.95,-8.52 -53.49,-25.56 -13.55,-17.04 -20.32,-47.47 -20.32,-91.18 0,-42.91 7.46,-73.82 22.33,-92.65 12.33,-15.56 29.47,-23.34 51.48,-23.34zm0 36.19c-5.18,0 -9.84,1.7 -13.86,5.08 -4.07,3.34 -7.25,9.37 -9.47,18.1 -2.97,11.27 -4.45,30.32 -4.45,57.05 0,26.77 1.33,45.13 3.97,55.14 2.65,10 5.98,16.66 10,20 4.02,3.33 8.63,4.97 13.81,4.97 5.19,0 9.85,-1.69 13.92,-5.08 4.02,-3.33 7.2,-9.36 9.42,-18.1 2.96,-11.16 4.45,-30.16 4.45,-56.93 0,-26.73 -1.33,-45.09 -3.97,-55.09 -2.65,-10 -5.98,-16.72 -10,-20.06 -4.03,-3.38 -8.63,-5.08 -13.82,-5.08z"/>
  <path id="_12_25" class="fil3 str0" d="M1985.37 2278.64c22.02,0 39.22,7.88 51.65,23.65 14.76,18.63 22.17,49.59 22.17,92.77 0,43.12 -7.46,74.13 -22.33,92.97 -12.33,15.56 -29.47,23.34 -51.49,23.34 -22.12,0 -39.95,-8.52 -53.49,-25.56 -13.55,-17.04 -20.32,-47.47 -20.32,-91.18 0,-42.91 7.46,-73.82 22.33,-92.65 12.33,-15.56 29.47,-23.34 51.48,-23.34zm0 36.19c-5.18,0 -9.84,1.7 -13.86,5.08 -4.07,3.34 -7.25,9.37 -9.47,18.1 -2.97,11.27 -4.45,30.32 -4.45,57.05 0,26.77 1.33,45.13 3.97,55.14 2.65,10 5.98,16.66 10,20 4.02,3.33 8.63,4.97 13.81,4.97 5.19,0 9.85,-1.69 13.92,-5.08 4.02,-3.33 7.2,-9.36 9.42,-18.1 2.96,-11.16 4.45,-30.16 4.45,-56.93 0,-26.73 -1.33,-45.09 -3.97,-55.09 -2.65,-10 -5.98,-16.72 -10,-20.06 -4.03,-3.38 -8.63,-5.08 -13.82,-5.08z"/>
  <path id="_13_26" class="fil3 str0" d="M2161.95 2278.64c22.02,0 39.22,7.88 51.65,23.65 14.76,18.63 22.17,49.59 22.17,92.77 0,43.12 -7.46,74.13 -22.33,92.97 -12.33,15.56 -29.47,23.34 -51.49,23.34 -22.12,0 -39.95,-8.52 -53.49,-25.56 -13.55,-17.04 -20.32,-47.47 -20.32,-91.18 0,-42.91 7.46,-73.82 22.33,-92.65 12.33,-15.56 29.47,-23.34 51.48,-23.34zm0 36.19c-5.18,0 -9.84,1.7 -13.86,5.08 -4.07,3.34 -7.25,9.37 -9.47,18.1 -2.97,11.27 -4.45,30.32 -4.45,57.05 0,26.77 1.33,45.13 3.97,55.14 2.65,10 5.98,16.66 10,20 4.02,3.33 8.63,4.97 13.81,4.97 5.19,0 9.85,-1.69 13.92,-5.08 4.02,-3.33 7.2,-9.36 9.42,-18.1 2.96,-11.16 4.45,-30.16 4.45,-56.93 0,-26.73 -1.33,-45.09 -3.97,-55.09 -2.65,-10 -5.98,-16.72 -10,-20.06 -4.03,-3.38 -8.63,-5.08 -13.82,-5.08z"/>
  <path id="_14_27" class="fil3 str0" d="M2338.53 2278.64c22.02,0 39.22,7.88 51.65,23.65 14.76,18.63 22.17,49.59 22.17,92.77 0,43.12 -7.46,74.13 -22.33,92.97 -12.33,15.56 -29.47,23.34 -51.49,23.34 -22.12,0 -39.95,-8.52 -53.49,-25.56 -13.55,-17.04 -20.32,-47.47 -20.32,-91.18 0,-42.91 7.46,-73.82 22.33,-92.65 12.33,-15.56 29.47,-23.34 51.48,-23.34zm0 36.19c-5.18,0 -9.84,1.7 -13.86,5.08 -4.07,3.34 -7.25,9.37 -9.47,18.1 -2.97,11.27 -4.45,30.32 -4.45,57.05 0,26.77 1.33,45.13 3.97,55.14 2.65,10 5.98,16.66 10,20 4.02,3.33 8.63,4.97 13.81,4.97 5.19,0 9.85,-1.69 13.92,-5.08 4.02,-3.33 7.2,-9.36 9.42,-18.1 2.96,-11.16 4.45,-30.16 4.45,-56.93 0,-26.73 -1.33,-45.09 -3.97,-55.09 -2.65,-10 -5.98,-16.72 -10,-20.06 -4.03,-3.38 -8.63,-5.08 -13.82,-5.08z"/>
  <path id="_15_28" class="fil3 str0" d="M2515.11 2278.64c22.02,0 39.22,7.88 51.65,23.65 14.76,18.63 22.17,49.59 22.17,92.77 0,43.12 -7.46,74.13 -22.33,92.97 -12.33,15.56 -29.47,23.34 -51.49,23.34 -22.12,0 -39.95,-8.52 -53.49,-25.56 -13.55,-17.04 -20.32,-47.47 -20.32,-91.18 0,-42.91 7.46,-73.82 22.33,-92.65 12.33,-15.56 29.47,-23.34 51.48,-23.34zm0 36.19c-5.18,0 -9.84,1.7 -13.86,5.08 -4.07,3.34 -7.25,9.37 -9.47,18.1 -2.97,11.27 -4.45,30.32 -4.45,57.05 0,26.77 1.33,45.13 3.97,55.14 2.65,10 5.98,16.66 10,20 4.02,3.33 8.63,4.97 13.81,4.97 5.19,0 9.85,-1.69 13.92,-5.08 4.02,-3.33 7.2,-9.36 9.42,-18.1 2.96,-11.16 4.45,-30.16 4.45,-56.93 0,-26.73 -1.33,-45.09 -3.97,-55.09 -2.65,-10 -5.98,-16.72 -10,-20.06 -4.03,-3.38 -8.63,-5.08 -13.82,-5.08z"/>
  <path id="_16_29" class="fil3 str0" d="M2691.69 2278.64c22.02,0 39.22,7.88 51.65,23.65 14.76,18.63 22.17,49.59 22.17,92.77 0,43.12 -7.46,74.13 -22.33,92.97 -12.33,15.56 -29.47,23.34 -51.49,23.34 -22.12,0 -39.95,-8.52 -53.49,-25.56 -13.55,-17.04 -20.32,-47.47 -20.32,-91.18 0,-42.91 7.46,-73.82 22.33,-92.65 12.33,-15.56 29.47,-23.34 51.48,-23.34zm0 36.19c-5.18,0 -9.84,1.7 -13.86,5.08 -4.07,3.34 -7.25,9.37 -9.47,18.1 -2.97,11.27 -4.45,30.32 -4.45,57.05 0,26.77 1.33,45.13 3.97,55.14 2.65,10 5.98,16.66 10,20 4.02,3.33 8.63,4.97 13.81,4.97 5.19,0 9.85,-1.69 13.92,-5.08 4.02,-3.33 7.2,-9.36 9.42,-18.1 2.96,-11.16 4.45,-30.16 4.45,-56.93 0,-26.73 -1.33,-45.09 -3.97,-55.09 -2.65,-10 -5.98,-16.72 -10,-20.06 -4.03,-3.38 -8.63,-5.08 -13.82,-5.08z"/>
  <path id="_17_30" class="fil3 str0" d="M2868.27 2278.64c22.02,0 39.22,7.88 51.65,23.65 14.76,18.63 22.17,49.59 22.17,92.77 0,43.12 -7.46,74.13 -22.33,92.97 -12.33,15.56 -29.47,23.34 -51.49,23.34 -22.12,0 -39.95,-8.52 -53.49,-25.56 -13.55,-17.04 -20.32,-47.47 -20.32,-91.18 0,-42.91 7.46,-73.82 22.33,-92.65 12.33,-15.56 29.47,-23.34 51.48,-23.34zm0 36.19c-5.18,0 -9.84,1.7 -13.86,5.08 -4.07,3.34 -7.25,9.37 -9.47,18.1 -2.97,11.27 -4.45,30.32 -4.45,57.05 0,26.77 1.33,45.13 3.97,55.14 2.65,10 5.98,16.66 10,20 4.02,3.33 8.63,4.97 13.81,4.97 5.19,0 9.85,-1.69 13.92,-5.08 4.02,-3.33 7.2,-9.36 9.42,-18.1 2.96,-11.16 4.45,-30.16 4.45,-56.93 0,-26.73 -1.33,-45.09 -3.97,-55.09 -2.65,-10 -5.98,-16.72 -10,-20.06 -4.03,-3.38 -8.63,-5.08 -13.82,-5.08z"/>
 </g>
</svg>
