<?xml version="1.0" encoding="UTF-8"?>
<!DOCTYPE svg PUBLIC "-//W3C//DTD SVG 1.1//EN" "http://www.w3.org/Graphics/SVG/1.1/DTD/svg11.dtd">
<!-- Creator: CorelDRAW 2019 (64-Bit) -->
<svg xmlns="http://www.w3.org/2000/svg" xml:space="preserve" width="41mm" height="41mm" version="1.1" style="shape-rendering:geometricPrecision; text-rendering:geometricPrecision; image-rendering:optimizeQuality; fill-rule:evenodd; clip-rule:evenodd"
viewBox="0 0 4100 4100"
 xmlns:xlink="http://www.w3.org/1999/xlink"
 xmlns:xodm="http://www.corel.com/coreldraw/odm/2003">
 <defs>
  <style type="text/css">
   <![CDATA[
    .str3 {stroke:#393185;stroke-width:29.29;stroke-miterlimit:22.9256}
    .str2 {stroke:#393185;stroke-width:25;stroke-miterlimit:22.9256}
    .str1 {stroke:#393185;stroke-width:20;stroke-miterlimit:22.9256}
    .str0 {stroke:#393185;stroke-width:25;stroke-linecap:round;stroke-linejoin:round;stroke-miterlimit:22.9256}
    .str4 {stroke:#393185;stroke-width:20;stroke-linecap:round;stroke-linejoin:round;stroke-miterlimit:22.9256}
    .fil2 {fill:none}
    .fil4 {fill:none;fill-rule:nonzero}
    .fil1 {fill:#393185}
    .fil0 {fill:#393185;fill-rule:nonzero}
    .fil3 {fill:#FEFEFE;fill-rule:nonzero}
   ]]>
  </style>
 </defs>
 <g id="Слой_x0020_1">
  <metadata id="CorelCorpID_0Corel-Layer"/>
  <path class="fil0 str0" d="M2144.34 102.45l2.17 -28.83 28.18 2.12 -2.18 28.82c28.76,3.7 50.89,14.13 66.37,31.27 15.53,17.15 22.38,37.46 20.61,60.99 -1.73,23.05 -11.28,42.02 -28.7,56.95 -17.41,14.88 -41.09,22.06 -71.12,21.44l-2.2 29.13 -28.18 -2.12 2.2 -29.14c-26.73,-3.07 -48.44,-12.93 -65.12,-29.63 -16.68,-16.65 -24.06,-37.63 -22.16,-62.85 1.9,-25.27 12.34,-44.87 31.28,-58.72 18.92,-13.86 41.85,-20.31 68.85,-19.43zm26.25 27.76l-8.99 119.35c19.43,0.52 35.06,-3.98 46.96,-13.48 11.92,-9.52 18.53,-23.33 19.91,-41.5 1.34,-17.83 -3.04,-32.32 -13.17,-43.6 -10.14,-11.21 -25.02,-18.12 -44.71,-20.77zm-28.21 -1.81c-18.74,-0.56 -34.25,3.79 -46.58,13.16 -12.31,9.36 -19.19,23.17 -20.57,41.48 -1.37,18.1 3.26,32.72 13.88,43.93 10.62,11.2 25.4,17.89 44.33,20.15l8.94 -118.72zm156.49 190.21l28.48 -225.54 29.92 3.78 -28.48 225.54 -29.92 -3.78zm90.52 -51.19l29.48 -0.71c-0.36,11.22 2.85,23.24 9.56,36.08 6.76,12.85 17.7,21.01 32.92,24.52 15.47,3.55 28.61,2.39 39.4,-3.53 10.76,-5.89 17.46,-14.51 20.06,-25.81 2.81,-12.17 0.36,-22.99 -7.44,-32.32 -7.73,-9.39 -19.73,-15.96 -35.92,-19.68l-13.98 -3.22 5.91 -25.67c13.41,3.08 23.85,4.67 31.32,4.76 7.47,0.08 14.68,-2.43 21.61,-7.57 6.93,-5.08 11.34,-11.73 13.21,-19.87 2.2,-9.6 0.43,-18.86 -5.41,-27.69 -5.79,-8.83 -15.08,-14.71 -27.76,-17.63 -11.15,-2.57 -21.27,-1.96 -30.41,1.86 -9.13,3.81 -16.25,10 -21.42,18.52 -5.11,8.55 -8.2,15.12 -9.23,19.66l-26.67 -12.98c17.72,-45.44 49.02,-63.01 93.84,-52.7 21.6,4.98 37.29,14.93 47.15,29.86 9.88,14.92 13,30.41 9.29,46.49 -4.74,20.63 -18.16,34.37 -40.28,41.24 10.58,5.74 18.54,14.32 23.97,25.66 5.37,11.38 6.53,23.76 3.45,37.17 -4.39,19.08 -15.43,33.32 -33.13,42.76 -17.7,9.46 -38.73,11.4 -63.07,5.81 -41.87,-9.64 -64.02,-37.97 -66.45,-85.01zm274.33 -100.05l25.42 10 -65.91 167.52 178.52 -123.22 27.73 10.91 -83.23 211.55 -25.41 -10 65.73 -167.08 -178.06 122.89 -28.02 -11.02 83.23 -211.55zm277.64 373.77l-26.86 -13.73 41.68 -81.52c-28.58,-3.37 -51.92,-9.68 -69.97,-18.9 -14.09,-7.2 -24.84,-16.85 -32.21,-28.95 -7.44,-12.07 -10.36,-24.13 -8.81,-36.12 1.55,-11.98 6.49,-26.17 14.87,-42.55l30.46 -59.57 26.85 13.73 -29.17 57.07c-11.31,22.09 -14.74,38.7 -10.26,49.78 4.51,11.05 12.44,19.5 23.74,25.29 18.9,9.65 40.87,15.61 65.95,17.85l50.37 -98.52 26.85 13.73 -103.49 202.41zm48.05 30.76l131.61 -185.36 24.59 17.46 -54.21 76.37 95.79 68.01 54.21 -76.37 24.59 17.46 -131.6 185.37 -24.59 -17.47 61.94 -87.24 -95.79 -68.02 -61.94 87.24 -24.6 -17.45zm171.42 120.8l219.91 -104.53 23.95 22.8 -89.7 228.47 -24.79 -23.61 28.45 -68.04 -69.34 -66 -65.36 32.91 -23.12 -22zm111.74 -22.52l56.11 53.42 26.28 -62c8.04,-18.8 15.03,-33.98 20.93,-45.62 -12.48,8.58 -25.54,16.24 -39.27,23.05l-64.05 31.15zm251.94 244.1c30.69,-21.85 60.63,-30.7 89.76,-26.56 29.13,4.13 52.96,19.26 71.56,45.38 12.19,17.11 19.04,35.41 20.7,54.96 1.61,19.51 -2.31,38.09 -11.79,55.7 -9.44,17.57 -23.41,32.98 -41.91,46.15 -18.74,13.34 -38.25,21.53 -58.44,24.47 -20.24,2.98 -39.08,0.22 -56.56,-8.25 -17.53,-8.49 -32.02,-20.79 -43.47,-36.86 -12.43,-17.47 -19.28,-36.03 -20.68,-55.76 -1.36,-19.7 2.69,-38.29 12.22,-55.74 9.49,-17.41 22.36,-31.9 38.61,-43.49zm17.62 25.66c-22.29,15.88 -35.56,34.36 -39.83,55.45 -4.27,21.1 0.03,40.72 12.92,58.83 13.14,18.44 30.38,28.97 51.82,31.7 21.4,2.68 43.99,-4.45 67.78,-21.4 15.05,-10.71 26.38,-22.62 33.97,-35.67 7.58,-13.08 10.98,-26.73 10.18,-40.91 -0.84,-14.22 -5.56,-27.41 -14.25,-39.62 -12.35,-17.32 -28.91,-28 -49.72,-32.03 -20.8,-4.02 -45.07,3.85 -72.87,23.65zm181.63 365l6.99 30.32c-24.87,5.68 -46.75,4.18 -65.76,-4.45 -18.99,-8.62 -33.91,-23.44 -44.71,-44.49 -11.16,-21.75 -15.83,-41.72 -13.92,-59.95 1.83,-18.19 9.37,-35.14 22.53,-50.87 13.21,-15.76 29.4,-28.59 48.7,-38.5 21.05,-10.79 41.46,-16.23 61.27,-16.22 19.81,0 37.6,5.34 53.34,15.99 15.76,10.65 28.19,24.91 37.32,42.7 10.4,20.25 13.98,39.87 10.73,58.91 -3.24,19.09 -12.76,36.11 -28.63,51.1l-19.68 -23.09c12.29,-12.2 19.52,-24.52 21.64,-36.87 2.17,-12.35 -0.25,-25.27 -7.18,-38.78 -7.95,-15.48 -18.34,-26.57 -31.11,-33.16 -12.78,-6.59 -26.58,-8.79 -41.26,-6.55 -14.73,2.21 -28.77,6.74 -42.09,13.57 -17.19,8.82 -30.92,19.02 -41.16,30.58 -10.31,11.6 -15.87,24.26 -16.81,38.07 -0.95,13.82 1.75,26.82 8.05,39.12 7.69,14.96 18.5,25.36 32.42,31.3 13.98,5.91 30.39,6.35 49.32,1.27zm56.3 53.91c35.69,-12.1 66.91,-11.96 93.62,0.39 26.69,12.33 45.17,33.69 55.46,64.04 6.76,19.91 8.06,39.4 4,58.61 -4.06,19.14 -13.16,35.81 -27.31,49.95 -14.09,14.1 -31.91,24.84 -53.42,32.14 -21.78,7.38 -42.83,9.6 -63.01,6.61 -20.23,-2.97 -37.49,-11.03 -51.79,-24.18 -14.35,-13.17 -24.68,-29.12 -31.01,-47.82 -6.89,-20.29 -8.11,-40.04 -3.77,-59.35 4.37,-19.25 13.6,-35.89 27.75,-49.86 14.1,-13.95 30.59,-24.12 49.48,-30.53zm9.5 29.64c-25.92,8.79 -43.96,22.67 -54.1,41.65 -10.17,18.98 -11.7,39 -4.56,60.05 7.28,21.44 20.76,36.49 40.49,45.27 19.73,8.73 43.43,8.4 71.08,-0.98 17.5,-5.93 31.78,-14.07 42.79,-24.4 11.04,-10.34 18.22,-22.43 21.53,-36.23 3.29,-13.87 2.57,-27.87 -2.24,-42.05 -6.84,-20.15 -19.64,-35.14 -38.39,-44.98 -18.77,-9.84 -44.28,-9.29 -76.6,1.67zm189.25 217.12l26.07 145.33 -26.26 4.69 -20.73 -115.63 -69.07 12.39 9.59 53.43c3.53,19.75 4.47,35.77 2.76,48.11 -1.66,12.34 -7.07,22.94 -16.28,31.84 -9.15,8.9 -20.66,14.58 -34.52,17.06 -11.3,2.03 -22.32,1.42 -33.02,-1.88 -10.75,-3.29 -20.11,-9.34 -28.11,-18.24 -7.97,-8.84 -14.16,-25.31 -18.46,-49.31l-15.73 -87.66 223.76 -40.13zm-193.12 65.27l10.62 59.23c2.88,15.98 8.24,27.38 16.19,34.24 7.94,6.8 18.41,9.06 31.37,6.73 9.27,-1.65 16.57,-5.33 21.96,-11.02 5.36,-5.7 8.34,-12.78 8.92,-21.28 0.55,-8.54 -0.95,-22.63 -4.46,-42.27l-7.09 -39.52 -77.51 13.89zm1.6 153.45l233.34 69.55 2.54 32.97 -219.58 109.69 -2.62 -34.13 66.69 -31.49 -7.33 -95.46 -70.59 -19.31 -2.45 -31.82zm98.09 58.07l5.93 77.25 61.02 -28.47c18.54,-8.58 33.92,-15.18 46.09,-19.88 -15.03,-1.98 -29.85,-5.04 -44.61,-9.16l-68.43 -19.74zm-17.18 171.45l27.93 0.69 -2.13 86.34 -27.93 -0.68 2.13 -86.35zm154.67 153.74l-22.35 177.03 -225.53 -28.48 3.77 -29.92 199.09 25.14 14.78 -117.19 -199.08 -25.13 3.78 -29.92 225.54 28.47zm-261.21 207.9l221.55 50.97 -6.77 29.4 -221.54 -50.97 6.76 -29.4zm191.31 180.11l-44.27 131.17 -190.12 -64.18 -6.51 19.26 -75.49 -25.49 8.53 -25.27 50.23 16.95 48.13 -142.59 -50.24 -16.96 8.54 -25.26 75.49 25.48 -5.57 16.54c20.28,26.29 70.23,52.86 149.79,79.73l31.49 10.62zm-59.89 94.05l25.39 -75.2 -11.04 -3.72c-18.35,-6.2 -42.91,-16.34 -73.63,-30.39 -30.73,-14.01 -54.71,-29.36 -71.96,-45.91l-33.61 99.58 164.85 55.64zm-14.65 116.34l-73.39 162.63 -207.21 -93.51 12.41 -27.49 182.9 82.54 48.58 -107.66 -182.9 -82.53 12.41 -27.49 207.2 93.51zm-309.37 117.12l191.47 122.56 -46.28 72.29c-8.12,12.7 -14.97,22.02 -20.48,27.98 -7.57,8.41 -15.62,14.38 -24.06,17.96 -8.49,3.55 -17.92,4.74 -28.29,3.56 -10.37,-1.17 -20.3,-4.82 -29.79,-10.9 -16.22,-10.38 -26.68,-24.36 -31.26,-41.94 -4.66,-17.54 1.73,-39.91 19.08,-67.01l31.43 -49.11 -78.07 -49.99 16.25 -25.4zm84.29 89.77l-31.67 49.47c-10.5,16.4 -14.88,29.92 -13.2,40.74 1.72,10.77 8.07,19.69 19.17,26.79 7.98,5.11 16.14,7.49 24.43,7.09 8.29,-0.41 15.51,-3.33 21.56,-8.75 3.86,-3.58 9.48,-11.09 16.81,-22.54l31.36 -48.99 -68.46 -43.81zm-31.56 242.5l-17.86 20.66 -136.16 -117.77 56.98 209.29 -19.49 22.53 -171.93 -148.73 17.87 -20.64 135.78 117.46 -56.82 -208.76 19.7 -22.76 171.93 148.72zm-315.45 195.1l-18.41 -19.29 61.09 -58.32c-18.42,-17.61 -37.4,-27.22 -56.96,-28.88 -19.58,-1.56 -36.75,4.66 -51.53,18.76 -26.22,25.04 -29.44,54.6 -9.66,88.68l-26.16 14.43c-25.15,-45.35 -19.58,-85.34 16.75,-120.02 25.95,-24.77 53.24,-34.87 81.88,-30.24 28.64,4.54 54.16,19.48 76.7,44.7 14.25,14.93 24.46,31.29 30.6,49 6.11,17.72 7.1,36.16 2.99,55.24 -4.11,19.06 -14.28,36.3 -30.44,51.73 -17.07,16.29 -35.35,25.7 -54.88,28.26 -19.52,2.53 -38.48,-1.77 -56.86,-12.89l16.1 -25.9c28.02,16.85 53.91,13.94 77.73,-8.8 16.04,-15.3 24.01,-32.15 23.88,-50.53 -0.05,-18.38 -7.58,-36.22 -22.41,-53.59l-60.41 57.66zm-186.36 -13.78l131.88 185.16 -36.73 26.16 -137.15 -99.88c-12.73,-9.31 -22.17,-16.37 -28.35,-21.12 2.67,8.23 6.41,20.5 11.23,36.76l47.16 160.53 -32.8 23.36 -131.88 -185.16 23.54 -16.77 110.32 154.9 -56.28 -193.39 22.07 -15.73 165.81 119.7 -112.37 -157.75 23.55 -16.77zm-227.56 148.52l103.79 202.26 -146.04 74.94 -12.18 -23.72 119.2 -61.17 -31.89 -62.15 -111.57 57.26 -12.18 -23.73 111.58 -57.25 -35.37 -68.93 -124.02 63.63 -12.16 -23.72 150.84 -77.42zm-123.54 309.59l-28.57 9.69 -64.45 -190.03 -111.85 37.93 64.45 190.03 -28.56 9.69 -64.45 -190.03 -19.55 6.63 -28.85 -85.09 25.26 -8.56 20.29 59.82 163.27 -55.36 73.01 215.28zm-263.03 82.77l-29.68 5.33 -17.09 -95.32 -53.28 9.56c-24.9,4.46 -43.45,4.78 -55.67,1.01 -12.21,-3.84 -21.65,-10.32 -28.33,-19.39 -6.62,-9.13 -10.93,-19 -12.83,-29.58 -3.1,-17.34 0.06,-33.6 9.54,-48.75 9.43,-15.19 30.19,-25.63 62.32,-31.4l84.9 -15.22 40.12 223.76zm-65.27 -193.12l-54.06 9.7c-21.94,3.94 -35.49,10.4 -40.77,19.35 -5.23,8.95 -6.87,18.98 -4.9,29.96 1.59,8.91 5.36,16.08 11.32,21.47 5.92,5.38 13.1,8.3 21.45,8.67 8.35,0.39 22.11,-1.11 41.28,-4.54l39.58 -7.1 -13.9 -77.51z"/>
  <g id="_1826857136">
   <path class="fil1" d="M2306.98 4034.02l-4.22 0.48c-6.81,-89.41 -14.37,-181.79 -23.04,-278.66l27.26 278.18zm-4.22 0.48c-81.82,10.19 -165.16,15.5 -249.74,15.5 -1104.57,0 -2000,-896.6 -2000,-2000 0,-1103.4 867.85,-1976.29 1956.31,-1999.91 -1.04,93.26 -1.97,186.39 -2.78,279.27 -933.29,3.5 -1674.25,771.39 -1674.25,1720.64 0,949.25 770.39,1720.72 1720.72,1720.72 76.85,0 152.51,-5.12 226.7,-14.88 8.67,96.87 16.23,189.25 23.04,278.66z"/>
   <path id="_1" class="fil2 str1" d="M2306.98 4034.02l-4.22 0.48c-6.81,-89.41 -14.37,-181.79 -23.04,-278.66m23.04 278.66c-81.82,10.19 -165.16,15.5 -249.74,15.5 -1104.57,0 -2000,-896.6 -2000,-2000 0,-1103.4 867.85,-1976.29 1956.31,-1999.91 -1.04,93.26 -1.97,186.39 -2.78,279.27 -933.29,3.5 -1674.25,771.39 -1674.25,1720.64 0,949.25 770.39,1720.72 1720.72,1720.72 76.85,0 152.51,-5.12 226.7,-14.88 8.67,96.87 16.23,189.25 23.04,278.66z"/>
  </g>
  <circle class="fil2" cx="2050" cy="2050" r="2000"/>
  <g id="_1826826352">
   <path class="fil3" d="M1841 178.69c-0.56,-8.33 -2.45,-16.6 -5.66,-24.81 -4.61,-11.79 -6.91,-19.94 -6.91,-24.38 0,-6.3 1.67,-11.05 5.03,-14.32 3.28,-3.28 7.4,-4.88 12.35,-4.88 4.2,0 7.9,1.6 11.04,4.88 3.07,3.27 4.68,7.9 4.68,13.94 0,5.44 -1.81,12.97 -5.45,22.72 -3.63,9.69 -5.87,18.64 -6.7,26.85 7.54,-4.26 14.24,-9.38 20.25,-15.37 9.29,-9.5 16.2,-15.43 20.67,-17.71 4.47,-2.29 9.01,-3.46 13.62,-3.46 4.47,0 8.24,1.36 11.31,4.07 3,2.72 4.54,5.93 4.54,9.7 0,4.44 -2.23,8.45 -6.63,11.91 -4.48,3.52 -15.65,7.04 -33.66,10.49 -10.48,2.04 -19.21,4.45 -26.19,7.1 7.12,3.21 15.78,5.68 25.98,7.41 16.48,2.65 27.3,5.99 32.4,9.94 5.09,4.01 7.68,8.33 7.68,13.02 0,3.64 -1.54,6.73 -4.61,9.38 -3.07,2.66 -6.63,4.02 -10.68,4.02 -4.12,0 -8.66,-1.3 -13.62,-3.83 -4.96,-2.53 -11.66,-8.15 -20.18,-16.98 -5.59,-5.92 -12.57,-11.41 -20.88,-16.6 0.28,6.85 1.88,14.32 4.75,22.41 4.96,14.19 7.4,23.89 7.4,29.01 0,4.81 -1.61,8.83 -4.89,12.16 -3.28,3.27 -6.77,4.94 -10.47,4.94 -5.03,0 -9.57,-1.73 -13.69,-5.19 -2.86,-2.53 -4.26,-6.54 -4.26,-12.1 0,-5.74 1.54,-12.65 4.68,-20.8 3.07,-8.15 5.03,-13.77 5.86,-16.79 0.84,-3.09 1.54,-7.65 2.24,-13.64 -8.03,4.69 -15.02,9.94 -21.02,15.68 -9.92,9.93 -17.39,16.17 -22.42,18.82 -3.56,1.92 -7.19,2.91 -11.03,2.91 -4.61,0 -8.59,-1.36 -11.87,-4.14 -3.28,-2.78 -4.89,-5.86 -4.89,-9.26 0,-3.02 1.4,-6.17 4.19,-9.51 2.79,-3.33 6.98,-6.05 12.57,-8.2 3.7,-1.49 12.01,-3.4 25.14,-5.81 8.38,-1.54 16.62,-3.89 24.65,-6.91 -7.33,-3.21 -16.13,-5.74 -26.33,-7.59 -16.76,-3.09 -27.09,-5.93 -31,-8.46 -6.15,-4.01 -9.22,-8.83 -9.22,-14.5 0,-3.28 1.54,-6.24 4.61,-8.96 3.07,-2.71 6.63,-4.07 10.68,-4.07 4.54,0 9.29,1.23 14.32,3.77 5.1,2.52 11.31,7.65 18.78,15.3 7.47,7.66 15.08,13.58 22.84,17.84z"/>
   <path class="fil3" d="M1363.79 296.55c-2.7,-7.9 -6.66,-15.41 -11.89,-22.5 -7.5,-10.2 -11.83,-17.47 -12.98,-21.77 -1.63,-6.08 -1.25,-11.1 1.15,-15.13 2.32,-4.01 5.88,-6.63 10.67,-7.91 4.05,-1.09 8.04,-0.49 11.92,1.85 3.82,2.37 6.56,6.42 8.13,12.27 1.41,5.25 1.61,12.99 0.62,23.35 -1,10.3 -0.84,19.53 0.47,27.67 6.19,-6.06 11.34,-12.75 15.59,-20.09 6.51,-11.58 11.65,-19.1 15.38,-22.46 3.72,-3.36 7.81,-5.67 12.26,-6.86 4.31,-1.16 8.31,-0.82 11.98,1 3.6,1.85 5.92,4.56 6.89,8.19 1.15,4.3 0.03,8.75 -3.32,13.23 -3.41,4.55 -13.29,10.84 -29.8,18.84 -9.59,4.68 -17.4,9.27 -23.46,13.64 7.72,1.26 16.71,1.4 27.01,0.43 16.61,-1.7 27.93,-1.28 33.87,1.21 5.96,2.56 9.58,6.06 10.79,10.59 0.94,3.52 0.26,6.9 -2.02,10.26 -2.28,3.36 -5.37,5.59 -9.28,6.64 -3.98,1.07 -8.7,0.99 -14.15,-0.17 -5.44,-1.16 -13.37,-4.85 -23.89,-11.17 -6.93,-4.28 -15.09,-7.78 -24.46,-10.64 2.05,6.55 5.53,13.35 10.39,20.42 8.46,12.42 13.33,21.16 14.65,26.1 1.25,4.65 0.74,8.95 -1.57,13.01 -2.32,4.02 -5.26,6.53 -8.84,7.49 -4.85,1.3 -9.69,0.8 -14.56,-1.47 -3.42,-1.7 -5.81,-5.22 -7.25,-10.59 -1.49,-5.54 -1.79,-12.61 -0.86,-21.3 0.86,-8.67 1.29,-14.6 1.32,-17.73 0.01,-3.2 -0.5,-7.8 -1.37,-13.76 -6.55,6.61 -11.93,13.48 -16.25,20.58 -7,12.17 -12.61,20.13 -16.78,23.99 -2.94,2.77 -6.2,4.67 -9.9,5.66 -4.45,1.19 -8.65,0.91 -12.54,-0.92 -3.89,-1.84 -6.24,-4.4 -7.12,-7.68 -0.78,-2.92 -0.25,-6.33 1.59,-10.27 1.83,-3.94 5.17,-7.65 10.01,-11.18 3.2,-2.39 10.73,-6.39 22.78,-12.11 7.7,-3.66 15.05,-8.06 22.02,-13.06 -7.91,-1.2 -17.06,-1.37 -27.39,-0.52 -16.99,1.36 -27.71,1.29 -32.14,-0.14 -6.97,-2.29 -11.19,-6.14 -12.66,-11.63 -0.84,-3.16 -0.12,-6.42 2.14,-9.84 2.27,-3.41 5.35,-5.65 9.27,-6.7 4.38,-1.17 9.28,-1.21 14.8,-0.06 5.58,1.12 12.91,4.46 22.1,9.92 9.2,5.46 18.09,9.21 26.68,11.32z"/>
   <path class="fil3" d="M933.35 533.9c-4.65,-6.93 -10.42,-13.16 -17.31,-18.66 -9.89,-7.9 -15.96,-13.81 -18.18,-17.66 -3.14,-5.45 -4.07,-10.4 -2.8,-14.92 1.2,-4.47 3.97,-7.92 8.26,-10.4 3.63,-2.09 7.64,-2.55 11.99,-1.29 4.3,1.29 8,4.5 11.03,9.74 2.72,4.71 4.91,12.13 6.64,22.39 1.7,10.22 4.24,19.08 7.62,26.61 4.4,-7.46 7.65,-15.25 9.85,-23.43 3.3,-12.88 6.32,-21.47 9.05,-25.68 2.73,-4.21 6.07,-7.5 10.06,-9.8 3.87,-2.24 7.82,-2.95 11.84,-2.13 3.96,0.85 6.89,2.86 8.77,6.12 2.23,3.85 2.3,8.44 0.22,13.63 -2.12,5.29 -10.03,13.92 -23.91,25.92 -8.05,7.01 -14.41,13.45 -19.13,19.25 7.78,-0.79 16.51,-2.98 26.21,-6.58 15.59,-5.94 26.63,-8.47 33.02,-7.59 6.42,0.92 10.82,3.37 13.17,7.43 1.82,3.16 2.03,6.6 0.7,10.43 -1.34,3.84 -3.74,6.8 -7.25,8.82 -3.56,2.06 -8.15,3.21 -13.71,3.5 -5.55,0.28 -14.17,-1.23 -25.96,-4.61 -7.8,-2.34 -16.6,-3.61 -26.39,-3.95 3.68,5.8 8.8,11.46 15.32,17.04 11.4,9.81 18.36,16.98 20.92,21.42 2.4,4.17 3.02,8.45 1.85,12.97 -1.21,4.48 -3.4,7.67 -6.61,9.52 -4.35,2.51 -9.15,3.28 -14.45,2.35 -3.74,-0.76 -6.96,-3.54 -9.73,-8.35 -2.87,-4.97 -5,-11.72 -6.35,-20.35 -1.41,-8.6 -2.53,-14.44 -3.32,-17.47 -0.81,-3.1 -2.49,-7.4 -4.88,-12.94 -4.61,8.08 -8.03,16.12 -10.37,24.09 -3.61,13.56 -6.97,22.7 -9.99,27.51 -2.13,3.44 -4.78,6.12 -8.11,8.04 -3.99,2.3 -8.12,3.11 -12.35,2.35 -4.23,-0.77 -7.16,-2.63 -8.86,-5.58 -1.52,-2.61 -1.88,-6.04 -1.13,-10.32 0.75,-4.29 3.03,-8.74 6.79,-13.4 2.46,-3.13 8.7,-8.95 18.86,-17.59 6.49,-5.53 12.46,-11.68 17.9,-18.31 -7.96,0.88 -16.84,3.09 -26.6,6.58 -16.06,5.71 -26.43,8.42 -31.08,8.18 -7.33,-0.4 -12.4,-3.03 -15.24,-7.95 -1.63,-2.83 -1.78,-6.17 -0.48,-10.06 1.31,-3.89 3.71,-6.84 7.22,-8.87 3.93,-2.27 8.66,-3.57 14.28,-3.89 5.68,-0.36 13.62,0.97 23.92,3.86 10.3,2.89 19.85,4.22 28.7,4.03z"/>
   <path class="fil3" d="M579 874.57c-6.29,-5.49 -13.47,-10.01 -21.55,-13.54 -11.59,-5.08 -18.98,-9.21 -22.12,-12.36 -4.46,-4.45 -6.64,-8.99 -6.58,-13.68 0.01,-4.63 1.79,-8.68 5.29,-12.19 2.97,-2.96 6.72,-4.44 11.25,-4.35 4.49,0.14 8.9,2.28 13.18,6.56 3.84,3.84 7.88,10.45 12.21,19.91 4.28,9.42 9.03,17.33 14.25,23.73 2.32,-8.35 3.44,-16.71 3.45,-25.19 -0.16,-13.29 0.54,-22.37 2.08,-27.14 1.55,-4.78 3.93,-8.82 7.19,-12.08 3.16,-3.16 6.79,-4.86 10.88,-5.12 4.04,-0.2 7.4,0.99 10.06,3.65 3.15,3.14 4.4,7.56 3.74,13.11 -0.68,5.65 -6.09,16.04 -16.38,31.22 -5.97,8.85 -10.44,16.73 -13.5,23.54 7.31,-2.77 15.17,-7.14 23.61,-13.13 13.53,-9.78 23.53,-15.07 29.93,-15.88 6.44,-0.77 11.33,0.46 14.64,3.77 2.58,2.58 3.68,5.85 3.38,9.9 -0.3,4.05 -1.85,7.52 -4.72,10.39 -2.91,2.91 -7.04,5.2 -12.33,6.92 -5.3,1.71 -14.01,2.48 -26.28,2.27 -8.14,-0.24 -16.96,0.81 -26.5,3.02 5.04,4.65 11.46,8.79 19.2,12.49 13.55,6.53 22.13,11.66 25.75,15.28 3.4,3.4 5.11,7.38 5.14,12.05 -0.01,4.64 -1.3,8.28 -3.91,10.9 -3.56,3.56 -7.99,5.54 -13.35,6.01 -3.81,0.24 -7.64,-1.61 -11.57,-5.54 -4.06,-4.06 -7.86,-10.03 -11.4,-18.02 -3.59,-7.93 -6.18,-13.29 -7.72,-16.02 -1.59,-2.77 -4.33,-6.5 -8.07,-11.23 -2.36,9 -3.59,17.65 -3.78,25.96 0.02,14.03 -0.85,23.73 -2.53,29.16 -1.17,3.87 -3.04,7.14 -5.75,9.85 -3.26,3.26 -7.04,5.12 -11.32,5.47 -4.29,0.36 -7.6,-0.69 -10.01,-3.09 -2.13,-2.14 -3.37,-5.35 -3.75,-9.68 -0.39,-4.33 0.65,-9.22 3.08,-14.69 1.57,-3.67 6.09,-10.9 13.67,-21.89 4.83,-7.01 9.01,-14.5 12.55,-22.31 -7.46,2.91 -15.47,7.34 -23.99,13.24 -14.03,9.67 -23.35,14.97 -27.9,15.95 -7.19,1.5 -12.76,0.28 -16.78,-3.74 -2.31,-2.31 -3.32,-5.5 -3.07,-9.59 0.26,-4.09 1.81,-7.57 4.68,-10.44 3.21,-3.21 7.43,-5.69 12.78,-7.45 5.4,-1.82 13.42,-2.59 24.11,-2.46 10.69,0.12 20.27,-1.07 28.76,-3.54z"/>
   <path class="fil3" d="M324.9 1295.35c-7.49,-3.68 -15.6,-6.19 -24.32,-7.51 -12.51,-1.9 -20.72,-3.98 -24.57,-6.21 -5.45,-3.14 -8.73,-6.97 -9.89,-11.51 -1.19,-4.48 -0.52,-8.85 1.96,-13.14 2.09,-3.63 5.33,-6.03 9.74,-7.12 4.37,-1.02 9.18,-0.1 14.42,2.93 4.7,2.71 10.32,8.05 16.95,16.07 6.58,7.99 13.21,14.4 19.9,19.23 0.08,-8.66 -1,-17.03 -3.19,-25.22 -3.58,-12.8 -5.26,-21.75 -5,-26.76 0.25,-5.01 1.51,-9.53 3.81,-13.52 2.24,-3.87 5.3,-6.46 9.19,-7.76 3.85,-1.25 7.4,-0.97 10.66,0.91 3.85,2.23 6.21,6.16 7,11.7 0.81,5.63 -1.73,17.07 -7.74,34.4 -3.48,10.09 -5.76,18.86 -6.95,26.23 6.35,-4.57 12.81,-10.83 19.41,-18.8 10.53,-12.94 18.83,-20.65 24.8,-23.09 6.02,-2.4 11.06,-2.48 15.12,-0.14 3.16,1.83 5.06,4.7 5.82,8.68 0.77,3.99 0.16,7.76 -1.86,11.27 -2.06,3.56 -5.46,6.85 -10.13,9.88 -4.67,3.02 -12.88,6.02 -24.79,8.98 -7.93,1.88 -16.17,5.18 -24.82,9.78 6.08,3.19 13.35,5.53 21.78,7.09 14.78,2.81 24.39,5.54 28.83,8.1 4.16,2.41 6.84,5.8 8.09,10.31 1.19,4.48 0.89,8.34 -0.96,11.54 -2.52,4.36 -6.29,7.42 -11.34,9.27 -3.62,1.21 -7.8,0.41 -12.61,-2.36 -4.97,-2.87 -10.19,-7.66 -15.67,-14.46 -5.52,-6.74 -9.41,-11.24 -11.61,-13.47 -2.25,-2.27 -5.86,-5.16 -10.7,-8.76 0.05,9.3 1.1,17.97 3.07,26.04 3.65,13.56 5.32,23.15 5.1,28.83 -0.13,4.04 -1.09,7.68 -3.01,11.01 -2.3,3.99 -5.47,6.76 -9.52,8.21 -4.04,1.45 -7.52,1.3 -10.46,-0.4 -2.62,-1.51 -4.64,-4.3 -6.14,-8.38 -1.49,-4.08 -1.74,-9.07 -0.82,-14.99 0.57,-3.95 3.06,-12.1 7.55,-24.67 2.85,-8.03 4.94,-16.34 6.33,-24.81 -6.44,4.75 -13.03,11.1 -19.74,19.01 -11.05,12.97 -18.68,20.5 -22.82,22.62 -6.55,3.32 -12.25,3.57 -17.17,0.73 -2.84,-1.63 -4.63,-4.45 -5.45,-8.47 -0.81,-4.02 -0.21,-7.78 1.81,-11.29 2.27,-3.93 5.72,-7.42 10.42,-10.51 4.74,-3.15 12.29,-5.97 22.65,-8.62 10.37,-2.64 19.3,-6.27 26.87,-10.85z"/>
   <path class="fil3" d="M188.36 1767.55c-8.19,-1.62 -16.67,-1.94 -25.43,-0.96 -12.58,1.4 -21.05,1.52 -25.34,0.37 -6.08,-1.63 -10.24,-4.48 -12.53,-8.57 -2.31,-4.01 -2.8,-8.41 -1.52,-13.19 1.09,-4.05 3.6,-7.21 7.57,-9.4 3.96,-2.12 8.84,-2.47 14.69,-0.91 5.24,1.41 12.05,5.11 20.53,11.14 8.42,6.02 16.49,10.49 24.2,13.43 -2.16,-8.39 -5.37,-16.19 -9.6,-23.54 -6.78,-11.43 -10.72,-19.65 -11.77,-24.55 -1.04,-4.91 -1,-9.6 0.19,-14.05 1.16,-4.32 3.44,-7.61 6.86,-9.88 3.4,-2.19 6.9,-2.84 10.54,-1.87 4.29,1.15 7.59,4.34 9.79,9.49 2.24,5.23 2.75,16.93 1.42,35.23 -0.74,10.65 -0.67,19.7 0.08,27.13 4.95,-6.05 9.57,-13.77 13.88,-23.18 6.83,-15.23 12.85,-24.82 17.99,-28.72 5.19,-3.88 10.03,-5.26 14.56,-4.05 3.52,0.95 6.11,3.23 7.87,6.88 1.77,3.66 2.17,7.45 1.12,11.36 -1.07,3.98 -3.5,8.03 -7.22,12.16 -3.73,4.13 -10.89,9.16 -21.63,15.1 -7.17,3.87 -14.28,9.19 -21.44,15.87 6.69,1.51 14.32,1.89 22.88,1.21 14.99,-1.11 24.99,-0.96 29.93,0.37 4.65,1.24 8.11,3.83 10.49,7.86 2.31,4.02 3.01,7.82 2.05,11.4 -1.3,4.86 -4.14,8.79 -8.55,11.88 -3.18,2.11 -7.42,2.42 -12.79,0.98 -5.54,-1.48 -11.82,-4.76 -18.88,-9.9 -7.08,-5.08 -11.99,-8.42 -14.7,-10.01 -2.76,-1.61 -6.99,-3.47 -12.6,-5.69 2.46,8.97 5.72,17.07 9.7,24.36 7.04,12.15 11.13,20.98 12.39,26.52 0.93,3.94 0.94,7.7 -0.05,11.41 -1.19,4.45 -3.54,7.95 -7.07,10.4 -3.53,2.45 -6.93,3.2 -10.21,2.33 -2.92,-0.79 -5.6,-2.96 -8.1,-6.51 -2.5,-3.56 -4.03,-8.31 -4.67,-14.27 -0.48,-3.96 -0.18,-12.48 0.9,-25.78 0.68,-8.5 0.54,-17.07 -0.3,-25.6 -5,6.25 -9.72,14.09 -14.15,23.46 -7.32,15.39 -12.73,24.64 -16.19,27.76 -5.47,4.9 -10.91,6.62 -16.4,5.15 -3.16,-0.85 -5.62,-3.1 -7.45,-6.77 -1.83,-3.67 -2.22,-7.46 -1.17,-11.38 1.17,-4.38 3.59,-8.64 7.34,-12.84 3.77,-4.28 10.33,-8.96 19.65,-14.19 9.33,-5.23 17.02,-11.05 23.14,-17.44z"/>
   <path class="fil3" d="M178.69 2259c-8.33,0.56 -16.6,2.45 -24.81,5.66 -11.79,4.61 -19.94,6.91 -24.38,6.91 -6.3,0 -11.05,-1.67 -14.32,-5.03 -3.28,-3.28 -4.88,-7.4 -4.88,-12.35 0,-4.2 1.6,-7.9 4.88,-11.04 3.27,-3.07 7.9,-4.68 13.94,-4.68 5.44,0 12.97,1.81 22.72,5.45 9.69,3.63 18.64,5.87 26.85,6.7 -4.26,-7.54 -9.38,-14.24 -15.37,-20.25 -9.5,-9.29 -15.43,-16.2 -17.71,-20.67 -2.29,-4.47 -3.46,-9.01 -3.46,-13.62 0,-4.47 1.36,-8.24 4.07,-11.31 2.72,-3 5.93,-4.54 9.7,-4.54 4.44,0 8.45,2.23 11.91,6.63 3.52,4.48 7.04,15.65 10.49,33.66 2.04,10.48 4.45,19.21 7.1,26.19 3.21,-7.12 5.68,-15.78 7.41,-25.98 2.65,-16.48 5.99,-27.3 9.94,-32.4 4.01,-5.09 8.33,-7.68 13.02,-7.68 3.64,0 6.73,1.54 9.38,4.61 2.66,3.07 4.02,6.63 4.02,10.68 0,4.12 -1.3,8.66 -3.83,13.62 -2.53,4.96 -8.15,11.66 -16.98,20.18 -5.92,5.59 -11.41,12.57 -16.6,20.88 6.85,-0.28 14.32,-1.88 22.41,-4.75 14.19,-4.96 23.89,-7.4 29.01,-7.4 4.81,0 8.83,1.61 12.16,4.89 3.27,3.28 4.94,6.77 4.94,10.47 0,5.03 -1.73,9.57 -5.19,13.69 -2.53,2.86 -6.54,4.26 -12.1,4.26 -5.74,0 -12.65,-1.54 -20.8,-4.68 -8.15,-3.07 -13.77,-5.03 -16.79,-5.86 -3.09,-0.84 -7.65,-1.54 -13.64,-2.24 4.69,8.03 9.94,15.02 15.68,21.02 9.93,9.92 16.17,17.39 18.82,22.42 1.92,3.56 2.91,7.19 2.91,11.03 0,4.61 -1.36,8.59 -4.14,11.87 -2.78,3.28 -5.86,4.89 -9.26,4.89 -3.02,0 -6.17,-1.4 -9.51,-4.19 -3.33,-2.79 -6.05,-6.98 -8.2,-12.57 -1.49,-3.7 -3.4,-12.01 -5.81,-25.14 -1.54,-8.38 -3.89,-16.62 -6.91,-24.65 -3.21,7.33 -5.74,16.13 -7.59,26.33 -3.09,16.76 -5.93,27.09 -8.46,31 -4.01,6.15 -8.83,9.22 -14.5,9.22 -3.28,0 -6.24,-1.54 -8.96,-4.61 -2.71,-3.07 -4.07,-6.63 -4.07,-10.68 0,-4.54 1.23,-9.29 3.77,-14.32 2.52,-5.1 7.65,-11.31 15.3,-18.78 7.66,-7.47 13.58,-15.08 17.84,-22.84z"/>
   <path class="fil3" d="M296.55 2736.21c-7.9,2.7 -15.41,6.66 -22.5,11.89 -10.2,7.5 -17.47,11.83 -21.77,12.98 -6.08,1.63 -11.1,1.25 -15.13,-1.15 -4.01,-2.32 -6.63,-5.88 -7.91,-10.67 -1.09,-4.05 -0.49,-8.04 1.85,-11.92 2.37,-3.82 6.42,-6.56 12.27,-8.13 5.25,-1.41 12.99,-1.61 23.35,-0.62 10.3,1 19.53,0.84 27.67,-0.47 -6.06,-6.19 -12.75,-11.34 -20.09,-15.59 -11.58,-6.51 -19.1,-11.65 -22.46,-15.38 -3.36,-3.72 -5.67,-7.81 -6.86,-12.26 -1.16,-4.31 -0.82,-8.31 1,-11.98 1.85,-3.6 4.56,-5.92 8.19,-6.89 4.3,-1.15 8.75,-0.03 13.23,3.32 4.55,3.41 10.84,13.29 18.84,29.8 4.68,9.59 9.27,17.4 13.64,23.46 1.26,-7.72 1.4,-16.71 0.43,-27.01 -1.7,-16.61 -1.28,-27.93 1.21,-33.87 2.56,-5.96 6.06,-9.58 10.59,-10.79 3.52,-0.94 6.9,-0.26 10.26,2.02 3.36,2.28 5.59,5.37 6.64,9.28 1.07,3.98 0.99,8.7 -0.17,14.15 -1.16,5.44 -4.85,13.37 -11.17,23.89 -4.28,6.93 -7.78,15.09 -10.64,24.46 6.55,-2.05 13.35,-5.53 20.42,-10.39 12.42,-8.46 21.16,-13.33 26.1,-14.65 4.65,-1.25 8.95,-0.74 13.01,1.57 4.02,2.32 6.53,5.26 7.49,8.84 1.3,4.85 0.8,9.69 -1.47,14.56 -1.7,3.42 -5.22,5.81 -10.59,7.25 -5.54,1.49 -12.61,1.79 -21.3,0.86 -8.67,-0.86 -14.6,-1.29 -17.73,-1.32 -3.2,-0.01 -7.8,0.5 -13.76,1.37 6.61,6.55 13.48,11.93 20.58,16.25 12.17,7 20.13,12.61 23.99,16.78 2.77,2.94 4.67,6.2 5.66,9.9 1.19,4.45 0.91,8.65 -0.92,12.54 -1.84,3.89 -4.4,6.24 -7.68,7.12 -2.92,0.78 -6.33,0.25 -10.27,-1.59 -3.94,-1.83 -7.65,-5.17 -11.18,-10.01 -2.39,-3.2 -6.39,-10.73 -12.11,-22.78 -3.66,-7.7 -8.06,-15.05 -13.06,-22.02 -1.2,7.91 -1.37,17.06 -0.52,27.39 1.36,16.99 1.29,27.71 -0.14,32.14 -2.29,6.97 -6.14,11.19 -11.63,12.66 -3.16,0.84 -6.42,0.12 -9.84,-2.14 -3.41,-2.27 -5.65,-5.35 -6.7,-9.27 -1.17,-4.38 -1.21,-9.28 -0.06,-14.8 1.12,-5.58 4.46,-12.91 9.92,-22.1 5.46,-9.2 9.21,-18.09 11.32,-26.68z"/>
   <path class="fil3" d="M533.9 3166.65c-6.93,4.65 -13.16,10.42 -18.66,17.31 -7.9,9.89 -13.81,15.96 -17.66,18.18 -5.45,3.14 -10.4,4.07 -14.92,2.8 -4.47,-1.2 -7.92,-3.97 -10.4,-8.26 -2.09,-3.63 -2.55,-7.64 -1.29,-11.99 1.29,-4.3 4.5,-8 9.74,-11.03 4.71,-2.72 12.13,-4.91 22.39,-6.64 10.22,-1.7 19.08,-4.24 26.61,-7.62 -7.46,-4.4 -15.25,-7.65 -23.43,-9.85 -12.88,-3.3 -21.47,-6.32 -25.68,-9.05 -4.21,-2.73 -7.5,-6.07 -9.8,-10.06 -2.24,-3.87 -2.95,-7.82 -2.13,-11.84 0.85,-3.96 2.86,-6.89 6.12,-8.77 3.85,-2.23 8.44,-2.3 13.63,-0.22 5.29,2.12 13.92,10.03 25.92,23.91 7.01,8.05 13.45,14.41 19.25,19.13 -0.79,-7.78 -2.98,-16.51 -6.58,-26.21 -5.94,-15.59 -8.47,-26.63 -7.59,-33.02 0.92,-6.42 3.37,-10.82 7.43,-13.17 3.16,-1.82 6.6,-2.03 10.43,-0.7 3.84,1.34 6.8,3.74 8.82,7.25 2.06,3.56 3.21,8.15 3.5,13.71 0.28,5.55 -1.23,14.17 -4.61,25.96 -2.34,7.8 -3.61,16.6 -3.95,26.39 5.8,-3.68 11.46,-8.8 17.04,-15.32 9.81,-11.4 16.98,-18.36 21.42,-20.92 4.17,-2.4 8.45,-3.02 12.97,-1.85 4.48,1.21 7.67,3.4 9.52,6.61 2.51,4.35 3.28,9.15 2.35,14.45 -0.76,3.74 -3.54,6.96 -8.35,9.73 -4.97,2.87 -11.72,5 -20.35,6.35 -8.6,1.41 -14.44,2.53 -17.47,3.32 -3.1,0.81 -7.4,2.49 -12.94,4.88 8.08,4.61 16.12,8.03 24.09,10.37 13.56,3.61 22.7,6.97 27.51,9.99 3.44,2.13 6.12,4.78 8.04,8.11 2.3,3.99 3.11,8.12 2.35,12.35 -0.77,4.23 -2.63,7.16 -5.58,8.86 -2.61,1.52 -6.04,1.88 -10.32,1.13 -4.29,-0.75 -8.74,-3.03 -13.4,-6.79 -3.13,-2.46 -8.95,-8.7 -17.59,-18.86 -5.53,-6.49 -11.68,-12.46 -18.31,-17.9 0.88,7.96 3.09,16.84 6.58,26.6 5.71,16.06 8.42,26.43 8.18,31.08 -0.4,7.33 -3.03,12.4 -7.95,15.24 -2.83,1.63 -6.17,1.78 -10.06,0.48 -3.89,-1.31 -6.84,-3.71 -8.87,-7.22 -2.27,-3.93 -3.57,-8.66 -3.89,-14.28 -0.36,-5.68 0.97,-13.62 3.86,-23.92 2.89,-10.3 4.22,-19.85 4.03,-28.7z"/>
   <path class="fil3" d="M874.57 3521c-5.49,6.29 -10.01,13.47 -13.54,21.55 -5.08,11.59 -9.21,18.98 -12.36,22.12 -4.45,4.46 -8.99,6.64 -13.68,6.58 -4.63,-0.01 -8.68,-1.79 -12.19,-5.29 -2.96,-2.97 -4.44,-6.72 -4.35,-11.25 0.14,-4.49 2.28,-8.9 6.56,-13.18 3.84,-3.84 10.45,-7.88 19.91,-12.21 9.42,-4.28 17.33,-9.03 23.73,-14.25 -8.35,-2.32 -16.71,-3.44 -25.19,-3.45 -13.29,0.16 -22.37,-0.54 -27.14,-2.08 -4.78,-1.55 -8.82,-3.93 -12.08,-7.19 -3.16,-3.16 -4.86,-6.79 -5.12,-10.88 -0.2,-4.04 0.99,-7.4 3.65,-10.06 3.14,-3.15 7.56,-4.4 13.11,-3.74 5.65,0.68 16.04,6.09 31.22,16.38 8.85,5.97 16.73,10.44 23.54,13.5 -2.77,-7.31 -7.14,-15.17 -13.13,-23.61 -9.78,-13.53 -15.07,-23.53 -15.88,-29.93 -0.77,-6.44 0.46,-11.33 3.77,-14.64 2.58,-2.58 5.85,-3.68 9.9,-3.38 4.05,0.3 7.52,1.85 10.39,4.72 2.91,2.91 5.2,7.04 6.92,12.33 1.71,5.3 2.48,14.01 2.27,26.28 -0.24,8.14 0.81,16.96 3.02,26.5 4.65,-5.04 8.79,-11.46 12.49,-19.2 6.53,-13.55 11.66,-22.13 15.28,-25.75 3.4,-3.4 7.38,-5.11 12.05,-5.14 4.64,0.01 8.28,1.3 10.9,3.91 3.56,3.56 5.54,7.99 6.01,13.35 0.24,3.81 -1.61,7.64 -5.54,11.57 -4.06,4.06 -10.03,7.86 -18.02,11.4 -7.93,3.59 -13.29,6.18 -16.02,7.72 -2.77,1.59 -6.5,4.33 -11.23,8.07 9,2.36 17.65,3.59 25.96,3.78 14.03,-0.02 23.73,0.85 29.16,2.53 3.87,1.17 7.14,3.04 9.85,5.75 3.26,3.26 5.12,7.04 5.47,11.32 0.36,4.29 -0.69,7.6 -3.09,10.01 -2.14,2.13 -5.35,3.37 -9.68,3.75 -4.33,0.39 -9.22,-0.65 -14.69,-3.08 -3.67,-1.57 -10.9,-6.09 -21.89,-13.67 -7.01,-4.83 -14.5,-9.01 -22.31,-12.55 2.91,7.46 7.34,15.47 13.24,23.99 9.67,14.03 14.97,23.35 15.95,27.9 1.5,7.19 0.28,12.76 -3.74,16.78 -2.31,2.31 -5.5,3.32 -9.59,3.07 -4.09,-0.26 -7.57,-1.81 -10.44,-4.68 -3.21,-3.21 -5.69,-7.43 -7.45,-12.78 -1.82,-5.4 -2.59,-13.42 -2.46,-24.11 0.12,-10.69 -1.07,-20.27 -3.54,-28.76z"/>
   <path class="fil3" d="M1295.35 3775.1c-3.68,7.49 -6.19,15.6 -7.51,24.32 -1.9,12.51 -3.98,20.72 -6.21,24.57 -3.14,5.45 -6.97,8.73 -11.51,9.89 -4.48,1.19 -8.85,0.52 -13.14,-1.96 -3.63,-2.09 -6.03,-5.33 -7.12,-9.74 -1.02,-4.37 -0.1,-9.18 2.93,-14.42 2.71,-4.7 8.05,-10.32 16.07,-16.95 7.99,-6.58 14.4,-13.21 19.23,-19.9 -8.66,-0.08 -17.03,1 -25.22,3.19 -12.8,3.58 -21.75,5.26 -26.76,5 -5.01,-0.25 -9.53,-1.51 -13.52,-3.81 -3.87,-2.24 -6.46,-5.3 -7.76,-9.19 -1.25,-3.85 -0.97,-7.4 0.91,-10.66 2.23,-3.85 6.16,-6.21 11.7,-7 5.63,-0.81 17.07,1.73 34.4,7.74 10.09,3.48 18.86,5.76 26.23,6.95 -4.57,-6.35 -10.83,-12.81 -18.8,-19.41 -12.94,-10.53 -20.65,-18.83 -23.09,-24.8 -2.4,-6.02 -2.48,-11.06 -0.14,-15.12 1.83,-3.16 4.7,-5.06 8.68,-5.82 3.99,-0.77 7.76,-0.16 11.27,1.86 3.56,2.06 6.85,5.46 9.88,10.13 3.02,4.67 6.02,12.88 8.98,24.79 1.88,7.93 5.18,16.17 9.78,24.82 3.19,-6.08 5.53,-13.35 7.09,-21.78 2.81,-14.78 5.54,-24.39 8.1,-28.83 2.41,-4.16 5.8,-6.84 10.31,-8.09 4.48,-1.19 8.34,-0.89 11.54,0.96 4.36,2.52 7.42,6.29 9.27,11.34 1.21,3.62 0.41,7.8 -2.36,12.61 -2.87,4.97 -7.66,10.19 -14.46,15.67 -6.74,5.52 -11.24,9.41 -13.47,11.61 -2.27,2.25 -5.16,5.86 -8.76,10.7 9.3,-0.05 17.97,-1.1 26.04,-3.07 13.56,-3.65 23.15,-5.32 28.83,-5.1 4.04,0.13 7.68,1.09 11.01,3.01 3.99,2.3 6.76,5.47 8.21,9.52 1.45,4.04 1.3,7.52 -0.4,10.46 -1.51,2.62 -4.3,4.64 -8.38,6.14 -4.08,1.49 -9.07,1.74 -14.99,0.82 -3.95,-0.57 -12.1,-3.06 -24.67,-7.55 -8.03,-2.85 -16.34,-4.94 -24.81,-6.33 4.75,6.44 11.1,13.03 19.01,19.74 12.97,11.05 20.5,18.68 22.62,22.82 3.32,6.55 3.57,12.25 0.73,17.17 -1.63,2.84 -4.45,4.63 -8.47,5.45 -4.02,0.81 -7.78,0.21 -11.29,-1.81 -3.93,-2.27 -7.42,-5.72 -10.51,-10.42 -3.15,-4.74 -5.97,-12.29 -8.62,-22.65 -2.64,-10.37 -6.27,-19.3 -10.85,-26.87z"/>
   <path class="fil3" d="M1767.55 3911.64c-1.62,8.19 -1.94,16.67 -0.96,25.43 1.4,12.58 1.52,21.05 0.37,25.34 -1.63,6.08 -4.48,10.24 -8.57,12.53 -4.01,2.31 -8.41,2.8 -13.19,1.52 -4.05,-1.09 -7.21,-3.6 -9.4,-7.57 -2.12,-3.96 -2.47,-8.84 -0.91,-14.69 1.41,-5.24 5.11,-12.05 11.14,-20.53 6.02,-8.42 10.49,-16.49 13.43,-24.2 -8.39,2.16 -16.19,5.37 -23.54,9.6 -11.43,6.78 -19.65,10.72 -24.55,11.77 -4.91,1.04 -9.6,1 -14.05,-0.19 -4.32,-1.16 -7.61,-3.44 -9.88,-6.86 -2.19,-3.4 -2.84,-6.9 -1.87,-10.54 1.15,-4.29 4.34,-7.59 9.49,-9.79 5.23,-2.24 16.93,-2.75 35.23,-1.42 10.65,0.74 19.7,0.67 27.13,-0.08 -6.05,-4.95 -13.77,-9.57 -23.18,-13.88 -15.23,-6.83 -24.82,-12.85 -28.72,-17.99 -3.88,-5.19 -5.26,-10.03 -4.05,-14.56 0.95,-3.52 3.23,-6.11 6.88,-7.87 3.66,-1.77 7.45,-2.17 11.36,-1.12 3.98,1.07 8.03,3.5 12.16,7.22 4.13,3.73 9.16,10.89 15.1,21.63 3.87,7.17 9.19,14.28 15.87,21.44 1.51,-6.69 1.89,-14.32 1.21,-22.88 -1.11,-14.99 -0.96,-24.99 0.37,-29.93 1.24,-4.65 3.83,-8.11 7.86,-10.49 4.02,-2.31 7.82,-3.01 11.4,-2.05 4.86,1.3 8.79,4.14 11.88,8.55 2.11,3.18 2.42,7.42 0.98,12.79 -1.48,5.54 -4.76,11.82 -9.9,18.88 -5.08,7.08 -8.42,11.99 -10.01,14.7 -1.61,2.76 -3.47,6.99 -5.69,12.6 8.97,-2.46 17.07,-5.72 24.36,-9.7 12.15,-7.04 20.98,-11.13 26.52,-12.39 3.94,-0.93 7.7,-0.94 11.41,0.05 4.45,1.19 7.95,3.54 10.4,7.07 2.45,3.53 3.2,6.93 2.33,10.21 -0.79,2.92 -2.96,5.6 -6.51,8.1 -3.56,2.5 -8.31,4.03 -14.27,4.67 -3.96,0.48 -12.48,0.18 -25.78,-0.9 -8.5,-0.68 -17.07,-0.54 -25.6,0.3 6.25,5 14.09,9.72 23.46,14.15 15.39,7.32 24.64,12.73 27.76,16.19 4.9,5.47 6.62,10.91 5.15,16.4 -0.85,3.16 -3.1,5.62 -6.77,7.45 -3.67,1.83 -7.46,2.22 -11.38,1.17 -4.38,-1.17 -8.64,-3.59 -12.84,-7.34 -4.28,-3.77 -8.96,-10.33 -14.19,-19.65 -5.23,-9.33 -11.05,-17.02 -17.44,-23.14z"/>
  </g>
  <rect class="fil1 str2" x="991.66" y="2529.76" width="2487.09" height="319.15"/>
  <rect class="fil1 str3" transform="matrix(1.89178E-14 -1.17144 0.416898 1.81077E-14 1244.11 3506.69)" width="2487.09" height="546.81"/>
  <path class="fil3" d="M1828.44 2609.99l-64.98 151.09c-2.76,6.38 -5.81,11.44 -9.22,15.31 -3.42,3.87 -6.96,6.75 -10.66,8.69 -3.71,2.01 -7.33,3.33 -10.91,3.99 -3.58,0.61 -7.16,0.94 -10.78,0.94 -3.21,0 -7,-0.08 -11.32,-0.24 -4.32,-0.17 -7.12,-0.29 -8.31,-0.37l0 -22.1 1.68 0c1.24,0.12 3.05,0.28 5.52,0.49 2.47,0.16 5.6,0.25 9.38,0.25 1.77,0 3.87,-0.09 6.26,-0.29 2.43,-0.21 4.65,-0.78 6.67,-1.73 2.34,-1.11 4.52,-2.59 6.58,-4.49 2.06,-1.85 3.95,-4.81 5.64,-8.85l4.11 -9.42 -63.13 -133.27 26.5 0 48.73 105.74 44.04 -105.74 24.2 0z"/>
  <path id="_1_0" class="fil3" d="M2058.39 2789.52l-30.46 0 -63.5 -82.23 -14.94 0 0 82.23 -23.96 0 0 -179.53 23.96 0 0 81c9.42,-0.33 16.87,-2.67 22.39,-7.12 5.47,-4.44 9.96,-10.78 13.41,-19.05 1.44,-3.63 2.76,-7.08 3.91,-10.34 1.16,-3.29 2.1,-6.05 2.84,-8.27 4.82,-13.78 10.95,-23.25 18.44,-28.44 7.49,-5.18 17.86,-7.78 31.16,-7.78l7.36 0 0 21.24 -6.05 0c-9.79,0 -16.66,1.94 -20.62,5.8 -3.91,3.87 -7.53,11.12 -10.86,21.74 -3.29,10.61 -7,18.39 -11.07,23.33 -4.12,4.94 -9.06,9.3 -14.86,13.09l72.85 94.33z"/>
  <path id="_2" class="fil3" d="M2267.67 2664.12c0,7.82 -1.4,15.18 -4.15,22.14 -2.76,6.95 -6.59,12.88 -11.45,17.78 -6.17,6.09 -13.41,10.74 -21.77,13.87 -8.31,3.13 -18.85,4.69 -31.61,4.69l-20.16 0 0 66.92 -23.96 0 0 -179.53 44.99 0c10.62,0 19.63,0.87 27.08,2.64 7.45,1.77 14.03,4.65 19.75,8.56 6.63,4.61 11.86,10.41 15.64,17.45 3.75,7.04 5.64,15.52 5.64,25.48zm-24.94 0.57c0,-6.13 -1.07,-11.48 -3.17,-16.01 -2.14,-4.57 -5.35,-8.27 -9.63,-11.11 -3.78,-2.51 -8.15,-4.24 -13.13,-5.27 -4.98,-1.03 -11.19,-1.56 -18.64,-1.56l-19.63 0 0 71.12 16.17 0c9.59,0 17.33,-0.79 23.25,-2.35 5.89,-1.52 10.79,-4.32 14.74,-8.27 3.5,-3.62 6.05,-7.49 7.65,-11.73 1.61,-4.24 2.39,-9.18 2.39,-14.82z"/>
  <path id="_3" class="fil3" d="M2351.48 2789.52l60.58 -179.53 29.47 0 60.58 179.53 -25.27 0 -16.22 -49.88 -68.73 0 -16.17 49.88 -24.24 0zm102.39 -70.62l-27.65 -84.29 -27.58 84.29 55.23 0z"/>
  <path id="_4" class="fil3" d="M2662.05 2789.52l-69.89 0 0 -18.27 22.97 0 0 -142.98 -22.97 0 0 -18.28 69.89 0 0 18.28 -22.97 0 0 142.98 22.97 0 0 18.27zm2.22 -202.24l-23.95 0 0 -23.46 23.95 0 0 23.46zm-50.13 0l-23.95 0 0 -23.46 23.95 0 0 23.46z"/>
  <polygon id="_5" class="fil3" points="2901.83,2789.52 2877.88,2789.52 2877.88,2701.61 2795.65,2701.61 2795.65,2789.52 2771.69,2789.52 2771.69,2609.99 2795.65,2609.99 2795.65,2680.37 2877.88,2680.37 2877.88,2609.99 2901.83,2609.99 "/>
  <path id="_6" class="fil3" d="M2999.22 2789.52l60.58 -179.53 29.47 0 60.58 179.53 -25.27 0 -16.22 -49.88 -68.73 0 -16.17 49.88 -24.24 0zm102.39 -70.62l-27.65 -84.29 -27.58 84.29 55.23 0z"/>
  <polygon class="fil0" points="1770.76,1499.15 1737.64,1499.15 1737.64,1274.34 1623.91,1274.34 1623.91,1499.15 1590.79,1499.15 1590.79,1244.18 1770.76,1244.18 "/>
  <path id="_1_1" class="fil0" d="M1987.18 1398.61c0,31.8 -7.45,57.17 -22.31,76.05 -14.91,18.88 -33.75,28.35 -56.52,28.35 -9.22,0 -17.42,-1.11 -24.58,-3.28 -7.12,-2.16 -14.46,-5.49 -21.92,-10.05l0 79.96 -31.42 0 0 -261.63 31.42 0 0 20.05c7.8,-7.19 16.5,-13.21 26.01,-18.06 9.56,-4.85 19.98,-7.25 31.19,-7.25 21.46,0 38.14,8.65 50.14,26.01 12.02,17.36 17.99,40.63 17.99,69.85zm-32.44 3.45c0,-21.8 -3.42,-38.69 -10.19,-50.73 -6.83,-12.05 -17.87,-18.07 -33.18,-18.07 -8.88,0 -17.54,2.05 -25.84,6.08 -8.32,4.04 -16.22,9.24 -23.68,15.67l0 108.25c8.25,4.15 15.31,6.96 21.18,8.42 5.86,1.46 12.57,2.22 20.14,2.22 16.33,0 28.97,-6.08 38.02,-18.3 9.05,-12.21 13.55,-30.04 13.55,-53.54z"/>
  <path id="_2_2" class="fil0" d="M2063.35 1499.15l-31.41 0 0 -191.14 31.41 0 0 191.14zm2.4 -223.4l-35.86 0 0 -33.32 35.86 0 0 33.32z"/>
  <path id="_3_3" class="fil0" d="M2244.31 1446.13c0,10.7 -2.27,19.76 -6.82,27.18 -4.56,7.37 -10.42,13.27 -17.53,17.6 -6.78,4.21 -14.46,7.3 -23.17,9.35 -8.65,2.05 -17.3,3.1 -26.01,3.1 -12.18,0 -23.73,-1.23 -34.66,-3.68 -10.88,-2.46 -21.74,-6.38 -32.5,-11.81l0 -35.72 1.99 0c7.51,7.14 16.97,12.81 28.29,16.96 11.38,4.15 22.71,6.19 33.97,6.19 4.9,0 10.08,-0.52 15.72,-1.58 5.57,-1.11 10.3,-2.74 14.17,-5.02 5.06,-3.16 8.7,-6.55 10.86,-10.12 2.18,-3.62 3.26,-8.59 3.26,-14.9 0,-6.78 -1.26,-12.22 -3.7,-16.31 -2.51,-4.15 -5.92,-7.19 -10.25,-9.23 -4.27,-2.05 -9.11,-3.28 -14.46,-3.8 -5.35,-0.53 -11.04,-0.76 -17.02,-0.76l-21.85 0 0 -28.06 16.67 0c4.22,0 9.46,-0.12 15.77,-0.41 6.26,-0.29 11.27,-1.17 15.03,-2.69 4.72,-1.81 8.53,-4.38 11.38,-7.77 2.91,-3.33 4.33,-9 4.33,-17.01 0,-5.55 -1.2,-10.06 -3.64,-13.5 -2.46,-3.39 -5.47,-6.08 -9.12,-8.01 -3.75,-2.05 -7.85,-3.45 -12.29,-4.21 -4.38,-0.76 -8.65,-1.11 -12.74,-1.11 -10.48,0 -20.56,1.52 -30.23,4.5 -9.68,3.04 -17.98,7.48 -24.93,13.39l-1.99 0 0 -34.78c7.96,-2.87 16.84,-5.38 26.58,-7.54 9.67,-2.17 19.41,-3.28 29.19,-3.28 7.92,0 15.89,0.82 24.08,2.52 8.14,1.63 15.89,4.44 23.23,8.47 6.88,3.86 12.63,9.24 17.3,16.02 4.67,6.84 7,15.14 7,25.02 0,10.4 -2.85,19.52 -8.54,27.35 -5.75,7.83 -13.26,12.98 -22.7,15.55l0 1.17c10.35,3.62 18.83,9.23 25.43,16.71 6.6,7.55 9.9,17.6 9.9,30.22z"/>
  <path id="_4_4" class="fil0" d="M2434.83 1441.17c0,9.23 -1.7,17.47 -5.18,24.6 -3.41,7.14 -8.2,13.16 -14.16,17.95 -7.58,6.02 -15.49,10.11 -23.8,12.27 -8.25,2.11 -18.21,3.16 -29.77,3.16l-73.24 0 0 -191.14 68.46 0c13.72,0 23.74,0.41 30.06,1.29 6.37,0.82 12.63,3.04 18.89,6.55 6.54,3.68 11.38,8.47 14.52,14.55 3.12,6.02 4.66,13.15 4.66,21.45 0,9.12 -2.44,17.3 -7.34,24.55 -4.84,7.19 -11.32,12.8 -19.47,16.72l0.86 1.17c10.07,2.63 18.49,7.95 25.33,15.96 6.77,8 10.18,18.29 10.18,30.92zm-42 -84.12c0,-4.32 -0.68,-8.06 -2.05,-11.22 -1.42,-3.16 -3.82,-5.67 -7.22,-7.48 -4,-2.1 -8.44,-3.39 -13.32,-3.8 -4.96,-0.41 -11.79,-0.58 -20.49,-0.58l-29.66 0 0 51.9 35.8 0c7.63,0 13.03,-0.35 16.23,-1.11 3.18,-0.7 6.76,-2.28 10.58,-4.68 3.7,-2.22 6.26,-5.32 7.8,-9.11 1.54,-3.86 2.33,-8.48 2.33,-13.92zm9.56 84c0,-6.55 -0.91,-11.81 -2.73,-15.72 -1.82,-3.98 -5.86,-7.49 -12.01,-10.58 -3.87,-1.99 -8.03,-3.16 -12.47,-3.63 -4.44,-0.47 -10.58,-0.7 -18.43,-0.7l-36.66 0 0 62.78 27.04 0c11.21,0 19.86,-0.47 26.07,-1.41 6.2,-0.87 11.49,-2.74 15.93,-5.49 4.61,-2.98 8.03,-6.43 10.13,-10.29 2.11,-3.91 3.13,-8.88 3.13,-14.96z"/>
  <polygon id="_5_5" class="fil0" points="2626.66,1499.15 2595.25,1499.15 2595.25,1356.59 2508.21,1499.15 2479.48,1499.15 2479.48,1308.01 2510.89,1308.01 2510.89,1448.36 2596.95,1308.01 2626.66,1308.01 "/>
  <polygon id="_6_6" class="fil0" points="2922.71,1545.09 2893.68,1545.09 2893.68,1499.15 2683.66,1499.15 2683.66,1308.01 2715.08,1308.01 2715.08,1472.15 2778.25,1472.15 2778.25,1308.01 2809.67,1308.01 2809.67,1472.15 2872.85,1472.15 2872.85,1308.01 2904.27,1308.01 2904.27,1472.15 2922.71,1472.15 "/>
  <path id="_7" class="fil0" d="M3046.13 1503.36c-29.72,0 -52.83,-8.59 -69.27,-25.72 -16.45,-17.13 -24.65,-41.5 -24.65,-73.06 0,-31.1 7.97,-55.83 23.91,-74.24 15.88,-18.41 36.71,-27.59 62.43,-27.59 11.62,0 21.86,1.7 30.73,5.15 8.94,3.39 16.74,8.76 23.4,16.07 6.72,7.31 11.84,16.19 15.37,26.77 3.58,10.52 5.35,23.44 5.35,38.7l0 17.47 -129.43 0c0,22.16 5.47,39.11 16.39,50.8 10.93,11.75 26.07,17.59 45.37,17.59 6.88,0 13.71,-0.82 20.31,-2.39 6.66,-1.58 12.64,-3.69 17.99,-6.2 5.69,-2.63 10.53,-5.14 14.4,-7.6 3.93,-2.45 7.17,-4.79 9.73,-6.96l1.83 0 0 35.13c-3.71,1.47 -8.26,3.34 -13.72,5.56 -5.47,2.22 -10.37,3.97 -14.69,5.2 -6.14,1.69 -11.66,3.04 -16.62,3.97 -4.95,0.88 -11.27,1.35 -18.83,1.35zm36.87 -121c-0.22,-8.65 -1.24,-16.13 -3.02,-22.38 -1.76,-6.26 -4.38,-11.58 -7.68,-15.9 -3.7,-4.74 -8.42,-8.42 -14.17,-10.93 -5.75,-2.52 -12.86,-3.74 -21.4,-3.74 -8.36,0 -15.48,1.28 -21.34,3.85 -5.87,2.58 -11.21,6.26 -15.99,11.17 -4.73,5.03 -8.26,10.58 -10.76,16.66 -2.45,6.08 -3.98,13.21 -4.67,21.27l99.03 0z"/>
  <polygon id="_8" class="fil0" points="1677.53,1922.46 1580.88,1922.46 1580.88,1896.51 1612.65,1896.51 1612.65,1693.45 1580.88,1693.45 1580.88,1667.49 1677.53,1667.49 1677.53,1693.45 1645.77,1693.45 1645.77,1896.51 1677.53,1896.51 "/>
  <polygon id="_9" class="fil0" points="1900.32,1922.46 1868.9,1922.46 1868.9,1772.24 1824.22,1869.85 1800.88,1869.85 1756.55,1772.24 1756.55,1922.46 1727.18,1922.46 1727.18,1731.32 1765.03,1731.32 1814.03,1837.47 1861.39,1731.32 1900.32,1731.32 "/>
  <polygon id="_10" class="fil0" points="2016.79,1655.92 1973.48,1751.66 1950.54,1751.66 1976.6,1655.92 "/>
  <path id="_11" class="fil0" d="M2176.06 1922.46l-31.42 0 0 -75.75 -30.73 0 -55.55 75.75 -36.65 0 59.99 -78.68c-15.44,-4.67 -26.76,-11.63 -33.87,-20.86 -7.18,-9.24 -10.76,-21.63 -10.76,-37.18 0,-9.47 2.05,-17.77 6.09,-24.9 4.04,-7.13 9.56,-13.15 16.45,-18.06 5.52,-3.86 12.57,-6.72 21,-8.65 8.48,-1.87 17.93,-2.81 28.34,-2.81l67.11 0 0 191.14zm-31.42 -101l0 -64.18 -33.92 0c-7.17,0 -12.86,0.4 -17.02,1.16 -4.15,0.82 -8.19,2.34 -12.06,4.62 -3.98,2.52 -7,5.91 -9.06,10.17 -2.04,4.27 -3.06,8.83 -3.06,13.74 0,6.25 0.68,11.34 2.1,15.25 1.36,3.98 3.87,7.55 7.51,10.88 3.93,3.39 8.65,5.67 14.23,6.72 5.58,1.11 11.73,1.64 18.39,1.64l32.89 0z"/>
  <polygon id="_12" class="fil0" points="1770.76,2345.77 1737.64,2345.77 1737.64,2120.96 1623.91,2120.96 1623.91,2345.77 1590.79,2345.77 1590.79,2090.8 1770.76,2090.8 "/>
  <path id="_13" class="fil0" d="M1983.77 2250.26c0,32.21 -7.58,56.99 -22.66,74.53 -15.14,17.47 -35.23,26.24 -60.33,26.24 -25.89,0 -46.27,-9.06 -61.08,-27.12 -14.85,-18.06 -22.25,-42.61 -22.25,-73.65 0,-31.91 7.63,-56.7 22.95,-74.35 15.24,-17.71 35.39,-26.54 60.38,-26.54 25.1,0 45.19,8.83 60.33,26.42 15.08,17.65 22.66,42.44 22.66,74.47zm-32.45 0c0,-24.61 -4.38,-42.9 -13.14,-54.89 -8.78,-11.98 -21.24,-17.94 -37.4,-17.94 -16.27,0 -28.85,5.96 -37.68,17.94 -8.82,11.99 -13.2,30.28 -13.2,54.89 0,23.85 4.38,41.91 13.2,54.24 8.83,12.34 21.41,18.47 37.68,18.47 16.05,0 28.52,-6.02 37.34,-18.12 8.82,-12.1 13.2,-30.27 13.2,-54.59z"/>
  <path id="_14" class="fil0" d="M2254.87 2182.51c7.16,7.6 12.8,17.13 16.78,28.76 3.99,11.58 5.98,25.02 5.98,40.33 0,14.73 -2.28,28.35 -6.82,40.92 -4.56,12.51 -10.7,23.03 -18.5,31.62 -8.03,8.89 -16.85,15.61 -26.59,20.11 -9.72,4.5 -20.32,6.78 -31.75,6.78 -11.68,0 -22.38,-2.1 -32.05,-6.25 -9.73,-4.15 -18.04,-10.58 -24.92,-19.29 -8.54,-10.87 -14.98,-24.44 -19.24,-40.8 -4.28,-16.31 -6.44,-36.53 -6.44,-60.67 0,-8.54 0.34,-17.31 1.08,-26.13 0.74,-8.89 2.34,-19.47 4.73,-31.8 2.22,-10.99 5.23,-21.16 8.99,-30.57 3.82,-9.47 8.7,-17.42 14.86,-23.97 7.85,-8.41 18.15,-15.13 30.85,-20.16 12.74,-5.09 29.59,-8.54 50.53,-10.46 7.46,-0.71 15.43,-1.35 23.91,-1.99 8.48,-0.64 14.98,-1.11 19.41,-1.46l0 29.81c-5.75,0.35 -11.89,0.76 -18.44,1.28 -6.55,0.53 -14,1.11 -22.42,1.82 -11.16,0.87 -22.89,2.92 -35.07,6.07 -12.18,3.1 -21.34,8.01 -27.54,14.62 -4.67,4.85 -8.37,11.86 -11.16,20.98 -2.73,9.12 -4.67,19.29 -5.81,30.45 8.2,-6.02 17.02,-11.16 26.35,-15.31 9.4,-4.15 19.53,-6.25 30.4,-6.25 10.07,0 19.63,1.75 28.75,5.2 9.1,3.51 17.13,8.94 24.13,16.36zm-9 71.08c0,-20.22 -4.44,-35.77 -13.31,-46.58 -8.88,-10.82 -21.52,-16.25 -37.91,-16.25 -9,0 -17.7,1.52 -26.12,4.5 -8.43,3.04 -16.34,7.07 -23.74,12.1 -0.23,2.86 -0.45,6.25 -0.69,10.17 -0.22,3.97 -0.34,7.54 -0.34,10.69 0,19.88 1.54,36.07 4.67,48.52 3.08,12.45 7.4,22.21 12.98,29.28 4.95,6.37 10.24,10.82 15.76,13.27 5.58,2.46 11.62,3.68 18.16,3.68 15.93,0 28.35,-6.19 37.23,-18.64 8.87,-12.39 13.31,-29.29 13.31,-50.74z"/>
  <path id="_15" class="fil0" d="M2425.91 2298.6l0 -52.78c-7.4,0.7 -16.78,1.63 -28.11,2.8 -11.38,1.17 -20.54,2.87 -27.49,5.03 -8.31,2.63 -15.2,6.61 -20.6,11.98 -5.41,5.38 -8.14,12.92 -8.14,22.57 0,10.87 3.02,19.11 8.99,24.66 5.98,5.55 14.68,8.36 26.18,8.36 9.9,0 18.78,-2.16 26.75,-6.55 7.97,-4.32 15.48,-9.7 22.42,-16.07zm0 26.71c-2.56,1.99 -5.96,4.68 -10.24,8.19 -4.26,3.44 -8.36,6.25 -12.35,8.3 -5.58,2.98 -10.93,5.26 -16.1,6.83 -5.13,1.58 -12.36,2.4 -21.69,2.4 -7.69,0 -14.91,-1.46 -21.8,-4.44 -6.88,-2.98 -12.92,-7.13 -18.16,-12.51 -4.95,-5.26 -8.93,-11.75 -11.95,-19.46 -3.02,-7.66 -4.5,-15.79 -4.5,-24.38 0,-13.27 2.74,-24.49 8.14,-33.84 5.47,-9.3 14.07,-16.66 25.79,-22.16 10.41,-4.91 22.77,-8.3 36.93,-10.17 14.24,-1.87 29.55,-3.27 45.93,-4.2l0 -6.26c0,-7.6 -1.14,-13.74 -3.36,-18.41 -2.22,-4.68 -5.28,-8.3 -9.27,-10.82 -4.04,-2.68 -8.88,-4.44 -14.68,-5.31 -5.75,-0.88 -11.73,-1.29 -17.82,-1.29 -7.22,0 -15.7,1.11 -25.5,3.39 -9.73,2.28 -19.51,5.61 -29.31,9.94l-1.82 0 0 -32.68c5.8,-1.69 14.06,-3.56 24.87,-5.61 10.82,-2.04 21.46,-3.1 32.04,-3.1 12.81,0 23.57,1.06 32.39,3.1 8.76,2.05 16.68,5.73 23.68,11.11 6.77,5.26 11.84,12.1 15.19,20.4 3.36,8.36 5.02,18.53 5.02,30.51l0 130.93 -31.43 0 0 -20.46z"/>
  <polygon id="_16" class="fil0" points="2649.67,2182.69 2586.15,2182.69 2586.15,2345.77 2554.73,2345.77 2554.73,2182.69 2491.21,2182.69 2491.21,2154.63 2649.67,2154.63 "/>
  <path id="_17" class="fil0" d="M2825.27 2286.5c0,9.29 -1.82,17.65 -5.4,25.19 -3.64,7.54 -8.54,13.62 -14.74,18.3 -7.34,5.73 -15.2,9.76 -23.51,12.16 -8.36,2.39 -19.06,3.62 -32.22,3.62l-65.16 0 0 -191.14 31.41 0 0 74.35 34.67 0c14,0 24.81,0.76 32.55,2.22 7.74,1.47 15.42,5.15 23.06,10.99 6.48,4.91 11.32,11.17 14.5,18.83 3.25,7.65 4.84,16.13 4.84,25.48zm-32.44 0.35c0,-5.79 -0.97,-10.87 -2.9,-15.26 -1.94,-4.38 -5.12,-7.94 -9.57,-10.69 -4.66,-2.81 -9.96,-4.56 -15.88,-5.09 -5.97,-0.58 -14.45,-0.87 -25.55,-0.87l-23.28 0 0 64.88 22.6 0c11.1,0 19.69,-0.47 25.79,-1.46 6.14,-0.94 11.38,-2.81 15.82,-5.56 4.55,-2.92 7.85,-6.43 9.9,-10.46 2.05,-4.09 3.07,-9.23 3.07,-15.49z"/>
  <path id="_18" class="fil0" d="M3016.82 2345.77l-39.05 0 -63.97 -88.03 -15.49 0 0 88.03 -31.41 0 0 -191.14 31.41 0 0 83.12c8.09,-0.12 15.03,-1.87 20.72,-5.2 5.69,-3.39 10.53,-9.94 14.46,-19.64 1.19,-2.86 2.57,-6.14 3.99,-9.94 1.48,-3.74 2.67,-7.07 3.52,-9.93 4.78,-14.03 11.56,-23.97 20.27,-29.76 8.7,-5.78 20.08,-8.65 34.03,-8.65l8.54 0 0 28.06 -7.17 0c-8.76,0 -15.32,1.81 -19.7,5.38 -4.38,3.62 -8.08,10.28 -11.04,20.1 -3.07,9.94 -6.71,17.66 -10.98,23.21 -4.21,5.55 -8.88,9.76 -13.95,12.74l75.82 101.65z"/>
  <path id="_19" class="fil0" d="M3202.04 2250.26c0,32.21 -7.57,56.99 -22.66,74.53 -15.14,17.47 -35.23,26.24 -60.33,26.24 -25.89,0 -46.27,-9.06 -61.07,-27.12 -14.85,-18.06 -22.25,-42.61 -22.25,-73.65 0,-31.91 7.62,-56.7 22.94,-74.35 15.25,-17.71 35.39,-26.54 60.38,-26.54 25.1,0 45.19,8.83 60.33,26.42 15.09,17.65 22.66,42.44 22.66,74.47zm-32.44 0c0,-24.61 -4.38,-42.9 -13.15,-54.89 -8.77,-11.98 -21.24,-17.94 -37.4,-17.94 -16.27,0 -28.85,5.96 -37.67,17.94 -8.83,11.99 -13.21,30.28 -13.21,54.89 0,23.85 4.38,41.91 13.21,54.24 8.82,12.34 21.4,18.47 37.67,18.47 16.06,0 28.52,-6.02 37.34,-18.12 8.83,-12.1 13.21,-30.27 13.21,-54.59z"/>
  <path id="_20" class="fil0" d="M3392.05 2287.79c0,9.23 -1.71,17.47 -5.18,24.6 -3.42,7.14 -8.2,13.16 -14.17,17.95 -7.58,6.02 -15.48,10.11 -23.8,12.27 -8.25,2.11 -18.21,3.16 -29.77,3.16l-73.24 0 0 -191.14 68.46 0c13.72,0 23.74,0.41 30.06,1.29 6.37,0.82 12.63,3.04 18.89,6.55 6.55,3.68 11.39,8.47 14.52,14.55 3.13,6.02 4.67,13.15 4.67,21.45 0,9.12 -2.45,17.3 -7.35,24.55 -4.84,7.19 -11.32,12.8 -19.46,16.72l0.86 1.17c10.06,2.63 18.49,7.95 25.32,15.96 6.77,8 10.19,18.29 10.19,30.92zm-42.01 -84.12c0,-4.32 -0.68,-8.06 -2.04,-11.22 -1.43,-3.16 -3.82,-5.67 -7.23,-7.48 -3.99,-2.1 -8.43,-3.39 -13.32,-3.8 -4.96,-0.41 -11.78,-0.58 -20.49,-0.58l-29.66 0 0 51.9 35.81 0c7.62,0 13.03,-0.35 16.22,-1.11 3.18,-0.7 6.77,-2.28 10.58,-4.68 3.7,-2.22 6.27,-5.32 7.8,-9.11 1.54,-3.86 2.33,-8.48 2.33,-13.92zm9.56 84c0,-6.55 -0.9,-11.81 -2.72,-15.72 -1.82,-3.98 -5.87,-7.49 -12.02,-10.58 -3.87,-1.99 -8.02,-3.16 -12.46,-3.63 -4.44,-0.47 -10.59,-0.7 -18.44,-0.7l-36.66 0 0 62.78 27.04 0c11.21,0 19.87,-0.47 26.07,-1.41 6.2,-0.87 11.49,-2.74 15.93,-5.49 4.62,-2.98 8.03,-6.43 10.14,-10.29 2.1,-3.91 3.12,-8.88 3.12,-14.96z"/>
  <path id="_21" class="fil0" d="M3469.13 2345.77l-31.41 0 0 -191.14 31.41 0 0 191.14zm2.39 -223.4l-35.86 0 0 -33.32 35.86 0 0 33.32z"/>
  <polygon id="_22" class="fil4 str4" points="1770.76,1499.15 1737.64,1499.15 1737.64,1274.34 1623.91,1274.34 1623.91,1499.15 1590.79,1499.15 1590.79,1244.18 1770.76,1244.18 "/>
  <path id="_23" class="fil4 str4" d="M1987.18 1398.61c0,31.8 -7.45,57.17 -22.31,76.05 -14.91,18.88 -33.75,28.35 -56.52,28.35 -9.22,0 -17.42,-1.11 -24.58,-3.28 -7.12,-2.16 -14.46,-5.49 -21.92,-10.05l0 79.96 -31.42 0 0 -261.63 31.42 0 0 20.05c7.8,-7.19 16.5,-13.21 26.01,-18.06 9.56,-4.85 19.98,-7.25 31.19,-7.25 21.46,0 38.14,8.65 50.14,26.01 12.02,17.36 17.99,40.63 17.99,69.85zm-32.44 3.45c0,-21.8 -3.42,-38.69 -10.19,-50.73 -6.83,-12.05 -17.87,-18.07 -33.18,-18.07 -8.88,0 -17.54,2.05 -25.84,6.08 -8.32,4.04 -16.22,9.24 -23.68,15.67l0 108.25c8.25,4.15 15.31,6.96 21.18,8.42 5.86,1.46 12.57,2.22 20.14,2.22 16.33,0 28.97,-6.08 38.02,-18.3 9.05,-12.21 13.55,-30.04 13.55,-53.54z"/>
  <path id="_24" class="fil4 str4" d="M2063.35 1499.15l-31.41 0 0 -191.14 31.41 0 0 191.14zm2.4 -223.4l-35.86 0 0 -33.32 35.86 0 0 33.32z"/>
  <path id="_25" class="fil4 str4" d="M2244.31 1446.13c0,10.7 -2.27,19.76 -6.82,27.18 -4.56,7.37 -10.42,13.27 -17.53,17.6 -6.78,4.21 -14.46,7.3 -23.17,9.35 -8.65,2.05 -17.3,3.1 -26.01,3.1 -12.18,0 -23.73,-1.23 -34.66,-3.68 -10.88,-2.46 -21.74,-6.38 -32.5,-11.81l0 -35.72 1.99 0c7.51,7.14 16.97,12.81 28.29,16.96 11.38,4.15 22.71,6.19 33.97,6.19 4.9,0 10.08,-0.52 15.72,-1.58 5.57,-1.11 10.3,-2.74 14.17,-5.02 5.06,-3.16 8.7,-6.55 10.86,-10.12 2.18,-3.62 3.26,-8.59 3.26,-14.9 0,-6.78 -1.26,-12.22 -3.7,-16.31 -2.51,-4.15 -5.92,-7.19 -10.25,-9.23 -4.27,-2.05 -9.11,-3.28 -14.46,-3.8 -5.35,-0.53 -11.04,-0.76 -17.02,-0.76l-21.85 0 0 -28.06 16.67 0c4.22,0 9.46,-0.12 15.77,-0.41 6.26,-0.29 11.27,-1.17 15.03,-2.69 4.72,-1.81 8.53,-4.38 11.38,-7.77 2.91,-3.33 4.33,-9 4.33,-17.01 0,-5.55 -1.2,-10.06 -3.64,-13.5 -2.46,-3.39 -5.47,-6.08 -9.12,-8.01 -3.75,-2.05 -7.85,-3.45 -12.29,-4.21 -4.38,-0.76 -8.65,-1.11 -12.74,-1.11 -10.48,0 -20.56,1.52 -30.23,4.5 -9.68,3.04 -17.98,7.48 -24.93,13.39l-1.99 0 0 -34.78c7.96,-2.87 16.84,-5.38 26.58,-7.54 9.67,-2.17 19.41,-3.28 29.19,-3.28 7.92,0 15.89,0.82 24.08,2.52 8.14,1.63 15.89,4.44 23.23,8.47 6.88,3.86 12.63,9.24 17.3,16.02 4.67,6.84 7,15.14 7,25.02 0,10.4 -2.85,19.52 -8.54,27.35 -5.75,7.83 -13.26,12.98 -22.7,15.55l0 1.17c10.35,3.62 18.83,9.23 25.43,16.71 6.6,7.55 9.9,17.6 9.9,30.22z"/>
  <path id="_26" class="fil4 str4" d="M2434.83 1441.17c0,9.23 -1.7,17.47 -5.18,24.6 -3.41,7.14 -8.2,13.16 -14.16,17.95 -7.58,6.02 -15.49,10.11 -23.8,12.27 -8.25,2.11 -18.21,3.16 -29.77,3.16l-73.24 0 0 -191.14 68.46 0c13.72,0 23.74,0.41 30.06,1.29 6.37,0.82 12.63,3.04 18.89,6.55 6.54,3.68 11.38,8.47 14.52,14.55 3.12,6.02 4.66,13.15 4.66,21.45 0,9.12 -2.44,17.3 -7.34,24.55 -4.84,7.19 -11.32,12.8 -19.47,16.72l0.86 1.17c10.07,2.63 18.49,7.95 25.33,15.96 6.77,8 10.18,18.29 10.18,30.92zm-42 -84.12c0,-4.32 -0.68,-8.06 -2.05,-11.22 -1.42,-3.16 -3.82,-5.67 -7.22,-7.48 -4,-2.1 -8.44,-3.39 -13.32,-3.8 -4.96,-0.41 -11.79,-0.58 -20.49,-0.58l-29.66 0 0 51.9 35.8 0c7.63,0 13.03,-0.35 16.23,-1.11 3.18,-0.7 6.76,-2.28 10.58,-4.68 3.7,-2.22 6.26,-5.32 7.8,-9.11 1.54,-3.86 2.33,-8.48 2.33,-13.92zm9.56 84c0,-6.55 -0.91,-11.81 -2.73,-15.72 -1.82,-3.98 -5.86,-7.49 -12.01,-10.58 -3.87,-1.99 -8.03,-3.16 -12.47,-3.63 -4.44,-0.47 -10.58,-0.7 -18.43,-0.7l-36.66 0 0 62.78 27.04 0c11.21,0 19.86,-0.47 26.07,-1.41 6.2,-0.87 11.49,-2.74 15.93,-5.49 4.61,-2.98 8.03,-6.43 10.13,-10.29 2.11,-3.91 3.13,-8.88 3.13,-14.96z"/>
  <polygon id="_27" class="fil4 str4" points="2626.66,1499.15 2595.25,1499.15 2595.25,1356.59 2508.21,1499.15 2479.48,1499.15 2479.48,1308.01 2510.89,1308.01 2510.89,1448.36 2596.95,1308.01 2626.66,1308.01 "/>
  <polygon id="_28" class="fil4 str4" points="2922.71,1545.09 2893.68,1545.09 2893.68,1499.15 2683.66,1499.15 2683.66,1308.01 2715.08,1308.01 2715.08,1472.15 2778.25,1472.15 2778.25,1308.01 2809.67,1308.01 2809.67,1472.15 2872.85,1472.15 2872.85,1308.01 2904.27,1308.01 2904.27,1472.15 2922.71,1472.15 "/>
  <path id="_29" class="fil4 str4" d="M3046.13 1503.36c-29.72,0 -52.83,-8.59 -69.27,-25.72 -16.45,-17.13 -24.65,-41.5 -24.65,-73.06 0,-31.1 7.97,-55.83 23.91,-74.24 15.88,-18.41 36.71,-27.59 62.43,-27.59 11.62,0 21.86,1.7 30.73,5.15 8.94,3.39 16.74,8.76 23.4,16.07 6.72,7.31 11.84,16.19 15.37,26.77 3.58,10.52 5.35,23.44 5.35,38.7l0 17.47 -129.43 0c0,22.16 5.47,39.11 16.39,50.8 10.93,11.75 26.07,17.59 45.37,17.59 6.88,0 13.71,-0.82 20.31,-2.39 6.66,-1.58 12.64,-3.69 17.99,-6.2 5.69,-2.63 10.53,-5.14 14.4,-7.6 3.93,-2.45 7.17,-4.79 9.73,-6.96l1.83 0 0 35.13c-3.71,1.47 -8.26,3.34 -13.72,5.56 -5.47,2.22 -10.37,3.97 -14.69,5.2 -6.14,1.69 -11.66,3.04 -16.62,3.97 -4.95,0.88 -11.27,1.35 -18.83,1.35zm36.87 -121c-0.22,-8.65 -1.24,-16.13 -3.02,-22.38 -1.76,-6.26 -4.38,-11.58 -7.68,-15.9 -3.7,-4.74 -8.42,-8.42 -14.17,-10.93 -5.75,-2.52 -12.86,-3.74 -21.4,-3.74 -8.36,0 -15.48,1.28 -21.34,3.85 -5.87,2.58 -11.21,6.26 -15.99,11.17 -4.73,5.03 -8.26,10.58 -10.76,16.66 -2.45,6.08 -3.98,13.21 -4.67,21.27l99.03 0z"/>
  <polygon id="_30" class="fil4 str4" points="1677.53,1922.46 1580.88,1922.46 1580.88,1896.51 1612.65,1896.51 1612.65,1693.45 1580.88,1693.45 1580.88,1667.49 1677.53,1667.49 1677.53,1693.45 1645.77,1693.45 1645.77,1896.51 1677.53,1896.51 "/>
  <polygon id="_31" class="fil4 str4" points="1900.32,1922.46 1868.9,1922.46 1868.9,1772.24 1824.22,1869.85 1800.88,1869.85 1756.55,1772.24 1756.55,1922.46 1727.18,1922.46 1727.18,1731.32 1765.03,1731.32 1814.03,1837.47 1861.39,1731.32 1900.32,1731.32 "/>
  <polygon id="_32" class="fil4 str4" points="2016.79,1655.92 1973.48,1751.66 1950.54,1751.66 1976.6,1655.92 "/>
  <path id="_33" class="fil4 str4" d="M2176.06 1922.46l-31.42 0 0 -75.75 -30.73 0 -55.55 75.75 -36.65 0 59.99 -78.68c-15.44,-4.67 -26.76,-11.63 -33.87,-20.86 -7.18,-9.24 -10.76,-21.63 -10.76,-37.18 0,-9.47 2.05,-17.77 6.09,-24.9 4.04,-7.13 9.56,-13.15 16.45,-18.06 5.52,-3.86 12.57,-6.72 21,-8.65 8.48,-1.87 17.93,-2.81 28.34,-2.81l67.11 0 0 191.14zm-31.42 -101l0 -64.18 -33.92 0c-7.17,0 -12.86,0.4 -17.02,1.16 -4.15,0.82 -8.19,2.34 -12.06,4.62 -3.98,2.52 -7,5.91 -9.06,10.17 -2.04,4.27 -3.06,8.83 -3.06,13.74 0,6.25 0.68,11.34 2.1,15.25 1.36,3.98 3.87,7.55 7.51,10.88 3.93,3.39 8.65,5.67 14.23,6.72 5.58,1.11 11.73,1.64 18.39,1.64l32.89 0z"/>
  <polygon id="_34" class="fil4 str4" points="1770.76,2345.77 1737.64,2345.77 1737.64,2120.96 1623.91,2120.96 1623.91,2345.77 1590.79,2345.77 1590.79,2090.8 1770.76,2090.8 "/>
  <path id="_35" class="fil4 str4" d="M1983.77 2250.26c0,32.21 -7.58,56.99 -22.66,74.53 -15.14,17.47 -35.23,26.24 -60.33,26.24 -25.89,0 -46.27,-9.06 -61.08,-27.12 -14.85,-18.06 -22.25,-42.61 -22.25,-73.65 0,-31.91 7.63,-56.7 22.95,-74.35 15.24,-17.71 35.39,-26.54 60.38,-26.54 25.1,0 45.19,8.83 60.33,26.42 15.08,17.65 22.66,42.44 22.66,74.47zm-32.45 0c0,-24.61 -4.38,-42.9 -13.14,-54.89 -8.78,-11.98 -21.24,-17.94 -37.4,-17.94 -16.27,0 -28.85,5.96 -37.68,17.94 -8.82,11.99 -13.2,30.28 -13.2,54.89 0,23.85 4.38,41.91 13.2,54.24 8.83,12.34 21.41,18.47 37.68,18.47 16.05,0 28.52,-6.02 37.34,-18.12 8.82,-12.1 13.2,-30.27 13.2,-54.59z"/>
  <path id="_36" class="fil4 str4" d="M2254.87 2182.51c7.16,7.6 12.8,17.13 16.78,28.76 3.99,11.58 5.98,25.02 5.98,40.33 0,14.73 -2.28,28.35 -6.82,40.92 -4.56,12.51 -10.7,23.03 -18.5,31.62 -8.03,8.89 -16.85,15.61 -26.59,20.11 -9.72,4.5 -20.32,6.78 -31.75,6.78 -11.68,0 -22.38,-2.1 -32.05,-6.25 -9.73,-4.15 -18.04,-10.58 -24.92,-19.29 -8.54,-10.87 -14.98,-24.44 -19.24,-40.8 -4.28,-16.31 -6.44,-36.53 -6.44,-60.67 0,-8.54 0.34,-17.31 1.08,-26.13 0.74,-8.89 2.34,-19.47 4.73,-31.8 2.22,-10.99 5.23,-21.16 8.99,-30.57 3.82,-9.47 8.7,-17.42 14.86,-23.97 7.85,-8.41 18.15,-15.13 30.85,-20.16 12.74,-5.09 29.59,-8.54 50.53,-10.46 7.46,-0.71 15.43,-1.35 23.91,-1.99 8.48,-0.64 14.98,-1.11 19.41,-1.46l0 29.81c-5.75,0.35 -11.89,0.76 -18.44,1.28 -6.55,0.53 -14,1.11 -22.42,1.82 -11.16,0.87 -22.89,2.92 -35.07,6.07 -12.18,3.1 -21.34,8.01 -27.54,14.62 -4.67,4.85 -8.37,11.86 -11.16,20.98 -2.73,9.12 -4.67,19.29 -5.81,30.45 8.2,-6.02 17.02,-11.16 26.35,-15.31 9.4,-4.15 19.53,-6.25 30.4,-6.25 10.07,0 19.63,1.75 28.75,5.2 9.1,3.51 17.13,8.94 24.13,16.36zm-9 71.08c0,-20.22 -4.44,-35.77 -13.31,-46.58 -8.88,-10.82 -21.52,-16.25 -37.91,-16.25 -9,0 -17.7,1.52 -26.12,4.5 -8.43,3.04 -16.34,7.07 -23.74,12.1 -0.23,2.86 -0.45,6.25 -0.69,10.17 -0.22,3.97 -0.34,7.54 -0.34,10.69 0,19.88 1.54,36.07 4.67,48.52 3.08,12.45 7.4,22.21 12.98,29.28 4.95,6.37 10.24,10.82 15.76,13.27 5.58,2.46 11.62,3.68 18.16,3.68 15.93,0 28.35,-6.19 37.23,-18.64 8.87,-12.39 13.31,-29.29 13.31,-50.74z"/>
  <path id="_37" class="fil4 str4" d="M2425.91 2298.6l0 -52.78c-7.4,0.7 -16.78,1.63 -28.11,2.8 -11.38,1.17 -20.54,2.87 -27.49,5.03 -8.31,2.63 -15.2,6.61 -20.6,11.98 -5.41,5.38 -8.14,12.92 -8.14,22.57 0,10.87 3.02,19.11 8.99,24.66 5.98,5.55 14.68,8.36 26.18,8.36 9.9,0 18.78,-2.16 26.75,-6.55 7.97,-4.32 15.48,-9.7 22.42,-16.07zm0 26.71c-2.56,1.99 -5.96,4.68 -10.24,8.19 -4.26,3.44 -8.36,6.25 -12.35,8.3 -5.58,2.98 -10.93,5.26 -16.1,6.83 -5.13,1.58 -12.36,2.4 -21.69,2.4 -7.69,0 -14.91,-1.46 -21.8,-4.44 -6.88,-2.98 -12.92,-7.13 -18.16,-12.51 -4.95,-5.26 -8.93,-11.75 -11.95,-19.46 -3.02,-7.66 -4.5,-15.79 -4.5,-24.38 0,-13.27 2.74,-24.49 8.14,-33.84 5.47,-9.3 14.07,-16.66 25.79,-22.16 10.41,-4.91 22.77,-8.3 36.93,-10.17 14.24,-1.87 29.55,-3.27 45.93,-4.2l0 -6.26c0,-7.6 -1.14,-13.74 -3.36,-18.41 -2.22,-4.68 -5.28,-8.3 -9.27,-10.82 -4.04,-2.68 -8.88,-4.44 -14.68,-5.31 -5.75,-0.88 -11.73,-1.29 -17.82,-1.29 -7.22,0 -15.7,1.11 -25.5,3.39 -9.73,2.28 -19.51,5.61 -29.31,9.94l-1.82 0 0 -32.68c5.8,-1.69 14.06,-3.56 24.87,-5.61 10.82,-2.04 21.46,-3.1 32.04,-3.1 12.81,0 23.57,1.06 32.39,3.1 8.76,2.05 16.68,5.73 23.68,11.11 6.77,5.26 11.84,12.1 15.19,20.4 3.36,8.36 5.02,18.53 5.02,30.51l0 130.93 -31.43 0 0 -20.46z"/>
  <polygon id="_38" class="fil4 str4" points="2649.67,2182.69 2586.15,2182.69 2586.15,2345.77 2554.73,2345.77 2554.73,2182.69 2491.21,2182.69 2491.21,2154.63 2649.67,2154.63 "/>
  <path id="_39" class="fil4 str4" d="M2825.27 2286.5c0,9.29 -1.82,17.65 -5.4,25.19 -3.64,7.54 -8.54,13.62 -14.74,18.3 -7.34,5.73 -15.2,9.76 -23.51,12.16 -8.36,2.39 -19.06,3.62 -32.22,3.62l-65.16 0 0 -191.14 31.41 0 0 74.35 34.67 0c14,0 24.81,0.76 32.55,2.22 7.74,1.47 15.42,5.15 23.06,10.99 6.48,4.91 11.32,11.17 14.5,18.83 3.25,7.65 4.84,16.13 4.84,25.48zm-32.44 0.35c0,-5.79 -0.97,-10.87 -2.9,-15.26 -1.94,-4.38 -5.12,-7.94 -9.57,-10.69 -4.66,-2.81 -9.96,-4.56 -15.88,-5.09 -5.97,-0.58 -14.45,-0.87 -25.55,-0.87l-23.28 0 0 64.88 22.6 0c11.1,0 19.69,-0.47 25.79,-1.46 6.14,-0.94 11.38,-2.81 15.82,-5.56 4.55,-2.92 7.85,-6.43 9.9,-10.46 2.05,-4.09 3.07,-9.23 3.07,-15.49z"/>
  <path id="_40" class="fil4 str4" d="M3016.82 2345.77l-39.05 0 -63.97 -88.03 -15.49 0 0 88.03 -31.41 0 0 -191.14 31.41 0 0 83.12c8.09,-0.12 15.03,-1.87 20.72,-5.2 5.69,-3.39 10.53,-9.94 14.46,-19.64 1.19,-2.86 2.57,-6.14 3.99,-9.94 1.48,-3.74 2.67,-7.07 3.52,-9.93 4.78,-14.03 11.56,-23.97 20.27,-29.76 8.7,-5.78 20.08,-8.65 34.03,-8.65l8.54 0 0 28.06 -7.17 0c-8.76,0 -15.32,1.81 -19.7,5.38 -4.38,3.62 -8.08,10.28 -11.04,20.1 -3.07,9.94 -6.71,17.66 -10.98,23.21 -4.21,5.55 -8.88,9.76 -13.95,12.74l75.82 101.65z"/>
  <path id="_41" class="fil4 str4" d="M3202.04 2250.26c0,32.21 -7.57,56.99 -22.66,74.53 -15.14,17.47 -35.23,26.24 -60.33,26.24 -25.89,0 -46.27,-9.06 -61.07,-27.12 -14.85,-18.06 -22.25,-42.61 -22.25,-73.65 0,-31.91 7.62,-56.7 22.94,-74.35 15.25,-17.71 35.39,-26.54 60.38,-26.54 25.1,0 45.19,8.83 60.33,26.42 15.09,17.65 22.66,42.44 22.66,74.47zm-32.44 0c0,-24.61 -4.38,-42.9 -13.15,-54.89 -8.77,-11.98 -21.24,-17.94 -37.4,-17.94 -16.27,0 -28.85,5.96 -37.67,17.94 -8.83,11.99 -13.21,30.28 -13.21,54.89 0,23.85 4.38,41.91 13.21,54.24 8.82,12.34 21.4,18.47 37.67,18.47 16.06,0 28.52,-6.02 37.34,-18.12 8.83,-12.1 13.21,-30.27 13.21,-54.59z"/>
  <path id="_42" class="fil4 str4" d="M3392.05 2287.79c0,9.23 -1.71,17.47 -5.18,24.6 -3.42,7.14 -8.2,13.16 -14.17,17.95 -7.58,6.02 -15.48,10.11 -23.8,12.27 -8.25,2.11 -18.21,3.16 -29.77,3.16l-73.24 0 0 -191.14 68.46 0c13.72,0 23.74,0.41 30.06,1.29 6.37,0.82 12.63,3.04 18.89,6.55 6.55,3.68 11.39,8.47 14.52,14.55 3.13,6.02 4.67,13.15 4.67,21.45 0,9.12 -2.45,17.3 -7.35,24.55 -4.84,7.19 -11.32,12.8 -19.46,16.72l0.86 1.17c10.06,2.63 18.49,7.95 25.32,15.96 6.77,8 10.19,18.29 10.19,30.92zm-42.01 -84.12c0,-4.32 -0.68,-8.06 -2.04,-11.22 -1.43,-3.16 -3.82,-5.67 -7.23,-7.48 -3.99,-2.1 -8.43,-3.39 -13.32,-3.8 -4.96,-0.41 -11.78,-0.58 -20.49,-0.58l-29.66 0 0 51.9 35.81 0c7.62,0 13.03,-0.35 16.22,-1.11 3.18,-0.7 6.77,-2.28 10.58,-4.68 3.7,-2.22 6.27,-5.32 7.8,-9.11 1.54,-3.86 2.33,-8.48 2.33,-13.92zm9.56 84c0,-6.55 -0.9,-11.81 -2.72,-15.72 -1.82,-3.98 -5.87,-7.49 -12.02,-10.58 -3.87,-1.99 -8.02,-3.16 -12.46,-3.63 -4.44,-0.47 -10.59,-0.7 -18.44,-0.7l-36.66 0 0 62.78 27.04 0c11.21,0 19.87,-0.47 26.07,-1.41 6.2,-0.87 11.49,-2.74 15.93,-5.49 4.62,-2.98 8.03,-6.43 10.14,-10.29 2.1,-3.91 3.12,-8.88 3.12,-14.96z"/>
  <path id="_43" class="fil4 str4" d="M3469.13 2345.77l-31.41 0 0 -191.14 31.41 0 0 191.14zm2.39 -223.4l-35.86 0 0 -33.32 35.86 0 0 33.32z"/>
  <path class="fil0" d="M1801.93 3076.9c0,32.23 -4.69,55.89 -14.03,71 -9.39,15.06 -23.83,22.59 -43.38,22.59 -19.8,0 -34.29,-7.69 -43.55,-23.04 -9.26,-15.36 -13.87,-38.77 -13.87,-70.3 0,-32.39 4.7,-56.1 14.04,-71.08 9.38,-15.02 23.83,-22.51 43.38,-22.51 19.79,0 34.28,7.78 43.54,23.3 9.26,15.51 13.87,38.85 13.87,70.04zm-30.87 54.7c2.35,-5.97 4,-13.46 4.98,-22.55 0.95,-9.06 1.44,-19.76 1.44,-32.15 0,-12.26 -0.49,-22.96 -1.44,-32.02 -0.98,-9.09 -2.67,-16.62 -5.06,-22.63 -2.43,-6.13 -5.76,-10.74 -9.96,-13.91 -4.24,-3.17 -9.75,-4.78 -16.5,-4.78 -6.67,0 -12.18,1.61 -16.46,4.78 -4.33,3.17 -7.74,7.86 -10.21,14.11 -2.43,6.14 -4.08,13.83 -4.98,23.13 -0.87,9.35 -1.32,19.84 -1.32,31.57 0,12.51 0.37,23.01 1.15,31.44 0.74,8.4 2.43,15.97 5.03,22.64 2.3,6.17 5.63,10.95 9.96,14.28 4.28,3.34 9.91,4.98 16.83,4.98 6.67,0 12.18,-1.6 16.5,-4.77 4.28,-3.17 7.66,-7.86 10.04,-14.12z"/>
  <path id="_1_7" class="fil0" d="M1949.84 3076.9c0,32.23 -4.69,55.89 -14.03,71 -9.39,15.06 -23.83,22.59 -43.38,22.59 -19.8,0 -34.29,-7.69 -43.55,-23.04 -9.26,-15.36 -13.87,-38.77 -13.87,-70.3 0,-32.39 4.7,-56.1 14.04,-71.08 9.38,-15.02 23.83,-22.51 43.38,-22.51 19.79,0 34.28,7.78 43.54,23.3 9.26,15.51 13.87,38.85 13.87,70.04zm-30.87 54.7c2.35,-5.97 4,-13.46 4.98,-22.55 0.95,-9.06 1.44,-19.76 1.44,-32.15 0,-12.26 -0.49,-22.96 -1.44,-32.02 -0.98,-9.09 -2.67,-16.62 -5.06,-22.63 -2.43,-6.13 -5.76,-10.74 -9.96,-13.91 -4.24,-3.17 -9.75,-4.78 -16.5,-4.78 -6.67,0 -12.18,1.61 -16.46,4.78 -4.33,3.17 -7.74,7.86 -10.21,14.11 -2.43,6.14 -4.08,13.83 -4.98,23.13 -0.87,9.35 -1.32,19.84 -1.32,31.57 0,12.51 0.37,23.01 1.15,31.44 0.74,8.4 2.43,15.97 5.03,22.64 2.3,6.17 5.63,10.95 9.96,14.28 4.28,3.34 9.91,4.98 16.83,4.98 6.67,0 12.18,-1.6 16.5,-4.77 4.28,-3.17 7.66,-7.86 10.04,-14.12z"/>
  <path id="_2_8" class="fil0" d="M2097.75 3076.9c0,32.23 -4.69,55.89 -14.03,71 -9.39,15.06 -23.83,22.59 -43.38,22.59 -19.8,0 -34.29,-7.69 -43.55,-23.04 -9.26,-15.36 -13.87,-38.77 -13.87,-70.3 0,-32.39 4.7,-56.1 14.04,-71.08 9.38,-15.02 23.83,-22.51 43.38,-22.51 19.79,0 34.28,7.78 43.54,23.3 9.26,15.51 13.87,38.85 13.87,70.04zm-30.87 54.7c2.35,-5.97 4,-13.46 4.98,-22.55 0.95,-9.06 1.44,-19.76 1.44,-32.15 0,-12.26 -0.49,-22.96 -1.44,-32.02 -0.98,-9.09 -2.67,-16.62 -5.06,-22.63 -2.43,-6.13 -5.76,-10.74 -9.96,-13.91 -4.24,-3.17 -9.75,-4.78 -16.5,-4.78 -6.67,0 -12.18,1.61 -16.46,4.78 -4.33,3.17 -7.74,7.86 -10.21,14.11 -2.43,6.14 -4.08,13.83 -4.98,23.13 -0.87,9.35 -1.32,19.84 -1.32,31.57 0,12.51 0.37,23.01 1.15,31.44 0.74,8.4 2.43,15.97 5.03,22.64 2.3,6.17 5.63,10.95 9.96,14.28 4.28,3.34 9.91,4.98 16.83,4.98 6.67,0 12.18,-1.6 16.5,-4.77 4.28,-3.17 7.66,-7.86 10.04,-14.12z"/>
  <path id="_3_9" class="fil0" d="M2245.66 3076.9c0,32.23 -4.69,55.89 -14.03,71 -9.39,15.06 -23.83,22.59 -43.38,22.59 -19.8,0 -34.29,-7.69 -43.55,-23.04 -9.26,-15.36 -13.87,-38.77 -13.87,-70.3 0,-32.39 4.7,-56.1 14.04,-71.08 9.38,-15.02 23.83,-22.51 43.38,-22.51 19.79,0 34.28,7.78 43.54,23.3 9.26,15.51 13.87,38.85 13.87,70.04zm-30.87 54.7c2.35,-5.97 4,-13.46 4.98,-22.55 0.95,-9.06 1.44,-19.76 1.44,-32.15 0,-12.26 -0.49,-22.96 -1.44,-32.02 -0.98,-9.09 -2.67,-16.62 -5.06,-22.63 -2.43,-6.13 -5.76,-10.74 -9.96,-13.91 -4.24,-3.17 -9.75,-4.78 -16.5,-4.78 -6.67,0 -12.18,1.61 -16.46,4.78 -4.33,3.17 -7.74,7.86 -10.21,14.11 -2.43,6.14 -4.08,13.83 -4.98,23.13 -0.87,9.35 -1.32,19.84 -1.32,31.57 0,12.51 0.37,23.01 1.15,31.44 0.74,8.4 2.43,15.97 5.03,22.64 2.3,6.17 5.63,10.95 9.96,14.28 4.28,3.34 9.91,4.98 16.83,4.98 6.67,0 12.18,-1.6 16.5,-4.77 4.28,-3.17 7.66,-7.86 10.04,-14.12z"/>
  <path id="_4_10" class="fil0" d="M2393.57 3076.9c0,32.23 -4.69,55.89 -14.03,71 -9.39,15.06 -23.83,22.59 -43.38,22.59 -19.8,0 -34.29,-7.69 -43.55,-23.04 -9.26,-15.36 -13.87,-38.77 -13.87,-70.3 0,-32.39 4.7,-56.1 14.04,-71.08 9.38,-15.02 23.83,-22.51 43.38,-22.51 19.79,0 34.28,7.78 43.54,23.3 9.26,15.51 13.87,38.85 13.87,70.04zm-30.87 54.7c2.35,-5.97 4,-13.46 4.98,-22.55 0.95,-9.06 1.44,-19.76 1.44,-32.15 0,-12.26 -0.49,-22.96 -1.44,-32.02 -0.98,-9.09 -2.67,-16.62 -5.06,-22.63 -2.43,-6.13 -5.76,-10.74 -9.96,-13.91 -4.24,-3.17 -9.75,-4.78 -16.5,-4.78 -6.67,0 -12.18,1.61 -16.46,4.78 -4.33,3.17 -7.74,7.86 -10.21,14.11 -2.43,6.14 -4.08,13.83 -4.98,23.13 -0.87,9.35 -1.32,19.84 -1.32,31.57 0,12.51 0.37,23.01 1.15,31.44 0.74,8.4 2.43,15.97 5.03,22.64 2.3,6.17 5.63,10.95 9.96,14.28 4.28,3.34 9.91,4.98 16.83,4.98 6.67,0 12.18,-1.6 16.5,-4.77 4.28,-3.17 7.66,-7.86 10.04,-14.12z"/>
  <path id="_5_11" class="fil0" d="M2541.48 3076.9c0,32.23 -4.69,55.89 -14.03,71 -9.39,15.06 -23.83,22.59 -43.38,22.59 -19.8,0 -34.29,-7.69 -43.55,-23.04 -9.26,-15.36 -13.87,-38.77 -13.87,-70.3 0,-32.39 4.7,-56.1 14.04,-71.08 9.38,-15.02 23.83,-22.51 43.38,-22.51 19.79,0 34.28,7.78 43.54,23.3 9.26,15.51 13.87,38.85 13.87,70.04zm-30.87 54.7c2.35,-5.97 4,-13.46 4.98,-22.55 0.95,-9.06 1.44,-19.76 1.44,-32.15 0,-12.26 -0.49,-22.96 -1.44,-32.02 -0.98,-9.09 -2.67,-16.62 -5.06,-22.63 -2.43,-6.13 -5.76,-10.74 -9.96,-13.91 -4.24,-3.17 -9.75,-4.78 -16.5,-4.78 -6.67,0 -12.18,1.61 -16.46,4.78 -4.33,3.17 -7.74,7.86 -10.21,14.11 -2.43,6.14 -4.08,13.83 -4.98,23.13 -0.87,9.35 -1.32,19.84 -1.32,31.57 0,12.51 0.37,23.01 1.15,31.44 0.74,8.4 2.43,15.97 5.03,22.64 2.3,6.17 5.63,10.95 9.96,14.28 4.28,3.34 9.91,4.98 16.83,4.98 6.67,0 12.18,-1.6 16.5,-4.77 4.28,-3.17 7.66,-7.86 10.04,-14.12z"/>
  <path id="_6_12" class="fil0" d="M2689.39 3076.9c0,32.23 -4.69,55.89 -14.03,71 -9.39,15.06 -23.83,22.59 -43.38,22.59 -19.8,0 -34.29,-7.69 -43.55,-23.04 -9.26,-15.36 -13.87,-38.77 -13.87,-70.3 0,-32.39 4.7,-56.1 14.04,-71.08 9.38,-15.02 23.83,-22.51 43.38,-22.51 19.79,0 34.28,7.78 43.54,23.3 9.26,15.51 13.87,38.85 13.87,70.04zm-30.87 54.7c2.35,-5.97 4,-13.46 4.98,-22.55 0.95,-9.06 1.44,-19.76 1.44,-32.15 0,-12.26 -0.49,-22.96 -1.44,-32.02 -0.98,-9.09 -2.67,-16.62 -5.06,-22.63 -2.43,-6.13 -5.76,-10.74 -9.96,-13.91 -4.24,-3.17 -9.75,-4.78 -16.5,-4.78 -6.67,0 -12.18,1.61 -16.46,4.78 -4.33,3.17 -7.74,7.86 -10.21,14.11 -2.43,6.14 -4.08,13.83 -4.98,23.13 -0.87,9.35 -1.32,19.84 -1.32,31.57 0,12.51 0.37,23.01 1.15,31.44 0.74,8.4 2.43,15.97 5.03,22.64 2.3,6.17 5.63,10.95 9.96,14.28 4.28,3.34 9.91,4.98 16.83,4.98 6.67,0 12.18,-1.6 16.5,-4.77 4.28,-3.17 7.66,-7.86 10.04,-14.12z"/>
  <path id="_7_13" class="fil0" d="M2837.3 3076.9c0,32.23 -4.69,55.89 -14.03,71 -9.39,15.06 -23.83,22.59 -43.38,22.59 -19.8,0 -34.29,-7.69 -43.55,-23.04 -9.26,-15.36 -13.87,-38.77 -13.87,-70.3 0,-32.39 4.7,-56.1 14.04,-71.08 9.38,-15.02 23.83,-22.51 43.38,-22.51 19.79,0 34.28,7.78 43.54,23.3 9.26,15.51 13.87,38.85 13.87,70.04zm-30.87 54.7c2.35,-5.97 4,-13.46 4.98,-22.55 0.95,-9.06 1.44,-19.76 1.44,-32.15 0,-12.26 -0.49,-22.96 -1.44,-32.02 -0.98,-9.09 -2.67,-16.62 -5.06,-22.63 -2.43,-6.13 -5.76,-10.74 -9.96,-13.91 -4.24,-3.17 -9.75,-4.78 -16.5,-4.78 -6.67,0 -12.18,1.61 -16.46,4.78 -4.33,3.17 -7.74,7.86 -10.21,14.11 -2.43,6.14 -4.08,13.83 -4.98,23.13 -0.87,9.35 -1.32,19.84 -1.32,31.57 0,12.51 0.37,23.01 1.15,31.44 0.74,8.4 2.43,15.97 5.03,22.64 2.3,6.17 5.63,10.95 9.96,14.28 4.28,3.34 9.91,4.98 16.83,4.98 6.67,0 12.18,-1.6 16.5,-4.77 4.28,-3.17 7.66,-7.86 10.04,-14.12z"/>
  <path id="_8_14" class="fil0" d="M2985.21 3076.9c0,32.23 -4.69,55.89 -14.03,71 -9.39,15.06 -23.83,22.59 -43.38,22.59 -19.8,0 -34.29,-7.69 -43.55,-23.04 -9.26,-15.36 -13.87,-38.77 -13.87,-70.3 0,-32.39 4.7,-56.1 14.04,-71.08 9.38,-15.02 23.83,-22.51 43.38,-22.51 19.79,0 34.28,7.78 43.54,23.3 9.26,15.51 13.87,38.85 13.87,70.04zm-30.87 54.7c2.35,-5.97 4,-13.46 4.98,-22.55 0.95,-9.06 1.44,-19.76 1.44,-32.15 0,-12.26 -0.49,-22.96 -1.44,-32.02 -0.98,-9.09 -2.67,-16.62 -5.06,-22.63 -2.43,-6.13 -5.76,-10.74 -9.96,-13.91 -4.24,-3.17 -9.75,-4.78 -16.5,-4.78 -6.67,0 -12.18,1.61 -16.46,4.78 -4.33,3.17 -7.74,7.86 -10.21,14.11 -2.43,6.14 -4.08,13.83 -4.98,23.13 -0.87,9.35 -1.32,19.84 -1.32,31.57 0,12.51 0.37,23.01 1.15,31.44 0.74,8.4 2.43,15.97 5.03,22.64 2.3,6.17 5.63,10.95 9.96,14.28 4.28,3.34 9.91,4.98 16.83,4.98 6.67,0 12.18,-1.6 16.5,-4.77 4.28,-3.17 7.66,-7.86 10.04,-14.12z"/>
  <path id="_9_15" class="fil0" d="M3133.12 3076.9c0,32.23 -4.69,55.89 -14.03,71 -9.39,15.06 -23.83,22.59 -43.38,22.59 -19.8,0 -34.29,-7.69 -43.55,-23.04 -9.26,-15.36 -13.87,-38.77 -13.87,-70.3 0,-32.39 4.7,-56.1 14.04,-71.08 9.38,-15.02 23.83,-22.51 43.38,-22.51 19.79,0 34.28,7.78 43.54,23.3 9.26,15.51 13.87,38.85 13.87,70.04zm-30.87 54.7c2.35,-5.97 4,-13.46 4.98,-22.55 0.95,-9.06 1.44,-19.76 1.44,-32.15 0,-12.26 -0.49,-22.96 -1.44,-32.02 -0.98,-9.09 -2.67,-16.62 -5.06,-22.63 -2.43,-6.13 -5.76,-10.74 -9.96,-13.91 -4.24,-3.17 -9.75,-4.78 -16.5,-4.78 -6.67,0 -12.18,1.61 -16.46,4.78 -4.33,3.17 -7.74,7.86 -10.21,14.11 -2.43,6.14 -4.08,13.83 -4.98,23.13 -0.87,9.35 -1.32,19.84 -1.32,31.57 0,12.51 0.37,23.01 1.15,31.44 0.74,8.4 2.43,15.97 5.03,22.64 2.3,6.17 5.63,10.95 9.96,14.28 4.28,3.34 9.91,4.98 16.83,4.98 6.67,0 12.18,-1.6 16.5,-4.77 4.28,-3.17 7.66,-7.86 10.04,-14.12z"/>
  <path id="_10_16" class="fil4 str4" d="M1801.93 3076.9c0,32.23 -4.69,55.89 -14.03,71 -9.39,15.06 -23.83,22.59 -43.38,22.59 -19.8,0 -34.29,-7.69 -43.55,-23.04 -9.26,-15.36 -13.87,-38.77 -13.87,-70.3 0,-32.39 4.7,-56.1 14.04,-71.08 9.38,-15.02 23.83,-22.51 43.38,-22.51 19.79,0 34.28,7.78 43.54,23.3 9.26,15.51 13.87,38.85 13.87,70.04zm-30.87 54.7c2.35,-5.97 4,-13.46 4.98,-22.55 0.95,-9.06 1.44,-19.76 1.44,-32.15 0,-12.26 -0.49,-22.96 -1.44,-32.02 -0.98,-9.09 -2.67,-16.62 -5.06,-22.63 -2.43,-6.13 -5.76,-10.74 -9.96,-13.91 -4.24,-3.17 -9.75,-4.78 -16.5,-4.78 -6.67,0 -12.18,1.61 -16.46,4.78 -4.33,3.17 -7.74,7.86 -10.21,14.11 -2.43,6.14 -4.08,13.83 -4.98,23.13 -0.87,9.35 -1.32,19.84 -1.32,31.57 0,12.51 0.37,23.01 1.15,31.44 0.74,8.4 2.43,15.97 5.03,22.64 2.3,6.17 5.63,10.95 9.96,14.28 4.28,3.34 9.91,4.98 16.83,4.98 6.67,0 12.18,-1.6 16.5,-4.77 4.28,-3.17 7.66,-7.86 10.04,-14.12z"/>
  <path id="_11_17" class="fil4 str4" d="M1949.84 3076.9c0,32.23 -4.69,55.89 -14.03,71 -9.39,15.06 -23.83,22.59 -43.38,22.59 -19.8,0 -34.29,-7.69 -43.55,-23.04 -9.26,-15.36 -13.87,-38.77 -13.87,-70.3 0,-32.39 4.7,-56.1 14.04,-71.08 9.38,-15.02 23.83,-22.51 43.38,-22.51 19.79,0 34.28,7.78 43.54,23.3 9.26,15.51 13.87,38.85 13.87,70.04zm-30.87 54.7c2.35,-5.97 4,-13.46 4.98,-22.55 0.95,-9.06 1.44,-19.76 1.44,-32.15 0,-12.26 -0.49,-22.96 -1.44,-32.02 -0.98,-9.09 -2.67,-16.62 -5.06,-22.63 -2.43,-6.13 -5.76,-10.74 -9.96,-13.91 -4.24,-3.17 -9.75,-4.78 -16.5,-4.78 -6.67,0 -12.18,1.61 -16.46,4.78 -4.33,3.17 -7.74,7.86 -10.21,14.11 -2.43,6.14 -4.08,13.83 -4.98,23.13 -0.87,9.35 -1.32,19.84 -1.32,31.57 0,12.51 0.37,23.01 1.15,31.44 0.74,8.4 2.43,15.97 5.03,22.64 2.3,6.17 5.63,10.95 9.96,14.28 4.28,3.34 9.91,4.98 16.83,4.98 6.67,0 12.18,-1.6 16.5,-4.77 4.28,-3.17 7.66,-7.86 10.04,-14.12z"/>
  <path id="_12_18" class="fil4 str4" d="M2097.75 3076.9c0,32.23 -4.69,55.89 -14.03,71 -9.39,15.06 -23.83,22.59 -43.38,22.59 -19.8,0 -34.29,-7.69 -43.55,-23.04 -9.26,-15.36 -13.87,-38.77 -13.87,-70.3 0,-32.39 4.7,-56.1 14.04,-71.08 9.38,-15.02 23.83,-22.51 43.38,-22.51 19.79,0 34.28,7.78 43.54,23.3 9.26,15.51 13.87,38.85 13.87,70.04zm-30.87 54.7c2.35,-5.97 4,-13.46 4.98,-22.55 0.95,-9.06 1.44,-19.76 1.44,-32.15 0,-12.26 -0.49,-22.96 -1.44,-32.02 -0.98,-9.09 -2.67,-16.62 -5.06,-22.63 -2.43,-6.13 -5.76,-10.74 -9.96,-13.91 -4.24,-3.17 -9.75,-4.78 -16.5,-4.78 -6.67,0 -12.18,1.61 -16.46,4.78 -4.33,3.17 -7.74,7.86 -10.21,14.11 -2.43,6.14 -4.08,13.83 -4.98,23.13 -0.87,9.35 -1.32,19.84 -1.32,31.57 0,12.51 0.37,23.01 1.15,31.44 0.74,8.4 2.43,15.97 5.03,22.64 2.3,6.17 5.63,10.95 9.96,14.28 4.28,3.34 9.91,4.98 16.83,4.98 6.67,0 12.18,-1.6 16.5,-4.77 4.28,-3.17 7.66,-7.86 10.04,-14.12z"/>
  <path id="_13_19" class="fil4 str4" d="M2245.66 3076.9c0,32.23 -4.69,55.89 -14.03,71 -9.39,15.06 -23.83,22.59 -43.38,22.59 -19.8,0 -34.29,-7.69 -43.55,-23.04 -9.26,-15.36 -13.87,-38.77 -13.87,-70.3 0,-32.39 4.7,-56.1 14.04,-71.08 9.38,-15.02 23.83,-22.51 43.38,-22.51 19.79,0 34.28,7.78 43.54,23.3 9.26,15.51 13.87,38.85 13.87,70.04zm-30.87 54.7c2.35,-5.97 4,-13.46 4.98,-22.55 0.95,-9.06 1.44,-19.76 1.44,-32.15 0,-12.26 -0.49,-22.96 -1.44,-32.02 -0.98,-9.09 -2.67,-16.62 -5.06,-22.63 -2.43,-6.13 -5.76,-10.74 -9.96,-13.91 -4.24,-3.17 -9.75,-4.78 -16.5,-4.78 -6.67,0 -12.18,1.61 -16.46,4.78 -4.33,3.17 -7.74,7.86 -10.21,14.11 -2.43,6.14 -4.08,13.83 -4.98,23.13 -0.87,9.35 -1.32,19.84 -1.32,31.57 0,12.51 0.37,23.01 1.15,31.44 0.74,8.4 2.43,15.97 5.03,22.64 2.3,6.17 5.63,10.95 9.96,14.28 4.28,3.34 9.91,4.98 16.83,4.98 6.67,0 12.18,-1.6 16.5,-4.77 4.28,-3.17 7.66,-7.86 10.04,-14.12z"/>
  <path id="_14_20" class="fil4 str4" d="M2393.57 3076.9c0,32.23 -4.69,55.89 -14.03,71 -9.39,15.06 -23.83,22.59 -43.38,22.59 -19.8,0 -34.29,-7.69 -43.55,-23.04 -9.26,-15.36 -13.87,-38.77 -13.87,-70.3 0,-32.39 4.7,-56.1 14.04,-71.08 9.38,-15.02 23.83,-22.51 43.38,-22.51 19.79,0 34.28,7.78 43.54,23.3 9.26,15.51 13.87,38.85 13.87,70.04zm-30.87 54.7c2.35,-5.97 4,-13.46 4.98,-22.55 0.95,-9.06 1.44,-19.76 1.44,-32.15 0,-12.26 -0.49,-22.96 -1.44,-32.02 -0.98,-9.09 -2.67,-16.62 -5.06,-22.63 -2.43,-6.13 -5.76,-10.74 -9.96,-13.91 -4.24,-3.17 -9.75,-4.78 -16.5,-4.78 -6.67,0 -12.18,1.61 -16.46,4.78 -4.33,3.17 -7.74,7.86 -10.21,14.11 -2.43,6.14 -4.08,13.83 -4.98,23.13 -0.87,9.35 -1.32,19.84 -1.32,31.57 0,12.51 0.37,23.01 1.15,31.44 0.74,8.4 2.43,15.97 5.03,22.64 2.3,6.17 5.63,10.95 9.96,14.28 4.28,3.34 9.91,4.98 16.83,4.98 6.67,0 12.18,-1.6 16.5,-4.77 4.28,-3.17 7.66,-7.86 10.04,-14.12z"/>
  <path id="_15_21" class="fil4 str4" d="M2541.48 3076.9c0,32.23 -4.69,55.89 -14.03,71 -9.39,15.06 -23.83,22.59 -43.38,22.59 -19.8,0 -34.29,-7.69 -43.55,-23.04 -9.26,-15.36 -13.87,-38.77 -13.87,-70.3 0,-32.39 4.7,-56.1 14.04,-71.08 9.38,-15.02 23.83,-22.51 43.38,-22.51 19.79,0 34.28,7.78 43.54,23.3 9.26,15.51 13.87,38.85 13.87,70.04zm-30.87 54.7c2.35,-5.97 4,-13.46 4.98,-22.55 0.95,-9.06 1.44,-19.76 1.44,-32.15 0,-12.26 -0.49,-22.96 -1.44,-32.02 -0.98,-9.09 -2.67,-16.62 -5.06,-22.63 -2.43,-6.13 -5.76,-10.74 -9.96,-13.91 -4.24,-3.17 -9.75,-4.78 -16.5,-4.78 -6.67,0 -12.18,1.61 -16.46,4.78 -4.33,3.17 -7.74,7.86 -10.21,14.11 -2.43,6.14 -4.08,13.83 -4.98,23.13 -0.87,9.35 -1.32,19.84 -1.32,31.57 0,12.51 0.37,23.01 1.15,31.44 0.74,8.4 2.43,15.97 5.03,22.64 2.3,6.17 5.63,10.95 9.96,14.28 4.28,3.34 9.91,4.98 16.83,4.98 6.67,0 12.18,-1.6 16.5,-4.77 4.28,-3.17 7.66,-7.86 10.04,-14.12z"/>
  <path id="_16_22" class="fil4 str4" d="M2689.39 3076.9c0,32.23 -4.69,55.89 -14.03,71 -9.39,15.06 -23.83,22.59 -43.38,22.59 -19.8,0 -34.29,-7.69 -43.55,-23.04 -9.26,-15.36 -13.87,-38.77 -13.87,-70.3 0,-32.39 4.7,-56.1 14.04,-71.08 9.38,-15.02 23.83,-22.51 43.38,-22.51 19.79,0 34.28,7.78 43.54,23.3 9.26,15.51 13.87,38.85 13.87,70.04zm-30.87 54.7c2.35,-5.97 4,-13.46 4.98,-22.55 0.95,-9.06 1.44,-19.76 1.44,-32.15 0,-12.26 -0.49,-22.96 -1.44,-32.02 -0.98,-9.09 -2.67,-16.62 -5.06,-22.63 -2.43,-6.13 -5.76,-10.74 -9.96,-13.91 -4.24,-3.17 -9.75,-4.78 -16.5,-4.78 -6.67,0 -12.18,1.61 -16.46,4.78 -4.33,3.17 -7.74,7.86 -10.21,14.11 -2.43,6.14 -4.08,13.83 -4.98,23.13 -0.87,9.35 -1.32,19.84 -1.32,31.57 0,12.51 0.37,23.01 1.15,31.44 0.74,8.4 2.43,15.97 5.03,22.64 2.3,6.17 5.63,10.95 9.96,14.28 4.28,3.34 9.91,4.98 16.83,4.98 6.67,0 12.18,-1.6 16.5,-4.77 4.28,-3.17 7.66,-7.86 10.04,-14.12z"/>
  <path id="_17_23" class="fil4 str4" d="M2837.3 3076.9c0,32.23 -4.69,55.89 -14.03,71 -9.39,15.06 -23.83,22.59 -43.38,22.59 -19.8,0 -34.29,-7.69 -43.55,-23.04 -9.26,-15.36 -13.87,-38.77 -13.87,-70.3 0,-32.39 4.7,-56.1 14.04,-71.08 9.38,-15.02 23.83,-22.51 43.38,-22.51 19.79,0 34.28,7.78 43.54,23.3 9.26,15.51 13.87,38.85 13.87,70.04zm-30.87 54.7c2.35,-5.97 4,-13.46 4.98,-22.55 0.95,-9.06 1.44,-19.76 1.44,-32.15 0,-12.26 -0.49,-22.96 -1.44,-32.02 -0.98,-9.09 -2.67,-16.62 -5.06,-22.63 -2.43,-6.13 -5.76,-10.74 -9.96,-13.91 -4.24,-3.17 -9.75,-4.78 -16.5,-4.78 -6.67,0 -12.18,1.61 -16.46,4.78 -4.33,3.17 -7.74,7.86 -10.21,14.11 -2.43,6.14 -4.08,13.83 -4.98,23.13 -0.87,9.35 -1.32,19.84 -1.32,31.57 0,12.51 0.37,23.01 1.15,31.44 0.74,8.4 2.43,15.97 5.03,22.64 2.3,6.17 5.63,10.95 9.96,14.28 4.28,3.34 9.91,4.98 16.83,4.98 6.67,0 12.18,-1.6 16.5,-4.77 4.28,-3.17 7.66,-7.86 10.04,-14.12z"/>
  <path id="_18_24" class="fil4 str4" d="M2985.21 3076.9c0,32.23 -4.69,55.89 -14.03,71 -9.39,15.06 -23.83,22.59 -43.38,22.59 -19.8,0 -34.29,-7.69 -43.55,-23.04 -9.26,-15.36 -13.87,-38.77 -13.87,-70.3 0,-32.39 4.7,-56.1 14.04,-71.08 9.38,-15.02 23.83,-22.51 43.38,-22.51 19.79,0 34.28,7.78 43.54,23.3 9.26,15.51 13.87,38.85 13.87,70.04zm-30.87 54.7c2.35,-5.97 4,-13.46 4.98,-22.55 0.95,-9.06 1.44,-19.76 1.44,-32.15 0,-12.26 -0.49,-22.96 -1.44,-32.02 -0.98,-9.09 -2.67,-16.62 -5.06,-22.63 -2.43,-6.13 -5.76,-10.74 -9.96,-13.91 -4.24,-3.17 -9.75,-4.78 -16.5,-4.78 -6.67,0 -12.18,1.61 -16.46,4.78 -4.33,3.17 -7.74,7.86 -10.21,14.11 -2.43,6.14 -4.08,13.83 -4.98,23.13 -0.87,9.35 -1.32,19.84 -1.32,31.57 0,12.51 0.37,23.01 1.15,31.44 0.74,8.4 2.43,15.97 5.03,22.64 2.3,6.17 5.63,10.95 9.96,14.28 4.28,3.34 9.91,4.98 16.83,4.98 6.67,0 12.18,-1.6 16.5,-4.77 4.28,-3.17 7.66,-7.86 10.04,-14.12z"/>
  <path id="_19_25" class="fil4 str4" d="M3133.12 3076.9c0,32.23 -4.69,55.89 -14.03,71 -9.39,15.06 -23.83,22.59 -43.38,22.59 -19.8,0 -34.29,-7.69 -43.55,-23.04 -9.26,-15.36 -13.87,-38.77 -13.87,-70.3 0,-32.39 4.7,-56.1 14.04,-71.08 9.38,-15.02 23.83,-22.51 43.38,-22.51 19.79,0 34.28,7.78 43.54,23.3 9.26,15.51 13.87,38.85 13.87,70.04zm-30.87 54.7c2.35,-5.97 4,-13.46 4.98,-22.55 0.95,-9.06 1.44,-19.76 1.44,-32.15 0,-12.26 -0.49,-22.96 -1.44,-32.02 -0.98,-9.09 -2.67,-16.62 -5.06,-22.63 -2.43,-6.13 -5.76,-10.74 -9.96,-13.91 -4.24,-3.17 -9.75,-4.78 -16.5,-4.78 -6.67,0 -12.18,1.61 -16.46,4.78 -4.33,3.17 -7.74,7.86 -10.21,14.11 -2.43,6.14 -4.08,13.83 -4.98,23.13 -0.87,9.35 -1.32,19.84 -1.32,31.57 0,12.51 0.37,23.01 1.15,31.44 0.74,8.4 2.43,15.97 5.03,22.64 2.3,6.17 5.63,10.95 9.96,14.28 4.28,3.34 9.91,4.98 16.83,4.98 6.67,0 12.18,-1.6 16.5,-4.77 4.28,-3.17 7.66,-7.86 10.04,-14.12z"/>
 </g>
</svg>
