<?xml version="1.0" encoding="UTF-8"?>
<!DOCTYPE svg PUBLIC "-//W3C//DTD SVG 1.1//EN" "http://www.w3.org/Graphics/SVG/1.1/DTD/svg11.dtd">
<!-- Creator: CorelDRAW 2019 (64-Bit) -->
<svg xmlns="http://www.w3.org/2000/svg" xml:space="preserve" width="41mm" height="41mm" version="1.1" style="shape-rendering:geometricPrecision; text-rendering:geometricPrecision; image-rendering:optimizeQuality; fill-rule:evenodd; clip-rule:evenodd"
viewBox="0 0 4100 4100"
 xmlns:xlink="http://www.w3.org/1999/xlink"
 xmlns:xodm="http://www.corel.com/coreldraw/odm/2003">
 <defs>
  <style type="text/css">
   <![CDATA[
    .str4 {stroke:#393185;stroke-width:20;stroke-miterlimit:22.9256}
    .str2 {stroke:#393185;stroke-width:15;stroke-miterlimit:22.9256}
    .str0 {stroke:#393185;stroke-width:7.62;stroke-miterlimit:22.9256}
    .str1 {stroke:#393185;stroke-width:20;stroke-linejoin:round;stroke-miterlimit:22.9256}
    .str3 {stroke:#393185;stroke-width:20;stroke-linecap:round;stroke-linejoin:round;stroke-miterlimit:22.9256}
    .fil2 {fill:none;fill-rule:nonzero}
    .fil0 {fill:#393185}
    .fil1 {fill:#393185;fill-rule:nonzero}
   ]]>
  </style>
 </defs>
 <g id="Слой_x0020_1">
  <metadata id="CorelCorpID_0Corel-Layer"/>
  <path class="fil0 str0" d="M2049.99 50c-1104.56,0 -1999.99,895.42 -1999.99,1999.99 0,1104.56 895.43,2000.01 1999.99,2000.01 1104.57,0 2000.01,-895.45 2000.01,-2000.01 0,-1104.57 -895.44,-1999.99 -2000.01,-1999.99l0 0zm0 61.52c1068.87,0 1938.46,869.6 1938.46,1938.47 0,1068.86 -869.59,1938.46 -1938.46,1938.46 -1068.86,0 -1938.45,-869.6 -1938.45,-1938.46 0,-1068.87 869.59,-1938.46 1938.45,-1938.47z"/>
  <path class="fil0 str0" d="M2050 151.91c-1048.28,0 -1898.09,849.82 -1898.09,1898.11 0,1048.28 849.81,1898.08 1898.09,1898.08 1048.3,0 1898.08,-849.8 1898.08,-1898.08 0,-1048.3 -849.79,-1898.11 -1898.08,-1898.11l0 0zm0 30.77c1029.66,0 1867.32,837.69 1867.32,1867.34 0,1029.65 -837.67,1867.33 -1867.32,1867.33 -1029.65,0 -1867.32,-837.68 -1867.32,-1867.33 0,-1029.66 837.67,-1867.34 1867.32,-1867.34z"/>
  <g id="_1817790912">
   <path class="fil1" d="M710.94 2626.28c-6.99,-16.44 -0.04,-35.78 15.52,-43.16 15.56,-7.38 33.85,-0.04 40.84,16.4l-56.36 26.76zm1338.93 850.42l0 65.3 0 0 -55.63 -1.09 -55.11 -3.26 -54.56 -5.38 -53.97 -7.47 -53.33 -9.52 -52.67 -11.52 -51.97 -13.5 -51.22 -15.44 -50.44 -17.31 -49.62 -19.18 -48.77 -20.98 -47.88 -22.77 -46.94 -24.5 -45.98 -26.2 -44.99 -27.85 -43.94 -29.48 -42.86 -31.06 -41.75 -32.59 -40.6 -34.1 -39.42 -35.56 -38.2 -37 -36.93 -38.37 -35.65 -39.73 -34.32 -41.04 -32.94 -42.31 -31.54 -43.53 -30.1 -44.74 -28.62 -45.88 -27.11 -47.02 -25.55 -48.08 -23.98 -49.13 -22.34 -50.13 56.36 -26.76 21.4 48.01 22.96 47.05 24.47 46.06 25.97 45.02 27.42 43.96 28.84 42.86 30.22 41.71 31.56 40.53 32.88 39.32 34.15 38.07 35.39 36.77 36.6 35.44 37.76 34.08 38.9 32.66 40.01 31.23 41.06 29.76 42.08 28.22 43.09 26.69 44.04 25.1 44.96 23.46 45.84 21.79 46.71 20.1 47.52 18.36 48.3 16.59 49.04 14.78 49.77 12.92 50.43 11.04 51.09 9.12 51.69 7.15 52.28 5.16 52.81 3.12 53.33 1.05 0 0zm1283.89 -881.33l56.44 26.6 -22.27 50.33 -23.9 49.33 -25.5 48.29 -27.05 47.2 -28.59 46.1 -30.07 44.92 -31.52 43.74 -32.93 42.5 -34.3 41.22 -35.64 39.92 -36.95 38.56 -38.21 37.16 -39.45 35.74 -40.63 34.26 -41.79 32.76 -42.91 31.21 -44 29.63 -45.04 27.99 -46.05 26.33 -47.01 24.63 -47.96 22.88 -48.86 21.11 -49.71 19.27 -50.54 17.42 -51.33 15.51 -52.07 13.56 -52.79 11.59 -53.46 9.57 -54.1 7.51 -54.69 5.41 -55.25 3.28 -55.76 1.1 0 -65.3 53.46 -1.06 52.95 -3.14 52.39 -5.19 51.82 -7.19 51.2 -9.17 50.55 -11.09 49.87 -13 49.13 -14.85 48.4 -16.68 47.61 -18.45 46.78 -20.21 45.92 -21.9 45.03 -23.59 44.11 -25.23 43.14 -26.81 42.14 -28.37 41.11 -29.91 40.03 -31.38 38.93 -32.82 37.79 -34.24 36.61 -35.62 35.41 -36.94 34.14 -38.24 32.88 -39.5 31.55 -40.72 30.2 -41.9 28.79 -43.04 27.39 -44.16 25.91 -45.22 24.44 -46.25 22.88 -47.25 21.33 -48.21zm0 0c6.94,-16.46 25.22,-23.86 40.8,-16.52 15.58,7.34 22.58,26.66 15.64,43.12l-56.44 -26.6z"/>
  </g>
  <g id="_1817807168">
   <path class="fil1" d="M3338.38 2582.55c13.65,0 24.72,11.7 24.72,26.12 0,14.42 -11.07,26.12 -24.72,26.12l0 -52.24zm-1123.38 0l1123.38 0 0 52.24 -1123.38 0 0 -52.24zm0 52.24c-13.65,0 -24.72,-11.7 -24.72,-26.12 0,-14.42 11.07,-26.12 24.72,-26.12l0 52.24z"/>
  </g>
  <g id="_1817797952">
   <path class="fil1" d="M3080.07 2713.16c13.65,0 24.72,11.7 24.72,26.12 0,14.42 -11.07,26.12 -24.72,26.12l0 -52.24zm-1123.36 0l1123.36 0 0 52.24 -1123.36 0 0 -52.24zm0 52.24c-13.65,0 -24.72,-11.7 -24.72,-26.12 0,-14.42 11.07,-26.12 24.72,-26.12l0 52.24z"/>
  </g>
  <g id="_1817799840">
   <path class="fil1" d="M2821.77 2843.77c13.65,0 24.72,11.7 24.72,26.12 0,14.42 -11.07,26.12 -24.72,26.12l0 -52.24zm-1123.37 0l1123.37 0 0 52.24 -1123.37 0 0 -52.24zm0 52.24c-13.65,0 -24.72,-11.7 -24.72,-26.12 0,-14.42 11.07,-26.12 24.72,-26.12l0 52.24z"/>
  </g>
  <path class="fil2" d="M2050 511.54c849.67,0 1538.45,688.79 1538.45,1538.46 0,849.67 -688.78,1538.46 -1538.45,1538.46 -849.67,0 -1538.45,-688.79 -1538.45,-1538.46 0,-849.67 688.78,-1538.46 1538.45,-1538.46z"/>
  <path class="fil1 str1" d="M313.57 1839.81l-22.87 -2.87 2.81 -22.36 22.87 2.87c4.08,-22.76 13.27,-39.98 27.53,-51.64 14.28,-11.69 30.73,-16.35 49.41,-14 18.3,2.29 33.04,10.65 44.24,25.11 11.16,14.47 15.95,33.62 14.27,57.53l23.11 2.9 -2.8 22.36 -23.12 -2.9c-3.51,21.17 -12.23,38.07 -26.19,50.7 -13.92,12.64 -30.93,17.69 -50.96,15.18 -20.06,-2.52 -35.25,-11.61 -45.55,-27.25 -10.28,-15.63 -14.51,-34.15 -12.75,-55.63zm23.16 -19.81l94.73 11.89c1.18,-15.46 -1.78,-28.09 -8.89,-37.96 -7.09,-9.86 -17.85,-15.68 -32.26,-17.49 -14.15,-1.77 -25.88,1.13 -35.26,8.76 -9.34,7.64 -15.43,19.21 -18.32,34.8zm-2.56 22.4c-1.19,14.91 1.66,27.44 8.64,37.63 6.98,10.19 17.71,16.22 32.23,18.04 14.37,1.8 26.21,-1.31 35.55,-9.33 9.34,-8.01 15.26,-19.52 17.82,-34.52l-94.24 -11.82zm165.25 -141.53l-176.68 -40.86 5.42 -23.44 176.68 40.85 -5.42 23.45zm-29.19 -101.04l1.78 -23.47c8.87,1.18 18.67,-0.41 29.4,-4.72 10.73,-4.34 18.08,-12.37 22.07,-24.17 4.06,-11.99 4.18,-22.51 0.34,-31.56 -3.82,-9 -10.12,-15.01 -18.88,-17.97 -9.43,-3.19 -18.22,-2.11 -26.25,3.33 -8.06,5.38 -14.23,14.4 -18.47,26.95l-3.67 10.84 -19.91 -6.73c3.52,-10.41 5.61,-18.57 6.27,-24.49 0.66,-5.92 -0.76,-11.84 -4.29,-17.75 -3.48,-5.91 -8.4,-9.93 -14.72,-12.07 -7.45,-2.51 -14.94,-1.84 -22.41,2.1 -7.47,3.89 -12.88,10.79 -16.2,20.62 -2.92,8.64 -3.25,16.73 -0.95,24.28 2.3,7.56 6.65,13.7 13.01,18.48 6.37,4.74 11.33,7.72 14.85,8.91l-12.42 20.12c-34.65,-17.68 -46.1,-43.92 -34.35,-78.68 5.66,-16.75 14.82,-28.4 27.45,-35.06 12.63,-6.64 25.17,-7.88 37.64,-3.66 16,5.41 25.84,17.16 29.53,35.24 5.39,-7.93 12.83,-13.56 22.27,-16.97 9.46,-3.35 19.38,-3.29 29.78,0.22 14.79,5.01 25.21,14.9 31.3,29.7 6.09,14.81 5.97,31.65 -0.41,50.52 -10.98,32.48 -35.24,47.81 -72.76,45.99zm-51.38 -240.31l8.95 -19.86 130.91 59.02 -91.24 -147.03 9.77 -21.66 165.32 74.53 -8.95 19.86 -130.57 -58.86 91 146.63 -9.88 21.9 -165.31 -74.53zm329.58 -223.93l-13.01 20.24 -61.43 -39.5c-4.93,22.43 -11.76,40.46 -20.5,54.06 -6.83,10.61 -15.34,18.4 -25.52,23.29 -10.16,4.96 -19.97,6.33 -29.37,4.16 -9.39,-2.17 -20.26,-7.21 -32.61,-15.16l-44.88 -28.85 13.01 -20.24 43 27.65c16.65,10.7 29.57,14.74 38.72,12.05 9.12,-2.72 16.45,-8.35 21.93,-16.87 9.16,-14.24 15.61,-31.21 19.35,-50.93l-74.23 -47.74 13.01 -20.23 152.53 98.07zm40.87 -57.88l-136.79 -119.06 15.8 -18.15 56.36 49.05 61.52 -70.69 -56.35 -49.05 15.79 -18.15 136.79 119.06 -15.8 18.15 -64.38 -56.04 -61.52 70.69 64.38 56.03 -15.8 18.16zm128.04 -143.42l-74.95 -179.18 19.08 -18.23 178.64 80.15 -19.75 18.87 -53.13 -25.26 -55.23 52.74 23.74 53.33 -18.4 17.58zm-13.71 -89.88l44.69 -42.68 -48.4 -23.3c-14.67,-7.11 -26.5,-13.27 -35.55,-18.4 6.37,10.27 11.97,20.97 16.88,32.15l22.38 52.23zm215.79 -194.4c-15.03,-26.03 -19.79,-50.48 -14.29,-73.29 5.5,-22.83 19.32,-40.6 41.47,-53.38 14.52,-8.38 29.57,-12.44 45.22,-12.26 15.62,0.2 30.07,4.72 43.33,13.59 13.24,8.84 24.42,21.1 33.46,36.78 9.19,15.91 14.19,32.02 15,48.28 0.82,16.29 -2.8,31.04 -10.85,44.27 -8.07,13.28 -18.93,23.85 -32.58,31.72 -14.8,8.55 -30.07,12.58 -45.85,12.18 -15.73,-0.41 -30.2,-5.03 -43.33,-13.93 -13.1,-8.86 -23.63,-20.18 -31.58,-33.96zm21.7 -12.04c10.91,18.89 24.58,30.84 41.01,35.84 16.43,4.98 32.34,3.06 47.69,-5.8 15.64,-9.03 25.31,-21.92 29.11,-38.73 3.76,-16.79 -0.18,-35.28 -11.83,-55.46 -7.37,-12.76 -15.96,-22.66 -25.77,-29.68 -9.79,-7.01 -20.38,-10.74 -31.7,-11.19 -11.34,-0.41 -22.19,2.34 -32.53,8.31 -14.7,8.48 -24.44,20.83 -29.22,37.04 -4.78,16.21 -0.37,36.08 13.24,59.67zm323.54 -134.05l24.61 -3.15c2.54,20.18 -0.38,37.43 -8.73,51.84 -8.35,14.39 -21.3,25.07 -38.86,31.97 -18.15,7.14 -34.37,9.26 -48.68,6.31 -14.3,-2.9 -27.16,-10.23 -38.61,-21.92 -11.46,-11.73 -20.37,-25.59 -26.7,-41.7 -6.91,-17.56 -9.6,-34.19 -8.02,-49.92 1.57,-15.72 7.21,-29.42 16.9,-41.08 9.71,-11.66 22.01,-20.4 36.85,-26.24 16.89,-6.64 32.76,-7.94 47.62,-3.85 14.89,4.08 27.65,12.98 38.28,26.76l-19.87 13.81c-8.71,-10.72 -17.93,-17.44 -27.55,-20.1 -9.64,-2.7 -20.09,-1.81 -31.36,2.62 -12.93,5.09 -22.54,12.46 -28.79,22.08 -6.24,9.62 -9.07,20.4 -8.46,32.23 0.59,11.88 3.07,23.37 7.45,34.49 5.64,14.34 12.65,26.04 21.02,35.09 8.38,9.09 17.99,14.52 28.88,16.36 10.89,1.84 21.43,0.73 31.68,-3.31 12.49,-4.91 21.6,-12.66 27.42,-23.25 5.8,-10.63 7.45,-23.61 4.92,-39.04zm65.9 -50.57c-8.19,-28.92 -6.81,-53.79 4.12,-74.56 10.93,-20.78 28.68,-34.61 53.29,-41.58 16.13,-4.56 31.72,-4.81 46.85,-0.79 15.09,4.02 27.99,11.95 38.67,23.8 10.67,11.81 18.5,26.44 23.43,43.85 5,17.68 5.9,34.53 2.69,50.49 -3.19,15.99 -10.32,29.41 -21.37,40.26 -11.08,10.9 -24.2,18.48 -39.36,22.77 -16.44,4.65 -32.23,4.82 -47.44,0.56 -15.15,-4.26 -28.04,-12.28 -38.59,-24.13 -10.53,-11.8 -17.96,-25.36 -22.29,-40.67zm23.99 -6.35c5.95,21 16.26,35.93 30.97,44.8 14.7,8.86 30.6,10.9 47.66,6.07 17.38,-4.91 29.91,-15.04 37.71,-30.41 7.77,-15.35 8.48,-34.25 2.13,-56.67 -4.01,-14.17 -9.91,-25.88 -17.7,-35.08 -7.78,-9.2 -17.13,-15.42 -27.99,-18.62 -10.9,-3.19 -22.09,-3.18 -33.58,0.07 -16.33,4.62 -28.8,14.2 -37.4,28.74 -8.61,14.55 -9.21,34.9 -1.8,61.1zm206.12 -145.2l116.86 -14.67 2.65 21.11 -92.98 11.66 6.97 55.55 42.96 -5.39c15.88,-2 28.68,-2.07 38.44,-0.19 9.76,1.84 17.98,6.59 24.68,14.3 6.71,7.66 10.74,17.07 12.14,28.22 1.14,9.08 0.19,17.84 -2.88,26.22 -3.06,8.42 -8.28,15.63 -15.71,21.62 -7.37,6 -20.74,10.23 -40.05,12.65l-70.5 8.85 -22.58 -179.93zm43.91 156.58l47.62 -5.98c12.85,-1.61 22.16,-5.42 27.95,-11.47 5.76,-6.03 8,-14.28 6.69,-24.7 -0.93,-7.45 -3.56,-13.42 -7.86,-17.94 -4.32,-4.53 -9.85,-7.19 -16.58,-8.01 -6.78,-0.8 -18.07,-0.2 -33.86,1.78l-31.78 3.99 7.82 62.33zm147.65 4.55l64.62 -183.16 26.38 -0.71 78.72 179.27 -27.31 0.74 -22.45 -54.37 -76.34 2.07 -18.18 55.47 -25.44 0.69zm50.13 -75.85l61.78 -1.67 -20.26 -49.75c-6.11,-15.12 -10.76,-27.62 -14.02,-37.49 -2.17,11.88 -5.2,23.58 -9.05,35.17l-18.45 53.74zm161.28 23.21l1.69 -22.22 68.69 5.22 -1.69 22.23 -68.69 -5.23zm153.89 -111.36l140.07 25.26 -32.18 178.46 -23.68 -4.27 28.41 -157.52 -92.72 -16.72 -28.41 157.53 -23.67 -4.27 32.18 -178.47zm178.61 225.39l49.38 -174.49 23.15 6.56 -49.38 174.48 -23.15 -6.55zm174.18 -133.42l102.67 40.67 -58.96 148.82 15.07 5.97 -23.41 59.1 -19.78 -7.84 15.58 -39.32 -111.62 -44.22 -15.57 39.33 -19.78 -7.83 23.41 -59.1 12.95 5.13c21.78,-15.09 45,-53.78 69.68,-116.06l9.76 -24.65zm72.46 51.59l-58.86 -23.33 -3.43 8.64c-5.69,14.37 -14.77,33.52 -27.23,57.41 -12.42,23.91 -25.64,42.37 -39.53,55.44l77.93 30.88 51.12 -129.04zm121.85 33.04l123.33 71.04 -90.5 157.14 -20.85 -12.01 79.89 -138.71 -81.64 -47.02 -79.89 138.71 -20.85 -12.01 90.51 -157.14zm91.84 265.68l111.79 -142.78 53.92 42.21c9.47,7.41 16.35,13.55 20.67,18.38 6.09,6.65 10.24,13.48 12.44,20.46 2.18,7.01 2.41,14.6 0.69,22.74 -1.71,8.15 -5.36,15.75 -10.9,22.82 -9.47,12.11 -21.37,19.35 -35.67,21.67 -14.29,2.37 -31.57,-4.4 -51.77,-20.22l-36.63 -28.67 -45.59 58.22 -18.95 -14.83zm77.65 -60.15l36.9 28.89c12.23,9.57 22.64,14.08 31.36,13.56 8.68,-0.55 16.24,-4.92 22.72,-13.2 4.66,-5.95 7.17,-12.24 7.47,-18.86 0.31,-6.62 -1.47,-12.57 -5.32,-17.78 -2.54,-3.34 -8.08,-8.38 -16.63,-15.06l-36.52 -28.6 -39.98 51.05zm203.04 54.32l15.75 15.04 -99.17 103.86 168.99 -37.18 17.18 16.4 -125.23 131.15 -15.76 -15.04 98.92 -103.58 -168.55 37.09 -17.37 -16.59 125.24 -131.15zm158.16 285.76l-16.7 13.17 -41.73 -52.89c-15.36,13.31 -24.43,27.65 -27.21,43.08 -2.72,15.42 0.94,29.53 11.03,42.33 17.91,22.7 41.15,27.48 69.69,14.32l9.51 21.85c-37.91,16.57 -69.25,9.15 -94.06,-22.3 -17.73,-22.47 -23.71,-44.9 -17.88,-67.29 5.76,-22.41 19.54,-41.55 41.26,-57.56 12.93,-10.2 26.69,-17.09 41.21,-20.63 14.53,-3.52 29.25,-2.93 44.08,1.77 14.84,4.69 27.77,14.07 38.8,28.05 11.67,14.78 17.77,30.01 18.33,45.71 0.55,15.7 -4.28,30.42 -14.5,44.18l-19.36 -14.72c15.49,-20.99 15.11,-41.77 -1.15,-62.38 -10.96,-13.89 -23.74,-21.5 -38.34,-22.76 -14.6,-1.33 -29.33,3.29 -44.24,13.78l41.26 52.29zm-7.92 166.04l157.06 -90.64 17.97 31.15 -89.74 101.3c-8.37,9.4 -14.68,16.36 -18.93,20.91 6.74,-1.49 16.77,-3.53 30.04,-6.12l131.07 -25.24 16.05 27.82 -157.07 90.64 -11.52 -19.96 131.41 -75.83 -157.86 29.98 -10.8 -18.72 107.64 -122.55 -133.81 77.21 -11.51 -19.95zm115.22 213.06l168.81 -66.22 47.82 121.89 -19.8 7.77 -39.03 -99.5 -51.87 20.35 36.53 93.13 -19.81 7.77 -36.53 -93.13 -57.54 22.57 40.61 103.5 -19.8 7.77 -49.39 -125.9zm248.46 145.37l5.41 23.44 -155.98 35.98 21.18 91.81 155.97 -35.98 5.41 23.45 -155.97 35.98 3.69 16.03 -69.83 16.11 -4.78 -20.73 49.11 -11.33 -30.91 -134 176.7 -40.76zm49.34 231.31l3 23.88 -76.65 9.62 5.38 42.84c2.51,20.03 1.99,34.81 -1.54,44.4 -3.55,9.55 -9.11,16.8 -16.62,21.74 -7.56,4.9 -15.59,7.91 -24.1,8.98 -13.95,1.75 -26.78,-1.45 -38.44,-9.64 -11.69,-8.14 -19.14,-25.13 -22.39,-50.97l-8.57 -68.27 179.93 -22.58zm-156.58 43.91l5.46 43.47c2.21,17.63 6.8,28.71 13.71,33.29 6.91,4.53 14.82,6.26 23.67,5.15 7.15,-0.9 13.03,-3.59 17.56,-8.11 4.55,-4.49 7.16,-10.09 7.82,-16.72 0.66,-6.64 0.04,-17.66 -1.89,-33.07l-4 -31.83 -62.33 7.82z"/>
  <g id="_1725308160">
   <path class="fil1" d="M3390.14 1451.63c6.99,15.56 0.04,33.85 -15.52,40.84 -15.56,6.99 -33.85,0.04 -40.84,-15.52l56.36 -25.32zm-1338.91 -804.62l0 -61.78 0 0 55.63 1.03 55.11 3.08 54.56 5.1 53.97 7.07 53.33 9 52.67 10.91 51.97 12.77 51.22 14.59 50.44 16.39 49.62 18.14 48.76 19.86 47.89 21.54 46.94 23.18 45.98 24.78 44.98 26.36 43.93 27.88 42.88 29.39 41.74 30.85 40.6 32.25 39.42 33.66 38.2 34.99 36.93 36.31 35.65 37.59 34.31 38.83 32.95 40.03 31.54 41.19 30.09 42.32 28.62 43.43 27.11 44.47 25.56 45.5 23.97 46.49 22.34 47.42 -56.36 25.32 -21.4 -45.42 -22.95 -44.51 -24.48 -43.58 -25.97 -42.61 -27.42 -41.59 -28.83 -40.54 -30.22 -39.47 -31.57 -38.35 -32.87 -37.21 -34.15 -36.01 -35.39 -34.79 -36.6 -33.53 -37.76 -32.24 -38.9 -30.91 -40 -29.55 -41.06 -28.15 -42.09 -26.72 -43.08 -25.24 -44.04 -23.74 -44.96 -22.2 -45.85 -20.62 -46.7 -19.02 -47.52 -17.38 -48.3 -15.69 -49.04 -13.97 -49.77 -12.23 -50.43 -10.45 -51.09 -8.62 -51.69 -6.77 -52.28 -4.88 -52.81 -2.96 -53.33 -0.99 0 0zm-1283.86 833.87l-56.44 -25.16 22.27 -47.62 23.9 -46.68 25.49 -45.68 27.06 -44.67 28.58 -43.61 30.07 -42.51 31.51 -41.39 32.94 -40.21 34.3 -39 35.65 -37.77 36.94 -36.47 38.21 -35.17 39.45 -33.82 40.63 -32.42 41.79 -30.99 42.91 -29.53 43.99 -28.03 45.04 -26.49 46.05 -24.9 47.01 -23.3 47.96 -21.65 48.86 -19.97 49.71 -18.23 50.53 -16.48 51.34 -14.68 52.07 -12.84 52.79 -10.96 53.45 -9.05 54.1 -7.11 54.69 -5.13 55.25 -3.09 55.76 -1.04 0 61.78 -53.46 1 -52.95 2.97 -52.39 4.91 -51.82 6.81 -51.19 8.67 -50.55 10.5 -49.87 12.3 -49.14 14.04 -48.39 15.78 -47.61 17.47 -46.78 19.11 -45.92 20.73 -45.03 22.32 -44.11 23.86 -43.14 25.37 -42.13 26.85 -41.11 28.29 -40.03 29.69 -38.93 31.06 -37.79 32.4 -36.61 33.69 -35.4 34.95 -34.15 36.19 -32.88 37.36 -31.54 38.53 -30.19 39.65 -28.81 40.73 -27.38 41.77 -25.92 42.79 -24.43 43.76 -22.88 44.7 -21.33 45.62zm0 0c-6.94,15.58 -25.22,22.58 -40.8,15.64 -15.58,-6.94 -22.58,-25.22 -15.64,-40.8l56.44 25.16z"/>
  </g>
  <g id="_1725302784">
   <path class="fil1" d="M762.75 1493.02c-13.65,0 -24.72,-11.07 -24.72,-24.72 0,-13.65 11.07,-24.72 24.72,-24.72l0 49.44zm1123.36 0l-1123.36 0 0 -49.44 1123.36 0 0 49.44zm0 -49.44c13.65,0 24.72,11.07 24.72,24.72 0,13.65 -11.07,24.72 -24.72,24.72l0 -49.44z"/>
  </g>
  <g id="_1725310624">
   <path class="fil1" d="M1021.05 1369.44c-13.65,0 -24.72,-11.07 -24.72,-24.72 0,-13.65 11.07,-24.72 24.72,-24.72l0 49.44zm1123.35 0l-1123.35 0 0 -49.44 1123.35 0 0 49.44zm0 -49.44c13.65,0 24.72,11.07 24.72,24.72 0,13.65 -11.07,24.72 -24.72,24.72l0 -49.44z"/>
  </g>
  <g id="_1725303680">
   <path class="fil1" d="M1279.35 1245.86c-13.65,0 -24.72,-11.07 -24.72,-24.72 0,-13.65 11.07,-24.72 24.72,-24.72l0 49.44zm1123.35 0l-1123.35 0 0 -49.44 1123.35 0 0 49.44zm0 -49.44c13.65,0 24.72,11.07 24.72,24.72 0,13.65 -11.07,24.72 -24.72,24.72l0 -49.44z"/>
  </g>
  <polygon class="fil0 str2" points="457.44,2577.28 501.72,2641.89 525.52,2624.88 475.43,2564.67 548.83,2543.77 539.13,2517.98 469.13,2542.78 469.13,2468.88 446.24,2468.88 446.24,2542.78 375.33,2516.99 367.04,2545.18 439.44,2564.67 390.84,2624.88 413.65,2641.39 "/>
  <polygon class="fil0 str2" points="3650.72,2593.63 3695.01,2658.24 3718.81,2641.24 3668.72,2581.03 3742.11,2560.13 3732.41,2534.33 3662.41,2559.13 3662.41,2485.24 3639.52,2485.24 3639.52,2559.13 3568.61,2533.34 3560.32,2561.54 3632.72,2581.03 3584.12,2641.24 3606.93,2657.74 "/>
  <path class="fil1" d="M633.82 2737.24l15.01 26.41 -84.25 133.1 152.92 -12.54 14.8 26.03 -195.63 13.27c-24.44,1.67 -41.33,1.26 -50.63,-1.31 -9.31,-2.56 -17.12,-9.36 -23.39,-20.39 -3.84,-6.72 -6.93,-15.89 -9.39,-27.43l22.36 -12.75c-0.02,9.32 2.13,17.9 6.6,25.69 3.63,6.36 8.81,10.71 15.52,13.01 6.72,2.29 18.89,2.06 36.63,-0.64l99.45 -162.45z"/>
  <path id="_1" class="fil1" d="M717.51 2997.32l17.25 21.91 -55.78 43.95c5.46,6.97 10.66,10.82 15.53,11.5 4.88,0.67 15.93,-1.31 33.11,-6.06 13.59,-3.73 23.07,-5.56 28.4,-5.46 5.36,0.14 9.96,1.51 13.88,4.09 3.86,2.59 8.85,7.76 14.91,15.47l3.45 4.33 -18.12 14.28 -4.67 -6.12c-4.56,-5.77 -8.28,-8.83 -11.29,-9.08 -3.13,-0.32 -10.48,1.3 -22.07,4.76 -11.04,3.31 -19.29,4.86 -24.69,4.66 -5.4,-0.19 -11.75,-2.08 -18.96,-5.77 4.89,11.41 3.46,27.56 -4.38,48.42l-21.15 55.51 -18.99 -24.08 21.62 -54.88c4.25,-11.12 6.25,-19.43 6.02,-25.04 -0.27,-5.56 -2.35,-10.84 -6.23,-15.76l-59.74 47.03 -17.25 -21.87 129.15 -101.79z"/>
  <path id="_2" class="fil1" d="M685.57 3315.06l166.27 -155.45 17.33 18.55 -15.62 14.64c10.23,-1.35 19.43,-0.7 27.62,1.96 8.22,2.65 15.97,7.9 23.32,15.73 9.6,10.29 15.44,21.81 17.47,34.59 2.08,12.76 0.17,25.66 -5.74,38.68 -5.87,12.98 -14.53,24.82 -26.05,35.58 -12.26,11.5 -25.38,19.65 -39.39,24.41 -13.95,4.82 -27.5,5.46 -40.6,1.93 -13.15,-3.49 -24,-9.92 -32.72,-19.2 -6.35,-6.76 -10.59,-14.2 -12.75,-22.32 -2.21,-8.06 -2.73,-15.89 -1.56,-23.45l-58.58 54.7 -19 -20.35zm122.74 -80.16c-15.46,14.44 -23.97,28.3 -25.5,41.46 -1.58,13.16 1.83,24.19 10.13,33.09 8.49,9.07 19.58,13.22 33.24,12.53 13.71,-0.69 28.59,-8.57 44.68,-23.58 15.29,-14.34 23.82,-28.19 25.55,-41.61 1.75,-13.43 -1.5,-24.52 -9.7,-33.31 -8.07,-8.63 -19.32,-12.52 -33.67,-11.63 -14.34,0.9 -29.27,8.56 -44.73,23.05z"/>
  <path id="_3" class="fil1" d="M1020.37 3499.23c-13.5,1.14 -25.19,0.4 -35.07,-2.24 -9.89,-2.6 -19.29,-7.08 -28.19,-13.48 -14.71,-10.5 -23.45,-22.18 -26.18,-35.06 -2.79,-12.81 -0.14,-24.82 7.86,-35.99 4.69,-6.54 10.48,-11.49 17.32,-14.78 6.84,-3.25 13.88,-4.8 21.04,-4.66 7.18,0.2 14.43,1.61 21.67,4.24 5.28,2.03 12.83,5.72 22.59,11.06 19.9,10.9 35.26,17.96 46.04,21.14 2.34,-3.06 3.77,-5.01 4.36,-5.85 6.66,-9.23 9.14,-17.32 7.59,-24.14 -2.12,-9.28 -8.9,-17.99 -20.35,-26.19 -10.65,-7.63 -19.89,-11.38 -27.67,-11.32 -7.73,0.12 -16.21,4.05 -25.46,11.84l-20.02 -18.95c8.83,-8.04 17.59,-13.35 26.44,-15.83 8.79,-2.56 18.69,-2.3 29.68,0.83 10.99,3.12 22.23,8.78 33.73,17 11.44,8.2 19.76,16.18 24.96,23.98 5.25,7.81 8.08,14.92 8.52,21.43 0.44,6.45 -0.86,13.27 -3.97,20.46 -2.03,4.43 -6.61,11.66 -13.86,21.78l-21.64 30.21c-15.09,21.09 -24.15,34.81 -27.2,41.09 -3.05,6.28 -4.93,13 -5.77,20.19l-23.67 -17c0.99,-6.35 3.4,-12.96 7.25,-19.76zm34.39 -52c-10.67,-2.55 -25.03,-8.55 -43.19,-17.94 -10.29,-5.35 -18,-8.57 -23.03,-9.65 -5.07,-1.09 -9.83,-0.73 -14.24,0.99 -4.4,1.72 -8.06,4.56 -10.89,8.51 -4.32,6.07 -5.62,12.73 -3.91,20.04 1.66,7.31 6.92,14.11 15.77,20.45 8.71,6.24 17.84,9.88 27.41,10.94 9.52,1.05 18.26,-0.6 26.21,-4.95 6.11,-3.4 12.76,-10.09 19.9,-20.06l5.97 -8.33z"/>
  <path id="_4" class="fil1" d="M1147.13 3604.22l81.12 -143.08 24.24 13.7 -81.1 143.13 -24.26 -13.75zm71.56 -185.59l15.64 -27.58 25.31 14.33 -15.65 27.64 -25.3 -14.39zm50.24 28.51l15.65 -27.64 25.35 14.38 -15.69 27.59 -25.31 -14.33z"/>
  <polygon id="_5" class="fil1" points="1351.27,3529.91 1377.26,3540.08 1352.31,3603.88 1424.33,3632.06 1449.27,3568.26 1475.26,3578.44 1415.25,3731.75 1389.27,3721.58 1415.88,3653.59 1343.86,3625.35 1317.24,3693.34 1291.26,3683.17 "/>
  <path id="_6" class="fil1" d="M1644.78 3782.86c-12.33,5.57 -23.6,8.81 -33.81,9.67 -10.16,0.86 -20.53,-0.24 -31.06,-3.25 -17.42,-4.96 -29.55,-12.99 -36.44,-24.2 -6.94,-11.16 -8.48,-23.33 -4.74,-36.57 2.22,-7.72 6.02,-14.29 11.36,-19.69 5.39,-5.41 11.47,-9.23 18.29,-11.45 6.83,-2.28 14.08,-3.35 21.81,-3.3 5.66,0.1 13.97,1.05 24.98,2.78 22.38,3.63 39.21,5.1 50.48,4.45 1.17,-3.65 1.85,-5.98 2.16,-6.99 3.12,-10.9 2.8,-19.31 -1.02,-25.24 -5.09,-8.04 -14.41,-13.96 -27.96,-17.86 -12.59,-3.59 -22.55,-4.05 -29.79,-1.34 -7.3,2.7 -13.96,9.27 -20.04,19.7l-25.25 -11.09c5.6,-10.53 12.1,-18.48 19.55,-23.83 7.46,-5.35 16.88,-8.43 28.25,-9.18 11.43,-0.8 23.92,0.77 37.53,4.68 13.49,3.84 24.03,8.6 31.55,14.15 7.57,5.6 12.6,11.36 15.2,17.34 2.6,5.98 3.67,12.86 3.14,20.63 -0.42,4.82 -2.31,13.18 -5.74,25.14l-10.18 35.73c-7.12,24.93 -11.08,40.92 -11.81,47.85 -0.79,6.94 -0.31,13.86 1.34,20.9l-28 -7.96c-1.23,-6.4 -1.12,-13.39 0.2,-21.07zm14.86 -60.54c-10.85,1.17 -26.4,0.39 -46.68,-2.4 -11.47,-1.57 -19.79,-1.99 -24.92,-1.35 -5.18,0.69 -9.53,2.6 -13.12,5.73 -3.54,3.12 -6.02,6.99 -7.35,11.65 -2.05,7.15 -1.04,13.91 3.04,20.21 4.03,6.35 11.28,10.99 21.71,13.95 10.33,2.95 20.17,3.32 29.48,1.08 9.36,-2.22 17.03,-6.68 23.05,-13.46 4.6,-5.24 8.62,-13.77 12,-25.62l2.79 -9.79z"/>
  <polygon id="_7" class="fil1" points="2486.32,3626.81 2527.48,3613.05 2610.28,3724.25 2614.05,3584.09 2652.15,3571.36 2704.36,3727.44 2677.92,3736.29 2635.87,3610.62 2631.72,3751.74 2608.09,3759.65 2520.34,3642.55 2564.44,3774.26 2538.53,3782.95 "/>
  <polygon id="_8" class="fil1" points="2828.36,3670.98 2813.73,3642.79 2841.92,3628.16 2856.55,3656.35 "/>
  <path id="_9" class="fil1" d="M2951.13 3339.19l23.56 -18.58 61.57 78.06c10.77,-8.49 16.68,-16.55 17.77,-24.18 1.09,-7.61 -1.21,-22.06 -6.93,-43.31 -4.27,-15.55 -6.68,-27.03 -7.28,-34.39 -0.6,-7.35 0.76,-14.97 4.13,-22.92 3.31,-7.94 8.53,-14.73 15.66,-20.35 9.08,-7.17 13.95,-10.88 14.58,-11.1l16.09 20.44c-0.8,0.64 -2.44,1.86 -4.87,3.61 -2.64,1.97 -4.28,3.19 -4.81,3.61 -7.55,5.95 -11.71,12.2 -12.49,18.71 -0.83,6.62 1.05,17.73 5.64,33.43 5.87,19.83 8.34,33.32 7.3,40.52 -1.05,7.14 -3.52,14.19 -7.41,21.08 14,-5.92 33.69,-4.21 59.11,5.04l83.53 30.44 -29.31 23.08 -67.96 -24.91c-18.7,-6.95 -32.78,-10.71 -42.26,-11.38 -9.42,-0.62 -18.51,2.48 -27.28,9.38l65.77 83.45 -23.61 18.57 -140.5 -178.3z"/>
  <polygon id="_10" class="fil1" points="3177.22,3233.82 3196.45,3213.57 3287.37,3300.01 3249.7,3157.56 3270.4,3135.83 3389.59,3249.13 3370.36,3269.32 3280.02,3183.41 3317.11,3325.32 3296.41,3347.12 "/>
  <path id="_11" class="fil1" d="M3477.12 3143.16l-128.99 -102 17.31 -21.87 128.98 102.01 -17.3 21.86zm-172.44 -99.04l-24.87 -19.68 18.04 -22.82 24.88 19.69 -18.05 22.81zm35.83 -45.31l-24.88 -19.69 18.05 -22.82 24.88 19.69 -18.05 22.82z"/>
  <path id="_12" class="fil1" d="M3428.96 2928.05l31.71 -55.97c7.77,-13.73 14.72,-23.28 20.83,-28.66 6.06,-5.43 13.52,-8.79 22.34,-10.09 8.88,-1.37 17.58,0.39 26.06,5.23 6.85,3.89 12,8.68 15.46,14.37 3.47,5.71 5.29,12.36 5.54,19.93 6.06,-5.48 13.41,-8.68 22.08,-9.62 8.67,-0.94 17.25,0.93 25.69,5.71 13.05,8.62 20.35,19.17 21.94,31.7 1.54,12.54 -2.43,27.16 -11.93,43.98l-36.6 64.56 -143.12 -81.14zm74.02 9.9l14.65 -25.9c5.83,-10.34 9.33,-17.71 10.43,-22.2 1.15,-4.46 0.91,-9.17 -0.65,-14.08 -1.55,-4.92 -4.59,-8.66 -9.2,-11.29 -7.53,-4.25 -14.3,-4.54 -20.27,-0.91 -6.02,3.67 -12.7,11.96 -20,24.9l-15.13 26.68 40.17 22.8zm62.9 35.65l18.13 -31.93c7.77,-13.74 11.54,-24.08 11.24,-31.01 -0.29,-6.93 -4.29,-12.74 -11.93,-17.46 -4.56,-2.58 -9.64,-3.51 -15.25,-2.74 -5.61,0.71 -10.25,3.22 -13.99,7.37 -3.75,4.19 -8.57,11.51 -14.51,22.02l-16.65 29.38 42.96 24.37z"/>
  <path id="_13" class="fil2 str3" d="M633.82 2737.24l15.01 26.41 -84.25 133.1 152.92 -12.54 14.8 26.03 -195.63 13.27c-24.44,1.67 -41.33,1.26 -50.63,-1.31 -9.31,-2.56 -17.12,-9.36 -23.39,-20.39 -3.84,-6.72 -6.93,-15.89 -9.39,-27.43l22.36 -12.75c-0.02,9.32 2.13,17.9 6.6,25.69 3.63,6.36 8.81,10.71 15.52,13.01 6.72,2.29 18.89,2.06 36.63,-0.64l99.45 -162.45z"/>
  <path id="_14" class="fil2 str3" d="M717.51 2997.32l17.25 21.91 -55.78 43.95c5.46,6.97 10.66,10.82 15.53,11.5 4.88,0.67 15.93,-1.31 33.11,-6.06 13.59,-3.73 23.07,-5.56 28.4,-5.46 5.36,0.14 9.96,1.51 13.88,4.09 3.86,2.59 8.85,7.76 14.91,15.47l3.45 4.33 -18.12 14.28 -4.67 -6.12c-4.56,-5.77 -8.28,-8.83 -11.29,-9.08 -3.13,-0.32 -10.48,1.3 -22.07,4.76 -11.04,3.31 -19.29,4.86 -24.69,4.66 -5.4,-0.19 -11.75,-2.08 -18.96,-5.77 4.89,11.41 3.46,27.56 -4.38,48.42l-21.15 55.51 -18.99 -24.08 21.62 -54.88c4.25,-11.12 6.25,-19.43 6.02,-25.04 -0.27,-5.56 -2.35,-10.84 -6.23,-15.76l-59.74 47.03 -17.25 -21.87 129.15 -101.79z"/>
  <path id="_15" class="fil2 str3" d="M685.57 3315.06l166.27 -155.45 17.33 18.55 -15.62 14.64c10.23,-1.35 19.43,-0.7 27.62,1.96 8.22,2.65 15.97,7.9 23.32,15.73 9.6,10.29 15.44,21.81 17.47,34.59 2.08,12.76 0.17,25.66 -5.74,38.68 -5.87,12.98 -14.53,24.82 -26.05,35.58 -12.26,11.5 -25.38,19.65 -39.39,24.41 -13.95,4.82 -27.5,5.46 -40.6,1.93 -13.15,-3.49 -24,-9.92 -32.72,-19.2 -6.35,-6.76 -10.59,-14.2 -12.75,-22.32 -2.21,-8.06 -2.73,-15.89 -1.56,-23.45l-58.58 54.7 -19 -20.35zm122.74 -80.16c-15.46,14.44 -23.97,28.3 -25.5,41.46 -1.58,13.16 1.83,24.19 10.13,33.09 8.49,9.07 19.58,13.22 33.24,12.53 13.71,-0.69 28.59,-8.57 44.68,-23.58 15.29,-14.34 23.82,-28.19 25.55,-41.61 1.75,-13.43 -1.5,-24.52 -9.7,-33.31 -8.07,-8.63 -19.32,-12.52 -33.67,-11.63 -14.34,0.9 -29.27,8.56 -44.73,23.05z"/>
  <path id="_16" class="fil2 str3" d="M1020.37 3499.23c-13.5,1.14 -25.19,0.4 -35.07,-2.24 -9.89,-2.6 -19.29,-7.08 -28.19,-13.48 -14.71,-10.5 -23.45,-22.18 -26.18,-35.06 -2.79,-12.81 -0.14,-24.82 7.86,-35.99 4.69,-6.54 10.48,-11.49 17.32,-14.78 6.84,-3.25 13.88,-4.8 21.04,-4.66 7.18,0.2 14.43,1.61 21.67,4.24 5.28,2.03 12.83,5.72 22.59,11.06 19.9,10.9 35.26,17.96 46.04,21.14 2.34,-3.06 3.77,-5.01 4.36,-5.85 6.66,-9.23 9.14,-17.32 7.59,-24.14 -2.12,-9.28 -8.9,-17.99 -20.35,-26.19 -10.65,-7.63 -19.89,-11.38 -27.67,-11.32 -7.73,0.12 -16.21,4.05 -25.46,11.84l-20.02 -18.95c8.83,-8.04 17.59,-13.35 26.44,-15.83 8.79,-2.56 18.69,-2.3 29.68,0.83 10.99,3.12 22.23,8.78 33.73,17 11.44,8.2 19.76,16.18 24.96,23.98 5.25,7.81 8.08,14.92 8.52,21.43 0.44,6.45 -0.86,13.27 -3.97,20.46 -2.03,4.43 -6.61,11.66 -13.86,21.78l-21.64 30.21c-15.09,21.09 -24.15,34.81 -27.2,41.09 -3.05,6.28 -4.93,13 -5.77,20.19l-23.67 -17c0.99,-6.35 3.4,-12.96 7.25,-19.76zm34.39 -52c-10.67,-2.55 -25.03,-8.55 -43.19,-17.94 -10.29,-5.35 -18,-8.57 -23.03,-9.65 -5.07,-1.09 -9.83,-0.73 -14.24,0.99 -4.4,1.72 -8.06,4.56 -10.89,8.51 -4.32,6.07 -5.62,12.73 -3.91,20.04 1.66,7.31 6.92,14.11 15.77,20.45 8.71,6.24 17.84,9.88 27.41,10.94 9.52,1.05 18.26,-0.6 26.21,-4.95 6.11,-3.4 12.76,-10.09 19.9,-20.06l5.97 -8.33z"/>
  <path id="_17" class="fil2 str3" d="M1147.13 3604.22l81.12 -143.08 24.24 13.7 -81.1 143.13 -24.26 -13.75zm71.56 -185.59l15.64 -27.58 25.31 14.33 -15.65 27.64 -25.3 -14.39zm50.24 28.51l15.65 -27.64 25.35 14.38 -15.69 27.59 -25.31 -14.33z"/>
  <polygon id="_18" class="fil2 str3" points="1351.27,3529.91 1377.26,3540.08 1352.31,3603.88 1424.33,3632.06 1449.27,3568.26 1475.26,3578.44 1415.25,3731.75 1389.27,3721.58 1415.88,3653.59 1343.86,3625.35 1317.24,3693.34 1291.26,3683.17 "/>
  <path id="_19" class="fil2 str3" d="M1644.78 3782.86c-12.33,5.57 -23.6,8.81 -33.81,9.67 -10.16,0.86 -20.53,-0.24 -31.06,-3.25 -17.42,-4.96 -29.55,-12.99 -36.44,-24.2 -6.94,-11.16 -8.48,-23.33 -4.74,-36.57 2.22,-7.72 6.02,-14.29 11.36,-19.69 5.39,-5.41 11.47,-9.23 18.29,-11.45 6.83,-2.28 14.08,-3.35 21.81,-3.3 5.66,0.1 13.97,1.05 24.98,2.78 22.38,3.63 39.21,5.1 50.48,4.45 1.17,-3.65 1.85,-5.98 2.16,-6.99 3.12,-10.9 2.8,-19.31 -1.02,-25.24 -5.09,-8.04 -14.41,-13.96 -27.96,-17.86 -12.59,-3.59 -22.55,-4.05 -29.79,-1.34 -7.3,2.7 -13.96,9.27 -20.04,19.7l-25.25 -11.09c5.6,-10.53 12.1,-18.48 19.55,-23.83 7.46,-5.35 16.88,-8.43 28.25,-9.18 11.43,-0.8 23.92,0.77 37.53,4.68 13.49,3.84 24.03,8.6 31.55,14.15 7.57,5.6 12.6,11.36 15.2,17.34 2.6,5.98 3.67,12.86 3.14,20.63 -0.42,4.82 -2.31,13.18 -5.74,25.14l-10.18 35.73c-7.12,24.93 -11.08,40.92 -11.81,47.85 -0.79,6.94 -0.31,13.86 1.34,20.9l-28 -7.96c-1.23,-6.4 -1.12,-13.39 0.2,-21.07zm14.86 -60.54c-10.85,1.17 -26.4,0.39 -46.68,-2.4 -11.47,-1.57 -19.79,-1.99 -24.92,-1.35 -5.18,0.69 -9.53,2.6 -13.12,5.73 -3.54,3.12 -6.02,6.99 -7.35,11.65 -2.05,7.15 -1.04,13.91 3.04,20.21 4.03,6.35 11.28,10.99 21.71,13.95 10.33,2.95 20.17,3.32 29.48,1.08 9.36,-2.22 17.03,-6.68 23.05,-13.46 4.6,-5.24 8.62,-13.77 12,-25.62l2.79 -9.79z"/>
  <polygon id="_20" class="fil2 str3" points="2486.32,3626.81 2527.48,3613.05 2610.28,3724.25 2614.05,3584.09 2652.15,3571.36 2704.36,3727.44 2677.92,3736.29 2635.87,3610.62 2631.72,3751.74 2608.09,3759.65 2520.34,3642.55 2564.44,3774.26 2538.53,3782.95 "/>
  <polygon id="_21" class="fil2 str3" points="2828.36,3670.98 2813.73,3642.79 2841.92,3628.16 2856.55,3656.35 "/>
  <path id="_22" class="fil2 str3" d="M2951.13 3339.19l23.56 -18.58 61.57 78.06c10.77,-8.49 16.68,-16.55 17.77,-24.18 1.09,-7.61 -1.21,-22.06 -6.93,-43.31 -4.27,-15.55 -6.68,-27.03 -7.28,-34.39 -0.6,-7.35 0.76,-14.97 4.13,-22.92 3.31,-7.94 8.53,-14.73 15.66,-20.35 9.08,-7.17 13.95,-10.88 14.58,-11.1l16.09 20.44c-0.8,0.64 -2.44,1.86 -4.87,3.61 -2.64,1.97 -4.28,3.19 -4.81,3.61 -7.55,5.95 -11.71,12.2 -12.49,18.71 -0.83,6.62 1.05,17.73 5.64,33.43 5.87,19.83 8.34,33.32 7.3,40.52 -1.05,7.14 -3.52,14.19 -7.41,21.08 14,-5.92 33.69,-4.21 59.11,5.04l83.53 30.44 -29.31 23.08 -67.96 -24.91c-18.7,-6.95 -32.78,-10.71 -42.26,-11.38 -9.42,-0.62 -18.51,2.48 -27.28,9.38l65.77 83.45 -23.61 18.57 -140.5 -178.3z"/>
  <polygon id="_23" class="fil2 str3" points="3177.22,3233.82 3196.45,3213.57 3287.37,3300.01 3249.7,3157.56 3270.4,3135.83 3389.59,3249.13 3370.36,3269.32 3280.02,3183.41 3317.11,3325.32 3296.41,3347.12 "/>
  <path id="_24" class="fil2 str3" d="M3477.12 3143.16l-128.99 -102 17.31 -21.87 128.98 102.01 -17.3 21.86zm-172.44 -99.04l-24.87 -19.68 18.04 -22.82 24.88 19.69 -18.05 22.81zm35.83 -45.31l-24.88 -19.69 18.05 -22.82 24.88 19.69 -18.05 22.82z"/>
  <path id="_25" class="fil2 str3" d="M3428.96 2928.05l31.71 -55.97c7.77,-13.73 14.72,-23.28 20.83,-28.66 6.06,-5.43 13.52,-8.79 22.34,-10.09 8.88,-1.37 17.58,0.39 26.06,5.23 6.85,3.89 12,8.68 15.46,14.37 3.47,5.71 5.29,12.36 5.54,19.93 6.06,-5.48 13.41,-8.68 22.08,-9.62 8.67,-0.94 17.25,0.93 25.69,5.71 13.05,8.62 20.35,19.17 21.94,31.7 1.54,12.54 -2.43,27.16 -11.93,43.98l-36.6 64.56 -143.12 -81.14zm74.02 9.9l14.65 -25.9c5.83,-10.34 9.33,-17.71 10.43,-22.2 1.15,-4.46 0.91,-9.17 -0.65,-14.08 -1.55,-4.92 -4.59,-8.66 -9.2,-11.29 -7.53,-4.25 -14.3,-4.54 -20.27,-0.91 -6.02,3.67 -12.7,11.96 -20,24.9l-15.13 26.68 40.17 22.8zm62.9 35.65l18.13 -31.93c7.77,-13.74 11.54,-24.08 11.24,-31.01 -0.29,-6.93 -4.29,-12.74 -11.93,-17.46 -4.56,-2.58 -9.64,-3.51 -15.25,-2.74 -5.61,0.71 -10.25,3.22 -13.99,7.37 -3.75,4.19 -8.57,11.51 -14.51,22.02l-16.65 29.38 42.96 24.37z"/>
  <polygon class="fil1" points="1191.67,1648.63 1392.44,1648.63 1392.44,1932.24 1341.28,1932.24 1341.28,1696.55 1242.83,1696.55 1242.83,1932.24 1191.67,1932.24 "/>
  <path id="_1_0" class="fil1" d="M1453.64 1726.66l45.16 0 0 30.17c5.88,-10.3 13.77,-18.62 23.76,-25.02 9.99,-6.34 21.11,-9.51 33.29,-9.51 21.23,0 39.28,9.38 54.1,28.13 14.82,18.68 22.23,44.82 22.23,78.23 0,34.39 -7.47,61.06 -22.41,80.14 -14.93,19.08 -33.05,28.59 -54.34,28.59 -10.11,0 -19.29,-2.25 -27.52,-6.8 -8.17,-4.49 -16.88,-12.21 -25.94,-23.17l0 102.85 -48.33 0 0 -283.61zm47.63 99.62c0,23.17 4.06,40.27 12.23,51.36 8.12,11.03 18.06,16.57 29.7,16.57 11.23,0 20.59,-5.08 28.05,-15.25 7.47,-10.16 11.18,-26.8 11.18,-49.97 0,-21.66 -3.83,-37.7 -11.53,-48.2 -7.65,-10.49 -17.17,-15.71 -28.52,-15.71 -11.82,0 -21.65,5.15 -29.41,15.45 -7.82,10.3 -11.7,25.55 -11.7,45.75z"/>
  <path id="_2_1" class="fil1" d="M1681.37 1698.93l0 -50.3 48.34 0 0 50.3 -48.34 0zm0 233.31l0 -205.58 48.34 0 0 205.58 -48.34 0z"/>
  <path id="_3_2" class="fil1" d="M1839.24 1848.26l0 -35.25c8.41,0 14.53,-0.59 18.35,-1.85 3.76,-1.25 7.35,-4.22 10.76,-8.98 3.41,-4.75 5.11,-10.16 5.11,-16.3 0,-6.47 -2.11,-12.55 -6.29,-18.03 -4.18,-5.54 -10.46,-8.31 -18.82,-8.31 -6.4,0 -12.17,1.51 -17.23,4.62 -5.06,3.03 -9.65,10.36 -13.76,21.92l-40.93 -9.91c4.11,-17.95 12.99,-31.42 26.53,-40.4 13.52,-8.98 28.98,-13.47 46.27,-13.47 22.06,0 39.11,5.68 51.22,17.1 12.12,11.36 18.17,25.62 18.17,42.85 0,10.76 -2.58,19.6 -7.82,26.67 -5.23,7.06 -13.46,13.6 -24.75,19.67 13.52,4.16 23.64,10.43 30.29,18.82 6.7,8.38 10.05,18.81 10.05,31.36 0,15.97 -6.64,29.77 -19.93,41.32 -13.29,11.56 -32.46,17.3 -57.46,17.3 -43.58,0 -70.22,-19.15 -79.98,-57.44l44.11 -9.11c7.12,20.07 18.87,30.11 35.28,30.11 9.12,0 16.35,-2.71 21.82,-8.06 5.47,-5.34 8.18,-11.62 8.18,-18.88 0,-7.99 -2.83,-14.26 -8.54,-18.88 -5.7,-4.55 -13.16,-6.87 -22.34,-6.87l-8.29 0z"/>
  <path id="_4_3" class="fil1" d="M1976.7 1726.66l106.09 0c21.76,0 37.99,4.42 48.81,13.33 10.83,8.92 16.24,22.38 16.24,40.34 0,11.49 -2.94,21.52 -8.89,30.04 -5.88,8.52 -13.35,14.19 -22.28,17.03 12.58,3.5 21.99,9.97 28.23,19.54 6.17,9.58 9.29,20.01 9.29,31.36 0,15.98 -5.24,28.99 -15.71,38.95 -10.47,9.97 -25.93,14.99 -46.4,14.99l-115.38 0 0 -205.58zm48.34 85.56l31.41 0c15.17,0 26.11,-2.11 32.87,-6.41 6.76,-4.29 10.17,-11.02 10.17,-20.2 0,-8.71 -3.17,-14.85 -9.47,-18.55 -6.29,-3.69 -17.46,-5.54 -33.57,-5.54l-31.41 0 0 50.7zm0 85.16l38.46 0c13.88,0 23.99,-1.85 30.34,-5.61 6.36,-3.76 9.54,-10.43 9.54,-20.13 0,-10.11 -3.65,-17.04 -10.94,-20.8 -7.24,-3.83 -21.41,-5.74 -42.47,-5.74l-24.93 0 0 52.28z"/>
  <polygon id="_5_4" class="fil1" points="2202.62,1726.66 2249.19,1726.66 2249.19,1855.86 2323.64,1726.66 2371.28,1726.66 2371.28,1932.24 2324.7,1932.24 2324.7,1801.19 2249.19,1932.24 2202.62,1932.24 "/>
  <polygon id="_6_5" class="fil1" points="2431,1726.66 2475.46,1726.66 2475.46,1888.27 2531.56,1888.27 2531.56,1726.66 2576.02,1726.66 2576.02,1888.27 2632.83,1888.27 2632.83,1726.66 2677.29,1726.66 2677.29,1888.27 2697.05,1888.27 2697.05,1986.51 2657.89,1986.51 2657.89,1932.24 2431,1932.24 "/>
  <path id="_7_6" class="fil1" d="M2846.09 1867.28l48.35 9.11c-6.18,19.87 -16,34.99 -29.35,45.42 -13.41,10.36 -30.17,15.58 -50.22,15.58 -31.82,0 -55.4,-11.69 -70.63,-35.06 -12.05,-18.75 -18.11,-42.38 -18.11,-70.97 0,-34.06 7.94,-60.8 23.76,-80.08 15.82,-19.34 35.87,-28.98 60.1,-28.98 27.17,0 48.63,10.1 64.39,30.3 15.7,20.21 23.23,51.17 22.52,92.89l-121.02 0c0.35,16.11 4.23,28.65 11.7,37.63 7.41,8.98 16.7,13.47 27.76,13.47 7.58,0 13.94,-2.31 19.06,-6.93 5.16,-4.62 9.05,-12.08 11.69,-22.38zm2.83 -55.06c-0.35,-15.78 -3.94,-27.8 -10.83,-35.98 -6.87,-8.25 -15.22,-12.35 -25.11,-12.35 -10.52,0 -19.22,4.36 -26.11,13.01 -6.87,8.65 -10.22,20.46 -10.11,35.32l72.16 0z"/>
  <polygon id="_8_7" class="fil1" points="585.58,2374.76 585.58,2091.15 636.74,2091.15 636.74,2374.76 "/>
  <polygon id="_9_8" class="fil1" points="697.21,2169.18 757.55,2169.18 802.54,2312.44 848.3,2169.18 908.22,2169.18 908.22,2374.76 866.94,2374.76 866.94,2239.42 822.6,2374.76 781.02,2374.76 738.5,2239.42 738.5,2374.76 697.21,2374.76 "/>
  <path id="_10_9" class="fil1" d="M966.18 2091.15l48.33 0 0 38.88c0,15.71 -1.17,28.19 -3.58,37.23 -2.41,9.11 -7,17.3 -13.71,24.5 -6.7,7.26 -15.23,12.87 -25.52,17.03l-9.41 -22.58c9.71,-3.63 16.59,-8.58 20.71,-14.92 4.05,-6.27 6.22,-14.92 6.46,-25.88l-23.28 0 0 -54.26z"/>
  <path id="_11_10" class="fil1" d="M1233.43 2169.18l0 205.58 -48.35 0 0 -85.16 -4.47 0c-10.47,0 -18.17,1.51 -23.04,4.55 -4.95,3.04 -10.36,9.44 -16.36,19.21l-2.94 4.03 -31.93 57.37 -56.4 0 34.7 -59.48c9.88,-17.04 18.82,-26.81 26.82,-29.38 -13.53,-0.92 -24.53,-6.67 -33,-17.36 -8.41,-10.63 -12.64,-24.23 -12.64,-40.8 0,-13.34 2.83,-24.69 8.41,-34.13 5.59,-9.44 13,-15.85 22.29,-19.28 9.23,-3.43 23.05,-5.15 41.34,-5.15l95.57 0zm-48.35 34.86l-34.76 0c-12.81,0 -21.75,2.04 -26.99,6.14 -5.17,4.09 -7.76,10.82 -7.76,20.26 0,9.51 2.94,16.31 8.82,20.47 5.88,4.16 15.53,6.21 28.88,6.21l31.81 0 0 -53.08z"/>
  <polygon id="_12_11" class="fil1" points="1479.42,2091.15 1680.19,2091.15 1680.19,2374.76 1629.03,2374.76 1629.03,2139.07 1530.58,2139.07 1530.58,2374.76 1479.42,2374.76 "/>
  <path id="_13_12" class="fil1" d="M1731.5 2269.46c0,-18.09 3.94,-35.58 11.88,-52.48 7.94,-16.97 19.17,-29.84 33.7,-38.76 14.53,-8.91 30.69,-13.4 48.64,-13.4 27.69,0 50.33,10.1 68.03,30.3 17.7,20.27 26.52,45.75 26.52,76.65 0,31.16 -8.93,56.98 -26.76,77.44 -17.87,20.47 -40.33,30.7 -67.45,30.7 -16.75,0 -32.75,-4.29 -47.98,-12.81 -15.17,-8.51 -26.76,-20.99 -34.7,-37.5 -7.94,-16.44 -11.88,-36.5 -11.88,-60.14zm49.76 2.91c0,20.4 4.29,36.04 12.87,46.87 8.65,10.89 19.23,16.31 31.88,16.31 12.58,0 23.17,-5.42 31.69,-16.31 8.53,-10.83 12.82,-26.61 12.82,-47.27 0,-20.14 -4.29,-35.65 -12.82,-46.48 -8.52,-10.89 -19.11,-16.3 -31.69,-16.3 -12.65,0 -23.23,5.41 -31.88,16.3 -8.58,10.83 -12.87,26.48 -12.87,46.88z"/>
  <path id="_14_13" class="fil1" d="M2193.97 2084.41l32.82 0c-1.06,16.31 -4.89,28.65 -11.47,37.1 -6.59,8.39 -22.94,12.61 -48.93,12.61 -3.06,0 -6.17,-0.06 -9.29,-0.19l-6.24 0c-15.41,0 -27.93,1.91 -37.57,5.74 -9.65,3.76 -17.58,11.16 -23.7,22.11 -6.18,11.03 -9.36,28.72 -9.59,53.08 7.12,-15.05 16.35,-26.27 27.7,-33.73 11.29,-7.46 24.81,-11.16 40.4,-11.16 24.05,0 44.4,10.5 61.1,31.56 16.64,20.99 25,45.35 25,73.01 0,28.85 -8.77,53.61 -26.29,74.34 -17.58,20.66 -40.46,31.03 -68.75,31.03 -19.47,0 -36.51,-5.22 -51.28,-15.71 -14.7,-10.43 -25.23,-24.76 -31.58,-42.91 -6.29,-18.16 -9.47,-48.2 -9.47,-90.19 0,-49.38 8.12,-84.83 24.29,-106.42 16.18,-21.59 44.4,-32.35 84.69,-32.35l24.52 0c6.82,0 11.35,-2.64 13.64,-7.92zm-97.38 189.21c0,18.82 4.17,33.74 12.46,44.69 8.29,10.96 18.41,16.44 30.4,16.44 12.95,0 23.59,-5.67 31.88,-17.03 8.29,-11.35 12.41,-25.95 12.41,-43.9 0,-18.29 -4.17,-33.01 -12.58,-44.23 -8.41,-11.23 -18.83,-16.84 -31.17,-16.84 -12,0 -22.24,5.55 -30.7,16.57 -8.47,11.03 -12.7,25.81 -12.7,44.3z"/>
  <path id="_15_14" class="fil1" d="M2321.08 2232.56l-43.75 -8.72c4.93,-20.07 13.46,-34.92 25.52,-44.56 12.05,-9.64 29.99,-14.46 53.75,-14.46 21.59,0 37.7,2.84 48.28,8.58 10.53,5.75 18,13.01 22.29,21.86 4.29,8.84 6.47,25.02 6.47,48.65l-0.71 63.38c0,18.02 0.77,31.36 2.29,39.94 1.54,8.58 4.42,17.76 8.65,27.53l-47.98 0c-1.24,-3.56 -2.83,-8.85 -4.65,-15.84 -0.77,-3.24 -1.36,-5.35 -1.71,-6.34 -8.23,9.11 -17.05,15.91 -26.46,20.46 -9.41,4.56 -19.41,6.87 -30.06,6.87 -18.75,0 -33.57,-5.74 -44.39,-17.23 -10.83,-11.42 -16.23,-25.95 -16.23,-43.51 0,-11.55 2.46,-21.92 7.41,-31.03 4.93,-9.04 11.82,-16.04 20.75,-20.86 8.88,-4.82 21.7,-9.04 38.47,-12.67 22.58,-4.76 38.28,-9.25 46.99,-13.34l0 -5.48c0,-10.56 -2.3,-18.09 -6.89,-22.64 -4.64,-4.49 -13.34,-6.74 -26.11,-6.74 -8.64,0 -15.35,1.92 -20.17,5.81 -4.88,3.83 -8.76,10.63 -11.76,20.34zm64.93 43.96c-6.18,2.32 -16,5.09 -29.47,8.32 -13.41,3.24 -22.23,6.41 -26.34,9.44 -6.3,5.09 -9.47,11.42 -9.47,19.15 0,7.66 2.53,14.19 7.58,19.74 5.06,5.54 11.47,8.32 19.29,8.32 8.71,0 17.05,-3.24 25,-9.64 5.82,-4.95 9.7,-10.89 11.52,-18.02 1.24,-4.63 1.89,-13.47 1.89,-26.48l0 -10.83z"/>
  <polygon id="_16_15" class="fil1" points="2470.24,2169.18 2635.73,2169.18 2635.73,2213.15 2577.15,2213.15 2577.15,2374.76 2528.82,2374.76 2528.82,2213.15 2470.24,2213.15 "/>
  <path id="_17_16" class="fil1" d="M2676.74 2169.18l48.35 0 0 85.56 48.57 0c19.06,0 33.64,1.52 43.87,4.62 10.23,3.1 18.7,9.77 25.46,20 6.76,10.24 10.18,22.12 10.18,35.65 0,19.87 -6.06,34.8 -18.18,44.76 -12.11,9.97 -30.22,14.99 -54.45,14.99l-103.8 0 0 -205.58zm48.35 170.72l45.21 0c14.12,0 23.17,-2.57 27.17,-7.66 3.95,-5.15 5.95,-11.22 5.95,-18.28 0,-9.84 -3.42,-16.64 -10.29,-20.4 -6.83,-3.7 -19,-5.55 -36.46,-5.55l-31.58 0 0 51.89z"/>
  <path id="_18_17" class="fil1" d="M2901.24 2169.18l48.35 0 0 83.97c8.05,-1.05 13.76,-3.82 17.11,-8.31 3.29,-4.49 7.35,-14.33 12.06,-29.51 6.23,-20.27 13,-33.15 20.4,-38.82 7.36,-5.68 16.99,-8.52 28.99,-8.52 3.71,0 10.06,0.33 19.17,0.99l0.18 35.85c-12.82,0 -20.99,1.32 -24.52,4.03 -3.59,2.83 -7.47,11.29 -11.58,25.35 -5.65,18.88 -13.83,30.56 -24.41,34.92 15.29,4.75 28.23,19.74 38.81,44.89 0.53,1.32 1.18,2.64 1.88,4.1l27.06 56.64 -52.05 0 -24.11 -59.61c-4.94,-12.02 -9.24,-19.74 -12.88,-23.18 -3.59,-3.43 -9,-5.15 -16.11,-5.15l0 87.94 -48.35 0 0 -205.58z"/>
  <path id="_19_18" class="fil1" d="M3074.8 2269.46c0,-18.09 3.95,-35.58 11.89,-52.48 7.93,-16.97 19.17,-29.84 33.7,-38.76 14.53,-8.91 30.69,-13.4 48.63,-13.4 27.7,0 50.34,10.1 68.04,30.3 17.7,20.27 26.52,45.75 26.52,76.65 0,31.16 -8.93,56.98 -26.76,77.44 -17.87,20.47 -40.33,30.7 -67.45,30.7 -16.75,0 -32.75,-4.29 -47.99,-12.81 -15.17,-8.51 -26.76,-20.99 -34.69,-37.5 -7.94,-16.44 -11.89,-36.5 -11.89,-60.14zm49.76 2.91c0,20.4 4.3,36.04 12.88,46.87 8.65,10.89 19.23,16.31 31.88,16.31 12.58,0 23.17,-5.42 31.69,-16.31 8.53,-10.83 12.82,-26.61 12.82,-47.27 0,-20.14 -4.29,-35.65 -12.82,-46.48 -8.52,-10.89 -19.11,-16.3 -31.69,-16.3 -12.65,0 -23.23,5.41 -31.88,16.3 -8.58,10.83 -12.88,26.48 -12.88,46.88z"/>
  <path id="_20_19" class="fil1" d="M3312.78 2169.18l106.09 0c21.76,0 37.99,4.42 48.81,13.33 10.82,8.92 16.23,22.38 16.23,40.34 0,11.49 -2.94,21.52 -8.88,30.04 -5.88,8.52 -13.35,14.19 -22.29,17.03 12.59,3.5 22,9.97 28.23,19.54 6.17,9.58 9.29,20.01 9.29,31.36 0,15.98 -5.24,28.99 -15.7,38.95 -10.47,9.97 -25.93,14.99 -46.4,14.99l-115.38 0 0 -205.58zm48.33 85.56l31.41 0c15.17,0 26.11,-2.11 32.87,-6.41 6.77,-4.29 10.18,-11.02 10.18,-20.2 0,-8.71 -3.17,-14.85 -9.47,-18.55 -6.29,-3.69 -17.46,-5.54 -33.58,-5.54l-31.41 0 0 50.7zm0 85.16l38.47 0c13.88,0 23.99,-1.85 30.34,-5.61 6.35,-3.76 9.53,-10.43 9.53,-20.13 0,-10.11 -3.64,-17.04 -10.94,-20.8 -7.23,-3.83 -21.4,-5.74 -42.46,-5.74l-24.94 0 0 52.28z"/>
  <path id="_21_20" class="fil1" d="M3540.1 2141.45l0 -50.3 48.35 0 0 50.3 -48.35 0zm0 233.31l0 -205.58 48.35 0 0 205.58 -48.35 0z"/>
  <polygon id="_22_21" class="fil2 str3" points="1191.67,1648.63 1392.44,1648.63 1392.44,1932.24 1341.28,1932.24 1341.28,1696.55 1242.83,1696.55 1242.83,1932.24 1191.67,1932.24 "/>
  <path id="_23_22" class="fil2 str3" d="M1453.64 1726.66l45.16 0 0 30.17c5.88,-10.3 13.77,-18.62 23.76,-25.02 9.99,-6.34 21.11,-9.51 33.29,-9.51 21.23,0 39.28,9.38 54.1,28.13 14.82,18.68 22.23,44.82 22.23,78.23 0,34.39 -7.47,61.06 -22.41,80.14 -14.93,19.08 -33.05,28.59 -54.34,28.59 -10.11,0 -19.29,-2.25 -27.52,-6.8 -8.17,-4.49 -16.88,-12.21 -25.94,-23.17l0 102.85 -48.33 0 0 -283.61zm47.63 99.62c0,23.17 4.06,40.27 12.23,51.36 8.12,11.03 18.06,16.57 29.7,16.57 11.23,0 20.59,-5.08 28.05,-15.25 7.47,-10.16 11.18,-26.8 11.18,-49.97 0,-21.66 -3.83,-37.7 -11.53,-48.2 -7.65,-10.49 -17.17,-15.71 -28.52,-15.71 -11.82,0 -21.65,5.15 -29.41,15.45 -7.82,10.3 -11.7,25.55 -11.7,45.75z"/>
  <path id="_24_23" class="fil2 str3" d="M1681.37 1698.93l0 -50.3 48.34 0 0 50.3 -48.34 0zm0 233.31l0 -205.58 48.34 0 0 205.58 -48.34 0z"/>
  <path id="_25_24" class="fil2 str3" d="M1839.24 1848.26l0 -35.25c8.41,0 14.53,-0.59 18.35,-1.85 3.76,-1.25 7.35,-4.22 10.76,-8.98 3.41,-4.75 5.11,-10.16 5.11,-16.3 0,-6.47 -2.11,-12.55 -6.29,-18.03 -4.18,-5.54 -10.46,-8.31 -18.82,-8.31 -6.4,0 -12.17,1.51 -17.23,4.62 -5.06,3.03 -9.65,10.36 -13.76,21.92l-40.93 -9.91c4.11,-17.95 12.99,-31.42 26.53,-40.4 13.52,-8.98 28.98,-13.47 46.27,-13.47 22.06,0 39.11,5.68 51.22,17.1 12.12,11.36 18.17,25.62 18.17,42.85 0,10.76 -2.58,19.6 -7.82,26.67 -5.23,7.06 -13.46,13.6 -24.75,19.67 13.52,4.16 23.64,10.43 30.29,18.82 6.7,8.38 10.05,18.81 10.05,31.36 0,15.97 -6.64,29.77 -19.93,41.32 -13.29,11.56 -32.46,17.3 -57.46,17.3 -43.58,0 -70.22,-19.15 -79.98,-57.44l44.11 -9.11c7.12,20.07 18.87,30.11 35.28,30.11 9.12,0 16.35,-2.71 21.82,-8.06 5.47,-5.34 8.18,-11.62 8.18,-18.88 0,-7.99 -2.83,-14.26 -8.54,-18.88 -5.7,-4.55 -13.16,-6.87 -22.34,-6.87l-8.29 0z"/>
  <path id="_26" class="fil2 str3" d="M1976.7 1726.66l106.09 0c21.76,0 37.99,4.42 48.81,13.33 10.83,8.92 16.24,22.38 16.24,40.34 0,11.49 -2.94,21.52 -8.89,30.04 -5.88,8.52 -13.35,14.19 -22.28,17.03 12.58,3.5 21.99,9.97 28.23,19.54 6.17,9.58 9.29,20.01 9.29,31.36 0,15.98 -5.24,28.99 -15.71,38.95 -10.47,9.97 -25.93,14.99 -46.4,14.99l-115.38 0 0 -205.58zm48.34 85.56l31.41 0c15.17,0 26.11,-2.11 32.87,-6.41 6.76,-4.29 10.17,-11.02 10.17,-20.2 0,-8.71 -3.17,-14.85 -9.47,-18.55 -6.29,-3.69 -17.46,-5.54 -33.57,-5.54l-31.41 0 0 50.7zm0 85.16l38.46 0c13.88,0 23.99,-1.85 30.34,-5.61 6.36,-3.76 9.54,-10.43 9.54,-20.13 0,-10.11 -3.65,-17.04 -10.94,-20.8 -7.24,-3.83 -21.41,-5.74 -42.47,-5.74l-24.93 0 0 52.28z"/>
  <polygon id="_27" class="fil2 str3" points="2202.62,1726.66 2249.19,1726.66 2249.19,1855.86 2323.64,1726.66 2371.28,1726.66 2371.28,1932.24 2324.7,1932.24 2324.7,1801.19 2249.19,1932.24 2202.62,1932.24 "/>
  <polygon id="_28" class="fil2 str3" points="2431,1726.66 2475.46,1726.66 2475.46,1888.27 2531.56,1888.27 2531.56,1726.66 2576.02,1726.66 2576.02,1888.27 2632.83,1888.27 2632.83,1726.66 2677.29,1726.66 2677.29,1888.27 2697.05,1888.27 2697.05,1986.51 2657.89,1986.51 2657.89,1932.24 2431,1932.24 "/>
  <path id="_29" class="fil2 str3" d="M2846.09 1867.28l48.35 9.11c-6.18,19.87 -16,34.99 -29.35,45.42 -13.41,10.36 -30.17,15.58 -50.22,15.58 -31.82,0 -55.4,-11.69 -70.63,-35.06 -12.05,-18.75 -18.11,-42.38 -18.11,-70.97 0,-34.06 7.94,-60.8 23.76,-80.08 15.82,-19.34 35.87,-28.98 60.1,-28.98 27.17,0 48.63,10.1 64.39,30.3 15.7,20.21 23.23,51.17 22.52,92.89l-121.02 0c0.35,16.11 4.23,28.65 11.7,37.63 7.41,8.98 16.7,13.47 27.76,13.47 7.58,0 13.94,-2.31 19.06,-6.93 5.16,-4.62 9.05,-12.08 11.69,-22.38zm2.83 -55.06c-0.35,-15.78 -3.94,-27.8 -10.83,-35.98 -6.87,-8.25 -15.22,-12.35 -25.11,-12.35 -10.52,0 -19.22,4.36 -26.11,13.01 -6.87,8.65 -10.22,20.46 -10.11,35.32l72.16 0z"/>
  <polygon id="_30" class="fil2 str3" points="585.58,2374.76 585.58,2091.15 636.74,2091.15 636.74,2374.76 "/>
  <polygon id="_31" class="fil2 str3" points="697.21,2169.18 757.55,2169.18 802.54,2312.44 848.3,2169.18 908.22,2169.18 908.22,2374.76 866.94,2374.76 866.94,2239.42 822.6,2374.76 781.02,2374.76 738.5,2239.42 738.5,2374.76 697.21,2374.76 "/>
  <path id="_32" class="fil2 str3" d="M966.18 2091.15l48.33 0 0 38.88c0,15.71 -1.17,28.19 -3.58,37.23 -2.41,9.11 -7,17.3 -13.71,24.5 -6.7,7.26 -15.23,12.87 -25.52,17.03l-9.41 -22.58c9.71,-3.63 16.59,-8.58 20.71,-14.92 4.05,-6.27 6.22,-14.92 6.46,-25.88l-23.28 0 0 -54.26z"/>
  <path id="_33" class="fil2 str3" d="M1233.43 2169.18l0 205.58 -48.35 0 0 -85.16 -4.47 0c-10.47,0 -18.17,1.51 -23.04,4.55 -4.95,3.04 -10.36,9.44 -16.36,19.21l-2.94 4.03 -31.93 57.37 -56.4 0 34.7 -59.48c9.88,-17.04 18.82,-26.81 26.82,-29.38 -13.53,-0.92 -24.53,-6.67 -33,-17.36 -8.41,-10.63 -12.64,-24.23 -12.64,-40.8 0,-13.34 2.83,-24.69 8.41,-34.13 5.59,-9.44 13,-15.85 22.29,-19.28 9.23,-3.43 23.05,-5.15 41.34,-5.15l95.57 0zm-48.35 34.86l-34.76 0c-12.81,0 -21.75,2.04 -26.99,6.14 -5.17,4.09 -7.76,10.82 -7.76,20.26 0,9.51 2.94,16.31 8.82,20.47 5.88,4.16 15.53,6.21 28.88,6.21l31.81 0 0 -53.08z"/>
  <polygon id="_34" class="fil2 str3" points="1479.42,2091.15 1680.19,2091.15 1680.19,2374.76 1629.03,2374.76 1629.03,2139.07 1530.58,2139.07 1530.58,2374.76 1479.42,2374.76 "/>
  <path id="_35" class="fil2 str3" d="M1731.5 2269.46c0,-18.09 3.94,-35.58 11.88,-52.48 7.94,-16.97 19.17,-29.84 33.7,-38.76 14.53,-8.91 30.69,-13.4 48.64,-13.4 27.69,0 50.33,10.1 68.03,30.3 17.7,20.27 26.52,45.75 26.52,76.65 0,31.16 -8.93,56.98 -26.76,77.44 -17.87,20.47 -40.33,30.7 -67.45,30.7 -16.75,0 -32.75,-4.29 -47.98,-12.81 -15.17,-8.51 -26.76,-20.99 -34.7,-37.5 -7.94,-16.44 -11.88,-36.5 -11.88,-60.14zm49.76 2.91c0,20.4 4.29,36.04 12.87,46.87 8.65,10.89 19.23,16.31 31.88,16.31 12.58,0 23.17,-5.42 31.69,-16.31 8.53,-10.83 12.82,-26.61 12.82,-47.27 0,-20.14 -4.29,-35.65 -12.82,-46.48 -8.52,-10.89 -19.11,-16.3 -31.69,-16.3 -12.65,0 -23.23,5.41 -31.88,16.3 -8.58,10.83 -12.87,26.48 -12.87,46.88z"/>
  <path id="_36" class="fil2 str3" d="M2193.97 2084.41l32.82 0c-1.06,16.31 -4.89,28.65 -11.47,37.1 -6.59,8.39 -22.94,12.61 -48.93,12.61 -3.06,0 -6.17,-0.06 -9.29,-0.19l-6.24 0c-15.41,0 -27.93,1.91 -37.57,5.74 -9.65,3.76 -17.58,11.16 -23.7,22.11 -6.18,11.03 -9.36,28.72 -9.59,53.08 7.12,-15.05 16.35,-26.27 27.7,-33.73 11.29,-7.46 24.81,-11.16 40.4,-11.16 24.05,0 44.4,10.5 61.1,31.56 16.64,20.99 25,45.35 25,73.01 0,28.85 -8.77,53.61 -26.29,74.34 -17.58,20.66 -40.46,31.03 -68.75,31.03 -19.47,0 -36.51,-5.22 -51.28,-15.71 -14.7,-10.43 -25.23,-24.76 -31.58,-42.91 -6.29,-18.16 -9.47,-48.2 -9.47,-90.19 0,-49.38 8.12,-84.83 24.29,-106.42 16.18,-21.59 44.4,-32.35 84.69,-32.35l24.52 0c6.82,0 11.35,-2.64 13.64,-7.92zm-97.38 189.21c0,18.82 4.17,33.74 12.46,44.69 8.29,10.96 18.41,16.44 30.4,16.44 12.95,0 23.59,-5.67 31.88,-17.03 8.29,-11.35 12.41,-25.95 12.41,-43.9 0,-18.29 -4.17,-33.01 -12.58,-44.23 -8.41,-11.23 -18.83,-16.84 -31.17,-16.84 -12,0 -22.24,5.55 -30.7,16.57 -8.47,11.03 -12.7,25.81 -12.7,44.3z"/>
  <path id="_37" class="fil2 str3" d="M2321.08 2232.56l-43.75 -8.72c4.93,-20.07 13.46,-34.92 25.52,-44.56 12.05,-9.64 29.99,-14.46 53.75,-14.46 21.59,0 37.7,2.84 48.28,8.58 10.53,5.75 18,13.01 22.29,21.86 4.29,8.84 6.47,25.02 6.47,48.65l-0.71 63.38c0,18.02 0.77,31.36 2.29,39.94 1.54,8.58 4.42,17.76 8.65,27.53l-47.98 0c-1.24,-3.56 -2.83,-8.85 -4.65,-15.84 -0.77,-3.24 -1.36,-5.35 -1.71,-6.34 -8.23,9.11 -17.05,15.91 -26.46,20.46 -9.41,4.56 -19.41,6.87 -30.06,6.87 -18.75,0 -33.57,-5.74 -44.39,-17.23 -10.83,-11.42 -16.23,-25.95 -16.23,-43.51 0,-11.55 2.46,-21.92 7.41,-31.03 4.93,-9.04 11.82,-16.04 20.75,-20.86 8.88,-4.82 21.7,-9.04 38.47,-12.67 22.58,-4.76 38.28,-9.25 46.99,-13.34l0 -5.48c0,-10.56 -2.3,-18.09 -6.89,-22.64 -4.64,-4.49 -13.34,-6.74 -26.11,-6.74 -8.64,0 -15.35,1.92 -20.17,5.81 -4.88,3.83 -8.76,10.63 -11.76,20.34zm64.93 43.96c-6.18,2.32 -16,5.09 -29.47,8.32 -13.41,3.24 -22.23,6.41 -26.34,9.44 -6.3,5.09 -9.47,11.42 -9.47,19.15 0,7.66 2.53,14.19 7.58,19.74 5.06,5.54 11.47,8.32 19.29,8.32 8.71,0 17.05,-3.24 25,-9.64 5.82,-4.95 9.7,-10.89 11.52,-18.02 1.24,-4.63 1.89,-13.47 1.89,-26.48l0 -10.83z"/>
  <polygon id="_38" class="fil2 str3" points="2470.24,2169.18 2635.73,2169.18 2635.73,2213.15 2577.15,2213.15 2577.15,2374.76 2528.82,2374.76 2528.82,2213.15 2470.24,2213.15 "/>
  <path id="_39" class="fil2 str3" d="M2676.74 2169.18l48.35 0 0 85.56 48.57 0c19.06,0 33.64,1.52 43.87,4.62 10.23,3.1 18.7,9.77 25.46,20 6.76,10.24 10.18,22.12 10.18,35.65 0,19.87 -6.06,34.8 -18.18,44.76 -12.11,9.97 -30.22,14.99 -54.45,14.99l-103.8 0 0 -205.58zm48.35 170.72l45.21 0c14.12,0 23.17,-2.57 27.17,-7.66 3.95,-5.15 5.95,-11.22 5.95,-18.28 0,-9.84 -3.42,-16.64 -10.29,-20.4 -6.83,-3.7 -19,-5.55 -36.46,-5.55l-31.58 0 0 51.89z"/>
  <path id="_40" class="fil2 str3" d="M2901.24 2169.18l48.35 0 0 83.97c8.05,-1.05 13.76,-3.82 17.11,-8.31 3.29,-4.49 7.35,-14.33 12.06,-29.51 6.23,-20.27 13,-33.15 20.4,-38.82 7.36,-5.68 16.99,-8.52 28.99,-8.52 3.71,0 10.06,0.33 19.17,0.99l0.18 35.85c-12.82,0 -20.99,1.32 -24.52,4.03 -3.59,2.83 -7.47,11.29 -11.58,25.35 -5.65,18.88 -13.83,30.56 -24.41,34.92 15.29,4.75 28.23,19.74 38.81,44.89 0.53,1.32 1.18,2.64 1.88,4.1l27.06 56.64 -52.05 0 -24.11 -59.61c-4.94,-12.02 -9.24,-19.74 -12.88,-23.18 -3.59,-3.43 -9,-5.15 -16.11,-5.15l0 87.94 -48.35 0 0 -205.58z"/>
  <path id="_41" class="fil2 str3" d="M3074.8 2269.46c0,-18.09 3.95,-35.58 11.89,-52.48 7.93,-16.97 19.17,-29.84 33.7,-38.76 14.53,-8.91 30.69,-13.4 48.63,-13.4 27.7,0 50.34,10.1 68.04,30.3 17.7,20.27 26.52,45.75 26.52,76.65 0,31.16 -8.93,56.98 -26.76,77.44 -17.87,20.47 -40.33,30.7 -67.45,30.7 -16.75,0 -32.75,-4.29 -47.99,-12.81 -15.17,-8.51 -26.76,-20.99 -34.69,-37.5 -7.94,-16.44 -11.89,-36.5 -11.89,-60.14zm49.76 2.91c0,20.4 4.3,36.04 12.88,46.87 8.65,10.89 19.23,16.31 31.88,16.31 12.58,0 23.17,-5.42 31.69,-16.31 8.53,-10.83 12.82,-26.61 12.82,-47.27 0,-20.14 -4.29,-35.65 -12.82,-46.48 -8.52,-10.89 -19.11,-16.3 -31.69,-16.3 -12.65,0 -23.23,5.41 -31.88,16.3 -8.58,10.83 -12.88,26.48 -12.88,46.88z"/>
  <path id="_42" class="fil2 str3" d="M3312.78 2169.18l106.09 0c21.76,0 37.99,4.42 48.81,13.33 10.82,8.92 16.23,22.38 16.23,40.34 0,11.49 -2.94,21.52 -8.88,30.04 -5.88,8.52 -13.35,14.19 -22.29,17.03 12.59,3.5 22,9.97 28.23,19.54 6.17,9.58 9.29,20.01 9.29,31.36 0,15.98 -5.24,28.99 -15.7,38.95 -10.47,9.97 -25.93,14.99 -46.4,14.99l-115.38 0 0 -205.58zm48.33 85.56l31.41 0c15.17,0 26.11,-2.11 32.87,-6.41 6.77,-4.29 10.18,-11.02 10.18,-20.2 0,-8.71 -3.17,-14.85 -9.47,-18.55 -6.29,-3.69 -17.46,-5.54 -33.58,-5.54l-31.41 0 0 50.7zm0 85.16l38.47 0c13.88,0 23.99,-1.85 30.34,-5.61 6.35,-3.76 9.53,-10.43 9.53,-20.13 0,-10.11 -3.64,-17.04 -10.94,-20.8 -7.23,-3.83 -21.4,-5.74 -42.46,-5.74l-24.94 0 0 52.28z"/>
  <path id="_43" class="fil2 str3" d="M3540.1 2141.45l0 -50.3 48.35 0 0 50.3 -48.35 0zm0 233.31l0 -205.58 48.35 0 0 205.58 -48.35 0z"/>
  <polygon class="fil0 str2" points="2065.75,3756.78 2110.03,3821.39 2133.83,3804.38 2083.74,3744.17 2157.14,3723.27 2147.44,3697.48 2077.44,3722.28 2077.44,3648.38 2054.55,3648.38 2054.55,3722.28 1983.64,3696.49 1975.35,3724.68 2047.75,3744.17 1999.15,3804.38 2021.96,3820.89 "/>
  <path class="fil1" d="M1374.98 3099.05c0,-20.87 2.14,-37.74 6.42,-50.5 4.32,-12.8 10.7,-22.64 19.18,-29.51 8.44,-6.87 19.1,-10.29 31.94,-10.29 9.46,0 17.78,1.89 24.98,5.72 7.16,3.83 13.09,9.34 17.7,16.55 4.61,7.16 8.23,15.92 10.86,26.25 2.68,10.33 4,24.29 4,41.78 0,20.74 -2.14,37.53 -6.38,50.29 -4.24,12.8 -10.62,22.64 -19.1,29.55 -8.44,6.92 -19.14,10.37 -32.06,10.37 -17,0 -30.38,-6.05 -40.09,-18.19 -11.65,-14.81 -17.45,-38.81 -17.45,-72.02zm22.23 0.08c0,29.1 3.37,48.44 10.16,57.99 6.79,9.59 15.19,14.36 25.15,14.36 9.96,0 18.35,-4.81 25.15,-14.4 6.79,-9.63 10.16,-28.93 10.16,-57.95 0,-29.1 -3.37,-48.44 -10.16,-57.99 -6.75,-9.59 -15.23,-14.36 -25.4,-14.36 -9.96,0 -17.94,4.24 -23.91,12.67 -7.45,10.74 -11.15,30.66 -11.15,59.68z"/>
  <path id="_1_25" class="fil1" d="M1512.32 3099.05c0,-20.87 2.14,-37.74 6.42,-50.5 4.32,-12.8 10.7,-22.64 19.18,-29.51 8.44,-6.87 19.1,-10.29 31.94,-10.29 9.46,0 17.78,1.89 24.98,5.72 7.16,3.83 13.09,9.34 17.7,16.55 4.61,7.16 8.23,15.92 10.86,26.25 2.68,10.33 4,24.29 4,41.78 0,20.74 -2.14,37.53 -6.38,50.29 -4.24,12.8 -10.62,22.64 -19.1,29.55 -8.44,6.92 -19.14,10.37 -32.06,10.37 -17,0 -30.38,-6.05 -40.09,-18.19 -11.65,-14.81 -17.45,-38.81 -17.45,-72.02zm22.23 0.08c0,29.1 3.37,48.44 10.16,57.99 6.79,9.59 15.19,14.36 25.15,14.36 9.96,0 18.35,-4.81 25.15,-14.4 6.79,-9.63 10.16,-28.93 10.16,-57.95 0,-29.1 -3.37,-48.44 -10.16,-57.99 -6.75,-9.59 -15.23,-14.36 -25.4,-14.36 -9.96,0 -17.94,4.24 -23.91,12.67 -7.45,10.74 -11.15,30.66 -11.15,59.68z"/>
  <path id="_2_26" class="fil1" d="M1649.66 3099.05c0,-20.87 2.14,-37.74 6.42,-50.5 4.32,-12.8 10.7,-22.64 19.18,-29.51 8.44,-6.87 19.1,-10.29 31.94,-10.29 9.46,0 17.78,1.89 24.98,5.72 7.16,3.83 13.09,9.34 17.7,16.55 4.61,7.16 8.23,15.92 10.86,26.25 2.68,10.33 4,24.29 4,41.78 0,20.74 -2.14,37.53 -6.38,50.29 -4.24,12.8 -10.62,22.64 -19.1,29.55 -8.44,6.92 -19.14,10.37 -32.06,10.37 -17,0 -30.38,-6.05 -40.09,-18.19 -11.65,-14.81 -17.45,-38.81 -17.45,-72.02zm22.23 0.08c0,29.1 3.37,48.44 10.16,57.99 6.79,9.59 15.19,14.36 25.15,14.36 9.96,0 18.35,-4.81 25.15,-14.4 6.79,-9.63 10.16,-28.93 10.16,-57.95 0,-29.1 -3.37,-48.44 -10.16,-57.99 -6.75,-9.59 -15.23,-14.36 -25.4,-14.36 -9.96,0 -17.94,4.24 -23.91,12.67 -7.45,10.74 -11.15,30.66 -11.15,59.68z"/>
  <path id="_3_27" class="fil1" d="M1787 3099.05c0,-20.87 2.14,-37.74 6.42,-50.5 4.32,-12.8 10.7,-22.64 19.18,-29.51 8.44,-6.87 19.1,-10.29 31.94,-10.29 9.46,0 17.78,1.89 24.98,5.72 7.16,3.83 13.09,9.34 17.7,16.55 4.61,7.16 8.23,15.92 10.86,26.25 2.68,10.33 4,24.29 4,41.78 0,20.74 -2.14,37.53 -6.38,50.29 -4.24,12.8 -10.62,22.64 -19.1,29.55 -8.44,6.92 -19.14,10.37 -32.06,10.37 -17,0 -30.38,-6.05 -40.09,-18.19 -11.65,-14.81 -17.45,-38.81 -17.45,-72.02zm22.23 0.08c0,29.1 3.37,48.44 10.16,57.99 6.79,9.59 15.19,14.36 25.15,14.36 9.96,0 18.35,-4.81 25.15,-14.4 6.79,-9.63 10.16,-28.93 10.16,-57.95 0,-29.1 -3.37,-48.44 -10.16,-57.99 -6.75,-9.59 -15.23,-14.36 -25.4,-14.36 -9.96,0 -17.94,4.24 -23.91,12.67 -7.45,10.74 -11.15,30.66 -11.15,59.68z"/>
  <path id="_4_28" class="fil1" d="M1924.34 3099.05c0,-20.87 2.14,-37.74 6.42,-50.5 4.32,-12.8 10.7,-22.64 19.18,-29.51 8.44,-6.87 19.1,-10.29 31.94,-10.29 9.46,0 17.78,1.89 24.98,5.72 7.16,3.83 13.09,9.34 17.7,16.55 4.61,7.16 8.23,15.92 10.86,26.25 2.68,10.33 4,24.29 4,41.78 0,20.74 -2.14,37.53 -6.38,50.29 -4.24,12.8 -10.62,22.64 -19.1,29.55 -8.44,6.92 -19.14,10.37 -32.06,10.37 -17,0 -30.38,-6.05 -40.09,-18.19 -11.65,-14.81 -17.45,-38.81 -17.45,-72.02zm22.23 0.08c0,29.1 3.37,48.44 10.16,57.99 6.79,9.59 15.19,14.36 25.15,14.36 9.96,0 18.35,-4.81 25.15,-14.4 6.79,-9.63 10.16,-28.93 10.16,-57.95 0,-29.1 -3.37,-48.44 -10.16,-57.99 -6.75,-9.59 -15.23,-14.36 -25.4,-14.36 -9.96,0 -17.94,4.24 -23.91,12.67 -7.45,10.74 -11.15,30.66 -11.15,59.68z"/>
  <path id="_5_29" class="fil1" d="M2061.68 3099.05c0,-20.87 2.14,-37.74 6.42,-50.5 4.32,-12.8 10.7,-22.64 19.18,-29.51 8.44,-6.87 19.1,-10.29 31.94,-10.29 9.46,0 17.78,1.89 24.98,5.72 7.16,3.83 13.09,9.34 17.7,16.55 4.61,7.16 8.23,15.92 10.86,26.25 2.68,10.33 4,24.29 4,41.78 0,20.74 -2.14,37.53 -6.38,50.29 -4.24,12.8 -10.62,22.64 -19.1,29.55 -8.44,6.92 -19.14,10.37 -32.06,10.37 -17,0 -30.38,-6.05 -40.09,-18.19 -11.65,-14.81 -17.45,-38.81 -17.45,-72.02zm22.23 0.08c0,29.1 3.37,48.44 10.16,57.99 6.79,9.59 15.19,14.36 25.15,14.36 9.96,0 18.35,-4.81 25.15,-14.4 6.79,-9.63 10.16,-28.93 10.16,-57.95 0,-29.1 -3.37,-48.44 -10.16,-57.99 -6.75,-9.59 -15.23,-14.36 -25.4,-14.36 -9.96,0 -17.94,4.24 -23.91,12.67 -7.45,10.74 -11.15,30.66 -11.15,59.68z"/>
  <path id="_6_30" class="fil1" d="M2199.02 3099.05c0,-20.87 2.14,-37.74 6.42,-50.5 4.32,-12.8 10.7,-22.64 19.18,-29.51 8.44,-6.87 19.1,-10.29 31.94,-10.29 9.46,0 17.78,1.89 24.98,5.72 7.16,3.83 13.09,9.34 17.7,16.55 4.61,7.16 8.23,15.92 10.86,26.25 2.68,10.33 4,24.29 4,41.78 0,20.74 -2.14,37.53 -6.38,50.29 -4.24,12.8 -10.62,22.64 -19.1,29.55 -8.44,6.92 -19.14,10.37 -32.06,10.37 -17,0 -30.38,-6.05 -40.09,-18.19 -11.65,-14.81 -17.45,-38.81 -17.45,-72.02zm22.23 0.08c0,29.1 3.37,48.44 10.16,57.99 6.79,9.59 15.19,14.36 25.15,14.36 9.96,0 18.35,-4.81 25.15,-14.4 6.79,-9.63 10.16,-28.93 10.16,-57.95 0,-29.1 -3.37,-48.44 -10.16,-57.99 -6.75,-9.59 -15.23,-14.36 -25.4,-14.36 -9.96,0 -17.94,4.24 -23.91,12.67 -7.45,10.74 -11.15,30.66 -11.15,59.68z"/>
  <path id="_7_31" class="fil1" d="M2336.36 3099.05c0,-20.87 2.14,-37.74 6.42,-50.5 4.32,-12.8 10.7,-22.64 19.18,-29.51 8.44,-6.87 19.1,-10.29 31.94,-10.29 9.46,0 17.78,1.89 24.98,5.72 7.16,3.83 13.09,9.34 17.7,16.55 4.61,7.16 8.23,15.92 10.86,26.25 2.68,10.33 4,24.29 4,41.78 0,20.74 -2.14,37.53 -6.38,50.29 -4.24,12.8 -10.62,22.64 -19.1,29.55 -8.44,6.92 -19.14,10.37 -32.06,10.37 -17,0 -30.38,-6.05 -40.09,-18.19 -11.65,-14.81 -17.45,-38.81 -17.45,-72.02zm22.23 0.08c0,29.1 3.37,48.44 10.16,57.99 6.79,9.59 15.19,14.36 25.15,14.36 9.96,0 18.35,-4.81 25.15,-14.4 6.79,-9.63 10.16,-28.93 10.16,-57.95 0,-29.1 -3.37,-48.44 -10.16,-57.99 -6.75,-9.59 -15.23,-14.36 -25.4,-14.36 -9.96,0 -17.94,4.24 -23.91,12.67 -7.45,10.74 -11.15,30.66 -11.15,59.68z"/>
  <path id="_8_32" class="fil1" d="M2473.7 3099.05c0,-20.87 2.14,-37.74 6.42,-50.5 4.32,-12.8 10.7,-22.64 19.18,-29.51 8.44,-6.87 19.1,-10.29 31.94,-10.29 9.46,0 17.78,1.89 24.98,5.72 7.16,3.83 13.09,9.34 17.7,16.55 4.61,7.16 8.23,15.92 10.86,26.25 2.68,10.33 4,24.29 4,41.78 0,20.74 -2.14,37.53 -6.38,50.29 -4.24,12.8 -10.62,22.64 -19.1,29.55 -8.44,6.92 -19.14,10.37 -32.06,10.37 -17,0 -30.38,-6.05 -40.09,-18.19 -11.65,-14.81 -17.45,-38.81 -17.45,-72.02zm22.23 0.08c0,29.1 3.37,48.44 10.16,57.99 6.79,9.59 15.19,14.36 25.15,14.36 9.96,0 18.35,-4.81 25.15,-14.4 6.79,-9.63 10.16,-28.93 10.16,-57.95 0,-29.1 -3.37,-48.44 -10.16,-57.99 -6.75,-9.59 -15.23,-14.36 -25.4,-14.36 -9.96,0 -17.94,4.24 -23.91,12.67 -7.45,10.74 -11.15,30.66 -11.15,59.68z"/>
  <path id="_9_33" class="fil1" d="M2611.04 3099.05c0,-20.87 2.14,-37.74 6.42,-50.5 4.32,-12.8 10.7,-22.64 19.18,-29.51 8.44,-6.87 19.1,-10.29 31.94,-10.29 9.46,0 17.78,1.89 24.98,5.72 7.16,3.83 13.09,9.34 17.7,16.55 4.61,7.16 8.23,15.92 10.86,26.25 2.68,10.33 4,24.29 4,41.78 0,20.74 -2.14,37.53 -6.38,50.29 -4.24,12.8 -10.62,22.64 -19.1,29.55 -8.44,6.92 -19.14,10.37 -32.06,10.37 -17,0 -30.38,-6.05 -40.09,-18.19 -11.65,-14.81 -17.45,-38.81 -17.45,-72.02zm22.23 0.08c0,29.1 3.37,48.44 10.16,57.99 6.79,9.59 15.19,14.36 25.15,14.36 9.96,0 18.35,-4.81 25.15,-14.4 6.79,-9.63 10.16,-28.93 10.16,-57.95 0,-29.1 -3.37,-48.44 -10.16,-57.99 -6.75,-9.59 -15.23,-14.36 -25.4,-14.36 -9.96,0 -17.94,4.24 -23.91,12.67 -7.45,10.74 -11.15,30.66 -11.15,59.68z"/>
  <path id="_10_34" class="fil2 str4" d="M1374.98 3099.05c0,-20.87 2.14,-37.74 6.42,-50.5 4.32,-12.8 10.7,-22.64 19.18,-29.51 8.44,-6.87 19.1,-10.29 31.94,-10.29 9.46,0 17.78,1.89 24.98,5.72 7.16,3.83 13.09,9.34 17.7,16.55 4.61,7.16 8.23,15.92 10.86,26.25 2.68,10.33 4,24.29 4,41.78 0,20.74 -2.14,37.53 -6.38,50.29 -4.24,12.8 -10.62,22.64 -19.1,29.55 -8.44,6.92 -19.14,10.37 -32.06,10.37 -17,0 -30.38,-6.05 -40.09,-18.19 -11.65,-14.81 -17.45,-38.81 -17.45,-72.02zm22.23 0.08c0,29.1 3.37,48.44 10.16,57.99 6.79,9.59 15.19,14.36 25.15,14.36 9.96,0 18.35,-4.81 25.15,-14.4 6.79,-9.63 10.16,-28.93 10.16,-57.95 0,-29.1 -3.37,-48.44 -10.16,-57.99 -6.75,-9.59 -15.23,-14.36 -25.4,-14.36 -9.96,0 -17.94,4.24 -23.91,12.67 -7.45,10.74 -11.15,30.66 -11.15,59.68z"/>
  <path id="_11_35" class="fil2 str4" d="M1512.32 3099.05c0,-20.87 2.14,-37.74 6.42,-50.5 4.32,-12.8 10.7,-22.64 19.18,-29.51 8.44,-6.87 19.1,-10.29 31.94,-10.29 9.46,0 17.78,1.89 24.98,5.72 7.16,3.83 13.09,9.34 17.7,16.55 4.61,7.16 8.23,15.92 10.86,26.25 2.68,10.33 4,24.29 4,41.78 0,20.74 -2.14,37.53 -6.38,50.29 -4.24,12.8 -10.62,22.64 -19.1,29.55 -8.44,6.92 -19.14,10.37 -32.06,10.37 -17,0 -30.38,-6.05 -40.09,-18.19 -11.65,-14.81 -17.45,-38.81 -17.45,-72.02zm22.23 0.08c0,29.1 3.37,48.44 10.16,57.99 6.79,9.59 15.19,14.36 25.15,14.36 9.96,0 18.35,-4.81 25.15,-14.4 6.79,-9.63 10.16,-28.93 10.16,-57.95 0,-29.1 -3.37,-48.44 -10.16,-57.99 -6.75,-9.59 -15.23,-14.36 -25.4,-14.36 -9.96,0 -17.94,4.24 -23.91,12.67 -7.45,10.74 -11.15,30.66 -11.15,59.68z"/>
  <path id="_12_36" class="fil2 str4" d="M1649.66 3099.05c0,-20.87 2.14,-37.74 6.42,-50.5 4.32,-12.8 10.7,-22.64 19.18,-29.51 8.44,-6.87 19.1,-10.29 31.94,-10.29 9.46,0 17.78,1.89 24.98,5.72 7.16,3.83 13.09,9.34 17.7,16.55 4.61,7.16 8.23,15.92 10.86,26.25 2.68,10.33 4,24.29 4,41.78 0,20.74 -2.14,37.53 -6.38,50.29 -4.24,12.8 -10.62,22.64 -19.1,29.55 -8.44,6.92 -19.14,10.37 -32.06,10.37 -17,0 -30.38,-6.05 -40.09,-18.19 -11.65,-14.81 -17.45,-38.81 -17.45,-72.02zm22.23 0.08c0,29.1 3.37,48.44 10.16,57.99 6.79,9.59 15.19,14.36 25.15,14.36 9.96,0 18.35,-4.81 25.15,-14.4 6.79,-9.63 10.16,-28.93 10.16,-57.95 0,-29.1 -3.37,-48.44 -10.16,-57.99 -6.75,-9.59 -15.23,-14.36 -25.4,-14.36 -9.96,0 -17.94,4.24 -23.91,12.67 -7.45,10.74 -11.15,30.66 -11.15,59.68z"/>
  <path id="_13_37" class="fil2 str4" d="M1787 3099.05c0,-20.87 2.14,-37.74 6.42,-50.5 4.32,-12.8 10.7,-22.64 19.18,-29.51 8.44,-6.87 19.1,-10.29 31.94,-10.29 9.46,0 17.78,1.89 24.98,5.72 7.16,3.83 13.09,9.34 17.7,16.55 4.61,7.16 8.23,15.92 10.86,26.25 2.68,10.33 4,24.29 4,41.78 0,20.74 -2.14,37.53 -6.38,50.29 -4.24,12.8 -10.62,22.64 -19.1,29.55 -8.44,6.92 -19.14,10.37 -32.06,10.37 -17,0 -30.38,-6.05 -40.09,-18.19 -11.65,-14.81 -17.45,-38.81 -17.45,-72.02zm22.23 0.08c0,29.1 3.37,48.44 10.16,57.99 6.79,9.59 15.19,14.36 25.15,14.36 9.96,0 18.35,-4.81 25.15,-14.4 6.79,-9.63 10.16,-28.93 10.16,-57.95 0,-29.1 -3.37,-48.44 -10.16,-57.99 -6.75,-9.59 -15.23,-14.36 -25.4,-14.36 -9.96,0 -17.94,4.24 -23.91,12.67 -7.45,10.74 -11.15,30.66 -11.15,59.68z"/>
  <path id="_14_38" class="fil2 str4" d="M1924.34 3099.05c0,-20.87 2.14,-37.74 6.42,-50.5 4.32,-12.8 10.7,-22.64 19.18,-29.51 8.44,-6.87 19.1,-10.29 31.94,-10.29 9.46,0 17.78,1.89 24.98,5.72 7.16,3.83 13.09,9.34 17.7,16.55 4.61,7.16 8.23,15.92 10.86,26.25 2.68,10.33 4,24.29 4,41.78 0,20.74 -2.14,37.53 -6.38,50.29 -4.24,12.8 -10.62,22.64 -19.1,29.55 -8.44,6.92 -19.14,10.37 -32.06,10.37 -17,0 -30.38,-6.05 -40.09,-18.19 -11.65,-14.81 -17.45,-38.81 -17.45,-72.02zm22.23 0.08c0,29.1 3.37,48.44 10.16,57.99 6.79,9.59 15.19,14.36 25.15,14.36 9.96,0 18.35,-4.81 25.15,-14.4 6.79,-9.63 10.16,-28.93 10.16,-57.95 0,-29.1 -3.37,-48.44 -10.16,-57.99 -6.75,-9.59 -15.23,-14.36 -25.4,-14.36 -9.96,0 -17.94,4.24 -23.91,12.67 -7.45,10.74 -11.15,30.66 -11.15,59.68z"/>
  <path id="_15_39" class="fil2 str4" d="M2061.68 3099.05c0,-20.87 2.14,-37.74 6.42,-50.5 4.32,-12.8 10.7,-22.64 19.18,-29.51 8.44,-6.87 19.1,-10.29 31.94,-10.29 9.46,0 17.78,1.89 24.98,5.72 7.16,3.83 13.09,9.34 17.7,16.55 4.61,7.16 8.23,15.92 10.86,26.25 2.68,10.33 4,24.29 4,41.78 0,20.74 -2.14,37.53 -6.38,50.29 -4.24,12.8 -10.62,22.64 -19.1,29.55 -8.44,6.92 -19.14,10.37 -32.06,10.37 -17,0 -30.38,-6.05 -40.09,-18.19 -11.65,-14.81 -17.45,-38.81 -17.45,-72.02zm22.23 0.08c0,29.1 3.37,48.44 10.16,57.99 6.79,9.59 15.19,14.36 25.15,14.36 9.96,0 18.35,-4.81 25.15,-14.4 6.79,-9.63 10.16,-28.93 10.16,-57.95 0,-29.1 -3.37,-48.44 -10.16,-57.99 -6.75,-9.59 -15.23,-14.36 -25.4,-14.36 -9.96,0 -17.94,4.24 -23.91,12.67 -7.45,10.74 -11.15,30.66 -11.15,59.68z"/>
  <path id="_16_40" class="fil2 str4" d="M2199.02 3099.05c0,-20.87 2.14,-37.74 6.42,-50.5 4.32,-12.8 10.7,-22.64 19.18,-29.51 8.44,-6.87 19.1,-10.29 31.94,-10.29 9.46,0 17.78,1.89 24.98,5.72 7.16,3.83 13.09,9.34 17.7,16.55 4.61,7.16 8.23,15.92 10.86,26.25 2.68,10.33 4,24.29 4,41.78 0,20.74 -2.14,37.53 -6.38,50.29 -4.24,12.8 -10.62,22.64 -19.1,29.55 -8.44,6.92 -19.14,10.37 -32.06,10.37 -17,0 -30.38,-6.05 -40.09,-18.19 -11.65,-14.81 -17.45,-38.81 -17.45,-72.02zm22.23 0.08c0,29.1 3.37,48.44 10.16,57.99 6.79,9.59 15.19,14.36 25.15,14.36 9.96,0 18.35,-4.81 25.15,-14.4 6.79,-9.63 10.16,-28.93 10.16,-57.95 0,-29.1 -3.37,-48.44 -10.16,-57.99 -6.75,-9.59 -15.23,-14.36 -25.4,-14.36 -9.96,0 -17.94,4.24 -23.91,12.67 -7.45,10.74 -11.15,30.66 -11.15,59.68z"/>
  <path id="_17_41" class="fil2 str4" d="M2336.36 3099.05c0,-20.87 2.14,-37.74 6.42,-50.5 4.32,-12.8 10.7,-22.64 19.18,-29.51 8.44,-6.87 19.1,-10.29 31.94,-10.29 9.46,0 17.78,1.89 24.98,5.72 7.16,3.83 13.09,9.34 17.7,16.55 4.61,7.16 8.23,15.92 10.86,26.25 2.68,10.33 4,24.29 4,41.78 0,20.74 -2.14,37.53 -6.38,50.29 -4.24,12.8 -10.62,22.64 -19.1,29.55 -8.44,6.92 -19.14,10.37 -32.06,10.37 -17,0 -30.38,-6.05 -40.09,-18.19 -11.65,-14.81 -17.45,-38.81 -17.45,-72.02zm22.23 0.08c0,29.1 3.37,48.44 10.16,57.99 6.79,9.59 15.19,14.36 25.15,14.36 9.96,0 18.35,-4.81 25.15,-14.4 6.79,-9.63 10.16,-28.93 10.16,-57.95 0,-29.1 -3.37,-48.44 -10.16,-57.99 -6.75,-9.59 -15.23,-14.36 -25.4,-14.36 -9.96,0 -17.94,4.24 -23.91,12.67 -7.45,10.74 -11.15,30.66 -11.15,59.68z"/>
  <path id="_18_42" class="fil2 str4" d="M2473.7 3099.05c0,-20.87 2.14,-37.74 6.42,-50.5 4.32,-12.8 10.7,-22.64 19.18,-29.51 8.44,-6.87 19.1,-10.29 31.94,-10.29 9.46,0 17.78,1.89 24.98,5.72 7.16,3.83 13.09,9.34 17.7,16.55 4.61,7.16 8.23,15.92 10.86,26.25 2.68,10.33 4,24.29 4,41.78 0,20.74 -2.14,37.53 -6.38,50.29 -4.24,12.8 -10.62,22.64 -19.1,29.55 -8.44,6.92 -19.14,10.37 -32.06,10.37 -17,0 -30.38,-6.05 -40.09,-18.19 -11.65,-14.81 -17.45,-38.81 -17.45,-72.02zm22.23 0.08c0,29.1 3.37,48.44 10.16,57.99 6.79,9.59 15.19,14.36 25.15,14.36 9.96,0 18.35,-4.81 25.15,-14.4 6.79,-9.63 10.16,-28.93 10.16,-57.95 0,-29.1 -3.37,-48.44 -10.16,-57.99 -6.75,-9.59 -15.23,-14.36 -25.4,-14.36 -9.96,0 -17.94,4.24 -23.91,12.67 -7.45,10.74 -11.15,30.66 -11.15,59.68z"/>
  <path id="_19_43" class="fil2 str4" d="M2611.04 3099.05c0,-20.87 2.14,-37.74 6.42,-50.5 4.32,-12.8 10.7,-22.64 19.18,-29.51 8.44,-6.87 19.1,-10.29 31.94,-10.29 9.46,0 17.78,1.89 24.98,5.72 7.16,3.83 13.09,9.34 17.7,16.55 4.61,7.16 8.23,15.92 10.86,26.25 2.68,10.33 4,24.29 4,41.78 0,20.74 -2.14,37.53 -6.38,50.29 -4.24,12.8 -10.62,22.64 -19.1,29.55 -8.44,6.92 -19.14,10.37 -32.06,10.37 -17,0 -30.38,-6.05 -40.09,-18.19 -11.65,-14.81 -17.45,-38.81 -17.45,-72.02zm22.23 0.08c0,29.1 3.37,48.44 10.16,57.99 6.79,9.59 15.19,14.36 25.15,14.36 9.96,0 18.35,-4.81 25.15,-14.4 6.79,-9.63 10.16,-28.93 10.16,-57.95 0,-29.1 -3.37,-48.44 -10.16,-57.99 -6.75,-9.59 -15.23,-14.36 -25.4,-14.36 -9.96,0 -17.94,4.24 -23.91,12.67 -7.45,10.74 -11.15,30.66 -11.15,59.68z"/>
 </g>
</svg>
