<?xml version="1.0" encoding="UTF-8"?>
<!DOCTYPE svg PUBLIC "-//W3C//DTD SVG 1.1//EN" "http://www.w3.org/Graphics/SVG/1.1/DTD/svg11.dtd">
<!-- Creator: CorelDRAW 2019 (64-Bit) -->
<svg xmlns="http://www.w3.org/2000/svg" xml:space="preserve" width="41mm" height="41mm" version="1.1" style="shape-rendering:geometricPrecision; text-rendering:geometricPrecision; image-rendering:optimizeQuality; fill-rule:evenodd; clip-rule:evenodd"
viewBox="0 0 4100 4100"
 xmlns:xlink="http://www.w3.org/1999/xlink"
 xmlns:xodm="http://www.corel.com/coreldraw/odm/2003">
 <defs>
  <style type="text/css">
   <![CDATA[
    .str1 {stroke:#393185;stroke-width:75;stroke-miterlimit:22.9256}
    .str0 {stroke:#393185;stroke-width:15;stroke-miterlimit:22.9256}
    .str3 {stroke:#393185;stroke-width:25;stroke-linecap:round;stroke-linejoin:round;stroke-miterlimit:22.9256}
    .str2 {stroke:#393185;stroke-width:10;stroke-linecap:round;stroke-linejoin:round;stroke-miterlimit:22.9256}
    .fil1 {fill:none}
    .fil3 {fill:none;fill-rule:nonzero}
    .fil0 {fill:#393185}
    .fil2 {fill:#393185;fill-rule:nonzero}
   ]]>
  </style>
 </defs>
 <g id="Слой_x0020_1">
  <metadata id="CorelCorpID_0Corel-Layer"/>
  <g id="_1527453390688">
   <path class="fil0 str0" d="M2096.56 105.9l30.7 22.88 30.68 22.87 -30.68 22.88 -30.7 22.87 -30.69 -22.87 -30.68 -22.88 30.68 -22.87 30.69 -22.88zm0 123.9l30.7 22.87 30.68 22.88 -30.68 22.88 -30.7 22.87 -30.69 -22.87 -30.68 -22.88 30.68 -22.88 30.69 -22.87zm-83.69 -61.37l30.68 22.87 30.69 22.88 -30.69 22.87 -30.68 22.88 -30.69 -22.88 -30.68 -22.87 30.68 -22.88 30.69 -22.87zm-85.93 -59.19l32.58 20.11 32.56 20.12 -28.57 25.46 -28.6 25.47 -32.55 -20.12 -32.57 -20.11 28.58 -25.47 28.57 -25.46zm10.81 123.43l32.56 20.11 32.57 20.12 -28.58 25.45 -28.58 25.47 -32.57 -20.11 -32.56 -20.12 28.57 -25.46 28.59 -25.46zm-88.73 -53.84l32.56 20.11 32.56 20.11 -28.57 25.46 -28.57 25.46 -32.57 -20.11 -32.56 -20.11 28.57 -25.47 28.58 -25.45zm-90.76 -51.48l34.21 17.2 34.19 17.2 -26.25 27.85 -26.26 27.87 -34.19 -17.2 -34.2 -17.2 26.26 -27.86 26.24 -27.86zm21.52 122.03l34.2 17.18 34.2 17.2 -26.26 27.86 -26.25 27.86 -34.2 -17.2 -34.19 -17.2 26.25 -27.86 26.25 -27.84zm-93.08 -45.92l34.2 17.2 34.19 17.2 -26.25 27.86 -26.24 27.85 -34.2 -17.2 -34.19 -17.2 26.25 -27.85 26.24 -27.86zm-94.9 -43.37l35.58 14.15 35.56 14.16 -23.72 30.04 -23.73 30.05 -35.57 -14.16 -35.56 -14.15 23.73 -30.04 23.71 -30.05zm32.07 119.69l35.57 14.13 35.57 14.17 -23.73 30.04 -23.72 30.03 -35.58 -14.15 -35.55 -14.15 23.72 -30.04 23.72 -30.03zm-96.72 -37.63l35.56 14.16 35.56 14.15 -23.72 30.04 -23.72 30.03 -35.56 -14.16 -35.56 -14.15 23.72 -30.03 23.72 -30.04zm-98.32 -34.93l36.67 10.99 36.66 11 -21 31.99 -21.04 32.01 -36.65 -11 -36.67 -11 21.02 -31.99 21.01 -32zm42.38 116.44l36.66 10.98 36.67 11 -21.01 31.99 -21.03 32 -36.66 -11 -36.66 -11 21.01 -31.99 21.02 -31.98zm-99.64 -29.06l36.67 11 36.64 11.01 -21 31.99 -21 31.98 -36.67 -11.01 -36.66 -11 21.02 -31.98 21 -31.99zm-100.99 -26.23l37.5 7.76 37.47 7.76 -18.13 33.7 -18.17 33.72 -37.47 -7.77 -37.49 -7.76 18.16 -33.7 18.13 -33.71zm52.37 112.3l37.47 7.74 37.5 7.77 -18.14 33.7 -18.16 33.7 -37.49 -7.76 -37.47 -7.76 18.14 -33.7 18.15 -33.69zm-101.79 -20.27l37.48 7.76 37.47 7.79 -18.13 33.7 -18.14 33.68 -37.49 -7.77 -37.48 -7.76 18.16 -33.69 18.13 -33.71zm-102.9 -17.33l38.03 4.47 38.02 4.47 -15.13 35.15 -15.17 35.17 -38 -4.47 -38.02 -4.46 15.16 -35.16 15.11 -35.17zm61.96 107.32l38.01 4.44 38.04 4.47 -15.14 35.16 -15.16 35.16 -38.02 -4.47 -38.01 -4.46 15.14 -35.15 15.14 -35.15zm-103.17 -11.32l38.03 4.47 38 4.48 -15.13 35.15 -15.13 35.14 -38.03 -4.47 -38.02 -4.47 15.16 -35.14 15.12 -35.16zm-104.01 -8.3l38.27 1.13 38.27 1.15 -12.01 36.33 -12.04 36.36 -38.25 -1.14 -38.26 -1.12 12.03 -36.36 11.99 -36.35zm71.07 101.51l38.26 1.11 38.28 1.15 -12.02 36.34 -12.03 36.34 -38.26 -1.13 -38.27 -1.14 12.02 -36.34 12.02 -36.33zm-103.75 -2.29l38.26 1.15 38.25 1.15 -12 36.33 -12.02 36.32 -38.27 -1.14 -38.26 -1.12 12.03 -36.34 12.01 -36.35zm-104.35 0.8l38.23 -2.2 38.21 -2.2 -8.79 37.24 -8.83 37.28 -38.19 2.19 -38.22 2.22 8.81 -37.26 8.78 -37.27zm79.65 94.93l38.2 -2.22 38.25 -2.2 -8.81 37.26 -8.82 37.25 -38.21 2.2 -38.22 2.21 8.81 -37.25 8.8 -37.25zm-103.56 6.77l38.22 -2.19 38.2 -2.19 -8.79 37.23 -8.81 37.24 -38.21 2.19 -38.22 2.22 8.82 -37.25 8.79 -37.25zm-103.88 9.89l37.89 -5.53 37.88 -5.52 -5.51 37.87 -5.56 37.9 -37.85 5.51 -37.88 5.55 5.54 -37.89 5.49 -37.89zm87.62 87.63l37.87 -5.55 37.91 -5.52 -5.53 37.88 -5.54 37.88 -37.88 5.53 -37.88 5.52 5.54 -37.87 5.51 -37.87zm-102.57 15.77l37.88 -5.53 37.86 -5.5 -5.51 37.86 -5.53 37.86 -37.87 5.51 -37.88 5.55 5.54 -37.88 5.51 -37.87zm-102.62 18.9l37.26 -8.8 37.25 -8.82 -2.19 38.22 -2.23 38.23 -37.22 8.79 -37.25 8.84 2.2 -38.24 2.18 -38.22zm94.92 79.65l37.24 -8.82 37.28 -8.8 -2.21 38.21 -2.21 38.23 -37.25 8.81 -37.26 8.8 2.21 -38.21 2.2 -38.22zm-100.81 24.66l37.25 -8.8 37.24 -8.79 -2.18 38.2 -2.22 38.19 -37.24 8.79 -37.25 8.84 2.21 -38.23 2.19 -38.2zm-100.58 27.77l36.35 -12.02 36.35 -12.02 1.14 38.26 1.11 38.28 -36.31 12 -36.34 12.05 -1.13 -38.28 -1.17 -38.27zm101.5 71.08l36.33 -12.03 36.37 -12.02 1.13 38.26 1.13 38.27 -36.34 12.03 -36.35 12 -1.13 -38.25 -1.14 -38.26zm-98.28 33.34l36.35 -12.01 36.33 -12 1.16 38.25 1.12 38.23 -36.34 12.01 -36.34 12.05 -1.13 -38.27 -1.15 -38.26zm-97.78 36.44l35.17 -15.14 35.16 -15.14 4.47 38.01 4.45 38.04 -35.12 15.11 -35.16 15.18 -4.46 -38.04 -4.51 -38.02zm107.32 61.96l35.14 -15.15 35.19 -15.15 4.45 38.03 4.46 38.02 -35.15 15.14 -35.17 15.14 -4.45 -38.01 -4.47 -38.02zm-95 41.78l35.17 -15.12 35.14 -15.13 4.49 38 4.45 37.99 -35.16 15.13 -35.16 15.17 -4.45 -38.03 -4.48 -38.01zm-94.24 44.82l33.72 -18.14 33.71 -18.16 7.77 37.49 7.75 37.5 -33.69 18.12 -33.7 18.18 -7.76 -37.5 -7.8 -37.49zm112.32 52.37l33.68 -18.15 33.73 -18.15 7.75 37.48 7.76 37.49 -33.69 18.15 -33.72 18.15 -7.74 -37.49 -7.77 -37.48zm-91.01 49.91l33.72 -18.13 33.69 -18.14 7.78 37.47 7.75 37.46 -33.71 18.13 -33.7 18.18 -7.75 -37.5 -7.78 -37.47zm-89.96 52.86l32.01 -21.01 31.99 -21.03 11.01 36.67 10.98 36.69 -31.97 20.98 -31.99 21.04 -11 -36.68 -11.03 -36.66zm116.45 42.38l31.97 -21.02 32.02 -21.02 10.99 36.67 11 36.67 -31.99 21.01 -32.01 21.03 -10.97 -36.68 -11.01 -36.66zm-86.31 57.65l32.01 -21 31.98 -21 11.02 36.65 10.98 36.64 -32 20.99 -31.99 21.06 -10.99 -36.68 -11.01 -36.66zm-85.02 60.51l30.06 -23.73 30.04 -23.73 14.16 35.57 14.15 35.58 -30.03 23.7 -30.03 23.74 -14.16 -35.58 -14.19 -35.55zm119.71 32.07l30.01 -23.74 30.07 -23.73 14.14 35.58 14.15 35.56 -30.02 23.73 -30.06 23.73 -14.14 -35.58 -14.15 -35.55zm-80.96 64.95l30.06 -23.71 30.03 -23.72 14.16 35.55 14.14 35.55 -30.04 23.7 -30.04 23.76 -14.15 -35.57 -14.16 -35.56zm-79.42 67.68l27.87 -26.26 27.85 -26.26 17.21 34.21 17.2 34.21 -27.85 26.22 -27.84 26.27 -17.2 -34.2 -17.24 -34.19zm122.04 21.52l27.83 -26.27 27.89 -26.26 17.19 34.22 17.2 34.19 -27.85 26.25 -27.88 26.26 -17.18 -34.21 -17.2 -34.18zm-74.99 71.76l27.88 -26.24 27.85 -26.25 17.21 34.19 17.19 34.17 -27.87 26.23 -27.86 26.29 -17.19 -34.21 -17.21 -34.18zm-73.22 74.34l25.48 -28.59 25.46 -28.59 20.13 32.58 20.11 32.59 -25.46 28.54 -25.45 28.6 -20.11 -32.58 -20.16 -32.55zm123.46 10.8l25.43 -28.59 25.5 -28.59 20.1 32.58 20.11 32.57 -25.45 28.57 -25.48 28.6 -20.1 -32.58 -20.11 -32.56zm-68.45 78.03l25.48 -28.58 25.46 -28.57 20.13 32.56 20.1 32.54 -25.49 28.56 -25.45 28.61 -20.1 -32.58 -20.13 -32.54zm-66.46 80.44l22.89 -30.71 22.87 -30.69 22.89 30.69 22.87 30.71 -22.87 30.66 -22.86 30.71 -22.87 -30.7 -22.92 -30.67zm123.92 -0.01l22.84 -30.7 22.92 -30.7 22.87 30.71 22.87 30.69 -22.87 30.69 -22.89 30.69 -22.87 -30.69 -22.87 -30.69zm-61.38 83.7l22.89 -30.69 22.88 -30.68 22.88 30.68 22.86 30.66 -22.9 30.68 -22.86 30.72 -22.87 -30.7 -22.88 -30.67zm-59.2 85.93l20.12 -32.59 20.12 -32.57 25.47 28.58 25.47 28.61 -20.13 32.52 -20.08 32.59 -25.47 -28.59 -25.5 -28.55zm123.45 -10.82l20.07 -32.57 20.16 -32.58 25.45 28.61 25.47 28.57 -20.11 32.57 -20.13 32.57 -25.45 -28.59 -25.46 -28.58zm-53.85 88.74l20.13 -32.56 20.11 -32.56 25.47 28.57 25.44 28.54 -20.13 32.56 -20.1 32.61 -25.46 -28.61 -25.46 -28.55zm-51.49 90.76l17.21 -34.22 17.2 -34.2 27.86 26.26 27.87 26.27 -17.21 34.16 -17.17 34.22 -27.87 -26.27 -27.89 -26.22zm122.05 -21.53l17.14 -34.2 17.24 -34.22 27.86 26.29 27.86 26.24 -17.2 34.2 -17.21 34.2 -27.85 -26.26 -27.84 -26.25zm-45.93 93.1l17.22 -34.21 17.2 -34.19 27.87 26.25 27.83 26.21 -17.22 34.19 -17.19 34.24 -27.84 -26.28 -27.87 -26.21zm-43.38 94.89l14.16 -35.58 14.16 -35.58 30.05 23.73 30.05 23.74 -14.18 35.54 -14.11 35.58 -30.05 -23.74 -30.08 -23.69zm119.71 -32.08l14.1 -35.57 14.2 -35.59 30.04 23.76 30.03 23.71 -14.15 35.57 -14.16 35.57 -30.03 -23.73 -30.03 -23.72zm-37.64 96.74l14.18 -35.57 14.15 -35.57 30.05 23.73 30.01 23.68 -14.18 35.56 -14.14 35.61 -30.02 -23.76 -30.05 -23.68zm-34.94 98.31l11 -36.67 11 -36.68 32 21.01 32.01 21.05 -11.02 36.62 -10.96 36.68 -32 -21.03 -32.03 -20.98zm116.46 -42.39l10.95 -36.66 11.03 -36.69 31.99 21.04 32 21.02 -11 36.66 -11.01 36.67 -31.98 -21.02 -31.98 -21.02zm-29.07 99.66l11.02 -36.68 11.01 -36.66 32 21.02 31.96 20.97 -11.03 36.66 -10.99 36.71 -31.97 -21.05 -32 -20.97zm-26.24 100.98l7.77 -37.5 7.76 -37.49 33.71 18.14 33.72 18.18 -7.79 37.44 -7.72 37.5 -33.71 -18.16 -33.74 -18.11zm112.32 -52.38l7.71 -37.47 7.8 -37.52 33.7 18.17 33.7 18.15 -7.76 37.49 -7.77 37.48 -33.69 -18.15 -33.69 -18.15zm-20.27 101.81l7.79 -37.5 7.77 -37.48 33.71 18.15 33.66 18.11 -7.79 37.48 -7.74 37.53 -33.69 -18.19 -33.71 -18.1zm-17.35 102.89l4.48 -38.03 4.47 -38.04 35.16 15.14 35.17 15.18 -4.49 37.98 -4.43 38.02 -35.16 -15.16 -35.2 -15.09zm107.34 -61.97l4.41 -38.01 4.5 -38.06 35.16 15.17 35.16 15.15 -4.47 38.02 -4.47 38.02 -35.14 -15.15 -35.15 -15.14zm-11.31 103.19l4.48 -38.05 4.47 -38.01 35.17 15.15 35.11 15.1 -4.49 38.01 -4.45 38.08 -35.14 -15.19 -35.15 -15.09zm-8.33 104l1.14 -38.27 1.15 -38.29 36.34 12.02 36.37 12.05 -1.17 38.24 -1.09 38.25 -36.36 -12.03 -36.38 -11.97zm101.53 -71.08l1.08 -38.26 1.18 -38.3 36.34 12.05 36.34 12.02 -1.13 38.26 -1.15 38.28 -36.33 -12.03 -36.33 -12.02zm-2.28 103.77l1.16 -38.28 1.14 -38.26 36.35 12.02 36.29 11.99 -1.16 38.26 -1.1 38.31 -36.34 -12.06 -36.34 -11.98zm0.77 104.34l-2.19 -38.23 -2.2 -38.23 37.25 8.8 37.29 8.83 2.16 38.19 2.25 38.21 -37.26 -8.81 -37.3 -8.76zm94.95 -79.66l-2.25 -38.2 -2.17 -38.27 37.26 8.84 37.25 8.81 2.2 38.21 2.2 38.23 -37.24 -8.82 -37.25 -8.8zm6.78 103.57l-2.18 -38.23 -2.2 -38.22 37.26 8.82 37.2 8.78 2.17 38.2 2.25 38.27 -37.26 -8.85 -37.24 -8.77zm9.86 103.89l-5.52 -37.9 -5.52 -37.9 37.88 5.52 37.91 5.55 5.48 37.86 5.58 37.86 -37.89 -5.53 -37.92 -5.46zm87.65 -87.64l-5.58 -37.87 -5.49 -37.93 37.88 5.56 37.88 5.53 5.53 37.88 5.51 37.89 -37.86 -5.55 -37.87 -5.51zm15.78 102.58l-5.52 -37.9 -5.51 -37.87 37.88 5.54 37.83 5.5 5.49 37.87 5.58 37.92 -37.89 -5.57 -37.86 -5.49zm18.87 102.63l-8.79 -37.27 -8.82 -37.27 38.23 2.2 38.24 2.22 8.76 37.23 8.86 37.24 -38.23 -2.2 -38.25 -2.15zm79.67 -94.94l-8.85 -37.23 -8.78 -37.32 38.22 2.25 38.23 2.2 8.81 37.25 8.79 37.27 -38.2 -2.22 -38.22 -2.2zm24.67 100.82l-8.79 -37.28 -8.81 -37.24 38.23 2.21 38.16 2.19 8.77 37.24 8.87 37.29 -38.24 -2.24 -38.19 -2.17zm27.74 100.6l-12.01 -36.37 -12.03 -36.37 38.28 -1.13 38.29 -1.12 11.97 36.32 12.07 36.33 -38.27 1.13 -38.3 1.21zm71.1 -101.53l-12.06 -36.32 -12 -36.4 38.27 -1.1 38.27 -1.14 12.03 36.34 12 36.36 -38.25 1.12 -38.26 1.14zm33.35 98.29l-12 -36.38 -12.02 -36.33 38.28 -1.13 38.2 -1.15 11.99 36.34 12.08 36.37 -38.28 1.11 -38.25 1.17zm36.42 97.8l-15.14 -35.19 -15.16 -35.18 38.04 -4.46 38.05 -4.46 15.08 35.14 15.2 35.14 -38.03 4.46 -38.04 4.55zm61.97 -107.35l-15.18 -35.13 -15.13 -35.22 38.04 -4.42 38.02 -4.47 15.14 35.15 15.14 35.18 -38.01 4.44 -38.02 4.47zm41.79 95.01l-15.11 -35.2 -15.15 -35.14 38.03 -4.46 37.96 -4.48 15.11 35.16 15.2 35.19 -38.04 4.43 -38 4.5zm44.8 94.26l-18.14 -33.74 -18.17 -33.73 37.51 -7.76 37.51 -7.76 18.09 33.7 18.2 33.69 -37.49 7.76 -37.51 7.84zm52.38 -112.35l-18.18 -33.67 -18.13 -33.76 37.49 -7.72 37.49 -7.77 18.15 33.69 18.15 33.73 -37.49 7.73 -37.48 7.77zm49.92 91.01l-18.13 -33.74 -18.15 -33.69 37.5 -7.75 37.43 -7.78 18.11 33.71 18.21 33.73 -37.51 7.73 -37.46 7.79zm52.84 89.99l-21.01 -32.03 -21.05 -32.01 36.7 -11 36.7 -10.99 20.95 31.99 21.06 31.97 -36.67 11 -36.68 11.07zm42.39 -116.48l-21.05 -31.96 -21 -32.05 36.68 -10.96 36.67 -11.01 21.01 31.98 21.03 32.03 -36.68 10.96 -36.66 11.01zm57.66 86.31l-21 -32.03 -21.02 -31.98 36.69 -10.99 36.6 -11.01 20.98 32 21.09 32.02 -36.7 10.97 -36.64 11.02zm60.49 85.05l-23.73 -30.08 -23.76 -30.06 35.61 -14.15 35.59 -14.16 23.67 30.05 23.76 30.01 -35.57 14.16 -35.57 14.23zm32.08 -119.74l-23.77 -30 -23.71 -30.1 35.59 -14.11 35.56 -14.16 23.73 30.02 23.73 30.07 -35.58 14.13 -35.55 14.15zm64.96 80.96l-23.71 -30.08 -23.74 -30.03 35.6 -14.14 35.5 -14.17 23.69 30.05 23.79 30.07 -35.59 14.13 -35.54 14.17zm67.66 79.45l-26.26 -27.89 -26.28 -27.87 34.24 -17.2 34.22 -17.21 26.2 27.87 26.28 27.82 -34.2 17.2 -34.2 17.28zm21.53 -122.07l-26.3 -27.82 -26.24 -27.91 34.23 -17.17 34.19 -17.21 26.25 27.85 26.27 27.89 -34.22 17.17 -34.18 17.2zm71.77 74.99l-26.24 -27.91 -26.27 -27.84 34.23 -17.19 34.13 -17.21 26.22 27.87 26.32 27.89 -34.23 17.17 -34.16 17.22zm74.32 73.25l-28.59 -25.5 -28.61 -25.47 32.61 -20.13 32.6 -20.12 28.52 25.48 28.61 25.43 -32.58 20.11 -32.56 20.2zm10.81 -123.49l-28.62 -25.41 -28.57 -25.53 32.59 -20.08 32.57 -20.12 28.57 25.45 28.61 25.49 -32.59 20.09 -32.56 20.11zm78.04 68.45l-28.58 -25.51 -28.59 -25.45 32.6 -20.11 32.5 -20.11 28.55 25.48 28.64 25.48 -32.6 20.08 -32.52 20.14zm80.42 66.49l-30.71 -22.91 -30.71 -22.88 30.72 -22.89 30.72 -22.88 30.64 22.89 30.71 22.84 -30.69 22.87 -30.68 22.96zm0 -123.95l-30.73 -22.82 -30.68 -22.94 30.72 -22.86 30.69 -22.88 30.69 22.87 30.71 22.9 -30.71 22.86 -30.69 22.87zm83.71 61.38l-30.69 -22.92 -30.7 -22.87 30.73 -22.86 30.61 -22.87 30.67 22.89 30.75 22.89 -30.72 22.85 -30.65 22.89zm85.91 59.23l-32.59 -20.14 -32.59 -20.13 28.61 -25.47 28.61 -25.48 32.51 20.15 32.59 20.06 -28.58 25.46 -28.56 25.55zm-10.81 -123.48l-32.6 -20.06 -32.56 -20.17 28.62 -25.44 28.57 -25.48 32.57 20.11 32.59 20.14 -28.61 25.44 -28.58 25.46zm88.75 53.85l-32.56 -20.16 -32.59 -20.1 28.62 -25.46 28.5 -25.45 32.55 20.13 32.64 20.13 -28.63 25.44 -28.53 25.47zm90.75 51.52l-34.23 -17.23 -34.22 -17.2 26.29 -27.87 26.27 -27.88 34.15 17.23 34.22 17.15 -26.26 27.87 -26.22 27.93zm-21.53 -122.08l-34.23 -17.13 -34.2 -17.26 26.3 -27.84 26.24 -27.87 34.2 17.2 34.22 17.22 -26.28 27.84 -26.25 27.84zm93.11 45.93l-34.21 -17.25 -34.22 -17.19 26.3 -27.86 26.17 -27.83 34.18 17.21 34.27 17.22 -26.3 27.83 -26.19 27.87zm94.88 43.41l-35.59 -14.18 -35.6 -14.16 23.76 -30.06 23.74 -30.06 35.53 14.2 35.58 14.1 -23.73 30.04 -23.69 30.12zm-32.08 -119.74l-35.6 -14.08 -35.57 -14.22 23.77 -30.03 23.71 -30.05 35.57 14.16 35.59 14.16 -23.75 30.03 -23.72 30.03zm96.75 37.64l-35.58 -14.21 -35.59 -14.14 23.77 -30.04 23.65 -30.01 35.55 14.17 35.64 14.16 -23.78 30.02 -23.66 30.05zm98.31 34.97l-36.69 -11.02 -36.7 -11 21.04 -32.01 21.04 -32.03 36.62 11.05 36.68 10.95 -21.02 31.99 -20.97 32.07zm-42.4 -116.49l-36.69 -10.93 -36.67 -11.05 21.05 -31.99 21.02 -32 36.66 11 36.69 11.01 -21.04 31.98 -21.02 31.98zm99.67 29.07l-36.69 -11.05 -36.69 -11 21.07 -31.99 20.94 -31.95 36.65 11.01 36.74 11.01 -21.07 31.97 -20.95 32zm100.98 26.27l-37.52 -7.79 -37.51 -7.76 18.17 -33.72 18.17 -33.73 37.44 7.81 37.5 7.71 -18.15 33.7 -18.1 33.78zm-52.39 -112.35l-37.51 -7.69 -37.49 -7.82 18.18 -33.69 18.15 -33.71 37.49 7.76 37.5 7.77 -18.17 33.69 -18.15 33.69zm101.82 20.26l-37.51 -7.81 -37.51 -7.75 18.2 -33.71 18.08 -33.65 37.47 7.77 37.56 7.76 -18.21 33.69 -18.08 33.7zm102.89 17.38l-38.05 -4.49 -38.06 -4.46 15.17 -35.18 15.16 -35.18 37.99 4.51 38.02 4.42 -15.15 35.15 -15.08 35.23zm-61.98 -107.36l-38.03 -4.39 -38.05 -4.52 15.18 -35.15 15.15 -35.17 38.02 4.47 38.04 4.46 -15.17 35.15 -15.14 35.15zm103.2 11.31l-38.06 -4.51 -38.04 -4.45 15.2 -35.17 15.07 -35.1 38 4.48 38.11 4.46 -15.21 35.14 -15.07 35.15zm104 8.34l-38.29 -1.14 -38.3 -1.14 12.04 -36.36 12.03 -36.37 38.25 1.18 38.25 1.09 -12.02 36.34 -11.96 36.4zm-71.09 -101.54l-38.28 -1.06 -38.29 -1.2 12.06 -36.33 12.02 -36.35 38.26 1.13 38.3 1.14 -12.05 36.34 -12.02 36.33zm103.78 2.28l-38.29 -1.19 -38.29 -1.12 12.07 -36.35 11.96 -36.28 38.25 1.15 38.34 1.11 -12.08 36.34 -11.96 36.34zm104.34 -0.77l-38.25 2.2 -38.24 2.21 8.82 -37.27 8.81 -37.29 38.2 -2.15 38.21 -2.25 -8.8 37.24 -8.75 37.31zm-79.67 -94.96l-38.23 2.28 -38.25 2.15 8.85 -37.25 8.81 -37.26 38.21 -2.2 38.25 -2.21 -8.84 37.25 -8.8 37.24zm103.58 -6.77l-38.24 2.15 -38.25 2.23 8.87 -37.28 8.75 -37.18 38.19 -2.18 38.3 -2.24 -8.87 37.26 -8.75 37.24zm103.89 -9.86l-37.92 5.53 -37.91 5.53 5.54 -37.9 5.54 -37.91 37.87 -5.47 37.85 -5.57 -5.52 37.86 -5.45 37.93zm-87.65 -87.65l-37.88 5.6 -37.93 5.47 5.57 -37.87 5.53 -37.89 37.88 -5.53 37.91 -5.53 -5.57 37.88 -5.51 37.87zm102.59 -15.78l-37.91 5.48 -37.9 5.55 5.58 -37.9 5.48 -37.81 37.86 -5.5 37.95 -5.57 -5.59 37.9 -5.47 37.85zm102.63 -18.87l-37.29 8.8 -37.28 8.83 2.22 -38.25 2.21 -38.24 37.24 -8.75 37.23 -8.85 -2.19 38.2 -2.14 38.26zm-94.95 -79.67l-37.24 8.87 -37.32 8.76 2.26 -38.21 2.2 -38.24 37.25 -8.81 37.29 -8.8 -2.24 38.21 -2.2 38.22zm100.83 -24.67l-37.29 8.76 -37.28 8.83 2.26 -38.24 2.17 -38.14 37.23 -8.78 37.32 -8.86 -2.25 38.25 -2.16 38.18zm100.6 -27.74l-36.39 12.02 -36.38 12.04 -1.11 -38.3 -1.13 -38.29 36.33 -11.96 36.32 -12.06 1.14 38.24 1.22 38.31zm-101.54 -71.1l-36.33 12.08 -36.4 11.98 -1.09 -38.26 -1.14 -38.28 36.34 -12.03 36.38 -12.02 1.1 38.27 1.14 38.26zm98.29 -33.36l-36.38 11.97 -36.36 12.05 -1.09 -38.29 -1.17 -38.18 36.33 -12 36.4 -12.07 1.1 38.29 1.17 38.23zm97.81 -36.41l-35.21 15.15 -35.19 15.16 -4.44 -38.05 -4.47 -38.05 35.15 -15.07 35.13 -15.19 4.47 38 4.56 38.05zm-107.36 -61.97l-35.14 15.2 -35.22 15.11 -4.41 -38.03 -4.47 -38.03 35.15 -15.14 35.2 -15.15 4.42 38.02 4.47 38.02zm95.01 -41.8l-35.2 15.09 -35.17 15.18 -4.42 -38.05 -4.5 -37.94 35.15 -15.12 35.22 -15.19 4.42 38.05 4.5 37.98zm94.27 -44.79l-33.76 18.15 -33.74 18.18 -7.74 -37.53 -7.77 -37.51 33.71 -18.08 33.68 -18.19 7.77 37.46 7.85 37.52zm-112.36 -52.38l-33.68 18.2 -33.76 18.12 -7.71 -37.49 -7.77 -37.5 33.69 -18.15 33.74 -18.16 7.72 37.49 7.77 37.49zm91.01 -49.93l-33.74 18.11 -33.72 18.18 -7.72 -37.52 -7.79 -37.41 33.7 -18.12 33.76 -18.2 7.72 37.52 7.79 37.44zm90 -52.83l-32.05 21.02 -32.02 21.06 -10.98 -36.72 -11 -36.69 32 -20.95 31.96 -21.05 11.01 36.64 11.08 36.69zm-116.49 -42.39l-31.96 21.07 -32.06 20.99 -10.95 -36.68 -11.01 -36.68 31.98 -21.01 32.04 -21.04 10.95 36.69 11.01 36.66zm86.31 -57.67l-32.04 20.98 -32 21.05 -10.97 -36.71 -11.01 -36.58 31.99 -20.99 32.05 -21.08 10.96 36.7 11.02 36.63zm85.06 -60.48l-30.1 23.74 -30.07 23.76 -14.13 -35.62 -14.17 -35.58 30.06 -23.67 30 -23.75 14.17 35.54 14.24 35.58zm-119.75 -32.08l-30 23.79 -30.11 23.7 -14.1 -35.59 -14.16 -35.57 30.02 -23.73 30.08 -23.74 14.12 35.59 14.15 35.55zm80.96 -64.97l-30.09 23.7 -30.05 23.76 -14.12 -35.62 -14.17 -35.48 30.04 -23.69 30.1 -23.8 14.12 35.6 14.17 35.53zm79.46 -67.66l-27.91 26.28 -27.88 26.29 -17.18 -34.26 -17.22 -34.21 27.88 -26.2 27.81 -26.27 17.21 34.17 17.29 34.2zm-122.08 -21.52l-27.82 26.32 -27.92 26.23 -17.16 -34.23 -17.21 -34.2 27.85 -26.25 27.9 -26.28 17.16 34.22 17.2 34.19zm74.99 -71.78l-27.92 26.23 -27.86 26.29 -17.17 -34.25 -17.21 -34.11 27.86 -26.22 27.92 -26.33 17.16 34.24 17.22 34.15zm73.26 -74.32l-25.52 28.61 -25.48 28.62 -20.11 -32.63 -20.13 -32.59 25.49 -28.52 25.42 -28.6 20.12 32.55 20.21 32.56zm-123.5 -10.8l-25.41 28.64 -25.54 28.56 -20.07 -32.59 -20.12 -32.58 25.45 -28.57 25.5 -28.62 20.08 32.6 20.11 32.56zm68.45 -78.05l-25.53 28.57 -25.46 28.62 -20.09 -32.63 -20.11 -32.48 25.47 -28.55 25.51 -28.65 20.07 32.61 20.14 32.51zm66.5 -80.42l-22.93 30.73 -22.89 30.73 -22.87 -30.75 -22.89 -30.71 22.9 -30.64 22.84 -30.7 22.87 30.66 22.97 30.68zm-123.96 0.01l-22.82 30.75 -22.95 30.67 -22.85 -30.72 -22.88 -30.7 22.87 -30.69 22.9 -30.72 22.86 30.72 22.87 30.69zm61.38 -83.72l-22.94 30.68 -22.88 30.73 -22.84 -30.76 -22.87 -30.59 22.88 -30.67 22.92 -30.76 22.84 30.73 22.89 30.64zm59.24 -85.91l-20.16 32.61 -20.14 32.61 -25.45 -28.64 -25.49 -28.6 20.16 -32.51 20.07 -32.58 25.45 28.55 25.56 28.56zm-123.49 10.82l-20.06 32.62 -20.18 32.55 -25.43 -28.62 -25.48 -28.58 20.11 -32.57 20.14 -32.6 25.44 28.61 25.46 28.59zm53.85 -88.76l-20.18 32.56 -20.11 32.61 -25.44 -28.65 -25.45 -28.48 20.12 -32.55 20.16 -32.65 25.43 28.64 25.47 28.52zm51.53 -90.75l-17.25 34.25 -17.21 34.24 -27.85 -26.32 -27.89 -26.26 17.24 -34.15 17.16 -34.21 27.85 26.23 27.95 26.22zm-122.09 21.54l-17.13 34.25 -17.27 34.19 -27.83 -26.3 -27.87 -26.25 17.2 -34.2 17.22 -34.23 27.84 26.29 27.84 26.25zm45.93 -93.12l-17.27 34.21 -17.2 34.24 -27.84 -26.33 -27.83 -26.15 17.2 -34.18 17.24 -34.29 27.83 26.32 27.87 26.18zm43.42 -94.88l-14.2 35.61 -14.17 35.62 -30.04 -23.79 -30.07 -23.73 14.21 -35.53 14.11 -35.57 30.02 23.7 30.14 23.69zm-119.75 32.09l-14.08 35.62 -14.23 35.56 -30.02 -23.77 -30.05 -23.72 14.16 -35.58 14.16 -35.59 30.03 23.76 30.03 23.72zm37.64 -96.76l-14.23 35.58 -14.15 35.61 -30.02 -23.8 -30.01 -23.63 14.16 -35.55 14.18 -35.66 30.02 23.79 30.05 23.66zm34.98 -98.31l-11.04 36.71 -11.01 36.72 -31.99 -21.07 -32.04 -21.03 11.06 -36.62 10.96 -36.68 31.97 20.99 32.09 20.98zm-116.5 42.41l-10.93 36.71 -11.06 36.66 -31.98 -21.05 -32 -21.03 11 -36.66 11.01 -36.7 31.98 21.05 31.98 21.02zm29.07 -99.68l-11.07 36.69 -11 36.71 -31.98 -21.1 -31.95 -20.92 11 -36.65 11.02 -36.76 31.98 21.09 32 20.94zm26.28 -100.98l-7.81 37.54 -7.77 37.53 -33.7 -18.2 -33.74 -18.16 7.82 -37.44 7.72 -37.5 33.68 18.13 33.8 18.1zm-112.36 52.4l-7.69 37.52 -7.83 37.49 -33.68 -18.18 -33.71 -18.16 7.76 -37.49 7.76 -37.51 33.7 18.18 33.69 18.15zm20.26 -101.83l-7.83 37.51 -7.75 37.53 -33.7 -18.23 -33.65 -18.06 7.76 -37.47 7.77 -37.58 33.7 18.23 33.7 18.07zm17.39 -102.89l-4.51 38.07 -4.47 38.08 -35.16 -15.2 -35.19 -15.15 4.53 -37.99 4.42 -38.02 35.13 15.13 35.25 15.08zm-107.37 61.99l-4.39 38.05 -4.53 38.04 -35.14 -15.18 -35.17 -15.16 4.47 -38.02 4.45 -38.05 35.16 15.18 35.15 15.14zm11.31 -103.21l-4.53 38.06 -4.45 38.06 -35.16 -15.23 -35.1 -15.05 4.47 -38.01 4.47 -38.12 35.15 15.23 35.15 15.06zm8.35 -104l-1.17 38.31 -1.13 38.33 -36.35 -12.08 -36.38 -12.02 1.2 -38.25 1.09 -38.26 36.32 12.01 36.42 11.96zm-101.55 71.1l-1.06 38.3 -1.2 38.28 -36.33 -12.06 -36.35 -12.03 1.13 -38.26 1.13 -38.3 36.35 12.05 36.33 12.02zm2.27 -103.79l-1.2 38.3 -1.12 38.31 -36.34 -12.11 -36.28 -11.94 1.14 -38.25 1.12 -38.36 36.35 12.1 36.33 11.95zm-0.75 -104.34l2.18 38.27 2.21 38.27 -37.26 -8.86 -37.3 -8.8 -2.13 -38.2 -2.25 -38.22 37.22 8.79 37.33 8.75zm-94.97 79.68l2.28 38.24 2.16 38.25 -37.26 -8.85 -37.26 -8.82 -2.2 -38.21 -2.22 -38.25 37.26 8.84 37.24 8.8zm-6.78 -103.59l2.14 38.25 2.23 38.27 -37.27 -8.91 -37.18 -8.73 -2.19 -38.19 -2.23 -38.32 37.27 8.89 37.23 8.74zm-9.84 -103.89l5.51 37.94 5.53 37.94 -37.89 -5.58 -37.92 -5.52 -5.45 -37.88 -5.57 -37.87 37.84 5.52 37.95 5.45zm-87.66 87.66l5.6 37.9 5.48 37.91 -37.88 -5.56 -37.89 -5.54 -5.53 -37.88 -5.54 -37.91 37.89 5.57 37.87 5.51zm-15.79 -102.6l5.47 37.92 5.55 37.92 -37.89 -5.62 -37.81 -5.46 -5.51 -37.85 -5.56 -37.98 37.91 5.61 37.84 5.46zm-18.85 -102.63l8.78 37.31 8.83 37.31 -38.24 -2.26 -38.25 -2.19 -8.73 -37.26 -8.85 -37.23 38.18 2.19 38.28 2.13zm-79.68 94.96l8.87 37.26 8.77 37.3 -38.22 -2.25 -38.24 -2.21 -8.81 -37.25 -8.81 -37.28 38.22 2.23 38.22 2.2zm-24.68 -100.84l8.75 37.3 8.83 37.29 -38.23 -2.29 -38.14 -2.15 -8.79 -37.22 -8.85 -37.35 38.26 2.27 38.17 2.15zm-27.72 -100.6l12 36.41 12.04 36.41 -38.29 1.07 -38.3 1.15 -11.94 -36.36 -12.06 -36.31 38.22 -1.14 38.33 -1.23zm-71.11 101.55l12.08 36.35 11.99 36.38 -38.27 1.1 -38.28 1.13 -12.03 -36.34 -12.03 -36.37 38.28 -1.11 38.26 -1.14zm-33.37 -98.3l11.96 36.39 12.05 36.38 -38.28 1.05 -38.18 1.19 -12 -36.32 -12.07 -36.44 38.3 -1.07 38.22 -1.18zm-36.39 -97.81l15.13 35.23 15.16 35.22 -38.04 4.4 -38.06 4.49 -15.05 -35.18 -15.19 -35.12 37.98 -4.47 38.07 -4.57zm-61.98 107.37l15.2 35.16 15.12 35.2 -38.04 4.42 -38.03 4.46 -15.14 -35.15 -15.16 -35.19 38.03 -4.43 38.02 -4.47zm-41.81 -95.02l15.09 35.21 15.17 35.19 -38.04 4.37 -37.94 4.53 -15.12 -35.14 -15.19 -35.25 38.06 -4.4 37.97 -4.51zm-44.77 -94.27l18.13 33.78 18.18 33.77 -37.52 7.7 -37.52 7.79 -18.06 -33.75 -18.19 -33.66 37.44 -7.76 37.54 -7.87zm-52.39 112.37l18.2 33.7 18.13 33.74 -37.5 7.72 -37.5 7.76 -18.15 -33.69 -18.17 -33.73 37.5 -7.73 37.49 -7.77zm-49.94 -91.02l18.11 33.75 18.17 33.75 -37.51 7.67 -37.41 7.81 -18.12 -33.69 -18.21 -33.79 37.54 -7.7 37.43 -7.8zm-52.81 -90l21 32.07 21.06 32.05 -36.71 10.94 -36.7 11.02 -20.93 -32.03 -21.05 -31.95 36.62 -11 36.71 -11.1zm-42.4 116.5l21.07 31.98 21 32.04 -36.69 10.96 -36.68 11 -21.01 -31.99 -21.05 -32.02 36.7 -10.96 36.66 -11.01zm-57.68 -86.32l20.98 32.05 21.04 32.03 -36.7 10.92 -36.58 11.03 -20.99 -31.98 -21.09 -32.08 36.72 -10.94 36.62 -11.03zm-60.46 -85.06l23.72 30.12 23.76 30.1 -35.61 14.09 -35.59 14.19 -23.65 -30.09 -23.75 -29.99 35.52 -14.16 35.6 -14.26zm-32.09 119.76l23.79 30.02 23.71 30.09 -35.6 14.11 -35.57 14.15 -23.73 -30.02 -23.76 -30.07 35.61 -14.13 35.55 -14.15zm-64.98 -80.97l23.7 30.1 23.76 30.08 -35.63 14.07 -35.47 14.19 -23.69 -30.03 -23.81 -30.13 35.62 -14.1 35.52 -14.18zm-67.64 -79.46l26.26 27.93 26.29 27.91 -34.25 17.14 -34.21 17.24 -26.19 -27.91 -26.27 -27.8 34.15 -17.2 34.22 -17.31zm-21.53 122.09l26.32 27.84 26.24 27.9 -34.24 17.17 -34.2 17.2 -26.25 -27.85 -26.29 -27.89 34.23 -17.17 34.19 -17.2zm-71.79 -75l26.23 27.93 26.3 27.89 -34.27 17.12 -34.1 17.23 -26.22 -27.85 -26.35 -27.94 34.27 -17.15 34.14 -17.23zm-74.3 -73.26l28.59 25.54 28.62 25.51 -32.62 20.07 -32.59 20.15 -28.51 -25.52 -28.6 -25.41 32.53 -20.11 32.58 -20.23zm-10.81 123.51l28.64 25.43 28.57 25.52 -32.6 20.08 -32.58 20.11 -28.57 -25.45 -28.63 -25.49 32.61 -20.09 32.56 -20.11zm-78.06 -68.46l28.57 25.54 28.63 25.49 -32.65 20.04 -32.47 20.14 -28.55 -25.47 -28.67 -25.53 32.64 -20.06 32.5 -20.15z"/>
   <circle class="fil1 str1" cx="2050" cy="2050" r="2000"/>
   <circle class="fil1 str1" cx="2050" cy="2050" r="1671.15"/>
  </g>
  <polygon class="fil2" points="1132.91,1346.58 1338.27,1346.58 1338.27,1609.18 1285.93,1609.18 1285.93,1390.96 1185.24,1390.96 1185.24,1609.18 1132.91,1609.18 "/>
  <path id="_1" class="fil2" d="M1400.86 1418.83l46.19 0 0 27.94c6.03,-9.54 14.09,-17.24 24.31,-23.17 10.23,-5.87 21.59,-8.8 34.05,-8.8 21.71,0 40.18,8.68 55.34,26.04 15.16,17.3 22.74,41.5 22.74,72.43 0,31.85 -7.64,56.54 -22.92,74.21 -15.28,17.67 -33.8,26.47 -55.58,26.47 -10.34,0 -19.73,-2.08 -28.16,-6.3 -8.35,-4.15 -17.26,-11.31 -26.52,-21.45l0 95.23 -49.45 0 0 -262.6zm48.72 92.24c0,21.46 4.16,37.29 12.52,47.56 8.3,10.21 18.46,15.34 30.38,15.34 11.48,0 21.05,-4.71 28.69,-14.12 7.64,-9.41 11.43,-24.82 11.43,-46.27 0,-20.05 -3.91,-34.91 -11.79,-44.62 -7.82,-9.72 -17.56,-14.55 -29.18,-14.55 -12.09,0 -22.13,4.77 -30.07,14.3 -8,9.54 -11.98,23.66 -11.98,42.36z"/>
  <path id="_2" class="fil2" d="M1633.81 1393.16l0 -46.58 49.44 0 0 46.58 -49.44 0zm0 216.02l0 -190.35 49.44 0 0 190.35 -49.44 0z"/>
  <path id="_3" class="fil2" d="M1795.29 1531.43l0 -32.64c8.6,0 14.85,-0.55 18.77,-1.72 3.85,-1.16 7.52,-3.91 11,-8.31 3.49,-4.4 5.24,-9.41 5.24,-15.1 0,-5.99 -2.17,-11.61 -6.44,-16.69 -4.27,-5.13 -10.71,-7.7 -19.25,-7.7 -6.55,0 -12.45,1.41 -17.62,4.28 -5.18,2.81 -9.87,9.6 -14.08,20.3l-41.87 -9.17c4.21,-16.63 13.29,-29.1 27.13,-37.41 13.84,-8.32 29.66,-12.47 47.35,-12.47 22.55,0 40,5.25 52.39,15.83 12.39,10.51 18.59,23.72 18.59,39.67 0,9.96 -2.65,18.15 -8,24.7 -5.35,6.54 -13.78,12.59 -25.33,18.21 13.84,3.85 24.19,9.66 30.98,17.42 6.86,7.77 10.29,17.42 10.29,29.04 0,14.79 -6.8,27.57 -20.4,38.26 -13.59,10.7 -33.2,16.02 -58.77,16.02 -44.57,0 -71.82,-17.73 -81.81,-53.18l45.12 -8.44c7.28,18.58 19.31,27.88 36.09,27.88 9.33,0 16.73,-2.51 22.32,-7.46 5.59,-4.95 8.36,-10.76 8.36,-17.48 0,-7.4 -2.89,-13.21 -8.72,-17.49 -5.84,-4.21 -13.48,-6.35 -22.86,-6.35l-8.48 0z"/>
  <path id="_4" class="fil2" d="M1935.89 1418.83l108.53 0c22.25,0 38.85,4.1 49.92,12.35 11.07,8.25 16.61,20.72 16.61,37.35 0,10.63 -3.01,19.92 -9.09,27.81 -6.01,7.89 -13.65,13.14 -22.8,15.77 12.88,3.24 22.51,9.23 28.88,18.09 6.31,8.87 9.5,18.53 9.5,29.04 0,14.79 -5.35,26.83 -16.06,36.06 -10.71,9.23 -26.52,13.88 -47.46,13.88l-118.03 0 0 -190.35zm49.45 79.22l32.12 0c15.52,0 26.71,-1.95 33.63,-5.93 6.92,-3.97 10.41,-10.21 10.41,-18.7 0,-8.07 -3.24,-13.76 -9.69,-17.18 -6.44,-3.42 -17.86,-5.13 -34.35,-5.13l-32.12 0 0 46.94zm0 78.86l39.35 0c14.19,0 24.54,-1.72 31.04,-5.2 6.49,-3.48 9.74,-9.66 9.74,-18.64 0,-9.36 -3.73,-15.77 -11.19,-19.26 -7.4,-3.54 -21.9,-5.32 -43.43,-5.32l-25.51 0 0 48.42z"/>
  <polygon id="_5" class="fil2" points="2166.98,1418.83 2214.62,1418.83 2214.62,1538.46 2290.78,1418.83 2339.51,1418.83 2339.51,1609.18 2291.86,1609.18 2291.86,1487.84 2214.62,1609.18 2166.98,1609.18 "/>
  <polygon id="_6" class="fil2" points="2400.59,1418.83 2446.06,1418.83 2446.06,1568.47 2503.46,1568.47 2503.46,1418.83 2548.93,1418.83 2548.93,1568.47 2607.05,1568.47 2607.05,1418.83 2652.52,1418.83 2652.52,1568.47 2672.74,1568.47 2672.74,1659.43 2632.67,1659.43 2632.67,1609.18 2400.59,1609.18 "/>
  <path id="_7" class="fil2" d="M2825.18 1549.03l49.46 8.44c-6.32,18.4 -16.37,32.39 -30.02,42.05 -13.72,9.6 -30.86,14.43 -51.37,14.43 -32.54,0 -56.67,-10.82 -72.25,-32.46 -12.33,-17.36 -18.52,-39.24 -18.52,-65.71 0,-31.54 8.11,-56.3 24.29,-74.15 16.18,-17.91 36.7,-26.83 61.48,-26.83 27.79,0 49.75,9.35 65.88,28.05 16.06,18.71 23.75,47.38 23.03,86.01l-123.8 0c0.37,14.91 4.33,26.53 11.97,34.84 7.59,8.31 17.08,12.47 28.4,12.47 7.76,0 14.25,-2.14 19.49,-6.42 5.29,-4.28 9.26,-11.18 11.96,-20.72zm2.9 -50.98c-0.37,-14.61 -4.04,-25.73 -11.07,-33.31 -7.04,-7.64 -15.58,-11.43 -25.69,-11.43 -10.77,0 -19.67,4.03 -26.71,12.04 -7.03,8.01 -10.47,18.95 -10.34,32.7l73.81 0z"/>
  <polygon id="_8" class="fil2" points="1717.81,2072.17 1717.81,1809.57 1770.15,1809.57 1770.15,2072.17 "/>
  <polygon id="_9" class="fil2" points="1832.01,1881.82 1893.73,1881.82 1939.75,2014.47 1986.55,1881.82 2047.85,1881.82 2047.85,2072.17 2005.63,2072.17 2005.63,1946.86 1960.27,2072.17 1917.73,2072.17 1874.24,1946.86 1874.24,2072.17 1832.01,2072.17 "/>
  <path id="_10" class="fil2" d="M2107.13 1809.57l49.45 0 0 36c0,14.55 -1.21,26.1 -3.67,34.48 -2.47,8.43 -7.17,16.01 -14.03,22.68 -6.85,6.72 -15.57,11.92 -26.09,15.77l-9.63 -20.91c9.92,-3.36 16.96,-7.94 21.17,-13.81 4.15,-5.81 6.38,-13.82 6.62,-23.96l-23.82 0 0 -50.25z"/>
  <path id="_11" class="fil2" d="M2380.49 1881.82l0 190.35 -49.44 0 0 -78.85 -4.57 0c-10.71,0 -18.58,1.4 -23.58,4.21 -5.05,2.82 -10.59,8.75 -16.72,17.79l-3.02 3.73 -32.66 53.12 -57.69 0 35.49 -55.08c10.11,-15.77 19.25,-24.81 27.44,-27.2 -13.84,-0.85 -25.09,-6.17 -33.75,-16.07 -8.6,-9.84 -12.94,-22.44 -12.94,-37.78 0,-12.35 2.89,-22.86 8.61,-31.6 5.71,-8.74 13.29,-14.67 22.79,-17.85 9.45,-3.18 23.58,-4.77 42.29,-4.77l97.75 0zm-49.44 32.28l-35.55 0c-13.11,0 -22.26,1.89 -27.61,5.68 -5.29,3.79 -7.94,10.03 -7.94,18.77 0,8.8 3,15.1 9.02,18.95 6.02,3.85 15.88,5.74 29.54,5.74l32.54 0 0 -49.14z"/>
  <polygon id="_12" class="fil2" points="971.34,2272.56 1176.71,2272.56 1176.71,2535.16 1124.37,2535.16 1124.37,2316.94 1023.68,2316.94 1023.68,2535.16 971.34,2535.16 "/>
  <path id="_13" class="fil2" d="M1229.19 2437.66c0,-16.75 4.04,-32.94 12.15,-48.59 8.12,-15.71 19.62,-27.63 34.47,-35.88 14.86,-8.26 31.4,-12.41 49.76,-12.41 28.33,0 51.48,9.35 69.59,28.05 18.11,18.77 27.13,42.37 27.13,70.97 0,28.85 -9.14,52.75 -27.37,71.7 -18.29,18.95 -41.27,28.43 -69,28.43 -17.14,0 -33.51,-3.98 -49.09,-11.86 -15.52,-7.89 -27.37,-19.44 -35.49,-34.72 -8.11,-15.22 -12.15,-33.8 -12.15,-55.69zm50.89 2.69c0,18.89 4.4,33.38 13.18,43.4 8.84,10.09 19.67,15.1 32.6,15.1 12.87,0 23.7,-5.01 32.43,-15.1 8.72,-10.02 13.11,-24.63 13.11,-43.76 0,-18.65 -4.39,-33.01 -13.11,-43.04 -8.73,-10.08 -19.56,-15.1 -32.43,-15.1 -12.93,0 -23.76,5.02 -32.6,15.1 -8.78,10.03 -13.18,24.51 -13.18,43.4z"/>
  <path id="_14" class="fil2" d="M1702.25 2266.32l33.57 0c-1.08,15.1 -4.99,26.53 -11.73,34.36 -6.73,7.76 -23.46,11.67 -50.05,11.67 -3.12,0 -6.31,-0.06 -9.5,-0.18l-6.37 0c-15.77,0 -28.58,1.77 -38.44,5.32 -9.87,3.48 -17.99,10.33 -24.25,20.48 -6.32,10.2 -9.57,26.59 -9.8,49.14 7.28,-13.94 16.72,-24.33 28.33,-31.23 11.55,-6.91 25.39,-10.33 41.32,-10.33 24.61,0 45.42,9.71 62.5,29.21 17.03,19.44 25.57,42 25.57,67.61 0,26.71 -8.96,49.63 -26.89,68.83 -17.99,19.13 -41.39,28.73 -70.32,28.73 -19.91,0 -37.36,-4.83 -52.45,-14.55 -15.04,-9.66 -25.81,-22.92 -32.3,-39.73 -6.44,-16.81 -9.7,-44.63 -9.7,-83.5 0,-45.72 8.31,-78.55 24.85,-98.54 16.55,-19.99 45.42,-29.95 86.62,-29.95l25.09 0c6.98,0 11.61,-2.44 13.95,-7.34zm-99.61 175.19c0,17.43 4.27,31.24 12.76,41.39 8.48,10.14 18.82,15.22 31.09,15.22 13.24,0 24.12,-5.26 32.61,-15.77 8.48,-10.52 12.69,-24.03 12.69,-40.65 0,-16.93 -4.27,-30.57 -12.87,-40.96 -8.61,-10.39 -19.25,-15.58 -31.89,-15.58 -12.27,0 -22.74,5.13 -31.4,15.34 -8.66,10.21 -12.99,23.9 -12.99,41.01z"/>
  <path id="_15" class="fil2" d="M1832.28 2403.49l-44.75 -8.07c5.05,-18.58 13.77,-32.33 26.11,-41.26 12.33,-8.92 30.67,-13.38 54.98,-13.38 22.07,0 38.56,2.63 49.38,7.94 10.77,5.32 18.41,12.05 22.8,20.24 4.39,8.19 6.62,23.16 6.62,45.05l-0.72 58.68c0,16.69 0.77,29.03 2.34,36.98 1.56,7.95 4.52,16.44 8.85,25.49l-49.09 0c-1.26,-3.3 -2.88,-8.19 -4.75,-14.67 -0.78,-3 -1.39,-4.95 -1.75,-5.87 -8.42,8.44 -17.44,14.73 -27.07,18.95 -9.62,4.22 -19.85,6.36 -30.74,6.36 -19.18,0 -34.35,-5.32 -45.42,-15.96 -11.06,-10.57 -16.6,-24.02 -16.6,-40.28 0,-10.7 2.53,-20.29 7.59,-28.73 5.04,-8.37 12.08,-14.85 21.22,-19.31 9.09,-4.47 22.2,-8.38 39.35,-11.74 23.1,-4.4 39.16,-8.56 48.06,-12.35l0 -5.07c0,-9.78 -2.34,-16.75 -7.03,-20.97 -4.76,-4.15 -13.66,-6.23 -26.71,-6.23 -8.85,0 -15.71,1.77 -20.64,5.38 -4.99,3.54 -8.97,9.84 -12.03,18.82zm66.41 40.71c-6.32,2.14 -16.36,4.71 -30.13,7.71 -13.72,2.99 -22.74,5.92 -26.96,8.74 -6.43,4.7 -9.68,10.57 -9.68,17.72 0,7.09 2.59,13.15 7.75,18.28 5.18,5.13 11.74,7.7 19.74,7.7 8.9,0 17.44,-2.99 25.56,-8.92 5.96,-4.59 9.93,-10.09 11.79,-16.69 1.27,-4.28 1.93,-12.47 1.93,-24.51l0 -10.03z"/>
  <polygon id="_16" class="fil2" points="1984.86,2344.81 2154.14,2344.81 2154.14,2385.52 2094.23,2385.52 2094.23,2535.16 2044.77,2535.16 2044.77,2385.52 1984.86,2385.52 "/>
  <path id="_17" class="fil2" d="M2196.09 2344.81l49.44 0 0 79.22 49.69 0c19.5,0 34.41,1.41 44.88,4.28 10.47,2.87 19.13,9.05 26.05,18.52 6.91,9.48 10.41,20.48 10.41,33.01 0,18.4 -6.2,32.21 -18.59,41.44 -12.39,9.23 -30.92,13.88 -55.7,13.88l-106.18 0 0 -190.35zm49.44 158.08l46.27 0c14.43,0 23.69,-2.39 27.79,-7.1 4.03,-4.76 6.07,-10.39 6.07,-16.93 0,-9.11 -3.48,-15.4 -10.52,-18.89 -6.98,-3.42 -19.44,-5.13 -37.3,-5.13l-32.31 0 0 48.05z"/>
  <path id="_18" class="fil2" d="M2425.73 2344.81l49.44 0 0 77.75c8.25,-0.97 14.09,-3.54 17.51,-7.7 3.37,-4.15 7.52,-13.26 12.33,-27.32 6.38,-18.77 13.3,-30.69 20.88,-35.94 7.51,-5.26 17.39,-7.89 29.66,-7.89 3.79,0 10.28,0.31 19.6,0.92l0.19 33.19c-13.12,0 -21.48,1.22 -25.09,3.73 -3.67,2.63 -7.63,10.45 -11.85,23.47 -5.77,17.48 -14.14,28.3 -24.96,32.34 15.63,4.4 28.87,18.27 39.7,41.56 0.54,1.23 1.2,2.45 1.93,3.79l27.67 52.45 -53.24 0 -24.66 -55.2c-5.06,-11.12 -9.45,-18.27 -13.18,-21.45 -3.67,-3.18 -9.2,-4.77 -16.49,-4.77l0 81.42 -49.44 0 0 -190.35z"/>
  <path id="_19" class="fil2" d="M2603.27 2437.66c0,-16.75 4.03,-32.94 12.15,-48.59 8.12,-15.71 19.61,-27.63 34.46,-35.88 14.86,-8.26 31.41,-12.41 49.76,-12.41 28.33,0 51.49,9.35 69.6,28.05 18.1,18.77 27.13,42.37 27.13,70.97 0,28.85 -9.14,52.75 -27.38,71.7 -18.28,18.95 -41.26,28.43 -68.99,28.43 -17.15,0 -33.51,-3.98 -49.09,-11.86 -15.52,-7.89 -27.37,-19.44 -35.49,-34.72 -8.12,-15.22 -12.15,-33.8 -12.15,-55.69zm50.89 2.69c0,18.89 4.39,33.38 13.17,43.4 8.85,10.09 19.67,15.1 32.61,15.1 12.87,0 23.69,-5.01 32.42,-15.1 8.72,-10.02 13.11,-24.63 13.11,-43.76 0,-18.65 -4.39,-33.01 -13.11,-43.04 -8.73,-10.08 -19.55,-15.1 -32.42,-15.1 -12.94,0 -23.76,5.02 -32.61,15.1 -8.78,10.03 -13.17,24.51 -13.17,43.4z"/>
  <path id="_20" class="fil2" d="M2846.68 2344.81l108.52 0c22.26,0 38.86,4.1 49.93,12.35 11.07,8.25 16.6,20.72 16.6,37.35 0,10.63 -3,19.92 -9.08,27.81 -6.02,7.89 -13.65,13.14 -22.8,15.77 12.88,3.24 22.5,9.23 28.88,18.09 6.31,8.87 9.5,18.53 9.5,29.04 0,14.79 -5.36,26.83 -16.06,36.06 -10.71,9.23 -26.53,13.88 -47.47,13.88l-118.02 0 0 -190.35zm49.45 79.22l32.12 0c15.52,0 26.71,-1.95 33.63,-5.93 6.92,-3.97 10.41,-10.21 10.41,-18.7 0,-8.07 -3.25,-13.76 -9.69,-17.18 -6.44,-3.42 -17.87,-5.13 -34.35,-5.13l-32.12 0 0 46.94zm0 78.86l39.34 0c14.19,0 24.55,-1.72 31.04,-5.2 6.5,-3.48 9.75,-9.66 9.75,-18.64 0,-9.36 -3.73,-15.77 -11.19,-19.26 -7.4,-3.54 -21.9,-5.32 -43.43,-5.32l-25.51 0 0 48.42z"/>
  <path id="_21" class="fil2" d="M3079.21 2319.14l0 -46.58 49.44 0 0 46.58 -49.44 0zm0 216.02l0 -190.35 49.44 0 0 190.35 -49.44 0z"/>
  <polygon id="_22" class="fil3 str2" points="1132.91,1346.58 1338.27,1346.58 1338.27,1609.18 1285.93,1609.18 1285.93,1390.96 1185.24,1390.96 1185.24,1609.18 1132.91,1609.18 "/>
  <path id="_23" class="fil3 str2" d="M1400.86 1418.83l46.19 0 0 27.94c6.03,-9.54 14.09,-17.24 24.31,-23.17 10.23,-5.87 21.59,-8.8 34.05,-8.8 21.71,0 40.18,8.68 55.34,26.04 15.16,17.3 22.74,41.5 22.74,72.43 0,31.85 -7.64,56.54 -22.92,74.21 -15.28,17.67 -33.8,26.47 -55.58,26.47 -10.34,0 -19.73,-2.08 -28.16,-6.3 -8.35,-4.15 -17.26,-11.31 -26.52,-21.45l0 95.23 -49.45 0 0 -262.6zm48.72 92.24c0,21.46 4.16,37.29 12.52,47.56 8.3,10.21 18.46,15.34 30.38,15.34 11.48,0 21.05,-4.71 28.69,-14.12 7.64,-9.41 11.43,-24.82 11.43,-46.27 0,-20.05 -3.91,-34.91 -11.79,-44.62 -7.82,-9.72 -17.56,-14.55 -29.18,-14.55 -12.09,0 -22.13,4.77 -30.07,14.3 -8,9.54 -11.98,23.66 -11.98,42.36z"/>
  <path id="_24" class="fil3 str2" d="M1633.81 1393.16l0 -46.58 49.44 0 0 46.58 -49.44 0zm0 216.02l0 -190.35 49.44 0 0 190.35 -49.44 0z"/>
  <path id="_25" class="fil3 str2" d="M1795.29 1531.43l0 -32.64c8.6,0 14.85,-0.55 18.77,-1.72 3.85,-1.16 7.52,-3.91 11,-8.31 3.49,-4.4 5.24,-9.41 5.24,-15.1 0,-5.99 -2.17,-11.61 -6.44,-16.69 -4.27,-5.13 -10.71,-7.7 -19.25,-7.7 -6.55,0 -12.45,1.41 -17.62,4.28 -5.18,2.81 -9.87,9.6 -14.08,20.3l-41.87 -9.17c4.21,-16.63 13.29,-29.1 27.13,-37.41 13.84,-8.32 29.66,-12.47 47.35,-12.47 22.55,0 40,5.25 52.39,15.83 12.39,10.51 18.59,23.72 18.59,39.67 0,9.96 -2.65,18.15 -8,24.7 -5.35,6.54 -13.78,12.59 -25.33,18.21 13.84,3.85 24.19,9.66 30.98,17.42 6.86,7.77 10.29,17.42 10.29,29.04 0,14.79 -6.8,27.57 -20.4,38.26 -13.59,10.7 -33.2,16.02 -58.77,16.02 -44.57,0 -71.82,-17.73 -81.81,-53.18l45.12 -8.44c7.28,18.58 19.31,27.88 36.09,27.88 9.33,0 16.73,-2.51 22.32,-7.46 5.59,-4.95 8.36,-10.76 8.36,-17.48 0,-7.4 -2.89,-13.21 -8.72,-17.49 -5.84,-4.21 -13.48,-6.35 -22.86,-6.35l-8.48 0z"/>
  <path id="_26" class="fil3 str2" d="M1935.89 1418.83l108.53 0c22.25,0 38.85,4.1 49.92,12.35 11.07,8.25 16.61,20.72 16.61,37.35 0,10.63 -3.01,19.92 -9.09,27.81 -6.01,7.89 -13.65,13.14 -22.8,15.77 12.88,3.24 22.51,9.23 28.88,18.09 6.31,8.87 9.5,18.53 9.5,29.04 0,14.79 -5.35,26.83 -16.06,36.06 -10.71,9.23 -26.52,13.88 -47.46,13.88l-118.03 0 0 -190.35zm49.45 79.22l32.12 0c15.52,0 26.71,-1.95 33.63,-5.93 6.92,-3.97 10.41,-10.21 10.41,-18.7 0,-8.07 -3.24,-13.76 -9.69,-17.18 -6.44,-3.42 -17.86,-5.13 -34.35,-5.13l-32.12 0 0 46.94zm0 78.86l39.35 0c14.19,0 24.54,-1.72 31.04,-5.2 6.49,-3.48 9.74,-9.66 9.74,-18.64 0,-9.36 -3.73,-15.77 -11.19,-19.26 -7.4,-3.54 -21.9,-5.32 -43.43,-5.32l-25.51 0 0 48.42z"/>
  <polygon id="_27" class="fil3 str2" points="2166.98,1418.83 2214.62,1418.83 2214.62,1538.46 2290.78,1418.83 2339.51,1418.83 2339.51,1609.18 2291.86,1609.18 2291.86,1487.84 2214.62,1609.18 2166.98,1609.18 "/>
  <polygon id="_28" class="fil3 str2" points="2400.59,1418.83 2446.06,1418.83 2446.06,1568.47 2503.46,1568.47 2503.46,1418.83 2548.93,1418.83 2548.93,1568.47 2607.05,1568.47 2607.05,1418.83 2652.52,1418.83 2652.52,1568.47 2672.74,1568.47 2672.74,1659.43 2632.67,1659.43 2632.67,1609.18 2400.59,1609.18 "/>
  <path id="_29" class="fil3 str2" d="M2825.18 1549.03l49.46 8.44c-6.32,18.4 -16.37,32.39 -30.02,42.05 -13.72,9.6 -30.86,14.43 -51.37,14.43 -32.54,0 -56.67,-10.82 -72.25,-32.46 -12.33,-17.36 -18.52,-39.24 -18.52,-65.71 0,-31.54 8.11,-56.3 24.29,-74.15 16.18,-17.91 36.7,-26.83 61.48,-26.83 27.79,0 49.75,9.35 65.88,28.05 16.06,18.71 23.75,47.38 23.03,86.01l-123.8 0c0.37,14.91 4.33,26.53 11.97,34.84 7.59,8.31 17.08,12.47 28.4,12.47 7.76,0 14.25,-2.14 19.49,-6.42 5.29,-4.28 9.26,-11.18 11.96,-20.72zm2.9 -50.98c-0.37,-14.61 -4.04,-25.73 -11.07,-33.31 -7.04,-7.64 -15.58,-11.43 -25.69,-11.43 -10.77,0 -19.67,4.03 -26.71,12.04 -7.03,8.01 -10.47,18.95 -10.34,32.7l73.81 0z"/>
  <polygon id="_30" class="fil3 str2" points="1717.81,2072.17 1717.81,1809.57 1770.15,1809.57 1770.15,2072.17 "/>
  <polygon id="_31" class="fil3 str2" points="1832.01,1881.82 1893.73,1881.82 1939.75,2014.47 1986.55,1881.82 2047.85,1881.82 2047.85,2072.17 2005.63,2072.17 2005.63,1946.86 1960.27,2072.17 1917.73,2072.17 1874.24,1946.86 1874.24,2072.17 1832.01,2072.17 "/>
  <path id="_32" class="fil3 str2" d="M2107.13 1809.57l49.45 0 0 36c0,14.55 -1.21,26.1 -3.67,34.48 -2.47,8.43 -7.17,16.01 -14.03,22.68 -6.85,6.72 -15.57,11.92 -26.09,15.77l-9.63 -20.91c9.92,-3.36 16.96,-7.94 21.17,-13.81 4.15,-5.81 6.38,-13.82 6.62,-23.96l-23.82 0 0 -50.25z"/>
  <path id="_33" class="fil3 str2" d="M2380.49 1881.82l0 190.35 -49.44 0 0 -78.85 -4.57 0c-10.71,0 -18.58,1.4 -23.58,4.21 -5.05,2.82 -10.59,8.75 -16.72,17.79l-3.02 3.73 -32.66 53.12 -57.69 0 35.49 -55.08c10.11,-15.77 19.25,-24.81 27.44,-27.2 -13.84,-0.85 -25.09,-6.17 -33.75,-16.07 -8.6,-9.84 -12.94,-22.44 -12.94,-37.78 0,-12.35 2.89,-22.86 8.61,-31.6 5.71,-8.74 13.29,-14.67 22.79,-17.85 9.45,-3.18 23.58,-4.77 42.29,-4.77l97.75 0zm-49.44 32.28l-35.55 0c-13.11,0 -22.26,1.89 -27.61,5.68 -5.29,3.79 -7.94,10.03 -7.94,18.77 0,8.8 3,15.1 9.02,18.95 6.02,3.85 15.88,5.74 29.54,5.74l32.54 0 0 -49.14z"/>
  <polygon id="_34" class="fil3 str2" points="971.34,2272.56 1176.71,2272.56 1176.71,2535.16 1124.37,2535.16 1124.37,2316.94 1023.68,2316.94 1023.68,2535.16 971.34,2535.16 "/>
  <path id="_35" class="fil3 str2" d="M1229.19 2437.66c0,-16.75 4.04,-32.94 12.15,-48.59 8.12,-15.71 19.62,-27.63 34.47,-35.88 14.86,-8.26 31.4,-12.41 49.76,-12.41 28.33,0 51.48,9.35 69.59,28.05 18.11,18.77 27.13,42.37 27.13,70.97 0,28.85 -9.14,52.75 -27.37,71.7 -18.29,18.95 -41.27,28.43 -69,28.43 -17.14,0 -33.51,-3.98 -49.09,-11.86 -15.52,-7.89 -27.37,-19.44 -35.49,-34.72 -8.11,-15.22 -12.15,-33.8 -12.15,-55.69zm50.89 2.69c0,18.89 4.4,33.38 13.18,43.4 8.84,10.09 19.67,15.1 32.6,15.1 12.87,0 23.7,-5.01 32.43,-15.1 8.72,-10.02 13.11,-24.63 13.11,-43.76 0,-18.65 -4.39,-33.01 -13.11,-43.04 -8.73,-10.08 -19.56,-15.1 -32.43,-15.1 -12.93,0 -23.76,5.02 -32.6,15.1 -8.78,10.03 -13.18,24.51 -13.18,43.4z"/>
  <path id="_36" class="fil3 str2" d="M1702.25 2266.32l33.57 0c-1.08,15.1 -4.99,26.53 -11.73,34.36 -6.73,7.76 -23.46,11.67 -50.05,11.67 -3.12,0 -6.31,-0.06 -9.5,-0.18l-6.37 0c-15.77,0 -28.58,1.77 -38.44,5.32 -9.87,3.48 -17.99,10.33 -24.25,20.48 -6.32,10.2 -9.57,26.59 -9.8,49.14 7.28,-13.94 16.72,-24.33 28.33,-31.23 11.55,-6.91 25.39,-10.33 41.32,-10.33 24.61,0 45.42,9.71 62.5,29.21 17.03,19.44 25.57,42 25.57,67.61 0,26.71 -8.96,49.63 -26.89,68.83 -17.99,19.13 -41.39,28.73 -70.32,28.73 -19.91,0 -37.36,-4.83 -52.45,-14.55 -15.04,-9.66 -25.81,-22.92 -32.3,-39.73 -6.44,-16.81 -9.7,-44.63 -9.7,-83.5 0,-45.72 8.31,-78.55 24.85,-98.54 16.55,-19.99 45.42,-29.95 86.62,-29.95l25.09 0c6.98,0 11.61,-2.44 13.95,-7.34zm-99.61 175.19c0,17.43 4.27,31.24 12.76,41.39 8.48,10.14 18.82,15.22 31.09,15.22 13.24,0 24.12,-5.26 32.61,-15.77 8.48,-10.52 12.69,-24.03 12.69,-40.65 0,-16.93 -4.27,-30.57 -12.87,-40.96 -8.61,-10.39 -19.25,-15.58 -31.89,-15.58 -12.27,0 -22.74,5.13 -31.4,15.34 -8.66,10.21 -12.99,23.9 -12.99,41.01z"/>
  <path id="_37" class="fil3 str2" d="M1832.28 2403.49l-44.75 -8.07c5.05,-18.58 13.77,-32.33 26.11,-41.26 12.33,-8.92 30.67,-13.38 54.98,-13.38 22.07,0 38.56,2.63 49.38,7.94 10.77,5.32 18.41,12.05 22.8,20.24 4.39,8.19 6.62,23.16 6.62,45.05l-0.72 58.68c0,16.69 0.77,29.03 2.34,36.98 1.56,7.95 4.52,16.44 8.85,25.49l-49.09 0c-1.26,-3.3 -2.88,-8.19 -4.75,-14.67 -0.78,-3 -1.39,-4.95 -1.75,-5.87 -8.42,8.44 -17.44,14.73 -27.07,18.95 -9.62,4.22 -19.85,6.36 -30.74,6.36 -19.18,0 -34.35,-5.32 -45.42,-15.96 -11.06,-10.57 -16.6,-24.02 -16.6,-40.28 0,-10.7 2.53,-20.29 7.59,-28.73 5.04,-8.37 12.08,-14.85 21.22,-19.31 9.09,-4.47 22.2,-8.38 39.35,-11.74 23.1,-4.4 39.16,-8.56 48.06,-12.35l0 -5.07c0,-9.78 -2.34,-16.75 -7.03,-20.97 -4.76,-4.15 -13.66,-6.23 -26.71,-6.23 -8.85,0 -15.71,1.77 -20.64,5.38 -4.99,3.54 -8.97,9.84 -12.03,18.82zm66.41 40.71c-6.32,2.14 -16.36,4.71 -30.13,7.71 -13.72,2.99 -22.74,5.92 -26.96,8.74 -6.43,4.7 -9.68,10.57 -9.68,17.72 0,7.09 2.59,13.15 7.75,18.28 5.18,5.13 11.74,7.7 19.74,7.7 8.9,0 17.44,-2.99 25.56,-8.92 5.96,-4.59 9.93,-10.09 11.79,-16.69 1.27,-4.28 1.93,-12.47 1.93,-24.51l0 -10.03z"/>
  <polygon id="_38" class="fil3 str2" points="1984.86,2344.81 2154.14,2344.81 2154.14,2385.52 2094.23,2385.52 2094.23,2535.16 2044.77,2535.16 2044.77,2385.52 1984.86,2385.52 "/>
  <path id="_39" class="fil3 str2" d="M2196.09 2344.81l49.44 0 0 79.22 49.69 0c19.5,0 34.41,1.41 44.88,4.28 10.47,2.87 19.13,9.05 26.05,18.52 6.91,9.48 10.41,20.48 10.41,33.01 0,18.4 -6.2,32.21 -18.59,41.44 -12.39,9.23 -30.92,13.88 -55.7,13.88l-106.18 0 0 -190.35zm49.44 158.08l46.27 0c14.43,0 23.69,-2.39 27.79,-7.1 4.03,-4.76 6.07,-10.39 6.07,-16.93 0,-9.11 -3.48,-15.4 -10.52,-18.89 -6.98,-3.42 -19.44,-5.13 -37.3,-5.13l-32.31 0 0 48.05z"/>
  <path id="_40" class="fil3 str2" d="M2425.73 2344.81l49.44 0 0 77.75c8.25,-0.97 14.09,-3.54 17.51,-7.7 3.37,-4.15 7.52,-13.26 12.33,-27.32 6.38,-18.77 13.3,-30.69 20.88,-35.94 7.51,-5.26 17.39,-7.89 29.66,-7.89 3.79,0 10.28,0.31 19.6,0.92l0.19 33.19c-13.12,0 -21.48,1.22 -25.09,3.73 -3.67,2.63 -7.63,10.45 -11.85,23.47 -5.77,17.48 -14.14,28.3 -24.96,32.34 15.63,4.4 28.87,18.27 39.7,41.56 0.54,1.23 1.2,2.45 1.93,3.79l27.67 52.45 -53.24 0 -24.66 -55.2c-5.06,-11.12 -9.45,-18.27 -13.18,-21.45 -3.67,-3.18 -9.2,-4.77 -16.49,-4.77l0 81.42 -49.44 0 0 -190.35z"/>
  <path id="_41" class="fil3 str2" d="M2603.27 2437.66c0,-16.75 4.03,-32.94 12.15,-48.59 8.12,-15.71 19.61,-27.63 34.46,-35.88 14.86,-8.26 31.41,-12.41 49.76,-12.41 28.33,0 51.49,9.35 69.6,28.05 18.1,18.77 27.13,42.37 27.13,70.97 0,28.85 -9.14,52.75 -27.38,71.7 -18.28,18.95 -41.26,28.43 -68.99,28.43 -17.15,0 -33.51,-3.98 -49.09,-11.86 -15.52,-7.89 -27.37,-19.44 -35.49,-34.72 -8.12,-15.22 -12.15,-33.8 -12.15,-55.69zm50.89 2.69c0,18.89 4.39,33.38 13.17,43.4 8.85,10.09 19.67,15.1 32.61,15.1 12.87,0 23.69,-5.01 32.42,-15.1 8.72,-10.02 13.11,-24.63 13.11,-43.76 0,-18.65 -4.39,-33.01 -13.11,-43.04 -8.73,-10.08 -19.55,-15.1 -32.42,-15.1 -12.94,0 -23.76,5.02 -32.61,15.1 -8.78,10.03 -13.17,24.51 -13.17,43.4z"/>
  <path id="_42" class="fil3 str2" d="M2846.68 2344.81l108.52 0c22.26,0 38.86,4.1 49.93,12.35 11.07,8.25 16.6,20.72 16.6,37.35 0,10.63 -3,19.92 -9.08,27.81 -6.02,7.89 -13.65,13.14 -22.8,15.77 12.88,3.24 22.5,9.23 28.88,18.09 6.31,8.87 9.5,18.53 9.5,29.04 0,14.79 -5.36,26.83 -16.06,36.06 -10.71,9.23 -26.53,13.88 -47.47,13.88l-118.02 0 0 -190.35zm49.45 79.22l32.12 0c15.52,0 26.71,-1.95 33.63,-5.93 6.92,-3.97 10.41,-10.21 10.41,-18.7 0,-8.07 -3.25,-13.76 -9.69,-17.18 -6.44,-3.42 -17.87,-5.13 -34.35,-5.13l-32.12 0 0 46.94zm0 78.86l39.34 0c14.19,0 24.55,-1.72 31.04,-5.2 6.5,-3.48 9.75,-9.66 9.75,-18.64 0,-9.36 -3.73,-15.77 -11.19,-19.26 -7.4,-3.54 -21.9,-5.32 -43.43,-5.32l-25.51 0 0 48.42z"/>
  <path id="_43" class="fil3 str2" d="M3079.21 2319.14l0 -46.58 49.44 0 0 46.58 -49.44 0zm0 216.02l0 -190.35 49.44 0 0 190.35 -49.44 0z"/>
  <path class="fil2 str0" d="M3202.23 2956.55c-0.65,-10.94 -2.86,-21.88 -6.69,-32.74 -5.4,-15.6 -8.09,-26.38 -8.09,-32.25 0,-8.33 1.96,-14.62 5.8,-18.95 3.91,-4.33 8.74,-6.45 14.53,-6.45 4.9,0 9.23,2.12 12.91,6.45 3.67,4.33 5.46,10.45 5.46,18.45 0,7.19 -2.12,17.15 -6.28,29.97 -4.25,12.9 -6.86,24.74 -7.84,35.52 8.82,-5.55 16.65,-12.33 23.68,-20.33 10.86,-12.58 18.94,-20.41 24.17,-23.43 5.3,-3.03 10.61,-4.5 16.08,-4.5 5.23,0 9.64,1.8 13.23,5.4 3.59,3.5 5.39,7.83 5.39,12.73 0,5.96 -2.61,11.19 -7.92,15.84 -5.23,4.57 -18.37,9.22 -39.44,13.89 -12.25,2.69 -22.45,5.79 -30.62,9.3 8.33,4.33 18.46,7.6 30.38,9.8 19.26,3.51 31.92,7.92 37.88,13.14 6.04,5.31 8.99,11.03 8.99,17.24 0,4.81 -1.8,8.89 -5.39,12.41 -3.6,3.51 -7.76,5.3 -12.5,5.3 -4.82,0 -10.12,-1.71 -15.92,-5.06 -5.8,-3.35 -13.72,-10.86 -23.6,-22.45 -6.53,-7.84 -14.62,-15.19 -24.41,-22.05 0.33,9.15 2.21,19.03 5.55,29.72 5.72,18.78 8.57,31.6 8.57,38.46 0,6.37 -1.87,11.76 -5.71,16.17 -3.84,4.41 -7.92,6.61 -12.17,6.61 -5.96,0 -11.27,-2.37 -16.08,-6.94 -3.35,-3.35 -4.98,-8.74 -4.98,-16.08 0,-7.6 1.79,-16.83 5.46,-27.61 3.68,-10.77 5.97,-18.2 6.95,-22.2 0.97,-4.09 1.87,-10.13 2.61,-18.13 -9.39,6.29 -17.64,13.14 -24.58,20.82 -11.67,13.06 -20.41,21.39 -26.38,24.9 -4.15,2.53 -8.4,3.84 -12.89,3.84 -5.39,0 -10.05,-1.88 -13.89,-5.55 -3.83,-3.68 -5.71,-7.67 -5.71,-12.16 0,-4.01 1.63,-8.17 4.9,-12.58 3.27,-4.41 8.17,-8 14.7,-10.86 4.32,-1.96 14.13,-4.49 29.39,-7.68 9.88,-2.04 19.6,-5.06 28.99,-9.06 -8.65,-4.33 -18.94,-7.68 -30.87,-10.04 -19.59,-4.17 -31.76,-7.92 -36.33,-11.27 -7.19,-5.23 -10.78,-11.68 -10.78,-19.11 0,-4.32 1.8,-8.25 5.39,-11.84 3.59,-3.59 7.76,-5.39 12.57,-5.39 5.23,0 10.78,1.63 16.74,4.99 5.89,3.34 13.23,10.12 21.97,20.24 8.82,10.13 17.72,17.97 26.78,23.52z"/>
  <path class="fil2 str0" d="M890.83 2956.55c-0.65,-10.94 -2.86,-21.88 -6.69,-32.74 -5.4,-15.6 -8.09,-26.38 -8.09,-32.25 0,-8.33 1.96,-14.62 5.8,-18.95 3.91,-4.33 8.74,-6.45 14.53,-6.45 4.9,0 9.23,2.12 12.91,6.45 3.67,4.33 5.46,10.45 5.46,18.45 0,7.19 -2.12,17.15 -6.28,29.97 -4.25,12.9 -6.86,24.74 -7.84,35.52 8.82,-5.55 16.65,-12.33 23.68,-20.33 10.86,-12.58 18.94,-20.41 24.17,-23.43 5.3,-3.03 10.61,-4.5 16.08,-4.5 5.23,0 9.64,1.8 13.23,5.4 3.59,3.5 5.39,7.83 5.39,12.73 0,5.96 -2.61,11.19 -7.92,15.84 -5.23,4.57 -18.37,9.22 -39.44,13.89 -12.25,2.69 -22.45,5.79 -30.62,9.3 8.33,4.33 18.46,7.6 30.38,9.8 19.26,3.51 31.92,7.92 37.88,13.14 6.04,5.31 8.99,11.03 8.99,17.24 0,4.81 -1.8,8.89 -5.39,12.41 -3.6,3.51 -7.76,5.3 -12.5,5.3 -4.82,0 -10.12,-1.71 -15.92,-5.06 -5.8,-3.35 -13.72,-10.86 -23.6,-22.45 -6.53,-7.84 -14.62,-15.19 -24.41,-22.05 0.33,9.15 2.21,19.03 5.55,29.72 5.72,18.78 8.57,31.6 8.57,38.46 0,6.37 -1.87,11.76 -5.71,16.17 -3.84,4.41 -7.92,6.61 -12.17,6.61 -5.96,0 -11.27,-2.37 -16.08,-6.94 -3.35,-3.35 -4.98,-8.74 -4.98,-16.08 0,-7.6 1.79,-16.83 5.46,-27.61 3.68,-10.77 5.97,-18.2 6.95,-22.2 0.97,-4.09 1.87,-10.13 2.61,-18.13 -9.39,6.29 -17.64,13.14 -24.58,20.82 -11.67,13.06 -20.41,21.39 -26.38,24.9 -4.15,2.53 -8.4,3.84 -12.89,3.84 -5.39,0 -10.05,-1.88 -13.89,-5.55 -3.83,-3.68 -5.71,-7.67 -5.71,-12.16 0,-4.01 1.63,-8.17 4.9,-12.58 3.27,-4.41 8.17,-8 14.7,-10.86 4.32,-1.96 14.13,-4.49 29.39,-7.68 9.88,-2.04 19.6,-5.06 28.99,-9.06 -8.65,-4.33 -18.94,-7.68 -30.87,-10.04 -19.59,-4.17 -31.76,-7.92 -36.33,-11.27 -7.19,-5.23 -10.78,-11.68 -10.78,-19.11 0,-4.32 1.8,-8.25 5.39,-11.84 3.59,-3.59 7.76,-5.39 12.57,-5.39 5.23,0 10.78,1.63 16.74,4.99 5.89,3.34 13.23,10.12 21.97,20.24 8.82,10.13 17.72,17.97 26.78,23.52z"/>
  <path class="fil2" d="M1300.59 2959.97c0,34.68 -5.05,60.15 -15.1,76.4 -10.1,16.21 -25.65,24.32 -46.68,24.32 -21.31,0 -36.9,-8.29 -46.86,-24.81 -9.96,-16.52 -14.93,-41.72 -14.93,-75.64 0,-34.85 5.05,-60.36 15.11,-76.49 10.09,-16.16 25.64,-24.22 46.68,-24.22 21.3,0 36.89,8.37 46.85,25.07 9.97,16.69 14.93,41.8 14.93,75.37zm-33.22 58.86c2.53,-6.42 4.3,-14.48 5.36,-24.27 1.02,-9.74 1.55,-21.25 1.55,-34.59 0,-13.19 -0.53,-24.71 -1.55,-34.45 -1.06,-9.79 -2.88,-17.89 -5.45,-24.36 -2.61,-6.6 -6.2,-11.56 -10.71,-14.97 -4.56,-3.41 -10.5,-5.14 -17.76,-5.14 -7.18,0 -13.11,1.73 -17.72,5.14 -4.65,3.41 -8.32,8.46 -10.98,15.19 -2.61,6.6 -4.39,14.88 -5.36,24.89 -0.93,10.05 -1.42,21.35 -1.42,33.97 0,13.46 0.4,24.76 1.24,33.84 0.8,9.03 2.62,17.18 5.41,24.35 2.48,6.65 6.06,11.79 10.71,15.37 4.61,3.59 10.68,5.36 18.12,5.36 7.17,0 13.11,-1.73 17.76,-5.14 4.6,-3.41 8.23,-8.45 10.8,-15.19z"/>
  <path id="_1_0" class="fil2" d="M1478.85 2959.97c0,34.68 -5.05,60.15 -15.1,76.4 -10.1,16.21 -25.65,24.32 -46.68,24.32 -21.31,0 -36.9,-8.29 -46.86,-24.81 -9.96,-16.52 -14.93,-41.72 -14.93,-75.64 0,-34.85 5.05,-60.36 15.11,-76.49 10.09,-16.16 25.64,-24.22 46.68,-24.22 21.3,0 36.89,8.37 46.85,25.07 9.97,16.69 14.93,41.8 14.93,75.37zm-33.22 58.86c2.53,-6.42 4.3,-14.48 5.36,-24.27 1.02,-9.74 1.55,-21.25 1.55,-34.59 0,-13.19 -0.53,-24.71 -1.55,-34.45 -1.06,-9.79 -2.88,-17.89 -5.45,-24.36 -2.61,-6.6 -6.2,-11.56 -10.71,-14.97 -4.56,-3.41 -10.5,-5.14 -17.76,-5.14 -7.18,0 -13.11,1.73 -17.72,5.14 -4.65,3.41 -8.32,8.46 -10.98,15.19 -2.61,6.6 -4.39,14.88 -5.36,24.89 -0.93,10.05 -1.42,21.35 -1.42,33.97 0,13.46 0.4,24.76 1.24,33.84 0.8,9.03 2.62,17.18 5.41,24.35 2.48,6.65 6.06,11.79 10.71,15.37 4.61,3.59 10.68,5.36 18.12,5.36 7.17,0 13.11,-1.73 17.76,-5.14 4.6,-3.41 8.23,-8.45 10.8,-15.19z"/>
  <path id="_2_1" class="fil2" d="M1657.11 2959.97c0,34.68 -5.05,60.15 -15.1,76.4 -10.1,16.21 -25.65,24.32 -46.68,24.32 -21.31,0 -36.9,-8.29 -46.86,-24.81 -9.96,-16.52 -14.93,-41.72 -14.93,-75.64 0,-34.85 5.05,-60.36 15.11,-76.49 10.09,-16.16 25.64,-24.22 46.68,-24.22 21.3,0 36.89,8.37 46.85,25.07 9.97,16.69 14.93,41.8 14.93,75.37zm-33.22 58.86c2.53,-6.42 4.3,-14.48 5.36,-24.27 1.02,-9.74 1.55,-21.25 1.55,-34.59 0,-13.19 -0.53,-24.71 -1.55,-34.45 -1.06,-9.79 -2.88,-17.89 -5.45,-24.36 -2.61,-6.6 -6.2,-11.56 -10.71,-14.97 -4.56,-3.41 -10.5,-5.14 -17.76,-5.14 -7.18,0 -13.11,1.73 -17.72,5.14 -4.65,3.41 -8.32,8.46 -10.98,15.19 -2.61,6.6 -4.39,14.88 -5.36,24.89 -0.93,10.05 -1.42,21.35 -1.42,33.97 0,13.46 0.4,24.76 1.24,33.84 0.8,9.03 2.62,17.18 5.41,24.35 2.48,6.65 6.06,11.79 10.71,15.37 4.61,3.59 10.68,5.36 18.12,5.36 7.17,0 13.11,-1.73 17.76,-5.14 4.6,-3.41 8.23,-8.45 10.8,-15.19z"/>
  <path id="_3_2" class="fil2" d="M1835.37 2959.97c0,34.68 -5.05,60.15 -15.1,76.4 -10.1,16.21 -25.65,24.32 -46.68,24.32 -21.31,0 -36.9,-8.29 -46.86,-24.81 -9.96,-16.52 -14.93,-41.72 -14.93,-75.64 0,-34.85 5.05,-60.36 15.11,-76.49 10.09,-16.16 25.64,-24.22 46.68,-24.22 21.3,0 36.89,8.37 46.85,25.07 9.97,16.69 14.93,41.8 14.93,75.37zm-33.22 58.86c2.53,-6.42 4.3,-14.48 5.36,-24.27 1.02,-9.74 1.55,-21.25 1.55,-34.59 0,-13.19 -0.53,-24.71 -1.55,-34.45 -1.06,-9.79 -2.88,-17.89 -5.45,-24.36 -2.61,-6.6 -6.2,-11.56 -10.71,-14.97 -4.56,-3.41 -10.5,-5.14 -17.76,-5.14 -7.18,0 -13.11,1.73 -17.72,5.14 -4.65,3.41 -8.32,8.46 -10.98,15.19 -2.61,6.6 -4.39,14.88 -5.36,24.89 -0.93,10.05 -1.42,21.35 -1.42,33.97 0,13.46 0.4,24.76 1.24,33.84 0.8,9.03 2.62,17.18 5.41,24.35 2.48,6.65 6.06,11.79 10.71,15.37 4.61,3.59 10.68,5.36 18.12,5.36 7.17,0 13.11,-1.73 17.76,-5.14 4.6,-3.41 8.23,-8.45 10.8,-15.19z"/>
  <path id="_4_3" class="fil2" d="M2013.63 2959.97c0,34.68 -5.05,60.15 -15.1,76.4 -10.1,16.21 -25.65,24.32 -46.68,24.32 -21.31,0 -36.9,-8.29 -46.86,-24.81 -9.96,-16.52 -14.93,-41.72 -14.93,-75.64 0,-34.85 5.05,-60.36 15.11,-76.49 10.09,-16.16 25.64,-24.22 46.68,-24.22 21.3,0 36.89,8.37 46.85,25.07 9.97,16.69 14.93,41.8 14.93,75.37zm-33.22 58.86c2.53,-6.42 4.3,-14.48 5.36,-24.27 1.02,-9.74 1.55,-21.25 1.55,-34.59 0,-13.19 -0.53,-24.71 -1.55,-34.45 -1.06,-9.79 -2.88,-17.89 -5.45,-24.36 -2.61,-6.6 -6.2,-11.56 -10.71,-14.97 -4.56,-3.41 -10.5,-5.14 -17.76,-5.14 -7.18,0 -13.11,1.73 -17.72,5.14 -4.65,3.41 -8.32,8.46 -10.98,15.19 -2.61,6.6 -4.39,14.88 -5.36,24.89 -0.93,10.05 -1.42,21.35 -1.42,33.97 0,13.46 0.4,24.76 1.24,33.84 0.8,9.03 2.62,17.18 5.41,24.35 2.48,6.65 6.06,11.79 10.71,15.37 4.61,3.59 10.68,5.36 18.12,5.36 7.17,0 13.11,-1.73 17.76,-5.14 4.6,-3.41 8.23,-8.45 10.8,-15.19z"/>
  <path id="_5_4" class="fil2" d="M2191.89 2959.97c0,34.68 -5.05,60.15 -15.1,76.4 -10.1,16.21 -25.65,24.32 -46.68,24.32 -21.31,0 -36.9,-8.29 -46.86,-24.81 -9.96,-16.52 -14.93,-41.72 -14.93,-75.64 0,-34.85 5.05,-60.36 15.11,-76.49 10.09,-16.16 25.64,-24.22 46.68,-24.22 21.3,0 36.89,8.37 46.85,25.07 9.97,16.69 14.93,41.8 14.93,75.37zm-33.22 58.86c2.53,-6.42 4.3,-14.48 5.36,-24.27 1.02,-9.74 1.55,-21.25 1.55,-34.59 0,-13.19 -0.53,-24.71 -1.55,-34.45 -1.06,-9.79 -2.88,-17.89 -5.45,-24.36 -2.61,-6.6 -6.2,-11.56 -10.71,-14.97 -4.56,-3.41 -10.5,-5.14 -17.76,-5.14 -7.18,0 -13.11,1.73 -17.72,5.14 -4.65,3.41 -8.32,8.46 -10.98,15.19 -2.61,6.6 -4.39,14.88 -5.36,24.89 -0.93,10.05 -1.42,21.35 -1.42,33.97 0,13.46 0.4,24.76 1.24,33.84 0.8,9.03 2.62,17.18 5.41,24.35 2.48,6.65 6.06,11.79 10.71,15.37 4.61,3.59 10.68,5.36 18.12,5.36 7.17,0 13.11,-1.73 17.76,-5.14 4.6,-3.41 8.23,-8.45 10.8,-15.19z"/>
  <path id="_6_5" class="fil2" d="M2370.15 2959.97c0,34.68 -5.05,60.15 -15.1,76.4 -10.1,16.21 -25.65,24.32 -46.68,24.32 -21.31,0 -36.9,-8.29 -46.86,-24.81 -9.96,-16.52 -14.93,-41.72 -14.93,-75.64 0,-34.85 5.05,-60.36 15.11,-76.49 10.09,-16.16 25.64,-24.22 46.68,-24.22 21.3,0 36.89,8.37 46.85,25.07 9.97,16.69 14.93,41.8 14.93,75.37zm-33.22 58.86c2.53,-6.42 4.3,-14.48 5.36,-24.27 1.02,-9.74 1.55,-21.25 1.55,-34.59 0,-13.19 -0.53,-24.71 -1.55,-34.45 -1.06,-9.79 -2.88,-17.89 -5.45,-24.36 -2.61,-6.6 -6.2,-11.56 -10.71,-14.97 -4.56,-3.41 -10.5,-5.14 -17.76,-5.14 -7.18,0 -13.11,1.73 -17.72,5.14 -4.65,3.41 -8.32,8.46 -10.98,15.19 -2.61,6.6 -4.39,14.88 -5.36,24.89 -0.93,10.05 -1.42,21.35 -1.42,33.97 0,13.46 0.4,24.76 1.24,33.84 0.8,9.03 2.62,17.18 5.41,24.35 2.48,6.65 6.06,11.79 10.71,15.37 4.61,3.59 10.68,5.36 18.12,5.36 7.17,0 13.11,-1.73 17.76,-5.14 4.6,-3.41 8.23,-8.45 10.8,-15.19z"/>
  <path id="_7_6" class="fil2" d="M2548.41 2959.97c0,34.68 -5.05,60.15 -15.1,76.4 -10.1,16.21 -25.65,24.32 -46.68,24.32 -21.31,0 -36.9,-8.29 -46.86,-24.81 -9.96,-16.52 -14.93,-41.72 -14.93,-75.64 0,-34.85 5.05,-60.36 15.11,-76.49 10.09,-16.16 25.64,-24.22 46.68,-24.22 21.3,0 36.89,8.37 46.85,25.07 9.97,16.69 14.93,41.8 14.93,75.37zm-33.22 58.86c2.53,-6.42 4.3,-14.48 5.36,-24.27 1.02,-9.74 1.55,-21.25 1.55,-34.59 0,-13.19 -0.53,-24.71 -1.55,-34.45 -1.06,-9.79 -2.88,-17.89 -5.45,-24.36 -2.61,-6.6 -6.2,-11.56 -10.71,-14.97 -4.56,-3.41 -10.5,-5.14 -17.76,-5.14 -7.18,0 -13.11,1.73 -17.72,5.14 -4.65,3.41 -8.32,8.46 -10.98,15.19 -2.61,6.6 -4.39,14.88 -5.36,24.89 -0.93,10.05 -1.42,21.35 -1.42,33.97 0,13.46 0.4,24.76 1.24,33.84 0.8,9.03 2.62,17.18 5.41,24.35 2.48,6.65 6.06,11.79 10.71,15.37 4.61,3.59 10.68,5.36 18.12,5.36 7.17,0 13.11,-1.73 17.76,-5.14 4.6,-3.41 8.23,-8.45 10.8,-15.19z"/>
  <path id="_8_7" class="fil2" d="M2726.67 2959.97c0,34.68 -5.05,60.15 -15.1,76.4 -10.1,16.21 -25.65,24.32 -46.68,24.32 -21.31,0 -36.9,-8.29 -46.86,-24.81 -9.96,-16.52 -14.93,-41.72 -14.93,-75.64 0,-34.85 5.05,-60.36 15.11,-76.49 10.09,-16.16 25.64,-24.22 46.68,-24.22 21.3,0 36.89,8.37 46.85,25.07 9.97,16.69 14.93,41.8 14.93,75.37zm-33.22 58.86c2.53,-6.42 4.3,-14.48 5.36,-24.27 1.02,-9.74 1.55,-21.25 1.55,-34.59 0,-13.19 -0.53,-24.71 -1.55,-34.45 -1.06,-9.79 -2.88,-17.89 -5.45,-24.36 -2.61,-6.6 -6.2,-11.56 -10.71,-14.97 -4.56,-3.41 -10.5,-5.14 -17.76,-5.14 -7.18,0 -13.11,1.73 -17.72,5.14 -4.65,3.41 -8.32,8.46 -10.98,15.19 -2.61,6.6 -4.39,14.88 -5.36,24.89 -0.93,10.05 -1.42,21.35 -1.42,33.97 0,13.46 0.4,24.76 1.24,33.84 0.8,9.03 2.62,17.18 5.41,24.35 2.48,6.65 6.06,11.79 10.71,15.37 4.61,3.59 10.68,5.36 18.12,5.36 7.17,0 13.11,-1.73 17.76,-5.14 4.6,-3.41 8.23,-8.45 10.8,-15.19z"/>
  <path id="_9_8" class="fil2" d="M2904.93 2959.97c0,34.68 -5.05,60.15 -15.1,76.4 -10.1,16.21 -25.65,24.32 -46.68,24.32 -21.31,0 -36.9,-8.29 -46.86,-24.81 -9.96,-16.52 -14.93,-41.72 -14.93,-75.64 0,-34.85 5.05,-60.36 15.11,-76.49 10.09,-16.16 25.64,-24.22 46.68,-24.22 21.3,0 36.89,8.37 46.85,25.07 9.97,16.69 14.93,41.8 14.93,75.37zm-33.22 58.86c2.53,-6.42 4.3,-14.48 5.36,-24.27 1.02,-9.74 1.55,-21.25 1.55,-34.59 0,-13.19 -0.53,-24.71 -1.55,-34.45 -1.06,-9.79 -2.88,-17.89 -5.45,-24.36 -2.61,-6.6 -6.2,-11.56 -10.71,-14.97 -4.56,-3.41 -10.5,-5.14 -17.76,-5.14 -7.18,0 -13.11,1.73 -17.72,5.14 -4.65,3.41 -8.32,8.46 -10.98,15.19 -2.61,6.6 -4.39,14.88 -5.36,24.89 -0.93,10.05 -1.42,21.35 -1.42,33.97 0,13.46 0.4,24.76 1.24,33.84 0.8,9.03 2.62,17.18 5.41,24.35 2.48,6.65 6.06,11.79 10.71,15.37 4.61,3.59 10.68,5.36 18.12,5.36 7.17,0 13.11,-1.73 17.76,-5.14 4.6,-3.41 8.23,-8.45 10.8,-15.19z"/>
  <path id="_10_9" class="fil3 str3" d="M1300.59 2959.97c0,34.68 -5.05,60.15 -15.1,76.4 -10.1,16.21 -25.65,24.32 -46.68,24.32 -21.31,0 -36.9,-8.29 -46.86,-24.81 -9.96,-16.52 -14.93,-41.72 -14.93,-75.64 0,-34.85 5.05,-60.36 15.11,-76.49 10.09,-16.16 25.64,-24.22 46.68,-24.22 21.3,0 36.89,8.37 46.85,25.07 9.97,16.69 14.93,41.8 14.93,75.37zm-33.22 58.86c2.53,-6.42 4.3,-14.48 5.36,-24.27 1.02,-9.74 1.55,-21.25 1.55,-34.59 0,-13.19 -0.53,-24.71 -1.55,-34.45 -1.06,-9.79 -2.88,-17.89 -5.45,-24.36 -2.61,-6.6 -6.2,-11.56 -10.71,-14.97 -4.56,-3.41 -10.5,-5.14 -17.76,-5.14 -7.18,0 -13.11,1.73 -17.72,5.14 -4.65,3.41 -8.32,8.46 -10.98,15.19 -2.61,6.6 -4.39,14.88 -5.36,24.89 -0.93,10.05 -1.42,21.35 -1.42,33.97 0,13.46 0.4,24.76 1.24,33.84 0.8,9.03 2.62,17.18 5.41,24.35 2.48,6.65 6.06,11.79 10.71,15.37 4.61,3.59 10.68,5.36 18.12,5.36 7.17,0 13.11,-1.73 17.76,-5.14 4.6,-3.41 8.23,-8.45 10.8,-15.19z"/>
  <path id="_11_10" class="fil3 str3" d="M1478.85 2959.97c0,34.68 -5.05,60.15 -15.1,76.4 -10.1,16.21 -25.65,24.32 -46.68,24.32 -21.31,0 -36.9,-8.29 -46.86,-24.81 -9.96,-16.52 -14.93,-41.72 -14.93,-75.64 0,-34.85 5.05,-60.36 15.11,-76.49 10.09,-16.16 25.64,-24.22 46.68,-24.22 21.3,0 36.89,8.37 46.85,25.07 9.97,16.69 14.93,41.8 14.93,75.37zm-33.22 58.86c2.53,-6.42 4.3,-14.48 5.36,-24.27 1.02,-9.74 1.55,-21.25 1.55,-34.59 0,-13.19 -0.53,-24.71 -1.55,-34.45 -1.06,-9.79 -2.88,-17.89 -5.45,-24.36 -2.61,-6.6 -6.2,-11.56 -10.71,-14.97 -4.56,-3.41 -10.5,-5.14 -17.76,-5.14 -7.18,0 -13.11,1.73 -17.72,5.14 -4.65,3.41 -8.32,8.46 -10.98,15.19 -2.61,6.6 -4.39,14.88 -5.36,24.89 -0.93,10.05 -1.42,21.35 -1.42,33.97 0,13.46 0.4,24.76 1.24,33.84 0.8,9.03 2.62,17.18 5.41,24.35 2.48,6.65 6.06,11.79 10.71,15.37 4.61,3.59 10.68,5.36 18.12,5.36 7.17,0 13.11,-1.73 17.76,-5.14 4.6,-3.41 8.23,-8.45 10.8,-15.19z"/>
  <path id="_12_11" class="fil3 str3" d="M1657.11 2959.97c0,34.68 -5.05,60.15 -15.1,76.4 -10.1,16.21 -25.65,24.32 -46.68,24.32 -21.31,0 -36.9,-8.29 -46.86,-24.81 -9.96,-16.52 -14.93,-41.72 -14.93,-75.64 0,-34.85 5.05,-60.36 15.11,-76.49 10.09,-16.16 25.64,-24.22 46.68,-24.22 21.3,0 36.89,8.37 46.85,25.07 9.97,16.69 14.93,41.8 14.93,75.37zm-33.22 58.86c2.53,-6.42 4.3,-14.48 5.36,-24.27 1.02,-9.74 1.55,-21.25 1.55,-34.59 0,-13.19 -0.53,-24.71 -1.55,-34.45 -1.06,-9.79 -2.88,-17.89 -5.45,-24.36 -2.61,-6.6 -6.2,-11.56 -10.71,-14.97 -4.56,-3.41 -10.5,-5.14 -17.76,-5.14 -7.18,0 -13.11,1.73 -17.72,5.14 -4.65,3.41 -8.32,8.46 -10.98,15.19 -2.61,6.6 -4.39,14.88 -5.36,24.89 -0.93,10.05 -1.42,21.35 -1.42,33.97 0,13.46 0.4,24.76 1.24,33.84 0.8,9.03 2.62,17.18 5.41,24.35 2.48,6.65 6.06,11.79 10.71,15.37 4.61,3.59 10.68,5.36 18.12,5.36 7.17,0 13.11,-1.73 17.76,-5.14 4.6,-3.41 8.23,-8.45 10.8,-15.19z"/>
  <path id="_13_12" class="fil3 str3" d="M1835.37 2959.97c0,34.68 -5.05,60.15 -15.1,76.4 -10.1,16.21 -25.65,24.32 -46.68,24.32 -21.31,0 -36.9,-8.29 -46.86,-24.81 -9.96,-16.52 -14.93,-41.72 -14.93,-75.64 0,-34.85 5.05,-60.36 15.11,-76.49 10.09,-16.16 25.64,-24.22 46.68,-24.22 21.3,0 36.89,8.37 46.85,25.07 9.97,16.69 14.93,41.8 14.93,75.37zm-33.22 58.86c2.53,-6.42 4.3,-14.48 5.36,-24.27 1.02,-9.74 1.55,-21.25 1.55,-34.59 0,-13.19 -0.53,-24.71 -1.55,-34.45 -1.06,-9.79 -2.88,-17.89 -5.45,-24.36 -2.61,-6.6 -6.2,-11.56 -10.71,-14.97 -4.56,-3.41 -10.5,-5.14 -17.76,-5.14 -7.18,0 -13.11,1.73 -17.72,5.14 -4.65,3.41 -8.32,8.46 -10.98,15.19 -2.61,6.6 -4.39,14.88 -5.36,24.89 -0.93,10.05 -1.42,21.35 -1.42,33.97 0,13.46 0.4,24.76 1.24,33.84 0.8,9.03 2.62,17.18 5.41,24.35 2.48,6.65 6.06,11.79 10.71,15.37 4.61,3.59 10.68,5.36 18.12,5.36 7.17,0 13.11,-1.73 17.76,-5.14 4.6,-3.41 8.23,-8.45 10.8,-15.19z"/>
  <path id="_14_13" class="fil3 str3" d="M2013.63 2959.97c0,34.68 -5.05,60.15 -15.1,76.4 -10.1,16.21 -25.65,24.32 -46.68,24.32 -21.31,0 -36.9,-8.29 -46.86,-24.81 -9.96,-16.52 -14.93,-41.72 -14.93,-75.64 0,-34.85 5.05,-60.36 15.11,-76.49 10.09,-16.16 25.64,-24.22 46.68,-24.22 21.3,0 36.89,8.37 46.85,25.07 9.97,16.69 14.93,41.8 14.93,75.37zm-33.22 58.86c2.53,-6.42 4.3,-14.48 5.36,-24.27 1.02,-9.74 1.55,-21.25 1.55,-34.59 0,-13.19 -0.53,-24.71 -1.55,-34.45 -1.06,-9.79 -2.88,-17.89 -5.45,-24.36 -2.61,-6.6 -6.2,-11.56 -10.71,-14.97 -4.56,-3.41 -10.5,-5.14 -17.76,-5.14 -7.18,0 -13.11,1.73 -17.72,5.14 -4.65,3.41 -8.32,8.46 -10.98,15.19 -2.61,6.6 -4.39,14.88 -5.36,24.89 -0.93,10.05 -1.42,21.35 -1.42,33.97 0,13.46 0.4,24.76 1.24,33.84 0.8,9.03 2.62,17.18 5.41,24.35 2.48,6.65 6.06,11.79 10.71,15.37 4.61,3.59 10.68,5.36 18.12,5.36 7.17,0 13.11,-1.73 17.76,-5.14 4.6,-3.41 8.23,-8.45 10.8,-15.19z"/>
  <path id="_15_14" class="fil3 str3" d="M2191.89 2959.97c0,34.68 -5.05,60.15 -15.1,76.4 -10.1,16.21 -25.65,24.32 -46.68,24.32 -21.31,0 -36.9,-8.29 -46.86,-24.81 -9.96,-16.52 -14.93,-41.72 -14.93,-75.64 0,-34.85 5.05,-60.36 15.11,-76.49 10.09,-16.16 25.64,-24.22 46.68,-24.22 21.3,0 36.89,8.37 46.85,25.07 9.97,16.69 14.93,41.8 14.93,75.37zm-33.22 58.86c2.53,-6.42 4.3,-14.48 5.36,-24.27 1.02,-9.74 1.55,-21.25 1.55,-34.59 0,-13.19 -0.53,-24.71 -1.55,-34.45 -1.06,-9.79 -2.88,-17.89 -5.45,-24.36 -2.61,-6.6 -6.2,-11.56 -10.71,-14.97 -4.56,-3.41 -10.5,-5.14 -17.76,-5.14 -7.18,0 -13.11,1.73 -17.72,5.14 -4.65,3.41 -8.32,8.46 -10.98,15.19 -2.61,6.6 -4.39,14.88 -5.36,24.89 -0.93,10.05 -1.42,21.35 -1.42,33.97 0,13.46 0.4,24.76 1.24,33.84 0.8,9.03 2.62,17.18 5.41,24.35 2.48,6.65 6.06,11.79 10.71,15.37 4.61,3.59 10.68,5.36 18.12,5.36 7.17,0 13.11,-1.73 17.76,-5.14 4.6,-3.41 8.23,-8.45 10.8,-15.19z"/>
  <path id="_16_15" class="fil3 str3" d="M2370.15 2959.97c0,34.68 -5.05,60.15 -15.1,76.4 -10.1,16.21 -25.65,24.32 -46.68,24.32 -21.31,0 -36.9,-8.29 -46.86,-24.81 -9.96,-16.52 -14.93,-41.72 -14.93,-75.64 0,-34.85 5.05,-60.36 15.11,-76.49 10.09,-16.16 25.64,-24.22 46.68,-24.22 21.3,0 36.89,8.37 46.85,25.07 9.97,16.69 14.93,41.8 14.93,75.37zm-33.22 58.86c2.53,-6.42 4.3,-14.48 5.36,-24.27 1.02,-9.74 1.55,-21.25 1.55,-34.59 0,-13.19 -0.53,-24.71 -1.55,-34.45 -1.06,-9.79 -2.88,-17.89 -5.45,-24.36 -2.61,-6.6 -6.2,-11.56 -10.71,-14.97 -4.56,-3.41 -10.5,-5.14 -17.76,-5.14 -7.18,0 -13.11,1.73 -17.72,5.14 -4.65,3.41 -8.32,8.46 -10.98,15.19 -2.61,6.6 -4.39,14.88 -5.36,24.89 -0.93,10.05 -1.42,21.35 -1.42,33.97 0,13.46 0.4,24.76 1.24,33.84 0.8,9.03 2.62,17.18 5.41,24.35 2.48,6.65 6.06,11.79 10.71,15.37 4.61,3.59 10.68,5.36 18.12,5.36 7.17,0 13.11,-1.73 17.76,-5.14 4.6,-3.41 8.23,-8.45 10.8,-15.19z"/>
  <path id="_17_16" class="fil3 str3" d="M2548.41 2959.97c0,34.68 -5.05,60.15 -15.1,76.4 -10.1,16.21 -25.65,24.32 -46.68,24.32 -21.31,0 -36.9,-8.29 -46.86,-24.81 -9.96,-16.52 -14.93,-41.72 -14.93,-75.64 0,-34.85 5.05,-60.36 15.11,-76.49 10.09,-16.16 25.64,-24.22 46.68,-24.22 21.3,0 36.89,8.37 46.85,25.07 9.97,16.69 14.93,41.8 14.93,75.37zm-33.22 58.86c2.53,-6.42 4.3,-14.48 5.36,-24.27 1.02,-9.74 1.55,-21.25 1.55,-34.59 0,-13.19 -0.53,-24.71 -1.55,-34.45 -1.06,-9.79 -2.88,-17.89 -5.45,-24.36 -2.61,-6.6 -6.2,-11.56 -10.71,-14.97 -4.56,-3.41 -10.5,-5.14 -17.76,-5.14 -7.18,0 -13.11,1.73 -17.72,5.14 -4.65,3.41 -8.32,8.46 -10.98,15.19 -2.61,6.6 -4.39,14.88 -5.36,24.89 -0.93,10.05 -1.42,21.35 -1.42,33.97 0,13.46 0.4,24.76 1.24,33.84 0.8,9.03 2.62,17.18 5.41,24.35 2.48,6.65 6.06,11.79 10.71,15.37 4.61,3.59 10.68,5.36 18.12,5.36 7.17,0 13.11,-1.73 17.76,-5.14 4.6,-3.41 8.23,-8.45 10.8,-15.19z"/>
  <path id="_18_17" class="fil3 str3" d="M2726.67 2959.97c0,34.68 -5.05,60.15 -15.1,76.4 -10.1,16.21 -25.65,24.32 -46.68,24.32 -21.31,0 -36.9,-8.29 -46.86,-24.81 -9.96,-16.52 -14.93,-41.72 -14.93,-75.64 0,-34.85 5.05,-60.36 15.11,-76.49 10.09,-16.16 25.64,-24.22 46.68,-24.22 21.3,0 36.89,8.37 46.85,25.07 9.97,16.69 14.93,41.8 14.93,75.37zm-33.22 58.86c2.53,-6.42 4.3,-14.48 5.36,-24.27 1.02,-9.74 1.55,-21.25 1.55,-34.59 0,-13.19 -0.53,-24.71 -1.55,-34.45 -1.06,-9.79 -2.88,-17.89 -5.45,-24.36 -2.61,-6.6 -6.2,-11.56 -10.71,-14.97 -4.56,-3.41 -10.5,-5.14 -17.76,-5.14 -7.18,0 -13.11,1.73 -17.72,5.14 -4.65,3.41 -8.32,8.46 -10.98,15.19 -2.61,6.6 -4.39,14.88 -5.36,24.89 -0.93,10.05 -1.42,21.35 -1.42,33.97 0,13.46 0.4,24.76 1.24,33.84 0.8,9.03 2.62,17.18 5.41,24.35 2.48,6.65 6.06,11.79 10.71,15.37 4.61,3.59 10.68,5.36 18.12,5.36 7.17,0 13.11,-1.73 17.76,-5.14 4.6,-3.41 8.23,-8.45 10.8,-15.19z"/>
  <path id="_19_18" class="fil3 str3" d="M2904.93 2959.97c0,34.68 -5.05,60.15 -15.1,76.4 -10.1,16.21 -25.65,24.32 -46.68,24.32 -21.31,0 -36.9,-8.29 -46.86,-24.81 -9.96,-16.52 -14.93,-41.72 -14.93,-75.64 0,-34.85 5.05,-60.36 15.11,-76.49 10.09,-16.16 25.64,-24.22 46.68,-24.22 21.3,0 36.89,8.37 46.85,25.07 9.97,16.69 14.93,41.8 14.93,75.37zm-33.22 58.86c2.53,-6.42 4.3,-14.48 5.36,-24.27 1.02,-9.74 1.55,-21.25 1.55,-34.59 0,-13.19 -0.53,-24.71 -1.55,-34.45 -1.06,-9.79 -2.88,-17.89 -5.45,-24.36 -2.61,-6.6 -6.2,-11.56 -10.71,-14.97 -4.56,-3.41 -10.5,-5.14 -17.76,-5.14 -7.18,0 -13.11,1.73 -17.72,5.14 -4.65,3.41 -8.32,8.46 -10.98,15.19 -2.61,6.6 -4.39,14.88 -5.36,24.89 -0.93,10.05 -1.42,21.35 -1.42,33.97 0,13.46 0.4,24.76 1.24,33.84 0.8,9.03 2.62,17.18 5.41,24.35 2.48,6.65 6.06,11.79 10.71,15.37 4.61,3.59 10.68,5.36 18.12,5.36 7.17,0 13.11,-1.73 17.76,-5.14 4.6,-3.41 8.23,-8.45 10.8,-15.19z"/>
  <circle class="fil3" cx="2050" cy="2050" r="1135"/>
  <path class="fil2" d="M581.52 2413.36l-25.21 5.79 -5.6 -24.47 25.22 -5.77c-4.37,-25.36 -1.36,-46.86 9.05,-64.49 10.44,-17.64 25.82,-28.78 46.23,-33.44 19.95,-4.6 38.53,-1.44 55.69,9.42 17.17,10.83 29.44,29.07 36.82,54.71l25.35 -5.83 5.6 24.46 -25.35 5.79c4.41,23.47 1.77,44.49 -7.96,62.98 -9.75,18.52 -25.55,30.29 -47.38,35.31 -21.92,4.99 -41.25,1.31 -57.95,-11.11 -16.64,-12.47 -28.17,-30.2 -34.51,-53.35zm16.71 -29.54l103.1 -23.59c-4.7,-16.64 -12.6,-28.74 -23.75,-36.36 -11.14,-7.62 -24.55,-9.65 -40.21,-6.07 -15.38,3.52 -26.53,11.04 -33.35,22.61 -6.83,11.53 -8.76,26.01 -5.79,43.41zm5.73 24.42c4.42,16.04 12.23,28.04 23.37,36.04 11.14,8 24.64,10.16 40.45,6.54 15.66,-3.57 26.86,-11.33 33.54,-23.28 6.68,-11.94 8.52,-26.2 5.46,-42.84l-102.82 23.54z"/>
  <polygon id="_1_19" class="fil2" points="724.69,2210.89 524.19,2234.14 521.12,2207.6 721.63,2184.36 "/>
  <path id="_2_20" class="fil2" d="M659.86 2130.5l-7.34 -25.27c9.75,-2.24 19.4,-7.68 29.01,-16.36 9.57,-8.68 14.15,-19.96 13.7,-33.84 -0.39,-14.12 -4.37,-25.17 -11.82,-33.14 -7.52,-7.96 -16.4,-11.79 -26.66,-11.48 -11.09,0.36 -19.81,4.9 -26.13,13.73 -6.32,8.83 -9.25,20.68 -8.81,35.54l0.39 12.8 -23.28 0.7c-0.36,-12.31 -1.33,-21.68 -2.96,-28.18 -1.63,-6.45 -5.38,-12.1 -11.4,-16.95 -5.96,-4.81 -12.68,-7.13 -20.11,-6.91 -8.8,0.27 -16.37,3.92 -22.7,10.92 -6.31,7.04 -9.29,16.4 -8.94,28.06 0.31,10.16 3.11,18.78 8.42,25.84 5.29,7.07 12.21,11.83 20.66,14.34 8.47,2.51 14.81,3.7 18.91,3.56l-4.99 25.82c-43.08,-5.07 -65.18,-28.12 -66.43,-69.18 -0.57,-19.71 4.45,-35.5 15.1,-47.43 10.61,-11.89 23.28,-18.02 37.95,-18.46 18.81,-0.57 33.66,7.93 44.59,25.39 2.51,-10.34 8.08,-19.12 16.65,-26.31 8.53,-7.17 18.93,-10.97 31.17,-11.32 17.3,-0.48 32.07,5.81 44.12,18.91 12.11,13.09 18.48,30.74 19.14,52.94 1.15,38.21 -18.29,63.61 -58.24,76.28z"/>
  <polygon id="_3_21" class="fil2" points="519.47,1903.92 522.31,1879.83 681.07,1898.49 534.85,1773.15 538,1746.47 738.46,1770.09 735.62,1794.14 577.29,1775.5 723.08,1900.95 719.97,1927.48 "/>
  <path id="_4_22" class="fil2" d="M801.05 1571.37l-8.45 25.36 -77.25 -25.63c0.91,25.54 -1.45,46.87 -7.13,63.97 -4.43,13.34 -11.47,24.06 -21.06,32.22 -9.65,8.1 -19.77,12.3 -30.55,12.55 -10.72,0.31 -23.86,-2.15 -39.37,-7.28l-56.36 -18.7 8.45 -25.36 53.96 17.87c20.93,6.98 35.98,7.73 45.08,2.26 9.09,-5.47 15.44,-13.55 19,-24.25 5.91,-17.86 8.17,-37.96 6.77,-60.3l-93.23 -30.93 8.41 -25.36 191.73 63.58z"/>
  <polygon id="_5_23" class="fil2" points="825.66,1511.58 644.98,1421.42 656.92,1397.52 731.13,1434.56 778,1340.69 703.79,1303.64 715.71,1279.74 896.39,1369.9 884.46,1393.81 799.32,1351.31 752.44,1445.19 837.59,1487.68 "/>
  <path id="_6_24" class="fil2" d="M920.19 1334.87l-120.61 -179.66 16.54 -23.56 212.79 48.59 -17.48 24.93 -63.59 -15.92 -48.62 69.08 37.28 53.35 -16.31 23.19zm-34.34 -95.38l39.41 -56.03 -57.89 -14.94c-17.58,-4.51 -31.77,-8.62 -42.53,-12.35 9.16,9.53 17.57,19.9 25.33,31.07l35.68 52.25z"/>
  <path id="_7_25" class="fil2" d="M1104.89 969.83c-20.85,-26.25 -30.08,-52.36 -27.8,-78.38 2.3,-26.02 14.62,-47.9 36.89,-65.59 14.58,-11.58 30.49,-18.51 47.75,-20.84 17.25,-2.33 33.91,0.28 49.94,7.88 16.07,7.59 30.37,19.29 42.9,35.1 12.72,16.03 20.88,32.93 24.44,50.74 3.6,17.76 2.03,34.61 -4.68,50.54 -6.71,15.93 -16.91,29.32 -30.64,40.25 -14.86,11.78 -31.02,18.75 -48.46,20.85 -17.39,2.14 -34.05,-0.65 -49.99,-8.3 -15.88,-7.6 -29.38,-18.36 -40.35,-32.25zm21.8 -16.78c15.14,19.02 32.16,29.96 51.08,32.8 18.97,2.84 36.17,-1.89 51.59,-14.13 15.75,-12.54 24.34,-28.33 25.72,-47.48 1.37,-19.15 -6,-38.88 -22.17,-59.22 -10.22,-12.85 -21.31,-22.35 -33.24,-28.51 -11.97,-6.15 -24.26,-8.55 -36.8,-7.18 -12.56,1.37 -24.07,6.17 -34.52,14.44 -14.77,11.78 -23.49,26.96 -26.1,45.59 -2.6,18.64 5.58,39.88 24.44,63.69z"/>
  <path id="_8_26" class="fil2" d="M1461.28 771.08l26.86 -6.03c4.92,22.11 3.45,41.6 -4.33,58.45 -7.77,16.8 -21.03,29.98 -39.79,39.47 -19.45,9.83 -37.19,13.86 -53.39,12.1 -16.15,-1.76 -31.2,-8.52 -45.11,-20.33 -13.93,-11.79 -25.27,-26.25 -33.95,-43.5 -9.5,-18.74 -14.15,-36.91 -14.04,-54.5 0.11,-17.6 4.93,-33.34 14.47,-47.29 9.59,-13.94 22.31,-24.95 38.19,-32.96 18.05,-9.12 35.52,-12.16 52.43,-9.23 16.96,2.98 32.03,11.53 45.25,25.73l-20.66 17.42c-10.81,-11.02 -21.67,-17.48 -32.65,-19.48 -10.97,-1.94 -22.48,0.13 -34.53,6.18 -13.82,7.02 -23.73,16.16 -29.67,27.54 -5.94,11.34 -8.01,23.53 -6.13,36.6 1.94,13.11 5.83,25.59 11.85,37.45 7.78,15.32 16.76,27.58 26.98,36.78 10.23,9.14 21.5,14.18 33.79,15.08 12.28,0.9 23.89,-1.44 34.9,-7.02 13.35,-6.73 22.7,-16.3 28.06,-28.67 5.36,-12.41 5.87,-26.98 1.47,-43.79z"/>
  <path id="_9_27" class="fil2" d="M1521.56 716.81c-10.88,-31.7 -10.93,-59.4 -0.09,-83.21 10.83,-23.81 29.69,-40.29 56.58,-49.57 17.65,-6.11 34.97,-7.38 52.01,-3.79 17.04,3.53 31.89,11.55 44.48,24.03 12.65,12.52 22.25,28.32 28.82,47.43 6.65,19.34 8.71,37.98 6.19,55.97 -2.54,17.95 -9.63,33.32 -21.27,46.11 -11.58,12.79 -25.68,22.07 -42.29,27.77 -17.97,6.2 -35.52,7.41 -52.66,3.6 -17.14,-3.81 -31.93,-11.98 -44.38,-24.46 -12.46,-12.52 -21.6,-27.13 -27.39,-43.88zm26.18 -8.58c7.94,22.98 20.37,38.99 37.32,47.97 16.91,8.93 34.72,10.22 53.35,3.79 19.02,-6.57 32.39,-18.63 40.06,-36.21 7.67,-17.62 7.25,-38.7 -1.2,-63.27 -5.37,-15.53 -12.65,-28.19 -21.89,-37.96 -9.27,-9.77 -20.04,-16.12 -32.34,-19 -12.3,-2.93 -24.77,-2.18 -37.36,2.14 -17.88,6.19 -31.15,17.6 -39.8,34.32 -8.66,16.77 -8.01,39.5 1.86,68.22z"/>
  <path id="_10_28" class="fil2" d="M1767.91 535.92l130.06 -15.1 2.74 23.66 -103.52 11.99 7.18 61.83 47.86 -5.59c17.69,-2.01 31.95,-1.96 42.76,0.19 10.85,2.16 19.97,7.55 27.32,16.17 7.36,8.64 11.79,19.14 13.21,31.52 1.18,10.11 0.03,19.85 -3.48,29.15 -3.47,9.35 -9.38,17.28 -17.67,23.88 -8.31,6.61 -23.18,11.17 -44.69,13.64l-78.52 9.1 -23.25 -200.44zm47.17 174.79l53.08 -6.13c14.3,-1.65 24.71,-5.84 31.18,-12.51 6.46,-6.65 9.03,-15.81 7.66,-27.48 -0.96,-8.28 -3.8,-14.97 -8.54,-20.07 -4.73,-5.09 -10.88,-8.12 -18.36,-9.09 -7.53,-0.97 -20.09,-0.44 -37.68,1.57l-35.39 4.12 8.05 69.59z"/>
  <path id="_11_29" class="fil2" d="M1965.31 711.44l83.81 -199.41 28.78 0.89 76.32 204.4 -30.44 -0.97 -21.61 -61.86 -84.39 -2.61 -24.1 60.45 -28.37 -0.89zm60.84 -81.07l68.4 2.12 -19.3 -56.55c-5.91,-17.15 -10.22,-31.25 -13.02,-42.3 -2.99,12.89 -7.01,25.61 -12.06,38.22l-24.02 58.51z"/>
  <polygon id="_12_30" class="fil2" points="2189.37,660.96 2192.26,636.21 2267.87,645.13 2264.98,669.88 "/>
  <polygon id="_13_31" class="fil2" points="2363.66,542.24 2516.36,585.78 2461,779.93 2435.18,772.59 2484.03,601.35 2382.82,572.49 2334.02,743.73 2308.3,736.39 "/>
  <polygon id="_14_32" class="fil2" points="2525.28,801.85 2600.75,614.49 2625.54,624.48 2550.08,811.8 "/>
  <path id="_15_33" class="fil2" d="M2718.3 664.95l109.9 54.88 -79.53 159.31 16.26 8.12 -31.68 63.46 -21.31 -10.67 21.01 -42.11 -119.38 -59.64 -21.01 42.15 -21.36 -10.62 31.68 -63.46 14.06 6.99c25.52,-14.66 54.9,-55.34 88.17,-122.05l13.19 -26.36zm75.33 64.27l-62.95 -31.46 -4.61 9.25c-7.68,15.37 -19.53,35.7 -35.6,60.98 -16.06,25.25 -32.38,44.47 -49.01,57.63l83.3 41.6 68.87 -138z"/>
  <polygon id="_16_34" class="fil2" points="2919.22,778.92 3045.42,875.37 2922.8,1035.86 2901.46,1019.51 3009.64,878.01 2925.99,814.11 2817.81,955.61 2796.6,939.4 "/>
  <path id="_17_35" class="fil2" d="M2969.06 1079.44l146.06 -139.31 52.52 55.08c9.24,9.72 15.85,17.54 19.79,23.58 5.63,8.3 9.08,16.48 10.38,24.53 1.24,8.05 0.28,16.42 -2.95,25.16 -3.21,8.69 -8.46,16.49 -15.68,23.44 -12.44,11.81 -26.71,17.89 -42.85,18.17 -16.13,0.33 -34.03,-9.88 -53.73,-30.53l-35.74 -37.45 -59.37 56.66 -18.43 -19.33zm95.02 -53.74l36.02 37.72c11.91,12.5 22.71,19.16 32.36,19.99 9.64,0.78 18.67,-2.82 27.12,-10.89 6.08,-5.82 9.86,-12.34 11.25,-19.58 1.42,-7.24 0.41,-14.02 -3.01,-20.42 -2.24,-4.06 -7.54,-10.51 -15.89,-19.24l-35.64 -37.39 -52.21 49.81z"/>
  <polygon id="_18_36" class="fil2" points="3272.57,1117.17 3286.65,1136.94 3156.35,1229.73 3349,1224.44 3364.57,1246.33 3200.08,1363.54 3186,1343.77 3315.96,1251.21 3123.56,1256.17 3108.04,1234.38 "/>
  <path id="_19_37" class="fil2" d="M3376.08 1458.82l-21.67 9.97 -31.32 -68.26c-20.16,10.39 -33.81,23.59 -40.87,39.53 -7.1,15.99 -6.85,32.22 0.72,48.64 13.39,29.21 37.31,40.41 71.8,33.62l4.58 26.21c-45.44,7.99 -77.43,-8.23 -96.02,-48.7 -13.25,-29 -13.83,-54.82 -1.65,-77.52 12.14,-22.69 32.07,-39.84 59.81,-51.44 16.7,-7.68 33.36,-11.54 50.01,-11.55 16.66,-0.01 32.39,4.46 47.22,13.45 14.82,8.94 26.39,22.42 34.63,40.47 8.77,19.01 11.33,37.1 7.81,54.24 -3.56,17.14 -12.7,31.83 -27.39,44.01l-17.2 -20.93c22.46,-18.67 27.59,-41.23 15.44,-67.68 -8.15,-17.87 -19.98,-29.38 -35.39,-34.6 -15.42,-5.22 -32.54,-4.08 -51.35,3.33l30.84 67.21z"/>
  <path id="_20_38" class="fil2" d="M3321.53 1622.64l196.8 -45.03 8.93 39.18 -128.65 78.44c-12,7.28 -20.99,12.65 -26.96,16.08 7.67,0.61 18.96,1.69 33.91,3.25l147.7 15.79 8.03 35.04 -196.76 45.03 -5.79 -25.13 164.73 -37.69 -177.79 -19.45 -5.35 -23.53 154.48 -95.22 -167.51 38.31 -5.77 -25.07z"/>
  <polygon id="_21_39" class="fil2" points="3375.39,1873.01 3576.69,1856.6 3588.52,2002.16 3564.78,2004.09 3555.09,1885.2 3493.42,1890.24 3502.54,2001.57 3478.89,2003.5 3469.81,1892.13 3401.31,1897.74 3411.36,2021.34 3387.62,2023.27 "/>
  <polygon id="_22_40" class="fil2" points="3587.42,2096.9 3585.22,2123.51 3407.84,2108.76 3399.09,2213.55 3576.47,2228.3 3574.23,2255.06 3396.85,2240.3 3395.33,2258.68 3315.78,2252.07 3317.71,2228.47 3373.57,2233.1 3386.29,2080.16 "/>
  <path id="_23_41" class="fil2" d="M3557.14 2354.35l-6.18 25.99 -83.91 -19.92 -11.12 46.92c-5.18,21.86 -11.48,37.12 -18.88,45.77 -7.46,8.59 -16.03,14.02 -25.82,16.2 -9.74,2.24 -19.29,2.22 -28.59,0.03 -15.19,-3.62 -27.26,-11.92 -36.25,-25.02 -8.96,-13.05 -10.13,-33.7 -3.43,-61.96l17.73 -74.65 196.45 46.64zm-180.53 -15.36l-11.27 47.57c-4.57,19.27 -4.12,32.68 1.32,40.12 5.44,7.49 12.99,12.36 22.63,14.64 7.84,1.9 15.05,1.36 21.55,-1.59 6.5,-2.95 11.4,-7.78 14.66,-14.46 3.31,-6.66 6.92,-18.42 10.95,-35.33l8.23 -34.84 -68.07 -16.11z"/>
  <path id="_24_42" class="fil3 str3" d="M581.52 2413.36l-25.21 5.79 -5.6 -24.47 25.22 -5.77c-4.37,-25.36 -1.36,-46.86 9.05,-64.49 10.44,-17.64 25.82,-28.78 46.23,-33.44 19.95,-4.6 38.53,-1.44 55.69,9.42 17.17,10.83 29.44,29.07 36.82,54.71l25.35 -5.83 5.6 24.46 -25.35 5.79c4.41,23.47 1.77,44.49 -7.96,62.98 -9.75,18.52 -25.55,30.29 -47.38,35.31 -21.92,4.99 -41.25,1.31 -57.95,-11.11 -16.64,-12.47 -28.17,-30.2 -34.51,-53.35zm16.71 -29.54l103.1 -23.59c-4.7,-16.64 -12.6,-28.74 -23.75,-36.36 -11.14,-7.62 -24.55,-9.65 -40.21,-6.07 -15.38,3.52 -26.53,11.04 -33.35,22.61 -6.83,11.53 -8.76,26.01 -5.79,43.41zm5.73 24.42c4.42,16.04 12.23,28.04 23.37,36.04 11.14,8 24.64,10.16 40.45,6.54 15.66,-3.57 26.86,-11.33 33.54,-23.28 6.68,-11.94 8.52,-26.2 5.46,-42.84l-102.82 23.54z"/>
  <polygon id="_25_43" class="fil3 str3" points="724.69,2210.89 524.19,2234.14 521.12,2207.6 721.63,2184.36 "/>
  <path id="_26_44" class="fil3 str3" d="M659.86 2130.5l-7.34 -25.27c9.75,-2.24 19.4,-7.68 29.01,-16.36 9.57,-8.68 14.15,-19.96 13.7,-33.84 -0.39,-14.12 -4.37,-25.17 -11.82,-33.14 -7.52,-7.96 -16.4,-11.79 -26.66,-11.48 -11.09,0.36 -19.81,4.9 -26.13,13.73 -6.32,8.83 -9.25,20.68 -8.81,35.54l0.39 12.8 -23.28 0.7c-0.36,-12.31 -1.33,-21.68 -2.96,-28.18 -1.63,-6.45 -5.38,-12.1 -11.4,-16.95 -5.96,-4.81 -12.68,-7.13 -20.11,-6.91 -8.8,0.27 -16.37,3.92 -22.7,10.92 -6.31,7.04 -9.29,16.4 -8.94,28.06 0.31,10.16 3.11,18.78 8.42,25.84 5.29,7.07 12.21,11.83 20.66,14.34 8.47,2.51 14.81,3.7 18.91,3.56l-4.99 25.82c-43.08,-5.07 -65.18,-28.12 -66.43,-69.18 -0.57,-19.71 4.45,-35.5 15.1,-47.43 10.61,-11.89 23.28,-18.02 37.95,-18.46 18.81,-0.57 33.66,7.93 44.59,25.39 2.51,-10.34 8.08,-19.12 16.65,-26.31 8.53,-7.17 18.93,-10.97 31.17,-11.32 17.3,-0.48 32.07,5.81 44.12,18.91 12.11,13.09 18.48,30.74 19.14,52.94 1.15,38.21 -18.29,63.61 -58.24,76.28z"/>
  <polygon id="_27_45" class="fil3 str3" points="519.47,1903.92 522.31,1879.83 681.07,1898.49 534.85,1773.15 538,1746.47 738.46,1770.09 735.62,1794.14 577.29,1775.5 723.08,1900.95 719.97,1927.48 "/>
  <path id="_28_46" class="fil3 str3" d="M801.05 1571.37l-8.45 25.36 -77.25 -25.63c0.91,25.54 -1.45,46.87 -7.13,63.97 -4.43,13.34 -11.47,24.06 -21.06,32.22 -9.65,8.1 -19.77,12.3 -30.55,12.55 -10.72,0.31 -23.86,-2.15 -39.37,-7.28l-56.36 -18.7 8.45 -25.36 53.96 17.87c20.93,6.98 35.98,7.73 45.08,2.26 9.09,-5.47 15.44,-13.55 19,-24.25 5.91,-17.86 8.17,-37.96 6.77,-60.3l-93.23 -30.93 8.41 -25.36 191.73 63.58z"/>
  <polygon id="_29_47" class="fil3 str3" points="825.66,1511.58 644.98,1421.42 656.92,1397.52 731.13,1434.56 778,1340.69 703.79,1303.64 715.71,1279.74 896.39,1369.9 884.46,1393.81 799.32,1351.31 752.44,1445.19 837.59,1487.68 "/>
  <path id="_30_48" class="fil3 str3" d="M920.19 1334.87l-120.61 -179.66 16.54 -23.56 212.79 48.59 -17.48 24.93 -63.59 -15.92 -48.62 69.08 37.28 53.35 -16.31 23.19zm-34.34 -95.38l39.41 -56.03 -57.89 -14.94c-17.58,-4.51 -31.77,-8.62 -42.53,-12.35 9.16,9.53 17.57,19.9 25.33,31.07l35.68 52.25z"/>
  <path id="_31_49" class="fil3 str3" d="M1104.89 969.83c-20.85,-26.25 -30.08,-52.36 -27.8,-78.38 2.3,-26.02 14.62,-47.9 36.89,-65.59 14.58,-11.58 30.49,-18.51 47.75,-20.84 17.25,-2.33 33.91,0.28 49.94,7.88 16.07,7.59 30.37,19.29 42.9,35.1 12.72,16.03 20.88,32.93 24.44,50.74 3.6,17.76 2.03,34.61 -4.68,50.54 -6.71,15.93 -16.91,29.32 -30.64,40.25 -14.86,11.78 -31.02,18.75 -48.46,20.85 -17.39,2.14 -34.05,-0.65 -49.99,-8.3 -15.88,-7.6 -29.38,-18.36 -40.35,-32.25zm21.8 -16.78c15.14,19.02 32.16,29.96 51.08,32.8 18.97,2.84 36.17,-1.89 51.59,-14.13 15.75,-12.54 24.34,-28.33 25.72,-47.48 1.37,-19.15 -6,-38.88 -22.17,-59.22 -10.22,-12.85 -21.31,-22.35 -33.24,-28.51 -11.97,-6.15 -24.26,-8.55 -36.8,-7.18 -12.56,1.37 -24.07,6.17 -34.52,14.44 -14.77,11.78 -23.49,26.96 -26.1,45.59 -2.6,18.64 5.58,39.88 24.44,63.69z"/>
  <path id="_32_50" class="fil3 str3" d="M1461.28 771.08l26.86 -6.03c4.92,22.11 3.45,41.6 -4.33,58.45 -7.77,16.8 -21.03,29.98 -39.79,39.47 -19.45,9.83 -37.19,13.86 -53.39,12.1 -16.15,-1.76 -31.2,-8.52 -45.11,-20.33 -13.93,-11.79 -25.27,-26.25 -33.95,-43.5 -9.5,-18.74 -14.15,-36.91 -14.04,-54.5 0.11,-17.6 4.93,-33.34 14.47,-47.29 9.59,-13.94 22.31,-24.95 38.19,-32.96 18.05,-9.12 35.52,-12.16 52.43,-9.23 16.96,2.98 32.03,11.53 45.25,25.73l-20.66 17.42c-10.81,-11.02 -21.67,-17.48 -32.65,-19.48 -10.97,-1.94 -22.48,0.13 -34.53,6.18 -13.82,7.02 -23.73,16.16 -29.67,27.54 -5.94,11.34 -8.01,23.53 -6.13,36.6 1.94,13.11 5.83,25.59 11.85,37.45 7.78,15.32 16.76,27.58 26.98,36.78 10.23,9.14 21.5,14.18 33.79,15.08 12.28,0.9 23.89,-1.44 34.9,-7.02 13.35,-6.73 22.7,-16.3 28.06,-28.67 5.36,-12.41 5.87,-26.98 1.47,-43.79z"/>
  <path id="_33_51" class="fil3 str3" d="M1521.56 716.81c-10.88,-31.7 -10.93,-59.4 -0.09,-83.21 10.83,-23.81 29.69,-40.29 56.58,-49.57 17.65,-6.11 34.97,-7.38 52.01,-3.79 17.04,3.53 31.89,11.55 44.48,24.03 12.65,12.52 22.25,28.32 28.82,47.43 6.65,19.34 8.71,37.98 6.19,55.97 -2.54,17.95 -9.63,33.32 -21.27,46.11 -11.58,12.79 -25.68,22.07 -42.29,27.77 -17.97,6.2 -35.52,7.41 -52.66,3.6 -17.14,-3.81 -31.93,-11.98 -44.38,-24.46 -12.46,-12.52 -21.6,-27.13 -27.39,-43.88zm26.18 -8.58c7.94,22.98 20.37,38.99 37.32,47.97 16.91,8.93 34.72,10.22 53.35,3.79 19.02,-6.57 32.39,-18.63 40.06,-36.21 7.67,-17.62 7.25,-38.7 -1.2,-63.27 -5.37,-15.53 -12.65,-28.19 -21.89,-37.96 -9.27,-9.77 -20.04,-16.12 -32.34,-19 -12.3,-2.93 -24.77,-2.18 -37.36,2.14 -17.88,6.19 -31.15,17.6 -39.8,34.32 -8.66,16.77 -8.01,39.5 1.86,68.22z"/>
  <path id="_34_52" class="fil3 str3" d="M1767.91 535.92l130.06 -15.1 2.74 23.66 -103.52 11.99 7.18 61.83 47.86 -5.59c17.69,-2.01 31.95,-1.96 42.76,0.19 10.85,2.16 19.97,7.55 27.32,16.17 7.36,8.64 11.79,19.14 13.21,31.52 1.18,10.11 0.03,19.85 -3.48,29.15 -3.47,9.35 -9.38,17.28 -17.67,23.88 -8.31,6.61 -23.18,11.17 -44.69,13.64l-78.52 9.1 -23.25 -200.44zm47.17 174.79l53.08 -6.13c14.3,-1.65 24.71,-5.84 31.18,-12.51 6.46,-6.65 9.03,-15.81 7.66,-27.48 -0.96,-8.28 -3.8,-14.97 -8.54,-20.07 -4.73,-5.09 -10.88,-8.12 -18.36,-9.09 -7.53,-0.97 -20.09,-0.44 -37.68,1.57l-35.39 4.12 8.05 69.59z"/>
  <path id="_35_53" class="fil3 str3" d="M1965.31 711.44l83.81 -199.41 28.78 0.89 76.32 204.4 -30.44 -0.97 -21.61 -61.86 -84.39 -2.61 -24.1 60.45 -28.37 -0.89zm60.84 -81.07l68.4 2.12 -19.3 -56.55c-5.91,-17.15 -10.22,-31.25 -13.02,-42.3 -2.99,12.89 -7.01,25.61 -12.06,38.22l-24.02 58.51z"/>
  <polygon id="_36_54" class="fil3 str3" points="2189.37,660.96 2192.26,636.21 2267.87,645.13 2264.98,669.88 "/>
  <polygon id="_37_55" class="fil3 str3" points="2363.66,542.24 2516.36,585.78 2461,779.93 2435.18,772.59 2484.03,601.35 2382.82,572.49 2334.02,743.73 2308.3,736.39 "/>
  <polygon id="_38_56" class="fil3 str3" points="2525.28,801.85 2600.75,614.49 2625.54,624.48 2550.08,811.8 "/>
  <path id="_39_57" class="fil3 str3" d="M2718.3 664.95l109.9 54.88 -79.53 159.31 16.26 8.12 -31.68 63.46 -21.31 -10.67 21.01 -42.11 -119.38 -59.64 -21.01 42.15 -21.36 -10.62 31.68 -63.46 14.06 6.99c25.52,-14.66 54.9,-55.34 88.17,-122.05l13.19 -26.36zm75.33 64.27l-62.95 -31.46 -4.61 9.25c-7.68,15.37 -19.53,35.7 -35.6,60.98 -16.06,25.25 -32.38,44.47 -49.01,57.63l83.3 41.6 68.87 -138z"/>
  <polygon id="_40_58" class="fil3 str3" points="2919.22,778.92 3045.42,875.37 2922.8,1035.86 2901.46,1019.51 3009.64,878.01 2925.99,814.11 2817.81,955.61 2796.6,939.4 "/>
  <path id="_41_59" class="fil3 str3" d="M2969.06 1079.44l146.06 -139.31 52.52 55.08c9.24,9.72 15.85,17.54 19.79,23.58 5.63,8.3 9.08,16.48 10.38,24.53 1.24,8.05 0.28,16.42 -2.95,25.16 -3.21,8.69 -8.46,16.49 -15.68,23.44 -12.44,11.81 -26.71,17.89 -42.85,18.17 -16.13,0.33 -34.03,-9.88 -53.73,-30.53l-35.74 -37.45 -59.37 56.66 -18.43 -19.33zm95.02 -53.74l36.02 37.72c11.91,12.5 22.71,19.16 32.36,19.99 9.64,0.78 18.67,-2.82 27.12,-10.89 6.08,-5.82 9.86,-12.34 11.25,-19.58 1.42,-7.24 0.41,-14.02 -3.01,-20.42 -2.24,-4.06 -7.54,-10.51 -15.89,-19.24l-35.64 -37.39 -52.21 49.81z"/>
  <polygon id="_42_60" class="fil3 str3" points="3272.57,1117.17 3286.65,1136.94 3156.35,1229.73 3349,1224.44 3364.57,1246.33 3200.08,1363.54 3186,1343.77 3315.96,1251.21 3123.56,1256.17 3108.04,1234.38 "/>
  <path id="_43_61" class="fil3 str3" d="M3376.08 1458.82l-21.67 9.97 -31.32 -68.26c-20.16,10.39 -33.81,23.59 -40.87,39.53 -7.1,15.99 -6.85,32.22 0.72,48.64 13.39,29.21 37.31,40.41 71.8,33.62l4.58 26.21c-45.44,7.99 -77.43,-8.23 -96.02,-48.7 -13.25,-29 -13.83,-54.82 -1.65,-77.52 12.14,-22.69 32.07,-39.84 59.81,-51.44 16.7,-7.68 33.36,-11.54 50.01,-11.55 16.66,-0.01 32.39,4.46 47.22,13.45 14.82,8.94 26.39,22.42 34.63,40.47 8.77,19.01 11.33,37.1 7.81,54.24 -3.56,17.14 -12.7,31.83 -27.39,44.01l-17.2 -20.93c22.46,-18.67 27.59,-41.23 15.44,-67.68 -8.15,-17.87 -19.98,-29.38 -35.39,-34.6 -15.42,-5.22 -32.54,-4.08 -51.35,3.33l30.84 67.21z"/>
  <path id="_44" class="fil3 str3" d="M3321.53 1622.64l196.8 -45.03 8.93 39.18 -128.65 78.44c-12,7.28 -20.99,12.65 -26.96,16.08 7.67,0.61 18.96,1.69 33.91,3.25l147.7 15.79 8.03 35.04 -196.76 45.03 -5.79 -25.13 164.73 -37.69 -177.79 -19.45 -5.35 -23.53 154.48 -95.22 -167.51 38.31 -5.77 -25.07z"/>
  <polygon id="_45" class="fil3 str3" points="3375.39,1873.01 3576.69,1856.6 3588.52,2002.16 3564.78,2004.09 3555.09,1885.2 3493.42,1890.24 3502.54,2001.57 3478.89,2003.5 3469.81,1892.13 3401.31,1897.74 3411.36,2021.34 3387.62,2023.27 "/>
  <polygon id="_46" class="fil3 str3" points="3587.42,2096.9 3585.22,2123.51 3407.84,2108.76 3399.09,2213.55 3576.47,2228.3 3574.23,2255.06 3396.85,2240.3 3395.33,2258.68 3315.78,2252.07 3317.71,2228.47 3373.57,2233.1 3386.29,2080.16 "/>
  <path id="_47" class="fil3 str3" d="M3557.14 2354.35l-6.18 25.99 -83.91 -19.92 -11.12 46.92c-5.18,21.86 -11.48,37.12 -18.88,45.77 -7.46,8.59 -16.03,14.02 -25.82,16.2 -9.74,2.24 -19.29,2.22 -28.59,0.03 -15.19,-3.62 -27.26,-11.92 -36.25,-25.02 -8.96,-13.05 -10.13,-33.7 -3.43,-61.96l17.73 -74.65 196.45 46.64zm-180.53 -15.36l-11.27 47.57c-4.57,19.27 -4.12,32.68 1.32,40.12 5.44,7.49 12.99,12.36 22.63,14.64 7.84,1.9 15.05,1.36 21.55,-1.59 6.5,-2.95 11.4,-7.78 14.66,-14.46 3.31,-6.66 6.92,-18.42 10.95,-35.33l8.23 -34.84 -68.07 -16.11z"/>
  <path class="fil2" d="M1430.35 3273.1l-160.47 118.89c-6.79,5 -13.08,8.46 -19.03,10.43 -5.96,1.98 -11.43,2.83 -16.49,2.61 -5.12,-0.15 -9.73,-0.98 -13.89,-2.48 -4.14,-1.54 -8.09,-3.37 -11.89,-5.59 -3.37,-1.96 -7.3,-4.36 -11.73,-7.16 -4.44,-2.82 -7.3,-4.66 -8.5,-5.47l13.5 -23.2 1.77 1.03c1.22,0.88 3.02,2.16 5.49,3.89 2.48,1.67 5.72,3.67 9.69,5.99 1.86,1.08 4.11,2.27 6.75,3.51 2.67,1.27 5.35,2.02 8.04,2.26 3.15,0.27 6.34,0.04 9.66,-0.68 3.29,-0.69 7.09,-2.64 11.32,-5.85l10.07 -7.37 15.13 -178.43 27.81 16.18 -13.42 140.74 110.79 -84.08 25.4 14.78zm150.18 298.38l-34.21 -14.05 -33.39 -121.66 -16.78 -6.89 -37.93 92.36 -26.91 -11.05 82.82 -201.66 26.9 11.06 -37.36 90.98c10.73,3.98 20.19,4.78 28.43,2.33 8.2,-2.47 16.16,-7.52 23.86,-15.22 3.29,-3.41 6.36,-6.68 9.15,-9.8 2.82,-3.16 5.15,-5.83 7.01,-7.98 11.77,-13.26 23.03,-21.07 33.83,-23.44 10.81,-2.37 23.66,-0.5 38.59,5.63l8.27 3.4 -9.79 23.86 -6.8 -2.79c-11,-4.52 -19.62,-5.52 -25.84,-2.99 -6.17,2.53 -13.58,9 -22.23,19.39 -8.6,10.41 -16.35,17.43 -23.19,21.11 -6.91,3.65 -14.47,6.27 -22.73,7.84l38.3 139.57zm281.38 -97.86c-1.8,9.33 -5.17,17.78 -10.07,25.44 -4.89,7.65 -10.82,13.83 -17.75,18.55 -8.76,5.84 -18.47,9.71 -29.15,11.51 -10.64,1.81 -23.55,1.24 -38.77,-1.7l-24.03 -4.66 -15.46 79.78 -28.55 -5.53 41.45 -214.02 53.62 10.38c12.66,2.45 23.21,5.57 31.68,9.4 8.47,3.83 15.66,8.78 21.58,14.77 6.83,7.02 11.72,15.14 14.61,24.41 2.84,9.25 3.14,19.8 0.84,31.67zm-29.87 -5.07c1.42,-7.31 1.38,-13.93 -0.08,-19.82 -1.5,-5.94 -4.47,-11.1 -8.91,-15.46 -3.94,-3.87 -8.74,-6.94 -14.44,-9.32 -5.7,-2.38 -12.98,-4.45 -21.87,-6.17l-23.39 -4.53 -16.42 84.78 19.28 3.74c11.42,2.21 20.83,3.06 28.25,2.57 7.38,-0.46 13.86,-2.67 19.49,-6.46 5,-3.51 8.93,-7.54 11.83,-12.22 2.89,-4.69 4.96,-10.39 6.26,-17.11zm105.22 163.72l82.17 -214.91 35.75 1.43 64.86 220.75 -30.67 -1.22 -17.27 -61.31 -83.39 -3.31 -22.03 59.74 -29.42 -1.17zm127.65 -80.75l-29.49 -103.61 -37.53 100.94 67.02 2.67zm251.24 64.08l-84.32 9.51 -2.49 -22.05 27.71 -3.13 -19.45 -172.52 -27.71 3.12 -2.49 -22.05 84.33 -9.51 2.48 22.05 -27.7 3.13 19.45 172.52 27.7 -3.12 2.49 22.05zm-24.83 -244.34l-28.9 3.25 -3.19 -28.3 28.9 -3.26 3.19 28.31zm-60.49 6.81l-28.9 3.26 -3.19 -28.3 28.9 -3.26 3.19 28.3zm368.16 158.43l-27.29 10.08 -37 -100.13 -93.66 34.6 37 100.14 -27.29 10.08 -75.55 -204.49 27.28 -10.08 29.62 80.16 93.66 -34.61 -29.62 -80.16 27.29 -10.08 75.56 204.49zm112.4 -44.91l-28.65 -228.29 32.22 -15.57 161.11 164.25 -27.63 13.36 -44.09 -45.97 -75.14 36.33 8.68 63.08 -26.5 12.81zm74.62 -131.33l-74.78 -77.53 14.39 106.73 60.39 -29.2z"/>
  <path id="_1_62" class="fil3 str3" d="M1430.35 3273.1l-160.47 118.89c-6.79,5 -13.08,8.46 -19.03,10.43 -5.96,1.98 -11.43,2.83 -16.49,2.61 -5.12,-0.15 -9.73,-0.98 -13.89,-2.48 -4.14,-1.54 -8.09,-3.37 -11.89,-5.59 -3.37,-1.96 -7.3,-4.36 -11.73,-7.16 -4.44,-2.82 -7.3,-4.66 -8.5,-5.47l13.5 -23.2 1.77 1.03c1.22,0.88 3.02,2.16 5.49,3.89 2.48,1.67 5.72,3.67 9.69,5.99 1.86,1.08 4.11,2.27 6.75,3.51 2.67,1.27 5.35,2.02 8.04,2.26 3.15,0.27 6.34,0.04 9.66,-0.68 3.29,-0.69 7.09,-2.64 11.32,-5.85l10.07 -7.37 15.13 -178.43 27.81 16.18 -13.42 140.74 110.79 -84.08 25.4 14.78zm150.18 298.38l-34.21 -14.05 -33.39 -121.66 -16.78 -6.89 -37.93 92.36 -26.91 -11.05 82.82 -201.66 26.9 11.06 -37.36 90.98c10.73,3.98 20.19,4.78 28.43,2.33 8.2,-2.47 16.16,-7.52 23.86,-15.22 3.29,-3.41 6.36,-6.68 9.15,-9.8 2.82,-3.16 5.15,-5.83 7.01,-7.98 11.77,-13.26 23.03,-21.07 33.83,-23.44 10.81,-2.37 23.66,-0.5 38.59,5.63l8.27 3.4 -9.79 23.86 -6.8 -2.79c-11,-4.52 -19.62,-5.52 -25.84,-2.99 -6.17,2.53 -13.58,9 -22.23,19.39 -8.6,10.41 -16.35,17.43 -23.19,21.11 -6.91,3.65 -14.47,6.27 -22.73,7.84l38.3 139.57zm281.38 -97.86c-1.8,9.33 -5.17,17.78 -10.07,25.44 -4.89,7.65 -10.82,13.83 -17.75,18.55 -8.76,5.84 -18.47,9.71 -29.15,11.51 -10.64,1.81 -23.55,1.24 -38.77,-1.7l-24.03 -4.66 -15.46 79.78 -28.55 -5.53 41.45 -214.02 53.62 10.38c12.66,2.45 23.21,5.57 31.68,9.4 8.47,3.83 15.66,8.78 21.58,14.77 6.83,7.02 11.72,15.14 14.61,24.41 2.84,9.25 3.14,19.8 0.84,31.67zm-29.87 -5.07c1.42,-7.31 1.38,-13.93 -0.08,-19.82 -1.5,-5.94 -4.47,-11.1 -8.91,-15.46 -3.94,-3.87 -8.74,-6.94 -14.44,-9.32 -5.7,-2.38 -12.98,-4.45 -21.87,-6.17l-23.39 -4.53 -16.42 84.78 19.28 3.74c11.42,2.21 20.83,3.06 28.25,2.57 7.38,-0.46 13.86,-2.67 19.49,-6.46 5,-3.51 8.93,-7.54 11.83,-12.22 2.89,-4.69 4.96,-10.39 6.26,-17.11zm105.22 163.72l82.17 -214.91 35.75 1.43 64.86 220.75 -30.67 -1.22 -17.27 -61.31 -83.39 -3.31 -22.03 59.74 -29.42 -1.17zm127.65 -80.75l-29.49 -103.61 -37.53 100.94 67.02 2.67zm251.24 64.08l-84.32 9.51 -2.49 -22.05 27.71 -3.13 -19.45 -172.52 -27.71 3.12 -2.49 -22.05 84.33 -9.51 2.48 22.05 -27.7 3.13 19.45 172.52 27.7 -3.12 2.49 22.05zm-24.83 -244.34l-28.9 3.25 -3.19 -28.3 28.9 -3.26 3.19 28.31zm-60.49 6.81l-28.9 3.26 -3.19 -28.3 28.9 -3.26 3.19 28.3zm368.16 158.43l-27.29 10.08 -37 -100.13 -93.66 34.6 37 100.14 -27.29 10.08 -75.55 -204.49 27.28 -10.08 29.62 80.16 93.66 -34.61 -29.62 -80.16 27.29 -10.08 75.56 204.49zm112.4 -44.91l-28.65 -228.29 32.22 -15.57 161.11 164.25 -27.63 13.36 -44.09 -45.97 -75.14 36.33 8.68 63.08 -26.5 12.81zm74.62 -131.33l-74.78 -77.53 14.39 106.73 60.39 -29.2z"/>
 </g>
</svg>
