<?xml version="1.0" encoding="UTF-8"?>
<!DOCTYPE svg PUBLIC "-//W3C//DTD SVG 1.1//EN" "http://www.w3.org/Graphics/SVG/1.1/DTD/svg11.dtd">
<!-- Creator: CorelDRAW 2019 (64-Bit) -->
<svg xmlns="http://www.w3.org/2000/svg" xml:space="preserve" width="41mm" height="41mm" version="1.1" style="shape-rendering:geometricPrecision; text-rendering:geometricPrecision; image-rendering:optimizeQuality; fill-rule:evenodd; clip-rule:evenodd"
viewBox="0 0 4100 4100"
 xmlns:xlink="http://www.w3.org/1999/xlink"
 xmlns:xodm="http://www.corel.com/coreldraw/odm/2003">
 <defs>
  <style type="text/css">
   <![CDATA[
    .str3 {stroke:#393185;stroke-width:35;stroke-miterlimit:22.9256}
    .str2 {stroke:#393185;stroke-width:35.27;stroke-miterlimit:22.9256}
    .str0 {stroke:#393185;stroke-width:7.62;stroke-miterlimit:22.9256}
    .str1 {stroke:#393185;stroke-width:25;stroke-linecap:round;stroke-linejoin:round;stroke-miterlimit:22.9256}
    .str4 {stroke:#393185;stroke-width:20;stroke-linecap:round;stroke-linejoin:round;stroke-miterlimit:22.9256}
    .fil1 {fill:none}
    .fil3 {fill:none;fill-rule:nonzero}
    .fil0 {fill:#393185}
    .fil2 {fill:#393185;fill-rule:nonzero}
   ]]>
  </style>
 </defs>
 <g id="Слой_x0020_1">
  <metadata id="CorelCorpID_0Corel-Layer"/>
  <path class="fil0 str0" d="M355.49 1513.06c219.29,-720.14 895.8,-1246.29 1694.51,-1246.29 798.72,-0.01 1475.24,526.15 1694.51,1246.29l210.54 0c-224.59,-832.75 -992.22,-1446.29 -1905.05,-1446.29 -912.82,-0.01 -1680.44,613.54 -1905.02,1446.29l210.51 0z"/>
  <polygon class="fil0 str0" points="187.47,1745.35 205.19,1799.89 262.53,1799.89 216.14,1833.59 233.86,1888.12 187.47,1854.42 141.08,1888.12 158.8,1833.59 112.41,1799.89 169.75,1799.89 "/>
  <path class="fil0 str1" d="M2912.46 3045.37c-4.29,10.62 -15.99,19.38 -28.33,26.47 -17.85,10.26 -39.27,17.79 -60.9,24.06 -60.01,17.14 -128.16,25.14 -192.14,24.67 -13.03,-0.1 -29.51,-0.76 -44.28,-1.72 -15.54,-1.01 -31,-2.53 -46.36,-4.38 -30.71,-3.73 -60.95,-9.32 -90.25,-16.39 -56.93,-13.74 -110.45,-34.37 -155.3,-61.14 44.1,-26.31 96.2,-46.27 151.83,-60.27 29.08,-7.32 59.37,-12.87 89.95,-16.77 15.3,-1.96 30.74,-3.49 46.25,-4.6 6.92,-0.49 15.03,-0.97 21.21,-1.24 3.93,-0.16 7.87,-0.31 11.8,-0.42 1.97,-0.07 3.94,-0.12 5.91,-0.16 1.32,-0.03 2.64,-0.06 3.95,-0.08 1.33,-0.02 2.01,-0.04 2.04,-0.04 30.95,-0.38 62.72,1.59 94.59,5.63 32.73,4.15 64.97,10.65 95.52,19.37 27.76,7.92 55.64,17.96 76.88,32.33 14.03,9.5 23.01,21.41 17.63,34.68zm-759.41 61.09c-34.32,22.67 -68.64,45.35 -102.96,68.03 -29.72,-19.64 -59.45,-39.28 -89.17,-58.92 -39.53,-26.12 -79.06,-52.24 -118.6,-78.37 -0.13,-0.08 -0.26,-0.17 -0.39,-0.26 35.07,-23.17 70.13,-46.34 105.2,-69.51 34.32,-22.68 68.64,-45.36 102.96,-68.03 29.72,19.64 59.45,39.28 89.17,58.92 39.53,26.12 79.06,52.25 118.59,78.37 0.14,0.08 0.26,0.17 0.4,0.25 -35.07,23.18 -70.14,46.35 -105.2,69.52zm-589.55 7.53c-15.3,1.96 -30.75,3.5 -46.25,4.6 -6.91,0.49 -15.02,0.97 -21.22,1.24 -3.93,0.17 -7.86,0.3 -11.79,0.42 -1.98,0.06 -3.94,0.11 -5.92,0.16 -1.31,0.03 -2.63,0.06 -3.95,0.08 -1.48,0.02 -2.15,0.03 -2.02,0.04 -3.73,0.05 -7.47,0.06 -11.2,0.07 -63.88,-0.09 -132.7,-8.95 -192.01,-27.02 -25.71,-7.84 -52.19,-18.14 -69.63,-33.12 -11.84,-10.19 -17.66,-22.97 -9.72,-35.13 9.91,-15.15 33.48,-25.92 54.24,-34.17 28.68,-11.39 60.44,-19.46 92.57,-25.58 32.22,-6.16 65.39,-10.05 98.85,-11.7 29.25,-1.44 57.13,-0.58 87.96,1.87 103.21,8.22 204.64,35.11 281.87,81.19 -44.1,26.32 -96.2,46.28 -151.83,60.27 -29.09,7.33 -59.37,12.88 -89.95,16.78zm1383.85 -84.6c-6.19,-14.53 -27.15,-25.71 -45.24,-33.91 -27.1,-12.31 -58.14,-20.89 -89.28,-27.78 -67.39,-14.89 -139.24,-19.71 -210.05,-17.39 -65.38,2.15 -130.1,10.46 -191.24,25.85 -48.28,12.14 -93.93,29.05 -133.82,50.59 -30.41,-20.09 -60.82,-40.18 -91.22,-60.27 -39.53,-26.12 -79.07,-52.24 -118.6,-78.37 -0.35,-0.23 -0.72,-0.47 -1.09,-0.72 -1.41,-0.41 -2.9,-0.68 -4.46,-0.79 -4.03,-0.41 -8.17,-0.52 -12.26,-0.52 -2.93,0 -5.84,0.07 -8.75,0.24 -1.68,0.11 -6.57,0.13 -7.98,1.07 -35.3,23.33 -70.59,46.65 -105.9,69.98 -35,23.12 -70,46.26 -105,69.38 -91.27,-49.27 -209.77,-72.66 -327.03,-76.5 -70.9,-2.32 -142.59,2.98 -209.98,17.88 -31.14,6.87 -61.79,15.72 -88.85,28.01 -18.16,8.24 -37.9,19.46 -44.06,33.92 -5.49,12.91 5.6,25.7 18.2,35.11 19.65,14.67 47.5,24.47 74.45,32.16 64.27,18.36 135.73,25.94 205.51,26.77 1.42,0.02 2.84,0.02 4.27,0.03 3.01,0.07 5.59,0.04 6.18,0.04 0.58,0 3.14,0.03 6.13,-0.03 125.03,-0.83 252.38,-22.98 351.06,-74.77 1.39,-0.73 2.73,-1.49 4.11,-2.24 30.4,20.09 60.82,40.18 91.22,60.28 39.54,26.12 79.07,52.24 118.6,78.36 0.36,0.24 0.73,0.48 1.09,0.73 1.42,0.41 2.91,0.67 4.46,0.79 4.05,0.41 8.18,0.52 12.27,0.52 2.93,0 5.84,-0.08 8.75,-0.25 1.68,-0.1 6.57,-0.13 7.97,-1.06 35.3,-23.33 70.6,-46.66 105.91,-69.98 35,-23.13 70,-46.26 105,-69.39 91.27,49.28 209.76,72.67 327.02,76.51 85.05,2.78 173.47,-4.37 251.95,-26.8 26.97,-7.82 54.03,-17.69 73.69,-32.38 12.77,-9.54 22.44,-22.21 16.97,-35.07z"/>
  <line class="fil1 str2" x1="915.23" y1="2145.36" x2="3131.86" y2= "2145.36" />
  <path class="fil1 str3" d="M3654.86 1730.06c27.48,1.5 50.59,21.96 54.51,49.21 11.11,77.59 17.1,156.82 17.1,237.5 0,925.89 -750.57,1676.47 -1676.47,1676.47 -925.89,0 -1676.48,-750.58 -1676.48,-1676.47 0,-80.68 6.01,-159.91 17.14,-237.5 3.9,-27.25 26.99,-47.71 54.48,-49.21l158.01 -8.63c26.14,-1.43 47.73,-20.09 53.93,-45.53 152.99,-627.32 718.49,-1093.02 1392.92,-1093.02 674.44,0 1239.94,465.7 1392.91,1093.02 6.21,25.44 27.8,44.1 53.94,45.53l158.01 8.63z"/>
  <circle class="fil1" cx="2050" cy="2050" r="2000"/>
  <path class="fil2" d="M265.71 2237.57l22.29 -2.86 2.79 21.8 -22.29 2.86c1.69,22.48 -2.8,40.98 -13.42,55.46 -10.63,14.51 -25.03,22.92 -43.24,25.25 -17.83,2.29 -33.78,-2.02 -47.89,-12.95 -14.05,-10.93 -23.24,-27.84 -27.46,-50.83l-22.54 2.89 -2.8 -21.8 22.54 -2.89c-1.85,-20.85 2.27,-38.93 12.38,-54.25 10.06,-15.31 24.9,-24.22 44.41,-26.73 19.56,-2.5 36.12,2.38 49.63,14.63 13.53,12.25 22.03,28.71 25.6,49.42zm-17.04 24.34l-92.35 11.84c2.66,14.89 8.54,26.09 17.64,33.67 9.11,7.6 20.68,10.47 34.72,8.67 13.8,-1.77 24.16,-7.38 31.16,-16.86 6.96,-9.49 9.89,-21.9 8.83,-37.32zm-3.05 -21.77c-2.51,-14.37 -8.25,-25.5 -17.31,-33.42 -9.07,-7.93 -20.67,-11 -34.83,-9.18 -14.01,1.79 -24.42,7.61 -31.29,17.45 -6.87,9.84 -9.64,22.16 -8.42,36.93l91.85 -11.78zm-100.95 224.54l172.28 -39.77 5.27 22.85 -172.28 39.77 -5.27 -22.85zm79.72 117.55l12.49 19.24c-7.57,4.34 -14.23,11.36 -19.99,21.05 -5.76,9.72 -6.7,20.29 -2.82,31.79 3.95,11.7 10.08,19.92 18.41,24.66 8.29,4.72 16.72,5.65 25.25,2.77 9.21,-3.11 15.39,-9.14 18.4,-18.11 3.06,-8.94 2.51,-19.57 -1.63,-31.82l-3.57 -10.57 19.42 -6.55c3.43,10.13 6.63,17.7 9.62,22.68 2.98,4.99 7.59,8.73 13.83,11.23 6.19,2.52 12.38,2.73 18.54,0.65 7.26,-2.45 12.67,-7.41 16.14,-14.88 3.48,-7.43 3.59,-15.99 0.35,-25.58 -2.84,-8.42 -7.38,-14.88 -13.62,-19.38 -6.26,-4.48 -13.25,-6.69 -21.01,-6.62 -7.75,0.09 -13.35,0.73 -16.79,1.89l-2.27 -22.96c37.32,-6.78 61.71,6.79 73.16,40.67 5.52,16.34 5.32,30.78 -0.54,43.41 -5.86,12.62 -14.85,21 -27.02,25.11 -15.59,5.26 -30.17,1.98 -43.72,-9.86 0.5,9.34 -1.93,18.11 -7.23,26.33 -5.36,8.19 -13.08,14.02 -23.21,17.44 -14.43,4.88 -28.36,3.36 -41.84,-4.51 -13.47,-7.87 -23.34,-21.01 -29.55,-39.4 -10.69,-31.67 -0.96,-57.89 29.2,-78.68zm197.17 169.81l8.75 19.36 -127.59 57.66 166.35 28.11 9.55 21.11 -161.12 72.82 -8.75 -19.36 127.25 -57.51 -165.91 -28.03 -9.65 -21.34 161.12 -72.82zm25.42 409.56l-12.68 -19.74 59.92 -38.46c-17.89,-13.46 -31.12,-26.84 -39.64,-40.1 -6.64,-10.35 -10.09,-21.05 -10.3,-32.06 -0.28,-11.03 2.47,-20.28 8.21,-27.72 5.74,-7.45 14.59,-15.05 26.65,-22.79l43.78 -28.11 12.67 19.74 -41.94 26.93c-16.24,10.43 -25.05,20.24 -26.37,29.46 -1.3,9.18 0.72,17.97 6.06,26.28 8.91,13.88 21.35,26.49 37.33,37.8l72.42 -46.49 12.67 19.74 -148.78 95.52zm72.03 98.27l133.71 -115.68 15.35 17.74 -55.1 47.67 59.79 69.09 55.09 -47.66 15.35 17.74 -133.71 115.69 -15.35 -17.75 62.93 -54.45 -59.78 -69.09 -62.93 54.45 -15.35 -17.75zm159.03 180.52l167.14 -89.04 19.42 16.86 -61.57 180.7 -20.11 -17.46 19.7 -53.87 -56.22 -48.81 -49.62 27.89 -18.74 -16.27zm86.01 -21.47l45.49 39.5 18.22 -49.1c5.58,-14.89 10.47,-26.94 14.64,-36.19 -9.4,7.11 -19.27,13.53 -29.69,19.31l-48.66 26.48zm284.2 204.69c14.59,-25.41 32.89,-41.39 54.82,-47.92 21.92,-6.54 43.67,-3.58 65.3,8.84 14.17,8.13 24.97,18.85 32.47,32.13 7.49,13.25 10.74,27.66 9.76,43.18 -0.97,15.49 -5.84,30.92 -14.63,46.22 -8.92,15.54 -20.05,27.65 -33.36,36.28 -13.33,8.67 -27.55,12.85 -42.65,12.53 -15.16,-0.31 -29.38,-4.3 -42.69,-11.94 -14.46,-8.3 -25.34,-19.2 -32.72,-32.7 -7.35,-13.47 -10.54,-27.92 -9.46,-43.35 1.05,-15.39 5.43,-29.81 13.16,-43.27zm20.78 12.41c-10.59,18.45 -13.97,35.83 -10.13,52.13 3.83,16.3 13.23,28.76 28.22,37.37 15.28,8.77 30.88,10.62 46.91,5.59 16.01,-5.06 29.66,-17.43 40.98,-37.13 7.15,-12.45 11.29,-24.55 12.4,-36.25 1.13,-11.7 -0.91,-22.45 -6.09,-32.21 -5.2,-9.78 -12.83,-17.57 -22.92,-23.37 -14.35,-8.24 -29.53,-10.41 -45.53,-6.5 -16.01,3.9 -30.62,17.35 -43.84,40.37zm324.09 184.18l19.67 14.09c-11.58,16.1 -25.12,26.48 -40.65,31.22 -15.52,4.73 -31.84,3.76 -48.97,-2.97 -17.7,-6.95 -30.69,-16.21 -38.96,-27.81 -8.28,-11.56 -12.6,-25.34 -13.01,-41.28 -0.4,-15.98 2.46,-31.8 8.62,-47.5 6.73,-17.13 15.86,-30.79 27.41,-40.97 11.56,-10.19 24.68,-16.22 39.35,-18.11 14.67,-1.89 29.25,0.04 43.74,5.73 16.47,6.47 28.66,16.06 36.55,28.85 7.93,12.8 11.12,27.64 9.57,44.53l-23.37 -3.34c0.91,-13.44 -1.22,-24.36 -6.32,-32.64 -5.09,-8.32 -13.13,-14.62 -24.13,-18.94 -12.6,-4.95 -24.36,-6.08 -35.21,-3.35 -10.84,2.73 -20.02,8.54 -27.44,17.39 -7.46,8.88 -13.32,18.74 -17.57,29.57 -5.5,13.99 -8.27,27.01 -8.3,39.02 -0.05,12.05 3.22,22.31 9.76,30.85 6.56,8.54 14.82,14.75 24.82,18.68 12.18,4.78 23.83,5.29 35.02,1.59 11.19,-3.74 20.98,-11.91 29.42,-24.61zm111.38 16.69c6.58,-28.56 19.44,-49.16 38.52,-61.78 19.08,-12.63 40.75,-16.13 65.05,-10.53 15.93,3.67 29.37,10.78 40.41,21.31 11.01,10.51 18.32,23.35 21.89,38.49 3.57,15.09 3.39,31.28 -0.57,48.48 -4.02,17.45 -11.15,32.28 -21.38,44.4 -10.24,12.17 -22.63,20.3 -37.17,24.39 -14.59,4.11 -29.36,4.42 -44.32,0.97 -16.24,-3.74 -29.82,-11 -40.8,-21.77 -10.95,-10.76 -18.2,-23.66 -21.66,-38.73 -3.46,-15.04 -3.46,-30.11 0.03,-45.23zm23.49 5.83c-4.78,20.74 -2.97,38.34 5.45,52.83 8.4,14.48 21.02,23.67 37.87,27.56 17.16,3.95 32.62,1.18 46.51,-8.29 13.84,-9.49 23.31,-25.3 28.41,-47.44 3.22,-13.99 3.67,-26.76 1.34,-38.28 -2.32,-11.53 -7.4,-21.22 -15.19,-29.05 -7.82,-7.85 -17.38,-13.09 -28.73,-15.7 -16.12,-3.72 -31.28,-1.38 -45.45,7.01 -14.18,8.38 -24.25,25.5 -30.21,51.36zm256.18 -39.62l113.9 14.61 -2.64 20.57 -90.63 -11.62 -6.94 54.13 41.88 5.37c15.48,1.99 27.57,5.03 36.33,9.18 8.77,4.12 15.37,10.6 19.83,19.52 4.46,8.87 5.98,18.73 4.58,29.59 -1.13,8.86 -4.16,16.89 -9.1,24.06 -4.95,7.21 -11.64,12.74 -20.09,16.59 -8.42,3.86 -22.09,4.6 -40.91,2.19l-68.7 -8.82 22.49 -175.37zm3.32 158.52l46.42 5.95c12.53,1.61 22.25,0.29 29.19,-4.02 6.89,-4.29 11.02,-11.53 12.32,-21.7 0.93,-7.26 -0.09,-13.53 -3.06,-18.85 -2.96,-5.32 -7.53,-9.18 -13.69,-11.59 -6.22,-2.41 -17.01,-4.58 -32.4,-6.56l-30.99 -3.97 -7.79 60.74zm191.76 39.89l63.57 -178.39 25.71 -0.62 76.2 175.04 -26.62 0.64 -21.73 -53.09 -74.43 1.79 -17.89 54.03 -24.81 0.6zm49.11 -73.8l60.24 -1.45 -19.62 -48.56c-5.9,-14.76 -10.4,-26.96 -13.55,-36.61 -2.15,11.59 -5.13,22.98 -8.94,34.27l-18.13 52.35zm198.99 11.46l-2.76 -21.56 66.62 -8.54 2.76 21.55 -66.62 8.55zm141.63 -143.22l135.22 -31.22 39.77 172.28 -22.86 5.28 -35.1 -152.07 -89.51 20.66 35.11 152.07 -22.86 5.28 -39.77 -172.28zm294.39 104.91l-56.58 -167.51 22.22 -7.51 56.58 167.51 -22.22 7.51zm79.77 -218.4l98.11 -44.34 64.27 142.22 14.41 -6.51 25.53 56.48 -18.91 8.54 -16.99 -37.58 -106.66 48.21 16.98 37.58 -18.9 8.54 -25.52 -56.48 12.37 -5.59c4.2,-25.48 -7.15,-68 -34.04,-127.52l-10.65 -23.55zm85.27 -15.78l-56.25 25.42 3.73 8.26c6.2,13.72 13.46,33.07 21.74,58.01 8.33,24.91 12.3,46.69 12.03,65.29l74.48 -33.66 -55.73 -123.32zm101.72 -75.15l116.78 -74.99 95.53 148.78 -19.74 12.67 -84.32 -131.32 -77.3 49.63 84.33 131.33 -19.74 12.67 -95.54 -148.77zm309.91 2.62l-109.22 -139.05 52.51 -41.24c9.22,-7.24 16.63,-12.33 22.21,-15.3 7.72,-4.22 15.15,-6.56 22.27,-7.02 7.14,-0.44 14.37,1.11 21.69,4.63 7.31,3.51 13.66,8.73 19.08,15.63 9.25,11.78 13.35,24.72 12.22,38.81 -1.08,14.09 -11.51,28.86 -31.18,44.32l-35.67 28.02 44.54 56.71 -18.45 14.49zm-38.9 -87.51l35.93 -28.22c11.9,-9.36 18.59,-18.17 20.12,-26.54 1.5,-8.36 -0.88,-16.53 -7.21,-24.59 -4.55,-5.79 -9.92,-9.63 -16.13,-11.46 -6.19,-1.83 -12.23,-1.52 -18.07,0.91 -3.74,1.63 -9.81,5.71 -18.13,12.24l-35.57 27.94 39.06 49.72zm97.13 -197.24l14.65 -15.38 101.39 96.58 -36.47 -164.73 15.98 -16.77 128.02 121.95 -14.65 15.38 -101.11 -96.32 36.37 164.29 -16.15 16.95 -128.03 -121.95zm265.8 -199.7l16.91 12.02 -38.05 53.54c16.66,10.73 32.58,15.27 47.76,13.64 15.19,-1.68 27.38,-8.97 36.58,-21.92 16.33,-22.98 14.44,-46.04 -5.7,-69.14l17.85 -14.88c25.89,30.93 27.53,62.28 4.9,94.12 -16.16,22.75 -35.51,34.49 -58.06,35.19 -22.54,0.73 -44.23,-6.9 -65.17,-22.83 -13.08,-9.3 -23.29,-20.3 -30.6,-32.91 -7.27,-12.64 -10.74,-26.57 -10.41,-41.74 0.32,-15.17 5.54,-29.83 15.6,-43.99 10.63,-14.96 23.21,-24.86 37.75,-29.67 14.53,-4.83 29.64,-4.34 45.32,1.45l-8.48 22.15c-23.88,-8.74 -43.22,-2.69 -58.05,18.17 -9.99,14.06 -13.6,28.1 -10.79,42.12 2.75,14.03 11.13,26.54 25.02,37.62l37.62 -52.94zm178.56 -87.89l-157.27 -80.8 16.03 -31.19 130.43 20c12.13,1.88 21.17,3.38 27.14,4.45 -4.8,-4.72 -11.76,-11.86 -20.9,-21.37l-89.94 -94.05 14.31 -27.86 157.27 80.8 -10.26 19.98 -131.58 -67.59 107.99 113.5 -9.63 18.74 -157.3 -23.43 133.98 68.83 -10.27 19.99zm125.12 -260.52l-167.54 -56.48 40.78 -120.98 19.65 6.63 -33.29 98.75 51.49 17.35 31.15 -92.43 19.66 6.63 -31.16 92.43 57.1 19.25 34.63 -102.72 19.65 6.62 -42.12 124.95zm-98.73 -275.43l5.27 -22.86 152.09 35.04 20.62 -89.51 -152.09 -35.04 5.27 -22.86 152.09 35.03 3.6 -15.64 68.09 15.69 -4.65 20.21 -47.89 -11.03 -30.1 130.67 -172.3 -39.7zm43.42 -234.77l1.77 -23.39 75.11 5.71 3.19 -41.98c1.49,-19.62 4.86,-33.65 10.09,-42.12 5.27,-8.43 11.99,-14.28 20.12,-17.54 8.17,-3.22 16.44,-4.53 24.77,-3.89 13.67,1.04 25.3,6.58 34.85,16.68 9.6,10.05 13.41,27.72 11.48,53.04l-5.08 66.9 -176.3 -13.41zm158.13 -11.5l3.24 -42.6c1.32,-17.28 -0.91,-28.76 -6.62,-34.47 -5.72,-5.68 -12.95,-8.87 -21.61,-9.53 -7.01,-0.53 -13.15,0.9 -18.37,4.34 -5.21,3.4 -8.8,8.25 -10.71,14.45 -1.92,6.22 -3.47,16.87 -4.62,31.98l-2.37 31.19 61.06 4.64z"/>
  <path id="_1" class="fil3 str4" d="M265.71 2237.57l22.29 -2.86 2.79 21.8 -22.29 2.86c1.69,22.48 -2.8,40.98 -13.42,55.46 -10.63,14.51 -25.03,22.92 -43.24,25.25 -17.83,2.29 -33.78,-2.02 -47.89,-12.95 -14.05,-10.93 -23.24,-27.84 -27.46,-50.83l-22.54 2.89 -2.8 -21.8 22.54 -2.89c-1.85,-20.85 2.27,-38.93 12.38,-54.25 10.06,-15.31 24.9,-24.22 44.41,-26.73 19.56,-2.5 36.12,2.38 49.63,14.63 13.53,12.25 22.03,28.71 25.6,49.42zm-17.04 24.34l-92.35 11.84c2.66,14.89 8.54,26.09 17.64,33.67 9.11,7.6 20.68,10.47 34.72,8.67 13.8,-1.77 24.16,-7.38 31.16,-16.86 6.96,-9.49 9.89,-21.9 8.83,-37.32zm-3.05 -21.77c-2.51,-14.37 -8.25,-25.5 -17.31,-33.42 -9.07,-7.93 -20.67,-11 -34.83,-9.18 -14.01,1.79 -24.42,7.61 -31.29,17.45 -6.87,9.84 -9.64,22.16 -8.42,36.93l91.85 -11.78zm-100.95 224.54l172.28 -39.77 5.27 22.85 -172.28 39.77 -5.27 -22.85zm79.72 117.55l12.49 19.24c-7.57,4.34 -14.23,11.36 -19.99,21.05 -5.76,9.72 -6.7,20.29 -2.82,31.79 3.95,11.7 10.08,19.92 18.41,24.66 8.29,4.72 16.72,5.65 25.25,2.77 9.21,-3.11 15.39,-9.14 18.4,-18.11 3.06,-8.94 2.51,-19.57 -1.63,-31.82l-3.57 -10.57 19.42 -6.55c3.43,10.13 6.63,17.7 9.62,22.68 2.98,4.99 7.59,8.73 13.83,11.23 6.19,2.52 12.38,2.73 18.54,0.65 7.26,-2.45 12.67,-7.41 16.14,-14.88 3.48,-7.43 3.59,-15.99 0.35,-25.58 -2.84,-8.42 -7.38,-14.88 -13.62,-19.38 -6.26,-4.48 -13.25,-6.69 -21.01,-6.62 -7.75,0.09 -13.35,0.73 -16.79,1.89l-2.27 -22.96c37.32,-6.78 61.71,6.79 73.16,40.67 5.52,16.34 5.32,30.78 -0.54,43.41 -5.86,12.62 -14.85,21 -27.02,25.11 -15.59,5.26 -30.17,1.98 -43.72,-9.86 0.5,9.34 -1.93,18.11 -7.23,26.33 -5.36,8.19 -13.08,14.02 -23.21,17.44 -14.43,4.88 -28.36,3.36 -41.84,-4.51 -13.47,-7.87 -23.34,-21.01 -29.55,-39.4 -10.69,-31.67 -0.96,-57.89 29.2,-78.68zm197.17 169.81l8.75 19.36 -127.59 57.66 166.35 28.11 9.55 21.11 -161.12 72.82 -8.75 -19.36 127.25 -57.51 -165.91 -28.03 -9.65 -21.34 161.12 -72.82zm25.42 409.56l-12.68 -19.74 59.92 -38.46c-17.89,-13.46 -31.12,-26.84 -39.64,-40.1 -6.64,-10.35 -10.09,-21.05 -10.3,-32.06 -0.28,-11.03 2.47,-20.28 8.21,-27.72 5.74,-7.45 14.59,-15.05 26.65,-22.79l43.78 -28.11 12.67 19.74 -41.94 26.93c-16.24,10.43 -25.05,20.24 -26.37,29.46 -1.3,9.18 0.72,17.97 6.06,26.28 8.91,13.88 21.35,26.49 37.33,37.8l72.42 -46.49 12.67 19.74 -148.78 95.52zm72.03 98.27l133.71 -115.68 15.35 17.74 -55.1 47.67 59.79 69.09 55.09 -47.66 15.35 17.74 -133.71 115.69 -15.35 -17.75 62.93 -54.45 -59.78 -69.09 -62.93 54.45 -15.35 -17.75zm159.03 180.52l167.14 -89.04 19.42 16.86 -61.57 180.7 -20.11 -17.46 19.7 -53.87 -56.22 -48.81 -49.62 27.89 -18.74 -16.27zm86.01 -21.47l45.49 39.5 18.22 -49.1c5.58,-14.89 10.47,-26.94 14.64,-36.19 -9.4,7.11 -19.27,13.53 -29.69,19.31l-48.66 26.48zm284.2 204.69c14.59,-25.41 32.89,-41.39 54.82,-47.92 21.92,-6.54 43.67,-3.58 65.3,8.84 14.17,8.13 24.97,18.85 32.47,32.13 7.49,13.25 10.74,27.66 9.76,43.18 -0.97,15.49 -5.84,30.92 -14.63,46.22 -8.92,15.54 -20.05,27.65 -33.36,36.28 -13.33,8.67 -27.55,12.85 -42.65,12.53 -15.16,-0.31 -29.38,-4.3 -42.69,-11.94 -14.46,-8.3 -25.34,-19.2 -32.72,-32.7 -7.35,-13.47 -10.54,-27.92 -9.46,-43.35 1.05,-15.39 5.43,-29.81 13.16,-43.27zm20.78 12.41c-10.59,18.45 -13.97,35.83 -10.13,52.13 3.83,16.3 13.23,28.76 28.22,37.37 15.28,8.77 30.88,10.62 46.91,5.59 16.01,-5.06 29.66,-17.43 40.98,-37.13 7.15,-12.45 11.29,-24.55 12.4,-36.25 1.13,-11.7 -0.91,-22.45 -6.09,-32.21 -5.2,-9.78 -12.83,-17.57 -22.92,-23.37 -14.35,-8.24 -29.53,-10.41 -45.53,-6.5 -16.01,3.9 -30.62,17.35 -43.84,40.37zm324.09 184.18l19.67 14.09c-11.58,16.1 -25.12,26.48 -40.65,31.22 -15.52,4.73 -31.84,3.76 -48.97,-2.97 -17.7,-6.95 -30.69,-16.21 -38.96,-27.81 -8.28,-11.56 -12.6,-25.34 -13.01,-41.28 -0.4,-15.98 2.46,-31.8 8.62,-47.5 6.73,-17.13 15.86,-30.79 27.41,-40.97 11.56,-10.19 24.68,-16.22 39.35,-18.11 14.67,-1.89 29.25,0.04 43.74,5.73 16.47,6.47 28.66,16.06 36.55,28.85 7.93,12.8 11.12,27.64 9.57,44.53l-23.37 -3.34c0.91,-13.44 -1.22,-24.36 -6.32,-32.64 -5.09,-8.32 -13.13,-14.62 -24.13,-18.94 -12.6,-4.95 -24.36,-6.08 -35.21,-3.35 -10.84,2.73 -20.02,8.54 -27.44,17.39 -7.46,8.88 -13.32,18.74 -17.57,29.57 -5.5,13.99 -8.27,27.01 -8.3,39.02 -0.05,12.05 3.22,22.31 9.76,30.85 6.56,8.54 14.82,14.75 24.82,18.68 12.18,4.78 23.83,5.29 35.02,1.59 11.19,-3.74 20.98,-11.91 29.42,-24.61zm111.38 16.69c6.58,-28.56 19.44,-49.16 38.52,-61.78 19.08,-12.63 40.75,-16.13 65.05,-10.53 15.93,3.67 29.37,10.78 40.41,21.31 11.01,10.51 18.32,23.35 21.89,38.49 3.57,15.09 3.39,31.28 -0.57,48.48 -4.02,17.45 -11.15,32.28 -21.38,44.4 -10.24,12.17 -22.63,20.3 -37.17,24.39 -14.59,4.11 -29.36,4.42 -44.32,0.97 -16.24,-3.74 -29.82,-11 -40.8,-21.77 -10.95,-10.76 -18.2,-23.66 -21.66,-38.73 -3.46,-15.04 -3.46,-30.11 0.03,-45.23zm23.49 5.83c-4.78,20.74 -2.97,38.34 5.45,52.83 8.4,14.48 21.02,23.67 37.87,27.56 17.16,3.95 32.62,1.18 46.51,-8.29 13.84,-9.49 23.31,-25.3 28.41,-47.44 3.22,-13.99 3.67,-26.76 1.34,-38.28 -2.32,-11.53 -7.4,-21.22 -15.19,-29.05 -7.82,-7.85 -17.38,-13.09 -28.73,-15.7 -16.12,-3.72 -31.28,-1.38 -45.45,7.01 -14.18,8.38 -24.25,25.5 -30.21,51.36zm256.18 -39.62l113.9 14.61 -2.64 20.57 -90.63 -11.62 -6.94 54.13 41.88 5.37c15.48,1.99 27.57,5.03 36.33,9.18 8.77,4.12 15.37,10.6 19.83,19.52 4.46,8.87 5.98,18.73 4.58,29.59 -1.13,8.86 -4.16,16.89 -9.1,24.06 -4.95,7.21 -11.64,12.74 -20.09,16.59 -8.42,3.86 -22.09,4.6 -40.91,2.19l-68.7 -8.82 22.49 -175.37zm3.32 158.52l46.42 5.95c12.53,1.61 22.25,0.29 29.19,-4.02 6.89,-4.29 11.02,-11.53 12.32,-21.7 0.93,-7.26 -0.09,-13.53 -3.06,-18.85 -2.96,-5.32 -7.53,-9.18 -13.69,-11.59 -6.22,-2.41 -17.01,-4.58 -32.4,-6.56l-30.99 -3.97 -7.79 60.74zm191.76 39.89l63.57 -178.39 25.71 -0.62 76.2 175.04 -26.62 0.64 -21.73 -53.09 -74.43 1.79 -17.89 54.03 -24.81 0.6zm49.11 -73.8l60.24 -1.45 -19.62 -48.56c-5.9,-14.76 -10.4,-26.96 -13.55,-36.61 -2.15,11.59 -5.13,22.98 -8.94,34.27l-18.13 52.35zm198.99 11.46l-2.76 -21.56 66.62 -8.54 2.76 21.55 -66.62 8.55zm141.63 -143.22l135.22 -31.22 39.77 172.28 -22.86 5.28 -35.1 -152.07 -89.51 20.66 35.11 152.07 -22.86 5.28 -39.77 -172.28zm294.39 104.91l-56.58 -167.51 22.22 -7.51 56.58 167.51 -22.22 7.51zm79.77 -218.4l98.11 -44.34 64.27 142.22 14.41 -6.51 25.53 56.48 -18.91 8.54 -16.99 -37.58 -106.66 48.21 16.98 37.58 -18.9 8.54 -25.52 -56.48 12.37 -5.59c4.2,-25.48 -7.15,-68 -34.04,-127.52l-10.65 -23.55zm85.27 -15.78l-56.25 25.42 3.73 8.26c6.2,13.72 13.46,33.07 21.74,58.01 8.33,24.91 12.3,46.69 12.03,65.29l74.48 -33.66 -55.73 -123.32zm101.72 -75.15l116.78 -74.99 95.53 148.78 -19.74 12.67 -84.32 -131.32 -77.3 49.63 84.33 131.33 -19.74 12.67 -95.54 -148.77zm309.91 2.62l-109.22 -139.05 52.51 -41.24c9.22,-7.24 16.63,-12.33 22.21,-15.3 7.72,-4.22 15.15,-6.56 22.27,-7.02 7.14,-0.44 14.37,1.11 21.69,4.63 7.31,3.51 13.66,8.73 19.08,15.63 9.25,11.78 13.35,24.72 12.22,38.81 -1.08,14.09 -11.51,28.86 -31.18,44.32l-35.67 28.02 44.54 56.71 -18.45 14.49zm-38.9 -87.51l35.93 -28.22c11.9,-9.36 18.59,-18.17 20.12,-26.54 1.5,-8.36 -0.88,-16.53 -7.21,-24.59 -4.55,-5.79 -9.92,-9.63 -16.13,-11.46 -6.19,-1.83 -12.23,-1.52 -18.07,0.91 -3.74,1.63 -9.81,5.71 -18.13,12.24l-35.57 27.94 39.06 49.72zm97.13 -197.24l14.65 -15.38 101.39 96.58 -36.47 -164.73 15.98 -16.77 128.02 121.95 -14.65 15.38 -101.11 -96.32 36.37 164.29 -16.15 16.95 -128.03 -121.95zm265.8 -199.7l16.91 12.02 -38.05 53.54c16.66,10.73 32.58,15.27 47.76,13.64 15.19,-1.68 27.38,-8.97 36.58,-21.92 16.33,-22.98 14.44,-46.04 -5.7,-69.14l17.85 -14.88c25.89,30.93 27.53,62.28 4.9,94.12 -16.16,22.75 -35.51,34.49 -58.06,35.19 -22.54,0.73 -44.23,-6.9 -65.17,-22.83 -13.08,-9.3 -23.29,-20.3 -30.6,-32.91 -7.27,-12.64 -10.74,-26.57 -10.41,-41.74 0.32,-15.17 5.54,-29.83 15.6,-43.99 10.63,-14.96 23.21,-24.86 37.75,-29.67 14.53,-4.83 29.64,-4.34 45.32,1.45l-8.48 22.15c-23.88,-8.74 -43.22,-2.69 -58.05,18.17 -9.99,14.06 -13.6,28.1 -10.79,42.12 2.75,14.03 11.13,26.54 25.02,37.62l37.62 -52.94zm178.56 -87.89l-157.27 -80.8 16.03 -31.19 130.43 20c12.13,1.88 21.17,3.38 27.14,4.45 -4.8,-4.72 -11.76,-11.86 -20.9,-21.37l-89.94 -94.05 14.31 -27.86 157.27 80.8 -10.26 19.98 -131.58 -67.59 107.99 113.5 -9.63 18.74 -157.3 -23.43 133.98 68.83 -10.27 19.99zm125.12 -260.52l-167.54 -56.48 40.78 -120.98 19.65 6.63 -33.29 98.75 51.49 17.35 31.15 -92.43 19.66 6.63 -31.16 92.43 57.1 19.25 34.63 -102.72 19.65 6.62 -42.12 124.95zm-98.73 -275.43l5.27 -22.86 152.09 35.04 20.62 -89.51 -152.09 -35.04 5.27 -22.86 152.09 35.03 3.6 -15.64 68.09 15.69 -4.65 20.21 -47.89 -11.03 -30.1 130.67 -172.3 -39.7zm43.42 -234.77l1.77 -23.39 75.11 5.71 3.19 -41.98c1.49,-19.62 4.86,-33.65 10.09,-42.12 5.27,-8.43 11.99,-14.28 20.12,-17.54 8.17,-3.22 16.44,-4.53 24.77,-3.89 13.67,1.04 25.3,6.58 34.85,16.68 9.6,10.05 13.41,27.72 11.48,53.04l-5.08 66.9 -176.3 -13.41zm158.13 -11.5l3.24 -42.6c1.32,-17.28 -0.91,-28.76 -6.62,-34.47 -5.72,-5.68 -12.95,-8.87 -21.61,-9.53 -7.01,-0.53 -13.15,0.9 -18.37,4.34 -5.21,3.4 -8.8,8.25 -10.71,14.45 -1.92,6.22 -3.47,16.87 -4.62,31.98l-2.37 31.19 61.06 4.64z"/>
  <polygon class="fil0 str0" points="3905.02,1715.68 3922.74,1770.22 3980.08,1770.22 3933.69,1803.92 3951.41,1858.45 3905.02,1824.75 3858.63,1858.45 3876.35,1803.92 3829.96,1770.22 3887.3,1770.22 "/>
  <path class="fil2" d="M453.01 1467.9l10.34 -24.94 139.52 -13.49 -92.26 -100.55 10.2 -24.57 116.1 130.14c14.52,16.23 23.41,28.35 26.73,36.27 3.26,7.91 2.76,17.08 -1.61,27.5 -2.6,6.39 -7.34,13.57 -14.13,21.59l-21.14 -8.73c6.56,-5.05 11.37,-11.25 14.46,-18.62 2.46,-6.06 2.67,-12.03 0.62,-18.01 -2.04,-5.99 -8.83,-14.43 -20.42,-25.38l-168.41 18.79z"/>
  <path id="_1_0" class="fil2" d="M813.46 868.01l19.12 -18.75 61.91 63.21c8.77,-8.54 13.26,-16.27 13.46,-23.1 0.22,-6.87 -3.18,-19.42 -10.31,-37.68 -5.23,-13.39 -8.51,-23.3 -9.71,-29.73 -1.25,-6.45 -0.76,-13.36 1.42,-20.71 2.19,-7.35 6.16,-13.85 11.93,-19.52 7.35,-7.18 11.29,-10.91 11.8,-11.2l16.2 16.54c-0.65,0.67 -1.97,1.9 -3.93,3.69 -2.16,1.99 -3.48,3.21 -3.94,3.64 -6.1,6 -9.17,11.94 -9.25,17.77 -0.12,5.93 2.66,15.6 8.21,29.04 7.12,16.94 10.55,28.65 10.35,35.14 -0.27,6.44 -1.75,12.89 -4.55,19.39 11.83,-6.58 29.43,-6.98 52.83,-1.24l76.79 18.89 -23.71 23.29 -62.52 -15.56c-17.24,-4.36 -30.04,-6.34 -38.46,-6.02 -8.42,0.37 -16.17,4.02 -23.28,10.96l66.2 67.52 -19.11 18.7 -141.45 -144.27z"/>
  <path id="_2" class="fil2" d="M1426.69 669.39l-81.1 -184.93 69.74 -30.57c12.29,-5.4 21.91,-8.95 28.9,-10.59 9.77,-2.46 18.61,-2.9 26.62,-1.35 8,1.55 15.55,5.3 22.66,11.33 7.09,6.02 12.64,13.6 16.71,22.79 6.87,15.71 7.68,31.23 2.47,46.51 -5.22,15.27 -20.94,28.64 -47.05,40.1l-47.47 20.78 33 75.18 -24.48 10.75zm-18.08 -107.74l47.8 -20.97c15.8,-6.92 25.77,-14.8 29.8,-23.57 4.08,-8.83 3.79,-18.56 -0.89,-29.25 -3.4,-7.74 -8.28,-13.49 -14.61,-17.26 -6.32,-3.82 -13.06,-5.19 -20.21,-4.15 -4.6,0.69 -12.48,3.52 -23.55,8.34l-47.33 20.78 28.99 66.08z"/>
  <path id="_3" class="fil2" d="M1976.79 530.95l83.71 -199.43 28.78 0.89 76.38 204.34 -30.43 -0.95 -21.68 -61.85 -84.36 -2.55 -24.04 60.43 -28.36 -0.88zm60.76 -81.09l68.43 2.13 -19.35 -56.57c-5.91,-17.16 -10.25,-31.25 -13,-42.28 -3,12.87 -7.03,25.59 -12.1,38.21l-23.98 58.51z"/>
  <path id="_4" class="fil2" d="M2600.98 638.36l80.03 -185.46 24.53 10.59 -79.98 185.47 -24.58 -10.6zm61.13 -207l11.16 -25.94 23.82 10.26 -11.2 25.94 -23.78 -10.26zm47.17 20.38l11.22 -25.94 23.77 10.27 -11.21 25.93 -23.78 -10.26z"/>
  <polygon id="_5" class="fil2" points="3024.74,895.09 3166.91,751.74 3185.88,770.58 3127.52,829.42 3202.02,903.33 3260.4,844.48 3279.37,863.27 3137.21,1006.63 3118.23,987.79 3185.21,920.25 3110.71,846.35 3043.72,913.89 "/>
  <path id="_6" class="fil2" d="M3389.27 1372.01l216.23 -6.34 11.14 26.59 -154.47 154.15 -11.77 -28.1 47.35 -45.33 -32.55 -77.92 -64.98 3.12 -10.95 -26.17zm98.96 21.77l26.44 63.18 43.47 -41.02c13.18,-12.51 24.22,-22.27 33.12,-29.38 -12.93,2.62 -26.23,4.26 -39.78,4.87l-63.25 2.35z"/>
  <path id="_7" class="fil3 str1" d="M453.01 1467.9l10.34 -24.94 139.52 -13.49 -92.26 -100.55 10.2 -24.57 116.1 130.14c14.52,16.23 23.41,28.35 26.73,36.27 3.26,7.91 2.76,17.08 -1.61,27.5 -2.6,6.39 -7.34,13.57 -14.13,21.59l-21.14 -8.73c6.56,-5.05 11.37,-11.25 14.46,-18.62 2.46,-6.06 2.67,-12.03 0.62,-18.01 -2.04,-5.99 -8.83,-14.43 -20.42,-25.38l-168.41 18.79z"/>
  <path id="_8" class="fil3 str1" d="M813.46 868.01l19.12 -18.75 61.91 63.21c8.77,-8.54 13.26,-16.27 13.46,-23.1 0.22,-6.87 -3.18,-19.42 -10.31,-37.68 -5.23,-13.39 -8.51,-23.3 -9.71,-29.73 -1.25,-6.45 -0.76,-13.36 1.42,-20.71 2.19,-7.35 6.16,-13.85 11.93,-19.52 7.35,-7.18 11.29,-10.91 11.8,-11.2l16.2 16.54c-0.65,0.67 -1.97,1.9 -3.93,3.69 -2.16,1.99 -3.48,3.21 -3.94,3.64 -6.1,6 -9.17,11.94 -9.25,17.77 -0.12,5.93 2.66,15.6 8.21,29.04 7.12,16.94 10.55,28.65 10.35,35.14 -0.27,6.44 -1.75,12.89 -4.55,19.39 11.83,-6.58 29.43,-6.98 52.83,-1.24l76.79 18.89 -23.71 23.29 -62.52 -15.56c-17.24,-4.36 -30.04,-6.34 -38.46,-6.02 -8.42,0.37 -16.17,4.02 -23.28,10.96l66.2 67.52 -19.11 18.7 -141.45 -144.27z"/>
  <path id="_9" class="fil3 str1" d="M1426.69 669.39l-81.1 -184.93 69.74 -30.57c12.29,-5.4 21.91,-8.95 28.9,-10.59 9.77,-2.46 18.61,-2.9 26.62,-1.35 8,1.55 15.55,5.3 22.66,11.33 7.09,6.02 12.64,13.6 16.71,22.79 6.87,15.71 7.68,31.23 2.47,46.51 -5.22,15.27 -20.94,28.64 -47.05,40.1l-47.47 20.78 33 75.18 -24.48 10.75zm-18.08 -107.74l47.8 -20.97c15.8,-6.92 25.77,-14.8 29.8,-23.57 4.08,-8.83 3.79,-18.56 -0.89,-29.25 -3.4,-7.74 -8.28,-13.49 -14.61,-17.26 -6.32,-3.82 -13.06,-5.19 -20.21,-4.15 -4.6,0.69 -12.48,3.52 -23.55,8.34l-47.33 20.78 28.99 66.08z"/>
  <path id="_10" class="fil3 str1" d="M1976.79 530.95l83.71 -199.43 28.78 0.89 76.38 204.34 -30.43 -0.95 -21.68 -61.85 -84.36 -2.55 -24.04 60.43 -28.36 -0.88zm60.76 -81.09l68.43 2.13 -19.35 -56.57c-5.91,-17.16 -10.25,-31.25 -13,-42.28 -3,12.87 -7.03,25.59 -12.1,38.21l-23.98 58.51z"/>
  <path id="_11" class="fil3 str1" d="M2600.98 638.36l80.03 -185.46 24.53 10.59 -79.98 185.47 -24.58 -10.6zm61.13 -207l11.16 -25.94 23.82 10.26 -11.2 25.94 -23.78 -10.26zm47.17 20.38l11.22 -25.94 23.77 10.27 -11.21 25.93 -23.78 -10.26z"/>
  <polygon id="_12" class="fil3 str1" points="3024.74,895.09 3166.91,751.74 3185.88,770.58 3127.52,829.42 3202.02,903.33 3260.4,844.48 3279.37,863.27 3137.21,1006.63 3118.23,987.79 3185.21,920.25 3110.71,846.35 3043.72,913.89 "/>
  <path id="_13" class="fil3 str1" d="M3389.27 1372.01l216.23 -6.34 11.14 26.59 -154.47 154.15 -11.77 -28.1 47.35 -45.33 -32.55 -77.92 -64.98 3.12 -10.95 -26.17zm98.96 21.77l26.44 63.18 43.47 -41.02c13.18,-12.51 24.22,-22.27 33.12,-29.38 -12.93,2.62 -26.23,4.26 -39.78,4.87l-63.25 2.35z"/>
  <polygon class="fil2" points="1282.78,1017.18 1479.87,1017.18 1479.87,1268.29 1446.56,1268.29 1446.56,1046.64 1316.09,1046.64 1316.09,1268.29 1282.78,1268.29 "/>
  <path id="_1_1" class="fil2" d="M1541.39 1338.08l0 -251.81 28.05 0 0 23.91c6.61,-9.24 14.09,-16.19 22.45,-20.81 8.3,-4.62 18.41,-6.96 30.28,-6.96 15.55,0 29.22,3.98 41.09,11.99 11.86,7.95 20.81,19.23 26.89,33.72 6.02,14.56 9.06,30.46 9.06,47.82 0,18.53 -3.34,35.24 -10,50.15 -6.66,14.84 -16.37,26.24 -29.11,34.19 -12.68,7.89 -26.07,11.87 -40.1,11.87 -10.28,0 -19.52,-2.16 -27.64,-6.49 -8.19,-4.33 -14.85,-9.76 -20.11,-16.37l0 88.79 -30.86 0zm28.05 -159.69c0,23.32 4.74,40.57 14.15,51.73 9.47,11.17 20.92,16.78 34.37,16.78 13.68,0 25.37,-5.79 35.07,-17.36 9.76,-11.58 14.61,-29.46 14.61,-53.72 0,-23.15 -4.73,-40.45 -14.26,-51.96 -9.53,-11.52 -20.87,-17.25 -34.08,-17.25 -13.09,0 -24.66,6.14 -34.72,18.36 -10.11,12.27 -15.14,30.04 -15.14,53.42z"/>
  <path id="_2_2" class="fil2" d="M1747.16 1052.25l0 -35.07 30.86 0 0 35.07 -30.86 0zm0 216.04l0 -182.02 30.86 0 0 182.02 -30.86 0z"/>
  <path id="_3_3" class="fil2" d="M1876.13 1185.87l0 -24.2c12.97,-0.11 21.86,-0.64 26.54,-1.52 4.73,-0.93 9.23,-3.62 13.44,-8.18 4.21,-4.56 6.31,-10.23 6.31,-17.07 0,-8.24 -2.74,-14.9 -8.3,-19.81 -5.55,-4.97 -12.68,-7.43 -21.51,-7.43 -17.36,0 -29.52,10.18 -36.47,30.52l-29.46 -4.91c9.12,-33.91 31.21,-50.86 66.17,-50.86 19.4,0 34.6,5.26 45.65,15.84 11.04,10.58 16.54,23.21 16.54,37.88 0,14.79 -7.19,26.6 -21.51,35.31 9.17,4.91 16.01,11.16 20.63,18.76 4.56,7.6 6.84,16.6 6.84,27 0,16.31 -5.96,29.52 -17.83,39.69 -11.92,10.17 -28.52,15.26 -49.92,15.26 -41.5,0 -65.58,-18.36 -72.18,-55.06l29.11 -6.32c2.63,11.58 7.95,20.58 16.01,26.95 8.07,6.37 17.24,9.53 27.65,9.53 10.4,0 19.05,-2.93 25.95,-8.83 6.9,-5.84 10.35,-13.33 10.35,-22.44 0,-7.08 -2.16,-13.21 -6.49,-18.47 -4.33,-5.27 -8.94,-8.54 -13.85,-9.82 -4.91,-1.35 -13.8,-1.99 -26.66,-1.99 -1.05,0 -3.39,0.06 -7.01,0.17z"/>
  <path id="_4_4" class="fil2" d="M2007.32 1086.27l71.02 0c17.41,0 30.39,1.46 38.92,4.39 8.48,2.92 15.79,8.24 21.87,16.01 6.13,7.83 9.17,17.13 9.17,28 0,8.71 -1.81,16.31 -5.38,22.74 -3.62,6.49 -9,11.92 -16.24,16.25 8.53,2.86 15.6,8.18 21.27,16.01 5.61,7.78 8.42,17.07 8.42,27.77 -1.11,17.24 -7.31,30.04 -18.47,38.34 -11.17,8.36 -27.42,12.51 -48.69,12.51l-81.89 0 0 -182.02zm30.86 76.81l32.73 0c13.04,0 22.04,-0.7 26.89,-2.05 4.91,-1.4 9.29,-4.15 13.15,-8.36 3.86,-4.15 5.79,-9.17 5.79,-15.02 0,-9.64 -3.39,-16.31 -10.11,-20.11 -6.78,-3.8 -18.36,-5.67 -34.72,-5.67l-33.73 0 0 51.21zm0 79.96l40.51 0c17.41,0 29.4,-2.05 35.89,-6.08 6.48,-4.09 9.87,-11.05 10.22,-21.04 0,-5.79 -1.87,-11.23 -5.61,-16.19 -3.8,-4.97 -8.71,-8.13 -14.73,-9.41 -6.02,-1.35 -15.72,-1.99 -29.05,-1.99l-37.23 0 0 54.71z"/>
  <polygon id="_5_5" class="fil2" points="2204.38,1086.27 2235.24,1086.27 2235.24,1225.09 2320.99,1086.27 2354.13,1086.27 2354.13,1268.29 2323.27,1268.29 2323.27,1130.34 2237.64,1268.29 2204.38,1268.29 "/>
  <polygon id="_6_6" class="fil2" points="2412.08,1086.27 2442.94,1086.27 2442.94,1243.04 2513.08,1243.04 2513.08,1086.27 2543.95,1086.27 2543.95,1243.04 2614.09,1243.04 2614.09,1086.27 2644.95,1086.27 2644.95,1243.04 2665.29,1243.04 2665.29,1319.84 2639.69,1319.84 2639.69,1268.29 2412.08,1268.29 "/>
  <path id="_7_7" class="fil2" d="M2830.56 1209.37l31.91 4.21c-4.97,18.53 -14.26,32.97 -27.82,43.2 -13.56,10.22 -30.86,15.37 -51.96,15.37 -26.54,0 -47.58,-8.19 -63.13,-24.55 -15.55,-16.31 -23.32,-39.28 -23.32,-68.8 0,-30.51 7.83,-54.24 23.55,-71.08 15.73,-16.89 36.13,-25.31 61.2,-25.31 24.26,0 44.07,8.25 59.45,24.79 15.37,16.54 23.08,39.8 23.08,69.79 0,1.81 -0.05,4.56 -0.17,8.18l-135.55 0c1.17,19.93 6.78,35.25 16.95,45.83 10.11,10.58 22.8,15.9 37.94,15.9 11.28,0 20.92,-2.98 28.87,-8.95 8.01,-5.96 14.32,-15.49 19,-28.58zm-101.01 -49.45l101.36 0c-1.35,-15.31 -5.26,-26.77 -11.63,-34.43 -9.76,-11.86 -22.51,-17.83 -38.11,-17.83 -14.15,0 -26.01,4.74 -35.66,14.21 -9.59,9.47 -14.9,22.15 -15.96,38.05z"/>
  <polygon id="_8_8" class="fil2" points="1780.22,1660.09 1780.22,1408.98 1813.53,1408.98 1813.53,1660.09 "/>
  <polygon id="_9_9" class="fil2" points="1879.96,1478.07 1927.42,1478.07 1975.53,1623.73 2028.78,1478.07 2072.85,1478.07 2072.85,1660.09 2041.99,1660.09 2041.99,1513.55 1988.39,1660.09 1960.8,1660.09 1910.12,1506.54 1910.12,1660.09 1879.96,1660.09 "/>
  <path id="_10_10" class="fil2" d="M2129.33 1442.3l0 -35.77 32.97 0 0 28.4c0,15.2 -1.75,26.19 -5.32,32.85 -4.97,9.24 -12.62,16.14 -23.09,20.81l-7.36 -12.16c6.19,-2.51 10.75,-6.42 13.79,-11.86 3.04,-5.38 4.74,-12.8 5.09,-22.27l-16.08 0z"/>
  <path id="_11_11" class="fil2" d="M2362.82 1478.07l0 182.02 -30.87 0 0 -70.84 -17.76 0c-10.82,0 -18.88,1.4 -24.2,4.26 -5.32,2.87 -13.1,11.81 -23.33,26.95l-27.12 39.63 -38.22 0 33.31 -48.87c10.17,-14.96 20.34,-23.38 30.46,-25.31 -17.6,-2.39 -30.69,-8.76 -39.23,-19.05 -8.53,-10.29 -12.8,-22.15 -12.8,-35.54 0,-15.84 5.56,-28.64 16.72,-38.46 11.17,-9.88 27.36,-14.79 48.52,-14.79l84.52 0zm-30.87 25.6l-43.83 0c-18.36,0 -30.22,2.87 -35.54,8.6 -5.32,5.72 -7.95,12.45 -7.95,20.1 0,10.88 3.91,18.88 11.75,23.97 7.77,5.08 21.62,7.66 41.5,7.66l34.07 0 0 -60.33z"/>
  <polygon id="_12_12" class="fil2" points="1108.96,1800.78 1306.05,1800.78 1306.05,2051.89 1272.74,2051.89 1272.74,1830.24 1142.27,1830.24 1142.27,2051.89 1108.96,2051.89 "/>
  <path id="_13_13" class="fil2" d="M1355.99 1960.88c0,-33.61 9.36,-58.51 28.12,-74.7 15.61,-13.44 34.72,-20.17 57.22,-20.17 24.96,0 45.42,8.19 61.32,24.55 15.84,16.31 23.79,38.93 23.79,67.75 0,23.38 -3.51,41.73 -10.52,55.12 -7.02,13.38 -17.25,23.79 -30.69,31.21 -13.39,7.43 -28.06,11.11 -43.9,11.11 -25.48,0 -46.06,-8.13 -61.78,-24.43 -15.72,-16.31 -23.56,-39.81 -23.56,-70.44zm31.57 0.06c0,23.26 5.08,40.68 15.25,52.2 10.23,11.57 23.03,17.36 38.52,17.36 15.32,0 28.06,-5.79 38.29,-17.42 10.17,-11.63 15.25,-29.34 15.25,-53.13 0,-22.45 -5.14,-39.46 -15.37,-50.97 -10.23,-11.58 -22.97,-17.36 -38.17,-17.36 -15.49,0 -28.29,5.72 -38.52,17.24 -10.17,11.51 -15.25,28.87 -15.25,52.08z"/>
  <path id="_14" class="fil2" d="M1792.63 1794.82l27.35 0.35c-1.23,12.22 -3.97,20.75 -8.12,25.54 -4.15,4.8 -9.47,7.84 -16.02,9.24 -6.55,1.34 -19.41,2.04 -38.52,2.04 -25.37,0 -42.67,2.46 -51.9,7.37 -9.18,4.91 -15.85,12.74 -19.88,23.5 -4.03,10.81 -6.25,24.66 -6.72,41.67 7.77,-11.57 16.83,-20.22 27.24,-26.01 10.34,-5.78 22.09,-8.65 35.07,-8.65 23.85,0 43.6,8.18 59.27,24.55 15.61,16.37 23.44,38.52 23.44,66.52 0,21.22 -3.92,38.64 -11.81,52.2 -7.89,13.56 -17.24,24.08 -28.06,31.5 -10.75,7.43 -25.48,11.11 -44.07,11.11 -21.63,0 -38.4,-4.91 -50.38,-14.79 -11.99,-9.88 -21.16,-22.5 -27.59,-37.88 -6.37,-15.37 -9.59,-42.2 -9.59,-80.37 0,-47.99 8.13,-80.31 24.32,-96.97 16.19,-16.66 41.15,-24.96 74.82,-24.96 20.98,0 32.85,-0.35 35.71,-1.05 2.8,-0.7 4.62,-2.34 5.44,-4.91zm-1.06 165.24c0,-18.88 -4.5,-34.37 -13.44,-46.47 -8.94,-12.1 -21.57,-18.12 -37.88,-18.12 -17.01,0 -30.1,6.37 -39.34,19.18 -9.23,12.74 -13.85,29.75 -13.85,51.08 0,21.04 5.09,37.18 15.32,48.34 10.17,11.17 22.79,16.78 37.7,16.78 15.31,0 27.7,-6.49 37.23,-19.41 9.53,-12.92 14.26,-30.04 14.26,-51.38z"/>
  <path id="_15" class="fil2" d="M1982.5 2029.09c-11.46,9.77 -22.51,16.6 -33.09,20.64 -10.58,4.03 -21.92,6.02 -34.07,6.02 -19.99,0 -35.37,-4.85 -46.12,-14.62 -10.76,-9.7 -16.13,-22.15 -16.13,-37.29 0,-8.88 2.04,-17.01 6.07,-24.37 4.1,-7.37 9.42,-13.21 15.96,-17.65 6.61,-4.45 13.97,-7.84 22.21,-10.12 6.08,-1.57 15.26,-3.09 27.48,-4.61 24.9,-2.93 43.31,-6.49 55.06,-10.58 0.11,-4.21 0.17,-6.9 0.17,-8.01 0,-12.51 -2.92,-21.34 -8.77,-26.48 -7.89,-6.96 -19.63,-10.4 -35.18,-10.4 -14.56,0 -25.31,2.57 -32.21,7.65 -6.96,5.09 -12.04,14.09 -15.37,27.07l-30.16 -4.21c2.74,-12.92 7.24,-23.38 13.56,-31.33 6.31,-7.95 15.43,-14.03 27.35,-18.36 11.87,-4.26 25.72,-6.43 41.39,-6.43 15.54,0 28.23,1.82 37.99,5.5 9.7,3.68 16.89,8.24 21.45,13.79 4.56,5.56 7.78,12.57 9.65,21.05 0.99,5.26 1.52,14.73 1.52,28.34l0 40.92c0,28.58 0.64,46.65 1.92,54.3 1.23,7.66 3.8,14.97 7.54,21.98l-32.26 0c-3.1,-6.49 -5.09,-14.09 -5.96,-22.8zm-2.46 -68.38c-11.22,4.55 -28.05,8.41 -50.5,11.57 -12.74,1.81 -21.74,3.86 -27,6.14 -5.26,2.28 -9.3,5.61 -12.16,9.93 -2.87,4.39 -4.33,9.24 -4.33,14.62 0,8.12 3.1,14.96 9.35,20.4 6.26,5.43 15.38,8.18 27.36,8.18 11.87,0 22.45,-2.57 31.74,-7.78 9.23,-5.14 16.07,-12.21 20.4,-21.15 3.33,-6.96 4.97,-17.19 4.97,-30.69l0.17 -11.22z"/>
  <polygon id="_16" class="fil2" points="2045.52,1869.87 2192.82,1869.87 2192.82,1895.47 2134.6,1895.47 2134.6,2051.89 2103.74,2051.89 2103.74,1895.47 2045.52,1895.47 "/>
  <path id="_17" class="fil2" d="M2232.31 1869.87l30.86 0 0 71.2 39.04 0c25.49,0 45.07,4.91 58.86,14.78 13.74,9.88 20.64,23.5 20.64,40.86 0,15.2 -5.73,28.18 -17.25,38.99 -11.45,10.81 -29.81,16.19 -55.06,16.19l-77.09 0 0 -182.02zm30.86 156.77l32.5 0c19.58,0 33.55,-2.4 41.91,-7.19 8.36,-4.79 12.56,-12.28 12.56,-22.45 0,-7.89 -3.09,-14.9 -9.29,-21.1 -6.2,-6.13 -19.87,-9.23 -41.09,-9.23l-36.59 0 0 59.97z"/>
  <path id="_18" class="fil2" d="M2426.1 1869.87l30.86 0 0 78.56c9.82,0 16.72,-1.87 20.69,-5.67 3.92,-3.74 9.7,-14.67 17.42,-32.85 6.08,-14.38 10.99,-23.85 14.73,-28.41 3.8,-4.56 8.12,-7.65 13.03,-9.23 4.97,-1.58 12.86,-2.4 23.68,-2.4l6.19 0 0 25.43 -8.59 -0.18c-8.12,0 -13.33,1.23 -15.61,3.63 -2.39,2.51 -6.08,9.99 -10.99,22.44 -4.67,11.93 -8.94,20.17 -12.85,24.73 -3.86,4.56 -9.88,8.71 -18.01,12.51 13.27,3.56 26.36,15.89 39.22,37.05l33.85 56.41 -33.91 0 -33.37 -56.23c-6.72,-11.4 -12.57,-18.88 -17.54,-22.5 -5.02,-3.63 -10.99,-5.44 -17.94,-5.44l0 84.17 -30.86 0 0 -182.02z"/>
  <path id="_19" class="fil2" d="M2582.95 1960.88c0,-33.61 9.36,-58.51 28.12,-74.7 15.61,-13.44 34.72,-20.17 57.22,-20.17 24.96,0 45.42,8.19 61.32,24.55 15.84,16.31 23.79,38.93 23.79,67.75 0,23.38 -3.51,41.73 -10.52,55.12 -7.02,13.38 -17.25,23.79 -30.69,31.21 -13.39,7.43 -28.06,11.11 -43.9,11.11 -25.48,0 -46.06,-8.13 -61.78,-24.43 -15.72,-16.31 -23.56,-39.81 -23.56,-70.44zm31.57 0.06c0,23.26 5.08,40.68 15.25,52.2 10.23,11.57 23.03,17.36 38.52,17.36 15.32,0 28.06,-5.79 38.29,-17.42 10.17,-11.63 15.25,-29.34 15.25,-53.13 0,-22.45 -5.14,-39.46 -15.37,-50.97 -10.23,-11.58 -22.97,-17.36 -38.17,-17.36 -15.49,0 -28.29,5.72 -38.52,17.24 -10.17,11.51 -15.25,28.87 -15.25,52.08z"/>
  <path id="_20" class="fil2" d="M2800.3 1869.87l71.02 0c17.41,0 30.39,1.46 38.92,4.39 8.48,2.92 15.79,8.24 21.87,16.01 6.13,7.83 9.17,17.13 9.17,28 0,8.71 -1.81,16.31 -5.38,22.74 -3.62,6.49 -9,11.92 -16.24,16.25 8.53,2.86 15.6,8.18 21.27,16.01 5.61,7.78 8.42,17.07 8.42,27.77 -1.11,17.24 -7.31,30.04 -18.47,38.34 -11.17,8.36 -27.42,12.51 -48.69,12.51l-81.89 0 0 -182.02zm30.86 76.81l32.73 0c13.04,0 22.04,-0.7 26.89,-2.05 4.91,-1.4 9.29,-4.15 13.15,-8.36 3.86,-4.15 5.79,-9.17 5.79,-15.02 0,-9.64 -3.39,-16.31 -10.11,-20.11 -6.78,-3.8 -18.36,-5.67 -34.72,-5.67l-33.73 0 0 51.21zm0 79.96l40.51 0c17.41,0 29.4,-2.05 35.89,-6.08 6.48,-4.09 9.87,-11.05 10.22,-21.04 0,-5.79 -1.87,-11.23 -5.61,-16.19 -3.8,-4.97 -8.71,-8.13 -14.73,-9.41 -6.02,-1.35 -15.72,-1.99 -29.05,-1.99l-37.23 0 0 54.71z"/>
  <path id="_21" class="fil2" d="M2997.36 1835.85l0 -35.07 30.86 0 0 35.07 -30.86 0zm0 216.04l0 -182.02 30.86 0 0 182.02 -30.86 0z"/>
  <polygon id="_22" class="fil3 str4" points="1282.78,1017.18 1479.87,1017.18 1479.87,1268.29 1446.56,1268.29 1446.56,1046.64 1316.09,1046.64 1316.09,1268.29 1282.78,1268.29 "/>
  <path id="_23" class="fil3 str4" d="M1541.39 1338.08l0 -251.81 28.05 0 0 23.91c6.61,-9.24 14.09,-16.19 22.45,-20.81 8.3,-4.62 18.41,-6.96 30.28,-6.96 15.55,0 29.22,3.98 41.09,11.99 11.86,7.95 20.81,19.23 26.89,33.72 6.02,14.56 9.06,30.46 9.06,47.82 0,18.53 -3.34,35.24 -10,50.15 -6.66,14.84 -16.37,26.24 -29.11,34.19 -12.68,7.89 -26.07,11.87 -40.1,11.87 -10.28,0 -19.52,-2.16 -27.64,-6.49 -8.19,-4.33 -14.85,-9.76 -20.11,-16.37l0 88.79 -30.86 0zm28.05 -159.69c0,23.32 4.74,40.57 14.15,51.73 9.47,11.17 20.92,16.78 34.37,16.78 13.68,0 25.37,-5.79 35.07,-17.36 9.76,-11.58 14.61,-29.46 14.61,-53.72 0,-23.15 -4.73,-40.45 -14.26,-51.96 -9.53,-11.52 -20.87,-17.25 -34.08,-17.25 -13.09,0 -24.66,6.14 -34.72,18.36 -10.11,12.27 -15.14,30.04 -15.14,53.42z"/>
  <path id="_24" class="fil3 str4" d="M1747.16 1052.25l0 -35.07 30.86 0 0 35.07 -30.86 0zm0 216.04l0 -182.02 30.86 0 0 182.02 -30.86 0z"/>
  <path id="_25" class="fil3 str4" d="M1876.13 1185.87l0 -24.2c12.97,-0.11 21.86,-0.64 26.54,-1.52 4.73,-0.93 9.23,-3.62 13.44,-8.18 4.21,-4.56 6.31,-10.23 6.31,-17.07 0,-8.24 -2.74,-14.9 -8.3,-19.81 -5.55,-4.97 -12.68,-7.43 -21.51,-7.43 -17.36,0 -29.52,10.18 -36.47,30.52l-29.46 -4.91c9.12,-33.91 31.21,-50.86 66.17,-50.86 19.4,0 34.6,5.26 45.65,15.84 11.04,10.58 16.54,23.21 16.54,37.88 0,14.79 -7.19,26.6 -21.51,35.31 9.17,4.91 16.01,11.16 20.63,18.76 4.56,7.6 6.84,16.6 6.84,27 0,16.31 -5.96,29.52 -17.83,39.69 -11.92,10.17 -28.52,15.26 -49.92,15.26 -41.5,0 -65.58,-18.36 -72.18,-55.06l29.11 -6.32c2.63,11.58 7.95,20.58 16.01,26.95 8.07,6.37 17.24,9.53 27.65,9.53 10.4,0 19.05,-2.93 25.95,-8.83 6.9,-5.84 10.35,-13.33 10.35,-22.44 0,-7.08 -2.16,-13.21 -6.49,-18.47 -4.33,-5.27 -8.94,-8.54 -13.85,-9.82 -4.91,-1.35 -13.8,-1.99 -26.66,-1.99 -1.05,0 -3.39,0.06 -7.01,0.17z"/>
  <path id="_26" class="fil3 str4" d="M2007.32 1086.27l71.02 0c17.41,0 30.39,1.46 38.92,4.39 8.48,2.92 15.79,8.24 21.87,16.01 6.13,7.83 9.17,17.13 9.17,28 0,8.71 -1.81,16.31 -5.38,22.74 -3.62,6.49 -9,11.92 -16.24,16.25 8.53,2.86 15.6,8.18 21.27,16.01 5.61,7.78 8.42,17.07 8.42,27.77 -1.11,17.24 -7.31,30.04 -18.47,38.34 -11.17,8.36 -27.42,12.51 -48.69,12.51l-81.89 0 0 -182.02zm30.86 76.81l32.73 0c13.04,0 22.04,-0.7 26.89,-2.05 4.91,-1.4 9.29,-4.15 13.15,-8.36 3.86,-4.15 5.79,-9.17 5.79,-15.02 0,-9.64 -3.39,-16.31 -10.11,-20.11 -6.78,-3.8 -18.36,-5.67 -34.72,-5.67l-33.73 0 0 51.21zm0 79.96l40.51 0c17.41,0 29.4,-2.05 35.89,-6.08 6.48,-4.09 9.87,-11.05 10.22,-21.04 0,-5.79 -1.87,-11.23 -5.61,-16.19 -3.8,-4.97 -8.71,-8.13 -14.73,-9.41 -6.02,-1.35 -15.72,-1.99 -29.05,-1.99l-37.23 0 0 54.71z"/>
  <polygon id="_27" class="fil3 str4" points="2204.38,1086.27 2235.24,1086.27 2235.24,1225.09 2320.99,1086.27 2354.13,1086.27 2354.13,1268.29 2323.27,1268.29 2323.27,1130.34 2237.64,1268.29 2204.38,1268.29 "/>
  <polygon id="_28" class="fil3 str4" points="2412.08,1086.27 2442.94,1086.27 2442.94,1243.04 2513.08,1243.04 2513.08,1086.27 2543.95,1086.27 2543.95,1243.04 2614.09,1243.04 2614.09,1086.27 2644.95,1086.27 2644.95,1243.04 2665.29,1243.04 2665.29,1319.84 2639.69,1319.84 2639.69,1268.29 2412.08,1268.29 "/>
  <path id="_29" class="fil3 str4" d="M2830.56 1209.37l31.91 4.21c-4.97,18.53 -14.26,32.97 -27.82,43.2 -13.56,10.22 -30.86,15.37 -51.96,15.37 -26.54,0 -47.58,-8.19 -63.13,-24.55 -15.55,-16.31 -23.32,-39.28 -23.32,-68.8 0,-30.51 7.83,-54.24 23.55,-71.08 15.73,-16.89 36.13,-25.31 61.2,-25.31 24.26,0 44.07,8.25 59.45,24.79 15.37,16.54 23.08,39.8 23.08,69.79 0,1.81 -0.05,4.56 -0.17,8.18l-135.55 0c1.17,19.93 6.78,35.25 16.95,45.83 10.11,10.58 22.8,15.9 37.94,15.9 11.28,0 20.92,-2.98 28.87,-8.95 8.01,-5.96 14.32,-15.49 19,-28.58zm-101.01 -49.45l101.36 0c-1.35,-15.31 -5.26,-26.77 -11.63,-34.43 -9.76,-11.86 -22.51,-17.83 -38.11,-17.83 -14.15,0 -26.01,4.74 -35.66,14.21 -9.59,9.47 -14.9,22.15 -15.96,38.05z"/>
  <polygon id="_30" class="fil3 str4" points="1780.22,1660.09 1780.22,1408.98 1813.53,1408.98 1813.53,1660.09 "/>
  <polygon id="_31" class="fil3 str4" points="1879.96,1478.07 1927.42,1478.07 1975.53,1623.73 2028.78,1478.07 2072.85,1478.07 2072.85,1660.09 2041.99,1660.09 2041.99,1513.55 1988.39,1660.09 1960.8,1660.09 1910.12,1506.54 1910.12,1660.09 1879.96,1660.09 "/>
  <path id="_32" class="fil3 str4" d="M2129.33 1442.3l0 -35.77 32.97 0 0 28.4c0,15.2 -1.75,26.19 -5.32,32.85 -4.97,9.24 -12.62,16.14 -23.09,20.81l-7.36 -12.16c6.19,-2.51 10.75,-6.42 13.79,-11.86 3.04,-5.38 4.74,-12.8 5.09,-22.27l-16.08 0z"/>
  <path id="_33" class="fil3 str4" d="M2362.82 1478.07l0 182.02 -30.87 0 0 -70.84 -17.76 0c-10.82,0 -18.88,1.4 -24.2,4.26 -5.32,2.87 -13.1,11.81 -23.33,26.95l-27.12 39.63 -38.22 0 33.31 -48.87c10.17,-14.96 20.34,-23.38 30.46,-25.31 -17.6,-2.39 -30.69,-8.76 -39.23,-19.05 -8.53,-10.29 -12.8,-22.15 -12.8,-35.54 0,-15.84 5.56,-28.64 16.72,-38.46 11.17,-9.88 27.36,-14.79 48.52,-14.79l84.52 0zm-30.87 25.6l-43.83 0c-18.36,0 -30.22,2.87 -35.54,8.6 -5.32,5.72 -7.95,12.45 -7.95,20.1 0,10.88 3.91,18.88 11.75,23.97 7.77,5.08 21.62,7.66 41.5,7.66l34.07 0 0 -60.33z"/>
  <polygon id="_34" class="fil3 str4" points="1108.96,1800.78 1306.05,1800.78 1306.05,2051.89 1272.74,2051.89 1272.74,1830.24 1142.27,1830.24 1142.27,2051.89 1108.96,2051.89 "/>
  <path id="_35" class="fil3 str4" d="M1355.99 1960.88c0,-33.61 9.36,-58.51 28.12,-74.7 15.61,-13.44 34.72,-20.17 57.22,-20.17 24.96,0 45.42,8.19 61.32,24.55 15.84,16.31 23.79,38.93 23.79,67.75 0,23.38 -3.51,41.73 -10.52,55.12 -7.02,13.38 -17.25,23.79 -30.69,31.21 -13.39,7.43 -28.06,11.11 -43.9,11.11 -25.48,0 -46.06,-8.13 -61.78,-24.43 -15.72,-16.31 -23.56,-39.81 -23.56,-70.44zm31.57 0.06c0,23.26 5.08,40.68 15.25,52.2 10.23,11.57 23.03,17.36 38.52,17.36 15.32,0 28.06,-5.79 38.29,-17.42 10.17,-11.63 15.25,-29.34 15.25,-53.13 0,-22.45 -5.14,-39.46 -15.37,-50.97 -10.23,-11.58 -22.97,-17.36 -38.17,-17.36 -15.49,0 -28.29,5.72 -38.52,17.24 -10.17,11.51 -15.25,28.87 -15.25,52.08z"/>
  <path id="_36" class="fil3 str4" d="M1792.63 1794.82l27.35 0.35c-1.23,12.22 -3.97,20.75 -8.12,25.54 -4.15,4.8 -9.47,7.84 -16.02,9.24 -6.55,1.34 -19.41,2.04 -38.52,2.04 -25.37,0 -42.67,2.46 -51.9,7.37 -9.18,4.91 -15.85,12.74 -19.88,23.5 -4.03,10.81 -6.25,24.66 -6.72,41.67 7.77,-11.57 16.83,-20.22 27.24,-26.01 10.34,-5.78 22.09,-8.65 35.07,-8.65 23.85,0 43.6,8.18 59.27,24.55 15.61,16.37 23.44,38.52 23.44,66.52 0,21.22 -3.92,38.64 -11.81,52.2 -7.89,13.56 -17.24,24.08 -28.06,31.5 -10.75,7.43 -25.48,11.11 -44.07,11.11 -21.63,0 -38.4,-4.91 -50.38,-14.79 -11.99,-9.88 -21.16,-22.5 -27.59,-37.88 -6.37,-15.37 -9.59,-42.2 -9.59,-80.37 0,-47.99 8.13,-80.31 24.32,-96.97 16.19,-16.66 41.15,-24.96 74.82,-24.96 20.98,0 32.85,-0.35 35.71,-1.05 2.8,-0.7 4.62,-2.34 5.44,-4.91zm-1.06 165.24c0,-18.88 -4.5,-34.37 -13.44,-46.47 -8.94,-12.1 -21.57,-18.12 -37.88,-18.12 -17.01,0 -30.1,6.37 -39.34,19.18 -9.23,12.74 -13.85,29.75 -13.85,51.08 0,21.04 5.09,37.18 15.32,48.34 10.17,11.17 22.79,16.78 37.7,16.78 15.31,0 27.7,-6.49 37.23,-19.41 9.53,-12.92 14.26,-30.04 14.26,-51.38z"/>
  <path id="_37" class="fil3 str4" d="M1982.5 2029.09c-11.46,9.77 -22.51,16.6 -33.09,20.64 -10.58,4.03 -21.92,6.02 -34.07,6.02 -19.99,0 -35.37,-4.85 -46.12,-14.62 -10.76,-9.7 -16.13,-22.15 -16.13,-37.29 0,-8.88 2.04,-17.01 6.07,-24.37 4.1,-7.37 9.42,-13.21 15.96,-17.65 6.61,-4.45 13.97,-7.84 22.21,-10.12 6.08,-1.57 15.26,-3.09 27.48,-4.61 24.9,-2.93 43.31,-6.49 55.06,-10.58 0.11,-4.21 0.17,-6.9 0.17,-8.01 0,-12.51 -2.92,-21.34 -8.77,-26.48 -7.89,-6.96 -19.63,-10.4 -35.18,-10.4 -14.56,0 -25.31,2.57 -32.21,7.65 -6.96,5.09 -12.04,14.09 -15.37,27.07l-30.16 -4.21c2.74,-12.92 7.24,-23.38 13.56,-31.33 6.31,-7.95 15.43,-14.03 27.35,-18.36 11.87,-4.26 25.72,-6.43 41.39,-6.43 15.54,0 28.23,1.82 37.99,5.5 9.7,3.68 16.89,8.24 21.45,13.79 4.56,5.56 7.78,12.57 9.65,21.05 0.99,5.26 1.52,14.73 1.52,28.34l0 40.92c0,28.58 0.64,46.65 1.92,54.3 1.23,7.66 3.8,14.97 7.54,21.98l-32.26 0c-3.1,-6.49 -5.09,-14.09 -5.96,-22.8zm-2.46 -68.38c-11.22,4.55 -28.05,8.41 -50.5,11.57 -12.74,1.81 -21.74,3.86 -27,6.14 -5.26,2.28 -9.3,5.61 -12.16,9.93 -2.87,4.39 -4.33,9.24 -4.33,14.62 0,8.12 3.1,14.96 9.35,20.4 6.26,5.43 15.38,8.18 27.36,8.18 11.87,0 22.45,-2.57 31.74,-7.78 9.23,-5.14 16.07,-12.21 20.4,-21.15 3.33,-6.96 4.97,-17.19 4.97,-30.69l0.17 -11.22z"/>
  <polygon id="_38" class="fil3 str4" points="2045.52,1869.87 2192.82,1869.87 2192.82,1895.47 2134.6,1895.47 2134.6,2051.89 2103.74,2051.89 2103.74,1895.47 2045.52,1895.47 "/>
  <path id="_39" class="fil3 str4" d="M2232.31 1869.87l30.86 0 0 71.2 39.04 0c25.49,0 45.07,4.91 58.86,14.78 13.74,9.88 20.64,23.5 20.64,40.86 0,15.2 -5.73,28.18 -17.25,38.99 -11.45,10.81 -29.81,16.19 -55.06,16.19l-77.09 0 0 -182.02zm30.86 156.77l32.5 0c19.58,0 33.55,-2.4 41.91,-7.19 8.36,-4.79 12.56,-12.28 12.56,-22.45 0,-7.89 -3.09,-14.9 -9.29,-21.1 -6.2,-6.13 -19.87,-9.23 -41.09,-9.23l-36.59 0 0 59.97z"/>
  <path id="_40" class="fil3 str4" d="M2426.1 1869.87l30.86 0 0 78.56c9.82,0 16.72,-1.87 20.69,-5.67 3.92,-3.74 9.7,-14.67 17.42,-32.85 6.08,-14.38 10.99,-23.85 14.73,-28.41 3.8,-4.56 8.12,-7.65 13.03,-9.23 4.97,-1.58 12.86,-2.4 23.68,-2.4l6.19 0 0 25.43 -8.59 -0.18c-8.12,0 -13.33,1.23 -15.61,3.63 -2.39,2.51 -6.08,9.99 -10.99,22.44 -4.67,11.93 -8.94,20.17 -12.85,24.73 -3.86,4.56 -9.88,8.71 -18.01,12.51 13.27,3.56 26.36,15.89 39.22,37.05l33.85 56.41 -33.91 0 -33.37 -56.23c-6.72,-11.4 -12.57,-18.88 -17.54,-22.5 -5.02,-3.63 -10.99,-5.44 -17.94,-5.44l0 84.17 -30.86 0 0 -182.02z"/>
  <path id="_41" class="fil3 str4" d="M2582.95 1960.88c0,-33.61 9.36,-58.51 28.12,-74.7 15.61,-13.44 34.72,-20.17 57.22,-20.17 24.96,0 45.42,8.19 61.32,24.55 15.84,16.31 23.79,38.93 23.79,67.75 0,23.38 -3.51,41.73 -10.52,55.12 -7.02,13.38 -17.25,23.79 -30.69,31.21 -13.39,7.43 -28.06,11.11 -43.9,11.11 -25.48,0 -46.06,-8.13 -61.78,-24.43 -15.72,-16.31 -23.56,-39.81 -23.56,-70.44zm31.57 0.06c0,23.26 5.08,40.68 15.25,52.2 10.23,11.57 23.03,17.36 38.52,17.36 15.32,0 28.06,-5.79 38.29,-17.42 10.17,-11.63 15.25,-29.34 15.25,-53.13 0,-22.45 -5.14,-39.46 -15.37,-50.97 -10.23,-11.58 -22.97,-17.36 -38.17,-17.36 -15.49,0 -28.29,5.72 -38.52,17.24 -10.17,11.51 -15.25,28.87 -15.25,52.08z"/>
  <path id="_42" class="fil3 str4" d="M2800.3 1869.87l71.02 0c17.41,0 30.39,1.46 38.92,4.39 8.48,2.92 15.79,8.24 21.87,16.01 6.13,7.83 9.17,17.13 9.17,28 0,8.71 -1.81,16.31 -5.38,22.74 -3.62,6.49 -9,11.92 -16.24,16.25 8.53,2.86 15.6,8.18 21.27,16.01 5.61,7.78 8.42,17.07 8.42,27.77 -1.11,17.24 -7.31,30.04 -18.47,38.34 -11.17,8.36 -27.42,12.51 -48.69,12.51l-81.89 0 0 -182.02zm30.86 76.81l32.73 0c13.04,0 22.04,-0.7 26.89,-2.05 4.91,-1.4 9.29,-4.15 13.15,-8.36 3.86,-4.15 5.79,-9.17 5.79,-15.02 0,-9.64 -3.39,-16.31 -10.11,-20.11 -6.78,-3.8 -18.36,-5.67 -34.72,-5.67l-33.73 0 0 51.21zm0 79.96l40.51 0c17.41,0 29.4,-2.05 35.89,-6.08 6.48,-4.09 9.87,-11.05 10.22,-21.04 0,-5.79 -1.87,-11.23 -5.61,-16.19 -3.8,-4.97 -8.71,-8.13 -14.73,-9.41 -6.02,-1.35 -15.72,-1.99 -29.05,-1.99l-37.23 0 0 54.71z"/>
  <path id="_43" class="fil3 str4" d="M2997.36 1835.85l0 -35.07 30.86 0 0 35.07 -30.86 0zm0 216.04l0 -182.02 30.86 0 0 182.02 -30.86 0z"/>
  <path class="fil2" d="M1148.5 2405.58l44.77 0 89.53 149.81 0 -149.81 43.5 0 0 227.33 -46.99 0 -87.95 -145.94 0 145.94 -42.86 0 0 -227.33zm192.41 104.25c0,-19.37 5.76,-34.72 17.25,-46.15 11.53,-11.43 26.19,-17.14 43.97,-17.14 17.94,0 32.7,6.14 44.29,18.36 11.59,12.28 17.36,27.57 17.36,45.98 0,11.59 -2.33,21.91 -6.99,30.96 -4.65,9.05 -11.27,16.56 -19.89,22.65 -8.63,6.03 -19.79,9.05 -33.55,9.05 -19.42,0 -34.66,-6.14 -45.78,-18.47 -11.11,-12.28 -16.66,-27.36 -16.66,-45.24zm42.22 4.07c0,9.84 1.59,17.2 4.77,22.12 3.22,4.92 7.99,7.35 14.39,7.35 6.67,0 11.64,-3.06 14.97,-9.15 3.28,-6.09 4.93,-15.24 4.93,-27.46 0,-10.11 -1.54,-17.73 -4.56,-22.76 -3.01,-5.08 -7.56,-7.62 -13.65,-7.62 -6.88,0 -12.12,3.12 -15.61,9.37 -3.49,6.24 -5.24,15.66 -5.24,28.15zm-36.51 74.56l110.81 0 0 34.29 -110.81 0 0 -34.29z"/>
  <path id="_1_14" class="fil2" d="M1652.37 2404.31c22.02,0 39.22,7.88 51.65,23.65 14.76,18.63 22.17,49.59 22.17,92.77 0,43.12 -7.46,74.13 -22.33,92.97 -12.33,15.56 -29.47,23.34 -51.49,23.34 -22.12,0 -39.95,-8.52 -53.49,-25.56 -13.55,-17.04 -20.32,-47.47 -20.32,-91.18 0,-42.91 7.46,-73.82 22.33,-92.65 12.33,-15.56 29.47,-23.34 51.48,-23.34zm0 36.19c-5.18,0 -9.84,1.7 -13.86,5.08 -4.07,3.34 -7.25,9.37 -9.47,18.1 -2.97,11.27 -4.45,30.32 -4.45,57.05 0,26.77 1.33,45.13 3.97,55.14 2.65,10 5.98,16.66 10,20 4.02,3.33 8.63,4.97 13.81,4.97 5.19,0 9.85,-1.69 13.92,-5.08 4.02,-3.33 7.2,-9.36 9.42,-18.1 2.96,-11.16 4.45,-30.16 4.45,-56.93 0,-26.73 -1.33,-45.09 -3.97,-55.09 -2.65,-10 -5.98,-16.72 -10,-20.06 -4.03,-3.38 -8.63,-5.08 -13.82,-5.08z"/>
  <path id="_2_15" class="fil2" d="M1828.95 2404.31c22.02,0 39.22,7.88 51.65,23.65 14.76,18.63 22.17,49.59 22.17,92.77 0,43.12 -7.46,74.13 -22.33,92.97 -12.33,15.56 -29.47,23.34 -51.49,23.34 -22.12,0 -39.95,-8.52 -53.49,-25.56 -13.55,-17.04 -20.32,-47.47 -20.32,-91.18 0,-42.91 7.46,-73.82 22.33,-92.65 12.33,-15.56 29.47,-23.34 51.48,-23.34zm0 36.19c-5.18,0 -9.84,1.7 -13.86,5.08 -4.07,3.34 -7.25,9.37 -9.47,18.1 -2.97,11.27 -4.45,30.32 -4.45,57.05 0,26.77 1.33,45.13 3.97,55.14 2.65,10 5.98,16.66 10,20 4.02,3.33 8.63,4.97 13.81,4.97 5.19,0 9.85,-1.69 13.92,-5.08 4.02,-3.33 7.2,-9.36 9.42,-18.1 2.96,-11.16 4.45,-30.16 4.45,-56.93 0,-26.73 -1.33,-45.09 -3.97,-55.09 -2.65,-10 -5.98,-16.72 -10,-20.06 -4.03,-3.38 -8.63,-5.08 -13.82,-5.08z"/>
  <path id="_3_16" class="fil2" d="M2005.53 2404.31c22.02,0 39.22,7.88 51.65,23.65 14.76,18.63 22.17,49.59 22.17,92.77 0,43.12 -7.46,74.13 -22.33,92.97 -12.33,15.56 -29.47,23.34 -51.49,23.34 -22.12,0 -39.95,-8.52 -53.49,-25.56 -13.55,-17.04 -20.32,-47.47 -20.32,-91.18 0,-42.91 7.46,-73.82 22.33,-92.65 12.33,-15.56 29.47,-23.34 51.48,-23.34zm0 36.19c-5.18,0 -9.84,1.7 -13.86,5.08 -4.07,3.34 -7.25,9.37 -9.47,18.1 -2.97,11.27 -4.45,30.32 -4.45,57.05 0,26.77 1.33,45.13 3.97,55.14 2.65,10 5.98,16.66 10,20 4.02,3.33 8.63,4.97 13.81,4.97 5.19,0 9.85,-1.69 13.92,-5.08 4.02,-3.33 7.2,-9.36 9.42,-18.1 2.96,-11.16 4.45,-30.16 4.45,-56.93 0,-26.73 -1.33,-45.09 -3.97,-55.09 -2.65,-10 -5.98,-16.72 -10,-20.06 -4.03,-3.38 -8.63,-5.08 -13.82,-5.08z"/>
  <path id="_4_17" class="fil2" d="M2182.11 2404.31c22.02,0 39.22,7.88 51.65,23.65 14.76,18.63 22.17,49.59 22.17,92.77 0,43.12 -7.46,74.13 -22.33,92.97 -12.33,15.56 -29.47,23.34 -51.49,23.34 -22.12,0 -39.95,-8.52 -53.49,-25.56 -13.55,-17.04 -20.32,-47.47 -20.32,-91.18 0,-42.91 7.46,-73.82 22.33,-92.65 12.33,-15.56 29.47,-23.34 51.48,-23.34zm0 36.19c-5.18,0 -9.84,1.7 -13.86,5.08 -4.07,3.34 -7.25,9.37 -9.47,18.1 -2.97,11.27 -4.45,30.32 -4.45,57.05 0,26.77 1.33,45.13 3.97,55.14 2.65,10 5.98,16.66 10,20 4.02,3.33 8.63,4.97 13.81,4.97 5.19,0 9.85,-1.69 13.92,-5.08 4.02,-3.33 7.2,-9.36 9.42,-18.1 2.96,-11.16 4.45,-30.16 4.45,-56.93 0,-26.73 -1.33,-45.09 -3.97,-55.09 -2.65,-10 -5.98,-16.72 -10,-20.06 -4.03,-3.38 -8.63,-5.08 -13.82,-5.08z"/>
  <path id="_5_18" class="fil2" d="M2358.69 2404.31c22.02,0 39.22,7.88 51.65,23.65 14.76,18.63 22.17,49.59 22.17,92.77 0,43.12 -7.46,74.13 -22.33,92.97 -12.33,15.56 -29.47,23.34 -51.49,23.34 -22.12,0 -39.95,-8.52 -53.49,-25.56 -13.55,-17.04 -20.32,-47.47 -20.32,-91.18 0,-42.91 7.46,-73.82 22.33,-92.65 12.33,-15.56 29.47,-23.34 51.48,-23.34zm0 36.19c-5.18,0 -9.84,1.7 -13.86,5.08 -4.07,3.34 -7.25,9.37 -9.47,18.1 -2.97,11.27 -4.45,30.32 -4.45,57.05 0,26.77 1.33,45.13 3.97,55.14 2.65,10 5.98,16.66 10,20 4.02,3.33 8.63,4.97 13.81,4.97 5.19,0 9.85,-1.69 13.92,-5.08 4.02,-3.33 7.2,-9.36 9.42,-18.1 2.96,-11.16 4.45,-30.16 4.45,-56.93 0,-26.73 -1.33,-45.09 -3.97,-55.09 -2.65,-10 -5.98,-16.72 -10,-20.06 -4.03,-3.38 -8.63,-5.08 -13.82,-5.08z"/>
  <path id="_6_19" class="fil2" d="M2535.27 2404.31c22.02,0 39.22,7.88 51.65,23.65 14.76,18.63 22.17,49.59 22.17,92.77 0,43.12 -7.46,74.13 -22.33,92.97 -12.33,15.56 -29.47,23.34 -51.49,23.34 -22.12,0 -39.95,-8.52 -53.49,-25.56 -13.55,-17.04 -20.32,-47.47 -20.32,-91.18 0,-42.91 7.46,-73.82 22.33,-92.65 12.33,-15.56 29.47,-23.34 51.48,-23.34zm0 36.19c-5.18,0 -9.84,1.7 -13.86,5.08 -4.07,3.34 -7.25,9.37 -9.47,18.1 -2.97,11.27 -4.45,30.32 -4.45,57.05 0,26.77 1.33,45.13 3.97,55.14 2.65,10 5.98,16.66 10,20 4.02,3.33 8.63,4.97 13.81,4.97 5.19,0 9.85,-1.69 13.92,-5.08 4.02,-3.33 7.2,-9.36 9.42,-18.1 2.96,-11.16 4.45,-30.16 4.45,-56.93 0,-26.73 -1.33,-45.09 -3.97,-55.09 -2.65,-10 -5.98,-16.72 -10,-20.06 -4.03,-3.38 -8.63,-5.08 -13.82,-5.08z"/>
  <path id="_7_20" class="fil2" d="M2711.85 2404.31c22.02,0 39.22,7.88 51.65,23.65 14.76,18.63 22.17,49.59 22.17,92.77 0,43.12 -7.46,74.13 -22.33,92.97 -12.33,15.56 -29.47,23.34 -51.49,23.34 -22.12,0 -39.95,-8.52 -53.49,-25.56 -13.55,-17.04 -20.32,-47.47 -20.32,-91.18 0,-42.91 7.46,-73.82 22.33,-92.65 12.33,-15.56 29.47,-23.34 51.48,-23.34zm0 36.19c-5.18,0 -9.84,1.7 -13.86,5.08 -4.07,3.34 -7.25,9.37 -9.47,18.1 -2.97,11.27 -4.45,30.32 -4.45,57.05 0,26.77 1.33,45.13 3.97,55.14 2.65,10 5.98,16.66 10,20 4.02,3.33 8.63,4.97 13.81,4.97 5.19,0 9.85,-1.69 13.92,-5.08 4.02,-3.33 7.2,-9.36 9.42,-18.1 2.96,-11.16 4.45,-30.16 4.45,-56.93 0,-26.73 -1.33,-45.09 -3.97,-55.09 -2.65,-10 -5.98,-16.72 -10,-20.06 -4.03,-3.38 -8.63,-5.08 -13.82,-5.08z"/>
  <path id="_8_21" class="fil2" d="M2888.43 2404.31c22.02,0 39.22,7.88 51.65,23.65 14.76,18.63 22.17,49.59 22.17,92.77 0,43.12 -7.46,74.13 -22.33,92.97 -12.33,15.56 -29.47,23.34 -51.49,23.34 -22.12,0 -39.95,-8.52 -53.49,-25.56 -13.55,-17.04 -20.32,-47.47 -20.32,-91.18 0,-42.91 7.46,-73.82 22.33,-92.65 12.33,-15.56 29.47,-23.34 51.48,-23.34zm0 36.19c-5.18,0 -9.84,1.7 -13.86,5.08 -4.07,3.34 -7.25,9.37 -9.47,18.1 -2.97,11.27 -4.45,30.32 -4.45,57.05 0,26.77 1.33,45.13 3.97,55.14 2.65,10 5.98,16.66 10,20 4.02,3.33 8.63,4.97 13.81,4.97 5.19,0 9.85,-1.69 13.92,-5.08 4.02,-3.33 7.2,-9.36 9.42,-18.1 2.96,-11.16 4.45,-30.16 4.45,-56.93 0,-26.73 -1.33,-45.09 -3.97,-55.09 -2.65,-10 -5.98,-16.72 -10,-20.06 -4.03,-3.38 -8.63,-5.08 -13.82,-5.08z"/>
  <path id="_9_22" class="fil3 str0" d="M1148.5 2405.58l44.77 0 89.53 149.81 0 -149.81 43.5 0 0 227.33 -46.99 0 -87.95 -145.94 0 145.94 -42.86 0 0 -227.33zm192.41 104.25c0,-19.37 5.76,-34.72 17.25,-46.15 11.53,-11.43 26.19,-17.14 43.97,-17.14 17.94,0 32.7,6.14 44.29,18.36 11.59,12.28 17.36,27.57 17.36,45.98 0,11.59 -2.33,21.91 -6.99,30.96 -4.65,9.05 -11.27,16.56 -19.89,22.65 -8.63,6.03 -19.79,9.05 -33.55,9.05 -19.42,0 -34.66,-6.14 -45.78,-18.47 -11.11,-12.28 -16.66,-27.36 -16.66,-45.24zm42.22 4.07c0,9.84 1.59,17.2 4.77,22.12 3.22,4.92 7.99,7.35 14.39,7.35 6.67,0 11.64,-3.06 14.97,-9.15 3.28,-6.09 4.93,-15.24 4.93,-27.46 0,-10.11 -1.54,-17.73 -4.56,-22.76 -3.01,-5.08 -7.56,-7.62 -13.65,-7.62 -6.88,0 -12.12,3.12 -15.61,9.37 -3.49,6.24 -5.24,15.66 -5.24,28.15zm-36.51 74.56l110.81 0 0 34.29 -110.81 0 0 -34.29z"/>
  <path id="_10_23" class="fil3 str0" d="M1652.37 2404.31c22.02,0 39.22,7.88 51.65,23.65 14.76,18.63 22.17,49.59 22.17,92.77 0,43.12 -7.46,74.13 -22.33,92.97 -12.33,15.56 -29.47,23.34 -51.49,23.34 -22.12,0 -39.95,-8.52 -53.49,-25.56 -13.55,-17.04 -20.32,-47.47 -20.32,-91.18 0,-42.91 7.46,-73.82 22.33,-92.65 12.33,-15.56 29.47,-23.34 51.48,-23.34zm0 36.19c-5.18,0 -9.84,1.7 -13.86,5.08 -4.07,3.34 -7.25,9.37 -9.47,18.1 -2.97,11.27 -4.45,30.32 -4.45,57.05 0,26.77 1.33,45.13 3.97,55.14 2.65,10 5.98,16.66 10,20 4.02,3.33 8.63,4.97 13.81,4.97 5.19,0 9.85,-1.69 13.92,-5.08 4.02,-3.33 7.2,-9.36 9.42,-18.1 2.96,-11.16 4.45,-30.16 4.45,-56.93 0,-26.73 -1.33,-45.09 -3.97,-55.09 -2.65,-10 -5.98,-16.72 -10,-20.06 -4.03,-3.38 -8.63,-5.08 -13.82,-5.08z"/>
  <path id="_11_24" class="fil3 str0" d="M1828.95 2404.31c22.02,0 39.22,7.88 51.65,23.65 14.76,18.63 22.17,49.59 22.17,92.77 0,43.12 -7.46,74.13 -22.33,92.97 -12.33,15.56 -29.47,23.34 -51.49,23.34 -22.12,0 -39.95,-8.52 -53.49,-25.56 -13.55,-17.04 -20.32,-47.47 -20.32,-91.18 0,-42.91 7.46,-73.82 22.33,-92.65 12.33,-15.56 29.47,-23.34 51.48,-23.34zm0 36.19c-5.18,0 -9.84,1.7 -13.86,5.08 -4.07,3.34 -7.25,9.37 -9.47,18.1 -2.97,11.27 -4.45,30.32 -4.45,57.05 0,26.77 1.33,45.13 3.97,55.14 2.65,10 5.98,16.66 10,20 4.02,3.33 8.63,4.97 13.81,4.97 5.19,0 9.85,-1.69 13.92,-5.08 4.02,-3.33 7.2,-9.36 9.42,-18.1 2.96,-11.16 4.45,-30.16 4.45,-56.93 0,-26.73 -1.33,-45.09 -3.97,-55.09 -2.65,-10 -5.98,-16.72 -10,-20.06 -4.03,-3.38 -8.63,-5.08 -13.82,-5.08z"/>
  <path id="_12_25" class="fil3 str0" d="M2005.53 2404.31c22.02,0 39.22,7.88 51.65,23.65 14.76,18.63 22.17,49.59 22.17,92.77 0,43.12 -7.46,74.13 -22.33,92.97 -12.33,15.56 -29.47,23.34 -51.49,23.34 -22.12,0 -39.95,-8.52 -53.49,-25.56 -13.55,-17.04 -20.32,-47.47 -20.32,-91.18 0,-42.91 7.46,-73.82 22.33,-92.65 12.33,-15.56 29.47,-23.34 51.48,-23.34zm0 36.19c-5.18,0 -9.84,1.7 -13.86,5.08 -4.07,3.34 -7.25,9.37 -9.47,18.1 -2.97,11.27 -4.45,30.32 -4.45,57.05 0,26.77 1.33,45.13 3.97,55.14 2.65,10 5.98,16.66 10,20 4.02,3.33 8.63,4.97 13.81,4.97 5.19,0 9.85,-1.69 13.92,-5.08 4.02,-3.33 7.2,-9.36 9.42,-18.1 2.96,-11.16 4.45,-30.16 4.45,-56.93 0,-26.73 -1.33,-45.09 -3.97,-55.09 -2.65,-10 -5.98,-16.72 -10,-20.06 -4.03,-3.38 -8.63,-5.08 -13.82,-5.08z"/>
  <path id="_13_26" class="fil3 str0" d="M2182.11 2404.31c22.02,0 39.22,7.88 51.65,23.65 14.76,18.63 22.17,49.59 22.17,92.77 0,43.12 -7.46,74.13 -22.33,92.97 -12.33,15.56 -29.47,23.34 -51.49,23.34 -22.12,0 -39.95,-8.52 -53.49,-25.56 -13.55,-17.04 -20.32,-47.47 -20.32,-91.18 0,-42.91 7.46,-73.82 22.33,-92.65 12.33,-15.56 29.47,-23.34 51.48,-23.34zm0 36.19c-5.18,0 -9.84,1.7 -13.86,5.08 -4.07,3.34 -7.25,9.37 -9.47,18.1 -2.97,11.27 -4.45,30.32 -4.45,57.05 0,26.77 1.33,45.13 3.97,55.14 2.65,10 5.98,16.66 10,20 4.02,3.33 8.63,4.97 13.81,4.97 5.19,0 9.85,-1.69 13.92,-5.08 4.02,-3.33 7.2,-9.36 9.42,-18.1 2.96,-11.16 4.45,-30.16 4.45,-56.93 0,-26.73 -1.33,-45.09 -3.97,-55.09 -2.65,-10 -5.98,-16.72 -10,-20.06 -4.03,-3.38 -8.63,-5.08 -13.82,-5.08z"/>
  <path id="_14_27" class="fil3 str0" d="M2358.69 2404.31c22.02,0 39.22,7.88 51.65,23.65 14.76,18.63 22.17,49.59 22.17,92.77 0,43.12 -7.46,74.13 -22.33,92.97 -12.33,15.56 -29.47,23.34 -51.49,23.34 -22.12,0 -39.95,-8.52 -53.49,-25.56 -13.55,-17.04 -20.32,-47.47 -20.32,-91.18 0,-42.91 7.46,-73.82 22.33,-92.65 12.33,-15.56 29.47,-23.34 51.48,-23.34zm0 36.19c-5.18,0 -9.84,1.7 -13.86,5.08 -4.07,3.34 -7.25,9.37 -9.47,18.1 -2.97,11.27 -4.45,30.32 -4.45,57.05 0,26.77 1.33,45.13 3.97,55.14 2.65,10 5.98,16.66 10,20 4.02,3.33 8.63,4.97 13.81,4.97 5.19,0 9.85,-1.69 13.92,-5.08 4.02,-3.33 7.2,-9.36 9.42,-18.1 2.96,-11.16 4.45,-30.16 4.45,-56.93 0,-26.73 -1.33,-45.09 -3.97,-55.09 -2.65,-10 -5.98,-16.72 -10,-20.06 -4.03,-3.38 -8.63,-5.08 -13.82,-5.08z"/>
  <path id="_15_28" class="fil3 str0" d="M2535.27 2404.31c22.02,0 39.22,7.88 51.65,23.65 14.76,18.63 22.17,49.59 22.17,92.77 0,43.12 -7.46,74.13 -22.33,92.97 -12.33,15.56 -29.47,23.34 -51.49,23.34 -22.12,0 -39.95,-8.52 -53.49,-25.56 -13.55,-17.04 -20.32,-47.47 -20.32,-91.18 0,-42.91 7.46,-73.82 22.33,-92.65 12.33,-15.56 29.47,-23.34 51.48,-23.34zm0 36.19c-5.18,0 -9.84,1.7 -13.86,5.08 -4.07,3.34 -7.25,9.37 -9.47,18.1 -2.97,11.27 -4.45,30.32 -4.45,57.05 0,26.77 1.33,45.13 3.97,55.14 2.65,10 5.98,16.66 10,20 4.02,3.33 8.63,4.97 13.81,4.97 5.19,0 9.85,-1.69 13.92,-5.08 4.02,-3.33 7.2,-9.36 9.42,-18.1 2.96,-11.16 4.45,-30.16 4.45,-56.93 0,-26.73 -1.33,-45.09 -3.97,-55.09 -2.65,-10 -5.98,-16.72 -10,-20.06 -4.03,-3.38 -8.63,-5.08 -13.82,-5.08z"/>
  <path id="_16_29" class="fil3 str0" d="M2711.85 2404.31c22.02,0 39.22,7.88 51.65,23.65 14.76,18.63 22.17,49.59 22.17,92.77 0,43.12 -7.46,74.13 -22.33,92.97 -12.33,15.56 -29.47,23.34 -51.49,23.34 -22.12,0 -39.95,-8.52 -53.49,-25.56 -13.55,-17.04 -20.32,-47.47 -20.32,-91.18 0,-42.91 7.46,-73.82 22.33,-92.65 12.33,-15.56 29.47,-23.34 51.48,-23.34zm0 36.19c-5.18,0 -9.84,1.7 -13.86,5.08 -4.07,3.34 -7.25,9.37 -9.47,18.1 -2.97,11.27 -4.45,30.32 -4.45,57.05 0,26.77 1.33,45.13 3.97,55.14 2.65,10 5.98,16.66 10,20 4.02,3.33 8.63,4.97 13.81,4.97 5.19,0 9.85,-1.69 13.92,-5.08 4.02,-3.33 7.2,-9.36 9.42,-18.1 2.96,-11.16 4.45,-30.16 4.45,-56.93 0,-26.73 -1.33,-45.09 -3.97,-55.09 -2.65,-10 -5.98,-16.72 -10,-20.06 -4.03,-3.38 -8.63,-5.08 -13.82,-5.08z"/>
  <path id="_17_30" class="fil3 str0" d="M2888.43 2404.31c22.02,0 39.22,7.88 51.65,23.65 14.76,18.63 22.17,49.59 22.17,92.77 0,43.12 -7.46,74.13 -22.33,92.97 -12.33,15.56 -29.47,23.34 -51.49,23.34 -22.12,0 -39.95,-8.52 -53.49,-25.56 -13.55,-17.04 -20.32,-47.47 -20.32,-91.18 0,-42.91 7.46,-73.82 22.33,-92.65 12.33,-15.56 29.47,-23.34 51.48,-23.34zm0 36.19c-5.18,0 -9.84,1.7 -13.86,5.08 -4.07,3.34 -7.25,9.37 -9.47,18.1 -2.97,11.27 -4.45,30.32 -4.45,57.05 0,26.77 1.33,45.13 3.97,55.14 2.65,10 5.98,16.66 10,20 4.02,3.33 8.63,4.97 13.81,4.97 5.19,0 9.85,-1.69 13.92,-5.08 4.02,-3.33 7.2,-9.36 9.42,-18.1 2.96,-11.16 4.45,-30.16 4.45,-56.93 0,-26.73 -1.33,-45.09 -3.97,-55.09 -2.65,-10 -5.98,-16.72 -10,-20.06 -4.03,-3.38 -8.63,-5.08 -13.82,-5.08z"/>
 </g>
</svg>
