<?xml version="1.0" encoding="UTF-8"?>
<!DOCTYPE svg PUBLIC "-//W3C//DTD SVG 1.1//EN" "http://www.w3.org/Graphics/SVG/1.1/DTD/svg11.dtd">
<!-- Creator: CorelDRAW 2019 (64-Bit) -->
<svg xmlns="http://www.w3.org/2000/svg" xml:space="preserve" width="41mm" height="41mm" version="1.1" style="shape-rendering:geometricPrecision; text-rendering:geometricPrecision; image-rendering:optimizeQuality; fill-rule:evenodd; clip-rule:evenodd"
viewBox="0 0 4100 4100"
 xmlns:xlink="http://www.w3.org/1999/xlink">
 <defs>
  <style type="text/css">
   <![CDATA[
    .str0 {stroke:#393185;stroke-width:50;stroke-miterlimit:22.9256}
    .str6 {stroke:#393185;stroke-width:40;stroke-miterlimit:22.9256}
    .str1 {stroke:#393185;stroke-width:30;stroke-miterlimit:22.9256}
    .str8 {stroke:#393185;stroke-width:25;stroke-miterlimit:22.9256}
    .str2 {stroke:#393185;stroke-width:15;stroke-miterlimit:22.9256}
    .str7 {stroke:#393185;stroke-width:25;stroke-linejoin:round;stroke-miterlimit:22.9256}
    .str4 {stroke:#393185;stroke-width:15;stroke-linejoin:round;stroke-miterlimit:22.9256}
    .str3 {stroke:#393185;stroke-width:7.62;stroke-linejoin:round;stroke-miterlimit:22.9256}
    .str5 {stroke:#393185;stroke-width:20;stroke-linecap:round;stroke-linejoin:round;stroke-miterlimit:22.9256}
    .fil0 {fill:none}
    .fil2 {fill:none;fill-rule:nonzero}
    .fil3 {fill:#393185}
    .fil1 {fill:#393185;fill-rule:nonzero}
   ]]>
  </style>
 </defs>
 <g id="Слой_x0020_1">
  <metadata id="CorelCorpID_0Corel-Layer"/>
  <path class="fil0 str0" d="M2050.01 50c1104.56,0 2000,895.44 2000,2000 0,1104.56 -895.44,2000 -2000,2000 -1104.57,0 -2000.01,-895.44 -2000.01,-2000 0,-1104.56 895.44,-2000 2000.01,-2000z"/>
  <path class="fil0 str1" d="M1890.19 105.88l322.58 0 -314.61 181.64 307.61 0m-484.33 -160.3l321.35 -28.11 -297.58 208.37 306.44 -26.81m-496.46 -117.48l317.67 -56.01 -278.28 233.51 302.93 -53.42m-504.81 -73.76l311.58 -83.48 -256.86 256.87 297.12 -79.62m-509.32 -29.48l303.12 -110.32 -233.5 278.28 289.05 -105.21m-509.95 15.02l292.35 -136.32 -208.35 297.57 278.78 -130m-506.7 59.41l279.35 -161.28 -181.62 314.6 266.39 -153.81m-499.6 103.35l264.23 -185.01 -153.5 329.23 251.97 -176.44m-488.7 146.5l247.1 -207.34 -124.22 341.36 235.64 -197.73m-474.08 188.53l228.09 -228.09 -93.99 350.89 217.51 -217.51m-455.85 229.13l207.35 -247.1 -63.05 357.74 197.72 -235.64m-434.14 267.99l185.02 -264.23 -31.63 361.87 176.43 -251.97m-409.13 304.81l161.28 -279.35 0.03 363.25 153.8 -266.39m-381 339.31l136.31 -292.35 31.69 361.87 130 -278.78m-349.98 371.22l110.31 -303.11 63.11 357.73 105.21 -289.05m-316.29 400.31l83.47 -311.57 94.05 350.86 79.61 -297.12m-280.19 426.36l56 -317.66 124.27 341.33 53.41 -302.93m-241.97 449.16l28.1 -321.34 153.55 329.2 26.81 -306.43m-201.91 468.54l-0.01 -322.56 181.66 314.56 0 -307.6m-160.31 484.35l-28.12 -321.33 208.38 297.53 -26.81 -306.43m-117.48 496.48l-56.02 -317.65 233.52 278.23 -53.42 -302.92m-73.76 504.83l-83.49 -311.56 256.88 256.81 -79.62 -297.11m-29.48 509.34l-110.32 -303.1 278.28 233.45 -105.21 -289.04m15.02 509.97l-136.31 -292.33 297.56 208.3 -130 -278.77m59.41 506.72l-161.27 -279.33 314.58 181.57 -153.8 -266.38m103.35 499.62l-185 -264.22 329.21 153.47 -176.44 -251.97m146.51 488.72l-207.33 -247.1 341.33 124.2 -197.72 -235.64m188.54 474.1l-228.07 -228.09 350.85 93.97 -217.5 -217.51m229.14 455.87l-247.08 -207.35 357.7 63.04 -235.63 -197.73m268 434.16l-264.21 -185.02 361.83 31.62 -251.96 -176.44m304.82 409.15l-279.33 -161.29 363.21 -0.03 -266.38 -153.81m339.32 381.02l-292.33 -136.33 361.83 -31.68 -278.77 -130.01m371.23 350l-303.1 -110.34 357.7 -63.09 -289.04 -105.22m400.32 316.31l-311.57 -83.5 350.84 -94.03 -297.11 -79.62m426.37 280.21l-317.66 -56.02 341.31 -124.25 -302.92 -53.43m449.17 241.99l-321.34 -28.12 329.19 -153.53 -306.43 -26.82m468.55 201.92l-322.56 -0.01 314.55 -181.64 -307.6 -0.01m484.37 160.32l-321.34 28.1 297.52 -208.36 -306.43 26.8m496.5 117.49l-317.66 56 278.22 -233.5 -302.92 53.41m504.85 73.77l-311.57 83.47 256.81 -256.86 -297.12 79.61m509.36 29.49l-303.11 110.3 233.45 -278.26 -289.05 105.2m509.99 -15.01l-292.34 136.29 208.31 -297.54 -278.79 129.99m506.75 -59.4l-279.35 161.25 181.58 -314.56 -266.4 153.79m499.65 -103.34l-264.24 184.98 153.48 -329.19 -251.99 176.43m488.75 -146.5l-247.12 207.31 124.21 -341.32 -235.66 197.73m474.13 -188.54l-228.12 228.05 93.99 -350.84 -217.53 217.51m455.9 -229.14l-207.38 247.06 63.06 -357.69 -197.75 235.64m434.2 -268.01l-185.06 264.2 31.64 -361.83 -176.46 251.98m409.19 -304.83l-161.33 279.32 -0.01 -363.21 -153.83 266.4m381.06 -339.33l-136.37 292.32 -31.66 -361.83 -130.03 278.79m350.04 -371.25l-110.38 303.1 -63.07 -357.7 -105.24 289.07m316.35 -400.35l-83.54 311.57 -94.01 -350.85 -79.64 297.15m280.25 -426.4l-56.07 317.66 -124.23 -341.32 -53.44 302.96m242.03 -449.2l-28.18 321.34 -153.5 -329.2 -26.83 306.47m201.96 -468.59l-0.07 322.58 -181.61 -314.57 -0.02 307.64m160.36 -484.41l28.04 321.36 -208.33 -297.54 26.79 306.47m117.53 -496.55l55.94 317.7 -233.47 -278.25 53.4 302.97m73.81 -504.91l83.41 311.62 -256.83 -256.85 79.6 297.17m29.52 -509.42l110.26 303.16 -278.24 -233.49 105.2 289.1m-15 -510.05l136.27 292.4 -297.53 -208.36 129.99 278.84m-59.39 -506.81l161.23 279.41 -314.56 -181.63 153.8 266.45m-103.33 -499.71l184.96 264.3 -329.19 -153.53 176.44 252.04m-146.49 -488.81l207.29 247.18 -341.32 -124.26 197.74 235.71m-188.54 -474.19l228.05 228.18 -350.85 -94.04 217.53 217.58m-229.15 -455.96l247.07 207.44 -357.72 -63.11 235.67 197.8m-268.02 -434.26l264.21 185.12 -361.86 -31.69 252.02 176.51m-304.85 -409.25l279.34 161.39 -363.25 -0.03 266.45 153.87m-339.36 -381.12l292.34 136.43 -361.87 31.62 278.85 130.07m-371.29 -350.1l303.12 110.44 -357.74 63.03 289.13 105.28m-400.39 -316.41l311.59 83.6 -350.89 93.97 297.21 79.68m-426.44 -280.31l317.69 56.12 -341.37 124.2 303.03 53.47m-449.25 -242.07l321.37 28.21 -329.25 153.48 306.54 26.86m-468.64 -202l322.61 0.1 -314.62 181.59 307.71 0.04m-484.46 -160.39l321.39 -28.01 -297.59 208.32 306.54 -26.78m-496.6 -117.56l317.73 -55.91 -278.3 233.46 303.04 -53.39m-504.96 -73.84l311.65 -83.38 -256.9 256.82 297.24 -79.6m-509.48 -29.54l303.2 -110.23 -233.54 278.23 289.17 -105.2m-510.11 14.98l292.44 -136.24 -208.41 297.53 278.91 -130.01"/>
  <path class="fil0 str0" d="M2050.01 192.46c1025.88,0 1857.54,831.66 1857.54,1857.54 0,1025.88 -831.66,1857.54 -1857.54,1857.54 -1025.89,0 -1857.55,-831.66 -1857.55,-1857.54 0,-1025.88 831.66,-1857.54 1857.55,-1857.54z"/>
  <path class="fil1 str2" d="M1115.34 2703.38c-0.47,-7.88 -2.06,-15.76 -4.82,-23.58 -3.89,-11.23 -5.83,-18.99 -5.83,-23.22 0,-6 1.42,-10.53 4.18,-13.65 2.82,-3.11 6.29,-4.64 10.46,-4.64 3.53,0 6.65,1.53 9.29,4.64 2.65,3.12 3.94,7.53 3.94,13.29 0,5.18 -1.53,12.35 -4.52,21.58 -3.06,9.29 -4.94,17.82 -5.65,25.58 6.35,-4 12,-8.88 17.05,-14.64 7.82,-9.06 13.64,-14.7 17.41,-16.88 3.82,-2.17 7.64,-3.23 11.58,-3.23 3.76,0 6.94,1.29 9.52,3.88 2.59,2.53 3.88,5.64 3.88,9.17 0,4.29 -1.88,8.06 -5.7,11.41 -3.76,3.29 -13.23,6.64 -28.4,9.99 -8.82,1.94 -16.17,4.18 -22.05,6.7 6,3.12 13.29,5.47 21.88,7.06 13.87,2.53 22.98,5.7 27.28,9.47 4.35,3.82 6.46,7.93 6.46,12.4 0,3.47 -1.29,6.41 -3.88,8.94 -2.58,2.53 -5.58,3.82 -8.99,3.82 -3.47,0 -7.29,-1.23 -11.47,-3.64 -4.17,-2.42 -9.87,-7.82 -16.99,-16.17 -4.7,-5.65 -10.52,-10.94 -17.58,-15.88 0.24,6.59 1.59,13.7 4,21.4 4.12,13.53 6.17,22.76 6.17,27.7 0,4.58 -1.35,8.46 -4.11,11.64 -2.77,3.17 -5.71,4.76 -8.76,4.76 -4.29,0 -8.12,-1.71 -11.59,-5 -2.41,-2.41 -3.58,-6.29 -3.58,-11.58 0,-5.47 1.29,-12.11 3.94,-19.87 2.64,-7.76 4.29,-13.11 4.99,-16 0.71,-2.94 1.36,-7.29 1.89,-13.05 -6.77,4.53 -12.7,9.47 -17.7,14.99 -8.41,9.41 -14.7,15.41 -18.99,17.94 -3,1.82 -6.06,2.76 -9.29,2.76 -3.88,0 -7.23,-1.35 -10,-4 -2.76,-2.64 -4.11,-5.52 -4.11,-8.76 0,-2.88 1.17,-5.88 3.53,-9.05 2.35,-3.18 5.88,-5.76 10.58,-7.82 3.11,-1.41 10.17,-3.24 21.16,-5.53 7.12,-1.47 14.12,-3.64 20.88,-6.53 -6.24,-3.11 -13.64,-5.52 -22.23,-7.23 -14.11,-3 -22.87,-5.7 -26.16,-8.11 -5.18,-3.76 -7.76,-8.41 -7.76,-13.76 0,-3.11 1.29,-5.94 3.88,-8.52 2.59,-2.59 5.58,-3.88 9.05,-3.88 3.77,0 7.76,1.17 12.06,3.58 4.23,2.41 9.52,7.29 15.81,14.58 6.35,7.29 12.76,12.94 19.29,16.94z"/>
  <path class="fil2" d="M2050.01 754.07c715.73,0 1295.93,580.21 1295.93,1295.93 0,715.72 -580.2,1295.93 -1295.93,1295.93 -715.73,0 -1295.93,-580.21 -1295.93,-1295.93 0,-715.72 580.2,-1295.93 1295.93,-1295.93z"/>
  <path class="fil2" d="M2050.01 1150.94c496.54,0 899.06,402.53 899.06,899.06 0,496.53 -402.52,899.06 -899.06,899.06 -496.54,0 -899.06,-402.53 -899.06,-899.06 0,-496.53 402.52,-899.06 899.06,-899.06z"/>
  <path class="fil1 str2" d="M1379.36 583.11c-0.47,-7.88 -2.06,-15.76 -4.82,-23.58 -3.89,-11.23 -5.83,-18.99 -5.83,-23.22 0,-6 1.42,-10.53 4.18,-13.65 2.82,-3.11 6.29,-4.64 10.46,-4.64 3.53,0 6.65,1.53 9.29,4.64 2.65,3.12 3.94,7.53 3.94,13.29 0,5.18 -1.53,12.35 -4.52,21.58 -3.06,9.29 -4.94,17.82 -5.65,25.58 6.35,-4 12,-8.88 17.05,-14.64 7.82,-9.06 13.64,-14.7 17.41,-16.88 3.82,-2.17 7.64,-3.23 11.58,-3.23 3.76,0 6.94,1.29 9.52,3.88 2.59,2.53 3.88,5.64 3.88,9.17 0,4.29 -1.88,8.06 -5.7,11.41 -3.76,3.29 -13.23,6.64 -28.4,9.99 -8.82,1.94 -16.17,4.18 -22.05,6.7 6,3.12 13.29,5.47 21.88,7.06 13.87,2.53 22.98,5.7 27.28,9.47 4.35,3.82 6.46,7.93 6.46,12.4 0,3.47 -1.29,6.41 -3.88,8.94 -2.58,2.53 -5.58,3.82 -8.99,3.82 -3.47,0 -7.29,-1.23 -11.47,-3.64 -4.17,-2.42 -9.87,-7.82 -16.99,-16.17 -4.7,-5.65 -10.52,-10.94 -17.58,-15.88 0.24,6.59 1.59,13.7 4,21.4 4.12,13.53 6.17,22.76 6.17,27.7 0,4.58 -1.35,8.46 -4.11,11.64 -2.77,3.17 -5.71,4.76 -8.76,4.76 -4.29,0 -8.12,-1.71 -11.59,-5 -2.41,-2.41 -3.58,-6.29 -3.58,-11.58 0,-5.47 1.29,-12.11 3.94,-19.87 2.64,-7.76 4.29,-13.11 4.99,-16 0.71,-2.94 1.36,-7.29 1.89,-13.05 -6.77,4.53 -12.7,9.47 -17.7,14.99 -8.41,9.41 -14.7,15.41 -18.99,17.94 -3,1.82 -6.06,2.76 -9.29,2.76 -3.88,0 -7.23,-1.35 -10,-4 -2.76,-2.64 -4.11,-5.52 -4.11,-8.76 0,-2.88 1.17,-5.88 3.53,-9.05 2.35,-3.18 5.88,-5.76 10.58,-7.82 3.11,-1.41 10.17,-3.24 21.16,-5.53 7.12,-1.47 14.12,-3.64 20.88,-6.53 -6.24,-3.11 -13.64,-5.52 -22.23,-7.23 -14.11,-3 -22.87,-5.7 -26.16,-8.11 -5.18,-3.76 -7.76,-8.41 -7.76,-13.76 0,-3.11 1.29,-5.94 3.88,-8.52 2.59,-2.59 5.58,-3.88 9.05,-3.88 3.77,0 7.76,1.17 12.06,3.58 4.23,2.41 9.52,7.29 15.81,14.58 6.35,7.29 12.76,12.94 19.29,16.94z"/>
  <path class="fil2 str0" d="M2050.01 630.8c783.8,0 1419.2,635.4 1419.2,1419.2 0,783.8 -635.4,1419.2 -1419.2,1419.2 -783.8,0 -1419.2,-635.4 -1419.2,-1419.2 0,-783.8 635.4,-1419.2 1419.2,-1419.2z"/>
  <path class="fil2 str3" d="M2050.01 615.84c792.07,0 1434.16,642.09 1434.16,1434.16 0,792.07 -642.09,1434.16 -1434.16,1434.16 -792.07,0 -1434.16,-642.09 -1434.16,-1434.16 0,-792.07 642.09,-1434.16 1434.16,-1434.16z"/>
  <path class="fil1 str4" d="M1655.14 414.83l-19.97 151.41c-0.85,6.4 -2.29,11.7 -4.37,16.02 -2.08,4.31 -4.51,7.78 -7.34,10.44 -2.8,2.75 -5.7,4.83 -8.73,6.32 -3.05,1.45 -6.16,2.65 -9.4,3.57 -2.87,0.81 -6.28,1.69 -10.18,2.63 -3.9,0.95 -6.44,1.54 -7.52,1.77l-5.58 -19.75 1.51 -0.43c1.14,-0.2 2.8,-0.51 5.05,-0.95 2.25,-0.48 5.07,-1.19 8.45,-2.14 1.59,-0.45 3.44,-1.06 5.52,-1.84 2.12,-0.8 3.96,-1.87 5.52,-3.22 1.82,-1.59 3.4,-3.47 4.76,-5.68 1.37,-2.17 2.31,-5.3 2.81,-9.33l1.29 -9.46 -90.04 -103.17 23.69 -6.69 70.22 82.2 12.69 -105.6 21.62 -6.1zm186.76 134.08l-25.8 4.69 -52.54 -48.96 -10.23 1.85 10.28 56.64 -20.76 3.77 -22.33 -122.96 20.76 -3.77 9.71 53.46c5.33,-1.03 9.71,-3 13.08,-5.83 3.36,-2.86 5.79,-7.65 7.26,-14.36 0.45,-1.99 0.98,-4.26 1.48,-6.88 0.53,-2.58 0.93,-4.86 1.16,-6.81 1.53,-9.6 4.83,-16.8 9.91,-21.57 5.08,-4.77 12.27,-7.97 21.49,-9.65l5.63 -1.02 3.28 18.05 -4.74 0.86c-5.79,1.05 -9.9,3 -12.38,5.82 -2.47,2.86 -4.14,7.58 -4.95,14.26 -0.87,6.76 -2.38,12.17 -4.54,16.25 -2.14,4.07 -4.73,7.34 -7.74,9.87l61.97 56.29zm142.69 -78.06c1.57,20.74 -2.16,37.65 -11.17,50.72 -9.05,13.06 -21.2,20.2 -36.43,21.36 -6.19,0.47 -11.72,0.17 -16.63,-0.89 -4.87,-1.04 -9.95,-2.84 -15.17,-5.43l3.96 52.13 -21.04 1.6 -12.97 -170.57 21.04 -1.6 0.99 13.06c4.87,-5.08 10.39,-9.44 16.52,-13.09 6.16,-3.65 13.02,-5.74 20.52,-6.31 14.37,-1.09 25.97,3.69 34.87,14.4 8.89,10.7 14.06,25.57 15.51,44.62zm-21.56 3.9c-1.08,-14.22 -4.2,-25.05 -9.34,-32.55 -5.16,-7.51 -12.86,-10.87 -23.11,-10.09 -5.94,0.45 -11.63,2.22 -17,5.28 -5.36,3.05 -10.4,6.85 -15.07,11.41l5.37 70.58c5.73,2.29 10.59,3.76 14.59,4.41 3.99,0.65 8.53,0.81 13.6,0.42 10.94,-0.83 19.1,-5.44 24.55,-13.86 5.45,-8.43 7.58,-20.28 6.41,-35.6zm147.96 31.64l0.97 -34.5c-4.98,0.32 -11.3,0.75 -18.93,1.3 -7.66,0.56 -13.83,1.48 -18.53,2.77 -5.63,1.57 -10.33,4.04 -14.06,7.44 -3.72,3.42 -5.69,8.3 -5.87,14.59 -0.2,7.11 1.67,12.56 5.58,16.3 3.92,3.74 9.7,5.74 17.42,5.96 6.65,0.18 12.65,-1.07 18.08,-3.78 5.43,-2.68 10.57,-6.06 15.34,-10.08zm-0.49 17.45c-1.75,1.25 -4.09,2.95 -7.02,5.16 -2.93,2.17 -5.73,3.93 -8.44,5.19 -3.8,1.85 -7.44,3.23 -10.94,4.17 -3.46,0.93 -8.34,1.33 -14.59,1.16 -5.16,-0.15 -9.99,-1.24 -14.56,-3.31 -4.57,-2.08 -8.54,-4.91 -11.95,-8.52 -3.24,-3.53 -5.79,-7.85 -7.67,-12.95 -1.89,-5.06 -2.73,-10.4 -2.58,-16.02 0.25,-8.66 2.29,-15.95 6.09,-21.96 3.83,-5.97 9.74,-10.63 17.71,-13.99 7.08,-3.02 15.44,-5 24.98,-5.96 9.59,-0.95 19.89,-1.58 30.9,-1.88l0.12 -4.09c0.13,-4.97 -0.51,-9 -1.92,-12.1 -1.4,-3.1 -3.39,-5.53 -6.03,-7.24 -2.66,-1.84 -5.87,-3.08 -9.76,-3.76 -3.84,-0.67 -7.84,-1.06 -11.93,-1.17 -4.86,-0.14 -10.56,0.43 -17.17,1.74 -6.58,1.31 -13.21,3.3 -19.87,5.94l-1.22 -0.04 0.6 -21.35c3.93,-1 9.5,-2.06 16.8,-3.2 7.29,-1.14 14.46,-1.62 21.57,-1.42 8.59,0.24 15.79,1.12 21.67,2.63 5.85,1.5 11.09,4.06 15.69,7.7 4.45,3.57 7.73,8.13 9.83,13.62 2.1,5.53 3.02,12.21 2.8,20.04l-2.39 85.58 -21.09 -0.6 0.37 -13.37zm101.19 20.24l-21.04 -1.6 9.48 -124.61 21.04 1.6 -9.48 124.61zm30.75 -144.15l-21.04 -1.6 1.65 -21.72 21.04 1.6 -1.65 21.72zm-39.56 -3.01l-21.04 -1.6 1.65 -21.72 21.04 1.6 -1.65 21.72zm165.65 172.03l-20.76 -3.77 9.99 -55.05 -55.73 -10.12 -9.99 55.05 -20.76 -3.77 22.32 -122.96 20.76 3.77 -9.05 49.86 55.73 10.11 9.05 -49.85 20.76 3.77 -22.32 122.96zm133.45 3.25l9.37 -33.22c-4.9,-0.9 -11.13,-2.03 -18.66,-3.36 -7.57,-1.34 -13.78,-1.95 -18.65,-1.85 -5.84,0.14 -11,1.39 -15.45,3.78 -4.45,2.4 -7.55,6.65 -9.26,12.71 -1.93,6.84 -1.45,12.58 1.42,17.16 2.88,4.59 8,7.94 15.43,10.04 6.4,1.81 12.53,2.06 18.46,0.76 5.92,-1.27 11.72,-3.29 17.34,-6.02zm-4.75 16.8c-2,0.78 -4.69,1.86 -8.06,3.28 -3.38,1.4 -6.52,2.41 -9.46,2.97 -4.13,0.86 -8,1.32 -11.62,1.37 -3.59,0.06 -8.42,-0.74 -14.44,-2.44 -4.97,-1.41 -9.38,-3.65 -13.3,-6.77 -3.93,-3.14 -7.09,-6.86 -9.51,-11.19 -2.27,-4.21 -3.69,-9.03 -4.27,-14.43 -0.59,-5.37 -0.1,-10.75 1.42,-16.16 2.36,-8.34 6.12,-14.91 11.28,-19.81 5.17,-4.85 12.04,-7.92 20.59,-9.24 7.6,-1.19 16.19,-1.07 25.68,0.34 9.53,1.42 19.67,3.33 30.42,5.73l1.11 -3.93c1.35,-4.79 1.71,-8.85 1.11,-12.2 -0.6,-3.35 -1.94,-6.19 -4.08,-8.5 -2.13,-2.43 -4.94,-4.42 -8.54,-6.03 -3.56,-1.59 -7.35,-2.94 -11.28,-4.05 -4.68,-1.32 -10.35,-2.17 -17.08,-2.52 -6.7,-0.34 -13.62,-0.03 -20.71,0.9l-1.18 -0.33 5.8 -20.56c4.06,-0.01 9.72,0.32 17.07,1.01 7.35,0.68 14.42,1.97 21.26,3.9 8.28,2.33 15.04,4.95 20.38,7.85 5.3,2.89 9.76,6.65 13.33,11.3 3.44,4.55 5.5,9.78 6.2,15.62 0.68,5.87 -0.06,12.57 -2.19,20.11l-23.25 82.39 -20.31 -5.73 3.63 -12.88z"/>
  <g id="_1269177248">
   <path class="fil1 str4" d="M2891.84 770.62c-8.44,-5.45 -15.33,-11.9 -20.6,-19.28 -5.24,-7.42 -8.66,-15.62 -10.2,-24.55 -1.54,-8.93 -1.02,-18.54 1.58,-28.74 2.57,-10.23 7.35,-20.78 14.37,-31.67 6.97,-10.81 14.42,-19.36 22.36,-25.62 7.94,-6.25 16.47,-10.7 25.59,-13.25 8.89,-2.46 17.84,-2.95 26.88,-1.4 9.02,1.5 17.92,5.09 26.66,10.73 4.33,2.79 8.21,5.76 11.6,8.83 3.38,3.1 6.36,6.15 8.99,9.23 2.2,2.64 4.37,5.59 6.44,8.77 2.09,3.2 4.05,6.47 5.88,9.88l-13.36 20.73 -1.4 -0.9c-0.63,-2.35 -1.48,-5.24 -2.61,-8.7 -1.13,-3.46 -2.82,-7.22 -5,-11.32 -2.16,-3.87 -4.81,-7.64 -7.97,-11.27 -3.14,-3.67 -7.25,-7.11 -12.35,-10.4 -5.49,-3.54 -11.43,-5.78 -17.8,-6.7 -6.38,-0.92 -12.85,-0.39 -19.34,1.6 -6.47,2.04 -12.88,5.71 -19.17,11.05 -6.31,5.3 -12.14,12.12 -17.49,20.42 -5.7,8.84 -9.52,17.11 -11.5,24.87 -1.94,7.77 -2.51,15.01 -1.63,21.78 0.84,6.59 3,12.55 6.46,17.85 3.47,5.3 7.94,9.69 13.37,13.19 4.98,3.21 9.95,5.58 14.98,7.1 5,1.5 9.75,2.39 14.22,2.67 4.37,0.25 8.29,0.17 11.84,-0.18 3.51,-0.37 6.35,-0.81 8.55,-1.28l1.3 0.84 -13.23 20.51c-3.71,-0.5 -7.19,-0.95 -10.52,-1.33 -3.3,-0.4 -7.12,-1.19 -11.45,-2.34 -4.55,-1.22 -8.64,-2.55 -12.29,-3.99 -3.61,-1.44 -8,-3.81 -13.16,-7.13zm151.42 64.21c-3.43,4.39 -7.32,7.66 -11.66,9.73 -4.32,2.09 -8.89,3.13 -13.59,3.14 -5.94,-0.02 -11.32,-1.09 -16.19,-3.22 -4.81,-2.14 -10.07,-5.45 -15.71,-9.85l-35.8 -27.92 70.93 -90.96 33.47 26.1c6.7,5.22 11.45,9.23 14.21,12.06 2.8,2.82 5.04,6.26 6.81,10.32 1.83,4.24 2.41,8.37 1.68,12.46 -0.7,4.05 -2.59,8.03 -5.67,11.98 -3.39,4.34 -7.62,7.3 -12.71,8.89 -5.03,1.57 -10.28,1.77 -15.71,0.54l-0.01 0.88c3.94,5.09 6.08,10.83 6.45,17.24 0.33,6.4 -1.81,12.6 -6.5,18.61zm10.69 -56.05c1.61,-2.05 2.66,-4.1 3.17,-6.12 0.47,-2.05 0.23,-4.15 -0.76,-6.31 -1.16,-2.53 -2.87,-4.83 -5.1,-6.89 -2.27,-2.09 -5.54,-4.77 -9.8,-8.09l-14.5 -11.3 -19.26 24.7 17.5 13.64c3.73,2.91 6.5,4.81 8.35,5.66 1.81,0.88 4.14,1.5 6.9,1.81 2.63,0.35 5.04,-0.14 7.2,-1.36 2.18,-1.26 4.29,-3.15 6.3,-5.74zm-26.5 43.62c2.43,-3.12 3.94,-5.96 4.5,-8.52 0.58,-2.59 -0.09,-5.79 -1.94,-9.61 -1.15,-2.42 -2.76,-4.56 -4.75,-6.48 -1.99,-1.91 -4.91,-4.37 -8.75,-7.36l-17.92 -13.97 -23.3 29.87 13.22 10.31c5.48,4.28 9.88,7.34 13.26,9.27 3.36,1.94 6.64,3.07 9.83,3.45 3.35,0.35 6.31,0 8.76,-1.03 2.49,-1.06 4.83,-3.04 7.09,-5.93zm27.58 68.49l-14.71 -12.77 75.6 -87.12 14.71 12.77 -75.6 87.12zm89.49 -100.86l-16.79 -14.57 13.18 -15.19 16.79 14.57 -13.18 15.19zm-13.08 209.9l-13.01 -12.43 19.31 -20.19 -55.09 -52.65 -19.3 20.19 -13.01 -12.43 30.57 -31.98 5.51 5.27c12.15,-3.28 25.67,-9.71 40.65,-19.36 14.96,-9.67 29.52,-21.9 43.71,-36.74l51.26 48.99 -68.3 71.46 8.27 7.89 -30.57 31.98zm8.22 -53.33l57.04 -59.68 -24.02 -22.96c-12.54,11.84 -25.11,21.58 -37.69,29.23 -12.55,7.66 -24.16,12.87 -34.8,15.68l39.47 37.73zm132.55 83.49c-14.72,12.69 -29.11,18.9 -43.24,18.73 -14.1,-0.23 -26.24,-6.2 -36.4,-17.99 -10.48,-12.16 -14.59,-25.29 -12.31,-39.35 2.24,-14.1 10.48,-27.24 24.66,-39.47 14.59,-12.57 29.01,-18.76 43.27,-18.53 14.27,0.19 26.46,6.17 36.57,17.9 10.16,11.79 14.25,24.7 12.33,38.74 -1.97,14.03 -10.24,27.35 -24.88,39.97zm-13.12 -15.23c11.25,-9.69 17.84,-18.97 19.77,-27.8 1.94,-8.83 -0.38,-17.04 -6.92,-24.63 -6.59,-7.64 -14.4,-11.19 -23.45,-10.62 -9.05,0.58 -19.2,5.73 -30.44,15.43 -10.9,9.39 -17.39,18.57 -19.45,27.57 -2.07,9.01 0.21,17.32 6.8,24.97 6.49,7.53 14.29,11.02 23.38,10.39 9.11,-0.63 19.2,-5.73 30.31,-15.31zm25.37 168.2l-11.12 -14.14 21.8 -17.14 -51.95 -66.05 90.66 -71.31 12.04 15.3 -77.36 60.85 31.93 40.59 77.36 -60.84 12.04 15.3 -77.36 60.85 7.06 8.98 -35.1 27.61zm162.09 20.33l-21.19 -33.18 -82.95 52.96 -10.48 -16.41 82.96 -52.96 -21.19 -33.19 14.27 -9.11 52.85 82.78 -14.27 9.11zm1.38 128.99c-4.82,2.79 -9.66,4.37 -14.46,4.67 -4.79,0.32 -9.41,-0.43 -13.78,-2.17 -5.49,-2.25 -10.09,-5.25 -13.8,-9.05 -3.66,-3.79 -7.3,-8.82 -10.89,-15.02l-22.76 -39.28 99.82 -57.82 21.27 36.73c4.26,7.35 7.16,12.85 8.66,16.49 1.55,3.67 2.34,7.7 2.46,12.13 0.11,4.61 -0.9,8.66 -3.1,12.18 -2.17,3.5 -5.41,6.48 -9.75,8.99 -4.77,2.76 -9.79,3.92 -15.1,3.49 -5.26,-0.42 -10.2,-2.21 -14.78,-5.38l-0.34 0.81c1.75,6.2 1.59,12.32 -0.46,18.41 -2.09,6.05 -6.4,11 -12.99,14.82zm30.88 -47.97c2.26,-1.31 4,-2.82 5.22,-4.49 1.21,-1.73 1.77,-3.77 1.67,-6.15 -0.14,-2.77 -0.86,-5.54 -2.16,-8.29 -1.32,-2.78 -3.36,-6.49 -6.06,-11.17l-9.22 -15.9 -27.1 15.7 11.12 19.2c2.38,4.09 4.24,6.89 5.63,8.37 1.35,1.49 3.28,2.94 5.73,4.26 2.3,1.31 4.72,1.75 7.18,1.42 2.49,-0.34 5.15,-1.31 7.99,-2.95zm-40.89 30.53c3.41,-1.98 5.88,-4.06 7.35,-6.22 1.51,-2.18 2.09,-5.4 1.8,-9.64 -0.16,-2.68 -0.85,-5.26 -1.98,-7.78 -1.13,-2.52 -2.92,-5.89 -5.36,-10.1l-11.39 -19.66 -32.79 18.99 8.4 14.5c3.49,6.01 6.42,10.51 8.84,13.56 2.38,3.05 5,5.33 7.82,6.87 2.98,1.58 5.85,2.37 8.51,2.33 2.71,-0.05 5.62,-1.01 8.8,-2.85zm80.81 119.69c-17.71,8.01 -33.26,9.89 -46.77,5.74 -13.47,-4.21 -23.42,-13.37 -29.83,-27.55 -6.61,-14.62 -6.84,-28.38 -0.69,-41.23 6.14,-12.88 17.76,-23.16 34.82,-30.88 17.55,-7.93 33.13,-9.8 46.74,-5.54 13.64,4.22 23.64,13.4 30.02,27.51 6.41,14.17 6.69,27.71 0.88,40.64 -5.86,12.9 -17.55,23.34 -35.17,31.31zm-8.28 -18.32c13.53,-6.12 22.48,-13.15 26.83,-21.08 4.35,-7.92 4.44,-16.45 0.32,-25.58 -4.16,-9.19 -10.65,-14.81 -19.49,-16.81 -8.85,-2.01 -20.03,0.07 -33.57,6.19 -13.11,5.93 -21.92,12.9 -26.44,20.95 -4.54,8.05 -4.7,16.67 -0.54,25.87 4.1,9.06 10.59,14.61 19.49,16.58 8.92,1.97 20.03,-0.07 33.4,-6.12zm7.24 183.82l-6.35 -18.41 93.03 -32.12 -17.07 -49.42 -93.03 32.12 -6.35 -18.4 109.03 -37.65 29.78 86.23 -109.04 37.65zm90.81 110.88c-18.7,4.31 -34.66,3.25 -47.84,-3.16 -13.17,-6.45 -21.37,-16.54 -24.54,-30.29 -1.29,-5.56 -1.78,-10.66 -1.5,-15.29 0.27,-4.59 1.21,-9.48 2.85,-14.6l-47.01 10.85 -4.38 -18.97 153.85 -35.5 4.37 18.97 -11.79 2.72c5.32,3.74 10.08,8.18 14.26,13.26 4.18,5.12 7.04,11.09 8.6,17.86 2.99,12.95 0.23,24.2 -8.31,33.81 -8.54,9.61 -21.39,16.37 -38.56,20.34zm-6.56 -19.13c12.82,-2.96 22.29,-7.31 28.42,-13.03 6.13,-5.76 8.14,-13.25 6,-22.5 -1.23,-5.36 -3.65,-10.3 -7.17,-14.77 -3.54,-4.47 -7.7,-8.55 -12.52,-12.18l-63.66 14.69c-1.28,5.55 -1.96,10.19 -2,13.93 -0.04,3.74 0.45,7.89 1.5,12.46 2.28,9.87 7.62,16.68 16.06,20.49 8.44,3.81 19.55,4.1 33.37,0.91zm26.06 138.54c-19.12,3.48 -34.67,1.54 -46.77,-5.76 -12.05,-7.34 -19.48,-18.64 -22.27,-33.94 -2.88,-15.79 0.23,-29.2 9.31,-40.17 9.07,-11.02 22.83,-18.18 41.26,-21.54 18.95,-3.45 34.51,-1.49 46.69,5.94 12.21,7.39 19.69,18.73 22.47,33.96 2.79,15.3 -0.23,28.51 -8.99,39.64 -8.8,11.11 -22.68,18.4 -41.7,21.87zm-3.6 -19.78c14.61,-2.66 24.99,-7.32 31.13,-13.95 6.14,-6.64 8.3,-14.89 6.5,-24.75 -1.81,-9.93 -6.74,-16.95 -14.84,-21.03 -8.09,-4.09 -19.45,-4.78 -34.06,-2.12 -14.16,2.58 -24.39,7.21 -30.73,13.92 -6.35,6.72 -8.59,15.05 -6.79,24.97 1.79,9.79 6.74,16.75 14.9,20.81 8.18,4.07 19.46,4.78 33.89,2.15zm-40.58 180.45l-1.48 -19.43 98.14 -7.47 -3.97 -52.12 -98.13 7.46 -1.48 -19.41 115.02 -8.75 6.92 90.96 -115.02 8.76zm59.41 130.22c-19.18,-0.55 -34.35,-5.6 -45.48,-15.14 -11.12,-9.56 -16.51,-21.4 -16.1,-35.5 0.16,-5.71 0.98,-10.77 2.41,-15.18 1.43,-4.37 3.57,-8.86 6.45,-13.4l-48.23 -1.38 0.56 -19.46 157.82 4.52 -0.56 19.46 -12.09 -0.35c4.2,4.97 7.68,10.46 10.44,16.43 2.75,6.01 4.02,12.51 3.82,19.46 -0.38,13.28 -5.9,23.47 -16.59,30.6 -10.68,7.15 -24.82,10.45 -42.45,9.94zm-1.51 -20.16c13.15,0.38 23.41,-1.44 30.79,-5.43 7.39,-4.02 11.22,-10.76 11.49,-20.25 0.16,-5.5 -0.93,-10.89 -3.21,-16.11 -2.29,-5.21 -5.29,-10.21 -9.03,-14.94l-65.31 -1.87c-2.64,5.04 -4.47,9.36 -5.45,12.98 -0.98,3.6 -1.56,7.74 -1.7,12.43 -0.29,10.13 3.16,18.06 10.36,23.88 7.21,5.82 17.88,8.9 32.06,9.31zm-36.96 107.84l31.75 2.42c-0.07,-4.6 -0.18,-10.44 -0.36,-17.5 -0.17,-7.09 -0.76,-12.83 -1.73,-17.22 -1.19,-5.25 -3.26,-9.69 -6.25,-13.28 -2.97,-3.59 -7.38,-5.63 -13.19,-6.07 -6.54,-0.5 -11.64,0.99 -15.27,4.44 -3.62,3.43 -5.71,8.69 -6.25,15.8 -0.47,6.11 0.41,11.7 2.68,16.83 2.23,5.11 5.1,10 8.62,14.58zm-16.08 -1.22c-1.07,-1.67 -2.54,-3.9 -4.44,-6.71 -1.88,-2.79 -3.38,-5.45 -4.42,-8 -1.53,-3.59 -2.65,-7 -3.36,-10.27 -0.7,-3.24 -0.85,-7.75 -0.41,-13.51 0.36,-4.75 1.58,-9.16 3.69,-13.28 2.12,-4.11 4.9,-7.65 8.39,-10.64 3.39,-2.82 7.49,-4.99 12.26,-6.5 4.75,-1.51 9.72,-2.05 14.88,-1.65 7.99,0.6 14.61,2.8 19.99,6.57 5.34,3.81 9.36,9.45 12.12,16.95 2.46,6.67 3.93,14.45 4.39,23.3 0.44,8.88 0.57,18.4 0.37,28.57l3.76 0.29c4.57,0.35 8.32,-0.07 11.23,-1.23 2.92,-1.16 5.25,-2.89 6.95,-5.24 1.81,-2.37 3.09,-5.28 3.89,-8.83 0.8,-3.51 1.33,-7.19 1.62,-10.95 0.34,-4.47 0.06,-9.76 -0.85,-15.91 -0.92,-6.13 -2.46,-12.32 -4.6,-18.57l0.08 -1.13 19.67 1.5c0.74,3.66 1.48,8.84 2.21,15.63 0.72,6.77 0.85,13.39 0.36,19.94 -0.61,7.91 -1.75,14.51 -3.39,19.87 -1.65,5.32 -4.24,10.04 -7.8,14.12 -3.49,3.95 -7.84,6.77 -13,8.46 -5.18,1.69 -11.38,2.25 -18.59,1.7l-78.79 -5.99 1.48 -19.43 12.31 0.94zm1.26 144.38c-5.48,-1 -10.17,-2.93 -14.03,-5.82 -3.85,-2.86 -6.89,-6.42 -9.08,-10.58 -2.73,-5.27 -4.28,-10.54 -4.65,-15.84 -0.33,-5.25 0.16,-11.45 1.44,-18.49l8.14 -44.67 113.48 20.68 -7.61 41.75c-1.52,8.36 -2.87,14.43 -4.09,18.18 -1.2,3.8 -3.22,7.37 -5.99,10.82 -2.91,3.59 -6.3,6.02 -10.26,7.27 -3.92,1.26 -8.32,1.42 -13.25,0.53 -5.42,-0.99 -10,-3.36 -13.76,-7.14 -3.73,-3.73 -6.34,-8.29 -7.77,-13.67l-0.78 0.4c-2.68,5.85 -6.78,10.41 -12.29,13.72 -5.51,3.25 -12,4.22 -19.5,2.86zm54.62 -16.51c2.57,0.47 4.87,0.45 6.89,-0.04 2.03,-0.53 3.78,-1.72 5.25,-3.6 1.69,-2.2 2.94,-4.78 3.73,-7.71 0.79,-2.98 1.65,-7.12 2.62,-12.43l3.29 -18.09 -30.81 -5.61 -3.98 21.83c-0.84,4.66 -1.24,7.99 -1.14,10.02 0.06,2.01 0.6,4.37 1.6,6.96 0.91,2.49 2.46,4.39 4.54,5.74 2.13,1.35 4.78,2.34 8.01,2.93zm-50.93 -3.26c3.88,0.71 7.1,0.72 9.63,0.03 2.56,-0.68 5.09,-2.76 7.62,-6.17 1.61,-2.15 2.76,-4.56 3.54,-7.21 0.76,-2.66 1.59,-6.38 2.46,-11.17l4.07 -22.35 -37.28 -6.79 -3 16.48c-1.25,6.84 -1.92,12.17 -2.06,16.05 -0.17,3.88 0.36,7.31 1.5,10.31 1.25,3.13 2.92,5.59 4.97,7.29 2.1,1.71 4.94,2.87 8.55,3.53zm-8.13 142.31c-18.94,-4.39 -32.45,-12.33 -40.65,-23.83 -8.15,-11.52 -10.49,-24.85 -6.97,-40 3.62,-15.64 11.79,-26.71 24.48,-33.18 12.7,-6.51 28.17,-7.62 46.42,-3.39 18.76,4.35 32.27,12.33 40.5,23.98 8.28,11.63 10.65,25 7.15,40.08 -3.52,15.16 -11.52,26.08 -23.98,32.82 -12.49,6.7 -28.12,7.89 -46.95,3.52zm4.54 -19.58c14.46,3.36 25.84,3.2 34.11,-0.45 8.27,-3.66 13.52,-10.37 15.79,-20.14 2.28,-9.82 0.53,-18.23 -5.28,-25.19 -5.8,-6.96 -15.95,-12.11 -30.42,-15.46 -14.02,-3.25 -25.25,-3.06 -33.73,0.58 -8.5,3.65 -13.86,10.4 -16.14,20.23 -2.25,9.69 -0.46,18.04 5.42,25.01 5.88,6.98 15.96,12.11 30.25,15.42zm-107.85 149.85l6.2 -18.47 48.96 16.46 16.66 -49.56 -48.96 -16.45 6.2 -18.46 109.34 36.75 -6.2 18.45 -44.34 -14.89 -16.65 49.55 44.33 14.9 -6.2 18.47 -109.34 -36.75zm-12.84 99.1l29.05 13.06c1.49,-4.35 3.37,-9.89 5.6,-16.58 2.24,-6.73 3.64,-12.33 4.22,-16.79 0.66,-5.35 0.22,-10.23 -1.37,-14.61 -1.58,-4.39 -5.03,-7.8 -10.34,-10.19 -5.98,-2.69 -11.29,-3.03 -15.87,-1.02 -4.57,2 -8.33,6.24 -11.25,12.74 -2.51,5.59 -3.59,11.15 -3.2,16.74 0.36,5.57 1.41,11.15 3.16,16.65zm-14.71 -6.61c-0.44,-1.94 -1.06,-4.54 -1.9,-7.82 -0.81,-3.26 -1.32,-6.27 -1.43,-9.03 -0.22,-3.89 -0.13,-7.48 0.32,-10.8 0.44,-3.29 1.83,-7.57 4.2,-12.85 1.96,-4.35 4.6,-8.07 7.99,-11.23 3.39,-3.14 7.2,-5.53 11.5,-7.16 4.15,-1.5 8.74,-2.15 13.75,-1.95 4.98,0.19 9.83,1.38 14.55,3.5 7.31,3.28 12.79,7.6 16.57,12.97 3.73,5.4 5.59,12.07 5.64,20.06 0.05,7.11 -1.22,14.92 -3.79,23.4 -2.59,8.51 -5.71,17.5 -9.35,27l3.44 1.55c4.18,1.88 7.84,2.76 10.98,2.66 3.14,-0.1 5.92,-0.94 8.32,-2.57 2.5,-1.62 4.7,-3.92 6.65,-6.98 1.95,-3.03 3.7,-6.31 5.24,-9.75 1.84,-4.09 3.38,-9.16 4.61,-15.25 1.22,-6.08 1.87,-12.43 1.98,-19.04l0.46 -1.03 17.99 8.09c-0.55,3.7 -1.61,8.82 -3.23,15.45 -1.63,6.62 -3.75,12.89 -6.44,18.88 -3.25,7.24 -6.57,13.06 -9.93,17.54 -3.36,4.45 -7.4,8.01 -12.13,10.63 -4.62,2.53 -9.68,3.7 -15.1,3.54 -5.45,-0.16 -11.47,-1.74 -18.07,-4.71l-72.07 -32.4 7.99 -17.77 11.26 5.07zm-59.28 155.19c-5.6,-3.23 -9.63,-7.18 -12.11,-11.86 -2.43,-4.66 -3.71,-9.6 -3.77,-14.72 -0.1,-4.91 0.66,-9.97 2.29,-15.26 1.61,-5.26 3.74,-10.22 6.43,-14.9 3.78,-6.54 7.99,-12.37 12.66,-17.5 4.65,-5.1 10.07,-9.75 16.24,-13.88l18.66 10.76 -0.61 1.07c-6.05,1.89 -11.94,5.25 -17.62,10.08 -5.69,4.86 -10.27,10.32 -13.76,16.37 -1.52,2.63 -2.85,5.57 -4.03,8.92 -1.15,3.33 -1.77,6.36 -1.77,9.12 0.08,3.67 0.73,6.65 1.92,8.88 1.23,2.26 3.49,4.34 6.79,6.24 3.55,2.04 6.77,3.02 9.67,2.93 2.94,-0.09 5.6,-1.01 8,-2.72 2.4,-1.67 4.53,-3.89 6.47,-6.61 1.93,-2.72 3.81,-5.69 5.67,-8.91l6.76 -11.73 14.67 8.46 -5.16 8.95c-1.31,2.26 -2.87,5.11 -4.68,8.58 -1.78,3.45 -2.87,6.41 -3.24,8.89 -0.51,3.07 -0.36,5.9 0.54,8.45 0.84,2.56 3.37,5.03 7.55,7.45 2.91,1.68 5.63,2.39 8.18,2.12 2.54,-0.29 4.88,-1.1 7.02,-2.48 2.23,-1.4 4.23,-3.18 6.01,-5.33 1.75,-2.13 3.25,-4.31 4.52,-6.51 3.25,-5.62 5.57,-11.49 7,-17.58 1.42,-6.11 1.67,-11.91 0.72,-17.42l0.62 -1.08 18.19 10.49c-0.97,5.14 -2.4,10.67 -4.3,16.55 -1.85,5.84 -4.29,11.4 -7.32,16.66 -2.45,4.25 -5.35,8.27 -8.77,12.16 -3.38,3.88 -7.24,7.2 -11.62,9.93 -4.15,2.53 -8.74,3.99 -13.73,4.45 -5.02,0.44 -10.09,-0.8 -15.25,-3.78 -5.44,-3.14 -9.33,-7.41 -11.66,-12.83 -2.31,-5.44 -2.68,-11.04 -1.09,-16.89l-0.62 -0.35c-5.09,4.47 -10.66,7.34 -16.61,8.62 -5.99,1.27 -12.26,0.02 -18.86,-3.79zm-50.96 73.55l26.77 17.26c2.13,-4.07 4.81,-9.27 8.02,-15.55 3.23,-6.32 5.45,-11.65 6.68,-15.97 1.46,-5.19 1.76,-10.08 0.84,-14.65 -0.91,-4.57 -3.81,-8.47 -8.7,-11.62 -5.51,-3.56 -10.71,-4.68 -15.54,-3.38 -4.82,1.29 -9.17,4.92 -13.03,10.91 -3.32,5.15 -5.22,10.48 -5.67,16.07 -0.47,5.56 -0.28,11.23 0.63,16.93zm-13.55 -8.73c-0.15,-1.98 -0.37,-4.65 -0.71,-8.02 -0.32,-3.34 -0.37,-6.4 -0.06,-9.14 0.36,-3.88 0.99,-7.41 1.93,-10.63 0.93,-3.18 2.94,-7.22 6.08,-12.07 2.58,-4.01 5.75,-7.3 9.58,-9.91 3.82,-2.61 7.95,-4.4 12.44,-5.37 4.33,-0.86 8.96,-0.81 13.88,0.14 4.9,0.93 9.52,2.83 13.87,5.63 6.73,4.34 11.5,9.43 14.44,15.31 2.88,5.89 3.72,12.77 2.57,20.68 -1.01,7.03 -3.43,14.57 -7.25,22.57 -3.83,8.02 -8.26,16.45 -13.28,25.29l3.16 2.05c3.86,2.49 7.35,3.9 10.47,4.27 3.11,0.38 5.99,-0.04 8.6,-1.29 2.72,-1.23 5.24,-3.17 7.63,-5.91 2.38,-2.71 4.6,-5.69 6.64,-8.86 2.43,-3.76 4.71,-8.55 6.84,-14.39 2.11,-5.82 3.71,-12 4.8,-18.52l0.62 -0.95 16.57 10.69c-1.09,3.58 -2.91,8.48 -5.51,14.79 -2.59,6.3 -5.63,12.19 -9.19,17.71 -4.3,6.66 -8.45,11.92 -12.45,15.85 -3.98,3.89 -8.5,6.81 -13.58,8.7 -4.95,1.81 -10.12,2.21 -15.46,1.24 -5.36,-0.98 -11.08,-3.44 -17.15,-7.36l-66.41 -42.82 10.55 -16.38 10.38 6.7zm-94.95 106.46l11.98 -15.36 40.73 31.76 32.15 -41.23 -40.73 -31.76 11.97 -15.35 90.96 70.93 -11.97 15.35 -36.88 -28.76 -32.15 41.23 36.88 28.76 -11.98 15.36 -90.96 -70.93zm-75.3 86.99l12.77 -14.71 34.53 29.97 12.49 -14.39 -11.96 -55.97 14.88 -17.15 11.49 59.2c8.4,-5.37 16.17,-7.92 23.27,-7.59 7.13,0.29 14.23,3.51 21.32,9.66 4.32,3.75 7.27,7.99 8.87,12.71 1.61,4.7 2.12,9.67 1.55,14.84 -0.48,4.11 -2.04,8.55 -4.59,13.25 -2.59,4.71 -6.01,9.5 -10.24,14.38l-27.26 31.41 -87.12 -75.61zm58.81 25.25l29.25 25.38 13.78 -15.87c2.92,-3.36 5.03,-6.18 6.39,-8.43 1.3,-2.27 2.26,-4.76 2.79,-7.48 0.47,-2.86 0.16,-5.61 -0.96,-8.26 -1.11,-2.64 -2.78,-4.93 -5.01,-6.87 -2.85,-2.47 -5.45,-4.16 -7.81,-5.05 -2.36,-0.92 -5.01,-1.17 -8.01,-0.78 -3.13,0.5 -6.1,1.81 -8.84,4.01 -2.77,2.17 -5.51,4.84 -8.21,7.95l-13.37 15.4zm-74.79 125.83l28.45 -27.21 -68.01 -71.14 14.07 -13.45 68.02 71.13 28.45 -27.2 11.7 12.23 -70.98 67.87 -11.7 -12.23zm-81.38 69.8l29.82 -25.7 -64.25 -74.55 14.75 -12.71 64.25 74.55 29.82 -25.7 11.06 12.82 -74.4 64.12 -11.05 -12.83zm-146.61 -15.47l15.85 -11.33 26.59 37.18 15.5 -11.08 1.4 -57.21 18.48 -13.22 -2.62 60.25c9.41,-3.27 17.57,-3.93 24.4,-1.96 6.86,1.94 13.02,6.73 18.47,14.36 3.33,4.65 5.21,9.47 5.67,14.43 0.47,4.95 -0.19,9.9 -1.94,14.79 -1.43,3.88 -3.99,7.84 -7.56,11.82 -3.61,3.97 -8.05,7.84 -13.3,11.6l-33.83 24.19 -67.11 -93.82zm51.31 38.25l22.53 31.5 17.1 -12.23c3.62,-2.59 6.34,-4.84 8.17,-6.7 1.8,-1.91 3.31,-4.11 4.46,-6.63 1.13,-2.67 1.46,-5.42 0.99,-8.25 -0.46,-2.83 -1.55,-5.44 -3.27,-7.85 -2.2,-3.07 -4.32,-5.32 -6.42,-6.74 -2.08,-1.44 -4.6,-2.3 -7.61,-2.62 -3.16,-0.25 -6.34,0.34 -9.53,1.84 -3.2,1.46 -6.48,3.42 -9.84,5.82l-16.58 11.86zm-148.98 56.08l15.96 27.56c3.75,-2.66 8.51,-6.06 14.23,-10.2 5.75,-4.15 10.15,-7.88 13.22,-11.16 3.66,-3.96 6.16,-8.17 7.43,-12.67 1.27,-4.48 0.46,-9.27 -2.46,-14.3 -3.28,-5.68 -7.4,-9.05 -12.29,-10.09 -4.88,-1.05 -10.4,0.2 -16.57,3.77 -5.3,3.08 -9.42,6.96 -12.37,11.73 -2.95,4.73 -5.36,9.87 -7.15,15.36zm-8.08 -13.95c0.76,-1.83 1.78,-4.31 3.02,-7.46 1.24,-3.12 2.58,-5.87 4.1,-8.17 2.1,-3.29 4.27,-6.14 6.57,-8.58 2.28,-2.41 5.91,-5.08 10.91,-7.98 4.13,-2.39 8.44,-3.87 13.04,-4.46 4.59,-0.57 9.08,-0.28 13.52,0.9 4.25,1.2 8.35,3.36 12.3,6.44 3.93,3.06 7.18,6.86 9.77,11.34 4.02,6.93 5.95,13.64 5.88,20.2 -0.12,6.56 -2.5,13.07 -7.12,19.58 -4.11,5.8 -9.7,11.41 -16.74,16.79 -7.07,5.39 -14.85,10.88 -23.35,16.47l1.88 3.26c2.31,3.97 4.77,6.82 7.37,8.57 2.6,1.75 5.35,2.69 8.25,2.77 2.98,0.15 6.1,-0.44 9.49,-1.79 3.34,-1.32 6.68,-2.96 9.94,-4.85 3.88,-2.25 8.09,-5.47 12.64,-9.7 4.54,-4.22 8.78,-9 12.72,-14.3l0.98 -0.56 9.88 17.06c-2.6,2.69 -6.46,6.23 -11.64,10.66 -5.18,4.43 -10.57,8.28 -16.25,11.58 -6.86,3.97 -12.95,6.76 -18.3,8.44 -5.32,1.65 -10.68,2.18 -16.06,1.55 -5.23,-0.64 -10.01,-2.64 -14.32,-5.94 -4.33,-3.31 -8.3,-8.11 -11.92,-14.37l-39.61 -68.38 16.86 -9.76 6.19 10.69zm-151.07 33.15l16.06 -8.11 12.6 24.93 68.01 -34.37 -12.6 -24.93 16.05 -8.12 19.96 39.49 -6.8 3.44c-0.97,12.54 0.59,27.44 4.69,44.77 4.13,17.33 10.79,35.14 20.05,53.46l-63.28 31.99 -44.58 -88.22 -10.2 5.15 -19.96 -39.48zm47.54 25.54l37.23 73.68 29.66 -14.99c-6.98,-15.76 -11.97,-30.87 -14.98,-45.28 -3.03,-14.38 -4.08,-27.07 -3.18,-38.03l-48.73 24.62zm-127.91 72.29c-2.03,-5.19 -2.85,-10.2 -2.41,-15 0.41,-4.78 1.85,-9.23 4.24,-13.28 3.06,-5.09 6.73,-9.17 11.05,-12.27 4.3,-3.04 9.82,-5.87 16.49,-8.47l42.3 -16.51 41.93 107.46 -39.53 15.43c-7.92,3.09 -13.79,5.12 -17.63,6.05 -3.86,0.97 -7.96,1.13 -12.35,0.58 -4.58,-0.6 -8.43,-2.21 -11.57,-4.92 -3.13,-2.68 -5.58,-6.34 -7.4,-11 -2,-5.14 -2.39,-10.28 -1.15,-15.46 1.22,-5.14 3.74,-9.75 7.57,-13.79l-0.75 -0.46c-6.39,0.79 -12.42,-0.3 -18.13,-3.26 -5.66,-2.99 -9.89,-8 -12.66,-15.1zm42.7 37.83c0.95,2.43 2.18,4.38 3.65,5.85 1.52,1.45 3.45,2.32 5.82,2.58 2.76,0.28 5.61,0 8.52,-0.87 2.95,-0.88 6.93,-2.33 11.96,-4.29l17.12 -6.68 -11.38 -29.18 -20.67 8.07c-4.41,1.72 -7.46,3.13 -9.13,4.28 -1.69,1.11 -3.41,2.8 -5.09,5.01 -1.64,2.08 -2.45,4.4 -2.5,6.88 -0.04,2.52 0.51,5.3 1.7,8.35zm-23.94 -45.07c1.44,3.68 3.11,6.43 5.02,8.22 1.93,1.83 5.03,2.89 9.26,3.25 2.67,0.24 5.33,-0.04 7.99,-0.77 2.67,-0.74 6.27,-2 10.8,-3.77l21.17 -8.26 -13.78 -35.29 -15.61 6.09c-6.48,2.53 -11.36,4.75 -14.75,6.67 -3.38,1.89 -6.03,4.13 -7.98,6.68 -2.02,2.71 -3.23,5.42 -3.6,8.06 -0.36,2.68 0.15,5.71 1.48,9.12zm-129.19 65.4c-5.27,-18.72 -4.81,-34.38 1.31,-47.11 6.17,-12.69 16.72,-21.15 31.7,-25.37 15.45,-4.36 29.08,-2.53 40.87,5.47 11.82,8 20.25,21.02 25.33,39.05 5.22,18.54 4.74,34.21 -1.51,47.04 -6.2,12.85 -16.78,21.37 -31.68,25.57 -14.98,4.22 -28.4,2.47 -40.31,-5.21 -11.89,-7.71 -20.46,-20.84 -25.71,-39.44zm19.35 -5.46c4.03,14.3 9.64,24.19 16.83,29.68 7.19,5.49 15.6,6.86 25.25,4.14 9.71,-2.74 16.23,-8.32 19.54,-16.76 3.3,-8.44 2.92,-19.82 -1.11,-34.11 -3.9,-13.85 -9.48,-23.6 -16.76,-29.28 -7.29,-5.69 -15.79,-7.14 -25.5,-4.4 -9.58,2.7 -16.03,8.29 -19.31,16.8 -3.28,8.52 -2.92,19.81 1.06,33.93zm-147.9 -22.97l23.58 -5.44 50.57 42.86 9.36 -2.16 -11.94 -51.77 18.97 -4.38 25.93 112.4 -18.97 4.37 -11.28 -48.87c-4.87,1.19 -8.83,3.19 -11.81,5.94 -2.97,2.8 -5.01,7.32 -6.06,13.57 -0.33,1.85 -0.72,3.97 -1.06,6.4 -0.39,2.41 -0.66,4.53 -0.79,6.34 -0.98,8.9 -3.72,15.7 -8.2,20.31 -4.47,4.62 -10.96,7.88 -19.38,9.83l-5.16 1.19 -3.81 -16.5 4.34 -1c5.29,-1.22 9,-3.19 11.17,-5.9 2.15,-2.74 3.48,-7.18 3.94,-13.37 0.5,-6.27 1.65,-11.31 3.48,-15.17 1.79,-3.85 4.04,-6.98 6.69,-9.44l-59.57 -49.21z"/>
   <path class="fil1 str4" d="M2266.53 3598.9l5.71 31.34c4.43,-1.24 10.05,-2.83 16.83,-4.79 6.82,-1.96 12.23,-3.98 16.22,-6.03 4.79,-2.49 8.56,-5.62 11.27,-9.41 2.72,-3.79 3.57,-8.57 2.53,-14.3 -1.18,-6.45 -3.91,-11.02 -8.16,-13.65 -4.24,-2.63 -9.85,-3.32 -16.87,-2.05 -6.03,1.1 -11.22,3.37 -15.6,6.86 -4.39,3.45 -8.39,7.48 -11.93,12.03zm-2.89 -15.86c1.34,-1.46 3.13,-3.44 5.36,-5.99 2.23,-2.52 4.42,-4.65 6.63,-6.3 3.08,-2.39 6.09,-4.35 9.08,-5.86 2.96,-1.5 7.28,-2.78 12.96,-3.82 4.7,-0.86 9.26,-0.79 13.79,0.21 4.51,1.01 8.64,2.8 12.42,5.41 3.58,2.57 6.72,5.99 9.39,10.23 2.67,4.21 4.44,8.87 5.37,13.97 1.44,7.88 0.99,14.84 -1.3,21 -2.33,6.13 -6.76,11.45 -13.32,16.02 -5.83,4.07 -12.98,7.46 -21.43,10.14 -8.48,2.69 -17.65,5.22 -27.54,7.6l0.67 3.71c0.82,4.52 2.18,8.03 4.04,10.56 1.85,2.53 4.12,4.34 6.83,5.39 2.75,1.15 5.89,1.66 9.52,1.53 3.6,-0.12 7.3,-0.53 11.01,-1.21 4.4,-0.8 9.46,-2.41 15.17,-4.85 5.7,-2.44 11.3,-5.5 16.8,-9.16l1.11 -0.2 3.54 19.4c-3.36,1.65 -8.18,3.68 -14.56,6.1 -6.37,2.41 -12.74,4.22 -19.21,5.4 -7.8,1.42 -14.48,1.99 -20.08,1.76 -5.56,-0.25 -10.78,-1.56 -15.63,-3.97 -4.7,-2.37 -8.53,-5.87 -11.48,-10.43 -2.95,-4.58 -5.06,-10.44 -6.36,-17.55l-14.16 -77.74 19.17 -3.5 2.21 12.15zm-129.01 97.51l39.26 -2.99 -7.47 -98.13 19.41 -1.48 7.47 98.14 39.26 -2.99 1.28 16.88 -97.92 7.45 -1.29 -16.88zm-70.84 -98.94c7.94,-0.23 15.24,0.79 21.94,3.04 6.66,2.24 12.48,5.79 17.38,10.62 4.9,4.8 8.75,10.93 11.62,18.4 2.82,7.47 4.38,16.29 4.67,26.48 0.29,10.12 -0.83,18.9 -3.33,26.35 -2.5,7.45 -5.96,13.72 -10.36,18.9 -4.41,5.14 -9.97,9.18 -16.7,12.09 -6.69,2.91 -13.95,4.5 -21.75,4.72 -6.34,0.19 -12.51,-0.53 -18.44,-2.15 -5.94,-1.63 -11.26,-3.56 -15.95,-5.75l-0.62 -21.79 1.12 -0.03c1.42,1.12 3.26,2.4 5.48,3.86 2.2,1.42 4.88,2.89 8.04,4.39 2.72,1.26 5.92,2.37 9.62,3.29 3.69,0.91 7.24,1.34 10.62,1.24 10.05,-0.29 18.05,-4.33 23.93,-12.08 5.89,-7.77 8.65,-18.57 8.25,-32.46 -0.39,-13.58 -3.67,-24.11 -9.77,-31.52 -6.11,-7.41 -14.44,-10.99 -24.91,-10.68 -6.35,0.18 -12.37,1.66 -18.01,4.44 -5.67,2.73 -10.61,6.26 -14.95,10.48l-1.12 0.03 -0.63 -21.79c1.91,-0.97 4.28,-2.09 7.13,-3.44 2.86,-1.4 5.48,-2.39 7.79,-3.09 3.29,-1.04 6.22,-1.87 8.82,-2.47 2.63,-0.61 6,-0.96 10.13,-1.08zm-145 32.57c0.42,-5.59 1.93,-10.53 4.5,-14.9 2.59,-4.36 5.9,-7.79 9.94,-10.32 4.8,-3.1 9.84,-5.16 15.09,-6.21 5.28,-1.05 11.95,-1.28 20.08,-0.67l40.27 3.07 -8.75 115.02 -19.42 -1.48 3.41 -44.74 -21.43 -1.63c-8.64,-0.66 -15.3,-1.63 -20.01,-2.87 -4.72,-1.24 -9.3,-3.81 -13.75,-7.69 -3.78,-3.26 -6.48,-7.26 -8.11,-12.01 -1.65,-4.76 -2.25,-9.94 -1.82,-15.57zm20.07 1.32c-0.27,3.48 0.1,6.59 1.09,9.32 1,2.72 2.81,5.02 5.43,6.88 2.75,1.92 5.94,3.21 9.57,3.81 3.67,0.63 8.9,1.21 15.76,1.73l14.39 1.09 2.97 -39.04 -13.97 -1.07c-6.86,-0.52 -12.19,-0.63 -16,-0.33 -3.84,0.28 -7.16,1.16 -10.03,2.61 -2.95,1.54 -5.15,3.49 -6.6,5.82 -1.45,2.37 -2.33,5.41 -2.61,9.18zm-131.38 -49.75l24.02 2.97 32.82 57.6 9.53 1.18 6.52 -52.73 19.33 2.39 -14.17 114.48 -19.32 -2.39 6.16 -49.78c-4.98,-0.55 -9.39,-0.02 -13.13,1.54 -3.76,1.6 -7.22,5.15 -10.35,10.66 -0.95,1.63 -2.03,3.49 -3.19,5.65 -1.19,2.13 -2.17,4.03 -2.91,5.69 -3.97,8.03 -8.88,13.47 -14.67,16.27 -5.79,2.81 -12.99,3.65 -21.57,2.59l-5.26 -0.65 2.08 -16.8 4.42 0.54c5.39,0.67 9.55,0.09 12.51,-1.71 2.96,-1.84 5.73,-5.55 8.28,-11.21 2.62,-5.72 5.44,-10.06 8.48,-13.06 3,-3 6.18,-5.17 9.52,-6.57l-39.1 -66.66zm-119.29 36.34c3.49,-19.12 10.78,-32.99 21.88,-41.73 11.12,-8.69 24.31,-11.66 39.62,-8.88 15.79,2.88 27.24,10.52 34.31,22.88 7.1,12.38 8.95,27.78 5.6,46.2 -3.46,18.95 -10.78,32.82 -22.03,41.6 -11.22,8.82 -24.46,11.83 -39.69,9.05 -15.31,-2.79 -26.6,-10.26 -33.93,-22.39 -7.29,-12.15 -9.22,-27.71 -5.76,-46.73zm19.78 3.6c-2.66,14.61 -1.97,25.97 2.08,34.06 4.05,8.08 11.01,13.01 20.86,14.81 9.93,1.81 18.24,-0.34 24.92,-6.47 6.67,-6.14 11.33,-16.52 13.99,-31.13 2.58,-14.16 1.86,-25.37 -2.19,-33.67 -4.05,-8.31 -11.05,-13.34 -20.97,-15.15 -9.79,-1.78 -18.05,0.4 -24.73,6.61 -6.69,6.21 -11.33,16.51 -13.96,30.94zm-183.48 -49.97c5.25,-18.64 13.79,-31.77 25.67,-39.43 11.86,-7.68 25.22,-9.41 40.03,-5.24 14.53,4.1 24.72,12.16 30.52,24.18 5.83,12.01 6.82,26.44 2.91,43.29l19.56 5.51 14.29 -50.72 18.74 5.28 -31.29 111.03 -18.74 -5.29 12.75 -45.21 -19.96 -5.63c-5.79,14.67 -14.15,25.07 -25.15,31.21 -10.96,6.1 -23.17,7.29 -36.64,3.49 -15.63,-4.4 -26.22,-13.1 -31.82,-26.12 -5.61,-13.02 -5.9,-28.49 -0.87,-46.35zm19.36 5.45c-3.98,14.09 -4.38,25.42 -1.17,33.91 3.2,8.52 9.54,14.12 18.98,16.78 9.58,2.7 17.99,1.22 25.2,-4.45 7.18,-5.63 12.75,-15.46 16.68,-29.42 3.9,-13.85 4.24,-25.08 1.03,-33.71 -3.21,-8.65 -9.57,-14.28 -19.08,-16.96 -9.44,-2.66 -17.75,-1.26 -24.9,4.23 -7.16,5.5 -12.73,15.37 -16.74,29.62zm-138.14 -149.06l16.41 7.38 -11.46 25.48 69.5 31.25 11.46 -25.49 16.41 7.38 -18.15 40.35 -6.95 -3.12c-10.35,7.14 -20.96,17.72 -31.85,31.81 -10.87,14.11 -20.52,30.5 -28.94,49.22l-64.67 -29.07 40.52 -90.15 -10.42 -4.69 18.14 -40.35zm10.05 53.03l-33.85 75.29 30.31 13.62c7.86,-15.34 16.47,-28.72 25.77,-40.13 9.28,-11.41 18.48,-20.2 27.57,-26.4l-49.8 -22.38zm-59.53 -46.53l17.37 8.82 -52.28 102.83 -17.36 -8.83 52.27 -102.82zm-62.42 119.51l19.81 10.08 -9.11 17.92 -19.82 -10.07 9.12 -17.93zm-38.59 -175.18l16.87 9.73 -22.84 39.61 16.5 9.51 52.67 -22.4 19.67 11.34 -55.92 22.56c6.87,7.22 10.85,14.36 11.88,21.4 1.08,7.05 -0.74,14.64 -5.42,22.76 -2.86,4.96 -6.46,8.66 -10.79,11.13 -4.31,2.48 -9.09,3.92 -14.27,4.36 -4.12,0.31 -8.78,-0.38 -13.88,-1.99 -5.12,-1.64 -10.47,-4.08 -16.07,-7.31l-36.03 -20.78 57.63 -99.92zm-13.58 62.54l-19.35 33.55 18.21 10.5c3.85,2.22 7.03,3.76 9.49,4.66 2.47,0.85 5.1,1.32 7.87,1.32 2.9,-0.08 5.54,-0.91 7.93,-2.51 2.38,-1.6 4.31,-3.67 5.79,-6.24 1.88,-3.26 3.05,-6.13 3.47,-8.62 0.46,-2.5 0.2,-5.14 -0.76,-8.01 -1.08,-2.99 -2.93,-5.64 -5.62,-7.92 -2.66,-2.31 -5.8,-4.49 -9.37,-6.55l-17.66 -10.18zm-86.74 -129.69l15.86 11.3 -57.48 80.68 32.41 23.08c3.49,-4.53 6.85,-8.86 10.06,-13.02 3.19,-4.18 6.13,-7.93 8.78,-11.29 6.6,-8.54 12.42,-15.48 17.44,-20.84 5.04,-5.37 9.45,-9.37 13.25,-12.08 3.88,-2.82 7.27,-4.74 10.24,-5.74 2.96,-1.01 5.97,-1.69 9.02,-2.08 3.1,-0.29 6.04,-0.1 8.83,0.62 2.77,0.73 5.55,2.05 8.31,4.02 0.89,0.63 2.01,1.48 3.38,2.54 1.33,1.04 2.29,1.76 2.87,2.17l-9.82 13.79 -0.83 -0.59c-0.41,-0.29 -0.79,-0.6 -1.18,-0.96 -0.37,-0.35 -0.83,-0.73 -1.4,-1.14 -1.36,-0.96 -2.82,-1.7 -4.38,-2.25 -1.55,-0.5 -3.24,-0.62 -5,-0.27 -4.75,0.78 -10.24,4.1 -16.38,10.03 -6.18,5.95 -13.94,14.9 -23.27,26.78 -3.51,4.44 -7.58,9.72 -12.24,15.85 -4.66,6.12 -9.09,11.96 -13.33,17.56l-62.06 -44.21 66.92 -93.95zm-150.63 9.02c-0.69,-6.35 0.09,-13.03 2.46,-20.09 2.35,-7.02 6.37,-14.18 12.05,-21.47 5.47,-7.01 11.64,-12.62 18.52,-16.87 6.87,-4.21 13.78,-6.88 20.78,-8 7.22,-1.17 14.03,-1 20.45,0.57 6.43,1.56 12.45,4.51 18.04,8.87 5.71,4.46 10.15,9.54 13.34,15.19 3.22,5.69 4.9,11.91 5.03,18.69 0.14,8.42 -1.76,17.33 -5.74,26.74 -3.97,9.39 -10.41,19.84 -19.37,31.33 -3.17,4.06 -6.59,8.1 -10.23,12.02 -3.66,3.95 -8.37,8.38 -14.11,13.34 -5.16,4.38 -10.41,8.07 -15.74,11.11 -5.38,3.06 -10.72,4.98 -16.15,5.75 -6.96,1.01 -14.5,0.28 -22.56,-2.16 -8.13,-2.44 -17.64,-7.22 -28.59,-14.28 -3.91,-2.51 -8.04,-5.24 -12.43,-8.17 -4.38,-2.92 -7.72,-5.17 -10.03,-6.71l11.07 -14.18c2.94,2.03 6.1,4.17 9.49,6.41 3.39,2.25 7.26,4.81 11.63,7.69 5.78,3.84 12.26,7.33 19.39,10.47 7.11,3.17 13.41,4.33 18.9,3.55 4.08,-0.54 8.48,-2.46 13.23,-5.74 4.73,-3.3 9.44,-7.4 14.14,-12.28 -6.24,-0.26 -12.46,-1.17 -18.56,-2.75 -6.12,-1.61 -11.86,-4.47 -17.17,-8.62 -4.92,-3.83 -8.95,-8.31 -12.13,-13.42 -3.14,-5.14 -5.05,-10.78 -5.71,-16.99zm30.77 -30.4c-7.51,9.63 -11.11,18.72 -10.78,27.25 0.33,8.53 4.49,15.93 12.5,22.18 4.39,3.42 9.21,6.02 14.43,7.82 5.25,1.75 10.62,2.86 16.09,3.28 1.17,-1.27 2.55,-2.8 4.12,-4.57 1.58,-1.81 2.96,-3.46 4.13,-4.97 7.38,-9.45 12.64,-17.74 15.72,-24.87 3.12,-7.09 4.63,-13.38 4.53,-18.88 -0.06,-4.92 -0.99,-9.05 -2.78,-12.32 -1.82,-3.3 -4.31,-6.18 -7.51,-8.67 -7.79,-6.08 -16.15,-7.86 -25.11,-5.32 -8.94,2.51 -17.38,8.86 -25.34,19.07zm-65.04 -134.62l14.08 13.46 -35.68 37.34 37.79 36.12 35.69 -37.34 14.07 13.46 -79.7 83.38 -14.07 -13.45 32.31 -33.81 -37.79 -36.12 -32.32 33.81 -14.08 -13.46 79.7 -83.39zm-161.62 -87.6c7.78,-6.7 15.51,-11.69 23.09,-14.92 7.62,-3.26 14.73,-5.01 21.28,-5.2 6.67,-0.21 12.74,0.84 18.2,3.12 5.48,2.32 10.11,5.64 13.88,10.02 2.84,3.28 4.71,6.7 5.57,10.24 0.9,3.57 1.64,6.6 2.21,9.09l36.04 -31.06 12.71 14.74 -36.04 31.07c4.28,1.67 7.66,3.05 10.1,4.1 2.47,1.09 5.5,3.69 9.09,7.86 8.46,9.81 11.25,21.09 8.35,33.83 -2.87,12.77 -11.29,25.15 -25.19,37.13 -7.3,6.29 -14.65,10.99 -22.01,14.07 -7.38,3.06 -14.48,4.7 -21.32,4.87 -6.32,0.19 -12.24,-0.85 -17.72,-3.06 -5.5,-2.21 -10.13,-5.48 -13.87,-9.81 -2.65,-3.07 -4.5,-6.31 -5.58,-9.72 -1.07,-3.41 -1.8,-6.73 -2.26,-9.98l-37.62 32.43 -12.71 -14.75 37.62 -32.43c-3.37,-1.09 -6.86,-2.65 -10.47,-4.75 -3.61,-2.07 -6.77,-4.65 -9.47,-7.78 -8.44,-9.8 -11.19,-20.94 -8.2,-33.35 3.01,-12.46 11.1,-24.36 24.32,-35.76zm14.81 13.77c-9.97,8.6 -16.37,17.05 -19.26,25.37 -2.9,8.36 -1.52,15.79 4.12,22.34 2.32,2.69 4.72,4.77 7.16,6.21 2.49,1.44 5.14,2.93 7.94,4.51l58.23 -50.18c-0.91,-3.21 -1.59,-5.85 -2.16,-7.86 -0.56,-1.99 -2.01,-4.37 -4.38,-7.13 -5.83,-6.76 -13.17,-9.66 -22.07,-8.69 -8.9,0.96 -18.76,6.11 -29.58,15.43zm70.9 23l-58.23 50.18c0.74,2.63 1.55,5.19 2.49,7.64 0.95,2.45 2.4,4.83 4.35,7.1 5.74,6.66 12.89,9.67 21.52,9.04 8.63,-0.64 18.51,-5.76 29.68,-15.39 10.15,-8.75 16.62,-17.4 19.43,-25.92 2.84,-8.55 1.42,-16.08 -4.22,-22.62 -2.24,-2.6 -4.66,-4.6 -7.23,-6.02 -2.55,-1.39 -5.16,-2.74 -7.79,-4.01zm-79.32 -133.23c4.62,6.46 7.85,13.09 9.72,19.9 1.86,6.77 2.17,13.58 0.89,20.35 -1.24,6.74 -4.19,13.36 -8.78,19.9 -4.63,6.52 -11.08,12.73 -19.36,18.66 -8.24,5.89 -16.15,9.86 -23.73,11.94 -7.58,2.09 -14.71,2.72 -21.47,1.95 -6.72,-0.78 -13.18,-3.15 -19.34,-7.11 -6.16,-3.92 -11.52,-9.06 -16.06,-15.4 -3.7,-5.17 -6.54,-10.68 -8.52,-16.51 -1.96,-5.84 -3.32,-11.33 -4.12,-16.44l17.73 -12.68 0.66 0.92c-0.14,1.8 -0.18,4.04 -0.15,6.7 0.05,2.61 0.33,5.66 0.84,9.12 0.47,2.96 1.34,6.23 2.64,9.81 1.31,3.58 2.93,6.76 4.9,9.51 5.85,8.18 13.67,12.56 23.38,13.11 9.73,0.56 20.24,-3.18 31.54,-11.27 11.05,-7.9 17.96,-16.49 20.7,-25.69 2.74,-9.21 1.06,-18.11 -5.04,-26.64 -3.69,-5.16 -8.28,-9.33 -13.73,-12.46 -5.44,-3.18 -11.13,-5.31 -17.04,-6.55l-0.66 -0.92 17.73 -12.68c1.88,1.04 4.13,2.38 6.84,3.99 2.75,1.6 5.04,3.21 6.91,4.74 2.7,2.15 5.02,4.12 6.97,5.94 1.98,1.85 4.15,4.45 6.55,7.81zm-162.88 -61.6l21.19 33.18 82.95 -52.96 10.48 16.41 -82.96 52.96 21.19 33.19 -14.27 9.11 -52.85 -82.78 14.27 -9.11zm-43.36 -167c17.27,-8.74 32.73,-11.32 46.4,-7.76 13.68,3.56 23.99,12.23 30.93,25.95 6.81,13.48 7.75,26.44 2.83,38.84 -4.92,12.41 -14.87,22.9 -29.93,31.42l9.16 18.13 47.04 -23.77 8.78 17.38 -102.95 52.03 -8.78 -17.38 41.93 -21.19 -9.36 -18.51c-14.72,5.66 -28.03,6.54 -39.99,2.58 -11.91,-3.95 -21.04,-12.14 -27.35,-24.64 -7.32,-14.48 -8.08,-28.17 -2.28,-41.1 5.8,-12.94 17,-23.61 33.57,-31.98zm9.07 17.94c-13.07,6.61 -21.69,13.96 -25.77,22.08 -4.12,8.12 -3.96,16.57 0.47,25.33 4.48,8.88 11.26,14.07 20.31,15.55 9.01,1.48 20.02,-1.06 32.96,-7.6 12.84,-6.49 21.34,-13.84 25.53,-22.04 4.2,-8.21 4.05,-16.71 -0.4,-25.53 -4.43,-8.75 -11.08,-13.93 -19.96,-15.48 -8.89,-1.56 -19.93,1.01 -33.14,7.69zm-87.13 -157.2c25.73,-10.04 46.09,-13.67 61.06,-10.92 14.95,2.8 25.46,11.99 31.56,27.6 6.17,15.81 4.54,29.77 -4.83,41.95 -9.38,12.18 -26.64,23.15 -51.81,32.98 -25.87,10.09 -46.25,13.73 -61.13,10.94 -14.91,-2.81 -25.4,-12.01 -31.49,-27.62 -6.17,-15.81 -4.47,-29.79 5.03,-42.02 9.5,-12.23 26.7,-23.19 51.61,-32.91zm53.3 7.6c-5.51,-0.01 -12,1.01 -19.56,3.05 -7.53,2.07 -16.24,5.01 -26.12,8.87 -9.8,3.82 -18.19,7.56 -25.12,11.13 -6.96,3.63 -12.44,7.32 -16.49,11.1 -4.15,3.85 -6.79,7.95 -8.01,12.29 -1.21,4.37 -0.77,9.28 1.33,14.66 2.08,5.33 5.08,9.22 8.94,11.66 3.88,2.46 8.69,3.72 14.45,3.75 5.66,0.02 12.32,-1.06 20.03,-3.23 7.73,-2.23 16.24,-5.13 25.62,-8.79 9.98,-3.9 18.25,-7.47 24.74,-10.72 6.48,-3.21 12,-6.91 16.51,-11.06 4.21,-3.77 6.98,-7.92 8.3,-12.4 1.33,-4.46 0.88,-9.47 -1.27,-15 -2.08,-5.32 -5.08,-9.22 -8.95,-11.68 -3.87,-2.43 -8.67,-3.67 -14.4,-3.63zm-90.3 -128.4c26.58,-7.49 47.19,-9.12 61.83,-4.92 14.61,4.23 24.17,14.4 28.72,30.53 4.6,16.33 1.63,30.08 -8.89,41.28 -10.51,11.21 -28.76,20.46 -54.76,27.79 -26.73,7.53 -47.37,9.17 -61.91,4.95 -14.57,-4.25 -24.11,-14.43 -28.65,-30.56 -4.61,-16.33 -1.55,-30.09 9.08,-41.33 10.65,-11.25 28.84,-20.48 54.58,-27.74zm52.3 12.75c-5.48,-0.54 -12.04,-0.16 -19.77,1.14 -7.69,1.32 -16.64,3.4 -26.85,6.28 -10.13,2.85 -18.84,5.75 -26.08,8.64 -7.28,2.93 -13.1,6.07 -17.5,9.44 -4.5,3.43 -7.52,7.25 -9.17,11.45 -1.62,4.23 -1.67,9.16 -0.1,14.72 1.55,5.51 4.16,9.68 7.77,12.47 3.62,2.84 8.28,4.56 14.02,5.14 5.62,0.58 12.36,0.15 20.24,-1.27 7.91,-1.46 16.67,-3.52 26.35,-6.25 10.32,-2.91 18.9,-5.66 25.67,-8.26 6.76,-2.57 12.62,-5.72 17.51,-9.4 4.56,-3.34 7.72,-7.21 9.46,-11.54 1.76,-4.31 1.81,-9.34 0.2,-15.05 -1.55,-5.5 -4.16,-9.67 -7.77,-12.5 -3.62,-2.79 -8.27,-4.5 -13.98,-5.01zm-12.99 -199.32l2.81 22.71 -123.86 79.5 131.68 -16.3 2.34 18.91 -152.72 18.9 -3.56 -28.78 113.86 -72.1 -120.93 14.96 -2.34 -18.9 152.72 -18.9zm-118.64 -92.6c15.55,-1.93 28.3,0.56 38.29,7.45 9.98,6.91 15.78,16.71 17.35,29.42 1.64,13.23 -1.57,24.3 -9.6,33.21 -8.03,8.93 -19.81,14.33 -35.35,16.26 -15.97,1.97 -28.82,-0.5 -38.59,-7.42 -9.79,-6.93 -15.48,-16.79 -17.07,-29.6 -1.58,-12.78 1.54,-23.72 9.35,-32.75 7.8,-9.07 19.66,-14.6 35.62,-16.57zm89.16 2.62l7.33 59.23 -16.38 2.03 -7.33 -59.24 16.38 -2.02zm-86.87 15.87c-11.94,1.47 -20.42,4.76 -25.51,9.87 -5.09,5.11 -7.14,11.48 -6.21,19.04 0.94,7.59 4.49,13.27 10.67,17.02 6.19,3.75 15.22,4.91 27.16,3.43 11.52,-1.43 19.93,-4.7 25.2,-9.8 5.3,-5.1 7.46,-11.51 6.5,-19.25 -0.95,-7.71 -4.61,-13.4 -10.99,-17.02 -6.34,-3.62 -15.29,-4.72 -26.82,-3.29zm21 -189.78c27.61,-0.79 48,2.65 61.17,10.28 13.14,7.67 19.94,19.86 20.42,36.61 0.49,16.97 -5.74,29.57 -18.67,37.87 -12.93,8.32 -32.88,12.84 -59.89,13.61 -27.76,0.8 -48.17,-2.64 -61.25,-10.28 -13.09,-7.66 -19.86,-19.85 -20.34,-36.61 -0.49,-16.96 5.82,-29.56 18.88,-37.87 13.07,-8.32 32.95,-12.84 59.68,-13.61zm47.62 25.11c-5.17,-1.87 -11.63,-3.09 -19.44,-3.72 -7.78,-0.59 -16.97,-0.75 -27.58,-0.45 -10.51,0.3 -19.67,1 -27.4,2.03 -7.77,1.07 -14.18,2.69 -19.27,4.89 -5.2,2.23 -9.06,5.2 -11.68,8.88 -2.6,3.71 -3.85,8.47 -3.68,14.25 0.16,5.72 1.68,10.4 4.49,13.99 2.83,3.63 6.93,6.43 12.35,8.4 5.31,1.93 11.95,3.15 19.94,3.7 8.03,0.51 17.03,0.64 27.08,0.35 10.72,-0.3 19.71,-0.88 26.91,-1.76 7.18,-0.84 13.63,-2.47 19.27,-4.85 5.23,-2.13 9.24,-5.11 11.99,-8.89 2.76,-3.75 4.03,-8.62 3.86,-14.55 -0.17,-5.7 -1.68,-10.39 -4.5,-14.01 -2.82,-3.59 -6.92,-6.38 -12.34,-8.26zm-38.42 -151.78c27.54,2.1 47.46,7.65 59.76,16.62 12.26,8.99 17.76,21.83 16.48,38.54 -1.28,16.92 -8.8,28.8 -22.52,35.71 -13.73,6.92 -34.04,9.34 -60.98,7.28 -27.69,-2.1 -47.64,-7.65 -59.84,-16.61 -12.22,-9 -17.69,-21.83 -16.41,-38.54 1.28,-16.92 8.88,-28.79 22.73,-35.7 13.86,-6.91 34.12,-9.33 60.78,-7.3zm44.74 29.94c-4.96,-2.39 -11.25,-4.28 -18.95,-5.72 -7.68,-1.4 -16.8,-2.52 -27.38,-3.33 -10.49,-0.8 -19.67,-1.06 -27.47,-0.84 -7.84,0.25 -14.38,1.2 -19.67,2.85 -5.4,1.68 -9.56,4.23 -12.54,7.61 -2.98,3.41 -4.72,8.03 -5.15,13.79 -0.44,5.7 0.58,10.51 3,14.38 2.43,3.91 6.22,7.12 11.4,9.64 5.09,2.48 11.57,4.38 19.45,5.77 7.93,1.34 16.87,2.41 26.9,3.18 10.69,0.81 19.69,1.17 26.95,1.05 7.23,-0.09 13.81,-1.03 19.67,-2.81 5.42,-1.58 9.72,-4.12 12.85,-7.59 3.13,-3.44 4.9,-8.15 5.35,-14.06 0.44,-5.7 -0.58,-10.52 -3,-14.41 -2.44,-3.87 -6.22,-7.07 -11.41,-9.51zm-29.9 -151.5c27.41,3.39 47.04,9.87 58.91,19.41 11.82,9.57 16.7,22.64 14.65,39.28 -2.09,16.84 -10.15,28.36 -24.19,34.61 -14.03,6.26 -34.44,7.72 -61.25,4.4 -27.56,-3.41 -47.22,-9.89 -58.99,-19.42 -11.79,-9.56 -16.64,-22.64 -14.58,-39.27 2.08,-16.84 10.23,-28.34 24.39,-34.59 14.18,-6.24 34.52,-7.7 61.06,-4.42zm43.27 32.02c-4.83,-2.63 -11.03,-4.81 -18.66,-6.62 -7.6,-1.75 -16.66,-3.31 -27.19,-4.61 -10.44,-1.29 -19.59,-1.99 -27.39,-2.14 -7.85,-0.11 -14.42,0.52 -19.79,1.92 -5.47,1.42 -9.74,3.78 -12.89,7.02 -3.13,3.26 -5.08,7.79 -5.79,13.53 -0.7,5.67 0.09,10.53 2.32,14.5 2.25,4.02 5.88,7.41 10.94,10.17 4.96,2.71 11.34,4.92 19.15,6.67 7.86,1.72 16.74,3.21 26.72,4.45 10.64,1.32 19.61,2.1 26.87,2.33 7.22,0.25 13.84,-0.39 19.78,-1.89 5.49,-1.31 9.9,-3.65 13.2,-6.97 3.28,-3.29 5.28,-7.91 6.01,-13.8 0.7,-5.66 -0.09,-10.53 -2.33,-14.53 -2.25,-3.98 -5.88,-7.35 -10.95,-10.03zm-14.61 -155.76c26.9,6.24 45.75,14.74 56.56,25.47 10.76,10.75 14.24,24.27 10.46,40.59 -3.84,16.53 -13.06,27.14 -27.67,31.9 -14.62,4.76 -35.06,4.07 -61.38,-2.03 -27.05,-6.28 -45.93,-14.78 -56.64,-25.49 -10.72,-10.74 -14.18,-24.25 -10.39,-40.57 3.83,-16.53 13.13,-27.12 27.87,-31.85 14.75,-4.73 35.14,-4.06 61.19,1.98zm39.69 36.37c-4.54,-3.11 -10.47,-5.94 -17.87,-8.53 -7.37,-2.54 -16.22,-5.03 -26.56,-7.43 -10.24,-2.37 -19.27,-4.03 -27.02,-4.99 -7.79,-0.93 -14.4,-0.99 -19.88,-0.16 -5.59,0.84 -10.08,2.74 -13.55,5.63 -3.46,2.92 -5.87,7.22 -7.17,12.85 -1.3,5.57 -1.02,10.48 0.79,14.67 1.81,4.23 5.07,7.98 9.81,11.26 4.66,3.21 10.77,6.07 18.36,8.63 7.63,2.54 16.3,4.95 26.1,7.22 10.44,2.42 19.28,4.14 26.48,5.12 7.16,1.01 13.8,1.07 19.87,0.2 5.6,-0.74 10.23,-2.6 13.85,-5.56 3.62,-2.93 6.08,-7.31 7.42,-13.09 1.29,-5.56 1.01,-10.48 -0.79,-14.7 -1.82,-4.19 -5.08,-7.92 -9.84,-11.12zm-95.7 -146.18l170.68 110.7 -4.73 16.78 -170.73 -110.5 4.78 -16.98zm123.94 -93.7c25.66,10.22 43.01,21.45 52.08,33.68 9.02,12.25 10.44,26.14 4.24,41.71 -6.28,15.76 -17,24.87 -32.16,27.37 -15.16,2.51 -35.27,-1.25 -60.37,-11.24 -25.8,-10.27 -43.18,-21.52 -52.16,-33.71 -8.98,-12.23 -10.37,-26.11 -4.17,-41.68 6.28,-15.77 17.06,-24.83 32.35,-27.29 15.29,-2.46 35.34,1.27 60.19,11.16zm33.76 41.92c-4.01,-3.76 -9.45,-7.44 -16.37,-11.11 -6.92,-3.63 -15.29,-7.42 -25.14,-11.35 -9.78,-3.89 -18.46,-6.88 -25.96,-9 -7.57,-2.09 -14.09,-3.14 -19.63,-3.14 -5.66,-0.01 -10.39,1.18 -14.25,3.52 -3.86,2.37 -6.89,6.26 -9.03,11.63 -2.11,5.31 -2.58,10.21 -1.42,14.62 1.16,4.45 3.81,8.65 8.01,12.6 4.12,3.88 9.73,7.63 16.84,11.31 7.17,3.65 15.38,7.33 24.73,11.05 9.96,3.97 18.44,7 25.4,9.05 6.93,2.07 13.49,3.13 19.62,3.18 5.64,0.12 10.5,-1.02 14.53,-3.4 4.01,-2.36 7.11,-6.32 9.3,-11.83 2.11,-5.31 2.58,-10.21 1.43,-14.65 -1.17,-4.42 -3.83,-8.6 -8.06,-12.48zm15.54 -153.71c25.19,11.32 42.04,23.31 50.57,35.92 8.47,12.63 9.28,26.56 2.41,41.85 -6.96,15.48 -18.06,24.1 -33.32,25.94 -15.26,1.85 -35.18,-2.78 -59.82,-13.86 -25.33,-11.39 -42.21,-23.38 -50.64,-35.96 -8.45,-12.61 -9.23,-26.53 -2.35,-41.82 6.96,-15.47 18.13,-24.06 33.5,-25.85 15.39,-1.79 35.26,2.81 59.65,13.78zm31.91 43.35c-3.85,-3.93 -9.13,-7.85 -15.88,-11.82 -6.75,-3.92 -14.94,-8.07 -24.62,-12.42 -9.6,-4.32 -18.14,-7.69 -25.55,-10.13 -7.46,-2.42 -13.93,-3.75 -19.47,-4 -5.65,-0.26 -10.42,0.73 -14.38,2.9 -3.96,2.2 -7.16,5.95 -9.53,11.22 -2.35,5.22 -3.02,10.09 -2.06,14.55 0.96,4.5 3.43,8.81 7.45,12.94 3.95,4.05 9.39,8.05 16.34,12.03 7,3.95 15.04,8 24.22,12.12 9.77,4.4 18.11,7.8 24.98,10.15 6.83,2.37 13.34,3.72 19.46,4.03 5.64,0.37 10.54,-0.57 14.66,-2.77 4.12,-2.17 7.38,-6 9.82,-11.41 2.34,-5.21 3.02,-10.09 2.06,-14.57 -0.97,-4.46 -3.45,-8.76 -7.5,-12.82zm64.92 -61.31l-11.22 22.08 -26.23 -13.34 11.23 -22.08 26.22 13.34z"/>
   <path class="fil1 str4" d="M707.48 1158.84c23.22,14.97 38.08,29.34 44.62,43.09 6.5,13.75 5.21,27.65 -3.87,41.74 -9.2,14.26 -21.47,21.12 -36.83,20.66 -15.36,-0.46 -34.37,-8.02 -57.08,-22.66 -23.34,-15.05 -38.23,-29.43 -44.68,-43.13 -6.46,-13.73 -5.15,-27.62 3.93,-41.7 9.2,-14.26 21.53,-21.08 37,-20.55 15.48,0.54 34.44,8.06 56.91,22.55zm25.06 47.64c-3.21,-4.46 -7.84,-9.12 -13.93,-14.06 -6.08,-4.89 -13.56,-10.22 -22.48,-15.97 -8.84,-5.7 -16.78,-10.31 -23.74,-13.84 -7.02,-3.51 -13.22,-5.79 -18.66,-6.86 -5.55,-1.1 -10.42,-0.84 -14.65,0.71 -4.25,1.58 -7.97,4.81 -11.1,9.67 -3.1,4.8 -4.5,9.52 -4.21,14.07 0.27,4.59 2.07,9.23 5.43,13.91 3.29,4.6 8.07,9.36 14.35,14.34 6.33,4.96 13.67,10.16 22.13,15.61 9.01,5.81 16.74,10.42 23.18,13.78 6.4,3.36 12.64,5.67 18.64,6.89 5.52,1.21 10.5,1.02 14.91,-0.54 4.39,-1.53 8.2,-4.83 11.41,-9.81 3.1,-4.8 4.5,-9.53 4.23,-14.1 -0.3,-4.56 -2.11,-9.18 -5.51,-13.8zm45.52 -147.64c22.5,16.03 36.68,31.07 42.58,45.1 5.85,14.04 3.92,27.87 -5.8,41.52 -9.85,13.82 -22.42,20.11 -37.74,18.94 -15.32,-1.17 -33.96,-9.6 -55.97,-25.28 -22.62,-16.11 -36.83,-31.17 -42.65,-45.15 -5.81,-14.01 -3.86,-27.82 5.87,-41.47 9.84,-13.82 22.47,-20.06 37.91,-18.82 15.44,1.25 34.02,9.65 55.8,25.16zm22.83 48.75c-3,-4.61 -7.41,-9.48 -13.26,-14.69 -5.85,-5.16 -13.08,-10.84 -21.72,-17 -8.57,-6.1 -16.29,-11.07 -23.08,-14.91 -6.84,-3.84 -12.93,-6.41 -18.32,-7.72 -5.49,-1.36 -10.36,-1.32 -14.67,0.03 -4.31,1.38 -8.18,4.44 -11.53,9.14 -3.32,4.66 -4.94,9.31 -4.86,13.87 0.06,4.6 1.64,9.31 4.78,14.15 3.08,4.74 7.63,9.72 13.67,14.98 6.1,5.25 13.19,10.78 21.39,16.62 8.73,6.22 16.24,11.18 22.52,14.83 6.24,3.66 12.36,6.25 18.3,7.75 5.45,1.46 10.44,1.5 14.92,0.15 4.46,-1.33 8.41,-4.45 11.85,-9.28 3.31,-4.65 4.93,-9.3 4.87,-13.88 -0.08,-4.57 -1.67,-9.27 -4.86,-14.04zm76.37 -46.88l-16.23 18.71 -22.22 -19.29 16.24 -18.7 22.21 19.28zm87.1 -95.06l-65.52 68.55 -15.68 -14.99c0.01,-9.41 0.01,-18.34 -0.09,-26.82 -0.08,-8.48 -0.46,-17.03 -1.1,-25.65 -1.21,-17.36 -3.12,-30.27 -5.78,-38.72 -2.64,-8.42 -6.95,-15.51 -12.94,-21.24 -3.09,-2.95 -6.25,-5.05 -9.52,-6.32 -3.28,-1.28 -6.51,-1.78 -9.64,-1.55 -3.16,0.3 -6.24,1.26 -9.17,2.85 -2.93,1.59 -5.7,3.72 -8.34,6.48 -2.51,2.62 -4.74,5.62 -6.65,9 -1.95,3.37 -3.59,6.77 -4.97,10.2 -1.17,2.91 -2.08,5.9 -2.73,8.99 -0.66,3.08 -1.15,5.64 -1.46,7.64l-0.78 0.82 -15.78 -15.08c1.39,-4.58 4.01,-10.28 7.79,-17.2 3.82,-6.9 8.05,-12.8 12.75,-17.73 9.9,-10.35 20.4,-15.83 31.51,-16.48 11.12,-0.61 21.37,3.58 30.78,12.58 4.34,4.14 7.86,8.48 10.56,13.01 2.69,4.53 4.76,9.2 6.19,13.98 1.48,4.93 2.59,10.22 3.29,15.87 0.69,5.6 1.22,11.32 1.55,17.16 0.59,9.54 0.9,19.78 0.89,30.76 -0.04,10.98 -0.09,19.71 -0.17,26.18l52.16 -54.57 12.85 12.28zm33.4 -138.55c19.09,19.97 30.2,37.4 33.36,52.3 3.11,14.89 -1.38,28.1 -13.5,39.69 -12.26,11.72 -25.79,15.54 -40.62,11.51 -14.83,-4.02 -31.56,-15.8 -50.23,-35.33 -19.19,-20.07 -30.32,-37.53 -33.41,-52.35 -3.09,-14.86 1.43,-28.06 13.54,-39.64 12.26,-11.73 25.84,-15.48 40.77,-11.36 14.93,4.12 31.61,15.86 50.09,35.18zm13.27 52.17c-2.08,-5.09 -5.5,-10.7 -10.27,-16.92 -4.78,-6.17 -10.81,-13.1 -18.14,-20.77 -7.27,-7.6 -13.92,-13.93 -19.87,-18.98 -6,-5.05 -11.5,-8.72 -16.54,-11.03 -5.14,-2.36 -9.94,-3.24 -14.42,-2.72 -4.5,0.55 -8.87,2.82 -13.05,6.82 -4.13,3.95 -6.59,8.21 -7.37,12.71 -0.8,4.53 -0.13,9.45 2.04,14.79 2.13,5.24 5.67,10.98 10.62,17.28 5,6.3 10.93,13.07 17.88,20.34 7.41,7.75 13.86,14.03 19.34,18.8 5.44,4.76 10.97,8.45 16.52,11.05 5.08,2.45 9.98,3.43 14.63,2.94 4.63,-0.47 9.09,-2.79 13.38,-6.88 4.12,-3.95 6.59,-8.22 7.39,-12.73 0.77,-4.5 0.09,-9.41 -2.14,-14.7zm86.52 -129.76c17.08,21.71 26.46,40.14 28.17,55.27 1.66,15.12 -4.09,27.84 -17.26,38.2 -13.34,10.49 -27.17,12.99 -41.54,7.55 -14.38,-5.43 -29.89,-18.77 -46.6,-40 -17.16,-21.83 -26.56,-40.28 -28.21,-55.33 -1.64,-15.09 4.13,-27.79 17.3,-38.15 13.34,-10.49 27.22,-12.92 41.67,-7.38 14.47,5.54 29.94,18.83 46.47,39.84zm8.19 53.21c-1.59,-5.27 -4.45,-11.18 -8.6,-17.83 -4.16,-6.6 -9.49,-14.08 -16.05,-22.42 -6.51,-8.27 -12.51,-15.21 -17.95,-20.81 -5.49,-5.61 -10.61,-9.79 -15.4,-12.57 -4.89,-2.85 -9.58,-4.18 -14.09,-4.1 -4.53,0.12 -9.1,1.96 -13.64,5.53 -4.5,3.54 -7.36,7.54 -8.57,11.94 -1.23,4.43 -1.04,9.4 0.61,14.92 1.61,5.42 4.59,11.48 8.9,18.23 4.37,6.75 9.62,14.06 15.84,21.96 6.63,8.43 12.44,15.31 17.44,20.57 4.95,5.27 10.1,9.48 15.37,12.59 4.83,2.94 9.61,4.38 14.28,4.35 4.66,-0.03 9.32,-1.9 13.99,-5.57 4.48,-3.53 7.35,-7.54 8.58,-11.96 1.2,-4.4 1,-9.36 -0.71,-14.83zm96.93 -123.42c14.86,23.28 22.38,42.54 22.6,57.77 0.17,15.2 -6.79,27.3 -20.92,36.32 -14.3,9.13 -28.32,10.26 -42.08,3.44 -13.78,-6.82 -27.91,-21.61 -42.45,-44.39 -14.94,-23.41 -22.48,-42.69 -22.64,-57.83 -0.15,-15.17 6.83,-27.25 20.95,-36.26 14.31,-9.14 28.36,-10.19 42.2,-3.26 13.85,6.93 27.95,21.67 42.34,44.21zm2.92 53.76c-1.06,-5.4 -3.33,-11.57 -6.8,-18.59 -3.5,-6.98 -8.07,-14.95 -13.78,-23.89 -5.66,-8.87 -10.96,-16.37 -15.82,-22.47 -4.91,-6.12 -9.6,-10.78 -14.1,-14.02 -4.58,-3.31 -9.12,-5.1 -13.61,-5.46 -4.52,-0.33 -9.25,1.05 -14.12,4.16 -4.82,3.08 -8.06,6.78 -9.7,11.04 -1.66,4.29 -1.96,9.25 -0.86,14.91 1.08,5.55 3.44,11.87 7.07,19.01 3.69,7.15 8.2,14.94 13.61,23.42 5.77,9.03 10.88,16.45 15.34,22.18 4.41,5.72 9.12,10.42 14.06,14.04 4.52,3.39 9.13,5.3 13.79,5.72 4.63,0.44 9.46,-0.98 14.46,-4.17 4.81,-3.07 8.05,-6.78 9.71,-11.05 1.63,-4.27 1.91,-9.22 0.75,-14.83z"/>
  </g>
  <path class="fil1 str2" d="M2710.55 585.42c-0.47,-7.88 -2.06,-15.76 -4.82,-23.58 -3.89,-11.23 -5.83,-18.99 -5.83,-23.22 0,-6 1.42,-10.53 4.18,-13.65 2.82,-3.11 6.29,-4.64 10.46,-4.64 3.53,0 6.65,1.53 9.29,4.64 2.65,3.12 3.94,7.53 3.94,13.29 0,5.18 -1.53,12.35 -4.52,21.58 -3.06,9.29 -4.94,17.82 -5.65,25.58 6.35,-4 12,-8.88 17.05,-14.64 7.82,-9.06 13.64,-14.7 17.41,-16.88 3.82,-2.17 7.64,-3.23 11.58,-3.23 3.76,0 6.94,1.29 9.52,3.88 2.59,2.53 3.88,5.64 3.88,9.17 0,4.29 -1.88,8.06 -5.7,11.41 -3.76,3.29 -13.23,6.64 -28.4,9.99 -8.82,1.94 -16.17,4.18 -22.05,6.7 6,3.12 13.29,5.47 21.88,7.06 13.87,2.53 22.98,5.7 27.28,9.47 4.35,3.82 6.46,7.93 6.46,12.4 0,3.47 -1.29,6.41 -3.88,8.94 -2.58,2.53 -5.58,3.82 -8.99,3.82 -3.47,0 -7.29,-1.23 -11.47,-3.64 -4.17,-2.42 -9.87,-7.82 -16.99,-16.17 -4.7,-5.65 -10.52,-10.94 -17.58,-15.88 0.24,6.59 1.59,13.7 4,21.4 4.12,13.53 6.17,22.76 6.17,27.7 0,4.58 -1.35,8.46 -4.11,11.64 -2.77,3.17 -5.71,4.76 -8.76,4.76 -4.29,0 -8.12,-1.71 -11.59,-5 -2.41,-2.41 -3.58,-6.29 -3.58,-11.58 0,-5.47 1.29,-12.11 3.94,-19.87 2.64,-7.76 4.29,-13.11 4.99,-16 0.71,-2.94 1.36,-7.29 1.89,-13.05 -6.77,4.53 -12.7,9.47 -17.7,14.99 -8.41,9.41 -14.7,15.41 -18.99,17.94 -3,1.82 -6.06,2.76 -9.29,2.76 -3.88,0 -7.23,-1.35 -10,-4 -2.76,-2.64 -4.11,-5.52 -4.11,-8.76 0,-2.88 1.17,-5.88 3.53,-9.05 2.35,-3.18 5.88,-5.76 10.58,-7.82 3.11,-1.41 10.17,-3.24 21.16,-5.53 7.12,-1.47 14.12,-3.64 20.88,-6.53 -6.24,-3.11 -13.64,-5.52 -22.23,-7.23 -14.11,-3 -22.87,-5.7 -26.16,-8.11 -5.18,-3.76 -7.76,-8.41 -7.76,-13.76 0,-3.11 1.29,-5.94 3.88,-8.52 2.59,-2.59 5.58,-3.88 9.05,-3.88 3.77,0 7.76,1.17 12.06,3.58 4.23,2.41 9.52,7.29 15.81,14.58 6.35,7.29 12.76,12.94 19.29,16.94z"/>
  <path class="fil2" d="M2050.01 1036.98c558.35,0 1010.98,453.54 1010.98,1013.02 0,559.48 -452.63,1013.02 -1010.98,1013.02 -558.35,0 -1010.98,-453.54 -1010.98,-1013.02 0,-559.48 452.63,-1013.02 1010.98,-1013.02z"/>
  <path class="fil1 str5" d="M988.25 2076.88l2.07 27.29 -180.38 13.7 7.12 93.71 180.38 -13.7 2.07 27.3 -204.58 15.54 -11.26 -148.31 204.58 -15.53zm-70.8 -190.02c25.51,1.94 45.4,9.63 59.62,23.02 14.21,13.44 20.63,29.55 19.21,48.3 -0.58,7.6 -1.98,14.28 -4.16,20.07 -2.18,5.73 -5.32,11.58 -9.44,17.44l64.16 4.87 -1.96 25.89 -209.94 -15.94 1.97 -25.89 16.08 1.22c-5.27,-6.86 -9.56,-14.4 -12.86,-22.54 -3.29,-8.17 -4.56,-16.9 -3.86,-26.13 1.34,-17.69 9.33,-30.91 24.01,-39.74 14.68,-8.84 33.72,-12.35 57.17,-10.57zm0.73 26.95c-17.49,-1.33 -31.26,0.46 -41.35,5.3 -10.09,4.9 -15.6,13.62 -16.56,26.25 -0.56,7.32 0.55,14.56 3.26,21.66 2.72,7.09 6.39,13.93 11.09,20.47l86.86 6.59c3.85,-6.55 6.54,-12.19 8.08,-16.94 1.54,-4.73 2.57,-10.22 3.04,-16.46 1.02,-13.46 -3.06,-24.24 -12.3,-32.45 -9.23,-8.2 -23.26,-12.99 -42.12,-14.42zm94.16 -87.77l-4.64 25.55 -151.34 -27.43 4.63 -25.56 151.35 27.44zm-176.54 -34.01l-5.29 29.16 -26.39 -4.78 5.29 -29.16 26.39 4.78zm179.44 -128.28c8.15,2.77 14.45,6.9 18.89,12.38 4.4,5.48 7.34,11.59 8.74,18.27 1.4,6.39 1.72,13.21 0.95,20.56 -0.74,7.3 -2.23,14.33 -4.55,21.15 -3.24,9.53 -7.25,18.25 -12.03,26.17 -4.76,7.86 -10.63,15.35 -17.64,22.36l-27.21 -9.26 0.53 -1.55c7.43,-4.03 14.26,-9.96 20.44,-17.74 6.19,-7.84 10.76,-16.17 13.76,-24.98 1.31,-3.83 2.29,-8.02 2.98,-12.7 0.64,-4.65 0.65,-8.78 -0.07,-12.39 -1.05,-4.78 -2.66,-8.51 -4.8,-11.13 -2.19,-2.63 -5.69,-4.76 -10.5,-6.4 -5.16,-1.75 -9.64,-2.18 -13.4,-1.32 -3.83,0.88 -7.06,2.76 -9.76,5.61 -2.7,2.81 -4.93,6.28 -6.75,10.33 -1.82,4.05 -3.51,8.45 -5.1,13.13l-5.82 17.09 -21.38 -7.27 4.44 -13.04c1.12,-3.3 2.43,-7.42 3.88,-12.44 1.45,-4.98 2.11,-9.13 1.96,-12.46 -0.13,-4.16 -1.07,-7.82 -2.9,-10.92 -1.76,-3.14 -5.7,-5.71 -11.81,-7.79 -4.22,-1.44 -7.98,-1.67 -11.25,-0.65 -3.24,1.04 -6.08,2.7 -8.53,5.05 -2.55,2.41 -4.71,5.25 -6.47,8.53 -1.75,3.24 -3.16,6.48 -4.25,9.69 -2.78,8.19 -4.3,16.47 -4.6,24.81 -0.26,8.36 0.91,16.01 3.56,22.98l-0.53 1.55 -26.5 -9.01c-0.05,-6.97 0.39,-14.58 1.33,-22.75 0.93,-8.13 2.67,-16.03 5.28,-23.69 2.1,-6.19 4.85,-12.21 8.32,-18.19 3.41,-5.94 7.61,-11.27 12.63,-15.97 4.78,-4.39 10.4,-7.49 16.81,-9.39 6.45,-1.89 13.39,-1.55 20.92,1.01 7.92,2.69 14.11,7.28 18.57,13.76 4.44,6.53 6.36,13.74 5.81,21.8l0.89 0.3c5.51,-7.17 12.04,-12.35 19.5,-15.58 7.5,-3.2 16.04,-3.18 25.66,0.09zm67 -155.15c6.62,3.38 11.88,7.65 15.69,12.82 3.82,5.13 6.34,10.85 7.53,17 1.47,7.77 1.43,15.1 -0.15,22.01 -1.59,6.84 -4.58,14.55 -8.92,23.06l-27.53 53.91 -136.98 -69.95 25.73 -50.39c5.16,-10.1 9.22,-17.32 12.21,-21.66 2.99,-4.39 6.93,-8.18 11.8,-11.5 5.1,-3.47 10.35,-5.28 15.89,-5.36 5.48,-0.1 11.17,1.38 17.12,4.42 6.54,3.34 11.48,8.13 14.84,14.38 3.33,6.2 4.91,13.02 4.67,20.45l1.16 -0.2c5.66,-6.45 12.64,-10.71 20.95,-12.8 8.28,-2.05 16.94,-0.81 25.99,3.81zm-76.08 0.14c-3.1,-1.58 -6.03,-2.45 -8.81,-2.6 -2.8,-0.11 -5.49,0.73 -8.07,2.58 -3.01,2.17 -5.6,4.96 -7.74,8.41 -2.14,3.5 -4.84,8.46 -8.11,14.87l-11.15 21.83 37.2 18.99 13.46 -26.35c2.86,-5.61 4.65,-9.72 5.3,-12.34 0.69,-2.61 0.91,-5.83 0.63,-9.5 -0.2,-3.54 -1.46,-6.56 -3.6,-9.09 -2.2,-2.54 -5.21,-4.81 -9.11,-6.8zm63.81 23.7c-4.7,-2.4 -8.82,-3.65 -12.31,-3.75 -3.53,-0.11 -7.56,1.59 -12.09,4.98 -2.88,2.12 -5.28,4.75 -7.29,7.84 -2,3.1 -4.47,7.54 -7.43,13.32l-13.77 26.98 44.99 22.97 10.16 -19.89c4.22,-8.26 7.13,-14.8 8.8,-19.71 1.69,-4.88 2.35,-9.47 2.05,-13.74 -0.41,-4.48 -1.6,-8.26 -3.57,-11.22 -2.01,-2.98 -5.19,-5.56 -9.54,-7.78zm144.4 -139.04l-15.04 21.16 -93.51 -66.47 51.84 125.09 -13.76 19.35 -125.37 -89.1 15.04 -21.16 92.06 65.43 -50.85 -123.4 14.22 -20.01 125.37 89.11zm199.29 -152.6l-17.38 16.54 -25.49 -26.78 -125.71 119.67 -106.05 -111.4 18.8 -17.9 91.07 95.67 37.82 -36 -91.07 -95.67 18.81 -17.9 91.07 95.66 37.81 -36 -91.07 -95.66 18.8 -17.9 91.07 95.66 11.04 -10.51 40.48 42.52zm66.28 -83.21c-20.63,13.31 -40.43,17.85 -59.32,13.64 -18.89,-4.21 -35.22,-17.03 -48.99,-38.37 -13.56,-21.02 -18.81,-41.32 -15.77,-60.9 2.99,-19.57 13.46,-35.11 31.32,-46.63 8.06,-5.2 15.92,-8.65 23.59,-10.29 7.68,-1.72 15.44,-1.57 23.25,0.39 7.85,1.93 15.28,5.64 22.35,11.21 7.08,5.52 13.94,13.46 20.6,23.77l7.62 11.83 -89.88 57.98c9.66,14.97 20.85,23.99 33.54,27 12.72,3.05 25.78,0.22 39.18,-8.42 4.78,-3.09 9.17,-6.7 13.07,-10.73 3.93,-4.05 7.17,-8.15 9.78,-12.25 2.8,-4.32 5.07,-8.19 6.69,-11.58 1.65,-3.42 2.89,-6.46 3.72,-9.07l1.27 -0.82 15.32 23.76c-1.93,2.65 -4.28,5.95 -7.11,9.9 -2.81,3.95 -5.45,7.33 -7.92,10.1 -3.53,3.9 -6.78,7.28 -9.81,10.13 -3.06,2.81 -7.24,5.96 -12.5,9.35zm-27.17 -98.34c-3.93,-5.75 -7.9,-10.35 -11.85,-13.78 -3.96,-3.45 -8.1,-5.87 -12.28,-7.32 -4.63,-1.54 -9.52,-1.91 -14.6,-1.04 -5.09,0.87 -10.57,3.24 -16.5,7.06 -5.81,3.75 -10.19,7.8 -13.14,12.17 -2.95,4.36 -5.06,9.25 -6.23,14.71 -1.09,5.52 -1.12,10.85 -0.21,16.09 0.95,5.21 2.99,10.72 6.04,16.47l68.77 -44.36zm263.24 -19.74l-74.36 29.15 -7.62 -19.43 24.44 -9.59 -59.64 -152.13 -24.44 9.58 -7.62 -19.44 74.36 -29.15 7.62 19.44 -24.44 9.58 59.64 152.13 24.44 -9.58 7.62 19.44zm183.84 -45.71l-25.29 5.85 -27.24 -117.77 -18.28 84.85 -18.78 4.34 -53.4 -68.27 27.24 117.77 -23.65 5.47 -34.66 -149.85 30.48 -7.05 58.69 74.1 18.89 -92.04 31.34 -7.25 34.66 149.85zm43.02 -132.53l-9.2 -37.08 -2.56 -33.63 28.13 -2.15 2.57 33.64 -3.75 38.06 -15.19 1.16zm188.34 127.77l-25.96 -0.72 1.69 -60.94 -25.39 -0.7 -47.58 59.67 -30.28 -0.84 51.31 -61.92c-12.64,-4.11 -21.84,-9.96 -27.51,-17.55 -5.71,-7.6 -8.41,-17.65 -8.06,-30.16 0.21,-7.62 2.09,-14.25 5.59,-19.89 3.49,-5.64 8.19,-10.36 13.99,-14.15 4.64,-2.98 10.53,-5.12 17.54,-6.48 7.04,-1.31 14.87,-1.85 23.48,-1.61l55.44 1.54 -4.26 153.75zm-23.71 -81.97l1.43 -51.63 -28.02 -0.78c-5.93,-0.16 -10.64,0.04 -14.09,0.56 -3.45,0.56 -6.82,1.7 -10.07,3.44 -3.35,1.93 -5.91,4.59 -7.7,7.98 -1.79,3.38 -2.74,7.02 -2.85,10.97 -0.14,5.03 0.32,9.14 1.4,12.33 1.04,3.22 3.03,6.14 5.97,8.9 3.17,2.82 7.02,4.77 11.6,5.74 4.59,1.03 9.65,1.59 15.15,1.74l27.18 0.75zm314.3 143.53l-26.34 -7.45 49.24 -174.07 -90.44 -25.58 -49.23 174.07 -26.35 -7.45 55.84 -197.42 143.12 40.48 -55.84 197.42zm198.27 10.96c-11.78,23.08 -26.41,38 -43.94,44.9 -17.53,6.84 -35.53,5.57 -54.01,-3.86 -19.06,-9.73 -30.74,-23.88 -35.03,-42.38 -4.31,-18.53 -0.79,-38.91 10.57,-61.15 11.68,-22.88 26.36,-37.77 44.09,-44.67 17.7,-6.96 35.76,-5.72 54.15,3.67 18.48,9.44 30.04,23.31 34.75,41.61 4.65,18.31 1.14,38.92 -10.58,61.88zm-23.87 -12.19c9,-17.64 12.47,-32.39 10.41,-44.28 -2.08,-11.88 -9.07,-20.84 -20.97,-26.92 -11.98,-6.11 -23.41,-6.56 -34.29,-1.29 -10.89,5.28 -20.81,16.74 -29.81,34.38 -8.72,17.09 -12.11,31.68 -10.12,43.84 1.98,12.16 8.99,21.28 20.97,27.4 11.81,6.03 23.19,6.39 34.11,1.03 10.92,-5.35 20.8,-16.73 29.7,-34.16zm270.51 129.28c0.47,8.5 -1.05,17.34 -4.7,26.57 -3.63,9.18 -9.49,18.43 -17.57,27.72 -7.78,8.95 -16.39,15.99 -25.86,21.15 -9.45,5.14 -18.83,8.19 -28.24,9.18 -9.7,1.04 -18.75,0.34 -27.19,-2.2 -8.45,-2.55 -16.25,-6.91 -23.38,-13.11 -7.28,-6.32 -12.84,-13.4 -16.69,-21.17 -3.87,-7.79 -5.67,-16.2 -5.36,-25.23 0.41,-11.23 3.56,-22.95 9.54,-35.2 5.95,-12.23 15.27,-25.68 28.02,-40.35 4.5,-5.17 9.35,-10.31 14.47,-15.27 5.15,-4.99 11.74,-10.56 19.73,-16.75 7.19,-5.47 14.44,-10.01 21.75,-13.69 7.38,-3.69 14.63,-5.86 21.92,-6.5 9.34,-0.85 19.32,0.65 29.88,4.48 10.65,3.82 22.97,10.86 37.05,21.05 5.02,3.61 10.33,7.55 15.96,11.76 5.63,4.21 9.93,7.44 12.88,9.63l-15.74 18.11c-3.77,-2.91 -7.82,-5.99 -12.18,-9.22 -4.36,-3.23 -9.32,-6.92 -14.95,-11.07 -7.41,-5.5 -15.81,-10.62 -25.07,-15.31 -9.24,-4.72 -17.54,-6.71 -24.9,-6.07 -5.47,0.43 -11.48,2.68 -18.04,6.7 -6.51,4.06 -13.08,9.19 -19.69,15.35 8.29,0.78 16.51,2.44 24.53,4.99 8.04,2.57 15.47,6.78 22.25,12.68 6.28,5.46 11.32,11.71 15.18,18.75 3.82,7.06 5.96,14.71 6.4,23.02zm-43.12 38.28c10.67,-12.27 16.11,-24.12 16.28,-35.51 0.17,-11.38 -4.84,-21.53 -15.07,-30.42 -5.6,-4.88 -11.83,-8.67 -18.66,-11.43 -6.86,-2.72 -13.92,-4.56 -21.19,-5.52 -1.66,1.61 -3.59,3.55 -5.79,5.81 -2.25,2.29 -4.2,4.39 -5.87,6.3 -10.49,12.07 -18.08,22.74 -22.7,32 -4.66,9.23 -7.11,17.5 -7.37,24.83 -0.27,6.54 0.68,12.11 2.83,16.59 2.18,4.52 5.29,8.54 9.38,12.09 9.94,8.64 20.94,11.6 33.06,8.85 12.08,-2.7 23.76,-10.55 35.1,-23.59zm84.56 144.4l32.2 -27.71c-4.41,-4.26 -10.04,-9.65 -16.87,-16.13 -6.85,-6.52 -12.82,-11.37 -17.88,-14.58 -6.09,-3.83 -12.23,-6.05 -18.42,-6.63 -6.2,-0.56 -12.27,1.69 -18.15,6.75 -6.63,5.71 -10.03,11.93 -10.2,18.58 -0.17,6.66 2.82,13.58 9.02,20.78 5.34,6.21 11.44,10.63 18.41,13.33 6.93,2.72 14.26,4.6 21.89,5.61zm-16.29 14.02c-2.6,-0.56 -6.07,-1.29 -10.51,-2.13 -4.41,-0.85 -8.33,-1.95 -11.72,-3.37 -4.83,-1.93 -9.1,-4.09 -12.85,-6.5 -3.73,-2.39 -8.12,-6.48 -13.15,-12.33 -4.15,-4.81 -7.16,-10.1 -9.05,-15.98 -1.89,-5.88 -2.62,-11.84 -2.15,-17.94 0.53,-5.87 2.34,-11.77 5.42,-17.71 3.05,-5.9 7.2,-11.1 12.44,-15.61 8.09,-6.96 16.41,-11.14 25.04,-12.66 8.61,-1.46 17.73,0.06 27.41,4.52 8.61,3.94 17.33,9.9 26.11,17.8 8.81,7.93 17.91,16.78 27.33,26.56l3.81 -3.28c4.63,-3.99 7.76,-7.92 9.43,-11.77 1.65,-3.85 2.2,-7.68 1.59,-11.49 -0.54,-3.94 -2.08,-7.89 -4.67,-11.99 -2.57,-4.06 -5.54,-8.02 -8.83,-11.83 -3.89,-4.53 -9.14,-9.26 -15.8,-14.2 -6.64,-4.89 -13.95,-9.27 -21.86,-13.14l-0.99 -1.14 19.93 -17.15c4.17,2.75 9.75,6.94 16.83,12.63 7.07,5.71 13.46,11.82 19.17,18.45 6.9,8.02 12.05,15.32 15.56,21.91 3.48,6.57 5.5,13.45 5.99,20.67 0.44,6.99 -1,13.76 -4.24,20.22 -3.3,6.49 -8.61,12.87 -15.92,19.16l-79.86 68.72 -16.94 -19.68 12.48 -10.74zm204.79 97.88l-28.14 -44.31 -110.77 70.36 -13.92 -21.91 110.77 -70.36 -28.14 -44.32 19.06 -12.1 70.2 110.54 -19.06 12.1zm-5.35 188.03c-6.82,3.08 -13.57,4.48 -20.32,4.27 -6.77,-0.24 -12.89,-1.91 -18.43,-5.04 -6.7,-3.64 -12.33,-8.22 -16.9,-13.68 -4.61,-5.51 -9.15,-13.16 -13.62,-23.07l-22.16 -49.08 140.19 -63.28 10.68 23.66 -54.53 24.62 11.79 26.11c4.76,10.54 7.88,18.93 9.44,25.25 1.56,6.32 1.47,13.33 -0.22,21 -1.4,6.51 -4.35,12.23 -8.88,17.17 -4.51,4.98 -10.18,8.98 -17.04,12.07zm-11.29 -24.31c4.24,-1.92 7.64,-4.33 10.2,-7.24 2.56,-2.91 4.1,-6.49 4.6,-10.74 0.47,-4.45 -0.04,-9.02 -1.67,-13.65 -1.6,-4.69 -4.28,-11.18 -8.05,-19.53l-7.92 -17.54 -47.58 21.48 7.68 17.02c3.77,8.36 7.04,14.68 9.84,18.94 2.77,4.32 5.93,7.64 9.46,10.08 3.68,2.46 7.38,3.79 11.04,3.99 3.69,0.2 7.81,-0.74 12.4,-2.81zm12.75 201.45l-8.72 -31.07 53.92 -70.04 -3.46 -12.32 -68.2 19.14 -7.02 -24.99 148.09 -41.56 7.02 24.99 -64.4 18.08c1.9,6.4 4.8,11.55 8.65,15.35 3.91,3.79 10.06,6.21 18.45,7.23 2.49,0.33 5.33,0.71 8.59,1.01 3.23,0.36 6.07,0.59 8.49,0.65 11.94,0.75 21.14,3.99 27.57,9.65 6.43,5.67 11.19,14.11 14.3,25.2l1.91 6.8 -21.74 6.1 -1.6 -5.71c-1.96,-6.97 -4.83,-11.78 -8.57,-14.49 -3.78,-2.71 -9.76,-4.2 -18.04,-4.42 -8.38,-0.29 -15.17,-1.51 -20.43,-3.7 -5.24,-2.14 -9.54,-4.95 -12.98,-8.32l-61.83 82.42zm95.86 147.92c-25.72,3.2 -46.28,-0.54 -61.82,-11.17 -15.51,-10.67 -24.56,-26.27 -27.12,-46.87 -2.65,-21.23 2.51,-38.84 15.41,-52.78 12.92,-13.97 31.76,-22.48 56.55,-25.57 25.48,-3.17 46.05,0.62 61.71,11.42 15.7,10.74 24.8,26.39 27.36,46.88 2.56,20.59 -2.43,37.94 -14.94,52.1 -12.55,14.13 -31.57,22.8 -57.15,25.99zm-3.31 -26.61c19.65,-2.45 33.81,-7.86 42.49,-16.23 8.67,-8.39 12.16,-19.2 10.51,-32.46 -1.66,-13.35 -7.71,-23.07 -18.18,-29.11 -10.48,-6.05 -25.53,-7.82 -45.18,-5.38 -19.04,2.38 -33.02,7.77 -41.96,16.24 -8.96,8.46 -12.58,19.38 -10.91,32.72 1.64,13.17 7.72,22.79 18.29,28.82 10.56,6.04 25.52,7.82 44.94,5.4zm-30.48 199.92c-7.43,-0.21 -14.01,-1.8 -19.67,-4.83 -5.66,-2.99 -10.4,-7.07 -14.11,-12.11 -4.68,-6.39 -7.79,-13.01 -9.34,-19.93 -1.5,-6.86 -2.12,-15.11 -1.86,-24.66l1.68 -60.51 153.75 4.25 -1.57 56.56c-0.31,11.33 -0.87,19.6 -1.71,24.8 -0.81,5.25 -2.74,10.37 -5.7,15.46 -3.12,5.33 -7.08,9.22 -12.05,11.67 -4.91,2.45 -10.68,3.56 -17.36,3.37 -7.33,-0.2 -13.86,-2.4 -19.57,-6.6 -5.68,-4.16 -10.04,-9.64 -13.01,-16.46l-0.96 0.69c-2.34,8.26 -6.81,15.1 -13.41,20.57 -6.6,5.41 -14.95,8.01 -25.11,7.73zm68.63 -32.84c3.47,0.09 6.5,-0.38 9.07,-1.44 2.57,-1.11 4.64,-3.03 6.18,-5.8 1.78,-3.26 2.92,-6.89 3.36,-10.92 0.44,-4.08 0.74,-9.73 0.94,-16.92l0.68 -24.5 -41.76 -1.15 -0.81 29.58c-0.18,6.3 -0.02,10.77 0.52,13.42 0.49,2.65 1.68,5.65 3.51,8.85 1.71,3.11 4.14,5.3 7.16,6.65 3.08,1.35 6.77,2.11 11.15,2.23zm-67.8 6.04c5.27,0.14 9.53,-0.5 12.72,-1.91 3.24,-1.42 6.15,-4.68 8.78,-9.69 1.69,-3.16 2.72,-6.56 3.2,-10.22 0.48,-3.66 0.81,-8.73 0.98,-15.22l0.84 -30.28 -50.5 -1.39 -0.62 22.33c-0.25,9.27 -0.07,16.43 0.54,21.57 0.57,5.14 1.95,9.56 4.05,13.29 2.3,3.88 5,6.77 8.05,8.6 3.1,1.82 7.07,2.78 11.96,2.92zm-59.38 93.71l4.64 -25.55 151.34 27.43 -4.63 25.56 -151.35 -27.44zm176.54 34.01l5.29 -29.16 26.39 4.78 -5.29 29.16 -26.39 -4.78z"/>
  <path class="fil2 str6" d="M2050.01 687.77c752.33,0 1362.23,609.9 1362.23,1362.23 0,752.33 -609.9,1362.23 -1362.23,1362.23 -752.33,0 -1362.23,-609.9 -1362.23,-1362.23 0,-752.33 609.9,-1362.23 1362.23,-1362.23z"/>
  <path class="fil1 str7" d="M1469.21 3013.88l-99.51 0 -11.75 30.49c-7.69,20.03 -11.57,32.29 -11.57,36.79 0,2.89 0.71,4.94 2.17,6.22 1.41,1.22 5.05,2.25 10.93,3.02l16.51 2.06 0 11.94c-10.99,-0.77 -23.38,-1.16 -37.19,-1.16 -16.5,0 -31.07,0.39 -43.59,1.16l0 -11.94 5.17 -0.2c8.06,-0.25 13.23,-1.15 15.63,-2.69 2.35,-1.61 4.82,-5.46 7.46,-11.56 8.16,-18.1 16.51,-37.55 25.03,-58.48l47.4 -117.09c12.63,-31.07 21.27,-53.6 25.85,-67.66l11.63 0 87.18 221.21c5.87,15.02 9.74,24.08 11.68,27.16 2.01,3.08 4.23,5.26 6.77,6.61 2.52,1.28 8.16,2.18 17.03,2.7l0 11.94c-14.92,-0.77 -29.14,-1.16 -42.71,-1.16 -12.63,0 -29.43,0.39 -50.46,1.16l0 -11.94 17.04 -1.16c6.1,-0.45 9.74,-1.16 10.86,-2.05 1.7,-1.35 2.59,-3.15 2.59,-5.27 0,-2.24 -1.7,-8.15 -5.17,-17.65l-18.98 -52.45zm-93.05 -15.4l86.59 0 -43.23 -112.66 -43.36 112.66zm402.93 159.84l-12.69 0 0 -8.67c0,-9.76 -0.59,-22.47 -1.7,-38.13 -11.46,-5.52 -29.72,-8.28 -54.7,-8.28l-38.71 0c-30.72,0 -51.98,1.99 -63.73,6.03l-10.69 49.05 -10.93 0c2.06,-17.08 3.94,-38.65 5.64,-64.71 16.33,-5.52 27.61,-16.82 33.77,-33.89 6.17,-17.08 9.23,-47.19 9.23,-90.39 0,-12.64 -0.65,-21.12 -1.88,-25.55 -1.3,-4.36 -6.23,-6.54 -14.8,-6.54l-12.58 0 0 -10.79c17.22,0.77 31.78,1.16 43.71,1.16l78.78 0c9.4,0 26.49,-0.39 51.28,-1.16l0 10.79 -12.57 0c-10.34,0 -15.75,3.33 -16.27,9.95 -0.53,6.61 -0.77,29.27 -0.77,67.98 0,41.53 0.24,64.13 0.77,67.72 0.52,3.66 2.17,6.36 4.93,8.09 2.76,1.73 13.51,2.63 32.37,2.63 -4.71,10.79 -7.52,32.35 -8.46,64.71zm-59.51 -218.58c-5.99,-0.9 -21.38,-1.35 -46.11,-1.35l-24.44 1.35 0 14.7c0,32.8 -0.82,57.2 -2.41,73.12 -1.58,15.98 -5.1,29.4 -10.51,40.31 -5.35,10.85 -11.81,18.87 -19.27,24.01l57.34 0.58c17.73,0 32.66,-0.2 44.7,-0.58 1.34,-18.75 2.05,-46.29 2.05,-82.55 0,-1.67 -0.29,-12.46 -0.88,-32.49 -0.41,-18.48 -0.64,-27.79 -0.64,-27.86l0.17 -9.24zm102.1 -2.5l0 -10.79c7.35,0.77 13.64,1.16 18.8,1.16l66.15 -1.16c19.62,0 34.83,2.95 45.58,8.8 10.76,5.9 16.1,14.76 16.1,26.64 0,20.67 -16.86,34.79 -50.64,42.3 40.83,2.5 61.21,16.88 61.21,43.14 0,17.71 -8.04,31.58 -24.2,41.59 -16.16,10.08 -35.42,15.09 -57.86,15.09 -3.94,0 -10.34,-0.13 -19.33,-0.38 -8.29,-0.26 -16.8,-0.39 -25.67,-0.39 -8.17,0 -16.1,0.39 -23.79,1.16l0 -8.48 7.1 -2.63c4.95,-1.99 7.94,-5.07 8.99,-9.31 1.01,-4.17 1.53,-25.61 1.53,-64.32 0,-45.06 -0.59,-70.03 -1.7,-74.98 -1.17,-4.94 -6.29,-7.44 -15.4,-7.44l-6.87 0zm54.93 1.86c-1.12,9.31 -1.71,22.85 -1.71,40.57l0 20.73c5.76,0.26 9.93,0.39 12.46,0.39 14.92,0 26.61,-2.89 35.07,-8.6 8.52,-5.72 12.74,-14 12.74,-24.78 0,-20.1 -12.97,-30.17 -38.94,-30.17 -3.35,0 -9.87,0.64 -19.62,1.86zm-1 152.97c4.58,0.77 8.81,1.16 12.57,1.16 16.27,0 29.61,-3.53 40.07,-10.66 10.51,-7.13 15.74,-17.4 15.74,-30.81 0,-9.44 -1.83,-16.89 -5.52,-22.34 -3.71,-5.52 -10.46,-9.82 -20.33,-13.03 -9.81,-3.21 -19.68,-4.82 -29.61,-4.82 -0.88,0 -5.46,0.19 -13.63,0.58l0 45.64c0,20.61 0.24,32.03 0.71,34.28zm151.8 -77.87c0,-17.33 3.64,-32.93 10.98,-46.92 7.35,-14 17.69,-24.91 30.9,-32.8 13.28,-7.9 28.31,-11.88 45.18,-11.88 24.43,0 44,7.9 58.68,23.69 14.68,15.79 22.03,36.84 22.03,63.23 0,31.07 -9.58,55.78 -28.72,74.08 -17.1,16.43 -37.6,24.65 -61.45,24.65 -22.92,0 -41.59,-8.41 -55.99,-25.3 -14.38,-16.88 -21.61,-39.79 -21.61,-68.75zm32.43 -13.28c0,25.87 4.87,47.95 14.57,66.31 9.69,18.36 23.61,27.54 41.88,27.54 13.86,0 25.08,-5.78 33.66,-17.27 8.52,-11.56 12.8,-29.02 12.8,-52.51 0,-18.87 -2.52,-35.31 -7.58,-49.17 -5.05,-13.81 -11.68,-23.95 -19.96,-30.24 -8.23,-6.35 -17.51,-9.5 -27.68,-9.5 -9.1,0 -17.26,2.5 -24.55,7.51 -7.28,5.01 -12.63,11.75 -16.1,20.16 -4.7,11.36 -7.04,23.81 -7.04,37.17zm238.91 9.3l0 24.14c0,31.46 0.94,49.24 2.76,53.22 1.82,4.04 7.58,6.03 17.27,6.03l10.27 0 0 10.79c-0.22,0 -3.35,-0.13 -9.33,-0.33 -16.28,-0.57 -27.14,-0.83 -32.55,-0.83 -1.17,0 -16.45,0.39 -45.87,1.16l0 -10.79 9.98 0c9.98,0 15.51,-2.57 16.56,-7.7 1.12,-5.14 1.65,-22.34 1.65,-51.55l0 -55.91c0,-19.84 -0.76,-31.65 -2.35,-35.5 -1.53,-3.79 -6.46,-5.71 -14.8,-5.71l-12.45 0 0 -10.79c14.86,0.77 28.25,1.16 40.23,1.16 17.98,0 34.07,-0.39 48.23,-1.16l0 10.79 -12.98 0c-3.76,0 -7.28,0.64 -10.46,1.99 -3.17,1.28 -5.05,3.33 -5.46,6.09 -0.47,2.76 -0.7,14.32 -0.7,34.67l0 19.71 2.05 1.34c15.04,-12 32.49,-28.43 52.22,-49.23l24.79 -25.36 34.43 0 0 10.79 -6.17 0.12c-4.59,0 -11.92,3.6 -22.15,10.85 -10.16,7.32 -28.43,22.79 -54.75,46.61 17.92,18.04 40.83,44.8 68.74,80.37 9.22,12.13 17.62,18.29 25.25,18.42l0 10.79c-0.7,0 -2.99,-0.13 -6.87,-0.33 -8.23,-0.57 -13.09,-0.83 -14.74,-0.83 -2.71,0 -9.58,0.39 -20.56,1.16 -30.96,-42.69 -57.69,-74.08 -80.19,-94.18l-2.05 0zm177.29 -36.52l0.17 -12.65 -0.17 -13.03 18.79 -11.62c8.47,-5.2 15.93,-8.79 22.27,-10.78 6.4,-1.99 13.16,-3.02 20.39,-3.02 15.86,0 28.6,3.85 38.36,11.62 9.69,7.77 15.5,17.72 17.44,29.72 1.36,8.99 2.23,31.39 2.59,67.08 0.23,33.7 0.93,52.26 2.05,55.79 1.12,3.53 4,5.26 8.58,5.26l13.34 0 0 12.33c-13.11,-0.77 -22.21,-1.16 -27.38,-1.16 -6.46,0 -15.04,0.39 -25.85,1.16l0.18 -16.69c0,-5.33 -0.06,-10.79 -0.18,-16.31l-35.66 29.72c-3.16,2.63 -6.34,4.5 -9.45,5.52 -3.06,1.09 -7.4,1.61 -12.87,1.61 -14.8,0 -26.14,-3.98 -33.96,-11.94 -7.8,-7.96 -11.68,-18.68 -11.68,-32.1 0,-12.65 2.76,-23.75 8.34,-33.25 5.58,-9.44 13.51,-16.44 23.79,-20.93 10.22,-4.56 34.08,-10.46 71.49,-17.72 -0.23,-15.85 -3.46,-27.73 -9.63,-35.62 -7.82,-9.89 -18.92,-14.83 -33.37,-14.83 -5.52,0 -10.69,0.7 -15.51,2.18 -4.81,1.48 -9.28,3.72 -13.45,6.68 -3.28,8.98 -6.34,17.59 -9.1,25.8l-9.52 -2.82zm90.58 29.78c-31.9,7.51 -52.17,14.58 -60.74,21.19 -8.64,6.55 -12.92,16.75 -12.92,30.55 0,9.31 2.46,16.76 7.4,22.34 4.93,5.59 11.28,8.35 19.09,8.35 8.64,0 16.86,-2.63 24.74,-7.9 7.8,-5.26 15.32,-13.09 22.43,-23.56l-0.35 -41.72 0.35 -9.25zm104.34 -24.26l-11.99 0c0.24,-6.42 0.36,-11.68 0.36,-15.86 0,-4.88 -0.59,-17.33 -1.77,-37.29 23.26,0.77 37.95,1.15 44,1.15l74.13 0c8.46,0 23.15,-0.38 44.01,-1.15 -1.18,19.96 -1.77,32.41 -1.77,37.29 0,4.18 0.12,9.44 0.35,15.86l-11.98 0c-1.23,-21.83 -3.35,-33.7 -6.29,-35.63 -2.88,-1.92 -17.91,-2.89 -45.06,-2.89 -0.64,7.77 -0.99,15.22 -0.99,22.28l0 16.56 -0.53 32.42 0 43.97c0,16.43 0.23,26 0.71,28.63 0.47,2.63 1.88,4.81 4.28,6.48 2.47,1.74 6.46,2.57 11.99,2.57l12.27 0 0 10.79c-18.44,-0.77 -34.36,-1.16 -47.87,-1.16 -11.75,0 -25.14,0.39 -40.24,1.16l0 -10.79 12.45 0c7.64,0 12.4,-1.6 14.28,-4.81 1.94,-3.21 2.88,-13.1 2.88,-29.66l0 -47.18c0,-33.06 -0.6,-56.81 -1.7,-71.26l-8.82 0c-21.44,0 -33.66,0.97 -36.48,2.96 -2.87,1.99 -4.93,13.86 -6.22,35.56z"/>
  <path class="fil1 str2" d="M3002.71 2703.38c-0.47,-7.88 -2.06,-15.76 -4.82,-23.58 -3.89,-11.23 -5.83,-18.99 -5.83,-23.22 0,-6 1.42,-10.53 4.18,-13.65 2.82,-3.11 6.29,-4.64 10.46,-4.64 3.53,0 6.65,1.53 9.29,4.64 2.65,3.12 3.94,7.53 3.94,13.29 0,5.18 -1.53,12.35 -4.52,21.58 -3.06,9.29 -4.94,17.82 -5.65,25.58 6.35,-4 12,-8.88 17.05,-14.64 7.82,-9.06 13.64,-14.7 17.41,-16.88 3.82,-2.17 7.64,-3.23 11.58,-3.23 3.76,0 6.94,1.29 9.52,3.88 2.59,2.53 3.88,5.64 3.88,9.17 0,4.29 -1.88,8.06 -5.7,11.41 -3.76,3.29 -13.23,6.64 -28.4,9.99 -8.82,1.94 -16.17,4.18 -22.05,6.7 6,3.12 13.29,5.47 21.88,7.06 13.87,2.53 22.98,5.7 27.28,9.47 4.35,3.82 6.46,7.93 6.46,12.4 0,3.47 -1.29,6.41 -3.88,8.94 -2.58,2.53 -5.58,3.82 -8.99,3.82 -3.47,0 -7.29,-1.23 -11.47,-3.64 -4.17,-2.42 -9.87,-7.82 -16.99,-16.17 -4.7,-5.65 -10.52,-10.94 -17.58,-15.88 0.24,6.59 1.59,13.7 4,21.4 4.12,13.53 6.17,22.76 6.17,27.7 0,4.58 -1.35,8.46 -4.11,11.64 -2.77,3.17 -5.71,4.76 -8.76,4.76 -4.29,0 -8.12,-1.71 -11.59,-5 -2.41,-2.41 -3.58,-6.29 -3.58,-11.58 0,-5.47 1.29,-12.11 3.94,-19.87 2.64,-7.76 4.29,-13.11 4.99,-16 0.71,-2.94 1.36,-7.29 1.89,-13.05 -6.77,4.53 -12.7,9.47 -17.7,14.99 -8.41,9.41 -14.7,15.41 -18.99,17.94 -3,1.82 -6.06,2.76 -9.29,2.76 -3.88,0 -7.23,-1.35 -10,-4 -2.76,-2.64 -4.11,-5.52 -4.11,-8.76 0,-2.88 1.17,-5.88 3.53,-9.05 2.35,-3.18 5.88,-5.76 10.58,-7.82 3.11,-1.41 10.17,-3.24 21.16,-5.53 7.12,-1.47 14.12,-3.64 20.88,-6.53 -6.24,-3.11 -13.64,-5.52 -22.23,-7.23 -14.11,-3 -22.87,-5.7 -26.16,-8.11 -5.18,-3.76 -7.76,-8.41 -7.76,-13.76 0,-3.11 1.29,-5.94 3.88,-8.52 2.59,-2.59 5.58,-3.88 9.05,-3.88 3.77,0 7.76,1.17 12.06,3.58 4.23,2.41 9.52,7.29 15.81,14.58 6.35,7.29 12.76,12.94 19.29,16.94z"/>
  <path class="fil3 str8" d="M2589.84 1507.48l249.22 678.49 -500.1 0.69c4.96,-34.17 46.51,-130.91 60.49,-169.42 21.1,-58.15 41.49,-112.85 62.39,-169.47 17.24,-46.71 113.9,-321.69 128,-340.29zm-1079.36 0.06c12.65,16.75 109.99,292.39 126.8,337.55 21.23,57.04 40.99,112.83 62.53,169.54 11.68,30.73 58.57,147.58 61.37,171.68l-498.19 0.36c1.11,-17.9 164.45,-453.85 185.14,-508.99 20.85,-55.54 45.5,-116.26 62.35,-170.14zm-307.88 679.47l0 5.93c34.19,30.03 20.76,44.52 126.39,104.35 109.61,62.08 261.74,61.74 368.83,-2.07 44.01,-26.23 63.1,-46.14 96.16,-75.79 5.79,-5.2 8.86,-7.84 14.52,-13.22 9.9,-9.4 9.51,-7.84 15.37,-19.46l-28.1 -0.35 -264 -715.11 495.74 -0.39c-5.65,271.8 -18.34,545.95 -27.81,817.83 -2.66,76.5 -6.24,117.95 5.51,192.02 10.04,63.3 -24.6,92.51 -83.62,126.28 -45.37,25.95 -95.26,45.42 -149.04,62.81 -23.98,7.75 -157.01,39.63 -164.91,45.84l887.05 0c-3.62,-2.82 -1.85,-2.12 -8.11,-4.6l-74.31 -17.7c-90.16,-23.76 -225.79,-65.73 -289.81,-129.88 -49.81,-49.91 -9.66,-88.41 -12.62,-171.69 -1.24,-34.89 -2.44,-69.06 -3.62,-103.96 -9.19,-270.7 -23.69,-546 -27.72,-816.36l488.66 -0.61 -262.11 715.45 -26.27 1.04c16.01,38.66 80.98,85.02 123.57,108.21 142.49,77.58 317.8,61.68 435.45,-47.83l59.62 -54.34c-0.74,-0.63 -1.84,-2.58 -2.29,-1.77 -0.47,0.83 -1.91,-1.28 -2.59,-1.47 -0.73,-0.22 -2.16,-0.73 -3.1,-0.97 -7.59,-1.96 -10.69,0.98 -19.39,-6.44l-261.98 -711.36 48.36 -0.68c4.69,-22.72 11.2,-64.28 4.59,-85.52 -99.64,-6.89 -192.46,-46.05 -288.52,-67.35 -51.35,-11.38 -106.61,-18.5 -161.19,-12.59 -82.33,8.93 -94.44,44.8 -121.07,59.65 -7.7,-7.29 -8.04,-7.61 -12.17,-20.52 -7.53,-23.5 -10.88,-65.44 -13.27,-90.62 -4.1,-43.26 -5.83,-87.03 -11.34,-129.45l-3.69 0c-14.63,59.59 -3.9,194 -35.5,239.53 -15.96,-2.21 -16.51,-8.9 -27.95,-19.6 -96.21,-90.04 -299.55,-11.62 -395.2,16.77 -166.74,49.49 -160.79,-14.43 -148.5,91.53 3.27,28.2 16.82,17.75 49.21,19l-263.49 714.56 -25.74 0.9z"/>
 </g>
</svg>
