<?xml version="1.0" encoding="UTF-8"?>
<!DOCTYPE svg PUBLIC "-//W3C//DTD SVG 1.1//EN" "http://www.w3.org/Graphics/SVG/1.1/DTD/svg11.dtd">
<!-- Creator: CorelDRAW 2019 (64-Bit) -->
<svg xmlns="http://www.w3.org/2000/svg" xml:space="preserve" width="41mm" height="41mm" version="1.1" style="shape-rendering:geometricPrecision; text-rendering:geometricPrecision; image-rendering:optimizeQuality; fill-rule:evenodd; clip-rule:evenodd"
viewBox="0 0 4100 4100"
 xmlns:xlink="http://www.w3.org/1999/xlink">
 <defs>
  <style type="text/css">
   <![CDATA[
    .str0 {stroke:#393185;stroke-width:40;stroke-miterlimit:22.9256}
    .str3 {stroke:#393185;stroke-width:30;stroke-miterlimit:22.9256}
    .str2 {stroke:#393185;stroke-width:25;stroke-miterlimit:22.9256}
    .str4 {stroke:#393185;stroke-width:20;stroke-miterlimit:22.9256}
    .str1 {stroke:#393185;stroke-width:15;stroke-miterlimit:22.9256}
    .fil0 {fill:none}
    .fil2 {fill:none;fill-rule:nonzero}
    .fil4 {fill:#393185}
    .fil3 {fill:#2B2A29;fill-rule:nonzero}
    .fil1 {fill:#393185;fill-rule:nonzero}
   ]]>
  </style>
 </defs>
 <g id="Слой_x0020_1">
  <metadata id="CorelCorpID_0Corel-Layer"/>
  <path class="fil0 str0" d="M2646.9 247.14c-2.91,-25.34 5.48,-45.02 16.57,-55.93 11.08,-10.93 24.82,-13.09 41.91,-10.45 17.14,2.62 37.6,10.06 52.2,20.71 14.58,10.65 23.27,24.55 20.87,43.62 -2.41,19.09 -15.98,43.38 -34.48,59.18 -18.55,15.78 -42.06,23.01 -60.98,11.16 -18.91,-11.9 -33.16,-42.94 -36.09,-68.29zm582.36 312.3c5.97,-24.81 20.6,-40.44 34.76,-46.91 14.16,-6.49 27.81,-3.83 42.97,4.47 15.2,8.32 31.88,22.28 41.94,37.28 10.05,14.97 13.45,30.99 4.65,48.1 -8.81,17.12 -29.89,35.32 -52.7,43.86 -22.84,8.49 -47.41,7.27 -61.12,-10.32 -13.69,-17.63 -16.44,-51.66 -10.5,-76.48zm440.12 492.08c14.12,-21.28 33.23,-30.97 48.76,-32.23 15.54,-1.27 27.45,5.9 38.84,18.87 11.43,12.99 22.31,31.8 26.63,49.32 4.3,17.5 2.01,33.72 -12.12,46.79 -14.16,13.08 -40.22,23 -64.58,23.24 -24.37,0.19 -47.04,-9.33 -53.89,-30.54 -6.81,-21.24 2.27,-54.15 16.36,-75.45zm244.81 612.51c20.56,-15.18 41.85,-17.77 56.86,-13.65 15.04,4.1 23.78,14.89 30.04,30.97 6.29,16.11 10.05,37.49 8.11,55.43 -1.97,17.91 -9.68,32.37 -27.45,39.83 -17.79,7.47 -45.68,7.91 -68.65,-0.18 -22.96,-8.13 -41.01,-24.82 -40.16,-47.08 0.87,-22.28 20.7,-50.11 41.25,-65.32zm19.95 659.07c24.53,-7.25 45.43,-2.44 58.12,6.56 12.73,8.98 17.24,22.11 17.6,39.35 0.39,17.28 -3.41,38.66 -11.39,54.85 -8,16.16 -20.2,27.12 -39.45,28.07 -19.28,0.95 -45.64,-8.16 -64.45,-23.58 -18.79,-15.48 -30.02,-37.32 -21.59,-57.94 8.46,-20.64 36.64,-40.04 61.16,-47.31zm-207.3 626.12c25.53,1.55 43.52,13.2 52.36,25.98 8.88,12.79 8.62,26.66 3.05,42.99 -5.56,16.37 -16.47,35.17 -29.53,47.65 -13.05,12.46 -28.27,18.6 -46.69,12.92 -18.44,-5.68 -40.09,-23.22 -52.48,-44.13 -12.34,-20.96 -15.41,-45.3 -0.41,-61.81 15.03,-16.51 48.17,-25.12 73.7,-23.6zm-409.55 517.67c23.45,10.15 36.36,27.24 40.29,42.27 3.96,15.03 -1.04,27.99 -11.88,41.43 -10.84,13.48 -27.54,27.43 -44.09,34.7 -16.54,7.26 -32.94,7.84 -48.31,-3.78 -15.38,-11.63 -29.71,-35.49 -34.18,-59.37 -4.41,-23.9 1.07,-47.82 20.82,-58.22 19.79,-10.39 53.88,-7.17 77.35,2.97zm-562.41 346.76c18.56,17.54 24.83,38.01 23.36,53.46 -1.43,15.49 -10.58,25.95 -25.37,34.88 -14.82,8.98 -35.28,16.39 -53.33,17.57 -18.04,1.19 -33.65,-3.86 -44.1,-20.02 -10.47,-16.18 -15.75,-43.48 -11.76,-67.45 4.05,-23.96 17.41,-44.57 39.53,-47.61 22.16,-3 53.09,11.64 71.67,29.17zm-647.43 134.04c11.43,22.81 10.3,44.18 3.62,58.2 -6.66,14.06 -18.84,20.78 -35.81,24.13 -17,3.38 -38.77,3.37 -56.14,-1.68 -17.36,-5.03 -30.29,-15.1 -34.58,-33.86 -4.28,-18.77 0.12,-46.22 12.1,-67.39 12.02,-21.13 31.64,-35.95 53.47,-31.25 21.86,4.73 45.9,29.04 57.34,51.85zm-654.36 -94.85c2.93,25.33 -5.47,45.02 -16.56,55.92 -11.08,10.94 -24.82,13.1 -41.92,10.47 -17.14,-2.63 -37.59,-10.07 -52.18,-20.73 -14.59,-10.64 -23.28,-24.52 -20.88,-43.61 2.42,-19.1 15.97,-43.39 34.48,-59.2 18.55,-15.76 42.06,-22.99 60.97,-11.13 18.92,11.9 33.16,42.94 36.09,68.28zm-582.36 -312.31c-5.93,24.8 -20.59,40.45 -34.75,46.91 -14.16,6.5 -27.81,3.84 -42.98,-4.46 -15.2,-8.32 -31.87,-22.28 -41.92,-37.28 -10.06,-14.97 -13.47,-30.98 -4.66,-48.1 8.82,-17.12 29.88,-35.33 52.71,-43.87 22.83,-8.48 47.4,-7.26 61.1,10.33 13.7,17.64 16.44,51.67 10.5,76.47zm-440.12 -492.08c-14.09,21.28 -33.22,30.98 -48.75,32.23 -15.54,1.28 -27.45,-5.89 -38.85,-18.86 -11.43,-13 -22.3,-31.8 -26.61,-49.32 -4.31,-17.5 -2.03,-33.71 12.11,-46.79 14.17,-13.08 40.21,-23.01 64.59,-23.24 24.36,-0.19 47.03,9.33 53.87,30.54 6.82,21.25 -2.27,54.15 -16.36,75.44zm-244.8 -612.52c-20.54,15.2 -41.85,17.79 -56.86,13.66 -15.04,-4.09 -23.78,-14.88 -30.05,-30.97 -6.28,-16.11 -10.04,-37.48 -8.08,-55.41 1.95,-17.92 9.65,-32.38 27.43,-39.84 17.79,-7.46 45.67,-7.92 68.66,0.19 22.95,8.12 41,24.81 40.14,47.07 -0.87,22.29 -20.7,50.1 -41.24,65.3zm-19.95 -659.07c-24.52,7.28 -45.43,2.45 -58.12,-6.55 -12.73,-8.97 -17.24,-22.1 -17.61,-39.35 -0.37,-17.28 3.42,-38.65 11.41,-54.83 7.98,-16.17 20.18,-27.13 39.44,-28.08 19.28,-0.94 45.63,8.14 64.45,23.6 18.79,15.46 30.02,37.3 21.58,57.92 -8.47,20.65 -36.63,40.02 -61.15,47.29zm207.31 -626.12c-25.54,-1.51 -43.53,-13.19 -52.37,-25.97 -8.88,-12.78 -8.62,-26.65 -3.05,-42.99 5.58,-16.36 16.47,-35.16 29.53,-47.63 13.04,-12.47 28.26,-18.61 46.69,-12.93 18.43,5.69 40.09,23.2 52.47,44.15 12.35,20.94 15.42,45.29 0.41,61.79 -15.04,16.51 -48.15,25.11 -73.68,23.58zm409.55 -517.66c-23.47,-10.13 -36.37,-27.24 -40.3,-42.27 -3.96,-15.02 1.04,-27.98 11.88,-41.43 10.85,-13.46 27.54,-27.42 44.08,-34.69 16.54,-7.27 32.94,-7.85 48.32,3.78 15.37,11.63 29.72,35.47 34.16,59.38 4.43,23.89 -1.05,47.82 -20.81,58.21 -19.79,10.38 -53.85,7.17 -77.33,-2.98zm562.41 -346.75c-18.58,-17.54 -24.83,-38.02 -23.37,-53.47 1.43,-15.48 10.58,-25.94 25.38,-34.88 14.81,-8.96 35.27,-16.38 53.31,-17.57 18.04,-1.19 33.66,3.85 44.11,20.03 10.46,16.17 15.77,43.47 11.74,67.45 -4.03,23.96 -17.39,44.58 -39.52,47.6 -22.15,3 -53.07,-11.62 -71.65,-29.16zm647.43 -134.04c-11.44,-22.82 -10.3,-44.19 -3.63,-58.22 6.66,-14.04 18.84,-20.76 35.83,-24.11 16.97,-3.37 38.75,-3.37 56.11,1.67 17.36,5.03 30.31,15.1 34.59,33.87 4.28,18.76 -0.1,46.22 -12.12,67.38 -12,21.14 -31.63,35.97 -53.46,31.25 -21.84,-4.73 -45.88,-29.02 -57.32,-51.84zm231.09 7.67c102.27,19.06 204.56,38.1 306.83,57.13m-139.37 -89.36c84.56,18.34 146.76,62.57 138.85,98.79 -7.91,36.19 -82.9,50.61 -167.46,32.26 -84.62,-18.36 -146.76,-62.6 -138.85,-98.82 7.88,-36.14 82.9,-50.59 167.46,-32.23zm248.57 117.42l0.42 0.09c2.53,-24.16 5.06,-48.31 7.57,-72.48 -21.49,0.83 -43,1.64 -64.54,2.47 8.17,-15.87 16.3,-31.71 24.44,-47.59 -70.07,4.77 -140.16,9.47 -209.28,-3.45 -69.13,-12.93 -137.31,-43.58 -205.47,-74.19 -0.02,17.22 0,34.43 -0.03,51.69 -22.9,-8.29 -45.81,-16.64 -68.67,-24.93l-10.24 58.45 -0.38 -0.1c-2.53,24.16 -5.06,48.31 -7.61,72.47 21.53,-0.82 43.02,-1.63 64.55,-2.45 -8.13,15.86 -16.29,31.7 -24.42,47.55 70.08,-4.73 140.17,-9.44 209.28,3.49 69.14,12.95 137.32,43.58 205.5,74.19 0,-17.23 0,-34.46 0.01,-51.7 22.89,8.31 45.78,16.61 68.67,24.92l10.2 -58.43zm221.75 88.02c89.58,52.78 179.16,105.56 268.74,158.33m-100.32 -131.5c73.18,46.06 116.45,108.84 96.59,140.18 -19.84,31.31 -95.25,19.29 -168.42,-26.8 -73.21,-46.11 -116.44,-108.88 -96.59,-140.21 19.81,-31.27 95.26,-19.27 168.42,26.83zm193.31 195.11l0.36 0.22c10.67,-21.84 21.33,-43.66 31.98,-65.52 -20.48,-6.55 -40.98,-13.13 -61.5,-19.7 13.13,-12.12 26.2,-24.24 39.29,-36.38 -67.48,-19.42 -134.96,-38.89 -195.47,-74.62 -60.53,-35.73 -114.09,-87.78 -167.64,-139.8 -5.93,16.19 -11.81,32.37 -17.76,48.58 -18.67,-15.61 -37.33,-31.27 -55.97,-46.85l-29.67 51.44 -0.33 -0.23c-10.66,21.84 -21.33,43.67 -32,65.51 20.51,6.57 40.98,13.13 61.49,19.7 -13.08,12.13 -26.18,24.24 -39.26,36.36 67.49,19.46 134.97,38.93 195.48,74.65 60.52,35.75 114.08,87.79 167.65,139.8 5.91,-16.19 11.82,-32.38 17.74,-48.57 18.66,15.61 37.33,31.22 55.99,46.84l29.62 -51.43zm178.19 158.34c66.07,80.15 132.15,160.3 198.23,240.43m-49.17 -157.79c52.96,68.25 72.09,142.01 42.69,164.67 -29.39,22.66 -96.13,-14.35 -149.08,-82.62 -52.98,-68.29 -72.07,-142.02 -42.67,-164.69 29.34,-22.64 96.12,14.38 149.06,82.64zm114.73 249.28l0.27 0.33c17.51,-16.88 35.01,-33.76 52.51,-50.67 -16.99,-13.13 -34,-26.31 -51.03,-39.47 16.5,-6.92 32.93,-13.85 49.4,-20.79 -56.75,-41.27 -113.48,-82.58 -158.09,-136.78 -44.62,-54.23 -77.1,-121.4 -109.58,-188.55 -11.13,13.2 -22.21,26.39 -33.35,39.59 -12.18,-21.04 -24.36,-42.11 -36.52,-63.12l-45.53 38.22 -0.23 -0.32c-17.51,16.89 -35.02,33.77 -52.54,50.64 17.02,13.17 34,26.32 51.02,39.49 -16.44,6.93 -32.91,13.85 -49.35,20.78 56.74,41.3 113.46,82.61 158.07,136.81 44.62,54.23 77.09,121.41 109.6,188.55 11.1,-13.2 22.2,-26.4 33.33,-39.59 12.18,21.03 24.36,42.07 36.54,63.11l45.48 -38.23zm113.13 209.57c34.59,97.85 69.2,195.69 103.81,293.53m7.92 -165.03c26.36,82.19 19.04,158.02 -16.37,169.29 -35.38,11.28 -85.41,-46.27 -111.75,-128.48 -26.36,-82.24 -19.01,-158.04 16.39,-169.31 35.34,-11.27 85.4,46.29 111.73,128.5zm22.32 273.37l0.13 0.4c22.24,-9.9 44.48,-19.79 66.73,-29.7 -11.47,-18.14 -22.94,-36.33 -34.42,-54.51 17.87,-0.87 35.69,-1.77 53.55,-2.68 -39.17,-58.14 -78.31,-116.3 -101.65,-182.45 -23.32,-66.18 -30.81,-140.37 -38.29,-214.54 -14.99,8.59 -29.92,17.21 -44.92,25.82 -4.23,-23.93 -8.45,-47.88 -12.67,-71.77l-55.89 20.38 -0.11 -0.38c-22.24,9.9 -44.49,19.8 -66.74,29.68 11.48,18.17 22.93,36.33 34.4,54.51 -17.83,0.9 -35.67,1.78 -53.5,2.68 39.14,58.16 78.28,116.33 101.62,182.49 23.31,66.17 30.8,140.37 38.31,214.55 14.96,-8.62 29.92,-17.24 44.9,-25.84 4.23,23.92 8.46,47.84 12.69,71.76l55.86 -20.4zm34.41 235.51c-1.04,103.75 -2.09,207.5 -3.12,311.23m64.05 -152.38c-3.42,86.23 -36.31,154.99 -73.46,153.5 -37.1,-1.47 -64.38,-72.6 -60.93,-158.84 3.43,-86.27 36.33,-154.99 73.46,-153.51 37.08,1.46 64.37,72.61 60.93,158.85zm-72.79 264.49l-0.02 0.43c24.29,-1.72 48.58,-3.42 72.89,-5.15 -4.55,-20.96 -9.09,-41.95 -13.64,-62.96 17.08,5.28 34.14,10.51 51.23,15.74 -16.87,-67.99 -33.69,-135.99 -32.93,-206.11 0.77,-70.14 19.2,-142.41 37.6,-214.66 -17.03,2.96 -34.02,5.97 -51.07,8.94 4.23,-23.93 8.48,-47.87 12.71,-71.76l-59.51 0.09 0.03 -0.39c-24.3,1.71 -48.59,3.42 -72.89,5.12 4.55,20.98 9.08,41.96 13.63,62.95 -17.07,-5.23 -34.14,-10.48 -51.2,-15.72 16.83,68 33.66,136.01 32.89,206.14 -0.78,70.13 -19.19,142.4 -37.58,214.68 17.01,-3 34.03,-5.99 51.06,-8.97 -4.23,23.92 -8.46,47.84 -12.69,71.77l59.49 -0.14zm-48.44 233.05c-36.57,97.14 -73.14,194.28 -109.69,291.4m112.45 -121.34c-32.79,79.86 -87.27,133.25 -121.67,119.19 -34.37,-14.03 -35.6,-90.19 -2.78,-170.04 32.82,-79.91 87.3,-133.26 121.69,-119.21 34.33,14.03 35.58,90.2 2.76,170.06zm-159.12 223.71l-0.16 0.39c23.41,6.68 46.82,13.36 70.26,20.02 2.91,-21.24 5.84,-42.52 8.78,-63.81 14.24,10.78 28.48,21.52 42.74,32.26 7.46,-69.64 14.98,-139.27 39.75,-204.9 24.78,-65.65 66.88,-127.28 108.97,-188.91 -17.03,-3.01 -34.03,-5.99 -51.07,-9 12.18,-21.05 24.38,-42.1 36.56,-63.11l-55.95 -20.2 0.16 -0.36c-23.43,-6.69 -46.84,-13.36 -70.25,-20.05 -2.93,21.27 -5.87,42.52 -8.79,63.81 -14.25,-10.74 -28.48,-21.51 -42.72,-32.24 -7.5,69.65 -15.01,139.28 -39.79,204.93 -24.79,65.63 -66.88,127.26 -108.95,188.91 17.02,2.99 34.03,5.98 51.05,8.99 -12.17,21.03 -24.35,42.07 -36.53,63.1l55.94 20.17zm-125.45 202.48c-67.68,78.8 -135.36,157.6 -203.02,236.41m147.29 -75.68c-58.21,63.87 -127.72,95.46 -155.22,70.51 -27.47,-24.9 -2.52,-96.88 55.72,-160.73 58.24,-63.89 127.74,-95.45 155.23,-70.51 27.45,24.89 2.5,96.89 -55.73,160.73zm-226.26 155.96l-0.28 0.31c19.71,14.26 39.42,28.53 59.15,42.78 10.02,-18.97 20.08,-37.96 30.14,-56.97 9.69,14.99 19.38,29.93 29.1,44.89 30.9,-62.9 61.85,-125.76 107.64,-178.99 45.8,-53.24 106.5,-96.79 167.17,-140.35 -14.95,-8.63 -29.91,-17.23 -44.89,-25.87 18.66,-15.63 37.36,-31.25 56,-46.84l-45.65 -38.07 0.28 -0.28c-19.72,-14.27 -39.43,-28.53 -59.14,-42.8 -10.05,18.99 -20.1,37.97 -30.15,56.97 -9.7,-14.95 -19.38,-29.92 -29.08,-44.87 -30.94,62.89 -61.88,125.77 -107.68,179 -45.8,53.22 -106.49,96.78 -167.18,140.36 14.97,8.61 29.94,17.23 44.9,25.86 -18.66,15.61 -37.31,31.23 -55.98,46.84l45.65 38.03zm-187.33 147.48c-90.62,50.97 -181.25,101.93 -271.86,152.91m164.36 -20.87c-76.6,40.15 -152.76,46.14 -170.04,13.32 -17.28,-32.78 30.86,-91.91 107.49,-132.05 76.64,-40.17 152.76,-46.12 170.05,-13.31 17.26,32.76 -30.88,91.91 -107.5,132.04zm-266.1 69.37l-0.37 0.21c13.63,20.12 27.26,40.24 40.9,60.37 15.93,-14.41 31.9,-28.82 47.87,-43.26 3.97,17.39 7.94,34.74 11.94,52.11 50.61,-48.56 101.26,-97.08 162.54,-131.48 61.31,-34.41 133.28,-54.63 205.24,-74.87 -11.1,-13.21 -22.2,-26.39 -33.31,-39.63 22.89,-8.31 45.82,-16.63 68.69,-24.91l-29.85 -51.34 0.36 -0.17c-13.63,-20.13 -27.27,-40.26 -40.89,-60.39 -15.96,14.42 -31.91,28.82 -47.87,43.25 -3.99,-17.36 -7.95,-34.73 -11.94,-52.08 -50.64,48.55 -101.29,97.08 -162.58,131.48 -61.29,34.39 -133.26,54.63 -205.24,74.88 11.11,13.2 22.22,26.4 33.32,39.61 -22.88,8.31 -45.77,16.62 -68.67,24.93l29.86 51.29zm-226.62 74.7c-102.64,16.99 -205.28,33.98 -307.92,50.98m161.62 36.44c-85.76,11.61 -159.38,-8.74 -164.36,-45.48 -4.99,-36.69 60.53,-75.84 146.29,-87.42 85.8,-11.6 159.38,8.76 164.37,45.48 4.98,36.68 -60.54,75.84 -146.3,87.42zm-273.86 -25.56l-0.42 0.06c5.91,23.56 11.82,47.12 17.74,70.68 19.91,-8.1 39.85,-16.2 59.81,-24.32 -2.24,17.7 -4.45,35.36 -6.65,53.04 64.22,-28.37 128.46,-56.7 197.84,-68.12 69.41,-11.43 143.98,-5.88 218.54,-0.36 -5.89,-16.2 -11.81,-32.37 -17.71,-48.59 24.36,-0.01 48.75,0 73.09,0.01l-10.44 -58.42 0.4 -0.03c-5.91,-23.57 -11.82,-47.13 -17.71,-70.7 -19.95,8.11 -39.87,16.2 -59.81,24.32 2.2,-17.68 4.43,-35.35 6.63,-53.01 -64.23,28.34 -128.48,56.68 -197.86,68.09 -69.41,11.41 -143.97,5.9 -218.55,0.37 5.91,16.19 11.82,32.39 17.73,48.59 -24.36,0 -48.72,0.01 -73.08,0l10.45 58.39zm-238.57 -7.1c-102.27,-19.04 -204.56,-38.08 -306.83,-57.11m139.37 89.36c-84.57,-18.34 -146.76,-62.57 -138.85,-98.79 7.9,-36.18 82.89,-50.62 167.46,-32.25 84.61,18.35 146.76,62.58 138.85,98.79 -7.89,36.16 -82.9,50.62 -167.46,32.25zm-248.57 -117.42l-0.42 -0.09c-2.53,24.16 -5.06,48.31 -7.57,72.47 21.49,-0.83 43,-1.63 64.54,-2.45 -8.16,15.87 -16.3,31.7 -24.44,47.57 70.07,-4.76 140.16,-9.46 209.27,3.47 69.14,12.93 137.32,43.57 205.49,74.19 0.01,-17.23 0,-34.45 0.02,-51.7 22.9,8.29 45.81,16.62 68.68,24.94l10.22 -58.46 0.39 0.1c2.53,-24.16 5.06,-48.31 7.61,-72.47 -21.53,0.82 -43.02,1.62 -64.55,2.45 8.13,-15.86 16.29,-31.71 24.41,-47.55 -70.07,4.73 -140.16,9.44 -209.27,-3.49 -69.14,-12.95 -137.32,-43.57 -205.5,-74.2 0,17.24 0,34.47 -0.01,51.71 -22.89,-8.31 -45.78,-16.61 -68.67,-24.92l-10.2 58.43zm-221.75 -88.04c-89.58,-52.76 -179.16,-105.54 -268.74,-158.31m100.32 131.5c-73.19,-46.07 -116.45,-108.84 -96.59,-140.18 19.83,-31.3 95.25,-19.3 168.42,26.81 73.2,46.1 116.44,108.86 96.59,140.18 -19.82,31.29 -95.27,19.3 -168.42,-26.81zm-193.31 -195.11l-0.36 -0.22c-10.67,21.84 -21.33,43.66 -31.98,65.51 20.49,6.55 40.98,13.14 61.49,19.72 -13.11,12.12 -26.19,24.23 -39.28,36.36 67.48,19.43 134.96,38.9 195.46,74.63 60.54,35.74 114.1,87.78 167.65,139.81 5.93,-16.2 11.82,-32.39 17.76,-48.59 18.67,15.61 37.34,31.25 55.98,46.86l29.65 -51.45 0.34 0.23c10.66,-21.84 21.33,-43.67 32,-65.51 -20.51,-6.57 -40.98,-13.14 -61.49,-19.7 13.08,-12.13 26.18,-24.24 39.25,-36.36 -67.48,-19.46 -134.96,-38.93 -195.47,-74.65 -60.52,-35.75 -114.08,-87.78 -167.64,-139.81 -5.92,16.2 -11.83,32.39 -17.75,48.58 -18.66,-15.61 -37.33,-31.22 -55.99,-46.84l-29.62 51.43zm-178.18 -158.36c-66.08,-80.13 -132.16,-160.28 -198.24,-240.41m49.17 157.79c-52.96,-68.27 -72.09,-142.01 -42.69,-164.67 29.38,-22.65 96.14,14.34 149.08,82.63 52.97,68.28 72.07,142 42.68,164.66 -29.35,22.65 -96.14,-14.35 -149.07,-82.62zm-114.73 -249.28l-0.27 -0.33c-17.51,16.88 -35.01,33.76 -52.51,50.66 17,13.14 34,26.32 51.02,39.48 -16.48,6.93 -32.92,13.85 -49.38,20.78 56.74,41.28 113.47,82.59 158.07,136.79 44.63,54.24 77.11,121.4 109.59,188.56 11.13,-13.21 22.22,-26.4 33.35,-39.6 12.18,21.04 24.37,42.09 36.53,63.13l45.51 -38.24 0.24 0.33c17.51,-16.89 35.02,-33.77 52.54,-50.64 -17.02,-13.17 -34,-26.33 -51.02,-39.49 16.44,-6.93 32.91,-13.86 49.34,-20.79 -56.73,-41.29 -113.45,-82.6 -158.06,-136.8 -44.62,-54.23 -77.09,-121.4 -109.58,-188.55 -11.12,13.2 -22.22,26.4 -33.35,39.59 -12.18,-21.03 -24.37,-42.07 -36.54,-63.11l-45.48 38.23zm-113.12 -209.58c-34.6,-97.84 -69.21,-195.68 -103.82,-293.52m-7.92 165.03c-26.35,-82.21 -19.03,-158.02 16.37,-169.29 35.37,-11.27 85.42,46.27 111.75,128.49 26.35,82.23 19.01,158.02 -16.38,169.29 -35.35,11.27 -85.43,-46.27 -111.74,-128.49zm-22.32 -273.37l-0.13 -0.4c-22.24,9.9 -44.48,19.79 -66.72,29.69 11.47,18.15 22.93,36.34 34.4,54.51 -17.85,0.89 -35.68,1.78 -53.53,2.68 39.16,58.15 78.3,116.31 101.63,182.46 23.33,66.19 30.82,140.37 38.3,214.55 14.99,-8.6 29.93,-17.22 44.92,-25.83 4.23,23.92 8.46,47.87 12.68,71.78l55.87 -20.4 0.12 0.39c22.24,-9.9 44.49,-19.8 66.74,-29.68 -11.48,-18.17 -22.93,-36.34 -34.4,-54.51 17.83,-0.9 35.67,-1.79 53.49,-2.7 -39.13,-58.14 -78.27,-116.31 -101.61,-182.47 -23.31,-66.17 -30.8,-140.36 -38.29,-214.54 -14.98,8.61 -29.94,17.23 -44.92,25.83 -4.23,-23.92 -8.47,-47.85 -12.69,-71.76l-55.86 20.4zm-34.4 -235.51c1.03,-103.75 2.08,-207.5 3.11,-311.23m-64.05 152.38c3.44,-86.25 36.33,-154.99 73.46,-153.5 37.09,1.47 64.39,72.61 60.93,158.85 -3.44,86.25 -36.33,154.97 -73.45,153.5 -37.09,-1.47 -64.4,-72.61 -60.94,-158.85zm72.8 -264.49l0.01 -0.43c-24.29,1.72 -48.58,3.42 -72.88,5.14 4.55,20.98 9.08,41.96 13.62,62.95 -17.07,-5.25 -34.13,-10.49 -51.21,-15.73 16.86,68 33.68,136 32.91,206.12 -0.77,70.15 -19.19,142.41 -37.59,214.67 17.03,-2.97 34.03,-5.97 51.07,-8.95 -4.23,23.92 -8.47,47.86 -12.71,71.77l59.5 -0.12 -0.02 0.41c24.3,-1.71 48.59,-3.42 72.89,-5.12 -4.55,-20.98 -9.08,-41.97 -13.62,-62.95 17.06,5.23 34.14,10.47 51.19,15.7 -16.83,-67.98 -33.66,-135.99 -32.89,-206.12 0.78,-70.13 19.19,-142.39 37.6,-214.67 -17.03,2.99 -34.05,5.98 -51.08,8.96 4.23,-23.92 8.45,-47.85 12.69,-71.77l-59.48 0.14zm48.44 -233.05c36.56,-97.14 73.13,-194.28 109.68,-291.4m-112.45 121.34c32.81,-79.87 87.3,-133.24 121.67,-119.19 34.36,14.03 35.6,90.2 2.78,170.05 -32.83,79.89 -87.3,133.24 -121.68,119.2 -34.34,-14.04 -35.61,-90.2 -2.77,-170.06zm159.13 -223.71l0.15 -0.39c-23.41,-6.68 -46.82,-13.36 -70.25,-20.03 -2.92,21.26 -5.85,42.53 -8.79,63.8 -14.24,-10.75 -28.48,-21.5 -42.73,-32.25 -7.48,69.65 -14.99,139.28 -39.77,204.91 -24.78,65.65 -66.87,127.28 -108.96,188.92 17.03,3 34.04,5.99 51.07,8.99 -12.18,21.04 -24.37,42.09 -36.56,63.12l55.95 20.17 -0.16 0.38c23.43,6.69 46.84,13.36 70.25,20.05 2.93,-21.27 5.87,-42.53 8.8,-63.8 14.24,10.73 28.48,21.49 42.72,32.21 7.49,-69.63 15,-139.26 39.78,-204.91 24.79,-65.63 66.88,-127.25 108.96,-188.9 -17.03,-3 -34.04,-5.99 -51.06,-9 12.17,-21.03 24.35,-42.08 36.53,-63.1l-55.93 -20.17zm125.45 -202.48c67.67,-78.8 135.35,-157.61 203.01,-236.41m-147.29 75.68c58.23,-63.87 127.73,-95.44 155.22,-70.51 27.46,24.9 2.52,96.89 -55.72,160.74 -58.24,63.87 -127.74,95.43 -155.22,70.5 -27.46,-24.9 -2.53,-96.89 55.72,-160.73zm226.27 -155.96l0.27 -0.31c-19.71,-14.26 -39.42,-28.53 -59.14,-42.78 -10.04,18.98 -20.09,37.96 -30.15,56.95 -9.69,-14.96 -19.38,-29.91 -29.09,-44.87 -30.92,62.89 -61.86,125.76 -107.66,178.99 -45.8,53.24 -106.49,96.79 -167.17,140.36 14.96,8.62 29.92,17.24 44.9,25.86 -18.66,15.62 -37.34,31.24 -56,46.85l45.65 38.04 -0.28 0.3c19.72,14.27 39.43,28.53 59.14,42.79 10.05,-18.98 20.1,-37.97 30.16,-56.95 9.69,14.94 19.38,29.91 29.08,44.85 30.93,-62.88 61.87,-125.76 107.67,-178.99 45.8,-53.22 106.49,-96.77 167.18,-140.35 -14.97,-8.62 -29.94,-17.24 -44.9,-25.87 18.66,-15.61 37.32,-31.24 55.99,-46.84l-45.65 -38.03zm187.33 -147.47c90.61,-50.98 181.24,-101.94 271.85,-152.92m-164.36 20.87c76.62,-40.15 152.76,-46.12 170.04,-13.32 17.27,32.78 -30.86,91.92 -107.49,132.06 -76.64,40.15 -152.76,46.1 -170.04,13.31 -17.27,-32.78 30.85,-91.92 107.49,-132.05zm266.11 -69.37l0.36 -0.21c-13.63,-20.12 -27.26,-40.24 -40.89,-60.37 -15.95,14.42 -31.91,28.82 -47.87,43.24 -3.98,-17.36 -7.95,-34.72 -11.94,-52.08 -50.63,48.54 -101.27,97.07 -162.56,131.47 -61.31,34.4 -133.27,54.63 -205.24,74.88 11.11,13.2 22.21,26.4 33.32,39.62 -22.89,8.3 -45.8,16.62 -68.69,24.92l29.85 51.31 -0.36 0.19c13.63,20.13 27.27,40.26 40.9,60.38 15.95,-14.41 31.9,-28.82 47.87,-43.23 3.98,17.35 7.95,34.72 11.94,52.07 50.63,-48.55 101.27,-97.08 162.57,-131.48 61.29,-34.39 133.26,-54.62 205.23,-74.87 -11.1,-13.21 -22.21,-26.41 -33.31,-39.62 22.88,-8.31 45.78,-16.62 68.68,-24.93l-29.86 -51.29zm226.61 -74.69c102.64,-17 205.28,-33.99 307.92,-50.99m-161.62 -36.44c85.78,-11.6 159.37,8.76 164.36,45.48 4.98,36.69 -60.53,75.85 -146.3,87.43 -85.78,11.58 -159.37,-8.78 -164.36,-45.48 -4.98,-36.7 60.52,-75.85 146.3,-87.43zm273.87 25.56l0.41 -0.06c-5.91,-23.56 -11.82,-47.12 -17.72,-70.68 -19.94,8.1 -39.87,16.2 -59.81,24.3 2.21,-17.67 4.43,-35.34 6.64,-53.01 -64.24,28.35 -128.47,56.69 -197.86,68.11 -69.41,11.41 -143.97,5.88 -218.54,0.36 5.9,16.2 11.81,32.39 17.72,48.59 -24.36,0 -48.73,0 -73.09,0l10.45 58.39 -0.41 0.06c5.91,23.56 11.82,47.12 17.72,70.68 19.94,-8.1 39.87,-16.2 59.81,-24.3 -2.21,17.67 -4.43,35.34 -6.64,53.01 64.23,-28.35 128.47,-56.69 197.86,-68.1 69.41,-11.41 143.97,-5.89 218.54,-0.37 -5.9,-16.19 -11.81,-32.39 -17.72,-48.59 24.36,0 48.73,0 73.09,0l-10.45 -58.39z"/>
  <path class="fil0" d="M2051.69 512.45c852.35,0 1543.31,689.01 1543.31,1538.95 0,849.94 -690.96,1538.95 -1543.31,1538.95 -852.35,0 -1543.31,-689.01 -1543.31,-1538.95 0,-849.94 690.96,-1538.95 1543.31,-1538.95z"/>
  <g id="_1299931168">
   <path class="fil1 str1" d="M1493.75 3463.82c10.97,4.3 20.37,10.12 28.13,17.38 7.75,7.29 13.57,15.91 17.42,25.78 3.85,9.9 5.46,21.03 4.86,33.32 -0.56,12.31 -3.62,25.51 -9.16,39.59 -5.49,14.01 -12.05,25.52 -19.71,34.51 -7.66,9 -16.43,16.05 -26.3,21.08 -9.64,4.85 -19.81,7.46 -30.54,7.77 -10.72,0.34 -21.75,-1.72 -33.11,-6.18 -5.62,-2.2 -10.77,-4.72 -15.38,-7.45 -4.59,-2.79 -8.72,-5.6 -12.46,-8.53 -3.14,-2.52 -6.32,-5.4 -9.43,-8.57 -3.14,-3.18 -6.16,-6.49 -9.05,-9.98l10.52 -26.82 1.82 0.71c1.27,2.53 2.93,5.66 5.02,9.37 2.11,3.7 4.92,7.64 8.38,11.83 3.39,3.94 7.3,7.65 11.76,11.09 4.46,3.47 9.99,6.48 16.6,9.08 7.13,2.8 14.47,3.99 22,3.59 7.53,-0.41 14.84,-2.5 21.82,-6.27 6.97,-3.82 13.47,-9.51 19.46,-17.08 6.01,-7.51 11.12,-16.67 15.34,-27.41 4.48,-11.44 6.96,-21.81 7.43,-31.15 0.42,-9.35 -0.62,-17.78 -3.2,-25.34 -2.49,-7.36 -6.36,-13.7 -11.56,-18.98 -5.22,-5.28 -11.36,-9.29 -18.41,-12.06 -6.46,-2.54 -12.73,-4.11 -18.86,-4.69 -6.07,-0.58 -11.74,-0.5 -16.96,0.2 -5.07,0.71 -9.54,1.7 -13.53,2.93 -3.94,1.23 -7.11,2.38 -9.52,3.43l-1.7 -0.67 10.42 -26.55c4.39,-0.28 8.49,-0.57 12.39,-0.89 3.9,-0.29 8.45,-0.27 13.71,0.06 5.5,0.34 10.51,0.93 15.04,1.74 4.46,0.83 10.06,2.53 16.76,5.16zm-185.63 -37.16c2.97,-5.8 6.72,-10.41 11.26,-13.74 4.5,-3.35 9.52,-5.55 14.93,-6.59 6.82,-1.27 13.25,-1.23 19.32,0.17 6.02,1.4 12.8,4.04 20.28,7.86l47.36 24.22 -61.36 120.03 -44.29 -22.64c-8.87,-4.54 -15.21,-8.11 -19.02,-10.75 -3.86,-2.61 -7.19,-6.08 -10.12,-10.35 -3.05,-4.48 -4.64,-9.09 -4.71,-13.94 -0.1,-4.82 1.2,-9.8 3.87,-15.02 2.93,-5.72 7.13,-10.05 12.62,-12.98 5.44,-2.92 11.44,-4.3 17.97,-4.06l-0.18 -1.03c-5.68,-4.98 -9.41,-11.11 -11.27,-18.39 -1.8,-7.27 -0.71,-14.86 3.34,-22.79zm0.17 66.71c-1.39,2.72 -2.15,5.29 -2.28,7.73 -0.09,2.45 0.65,4.82 2.27,7.08 1.91,2.65 4.37,4.92 7.4,6.79 3.07,1.9 7.43,4.27 13.06,7.15l19.19 9.81 16.66 -32.6 -23.15 -11.84c-4.95,-2.52 -8.56,-4.1 -10.85,-4.66 -2.29,-0.61 -5.12,-0.81 -8.36,-0.57 -3.1,0.18 -5.75,1.27 -7.96,3.15 -2.24,1.91 -4.23,4.55 -5.98,7.96zm20.78 -55.91c-2.1,4.12 -3.21,7.72 -3.28,10.78 -0.1,3.1 1.39,6.64 4.38,10.61 1.85,2.53 4.17,4.64 6.88,6.41 2.73,1.76 6.63,3.93 11.72,6.53l23.7 12.12 20.16 -39.43 -17.5 -8.94c-7.25,-3.71 -12.98,-6.27 -17.31,-7.74 -4.28,-1.49 -8.31,-2.07 -12.06,-1.81 -3.94,0.35 -7.25,1.38 -9.86,3.11 -2.62,1.77 -4.88,4.54 -6.83,8.36zm-43.55 -70.72l19.78 11.35 -67.07 116.93 -19.8 -11.35 67.09 -116.93zm-79.93 135.8l22.6 12.97 -11.7 20.38 -22.59 -12.96 11.69 -20.39zm-29.1 -242.25l17.78 11.35 -17.58 27.52 75.26 48.06 17.57 -27.52 17.78 11.35 -27.82 43.56 -7.53 -4.8c-13.21,6.48 -27.29,16.92 -42.3,31.35 -14.96,14.46 -28.92,31.77 -41.82,51.99l-70.04 -44.73 62.17 -97.36 -11.29 -7.21 27.82 -43.56zm2.71 63.05l-51.93 81.31 32.82 20.96c11.7,-16.39 23.93,-30.4 36.65,-42 12.66,-11.62 24.81,-20.2 36.39,-25.82l-53.93 -34.45zm-166.45 -66.1c14.01,-17.88 29.12,-28.24 45.38,-31.22 16.25,-2.92 31.56,1.22 45.91,12.47 14.8,11.6 22.51,25.76 23.1,42.42 0.63,16.68 -5.82,33.62 -19.31,50.85 -13.89,17.71 -29.03,28.06 -45.46,31 -16.44,3 -31.79,-1.13 -46.07,-12.33 -14.35,-11.25 -22,-25.15 -23.01,-41.7 -0.94,-16.56 5.52,-33.71 19.46,-51.49zm18.55 14.53c-10.71,13.67 -16.17,25.78 -16.38,36.37 -0.2,10.58 4.34,19.47 13.58,26.71 9.31,7.3 19.09,9.63 29.35,6.93 10.25,-2.7 20.71,-10.9 31.42,-24.56 10.38,-13.24 15.74,-25.23 16.06,-36.02 0.32,-10.8 -4.19,-19.84 -13.5,-27.14 -9.18,-7.19 -18.92,-9.44 -29.24,-6.67 -10.3,2.76 -20.71,10.89 -31.29,24.38zm-58.45 -189.37l15.29 14.52 -22.32 23.49 71.39 67.83 -92.86 97.73 -16.54 -15.72 79.23 -83.38 -43.88 -41.69 -79.23 83.38 -16.54 -15.72 79.22 -83.39 -9.71 -9.22 35.95 -37.83zm-189.31 7.48l30.26 34.84 86.84 -75.41 14.97 17.24 -86.85 75.4 30.24 34.84 -14.94 12.98 -75.46 -86.92 14.94 -12.97zm-21.04 -146.68c5.12,-4.04 10.46,-6.66 15.97,-7.79 5.48,-1.17 10.97,-1.07 16.31,0.25 6.73,1.69 12.56,4.41 17.49,8.21 4.88,3.79 9.95,9.02 15.14,15.61l32.94 41.78 -105.87 83.45 -30.79 -39.05c-6.18,-7.83 -10.45,-13.72 -12.81,-17.71 -2.41,-3.99 -3.99,-8.53 -4.87,-13.64 -0.9,-5.34 -0.42,-10.19 1.54,-14.63 1.92,-4.42 5.18,-8.4 9.78,-12.03 5.06,-3.98 10.68,-6.16 16.9,-6.53 6.16,-0.38 12.18,0.87 18.01,3.81l0.27 -1c-3.08,-6.9 -3.91,-14.03 -2.56,-21.42 1.4,-7.36 5.56,-13.8 12.55,-19.31zm-27.7 60.69c-2.38,1.88 -4.16,3.9 -5.29,6.06 -1.11,2.19 -1.43,4.66 -0.9,7.39 0.64,3.2 1.91,6.29 3.9,9.26 1.99,3 4.96,6.98 8.88,11.95l13.33 16.92 28.76 -22.67 -16.11 -20.42c-3.43,-4.35 -6.04,-7.29 -7.9,-8.77 -1.82,-1.51 -4.31,-2.87 -7.35,-4 -2.9,-1.14 -5.77,-1.25 -8.56,-0.47 -2.82,0.81 -5.75,2.37 -8.76,4.75zm42.23 -42.14c-3.63,2.86 -6.14,5.68 -7.48,8.43 -1.38,2.77 -1.51,6.62 -0.46,11.47 0.64,3.07 1.85,5.96 3.6,8.7 1.73,2.74 4.37,6.34 7.9,10.82l16.49 20.91 34.78 -27.41 -12.17 -15.43c-5.04,-6.39 -9.18,-11.12 -12.49,-14.26 -3.28,-3.15 -6.7,-5.35 -10.22,-6.68 -3.72,-1.33 -7.16,-1.77 -10.26,-1.29 -3.11,0.51 -6.32,2.09 -9.69,4.74zm-110.75 -122.41c19.11,-12.27 36.78,-17.09 53.12,-14.56 16.31,2.59 29.4,11.53 39.25,26.87 10.17,15.83 12.8,31.74 7.88,47.66 -4.89,15.97 -16.56,29.84 -34.97,41.67 -18.94,12.17 -36.64,16.96 -53.13,14.33 -16.5,-2.57 -29.64,-11.52 -39.45,-26.79 -9.85,-15.34 -12.5,-30.99 -8.01,-46.94 4.55,-15.96 16.29,-30.03 35.31,-42.24zm12.73 19.83c-14.61,9.38 -23.74,19.03 -27.41,28.96 -3.67,9.92 -2.31,19.81 4.03,29.69 6.4,9.95 14.86,15.37 25.44,16.19 10.58,0.82 23.15,-3.47 37.76,-12.85 14.15,-9.09 23.15,-18.65 27,-28.74 3.85,-10.1 2.56,-20.12 -3.83,-30.07 -6.3,-9.81 -14.76,-15.14 -25.41,-15.92 -10.64,-0.78 -23.15,3.47 -37.58,12.74zm-45.86 -243.67l9.44 20.78 -104.73 47.55 25.33 55.79 104.73 -47.55 9.43 20.78 -122.76 55.72 -44.19 -97.35 122.75 -55.72zm-114.86 -116.1c21.25,-7.19 39.93,-7.79 56.01,-1.83 16.07,5.99 26.78,16.81 32.08,32.48 2.14,6.34 3.32,12.24 3.53,17.66 0.22,5.39 -0.3,11.19 -1.62,17.35l53.44 -18.06 7.31 21.61 -174.82 59.11 -7.3 -21.61 13.39 -4.53c-6.62,-3.75 -12.67,-8.38 -18.12,-13.82 -5.47,-5.49 -9.49,-12.11 -12.1,-19.83 -4.99,-14.77 -3.1,-28.2 5.71,-40.38 8.8,-12.19 22.96,-21.55 42.49,-28.15zm9.85 21.54c-14.57,4.93 -25.06,11.09 -31.53,18.47 -6.45,7.42 -7.9,16.38 -4.34,26.92 2.06,6.1 5.44,11.6 10.07,16.41 4.63,4.8 9.94,9.07 15.98,12.75l72.32 -24.46c0.86,-6.61 1.09,-12.1 0.7,-16.47 -0.39,-4.37 -1.44,-9.16 -3.2,-14.36 -3.8,-11.25 -10.81,-18.57 -21.07,-22.03 -10.27,-3.48 -23.23,-2.54 -38.93,2.77zm-39.6 -160.05c22.12,-5.12 40.39,-3.71 54.91,4.18 14.49,7.93 23.81,20.76 27.92,38.52 4.24,18.33 1.35,34.19 -8.63,47.53 -9.98,13.38 -25.64,22.53 -46.96,27.46 -21.93,5.08 -40.21,3.63 -54.84,-4.4 -14.68,-7.97 -24.04,-20.83 -28.13,-38.51 -4.11,-17.76 -1.36,-33.39 8.26,-46.9 9.66,-13.48 25.44,-22.78 47.47,-27.88zm5.31 22.96c-16.92,3.92 -28.76,9.92 -35.57,18.04 -6.8,8.11 -8.84,17.88 -6.2,29.32 2.67,11.52 8.83,19.47 18.5,23.81 9.69,4.33 22.97,4.52 39.89,0.6 16.38,-3.79 28.08,-9.76 35.1,-17.96 7.03,-8.21 9.18,-18.09 6.52,-29.61 -2.63,-11.36 -8.8,-19.22 -18.57,-23.54 -9.75,-4.32 -22.96,-4.53 -39.67,-0.66zm34.91 -244.22l1.73 22.76 -114.69 8.74 4.66 61.09 114.69 -8.74 1.73 22.75 -134.42 10.25 -8.12 -106.61 134.42 -10.24zm-75.04 -144.9c22.42,-0.56 40.44,4.41 54.03,14.86 13.57,10.5 20.59,24.01 21,40.54 0.17,6.7 -0.46,12.67 -1.87,17.91 -1.39,5.21 -3.61,10.6 -6.68,16.1l56.37 -1.41 0.58 22.81 -184.48 4.59 -0.57 -22.8 14.14 -0.36c-5.21,-5.53 -9.61,-11.76 -13.2,-18.57 -3.59,-6.86 -5.48,-14.38 -5.68,-22.53 -0.39,-15.58 5.41,-27.84 17.43,-36.87 12.03,-9.02 28.33,-13.76 48.93,-14.27zm3.02 23.5c-15.38,0.38 -27.22,3.15 -35.59,8.27 -8.37,5.18 -12.41,13.3 -12.14,24.42 0.16,6.45 1.76,12.7 4.75,18.66 3,5.97 6.81,11.62 11.49,16.92l76.32 -1.9c2.77,-6.07 4.63,-11.24 5.55,-15.53 0.92,-4.28 1.34,-9.17 1.2,-14.66 -0.3,-11.87 -4.81,-20.94 -13.59,-27.29 -8.77,-6.36 -21.42,-9.31 -37.99,-8.89zm44.07 -126.2l-37.12 -2.83c0.09,5.4 0.23,12.24 0.42,20.51 0.2,8.31 0.88,15.04 2.02,20.19 1.39,6.15 3.8,11.35 7.28,15.56 3.48,4.2 8.64,6.58 15.42,7.1 7.65,0.58 13.6,-1.16 17.85,-5.19 4.24,-4.03 6.69,-10.19 7.32,-18.51 0.54,-7.18 -0.48,-13.73 -3.12,-19.73 -2.61,-6 -5.98,-11.73 -10.07,-17.1zm18.78 1.43c1.26,1.96 2.96,4.58 5.19,7.86 2.18,3.27 3.94,6.39 5.16,9.38 1.79,4.2 3.1,8.2 3.91,12.04 0.84,3.79 1.01,9.08 0.5,15.84 -0.43,5.55 -1.85,10.72 -4.33,15.55 -2.48,4.83 -5.72,8.97 -9.8,12.47 -3.98,3.31 -8.76,5.84 -14.35,7.62 -5.55,1.77 -11.35,2.4 -17.39,1.94 -9.33,-0.71 -17.07,-3.28 -23.36,-7.7 -6.23,-4.46 -10.93,-11.07 -14.15,-19.87 -2.87,-7.8 -4.57,-16.93 -5.11,-27.29 -0.53,-10.41 -0.67,-21.57 -0.43,-33.49l-4.39 -0.34c-5.34,-0.41 -9.73,0.08 -13.14,1.44 -3.42,1.36 -6.12,3.39 -8.12,6.14 -2.1,2.79 -3.61,6.2 -4.55,10.36 -0.93,4.11 -1.56,8.42 -1.89,12.83 -0.4,5.24 -0.08,11.44 0.99,18.65 1.06,7.17 2.85,14.44 5.36,21.76l-0.1 1.32 -22.97 -1.75c-0.88,-4.3 -1.74,-10.37 -2.58,-18.32 -0.84,-7.94 -0.99,-15.71 -0.4,-23.38 0.7,-9.26 2.03,-17 3.96,-23.28 1.91,-6.24 4.94,-11.77 9.11,-16.55 4.08,-4.63 9.17,-7.93 15.19,-9.92 6.06,-1.98 13.3,-2.63 21.73,-1.99l92.09 7.02 -1.74 22.76 -14.39 -1.1zm-1.21 -165.09c6.42,1.14 11.92,3.38 16.43,6.76 4.52,3.32 8.09,7.48 10.66,12.35 3.21,6.15 5.04,12.32 5.47,18.53 0.42,6.16 -0.13,13.42 -1.6,21.68l-9.34 52.38 -132.71 -23.68 8.73 -48.96c1.75,-9.81 3.31,-16.91 4.72,-21.33 1.39,-4.46 3.72,-8.66 6.95,-12.7 3.4,-4.23 7.34,-7.09 11.97,-8.58 4.57,-1.49 9.72,-1.7 15.49,-0.68 6.33,1.13 11.69,3.89 16.11,8.3 4.37,4.34 7.44,9.68 9.11,15.99l0.94 -0.47c3.1,-6.88 7.88,-12.24 14.3,-16.14 6.42,-3.84 14.01,-5.02 22.77,-3.45zm-63.76 19.62c-3,-0.54 -5.69,-0.52 -8.05,0.07 -2.37,0.63 -4.43,2.03 -6.11,4.25 -1.99,2.59 -3.44,5.6 -4.34,9.05 -0.92,3.49 -1.92,8.35 -3.03,14.58l-3.78 21.21 36.04 6.43 4.56 -25.6c0.98,-5.46 1.44,-9.37 1.31,-11.74 -0.09,-2.37 -0.73,-5.13 -1.9,-8.15 -1.07,-2.92 -2.9,-5.14 -5.33,-6.71 -2.49,-1.57 -5.6,-2.72 -9.37,-3.39zm59.54 3.56c-4.54,-0.81 -8.32,-0.81 -11.26,0.01 -2.99,0.81 -5.95,3.27 -8.88,7.28 -1.87,2.52 -3.22,5.34 -4.11,8.46 -0.89,3.12 -1.84,7.49 -2.84,13.11l-4.67 26.21 43.59 7.77 3.45 -19.34c1.44,-8.01 2.21,-14.25 2.35,-18.81 0.18,-4.54 -0.44,-8.56 -1.79,-12.07 -1.47,-3.67 -3.44,-6.53 -5.85,-8.52 -2.45,-1.99 -5.76,-3.35 -9.99,-4.1zm14.04 -165.31c21.83,6.23 37.13,16.31 46.03,30.24 8.84,13.95 10.78,29.69 5.78,47.22 -5.16,18.09 -15.36,30.58 -30.56,37.41 -15.21,6.89 -33.33,7.31 -54.38,1.31 -21.65,-6.18 -36.94,-16.29 -45.87,-30.4 -8.97,-14.09 -10.95,-29.86 -5.96,-47.32 4.99,-17.53 14.98,-29.87 29.92,-37.03 14.98,-7.13 33.3,-7.62 55.04,-1.43zm-6.47 22.67c-16.69,-4.76 -29.97,-5.24 -39.85,-1.44 -9.87,3.81 -16.4,11.37 -19.62,22.66 -3.24,11.37 -1.7,21.31 4.66,29.79 6.38,8.48 17.92,15.07 34.61,19.83 16.18,4.61 29.31,5.05 39.41,1.27 10.13,-3.78 16.8,-11.37 20.04,-22.74 3.2,-11.22 1.6,-21.09 -4.85,-29.6 -6.45,-8.5 -17.9,-15.07 -34.4,-19.77zm143.62 -198.85l-8.4 21.22 -56.14 -22.18 -22.51 56.99 56.14 22.18 -8.39 21.22 -125.37 -49.54 8.38 -21.22 50.85 20.09 22.51 -56.98 -50.84 -20.09 8.38 -21.23 125.39 49.54zm21.35 -110.82l-33.12 -17.02c-2.01,5.01 -4.54,11.38 -7.57,19.06 -3.05,7.74 -5.03,14.21 -5.99,19.39 -1.1,6.21 -0.89,11.94 0.69,17.17 1.56,5.23 5.39,9.42 11.44,12.53 6.82,3.51 12.98,4.22 18.46,2.15 5.47,-2.07 10.12,-6.79 13.93,-14.21 3.3,-6.41 4.89,-12.84 4.79,-19.4 -0.07,-6.54 -0.95,-13.13 -2.63,-19.67zm16.74 8.62c0.4,2.29 0.96,5.37 1.74,9.26 0.74,3.86 1.14,7.42 1.11,10.65 0.01,4.56 -0.34,8.76 -1.07,12.61 -0.71,3.82 -2.6,8.76 -5.7,14.78 -2.55,4.96 -5.86,9.16 -10.03,12.65 -4.16,3.49 -8.76,6.05 -13.88,7.7 -4.94,1.5 -10.32,1.98 -16.17,1.44 -5.8,-0.52 -11.39,-2.19 -16.79,-4.96 -8.31,-4.28 -14.45,-9.66 -18.52,-16.17 -4.01,-6.53 -5.79,-14.45 -5.33,-23.8 0.38,-8.31 2.36,-17.38 5.89,-27.14 3.55,-9.8 7.76,-20.14 12.62,-31.03l-3.92 -2.01c-4.77,-2.46 -9,-3.7 -12.67,-3.78 -3.67,-0.07 -6.96,0.74 -9.87,2.51 -3.03,1.75 -5.73,4.3 -8.21,7.77 -2.46,3.43 -4.71,7.16 -6.73,11.09 -2.4,4.67 -4.51,10.51 -6.33,17.57 -1.81,7.02 -2.98,14.42 -3.51,22.14l-0.61 1.17 -20.49 -10.53c0.86,-4.31 2.43,-10.23 4.75,-17.89 2.3,-7.64 5.18,-14.85 8.7,-21.69 4.25,-8.27 8.48,-14.88 12.69,-19.92 4.19,-5 9.13,-8.92 14.83,-11.71 5.55,-2.69 11.53,-3.75 17.85,-3.24 6.36,0.53 13.29,2.74 20.8,6.6l82.13 42.23 -10.44 20.3 -12.84 -6.6zm104.07 -200.79c6.13,4.38 10.38,9.44 12.72,15.18 2.3,5.71 3.23,11.59 2.71,17.56 -0.44,5.74 -1.9,11.55 -4.4,17.53 -2.48,5.96 -5.53,11.51 -9.2,16.65 -5.13,7.21 -10.72,13.54 -16.73,18.99 -6,5.43 -12.83,10.25 -20.49,14.38l-20.51 -14.62 0.83 -1.18c7.27,-1.52 14.51,-4.79 21.67,-9.78 7.19,-5.04 13.14,-10.89 17.89,-17.56 2.07,-2.89 3.95,-6.17 5.73,-9.93 1.7,-3.76 2.77,-7.22 3.09,-10.45 0.32,-4.29 -0.09,-7.82 -1.22,-10.56 -1.17,-2.77 -3.57,-5.44 -7.19,-8.03 -3.9,-2.78 -7.55,-4.26 -10.93,-4.49 -3.44,-0.22 -6.62,0.56 -9.62,2.28 -2.97,1.68 -5.73,4.04 -8.28,6.99 -2.56,2.95 -5.1,6.21 -7.62,9.75l-9.21 12.92 -16.11 -11.48 7.03 -9.87c1.77,-2.49 3.91,-5.63 6.42,-9.49 2.48,-3.83 4.07,-7.14 4.79,-9.98 0.95,-3.55 1.08,-6.85 0.34,-9.92 -0.69,-3.08 -3.35,-6.24 -7.95,-9.52 -3.19,-2.28 -6.27,-3.42 -9.29,-3.38 -2.97,0.06 -5.78,0.74 -8.43,2.1 -2.76,1.39 -5.29,3.24 -7.61,5.55 -2.29,2.28 -4.28,4.66 -6.01,7.08 -4.42,6.2 -7.79,12.77 -10.17,19.72 -2.32,6.97 -3.29,13.7 -2.83,20.22l-0.84 1.18 -19.96 -14.25c1.71,-5.88 4.02,-12.16 6.88,-18.8 2.83,-6.61 6.31,-12.82 10.43,-18.61 3.34,-4.67 7.17,-9.05 11.61,-13.21 4.36,-4.14 9.24,-7.57 14.66,-10.26 5.12,-2.49 10.63,-3.69 16.49,-3.67 5.89,0.05 11.65,2.06 17.31,6.11 5.98,4.26 10.02,9.68 12.11,16.25 2.07,6.62 1.85,13.16 -0.64,19.8l0.66 0.48c6.46,-4.64 13.26,-7.35 20.34,-8.2 7.11,-0.82 14.27,1.35 21.53,6.52zm68.79 -76.22l-28.12 -24.4c-3.15,4.38 -7.12,9.97 -11.88,16.71 -4.8,6.79 -8.26,12.6 -10.42,17.41 -2.56,5.77 -3.71,11.39 -3.43,16.84 0.29,5.46 3.01,10.44 8.14,14.89 5.8,5.03 11.62,7.19 17.42,6.48 5.81,-0.71 11.44,-4.2 16.91,-10.5 4.72,-5.43 7.8,-11.3 9.27,-17.69 1.48,-6.37 2.19,-12.98 2.11,-19.74zm14.22 12.35c-0.16,2.32 -0.35,5.45 -0.52,9.41 -0.19,3.93 -0.65,7.48 -1.45,10.61 -1.07,4.43 -2.4,8.43 -4.03,12 -1.6,3.53 -4.61,7.88 -9.05,13 -3.66,4.21 -7.88,7.5 -12.75,9.91 -4.87,2.39 -9.95,3.79 -15.31,4.16 -5.16,0.29 -10.51,-0.52 -16.06,-2.43 -5.5,-1.89 -10.54,-4.84 -15.12,-8.82 -7.06,-6.13 -11.74,-12.81 -14.15,-20.11 -2.34,-7.29 -2.18,-15.41 0.48,-24.38 2.35,-7.98 6.43,-16.32 12.18,-24.96 5.77,-8.67 12.32,-17.72 19.62,-27.14l-3.33 -2.89c-4.04,-3.52 -7.85,-5.73 -11.4,-6.68 -3.55,-0.94 -6.94,-0.93 -10.18,0.09 -3.36,0.98 -6.6,2.82 -9.82,5.6 -3.21,2.74 -6.27,5.83 -9.17,9.17 -3.45,3.97 -6.89,9.14 -10.34,15.56 -3.42,6.39 -6.31,13.3 -8.66,20.67l-0.88 1 -17.4 -15.11c1.87,-3.97 4.8,-9.36 8.86,-16.24 4.06,-6.87 8.57,-13.2 13.62,-19.01 6.09,-7.02 11.77,-12.43 17.06,-16.32 5.26,-3.87 10.99,-6.5 17.18,-7.86 6.04,-1.28 12.1,-0.9 18.12,1.1 6.04,2.03 12.25,5.82 18.63,11.36l69.74 60.54 -14.97 17.23 -10.9 -9.46zm123.4 -106.52l-16.55 15.72 -41.56 -43.76 -44.43 42.21 41.58 43.75 -16.54 15.72 -92.86 -97.73 16.54 -15.71 37.66 39.63 44.42 -42.21 -37.66 -39.63 16.55 -15.72 92.85 97.73zm98.58 -86.24l-17.27 14.92 -34.94 -40.41 -16.89 14.6 4.42 66.81 -20.14 17.41 -3.32 -70.48c-10.64,4.84 -20.08,6.5 -28.24,4.95 -8.2,-1.51 -15.89,-6.42 -23.06,-14.72 -4.38,-5.05 -7.07,-10.45 -8.14,-16.18 -1.07,-5.72 -0.82,-11.56 0.7,-17.45 1.26,-4.68 3.82,-9.56 7.56,-14.59 3.8,-5.03 8.55,-10.02 14.28,-14.96l36.87 -31.88 88.17 101.98zm-63.86 -38.97l-29.6 -34.24 -18.65 16.11c-3.94,3.41 -6.88,6.33 -8.8,8.71 -1.91,2.41 -3.42,5.14 -4.5,8.19 -1.03,3.24 -1.13,6.49 -0.29,9.74 0.85,3.24 2.38,6.16 4.65,8.79 2.89,3.33 5.6,5.71 8.2,7.13 2.58,1.47 5.6,2.18 9.14,2.23 3.73,-0.05 7.37,-1.09 10.93,-3.17 3.57,-2.06 7.19,-4.7 10.84,-7.86l18.08 -15.63zm105.32 -130.81l-37.64 26.69 66.54 93.82 -18.62 13.21 -66.53 -93.83 -37.65 26.69 -11.44 -16.14 93.89 -66.58 11.45 16.14zm109.37 -64.48l-40.05 22.93 57.15 99.82 -19.8 11.34 -57.15 -99.82 -40.05 22.93 -9.83 -17.17 99.89 -57.2 9.84 17.17zm159.28 47.37l-20.32 10.39 -24.33 -47.57 -19.87 10.16 -11.61 65.94 -23.71 12.12 13.55 -69.24c-11.49,2.16 -21.05,1.53 -28.61,-1.91 -7.6,-3.43 -13.9,-10.02 -18.89,-19.79 -3.04,-5.95 -4.37,-11.83 -4.05,-17.65 0.32,-5.81 1.95,-11.42 4.83,-16.78 2.34,-4.25 5.98,-8.38 10.81,-12.38 4.88,-3.98 10.69,-7.69 17.43,-11.13l43.4 -22.19 61.37 120.03zm-52.75 -53.04l-20.61 -40.31 -21.94 11.22c-4.64,2.37 -8.19,4.51 -10.62,6.36 -2.42,1.89 -4.56,4.18 -6.32,6.89 -1.78,2.9 -2.64,6.03 -2.6,9.38 0.05,3.36 0.84,6.56 2.43,9.65 2,3.93 4.08,6.88 6.26,8.88 2.16,2.04 4.92,3.45 8.34,4.34 3.64,0.83 7.42,0.7 11.37,-0.48 3.96,-1.15 8.11,-2.85 12.41,-5.05l21.28 -10.88zm216.19 -43.08l-11.88 -35.28c-4.94,2.19 -11.2,5 -18.73,8.4 -7.57,3.43 -13.5,6.68 -17.79,9.74 -5.12,3.68 -8.96,7.94 -11.48,12.79 -2.52,4.84 -2.69,10.52 -0.52,16.96 2.45,7.27 6.38,12.08 11.74,14.41 5.38,2.32 11.99,2.17 19.91,-0.5 6.82,-2.29 12.44,-5.79 16.94,-10.57 4.51,-4.74 8.47,-10.08 11.81,-15.95zm6.02 17.86c-1.31,1.91 -3.06,4.51 -5.21,7.84 -2.17,3.29 -4.35,6.12 -6.63,8.42 -3.17,3.28 -6.34,6.05 -9.54,8.3 -3.17,2.24 -7.97,4.47 -14.4,6.63 -5.28,1.78 -10.59,2.49 -16,2.09 -5.42,-0.4 -10.5,-1.76 -15.31,-4.15 -4.61,-2.37 -8.8,-5.78 -12.62,-10.23 -3.79,-4.42 -6.65,-9.52 -8.58,-15.26 -2.98,-8.86 -3.64,-16.99 -2.03,-24.5 1.68,-7.48 5.93,-14.4 12.77,-20.79 6.05,-5.69 13.8,-10.82 23.13,-15.36 9.38,-4.55 19.6,-9.04 30.67,-13.47l-1.41 -4.18c-1.71,-5.08 -3.88,-8.92 -6.45,-11.53 -2.59,-2.61 -5.52,-4.32 -8.83,-5.08 -3.39,-0.85 -7.11,-0.91 -11.31,-0.15 -4.15,0.75 -8.35,1.86 -12.55,3.27 -4.98,1.68 -10.57,4.4 -16.78,8.19 -6.19,3.78 -12.18,8.27 -17.94,13.44l-1.26 0.42 -7.36 -21.83c3.62,-2.49 8.88,-5.65 15.87,-9.53 6.98,-3.87 14.07,-7.04 21.36,-9.5 8.8,-2.97 16.44,-4.76 22.97,-5.44 6.5,-0.67 12.78,-0.04 18.8,1.93 5.85,1.94 10.89,5.34 15.06,10.11 4.2,4.81 7.63,11.22 10.33,19.23l29.49 87.51 -21.63 7.29 -4.61 -13.67zm177.41 3.14l-20.56 4.72 -7.31 -31.82 -87.03 20 7.32 31.82 -20.56 4.72 -11.57 -50.37 8.7 -2c4.64,-13.98 7.06,-31.33 7.28,-52.15 0.18,-20.8 -2.39,-42.89 -7.76,-66.27l80.97 -18.61 25.89 112.58 13.05 -3 11.58 50.38zm-46.88 -42.27l-21.6 -94.02 -37.96 8.73c3.5,19.83 4.92,38.37 4.28,55.57 -0.58,17.18 -2.98,31.86 -7.09,44.06l62.37 -14.34zm161.73 -48c0.82,6.47 0.32,12.39 -1.55,17.7 -1.83,5.3 -4.73,9.96 -8.61,13.86 -4.92,4.9 -10.26,8.49 -16.05,10.76 -5.76,2.23 -12.85,3.88 -21.17,4.94l-52.78 6.71 -17.01 -133.73 49.33 -6.27c9.89,-1.26 17.14,-1.89 21.77,-1.86 4.66,-0.02 9.38,0.97 14.2,2.84 5.05,1.98 8.96,4.89 11.76,8.86 2.78,3.92 4.53,8.77 5.27,14.58 0.8,6.38 -0.23,12.33 -3.11,17.85 -2.85,5.47 -7.02,9.99 -12.54,13.48l0.72 0.74c7.5,0.91 14.04,3.87 19.67,8.84 5.59,4.99 8.98,11.87 10.1,20.7zm-37.76 -54.99c-0.39,-3.03 -1.21,-5.58 -2.47,-7.67 -1.31,-2.07 -3.26,-3.62 -5.88,-4.57 -3.07,-1.11 -6.37,-1.61 -9.94,-1.43 -3.6,0.16 -8.54,0.66 -14.82,1.46l-21.36 2.72 4.61 36.31 25.81 -3.28c5.49,-0.7 9.36,-1.43 11.58,-2.26 2.24,-0.79 4.68,-2.22 7.22,-4.24 2.47,-1.9 4.04,-4.3 4.8,-7.1 0.77,-2.84 0.94,-6.14 0.45,-9.94zm14.37 57.89c-0.59,-4.59 -1.71,-8.18 -3.37,-10.75 -1.67,-2.61 -4.9,-4.7 -9.59,-6.3 -2.97,-1.04 -6.07,-1.48 -9.31,-1.4 -3.25,0.08 -7.7,0.48 -13.35,1.2l-26.42 3.36 5.59 43.93 19.49 -2.48c8.07,-1.03 14.26,-2.15 18.65,-3.37 4.4,-1.18 8.05,-2.98 11,-5.31 3.05,-2.51 5.21,-5.23 6.38,-8.13 1.17,-2.93 1.47,-6.5 0.93,-10.75zm158.29 -40.04c1.73,22.64 -2.43,40.49 -12.42,53.65 -10.03,13.13 -24.13,20.39 -42.3,21.77 -18.76,1.43 -34.01,-3.82 -45.68,-15.71 -11.72,-11.89 -18.39,-28.75 -20.05,-50.57 -1.7,-22.45 2.49,-40.3 12.64,-53.55 10.11,-13.31 24.23,-20.61 42.33,-21.99 18.17,-1.38 33.2,3.72 45.11,15.26 11.86,11.59 18.67,28.6 20.37,51.14zm-23.49 1.78c-1.32,-17.31 -5.46,-29.93 -12.45,-37.89 -6.99,-7.94 -16.33,-11.44 -28.05,-10.55 -11.79,0.89 -20.58,5.77 -26.33,14.68 -5.75,8.92 -7.94,22.02 -6.63,39.33 1.27,16.78 5.4,29.24 12.45,37.42 7.05,8.19 16.49,11.82 28.27,10.92 11.64,-0.88 20.34,-5.79 26.09,-14.79 5.74,-9 7.94,-22.02 6.65,-39.12zm160.91 69.9l-28.35 -0.7 -44.93 -63.22 -11.24 -0.27 -1.53 62.07 -22.81 -0.57 3.32 -134.76 22.82 0.56 -1.46 58.6c5.88,0.07 10.95,-1.05 15.15,-3.3 4.19,-2.28 7.82,-6.8 10.84,-13.58 0.92,-2 1.96,-4.29 3.07,-6.94 1.13,-2.61 2.05,-4.94 2.72,-6.94 3.72,-9.8 8.82,-16.69 15.24,-20.61 6.43,-3.93 14.74,-5.74 24.87,-5.49l6.19 0.15 -0.48 19.79 -5.21 -0.13c-6.37,-0.16 -11.15,1 -14.39,3.43 -3.25,2.48 -6.06,7.12 -8.38,13.98 -2.4,6.95 -5.17,12.33 -8.38,16.17 -3.15,3.84 -6.62,6.72 -10.35,8.74l53.29 73.02z"/>
   <path class="fil1 str1" d="M2250.37 509.83l4.7 -36.93c-5.4,-0.19 -12.24,-0.39 -20.51,-0.62 -8.31,-0.22 -15.06,0.12 -20.26,1 -6.21,1.08 -11.53,3.23 -15.91,6.5 -4.37,3.26 -7.01,8.29 -7.86,15.04 -0.98,7.6 0.46,13.64 4.28,18.08 3.81,4.44 9.84,7.19 18.11,8.24 7.15,0.91 13.74,0.22 19.87,-2.12 6.12,-2.29 12.01,-5.37 17.58,-9.19zm-2.38 18.69c-2.02,1.15 -4.72,2.72 -8.1,4.78 -3.38,2.02 -6.59,3.61 -9.64,4.68 -4.28,1.58 -8.34,2.68 -12.21,3.31 -3.84,0.63 -9.12,0.54 -15.85,-0.31 -5.52,-0.71 -10.61,-2.39 -15.31,-5.11 -4.7,-2.72 -8.68,-6.17 -11.97,-10.42 -3.11,-4.13 -5.39,-9.03 -6.89,-14.71 -1.48,-5.63 -1.82,-11.46 -1.06,-17.47 1.18,-9.28 4.14,-16.88 8.88,-22.93 4.76,-6 11.61,-10.37 20.55,-13.13 7.94,-2.48 17.14,-3.72 27.51,-3.73 10.43,-0.01 21.58,0.41 33.48,1.26l0.56 -4.37c0.67,-5.32 0.4,-9.72 -0.78,-13.2 -1.19,-3.47 -3.07,-6.28 -5.72,-8.42 -2.68,-2.24 -6.01,-3.91 -10.12,-5.06 -4.06,-1.14 -8.33,-1.98 -12.71,-2.54 -5.22,-0.66 -11.43,-0.65 -18.68,0.05 -7.22,0.69 -14.57,2.12 -22.01,4.25l-1.3 -0.16 2.89 -22.86c4.35,-0.66 10.45,-1.21 18.44,-1.65 7.97,-0.44 15.73,-0.19 23.36,0.78 9.22,1.17 16.88,2.89 23.06,5.13 6.13,2.23 11.5,5.53 16.06,9.93 4.43,4.31 7.46,9.56 9.14,15.67 1.67,6.16 1.97,13.43 0.9,21.81l-11.65 91.61 -22.64 -2.88 1.81 -14.31zm170.19 -73.9l-45.43 -8.06 -20.07 113.26 -22.48 -3.99 20.08 -113.25 -45.43 -8.06 3.45 -19.48 113.34 20.09 -3.46 19.49zm46.79 135.53c-8.94,-2.55 -16.73,-6.27 -23.43,-11.14 -6.66,-4.85 -11.92,-10.85 -15.69,-17.97 -3.79,-7.08 -5.92,-15.27 -6.49,-24.61 -0.52,-9.33 0.85,-19.7 4.12,-31.15 3.24,-11.38 7.58,-20.78 13,-28.18 5.43,-7.42 11.51,-13.2 18.24,-17.4 6.74,-4.18 14.39,-6.71 22.93,-7.57 8.5,-0.88 17.18,-0.09 25.96,2.41 7.15,2.04 13.79,5 19.86,8.93 6.06,3.91 11.32,7.93 15.78,12.03l-6.98 24.51 -1.27 -0.36c-1.18,-1.75 -2.78,-3.84 -4.76,-6.25 -1.95,-2.35 -4.43,-4.95 -7.42,-7.73 -2.6,-2.37 -5.79,-4.74 -9.59,-7.06 -3.81,-2.33 -7.62,-4.06 -11.43,-5.15 -11.34,-3.22 -21.7,-1.55 -31.02,5.02 -9.31,6.56 -16.19,17.63 -20.64,33.26 -4.35,15.26 -4.41,28.14 -0.21,38.56 4.22,10.42 12.25,17.34 24.08,20.7 7.15,2.04 14.41,2.52 21.69,1.42 7.3,-1.05 14.06,-3.23 20.39,-6.41l1.27 0.37 -6.98 24.5c-2.48,0.41 -5.51,0.83 -9.19,1.33 -3.68,0.54 -6.95,0.72 -9.78,0.68 -4.04,0.01 -7.62,-0.11 -10.73,-0.35 -3.15,-0.26 -7.05,-1.07 -11.71,-2.39zm169.41 7.71c-2.09,6.21 -5.22,11.38 -9.39,15.58 -4.21,4.2 -8.95,7.13 -14.26,8.82 -6.35,2.13 -12.67,3.01 -18.93,2.68 -6.3,-0.33 -13.94,-1.99 -22.98,-5.03l-44.87 -15.09 42.97 -127.78 21.63 7.28 -16.71 49.7 23.86 8.03c9.64,3.24 16.91,6.26 21.92,9.03 5,2.77 9.45,7 13.39,12.68 3.37,4.78 5.29,10.08 5.76,15.94 0.52,5.87 -0.29,11.91 -2.39,18.16zm-22.41 -7.28c1.29,-3.87 1.77,-7.49 1.42,-10.88 -0.35,-3.37 -1.74,-6.49 -4.18,-9.36 -2.58,-2.95 -5.83,-5.36 -9.78,-7.07 -3.99,-1.78 -9.76,-3.94 -17.41,-6.51l-16.02 -5.39 -14.59 43.38 15.55 5.23c7.64,2.57 13.67,4.25 18.09,4.99 4.44,0.8 8.47,0.77 12.15,-0.04 3.78,-0.9 6.85,-2.49 9.16,-4.71 2.33,-2.26 4.2,-5.46 5.61,-9.64zm127.85 101.54l-25.85 -11.65 -16.85 -75.71 -10.25 -4.62 -25.52 56.6 -20.8 -9.38 55.41 -122.89 20.8 9.37 -24.1 53.44c5.39,2.35 10.5,3.29 15.23,2.84 4.75,-0.48 9.86,-3.23 15.26,-8.31 1.63,-1.48 3.48,-3.18 5.53,-5.2 2.07,-1.96 3.82,-3.75 5.21,-5.33 7.24,-7.59 14.61,-11.96 22.05,-13.08 7.45,-1.12 15.81,0.44 25.04,4.6l5.66 2.55 -8.14 18.04 -4.75 -2.14c-5.81,-2.62 -10.66,-3.4 -14.59,-2.42 -3.97,1.02 -8.35,4.2 -13.14,9.63 -4.93,5.47 -9.57,9.34 -14.01,11.64 -4.4,2.31 -8.71,3.62 -12.93,4.03l20.74 87.99zm143.23 3.69c-11.31,19.7 -24.76,32.12 -40.43,37.4 -15.67,5.22 -31.41,3.32 -47.22,-5.76 -16.33,-9.36 -25.99,-22.27 -28.95,-38.66 -3.03,-16.42 0.92,-34.11 11.82,-53.1 11.2,-19.52 24.7,-31.93 40.54,-37.19 15.83,-5.33 31.62,-3.45 47.37,5.59 15.81,9.07 25.38,21.73 28.74,37.96 3.31,16.26 -0.62,34.16 -11.87,53.76zm-20.44 -11.73c8.63,-15.06 12.3,-27.83 10.99,-38.34 -1.32,-10.49 -7.09,-18.64 -17.27,-24.49 -10.26,-5.88 -20.28,-6.78 -30.03,-2.64 -9.77,4.14 -18.95,13.75 -27.59,28.81 -8.38,14.59 -11.96,27.22 -10.72,37.95 1.23,10.73 7,19.04 17.26,24.92 10.1,5.8 20.07,6.63 29.88,2.41 9.81,-4.21 18.94,-13.74 27.48,-28.62zm181.68 122.19c-13.09,18.46 -27.65,29.57 -43.73,33.33 -16.12,3.79 -31.53,0.44 -46.24,-9.99 -14.43,-10.23 -22.53,-23.13 -24.24,-38.65 -1.72,-15.52 2.83,-31.8 13.73,-48.83l-19.43 -13.78 -35.62 50.25 -18.61 -13.19 77.96 -109.98 18.61 13.19 -31.75 44.8 19.83 14.05c12.13,-13.88 25.42,-22.05 39.96,-24.48 14.48,-2.42 28.41,1.1 41.8,10.58 15.52,11 23.82,24.76 24.91,41.3 1.09,16.55 -4.64,33.71 -17.18,51.4zm-19.23 -13.63c9.9,-13.96 14.78,-26.27 14.55,-36.89 -0.2,-10.66 -5.01,-19.31 -14.38,-25.96 -9.52,-6.74 -19.38,-8.42 -29.54,-5.02 -10.14,3.38 -20.12,12.02 -29.92,25.85 -9.73,13.72 -14.5,25.95 -14.33,36.73 0.17,10.78 4.98,19.5 14.43,26.19 9.37,6.65 19.08,8.38 29.13,5.15 10.05,-3.25 20.05,-11.92 30.06,-26.05zm117.46 239.15l-15.28 -14.53 22.48 -23.66 -64.73 -61.51 -22.49 23.67 -15.29 -14.53 35.61 -37.47 6.47 6.15c14.21,-3.85 30.01,-11.42 47.49,-22.73 17.44,-11.34 34.44,-25.68 50.97,-43.07l60.24 57.24 -79.58 83.74 9.72 9.23 -35.61 37.47zm9.36 -62.41l66.44 -69.94 -28.24 -26.83c-14.59,13.87 -29.27,25.29 -43.96,34.26 -14.64,9 -28.2,15.11 -40.65,18.42l46.41 44.09zm42.41 74.36l-14.97 -17.22 101.8 -88.38 14.96 17.23 -101.79 88.37zm120.12 -101.98l-17.08 -19.67 17.75 -15.41 17.08 19.68 -17.75 15.4zm-36.87 203.54l-14.13 -17.92 41.96 -33.08 -13.82 -17.53 -66.95 1.39 -16.48 -20.91 70.56 -0.13c-4.35,-10.85 -5.58,-20.34 -3.67,-28.43 1.89,-8.12 7.14,-15.58 15.76,-22.37 5.24,-4.14 10.76,-6.59 16.53,-7.39 5.76,-0.82 11.59,-0.3 17.39,1.49 4.63,1.47 9.39,4.24 14.24,8.2 4.86,4.03 9.62,9.01 14.31,14.95l30.17 38.28 -105.87 83.45zm41.82 -62.02l35.55 -28.03 -15.25 -19.35c-3.22,-4.08 -6.02,-7.16 -8.31,-9.19 -2.32,-2.01 -4.98,-3.65 -7.97,-4.87 -3.2,-1.17 -6.43,-1.42 -9.72,-0.72 -3.28,0.7 -6.26,2.09 -8.99,4.24 -3.46,2.73 -5.96,5.34 -7.5,7.87 -1.59,2.51 -2.43,5.49 -2.64,9.02 -0.11,3.74 0.75,7.42 2.67,11.07 1.89,3.66 4.37,7.39 7.36,11.19l14.8 18.77zm35.1 176.12l-12.34 -19.2 97.4 -62.56 -25.2 -39.23c-5.75,3.39 -11.25,6.63 -16.56,9.75 -5.28,3.14 -10.11,5.94 -14.42,8.43 -10.89,6.4 -20.22,11.41 -28,15.02 -7.8,3.64 -14.33,6.06 -19.62,7.36 -5.43,1.37 -9.96,1.97 -13.61,1.76 -3.66,-0.21 -7.21,-0.78 -10.69,-1.69 -3.51,-1.03 -6.62,-2.53 -9.33,-4.52 -2.7,-2 -5.14,-4.66 -7.29,-8 -0.69,-1.07 -1.54,-2.49 -2.58,-4.23 -0.99,-1.72 -1.72,-2.92 -2.17,-3.63l16.65 -10.69 0.66 1.01c0.31,0.48 0.58,1 0.84,1.57 0.25,0.53 0.6,1.14 1.04,1.83 1.05,1.64 2.33,3.09 3.77,4.36 1.48,1.22 3.26,2.09 5.33,2.48 5.49,1.24 12.89,0.02 22.13,-3.75 9.3,-3.75 21.59,-10.09 36.89,-18.93 5.74,-3.29 12.45,-7.25 20.16,-11.86 7.71,-4.62 15.07,-9.05 22.1,-13.27l48.27 75.14 -113.43 72.85zm102.4 99.31c-5.83,3 -11.67,4.52 -17.59,4.63 -5.95,0.07 -11.38,-1.13 -16.38,-3.63 -6.03,-2.89 -11.17,-6.67 -15.43,-11.26 -4.28,-4.64 -8.62,-11.15 -12.98,-19.64l-21.64 -42.1 119.89 -61.64 10.43 20.29 -46.63 23.98 11.51 22.39c4.65,9.05 7.76,16.28 9.42,21.75 1.65,5.47 1.9,11.62 0.76,18.44 -0.92,5.77 -3.24,10.91 -6.98,15.44 -3.72,4.56 -8.52,8.33 -14.38,11.35zm-10.99 -20.85c3.63,-1.86 6.5,-4.12 8.6,-6.8 2.11,-2.66 3.28,-5.87 3.53,-9.62 0.21,-3.92 -0.44,-7.91 -2.07,-11.9 -1.63,-4.05 -4.27,-9.63 -7.95,-16.8l-7.73 -15.03 -40.7 20.93 7.5 14.59c3.69,7.18 6.84,12.57 9.49,16.19 2.62,3.67 5.53,6.45 8.74,8.43 3.34,1.99 6.64,3 9.85,3.02 3.25,0 6.82,-0.99 10.74,-3.01zm27.68 156.73l-9.44 -20.78 54.96 -24.95 -25.33 -55.79 -54.96 24.95 -9.43 -20.78 122.76 -55.72 9.42 20.77 -49.78 22.6 25.33 55.79 49.79 -22.6 9.43 20.79 -122.75 55.72zm17.98 53.46l-7.31 -21.61 127.7 -43.19 7.31 21.62 -127.7 43.18zm149.82 -48.82l-8.34 -24.68 22.25 -7.53 8.35 24.68 -22.26 7.53zm-126.4 132.39c-2.54,-8.94 -3.5,-17.53 -2.89,-25.78 0.62,-8.22 2.94,-15.85 7.01,-22.8 4.02,-6.96 9.85,-13.09 17.49,-18.5 7.65,-5.36 17.18,-9.66 28.63,-12.93 11.38,-3.24 21.66,-4.5 30.81,-3.8 9.17,0.7 17.27,2.82 24.4,6.33 7.1,3.53 13.28,8.68 18.51,15.48 5.25,6.77 9.14,14.56 11.65,23.34 2.03,7.16 3.01,14.35 2.88,21.58 -0.13,7.21 -0.78,13.81 -1.9,19.76l-24.51 6.99 -0.36 -1.28c0.86,-1.92 1.79,-4.38 2.8,-7.33 0.97,-2.9 1.87,-6.38 2.65,-10.38 0.65,-3.46 0.98,-7.42 0.94,-11.88 -0.02,-4.47 -0.57,-8.61 -1.65,-12.43 -3.24,-11.33 -10.12,-19.25 -20.62,-23.7 -10.48,-4.45 -23.5,-4.47 -39.14,-0.01 -15.26,4.35 -26.24,11.09 -32.87,20.15 -6.63,9.08 -8.27,19.56 -4.9,31.37 2.03,7.16 5.46,13.58 10.22,19.18 4.75,5.66 10.16,10.26 16.2,13.96l0.37 1.27 -24.51 6.99c-1.65,-1.9 -3.61,-4.26 -5.96,-7.11 -2.4,-2.84 -4.29,-5.54 -5.75,-7.96 -2.14,-3.43 -3.92,-6.54 -5.36,-9.31 -1.44,-2.81 -2.8,-6.55 -4.14,-11.2zm153.07 128.56l-10.41 -44.96 -112.06 25.95 -5.15 -22.24 112.06 -25.94 -10.41 -44.95 19.29 -4.47 25.95 112.14 -19.27 4.47zm-22.6 198.38c-22.44,2.88 -40.47,-0.32 -54.13,-9.61 -13.71,-9.3 -21.68,-22.91 -23.97,-40.79 -2.25,-17.55 1.78,-32.24 12.03,-44.01 10.26,-11.77 25.32,-19.45 45.23,-22.96l-3.02 -23.62 -61.09 7.81 -2.9 -22.63 133.72 -17.11 2.9 22.63 -54.46 6.97 3.08 24.12c18.43,-0.48 33.44,3.76 45.07,12.82 11.59,9.02 18.44,21.65 20.52,37.93 2.42,18.87 -2.1,34.28 -13.52,46.29 -11.44,12.01 -27.95,19.41 -49.46,22.16zm-2.99 -23.37c16.97,-2.17 29.34,-6.92 37,-14.28 7.71,-7.37 10.82,-16.76 9.35,-28.16 -1.47,-11.57 -6.91,-19.95 -16.29,-25.13 -9.36,-5.19 -22.48,-6.67 -39.28,-4.52 -16.69,2.13 -28.93,6.9 -36.74,14.32 -7.81,7.42 -10.97,16.88 -9.5,28.36 1.46,11.4 6.76,19.72 15.94,24.92 9.2,5.2 22.35,6.68 39.52,4.49zm15.65 128.32c19.37,0.48 34.99,2.87 46.73,7.14 11.77,4.33 20.77,10.49 26.95,18.54 6.18,8.02 9.1,18.02 8.8,29.97 -0.22,8.82 -2.16,16.51 -5.89,23.13 -3.71,6.58 -8.96,11.97 -15.76,16.09 -6.75,4.12 -14.97,7.3 -24.63,9.51 -9.66,2.26 -22.63,3.16 -38.87,2.75 -19.25,-0.48 -34.8,-2.86 -46.54,-7.1 -11.8,-4.24 -20.77,-10.4 -26.99,-18.46 -6.23,-8.01 -9.18,-18.06 -8.88,-30.09 0.39,-15.82 6.31,-28.13 17.81,-36.89 14.03,-10.51 36.43,-15.36 67.27,-14.59zm-0.59 20.69c-27.01,-0.67 -45.05,2.02 -54.07,8.12 -9.06,6.1 -13.69,13.81 -13.92,23.08 -0.23,9.28 4.04,17.21 12.79,23.74 8.78,6.55 26.61,10.14 53.56,10.81 27.02,0.67 45.05,-2.02 54.07,-8.13 9.05,-6.06 13.68,-13.84 13.91,-23.3 0.23,-9.28 -3.51,-16.8 -11.21,-22.55 -9.8,-7.19 -28.2,-11.1 -55.13,-11.77zm-5.36 115.36c19.21,2.46 34.51,6.43 45.76,11.88 11.27,5.51 19.58,12.56 24.91,21.2 5.33,8.61 7.21,18.86 5.7,30.71 -1.12,8.75 -3.84,16.2 -8.23,22.41 -4.36,6.16 -10.14,10.98 -17.32,14.39 -7.14,3.41 -15.64,5.73 -25.48,6.94 -9.83,1.26 -22.82,0.83 -38.95,-1.23 -19.1,-2.45 -34.32,-6.4 -45.57,-11.82 -11.29,-5.43 -19.59,-12.47 -24.96,-21.13 -5.36,-8.6 -7.29,-18.89 -5.75,-30.83 2,-15.7 9.15,-27.34 21.49,-34.88 15.02,-9.02 37.8,-11.55 68.4,-7.64zm-2.7 20.52c-26.8,-3.42 -45.02,-2.59 -54.62,2.56 -9.64,5.14 -15.02,12.33 -16.2,21.53 -1.18,9.21 2.26,17.53 10.3,24.93 8.06,7.41 25.44,12.8 52.17,16.22 26.8,3.43 45.02,2.59 54.61,-2.56 9.63,-5.1 15.03,-12.37 16.23,-21.76 1.18,-9.2 -1.78,-17.07 -8.85,-23.58 -9.01,-8.15 -26.92,-13.92 -53.64,-17.34zm50.48 212.18l-5.94 20.82 -144.54 42.92 122.36 34.88 -5.68 19.91 -157.9 -45.02 5.96 -20.87 144.04 -43.26 -121.81 -34.73 5.61 -19.68 157.9 45.03zm-111.04 112.04c12.75,3.64 21.87,10.11 27.41,19.41 5.52,9.36 6.6,19.91 3.24,31.7 -3.35,11.76 -9.92,20.01 -19.71,24.79 -9.76,4.83 -21.23,5.34 -34.43,1.58 -13.33,-3.8 -22.85,-10.43 -28.55,-19.86 -5.71,-9.48 -6.9,-20.14 -3.52,-32.01 2.92,-10.21 9,-18.15 18.21,-23.82 9.2,-5.66 21.66,-6.26 37.35,-1.79zm-5.95 18.63c-9.66,-2.75 -17.53,-2.92 -23.51,-0.45 -6.04,2.48 -9.85,6.53 -11.46,12.2 -1.51,5.27 -0.5,10.62 3.07,16.06 3.57,5.45 10.17,9.52 19.8,12.27 10.11,2.88 18.02,2.86 23.76,-0.09 5.72,-2.95 9.28,-6.96 10.73,-12 1.55,-5.46 0.53,-10.81 -3.05,-16.09 -3.54,-5.28 -10,-9.24 -19.34,-11.9zm-50.77 -32.41l-20.93 73.43 -15.88 -4.53 20.94 -73.43 15.87 4.53zm12.2 117.61c17.65,8 31.09,16.29 40.24,24.81 9.16,8.58 15.03,17.76 17.58,27.58 2.57,9.8 1.35,20.15 -3.59,31.04 -3.64,8.02 -8.44,14.35 -14.44,18.99 -5.99,4.61 -12.93,7.52 -20.8,8.66 -7.82,1.17 -16.64,0.88 -26.39,-0.85 -9.76,-1.69 -22.07,-5.93 -36.86,-12.64 -17.54,-7.95 -30.92,-16.21 -40.08,-24.69 -9.2,-8.51 -15.07,-17.69 -17.64,-27.54 -2.61,-9.8 -1.42,-20.2 3.56,-31.16 6.54,-14.41 16.79,-23.44 30.79,-27.02 17.01,-4.2 39.54,0.08 67.63,12.82zm-8.62 18.82c-24.61,-11.16 -42.27,-15.72 -52.95,-13.62 -10.72,2.07 -17.99,7.37 -21.82,15.82 -3.83,8.44 -2.99,17.41 2.52,26.85 5.52,9.45 20.54,19.71 45.09,30.84 24.61,11.16 42.26,15.72 52.95,13.62 10.7,-2.05 18,-7.41 21.92,-16.03 3.83,-8.45 3.32,-16.84 -1.53,-25.13 -6.22,-10.44 -21.64,-21.22 -46.18,-32.35zm-46.61 105.29c16.8,9.67 29.38,19.21 37.67,28.57 8.29,9.42 13.25,19.12 14.85,29.14 1.6,10 -0.6,20.19 -6.56,30.55 -4.39,7.64 -9.78,13.48 -16.21,17.52 -6.39,4.01 -13.58,6.24 -21.53,6.62 -7.9,0.4 -16.64,-0.73 -26.18,-3.39 -9.56,-2.62 -21.39,-8.02 -35.48,-16.12 -16.7,-9.6 -29.21,-19.11 -37.52,-28.43 -8.33,-9.36 -13.29,-19.05 -14.91,-29.11 -1.65,-10 0.53,-20.24 6.54,-30.68 7.89,-13.71 18.97,-21.71 33.25,-23.93 17.34,-2.54 39.34,3.88 66.08,19.26zm-10.39 17.91c-23.42,-13.48 -40.55,-19.72 -51.4,-18.65 -10.87,1.04 -18.61,5.61 -23.23,13.65 -4.62,8.04 -4.65,17.05 -0.08,26.97 4.59,9.94 18.56,21.6 41.92,35.03 23.42,13.48 40.55,19.71 51.4,18.65 10.84,-1.01 18.63,-5.64 23.35,-13.85 4.62,-8.04 4.92,-16.44 0.89,-25.17 -5.17,-10.98 -19.49,-23.2 -42.85,-36.63zm-55.58 96.28c16.3,10.48 28.4,20.64 36.22,30.39 7.81,9.82 12.29,19.76 13.38,29.85 1.12,10.06 -1.58,20.13 -8.05,30.18 -4.77,7.41 -10.43,12.98 -17.05,16.7 -6.6,3.69 -13.89,5.56 -21.83,5.55 -7.91,0.01 -16.59,-1.55 -25.99,-4.68 -9.42,-3.09 -20.97,-9.06 -34.64,-17.85 -16.2,-10.42 -28.23,-20.53 -36.06,-30.25 -7.88,-9.76 -12.34,-19.69 -13.47,-29.81 -1.15,-10.07 1.54,-20.19 8.05,-30.32 8.56,-13.31 20.02,-20.74 34.39,-22.26 17.45,-1.68 39.11,5.82 65.05,22.5zm-11.25 17.37c-22.73,-14.61 -39.54,-21.69 -50.42,-21.16 -10.91,0.5 -18.86,4.68 -23.88,12.48 -5.02,7.81 -5.49,16.8 -1.41,26.94 4.1,10.15 17.47,22.49 40.14,37.06 22.72,14.61 39.53,21.69 50.41,21.16 10.89,-0.47 18.89,-4.71 24,-12.68 5.03,-7.8 5.74,-16.18 2.15,-25.09 -4.64,-11.23 -18.33,-24.14 -40.99,-38.71zm-123.92 36.02l103.56 142.67 -10.09 12.79 -103.56 -142.68 10.09 -12.78zm18.68 113.31c14.64,12.7 25.16,24.48 31.5,35.26 6.33,10.83 9.34,21.3 8.99,31.45 -0.34,10.12 -4.45,19.69 -12.29,28.72 -5.78,6.65 -12.18,11.35 -19.26,14.09 -7.05,2.7 -14.54,3.51 -22.4,2.37 -7.84,-1.12 -16.2,-3.9 -25.06,-8.35 -8.87,-4.4 -19.45,-11.97 -31.73,-22.62 -14.54,-12.63 -25.01,-24.35 -31.36,-35.1 -6.39,-10.78 -9.4,-21.25 -9.07,-31.42 0.3,-10.14 4.41,-19.77 12.31,-28.86 10.36,-11.95 22.78,-17.67 37.22,-17.11 17.5,0.82 37.87,11.35 61.15,31.57zm-13.62 15.58c-20.4,-17.71 -36.03,-27.12 -46.87,-28.15 -10.87,-1.07 -19.34,1.93 -25.42,8.93 -6.08,7.01 -7.83,15.85 -5.24,26.46 2.59,10.64 14.07,24.76 34.42,42.42 20.4,17.72 36.02,27.12 46.88,28.16 10.84,1.08 19.35,-1.97 25.56,-9.12 6.09,-7 7.98,-15.19 5.7,-24.53 -2.97,-11.77 -14.68,-26.51 -35.03,-44.17zm-185.97 80.67l14.67 -13.94 88.51 93.15c0.31,-6.73 1.77,-14.49 4.31,-23.28 2.53,-8.8 5.31,-16.22 8.28,-22.22l13.42 14.13c-4.56,11.62 -7.3,23.08 -8.23,34.41 -0.95,11.28 -0.28,20.72 2.05,28.3l-9.44 8.97 -113.57 -119.52zm-46.58 42.8l15 17.34 -17.4 15.04 -14.99 -17.34 17.39 -15.04zm10.06 98.15c11.94,15.26 20.02,28.83 24.19,40.61 4.15,11.84 5.11,22.7 2.82,32.59 -2.25,9.87 -8.12,18.48 -17.54,25.85 -6.94,5.43 -14.12,8.83 -21.59,10.16 -7.44,1.31 -14.94,0.68 -22.44,-1.94 -7.48,-2.6 -15.15,-6.92 -23.01,-12.97 -7.87,-6.02 -16.81,-15.46 -26.83,-28.26 -11.87,-15.17 -19.91,-28.67 -24.1,-40.44 -4.22,-11.79 -5.18,-22.64 -2.91,-32.57 2.23,-9.89 8.1,-18.56 17.58,-25.98 12.47,-9.75 25.73,-13 39.8,-9.7 17.03,4.14 35.01,18.36 54.03,42.65zm-16.35 12.7c-16.65,-21.28 -30.2,-33.5 -40.65,-36.58 -10.45,-3.12 -19.35,-1.79 -26.65,3.93 -7.31,5.72 -10.71,14.06 -10.2,24.97 0.53,10.94 9.1,26.99 25.71,48.21 16.65,21.28 30.19,33.49 40.64,36.57 10.44,3.14 19.38,1.76 26.84,-4.07 7.3,-5.72 10.73,-13.4 10.27,-22.99 -0.67,-12.13 -9.35,-28.83 -25.96,-50.04zm-91.77 69.04c10.46,16.32 17.23,30.6 20.27,42.72 3.01,12.18 2.94,23.08 -0.26,32.71 -3.18,9.61 -9.83,17.64 -19.9,24.08 -7.42,4.76 -14.89,7.46 -22.45,8.08 -7.53,0.61 -14.95,-0.73 -22.17,-4.05 -7.2,-3.28 -14.44,-8.32 -21.68,-15.08 -7.27,-6.73 -15.28,-16.97 -24.04,-30.66 -10.39,-16.22 -17.12,-30.42 -20.19,-42.53 -3.09,-12.14 -3.01,-23.03 0.18,-32.7 3.15,-9.64 9.81,-17.72 19.94,-24.21 13.33,-8.53 26.85,-10.52 40.55,-5.91 16.56,5.74 33.12,21.58 49.75,47.55zm-17.46 11.11c-14.58,-22.75 -26.92,-36.19 -37.01,-40.24 -10.13,-4.1 -19.11,-3.61 -26.92,1.39 -7.81,5.01 -11.99,12.99 -12.51,23.9 -0.5,10.94 6.52,27.73 21.05,50.42 14.58,22.75 26.91,36.18 37.02,40.24 10.1,4.1 19.13,3.58 27.11,-1.53 7.81,-5 11.94,-12.32 12.39,-21.92 0.47,-12.14 -6.61,-29.57 -21.13,-52.26zm-144.67 -6.34l11.39 19.9 -19.95 11.43 -11.39 -19.9 19.95 -11.43zm-12.02 100.86c7.96,17.67 12.58,32.77 13.83,45.21 1.2,12.49 -0.45,23.26 -5.03,32.32 -4.54,9.05 -12.28,16.02 -23.18,20.93 -8.04,3.63 -15.82,5.21 -23.4,4.72 -7.53,-0.49 -14.67,-2.89 -21.33,-7.23 -6.65,-4.29 -13.08,-10.32 -19.25,-18.07 -6.22,-7.72 -12.66,-19.02 -19.34,-33.83 -7.91,-17.56 -12.5,-32.59 -13.78,-45.02 -1.28,-12.46 0.37,-23.22 4.94,-32.32 4.52,-9.08 12.29,-16.11 23.26,-21.05 14.42,-6.51 28.09,-6.5 40.97,0.05 15.54,8.09 29.63,26.17 42.31,54.29zm-18.91 8.44c-11.1,-24.63 -21.35,-39.72 -30.75,-45.2 -9.43,-5.52 -18.37,-6.35 -26.84,-2.53 -8.45,3.81 -13.75,11.1 -15.84,21.82 -2.1,10.75 2.4,28.38 13.48,52.95 11.12,24.63 21.36,39.71 30.77,45.19 9.39,5.53 18.4,6.33 27.04,2.44 8.45,-3.82 13.61,-10.45 15.45,-19.88 2.23,-11.95 -2.22,-30.23 -13.31,-54.79zm-101.51 45.32c7.09,18.04 10.97,33.35 11.59,45.84 0.59,12.53 -1.58,23.21 -6.6,32.03 -4.98,8.81 -13.07,15.39 -24.19,19.77 -8.2,3.22 -16.05,4.42 -23.59,3.56 -7.51,-0.86 -14.51,-3.61 -20.96,-8.27 -6.43,-4.62 -12.55,-10.96 -18.33,-19 -5.84,-8.01 -11.72,-19.61 -17.65,-34.74 -7.05,-17.92 -10.9,-33.16 -11.56,-45.63 -0.67,-12.52 1.52,-23.18 6.52,-32.05 4.97,-8.85 13.07,-15.48 24.27,-19.88 14.72,-5.79 28.37,-5.11 40.92,2.07 15.13,8.84 28.31,27.6 39.58,56.3zm-19.29 7.5c-9.88,-25.14 -19.37,-40.72 -28.51,-46.65 -9.13,-5.99 -18.03,-7.25 -26.66,-3.85 -8.64,3.39 -14.28,10.41 -16.91,21.01 -2.62,10.64 1.01,28.46 10.87,53.55 9.89,25.14 19.37,40.71 28.51,46.65 9.11,5.99 18.07,7.22 26.89,3.76 8.62,-3.39 14.11,-9.77 16.4,-19.1 2.82,-11.81 -0.74,-30.29 -10.59,-55.37z"/>
  </g>
  <path class="fil2" d="M2051.69 964.36c600.85,0 1087.92,486.68 1087.92,1087.04 0,600.36 -487.07,1087.04 -1087.92,1087.04 -600.85,0 -1087.92,-486.68 -1087.92,-1087.04 0,-600.36 487.07,-1087.04 1087.92,-1087.04z"/>
  <path class="fil1 str2" d="M877.48 2124.36l4.2 34.06 -224.42 27.71 14.44 116.91 224.42 -27.71 4.21 34.06 -254.54 31.43 -22.85 -185.03 254.54 -31.43zm-97.56 -215.04c31.98,0.92 57.25,9.37 75.79,25.31 18.54,15.98 27.5,35.77 26.82,59.34 -0.28,9.55 -1.65,18.01 -4.03,25.37 -2.39,7.3 -5.95,14.81 -10.77,22.4l80.41 2.32 -0.94 32.54 -263.08 -7.59 0.95 -32.54 20.16 0.58c-7,-8.28 -12.79,-17.47 -17.38,-27.46 -4.6,-10.04 -6.69,-20.9 -6.36,-32.5 0.64,-22.23 9.85,-39.24 27.66,-51.18 17.81,-11.93 41.37,-17.44 70.77,-16.59zm2.49 33.69c-21.92,-0.64 -39,2.41 -51.32,9.08 -12.31,6.72 -18.69,17.98 -19.15,33.84 -0.26,9.19 1.53,18.21 5.34,26.93 3.81,8.73 8.8,17.07 15.05,24.97l108.84 3.14c4.42,-8.42 7.46,-15.65 9.1,-21.67 1.65,-6.04 2.61,-12.97 2.83,-20.81 0.49,-16.91 -5.25,-30.17 -17.26,-39.9 -12.01,-9.72 -29.81,-14.9 -53.43,-15.58zm112.9 -96.52l-5.84 32.03 -189.15 -34.52 5.85 -32.02 189.14 34.51zm-220.62 -42.78l-6.67 36.55 -32.97 -6.02 6.66 -36.54 32.98 6.01zm211.28 -141.75c10.35,2.92 18.49,7.66 24.39,14.23 5.86,6.55 9.92,14.01 12.12,22.28 2.16,7.9 3.01,16.41 2.55,25.65 -0.45,9.18 -1.87,18.09 -4.32,26.78 -3.42,12.15 -7.85,23.33 -13.29,33.56 -5.43,10.17 -12.28,19.94 -20.56,29.19l-34.58 -9.74 0.56 -1.99c9.01,-5.55 17.15,-13.42 24.35,-23.58 7.22,-10.22 12.38,-20.96 15.54,-32.2 1.38,-4.88 2.32,-10.19 2.89,-16.09 0.49,-5.87 0.23,-11.03 -0.88,-15.5 -1.63,-5.92 -3.9,-10.48 -6.74,-13.6 -2.91,-3.15 -7.41,-5.59 -13.53,-7.31 -6.56,-1.85 -12.17,-2.08 -16.81,-0.75 -4.74,1.36 -8.63,3.94 -11.83,7.69 -3.18,3.7 -5.72,8.2 -7.73,13.38 -2.02,5.2 -3.85,10.81 -5.53,16.76l-6.13 21.8 -27.17 -7.65 4.68 -16.64c1.19,-4.19 2.54,-9.45 4.03,-15.82 1.48,-6.33 2.04,-11.56 1.62,-15.72 -0.42,-5.2 -1.85,-9.71 -4.33,-13.47 -2.41,-3.8 -7.49,-6.77 -15.26,-8.95 -5.36,-1.52 -10.05,-1.56 -14.09,-0.06 -3.97,1.52 -7.42,3.8 -10.3,6.91 -3.04,3.18 -5.55,6.88 -7.54,11.1 -1.96,4.17 -3.5,8.33 -4.65,12.42 -2.94,10.44 -4.3,20.89 -4.13,31.36 0.22,10.48 2.19,19.97 5.96,28.51l-0.57 1.98 -33.67 -9.48c-0.53,-8.73 -0.48,-18.27 0.17,-28.56 0.62,-10.24 2.29,-20.25 5.03,-30.01 2.22,-7.89 5.25,-15.61 9.19,-23.32 3.87,-7.67 8.76,-14.63 14.73,-20.85 5.67,-5.81 12.5,-10.07 20.37,-12.88 7.93,-2.79 16.63,-2.86 26.19,-0.16 10.07,2.83 18.1,8.16 24.09,15.97 5.97,7.87 8.84,16.76 8.68,26.89l1.13 0.32c6.41,-9.35 14.23,-16.27 23.32,-20.81 9.16,-4.53 19.82,-5.08 32.05,-1.64zm70.42 -180.12c8.47,3.83 15.29,8.86 20.34,15.1 5.09,6.17 8.56,13.19 10.39,20.82 2.29,9.64 2.66,18.8 1.08,27.54 -1.59,8.66 -4.88,18.5 -9.81,29.41l-31.3 69.13 -175.16 -79.29 29.26 -64.63c5.85,-12.94 10.52,-22.21 14.02,-27.82 3.47,-5.68 8.18,-10.66 14.07,-15.12 6.16,-4.64 12.63,-7.22 19.53,-7.65 6.86,-0.47 14.05,1.04 21.65,4.48 8.36,3.78 14.82,9.49 19.37,17.12 4.52,7.55 6.89,16 7,25.31l1.43 -0.32c6.72,-8.42 15.19,-14.16 25.45,-17.29 10.24,-3.07 21.11,-2.02 32.68,3.21zm-95.01 4.76c-3.98,-1.8 -7.69,-2.71 -11.17,-2.72 -3.5,0.03 -6.82,1.23 -9.94,3.71 -3.63,2.89 -6.7,6.54 -9.17,10.99 -2.5,4.51 -5.58,10.88 -9.3,19.1l-12.66 27.98 47.56 21.53 15.3 -33.78c3.26,-7.2 5.25,-12.45 5.9,-15.77 0.73,-3.3 0.81,-7.34 0.25,-11.94 -0.45,-4.41 -2.2,-8.1 -5.02,-11.13 -2.88,-3.05 -6.78,-5.72 -11.75,-7.97zm81.06 25.81c-6.01,-2.71 -11.22,-4.04 -15.59,-3.94 -4.41,0.06 -9.37,2.43 -14.82,6.95 -3.48,2.82 -6.33,6.26 -8.66,10.26 -2.31,3.99 -5.15,9.69 -8.51,17.11l-15.65 34.59 57.52 26.04 11.55 -25.52c4.79,-10.58 8.05,-18.94 9.85,-25.18 1.84,-6.22 2.4,-11.98 1.77,-17.32 -0.76,-5.58 -2.46,-10.24 -5.09,-13.83 -2.7,-3.61 -6.81,-6.64 -12.37,-9.16zm165.77 -164.96l-17.51 27.42 -120.87 -77.19 72.35 153.17 -16.04 25.1 -162.04 -103.49 17.52 -27.43 118.99 75.99 -71 -151.13 16.57 -25.93 162.03 103.49zm233.11 -184.78l-20.8 21.73 -33.38 -31.95 -150.43 157.19 -138.91 -132.93 22.51 -23.52 119.28 114.16 45.25 -47.29 -119.29 -114.15 22.52 -23.52 119.28 114.16 45.25 -47.29 -119.29 -114.15 22.51 -23.52 119.29 114.16 13.2 -13.81 53.01 50.73zm69.04 -89.5c-25.95,16.56 -50.78,22.15 -74.4,16.79 -23.64,-5.35 -43.98,-21.46 -61.05,-48.23 -16.83,-26.37 -23.25,-51.77 -19.29,-76.27 3.9,-24.47 17.14,-43.86 39.6,-58.19 10.14,-6.47 20.01,-10.73 29.63,-12.76 9.63,-2.1 19.36,-1.89 29.13,0.6 9.82,2.45 19.09,7.13 27.9,14.14 8.82,6.92 17.35,16.89 25.61,29.83l9.46 14.82 -113.04 72.12c11.98,18.78 25.92,30.11 41.79,33.94 15.9,3.87 32.29,0.39 49.13,-10.36 6.02,-3.84 11.55,-8.33 16.45,-13.35 4.96,-5.05 9.05,-10.16 12.37,-15.27 3.54,-5.41 6.4,-10.24 8.46,-14.48 2.1,-4.26 3.66,-8.05 4.73,-11.31l1.6 -1.02 19 29.79c-2.45,3.3 -5.4,7.43 -8.97,12.35 -3.57,4.93 -6.9,9.15 -10.02,12.6 -4.45,4.86 -8.54,9.08 -12.37,12.63 -3.84,3.5 -9.11,7.42 -15.72,11.63zm-33.25 -123.15c-4.87,-7.21 -9.81,-12.98 -14.74,-17.3 -4.93,-4.33 -10.09,-7.38 -15.31,-9.21 -5.8,-1.95 -11.9,-2.44 -18.29,-1.37 -6.38,1.07 -13.27,3.99 -20.72,8.75 -7.3,4.66 -12.82,9.72 -16.55,15.17 -3.73,5.44 -6.41,11.55 -7.93,18.38 -1.4,6.89 -1.48,13.57 -0.38,20.11 1.15,6.53 3.66,13.43 7.43,20.64l86.49 -55.17zm304.79 -14.52l-93.09 36.83 -9.6 -24.28 30.58 -12.1 -75.16 -189.93 -30.59 12.1 -9.59 -24.27 93.08 -36.83 9.61 24.27 -30.6 12.1 75.15 189.93 30.6 -12.1 9.61 24.28zm212.41 -52.15l-31.71 7.32 -33.98 -147.24 -23.02 106.09 -23.55 5.43 -66.85 -85.34 33.99 147.24 -29.66 6.84 -43.23 -187.35 38.21 -8.81 73.48 92.62 23.79 -115.07 39.29 -9.07 43.24 187.34zm35.38 -163.15l-11.51 -46.35 -3.2 -42.04 35.26 -2.68 3.21 42.03 -4.72 47.59 -19.04 1.45zm219.31 160.18l-32.53 -0.94 2.19 -76.17 -31.82 -0.91 -59.73 74.51 -37.95 -1.1 64.41 -77.31c-15.84,-5.16 -27.37,-12.5 -34.47,-22 -7.16,-9.5 -10.52,-22.07 -10.07,-37.7 0.28,-9.52 2.65,-17.8 7.03,-24.85 4.39,-7.06 10.29,-12.94 17.56,-17.67 5.83,-3.72 13.22,-6.38 22,-8.07 8.84,-1.63 18.65,-2.3 29.43,-1.98l69.49 2 -5.54 192.19zm-29.61 -102.5l1.87 -64.53 -35.13 -1.01c-7.42,-0.22 -13.33,0.02 -17.65,0.67 -4.33,0.69 -8.57,2.1 -12.64,4.28 -4.2,2.41 -7.42,5.73 -9.66,9.95 -2.24,4.23 -3.43,8.79 -3.58,13.73 -0.18,6.28 0.38,11.42 1.73,15.4 1.3,4.03 3.79,7.69 7.46,11.15 3.97,3.53 8.81,5.96 14.54,7.18 5.75,1.29 12.1,2 19,2.2l34.06 0.98zm367.74 176.02l-33.08 -9.11 59.99 -218.03 -113.58 -31.25 -59.99 218.03 -33.1 -9.1 68.05 -247.28 179.75 49.45 -68.04 247.29zm229.4 10.78c-14.67,28.88 -32.94,47.56 -54.86,56.21 -21.95,8.58 -44.49,7.02 -67.68,-4.75 -23.92,-12.15 -38.62,-29.83 -44.06,-52.97 -5.51,-23.17 -1.16,-48.65 12.98,-76.49 14.53,-28.63 32.86,-47.28 55.03,-55.93 22.17,-8.73 44.79,-7.2 67.88,4.52 23.19,11.77 37.72,29.11 43.7,51.99 5.88,22.91 1.59,48.69 -12.99,77.42zm-29.96 -15.22c11.2,-22.07 15.48,-40.54 12.84,-55.39 -2.63,-14.87 -11.45,-26.05 -26.37,-33.63 -15.03,-7.64 -29.36,-8.19 -42.98,-1.58 -13.6,6.61 -25.99,20.96 -37.19,43.04 -10.86,21.39 -15.03,39.64 -12.5,54.84 2.53,15.2 11.36,26.6 26.4,34.24 14.82,7.53 29.07,7.96 42.74,1.25 13.65,-6.71 25.98,-20.96 37.06,-42.77zm316.91 160.68c0.09,10.66 -2.31,21.62 -7.42,32.93 -5.05,11.27 -12.89,22.47 -23.55,33.61 -10.23,10.71 -21.41,18.97 -33.55,24.86 -12.1,5.84 -24.02,9.09 -35.84,9.76 -12.18,0.71 -23.45,-0.72 -33.88,-4.41 -10.41,-3.69 -19.92,-9.62 -28.5,-17.81 -8.73,-8.35 -15.28,-17.53 -19.64,-27.48 -4.41,-9.98 -6.16,-20.61 -5.27,-31.87 1.17,-14.02 5.78,-28.48 13.95,-43.43 8.14,-14.92 20.58,-31.18 37.36,-48.73 5.92,-6.21 12.27,-12.34 18.97,-18.23 6.72,-5.93 15.26,-12.48 25.63,-19.74 9.3,-6.4 18.64,-11.64 27.98,-15.79 9.45,-4.16 18.62,-6.43 27.78,-6.8 11.73,-0.49 24.13,1.99 37.13,7.42 13.07,5.43 28.1,14.98 45.11,28.57 6.08,4.83 12.5,10.07 19.3,15.67 6.79,5.6 11.97,9.91 15.54,12.83l-20.72 21.68c-4.54,-3.87 -9.43,-7.97 -14.7,-12.27 -5.26,-4.3 -11.26,-9.22 -18.06,-14.73 -8.95,-7.35 -19.16,-14.25 -30.48,-20.68 -11.28,-6.46 -21.56,-9.45 -30.78,-9.09 -6.87,0.18 -14.52,2.64 -22.95,7.27 -8.37,4.68 -16.9,10.69 -25.51,17.99 10.33,1.49 20.51,4.06 30.39,7.73 9.91,3.7 18.96,9.42 27.1,17.2 7.54,7.21 13.49,15.34 17.91,24.37 4.38,9.06 6.61,18.75 6.7,29.17zm-56.14 45.25c14.06,-14.71 21.54,-29.2 22.41,-43.41 0.87,-14.22 -4.82,-27.22 -17.09,-38.95 -6.74,-6.44 -14.32,-11.57 -22.71,-15.43 -8.41,-3.82 -17.13,-6.55 -26.18,-8.19 -2.16,1.92 -4.68,4.22 -7.57,6.91 -2.94,2.72 -5.5,5.24 -7.69,7.53 -13.81,14.46 -23.92,27.33 -30.23,38.62 -6.35,11.25 -9.89,21.45 -10.64,30.58 -0.71,8.19 0.16,15.21 2.59,20.94 2.48,5.77 6.14,10.99 11.04,15.68 11.93,11.4 25.53,15.78 40.85,13.08 15.25,-2.66 30.31,-11.76 45.22,-27.36zm87.04 169.36l41.58 -33c-5.31,-5.57 -12.1,-12.61 -20.32,-21.06 -8.25,-8.51 -15.48,-14.88 -21.66,-19.17 -7.42,-5.1 -14.99,-8.19 -22.72,-9.22 -7.72,-1.03 -15.41,1.47 -23.01,7.5 -8.56,6.8 -13.12,14.4 -13.65,22.72 -0.51,8.33 2.87,17.15 10.28,26.48 6.38,8.04 13.8,13.88 22.38,17.61 8.55,3.76 17.62,6.5 27.12,8.14zm-21.05 16.71c-3.22,-0.84 -7.53,-1.93 -13.05,-3.2 -5.46,-1.3 -10.32,-2.88 -14.49,-4.83 -5.94,-2.67 -11.18,-5.58 -15.76,-8.79 -4.54,-3.17 -9.84,-8.53 -15.86,-16.1 -4.94,-6.24 -8.45,-13.02 -10.53,-20.47 -2.09,-7.46 -2.7,-14.94 -1.84,-22.55 0.95,-7.31 3.5,-14.6 7.64,-21.88 4.09,-7.23 9.54,-13.51 16.31,-18.88 10.45,-8.3 21.05,-13.1 31.91,-14.56 10.84,-1.38 22.18,0.99 34.05,7.07 10.57,5.38 21.2,13.28 31.8,23.61 10.64,10.38 21.61,21.93 32.91,34.64l4.92 -3.91c5.99,-4.75 10.09,-9.52 12.34,-14.24 2.26,-4.72 3.13,-9.49 2.55,-14.29 -0.49,-4.96 -2.21,-9.99 -5.26,-15.24 -3.02,-5.21 -6.55,-10.32 -10.47,-15.26 -4.65,-5.86 -10.99,-12.06 -19.09,-18.57 -8.06,-6.47 -17,-12.34 -26.7,-17.58l-1.18 -1.48 25.75 -20.42c5.07,3.65 11.86,9.17 20.43,16.66 8.59,7.51 16.26,15.49 23.08,24.08 8.25,10.39 14.35,19.77 18.42,28.21 4.03,8.39 6.23,17.11 6.5,26.16 0.21,8.79 -1.91,17.17 -6.29,25.08 -4.42,7.96 -11.37,15.65 -20.82,23.15l-103.16 81.87 -20.24 -25.49 16.13 -12.79zm241.61 116.96l-33.01 -56.92 -141.9 82.3 -16.34 -28.16 141.9 -82.3 -33.01 -56.92 24.42 -14.16 82.36 142 -24.42 14.16zm-24.74 219.17c-8.71,3.4 -17.23,4.7 -25.64,3.99 -8.44,-0.76 -15.97,-3.26 -22.69,-7.54 -8.15,-5 -14.88,-11.1 -20.24,-18.25 -5.41,-7.2 -10.58,-17.07 -15.52,-29.76l-24.53 -62.91 179.12 -69.85 11.84 30.33 -69.69 27.17 13.05 33.46c5.27,13.51 8.62,24.22 10.16,32.23 1.55,8 0.99,16.76 -1.62,26.26 -2.16,8.06 -6.2,15.01 -12.17,20.89 -5.96,5.94 -13.3,10.56 -22.07,13.98zm-12.53 -31.18c5.42,-2.11 9.82,-4.9 13.2,-8.38 3.37,-3.47 5.52,-7.84 6.42,-13.14 0.89,-5.53 0.53,-11.28 -1.2,-17.18 -1.7,-5.99 -4.62,-14.28 -8.8,-24.98l-8.76 -22.47 -60.8 23.7 8.5 21.81c4.17,10.72 7.85,18.84 11.07,24.36 3.19,5.59 6.91,9.96 11.16,13.24 4.45,3.33 8.98,5.23 13.53,5.73 4.61,0.49 9.82,-0.4 15.68,-2.69zm-0.16 234.3l-9.11 -39.41 71.34 -84.52 -3.61 -15.62 -86.27 19.94 -7.33 -31.71 187.33 -43.3 7.33 31.71 -81.46 18.83c1.99,8.14 5.33,14.74 9.93,19.73 4.65,4.98 12.19,8.38 22.62,10.15 3.09,0.55 6.61,1.19 10.67,1.77 4,0.65 7.55,1.09 10.56,1.31 14.87,1.65 26.18,6.23 33.89,13.71 7.7,7.48 13.16,18.32 16.42,32.4l1.99 8.61 -27.5 6.36 -1.67 -7.24c-2.05,-8.84 -5.35,-15.05 -9.87,-18.65 -4.57,-3.61 -11.97,-5.83 -22.27,-6.6 -10.47,-0.85 -18.88,-2.78 -25.32,-5.83 -6.42,-2.99 -11.63,-6.75 -15.73,-11.19l-81.94 99.55zm108.19 172.38c-32.29,2.46 -57.74,-3.46 -76.52,-17.7 -18.72,-14.31 -29.1,-34.39 -31.07,-60.31 -2.04,-26.76 5.44,-48.5 22.39,-65.16 16.95,-16.73 40.99,-26.25 72.12,-28.62 32.02,-2.44 57.48,3.55 76.37,18.01 18.98,14.4 29.42,34.54 31.38,60.36 1.98,25.92 -5.29,47.35 -21.75,64.33 -16.53,16.93 -40.79,26.64 -72.92,29.09zm-2.54 -33.51c24.69,-1.88 42.69,-7.81 54.01,-17.77 11.33,-9.98 16.33,-23.31 15.05,-40 -1.27,-16.82 -8.24,-29.35 -20.96,-37.56 -12.7,-8.19 -31.4,-11.32 -56.09,-9.44 -23.92,1.82 -41.68,7.73 -53.36,17.78 -11.68,10.07 -16.84,23.52 -15.56,40.34 1.26,16.58 8.28,28.99 21.11,37.18 12.83,8.19 31.41,11.33 55.8,9.47zm-50.49 229.67c-9.26,-0.71 -17.4,-3.1 -24.28,-7.23 -6.88,-4.06 -12.55,-9.46 -16.88,-16.01 -5.44,-8.28 -8.93,-16.76 -10.43,-25.51 -1.47,-8.69 -1.74,-19.06 -0.83,-31l5.76 -75.66 191.71 14.6 -5.38 70.74c-1.08,14.17 -2.29,24.48 -3.66,30.94 -1.33,6.53 -4.04,12.82 -8.05,19.02 -4.22,6.48 -9.4,11.11 -15.74,13.88 -6.29,2.77 -13.56,3.82 -21.88,3.19 -9.15,-0.7 -17.17,-3.86 -24.06,-9.47 -6.83,-5.55 -11.93,-12.68 -15.22,-21.39l-1.25 0.79c-3.43,10.21 -9.43,18.51 -18,24.95 -8.57,6.39 -19.14,9.13 -31.81,8.16zm87.66 -36.96c4.35,0.33 8.15,-0.08 11.42,-1.26 3.28,-1.23 5.99,-3.5 8.08,-6.89 2.42,-3.96 4.06,-8.44 4.86,-13.47 0.79,-5.09 1.51,-12.12 2.2,-21.12l2.33 -30.63 -52.05 -3.97 -2.82 36.98c-0.6,7.88 -0.68,13.5 -0.16,16.84 0.44,3.35 1.74,7.18 3.85,11.3 1.93,3.99 4.84,6.87 8.52,8.75 3.75,1.88 8.33,3.06 13.77,3.47zm-85 3.46c6.58,0.5 11.92,-0.04 16,-1.62 4.13,-1.57 7.96,-5.48 11.55,-11.6 2.3,-3.85 3.8,-8.05 4.62,-12.6 0.81,-4.54 1.53,-10.88 2.15,-19l2.89 -37.85 -62.96 -4.8 -2.14 27.93c-0.87,11.58 -1.09,20.55 -0.64,27.03 0.39,6.48 1.85,12.08 4.25,16.88 2.63,4.99 5.82,8.78 9.52,11.26 3.77,2.47 8.67,3.91 14.76,4.37zm-78.33 94.96l7.37 -31.71 187.27 43.55 -7.37 31.71 -187.27 -43.55zm218.32 53.31l8.41 -36.18 32.63 7.59 -8.4 36.18 -32.64 -7.59z"/>
  <path class="fil3 str3" d="M1390.66 1464.27l-90.04 0 -10.63 25.18c-6.97,16.54 -10.48,26.67 -10.48,30.38 0,2.38 0.64,4.08 1.96,5.14 1.29,1 4.58,1.85 9.89,2.49l14.95 1.69 0 9.86c-9.94,-0.63 -21.16,-0.95 -33.65,-0.95 -14.94,0 -28.12,0.32 -39.45,0.95l0 -9.86 4.68 -0.15c7.28,-0.22 11.97,-0.96 14.14,-2.23 2.13,-1.33 4.36,-4.51 6.75,-9.54 7.39,-14.95 14.94,-31.01 22.64,-48.29l42.91 -96.68c11.42,-25.66 19.24,-44.27 23.38,-55.87l10.53 0 78.88 182.66c5.32,12.4 8.83,19.87 10.58,22.42 1.81,2.54 3.83,4.35 6.11,5.46 2.29,1.06 7.39,1.8 15.42,2.22l0 9.86c-13.5,-0.63 -26.37,-0.95 -38.64,-0.95 -11.44,0 -26.64,0.32 -45.66,0.95l0 -9.86 15.41 -0.95c5.53,-0.37 8.83,-0.95 9.83,-1.7 1.54,-1.11 2.35,-2.59 2.35,-4.34 0,-1.86 -1.55,-6.73 -4.69,-14.58l-17.17 -43.31zm-84.19 -12.72l78.35 0 -39.12 -93.02 -39.23 93.02zm191.47 98.12c-6.12,15.21 -11.11,29.79 -15.06,43.73l-11.79 0c3.88,-15.11 6.64,-29.95 8.34,-44.47l1.86 -15.22c18.29,-17.28 31.05,-36.52 38.28,-57.77 7.23,-21.26 10.84,-57.41 10.84,-108.4 0,-15.69 -0.58,-26.19 -1.7,-31.49 -1.17,-5.25 -7.39,-7.9 -18.61,-7.9l-11.26 0 0 -9.86c25.62,1.28 58.15,1.91 97.7,1.91l95.04 -1.75 12.02 -0.16 0 9.86 -11.8 0c-11.49,0 -17.76,2.34 -18.66,7 -0.96,4.67 -1.44,21.26 -1.44,49.83l0 87.67c0,28.46 0.43,45.06 1.33,49.77 0.9,4.72 7.12,7.05 18.66,7.05l18.61 0c-4.37,21.58 -6.6,42.89 -6.7,63.93l-11.8 0c-0.33,-13.84 -1.49,-28.41 -3.57,-43.73 -6.9,-4.14 -14.67,-7.1 -23.33,-8.91 -8.67,-1.8 -32.05,-2.7 -70.12,-2.7 -33.69,0 -55.76,0.74 -66.18,2.17 -10.47,1.43 -20.67,4.61 -30.66,9.44zm142.56 -216.16c-9.41,-0.8 -24.24,-1.22 -44.55,-1.22 -18.39,0 -35.67,0.42 -51.82,1.22 0,59.89 -2.29,101.82 -6.91,125.78 -4.63,23.96 -14.83,45.27 -30.57,64.03 45.66,0.91 76.07,1.38 91.27,1.38 17.33,0 31.52,-0.47 42.58,-1.38 1.22,-24.96 1.86,-41.77 1.86,-50.46l0 -88.25c0,-8.59 -0.64,-25.66 -1.86,-51.1zm194.82 80.67c22.27,1.43 38.38,6.58 48.33,15.43 9.89,8.85 14.82,21.1 14.82,36.73 0,19.77 -8.28,36.84 -24.87,51.15 -16.59,14.37 -37.64,21.52 -63.21,21.52l-12.27 -0.31c-10.42,-0.43 -19.2,-0.64 -26.37,-0.64 -5.21,0 -11.59,0.16 -19.19,0.53l-12.92 0.42 0 -6.99c6.43,-3.13 10.26,-5.46 11.48,-7.16 1.18,-1.64 1.92,-4.4 2.08,-8.21 0.74,-12.3 1.11,-26.35 1.11,-42.09l0 -96.74c0,-25.87 -0.95,-40.5 -2.82,-43.94 -2.22,-4.03 -7.81,-6.04 -16.58,-6.04l-10.57 0 0 -9.55 12.91 0 14.29 0.48c7.51,0.32 13.35,0.48 17.6,0.48 6.54,0 19.46,-0.27 38.8,-0.8l22.71 -0.47c17.86,0 31.2,3.12 40.02,9.33 11.11,7.89 16.64,19.02 16.64,33.39 0,11.82 -3.93,22.21 -11.75,31.11 -7.87,8.91 -21.26,16.38 -40.24,22.37zm-51.67 -4.29c5.22,0.21 9.94,0.32 14.31,0.32 20.67,0 35.45,-3.66 44.38,-10.97 8.94,-7.27 13.4,-17.81 13.4,-31.6 0,-11.87 -3.72,-21.04 -11.22,-27.4 -7.44,-6.36 -19.4,-9.54 -35.77,-9.54 -7.28,0 -15.21,0.69 -23.71,2.01 -0.9,12.67 -1.39,31.81 -1.39,57.41l0 19.77zm0 113.59c9.68,1.43 17.65,2.18 24.03,2.18 18.34,0 32.64,-4.88 42.74,-14.63 10.15,-9.76 15.21,-23.01 15.21,-39.76 0,-11.18 -2.24,-20.41 -6.7,-27.67 -4.47,-7.26 -10.74,-12.61 -18.77,-15.95 -8.08,-3.34 -20.94,-5.04 -38.59,-5.04 -5.32,0 -11.27,0.11 -17.92,0.32l0 55.07 0.17 19.56c0.32,7.05 0.48,12.41 0.48,16.17 0,2.76 -0.22,6.04 -0.65,9.75zm133.9 -94.93c0,-34.03 11.01,-61.44 33.02,-82.22 22.01,-20.83 51.29,-31.22 87.98,-31.22 35.88,0 64.05,9.65 84.46,28.95 20.36,19.29 30.56,44.95 30.56,76.91 0,34.45 -11.85,63.29 -35.5,86.45 -23.66,23.17 -53.48,34.77 -89.52,34.77 -22.49,0 -41.94,-4.55 -58.21,-13.67 -16.31,-9.07 -29.18,-22.37 -38.59,-39.86 -9.46,-17.49 -14.2,-37.53 -14.2,-60.11zm31.58 -12.72c0,23.43 4.04,43.78 12.07,61.11 8.03,17.34 18.82,30.27 32.32,38.91 13.51,8.64 28.92,12.99 46.25,12.99 16.1,0 30.13,-3.66 42.2,-11.03 12.01,-7.31 21.48,-18.29 28.39,-32.92 6.91,-14.57 10.37,-32.33 10.37,-53.21 0,-21.95 -3.83,-40.71 -11.43,-56.24 -7.66,-15.59 -18.14,-27.3 -31.42,-35.15 -13.29,-7.9 -28.98,-11.82 -47.15,-11.82 -16.63,0 -30.93,3.45 -43.01,10.39 -12.01,6.94 -21.47,17.12 -28.33,30.53 -6.86,13.36 -10.26,28.89 -10.26,46.44zm310.28 0.63l105.83 98.75 9.68 9.12c1.96,1.96 3.93,3.29 5.95,3.87 2.02,0.64 5.37,0.95 10.05,0.95l0 9.86c-8.5,-0.63 -15.95,-0.95 -22.38,-0.95 -6.75,0 -14.09,0.32 -22.06,0.95l-107.33 -101.45c-3.61,-3.45 -5.84,-5.14 -6.64,-5.14 -2.18,0 -3.3,2.01 -3.3,6.04l0 47.28c0,23.06 0.49,35.68 1.39,37.85 1.59,3.71 7.23,5.56 16.9,5.56l11.7 0 0 9.86c-16.96,-0.63 -31.95,-0.95 -45.03,-0.95 -13.72,0 -28.49,0.32 -44.27,0.95l0 -9.86 12.59 0c8.3,0 13.24,-1.53 14.88,-4.55 1.65,-3.08 2.5,-16.22 2.5,-39.44l0 -103.68c0,-28.41 -0.85,-44.42 -2.5,-47.97 -1.64,-3.55 -6.58,-5.36 -14.88,-5.36l-12.59 0 0 -9.86c19.02,0.64 32.79,0.96 41.29,0.96 6.12,0 22.12,-0.32 48.01,-0.96l0 9.86 -12.34 0.48c-7.07,0.32 -11.53,1.27 -13.44,2.86 -1.87,1.59 -3.03,4.77 -3.51,9.54 -0.48,4.72 -0.7,18.4 -0.7,41.03l0 41.82 2.18 0c8.5,-6.94 15.85,-13.25 21.96,-18.97 6.11,-5.78 16.21,-15.8 30.19,-30.22l44.22 -45.58 0 -10.82c11.44,0.64 20.9,0.96 28.39,0.96 7.77,0 16.38,-0.32 25.84,-0.96l0 9.86 -8.4 0c-7.5,0 -13.83,1.43 -19.03,4.24 -5.16,2.87 -17.17,12.83 -35.93,30.01l-59.22 54.06zm296.3 47.81l-90.05 0 -10.63 25.18c-6.97,16.54 -10.48,26.67 -10.48,30.38 0,2.38 0.65,4.08 1.97,5.14 1.28,1 4.57,1.85 9.89,2.49l14.94 1.69 0 9.86c-9.94,-0.63 -21.16,-0.95 -33.65,-0.95 -14.94,0 -28.12,0.32 -39.45,0.95l0 -9.86 4.69 -0.15c7.28,-0.22 11.96,-0.96 14.14,-2.23 2.12,-1.33 4.36,-4.51 6.74,-9.54 7.4,-14.95 14.95,-31.01 22.65,-48.29l42.9 -96.68c11.42,-25.66 19.24,-44.27 23.39,-55.87l10.53 0 78.88 182.66c5.31,12.4 8.82,19.87 10.58,22.42 1.8,2.54 3.82,4.35 6.11,5.46 2.28,1.06 7.39,1.8 15.41,2.22l0 9.86c-13.5,-0.63 -26.36,-0.95 -38.64,-0.95 -11.43,0 -26.63,0.32 -45.66,0.95l0 -9.86 15.41 -0.95c5.53,-0.37 8.83,-0.95 9.83,-1.7 1.55,-1.11 2.35,-2.59 2.35,-4.34 0,-1.86 -1.54,-6.73 -4.68,-14.58l-17.17 -43.31zm-84.2 -12.72l78.35 0 -39.12 -93.02 -39.23 93.02zm283.37 -119.26c-1.11,15.53 -1.69,31.86 -1.69,49.03l0 88.41c0,32.92 0.85,51 2.49,54.39 1.65,3.34 7.55,5.03 17.75,5.03l11.65 0 0 9.86c-18.4,-0.63 -33.97,-0.95 -46.73,-0.95 -12.86,0 -28.33,0.32 -46.41,0.95l0 -9.86 13.08 0c6.86,0 11.32,-0.9 13.4,-2.7 2.07,-1.8 3.35,-5.35 3.88,-10.65 1.01,-12.09 1.54,-27.73 1.54,-46.86l0 -88.57c0,-17.44 -0.37,-33.51 -1.06,-48.08l-15.84 0c-25.52,0 -39.55,0.58 -42.15,1.8 -2.61,1.17 -4.32,5.83 -5.11,13.94l-2.17 20.83 -9.89 0 0.31 -18.44c0,-7.48 -0.63,-18.18 -1.91,-32.13 56.08,0.64 89.03,0.96 98.87,0.96l86.12 -0.96c-2.02,17.5 -3.19,34.35 -3.51,50.57l-9.89 0 -1.54 -20.4c-0.64,-7.05 -1.49,-11.24 -2.66,-12.51 -1.12,-1.28 -3.66,-2.12 -7.61,-2.39 -11.37,-0.85 -24.28,-1.27 -38.79,-1.27l-12.13 0z"/>
  <path class="fil1 str1" d="M986.32 2937.97l10.44 -32.17c24.15,8.47 41.61,15.77 52.6,21.99 -2.89,-27.35 -4.45,-46.23 -4.6,-56.49l33.19 0c-0.47,15 -2.18,33.72 -5.3,56.26 15.66,-7.85 33.59,-15.16 53.77,-21.76l10.44 32.17c-19.25,6.37 -38.11,10.64 -56.65,12.74 9.27,8 22.28,22.38 39.11,42.97l-27.26 19.34c-8.81,-11.96 -19.25,-28.28 -31.25,-48.87 -11.3,21.37 -21.19,37.69 -29.69,48.87l-26.81 -19.34c17.54,-21.68 30.16,-35.98 37.72,-42.97 -19.56,-3.8 -38.1,-8.08 -55.71,-12.74z"/>
  <path class="fil1 str1" d="M2949.37 2951.72l10.44 -32.17c24.15,8.47 41.61,15.77 52.6,21.99 -2.89,-27.35 -4.45,-46.23 -4.6,-56.49l33.19 0c-0.47,15 -2.18,33.72 -5.3,56.26 15.66,-7.85 33.59,-15.16 53.77,-21.76l10.43 32.17c-19.24,6.37 -38.1,10.64 -56.64,12.74 9.27,8 22.28,22.38 39.11,42.97l-27.26 19.34c-8.81,-11.96 -19.25,-28.28 -31.25,-48.87 -11.3,21.37 -21.19,37.68 -29.69,48.87l-26.81 -19.34c17.54,-21.68 30.16,-35.98 37.72,-42.97 -19.56,-3.81 -38.1,-8.08 -55.71,-12.74z"/>
  <path class="fil1 str1" d="M1984.97 3653.36l10.44 -32.16c24.15,8.47 41.61,15.77 52.6,21.98 -2.89,-27.35 -4.45,-46.23 -4.6,-56.49l33.19 0c-0.46,15 -2.18,33.73 -5.3,56.26 15.66,-7.84 33.59,-15.15 53.77,-21.75l10.44 32.16c-19.25,6.37 -38.1,10.65 -56.65,12.75 9.27,8 22.28,22.37 39.11,42.97l-27.26 19.34c-8.81,-11.97 -19.25,-28.28 -31.25,-48.87 -11.3,21.37 -21.19,37.68 -29.69,48.87l-26.8 -19.34c17.53,-21.69 30.15,-35.98 37.71,-42.97 -19.56,-3.81 -38.1,-8.09 -55.71,-12.75z"/>
  <path class="fil4 str4" d="M2212.93 2576.69c-10.04,-92.63 275.93,-581.43 319.31,-628.21 110.05,209.41 292.73,364.2 308.03,628.21l-627.34 0zm-650.82 -621.29l158.9 247.05c47.95,78.16 185.56,217.99 174.72,367.23 -221.46,-3.3 -442.94,-6.58 -664.41,-9.88 22.12,-165.91 229.48,-434.01 330.79,-604.4zm419.99 -218.64l0 64.77c-510.72,0 -457.89,-30.51 -467.08,93.34 -3.17,42.73 -196.16,356.26 -224.3,403.67 -54.09,91.04 -143.65,180.16 -75.13,311.81 106.43,204.5 429.27,246.4 602.21,117.4 325.28,-242.65 -54.55,-453.82 -210.39,-828.71l371.99 0 -0.9 985.85c-96.73,-0.08 -192.39,0.2 -288,-0.13 -261.97,-0.93 -171.76,3.14 -242.49,52.32 -73.59,51.17 -157.54,-35.07 -186.96,54.78 -31.72,96.85 38.67,79.34 124.51,79.34l1332.12 0c80.9,0 148.76,22.45 121.22,-66.79 -31.21,-101.1 -120.25,-15.06 -198.15,-69.1 -89.79,-62.3 -32.37,-51.32 -244.05,-50.55 -96.61,0.35 -193.27,0.05 -289.88,0.05l-3.58 -985.8 381.53 1.3c-99.58,170.11 -199.39,348.65 -301.88,519.81 -167.56,279.81 421.26,561.12 679.5,228.9 121.58,-156.4 -13.37,-286.65 -179.03,-557.99 -175.98,-288.28 -84.47,-137.36 -106.6,-278.67 -167.25,-22.19 -309.68,-11.92 -485.01,-10.83 9.15,-95.12 22.07,-111.46 -19.43,-171.87 -92.75,-8.52 -90.22,19.62 -90.22,107.1z"/>
  <path class="fil1 str4" d="M1677.75 3200.66l-74.93 173.7c-3.18,7.34 -6.69,13.16 -10.63,17.61 -3.93,4.44 -8.02,7.76 -12.29,9.98 -4.27,2.32 -8.44,3.83 -12.57,4.59 -4.13,0.71 -8.26,1.09 -12.44,1.09 -3.7,0 -8.06,-0.1 -13.04,-0.29 -4.99,-0.19 -8.21,-0.33 -9.59,-0.42l0 -25.41 1.94 0c1.43,0.14 3.51,0.33 6.36,0.57 2.85,0.19 6.46,0.28 10.82,0.28 2.05,0 4.46,-0.09 7.21,-0.33 2.81,-0.24 5.37,-0.9 7.69,-1.99 2.71,-1.28 5.22,-2.98 7.6,-5.16 2.37,-2.12 4.55,-5.53 6.49,-10.17l4.75 -10.83 -72.79 -153.22 30.56 0 56.18 121.56 50.77 -121.56 27.91 0zm156.35 206.4l-32.55 0 -53.33 -71.26 -12.91 0 0 71.26 -26.19 0 0 -154.73 26.19 0 0 67.29c6.74,-0.1 12.53,-1.52 17.27,-4.21 4.74,-2.75 8.78,-8.05 12.06,-15.9 0.99,-2.32 2.13,-4.97 3.31,-8.04 1.24,-3.03 2.23,-5.73 2.94,-8.05 3.99,-11.35 9.64,-19.4 16.9,-24.08 7.26,-4.69 16.75,-7.01 28.37,-7.01l7.12 0 0 22.72 -5.98 0c-7.31,0 -12.76,1.46 -16.41,4.35 -3.66,2.93 -6.74,8.33 -9.21,16.28 -2.57,8.04 -5.59,14.29 -9.15,18.78 -3.52,4.5 -7.42,7.9 -11.64,10.32l63.21 82.28zm161.72 -81.38c0,25.74 -6.22,46.27 -18.6,61.55 -12.44,15.29 -28.14,22.95 -47.13,22.95 -7.68,0 -14.51,-0.9 -20.5,-2.65 -5.92,-1.75 -12.05,-4.44 -18.26,-8.14l0 64.73 -26.19 0 0 -211.79 26.19 0 0 16.23c6.5,-5.82 13.76,-10.69 21.68,-14.62 7.98,-3.92 16.66,-5.86 26.01,-5.86 17.89,0 31.79,7 41.81,21.05 10,14.05 14.99,32.89 14.99,56.55zm-27.05 2.79c0,-17.65 -2.85,-31.33 -8.49,-41.07 -5.7,-9.75 -14.9,-14.62 -27.67,-14.62 -7.4,0 -14.61,1.65 -21.54,4.92 -6.93,3.26 -13.53,7.47 -19.74,12.68l0 87.63c6.88,3.36 12.76,5.63 17.65,6.81 4.89,1.18 10.48,1.8 16.8,1.8 13.62,0 24.15,-4.92 31.7,-14.81 7.54,-9.89 11.29,-24.32 11.29,-43.34zm154.5 40.41l0 -42.73c-6.17,0.57 -14,1.32 -23.44,2.27 -9.48,0.95 -17.13,2.32 -22.92,4.07 -6.92,2.13 -12.67,5.35 -17.17,9.7 -4.51,4.35 -6.79,10.46 -6.79,18.26 0,8.8 2.52,15.48 7.5,19.97 4.98,4.5 12.24,6.77 21.82,6.77 8.26,0 15.67,-1.75 22.31,-5.3 6.63,-3.5 12.9,-7.86 18.69,-13.01zm0 21.62c-2.14,1.61 -4.99,3.78 -8.54,6.62 -3.56,2.8 -6.97,5.07 -10.29,6.72 -4.66,2.42 -9.12,4.26 -13.43,5.54 -4.27,1.28 -10.3,1.94 -18.08,1.94 -6.41,0 -12.44,-1.18 -18.17,-3.6 -5.75,-2.41 -10.78,-5.77 -15.15,-10.12 -4.12,-4.26 -7.44,-9.51 -9.96,-15.76 -2.51,-6.2 -3.75,-12.78 -3.75,-19.73 0,-10.74 2.28,-19.83 6.79,-27.4 4.56,-7.52 11.72,-13.48 21.49,-17.93 8.69,-3.97 18.99,-6.72 30.8,-8.23 11.86,-1.52 24.63,-2.65 38.29,-3.41l0 -5.06c0,-6.15 -0.94,-11.12 -2.8,-14.91 -1.84,-3.78 -4.41,-6.72 -7.73,-8.75 -3.37,-2.18 -7.4,-3.6 -12.25,-4.31 -4.79,-0.71 -9.77,-1.04 -14.85,-1.04 -6.02,0 -13.09,0.9 -21.26,2.75 -8.11,1.84 -16.27,4.54 -24.44,8.04l-1.51 0 0 -26.45c4.84,-1.37 11.72,-2.89 20.74,-4.54 9.01,-1.66 17.89,-2.51 26.71,-2.51 10.67,0 19.65,0.85 27,2.51 7.31,1.65 13.9,4.63 19.74,8.99 5.65,4.26 9.87,9.79 12.67,16.51 2.8,6.77 4.17,15 4.17,24.7l0 105.99 -26.19 0 0 -16.56zm104.16 16.56l-26.19 0 0 -154.73 26.19 0 0 154.73zm24.48 -180.84l-26.19 0 0 -26.97 26.19 0 0 26.97zm-49.25 0l-26.19 0 0 -26.97 26.19 0 0 26.97zm199.73 180.84l-26.2 0 0 -69.27 -70.31 0 0 69.27 -26.2 0 0 -154.73 26.2 0 0 62.75 70.31 0 0 -62.75 26.2 0 0 154.73zm138.37 -38.18l0 -42.73c-6.17,0.57 -14,1.32 -23.44,2.27 -9.48,0.95 -17.13,2.32 -22.92,4.07 -6.92,2.13 -12.67,5.35 -17.17,9.7 -4.51,4.35 -6.79,10.46 -6.79,18.26 0,8.8 2.52,15.48 7.5,19.97 4.98,4.5 12.24,6.77 21.82,6.77 8.26,0 15.67,-1.75 22.31,-5.3 6.64,-3.5 12.9,-7.86 18.69,-13.01zm0 21.62c-2.14,1.61 -4.98,3.78 -8.53,6.62 -3.56,2.8 -6.98,5.07 -10.3,6.72 -4.66,2.42 -9.12,4.26 -13.43,5.54 -4.27,1.28 -10.3,1.94 -18.08,1.94 -6.41,0 -12.44,-1.18 -18.17,-3.6 -5.75,-2.41 -10.77,-5.77 -15.15,-10.12 -4.12,-4.26 -7.44,-9.51 -9.96,-15.76 -2.51,-6.2 -3.75,-12.78 -3.75,-19.73 0,-10.74 2.28,-19.83 6.79,-27.4 4.56,-7.52 11.72,-13.48 21.49,-17.93 8.69,-3.97 18.99,-6.72 30.8,-8.23 11.86,-1.52 24.63,-2.65 38.29,-3.41l0 -5.06c0,-6.15 -0.94,-11.12 -2.8,-14.91 -1.84,-3.78 -4.41,-6.72 -7.73,-8.75 -3.37,-2.18 -7.4,-3.6 -12.24,-4.31 -4.8,-0.71 -9.78,-1.04 -14.86,-1.04 -6.02,0 -13.09,0.9 -21.26,2.75 -8.11,1.84 -16.27,4.54 -24.44,8.04l-1.51 0 0 -26.45c4.84,-1.37 11.72,-2.89 20.74,-4.54 9.01,-1.66 17.89,-2.51 26.71,-2.51 10.67,0 19.65,0.85 27,2.51 7.31,1.65 13.9,4.63 19.74,8.99 5.65,4.26 9.87,9.79 12.67,16.51 2.8,6.77 4.17,15 4.17,24.7l0 105.99 -26.19 0 0 -16.56z"/>
 </g>
</svg>
