<?xml version="1.0" encoding="UTF-8"?>
<!DOCTYPE svg PUBLIC "-//W3C//DTD SVG 1.1//EN" "http://www.w3.org/Graphics/SVG/1.1/DTD/svg11.dtd">
<!-- Creator: CorelDRAW 2019 (64-Bit) -->
<svg xmlns="http://www.w3.org/2000/svg" xml:space="preserve" width="41mm" height="41mm" version="1.1" style="shape-rendering:geometricPrecision; text-rendering:geometricPrecision; image-rendering:optimizeQuality; fill-rule:evenodd; clip-rule:evenodd"
viewBox="0 0 4100 4100"
 xmlns:xlink="http://www.w3.org/1999/xlink">
 <defs>
  <style type="text/css">
   <![CDATA[
    .str5 {stroke:#393185;stroke-width:100;stroke-miterlimit:22.9256}
    .str0 {stroke:#393185;stroke-width:50;stroke-miterlimit:22.9256}
    .str4 {stroke:#393185;stroke-width:40;stroke-miterlimit:22.9256}
    .str3 {stroke:#393185;stroke-width:25;stroke-miterlimit:22.9256}
    .str1 {stroke:#393185;stroke-width:15;stroke-miterlimit:22.9256}
    .str2 {stroke:#393185;stroke-width:20;stroke-linejoin:round;stroke-miterlimit:22.9256}
    .fil1 {fill:none}
    .fil3 {fill:none;fill-rule:nonzero}
    .fil0 {fill:#393185}
    .fil2 {fill:#393185;fill-rule:nonzero}
   ]]>
  </style>
 </defs>
 <g id="Слой_x0020_1">
  <metadata id="CorelCorpID_0Corel-Layer"/>
  <g id="_994273728">
   <path class="fil0" d="M2522.21 2426.01c38.82,-34.96 63.68,-82.77 70.02,-134.6l91.11 -744.74 -630.93 -203.75 -630.91 203.75 91.09 744.74c6.34,51.83 31.21,99.64 70.02,134.59 98.21,88.45 284.73,244.27 469.8,332.99 185.08,-88.72 371.6,-244.54 469.8,-332.98zm-1001.25 68.43c-55.34,-49.82 -90.77,-117.92 -99.81,-191.84l-100.33 -820.21 731.59 -236.27 731.6 236.27 -100.34 820.21c-9.04,73.92 -44.47,142.02 -99.81,191.84 -114.02,102.7 -324.7,276.85 -531.45,365.73 -206.75,-88.88 -417.43,-263.03 -531.45,-365.73z"/>
   <path class="fil0" d="M1597.93 2078.63l6.84 55.86 577.98 419.98c12.06,-8.22 23.99,-16.53 35.73,-24.93l-620.55 -450.91z"/>
   <path class="fil0" d="M2125.7 2591.81c11.5,-7.21 22.92,-14.54 34.25,-22.02l-550.9 -400.3 6.29 51.48 510.36 370.84z"/>
   <path class="fil0" d="M2479.58 2292.49c1.28,-4.74 2.32,-9.58 2.92,-14.52l80.03 -654.15 -510.12 -164.74 -498.29 160.92 925.46 672.49z"/>
   <path class="fil0" d="M1544.92 1645.21l6.51 53.2 892.97 648.89 3.83 -3.43c8.6,-7.76 15.73,-16.84 21.32,-26.78l-924.63 -671.88z"/>
   <path class="fil0" d="M1587.65 1994.52l6 49.11 646.8 469.98c10.3,-7.55 20.43,-15.1 30.38,-22.66l-683.18 -496.43z"/>
   <path class="fil0" d="M1619.63 2255.97l2.69 22.02c3.11,25.36 15.28,48.76 34.28,65.87 82.76,74.57 237.87,205.26 395.81,290.98 16.56,-8.99 33.07,-18.56 49.5,-28.42l-482.28 -350.45z"/>
   <path class="fil0" d="M1577.27 1909.68l6.1 49.85 708.79 515.04c10.23,-7.93 20.25,-15.83 29.99,-23.62l-744.88 -541.27z"/>
   <path class="fil0" d="M1555.71 1733.41l6.67 54.55 831.12 603.95c11.09,-9.49 21.4,-18.48 31.16,-27.08l-868.95 -631.42z"/>
   <path class="fil0" d="M1566.66 1822.96l6.33 51.72 769.93 559.47c10.43,-8.52 20.64,-16.93 30.34,-25.06l-806.6 -586.13z"/>
  </g>
  <path class="fil1 str0" d="M2050.01 192.46c1025.88,0 1857.54,831.66 1857.54,1857.54 0,1025.88 -831.66,1857.54 -1857.54,1857.54 -1025.89,0 -1857.55,-831.66 -1857.55,-1857.54 0,-1025.88 831.66,-1857.54 1857.55,-1857.54z"/>
  <path class="fil2 str1" d="M1115.34 2703.38c-0.47,-7.88 -2.06,-15.76 -4.82,-23.58 -3.89,-11.23 -5.83,-18.99 -5.83,-23.22 0,-6 1.42,-10.53 4.18,-13.65 2.82,-3.11 6.29,-4.64 10.46,-4.64 3.53,0 6.65,1.53 9.29,4.64 2.65,3.12 3.94,7.53 3.94,13.29 0,5.18 -1.53,12.35 -4.52,21.58 -3.06,9.29 -4.94,17.82 -5.65,25.58 6.35,-4 12,-8.88 17.05,-14.64 7.82,-9.06 13.64,-14.7 17.41,-16.88 3.82,-2.17 7.64,-3.23 11.58,-3.23 3.76,0 6.94,1.29 9.52,3.88 2.59,2.53 3.88,5.64 3.88,9.17 0,4.29 -1.88,8.06 -5.7,11.41 -3.76,3.29 -13.23,6.64 -28.4,9.99 -8.82,1.94 -16.17,4.18 -22.05,6.7 6,3.12 13.29,5.47 21.88,7.06 13.87,2.53 22.98,5.7 27.28,9.47 4.35,3.82 6.46,7.93 6.46,12.4 0,3.47 -1.29,6.41 -3.88,8.94 -2.58,2.53 -5.58,3.82 -8.99,3.82 -3.47,0 -7.29,-1.23 -11.47,-3.64 -4.17,-2.42 -9.87,-7.82 -16.99,-16.17 -4.7,-5.65 -10.52,-10.94 -17.58,-15.88 0.24,6.59 1.59,13.7 4,21.4 4.12,13.53 6.17,22.76 6.17,27.7 0,4.58 -1.35,8.46 -4.11,11.64 -2.77,3.17 -5.71,4.76 -8.76,4.76 -4.29,0 -8.12,-1.71 -11.59,-5 -2.41,-2.41 -3.58,-6.29 -3.58,-11.58 0,-5.47 1.29,-12.11 3.94,-19.87 2.64,-7.76 4.29,-13.11 4.99,-16 0.71,-2.94 1.36,-7.29 1.89,-13.05 -6.77,4.53 -12.7,9.47 -17.7,14.99 -8.41,9.41 -14.7,15.41 -18.99,17.94 -3,1.82 -6.06,2.76 -9.29,2.76 -3.88,0 -7.23,-1.35 -10,-4 -2.76,-2.64 -4.11,-5.52 -4.11,-8.76 0,-2.88 1.17,-5.88 3.53,-9.05 2.35,-3.18 5.88,-5.76 10.58,-7.82 3.11,-1.41 10.17,-3.24 21.16,-5.53 7.12,-1.47 14.12,-3.64 20.88,-6.53 -6.24,-3.11 -13.64,-5.52 -22.23,-7.23 -14.11,-3 -22.87,-5.7 -26.16,-8.11 -5.18,-3.76 -7.76,-8.41 -7.76,-13.76 0,-3.11 1.29,-5.94 3.88,-8.52 2.59,-2.59 5.58,-3.88 9.05,-3.88 3.77,0 7.76,1.17 12.06,3.58 4.23,2.41 9.52,7.29 15.81,14.58 6.35,7.29 12.76,12.94 19.29,16.94z"/>
  <path class="fil3" d="M2050.01 754.07c715.73,0 1295.93,580.21 1295.93,1295.93 0,715.72 -580.2,1295.93 -1295.93,1295.93 -715.73,0 -1295.93,-580.21 -1295.93,-1295.93 0,-715.72 580.2,-1295.93 1295.93,-1295.93z"/>
  <path class="fil3" d="M2050.01 1150.94c496.54,0 899.06,402.53 899.06,899.06 0,496.53 -402.52,899.06 -899.06,899.06 -496.54,0 -899.06,-402.53 -899.06,-899.06 0,-496.53 402.52,-899.06 899.06,-899.06z"/>
  <path class="fil2 str1" d="M1433.48 479.71c-0.47,-7.88 -2.06,-15.76 -4.82,-23.58 -3.89,-11.23 -5.83,-18.99 -5.83,-23.22 0,-6 1.42,-10.53 4.18,-13.65 2.82,-3.11 6.29,-4.64 10.46,-4.64 3.53,0 6.65,1.53 9.29,4.64 2.65,3.12 3.94,7.53 3.94,13.29 0,5.18 -1.53,12.35 -4.52,21.58 -3.06,9.29 -4.94,17.82 -5.65,25.58 6.35,-4 12,-8.88 17.05,-14.64 7.82,-9.06 13.64,-14.7 17.41,-16.88 3.82,-2.17 7.64,-3.23 11.58,-3.23 3.76,0 6.94,1.29 9.52,3.88 2.59,2.53 3.88,5.64 3.88,9.17 0,4.29 -1.88,8.06 -5.7,11.41 -3.76,3.29 -13.23,6.64 -28.4,9.99 -8.82,1.94 -16.17,4.18 -22.05,6.7 6,3.12 13.29,5.47 21.88,7.06 13.87,2.53 22.98,5.7 27.28,9.47 4.35,3.82 6.46,7.93 6.46,12.4 0,3.47 -1.29,6.41 -3.88,8.94 -2.58,2.53 -5.58,3.82 -8.99,3.82 -3.47,0 -7.29,-1.23 -11.47,-3.64 -4.17,-2.42 -9.87,-7.82 -16.99,-16.17 -4.7,-5.65 -10.52,-10.94 -17.58,-15.88 0.24,6.59 1.59,13.7 4,21.4 4.12,13.53 6.17,22.76 6.17,27.7 0,4.58 -1.35,8.46 -4.11,11.64 -2.77,3.17 -5.71,4.76 -8.76,4.76 -4.29,0 -8.12,-1.71 -11.59,-5 -2.41,-2.41 -3.58,-6.29 -3.58,-11.58 0,-5.47 1.29,-12.11 3.94,-19.87 2.64,-7.76 4.29,-13.11 4.99,-16 0.71,-2.94 1.36,-7.29 1.89,-13.05 -6.77,4.53 -12.7,9.47 -17.7,14.99 -8.41,9.41 -14.7,15.41 -18.99,17.94 -3,1.82 -6.06,2.76 -9.29,2.76 -3.88,0 -7.23,-1.35 -10,-4 -2.76,-2.64 -4.11,-5.52 -4.11,-8.76 0,-2.88 1.17,-5.88 3.53,-9.05 2.35,-3.18 5.88,-5.76 10.58,-7.82 3.11,-1.41 10.17,-3.24 21.16,-5.53 7.12,-1.47 14.12,-3.64 20.88,-6.53 -6.24,-3.11 -13.64,-5.52 -22.23,-7.23 -14.11,-3 -22.87,-5.7 -26.16,-8.11 -5.18,-3.76 -7.76,-8.41 -7.76,-13.76 0,-3.11 1.29,-5.94 3.88,-8.52 2.59,-2.59 5.58,-3.88 9.05,-3.88 3.77,0 7.76,1.17 12.06,3.58 4.23,2.41 9.52,7.29 15.81,14.58 6.35,7.29 12.76,12.94 19.29,16.94z"/>
  <path class="fil3 str0" d="M2050.01 597.52c802.18,0 1452.48,650.3 1452.48,1452.48 0,802.18 -650.3,1452.48 -1452.48,1452.48 -802.18,0 -1452.48,-650.3 -1452.48,-1452.48 0,-802.18 650.3,-1452.48 1452.48,-1452.48z"/>
  <path class="fil3" d="M2050.01 577.67c813.15,0 1472.33,659.18 1472.33,1472.33 0,813.15 -659.18,1472.33 -1472.33,1472.33 -813.15,0 -1472.33,-659.18 -1472.33,-1472.33 0,-813.15 659.18,-1472.33 1472.33,-1472.33z"/>
  <path class="fil2 str2" d="M1580.45 332.48l18.8 -4.34 70.67 94.9 15.75 -114.85 18.69 -4.32 -21.89 146.3c-2.88,18.66 -5.86,30.97 -8.99,36.97 -3.15,5.97 -8.47,9.81 -15.97,11.54 -5.13,1.19 -11.51,1.22 -19.15,0.11l-4.5 -19.48c5.83,2.37 11.49,2.92 17.06,1.63 4.61,-1.06 8.14,-3.74 10.6,-8.06 2.47,-4.33 4.2,-13.31 5.26,-26.95l-86.33 -113.45zm185.84 8.93l17.65 -2.17 6.75 54.9c5.64,-0.69 9.44,-2.53 11.4,-5.46 1.91,-2.98 4.33,-10.98 7.14,-24.15 2.15,-10.55 4.15,-17.54 5.96,-21.05 1.77,-3.49 3.99,-5.96 6.61,-7.32 2.61,-1.36 7.32,-2.47 14.19,-3.32l2.61 -0.32 2.17 17.65 -5.2 0.51c-3.72,0.45 -6.3,1.48 -7.71,3.1 -1.37,1.62 -2.4,4.41 -3.08,8.26 -2.48,13.33 -4.61,21.96 -6.48,25.93 -1.88,3.96 -5.15,7.64 -9.84,11.08 7.91,1.55 16.4,9.26 25.45,23.15l24.25 37.04 -19.65 2.42 -23.81 -36.88c-4.76,-7.63 -8.67,-12.5 -11.8,-14.64 -3.16,-2.14 -6.67,-3 -10.55,-2.52l7.23 58.82 -17.65 2.17 -15.64 -127.2zm131.58 162.78l-13.45 -176.79 16.49 -1.26 1.28 16.78c3.45,-7.19 7.51,-12.49 12.17,-15.91 4.65,-3.45 10.11,-5.39 16.39,-5.87 8.25,-0.62 15.86,1.27 22.84,5.66 7.02,4.38 12.88,11.4 17.7,21.07 4.78,9.66 7.71,21.53 8.78,35.56 1.65,21.71 -1.63,38.81 -9.82,51.23 -8.21,12.43 -18.39,19.1 -30.66,20.04 -5.46,0.41 -10.61,-0.6 -15.59,-3.02 -4.93,-2.43 -9.3,-6.11 -13.12,-10.93l4.72 62.09 -17.73 1.35zm7.77 -113.24c1.26,16.5 4.93,28.48 11.02,35.86 6.09,7.42 13.04,10.81 20.84,10.22 7.47,-0.57 13.73,-5.13 18.74,-13.64 5.05,-8.52 6.93,-21.25 5.64,-38.16 -1.27,-16.7 -4.96,-28.84 -11.07,-36.43 -6.11,-7.59 -13.06,-11.1 -20.94,-10.5 -7.1,0.54 -13.21,5.34 -18.39,14.41 -5.13,9.05 -7.09,21.79 -5.84,38.24zm194.46 41.92c-6.15,6.03 -12.46,10.5 -18.97,13.44 -6.55,2.98 -13.26,4.34 -20.17,4.14 -10.94,-0.32 -19.57,-3.87 -25.87,-10.69 -6.35,-6.77 -9.34,-15.75 -9.02,-26.93 0.22,-7.41 1.94,-13.91 5.19,-19.54 3.22,-5.63 7.55,-9.98 12.95,-13.03 5.4,-3.07 13.53,-5.21 24.36,-6.42 14.53,-1.63 25.26,-3.78 32.09,-6.46l0.29 -5.56c0.26,-8.8 -1.12,-15.02 -4.15,-18.69 -4.25,-5.27 -10.96,-8.06 -20.09,-8.33 -8.27,-0.24 -14.49,1.31 -18.71,4.6 -4.16,3.29 -7.36,9.66 -9.57,19.03l-17.68 -3.73c2.91,-13.54 8.22,-23.27 16.01,-29.26 7.8,-5.99 18.78,-8.75 32.94,-8.34 11.02,0.32 19.6,2.64 25.77,6.98 6.14,4.29 9.98,9.56 11.45,15.69 1.46,6.18 2.03,15.09 1.68,26.81l-0.85 28.92c-0.59,20.24 -0.6,33.01 0.03,38.3 0.58,5.25 1.95,10.43 4.07,15.48l-18.52 -0.55c-1.76,-4.45 -2.83,-9.76 -3.23,-15.86zm0.06 -48.46c-6.59,3.02 -16.38,5.44 -29.33,7.28 -7.52,1.06 -12.78,2.39 -15.8,3.95 -3.05,1.55 -5.42,3.83 -7.15,6.79 -1.74,2.95 -2.66,6.43 -2.78,10.38 -0.18,6.08 1.57,11.04 5.25,14.81 3.67,3.77 8.85,5.73 15.51,5.92 6.38,0.19 12.19,-1.28 17.47,-4.41 5.28,-3.15 9.31,-7.43 12.02,-12.88 2.76,-5.39 4.27,-13.38 4.58,-23.9l0.23 -7.94zm75.22 68.45l9.72 -127.79 17.73 1.34 -9.72 127.8 -17.73 -1.35zm-7.1 -154.09l1.87 -24.62 18.48 1.4 -1.87 24.63 -18.48 -1.41zm36.69 2.8l1.88 -24.63 18.46 1.4 -1.87 24.63 -18.47 -1.4zm59.84 31.36l17.65 2.16 -6.51 52.95 49.26 6.05 6.51 -52.94 17.64 2.17 -15.63 127.2 -17.65 -2.17 6.93 -56.37 -49.26 -6.06 -6.93 56.38 -17.65 -2.17 15.64 -127.2zm189.16 149.79c-7.22,4.7 -14.28,7.83 -21.24,9.43 -7.01,1.63 -13.86,1.64 -20.59,0.07 -10.67,-2.48 -18.43,-7.66 -23.26,-15.59 -4.88,-7.89 -6.04,-17.28 -3.51,-28.18 1.68,-7.22 4.65,-13.25 8.95,-18.13 4.26,-4.88 9.37,-8.29 15.26,-10.22 5.91,-1.93 14.3,-2.43 25.15,-1.47 14.57,1.28 25.51,1.28 32.74,0.01l1.38 -5.39c2,-8.58 1.87,-14.95 -0.37,-19.14 -3.12,-6.01 -9.15,-10.07 -18.05,-12.14 -8.06,-1.88 -14.46,-1.59 -19.25,0.81 -4.73,2.4 -9.13,8.01 -13.14,16.76l-16.59 -7.15c5.52,-12.7 12.65,-21.19 21.47,-25.52 8.83,-4.33 20.14,-4.87 33.94,-1.66 10.74,2.49 18.69,6.46 23.89,11.93 5.16,5.42 7.88,11.34 8.11,17.65 0.21,6.34 -0.99,15.19 -3.65,26.61l-6.55 28.18c-4.58,19.73 -7.11,32.24 -7.54,37.55 -0.46,5.26 -0.15,10.61 0.93,15.97l-18.04 -4.19c-0.85,-4.71 -0.85,-10.12 -0.04,-16.19zm9.64 -47.49c-7.06,1.66 -17.13,2.1 -30.19,1.35 -7.58,-0.45 -13,-0.19 -16.27,0.74 -3.29,0.92 -6.07,2.69 -8.35,5.25 -2.29,2.55 -3.88,5.77 -4.77,9.62 -1.38,5.93 -0.65,11.13 2.21,15.55 2.86,4.42 7.54,7.37 14.04,8.88 6.21,1.44 12.2,1.15 18,-0.88 5.79,-2.04 10.59,-5.44 14.33,-10.24 3.77,-4.74 6.82,-12.28 9.2,-22.53l1.8 -7.74z"/>
  <g id="_983933936">
   <path class="fil2 str2" d="M2931.65 671.53l13.73 14.75c-13.58,15.07 -27.45,24.13 -41.52,27.28 -14.11,3.13 -27.78,0.89 -41.01,-6.73 -11.63,-6.71 -19.93,-15.29 -24.94,-25.73 -4.95,-10.41 -6.46,-23.39 -4.49,-38.98 1.97,-15.54 7.86,-31.86 17.68,-48.91 9.73,-16.86 20.59,-29.6 32.55,-38.24 12,-8.61 24.21,-13.31 36.62,-14.08 12.42,-0.78 24.15,2.04 35.24,8.43 12.12,6.99 20.35,16.77 24.72,29.3 4.34,12.58 4.06,27.15 -0.85,43.75l-18.97 -4.67c6.69,-24.46 1.61,-41.54 -15.21,-51.24 -8.34,-4.81 -16.86,-6.86 -25.46,-6.12 -8.6,0.75 -17.32,4.59 -26.22,11.54 -8.89,6.93 -17.3,17.33 -25.3,31.2 -12.06,20.93 -17.42,38.8 -16.08,53.53 1.33,14.74 8.11,25.63 20.38,32.7 9.05,5.22 18.75,6.54 29.03,3.87 10.3,-2.61 20.35,-9.84 30.1,-21.65zm87.89 -18.52l33.59 23.93c7.64,5.44 12.97,10.3 16,14.63 3.03,4.33 4.53,9.89 4.54,16.62 -0.02,6.76 -2.35,13.43 -7.06,20.04 -7.06,9.92 -15.82,14.9 -26.17,14.91 6.43,10.89 5.15,22.68 -3.82,35.28 -5.76,8.08 -13.09,13.26 -21.93,15.55 -8.88,2.31 -19.12,-0.68 -30.69,-8.92l-38.82 -27.66 74.36 -104.38zm-16.75 54.16l15.59 11.11c6.2,4.41 10.74,7.05 13.64,7.94 2.86,0.88 6.11,0.78 9.65,-0.29 3.55,-1.07 6.53,-3.34 8.99,-6.8 3.89,-5.45 4.94,-10.41 3.2,-14.85 -1.77,-4.39 -6.5,-9.32 -14.21,-14.82l-16.08 -11.46 -20.78 29.17zm-32.81 46.06l19.33 13.77c8.26,5.88 14.86,8.67 19.86,8.39 4.98,-0.25 9.37,-3.08 13.19,-8.45 4.04,-5.66 5.25,-10.92 3.7,-15.75 -1.59,-4.88 -6.84,-10.48 -15.76,-16.84l-17.83 -12.7 -22.49 31.58zm165.97 -42.73l15.34 -19.67 14.02 10.94 -15.34 19.66 -14.02 -10.93zm-93.41 119.74l78.83 -101.05 14.02 10.94 -78.83 101.05 -14.02 -10.94zm144.7 -45.41l52.66 50.34 -76.27 79.79 8.22 7.85 -37.37 39.09 -10.53 -10.06 25.08 -26.24 -59.45 -56.82 -25.08 26.24 -10.71 -10.24 37.36 -39.09 6.79 6.48c23,-6.31 52.77,-28.76 89.3,-67.34zm-1.74 23.27c-29.74,29.26 -54.82,47.87 -75.25,55.84l40.53 38.74 63.82 -66.77 -29.1 -27.81zm39 102.73c15.97,-15.27 31.23,-23.43 45.78,-24.53 14.52,-1.07 26.73,3.54 36.54,13.8 9.67,10.11 13.65,22.43 12.04,37.02 -1.66,14.56 -10.15,29.16 -25.5,43.84 -16.59,15.87 -32.15,24.37 -46.71,25.47 -14.49,1.1 -26.7,-3.51 -36.56,-13.84 -9.7,-10.14 -13.73,-22.51 -12.02,-37.09 1.7,-14.54 10.51,-29.45 26.43,-44.67zm12.68 13.15c-12.02,11.49 -18.86,22.2 -20.57,32.14 -1.71,9.95 0.53,18.12 6.67,24.55 5.75,6 13.64,8.37 23.68,7.02 10.05,-1.34 20.99,-7.71 32.89,-19.08 11.92,-11.41 18.74,-22.09 20.46,-32.03 1.7,-9.95 -0.53,-18.12 -6.67,-24.54 -5.81,-6.08 -13.71,-8.43 -23.7,-7.09 -9.94,1.32 -20.89,7.68 -32.76,19.03zm130.95 51.57l11 13.98 -86.76 68.24 30.39 38.63 86.75 -68.25 10.99 13.97 -86.75 68.25 7.18 9.13 -52.6 41.37 -9.16 -11.65 38.62 -30.38 -50.38 -64.05 100.72 -79.24zm80.81 105.41l45.99 72.02 -15.19 9.7 -18.21 -28.52 -92.83 59.27 -9.57 -14.99 92.83 -59.27 -18.21 -28.51 15.19 -9.7zm64.82 103.05l20.66 35.69c4.7,8.12 7.55,14.75 8.51,19.94 0.96,5.2 0.03,10.88 -2.76,17.01 -2.81,6.15 -7.7,11.26 -14.71,15.32 -10.54,6.1 -20.58,7.01 -30,2.73 1.34,12.58 -4.7,22.78 -18.09,30.53 -8.58,4.97 -17.41,6.66 -26.4,5.07 -9.05,-1.57 -17.13,-8.54 -24.24,-20.83l-23.88 -41.24 110.91 -64.22zm-37.68 42.36l9.59 16.57c3.82,6.58 6.86,10.86 9.13,12.88 2.24,1.98 5.24,3.23 8.9,3.73 3.68,0.49 7.33,-0.34 11,-2.46 5.8,-3.36 8.81,-7.44 9.06,-12.2 0.21,-4.73 -2.04,-11.17 -6.79,-19.37l-9.9 -17.09 -30.99 17.94zm-48.94 28.34l11.9 20.54c5.08,8.77 9.93,14.04 14.6,15.86 4.63,1.83 9.8,1.08 15.5,-2.23 6.03,-3.48 9.3,-7.76 9.89,-12.81 0.58,-5.09 -1.88,-12.37 -7.36,-21.85l-10.97 -18.94 -33.56 19.43zm89.68 67.72c20.14,-9.11 37.24,-11.74 51.33,-7.95 14.05,3.81 24.04,12.21 29.9,25.15 5.76,12.74 5.42,25.68 -0.93,38.91 -6.4,13.19 -19.25,24.14 -38.6,32.9 -20.92,9.46 -38.42,12.31 -52.51,8.53 -14.04,-3.78 -24.02,-12.18 -29.91,-25.19 -5.78,-12.78 -5.48,-25.79 0.97,-38.97 6.43,-13.16 19.69,-24.3 39.75,-33.38zm7.6 16.61c-15.15,6.86 -25.15,14.69 -30.06,23.5 -4.92,8.82 -5.52,17.27 -1.85,25.37 3.42,7.57 10.08,12.42 20,14.48 9.92,2.07 22.36,-0.31 37.36,-7.09 15.03,-6.8 25.01,-14.62 29.92,-23.43 4.92,-8.82 5.52,-17.26 1.85,-25.36 -3.46,-7.66 -10.13,-12.5 -20,-14.54 -9.82,-2.06 -22.26,0.31 -37.22,7.07zm133.16 156.58l27.07 78.43 -121.14 41.82 -5.81 -16.81 104.11 -35.94 -15.47 -44.82 -104.11 35.94 -5.8 -16.8 121.15 -41.82zm-132.92 170.72l172.76 -39.86 3.72 16.11 -16.4 3.79c7.63,2.33 13.48,5.55 17.56,9.64 4.11,4.08 6.85,9.18 8.27,15.32 1.86,8.06 1.12,15.87 -2.16,23.43 -3.28,7.6 -9.34,14.45 -18.17,20.67 -8.84,6.17 -20.13,10.85 -33.84,14.02 -21.22,4.89 -38.61,4.22 -52.13,-2 -13.52,-6.25 -21.65,-15.32 -24.41,-27.31 -1.23,-5.33 -1.01,-10.58 0.64,-15.86 1.66,-5.24 4.64,-10.11 8.84,-14.62l-60.68 14 -4 -17.33zm113.12 -9.33c-16.13,3.72 -27.42,9.15 -33.79,16.29 -6.42,7.13 -8.73,14.51 -6.98,22.13 1.69,7.3 7.14,12.8 16.31,16.48 9.18,3.71 22.04,3.65 38.57,-0.16 16.32,-3.77 27.76,-9.24 34.35,-16.42 6.58,-7.18 9.01,-14.58 7.23,-22.28 -1.6,-6.94 -7.26,-12.26 -17,-16.02 -9.73,-3.71 -22.61,-3.73 -38.69,-0.02zm25.54 107.41c21.94,-2.71 39.05,-0.14 51.37,7.66 12.3,7.81 19.34,18.8 21.08,32.89 1.72,13.88 -2.44,26.14 -12.44,36.88 -10.03,10.69 -25.55,17.34 -46.63,19.95 -22.79,2.82 -40.34,0.35 -52.68,-7.46 -12.27,-7.77 -19.32,-18.76 -21.07,-32.93 -1.73,-13.92 2.43,-26.26 12.51,-36.92 10.04,-10.66 26.01,-17.36 47.86,-20.07zm2.33 18.13c-16.51,2.04 -28.38,6.54 -35.69,13.5 -7.31,6.96 -10.4,14.85 -9.3,23.67 1.02,8.25 5.93,14.86 14.8,19.78 8.86,4.91 21.44,6.34 37.77,4.32 16.38,-2.03 28.23,-6.53 35.54,-13.48 7.31,-6.96 10.39,-14.85 9.3,-23.67 -1.03,-8.34 -5.96,-14.94 -14.78,-19.83 -8.76,-4.88 -21.35,-6.31 -37.64,-4.29zm83.05 189.15l2.37 82.94 -128.11 3.66 -0.51 -17.77 110.09 -3.15 -1.35 -47.39 -110.09 3.15 -0.51 -17.78 128.11 -3.66zm-174.83 123.27l176.79 13.46 -1.26 16.49 -16.78 -1.27c6.59,4.5 11.21,9.32 13.88,14.43 2.71,5.12 3.8,10.81 3.33,17.09 -0.63,8.25 -3.66,15.49 -9.05,21.73 -5.39,6.27 -13.22,11 -23.5,14.31 -10.28,3.26 -22.46,4.35 -36.49,3.29 -21.71,-1.66 -38.11,-7.49 -49.16,-17.46 -11.04,-9.99 -16.09,-21.07 -15.16,-33.34 0.42,-5.46 2.2,-10.4 5.34,-14.95 3.15,-4.5 7.45,-8.27 12.8,-11.32l-62.09 -4.73 1.35 -17.73zm110.75 24.82c-16.5,-1.25 -28.89,0.56 -37.11,5.47 -8.25,4.9 -12.66,11.25 -13.25,19.05 -0.57,7.47 2.99,14.35 10.64,20.59 7.66,6.28 19.96,10.06 36.87,11.35 16.7,1.27 29.25,-0.54 37.68,-5.44 8.43,-4.88 12.95,-11.23 13.55,-19.1 0.54,-7.1 -3.28,-13.87 -11.46,-20.36 -8.17,-6.44 -20.46,-10.31 -36.92,-11.56zm-64.8 174.98c-5.43,-6.69 -9.29,-13.38 -11.6,-20.14 -2.36,-6.8 -3.09,-13.61 -2.24,-20.47 1.35,-10.87 5.69,-19.13 13.06,-24.76 7.34,-5.68 16.56,-7.83 27.67,-6.45 7.35,0.91 13.66,3.23 18.96,6.99 5.3,3.73 9.23,8.45 11.77,14.11 2.54,5.67 3.91,13.96 4.1,24.86 0.26,14.62 1.4,25.5 3.43,32.55l5.5 0.82c8.75,1.08 15.06,0.28 19,-2.39 5.65,-3.73 9.05,-10.15 10.18,-19.22 1.01,-8.21 0.06,-14.55 -2.83,-19.06 -2.89,-4.45 -8.93,-8.23 -18.05,-11.31l5.37 -17.25c13.21,4.16 22.4,10.36 27.64,18.68 5.22,8.32 6.95,19.52 5.21,33.57 -1.36,10.95 -4.46,19.27 -9.36,25.01 -4.85,5.71 -10.45,9.04 -16.7,9.93 -6.28,0.87 -15.21,0.6 -26.85,-0.84l-28.71 -3.55c-20.1,-2.49 -32.81,-3.69 -38.13,-3.57 -5.28,0.1 -10.57,0.97 -15.79,2.6l2.27 -18.38c4.6,-1.33 9.98,-1.9 16.1,-1.73zm48.24 4.6c-2.39,-6.84 -3.88,-16.81 -4.5,-29.88 -0.35,-7.59 -1.18,-12.95 -2.45,-16.1 -1.26,-3.18 -3.31,-5.76 -6.1,-7.76 -2.77,-2.01 -6.14,-3.25 -10.06,-3.73 -6.05,-0.75 -11.14,0.52 -15.24,3.83 -4.1,3.3 -6.54,8.27 -7.36,14.89 -0.78,6.33 0.14,12.25 2.77,17.81 2.64,5.54 6.52,9.96 11.69,13.17 5.11,3.25 12.92,5.5 23.37,6.79l7.88 0.98zm51.14 79.89l-9.32 40.17c-2.12,9.14 -4.58,15.92 -7.43,20.37 -2.84,4.45 -7.42,7.96 -13.64,10.53 -6.25,2.57 -13.31,2.95 -21.21,1.12 -11.86,-2.75 -19.81,-8.95 -23.76,-18.52 -7.62,10.1 -19,13.41 -34.07,9.92 -9.66,-2.24 -17.26,-7.04 -22.74,-14.35 -5.52,-7.33 -6.66,-17.94 -3.45,-31.77l10.77 -46.43 124.85 28.96zm-56.46 5.16l-4.32 18.64c-1.72,7.42 -2.43,12.62 -2.15,15.64 0.28,2.98 1.62,5.95 3.95,8.81 2.34,2.87 5.58,4.76 9.71,5.72 6.52,1.52 11.51,0.6 14.95,-2.7 3.38,-3.31 6.14,-9.56 8.28,-18.78l4.47 -19.24 -34.89 -8.09zm-55.09 -12.78l-5.36 23.13c-2.29,9.86 -2.35,17.03 -0.18,21.55 2.12,4.51 6.41,7.48 12.83,8.97 6.78,1.58 12.1,0.69 15.98,-2.58 3.9,-3.33 7.08,-10.32 9.56,-20.99l4.94 -21.32 -37.77 -8.76zm21.39 107.76c21.27,5.99 36.06,14.99 44.39,26.96 8.31,11.96 10.54,24.82 6.69,38.49 -3.79,13.46 -12.38,23.15 -25.76,29.18 -13.39,5.97 -30.27,6.08 -50.72,0.32 -22.1,-6.23 -37.32,-15.31 -45.67,-27.28 -8.31,-11.92 -10.54,-24.78 -6.67,-38.53 3.81,-13.5 12.42,-23.26 25.84,-29.19 13.39,-5.93 30.71,-5.92 51.9,0.05zm-4.88 17.61c-16,-4.52 -28.7,-4.97 -38.13,-1.38 -9.44,3.58 -15.34,9.66 -17.75,18.22 -2.26,8 -0.28,15.99 5.98,23.96 6.27,7.97 17.31,14.16 33.15,18.62 15.89,4.48 28.55,4.92 37.98,1.34 9.44,-3.58 15.34,-9.66 17.75,-18.22 2.28,-8.08 0.3,-16.08 -5.94,-24 -6.19,-7.89 -17.23,-14.09 -33.04,-18.54zm-5.16 210.4l-7.3 16.22 -48.64 -21.88 -20.36 45.26 48.65 21.88 -7.3 16.22 -116.88 -52.57 7.29 -16.21 51.81 23.29 20.35 -45.26 -51.8 -23.3 7.29 -16.21 116.89 52.56zm-189.19 129.37c-2.39,-8.27 -3.34,-15.94 -2.85,-23.07 0.48,-7.18 2.46,-13.73 5.91,-19.72 5.47,-9.49 12.68,-15.41 21.67,-17.73 8.97,-2.38 18.3,-0.76 28,4.83 6.42,3.7 11.33,8.3 14.74,13.82 3.44,5.5 5.22,11.38 5.35,17.58 0.14,6.21 -1.83,14.38 -5.89,24.49 -5.46,13.57 -8.64,24.04 -9.52,31.32l4.75 2.89c7.64,4.4 13.77,6.13 18.43,5.2 6.66,-1.24 12.3,-5.83 16.86,-13.75 4.13,-7.16 5.71,-13.37 4.81,-18.65 -0.92,-5.23 -5.02,-11.06 -12.22,-17.44l11.66 -13.8c10.54,8.97 16.6,18.26 18.18,27.96 1.58,9.7 -1.19,20.69 -8.26,32.95 -5.51,9.56 -11.61,16.02 -18.36,19.4 -6.69,3.37 -13.14,4.25 -19.24,2.64 -6.13,-1.64 -14.25,-5.36 -24.41,-11.22l-25.06 -14.45c-17.55,-10.11 -28.79,-16.16 -33.74,-18.12 -4.9,-1.97 -10.11,-3.22 -15.56,-3.75l9.25 -16.05c4.76,0.56 9.94,2.13 15.5,4.67zm42.65 23.01c0.47,-7.23 2.97,-17 7.48,-29.27 2.63,-7.13 3.96,-12.39 4.01,-15.79 0.08,-3.42 -0.8,-6.59 -2.59,-9.52 -1.78,-2.92 -4.4,-5.38 -7.82,-7.35 -5.28,-3.05 -10.47,-3.86 -15.53,-2.4 -5.06,1.45 -9.24,5.07 -12.57,10.85 -3.19,5.53 -4.64,11.34 -4.38,17.48 0.27,6.13 2.13,11.72 5.64,16.68 3.44,4.99 9.76,10.1 18.88,15.36l6.88 3.96zm-91.12 131.03l13.67 9.74c-4.22,6.09 -6.86,10.43 -7.89,12.93 -0.99,2.53 -0.87,5.7 0.32,9.48 1.22,3.75 3.82,7.06 7.84,9.93 4.82,3.43 9.59,4.91 14.22,4.37 4.65,-0.58 8.43,-2.9 11.32,-6.95 5.78,-8.12 3.96,-17.9 -5.4,-29.46l12.49 -11.72c16.37,18.23 18.78,35.5 7.2,51.76 -6.4,8.99 -14.46,13.91 -24.21,14.75 -9.73,0.9 -18.84,-1.7 -27.32,-7.75 -8.18,-5.82 -12.54,-14.03 -13.08,-24.63 -11.86,4.6 -23.69,2.69 -35.49,-5.71 -9.39,-6.69 -15.02,-14.89 -16.9,-24.58 -1.89,-9.69 0.7,-19.5 7.8,-29.46 13.8,-19.38 32.44,-23.07 55.93,-11.13l-6.04 16c-7.52,-3.49 -14.51,-4.68 -20.91,-3.58 -6.42,1.14 -11.32,4.12 -14.76,8.95 -3.53,4.96 -4.71,10.24 -3.59,15.83 1.11,5.6 4.26,10.26 9.52,14.01 4.23,3.01 8.5,4.54 12.84,4.6 4.39,0.09 7.77,-0.74 10.14,-2.38 2.37,-1.7 5.4,-5.1 9.05,-10.23l3.25 -4.77zm-128.48 96.07c-0.78,-8.58 -0.25,-16.29 1.59,-23.19 1.84,-6.96 5.04,-13.02 9.56,-18.24 7.18,-8.27 15.39,-12.7 24.66,-13.27 9.25,-0.62 18.1,2.74 26.55,10.07 5.6,4.86 9.55,10.31 11.85,16.38 2.32,6.06 2.95,12.16 1.89,18.28 -1.04,6.12 -4.53,13.77 -10.45,22.92 -7.94,12.28 -13.06,21.95 -15.31,28.94l4.12 3.74c6.65,5.77 12.34,8.63 17.1,8.61 6.77,0.05 13.18,-3.38 19.17,-10.28 5.42,-6.25 8.15,-12.04 8.27,-17.39 0.09,-5.31 -2.81,-11.82 -8.67,-19.46l14.08 -11.32c8.64,10.82 12.81,21.09 12.52,30.91 -0.3,9.82 -5.11,20.08 -14.39,30.78 -7.23,8.33 -14.45,13.5 -21.72,15.54 -7.21,2.03 -13.71,1.67 -19.39,-1.08 -5.71,-2.78 -12.97,-7.97 -21.83,-15.66l-21.85 -18.96c-15.29,-13.27 -25.17,-21.36 -29.66,-24.22 -4.44,-2.87 -9.32,-5.09 -14.56,-6.65l12.14 -13.99c4.56,1.46 9.35,3.98 14.33,7.54zm37.47 30.72c1.84,-7.02 6.16,-16.13 12.93,-27.32 3.94,-6.49 6.24,-11.4 6.94,-14.73 0.73,-3.34 0.47,-6.63 -0.73,-9.84 -1.18,-3.21 -3.29,-6.12 -6.27,-8.71 -4.6,-3.99 -9.54,-5.78 -14.79,-5.31 -5.24,0.45 -10.04,3.22 -14.41,8.26 -4.18,4.81 -6.72,10.24 -7.63,16.32 -0.91,6.07 -0.14,11.91 2.35,17.45 2.43,5.55 7.66,11.77 15.62,18.67l5.99 5.21zm4.46 90.95l-12.28 12.86 -38.56 -36.86 -34.29 35.88 38.56 36.86 -12.29 12.85 -92.65 -88.55 12.29 -12.86 41.06 39.25 34.29 -35.88 -41.06 -39.24 12.29 -12.86 92.64 88.55zm-160.7 151.81l-83.67 -97.08 13.47 -11.61 32.57 37.79 7.79 -6.72c4.55,-3.92 7.37,-7.59 8.47,-11.1 1.11,-3.5 0.35,-11.27 -2.21,-23.31l-6.46 -31.26 16.71 -14.4 7.96 38.61c2.45,11.79 1.89,20.1 -1.62,24.92 8.83,-5.27 17.49,-6.76 25.93,-4.52 8.44,2.23 15.74,6.91 21.89,14.05 7.69,8.92 11.16,18.05 10.43,27.36 -0.68,9.34 -5.49,17.83 -14.38,25.49l-36.88 31.78zm1.71 -25.26l19.08 -16.44c7.97,-6.87 11.8,-12.84 11.45,-17.92 -0.35,-5.07 -2.29,-9.65 -5.75,-13.67 -5.06,-5.86 -10.45,-8.66 -16.22,-8.42 -5.71,0.25 -12.88,4.1 -21.49,11.51l-14.81 12.77 27.74 32.17zm-30.84 48.36l-67.16 52.83 -11.14 -14.16 26.6 -20.93 -68.1 -86.56 13.97 -11 68.1 86.57 26.59 -20.92 11.14 14.17zm-95.55 71.61l-72.02 45.99 -9.7 -15.19 28.52 -18.21 -59.27 -92.83 14.99 -9.57 59.27 92.83 28.51 -18.21 9.7 15.19zm-175.11 105.97l-64.21 -110.91 15.39 -8.91 24.99 43.17 8.9 -5.16c5.2,-3.01 8.65,-6.09 10.38,-9.33 1.74,-3.24 2.43,-11.01 2.15,-23.32l-0.55 -31.92 19.09 -11.05 0.67 39.42c0.22,12.04 -1.87,20.1 -6.21,24.19 9.64,-3.54 18.44,-3.4 26.31,0.36 7.88,3.76 14.19,9.71 18.91,17.87 5.9,10.19 7.62,19.8 5.18,28.82 -2.41,9.05 -8.71,16.5 -18.86,22.38l-42.14 24.39zm6.36 -24.5l21.8 -12.62c9.12,-5.28 13.98,-10.43 14.57,-15.49 0.6,-5.05 -0.45,-9.9 -3.11,-14.5 -3.88,-6.7 -8.66,-10.45 -14.37,-11.27 -5.66,-0.82 -13.42,1.63 -23.25,7.32l-16.92 9.8 21.28 36.76zm-229.88 -0.76c3.3,-7.95 7.36,-14.53 12.2,-19.78 4.87,-5.3 10.51,-9.18 16.95,-11.69 10.2,-3.98 19.53,-4.09 27.99,-0.28 8.49,3.75 14.76,10.85 18.83,21.27 2.69,6.9 3.65,13.56 2.86,20.01 -0.76,6.44 -3.04,12.14 -6.82,17.06 -3.78,4.93 -10.42,10.08 -19.92,15.43 -12.74,7.17 -21.77,13.35 -27.01,18.49l1.9 5.22c3.2,8.21 6.91,13.39 11.13,15.58 5.97,3.2 13.23,3.14 21.75,-0.18 7.7,-3.01 12.82,-6.86 15.41,-11.55 2.56,-4.65 3.01,-11.76 1.38,-21.25l17.73 -3.48c2.61,13.6 1.53,24.63 -3.3,33.19 -4.84,8.56 -13.87,15.4 -27.06,20.55 -10.27,4.01 -19.07,5.24 -26.45,3.65 -7.33,-1.55 -12.92,-4.9 -16.67,-9.97 -3.76,-5.11 -7.76,-13.09 -12.03,-24.02l-10.52 -26.95c-7.36,-18.86 -12.34,-30.62 -14.99,-35.24 -2.59,-4.6 -5.87,-8.84 -9.79,-12.66l17.25 -6.73c3.36,3.41 6.42,7.87 9.18,13.33zm18.88 44.63c4.89,-5.35 12.95,-11.41 24.15,-18.16 6.51,-3.92 10.83,-7.19 13,-9.81 2.2,-2.62 3.5,-5.65 3.93,-9.05 0.45,-3.39 -0.06,-6.95 -1.5,-10.63 -2.21,-5.68 -5.76,-9.55 -10.62,-11.58 -4.85,-2.04 -10.38,-1.82 -16.59,0.6 -5.95,2.32 -10.72,5.94 -14.35,10.9 -3.63,4.95 -5.67,10.47 -6.04,16.54 -0.43,6.05 1.3,13.99 5.13,23.8l2.89 7.39zm-57.92 89.4l-70.12 19.76 -29.94 -106.24 -10.93 3.08 -14.67 -52.05 14.02 -3.95 9.85 34.94 79.15 -22.31 -9.85 -34.94 14.26 -4.02 14.67 52.05 -9.03 2.55c-6.26,23.01 -2.06,60.06 12.59,111.13zm-19.15 -13.32c-10.08,-40.49 -13.36,-71.54 -9.84,-93.19l-53.95 15.21 25.05 88.89 38.74 -10.91zm-100.44 45.84l-40.18 9.27c-9.14,2.11 -16.31,2.89 -21.56,2.28 -5.25,-0.6 -10.41,-3.17 -15.45,-7.63 -5.05,-4.49 -8.5,-10.66 -10.32,-18.57 -2.74,-11.86 -0.66,-21.72 6.2,-29.47 -12.42,-2.41 -20.4,-11.18 -23.88,-26.26 -2.23,-9.66 -1.25,-18.59 2.91,-26.73 4.15,-8.18 13.19,-13.86 27.03,-17.05l46.44 -10.72 28.81 124.88zm-29.43 -48.45l-18.65 4.3c-7.41,1.71 -12.4,3.37 -14.99,4.94 -2.55,1.56 -4.63,4.07 -6.18,7.42 -1.55,3.36 -1.83,7.1 -0.88,11.23 1.51,6.53 4.53,10.61 9,12.25 4.46,1.58 11.28,1.32 20.51,-0.81l19.25 -4.44 -8.06 -34.89zm-12.71 -55.1l-23.13 5.33c-9.87,2.28 -16.34,5.38 -19.45,9.31 -3.12,3.89 -3.91,9.05 -2.42,15.47 1.56,6.78 4.69,11.17 9.34,13.21 4.7,2.05 12.38,1.84 23.05,-0.62l21.33 -4.93 -8.72 -37.77zm-91.17 66.59c2.71,21.94 0.14,39.05 -7.66,51.37 -7.81,12.3 -18.8,19.34 -32.89,21.08 -13.88,1.72 -26.14,-2.44 -36.88,-12.44 -10.69,-10.03 -17.34,-25.55 -19.95,-46.63 -2.82,-22.79 -0.35,-40.34 7.46,-52.68 7.77,-12.27 18.76,-19.32 32.93,-21.07 13.92,-1.73 26.26,2.43 36.92,12.51 10.66,10.04 17.36,26.01 20.07,47.86zm-18.13 2.33c-2.04,-16.51 -6.54,-28.38 -13.5,-35.69 -6.96,-7.31 -14.85,-10.4 -23.67,-9.3 -8.25,1.02 -14.86,5.93 -19.78,14.8 -4.91,8.86 -6.34,21.44 -4.32,37.77 2.03,16.38 6.53,28.23 13.48,35.54 6.96,7.31 14.85,10.39 23.67,9.3 8.34,-1.03 14.94,-5.96 19.83,-14.78 4.88,-8.76 6.31,-21.35 4.29,-37.64zm-112.73 76.87l-17.73 1.35 -4.2 -55.15c-5.66,0.43 -9.55,2.09 -11.64,4.93 -2.05,2.88 -4.84,10.77 -8.26,23.79 -2.63,10.44 -4.95,17.33 -6.92,20.75 -1.93,3.41 -4.26,5.77 -6.94,7.01 -2.67,1.23 -7.43,2.13 -14.33,2.65l-2.62 0.2 -1.35 -17.73 5.21 -0.26c3.74,-0.29 6.36,-1.19 7.85,-2.75 1.44,-1.55 2.6,-4.29 3.46,-8.1 3.09,-13.2 5.62,-21.73 7.67,-25.61 2.06,-3.87 5.51,-7.39 10.35,-10.6 -7.83,-1.93 -15.96,-10.02 -24.35,-24.32l-22.51 -38.12 19.73 -1.5 22.09 37.94c4.4,7.84 8.08,12.89 11.1,15.17 3.06,2.29 6.53,3.31 10.43,3.01l-4.5 -59.1 17.73 -1.35 9.73 127.79zm-180.72 -107.31c6.15,-6.04 12.45,-10.51 18.96,-13.46 6.54,-2.98 13.25,-4.35 20.16,-4.16 10.95,0.31 19.58,3.85 25.89,10.66 6.35,6.77 9.36,15.74 9.04,26.93 -0.21,7.41 -1.93,13.91 -5.17,19.54 -3.21,5.63 -7.54,9.99 -12.94,13.05 -5.4,3.07 -13.52,5.22 -24.35,6.44 -14.53,1.64 -25.26,3.8 -32.09,6.49l-0.28 5.55c-0.26,8.81 1.14,15.02 4.17,18.69 4.25,5.27 10.96,8.05 20.1,8.31 8.26,0.24 14.48,-1.31 18.7,-4.62 4.16,-3.29 7.35,-9.66 9.55,-19.03l17.68 3.71c-2.89,13.55 -8.19,23.28 -15.98,29.28 -7.79,5.99 -18.77,8.77 -32.93,8.37 -11.02,-0.32 -19.6,-2.62 -25.78,-6.96 -6.14,-4.29 -9.98,-9.55 -11.46,-15.68 -1.46,-6.18 -2.04,-15.09 -1.71,-26.81l0.83 -28.92c0.57,-20.24 0.56,-33.01 -0.07,-38.3 -0.59,-5.24 -1.96,-10.43 -4.08,-15.47l18.51 0.53c1.77,4.45 2.85,9.75 3.25,15.86zm-0.01 48.46c6.59,-3.03 16.37,-5.46 29.32,-7.31 7.52,-1.07 12.78,-2.4 15.8,-3.97 3.04,-1.55 5.42,-3.83 7.14,-6.8 1.74,-2.95 2.66,-6.42 2.77,-10.37 0.17,-6.09 -1.58,-11.04 -5.26,-14.81 -3.68,-3.76 -8.85,-5.72 -15.52,-5.91 -6.38,-0.18 -12.18,1.29 -17.46,4.44 -5.28,3.15 -9.31,7.43 -12.02,12.88 -2.75,5.39 -4.25,13.38 -4.55,23.91l-0.22 7.94zm-58.11 61.69l-85.2 -6.49 1.37 -17.97 33.74 2.57 8.36 -109.82 17.73 1.35 -8.36 109.82 33.73 2.57 -1.37 17.97zm-182.11 -103.32l-17 -5.85c4.71,-14.62 11.78,-25.18 21.15,-31.63 9.42,-6.44 19.69,-8.63 30.82,-6.6 13.57,2.47 23.69,10.04 30.41,22.76 6.73,12.69 8.11,29.93 4.15,51.67 -3.98,21.91 -11.39,37.55 -22.21,46.87 -10.86,9.36 -23.2,12.76 -37.04,10.24 -10.73,-1.95 -19.12,-6.91 -25.24,-14.89 -6.12,-7.97 -9,-18.78 -8.65,-32.44l17.58 -0.06c0.1,8.84 1.82,15.77 5.19,20.73 3.34,5 7.9,8.01 13.69,9.06 8.63,1.57 16.45,-0.94 23.51,-7.56 7.06,-6.63 12.1,-18.25 15.12,-34.86 3.14,-17.21 2.69,-30.13 -1.31,-38.76 -3.98,-8.67 -10.17,-13.77 -18.59,-15.31 -6.64,-1.2 -12.73,0.32 -18.34,4.52 -5.6,4.26 -10.02,11.62 -13.24,22.11zm-66.52 70.4l-17.32 -4.02 11.33 -48.83 -22.05 -5.12c-15.8,-3.66 -26.32,-10.02 -31.58,-19.07 -5.2,-9.06 -6.6,-18.89 -4.15,-29.44 2.32,-10.02 7.53,-18.1 15.59,-24.26 8.06,-6.12 19.32,-7.52 33.8,-4.16l43.34 10.05 -28.96 124.85zm7.62 -111.55l-18.2 -4.22c-13.22,-3.06 -22.14,-2.9 -26.69,0.52 -4.6,3.43 -7.49,7.69 -8.69,12.82 -1.55,6.7 -0.66,12.35 2.63,16.93 3.32,4.61 10.24,8.11 20.83,10.57l20.52 4.76 9.6 -41.38zm-129.6 80.93l-17.12 -4.82 15.01 -53.24c-5.47,-1.54 -9.69,-1.32 -12.63,0.63 -2.91,2 -8.24,8.45 -15.93,19.5 -6.06,8.9 -10.61,14.58 -13.63,17.11 -2.98,2.54 -5.99,3.96 -8.92,4.2 -2.94,0.24 -7.71,-0.55 -14.37,-2.43l-2.53 -0.71 4.82 -17.12 4.99 1.55c3.61,1.01 6.38,1.07 8.31,0.11 1.89,-0.96 3.92,-3.13 6.04,-6.42 7.43,-11.34 12.74,-18.48 16,-21.41 3.26,-2.93 7.7,-5.05 13.35,-6.41 -6.69,-4.49 -11.54,-14.89 -14.51,-31.19l-8.04 -43.54 19.05 5.37 7.7 43.22c1.44,8.87 3.17,14.88 5.22,18.06 2.09,3.2 5,5.35 8.76,6.41l16.08 -57.05 17.11 4.82 -34.76 123.36zm-80.29 -92.19c-8.17,20.54 -18.65,34.31 -31.42,41.35 -12.76,7.02 -25.78,7.91 -38.98,2.66 -13,-5.17 -21.73,-14.72 -26.34,-28.65 -4.55,-13.94 -2.91,-30.75 4.95,-50.48 8.49,-21.33 19.1,-35.54 31.87,-42.59 12.72,-7.03 25.74,-7.91 39.01,-2.63 13.04,5.18 21.85,14.76 26.36,28.73 4.5,13.93 2.7,31.15 -5.45,51.61zm-17 -6.68c6.15,-15.45 7.92,-28.03 5.33,-37.79 -2.58,-9.75 -8.02,-16.25 -16.28,-19.54 -7.72,-3.07 -15.88,-1.94 -24.45,3.46 -8.58,5.41 -15.88,15.75 -21.96,31.04 -6.11,15.33 -7.86,27.88 -5.28,37.64 2.58,9.75 8.01,16.25 16.27,19.54 7.81,3.11 15.97,1.96 24.49,-3.42 8.5,-5.33 15.81,-15.67 21.88,-30.93zm-141.73 11.68l-15.85 -8.05 24.28 -47.76 -19.15 -9.75c-20.16,31.86 -42.17,41.72 -65.98,29.62 -12.33,-6.27 -19.49,-16.52 -21.51,-30.71 -2.06,-14.2 1.64,-30.55 11.08,-49.12 9.92,-19.51 21.11,-32.52 33.66,-39.13 12.47,-6.57 25.07,-6.63 37.76,-0.18 11.93,6.07 18.87,15.55 20.9,28.55 2.03,12.98 -0.57,28 -7.85,45.13l19.15 9.74 25.75 -50.63 15.85 8.05 -58.09 114.24zm-68.6 -52.6c7.82,3.97 15.72,3.41 23.66,-1.69 7.93,-5.16 15.23,-14.23 21.91,-27.36 7.91,-15.56 11.59,-28.09 11.06,-37.64 -0.51,-9.55 -4.46,-16.21 -11.8,-19.94 -6.74,-3.43 -14.17,-3.19 -22.22,0.75 -8.05,3.94 -16.11,13.79 -24.17,29.63 -14.94,29.39 -14.4,48.14 1.56,56.25zm-165.65 -79.46l-59.34 -42.27 64.04 -89.9 -9.25 -6.59 31.38 -44.05 11.87 8.46 -21.07 29.56 66.98 47.71 21.06 -29.56 12.07 8.59 -31.38 44.05 -7.64 -5.44c-21.85,9.54 -48.1,36.02 -78.72,79.44zm-1.62 -23.27c25.24,-33.23 47.39,-55.24 66.47,-66.06l-45.66 -32.52 -53.59 75.22 32.78 23.36zm-112.57 -30.8l-15.34 19.67 -14.02 -10.94 15.34 -19.66 14.02 10.93zm93.41 -119.74l-78.83 101.05 -14.02 -10.94 78.83 -101.05 14.02 10.94zm-192.74 5.5l84 -96.8 13.43 11.66 -32.7 37.67 7.78 6.74c4.54,3.94 8.57,6.2 12.2,6.78 3.63,0.59 11.2,-1.28 22.75,-5.55l30 -10.9 16.67 14.46 -37.07 13.45c-11.31,4.12 -19.62,4.77 -24.89,1.99 6.49,7.97 9.21,16.33 8.22,25 -0.99,8.68 -4.57,16.57 -10.75,23.7 -7.72,8.89 -16.25,13.64 -25.57,14.26 -9.34,0.67 -18.43,-2.86 -27.29,-10.55l-36.78 -31.91zm25.24 -1.96l19.03 16.51c7.95,6.9 14.4,9.83 19.38,8.75 4.97,-1.08 9.22,-3.66 12.7,-7.67 5.07,-5.84 7.06,-11.58 5.99,-17.26 -1.07,-5.61 -5.91,-12.15 -14.49,-19.6l-14.77 -12.81 -27.84 32.08zm-69.2 -41.31l-57.34 -59.97 92.63 -88.57 12.29 12.85 -79.61 76.12 32.76 34.26 46.09 -44.06c10.5,-10.03 17.83,-16.54 21.98,-19.41 4.11,-2.9 8.68,-4.2 13.71,-3.95 5.02,0.26 9.89,2.85 14.55,7.73 2.91,3.03 5.97,6.6 9.23,10.72l-13.21 12.62c-5.87,-6.01 -9.51,-9.41 -10.9,-10.2 -1.4,-0.76 -3.13,-0.77 -5.14,-0.03 -2.04,0.74 -7.34,5.25 -16,13.53l-61.04 58.36z"/>
   <path class="fil2 str2" d="M755.14 3154l-10.99 -13.97 39.4 -31 -14 -17.78c-10.02,-12.75 -14.25,-24.3 -12.69,-34.64 1.61,-10.33 6.68,-18.87 15.19,-25.56 8.09,-6.36 17.21,-9.4 27.35,-9.16 10.11,0.26 19.77,6.23 28.96,17.9l27.51 34.97 -100.73 79.24zm75.76 -82.22l-11.55 -14.68c-8.4,-10.67 -15.46,-16.13 -21.15,-16.31 -5.72,-0.2 -10.65,1.31 -14.79,4.57 -5.4,4.25 -8.25,9.21 -8.55,14.84 -0.29,5.67 2.91,12.74 9.63,21.28l13.03 16.56 33.38 -26.26zm-152.74 -16.77l-10.34 -14.47 43.38 -31.03 -28.87 -40.36 -43.38 31.02 -10.35 -14.46 104.25 -74.55 10.34 14.46 -46.2 33.04 28.87 40.37 46.2 -33.04 10.35 14.46 -104.25 74.56zm-94.23 -97.06l-21.02 13.42 -9.57 -14.99 21.02 -13.42 9.57 14.99zm128.01 -81.73l-108.02 68.97 -9.57 -14.99 108.02 -68.97 9.57 14.99zm-104.14 -90.25l-5.6 -17.1c14.5,-5.06 27.18,-5.8 37.99,-2.22 10.82,3.62 18.76,10.48 23.87,20.58 6.22,12.31 6.29,24.95 0.2,37.99 -6.05,13.02 -18.96,24.53 -38.68,34.5 -19.88,10.05 -36.82,13.58 -50.78,10.58 -14.01,-3.01 -24.18,-10.79 -30.52,-23.35 -4.93,-9.73 -6.03,-19.41 -3.37,-29.11 2.66,-9.69 9.54,-18.51 20.64,-26.48l10.67 13.98c-6.99,5.42 -11.48,10.97 -13.4,16.65 -1.97,5.69 -1.61,11.13 1.04,16.39 3.96,7.83 10.68,12.54 20.22,14.17 9.54,1.63 21.86,-1.36 36.92,-8.98 15.61,-7.89 25.65,-16.05 30.11,-24.44 4.51,-8.41 4.84,-16.42 0.98,-24.06 -3.04,-6.03 -7.93,-9.96 -14.67,-11.9 -6.77,-1.89 -15.31,-0.98 -25.62,2.8zm-91.96 -1.55l-35.21 -77.86 16.42 -7.43 13.94 30.84 100.36 -45.39 7.32 16.2 -100.35 45.39 13.94 30.82 -16.42 7.43zm-51.87 -117.65l-5.8 -16.8 50.65 -17.49 -7.01 -20.31c-36.63,8.91 -59.32,0.71 -68.03,-24.53 -4.52,-13.08 -2.55,-25.43 5.86,-37.03 8.38,-11.65 22.4,-20.85 42.09,-27.64 20.69,-7.15 37.78,-8.73 51.39,-4.76 13.55,3.93 22.65,12.64 27.29,26.1 4.37,12.65 2.77,24.3 -4.79,35.05 -7.57,10.75 -19.87,19.75 -37.01,27.01l7.02 20.31 53.69 -18.53 5.8 16.8 -121.15 41.82zm-12.79 -85.49c2.86,8.29 8.93,13.38 18.19,15.23 9.29,1.79 20.84,0.33 34.77,-4.47 16.49,-5.7 27.85,-12.15 34.09,-19.39 6.27,-7.22 8.06,-14.76 5.38,-22.54 -2.48,-7.15 -7.98,-12.14 -16.51,-14.9 -8.53,-2.76 -21.16,-1.27 -37.97,4.53 -31.17,10.76 -43.8,24.62 -37.95,41.54zm-124.65 -217.15l-2.38 -19.19 127.36 -87.1 -136.06 16.84 -2.24 -18.13 175.47 -21.72 2.36 19.07 -126.9 87.42 135.64 -16.8 2.22 17.89 -175.47 21.72zm66.69 -130.93c-14.04,1.74 -25.68,-0.13 -34.95,-5.66 -9.23,-5.49 -14.5,-13.6 -15.83,-24.29 -1.3,-10.5 1.82,-19.48 9.35,-26.96 7.57,-7.52 18.94,-12.21 34.09,-14.08 14.79,-1.83 26.88,0.03 36.32,5.54 9.42,5.5 14.82,13.63 16.15,24.33 0.94,7.6 -0.46,14.36 -4.17,20.25 -3.75,5.9 -8.65,10.49 -14.79,13.82 -6.1,3.29 -14.86,5.65 -26.17,7.05zm-1.47 -17.23c11.27,-1.39 19.25,-4.25 23.99,-8.57 4.69,-4.31 6.73,-8.92 6.13,-13.81 -0.63,-5.04 -3.97,-8.97 -10.01,-11.83 -6.03,-2.83 -14.01,-3.62 -23.94,-2.39 -11.19,1.38 -19.03,4.31 -23.55,8.76 -4.54,4.46 -6.51,8.98 -5.95,13.55 0.61,4.9 3.75,8.79 9.42,11.77 5.71,2.94 13.66,3.79 23.91,2.52zm63.43 7.58l-8.28 -66.91 17.64 -2.18 8.29 66.9 -17.65 2.19zm-65.09 -176.67c-29.62,-0.85 -51.98,-5.48 -67.01,-13.9 -15.03,-8.41 -22.35,-20.4 -21.9,-35.95 0.39,-13.78 6.87,-24.46 19.48,-32.05 15.25,-9.19 39.29,-13.33 72.12,-12.39 29.5,0.84 51.81,5.43 66.89,13.81 15.07,8.38 22.38,20.4 21.94,36.04 -0.4,13.78 -7.47,24.85 -21.21,33.27 -13.75,8.39 -37.2,12.12 -70.31,11.17zm0.48 -18.26c28.71,0.82 48.09,-1.39 57.99,-6.58 9.95,-5.2 15.04,-12.09 15.29,-20.65 0.23,-8.1 -4.52,-14.99 -14.27,-20.75 -9.76,-5.71 -28.85,-8.97 -57.36,-9.79 -28.84,-0.82 -48.18,1.39 -58.08,6.57 -9.9,5.2 -14.96,12.18 -15.21,20.9 -0.23,8.03 4.51,14.87 14.28,20.54 9.76,5.68 28.85,8.94 57.36,9.76zm4.38 -116.65c-29.4,-3.64 -51.22,-10.36 -65.4,-20.16 -14.16,-9.8 -20.32,-22.42 -18.4,-37.86 1.69,-13.69 9.15,-23.71 22.42,-30.07 16.05,-7.71 40.37,-9.56 72.97,-5.52 29.29,3.62 51.06,10.3 65.28,20.06 14.22,9.77 20.36,22.43 18.44,37.95 -1.7,13.69 -9.78,24.04 -24.26,31.13 -14.47,7.04 -38.17,8.54 -71.05,4.47zm2.21 -18.13c28.5,3.52 48,3.16 58.35,-1.07 10.4,-4.24 16.12,-10.62 17.17,-19.12 0.99,-8.04 -3.08,-15.34 -12.24,-22 -9.18,-6.61 -27.88,-11.66 -56.18,-15.17 -28.63,-3.54 -48.1,-3.17 -58.45,1.06 -10.35,4.24 -16.04,10.71 -17.11,19.37 -0.99,7.96 3.09,15.23 12.27,21.8 9.18,6.57 27.88,11.62 56.19,15.13zm14.88 -112.37c-29.15,-5.3 -50.55,-13.26 -64.15,-23.85 -13.58,-10.58 -19.01,-23.53 -16.22,-38.84 2.46,-13.57 10.48,-23.15 24.09,-28.74 16.46,-6.8 40.85,-7.26 73.17,-1.38 29.03,5.29 50.39,13.19 64.03,23.74 13.64,10.57 19.05,23.55 16.25,38.94 -2.47,13.57 -11.12,23.45 -25.98,29.7 -14.86,6.21 -38.6,6.36 -71.19,0.43zm3.23 -17.98c28.26,5.14 47.75,5.88 58.32,2.25 10.62,-3.64 16.69,-9.69 18.23,-18.11 1.45,-7.97 -2.2,-15.5 -10.97,-22.66 -8.79,-7.12 -27.17,-13.23 -55.23,-18.34 -28.39,-5.16 -47.84,-5.9 -58.41,-2.26 -10.57,3.64 -16.63,9.78 -18.19,18.36 -1.44,7.9 2.22,15.38 11.01,22.46 8.8,7.08 27.18,13.19 55.24,18.3zm23.45 -114.29c-28.52,-8.04 -49.07,-17.98 -61.6,-29.81 -12.53,-11.82 -16.71,-25.23 -12.48,-40.2 3.74,-13.28 12.62,-22.06 26.7,-26.34 17.03,-5.2 41.35,-3.36 72.97,5.56 28.4,8 48.92,17.89 61.5,29.68 12.58,11.81 16.74,25.25 12.5,40.3 -3.74,13.28 -13.29,22.29 -28.68,27.11 -15.37,4.78 -39.02,2.69 -70.91,-6.3zm4.92 -17.6c27.64,7.79 46.98,10.37 57.85,7.75 10.91,-2.61 17.53,-8.06 19.85,-16.3 2.2,-7.8 -0.72,-15.63 -8.78,-23.6 -8.07,-7.91 -25.79,-15.73 -53.24,-23.47 -27.77,-7.83 -47.07,-10.4 -57.94,-7.78 -10.87,2.63 -17.48,8.17 -19.84,16.56 -2.18,7.73 0.75,15.53 8.84,23.41 8.09,7.88 25.81,15.7 53.26,23.43zm115.11 -71.28l-159.75 -98.26 4.61 -13.7 159.74 98.26 -4.6 13.7zm-57.46 -107.39c-27.53,-10.96 -46.94,-22.98 -58.18,-36.05 -11.22,-13.06 -13.99,-26.83 -8.24,-41.28 5.1,-12.82 14.85,-20.62 29.3,-23.42 17.48,-3.41 41.48,0.95 72,13.1 27.42,10.91 46.8,22.88 58.08,35.92 11.29,13.04 14.03,26.84 8.25,41.38 -5.1,12.81 -15.54,20.78 -31.34,23.98 -15.79,3.15 -39.09,-1.38 -69.87,-13.63zm6.72 -16.99c26.68,10.62 45.64,15.19 56.72,13.71 11.14,-1.46 18.28,-6.2 21.45,-14.15 2.99,-7.53 0.9,-15.62 -6.28,-24.38 -7.21,-8.71 -24.03,-18.33 -50.52,-28.88 -26.81,-10.67 -45.73,-15.23 -56.82,-13.75 -11.08,1.49 -18.23,6.3 -21.45,14.41 -2.97,7.46 -0.87,15.52 6.36,24.19 7.22,8.68 24.04,18.3 50.54,28.85zm46.43 -106.73c-26.41,-13.43 -44.64,-27.18 -54.63,-41.22 -9.99,-14.03 -11.48,-27.99 -4.43,-41.86 6.25,-12.3 16.68,-19.18 31.32,-20.64 17.72,-1.8 41.21,4.75 70.5,19.63 26.3,13.38 44.5,27.07 54.55,41.08 10.05,14.03 11.51,28.03 4.42,41.97 -6.25,12.29 -17.37,19.27 -33.4,21.01 -16.01,1.7 -38.8,-4.95 -68.33,-19.97zm8.25 -16.3c25.6,13.01 44.06,19.3 55.23,18.85 11.22,-0.44 18.77,-4.5 22.65,-12.13 3.67,-7.22 2.33,-15.48 -4.02,-24.86 -6.38,-9.33 -22.25,-20.45 -47.67,-33.38 -25.72,-13.07 -44.14,-19.35 -55.31,-18.89 -11.18,0.46 -18.74,4.61 -22.69,12.38 -3.64,7.16 -2.28,15.38 4.12,24.68 6.4,9.3 22.26,20.42 47.69,33.35zm134.54 -65.02l-21.39 -12.33 10.12 -17.55 21.39 12.34 -10.12 17.54zm-40.52 -102.06c-24.14,-17.19 -40.13,-33.48 -47.93,-48.85 -7.8,-15.35 -7.21,-29.38 1.82,-42.06 8,-11.23 19.32,-16.5 34.02,-15.77 17.79,0.84 40.06,10.79 66.82,29.85 24.03,17.12 40.01,33.35 47.87,48.7 7.86,15.36 7.24,29.42 -1.84,42.16 -8,11.23 -20.04,16.49 -36.14,15.83 -16.09,-0.69 -37.64,-10.64 -64.62,-29.86zm10.56 -14.9c23.39,16.66 40.72,25.62 51.84,26.82 11.16,1.22 19.23,-1.68 24.19,-8.65 4.7,-6.6 4.6,-14.96 -0.3,-25.17 -4.93,-10.18 -18.97,-23.53 -42.2,-40.07 -23.5,-16.74 -40.79,-25.67 -51.91,-26.88 -11.12,-1.19 -19.21,1.79 -24.27,8.89 -4.65,6.54 -4.52,14.87 0.43,25.02 4.95,10.15 18.99,23.49 42.22,40.04zm65.87 -90.82c-23.36,-18.23 -38.63,-35.2 -45.76,-50.89 -7.12,-15.68 -5.92,-29.67 3.65,-41.94 8.48,-10.87 20.03,-15.64 34.68,-14.28 17.73,1.62 39.55,12.53 65.45,32.73 23.27,18.15 38.52,35.06 45.71,50.74 7.18,15.69 5.95,29.7 -3.67,42.04 -8.48,10.87 -20.74,15.6 -36.8,14.25 -16.04,-1.39 -37.14,-12.27 -63.26,-32.65zm11.21 -14.43c22.64,17.66 39.56,27.36 50.62,29.05 11.09,1.71 19.28,-0.84 24.54,-7.59 4.99,-6.38 5.24,-14.74 0.8,-25.16 -4.48,-10.38 -17.93,-24.32 -40.42,-41.87 -22.75,-17.74 -39.64,-27.42 -50.69,-29.1 -11.06,-1.68 -19.27,0.95 -24.63,7.82 -4.94,6.33 -5.17,14.66 -0.67,25.01 4.51,10.35 17.96,24.3 40.45,41.84zm145.51 -37.3l-17.85 -17.06 13.99 -14.64 17.85 17.06 -13.99 14.64zm94.48 -123.34l14.33 14.99 -69.43 66.38c-6.02,-5.93 -10.71,-14.53 -14.07,-25.78 -3.33,-11.22 -4.75,-26.95 -4.3,-47.08 0.59,-23.51 -0.4,-40.32 -2.94,-50.43 -2.57,-10.12 -6.52,-18.02 -11.93,-23.67 -6.22,-6.51 -13.22,-10.02 -20.96,-10.48 -7.73,-0.47 -14.39,1.98 -19.98,7.32 -6.01,5.75 -8.81,12.64 -8.42,20.74 0.4,8.1 4.56,16.32 12.47,24.59l-14.75 11.02c-10.8,-13.14 -16.14,-25.69 -16.01,-37.65 0.09,-11.93 5.05,-22.59 14.89,-32 10.71,-10.24 22.24,-14.38 34.63,-12.44 12.42,1.96 22.98,7.53 31.77,16.72 7.76,8.12 13.08,17.96 15.9,29.56 2.85,11.62 4.16,29.43 4.03,53.42 -0.2,15.21 -0.04,25.31 0.46,30.31 0.47,5.01 1.38,9.61 2.72,13.8l51.59 -49.32zm-15.42 -75.88c-18.32,-23.29 -29.08,-43.43 -32.24,-60.37 -3.17,-16.93 1.35,-30.22 13.58,-39.84 10.84,-8.53 23.19,-10.4 37.09,-5.57 16.83,5.82 35.4,21.64 55.71,47.45 18.25,23.2 29.01,43.27 32.23,60.21 3.22,16.95 -1.33,30.26 -13.62,39.93 -10.84,8.53 -23.87,10.19 -39.14,5.03 -15.24,-5.19 -33.13,-20.8 -53.61,-46.84zm14.34 -11.33c17.75,22.57 31.86,36.04 42.19,40.32 10.36,4.32 18.92,3.81 25.65,-1.48 6.36,-5.01 8.62,-13.07 6.8,-24.25 -1.87,-11.15 -11.59,-27.91 -29.22,-50.32 -17.84,-22.68 -31.93,-36.12 -42.25,-40.4 -10.34,-4.27 -18.94,-3.69 -25.79,1.7 -6.31,4.97 -8.53,13 -6.64,24.13 1.9,11.13 11.62,27.88 29.26,50.3zm88.87 -68.78c-17.23,-24.1 -27.06,-44.71 -29.45,-61.77 -2.38,-17.06 2.73,-30.14 15.39,-39.19 11.22,-8.02 23.64,-9.32 37.31,-3.86 16.54,6.58 34.37,23.23 53.48,49.95 17.17,24 27,44.54 29.45,61.61 2.44,17.08 -2.72,30.17 -15.44,39.27 -11.21,8.02 -24.31,9.09 -39.33,3.23 -14.98,-5.87 -32.13,-22.29 -51.41,-49.24zm14.84 -10.66c16.71,23.36 30.19,37.46 40.31,42.21 10.16,4.78 18.73,4.67 25.69,-0.31 6.59,-4.72 9.2,-12.66 7.9,-23.91 -1.36,-11.23 -10.3,-28.41 -26.89,-51.61 -16.78,-23.46 -30.24,-37.53 -40.36,-42.28 -10.13,-4.74 -18.75,-4.55 -25.84,0.52 -6.53,4.67 -9.12,12.59 -7.73,23.79 1.39,11.21 10.33,28.39 26.92,51.59zm97.08 -64.88c-14.85,-25.64 -22.66,-47.1 -23.4,-64.31 -0.74,-17.21 5.61,-29.74 19.07,-37.53 11.94,-6.91 24.43,-7.01 37.51,-0.27 15.84,8.14 31.99,26.42 48.45,54.84 14.79,25.54 22.61,46.93 23.41,64.16 0.79,17.23 -5.6,29.77 -19.13,37.61 -11.94,6.91 -25.07,6.71 -39.46,-0.56 -14.36,-7.28 -29.85,-25.27 -46.45,-53.94zm15.79 -9.19c14.39,24.85 26.45,40.18 36.07,45.88 9.65,5.74 18.2,6.44 25.6,2.15 7.01,-4.06 10.38,-11.72 10.16,-23.04 -0.27,-11.3 -7.53,-29.26 -21.82,-53.95 -14.46,-24.96 -26.5,-40.26 -36.12,-45.95 -9.63,-5.7 -18.22,-6.33 -25.77,-1.96 -6.95,4.02 -10.28,11.66 -9.98,22.94 0.31,11.29 7.57,29.25 21.86,53.93z"/>
  </g>
  <path class="fil2 str1" d="M2675.12 504.4c-0.47,-7.88 -2.06,-15.76 -4.82,-23.58 -3.89,-11.23 -5.83,-18.99 -5.83,-23.22 0,-6 1.42,-10.53 4.18,-13.65 2.82,-3.11 6.29,-4.64 10.46,-4.64 3.53,0 6.65,1.53 9.29,4.64 2.65,3.12 3.94,7.53 3.94,13.29 0,5.18 -1.53,12.35 -4.52,21.58 -3.06,9.29 -4.94,17.82 -5.65,25.58 6.35,-4 12,-8.88 17.05,-14.64 7.82,-9.06 13.64,-14.7 17.41,-16.88 3.82,-2.17 7.64,-3.23 11.58,-3.23 3.76,0 6.94,1.29 9.52,3.88 2.59,2.53 3.88,5.64 3.88,9.17 0,4.29 -1.88,8.06 -5.7,11.41 -3.76,3.29 -13.23,6.64 -28.4,9.99 -8.82,1.94 -16.17,4.18 -22.05,6.7 6,3.12 13.29,5.47 21.88,7.06 13.87,2.53 22.98,5.7 27.28,9.47 4.35,3.82 6.46,7.93 6.46,12.4 0,3.47 -1.29,6.41 -3.88,8.94 -2.58,2.53 -5.58,3.82 -8.99,3.82 -3.47,0 -7.29,-1.23 -11.47,-3.64 -4.17,-2.42 -9.87,-7.82 -16.99,-16.17 -4.7,-5.65 -10.52,-10.94 -17.58,-15.88 0.24,6.59 1.59,13.7 4,21.4 4.12,13.53 6.17,22.76 6.17,27.7 0,4.58 -1.35,8.46 -4.11,11.64 -2.77,3.17 -5.71,4.76 -8.76,4.76 -4.29,0 -8.12,-1.71 -11.59,-5 -2.41,-2.41 -3.58,-6.29 -3.58,-11.58 0,-5.47 1.29,-12.11 3.94,-19.87 2.64,-7.76 4.29,-13.11 4.99,-16 0.71,-2.94 1.36,-7.29 1.89,-13.05 -6.77,4.53 -12.7,9.47 -17.7,14.99 -8.41,9.41 -14.7,15.41 -18.99,17.94 -3,1.82 -6.06,2.76 -9.29,2.76 -3.88,0 -7.23,-1.35 -10,-4 -2.76,-2.64 -4.11,-5.52 -4.11,-8.76 0,-2.88 1.17,-5.88 3.53,-9.05 2.35,-3.18 5.88,-5.76 10.58,-7.82 3.11,-1.41 10.17,-3.24 21.16,-5.53 7.12,-1.47 14.12,-3.64 20.88,-6.53 -6.24,-3.11 -13.64,-5.52 -22.23,-7.23 -14.11,-3 -22.87,-5.7 -26.16,-8.11 -5.18,-3.76 -7.76,-8.41 -7.76,-13.76 0,-3.11 1.29,-5.94 3.88,-8.52 2.59,-2.59 5.58,-3.88 9.05,-3.88 3.77,0 7.76,1.17 12.06,3.58 4.23,2.41 9.52,7.29 15.81,14.58 6.35,7.29 12.76,12.94 19.29,16.94z"/>
  <path class="fil3" d="M2050.01 1036.98c558.35,0 1010.98,453.54 1010.98,1013.02 0,559.48 -452.63,1013.02 -1010.98,1013.02 -558.35,0 -1010.98,-453.54 -1010.98,-1013.02 0,-559.48 452.63,-1013.02 1010.98,-1013.02z"/>
  <path class="fil2 str3" d="M1010.23 2288.39l9.89 29.17 -192.75 65.32 33.93 100.13 192.76 -65.32 9.88 29.16 -218.61 74.09 -53.7 -158.47 218.6 -74.08zm-115.64 -195.1c28.56,-3.56 52.21,0.48 70.88,12.08 18.67,11.64 29.34,27.97 31.96,48.96 1.06,8.51 1.01,16.19 -0.11,23.06 -1.13,6.81 -3.28,13.95 -6.52,21.33l71.84 -8.94 3.61 28.98 -235.04 29.28 -3.61 -28.99 18.01 -2.24c-7.36,-6.38 -13.77,-13.75 -19.22,-21.97 -5.45,-8.28 -8.8,-17.62 -10.09,-27.97 -2.47,-19.8 3.39,-36.15 17.61,-49.17 14.21,-13.02 34.42,-21.14 60.68,-24.41zm6.83 29.54c-19.59,2.44 -34.38,7.49 -44.42,15.09 -10.03,7.64 -14.17,18.5 -12.41,32.63 1.02,8.19 3.85,15.95 8.44,23.15 4.58,7.22 10.16,13.94 16.79,20.09l97.25 -12.11c2.78,-8.08 4.49,-14.9 5.13,-20.47 0.63,-5.57 0.55,-11.85 -0.32,-18.84 -1.88,-15.07 -8.79,-26.05 -20.81,-33.03 -12.01,-6.98 -28.54,-9.14 -49.65,-6.51zm88.66 -117.96l-0.8 29.2 -172.98 -4.78 0.81 -29.2 172.97 4.78zm-202.11 -7.8l-0.92 33.32 -30.15 -0.83 0.92 -33.33 30.15 0.84zm172.5 -171.32c9.62,1.2 17.49,4.31 23.64,9.34 6.1,5.02 10.72,11.09 13.79,18.15 3.01,6.72 4.9,14.15 5.75,22.42 0.84,8.2 0.79,16.3 -0.21,24.34 -1.4,11.23 -3.83,21.75 -7.29,31.56 -3.46,9.76 -8.23,19.35 -14.34,28.67l-32.1 -4 0.23 -1.84c7.28,-6.13 13.45,-14.21 18.49,-24.2 5.04,-10.04 8.17,-20.26 9.47,-30.65 0.56,-4.52 0.68,-9.36 0.38,-14.68 -0.35,-5.26 -1.28,-9.81 -2.88,-13.63 -2.26,-5.02 -4.89,-8.77 -7.83,-11.16 -3.02,-2.4 -7.35,-3.96 -13.03,-4.67 -6.09,-0.76 -11.12,-0.2 -15.07,1.59 -4.02,1.85 -7.14,4.67 -9.47,8.43 -2.33,3.71 -4,8.02 -5.08,12.91 -1.09,4.87 -1.95,10.09 -2.64,15.61l-2.51 20.17 -25.2 -3.14 1.91 -15.38c0.49,-3.89 0.98,-8.74 1.45,-14.6 0.45,-5.81 0.24,-10.53 -0.69,-14.16 -1.09,-4.56 -2.96,-8.37 -5.68,-11.38 -2.66,-3.04 -7.59,-5 -14.78,-5.89 -4.99,-0.62 -9.17,-0.03 -12.56,1.85 -3.31,1.87 -6.08,4.36 -8.23,7.51 -2.27,3.23 -4.01,6.86 -5.19,10.87 -1.19,3.95 -2,7.85 -2.47,11.64 -1.2,9.66 -0.99,19.12 0.57,28.38 1.63,9.27 4.66,17.43 9.16,24.5l-0.23 1.84 -31.24 -3.89c-1.66,-7.68 -2.89,-16.15 -3.72,-25.37 -0.83,-9.17 -0.71,-18.27 0.42,-27.3 0.91,-7.31 2.56,-14.56 5.02,-21.93 2.4,-7.33 5.81,-14.16 10.29,-20.48 4.25,-5.93 9.74,-10.62 16.36,-14.17 6.69,-3.54 14.41,-4.77 23.28,-3.66 9.35,1.16 17.22,4.81 23.6,10.94 6.38,6.17 10.14,13.69 11.36,22.68l1.05 0.14c4.44,-9.16 10.46,-16.35 17.95,-21.6 7.52,-5.25 16.93,-7.17 28.27,-5.76zm52.56 -186.03c7.92,2.69 14.47,6.6 19.53,11.74 5.1,5.09 8.83,11.04 11.15,17.71 2.89,8.41 4.03,16.56 3.39,24.51 -0.66,7.88 -2.74,16.95 -6.2,27.12l-21.92 64.48 -163.83 -55.71 20.49 -60.26c4.11,-12.09 7.46,-20.78 10.11,-26.08 2.61,-5.38 6.38,-10.24 11.26,-14.73 5.12,-4.69 10.68,-7.55 16.82,-8.54 6.1,-1 12.68,-0.27 19.79,2.15 7.81,2.65 14.09,7.2 18.83,13.62 4.72,6.35 7.59,13.7 8.51,22.01l1.26 -0.42c5.27,-8.09 12.34,-13.96 21.25,-17.64 8.89,-3.63 18.74,-3.64 29.56,0.04zm-84.67 12.47c-3.71,-1.27 -7.11,-1.76 -10.23,-1.48 -3.14,0.34 -6,1.71 -8.57,4.19 -3.01,2.89 -5.43,6.42 -7.25,10.62 -1.83,4.24 -4.03,10.2 -6.63,17.86l-8.88 26.1 44.49 15.13 10.72 -31.51c2.28,-6.72 3.6,-11.58 3.9,-14.6 0.35,-3.01 0.07,-6.63 -0.84,-10.68 -0.8,-3.91 -2.69,-7.06 -5.49,-9.53 -2.84,-2.47 -6.56,-4.52 -11.22,-6.1zm74.85 16.06c-5.61,-1.91 -10.39,-2.65 -14.29,-2.18 -3.95,0.44 -8.17,2.98 -12.66,7.49 -2.86,2.82 -5.11,6.14 -6.83,9.91 -1.74,3.77 -3.78,9.11 -6.13,16.03l-10.97 32.26 53.8 18.3 8.09 -23.8c3.36,-9.87 5.55,-17.62 6.61,-23.35 1.1,-5.71 1.09,-10.92 0.06,-15.63 -1.18,-4.93 -3.11,-8.93 -5.78,-11.91 -2.73,-3 -6.69,-5.35 -11.9,-7.12zm140.41 -177.27l-13.28 26.02 -114.94 -58.7 78.14 130.76 -12.15 23.79 -154.11 -78.69 13.28 -26.02 113.17 57.79 -76.78 -129.04 12.56 -24.6 154.11 78.69zm207.62 -191.93l-17.72 20.36 -31.37 -27.31 -128.22 147.26 -130.5 -113.63 19.18 -22.03 112.06 97.58 38.57 -44.3 -112.06 -97.57 19.18 -22.03 112.06 97.57 38.57 -44.3 -112.06 -97.57 19.18 -22.03 112.06 97.57 11.27 -12.93 49.8 43.36zm66.85 -98.76c-21.61,17.2 -43.27,24.49 -64.89,21.88 -21.62,-2.61 -41.32,-15.13 -59.12,-37.49 -17.52,-22.03 -25.66,-44.16 -24.44,-66.43 1.17,-22.23 11.15,-40.8 29.86,-55.68 8.45,-6.73 16.85,-11.46 25.27,-14.15 8.41,-2.77 17.11,-3.49 26.07,-2.16 9,1.29 17.75,4.62 26.27,10.06 8.54,5.39 17.1,13.51 25.71,24.33l9.85 12.38 -94.16 74.92c12.49,15.69 26.02,24.54 40.56,26.49 14.57,2 28.88,-2.62 42.91,-13.79 5.02,-3.99 9.53,-8.53 13.43,-13.46 3.96,-4.98 7.12,-9.92 9.6,-14.81 2.66,-5.16 4.75,-9.74 6.19,-13.71 1.47,-4.01 2.52,-7.55 3.16,-10.57l1.33 -1.06 19.8 24.89c-1.87,3.18 -4.13,7.14 -6.86,11.88 -2.71,4.74 -5.29,8.81 -7.74,12.18 -3.52,4.77 -6.78,8.92 -9.85,12.44 -3.11,3.5 -7.44,7.48 -12.95,11.86zm-41.37 -107.06c-5.04,-6 -10,-10.71 -14.81,-14.11 -4.81,-3.42 -9.72,-5.66 -14.56,-6.82 -5.36,-1.21 -10.87,-1.09 -16.47,0.46 -5.6,1.55 -11.46,4.8 -17.68,9.74 -6.09,4.84 -10.54,9.87 -13.35,15.08 -2.81,5.22 -4.64,10.93 -5.34,17.17 -0.6,6.3 -0.04,12.28 1.56,18.03 1.64,5.72 4.55,11.67 8.6,17.77l72.05 -57.32zm298.98 -40.2l-81.9 36.95 -9.67 -21.42 26.92 -12.14 -75.61 -167.57 -26.91 12.15 -9.66 -21.41 81.9 -36.96 9.66 21.42 -26.92 12.14 75.6 167.56 26.92 -12.14 9.67 21.42zm205.91 -55.01l-28.46 6.59 -30.64 -132.51 -20.56 95.46 -21.14 4.89 -60.08 -76.81 30.65 132.5 -26.6 6.16 -38.99 -168.59 34.27 -7.93 66.06 83.36 21.23 -103.55 35.27 -8.16 38.99 168.59zm47.91 -152.1l-10.34 -41.73 -2.89 -37.83 31.66 -2.41 2.88 37.83 -4.21 42.83 -17.1 1.31zm211.85 143.39l-29.19 -0.81 1.89 -68.55 -28.57 -0.79 -53.52 67.12 -34.06 -0.94 57.72 -69.66c-14.22,-4.63 -24.57,-11.22 -30.96,-19.76 -6.42,-8.54 -9.45,-19.84 -9.06,-33.91 0.24,-8.57 2.35,-16.03 6.28,-22.37 3.94,-6.36 9.22,-11.66 15.75,-15.93 5.22,-3.35 11.85,-5.76 19.73,-7.29 7.93,-1.47 16.73,-2.08 26.42,-1.81l62.36 1.73 -4.79 172.97zm-26.66 -92.21l1.6 -58.08 -31.53 -0.87c-6.66,-0.19 -11.96,0.03 -15.85,0.62 -3.88,0.63 -7.67,1.9 -11.32,3.87 -3.77,2.16 -6.65,5.15 -8.67,8.96 -2.01,3.81 -3.07,7.91 -3.19,12.35 -0.16,5.66 0.34,10.28 1.56,13.86 1.17,3.64 3.41,6.93 6.72,10.03 3.56,3.17 7.89,5.36 13.05,6.46 5.15,1.14 10.86,1.78 17.05,1.95l30.58 0.85zm351.11 171.42l-29.18 -9.85 65.07 -192.83 -100.18 -33.81 -65.07 192.84 -29.17 -9.85 73.8 -218.7 158.53 53.5 -73.8 218.7zm222.48 23.55c-14.66,25.21 -32.03,41.07 -52.13,47.74 -20.12,6.6 -40.26,4.07 -60.43,-7.67 -20.82,-12.1 -33.07,-28.71 -36.74,-49.77 -3.72,-21.07 1.51,-43.75 15.64,-68.04 14.52,-24.97 31.93,-40.8 52.28,-47.46 20.32,-6.72 40.52,-4.21 60.6,7.46 20.18,11.74 32.31,28.04 36.46,48.88 4.09,20.86 -1.11,43.8 -15.68,68.86zm-26.08 -15.16c11.2,-19.25 16.01,-35.62 14.42,-49.09 -1.59,-13.48 -8.89,-23.97 -21.89,-31.53 -13.08,-7.61 -25.9,-8.82 -38.45,-3.56 -12.54,5.24 -24.39,17.52 -35.59,36.77 -10.85,18.66 -15.55,34.85 -14.08,48.62 1.48,13.78 8.8,24.46 21.88,32.07 12.9,7.5 25.65,8.61 38.25,3.27 12.61,-5.34 24.39,-17.52 35.46,-36.55zm294.72 171.3c-0.35,9.57 -2.96,19.33 -8,29.28 -4.99,9.94 -12.5,19.69 -22.5,29.29 -9.63,9.23 -20,16.23 -31.13,21.05 -11.11,4.79 -21.94,7.25 -32.57,7.4 -10.97,0.18 -21.04,-1.52 -30.24,-5.24 -9.21,-3.71 -17.5,-9.39 -24.87,-17.07 -7.51,-7.83 -13.02,-16.32 -16.53,-25.42 -3.55,-9.13 -4.69,-18.73 -3.44,-28.81 1.61,-12.53 6.34,-25.35 14.29,-38.47 7.9,-13.08 19.73,-27.21 35.51,-42.34 5.57,-5.34 11.52,-10.6 17.76,-15.64 6.28,-5.07 14.22,-10.63 23.83,-16.75 8.6,-5.4 17.18,-9.75 25.75,-13.12 8.64,-3.38 16.99,-5.07 25.22,-5.05 10.56,0 21.58,2.7 33.03,8.07 11.53,5.36 24.62,14.51 39.36,27.36 5.25,4.56 10.8,9.51 16.67,14.8 5.89,5.28 10.37,9.34 13.45,12.1l-19.48 18.68c-3.93,-3.64 -8.15,-7.5 -12.7,-11.57 -4.56,-4.06 -9.74,-8.69 -15.62,-13.92 -7.75,-6.93 -16.63,-13.51 -26.53,-19.71 -9.86,-6.24 -18.97,-9.31 -27.27,-9.32 -6.18,-0.1 -13.14,1.81 -20.9,5.65 -7.72,3.88 -15.61,8.95 -23.63,15.19 9.21,1.72 18.24,4.43 26.96,8.09 8.76,3.7 16.65,9.18 23.64,16.47 6.49,6.76 11.5,14.28 15.1,22.56 3.57,8.3 5.18,17.09 4.84,26.44zm-52.24 38.5c13.22,-12.67 20.52,-25.39 21.87,-38.12 1.36,-12.73 -3.21,-24.63 -13.76,-35.63 -5.79,-6.03 -12.39,-10.92 -19.76,-14.71 -7.4,-3.74 -15.13,-6.53 -23.18,-8.35 -2.02,1.65 -4.38,3.62 -7.08,5.92 -2.74,2.34 -5.15,4.5 -7.21,6.47 -12.99,12.46 -22.58,23.63 -28.7,33.54 -6.16,9.86 -9.75,18.87 -10.79,27.05 -0.97,7.31 -0.47,13.65 1.48,18.89 1.99,5.29 5.07,10.1 9.27,14.49 10.26,10.7 22.3,15.15 36.14,13.3 13.82,-1.8 27.71,-9.41 41.72,-22.85zm79.27 171.03l38.92 -27.73c-4.51,-5.23 -10.27,-11.86 -17.24,-19.83 -7.01,-8 -13.21,-14.04 -18.54,-18.16 -6.42,-4.92 -13.07,-8.04 -19.95,-9.31 -6.89,-1.27 -13.92,0.63 -21.03,5.69 -8.02,5.71 -12.46,12.33 -13.34,19.77 -0.86,7.44 1.78,15.51 7.98,24.22 5.34,7.49 11.72,13.09 19.25,16.82 7.49,3.75 15.51,6.61 23.95,8.53zm-19.69 14.03c-2.85,-0.9 -6.67,-2.07 -11.56,-3.46 -4.85,-1.42 -9.13,-3.05 -12.78,-4.99 -5.21,-2.66 -9.77,-5.51 -13.74,-8.6 -3.92,-3.05 -8.43,-8.09 -13.46,-15.16 -4.15,-5.82 -6.97,-12.06 -8.49,-18.84 -1.52,-6.78 -1.71,-13.53 -0.58,-20.32 1.21,-6.51 3.85,-12.93 7.9,-19.27 4.03,-6.31 9.21,-11.7 15.55,-16.21 9.78,-6.97 19.53,-10.8 29.34,-11.62 9.8,-0.75 19.87,1.89 30.25,7.88 9.23,5.3 18.4,12.88 27.42,22.62 9.06,9.79 18.36,20.65 27.89,32.57l4.61 -3.28c5.6,-3.99 9.52,-8.08 11.76,-12.22 2.26,-4.14 3.27,-8.37 2.97,-12.71 -0.2,-4.47 -1.52,-9.05 -4,-13.91 -2.46,-4.81 -5.38,-9.56 -8.67,-14.17 -3.9,-5.47 -9.29,-11.31 -16.25,-17.51 -6.93,-6.18 -14.67,-11.84 -23.14,-16.99l-0.99 -1.37 24.09 -17.17c4.38,3.51 10.22,8.77 17.56,15.88 7.34,7.12 13.86,14.62 19.57,22.64 6.91,9.69 11.94,18.39 15.2,26.15 3.22,7.71 4.77,15.63 4.58,23.76 -0.22,7.89 -2.53,15.32 -6.84,22.22 -4.35,6.94 -10.96,13.53 -19.79,19.83l-96.53 68.79 -16.95 -23.79 15.08 -10.75zm214.99 141.47l-24.3 -53.83 -134.56 60.74 -12.02 -26.63 134.56 -60.74 -24.29 -53.82 23.15 -10.45 60.61 134.28 -23.15 10.45zm-35.37 208.77c-8.11,2.28 -15.85,2.7 -23.32,1.33 -7.49,-1.41 -14.02,-4.31 -19.65,-8.72 -6.84,-5.17 -12.33,-11.22 -16.51,-18.06 -4.19,-6.91 -7.94,-16.19 -11.25,-27.96l-16.37 -58.33 166.61 -46.75 7.89 28.12 -64.81 18.19 8.71 31.02c3.52,12.53 5.57,22.4 6.24,29.69 0.67,7.29 -0.61,15.06 -3.79,23.32 -2.65,7 -6.89,12.87 -12.76,17.59 -5.85,4.78 -12.85,8.28 -20.99,10.56zm-8.46 -28.95c5.04,-1.41 9.23,-3.52 12.56,-6.33 3.34,-2.8 5.65,-6.53 6.93,-11.18 1.28,-4.86 1.47,-10.02 0.44,-15.45 -0.99,-5.5 -2.87,-13.15 -5.66,-23.09l-5.84 -20.83 -56.55 15.86 5.68 20.22c2.78,9.94 5.35,17.52 7.74,22.73 2.36,5.28 5.31,9.5 8.82,12.81 3.69,3.36 7.58,5.45 11.61,6.3 4.08,0.84 8.82,0.49 14.27,-1.04zm-20.16 226.29l-4.49 -36.02 71.73 -68.87 -1.78 -14.28 -79.08 9.85 -3.61 -28.99 171.71 -21.39 3.61 28.99 -74.67 9.3c1.04,7.44 3.4,13.65 7.06,18.53 3.7,4.87 10.14,8.6 19.3,11.14 2.71,0.78 5.81,1.67 9.39,2.56 3.52,0.95 6.66,1.68 9.33,2.14 13.15,2.85 22.86,7.98 29.06,15.37 6.19,7.39 10.08,17.57 11.68,30.44l0.98 7.87 -25.21 3.13 -0.82 -6.6c-1.01,-8.09 -3.39,-13.93 -7.09,-17.57 -3.76,-3.64 -10.17,-6.31 -19.33,-7.94 -9.29,-1.73 -16.63,-4.22 -22.12,-7.54 -5.47,-3.27 -9.79,-7.1 -13.05,-11.44l-82.6 81.32zm73.56 184.85c-29.08,-2.21 -50.92,-10.93 -65.68,-26.11 -14.71,-15.23 -21.21,-34.46 -19.45,-57.73 1.83,-24.01 11.44,-42.27 28.78,-54.76 17.35,-12.53 40.04,-17.71 68.06,-15.58 28.81,2.19 50.64,10.96 65.5,26.37 14.91,15.35 21.46,34.63 19.7,57.8 -1.77,23.27 -11.15,41.29 -28.1,54.11 -16.99,12.77 -39.9,18.09 -68.81,15.9zm2.28 -30.08c22.21,1.69 39.04,-1.11 50.47,-8.42 11.43,-7.3 17.7,-18.45 18.83,-33.44 1.15,-15.08 -3.35,-27.16 -13.55,-36.16 -10.19,-9 -26.4,-14.32 -48.61,-16 -21.52,-1.64 -38.15,1.19 -49.89,8.52 -11.76,7.33 -18.18,18.58 -19.33,33.66 -1.13,14.88 3.43,26.85 13.73,35.86 10.3,9.01 26.4,14.32 48.35,15.98zm-76.32 213.84c-8.15,-1.88 -15.06,-5.1 -20.62,-9.7 -5.58,-4.55 -9.9,-10.1 -12.88,-16.49 -3.73,-8.07 -5.68,-16.08 -5.86,-24.05 -0.14,-7.9 1.02,-17.14 3.43,-27.6l15.29 -66.37 168.62 38.86 -14.29 62.03c-2.87,12.43 -5.32,21.42 -7.42,26.96 -2.05,5.61 -5.31,10.83 -9.71,15.79 -4.62,5.19 -9.86,8.6 -15.87,10.2 -5.97,1.61 -12.59,1.55 -19.9,-0.13 -8.04,-1.86 -14.75,-5.74 -20.12,-11.65 -5.34,-5.85 -8.93,-12.86 -10.69,-21.04l-1.21 0.55c-4.42,8.58 -10.87,15.13 -19.36,19.69 -8.48,4.51 -18.28,5.52 -29.41,2.95zm82.97 -20.96c3.82,0.88 7.26,1.03 10.33,0.43 3.09,-0.65 5.8,-2.31 8.11,-5.03 2.69,-3.18 4.75,-6.94 6.13,-11.3 1.39,-4.4 2.98,-10.55 4.79,-18.44l6.19 -26.86 -45.79 -10.55 -7.47 32.43c-1.59,6.91 -2.41,11.88 -2.4,14.92 -0.05,3.03 0.59,6.6 1.91,10.54 1.19,3.8 3.39,6.75 6.42,8.92 3.08,2.18 6.99,3.84 11.78,4.94zm-76.09 -8.41c5.78,1.33 10.6,1.58 14.43,0.72 3.89,-0.84 7.84,-3.79 11.85,-8.73 2.56,-3.1 4.46,-6.62 5.8,-10.55 1.34,-3.93 2.83,-9.45 4.47,-16.57l7.65 -33.2 -55.38 -12.76 -5.64 24.48c-2.34,10.17 -3.74,18.1 -4.21,23.91 -0.52,5.79 0.02,10.97 1.52,15.55 1.67,4.78 4,8.57 6.96,11.27 3.02,2.71 7.19,4.64 12.55,5.88zm-87.85 89.63l10.76 -27.16 160.87 63.73 -10.75 27.16 -160.88 -63.73zm187.21 76.55l12.28 -30.99 28.04 11.11 -12.28 30.99 -28.04 -11.11z"/>
  <path class="fil3 str4" d="M2050.01 663.66c765.65,0 1386.34,620.69 1386.34,1386.34 0,765.65 -620.69,1386.34 -1386.34,1386.34 -765.65,0 -1386.34,-620.69 -1386.34,-1386.34 0,-765.65 620.69,-1386.34 1386.34,-1386.34z"/>
  <path class="fil2 str2" d="M1313.19 3132.92l96.81 -275.77 36.71 0 102.75 275.77 -38.01 0 -29.19 -83.58 -106.28 0 -27.37 83.58 -35.42 0zm72.61 -113.24l86 0 -26.31 -76.45c-7.94,-23.24 -13.93,-42.43 -18.1,-57.58 -3.46,17.97 -8.1,35.62 -13.92,53.09l-27.67 80.94zm236.05 -86.66l127.59 0 0 172.17 19.74 0 0 84.35 -25.38 0 0 -56.62 -144.15 0 0 56.62 -25.38 0 0 -84.35 16.21 0c21.86,-32.42 32.31,-89.81 31.37,-172.17zm25.73 28.12c-2.29,64.9 -11.45,112.91 -27.49,144.05l98.34 0 0 -144.05 -70.85 0zm181.07 -28.12l71.38 0c17.51,0 30.55,1.61 39.12,4.82 8.52,3.21 15.86,9.05 21.97,17.59 6.17,8.6 9.22,18.8 9.22,30.74 0,9.57 -1.82,17.91 -5.4,24.98 -3.64,7.12 -9.05,13.09 -16.34,17.84 8.59,3.15 15.69,8.99 21.39,17.59 5.64,8.54 8.45,18.74 8.45,30.49 -1.11,18.94 -7.33,33 -18.55,42.11 -11.22,9.18 -27.56,13.74 -48.93,13.74l-82.31 0 0 -199.9zm31.01 84.35l32.9 0c13.11,0 22.15,-0.77 27.02,-2.24 4.94,-1.55 9.35,-4.56 13.23,-9.18 3.87,-4.56 5.81,-10.08 5.81,-16.5 0,-10.59 -3.41,-17.91 -10.16,-22.08 -6.82,-4.18 -18.45,-6.23 -34.9,-6.23l-33.9 0 0 56.23zm0 87.82l40.72 0c17.5,0 29.55,-2.25 36.07,-6.68 6.52,-4.49 9.92,-12.13 10.28,-23.11 0,-6.35 -1.89,-12.32 -5.64,-17.78 -3.83,-5.46 -8.76,-8.92 -14.81,-10.33 -6.05,-1.48 -15.8,-2.19 -29.19,-2.19l-37.43 0 0 60.09zm166.16 -72.22c0,-36.91 9.4,-64.26 28.26,-82.04 15.68,-14.76 34.89,-22.14 57.5,-22.14 25.09,0 45.65,8.98 61.63,26.96 15.92,17.91 23.91,42.75 23.91,74.4 0,25.67 -3.52,45.83 -10.58,60.53 -7.05,14.7 -17.32,26.13 -30.84,34.28 -13.45,8.15 -28.19,12.2 -44.12,12.2 -25.61,0 -46.28,-8.93 -62.09,-26.84 -15.8,-17.91 -23.67,-43.71 -23.67,-77.35zm31.72 0.07c0,25.54 5.11,44.67 15.33,57.32 10.28,12.71 23.15,19.07 38.71,19.07 15.4,0 28.21,-6.36 38.48,-19.13 10.23,-12.78 15.33,-32.23 15.33,-58.36 0,-24.65 -5.17,-43.33 -15.45,-55.97 -10.27,-12.71 -23.08,-19.07 -38.36,-19.07 -15.56,0 -28.43,6.29 -38.71,18.94 -10.22,12.65 -15.33,31.71 -15.33,57.2zm201.05 -100.02l31.01 0 0 86.28c9.86,0 16.8,-2.06 20.79,-6.23 3.94,-4.11 9.76,-16.11 17.51,-36.08 6.11,-15.79 11.04,-26.19 14.8,-31.19 3.82,-5.01 8.17,-8.41 13.11,-10.15 4.98,-1.73 12.92,-2.63 23.78,-2.63l6.23 0 0 27.93 -8.64 -0.2c-8.16,0 -13.38,1.35 -15.68,3.98 -2.41,2.76 -6.1,10.98 -11.05,24.65 -4.69,13.1 -8.98,22.15 -12.92,27.16 -3.88,5 -9.93,9.56 -18.09,13.73 13.33,3.92 26.49,17.47 39.41,40.7l34.02 61.95 -34.07 0 -33.55 -61.75c-6.75,-12.52 -12.63,-20.74 -17.61,-24.72 -5.06,-3.98 -11.05,-5.97 -18.04,-5.97l0 92.44 -31.01 0 0 -199.9zm307.24 174.86c-11.51,10.72 -22.61,18.24 -33.24,22.66 -10.64,4.43 -22.04,6.62 -34.25,6.62 -20.09,0 -35.55,-5.33 -46.36,-16.05 -10.8,-10.66 -16.2,-24.33 -16.2,-40.96 0,-9.75 2.05,-18.68 6.1,-26.77 4.12,-8.08 9.46,-14.5 16.04,-19.38 6.64,-4.88 14.04,-8.6 22.32,-11.11 6.12,-1.73 15.33,-3.4 27.61,-5.07 25.03,-3.21 43.53,-7.12 55.34,-11.62 0.12,-4.62 0.17,-7.57 0.17,-8.79 0,-13.74 -2.93,-23.43 -8.81,-29.08 -7.92,-7.64 -19.73,-11.43 -35.36,-11.43 -14.62,0 -25.44,2.83 -32.37,8.41 -6.99,5.59 -12.09,15.47 -15.44,29.72l-30.32 -4.62c2.76,-14.19 7.28,-25.68 13.63,-34.41 6.35,-8.73 15.51,-15.4 27.49,-20.15 11.93,-4.69 25.85,-7.06 41.6,-7.06 15.62,0 28.36,1.99 38.17,6.03 9.76,4.04 16.98,9.05 21.56,15.15 4.59,6.1 7.82,13.8 9.69,23.11 1.01,5.78 1.53,16.18 1.53,31.13l0 44.94c0,31.39 0.65,51.22 1.94,59.63 1.24,8.41 3.82,16.44 7.58,24.14l-32.42 0c-3.11,-7.13 -5.12,-15.47 -6,-25.04zm-2.47 -75.1c-11.27,5.01 -28.19,9.24 -50.75,12.71 -12.8,1.99 -21.85,4.24 -27.14,6.74 -5.28,2.5 -9.34,6.16 -12.22,10.91 -2.87,4.82 -4.34,10.14 -4.34,16.05 0,8.92 3.11,16.43 9.39,22.4 6.29,5.97 15.45,8.99 27.49,8.99 11.94,0 22.56,-2.82 31.9,-8.54 9.28,-5.65 16.16,-13.41 20.5,-23.23 3.35,-7.64 5,-18.88 5,-33.71l0.17 -12.32zm80.5 -99.76l148.04 0 0 28.12 -58.51 0 0 171.78 -31.01 0 0 -171.78 -58.52 0 0 -28.12z"/>
  <path class="fil2 str1" d="M3002.71 2703.38c-0.47,-7.88 -2.06,-15.76 -4.82,-23.58 -3.89,-11.23 -5.83,-18.99 -5.83,-23.22 0,-6 1.42,-10.53 4.18,-13.65 2.82,-3.11 6.29,-4.64 10.46,-4.64 3.53,0 6.65,1.53 9.29,4.64 2.65,3.12 3.94,7.53 3.94,13.29 0,5.18 -1.53,12.35 -4.52,21.58 -3.06,9.29 -4.94,17.82 -5.65,25.58 6.35,-4 12,-8.88 17.05,-14.64 7.82,-9.06 13.64,-14.7 17.41,-16.88 3.82,-2.17 7.64,-3.23 11.58,-3.23 3.76,0 6.94,1.29 9.52,3.88 2.59,2.53 3.88,5.64 3.88,9.17 0,4.29 -1.88,8.06 -5.7,11.41 -3.76,3.29 -13.23,6.64 -28.4,9.99 -8.82,1.94 -16.17,4.18 -22.05,6.7 6,3.12 13.29,5.47 21.88,7.06 13.87,2.53 22.98,5.7 27.28,9.47 4.35,3.82 6.46,7.93 6.46,12.4 0,3.47 -1.29,6.41 -3.88,8.94 -2.58,2.53 -5.58,3.82 -8.99,3.82 -3.47,0 -7.29,-1.23 -11.47,-3.64 -4.17,-2.42 -9.87,-7.82 -16.99,-16.17 -4.7,-5.65 -10.52,-10.94 -17.58,-15.88 0.24,6.59 1.59,13.7 4,21.4 4.12,13.53 6.17,22.76 6.17,27.7 0,4.58 -1.35,8.46 -4.11,11.64 -2.77,3.17 -5.71,4.76 -8.76,4.76 -4.29,0 -8.12,-1.71 -11.59,-5 -2.41,-2.41 -3.58,-6.29 -3.58,-11.58 0,-5.47 1.29,-12.11 3.94,-19.87 2.64,-7.76 4.29,-13.11 4.99,-16 0.71,-2.94 1.36,-7.29 1.89,-13.05 -6.77,4.53 -12.7,9.47 -17.7,14.99 -8.41,9.41 -14.7,15.41 -18.99,17.94 -3,1.82 -6.06,2.76 -9.29,2.76 -3.88,0 -7.23,-1.35 -10,-4 -2.76,-2.64 -4.11,-5.52 -4.11,-8.76 0,-2.88 1.17,-5.88 3.53,-9.05 2.35,-3.18 5.88,-5.76 10.58,-7.82 3.11,-1.41 10.17,-3.24 21.16,-5.53 7.12,-1.47 14.12,-3.64 20.88,-6.53 -6.24,-3.11 -13.64,-5.52 -22.23,-7.23 -14.11,-3 -22.87,-5.7 -26.16,-8.11 -5.18,-3.76 -7.76,-8.41 -7.76,-13.76 0,-3.11 1.29,-5.94 3.88,-8.52 2.59,-2.59 5.58,-3.88 9.05,-3.88 3.77,0 7.76,1.17 12.06,3.58 4.23,2.41 9.52,7.29 15.81,14.58 6.35,7.29 12.76,12.94 19.29,16.94z"/>
  <g id="_988895232">
   <polygon class="fil0 str0" points="2004.18,50 2153.57,50 2153.57,185.6 2004.18,185.6 "/>
   <polygon class="fil0 str0" points="1657.58,88.35 1804.7,62.41 1828.24,195.94 1681.13,221.88 "/>
   <polygon class="fil0 str0" points="1322.9,186.29 1463.28,135.2 1509.66,262.62 1369.28,313.71 "/>
   <polygon class="fil0 str0" points="1010.32,340.86 1139.69,266.17 1207.49,383.6 1078.12,458.29 "/>
   <polygon class="fil0 str0" points="729.33,547.37 843.77,451.34 930.92,555.22 816.49,651.24 "/>
   <polygon class="fil0 str0" points="488.46,799.53 584.49,685.09 688.36,772.25 592.33,886.69 "/>
   <polygon class="fil0 str0" points="295.04,1089.68 369.74,960.31 487.17,1028.11 412.47,1157.48 "/>
   <polygon class="fil0 str0" points="154.95,1409.02 206.04,1268.64 333.46,1315.02 282.37,1455.39 "/>
   <polygon class="fil0 str0" points="72.43,1747.83 98.37,1600.71 231.91,1624.26 205.97,1771.37 "/>
   <polygon class="fil0 str0" points="50,2095.82 50,1946.43 185.6,1946.43 185.6,2095.82 "/>
   <polygon class="fil0 str0" points="88.35,2442.42 62.41,2295.3 195.94,2271.76 221.88,2418.87 "/>
   <polygon class="fil0 str0" points="186.29,2777.1 135.2,2636.72 262.62,2590.34 313.71,2730.72 "/>
   <polygon class="fil0 str0" points="340.86,3089.68 266.17,2960.31 383.6,2892.51 458.29,3021.88 "/>
   <polygon class="fil0 str0" points="547.37,3370.67 451.34,3256.23 555.22,3169.08 651.24,3283.51 "/>
   <polygon class="fil0 str0" points="799.53,3611.54 685.09,3515.51 772.25,3411.64 886.69,3507.67 "/>
   <polygon class="fil0 str0" points="1089.68,3804.96 960.31,3730.26 1028.11,3612.83 1157.48,3687.53 "/>
   <polygon class="fil0 str0" points="1409.02,3945.05 1268.64,3893.96 1315.02,3766.54 1455.39,3817.63 "/>
   <polygon class="fil0 str0" points="1747.83,4027.57 1600.71,4001.63 1624.26,3868.09 1771.37,3894.03 "/>
   <polygon class="fil0 str0" points="2095.82,4050 1946.43,4050 1946.43,3914.4 2095.82,3914.4 "/>
   <polygon class="fil0 str0" points="2442.42,4011.65 2295.3,4037.59 2271.76,3904.06 2418.87,3878.12 "/>
   <polygon class="fil0 str0" points="2777.1,3913.71 2636.72,3964.8 2590.34,3837.38 2730.72,3786.29 "/>
   <polygon class="fil0 str0" points="3089.68,3759.14 2960.31,3833.83 2892.51,3716.4 3021.88,3641.71 "/>
   <polygon class="fil0 str0" points="3370.67,3552.63 3256.23,3648.66 3169.08,3544.78 3283.51,3448.76 "/>
   <polygon class="fil0 str0" points="3611.54,3300.47 3515.51,3414.91 3411.64,3327.75 3507.67,3213.31 "/>
   <polygon class="fil0 str0" points="3804.96,3010.32 3730.26,3139.69 3612.83,3071.89 3687.53,2942.52 "/>
   <polygon class="fil0 str0" points="3945.05,2690.98 3893.96,2831.36 3766.54,2784.98 3817.63,2644.61 "/>
   <polygon class="fil0 str0" points="4027.57,2352.17 4001.63,2499.29 3868.09,2475.74 3894.03,2328.63 "/>
   <polygon class="fil0 str0" points="4050,2004.18 4050,2153.57 3914.4,2153.57 3914.4,2004.18 "/>
   <polygon class="fil0 str0" points="4011.65,1657.58 4037.59,1804.7 3904.06,1828.24 3878.12,1681.13 "/>
   <polygon class="fil0 str0" points="3913.71,1322.9 3964.8,1463.28 3837.38,1509.66 3786.29,1369.28 "/>
   <polygon class="fil0 str0" points="3759.14,1010.32 3833.83,1139.69 3716.4,1207.49 3641.71,1078.12 "/>
   <polygon class="fil0 str0" points="3552.63,729.33 3648.66,843.77 3544.78,930.92 3448.76,816.49 "/>
   <polygon class="fil0 str0" points="3300.47,488.46 3414.91,584.49 3327.75,688.36 3213.31,592.33 "/>
   <polygon class="fil0 str0" points="3010.32,295.04 3139.69,369.74 3071.89,487.17 2942.52,412.47 "/>
   <polygon class="fil0 str0" points="2690.98,154.95 2831.36,206.04 2784.98,333.46 2644.61,282.37 "/>
   <polygon class="fil0 str0" points="2352.17,72.43 2499.29,98.37 2475.74,231.91 2328.63,205.97 "/>
  </g>
  <path class="fil1 str5" d="M2050 160.59c1043.49,0 1889.41,845.92 1889.41,1889.41 0,1043.49 -845.92,1889.41 -1889.41,1889.41 -1043.49,0 -1889.41,-845.92 -1889.41,-1889.41 0,-1043.49 845.92,-1889.41 1889.41,-1889.41z"/>
 </g>
</svg>
