<?xml version="1.0" encoding="UTF-8"?>
<!DOCTYPE svg PUBLIC "-//W3C//DTD SVG 1.1//EN" "http://www.w3.org/Graphics/SVG/1.1/DTD/svg11.dtd">
<!-- Creator: CorelDRAW 2019 (64-Bit) -->
<svg xmlns="http://www.w3.org/2000/svg" xml:space="preserve" width="41mm" height="41mm" version="1.1" style="shape-rendering:geometricPrecision; text-rendering:geometricPrecision; image-rendering:optimizeQuality; fill-rule:evenodd; clip-rule:evenodd"
viewBox="0 0 4100 4100"
 xmlns:xlink="http://www.w3.org/1999/xlink">
 <defs>
  <style type="text/css">
   <![CDATA[
    .str3 {stroke:#393185;stroke-width:50;stroke-miterlimit:22.9256}
    .str4 {stroke:#393185;stroke-width:35;stroke-miterlimit:22.9256}
    .str5 {stroke:#393185;stroke-width:30;stroke-miterlimit:22.9256}
    .str1 {stroke:#393185;stroke-width:20;stroke-miterlimit:22.9256}
    .str0 {stroke:#393185;stroke-width:15;stroke-miterlimit:22.9256}
    .str2 {stroke:#393185;stroke-width:7.62;stroke-miterlimit:22.9256}
    .fil0 {fill:none}
    .fil2 {fill:none;fill-rule:nonzero}
    .fil3 {fill:#393185}
    .fil1 {fill:#393185;fill-rule:nonzero}
   ]]>
  </style>
 </defs>
 <g id="Слой_x0020_1">
  <metadata id="CorelCorpID_0Corel-Layer"/>
  <path class="fil0" d="M2049.99 615.84c792.07,0 1434.16,642.09 1434.16,1434.16 0,792.07 -642.09,1434.16 -1434.16,1434.16 -792.07,0 -1434.16,-642.09 -1434.16,-1434.16 0,-792.07 642.09,-1434.16 1434.16,-1434.16z"/>
  <path class="fil1 str0" d="M1686.23 441.77l-22.84 174.73c-0.97,7.38 -2.64,13.49 -5.03,18.47 -2.39,4.99 -5.19,9 -8.45,12.08 -3.23,3.16 -6.58,5.57 -10.07,7.29 -3.51,1.69 -7.1,3.07 -10.84,4.13 -3.3,0.94 -7.24,1.96 -11.74,3.05 -4.5,1.1 -7.42,1.79 -8.68,2.05l-6.46 -22.78 1.75 -0.49c1.3,-0.24 3.22,-0.59 5.83,-1.1 2.58,-0.56 5.83,-1.39 9.74,-2.49 1.82,-0.52 3.96,-1.22 6.36,-2.13 2.45,-0.92 4.57,-2.16 6.37,-3.73 2.09,-1.83 3.91,-4 5.47,-6.55 1.59,-2.51 2.67,-6.12 3.23,-10.77l1.49 -10.91 -104.02 -118.93 27.32 -7.74 81.13 94.74 14.5 -121.85 24.94 -7.07zm195.16 161.27l-29.78 5.35 -60.51 -56.61 -11.81 2.12 11.73 65.36 -23.95 4.31 -25.48 -141.94 23.95 -4.3 11.08 61.73c6.16,-1.2 11.22,-3.45 15.11,-6.71 3.89,-3.29 6.71,-8.81 8.41,-16.55 0.53,-2.29 1.14,-4.91 1.71,-7.93 0.63,-2.98 1.1,-5.61 1.37,-7.86 1.78,-11.07 5.62,-19.37 11.48,-24.87 5.87,-5.49 14.17,-9.17 24.8,-11.08l6.52 -1.17 3.74 20.83 -5.47 0.99c-6.69,1.2 -11.44,3.44 -14.3,6.69 -2.86,3.29 -4.8,8.74 -5.74,16.44 -1.02,7.79 -2.77,14.02 -5.29,18.73 -2.46,4.7 -5.47,8.47 -8.93,11.38l71.36 65.09zm143.59 -85.17c1.81,23.92 -2.49,43.44 -12.89,58.51 -10.44,15.09 -24.45,23.31 -42.04,24.65 -7.12,0.54 -13.52,0.18 -19.19,-1.02 -5.61,-1.21 -11.48,-3.28 -17.5,-6.28l4.57 60.15 -24.27 1.84 -14.95 -196.81 24.27 -1.84 1.14 15.08c5.62,-5.86 12,-10.91 19.07,-15.11 7.11,-4.21 15.02,-6.62 23.68,-7.28 16.58,-1.26 29.96,4.27 40.23,16.62 10.26,12.35 16.21,29.51 17.88,51.49zm-24.86 4.5c-1.25,-16.4 -4.86,-28.91 -10.77,-37.57 -5.97,-8.65 -14.84,-12.54 -26.67,-11.64 -6.86,0.52 -13.42,2.57 -19.61,6.09 -6.19,3.52 -12.01,7.9 -17.41,13.18l6.19 81.42c6.62,2.65 12.23,4.34 16.84,5.09 4.61,0.76 9.84,0.94 15.7,0.49 12.61,-0.95 22.02,-6.27 28.32,-15.99 6.3,-9.72 8.75,-23.4 7.41,-41.07zm149.23 40.37l1.03 -39.81c-5.74,0.38 -13.03,0.9 -21.83,1.56 -8.84,0.65 -15.97,1.74 -21.39,3.23 -6.49,1.83 -11.89,4.69 -16.19,8.63 -4.29,3.95 -6.56,9.58 -6.75,16.85 -0.21,8.2 1.97,14.47 6.49,18.78 4.52,4.31 11.21,6.6 20.12,6.83 7.67,0.2 14.59,-1.25 20.84,-4.4 6.25,-3.1 12.18,-7 17.68,-11.67zm-0.52 20.15c-2.02,1.45 -4.72,3.4 -8.09,5.96 -3.38,2.52 -6.61,4.55 -9.73,6.01 -4.38,2.14 -8.57,3.75 -12.61,4.84 -4,1.08 -9.61,1.56 -16.84,1.37 -5.96,-0.15 -11.53,-1.4 -16.8,-3.78 -5.28,-2.39 -9.86,-5.64 -13.82,-9.81 -3.72,-4.06 -6.69,-9.03 -8.88,-14.91 -2.18,-5.84 -3.17,-12 -3,-18.47 0.26,-10.01 2.59,-18.42 6.96,-25.36 4.42,-6.91 11.22,-12.29 20.41,-16.2 8.16,-3.49 17.79,-5.8 28.81,-6.93 11.05,-1.12 22.93,-1.87 35.65,-2.24l0.12 -4.72c0.15,-5.74 -0.61,-10.39 -2.24,-13.95 -1.63,-3.58 -3.94,-6.37 -6.97,-8.35 -3.08,-2.11 -6.79,-3.52 -11.27,-4.3 -4.44,-0.79 -9.06,-1.21 -13.77,-1.33 -5.6,-0.14 -12.19,0.52 -19.82,2.04 -7.58,1.52 -15.22,3.85 -22.89,6.91l-1.41 -0.04 0.63 -24.64c4.54,-1.16 10.96,-2.41 19.38,-3.73 8.41,-1.33 16.67,-1.91 24.88,-1.69 9.92,0.25 18.22,1.26 25.02,2.98 6.75,1.72 12.8,4.66 18.12,8.86 5.14,4.09 8.93,9.35 11.37,15.69 2.44,6.36 3.52,14.06 3.29,23.1l-2.56 98.75 -24.34 -0.63 0.4 -15.43zm95.01 26.14l-24.14 -3.05 18.08 -143.06 24.15 3.05 -18.09 143.06zm43.71 -164.35l-24.15 -3.06 3.15 -24.93 24.15 3.05 -3.15 24.94zm-45.41 -5.74l-24.15 -3.06 3.16 -24.93 24.14 3.05 -3.15 24.94zm160.53 200.2l-23.73 -5.48 14.53 -62.91 -63.68 -14.7 -14.52 62.9 -23.72 -5.47 32.45 -140.5 23.71 5.47 -13.16 56.98 63.68 14.71 13.16 -56.99 23.72 5.48 -32.44 140.51zm133.76 2.73l12.75 -37.72c-5.6,-1.34 -12.71,-2.99 -21.31,-4.97 -8.64,-1.99 -15.78,-3.05 -21.4,-3.23 -6.73,-0.17 -12.74,0.96 -18.01,3.46 -5.27,2.5 -9.1,7.22 -11.43,14.1 -2.62,7.78 -2.4,14.41 0.65,19.87 3.04,5.45 8.76,9.62 17.2,12.47 7.27,2.45 14.31,3.11 21.21,1.95 6.89,-1.11 13.71,-3.09 20.34,-5.93zm-6.45 19.1c-2.36,0.79 -5.52,1.85 -9.49,3.31 -3.97,1.4 -7.66,2.39 -11.07,2.86 -4.81,0.75 -9.3,1.05 -13.48,0.9 -4.14,-0.15 -9.64,-1.35 -16.49,-3.67 -5.65,-1.9 -10.6,-4.74 -14.93,-8.58 -4.34,-3.84 -7.76,-8.3 -10.31,-13.45 -2.35,-4.98 -3.72,-10.6 -4.07,-16.87 -0.37,-6.22 0.52,-12.39 2.59,-18.53 3.2,-9.49 7.92,-16.84 14.14,-22.17 6.27,-5.3 14.35,-8.42 24.28,-9.45 8.83,-0.92 18.72,-0.28 29.57,1.9 10.89,2.19 22.47,4.98 34.72,8.39l1.52 -4.48c1.83,-5.43 2.48,-10.1 1.98,-13.99 -0.5,-3.89 -1.88,-7.24 -4.19,-10.03 -2.33,-2.92 -5.45,-5.37 -9.5,-7.44 -4.01,-2.06 -8.3,-3.83 -12.76,-5.33 -5.31,-1.8 -11.8,-3.11 -19.54,-3.91 -7.69,-0.79 -15.68,-0.83 -23.91,-0.17l-1.34 -0.45 7.89 -23.35c4.67,0.22 11.18,0.93 19.61,2.16 8.44,1.21 16.5,3.1 24.27,5.73 9.4,3.18 17.04,6.59 23.02,10.25 5.94,3.63 10.86,8.23 14.7,13.81 3.7,5.43 5.76,11.57 6.23,18.35 0.45,6.8 -0.8,14.48 -3.69,23.04l-31.62 93.58 -23.07 -7.79 4.94 -14.62z"/>
  <g id="_990780592">
   <path class="fil1 str0" d="M2907.41 855.24c-9.97,-7.09 -17.97,-15.32 -23.97,-24.59 -5.96,-9.3 -9.64,-19.46 -11.02,-30.4 -1.39,-10.93 -0.2,-22.59 3.51,-34.84 3.69,-12.29 10.1,-24.85 19.23,-37.68 9.09,-12.77 18.61,-22.74 28.61,-29.9 9.99,-7.17 20.61,-12.1 31.84,-14.7 10.93,-2.49 21.84,-2.57 32.74,-0.19 10.89,2.33 21.5,7.19 31.81,14.53 5.11,3.63 9.66,7.45 13.61,11.37 3.93,3.96 7.39,7.83 10.41,11.72 2.53,3.34 5.01,7.04 7.33,11.02 2.37,4 4.57,8.1 6.61,12.34l-17.4 24.45 -1.64 -1.18c-0.64,-2.88 -1.52,-6.45 -2.7,-10.71 -1.18,-4.27 -3.01,-8.95 -5.44,-14.04 -2.41,-4.83 -5.43,-9.56 -9.06,-14.15 -3.61,-4.62 -8.42,-9.04 -14.44,-13.33 -6.47,-4.6 -13.56,-7.65 -21.26,-9.13 -7.7,-1.46 -15.59,-1.19 -23.59,0.87 -7.98,2.11 -15.97,6.23 -23.92,12.37 -7.96,6.08 -15.42,14.05 -22.39,23.84 -7.42,10.43 -12.53,20.28 -15.36,29.59 -2.8,9.33 -3.87,18.1 -3.19,26.38 0.65,8.06 2.94,15.42 6.85,22.06 3.92,6.63 9.11,12.22 15.51,16.77 5.88,4.19 11.8,7.35 17.82,9.47 5.98,2.1 11.71,3.44 17.15,4.03 5.28,0.56 10.05,0.68 14.38,0.44 4.29,-0.26 7.77,-0.63 10.46,-1.08l1.54 1.1 -17.22 24.19c-4.47,-0.81 -8.7,-1.55 -12.71,-2.19 -3.99,-0.69 -8.59,-1.85 -13.79,-3.5 -5.47,-1.73 -10.36,-3.58 -14.72,-5.53 -4.31,-1.94 -9.51,-5.07 -15.59,-9.4zm177.1 84.57c-4.44,5.13 -9.38,8.86 -14.79,11.1 -5.37,2.27 -11,3.25 -16.7,2.96 -7.21,-0.4 -13.69,-2.04 -19.46,-4.94 -5.72,-2.91 -11.9,-7.25 -18.48,-12.95l-41.74 -36.19 91.92 -106.05 39.02 33.82c7.82,6.78 13.33,11.95 16.5,15.55 3.25,3.6 5.74,7.93 7.62,12.97 1.97,5.27 2.42,10.32 1.27,15.25 -1.11,4.88 -3.66,9.59 -7.65,14.2 -4.38,5.06 -9.72,8.39 -15.99,9.99 -6.22,1.6 -12.61,1.51 -19.14,-0.33l-0.07 1.07c4.47,6.43 6.72,13.55 6.76,21.37 0,7.78 -3,15.18 -9.07,22.18zm16.52 -67.42c2.08,-2.4 3.49,-4.81 4.23,-7.23 0.71,-2.46 0.55,-5.04 -0.52,-7.73 -1.26,-3.13 -3.17,-6.04 -5.76,-8.69 -2.63,-2.67 -6.43,-6.14 -11.4,-10.44l-16.89 -14.65 -24.97 28.81 20.4 17.68c4.35,3.77 7.6,6.24 9.78,7.39 2.15,1.19 4.95,2.09 8.28,2.64 3.17,0.59 6.12,0.13 8.83,-1.21 2.73,-1.38 5.4,-3.55 8.02,-6.57zm-34.96 51.33c3.15,-3.63 5.17,-6.99 6.01,-10.07 0.88,-3.11 0.26,-7.05 -1.75,-11.8 -1.25,-3.02 -3.05,-5.72 -5.36,-8.17 -2.31,-2.45 -5.69,-5.63 -10.17,-9.5l-20.88 -18.11 -30.2 34.84 15.41 13.35c6.38,5.54 11.54,9.56 15.53,12.1 3.95,2.58 7.87,4.16 11.71,4.82 4.07,0.63 7.67,0.41 10.73,-0.7 3.08,-1.13 6.05,-3.39 8.97,-6.76zm25.54 83l-17.13 -16.35 96.89 -101.53 17.14 16.35 -96.9 101.53zm114.57 -117.42l-19.56 -18.68 16.88 -17.69 19.57 18.67 -16.89 17.7zm-36.14 254.27l-14.31 -16.56 25.72 -22.23 -60.62 -70.15 -25.72 22.23 -14.31 -16.56 40.72 -35.2 6.07 7.02c15.09,-2.55 32.22,-8.79 51.48,-18.73 19.23,-9.99 38.29,-23.11 57.19,-39.45l56.4 65.27 -90.99 78.64 9.1 10.52 -40.73 35.2zm16.14 -63.65l75.99 -65.66 -26.43 -30.59c-16.55,12.88 -32.91,23.22 -49.03,31.02 -16.1,7.84 -30.76,12.8 -43.97,14.97l43.44 50.26zm148.86 112.65c-19.26,13.73 -37.38,19.64 -54.47,17.86 -17.08,-1.85 -31.12,-10.45 -42.11,-25.86 -11.33,-15.9 -14.84,-32.28 -10.52,-49.06 4.3,-16.83 15.73,-31.83 34.29,-45.06 19.08,-13.61 37.24,-19.49 54.5,-17.61 17.27,1.81 31.37,10.42 42.31,25.76 10.98,15.41 14.5,31.51 10.61,48.31 -3.96,16.79 -15.45,32 -34.61,45.66zm-14.21 -19.93c14.72,-10.49 23.74,-20.98 27.07,-31.47 3.33,-10.49 1.43,-20.68 -5.65,-30.6 -7.13,-10 -16.19,-15.18 -27.22,-15.5 -11.02,-0.3 -23.88,4.81 -38.6,15.3 -14.25,10.17 -23.13,20.55 -26.65,31.23 -3.5,10.67 -1.67,21.01 5.46,31.01 7.02,9.85 16.08,14.94 27.18,15.19 11.09,0.27 23.88,-4.79 38.41,-15.16zm4.04 204.78l-10.94 -18.96 29.22 -16.86 -51.09 -88.56 121.58 -70.14 11.83 20.52 -103.72 59.84 31.4 54.43 103.72 -59.83 11.84 20.52 -103.72 59.83 6.95 12.05 -47.07 27.16zm191.95 48.01l-19.74 -43.65 -109.11 49.34 -9.76 -21.59 109.11 -49.33 -19.73 -43.65 18.77 -8.48 49.23 108.87 -18.77 8.49zm-22.85 152.34c-6.31,2.48 -12.42,3.5 -18.24,2.97 -5.82,-0.48 -11.25,-2.22 -16.18,-5.12 -6.2,-3.7 -11.17,-8.16 -14.94,-13.41 -3.72,-5.23 -7.18,-11.94 -10.37,-20.05l-20.19 -51.42 130.64 -51.3 18.87 48.06c3.79,9.64 6.27,16.77 7.41,21.44 1.2,4.69 1.41,9.68 0.73,15.02 -0.7,5.58 -2.65,10.27 -5.95,14.1 -3.25,3.81 -7.69,6.8 -13.37,9.03 -6.23,2.45 -12.5,2.92 -18.8,1.43 -6.25,-1.47 -11.87,-4.51 -16.79,-9.17l-0.57 0.92c0.98,7.77 -0.33,15.11 -3.92,22.06 -3.61,6.89 -9.7,12.06 -18.33,15.44zm45.91 -52.06c2.96,-1.16 5.33,-2.64 7.11,-4.44 1.77,-1.85 2.83,-4.21 3.13,-7.09 0.33,-3.36 -0.01,-6.83 -1.08,-10.37 -1.08,-3.58 -2.85,-8.42 -5.25,-14.54l-8.17 -20.81 -35.48 13.93 9.87 25.13c2.1,5.35 3.83,9.06 5.23,11.09 1.35,2.04 3.42,4.14 6.11,6.17 2.54,2 5.36,2.97 8.38,3.03 3.06,0.04 6.44,-0.64 10.15,-2.1zm-54.78 29.26c4.48,-1.76 7.83,-3.8 10,-6.14 2.22,-2.34 3.5,-6.12 3.93,-11.27 0.29,-3.25 -0.05,-6.47 -0.96,-9.72 -0.91,-3.24 -2.44,-7.62 -4.6,-13.14l-10.11 -25.72 -42.91 16.85 7.46 18.98c3.09,7.86 5.79,13.82 8.14,17.92 2.3,4.11 5.04,7.34 8.14,9.71 3.31,2.43 6.61,3.91 9.83,4.34 3.25,0.44 6.93,-0.18 11.08,-1.81zm73.6 154.95c-22.76,6.44 -41.82,5.9 -57.31,-1.53 -15.45,-7.49 -25.78,-20.31 -30.93,-38.53 -5.32,-18.79 -3.11,-35.39 6.61,-49.74 9.72,-14.39 25.53,-24.67 47.46,-30.88 22.56,-6.38 41.63,-5.81 57.25,1.78 15.65,7.52 26.03,20.38 31.16,38.51 5.15,18.21 3.05,34.55 -6.27,49.06 -9.39,14.47 -25.33,24.92 -47.97,31.33zm-6.67 -23.54c17.39,-4.93 29.42,-11.76 36.09,-20.52 6.66,-8.76 8.31,-18.99 4.99,-30.72 -3.35,-11.82 -10.14,-19.75 -20.42,-23.76 -10.28,-4 -24.11,-3.51 -41.49,1.41 -16.85,4.77 -28.71,11.56 -35.62,20.42 -6.89,8.88 -8.65,19.23 -5.3,31.04 3.29,11.64 10.11,19.48 20.47,23.46 10.36,3.99 24.11,3.53 41.28,-1.33zm-29.99 256.23l-2.96 -23.5 118.82 -14.95 -7.94 -63.11 -118.81 14.94 -2.96 -23.5 139.25 -17.51 13.85 110.12 -139.25 17.51zm77.26 150.45c-23.34,0.62 -42.11,-4.5 -56.27,-15.33 -14.16,-10.88 -21.48,-24.89 -21.94,-42.05 -0.19,-6.96 0.46,-13.16 1.9,-18.61 1.45,-5.4 3.75,-11 6.94,-16.71l-58.69 1.56 -0.63 -23.68 192.04 -5.11 0.63 23.68 -14.71 0.39c5.43,5.74 10.03,12.19 13.78,19.25 3.76,7.12 5.73,14.92 5.95,23.38 0.43,16.17 -5.59,28.91 -18.09,38.31 -12.5,9.39 -29.45,14.34 -50.91,14.92zm-3.19 -24.39c16.01,-0.42 28.34,-3.33 37.05,-8.68 8.7,-5.38 12.89,-13.82 12.58,-25.36 -0.17,-6.69 -1.85,-13.18 -4.97,-19.36 -3.13,-6.18 -7.11,-12.05 -11.98,-17.54l-79.47 2.11c-2.87,6.3 -4.79,11.69 -5.75,16.13 -0.95,4.45 -1.38,9.52 -1.22,15.23 0.32,12.32 5.05,21.72 14.2,28.3 9.14,6.59 22.32,9.63 39.56,9.17zm-12.15 171.1c-23.58,-1.79 -41.29,-8.86 -53.27,-21.17 -11.93,-12.36 -17.2,-27.96 -15.77,-46.83 1.48,-19.48 9.28,-34.3 23.35,-44.42 14.08,-10.16 32.47,-14.36 55.19,-12.64 23.37,1.78 41.09,8.89 53.13,21.39 12.11,12.45 17.41,28.1 15.99,46.89 -1.44,18.87 -9.05,33.49 -22.8,43.9 -13.79,10.35 -32.36,14.67 -55.82,12.88zm1.85 -24.4c18.02,1.37 31.67,-0.9 40.95,-6.82 9.27,-5.93 14.34,-14.97 15.27,-27.12 0.93,-12.25 -2.71,-22.03 -10.98,-29.34 -8.27,-7.3 -21.42,-11.61 -39.44,-12.98 -17.46,-1.32 -30.93,0.96 -40.47,6.91 -9.53,5.95 -14.75,15.06 -15.68,27.31 -0.91,12.06 2.78,21.77 11.14,29.07 8.35,7.32 21.41,11.62 39.21,12.97zm-114.4 230.5l5.34 -23.08 116.67 26.96 14.32 -61.97 -116.67 -26.96 5.33 -23.09 136.75 31.6 -24.99 108.14 -136.75 -31.6zm22.01 168.27c-22.12,-7.47 -37.97,-18.75 -47.54,-33.8 -9.53,-15.09 -11.58,-30.76 -6.09,-47.03 2.23,-6.6 4.97,-12.19 8.21,-16.81 3.22,-4.57 7.31,-9.04 12.27,-13.29l-55.62 -18.78 7.57 -22.44 182.03 61.42 -7.58 22.45 -13.95 -4.71c3.13,7.26 5.21,14.9 6.3,22.82 1.07,7.99 0.23,15.99 -2.48,24 -5.17,15.33 -15.21,25.21 -30.18,29.72 -14.98,4.51 -32.6,3.31 -52.94,-3.55zm5.42 -23.99c15.17,5.12 27.75,6.64 37.76,4.63 10.02,-2.05 16.87,-8.52 20.57,-19.47 2.13,-6.34 2.8,-13 2,-19.88 -0.8,-6.89 -2.51,-13.77 -5.2,-20.6l-75.31 -25.42c-4.87,4.92 -8.53,9.31 -10.97,13.15 -2.42,3.85 -4.57,8.47 -6.4,13.88 -3.94,11.67 -2.75,22.13 3.57,31.46 6.32,9.34 17.63,16.74 33.98,22.25zm-86.04 108.03l35.33 15.93c1.82,-5.3 4.11,-12.05 6.85,-20.18 2.74,-8.18 4.44,-14.99 5.15,-20.42 0.81,-6.5 0.29,-12.44 -1.63,-17.78 -1.93,-5.33 -6.13,-9.49 -12.58,-12.4 -7.29,-3.28 -13.73,-3.7 -19.31,-1.27 -5.56,2.43 -10.14,7.57 -13.7,15.48 -3.07,6.81 -4.38,13.57 -3.92,20.36 0.43,6.78 1.7,13.58 3.81,20.28zm-17.88 -8.07c-0.54,-2.37 -1.28,-5.52 -2.3,-9.52 -0.99,-3.97 -1.59,-7.64 -1.73,-10.99 -0.26,-4.74 -0.13,-9.1 0.42,-13.14 0.53,-3.99 2.22,-9.21 5.12,-15.63 2.38,-5.28 5.6,-9.81 9.73,-13.64 4.13,-3.84 8.78,-6.74 14,-8.71 5.06,-1.82 10.63,-2.59 16.74,-2.34 6.06,0.24 11.96,1.67 17.71,4.27 8.88,4 15.54,9.27 20.13,15.81 4.52,6.56 6.79,14.69 6.83,24.41 0.06,8.65 -1.5,18.16 -4.65,28.47 -3.15,10.34 -6.95,21.29 -11.42,32.84l4.19 1.89c5.09,2.3 9.55,3.36 13.37,3.25 3.81,-0.12 7.19,-1.14 10.11,-3.11 3.05,-1.97 5.73,-4.77 8.11,-8.5 2.38,-3.68 4.5,-7.67 6.39,-11.85 2.24,-4.97 4.13,-11.14 5.64,-18.55 1.48,-7.38 2.29,-15.12 2.43,-23.15l0.57 -1.26 21.86 9.86c-0.66,4.51 -1.96,10.74 -3.95,18.8 -1.98,8.05 -4.58,15.69 -7.86,22.96 -3.97,8.81 -8,15.88 -12.12,21.33 -4.08,5.41 -9,9.74 -14.77,12.92 -5.62,3.08 -11.77,4.49 -18.36,4.29 -6.64,-0.22 -13.96,-2.15 -21.99,-5.76l-87.64 -39.53 9.74 -21.6 13.7 6.18zm-56.49 161.84c-5.88,-3.38 -10.49,-7.53 -13.71,-12.41 -3.26,-4.84 -5.29,-10.17 -6.09,-15.83 -0.99,-7.15 -0.61,-13.82 1.14,-20.04 1.76,-6.17 4.84,-13.06 9.19,-20.61l27.56 -47.88 121.63 70.03 -25.76 44.74c-5.16,8.97 -9.19,15.37 -12.12,19.17 -2.92,3.87 -6.68,7.15 -11.28,9.95 -4.8,2.94 -9.67,4.34 -14.72,4.16 -5.01,-0.16 -10.12,-1.77 -15.41,-4.81 -5.8,-3.34 -10.08,-7.94 -12.85,-13.79 -2.76,-5.8 -3.89,-12.09 -3.32,-18.85l-1.07 0.13c-5.46,5.62 -12.02,9.18 -19.69,10.71 -7.64,1.48 -15.47,-0.05 -23.5,-4.67zm69.33 3.36c2.75,1.58 5.39,2.51 7.91,2.77 2.54,0.23 5.05,-0.41 7.48,-1.98 2.84,-1.84 5.34,-4.27 7.44,-7.31 2.12,-3.09 4.8,-7.48 8.08,-13.18l11.15 -19.38 -33.03 -19.02 -13.47 23.4c-2.87,4.99 -4.68,8.65 -5.4,11.01 -0.75,2.34 -1.1,5.26 -1,8.63 0.02,3.23 1.03,6.04 2.87,8.44 1.87,2.41 4.51,4.63 7.97,6.62zm-57.05 -24.53c4.17,2.4 7.85,3.74 11.03,3.98 3.22,0.27 6.97,-1.09 11.25,-3.97 2.73,-1.8 5.03,-4.08 7,-6.82 1.96,-2.73 4.44,-6.66 7.39,-11.79l13.79 -23.96 -39.95 -23 -10.18 17.67c-4.21,7.33 -7.18,13.16 -8.91,17.56 -1.78,4.36 -2.59,8.51 -2.5,12.42 0.16,4.1 1.07,7.6 2.74,10.39 1.69,2.81 4.47,5.3 8.34,7.52zm-72.2 155.92c-19.27,-13.71 -30.78,-28.91 -34.68,-45.64 -3.83,-16.74 -0.3,-32.82 10.68,-48.24 11.32,-15.92 25.65,-24.58 42.93,-25.99 17.3,-1.43 35.22,4.47 53.79,17.69 19.1,13.59 30.59,28.82 34.45,45.75 3.93,16.91 0.4,33.05 -10.52,48.4 -10.98,15.43 -25.04,24.01 -42.19,25.83 -17.16,1.74 -35.29,-4.15 -54.46,-17.8zm14.19 -19.93c14.72,10.47 27.58,15.58 38.58,15.29 11.01,-0.28 20.02,-5.4 27.09,-15.34 7.12,-10 9.05,-20.26 5.74,-30.79 -3.31,-10.52 -12.35,-21 -27.07,-31.48 -14.27,-10.15 -26.98,-15.15 -38.22,-14.98 -11.24,0.18 -20.41,5.28 -27.53,15.29 -7.01,9.86 -8.86,20.08 -5.47,30.65 3.37,10.58 12.33,21.01 26.88,31.36zm-214.41 140.53l16.36 -17.14 45.46 43.39 43.92 -46.02 -45.46 -43.38 16.35 -17.14 101.54 96.9 -16.36 17.13 -41.17 -39.29 -43.92 46.02 41.17 39.29 -16.35 17.14 -101.54 -96.9zm-61.32 100.79l25.35 29.32c3.88,-4.04 8.79,-9.2 14.7,-15.43 5.93,-6.26 10.34,-11.72 13.26,-16.35 3.48,-5.55 5.5,-11.16 6.01,-16.81 0.5,-5.65 -1.56,-11.19 -6.19,-16.55 -5.23,-6.04 -10.9,-9.13 -16.98,-9.27 -6.07,-0.14 -12.39,2.6 -18.95,8.27 -5.65,4.88 -9.68,10.46 -12.12,16.82 -2.47,6.33 -4.17,13.03 -5.08,20zm-12.83 -14.85c0.52,-2.37 1.17,-5.54 1.92,-9.6 0.78,-4.02 1.78,-7.6 3.06,-10.7 1.76,-4.41 3.72,-8.3 5.91,-11.74 2.17,-3.4 5.9,-7.42 11.22,-12.02 4.39,-3.79 9.22,-6.55 14.57,-8.28 5.37,-1.75 10.81,-2.41 16.37,-2.01 5.36,0.48 10.74,2.12 16.17,4.92 5.39,2.77 10.14,6.55 14.27,11.33 6.37,7.37 10.2,14.95 11.6,22.82 1.34,7.85 -0.02,16.18 -4.07,25.01 -3.59,7.87 -9.01,15.84 -16.2,23.87 -7.22,8.06 -15.27,16.38 -24.19,24.99l3.01 3.48c3.65,4.22 7.24,7.06 10.76,8.56 3.51,1.51 7,2 10.48,1.44 3.6,-0.5 7.2,-1.91 10.94,-4.29 3.7,-2.34 7.31,-5.06 10.78,-8.07 4.12,-3.56 8.43,-8.36 12.92,-14.45 4.46,-6.07 8.44,-12.75 11.95,-19.98l1.04 -0.9 15.69 18.15c-2.5,3.81 -6.31,8.92 -11.5,15.39 -5.18,6.47 -10.75,12.3 -16.79,17.52 -7.31,6.31 -13.95,11.03 -19.98,14.25 -5.98,3.18 -12.25,5.04 -18.83,5.5 -6.39,0.42 -12.57,-0.89 -18.47,-3.84 -5.92,-2.99 -11.75,-7.82 -17.51,-14.48l-62.86 -72.74 17.92 -15.49 9.82 11.36zm-176.33 155.26c-4.23,-6.62 -6.38,-13.15 -6.42,-19.59 -0.03,-6.41 1.36,-12.44 4.17,-18.01 2.64,-5.36 6.29,-10.39 11.02,-15.2 4.68,-4.78 9.76,-8.94 15.29,-12.48 7.74,-4.96 15.56,-8.89 23.47,-11.82 7.89,-2.89 16.34,-4.89 25.32,-5.9l14.14 22.09 -1.26 0.81c-7.6,-1.36 -15.84,-1.03 -24.68,1.01 -8.88,2.06 -16.88,5.4 -24.04,9.98 -3.11,1.99 -6.19,4.42 -9.36,7.36 -3.1,2.96 -5.45,5.88 -7.01,8.87 -1.96,4.01 -2.94,7.59 -2.9,10.67 0.06,3.12 1.34,6.64 3.83,10.54 2.69,4.19 5.64,7.04 8.81,8.59 3.24,1.55 6.61,2.03 10.17,1.54 3.52,-0.47 7.08,-1.68 10.68,-3.52 3.61,-1.85 7.32,-4.02 11.11,-6.45l13.89 -8.88 11.1 17.35 -10.59 6.78c-2.68,1.71 -5.96,3.92 -9.86,6.66 -3.86,2.72 -6.69,5.31 -8.48,7.77 -2.28,3.04 -3.69,6.18 -4.16,9.43 -0.51,3.24 0.82,7.33 3.99,12.28 2.2,3.44 4.74,5.74 7.66,6.88 2.9,1.1 5.87,1.53 8.96,1.25 3.19,-0.27 6.35,-1.06 9.47,-2.4 3.08,-1.3 5.93,-2.83 8.53,-4.49 6.66,-4.26 12.46,-9.29 17.42,-15.07 4.95,-5.81 8.47,-11.93 10.54,-18.41l1.27 -0.81 13.76 21.51c-3.93,5.01 -8.57,10.18 -13.9,15.47 -5.29,5.26 -11.03,9.91 -17.25,13.89 -5.02,3.21 -10.41,5.95 -16.29,8.23 -5.82,2.29 -11.85,3.71 -18.1,4.19 -5.91,0.42 -11.68,-0.57 -17.33,-2.87 -5.67,-2.33 -10.44,-6.52 -14.35,-12.63 -4.12,-6.43 -5.93,-13.23 -5.4,-20.39 0.55,-7.18 3.28,-13.42 8.26,-18.85l-0.45 -0.71c-8.02,1.96 -15.63,1.94 -22.78,-0.01 -7.18,-1.98 -13.25,-6.86 -18.25,-14.66zm-95.62 47.25l17.59 34.54c4.74,-2.99 10.74,-6.83 17.97,-11.46 7.25,-4.66 12.84,-8.91 16.79,-12.7 4.7,-4.57 8.01,-9.53 9.86,-14.89 1.83,-5.37 1.15,-11.24 -2.06,-17.55 -3.63,-7.12 -8.39,-11.48 -14.27,-13.07 -5.85,-1.58 -12.64,-0.43 -20.37,3.5 -6.65,3.39 -11.9,7.85 -15.79,13.43 -3.91,5.56 -7.17,11.66 -9.72,18.2zm-8.9 -17.48c1.06,-2.18 2.46,-5.1 4.16,-8.86 1.72,-3.72 3.54,-6.96 5.53,-9.65 2.76,-3.87 5.59,-7.18 8.55,-9.99 2.91,-2.79 7.49,-5.79 13.77,-8.99 5.17,-2.63 10.51,-4.15 16.13,-4.56 5.62,-0.41 11.06,0.25 16.36,1.97 5.09,1.75 9.92,4.63 14.53,8.65 4.57,3.98 8.28,8.79 11.14,14.41 4.42,8.68 6.33,16.96 5.81,24.93 -0.57,7.95 -3.89,15.71 -9.94,23.31 -5.37,6.79 -12.53,13.23 -21.44,19.3 -8.93,6.1 -18.75,12.26 -29.46,18.48l2.09 4.1c2.53,4.97 5.34,8.59 8.4,10.89 3.04,2.3 6.32,3.62 9.83,3.9 3.61,0.38 7.45,-0.13 11.64,-1.55 4.15,-1.39 8.31,-3.17 12.4,-5.25 4.86,-2.47 10.19,-6.11 16,-10.94 5.78,-4.83 11.25,-10.36 16.38,-16.54l1.23 -0.63 10.89 21.38c-3.33,3.1 -8.25,7.15 -14.84,12.19 -6.58,5.04 -13.39,9.37 -20.5,12.99 -8.61,4.39 -16.18,7.38 -22.8,9.06 -6.57,1.66 -13.11,1.96 -19.61,0.84 -6.3,-1.12 -11.99,-3.87 -17.01,-8.15 -5.04,-4.32 -9.54,-10.41 -13.54,-18.25l-43.63 -85.67 21.11 -10.75 6.82 13.38zm-160.44 54l22.05 -8.66 22.97 58.5 59.2 -23.26 -22.96 -58.49 22.05 -8.66 51.3 130.64 -22.05 8.66 -20.81 -52.97 -59.2 23.25 20.8 52.97 -22.05 8.66 -51.3 -130.64zm-129.5 41.3l22.79 -6.45 15.16 53.52 22.3 -6.31 25.15 -64.94 26.6 -7.53 -27.79 67.91c12.13,0.14 21.74,2.72 28.74,7.79 7.06,5.05 12.14,13.07 15.25,24.05 1.9,6.7 2.06,12.98 0.56,18.85 -1.5,5.86 -4.31,11.26 -8.32,16.14 -3.23,3.85 -7.79,7.34 -13.51,10.42 -5.78,3.07 -12.45,5.67 -20,7.81l-48.7 13.78 -38.23 -135.04zm43 64.91l12.83 45.35 24.63 -6.97c5.19,-1.47 9.25,-2.93 12.11,-4.32 2.85,-1.43 5.48,-3.34 7.83,-5.74 2.38,-2.6 3.9,-5.62 4.53,-9.05 0.64,-3.43 0.46,-6.87 -0.52,-10.34 -1.25,-4.42 -2.76,-7.87 -4.58,-10.34 -1.79,-2.53 -4.32,-4.54 -7.62,-6.14 -3.53,-1.59 -7.42,-2.23 -11.67,-1.83 -4.27,0.36 -8.84,1.26 -13.67,2.62l-23.87 6.76zm-149.36 83.28l46.67 -10.76 -26.91 -116.69 23.09 -5.32 26.91 116.69 46.67 -10.77 4.63 20.08 -116.43 26.85 -4.63 -20.08zm-131.51 16.19l47.52 -5.98 -14.94 -118.81 23.51 -2.96 14.94 118.82 47.52 -5.98 2.57 20.44 -118.55 14.91 -2.57 -20.44zm-134.05 -113.95l23.68 -0.63 1.49 55.61 23.17 -0.62 40.39 -56.73 27.63 -0.73 -43.67 58.95c11.71,3.13 20.39,8 25.92,14.65 5.59,6.63 8.54,15.66 8.85,27.06 0.18,6.96 -1.2,13.09 -4.11,18.41 -2.9,5.31 -6.95,9.85 -12.05,13.58 -4.08,2.94 -9.35,5.19 -15.66,6.77 -6.35,1.55 -13.46,2.42 -21.31,2.63l-50.59 1.35 -3.74 -140.3zm25.66 73.51l1.25 47.11 25.58 -0.68c5.4,-0.14 9.69,-0.56 12.81,-1.2 3.11,-0.68 6.13,-1.88 9,-3.63 2.95,-1.93 5.17,-4.48 6.62,-7.65 1.47,-3.17 2.15,-6.54 2.05,-10.15 -0.12,-4.58 -0.73,-8.3 -1.88,-11.15 -1.11,-2.89 -3.07,-5.46 -5.88,-7.83 -3.02,-2.41 -6.63,-3.99 -10.85,-4.65 -4.23,-0.71 -8.88,-0.96 -13.9,-0.83l-24.8 0.66zm-222.23 -50.32l-4.83 38.46c5.6,0.18 12.72,0.38 21.3,0.6 8.62,0.22 15.63,-0.16 21.03,-1.08 6.45,-1.14 11.97,-3.39 16.51,-6.79 4.53,-3.41 7.27,-8.65 8.15,-15.67 1,-7.93 -0.5,-14.22 -4.46,-18.83 -3.96,-4.6 -10.22,-7.46 -18.82,-8.54 -7.42,-0.93 -14.26,-0.19 -20.62,2.24 -6.36,2.41 -12.47,5.62 -18.26,9.61zm2.45 -19.47c2.11,-1.2 4.9,-2.84 8.42,-4.99 3.51,-2.11 6.83,-3.77 10,-4.89 4.45,-1.64 8.65,-2.8 12.68,-3.46 3.97,-0.67 9.46,-0.59 16.44,0.29 5.75,0.73 11.03,2.47 15.91,5.29 4.88,2.82 9.02,6.41 12.43,10.82 3.23,4.3 5.61,9.4 7.17,15.31 1.55,5.86 1.92,11.92 1.13,18.18 -1.22,9.67 -4.29,17.58 -9.19,23.89 -4.94,6.25 -12.05,10.81 -21.32,13.71 -8.25,2.6 -17.8,3.91 -28.57,3.93 -10.82,0.04 -22.4,-0.38 -34.76,-1.25l-0.57 4.56c-0.7,5.54 -0.41,10.11 0.83,13.73 1.23,3.62 3.2,6.54 5.94,8.75 2.78,2.34 6.25,4.07 10.51,5.26 4.22,1.18 8.65,2.04 13.21,2.61 5.41,0.68 11.86,0.67 19.39,-0.07 7.49,-0.75 15.12,-2.25 22.84,-4.48l1.37 0.17 -3 23.8c-4.5,0.7 -10.84,1.28 -19.12,1.75 -8.28,0.48 -16.34,0.24 -24.26,-0.75 -9.59,-1.21 -17.54,-2.98 -23.96,-5.31 -6.37,-2.32 -11.94,-5.74 -16.69,-10.32 -4.59,-4.46 -7.75,-9.93 -9.5,-16.29 -1.74,-6.41 -2.05,-13.97 -0.96,-22.71l12 -95.38 23.5 2.95 -1.87 14.9zm-167.07 -77.25l21.55 3.88 -6.03 33.46 91.24 16.44 6.03 -33.46 21.54 3.88 -9.55 52.98 -9.12 -1.64c-10.13,11.47 -19.53,27.09 -28.26,46.93 -8.68,19.85 -15.25,42.04 -19.68,66.62l-84.9 -15.29 21.33 -118.36 -13.69 -2.46 9.54 -52.98zm27.46 59.64l-17.81 98.84 39.79 7.17c4.77,-20.42 11,-38.74 18.62,-54.95 7.6,-16.21 15.88,-29.29 24.79,-39.28l-65.39 -11.78zm-173.01 -24.02c1.85,-6.52 4.74,-12 8.69,-16.32 3.9,-4.34 8.57,-7.61 13.86,-9.77 6.7,-2.7 13.26,-3.96 19.72,-3.78 6.42,0.2 13.85,1.51 22.23,3.88l53.15 15.05 -38.23 135.04 -49.68 -14.07c-9.96,-2.82 -17.14,-5.16 -21.55,-7.07 -4.46,-1.89 -8.56,-4.75 -12.4,-8.51 -4.01,-3.95 -6.57,-8.33 -7.62,-13.27 -1.07,-4.9 -0.76,-10.25 0.9,-16.12 1.83,-6.43 5.24,-11.71 10.24,-15.82 4.95,-4.09 10.78,-6.72 17.47,-7.82l-0.39 -1.01c-6.78,-3.92 -11.83,-9.41 -15.18,-16.48 -3.31,-7.04 -3.73,-15.01 -1.21,-23.93zm13.66 68.06c-0.87,3.06 -1.13,5.84 -0.76,8.34 0.39,2.53 1.63,4.8 3.74,6.78 2.48,2.3 5.44,4.13 8.91,5.42 3.51,1.31 8.43,2.84 14.75,4.63l21.51 6.09 10.39 -36.68 -25.98 -7.36c-5.53,-1.56 -9.53,-2.42 -11.99,-2.54 -2.45,-0.16 -5.37,0.21 -8.61,1.13 -3.13,0.8 -5.61,2.47 -7.49,4.84 -1.88,2.41 -3.38,5.51 -4.47,9.35zm9.86 -61.32c-1.31,4.63 -1.7,8.53 -1.16,11.68 0.52,3.18 2.76,6.48 6.59,9.94 2.41,2.2 5.19,3.88 8.32,5.12 3.13,1.24 7.55,2.68 13.24,4.29l26.6 7.53 12.56 -44.36 -19.62 -5.55c-8.13,-2.3 -14.51,-3.75 -19.2,-4.37 -4.67,-0.65 -8.89,-0.42 -12.65,0.61 -3.95,1.16 -7.12,2.89 -9.41,5.19 -2.32,2.33 -4.05,5.63 -5.27,9.92zm-168.08 -35.19c8.7,-21.99 20.71,-36.81 36.02,-44.6 15.34,-7.72 31.8,-8.14 49.4,-1.17 18.16,7.19 30,19.03 35.5,35.46 5.53,16.47 4.08,35.27 -4.3,56.46 -8.63,21.8 -20.68,36.61 -36.18,44.41 -15.49,7.86 -32,8.29 -49.52,1.36 -17.6,-6.97 -29.3,-18.57 -35.17,-34.79 -5.8,-16.24 -4.41,-35.26 4.25,-57.13zm22.75 9c-6.65,16.8 -8.53,30.51 -5.62,41.13 2.91,10.61 10.04,18.14 21.37,22.62 11.42,4.52 21.85,3.95 31.28,-1.78 9.42,-5.74 17.43,-17.02 24.08,-33.82 6.45,-16.28 8.26,-29.83 5.41,-40.7 -2.86,-10.86 -10.02,-18.55 -21.43,-23.07 -11.26,-4.45 -21.62,-3.8 -31.08,2.02 -9.46,5.81 -17.44,17 -24.01,33.6zm-118.98 -137.25l26.22 13.39 13.57 79.51 10.39 5.3 29.4 -57.56 21.1 10.77 -63.83 125 -21.1 -10.78 27.76 -54.35c-5.47,-2.69 -10.71,-3.93 -15.65,-3.7 -4.96,0.26 -10.39,2.89 -16.27,7.88 -1.76,1.46 -3.77,3.14 -6,5.14 -2.24,1.93 -4.15,3.7 -5.68,5.28 -7.9,7.54 -15.76,11.71 -23.54,12.51 -7.79,0.8 -16.39,-1.23 -25.75,-6.02l-5.74 -2.93 9.37 -18.34 4.82 2.46c5.88,3 10.89,4.06 15.02,3.23 4.16,-0.86 8.86,-3.95 14.13,-9.36 5.39,-5.44 10.4,-9.24 15.12,-11.41 4.69,-2.18 9.23,-3.33 13.63,-3.55l-16.97 -92.47z"/>
   <path class="fil1 str0" d="M1216.55 3307.74l-20.96 32.6c4.98,2.58 11.32,5.84 18.96,9.74 7.68,3.91 14.17,6.6 19.44,8.09 6.31,1.76 12.26,2.12 17.83,1.01 5.56,-1.12 10.28,-4.67 14.11,-10.63 4.32,-6.72 5.68,-13.04 4.09,-18.91 -1.58,-5.85 -6,-11.14 -13.29,-15.83 -6.28,-4.03 -12.78,-6.32 -19.56,-6.86 -6.78,-0.58 -13.68,-0.32 -20.62,0.79zm10.61 -16.51c2.42,-0.18 5.64,-0.45 9.75,-0.88 4.07,-0.38 7.79,-0.45 11.12,-0.09 4.73,0.44 9.02,1.21 12.94,2.35 3.87,1.11 8.78,3.55 14.7,7.36 4.88,3.13 8.89,6.98 12.07,11.63 3.19,4.65 5.37,9.68 6.56,15.12 1.05,5.28 1,10.91 -0.15,16.91 -1.13,5.95 -3.41,11.58 -6.82,16.89 -5.27,8.19 -11.46,14.01 -18.6,17.59 -7.15,3.51 -15.53,4.55 -25.15,3.16 -8.56,-1.21 -17.74,-4.15 -27.47,-8.77 -9.78,-4.64 -20.04,-10.01 -30.81,-16.13l-2.49 3.87c-3.02,4.69 -4.73,8.94 -5.17,12.75 -0.45,3.79 0.06,7.28 1.58,10.46 1.51,3.3 3.88,6.36 7.22,9.27 3.29,2.88 6.92,5.57 10.78,8.06 4.59,2.94 10.41,5.71 17.53,8.3 7.08,2.55 14.61,4.49 22.53,5.8l1.17 0.75 -12.97 20.18c-4.36,-1.31 -10.34,-3.52 -18.01,-6.67 -7.68,-3.14 -14.85,-6.83 -21.56,-11.15 -8.13,-5.22 -14.53,-10.25 -19.32,-15.12 -4.75,-4.84 -8.31,-10.33 -10.61,-16.51 -2.21,-6.01 -2.71,-12.31 -1.54,-18.8 1.19,-6.53 4.17,-13.49 8.93,-20.89l51.98 -80.88 19.93 12.8 -8.12 12.64zm-194.15 -13.48l37.7 29.54 73.86 -94.26 18.64 14.61 -73.85 94.26 37.71 29.54 -12.71 16.22 -94.06 -73.69 12.71 -16.22zm20.91 -144.68c7.3,6.33 13,13.25 17.16,20.78 4.12,7.5 6.43,15.45 6.85,23.82 0.43,8.34 -1.17,17.01 -4.76,26.05 -3.61,9.02 -9.46,18.2 -17.59,27.58 -8.07,9.31 -16.3,16.26 -24.68,20.87 -8.37,4.61 -16.63,7.39 -24.83,8.4 -8.18,0.98 -16.5,0.03 -24.91,-2.9 -8.4,-2.9 -16.21,-7.46 -23.38,-13.68 -5.84,-5.05 -10.78,-10.75 -14.76,-17.11 -3.99,-6.35 -7.16,-12.44 -9.55,-18.26l17.38 -20.05 1.03 0.9c0.33,2.16 0.92,4.83 1.72,7.96 0.8,3.09 2,6.62 3.59,10.56 1.39,3.36 3.35,7 5.92,10.86 2.55,3.87 5.37,7.16 8.49,9.86 9.24,8.02 19.74,10.97 31.39,8.87 11.66,-2.11 23.02,-9.53 34.1,-22.31 10.83,-12.49 16.57,-24.61 17.19,-36.27 0.63,-11.67 -3.89,-21.73 -13.52,-30.08 -5.84,-5.06 -12.46,-8.69 -19.8,-10.84 -7.33,-2.22 -14.67,-3.13 -22.02,-2.91l-1.03 -0.89 17.37 -20.05c2.51,0.71 5.56,1.64 9.24,2.78 3.69,1.11 6.85,2.37 9.5,3.64 3.81,1.77 7.13,3.45 9.95,5.04 2.85,1.62 6.16,4.09 9.95,7.38zm-152.22 -88.45c4.94,-4.71 10.33,-7.95 16.2,-9.82 5.9,-1.83 11.68,-2.24 17.4,-1.23 6.86,1.1 13.1,3.34 18.69,6.65 5.63,3.35 11.85,8.57 18.7,15.75l33.93 35.54 -101.52 96.91 -16.36 -17.14 39.49 -37.69 -18.05 -18.91c-7.29,-7.64 -12.51,-13.92 -15.77,-18.88 -3.25,-4.97 -5.3,-11.03 -6.16,-18.15 -0.78,-6.03 0.03,-11.84 2.43,-17.46 2.38,-5.66 6.05,-10.82 11.02,-15.57zm17.08 17.53c-3.07,2.93 -5.27,6.04 -6.59,9.32 -1.32,3.28 -1.55,6.82 -0.7,10.63 0.94,3.97 2.76,7.75 5.56,11.25 2.8,3.56 7.07,8.33 12.85,14.38l12.12 12.7 34.46 -32.89 -11.77 -12.33c-5.78,-6.05 -10.5,-10.51 -14.19,-13.32 -3.71,-2.88 -7.43,-4.8 -11.2,-5.82 -3.92,-1.01 -7.5,-1.03 -10.71,-0.1 -3.24,0.96 -6.5,3.01 -9.83,6.18zm-69.25 -154.39l18.2 23.15 -21 77.88 7.22 9.17 50.81 -39.95 14.64 18.63 -110.33 86.74 -14.64 -18.63 47.97 -37.72c-3.83,-4.73 -8.07,-8.06 -12.65,-9.91 -4.62,-1.85 -10.65,-1.74 -18.08,0.33 -2.21,0.59 -4.74,1.27 -7.59,2.15 -2.85,0.82 -5.33,1.62 -7.38,2.42 -10.34,3.53 -19.22,4.03 -26.62,1.49 -7.4,-2.54 -14.36,-7.99 -20.86,-16.26l-3.98 -5.06 16.2 -12.73 3.34 4.25c4.09,5.2 8.18,8.26 12.28,9.24 4.14,0.95 9.71,0.12 16.76,-2.58 7.17,-2.69 13.31,-4.03 18.51,-4.02 5.17,-0.02 9.78,0.84 13.86,2.49l23.34 -91.08zm-130.09 -72.14c19.92,-12.75 38.32,-17.74 55.29,-15.11 16.97,2.71 30.56,12 40.76,27.94 10.52,16.45 13.21,32.99 8.05,49.53 -5.14,16.59 -17.31,31 -36.51,43.28 -19.74,12.64 -38.17,17.6 -55.31,14.86 -17.16,-2.68 -30.81,-11.99 -40.97,-27.86 -10.2,-15.94 -12.9,-32.2 -8.18,-48.78 4.8,-16.57 17.05,-31.18 36.87,-43.86zm13.18 20.61c-15.22,9.74 -24.76,19.76 -28.61,30.07 -3.85,10.31 -2.46,20.59 4.11,30.85 6.61,10.35 15.4,15.98 26.41,16.85 10.99,0.85 24.09,-3.61 39.31,-13.35 14.75,-9.44 24.14,-19.36 28.19,-29.85 4.03,-10.48 2.72,-20.9 -3.89,-31.24 -6.53,-10.2 -15.32,-15.73 -26.39,-16.54 -11.07,-0.83 -24.09,3.59 -39.13,13.21zm-107.23 -200.64c20.99,-10.69 39.78,-13.9 56.42,-9.62 16.67,4.29 29.24,14.78 37.74,31.46 8.33,16.37 9.53,32.14 3.59,47.25 -5.93,15.12 -18,27.91 -36.29,38.34l11.22 22.02 57.13 -29.1 10.75 21.11 -125.06 63.7 -10.75 -21.11 50.94 -25.95 -11.45 -22.49c-17.9,6.95 -34.09,8.07 -48.66,3.31 -14.51,-4.75 -25.64,-14.69 -33.37,-29.87 -8.97,-17.6 -9.93,-34.25 -2.93,-50.01 7,-15.75 20.6,-28.79 40.72,-39.04zm11.1 21.8c-15.88,8.09 -26.33,17.07 -31.26,26.96 -4.98,9.9 -4.74,20.19 0.67,30.82 5.49,10.78 13.75,17.08 24.77,18.84 10.97,1.78 24.35,-1.38 40.07,-9.38 15.6,-7.95 25.92,-16.91 30.99,-26.91 5.06,-10 4.86,-20.34 -0.6,-31.05 -5.41,-10.63 -13.53,-16.91 -24.35,-18.77 -10.82,-1.86 -24.23,1.32 -40.29,9.49zm15.49 -277.6l5.97 21.06 -32.72 9.26 25.26 89.21 32.71 -9.26 5.96 21.06 -51.79 14.66 -2.53 -8.92c-14.75,-4.07 -32.91,-5.67 -54.57,-4.8 -21.65,0.91 -44.47,4.74 -68.5,11.54l-23.5 -83.01 115.71 -32.75 -3.79 -13.39 51.79 -14.66zm-41.55 50.84l-96.63 27.36 11.01 38.9c20.44,-4.68 39.64,-7.12 57.55,-7.38 17.9,-0.28 33.28,1.42 46.17,5.05l-18.1 -63.93zm-1.15 -88.23l5.33 23.08 -136.76 31.54 -5.33 -23.08 136.76 -31.54zm-160.26 35.1l6.08 26.36 -23.83 5.49 -6.08 -26.35 23.83 -5.5zm135.33 -169.16l4.2 23.31 -54.75 9.86 4.11 22.82 62.18 31.36 4.9 27.2 -64.87 -34.27c-1.33,12.06 -4.83,21.37 -10.56,27.85 -5.72,6.52 -14.19,10.8 -25.42,12.83 -6.85,1.23 -13.12,0.78 -18.82,-1.29 -5.68,-2.06 -10.78,-5.38 -15.24,-9.85 -3.53,-3.59 -6.55,-8.46 -9.06,-14.46 -2.49,-6.05 -4.43,-12.94 -5.82,-20.67l-8.97 -49.81 138.12 -24.88zm-68.79 36.46l-46.38 8.36 4.53 25.18c0.96,5.32 2.02,9.5 3.12,12.48 1.15,2.97 2.79,5.78 4.95,8.35 2.36,2.63 5.21,4.43 8.57,5.39 3.35,0.97 6.78,1.13 10.34,0.49 4.51,-0.81 8.09,-1.97 10.74,-3.55 2.69,-1.53 4.93,-3.85 6.85,-6.98 1.92,-3.36 2.94,-7.17 2.96,-11.44 0.06,-4.29 -0.39,-8.92 -1.28,-13.86l-4.4 -24.42zm59.1 -179.18l1.79 23.62 -120.17 9.14 3.67 48.28c6.95,-0.28 13.6,-0.52 20,-0.75 6.39,-0.27 12.19,-0.46 17.38,-0.59 13.14,-0.49 24.16,-0.46 33.06,0.07 8.96,0.53 16.14,1.53 21.63,2.97 5.66,1.41 10.1,3.1 13.35,5.09 3.25,1.99 6.22,4.26 8.95,6.81 2.7,2.68 4.81,5.57 6.3,8.73 1.49,3.16 2.41,6.79 2.72,10.9 0.1,1.33 0.19,3.05 0.26,5.15 0.08,2.06 0.14,3.52 0.2,4.37l-20.54 1.57 -0.09 -1.25c-0.05,-0.6 -0.05,-1.2 -0.01,-1.85 0.03,-0.6 0.03,-1.33 -0.04,-2.19 -0.15,-2.01 -0.6,-3.95 -1.3,-5.85 -0.74,-1.83 -1.95,-3.5 -3.65,-4.88 -4.42,-3.84 -11.8,-6.38 -22.14,-7.49 -10.36,-1.15 -24.77,-1.43 -43.15,-0.89 -6.87,0.18 -14.98,0.49 -24.34,0.9 -9.35,0.41 -18.27,0.83 -26.8,1.22l-7.03 -92.44 139.95 -10.64zm-39.7 -141.6c6.82,0.19 12.92,1.73 18.39,4.58 5.45,2.89 9.82,6.7 13.12,11.47 4.07,5.64 6.87,11.65 8.46,17.95 1.59,6.36 2.28,14.45 2.01,24.36l-1.31 49.13 -140.3 -3.74 0.63 -23.68 54.57 1.45 0.7 -26.13c0.28,-10.56 1.06,-18.69 2.28,-24.5 1.24,-5.81 4.09,-11.52 8.53,-17.16 3.74,-4.8 8.43,-8.32 14.11,-10.57 5.69,-2.3 11.94,-3.34 18.81,-3.16zm-0.4 24.47c-4.24,-0.11 -8,0.52 -11.26,1.89 -3.25,1.38 -5.93,3.71 -8.03,7 -2.16,3.47 -3.55,7.42 -4.06,11.87 -0.55,4.5 -0.93,10.89 -1.16,19.25l-0.46 17.55 47.62 1.27 0.45 -17.04c0.23,-8.36 0.06,-14.85 -0.55,-19.46 -0.56,-4.66 -1.83,-8.64 -3.76,-12.04 -2.05,-3.49 -4.56,-6.05 -7.48,-7.66 -2.96,-1.63 -6.71,-2.5 -11.31,-2.63zm59.74 -155.95l-2.96 23.5 -62.35 -7.84 -7.93 63.12 62.35 7.84 -2.96 23.5 -139.25 -17.51 2.95 -23.5 56.47 7.1 7.93 -63.12 -56.46 -7.1 2.95 -23.5 139.26 17.51zm11.04 -57.42l-4.2 23.31 -138.12 -24.89 4.2 -23.31 138.12 24.89zm-161.13 -30.87l-4.79 26.62 -24.08 -4.34 4.8 -26.62 24.07 4.34zm185.01 -56.01c-2.64,9.29 -6.49,17.39 -11.53,24.35 -5.05,6.91 -11.27,12.37 -18.67,16.31 -7.36,3.93 -15.89,6.16 -25.61,6.75 -9.7,0.55 -20.5,-0.85 -32.44,-4.23 -11.85,-3.36 -21.63,-7.86 -29.36,-13.49 -7.73,-5.62 -13.75,-11.93 -18.15,-18.92 -4.36,-6.99 -7.02,-14.93 -7.94,-23.79 -0.94,-8.83 -0.13,-17.84 2.46,-26.97 2.1,-7.43 5.17,-14.33 9.23,-20.63 4.06,-6.3 8.23,-11.76 12.49,-16.4l25.52 7.23 -0.37 1.32c-1.82,1.22 -3.99,2.88 -6.48,4.94 -2.46,2.03 -5.14,4.61 -8.04,7.72 -2.46,2.69 -4.91,6.01 -7.32,9.97 -2.42,3.95 -4.21,7.91 -5.33,11.87 -3.33,11.78 -1.56,22.54 5.29,32.19 6.86,9.66 18.4,16.81 34.67,21.41 15.9,4.51 29.32,4.56 40.14,0.18 10.84,-4.39 18.02,-12.75 21.5,-25.01 2.1,-7.43 2.58,-14.96 1.42,-22.53 -1.11,-7.58 -3.4,-14.61 -6.72,-21.17l0.38 -1.32 25.52 7.23c0.43,2.57 0.87,5.73 1.4,9.54 0.57,3.82 0.77,7.22 0.74,10.16 0.01,4.19 -0.1,7.91 -0.34,11.14 -0.26,3.27 -1.1,7.32 -2.46,12.15zm-66.09 -197.33l-15.32 45.39 113.47 38.29 -7.58 22.44 -113.46 -38.29 -15.32 45.39 -19.52 -6.59 38.21 -113.22 19.52 6.59zm127.5 -163.07c21.47,9.69 35.73,22.34 42.8,38 7.09,15.68 6.77,32.06 -0.93,49.12 -7.55,16.75 -19.1,27.54 -34.6,32.37 -15.51,4.83 -33.04,3.42 -52.62,-4.33l-10.16 22.54 58.45 26.36 -9.74 21.59 -127.94 -57.7 9.74 -21.59 52.11 23.5 10.38 -23.01c-16.62,-9.61 -27.63,-21.54 -33.02,-35.89 -5.37,-14.29 -4.59,-29.18 2.41,-44.72 8.12,-18 20.51,-29.18 37.18,-33.57 16.68,-4.4 35.35,-1.95 55.94,7.33zm-10.06 22.31c-16.25,-7.33 -29.8,-9.86 -40.59,-7.52 -10.84,2.31 -18.72,8.93 -23.62,19.81 -4.98,11.03 -4.72,21.41 0.8,31.11 5.48,9.66 16.31,18.12 32.39,25.38 15.96,7.2 29.4,9.64 40.38,7.34 10.97,-2.31 18.9,-8.94 23.85,-19.9 4.9,-10.87 4.72,-21.13 -0.6,-30.73 -5.32,-9.61 -16.19,-18.08 -32.61,-25.49zm207.76 -187.32l-17.17 21.93 -174.86 -38.57 127.07 99.56 -14.29 18.24 -147.37 -115.47 21.76 -27.77 159.9 36.29 -116.7 -91.43 14.29 -18.24 147.37 115.46zm-21.97 -181.78c15,11.76 23.81,24.87 26.43,39.41 2.62,14.54 -0.85,27.95 -10.46,40.22 -10.01,12.77 -22.32,19.5 -36.9,20.23 -14.59,0.73 -29.35,-4.79 -44.35,-16.54 -15.4,-12.07 -24.31,-25.26 -26.74,-39.65 -2.41,-14.38 1.19,-27.75 10.88,-40.12 9.66,-12.33 21.78,-19.03 36.26,-20.05 14.53,-1.06 29.47,4.43 44.88,16.5zm74.26 79.12l-44.78 57.17 -15.81 -12.38 44.79 -57.17 15.8 12.38zm-88.24 -61.28c-11.52,-9.03 -21.64,-13.52 -30.41,-13.52 -8.78,-0.01 -16.03,3.69 -21.75,10.98 -5.74,7.34 -7.6,15.27 -5.52,23.82 2.08,8.55 8.83,17.33 20.36,26.36 11.11,8.71 21.16,13.15 30.08,13.31 8.95,0.21 16.33,-3.45 22.18,-10.92 5.83,-7.43 7.6,-15.46 5.24,-24.08 -2.32,-8.58 -9.06,-17.24 -20.18,-25.95zm159.92 -105.49c23.21,24.31 36.71,45.54 40.53,63.66 3.77,18.12 -1.71,34.2 -16.46,48.28 -14.93,14.25 -31.4,18.89 -49.44,13.97 -18.03,-4.91 -38.38,-19.26 -61.08,-43.04 -23.32,-24.44 -36.86,-45.7 -40.59,-63.73 -3.74,-18.09 1.76,-34.15 16.51,-48.22 14.93,-14.26 31.46,-18.82 49.63,-13.78 18.15,5.04 38.43,19.32 60.9,42.86zm16.1 63.48c-2.53,-6.19 -6.68,-13.02 -12.49,-20.59 -5.8,-7.51 -13.14,-15.94 -22.06,-25.29 -8.83,-9.25 -16.9,-16.97 -24.14,-23.11 -7.29,-6.16 -13.99,-10.62 -20.12,-13.44 -6.25,-2.88 -12.08,-3.95 -17.52,-3.33 -5.48,0.67 -10.81,3.43 -15.9,8.29 -5.03,4.8 -8.03,9.99 -8.97,15.45 -0.98,5.51 -0.18,11.51 2.46,18 2.58,6.38 6.88,13.38 12.9,21.04 6.08,7.67 13.28,15.91 21.73,24.77 9.01,9.43 16.85,17.08 23.52,22.88 6.6,5.8 13.33,10.3 20.08,13.47 6.19,2.99 12.14,4.19 17.8,3.6 5.63,-0.57 11.06,-3.39 16.28,-8.37 5.03,-4.8 8.04,-9.98 9.02,-15.49 0.94,-5.47 0.11,-11.43 -2.59,-17.88zm100.7 -156.94c20.77,26.42 32.18,48.85 34.25,67.25 2.02,18.4 -4.98,33.88 -21.01,46.49 -16.22,12.75 -33.06,15.79 -50.55,9.17 -17.48,-6.62 -36.36,-22.86 -56.67,-48.7 -20.88,-26.55 -32.32,-49.02 -34.31,-67.32 -1.99,-18.36 5.03,-33.82 21.05,-46.41 16.23,-12.77 33.12,-15.73 50.72,-8.97 17.59,6.75 36.41,22.91 56.52,48.49zm9.95 64.74c-1.92,-6.41 -5.41,-13.6 -10.46,-21.7 -5.06,-8.03 -11.55,-17.12 -19.54,-27.28 -7.9,-10.05 -15.2,-18.51 -21.81,-25.32 -6.68,-6.83 -12.91,-11.91 -18.75,-15.3 -5.94,-3.47 -11.64,-5.09 -17.12,-4.99 -5.52,0.14 -11.08,2.37 -16.62,6.73 -5.46,4.29 -8.94,9.17 -10.41,14.52 -1.5,5.39 -1.28,11.43 0.72,18.15 1.97,6.59 5.58,13.97 10.84,22.18 5.31,8.21 11.69,17.11 19.26,26.73 8.06,10.25 15.13,18.62 21.21,25.03 6.02,6.4 12.28,11.53 18.71,15.33 5.87,3.56 11.67,5.34 17.37,5.28 5.65,-0.02 11.33,-2.31 17,-6.76 5.47,-4.3 8.96,-9.17 10.46,-14.56 1.47,-5.35 1.21,-11.37 -0.86,-18.04zm115.24 -146.8c18.12,28.31 27.3,51.73 27.58,70.26 0.22,18.5 -8.24,33.23 -25.41,44.22 -17.39,11.13 -34.44,12.51 -51.21,4.24 -16.75,-8.29 -33.97,-26.28 -51.69,-53.96 -18.2,-28.46 -27.41,-51.92 -27.62,-70.34 -0.2,-18.47 8.28,-33.17 25.45,-44.15 17.39,-11.13 34.49,-12.44 51.35,-4.01 16.85,8.43 34.02,26.33 51.55,53.74zm3.63 65.39c-1.29,-6.56 -4.06,-14.06 -8.3,-22.6 -4.26,-8.49 -9.84,-18.17 -16.81,-29.05 -6.89,-10.77 -13.33,-19.9 -19.26,-27.32 -5.98,-7.43 -11.69,-13.1 -17.17,-17.04 -5.58,-4.02 -11.1,-6.19 -16.56,-6.63 -5.5,-0.39 -11.26,1.3 -17.19,5.09 -5.85,3.75 -9.79,8.26 -11.77,13.44 -2.02,5.22 -2.38,11.26 -1.04,18.14 1.32,6.76 4.2,14.45 8.63,23.13 4.5,8.69 9.99,18.16 16.58,28.47 7.03,10.98 13.26,20 18.7,26.97 5.36,6.95 11.1,12.66 17.13,17.07 5.49,4.11 11.1,6.44 16.77,6.94 5.64,0.53 11.51,-1.2 17.58,-5.09 5.87,-3.75 9.81,-8.26 11.82,-13.47 1.98,-5.19 2.31,-11.2 0.89,-18.05z"/>
  </g>
  <path class="fil1 str0" d="M2674.3 641.77l9.7 -29.98c22.44,7.89 38.66,14.7 48.87,20.49 -2.68,-25.49 -4.13,-43.08 -4.27,-52.64l30.84 0c-0.43,13.98 -2.02,31.43 -4.92,52.43 14.56,-7.32 31.21,-14.12 49.97,-20.28l9.69 29.98c-17.88,5.94 -35.4,9.92 -52.63,11.87 8.61,7.46 20.7,20.86 36.34,40.05l-25.34 18.02c-8.18,-11.15 -17.88,-26.35 -29.03,-45.54 -10.5,19.91 -19.7,35.12 -27.59,45.54l-24.91 -18.02c16.29,-20.21 28.02,-33.53 35.04,-40.05 -18.17,-3.54 -35.4,-7.53 -51.76,-11.87z"/>
  <path class="fil2" d="M2049.99 1036.98c558.35,0 1010.98,453.54 1010.98,1013.02 0,559.48 -452.63,1013.02 -1010.98,1013.02 -558.35,0 -1010.98,-453.54 -1010.98,-1013.02 0,-559.48 452.63,-1013.02 1010.98,-1013.02z"/>
  <path class="fil1 str1" d="M911.58 1950.87l-0.84 27.36 -180.82 -5.61 -2.91 93.94 180.81 5.6 -0.84 27.37 -205.07 -6.36 4.6 -148.65 205.07 6.35zm-49.59 -196.52c25.15,4.67 44.1,14.47 56.79,29.31 12.68,14.9 17.32,31.6 13.89,50.1 -1.4,7.49 -3.51,13.98 -6.3,19.49 -2.79,5.47 -6.54,10.94 -11.27,16.33l63.27 11.76 -4.75 25.53 -206.99 -38.5 4.74 -25.52 15.86 2.95c-4.5,-7.39 -7.95,-15.35 -10.35,-23.79 -2.39,-8.48 -2.71,-17.3 -1.02,-26.41 3.24,-17.44 12.6,-29.71 28.15,-36.91 15.55,-7.21 34.86,-8.64 57.98,-4.34zm-2.18 26.87c-17.24,-3.21 -31.13,-2.92 -41.68,0.8 -10.56,3.79 -16.98,11.87 -19.3,24.32 -1.34,7.21 -1.02,14.53 0.91,21.88 1.94,7.35 4.85,14.54 8.82,21.55l85.64 15.92c4.53,-6.09 7.82,-11.41 9.85,-15.97 2.05,-4.54 3.66,-9.88 4.81,-16.04 2.47,-13.27 -0.43,-24.43 -8.73,-33.58 -8.3,-9.15 -21.73,-15.42 -40.32,-18.88zm101.48 -77.57l-6.77 25.07 -148.49 -40.11 6.77 -25.07 148.49 40.11zm-173.04 -48.78l-7.72 28.61 -25.9 -7 7.73 -28.6 25.89 6.99zm189.04 -111.54c8,3.19 14.07,7.65 18.21,13.35 4.11,5.71 6.72,11.97 7.77,18.72 1.06,6.45 1.02,13.28 -0.13,20.57 -1.13,7.25 -2.99,14.2 -5.66,20.88 -3.74,9.35 -8.21,17.85 -13.4,25.5 -5.16,7.61 -11.42,14.77 -18.79,21.4l-26.69 -10.67 0.61 -1.53c7.64,-3.63 14.77,-9.19 21.35,-16.64 6.6,-7.49 11.6,-15.57 15.06,-24.22 1.51,-3.76 2.71,-7.89 3.64,-12.52 0.89,-4.61 1.12,-8.73 0.59,-12.38 -0.8,-4.83 -2.21,-8.63 -4.21,-11.36 -2.04,-2.75 -5.43,-5.06 -10.14,-6.95 -5.06,-2.02 -9.52,-2.68 -13.32,-2.03 -3.87,0.68 -7.19,2.39 -10.04,5.1 -2.85,2.66 -5.25,6.01 -7.28,9.96 -2.03,3.94 -3.96,8.25 -5.79,12.83l-6.71 16.77 -20.97 -8.38 5.12 -12.8c1.29,-3.23 2.82,-7.28 4.53,-12.22 1.71,-4.89 2.59,-9 2.61,-12.33 0.09,-4.17 -0.65,-7.87 -2.32,-11.07 -1.59,-3.22 -5.39,-6 -11.38,-8.39 -4.14,-1.66 -7.88,-2.09 -11.2,-1.24 -3.29,0.86 -6.22,2.37 -8.78,4.58 -2.68,2.28 -4.99,5 -6.91,8.18 -1.92,3.15 -3.5,6.31 -4.75,9.45 -3.22,8.03 -5.17,16.23 -5.91,24.54 -0.7,8.33 0.07,16.04 2.35,23.13l-0.61 1.52 -25.99 -10.39c0.31,-6.96 1.15,-14.53 2.52,-22.64 1.36,-8.08 3.52,-15.87 6.52,-23.39 2.43,-6.07 5.49,-11.93 9.27,-17.72 3.72,-5.75 8.19,-10.85 13.45,-15.29 5.01,-4.12 10.78,-6.93 17.28,-8.49 6.54,-1.54 13.46,-0.84 20.84,2.11 7.77,3.11 13.71,8.02 17.82,14.72 4.09,6.76 5.63,14.06 4.65,22.08l0.87 0.35c5.89,-6.87 12.69,-11.7 20.3,-14.53 7.66,-2.81 16.19,-2.34 25.62,1.44zm78.72 -149.38c6.46,3.68 11.51,8.2 15.08,13.53 3.58,5.31 5.84,11.14 6.73,17.34 1.12,7.83 0.73,15.14 -1.16,21.97 -1.91,6.76 -5.25,14.33 -9.99,22.63l-30 52.57 -133.59 -76.23 28.04 -49.14c5.62,-9.85 10.01,-16.88 13.21,-21.07 3.19,-4.25 7.3,-7.85 12.31,-10.94 5.26,-3.23 10.59,-4.8 16.13,-4.62 5.48,0.16 11.1,1.9 16.9,5.21 6.37,3.64 11.09,8.66 14.15,15.05 3.05,6.35 4.31,13.24 3.72,20.65l1.16 -0.15c5.96,-6.18 13.13,-10.1 21.53,-11.82 8.36,-1.66 16.96,-0.01 25.78,5.02zm-76 -3.39c-3.02,-1.72 -5.91,-2.73 -8.68,-3.01 -2.79,-0.23 -5.52,0.48 -8.19,2.2 -3.1,2.03 -5.82,4.7 -8.11,8.05 -2.3,3.39 -5.24,8.23 -8.8,14.47l-12.15 21.29 36.28 20.7 14.67 -25.7c3.12,-5.47 5.09,-9.49 5.87,-12.08 0.81,-2.57 1.17,-5.77 1.07,-9.46 -0.04,-3.55 -1.15,-6.62 -3.18,-9.24 -2.07,-2.65 -4.97,-5.05 -8.78,-7.22zm62.64 26.63c-4.58,-2.61 -8.64,-4.05 -12.12,-4.31 -3.53,-0.27 -7.63,1.23 -12.31,4.41 -2.98,1.99 -5.49,4.5 -7.64,7.5 -2.14,3 -4.83,7.32 -8.04,12.96l-15.01 26.3 43.87 25.04 11.08 -19.4c4.59,-8.05 7.8,-14.45 9.7,-19.28 1.92,-4.8 2.78,-9.34 2.68,-13.63 -0.19,-4.5 -1.21,-8.32 -3.04,-11.37 -1.87,-3.07 -4.93,-5.79 -9.17,-8.22zm153.82 -130.17l-15.86 20.55 -90.82 -70.09 46.88 127.03 -14.51 18.8 -121.77 -93.97 15.86 -20.55 89.42 69 -45.97 -125.3 15 -19.44 121.77 93.97zm208.82 -140.95l-18.08 15.76 -24.3 -27.86 -130.82 114.06 -101.08 -115.94 19.57 -17.06 86.8 99.56 39.35 -34.31 -86.8 -99.56 19.58 -17.06 86.8 99.55 39.35 -34.31 -86.8 -99.55 19.57 -17.07 86.8 99.56 11.48 -10.02 38.58 44.25zm70.06 -79.99c-21.21,12.36 -41.2,16.01 -59.88,10.95 -18.68,-5.06 -34.42,-18.6 -47.21,-40.54 -12.6,-21.61 -16.93,-42.12 -13.02,-61.55 3.87,-19.41 15.03,-34.46 33.4,-45.17 8.28,-4.83 16.28,-7.92 24.03,-9.22 7.74,-1.37 15.49,-0.87 23.21,1.44 7.75,2.28 15.01,6.33 21.82,12.21 6.82,5.82 13.32,14.07 19.5,24.67l7.09 12.16 -92.4 53.87c8.97,15.4 19.74,24.91 32.29,28.48 12.56,3.63 25.74,1.39 39.51,-6.64 4.92,-2.87 9.46,-6.28 13.54,-10.13 4.11,-3.87 7.53,-7.82 10.32,-11.8 3,-4.19 5.44,-7.95 7.21,-11.27 1.8,-3.34 3.18,-6.32 4.12,-8.89l1.31 -0.76 14.24 24.42c-2.05,2.57 -4.55,5.75 -7.55,9.58 -2.99,3.82 -5.78,7.07 -8.37,9.73 -3.7,3.73 -7.1,6.97 -10.26,9.67 -3.18,2.68 -7.49,5.63 -12.9,8.79zm-22.72 -99.47c-3.66,-5.92 -7.42,-10.7 -11.22,-14.31 -3.8,-3.61 -7.82,-6.22 -11.93,-7.85 -4.56,-1.75 -9.42,-2.35 -14.54,-1.7 -5.13,0.64 -10.7,2.75 -16.8,6.31 -5.97,3.48 -10.53,7.33 -13.68,11.56 -3.14,4.23 -5.47,9.01 -6.89,14.41 -1.34,5.47 -1.6,10.8 -0.92,16.07 0.71,5.24 2.5,10.84 5.28,16.73l70.7 -41.22zm262.85 -10.33l-75.35 26.48 -6.92 -19.7 24.76 -8.7 -54.17 -154.17 -24.77 8.7 -6.92 -19.7 75.35 -26.48 6.93 19.7 -24.77 8.71 54.18 154.16 24.76 -8.7 6.92 19.7zm184.79 -41.05l-25.52 4.72 -21.99 -118.86 -22.03 83.95 -18.96 3.51 -50.31 -70.58 21.98 118.87 -23.86 4.41 -27.98 -151.24 30.76 -5.69 55.35 76.63 22.95 -91.11 31.64 -5.86 27.97 151.25zm42.58 -134.27l-9.2 -37.08 -2.56 -33.63 28.13 -2.15 2.57 33.64 -3.75 38.06 -15.19 1.16zm188.33 128.03l-25.96 -0.8 1.88 -60.93 -25.39 -0.78 -47.77 59.52 -30.27 -0.93 51.5 -61.76c-12.63,-4.15 -21.81,-10.03 -27.46,-17.64 -5.69,-7.62 -8.35,-17.68 -7.96,-30.18 0.23,-7.62 2.14,-14.24 5.65,-19.88 3.51,-5.62 8.22,-10.33 14.03,-14.1 4.66,-2.97 10.55,-5.09 17.57,-6.42 7.04,-1.3 14.87,-1.81 23.48,-1.54l55.43 1.7 -4.73 153.74zm-23.46 -82.04l1.59 -51.62 -28.02 -0.87c-5.92,-0.18 -10.63,0.01 -14.09,0.52 -3.45,0.54 -6.82,1.67 -10.08,3.4 -3.35,1.92 -5.92,4.57 -7.73,7.96 -1.79,3.37 -2.75,7.02 -2.88,10.96 -0.15,5.03 0.29,9.14 1.37,12.33 1.03,3.23 3.01,6.16 5.93,8.93 3.17,2.83 7.01,4.79 11.59,5.77 4.58,1.04 9.65,1.62 15.14,1.78l27.18 0.84zm314.62 140.44l-26.35 -7.39 48.88 -174.17 -90.49 -25.39 -48.87 174.17 -26.37 -7.4 55.44 -197.54 143.19 40.19 -55.43 197.53zm198.23 1.96c-10.7,23.61 -24.62,39.19 -41.8,46.9 -17.21,7.65 -35.24,7.22 -54.14,-1.34 -19.49,-8.83 -31.82,-22.42 -36.96,-40.7 -5.18,-18.31 -2.6,-38.83 7.7,-61.58 10.6,-23.39 24.58,-38.95 41.96,-46.67 17.36,-7.78 35.46,-7.38 54.27,1.14 18.9,8.56 31.09,21.88 36.64,39.94 5.5,18.08 2.96,38.83 -7.67,62.31zm-24.43 -11.07c8.18,-18.03 10.95,-32.93 8.34,-44.71 -2.63,-11.77 -10.03,-20.4 -22.2,-25.91 -12.25,-5.55 -23.69,-5.47 -34.31,0.31 -10.63,5.77 -20,17.69 -28.18,35.72 -7.91,17.48 -10.62,32.22 -8.06,44.27 2.54,12.05 9.97,20.84 22.22,26.39 12.08,5.48 23.47,5.31 34.13,-0.55 10.65,-5.86 19.99,-17.69 28.06,-35.52zm274.98 116.76c0.94,8.46 -0.1,17.37 -3.24,26.78 -3.11,9.37 -8.46,18.92 -16.02,28.65 -7.28,9.37 -15.49,16.87 -24.66,22.54 -9.15,5.64 -18.35,9.21 -27.69,10.71 -9.62,1.58 -18.7,1.38 -27.27,-0.7 -8.57,-2.08 -16.61,-6 -24.07,-11.8 -7.61,-5.92 -13.55,-12.68 -17.82,-20.23 -4.3,-7.57 -6.55,-15.86 -6.74,-24.89 -0.2,-11.24 2.3,-23.11 7.59,-35.68 5.27,-12.53 13.84,-26.48 25.77,-41.82 4.21,-5.42 8.77,-10.81 13.61,-16.04 4.87,-5.27 11.14,-11.19 18.78,-17.81 6.88,-5.86 13.87,-10.79 20.96,-14.87 7.17,-4.08 14.29,-6.65 21.54,-7.69 9.28,-1.37 19.31,-0.42 30.08,2.83 10.83,3.23 23.52,9.59 38.14,18.99 5.22,3.33 10.73,6.97 16.59,10.86 5.85,3.89 10.32,6.88 13.39,8.91l-14.73 18.94c-3.92,-2.69 -8.13,-5.55 -12.67,-8.53 -4.53,-2.99 -9.68,-6.4 -15.53,-10.23 -7.7,-5.09 -16.37,-9.74 -25.88,-13.91 -9.48,-4.21 -17.88,-5.74 -25.19,-4.7 -5.43,0.73 -11.31,3.3 -17.64,7.68 -6.28,4.42 -12.56,9.89 -18.82,16.41 8.32,0.33 16.62,1.53 24.76,3.63 8.18,2.13 15.82,5.93 22.91,11.44 6.58,5.11 11.95,11.08 16.19,17.89 4.21,6.84 6.76,14.36 7.66,22.64zm-40.96 40.59c9.99,-12.84 14.77,-24.97 14.32,-36.36 -0.46,-11.37 -6.02,-21.23 -16.72,-29.54 -5.87,-4.56 -12.29,-8.01 -19.26,-10.39 -7.01,-2.34 -14.15,-3.79 -21.47,-4.35 -1.56,1.7 -3.39,3.74 -5.46,6.12 -2.12,2.41 -3.96,4.61 -5.51,6.62 -9.82,12.63 -16.81,23.69 -20.91,33.19 -4.15,9.47 -6.14,17.87 -6,25.2 0.09,6.55 1.34,12.06 3.74,16.41 2.42,4.4 5.75,8.24 10.03,11.56 10.39,8.08 21.55,10.43 33.49,7.02 11.92,-3.36 23.15,-11.84 33.75,-25.48zm92.31 139.36l30.48 -29.57c-4.65,-3.99 -10.59,-9.04 -17.79,-15.1 -7.23,-6.1 -13.47,-10.59 -18.72,-13.5 -6.3,-3.45 -12.56,-5.31 -18.78,-5.51 -6.22,-0.19 -12.15,2.41 -17.72,7.81 -6.28,6.09 -9.3,12.5 -9.07,19.16 0.23,6.65 3.62,13.39 10.24,20.21 5.7,5.88 12.05,9.93 19.17,12.21 7.08,2.3 14.51,3.74 22.19,4.29zm-15.44 14.97c-2.62,-0.41 -6.14,-0.93 -10.62,-1.5 -4.44,-0.59 -8.43,-1.45 -11.89,-2.67 -4.94,-1.64 -9.33,-3.54 -13.22,-5.73 -3.86,-2.16 -8.49,-5.98 -13.86,-11.52 -4.42,-4.56 -7.74,-9.66 -9.98,-15.42 -2.24,-5.75 -3.32,-11.66 -3.22,-17.78 0.19,-5.89 1.64,-11.88 4.37,-17.99 2.68,-6.08 6.52,-11.51 11.48,-16.32 7.67,-7.44 15.73,-12.1 24.24,-14.14 8.51,-1.97 17.71,-0.99 27.64,2.89 8.82,3.42 17.89,8.85 27.12,16.21 9.27,7.39 18.88,15.69 28.86,24.89l3.61 -3.5c4.39,-4.26 7.28,-8.37 8.71,-12.31 1.42,-3.94 1.75,-7.79 0.91,-11.56 -0.78,-3.9 -2.55,-7.75 -5.38,-11.69 -2.81,-3.9 -6.01,-7.68 -9.51,-11.29 -4.16,-4.28 -9.68,-8.7 -16.62,-13.23 -6.92,-4.49 -14.48,-8.43 -22.61,-11.82l-1.05 -1.08 18.87 -18.3c4.33,2.49 10.15,6.34 17.55,11.6 7.41,5.28 14.14,11 20.23,17.28 7.37,7.6 12.95,14.57 16.85,20.95 3.85,6.34 6.28,13.1 7.2,20.27 0.86,6.96 -0.18,13.8 -3.03,20.44 -2.9,6.67 -7.83,13.36 -14.75,20.07l-75.63 73.35 -18.08 -18.64 11.81 -11.46zm211.28 85.25l-30.58 -42.67 -106.66 76.46 -15.13 -21.1 106.66 -76.45 -30.59 -42.67 18.35 -13.16 76.3 106.43 -18.35 13.16zm7.68 187.41c-6.69,3.34 -13.39,5.01 -20.14,5.06 -6.78,0.02 -12.96,-1.4 -18.61,-4.31 -6.84,-3.37 -12.65,-7.73 -17.43,-13 -4.82,-5.33 -9.66,-12.8 -14.52,-22.52l-24.06 -48.17 137.59 -68.75 11.6 23.23 -53.52 26.74 12.8 25.63c5.18,10.35 8.62,18.61 10.43,24.86 1.81,6.25 1.99,13.26 0.6,20.99 -1.14,6.56 -3.86,12.39 -8.19,17.51 -4.31,5.15 -9.83,9.37 -16.55,12.73zm-12.25 -23.85c4.17,-2.09 7.47,-4.63 9.92,-7.64 2.44,-3.01 3.83,-6.64 4.17,-10.91 0.3,-4.47 -0.4,-9.01 -2.21,-13.57 -1.78,-4.63 -4.71,-11 -8.81,-19.21l-8.6 -17.21 -46.7 23.34 8.34 16.7c4.1,8.21 7.62,14.39 10.58,18.53 2.94,4.21 6.23,7.41 9.85,9.71 3.78,2.31 7.52,3.49 11.18,3.55 3.71,0.05 7.79,-1.05 12.28,-3.29zm31.37 196.6l-11.88 -30 46.39 -75.24 -4.71 -11.89 -65.86 26.09 -9.56 -24.14 143 -56.64 9.56 24.14 -62.19 24.63c2.56,6.17 5.98,10.99 10.2,14.37 4.27,3.38 10.64,5.14 19.09,5.29 2.51,0.07 5.38,0.16 8.65,0.12 3.25,0.02 6.11,-0.04 8.51,-0.23 11.96,-0.49 21.45,1.77 28.43,6.74 6.98,4.98 12.58,12.88 16.83,23.59l2.6 6.57 -21 8.31 -2.18 -5.51c-2.67,-6.73 -6.02,-11.22 -10.02,-13.53 -4.04,-2.31 -10.15,-3.17 -18.4,-2.53 -8.37,0.58 -15.25,0.07 -20.7,-1.57 -5.44,-1.59 -10.01,-3.93 -13.78,-6.94l-52.98 88.37zm109.46 137.5c-25.24,5.87 -46.08,4.3 -62.65,-4.65 -16.54,-9 -27.17,-23.57 -31.87,-43.78 -4.85,-20.84 -1.56,-38.9 9.82,-54.1 11.38,-15.24 29.23,-25.68 53.56,-31.34 25.01,-5.82 45.86,-4.19 62.57,4.91 16.74,9.04 27.42,23.65 32.1,43.77 4.7,20.21 1.55,37.98 -9.41,53.38 -11,15.36 -29.02,25.97 -54.12,31.81zm-6.07 -26.12c19.28,-4.48 32.8,-11.34 40.56,-20.58 7.74,-9.25 10.09,-20.37 7.06,-33.38 -3.05,-13.1 -10.08,-22.13 -21.12,-27.05 -11.05,-4.92 -26.21,-5.11 -45.49,-0.63 -18.7,4.35 -32.04,11.17 -40.05,20.53 -8.02,9.35 -10.47,20.59 -7.42,33.69 3,12.92 10.06,21.86 21.2,26.75 11.13,4.9 26.2,5.11 45.26,0.67zm-9.2 202.02c-7.41,0.57 -14.13,-0.34 -20.07,-2.76 -5.94,-2.39 -11.07,-5.96 -15.29,-10.6 -5.31,-5.86 -9.08,-12.13 -11.34,-18.85 -2.2,-6.67 -3.67,-14.81 -4.39,-24.34l-4.59 -60.35 153.37 -11.65 4.29 56.41c0.85,11.31 1.15,19.59 0.85,24.85 -0.26,5.3 -1.65,10.59 -4.07,15.96 -2.55,5.62 -6.09,9.9 -10.78,12.86 -4.63,2.94 -10.26,4.64 -16.92,5.14 -7.32,0.56 -14.03,-0.96 -20.15,-4.54 -6.08,-3.55 -10.98,-8.56 -14.64,-15.03l-0.88 0.78c-1.48,8.46 -5.22,15.72 -11.22,21.84 -6,6.07 -14.04,9.52 -24.17,10.28zm64.86 -39.74c3.47,-0.27 6.43,-1.05 8.88,-2.37 2.44,-1.37 4.31,-3.49 5.55,-6.41 1.43,-3.42 2.19,-7.15 2.22,-11.21 0.01,-4.1 -0.27,-9.75 -0.82,-16.92l-1.85 -24.44 -41.65 3.17 2.24 29.5c0.47,6.28 1.09,10.72 1.9,13.3 0.77,2.58 2.26,5.44 4.41,8.44 2.02,2.91 4.66,4.84 7.81,5.87 3.2,1.03 6.95,1.4 11.31,1.07zm-66.8 13.01c5.25,-0.4 9.42,-1.48 12.45,-3.22 3.07,-1.75 5.63,-5.29 7.73,-10.54 1.35,-3.32 2.03,-6.81 2.13,-10.5 0.09,-3.68 -0.1,-8.76 -0.59,-15.23l-2.3 -30.21 -50.37 3.83 1.69 22.28c0.7,9.24 1.62,16.34 2.76,21.4 1.09,5.05 2.92,9.3 5.4,12.8 2.69,3.61 5.67,6.21 8.89,7.71 3.28,1.5 7.33,2.05 12.21,1.68zm-47.48 99.33l0.81 -25.96 153.73 4.76 -0.8 25.96 -153.74 -4.76zm179.63 7.54l0.91 -29.62 26.81 0.83 -0.92 29.62 -26.8 -0.83z"/>
  <path class="fil1 str1" d="M1206.98 3206.91l101.74 -265.21 38.58 0 107.98 265.21 -39.95 0 -30.68 -80.38 -111.67 0 -28.77 80.38 -37.23 0zm76.31 -108.9l90.37 0 -27.65 -73.52c-8.34,-22.35 -14.63,-40.81 -19.02,-55.38 -3.64,17.29 -8.52,34.27 -14.63,51.06l-29.07 77.84zm236.19 -156.31l161.49 0 0 234.1 23.71 0 0 92.97 -31.12 0 0 -61.86 -175.57 0 0 61.86 -31.11 0 0 -92.97 20.37 0c21.49,-32.23 32.23,-97.36 32.23,-195.33l0 -38.77zm126.3 31.12l-92.6 0 0 13.58c0,22.59 -2.03,53.52 -6.11,92.72 -4.01,39.2 -12.04,71.43 -23.89,96.68l122.6 0 0 -202.98zm98.96 234.09l0 -265.21 99.51 0c20.25,0 36.49,2.66 48.77,8.03 12.23,5.37 21.79,13.64 28.71,24.82 6.97,11.11 10.43,22.78 10.43,35 0,11.3 -3.09,21.98 -9.2,31.98 -6.11,10 -15.37,18.08 -27.78,24.26 16.05,4.69 28.4,12.71 36.98,24.07 8.64,11.3 12.97,24.7 12.97,40.13 0,12.47 -2.66,24.01 -7.91,34.69 -5.24,10.68 -11.73,18.89 -19.44,24.7 -7.72,5.74 -17.41,10.12 -29.02,13.09 -11.66,2.96 -25.92,4.44 -42.84,4.44l-101.18 0zm35.19 -153.72l57.35 0c15.55,0 26.73,-1.05 33.46,-3.08 8.95,-2.66 15.68,-7.1 20.18,-13.28 4.51,-6.17 6.79,-13.89 6.79,-23.21 0,-8.82 -2.09,-16.6 -6.35,-23.27 -4.2,-6.73 -10.25,-11.36 -18.09,-13.83 -7.84,-2.47 -21.3,-3.7 -40.31,-3.7l-53.03 0 0 80.37zm0 122.61l66.05 0c11.36,0 19.32,-0.44 23.95,-1.3 8.03,-1.42 14.82,-3.83 20.25,-7.22 5.44,-3.4 9.88,-8.34 13.4,-14.82 3.52,-6.48 5.25,-13.95 5.25,-22.41 0,-9.94 -2.53,-18.52 -7.66,-25.86 -5.06,-7.35 -12.1,-12.47 -21.11,-15.44 -8.95,-2.96 -21.92,-4.44 -38.77,-4.44l-61.36 0 0 91.49zm190.33 -97.97c0,-43.96 11.85,-78.41 35.5,-103.28 23.64,-24.88 54.14,-37.29 91.55,-37.29 24.5,0 46.54,5.86 66.24,17.53 19.63,11.67 34.63,27.97 44.94,48.89 10.31,20.87 15.49,44.58 15.49,71.06 0,26.85 -5.43,50.93 -16.29,72.1 -10.87,21.24 -26.24,37.29 -46.12,48.16 -19.94,10.92 -41.42,16.35 -64.45,16.35 -25,0 -47.29,-6.05 -66.98,-18.08 -19.63,-12.04 -34.57,-28.46 -44.69,-49.33 -10.13,-20.8 -15.19,-42.84 -15.19,-66.11zm36.3 0.61c0,31.92 8.58,57.04 25.74,75.38 17.16,18.33 38.71,27.53 64.64,27.53 26.42,0 48.09,-9.26 65.19,-27.78 17.03,-18.52 25.55,-44.82 25.55,-78.89 0,-21.55 -3.64,-40.38 -10.92,-56.43 -7.29,-16.05 -17.97,-28.52 -31.98,-37.35 -14.08,-8.82 -29.82,-13.27 -47.29,-13.27 -24.82,0 -46.17,8.52 -64.08,25.56 -17.9,17.04 -26.85,45.43 -26.85,85.25zm263.29 -136.74l35.19 0 0 116.31c15.99,0 27.29,-3.15 33.77,-9.38 6.54,-6.24 14.81,-21.18 24.94,-44.88 7.34,-17.47 13.39,-29.76 18.21,-36.92 4.75,-7.22 11.54,-13.27 20.37,-18.15 8.77,-4.88 18.52,-7.35 29.14,-7.35 13.52,0 20.62,0.13 21.36,0.37l0 30.38c-1.24,0 -3.58,-0.07 -7.04,-0.19 -3.89,-0.12 -6.23,-0.18 -7.1,-0.18 -11.17,0 -19.51,2.71 -24.94,8.14 -5.55,5.44 -11.85,17.04 -19.01,34.76 -8.89,22.47 -16.42,36.67 -22.6,42.53 -6.11,5.81 -13.52,10.5 -22.04,14.02 17.11,4.69 34.02,20.56 50.69,47.47l54.63 88.28 -43.58 0 -44.51 -71.86c-12.16,-19.94 -22.35,-33.64 -30.5,-41.05 -8.21,-7.47 -18.76,-11.17 -31.79,-11.17l0 124.08 -35.19 0 0 -265.21zm185.94 265.21l101.74 -265.21 38.58 0 107.98 265.21 -39.95 0 -30.68 -80.38 -111.67 0 -28.77 80.38 -37.23 0zm76.31 -108.9l90.37 0 -27.65 -73.52c-8.34,-22.35 -14.63,-40.81 -19.02,-55.38 -3.64,17.29 -8.52,34.27 -14.63,51.06l-29.07 77.84zm238.29 108.9l0 -234.09 -87.41 0 0 -31.12 210.02 0 0 31.12 -87.42 0 0 234.09 -35.19 0z"/>
  <g id="_1299936480">
   <path class="fil3 str2" d="M2295.75 1658.65c19.15,0 15.17,1.58 28.27,-4.71l26.23 36.66c0.59,0.74 1.44,1.85 2.03,2.56l50.69 46.73c57.49,49.35 37.15,13.95 76.53,88.37l-32.98 0c6.55,24.55 50.36,41.08 70.67,51.83l-53.7 201.08c-1.74,5.94 -2.97,11.37 -4.73,18.44l-77.26 299.68c-3.53,14.12 -6.34,25.89 -9.75,37.36 -5.63,18.88 -1.82,22.89 -14.75,32.37 -3.1,-37.21 -28.27,-15.27 -28.27,-32.98 0,-24.91 18.85,-33.62 18.85,-47.12 0,-20.28 -12.7,-26.26 -14.15,-56.54 -1.16,-24.32 -9.41,-41.36 -9.41,-61.24 0,-18.09 9.42,-34.75 9.42,-84.81 0,-27.71 -18.84,-24.12 -18.84,-51.82 0,-15.9 40.55,-37.56 4.71,-56.56 0,-22.5 3.88,-25.58 4.39,-36.93 0.54,-11.99 -4.39,-19.86 -4.39,-38.43 0,-16.91 5.67,-20.39 2.09,-34.74 -10.68,-42.78 -11.51,-94.98 -11.51,-144.3 0,-22.5 3.2,-19.53 4.71,-37.69 -11.15,-16.65 -32.64,-26.16 -32.43,-52.05 0.15,-19.63 5.27,-55.53 13.58,-75.16zm-852.76 -216.72l38.05 -126.35c4.03,-19.24 4.42,-28.25 18.48,-38.55l47.12 164.9c-27.26,0 -32.11,-4.71 -61.25,-4.71 -25.53,0 -19.79,4.16 -42.4,4.71zm202.59 -9.42l47.11 -150.77c44.09,32.3 30.31,86.28 61.25,150.77 -34.21,-2.85 -74.79,-13.04 -108.36,0zm-28.27 -235.58l38.8 36.59 -38.8 1.11 0 -37.7zm-23.56 -18.84c-9.05,16.11 -4.71,42.53 -4.71,61.25 -28.53,0 -65.09,-3.1 -90.91,3.58 -19.2,4.96 -26.35,5.83 -26.88,29.4l14.14 0c-4.82,20.68 -48.17,163.37 -63.53,182.02 -22.09,26.82 28.01,40.98 47.81,50.4 6.39,3.05 18.18,6.96 26,6.68 15.01,-0.55 31.13,-8.59 44.77,-14.44 29.78,-12.79 55.44,-20.84 25.42,-44.76l-56.91 -179.9c34.05,0 63.17,0.58 90.53,-3.7 15.22,-2.38 31.01,-0.14 46.29,-0.86 20.53,-0.97 42.75,-11.88 39.03,11.43l-53.7 157.68c-12.51,13.62 -24.16,22.14 -0.89,39.27 11.29,8.3 12.71,4.85 23.82,9.16 16.73,6.48 21.25,17.88 52.79,17.88 13.9,0 75.39,-30.51 75.39,-42.41l-26.38 -58.42c-6.47,-23.28 -11.27,-43.46 -20.74,-68.78 26.67,17.85 44.69,34.35 76.44,52.28 23.07,13.03 54.73,40.16 79.04,46.66 -17.9,76.83 36.13,94.8 72.22,168.03 32.28,65.49 29.43,14.55 17.09,113.95 -5.01,40.39 -16.26,84.42 -18.63,124.24 -1.77,29.71 -5.79,70.14 -9.09,98.24 -1.98,16.95 0.53,38.87 -0.16,56.37 -1.12,28.1 -10.7,69.01 -9.96,98.76 0.5,20.43 5.33,25.09 5.12,51.76l2.7 46.16c10.29,49.95 -4.48,104.51 -14.19,154.48 -6.34,32.6 -16.83,62.84 -16.83,96.25 0,0.31 18.96,23.08 22.24,41.17l-3.48 34.33c-1.49,19.27 -3.25,16.34 -4.63,32.86 28.76,19.26 75.47,27.18 110.15,20.74 56.04,-10.41 83.31,7.53 130.14,7.53 60.16,0 113.43,-9.87 178.89,-9.32 28.49,0.24 40.24,-3.06 61.39,-4.81 -4.12,-15.41 -11.83,-20.42 -23.56,-28.27 14.75,-30.73 37.68,-124.89 46.2,-156.39l34.49 -120.99c1.88,-6.22 2.51,-10.23 5.03,-18.6l98.03 -344.78 84.8 0c-5.7,-21.36 -14.24,-17.38 -31.29,-28.36 -11.54,-7.43 -30.41,-15.56 -44.09,-18.75 0,-31.78 0.02,-56.42 7.51,-82.01 6.88,-23.53 21.43,-47.28 -12.22,-54.62 -4.19,3.09 -3.85,1.3 -7.42,6.17 -0.54,0.74 -1.52,2.01 -2.07,2.89 -9.08,14.58 -22.1,63.7 -23.49,80.46 -12.1,-3.23 -40,-35.76 -50.61,-48.33 -31.03,-36.78 -90.86,-118.17 -95.59,-163.54 -2.7,-25.76 -12.73,-38.72 -14.69,-62.42 -2.45,-29.55 -31.25,-50.6 -36.09,-80.01 -5.95,-36.18 -6.75,-49.03 -41.33,-62.28 -66.15,-25.33 -16.29,-17.42 -115.05,-40.43 0,-82.9 82.81,-92.89 40.44,-175.15 -9.76,-18.96 -6.47,-21.11 -13.84,-39.97 -8.19,-20.97 -36.01,-44.01 -59.58,-44.01 -28.62,0 -41.46,14.13 -70.67,14.13 -1.07,4.59 -1.54,7.17 -2.55,11.21 -0.33,1.32 -1.39,5.97 -1.83,7.48l-2.38 7.53c-15.21,43.89 -50.37,85.6 -17.76,134.93 8.26,12.49 23.88,21.71 33.94,36.73 -16.41,70.44 -34.26,9.43 -65.96,9.43 -44.61,0 -61.59,14.07 -113.73,5.09 -31.05,-5.35 -23.96,9.94 -52.64,-2.81l-8.98 -4.23c-2.74,-1.23 -10.54,-4.34 -14.23,-5.97 -10.88,-4.84 -13.62,-7.01 -23.38,-9.99 -12.71,-3.88 -12.51,-2.04 -24.42,-8.55 -18.5,-10.11 -85.81,-79.57 -100.62,-97.26l-41.83 -57.15c-11.27,-27.11 -22.7,-36.12 -48.91,-49.99l-7.68 6.45c-23.27,19.57 -42.2,44.8 -29.34,77.65 5.36,13.71 11.49,15.8 27.6,19.55z"/>
   <path class="fil3 str2" d="M2088.45 2756.41l4.71 0 0 14.14 -4.71 0 0 -14.14zm9.42 -14.13l-4.49 -4.93c-3.66,-7.16 -1.85,-1.91 -4.06,-10.07 -3.85,-14.2 1.21,-8.55 -5.58,-22.69 -34.43,0 -23.56,16.31 -23.56,103.65l-4.71 0c0,-24.15 4.86,-96.45 -18.85,-103.65 -12.12,0 -12.49,-1.99 -19.17,4.54 -6.5,6.35 -3.64,11.98 -4.41,23.7 -10.08,-18.59 -7.81,-7.97 -9.39,-28.24 -38.81,0 -29.28,-4.88 -36.96,48.35 -2.65,18.46 3.13,22.93 -5.45,36.45 0,-33.03 2.51,-73.05 -4.71,-89.51l-23.56 0c-19.54,40.73 -4.71,129.8 -4.71,164.9 26.14,6.25 16.01,9.81 37.69,-4.72 7.17,10.32 -2.48,9.43 28.27,9.43 14.57,-30.37 9.43,-86.89 9.43,-131.92 8.26,12.35 5.39,-5.99 4.73,32.85 -1.69,98.98 -8.87,99.07 32.96,99.07 13.03,0 11.33,-3.64 14.13,-14.14 14.98,10.41 8.4,9.43 23.56,9.43 3.3,-6.66 4.71,-7.83 4.71,-18.85l4.71 0c0,19.89 -2.01,15.68 4.71,32.96 36.82,-1.04 32.98,-15.42 32.98,-51.81l4.71 37.67c6.69,5.17 4.95,5.71 9.43,14.16 31.21,0 28.26,0.09 28.26,-32.98 11.39,3.04 55.37,33.15 121.2,22.56 108.64,-17.48 134.45,-55.58 56.99,-71.82 -36.31,-7.61 -114.13,-12.86 -145.56,-3.1 -19.18,5.96 -12.23,3.99 -18.49,19.36 21.72,7.43 23.25,7.54 32.98,18.84 -27.22,-10.51 -23.88,-1.91 -47.12,0.03 0,-140.94 9.49,-146.53 -32.98,-136.64l-4.71 42.41 -5.49 -47.02c-19.7,3.58 -27.49,4.51 -27.49,51.73z"/>
   <path class="fil3 str2" d="M1739.81 2779.97l-20.07 8.2c-9.62,3.93 -14.59,6.55 -22.34,10.65 5.48,65.77 157.26,55.48 200.15,39.86 8.23,-3 26.6,-9.31 19.82,-22.6 -4.42,-8.67 6.52,-7.84 -36.22,-7.84 5.05,-3.1 15.67,-4.75 28.27,-23.56 -40.85,-27.35 -74.33,-10.1 -122.53,-9.45 -24.66,0.34 -26.81,4.29 -47.08,4.74z"/>
   <path class="fil3 str2" d="M1739.81 2779.97l18.84 -9.45c-3.27,-10.91 11.79,-12 -37.69,-23.53l32.98 -4.71 0 -14.14c-15.84,-4.23 -22.97,-13.45 -41.65,-19.59 -32.16,-10.59 -104.45,-29.13 -137.72,-27.9 -23.1,0.86 -33.34,8.5 -19.66,29.45 21.77,33.34 130.42,69.87 184.9,69.87z"/>
   <path class="fil3 str2" d="M2342.87 2746.99c8.57,11.7 13.36,7.67 23.55,14.14 -18.17,4.23 -23.56,5.92 -28.26,23.55 36.39,17.46 117.23,-11.97 151.77,-32.05 8.47,-4.92 16.16,-8.26 24.15,-13.33 22.96,-14.55 30.83,-24.38 31.38,-48.85 -6.82,0.27 -8.19,-1.18 -11.43,-1.68 -4.9,-0.76 -4.81,-2.01 -15.69,-2.04l-16.57 2.01c-1.52,0.25 -2.63,0.52 -4.14,0.78l-31.57 6.64c-1.27,0.32 -2.47,0.65 -3.73,0.97l-86.45 26.05c-19.21,8.38 -24.15,10.57 -33.01,23.81z"/>
   <path class="fil3 str2" d="M2846.99 2002.59c20.71,-8.36 -0.56,-8 18.84,-18.85 3.25,12.25 -1.74,5.26 9.43,9.42 -3.53,15.15 -9.03,34.24 -9.43,51.83 22.91,4.75 10.14,4.44 23.56,14.13 29.29,-19.61 44.99,-70.7 47.77,-107.55 1.21,-16.11 3.03,-21 -5.37,-38.5 -28.31,2.36 -47.11,46.81 -47.11,61.25l-4.71 0c0,-36.51 -4.98,-81.94 -34.16,-106.33l-8.24 -6.75 -6.28 12.94c-10.08,25.43 -7.86,27.49 -4.34,46.15l8.7 48.22c4.97,22.61 -1.47,14.92 11.34,34.04z"/>
   <path class="fil3 str2" d="M1852.88 2737.57l-10.13 -2.59 10.13 2.59zm0 0l28.27 0c-1.7,-20.45 -13.39,-31.7 -29.1,-41.66l-66.64 -36.92c-20.01,-10.54 -67.38,-37.71 -83.3,-10.94 -12.1,20.37 45.19,64.44 57.82,74.11 27.48,21.03 55.6,38.97 102.37,38.97 -0.39,-13.92 -3.03,-15.82 -9.42,-23.56z"/>
   <path class="fil3 str2" d="M1226.26 2007.3l4.71 -4.71c10.7,-22.29 16.52,-74.52 14.29,-103.8 -1.45,-18.98 -5.59,-15.72 -9.58,-32.83l-9.89 4.71c-25.56,16.25 -32.51,75.14 -32.51,103.65l-4.33 -5.09c-3.51,-5.45 -2.64,-4.26 -5.15,-8.99 -4.72,-8.86 -3.49,-9.36 -10.49,-17.77 -9.25,-11.12 -16.88,-20.69 -31.86,-24.69 -17.31,36.09 4.38,92.89 24.19,123.47 0.58,0.9 1.41,2.01 2,2.84 0.56,0.78 1.44,1.84 2.01,2.57 12.13,15.64 12.79,14.28 23.63,17.18 0.49,-21.98 -3.07,-17.78 14.14,-14.14 0,-26.02 -1.14,-34.56 -9.43,-51.83l23.54 -14.13c-7.78,20.87 -8.9,13.57 4.73,23.56z"/>
   <path class="fil3 str2" d="M2243.93 2751.7l9.18 -5.42 -9.18 5.42zm0 0c-10.09,15.07 -7.74,3.3 -9.43,23.56 47.1,0 62.36,-12.25 100.24,-41.11 24.8,-18.89 56.58,-40.9 59.95,-81.39 -16.94,-1.44 -8.21,1.95 -14.16,-4.71 -58.95,0.99 -64.23,28.03 -126.9,57.17 -24.25,11.28 -37.38,24.73 -37.97,51.19 14.35,-0.32 17.17,-2.12 28.27,-4.71z"/>
   <path class="fil3 str2" d="M1372.32 2558.53c0,34.26 23.87,48.75 61.39,70.53 27.56,15.99 67.49,33.13 108.22,33.13 18.01,0 1.71,1.44 14.13,-4.72 -4.71,-17.63 -10.1,-19.32 -28.27,-23.55 0.94,-0.62 2.26,-2.9 2.79,-1.91 0.56,1.02 2.4,-1.39 3.17,-1.55 6.55,-1.4 6.13,-1.1 12.89,-1.26 -3.86,-46.28 -136.39,-75.38 -155.48,-75.38 -1.19,0 -17.34,4.13 -18.84,4.71z"/>
   <path class="fil3 str2" d="M2545.46 2633.92c2.62,0 7.69,-0.1 9.1,0.31 8.34,2.4 5.23,1.54 9.74,4.4 -13.03,3.48 -49.92,28.27 -9.42,28.27 36.76,0 79.45,-18.77 102.79,-33.85 26.28,-16.98 61.23,-34.92 62.11,-74.52 -56.43,0 -55.96,0.53 -114.68,26.66 -25.55,11.37 -56.96,16.54 -59.64,48.73z"/>
   <path class="fil3 str2" d="M1655 2666.9l0 0zm0 0c8.68,5.81 13.67,15.26 23.23,13.61 20.3,-3.52 3.57,-39.02 -4.63,-49.33 -39.97,-50.29 -59.62,-91.49 -108.12,-91.49 -8.25,35.4 5.68,69.25 26.28,97.95l28.95 35.29c13.53,12.52 31.87,25.01 34.29,-6.03z"/>
   <path class="fil3 str2" d="M2441.81 2671.61l0 0zm0 0c0,64.45 61.83,-20.22 81.53,-74.02 9.37,-25.6 9.7,-32.14 -1.44,-53.19 -39.54,3.29 -54.03,29.07 -71.66,55.55 -10.09,15.16 -17.38,24.99 -27.39,38.57 -12.81,17.37 -14.02,21.27 -14.02,51.93 22.7,-1.89 16.25,-7.64 32.98,-18.84z"/>
   <path class="fil3 str2" d="M1405.29 2506.71l-4.71 0 3.93 -5.5 0.78 5.5zm0 0l18.85 0c-8.24,-35.36 -75.39,-74.71 -109.3,-96.27 -2.29,-1.46 -9.02,-5.37 -13.19,-7.01 -10.4,-4.07 -14.42,-4.78 -28.27,-5.08 -8.97,27.08 19.57,61.16 39.03,79.99l5.41 4.5c30.32,23.53 62.76,52.14 101.61,52.14 -1.81,-21.72 -3.81,-12.85 -14.14,-28.27z"/>
   <path class="fil3 str2" d="M2686.8 2506.71l0 -4.71 5.5 3.92 -5.5 0.79zm0 0c-0.11,0.17 -44.71,48.17 7.51,26.66 50.6,-20.85 119.7,-75.43 119.7,-135.02 -23.55,0 -32.65,5.72 -47.12,14.18 -6.62,3.86 -0.27,-0.44 -8.43,5.44 -1.11,0.79 -4.04,3.14 -5.11,4 -0.77,0.62 -1.78,1.55 -2.55,2.19l-5.32 4.6c-21.8,16.88 -55.5,33.31 -70.31,56.86 -9.02,14.34 -6.69,3.63 -7.22,25.8 12.42,-2.75 7.47,-1.87 18.85,-4.71z"/>
   <path class="fil3 str2" d="M2583.15 2553.82l0 0zm0 0c-19.73,84.67 102.57,-65.43 84.09,-121.65 -3.71,-11.29 -5.74,-9.78 -17.8,-6.42 -18.24,5.08 -27.96,16.1 -37.08,29.76l-7.59 11.57c-0.59,0.88 -1.36,2.02 -1.95,2.9 -33.02,49.86 -47.94,55.97 -47.94,97.98 21.72,-1.81 12.85,-3.81 28.27,-14.14z"/>
   <path class="fil3 str2" d="M1508.95 2549.11l-4.72 0 3.93 -5.5 0.79 5.5zm0 0c15.42,10.33 6.55,12.33 28.26,14.14 0,-40.26 -13.96,-41.7 -42.4,-84.81 -11.3,-17.13 -14.47,-21.54 -29.39,-36.57 -15.26,-15.37 -16.63,-19.97 -45.99,-19.97 0,60.31 6.3,51.79 26.71,91.07l29.81 42.47c0.58,0.65 1.53,1.62 2.13,2.22 9.13,9.09 16.77,13.83 30.87,15.01l0 -23.56z"/>
   <path class="fil3 str2" d="M2781.03 2365.37l0 0zm32.98 -89.52l-4.71 9.42c-0.52,1.09 -1.47,1.48 -1.75,3.15l-9.38 14.33c-15.51,21.81 -29.19,32.86 -31.28,57.9 6.35,3.57 5.21,2.58 14.14,4.72 -2.5,10.74 -3.65,10.83 -4.71,23.55 31.11,-2.53 57.59,-39.99 72.12,-59.79 10.58,-14.42 16.11,-24.3 24.19,-41.78 12.68,-27.44 12.05,-21.24 12.05,-58.62 -37.1,0.89 -47.46,31.57 -70.67,47.12z"/>
   <path class="fil3 str2" d="M1301.64 2365.37l-4.71 0 3.93 -5.5 0.78 5.5zm0 0l14.14 0c0,-33.16 -4.8,-26.52 -27.62,-57.19 -8.86,-11.9 -6.1,-3.33 -10.07,-18.2l-4.71 -4.71 -4.72 -4.71c-15.05,-11.03 -3.09,-2.55 -12.6,-14.07 -12.11,-14.66 -36.63,-28.91 -53.36,-37.76l-3.13 37.54c7.86,31.28 68.19,120.46 106.78,127.34 4.6,-18.66 1.12,-16.1 -4.71,-28.24z"/>
   <path class="fil3 str2" d="M2677.38 2417.19c0,10.56 3.73,10.34 9.42,18.85 17.45,-4.66 14.52,-5.6 23.53,-23.56l0.03 23.56c18.52,-4.95 22.08,-17.6 29.78,-36.18 14.12,-34.02 19.86,-89.28 3.2,-124.01 -48.04,12.83 -65.96,125.76 -65.96,141.34z"/>
   <path class="fil3 str2" d="M1329.91 2313.54c0,35.3 10.18,108.16 42.41,122.5l4.71 -23.56c11.21,16.13 -0.15,18.21 28.26,18.85 1.41,-5.87 4.72,-14.03 4.72,-14.16l-22.81 -85.54c-8.82,-26.66 -19.53,-49.18 -47.87,-55.78 -5.46,11.39 -9.42,20.61 -9.42,37.69z"/>
   <path class="fil3 str2" d="M1268.66 2280.56l4.72 4.71 4.71 4.71c16.8,-7.47 1.33,-3.53 18.84,-9.42 4.54,16.99 0.43,12.6 18.85,14.14 7.27,-16.99 7.14,-110.53 -20.36,-142.75l-4.99 -5.37c-0.6,-0.63 -1.91,-1.81 -2.92,-2.65 -37.8,25.31 -27.83,77.04 -25.56,88.44 0.26,1.3 0.73,2.33 0.96,3.62 0.23,1.29 0.51,2.37 0.71,3.68 1.17,8.01 0.53,12.6 2.09,21.83 3.08,18.27 4.04,-9.1 2.95,19.06z"/>
   <path class="fil3 str2" d="M1216.84 1729.32l0 0zm0 0c0,21.85 -1.74,10.97 4.71,14.14 32.35,-21.66 44.59,-85.38 35.49,-101.52 -10.61,-18.78 -49.62,28.69 -49.62,82.67 -5.26,-6.05 -1.76,-0.01 -7.37,-11.48 -10.1,-20.63 -5.06,-26.58 -25.61,-40.34 -22.98,43.42 -5.59,75.81 14.13,113.07 17,-6.86 5.27,-11.5 18.85,-14.16l9.42 -42.38z"/>
   <path class="fil3 str2" d="M2809.3 2285.27l4.71 -9.42c3.92,-47.07 17.13,-107.83 -18.85,-131.92l-9.17 5.33c-4.45,3.82 -2.18,0.74 -6.79,7.31 -15.17,21.67 -23.33,118.4 -10.72,131.97 12.28,13.21 2.64,2.53 16.11,-3.02 11.47,-4.73 6.83,-1.74 24.71,-0.25z"/>
   <path class="fil3 str2" d="M2846.99 1738.75c3.72,-7.5 4.83,8.66 0,-14.14 6.35,3.57 5.21,2.58 14.13,4.71l0 37.7c14.91,5.56 6.76,-10.23 9.42,14.13 17.87,-4.77 10.94,-2.14 19.05,-18.65 23.86,-48.59 12.48,-60.23 4.51,-94.42 -13.38,3.57 -11.2,-1.62 -24.92,32.1 -4.22,10.38 -3.35,5.01 -3.35,19.72l-4.71 0c0,-33.42 -23.1,-77.14 -51.82,-84.8 -12.61,35.35 8.71,84.24 37.69,103.65z"/>
   <path class="fil3 str2" d="M2828.14 2191.04c0.97,0.68 2.8,0.16 3.16,1.62 0.34,1.38 2.52,1.26 2.93,1.64 9.02,8.42 5.33,-2.02 3.34,20.3 39.15,-0.82 42.89,-24.42 58.42,-49.94 17.58,-28.87 23.16,-40.54 31.09,-77.27 -5.25,-8.94 -5.97,-12.1 -9.42,-18.84 -33.46,8.93 -72.56,80.03 -86.69,115.53 -0.49,1.21 -2.24,5.51 -2.83,6.96z"/>
   <path class="fil3 str2" d="M1240.39 2200.47l-4.71 0 3.93 -5.5 0.78 5.5zm0 0l9.43 0c-0.81,-36.07 -52.4,-107.57 -89.52,-127.21 -10.19,19.26 -11.66,21.69 -3.05,45.78 0.16,0.43 3.9,10.49 4.21,11.2l2.91 6.51c0.42,0.85 1.11,1.99 1.54,2.8 3.39,6.34 6.69,11.48 11.66,20.05 14.57,25.1 29.14,56.91 62.82,59.71l0 -18.84z"/>
   <path class="fil3 str2" d="M2846.99 2002.59c-28.13,2.34 -34.77,33.08 -37.14,57.09 -2.54,25.73 -8.54,72.31 -0.55,88.96 24.52,-6.55 4,-4.52 23.55,-18.84 2.11,24.65 -4.49,8.51 9.43,14.13 8.76,-18.26 15.21,-45.05 17.87,-67.33 3.28,-27.62 -8.15,-52.51 -13.16,-74.01z"/>
   <path class="fil3 str2" d="M1226.26 2007.3c-2.71,32.59 -15.64,34.7 -6.72,79.12l1.68 7.25c4.14,26.07 -1.92,25.8 14.46,50.26 13.94,-3.72 7.64,-1.92 18.85,-9.42 3.79,14.19 -0.06,10.34 14.13,14.13 8.89,-18.52 3.07,-56.93 -0.91,-83.89 -2.03,-13.74 -9.76,-40.39 -20.55,-52.29 -0.53,-0.58 -1.25,-1.73 -1.86,-2.28l-9.82 -5.92c-1.07,-0.55 -3.04,-1.09 -4.55,-1.67l-4.71 4.71z"/>
   <path class="fil3 str2" d="M2875.26 1875.38c0,24.25 3.27,20.35 4.71,37.69 35.96,-9.6 62.29,-85.43 37.69,-131.92 -14.26,9.55 -9.64,7.24 -21.02,26.09 -6.3,10.45 -2.88,3.99 -7.32,11.84 -8.59,15.16 -14.06,32.21 -14.06,56.3z"/>
   <path class="fil3 str2" d="M1188.57 1917.78c0.17,-7.56 -1.4,-9.37 2.02,-15.02 0.23,-0.39 1.26,-1.28 1.53,-1.58l5.87 -2.24c0,-38.43 -15.86,-92.15 -47.11,-113.08 -13.39,27.91 -2.95,66.54 -2.14,69.83l2.21 6.72c8.95,30.21 13.48,39.21 37.62,55.37z"/>
   <path class="fil3 str2" d="M1197.99 1856.53c20.42,-5.45 2.99,-7.44 16.68,-3.65 6.16,1.71 -1.43,15.73 12.43,0.51 13.32,-14.63 21.09,-72.68 3.87,-105.22 -29.1,19.49 -32.98,59.45 -32.98,108.36z"/>
   <path class="fil3 str2" d="M2828.14 1771.73c0,41.79 0.34,49.82 18.85,84.8 8.33,-3.01 8.47,-7.9 23.55,-4.71 0,-96.97 -12.02,-60.46 -23.55,-103.65l-14.14 0c-2.46,10.57 -4.71,10.83 -4.71,23.56z"/>
  </g>
  <path class="fil0 str3" d="M2050 50c1104.56,0 2000,895.44 2000,2000 0,1104.56 -895.44,2000 -2000,2000 -1104.57,0 -2000.01,-895.44 -2000.01,-2000 0,-1104.56 895.44,-2000 2000.01,-2000z"/>
  <path class="fil0 str4" d="M2050 334.69c947.33,0 1715.31,767.98 1715.31,1715.31 0,947.33 -767.98,1715.31 -1715.31,1715.31 -947.34,0 -1715.31,-767.98 -1715.31,-1715.31 0,-947.33 767.97,-1715.31 1715.31,-1715.31z"/>
  <path class="fil0 str5" d="M1890.18 105.88l322.58 0 -314.61 181.64 307.61 0m-484.33 -160.3l321.35 -28.11 -297.58 208.37 306.44 -26.81m-496.46 -117.48l317.67 -56.01 -278.28 233.51 302.93 -53.42m-504.81 -73.76l311.58 -83.48 -256.86 256.87 297.12 -79.62m-509.32 -29.48l303.12 -110.32 -233.5 278.28 289.05 -105.21m-509.95 15.02l292.35 -136.32 -208.35 297.57 278.78 -130m-506.7 59.41l279.35 -161.28 -181.62 314.6 266.39 -153.81m-499.6 103.35l264.23 -185.01 -153.5 329.23 251.97 -176.44m-488.7 146.5l247.1 -207.34 -124.22 341.36 235.64 -197.73m-474.08 188.53l228.09 -228.09 -93.99 350.89 217.51 -217.51m-455.85 229.13l207.35 -247.1 -63.05 357.74 197.72 -235.64m-434.14 267.99l185.02 -264.23 -31.63 361.87 176.43 -251.97m-409.13 304.81l161.28 -279.35 0.03 363.25 153.8 -266.39m-381 339.31l136.31 -292.35 31.69 361.87 130 -278.78m-349.98 371.22l110.31 -303.11 63.11 357.73 105.21 -289.05m-316.29 400.31l83.47 -311.57 94.05 350.86 79.61 -297.12m-280.19 426.36l56 -317.66 124.27 341.33 53.41 -302.93m-241.97 449.16l28.1 -321.34 153.55 329.2 26.81 -306.43m-201.91 468.54l-0.01 -322.56 181.66 314.56 0 -307.6m-160.31 484.35l-28.12 -321.33 208.38 297.53 -26.81 -306.43m-117.48 496.48l-56.02 -317.65 233.52 278.23 -53.42 -302.92m-73.76 504.83l-83.49 -311.56 256.88 256.81 -79.62 -297.11m-29.48 509.34l-110.32 -303.1 278.28 233.45 -105.21 -289.04m15.02 509.97l-136.31 -292.33 297.56 208.3 -130 -278.77m59.41 506.72l-161.27 -279.33 314.58 181.57 -153.8 -266.38m103.35 499.62l-185 -264.22 329.21 153.47 -176.44 -251.97m146.51 488.72l-207.33 -247.1 341.33 124.2 -197.72 -235.64m188.54 474.1l-228.07 -228.09 350.85 93.97 -217.5 -217.51m229.14 455.87l-247.08 -207.35 357.7 63.04 -235.63 -197.73m268 434.16l-264.21 -185.02 361.83 31.62 -251.96 -176.44m304.82 409.15l-279.33 -161.29 363.21 -0.03 -266.38 -153.81m339.32 381.02l-292.33 -136.33 361.83 -31.68 -278.77 -130.01m371.23 350l-303.1 -110.34 357.7 -63.09 -289.04 -105.22m400.32 316.31l-311.57 -83.5 350.84 -94.03 -297.11 -79.62m426.37 280.21l-317.66 -56.02 341.31 -124.25 -302.92 -53.43m449.17 241.99l-321.34 -28.12 329.19 -153.53 -306.43 -26.82m468.55 201.92l-322.56 -0.01 314.55 -181.64 -307.6 -0.01m484.37 160.32l-321.34 28.1 297.52 -208.36 -306.43 26.8m496.5 117.49l-317.66 56 278.22 -233.5 -302.92 53.41m504.85 73.77l-311.57 83.47 256.81 -256.86 -297.12 79.61m509.36 29.49l-303.11 110.3 233.45 -278.26 -289.05 105.2m509.99 -15.01l-292.34 136.29 208.31 -297.54 -278.79 129.99m506.75 -59.4l-279.35 161.25 181.58 -314.56 -266.4 153.79m499.65 -103.34l-264.24 184.98 153.48 -329.19 -251.99 176.43m488.75 -146.5l-247.12 207.31 124.21 -341.32 -235.66 197.73m474.13 -188.54l-228.12 228.05 93.99 -350.84 -217.53 217.51m455.9 -229.14l-207.38 247.06 63.06 -357.69 -197.75 235.64m434.2 -268.01l-185.06 264.2 31.64 -361.83 -176.46 251.98m409.19 -304.83l-161.33 279.32 -0.01 -363.21 -153.83 266.4m381.06 -339.33l-136.37 292.32 -31.66 -361.83 -130.03 278.79m350.04 -371.25l-110.38 303.1 -63.07 -357.7 -105.24 289.07m316.35 -400.35l-83.54 311.57 -94.01 -350.85 -79.64 297.15m280.25 -426.4l-56.07 317.66 -124.23 -341.32 -53.44 302.96m242.03 -449.2l-28.18 321.34 -153.5 -329.2 -26.83 306.47m201.96 -468.59l-0.07 322.58 -181.61 -314.57 -0.02 307.64m160.36 -484.41l28.04 321.36 -208.33 -297.54 26.79 306.47m117.53 -496.55l55.94 317.7 -233.47 -278.25 53.4 302.97m73.81 -504.91l83.41 311.62 -256.83 -256.85 79.6 297.17m29.52 -509.42l110.26 303.16 -278.24 -233.49 105.2 289.1m-15 -510.05l136.27 292.4 -297.53 -208.36 129.99 278.84m-59.39 -506.81l161.23 279.41 -314.56 -181.63 153.8 266.45m-103.33 -499.71l184.96 264.3 -329.19 -153.53 176.44 252.04m-146.49 -488.81l207.29 247.18 -341.32 -124.26 197.74 235.71m-188.54 -474.19l228.05 228.18 -350.85 -94.04 217.53 217.58m-229.15 -455.96l247.07 207.44 -357.72 -63.11 235.67 197.8m-268.02 -434.26l264.21 185.12 -361.86 -31.69 252.02 176.51m-304.85 -409.25l279.34 161.39 -363.25 -0.03 266.45 153.87m-339.36 -381.12l292.34 136.43 -361.87 31.62 278.85 130.07m-371.29 -350.1l303.12 110.44 -357.74 63.03 289.13 105.28m-400.39 -316.41l311.59 83.6 -350.89 93.97 297.21 79.68m-426.44 -280.31l317.69 56.12 -341.37 124.2 303.03 53.47m-449.25 -242.07l321.37 28.21 -329.25 153.48 306.54 26.86m-468.64 -202l322.61 0.1 -314.62 181.59 307.71 0.04m-484.46 -160.39l321.39 -28.01 -297.59 208.32 306.54 -26.78m-496.6 -117.56l317.73 -55.91 -278.3 233.46 303.04 -53.39m-504.96 -73.84l311.65 -83.38 -256.9 256.82 297.24 -79.6m-509.48 -29.54l303.2 -110.23 -233.54 278.23 289.17 -105.2m-510.11 14.98l292.44 -136.24 -208.41 297.53 278.91 -130.01"/>
  <path class="fil0 str3" d="M2050 192.46c1025.88,0 1857.54,831.66 1857.54,1857.54 0,1025.88 -831.66,1857.54 -1857.54,1857.54 -1025.89,0 -1857.55,-831.66 -1857.55,-1857.54 0,-1025.88 831.66,-1857.54 1857.55,-1857.54z"/>
  <path class="fil1 str0" d="M1338.93 626.92l9.7 -29.98c22.44,7.89 38.66,14.7 48.87,20.49 -2.68,-25.49 -4.13,-43.08 -4.27,-52.64l30.84 0c-0.43,13.98 -2.02,31.43 -4.92,52.43 14.56,-7.32 31.21,-14.12 49.97,-20.28l9.69 29.98c-17.88,5.94 -35.4,9.92 -52.63,11.87 8.61,7.46 20.7,20.86 36.34,40.05l-25.34 18.02c-8.18,-11.15 -17.88,-26.35 -29.03,-45.54 -10.5,19.91 -19.7,35.12 -27.59,45.54l-24.91 -18.02c16.29,-20.21 28.02,-33.53 35.04,-40.05 -18.17,-3.54 -35.4,-7.53 -51.76,-11.87z"/>
  <path class="fil1 str0" d="M2948.66 2901.54l9.7 -29.98c22.44,7.89 38.66,14.7 48.87,20.49 -2.68,-25.49 -4.13,-43.08 -4.27,-52.64l30.84 0c-0.43,13.98 -2.02,31.43 -4.92,52.43 14.56,-7.32 31.21,-14.12 49.97,-20.28l9.69 29.98c-17.88,5.94 -35.4,9.92 -52.63,11.87 8.61,7.46 20.7,20.86 36.34,40.05l-25.34 18.02c-8.18,-11.15 -17.88,-26.35 -29.03,-45.54 -10.5,19.91 -19.7,35.12 -27.59,45.54l-24.91 -18.02c16.29,-20.21 28.02,-33.53 35.04,-40.05 -18.17,-3.54 -35.4,-7.53 -51.76,-11.87z"/>
  <path class="fil1 str0" d="M1034.83 2901.54l9.7 -29.98c22.44,7.89 38.66,14.7 48.87,20.49 -2.68,-25.49 -4.13,-43.08 -4.27,-52.64l30.84 0c-0.43,13.98 -2.02,31.43 -4.92,52.43 14.56,-7.32 31.21,-14.12 49.97,-20.28l9.69 29.98c-17.88,5.94 -35.4,9.92 -52.63,11.87 8.61,7.46 20.7,20.86 36.34,40.05l-25.34 18.02c-8.18,-11.15 -17.88,-26.35 -29.03,-45.54 -10.5,19.91 -19.7,35.12 -27.59,45.54l-24.91 -18.02c16.29,-20.21 28.02,-33.53 35.04,-40.05 -18.17,-3.54 -35.4,-7.53 -51.76,-11.87z"/>
 </g>
</svg>
