<?xml version="1.0" encoding="UTF-8"?>
<!DOCTYPE svg PUBLIC "-//W3C//DTD SVG 1.1//EN" "http://www.w3.org/Graphics/SVG/1.1/DTD/svg11.dtd">
<!-- Creator: CorelDRAW 2019 (64-Bit) -->
<svg xmlns="http://www.w3.org/2000/svg" xml:space="preserve" width="41mm" height="41mm" version="1.1" style="shape-rendering:geometricPrecision; text-rendering:geometricPrecision; image-rendering:optimizeQuality; fill-rule:evenodd; clip-rule:evenodd"
viewBox="0 0 4100 4100"
 xmlns:xlink="http://www.w3.org/1999/xlink">
 <defs>
  <style type="text/css">
   <![CDATA[
    .str5 {stroke:#393185;stroke-width:50;stroke-miterlimit:22.9256}
    .str2 {stroke:#393185;stroke-width:25;stroke-miterlimit:22.9256}
    .str3 {stroke:#393185;stroke-width:20;stroke-miterlimit:22.9256}
    .str4 {stroke:#393185;stroke-width:15;stroke-miterlimit:22.9256}
    .str1 {stroke:#393185;stroke-width:28.01;stroke-miterlimit:22.9256}
    .str0 {stroke:#393185;stroke-width:7.62;stroke-miterlimit:22.9256}
    .str6 {stroke:#393185;stroke-width:50;stroke-miterlimit:22.9256;stroke-dasharray:50.000000 50.000000}
    .fil1 {fill:none}
    .fil3 {fill:none;fill-rule:nonzero}
    .fil0 {fill:#393185}
    .fil2 {fill:#393185;fill-rule:nonzero}
   ]]>
  </style>
 </defs>
 <g id="Слой_x0020_1">
  <metadata id="CorelCorpID_0Corel-Layer"/>
  <g id="_1269178304">
   <path class="fil0 str0" d="M2049.16 1411.77c-16.67,0 -30.21,-13.52 -30.21,-30.2 0,-16.68 13.52,-30.19 30.21,-30.19 16.68,0 30.21,13.51 30.21,30.19 0,16.68 -13.53,30.2 -30.21,30.2zm342.3 162.84l-59.5 0c-8.9,0 -15.2,-7.46 -15.5,-16.36 -0.46,-15.79 -13.4,-28.43 -29.33,-28.43l-92.68 0c-11.35,-6.72 -24.92,-15.92 -39.12,-28.1 -10.72,-9.21 -24.33,-14.47 -38.44,-14.47l-20.8 0c12.44,-17.2 20.21,-39.28 20.21,-58.1l0 -58.87c0,-32.47 -26.3,-58.79 -58.78,-58.79l-16.68 0c-32.48,0 -58.82,26.32 -58.82,58.79l0 58.87c0,18.82 7.77,40.9 20.25,58.1l-20.8 0c-14.11,0 -27.77,5.26 -38.44,14.47 -14.21,12.18 -27.82,21.38 -39.16,28.1l-92.69 0c-16.22,0 -29.33,13.13 -29.33,29.35l0.02 -0.01c0,8.54 -6.94,15.45 -15.47,15.45l-59.5 0c-20.21,0 -36.59,16.38 -36.59,36.58l0 23.24c0,18.51 15.04,33.54 33.53,33.54l40.93 0c13.73,0 26.79,-5.96 35.83,-16.37l51.22 -59.02c8.85,-10.22 21.72,-16.1 35.24,-16.1l104.96 0c3.61,25.35 19.2,46.6 41.05,58.04l0 484.57c-48.61,16.37 -84.45,64.89 -87.27,123.13l-91.63 -0.02c-18.03,0 -33.69,12.32 -37.99,29.82l-6.72 27.49 519.39 0 -6.72 -27.49c-4.24,-17.5 -19.95,-29.8 -37.97,-29.8l-91.61 -0.02c-2.85,-58.22 -38.69,-106.74 -87.26,-123.11l0 -484.57c21.81,-11.44 37.4,-32.69 41.01,-58.04l104.95 0c13.53,0 26.39,5.88 35.25,16.1l51.22 59.02c9.04,10.41 22.1,16.37 35.84,16.37l40.92 0c18.54,0 33.53,-15.03 33.53,-33.54l0 -23.24c0,-20.2 -16.38,-36.58 -36.55,-36.58z"/>
   <path class="fil0 str0" d="M1923.62 1966.98c0,80.72 -88.07,146.16 -196.72,146.16 -108.65,0 -196.72,-65.44 -196.72,-146.16l393.44 0z"/>
   <polyline class="fil1 str1" points="1577.62,1988.63 1727.4,1635.5 1876.17,1988.63 "/>
   <path class="fil0 str0" d="M2568.13 1966.98c0,80.72 -88.06,146.16 -196.71,146.16 -108.61,0 -196.68,-65.44 -196.68,-146.16l393.39 0z"/>
   <polyline class="fil1 str1" points="2222.14,1988.63 2371.92,1635.5 2520.74,1988.63 "/>
   <path class="fil0 str0" d="M2050 2788.51l22.48 -24.01c86.89,-88.34 377.26,-244.87 685.98,-224.34l25.55 1.7 175.58 -730.81 -205.96 0 0 60.7 128.95 0 -145.72 606.5c-217.13,-8.3 -414.31,60.77 -549.05,133.25 102.23,-89.21 269.78,-174.24 487.59,-174.24l30.34 0 0 -781.12 -193.36 69.78 0 57.42 132.68 -42.18 0 635.94c-308.56,10.34 -516.79,176.86 -595.06,300.33 -78.27,-123.47 -286.5,-289.99 -595.03,-300.33l0.01 -635.94 132.64 42.18 0 -57.42 -193.36 -69.78 0 781.12 30.34 0c217.81,0 385.36,85.03 487.59,174.24 -134.7,-72.48 -331.88,-141.54 -549.06,-133.25l-145.71 -606.5 128.95 0 0 -60.7 -205.96 0 175.58 730.81 25.55 -1.7c308.72,-20.53 599.09,136 685.98,224.34l22.48 24.01z"/>
  </g>
  <path class="fil0 str2" d="M2050 50c-1104.56,0 -2000,895.44 -2000,2000.02 0,1104.56 895.44,1999.98 2000,1999.98 1104.6,0 2000,-895.42 2000,-1999.98 0,-1104.58 -895.4,-2000.01 -2000,-2000.01l0 -0.01zm0 33.02c1084.62,0 1967,882.38 1967,1967 0,1084.6 -882.38,1966.98 -1967,1966.98 -1084.59,0 -1966.98,-882.38 -1966.98,-1966.98 0,-1084.62 882.39,-1967 1966.98,-1967z"/>
  <path class="fil0 str0" d="M2051.35 656.74c-653.15,0 -1202.71,447.06 -1364.85,1054.43l28.62 0c161.79,-591.27 699.52,-1026.74 1336.23,-1026.74 636.69,0 1174.44,435.47 1336.23,1026.74l28.61 0c-162.13,-607.37 -711.7,-1054.42 -1364.84,-1054.42l0 -0.01z"/>
  <g id="_1344754096">
   <path class="fil2" d="M2050 3076.66l0 -46.38 0 0 45.29 -0.98 44.76 -2.9 44.2 -4.8 43.6 -6.63 42.95 -8.44 42.26 -10.2 41.56 -11.93 40.76 -13.6 39.97 -15.24 39.12 -16.84 38.22 -18.4 37.3 -19.91 36.31 -21.39 35.29 -22.82 34.24 -24.21 33.12 -25.57 31.99 -26.86 30.78 -28.14 29.55 -29.37 28.29 -30.55 26.97 -31.7 25.6 -32.79 24.2 -33.86 22.76 -34.88 21.27 -35.85 19.74 -36.79 18.17 -37.68 16.55 -38.54 14.91 -39.35 13.2 -40.12 11.47 -40.85 9.68 -41.55 46.56 9.3 -10.14 43.51 -12.01 42.81 -13.84 42.04 -15.61 41.21 -17.35 40.38 -19.03 39.48 -20.68 38.53 -22.27 37.55 -23.84 36.52 -25.34 35.46 -26.82 34.35 -28.23 33.18 -29.61 31.99 -30.95 30.75 -32.24 29.46 -33.49 28.14 -34.68 26.77 -35.84 25.35 -36.97 23.9 -38.03 22.39 -39.06 20.87 -40.04 19.26 -40.98 17.64 -41.87 15.98 -42.72 14.24 -43.52 12.49 -44.28 10.7 -45.01 8.84 -45.66 6.95 -46.28 5.02 -46.86 3.04 -47.39 1.02 0 0zm-1030.64 -819.82l46.56 -9.3 9.68 41.55 11.47 40.85 13.2 40.12 14.91 39.35 16.55 38.54 18.17 37.68 19.74 36.79 21.27 35.85 22.76 34.88 24.2 33.86 25.6 32.79 26.97 31.7 28.29 30.55 29.55 29.37 30.78 28.14 31.99 26.86 33.12 25.57 34.24 24.21 35.29 22.82 36.31 21.39 37.3 19.91 38.22 18.4 39.12 16.84 39.97 15.24 40.76 13.6 41.56 11.93 42.26 10.2 42.95 8.44 43.6 6.63 44.2 4.8 44.76 2.9 45.29 0.98 0 46.38 -47.39 -1.02 -46.86 -3.04 -46.28 -5.02 -45.66 -6.95 -45.01 -8.84 -44.28 -10.7 -43.52 -12.49 -42.72 -14.24 -41.87 -15.98 -40.98 -17.64 -40.04 -19.26 -39.06 -20.87 -38.03 -22.39 -36.97 -23.9 -35.84 -25.35 -34.68 -26.77 -33.49 -28.14 -32.24 -29.46 -30.95 -30.75 -29.61 -31.99 -28.23 -33.18 -26.82 -34.35 -25.34 -35.46 -23.84 -36.52 -22.27 -37.55 -20.68 -38.53 -19.03 -39.48 -17.35 -40.38 -15.61 -41.21 -13.84 -42.04 -12.01 -42.81 -10.14 -43.51zm1030.64 -1233.5l0 46.38 0 0 -45.29 0.98 -44.76 2.9 -44.2 4.8 -43.6 6.63 -42.94 8.44 -42.27 10.2 -41.55 11.93 -40.77 13.6 -39.97 15.24 -39.11 16.84 -38.23 18.4 -37.29 19.9 -36.31 21.4 -35.29 22.81 -34.24 24.22 -33.13 25.56 -31.97 26.87 -30.79 28.14 -29.56 29.37 -28.28 30.55 -26.97 31.7 -25.6 32.79 -24.21 33.86 -22.75 34.88 -21.28 35.85 -19.74 36.79 -18.17 37.68 -16.55 38.53 -14.91 39.36 -13.2 40.12 -11.47 40.85 -9.68 41.55 -46.56 -9.3 10.14 -43.51 12.01 -42.81 13.84 -42.04 15.61 -41.22 17.35 -40.37 19.03 -39.48 20.68 -38.53 22.28 -37.55 23.83 -36.52 25.35 -35.46 26.82 -34.35 28.23 -33.18 29.6 -31.99 30.96 -30.75 32.23 -29.46 33.49 -28.15 34.69 -26.76 35.84 -25.36 36.97 -23.89 38.03 -22.4 39.05 -20.86 40.05 -19.26 40.97 -17.64 41.87 -15.98 42.73 -14.24 43.51 -12.49 44.29 -10.7 45 -8.84 45.66 -6.95 46.28 -5.02 46.86 -3.04 47.39 -1.02 0 0zm1030.64 819.82l-46.56 9.3 -9.68 -41.55 -11.47 -40.85 -13.2 -40.12 -14.91 -39.35 -16.55 -38.54 -18.17 -37.68 -19.74 -36.79 -21.28 -35.85 -22.75 -34.88 -24.21 -33.86 -25.6 -32.79 -26.97 -31.7 -28.28 -30.55 -29.56 -29.37 -30.79 -28.14 -31.97 -26.86 -33.13 -25.57 -34.24 -24.21 -35.29 -22.82 -36.31 -21.39 -37.29 -19.91 -38.23 -18.4 -39.11 -16.84 -39.97 -15.24 -40.77 -13.6 -41.55 -11.93 -42.27 -10.2 -42.94 -8.44 -43.6 -6.63 -44.2 -4.8 -44.76 -2.9 -45.29 -0.98 0 -46.38 47.39 1.02 46.86 3.04 46.28 5.02 45.66 6.95 45 8.84 44.29 10.7 43.51 12.49 42.73 14.24 41.87 15.98 40.97 17.64 40.05 19.26 39.05 20.87 38.03 22.39 36.97 23.9 35.84 25.35 34.69 26.77 33.49 28.14 32.23 29.46 30.96 30.75 29.6 31.99 28.23 33.18 26.82 34.35 25.35 35.46 23.83 36.52 22.28 37.55 20.68 38.53 19.03 39.48 17.35 40.38 15.61 41.21 13.84 42.04 12.01 42.81 10.14 43.51z"/>
  </g>
  <path class="fil3" d="M2069.54 394.17c946.73,0 1714.19,746.06 1714.19,1666.36 0,920.3 -767.46,1666.35 -1714.19,1666.35 -946.73,0 -1714.19,-746.05 -1714.19,-1666.35 0,-920.3 767.46,-1666.36 1714.19,-1666.36z"/>
  <path class="fil3" d="M2050 834.86c690.37,0 1250.02,544.04 1250.02,1215.14 0,671.1 -559.65,1215.14 -1250.02,1215.14 -690.37,0 -1250.02,-544.04 -1250.02,-1215.14 0,-671.1 559.65,-1215.14 1250.02,-1215.14z"/>
  <path class="fil2 str3" d="M299.83 1655.6l11.1 -24.2c19.82,9.14 33.86,21.59 42.23,37.37 8.37,15.78 10.74,33.61 7.06,53.52 -3.8,20.57 -11.08,36.54 -21.88,47.9 -10.76,11.37 -24.73,18.92 -41.87,22.71 -17.18,3.77 -34.86,4.01 -53.12,0.63 -19.9,-3.67 -36.57,-10.66 -49.99,-21.02 -13.42,-10.35 -22.7,-23.25 -27.8,-38.7 -5.11,-15.45 -6.09,-31.62 -2.98,-48.44 3.54,-19.16 11.36,-34.33 23.52,-45.54 12.15,-11.23 27.5,-17.8 46.09,-19.66l1.28 25.93c-14.7,1.84 -26.05,6.43 -33.93,13.68 -7.92,7.24 -13.04,17.25 -15.4,30.03 -2.71,14.65 -1.46,27.59 3.76,38.73 5.22,11.14 13.42,19.83 24.53,26 11.15,6.19 23.02,10.46 35.63,12.79 16.24,3 30.89,3.27 43.88,0.79 13.02,-2.48 23.42,-8.16 31.28,-17.02 7.85,-8.87 12.82,-19.09 14.97,-30.72 2.61,-14.16 0.73,-26.84 -5.61,-38.15 -6.39,-11.31 -17.27,-20.18 -32.75,-26.63zm-41.37 -120.93l18.12 -51.96c4.44,-12.74 8.82,-21.86 13.13,-27.36 4.31,-5.45 10.06,-9.44 17.3,-11.91 7.29,-2.48 14.87,-2.34 22.82,0.43 6.37,2.23 11.47,5.5 15.26,9.74 3.82,4.31 6.43,9.63 7.74,16.04 4.28,-5.51 9.97,-9.33 17.14,-11.48 7.13,-2.12 14.64,-1.8 22.46,0.93 12.33,5.21 20.11,13.01 23.34,23.28 3.26,10.3 2.16,23.25 -3.27,38.82l-20.9 59.9 -133.14 -46.43zm64.05 -2.99l8.36 -23.94c3.32,-9.54 5.11,-16.3 5.36,-20.19 0.23,-3.95 -0.67,-7.86 -2.76,-11.76 -2.06,-3.88 -5.24,-6.57 -9.52,-8.06 -7.05,-2.46 -12.78,-1.69 -17.28,2.26 -4.51,3.99 -8.83,11.98 -13.01,23.96l-8.6 24.67 37.45 13.06zm58.5 20.4l10.33 -29.63c4.45,-12.74 6,-22.03 4.71,-27.81 -1.34,-5.78 -5.56,-10.04 -12.78,-12.84 -4.24,-1.48 -8.69,-1.5 -13.28,-0.03 -4.61,1.51 -8.16,4.29 -10.64,8.37 -2.52,4.06 -5.47,11 -8.87,20.74l-9.5 27.24 40.03 13.96zm-82.07 -202.51l-25.18 -10.22 8.99 -22.15 25.18 10.22 -8.99 22.15zm155.08 62.94l-130.66 -53.03 8.99 -22.15 130.66 53.02 -8.99 22.16zm-76.38 -169.38l45.74 -87.07 107.52 56.48 7.08 -13.47 52.67 27.67 -9.09 17.32 -35.36 -18.58 -51.68 98.38 35.35 18.58 -9.09 17.31 -52.68 -27.67 5.82 -11.06c-12.42,-25.55 -44.51,-51.51 -96.28,-77.89zm26.78 -8.33c39.71,22.85 66.42,44.86 80.11,66.02l35.26 -67.12 -89.97 -47.26 -25.4 48.36zm121.01 -113.86c-21.01,-15.37 -32.31,-32.6 -33.85,-51.75 -1.26,-15.9 3.28,-30.93 13.57,-45 11.42,-15.61 25.88,-24.65 43.39,-27.1 17.44,-2.45 35.23,2.93 53.24,16.11 14.62,10.69 24.49,21.27 29.65,31.78 5.17,10.51 6.99,21.67 5.48,33.47 -1.47,11.77 -5.88,22.63 -13.13,32.53 -11.65,15.93 -26.15,25.08 -43.53,27.45 -17.39,2.38 -35.67,-3.48 -54.82,-17.49zm14.47 -19.7c14.55,10.64 27.77,15.43 39.62,14.33 11.91,-1.1 21.39,-6.45 28.48,-16.14 7,-9.57 9.21,-20.2 6.61,-31.91 -2.62,-11.68 -11.37,-22.96 -26.24,-33.84 -14.04,-10.27 -27.03,-14.83 -38.9,-13.7 -11.91,1.1 -21.37,6.42 -28.32,15.92 -7.08,9.69 -9.36,20.31 -6.83,31.97 2.54,11.63 11.07,22.75 25.58,33.37zm53.32 -190.2l15.91 -17.85 90.68 80.79 44.1 -49.51 -90.68 -80.79 15.91 -17.85 90.68 80.79 10.3 -11.56 44.42 39.59 -13.01 14.6 -29.82 -26.57 -73.2 82.16 -105.29 -93.8zm129.45 -141.4l83.64 -77.64 13.49 14.53 -33.05 30.69 82.44 88.81 -17.52 16.26 -82.45 -88.81 -33.06 30.7 -13.49 -14.54zm138.41 -123.84l43.67 -33.46c10.72,-8.21 19.38,-13.43 26.01,-15.65 6.59,-2.2 13.59,-2.37 20.99,-0.45 7.46,1.93 13.71,6.21 18.84,12.89 4.1,5.36 6.56,10.89 7.4,16.52 0.82,5.7 0.09,11.58 -2.34,17.65 6.6,-2.25 13.46,-2.31 20.63,-0.17 7.12,2.14 13.22,6.53 18.25,13.11 7.45,11.12 9.67,21.92 6.72,32.28 -2.93,10.39 -10.97,20.61 -24.06,30.63l-50.36 38.59 -85.75 -111.94zm55.16 32.69l20.13 -15.42c8.02,-6.14 13.23,-10.81 15.58,-13.92 2.35,-3.18 3.76,-6.94 4.15,-11.35 0.41,-4.37 -0.77,-8.36 -3.53,-11.96 -4.54,-5.93 -9.76,-8.43 -15.69,-7.61 -5.95,0.86 -13.95,5.17 -24.02,12.88l-20.74 15.89 24.12 31.49zm37.68 49.18l24.91 -19.09c10.71,-8.21 17.11,-15.11 19.21,-20.65 2.06,-5.57 0.87,-11.45 -3.63,-17.75 -2.73,-3.57 -6.44,-6.03 -11.08,-7.32 -4.68,-1.27 -9.18,-0.89 -13.49,1.15 -4.33,2.01 -10.61,6.19 -18.8,12.46l-22.9 17.55 25.78 33.65zm90.54 -129.46c-13.79,-22.08 -17.87,-42.28 -12.18,-60.62 4.74,-15.24 14.54,-27.5 29.32,-36.74 16.4,-10.24 33.2,-13.26 50.36,-9.03 17.1,4.21 31.61,15.82 43.44,34.75 9.59,15.36 14.83,28.85 15.71,40.53 0.88,11.67 -1.57,22.71 -7.35,33.1 -5.75,10.38 -13.88,18.82 -24.29,25.32 -16.74,10.46 -33.6,13.56 -50.62,9.3 -17.03,-4.25 -31.82,-16.49 -44.39,-36.61zm20.77 -12.91c9.54,15.28 20.04,24.64 31.45,28.03 11.46,3.41 22.25,1.96 32.43,-4.4 10.06,-6.28 16.06,-15.33 18,-27.16 1.91,-11.82 -2.01,-25.54 -11.78,-41.17 -9.21,-14.75 -19.58,-23.82 -31.02,-27.19 -11.46,-3.4 -22.22,-1.97 -32.21,4.26 -10.17,6.36 -16.23,15.38 -18.23,27.14 -1.95,11.74 1.83,25.24 11.36,40.49zm198.28 -189.41l101.97 -44.84 56.77 129.08 -21.89 9.62 -48.78 -110.93 -58.2 25.6 48.78 110.93 -21.89 9.62 -56.76 -129.08zm243.12 112.65l-60.96 -185.31 20.65 -6.79 5.79 17.59c2.63,-8.4 6.44,-15.32 11.48,-20.75 4.99,-5.41 11.86,-9.57 20.59,-12.45 11.45,-3.76 22.48,-4.15 33.15,-1.13 10.65,2.98 19.97,9.12 27.95,18.31 7.95,9.26 14.04,20.22 18.24,32.99 4.49,13.65 6.09,26.75 4.78,39.34 -1.3,12.54 -5.69,23.27 -13.14,32.21 -7.42,8.87 -16.31,15.04 -26.63,18.44 -7.57,2.49 -14.9,3.13 -21.92,1.91 -7.07,-1.2 -13.29,-3.59 -18.76,-7.18l21.49 65.35 -22.71 7.47zm-18.01 -124.32c5.65,17.17 13.31,28.71 22.94,34.65 9.66,5.93 19.46,7.28 29.34,4.03 10.07,-3.31 17.28,-10.41 21.61,-21.26 4.39,-10.89 3.62,-25.23 -2.25,-43.08 -5.6,-17.03 -13.27,-28.62 -23.07,-34.79 -9.81,-6.17 -19.53,-7.63 -29.26,-4.43 -9.63,3.17 -16.66,10.48 -21.1,21.91 -4.48,11.47 -3.87,25.77 1.79,42.97zm159.12 -48.05c-4.48,-25.64 -0.67,-45.89 11.5,-60.76 10.12,-12.33 23.81,-20.01 40.98,-23.01 19.05,-3.33 35.74,0.19 50.06,10.56 14.26,10.33 23.35,26.54 27.19,48.52 3.12,17.84 2.89,32.32 -0.68,43.47 -3.56,11.15 -9.99,20.45 -19.25,27.91 -9.23,7.46 -19.94,12.22 -32.03,14.33 -19.44,3.4 -36.23,-0.06 -50.4,-10.41 -14.18,-10.34 -23.28,-27.24 -27.37,-50.61zm24.1 -4.16c3.1,17.75 9.3,30.37 18.6,37.8 9.34,7.47 19.89,10.18 31.71,8.12 11.68,-2.04 20.64,-8.17 26.89,-18.41 6.21,-10.23 7.73,-24.42 4.56,-42.58 -2.99,-17.13 -9.19,-29.42 -18.53,-36.85 -9.34,-7.46 -19.84,-10.18 -31.44,-8.16 -11.82,2.07 -20.83,8.15 -27.09,18.3 -6.23,10.14 -7.8,24.07 -4.7,41.78zm254.68 -108.48l111.37 -2.84 3.59 140.97 -23.9 0.61 -3.09 -121.15 -63.56 1.62 3.09 121.14 -23.91 0.61 -3.59 -140.96zm182.28 190.17l14.4 -194.55 21.68 1.6 -1.36 18.47c5.63,-6.76 11.8,-11.7 18.53,-14.79 6.67,-3.09 14.62,-4.32 23.78,-3.64 12.02,0.89 22.36,4.74 31.07,11.6 8.71,6.82 14.98,16.05 18.84,27.6 3.82,11.59 5.26,24.04 4.27,37.46 -1.06,14.32 -4.59,27.04 -10.6,38.18 -5.99,11.09 -14.14,19.34 -24.44,24.75 -10.25,5.37 -20.82,7.68 -31.66,6.87 -7.94,-0.59 -14.96,-2.79 -20.99,-6.6 -6.07,-3.8 -10.91,-8.38 -14.6,-13.79l-5.08 68.6 -23.84 -1.76zm30.81 -121.78c-1.33,18.02 1.34,31.61 7.97,40.78 6.68,9.17 15.21,14.16 25.59,14.93 10.57,0.78 19.94,-3.03 28.09,-11.41 8.21,-8.39 12.98,-21.93 14.36,-40.67 1.33,-17.88 -1.33,-31.51 -8.03,-40.96 -6.72,-9.45 -15.14,-14.51 -25.36,-15.27 -10.11,-0.75 -19.39,3.33 -27.86,12.2 -8.52,8.89 -13.42,22.34 -14.76,40.4zm253.06 80.59c-10.04,5.93 -19.38,9.69 -27.98,11.36 -8.62,1.68 -17.53,1.7 -26.81,0.09 -15.27,-2.65 -26.36,-8.39 -33.27,-17.26 -6.93,-8.83 -9.39,-19.04 -7.38,-30.6 1.17,-6.79 3.82,-12.72 7.87,-17.81 4.09,-5.07 8.93,-8.83 14.51,-11.35 5.63,-2.52 11.71,-4.13 18.3,-4.79 4.85,-0.4 12.05,-0.34 21.57,0.12 19.4,1.06 33.93,0.78 43.44,-0.79 0.64,-3.19 1.05,-5.24 1.2,-6.08 1.65,-9.55 0.58,-16.68 -3.2,-21.38 -5.1,-6.36 -13.61,-10.54 -25.48,-12.6 -11.1,-1.93 -19.65,-1.38 -25.6,1.59 -5.98,2.95 -11.05,9.15 -15.31,18.61l-22.46 -7.2c3.81,-9.5 8.62,-16.89 14.49,-22.12 5.87,-5.23 13.64,-8.67 23.32,-10.39 9.62,-1.69 20.48,-1.5 32.44,0.57 11.86,2.06 21.31,5.12 28.27,9.23 6.92,4.09 11.8,8.52 14.55,13.36 2.74,4.84 4.26,10.63 4.57,17.34 0.06,4.15 -0.79,11.45 -2.59,21.85l-5.42 31.23c-3.78,21.82 -5.68,35.69 -5.72,41.7 -0.08,6.01 0.93,11.93 2.85,17.78l-24.63 -4.27c-1.5,-5.37 -2.01,-11.43 -1.53,-18.19zm7.18 -52.53c-9.17,1.99 -22.53,2.71 -40.08,2.14 -9.97,-0.3 -17.11,0.07 -21.43,1.12 -4.31,1.03 -7.84,3.05 -10.6,5.97 -2.76,2.96 -4.52,6.48 -5.23,10.58 -1.08,6.2 0.38,11.83 4.44,16.81 4.05,4.98 10.65,8.28 19.8,9.87 9.05,1.57 17.47,1.01 25.25,-1.73 7.73,-2.71 13.89,-7.2 18.37,-13.45 3.46,-4.87 6.07,-12.47 7.86,-22.77l1.62 -8.54zm120.19 -47.97l53.03 14.68c13.01,3.6 22.4,7.37 28.16,11.31 5.73,3.94 10.09,9.42 13.02,16.48 2.96,7.12 3.31,14.68 1.07,22.8 -1.8,6.5 -4.73,11.81 -8.72,15.87 -4.05,4.09 -9.19,7.04 -15.5,8.77 5.78,3.91 9.97,9.34 12.58,16.35 2.58,6.97 2.75,14.49 0.55,22.47 -4.4,12.65 -11.67,20.93 -21.71,24.82 -10.06,3.93 -23.06,3.67 -38.95,-0.73l-61.14 -16.92 37.61 -135.9zm7.18 63.72l24.44 6.77c9.73,2.69 16.59,4.03 20.49,4.03 3.96,-0.04 7.8,-1.18 11.55,-3.53 3.74,-2.3 6.22,-5.65 7.43,-10.02 1.99,-7.2 0.84,-12.87 -3.39,-17.1 -4.28,-4.24 -12.54,-8.03 -24.76,-11.41l-25.18 -6.97 -10.58 38.23zm-16.53 59.71l30.24 8.37c13.02,3.6 22.38,4.54 28.06,2.88 5.69,-1.72 9.66,-6.21 11.98,-13.6 1.2,-4.33 0.93,-8.77 -0.84,-13.25 -1.81,-4.5 -4.82,-7.86 -9.05,-10.07 -4.22,-2.25 -11.33,-4.74 -21.28,-7.49l-27.8 -7.7 -11.31 40.86zm158.52 -7.37c9.34,-24.3 23.02,-39.7 41.1,-46.2 15.02,-5.37 30.71,-4.92 46.98,1.33 18.05,6.95 30.56,18.55 37.51,34.81 6.92,16.19 6.38,34.76 -1.63,55.59 -6.5,16.91 -14.14,29.21 -22.94,36.93 -8.79,7.73 -19.08,12.41 -30.86,14.04 -11.75,1.65 -23.38,0.23 -34.84,-4.17 -18.42,-7.09 -31.04,-18.69 -37.87,-34.85 -6.85,-16.16 -5.97,-35.33 2.55,-57.48zm22.8 8.82c-6.46,16.82 -7.63,30.83 -3.48,41.99 4.18,11.2 11.82,18.96 23.02,23.26 11.07,4.26 21.91,3.62 32.53,-1.95 10.59,-5.58 19.19,-16.97 25.81,-34.18 6.24,-16.23 7.25,-29.96 3.06,-41.13 -4.18,-11.21 -11.79,-18.94 -22.77,-23.17 -11.2,-4.3 -22.06,-3.72 -32.65,1.76 -10.56,5.5 -19.06,16.64 -25.52,33.42zm271.45 41.91l20.88 11.65 -28.59 51.24 57.9 32.3 28.59 -51.24 20.88 11.65 -68.71 123.14 -20.88 -11.65 30.45 -54.57 -57.89 -32.3 -30.45 54.57 -20.88 -11.65 68.7 -123.14zm176.53 255.71c-11.6,1.16 -21.66,0.63 -30.16,-1.47 -8.53,-2.1 -16.62,-5.83 -24.36,-11.2 -12.73,-8.83 -20.38,-18.7 -22.91,-29.66 -2.57,-10.93 -0.5,-21.23 6.18,-30.87 3.93,-5.66 8.82,-9.92 14.64,-12.84 5.85,-2.87 11.82,-4.25 17.94,-4.19 6.17,0.09 12.36,1.18 18.61,3.36 4.57,1.68 11.08,4.77 19.53,9.19 17.14,9.13 30.44,14.99 39.73,17.57 1.93,-2.63 3.15,-4.31 3.64,-5.01 5.52,-7.97 7.56,-14.88 6.11,-20.74 -1.95,-7.91 -7.91,-15.29 -17.81,-22.16 -9.27,-6.42 -17.25,-9.52 -23.89,-9.33 -6.67,0.16 -13.89,3.65 -21.73,10.44l-17.34 -15.99c7.45,-7.01 14.93,-11.69 22.45,-13.96 7.53,-2.28 16.03,-2.12 25.53,0.39 9.44,2.51 19.21,7.26 29.18,14.17 9.9,6.86 17.18,13.61 21.76,20.27 4.56,6.63 7.13,12.7 7.58,18.25 0.45,5.54 -0.61,11.43 -3.15,17.65 -1.69,3.79 -5.54,10.06 -11.55,18.73l-18.06 26.05c-12.61,18.19 -20.17,29.98 -22.74,35.41 -2.6,5.43 -4.18,11.22 -4.9,17.33l-20.54 -14.24c0.89,-5.5 2.98,-11.21 6.26,-17.15zm28.63 -44.62c-9.16,-2.06 -21.58,-7.03 -37.26,-14.93 -8.92,-4.47 -15.55,-7.14 -19.91,-8.01 -4.35,-0.87 -8.39,-0.53 -12.13,0.96 -3.75,1.52 -6.82,3.97 -9.2,7.4 -3.58,5.17 -4.63,10.89 -3.04,17.11 1.58,6.22 6.17,12 13.8,17.29 7.55,5.23 15.42,8.27 23.64,9.06 8.15,0.79 15.62,-0.69 22.32,-4.47 5.19,-2.96 10.75,-8.75 16.71,-17.35l5.07 -7.06zm160.1 143.65l12.76 -13.75c7.43,6.78 12.74,11.16 15.86,13.13 3.18,1.96 7.16,2.81 11.95,2.44 4.8,-0.38 8.98,-2.48 12.58,-6.37 4.34,-4.67 6.29,-9.9 5.73,-15.62 -0.53,-5.75 -3.28,-10.9 -8.29,-15.55 -9.86,-9.15 -22.13,-9.79 -36.8,-1.9l-14.14 -18.31c23.05,-14.45 44.53,-12.43 64.38,6 11.01,10.22 16.87,21.22 17.57,33.05 0.69,11.83 -2.85,21.9 -10.57,30.22 -7.8,8.4 -18.11,11.32 -30.83,8.72 2.63,7.62 3.21,14.77 1.83,21.52 -1.42,6.72 -4.87,13.03 -10.35,18.94 -8.6,9.26 -18.95,13.61 -31.04,13.14 -12.14,-0.51 -24.24,-6.38 -36.39,-17.65 -23.57,-21.88 -27.56,-44.99 -11.96,-69.32l19.85 11.76c-4.61,7.96 -6.33,15.87 -5.11,23.75 1.23,7.86 4.77,14.49 10.68,19.98 5.9,5.48 12.36,8.38 19.38,8.66 7.01,0.32 12.9,-2.11 17.71,-7.29 3.73,-4.01 5.73,-8.64 6.05,-13.91 0.32,-5.26 -0.58,-9.56 -2.69,-12.87 -2.07,-3.35 -6.78,-8.41 -14.08,-15.18 -0.59,-0.55 -1.96,-1.75 -4.08,-3.59zm121.43 195.46c-11.55,-1.59 -21.21,-4.44 -28.99,-8.47 -7.8,-4.03 -14.79,-9.56 -21.07,-16.58 -10.32,-11.55 -15.45,-22.94 -15.36,-34.19 0.06,-11.22 4.48,-20.75 13.23,-28.57 5.13,-4.59 10.88,-7.59 17.22,-9.07 6.36,-1.43 12.49,-1.37 18.43,0.12 5.98,1.52 11.74,4.03 17.31,7.61 4.05,2.7 9.67,7.22 16.84,13.49 14.54,12.88 26.11,21.68 34.53,26.36 2.49,-2.1 4.08,-3.45 4.72,-4.03 7.23,-6.45 10.82,-12.7 10.77,-18.74 -0.05,-8.14 -4.12,-16.71 -12.14,-25.7 -7.51,-8.4 -14.55,-13.28 -21.05,-14.65 -6.52,-1.4 -14.35,0.31 -23.57,5.08l-13.13 -19.6c8.89,-5.07 17.25,-7.87 25.1,-8.33 7.85,-0.46 16.07,1.68 24.73,6.34 8.59,4.65 16.98,11.54 25.07,20.59 8.02,8.98 13.52,17.25 16.42,24.79 2.89,7.51 3.96,14.02 3.11,19.51 -0.86,5.5 -3.26,10.98 -7.18,16.43 -2.53,3.29 -7.74,8.49 -15.6,15.52l-23.65 21.11c-16.51,14.75 -26.61,24.44 -30.38,29.13 -3.79,4.66 -6.68,9.93 -8.81,15.7l-16.64 -18.64c2.15,-5.14 5.51,-10.21 10.09,-15.21zm38.25 -36.71c-8.43,-4.13 -19.34,-11.87 -32.75,-23.21 -7.62,-6.43 -13.44,-10.57 -17.48,-12.44 -4.03,-1.86 -8.04,-2.47 -12.02,-1.89 -4.01,0.6 -7.56,2.26 -10.68,5.04 -4.69,4.19 -7.04,9.51 -6.95,15.93 0.08,6.41 3.2,13.11 9.39,20.03 6.12,6.85 13.06,11.64 20.87,14.33 7.73,2.67 15.35,2.98 22.74,0.87 5.74,-1.67 12.5,-6.01 20.31,-12.97l6.57 -5.69zm124.92 45.44l13.12 19.98 -49.04 32.22 36.41 55.41 49.04 -32.22 13.13 19.98 -117.85 77.43 -13.13 -19.98 52.23 -34.31 -36.41 -55.42 -52.23 34.32 -13.12 -19.98 117.85 -77.43zm159.08 266.01l-124.74 65.75 -11.15 -21.15 48.55 -25.59 -6.42 -12.18c-3.91,-7.41 -7.77,-12.43 -11.66,-15.05 -3.89,-2.61 -12.83,-4.7 -26.9,-6.24l-36.96 -4.28 -13.8 -26.19 45.52 5.17c13.93,1.57 23.37,5.5 28.34,11.73 -4.71,-12.92 -5.07,-24.19 -1.1,-33.76 3.97,-9.56 10.56,-16.78 19.73,-21.61 10.86,-5.72 21.64,-6.54 32.4,-2.44 10.8,4.08 20.02,13.42 27.66,27.91l30.53 57.93zm-28.69 -11.9l-15.84 -30.05c-6.63,-12.58 -12.88,-19.68 -18.73,-21.25 -5.85,-1.58 -11.4,-0.96 -16.65,1.81 -7.45,3.93 -11.52,9.51 -12.17,16.71 -0.68,7.17 2.56,17.59 9.74,31.21l12.31 23.35 41.34 -21.78zm59.86 77.86l42.97 105.72 -18.37 7.47 -16.98 -41.78 -112.26 45.63 -9.01 -22.15 112.26 -45.63 -16.99 -41.79 18.38 -7.47zm63.41 162.53l31.88 109.57 -19.04 5.54 -12.6 -43.3 -116.35 33.85 -6.68 -22.96 116.35 -33.85 -12.6 -43.31 19.04 -5.54zm69.52 289.21l-138.66 25.61 -4.35 -23.51 53.97 -9.97 -2.5 -13.54c-1.53,-8.24 -3.72,-14.18 -6.65,-17.84 -2.94,-3.65 -10.84,-8.31 -23.82,-13.97l-34.01 -15.09 -5.37 -29.12 41.91 18.51c12.83,5.64 20.68,12.2 23.56,19.63 -0.64,-13.74 2.37,-24.61 9.01,-32.55 6.64,-7.95 15.07,-12.88 25.27,-14.76 12.06,-2.23 22.6,0.2 31.66,7.32 9.09,7.12 15.11,18.77 18.08,34.89l11.9 64.39zm-23.84 -19.91l-6.17 -33.4c-2.59,-13.98 -6.44,-22.63 -11.56,-25.87 -5.11,-3.25 -10.59,-4.31 -16.44,-3.23 -8.28,1.53 -13.82,5.65 -16.59,12.33 -2.78,6.64 -2.79,17.55 0.01,32.69l4.79 25.97 45.96 -8.49z"/>
  <path class="fil2 str3" d="M596.22 1731.42c5.76,10.14 9.36,19.55 10.89,28.18 1.53,8.64 1.39,17.55 -0.38,26.8 -2.91,15.22 -8.84,26.21 -17.83,32.97 -8.95,6.77 -19.2,9.06 -30.72,6.85 -6.77,-1.29 -12.65,-4.03 -17.67,-8.17 -5,-4.19 -8.68,-9.08 -11.1,-14.71 -2.42,-5.67 -3.93,-11.78 -4.47,-18.38 -0.32,-4.85 -0.14,-12.06 0.49,-21.57 1.39,-19.37 1.36,-33.91 -0.04,-43.44 -3.19,-0.7 -5.22,-1.14 -6.07,-1.3 -9.51,-1.82 -16.66,-0.88 -21.43,2.82 -6.44,4.99 -10.77,13.43 -13.03,25.26 -2.12,11.07 -1.72,19.63 1.14,25.63 2.85,6.03 8.97,11.21 18.35,15.63l-7.59 22.33c-9.43,-3.97 -16.73,-8.91 -21.86,-14.87 -5.13,-5.96 -8.43,-13.79 -9.99,-23.49 -1.52,-9.65 -1.15,-20.5 1.13,-32.43 2.27,-11.82 5.49,-21.22 9.72,-28.1 4.21,-6.85 8.72,-11.66 13.61,-14.32 4.88,-2.66 10.7,-4.08 17.41,-4.28 4.15,0.01 11.44,0.99 21.8,2.97l31.14 5.96c21.74,4.15 35.58,6.29 41.59,6.43 6.01,0.19 11.95,-0.72 17.82,-2.53l-4.69 24.54c-5.39,1.41 -11.46,1.82 -18.22,1.22zm-52.39 -8.08c1.83,9.2 2.32,22.57 1.45,40.11 -0.47,9.96 -0.23,17.1 0.75,21.44 0.96,4.33 2.92,7.89 5.79,10.7 2.91,2.82 6.39,4.64 10.49,5.42 6.18,1.18 11.83,-0.18 16.88,-4.15 5.04,-3.97 8.46,-10.51 10.21,-19.63 1.72,-9.02 1.31,-17.45 -1.3,-25.28 -2.57,-7.77 -6.96,-14.01 -13.13,-18.6 -4.81,-3.54 -12.36,-6.28 -22.63,-8.24l-8.51 -1.77zm-29.33 -156.35l32.83 -92.71 114.48 40.55 5.08 -14.35 56.09 19.86 -6.53 18.44 -37.65 -13.33 -37.1 104.75 37.65 13.34 -6.53 18.43 -56.09 -19.86 4.18 -11.78c-15.94,-23.51 -51.41,-44.62 -106.41,-63.34zm25.31 -12.07c42.56,16.94 72.14,34.91 88.71,53.9l25.31 -71.46 -95.79 -33.93 -18.23 51.49zm52.35 -180.83l25.75 -48.63c6.32,-11.93 12.02,-20.28 17.12,-25.06 5.08,-4.75 11.37,-7.82 18.89,-9.16 7.59,-1.36 15.06,-0.08 22.5,3.87 5.96,3.16 10.51,7.16 13.62,11.93 3.12,4.83 4.9,10.48 5.23,17.02 5.05,-4.81 11.26,-7.72 18.67,-8.76 7.36,-1.02 14.74,0.43 22.06,4.3 11.4,7.02 17.92,15.9 19.56,26.55 1.67,10.67 -1.38,23.3 -9.09,37.87l-29.7 56.07 -124.61 -66zm63.77 6.72l11.87 -22.42c4.73,-8.92 7.52,-15.33 8.36,-19.14 0.81,-3.87 0.52,-7.87 -0.96,-12.04 -1.45,-4.15 -4.19,-7.29 -8.19,-9.41 -6.6,-3.49 -12.39,-3.59 -17.43,-0.37 -5.06,3.26 -10.54,10.51 -16.47,21.72l-12.23 23.09 35.05 18.57zm54.75 28.99l14.69 -27.73c6.31,-11.93 9.25,-20.87 8.85,-26.78 -0.45,-5.92 -3.98,-10.77 -10.7,-14.63 -3.97,-2.1 -8.36,-2.79 -13.12,-2.03 -4.78,0.8 -8.72,3.01 -11.79,6.67 -3.1,3.63 -7.06,10.05 -11.89,19.17l-13.5 25.49 37.46 19.84zm36.2 -168.92c-21.02,-15.36 -32.32,-32.58 -33.88,-51.73 -1.27,-15.9 3.27,-30.93 13.55,-45 11.41,-15.62 25.88,-24.67 43.38,-27.13 17.44,-2.46 35.23,2.91 53.25,16.08 14.62,10.69 24.5,21.27 29.66,31.78 5.17,10.5 7,21.66 5.5,33.46 -1.47,11.77 -5.87,22.63 -13.11,32.54 -11.65,15.93 -26.14,25.09 -43.53,27.47 -17.39,2.39 -35.67,-3.46 -54.82,-17.47zm14.46 -19.71c14.55,10.64 27.78,15.42 39.63,14.32 11.9,-1.11 21.38,-6.47 28.46,-16.15 7,-9.58 9.21,-20.21 6.6,-31.92 -2.62,-11.67 -11.37,-22.95 -26.25,-33.83 -14.04,-10.26 -27.04,-14.81 -38.91,-13.68 -11.91,1.11 -21.36,6.43 -28.31,15.94 -7.08,9.68 -9.35,20.31 -6.82,31.97 2.55,11.63 11.09,22.74 25.6,33.35zm63.61 -196.71l15.9 -17.85 45.44 40.48c5.07,-5.68 7.54,-10.63 7.39,-14.89 -0.15,-4.19 -3.49,-13.17 -10.03,-27 -5.18,-10.93 -8.13,-18.65 -8.83,-23.17 -0.68,-4.54 -0.25,-8.64 1.36,-12.29 1.65,-3.69 5.26,-8.68 10.82,-14.93l3.2 -3.58 14.71 13.1 -4.53 4.88c-4.19,4.7 -6.17,8.34 -5.95,10.89 0.21,2.68 2.65,8.67 7.32,17.93 4.48,8.85 7.06,15.56 7.67,20.18 0.65,4.58 -0.05,10.2 -2.05,16.86 8.9,-5.84 22.79,-7.06 41.66,-3.59l50.07 9.5 -17.48 19.61 -49.72 -9.68c-10.06,-1.98 -17.4,-2.46 -22.06,-1.46 -4.68,1.05 -8.81,3.56 -12.39,7.58l48.68 43.38 -15.9 17.85 -105.28 -93.8zm285.49 -102.24c-2.08,11.48 -5.34,21 -9.7,28.61 -4.36,7.62 -10.17,14.37 -17.46,20.34 -11.98,9.82 -23.58,14.46 -34.81,13.89 -11.21,-0.54 -20.55,-5.36 -27.98,-14.43 -4.37,-5.33 -7.12,-11.2 -8.33,-17.6 -1.16,-6.42 -0.84,-12.53 0.9,-18.4 1.78,-5.91 4.53,-11.56 8.34,-16.98 2.87,-3.92 7.63,-9.34 14.2,-16.24 13.49,-13.98 22.78,-25.16 27.81,-33.38 -2,-2.58 -3.28,-4.22 -3.82,-4.89 -6.15,-7.49 -12.24,-11.34 -18.27,-11.56 -8.14,-0.3 -16.87,3.4 -26.19,11.04 -8.72,7.14 -13.9,13.97 -15.54,20.41 -1.68,6.45 -0.3,14.35 4.07,23.76l-20.14 12.28c-4.69,-9.09 -7.13,-17.56 -7.25,-25.43 -0.13,-7.86 2.36,-15.99 7.38,-24.43 5.01,-8.39 12.26,-16.48 21.65,-24.17 9.31,-7.63 17.8,-12.78 25.46,-15.36 7.63,-2.56 14.17,-3.36 19.63,-2.27 5.45,1.09 10.83,3.72 16.11,7.88 3.18,2.67 8.15,8.08 14.83,16.24l20.09 24.53c14.03,17.12 23.28,27.63 27.81,31.59 4.5,3.99 9.63,7.1 15.31,9.47l-19.33 15.84c-5.05,-2.37 -9.97,-5.95 -14.77,-10.74zm-35.04 -39.78c-4.5,8.25 -12.69,18.83 -24.59,31.73 -6.75,7.35 -11.14,12.99 -13.17,16.94 -2.03,3.94 -2.81,7.93 -2.41,11.93 0.43,4.03 1.94,7.65 4.58,10.88 3.99,4.86 9.21,7.44 15.63,7.63 6.41,0.19 13.23,-2.65 20.4,-8.53 7.11,-5.82 12.2,-12.56 15.21,-20.24 3,-7.62 3.63,-15.21 1.84,-22.69 -1.42,-5.8 -5.47,-12.74 -12.09,-20.83l-5.4 -6.82zm40.42 -119.54l96.36 -61.13 10.63 16.74 -38.09 24.16 64.92 102.33 -20.19 12.81 -64.92 -102.33 -38.09 24.16 -10.62 -16.74zm290.51 -62.06l22.4 -7.37c4.77,15.56 4.45,29.7 -1.01,42.52 -5.45,12.82 -15.12,22.61 -28.9,29.38 -17.27,8.48 -33.95,9.66 -49.98,3.52 -16.08,-6.13 -29.27,-19.74 -39.61,-40.79 -6.71,-13.66 -10.29,-26.68 -10.81,-39.14 -0.49,-12.41 2.6,-23.47 9.37,-33.1 6.71,-9.66 15.49,-17.15 26.38,-22.5 13.7,-6.73 26.66,-8.81 38.77,-6.13 12.15,2.65 22.61,9.78 31.32,21.35l-19.17 13.35c-6.16,-7.52 -12.8,-12.18 -19.99,-13.99 -7.14,-1.8 -14.29,-0.96 -21.44,2.55 -10.82,5.32 -17.7,13.49 -20.69,24.55 -2.94,11.08 -0.32,24.93 7.91,41.67 8.34,16.99 17.64,27.71 27.92,32.2 10.31,4.46 20.71,4.16 31.15,-0.98 8.46,-4.15 14.22,-10.17 17.3,-18.09 3.14,-7.89 2.82,-17.57 -0.92,-29zm61.94 -123.86l22.71 -7.48 17.26 52.38 28.73 -9.47c18.75,-6.18 34.35,-7.31 46.9,-3.39 12.5,3.94 20.87,12.29 25.08,25.06 3.69,11.19 2.63,22.12 -3.23,32.87 -5.81,10.73 -18.01,19.14 -36.58,25.26l-56.73 18.7 -44.14 -133.93zm60.72 107.87l23.92 -7.88c14.41,-4.75 24.1,-9.9 29.08,-15.45 4.99,-5.56 6.28,-12.08 3.81,-19.57 -1.91,-5.8 -5.89,-10.22 -11.95,-13.27 -6.05,-3.01 -16.87,-1.97 -32.47,3.17l-26.93 8.87 14.54 44.13zm134.85 -166.59l23.37 -5.05 12.84 59.49c7.44,-1.6 12.35,-4.15 14.74,-7.67 2.35,-3.47 4.96,-12.7 7.82,-27.72 2.25,-11.89 4.43,-19.87 6.52,-23.93 2.13,-4.07 4.9,-7.12 8.35,-9.13 3.51,-2 9.36,-3.91 17.54,-5.67l4.69 -1.02 4.16 19.26 -6.53 1.27c-6.16,1.32 -9.9,3.1 -11.23,5.29 -1.41,2.29 -2.97,8.56 -4.66,18.8 -1.59,9.79 -3.47,16.73 -5.69,20.82 -2.18,4.08 -6.06,8.21 -11.59,12.42 10.63,0.52 22.57,7.73 35.76,21.65l34.85 37.18 -25.68 5.54 -34.46 -37.12c-6.95,-7.53 -12.6,-12.25 -16.96,-14.18 -4.39,-1.92 -9.21,-2.32 -14.48,-1.18l13.76 63.74 -23.37 5.04 -29.75 -137.83zm182.32 36.19c-1.93,-25.96 3.86,-45.73 17.42,-59.33 11.29,-11.28 25.67,-17.57 43.05,-18.87 19.29,-1.43 35.56,3.71 48.78,15.45 13.18,11.68 20.62,28.7 22.28,50.96 1.34,18.06 -0.3,32.44 -4.96,43.19 -4.64,10.74 -11.95,19.37 -21.91,25.88 -9.91,6.51 -21.04,10.2 -33.28,11.11 -19.68,1.46 -36.04,-3.64 -49.13,-15.33 -13.09,-11.69 -20.49,-29.4 -22.25,-53.06zm24.39 -1.77c1.33,17.97 6.27,31.14 14.79,39.45 8.56,8.35 18.79,12.09 30.75,11.2 11.83,-0.88 21.35,-6.09 28.58,-15.66 7.19,-9.57 10.1,-23.55 8.73,-41.93 -1.29,-17.34 -6.25,-30.19 -14.81,-38.49 -8.56,-8.35 -18.75,-12.09 -30.49,-11.22 -11.96,0.89 -21.52,6.05 -28.76,15.54 -7.2,9.48 -10.13,23.18 -8.79,41.11zm199.11 -82.71l23.84 1.8 -4.43 58.79 29 2.19c3.62,-19.9 11.06,-34.73 22.29,-44.51 11.26,-9.78 25.21,-14.04 41.87,-12.79 14.18,1.07 25.17,4.76 32.9,11.11 7.8,6.35 13.98,14.72 18.54,25.19 4.58,10.42 6.23,24.13 4.95,41.11 -1.82,24.2 -8.72,42.16 -20.68,53.85 -11.96,11.67 -27.37,16.78 -46.25,15.36 -17.52,-1.32 -31.13,-8.2 -40.86,-20.61 -9.69,-12.44 -14.45,-28.84 -14.23,-49.21l-29 -2.18 -4.69 62.31 -23.84 -1.79 10.59 -140.62zm112.35 25.91c-11.65,-0.88 -21.06,2.9 -28.23,11.36 -7.17,8.4 -11.37,20.66 -12.58,36.79 -1.45,19.27 0.74,33.61 6.6,43.08 5.88,9.48 14.29,14.62 25.22,15.44 10.88,0.82 20.1,-2.67 27.68,-10.45 7.53,-7.79 12.01,-20.94 13.4,-39.4 1.36,-18.02 -0.64,-31.8 -5.97,-41.24 -5.33,-9.49 -14.01,-14.67 -26.12,-15.58zm248.37 19.71l94.6 26.91 -33.23 116.81 14.64 4.17 -16.28 57.23 -18.82 -5.35 10.93 -38.42 -106.89 -30.41 -10.93 38.42 -18.81 -5.35 16.28 -57.23 12.03 3.42c22.45,-17.39 41.28,-54.12 56.48,-110.2zm13.65 24.5c-14.22,43.55 -30.29,74.2 -48.19,91.94l72.92 20.74 27.81 -97.74 -52.54 -14.94zm188.11 10.3l9.95 -25.29 22.25 8.76 -9.95 25.28 -22.25 -8.75zm-61.3 155.74l51.65 -131.22 22.25 8.76 -51.65 131.21 -22.25 -8.75zm262.7 -35.03l-63.55 125.88 -21.34 -10.77 24.73 -49 -12.29 -6.2c-7.48,-3.78 -13.54,-5.63 -18.23,-5.51 -4.68,0.13 -13.17,3.6 -25.53,10.51l-32.6 17.93 -26.43 -13.34 40.1 -22.17c12.26,-6.8 22.23,-9.07 29.89,-6.87 -11.33,-7.8 -18.15,-16.78 -20.46,-26.87 -2.31,-10.1 -1.13,-19.79 3.55,-29.05 5.53,-10.95 13.84,-17.87 24.99,-20.77 11.17,-2.93 24.08,-0.66 38.71,6.72l58.46 29.51zm-30.28 6.93l-30.32 -15.31c-12.69,-6.4 -21.91,-8.57 -27.59,-6.46 -5.67,2.11 -9.84,5.83 -12.52,11.13 -3.79,7.52 -3.87,14.42 -0.23,20.67 3.6,6.23 12.28,12.85 26.03,19.79l23.57 11.89 21.06 -41.71zm130.93 51.2l90.71 64.19 -81.38 114.98 -19.51 -13.81 69.92 -98.8 -51.68 -36.57 -40.52 57.26c-9.44,13.34 -16.11,21.83 -19.99,25.51 -3.9,3.62 -8.88,5.65 -15.01,6.08 -6.17,0.41 -12.91,-1.97 -20.27,-7.18 -4.55,-3.22 -9.58,-7.23 -15.11,-11.97l11.49 -16.23 8.54 6.04c4.03,2.85 7.19,4.49 9.54,4.87 2.31,0.42 4.39,-0.1 6.26,-1.5 1.84,-1.42 6.3,-7.08 13.34,-17.02l53.67 -75.85zm172.02 126.25l17.43 16.36 -37.73 40.22 22.06 20.7c14.39,13.51 22.85,26.67 25.41,39.56 2.53,12.86 -0.8,24.21 -10,34.02 -8.06,8.59 -18.17,12.88 -30.42,12.89 -12.19,0.03 -25.41,-6.66 -39.68,-20.04l-43.56 -40.87 96.49 -102.84zm-65.67 104.93l18.37 17.23c11.06,10.38 20.22,16.43 27.48,18.15 7.27,1.72 13.61,-0.27 19,-6.02 4.18,-4.45 6.15,-10.06 5.94,-16.85 -0.25,-6.74 -6.34,-15.75 -18.32,-26.99l-20.68 -19.4 -31.79 33.88zm208.83 36.03l16.07 17.7 -43.46 39.44 44.56 49.09 43.45 -39.43 16.07 17.7 -104.41 94.77 -16.07 -17.7 46.27 -42 -44.56 -49.1 -46.27 42 -16.07 -17.7 104.42 -94.77zm160.64 157.89l22.87 -14.66 12.9 20.13 -22.87 14.66 -12.9 -20.13zm-140.91 90.32l118.71 -76.09 12.91 20.13 -118.72 76.09 -12.9 -20.13zm147.71 148.34l7.81 22.25c-15.47,5.08 -29.61,5.03 -42.53,-0.17 -12.93,-5.21 -22.91,-14.68 -29.95,-28.33 -8.82,-17.1 -10.32,-33.75 -4.49,-49.9 5.81,-16.19 19.16,-29.65 40,-40.4 13.53,-6.97 26.48,-10.81 38.93,-11.57 12.4,-0.73 23.51,2.14 33.27,8.72 9.79,6.52 17.45,15.16 23.01,25.94 7,13.56 9.33,26.48 6.89,38.64 -2.41,12.2 -9.34,22.79 -20.73,31.73l-13.72 -18.9c7.39,-6.31 11.92,-13.04 13.59,-20.27 1.66,-7.17 0.68,-14.3 -2.97,-21.38 -5.52,-10.71 -13.83,-17.43 -24.95,-20.21 -11.13,-2.72 -24.92,0.17 -41.51,8.72 -16.82,8.68 -27.36,18.18 -31.64,28.55 -4.26,10.4 -3.75,20.78 1.58,31.13 4.32,8.37 10.45,14.02 18.43,16.94 7.95,2.98 17.62,2.47 28.98,-1.49zm117.67 41.32l43.53 105.49 -18.33 7.57 -17.2 -41.69 -112.02 46.22 -9.12 -22.1 112.02 -46.23 -17.21 -41.69 18.33 -7.57zm70.74 194.68l5.49 23.27 -57.38 13.55 6.69 28.3c20.06,-2.56 36.45,0.04 49.17,7.79 12.72,7.78 21,19.79 24.85,36.05 3.27,13.84 3.07,25.42 -0.64,34.72 -3.7,9.35 -9.81,17.77 -18.41,25.29 -8.55,7.51 -21.11,13.23 -37.68,17.14 -23.62,5.58 -42.83,4.44 -57.59,-3.43 -14.74,-7.87 -24.27,-21.01 -28.62,-39.43 -4.04,-17.1 -1.6,-32.16 7.28,-45.19 8.94,-12.99 23.12,-22.49 42.61,-28.44l-6.69 -28.3 -60.82 14.37 -5.49 -23.27 137.23 -32.42zm9.28 114.92c-2.68,-11.37 -9.14,-19.19 -19.36,-23.47 -10.19,-4.3 -23.14,-4.59 -38.88,-0.87 -18.81,4.45 -31.81,10.87 -39.07,19.32 -7.26,8.47 -9.61,18.05 -7.09,28.71 2.51,10.62 8.62,18.35 18.33,23.22 9.7,4.83 23.59,5.12 41.62,0.86 17.58,-4.15 30.11,-10.23 37.5,-18.16 7.43,-7.95 9.74,-17.79 6.95,-29.61z"/>
  <path class="fil3" d="M2050 1118.62c529.15,0 958.11,416.99 958.11,931.38 0,514.39 -428.96,931.38 -958.11,931.38 -529.15,0 -958.11,-416.99 -958.11,-931.38 0,-514.39 428.96,-931.38 958.11,-931.38z"/>
  <path class="fil2 str3" d="M835.2 1568.61l11.12 -21 165.26 -12.91 -123.71 -65.53 10.63 -20.06 159.63 84.56 -11.14 21.03 -164.79 13.4 123.14 65.23 -10.51 19.84 -159.63 -84.56zm144.92 -94.82c-12.89,-6.83 -21.23,-15.87 -25.07,-27.14 -3.82,-11.3 -2.59,-22.87 3.71,-34.76 6.28,-11.85 15.22,-19.21 26.83,-22.09 11.6,-2.96 24.07,-0.87 37.4,6.19 13.5,7.15 22.23,16.44 26.21,27.88 4,11.49 2.84,23.2 -3.5,35.17 -5.45,10.29 -13.8,17.43 -24.99,21.4 -11.19,3.97 -24.72,1.75 -40.59,-6.65zm10.64 -18.64c9.77,5.17 18.18,7.16 25.2,5.88 7.04,-1.26 12.07,-4.74 15.1,-10.46 2.82,-5.32 2.94,-11.3 0.33,-17.96 -2.61,-6.66 -8.77,-12.55 -18.5,-17.71 -10.22,-5.41 -18.74,-7.21 -25.57,-5.35 -6.84,1.85 -11.59,5.33 -14.28,10.42 -2.92,5.51 -3.04,11.48 -0.39,17.97 2.61,6.48 8.67,12.21 18.11,17.21zm47.25 46.45l39.21 -74.03 16.06 8.51 -39.22 74.02 -16.05 -8.5zm62.7 -192.11c-15.92,-14.18 -27.34,-27.28 -34.16,-39.22 -6.83,-11.99 -10,-23.54 -9.48,-34.68 0.49,-11.1 5.13,-21.56 13.86,-31.35 6.43,-7.22 13.53,-12.29 21.34,-15.18 7.79,-2.86 16.03,-3.63 24.66,-2.25 8.59,1.35 17.74,4.54 27.41,9.55 9.7,4.99 21.23,13.46 34.58,25.35 15.83,14.1 27.17,27.14 34.03,39.05 6.89,11.94 10.05,23.49 9.56,34.65 -0.45,11.14 -5.09,21.65 -13.87,31.51 -11.55,12.96 -25.26,19.06 -41.13,18.21 -19.22,-1.18 -41.46,-13.06 -66.8,-35.64zm15.17 -16.89c22.19,19.78 39.24,30.35 51.15,31.66 11.92,1.33 21.27,-1.83 28.04,-9.42 6.77,-7.6 8.8,-17.28 6.1,-28.98 -2.73,-11.72 -15.16,-27.42 -37.29,-47.14 -22.2,-19.77 -39.25,-30.34 -51.15,-31.66 -11.9,-1.37 -21.31,1.85 -28.22,9.61 -6.77,7.6 -8.95,16.57 -6.57,26.86 3.12,12.98 15.8,29.35 37.94,49.07zm145.28 -144.55c-13.13,-16.8 -22.02,-31.73 -26.58,-44.7 -4.58,-13.02 -5.63,-24.96 -3.12,-35.82 2.47,-10.84 8.91,-20.29 19.25,-28.36 7.62,-5.96 15.51,-9.67 23.72,-11.11 8.16,-1.42 16.41,-0.71 24.65,2.2 8.21,2.86 16.64,7.64 25.26,14.3 8.65,6.65 18.48,17.05 29.48,31.13 13.05,16.71 21.88,31.58 26.49,44.52 4.64,12.97 5.69,24.91 3.2,35.8 -2.44,10.88 -8.88,20.39 -19.29,28.52 -13.68,10.68 -28.26,14.22 -43.72,10.55 -18.7,-4.61 -38.45,-20.28 -59.34,-47.03zm17.94 -13.9c18.3,23.43 33.18,36.88 44.66,40.31 11.49,3.44 21.26,2.01 29.28,-4.25 8.02,-6.27 11.75,-15.43 11.19,-27.42 -0.59,-12.02 -10.01,-29.69 -28.25,-53.05 -18.3,-23.43 -33.18,-36.88 -44.65,-40.31 -11.47,-3.48 -21.3,-1.99 -29.49,4.4 -8.02,6.27 -11.77,14.7 -11.28,25.25 0.76,13.33 10.29,31.7 28.54,55.07zm171.12 -117.13c-9.41,-19.13 -15.06,-35.57 -16.87,-49.19 -1.82,-13.69 -0.4,-25.58 4.27,-35.7 4.64,-10.11 12.87,-18.04 24.65,-23.83 8.68,-4.27 17.16,-6.29 25.49,-6.02 8.28,0.28 16.21,2.67 23.68,7.19 7.45,4.49 14.73,10.9 21.8,19.18 7.11,8.27 14.6,20.46 22.49,36.5 9.35,19.02 14.95,35.38 16.82,48.99 1.89,13.65 0.47,25.55 -4.19,35.7 -4.61,10.15 -12.87,18.14 -24.72,23.97 -15.58,7.66 -30.57,8.14 -44.95,1.38 -17.36,-8.33 -33.5,-27.71 -48.47,-58.17zm20.41 -9.94c13.12,26.68 24.93,42.9 35.47,48.59 10.54,5.73 20.4,6.32 29.52,1.83 9.14,-4.49 14.67,-12.69 16.57,-24.55 1.88,-11.88 -3.73,-31.1 -16.8,-57.7 -13.12,-26.68 -24.93,-42.89 -35.46,-48.59 -10.51,-5.75 -20.44,-6.31 -29.76,-1.73 -9.14,4.49 -14.54,11.98 -16.21,22.41 -1.99,13.2 3.59,33.14 16.67,59.74zm188.69 -82.25c-5.66,-20.56 -8.14,-37.76 -7.38,-51.48 0.78,-13.78 4.39,-25.2 10.88,-34.27 6.44,-9.06 16.01,-15.32 28.66,-18.8 9.33,-2.57 18.03,-2.97 26.17,-1.16 8.08,1.83 15.42,5.66 21.92,11.5 6.48,5.8 12.43,13.45 17.83,22.91 5.43,9.46 10.52,22.83 15.27,40.06 5.63,20.44 8.08,37.56 7.37,51.28 -0.7,13.76 -4.32,25.18 -10.79,34.29 -6.43,9.1 -16.03,15.41 -28.77,18.92 -16.73,4.61 -31.56,2.28 -44.42,-7.04 -15.49,-11.44 -27.72,-33.49 -36.74,-66.21zm21.91 -5.95c7.9,28.67 16.48,46.8 25.76,54.36 9.29,7.6 18.86,10.02 28.66,7.32 9.82,-2.7 16.78,-9.73 20.87,-21.02 4.07,-11.32 2.15,-31.25 -5.72,-59.83 -7.9,-28.66 -16.48,-46.79 -25.75,-54.36 -9.26,-7.62 -18.9,-10.02 -28.92,-7.26 -9.81,2.71 -16.52,9.06 -20.11,18.99 -4.42,12.59 -2.67,33.22 5.21,61.8zm197.95 49.25l30.26 -191.56 17.74 -2.1 -30.25 191.57 -17.75 2.09zm154.14 -105.5c0.68,-21.31 3.42,-38.47 8.21,-51.36 4.83,-12.93 11.67,-22.77 20.55,-29.5 8.84,-6.74 19.83,-9.88 32.95,-9.46 9.66,0.31 18.1,2.51 25.33,6.65 7.18,4.14 13.05,9.97 17.53,17.48 4.47,7.46 7.88,16.53 10.23,27.16 2.39,10.65 3.28,24.93 2.71,42.79 -0.68,21.19 -3.42,38.26 -8.16,51.16 -4.75,12.93 -11.59,22.77 -20.47,29.55 -8.84,6.79 -19.88,9.96 -33.08,9.54 -17.35,-0.55 -30.82,-7.17 -40.34,-19.89 -11.4,-15.51 -16.55,-40.2 -15.46,-74.12zm22.69 0.81c-0.96,29.72 1.86,49.58 8.48,59.56 6.63,10 15.04,15.15 25.21,15.48 10.17,0.33 18.91,-4.32 26.16,-13.89 7.24,-9.61 11.32,-29.21 12.27,-58.84 0.95,-29.71 -1.86,-49.57 -8.48,-59.55 -6.58,-10.01 -15.08,-15.17 -25.46,-15.5 -10.18,-0.33 -18.46,3.75 -24.84,12.17 -7.95,10.72 -12.39,30.94 -13.34,60.57zm205.56 16.48c4.74,-20.79 10.7,-37.11 17.86,-48.85 7.21,-11.77 15.8,-20.12 25.8,-25.04 9.97,-4.93 21.36,-5.91 34.15,-2.99 9.43,2.15 17.29,5.92 23.6,11.37 6.26,5.43 10.91,12.28 13.87,20.5 2.96,8.18 4.58,17.73 4.86,28.62 0.31,10.9 -1.54,25.1 -5.51,42.52 -4.71,20.67 -10.66,36.9 -17.78,48.65 -7.13,11.79 -15.72,20.14 -25.73,25.1 -9.98,4.98 -21.42,5.99 -34.3,3.06 -16.92,-3.86 -28.88,-12.93 -35.79,-27.23 -8.24,-17.41 -8.57,-42.62 -1.03,-75.71zm22.11 5.13c-6.61,28.99 -7.63,49.02 -3.04,60.08 4.59,11.08 11.87,17.75 21.79,20.01 9.92,2.26 19.38,-0.63 28.33,-8.64 8.94,-8.05 16.69,-26.51 23.28,-55.41 6.61,-28.99 7.63,-49.02 3.05,-60.08 -4.55,-11.09 -11.91,-17.77 -22.04,-20.08 -9.93,-2.26 -18.84,0.16 -26.7,7.21 -9.86,9 -18.08,28 -24.67,56.91zm173.73 142.05l9.23 -23.48 23.48 9.24 -9.23 23.48 -23.48 -9.24zm160.94 -25.32c10.29,-18.68 20.51,-32.72 30.64,-42.02 10.17,-9.33 20.73,-14.99 31.7,-16.96 10.94,-1.99 22.16,0.21 33.65,6.54 8.47,4.66 14.99,10.46 19.55,17.43 4.51,6.95 7.1,14.82 7.68,23.54 0.59,8.67 -0.49,18.3 -3.22,28.84 -2.71,10.57 -8.4,23.7 -17.02,39.36 -10.23,18.56 -20.42,32.53 -30.51,41.86 -10.1,9.37 -20.66,15.03 -31.65,17.03 -10.96,2.04 -22.24,-0.15 -33.81,-6.52 -15.21,-8.38 -24.2,-20.39 -26.9,-36.04 -3.12,-19 3.51,-43.33 19.89,-73.06zm19.84 11.03c-14.35,26.04 -20.86,45.01 -19.49,56.91 1.36,11.92 6.52,20.34 15.42,25.24 8.92,4.92 18.81,4.75 29.62,-0.49 10.82,-5.27 23.35,-20.88 37.65,-46.84 14.35,-26.04 20.86,-45.02 19.5,-56.91 -1.32,-11.91 -6.55,-20.36 -15.65,-25.38 -8.91,-4.91 -18.15,-5.04 -27.65,-0.43 -11.96,5.93 -25.1,21.93 -39.4,47.9zm172.54 112.33c13.65,-16.39 26.35,-28.24 38.06,-35.45 11.76,-7.23 23.2,-10.78 34.34,-10.63 11.12,0.12 21.72,4.4 31.8,12.8 7.44,6.19 12.73,13.11 15.89,20.82 3.11,7.69 4.16,15.9 3.07,24.57 -1.06,8.63 -3.95,17.88 -8.63,27.71 -4.66,9.86 -12.74,21.68 -24.18,35.41 -13.57,16.29 -26.22,28.07 -37.89,35.32 -11.7,7.28 -23.14,10.83 -34.32,10.71 -11.14,-0.08 -21.8,-4.36 -31.95,-12.81 -13.34,-11.11 -19.89,-24.61 -19.58,-40.49 0.55,-19.25 11.67,-41.88 33.39,-67.96zm17.39 14.59c-19.02,22.85 -29.02,40.24 -29.93,52.18 -0.93,11.96 2.54,21.2 10.35,27.71 7.83,6.52 17.57,8.23 29.17,5.14 11.62,-3.13 26.89,-16.08 45.86,-38.85 19.03,-22.85 29.02,-40.24 29.94,-52.18 0.97,-11.94 -2.56,-21.24 -10.55,-27.88 -7.82,-6.52 -16.86,-8.4 -27.07,-5.68 -12.86,3.56 -28.8,16.78 -47.77,39.56zm86.92 209.09l19.63 -15.85 15.85 19.64 -19.64 15.84 -15.84 -19.63zm154.06 56.41c18.18,-11.13 34.02,-18.28 47.42,-21.35 13.46,-3.07 25.44,-2.76 35.95,0.96 10.48,3.69 19.15,11.15 26,22.34 5.05,8.25 7.84,16.5 8.35,24.82 0.49,8.28 -1.16,16.39 -4.98,24.25 -3.77,7.84 -9.48,15.67 -17.07,23.47 -7.58,7.85 -19.03,16.44 -34.27,25.77 -18.08,11.08 -33.85,18.16 -47.23,21.28 -13.41,3.14 -25.39,2.83 -35.93,-0.87 -10.53,-3.66 -19.25,-11.14 -26.15,-22.4 -9.07,-14.81 -10.94,-29.69 -5.53,-44.63 6.69,-18.06 24.5,-35.91 53.44,-53.64zm11.78 19.41c-25.35,15.52 -40.4,28.78 -45.1,39.8 -4.73,11.03 -4.41,20.9 0.9,29.57 5.32,8.68 14,13.43 25.98,14.23 12.01,0.77 30.63,-6.59 55.91,-22.07 25.35,-15.52 40.4,-28.78 45.1,-39.79 4.76,-11 4.4,-20.94 -1.03,-29.8 -5.32,-8.68 -13.27,-13.36 -23.81,-14.06 -13.33,-0.76 -32.66,6.63 -57.95,22.12zm96.51 183.39c20.07,-7.19 37.03,-10.96 50.78,-11.24 13.8,-0.27 25.46,2.48 34.99,8.26 9.52,5.74 16.48,14.81 20.91,27.16 3.27,9.1 4.32,17.76 3.13,26 -1.22,8.21 -4.48,15.81 -9.82,22.73 -5.29,6.9 -12.47,13.41 -21.49,19.51 -9.02,6.13 -21.98,12.21 -38.8,18.25 -19.95,7.16 -36.83,10.89 -50.57,11.21 -13.77,0.35 -25.44,-2.4 -35.01,-8.17 -9.56,-5.72 -16.57,-14.82 -21.03,-27.25 -5.87,-16.34 -4.67,-31.3 3.67,-44.82 10.23,-16.32 31.3,-30.18 63.24,-41.64zm7.58 21.4c-27.98,10.04 -45.41,19.96 -52.26,29.79 -6.87,9.84 -8.57,19.56 -5.13,29.13 3.44,9.58 10.96,16 22.53,19.22 11.6,3.2 31.33,-0.21 59.23,-10.22 27.98,-10.04 45.42,-19.96 52.26,-29.77 6.9,-9.81 8.57,-19.61 5.06,-29.39 -3.44,-9.58 -10.27,-15.78 -20.45,-18.62 -12.89,-3.45 -33.33,-0.15 -61.24,9.86z"/>
  <path class="fil2 str3" d="M1007.28 2872.77l214.84 -102.98 25.86 26.54 -108.52 212.1 -22.18 -22.76 30.7 -58.38 -60.31 -61.89 -59.12 29.2 -21.27 -21.83zm153.46 30.24l51.64 -98.87 -100.11 49.12 48.47 49.75zm238.95 348.79l-24.3 -15.02 27.24 -44.11 -124.42 -76.86 -27.25 44.12 -24.31 -15.02 40.95 -66.3 10.57 6.53c22.5,-11.41 46.31,-29.86 71.49,-55.36 25.18,-25.51 48.64,-55.79 70.37,-90.97l106.98 66.08 -104.6 169.34 18.24 11.26 -40.96 66.31zm-2.9 -93.4l90.89 -147.15 -57.59 -35.57c-20.36,30.32 -41.62,56.05 -63.7,77.32 -22.15,21.3 -43.37,37.03 -63.65,47.31l94.05 58.09zm357.31 92.85c-3.02,10.81 -7.74,19.81 -14.15,26.94 -6.4,7.13 -13.79,12.42 -22.21,15.82 -9.97,4.14 -20.02,6.28 -30.08,6.31 -10.13,0.06 -22.56,-1.96 -37.31,-6.09l-62.35 -17.44 60.82 -217.39 57.65 16.13c15.51,4.33 26.98,8.08 34.41,11.28 7.45,3.17 14.2,7.63 20.27,13.42 6.61,6.36 10.75,13.43 12.49,21.22 1.71,7.74 1.27,16.21 -1.28,25.33 -2.86,10.22 -8.09,18.59 -15.74,25.15 -7.69,6.56 -16.94,10.8 -27.74,12.72l-0.33 1.19c11.93,7.11 20.15,16.34 24.69,27.6 4.46,11.3 4.75,23.9 0.86,37.81zm-13.15 -108.58c1.45,-5.18 1.82,-9.97 1.14,-14.24 -0.67,-4.33 -2.63,-8.1 -5.89,-11.43 -3.91,-3.89 -8.7,-6.95 -14.26,-9.15 -5.58,-2.15 -13.37,-4.66 -23.49,-7.49l-27.65 -7.73 -17.66 63.09 32.75 9.16c9.07,2.54 15.82,3.94 20.37,4.2 4.49,0.29 9.46,-0.37 14.79,-1.99 5.18,-1.56 9.35,-4.37 12.46,-8.4 3.11,-4.01 5.57,-9.34 7.44,-16.02zm-17.33 101.13c2.28,-8.13 3,-15.12 2.14,-21.07 -0.88,-5.93 -4.3,-11.73 -10.36,-17.35 -3.9,-3.73 -8.46,-6.66 -13.65,-8.86 -5.2,-2.16 -12.72,-4.64 -22.64,-7.42l-32.74 -9.15 -22.34 79.84 23.42 6.55c12.61,3.53 22.74,5.72 30.35,6.61 7.6,0.89 14.72,0.19 21.3,-1.99 6.49,-2.28 11.63,-5.46 15.5,-9.54 3.88,-4.07 6.88,-9.95 9.02,-17.62zm350.04 -89.38c8.31,10.11 14.64,22.56 18.99,37.33 4.35,14.78 6.26,31.56 5.74,50.33 -0.52,18.31 -3.3,34.75 -8.36,49.37 -5.07,14.61 -12.15,26.79 -21.21,36.58 -9.51,10.24 -20.48,17.64 -32.94,22.32 -12.39,4.67 -26.02,6.78 -40.76,6.37 -15.32,-0.42 -29.01,-3.4 -41.07,-8.86 -12.11,-5.52 -22.45,-13.47 -30.97,-23.9 -8.4,-10.28 -14.74,-22.78 -18.99,-37.55 -4.24,-14.77 -6.1,-31.39 -5.59,-49.91 0.53,-18.98 3.33,-35.58 8.43,-49.77 5.1,-14.21 12.17,-26.32 21.16,-36.38 8.96,-9.79 19.68,-17.1 32.13,-21.93 12.46,-4.88 26.24,-7.09 41.45,-6.67 15.37,0.43 29.16,3.51 41.32,9.18 12.21,5.73 22.46,13.52 30.67,23.49zm-6.62 86.78c0.41,-14.89 -0.82,-28.13 -3.76,-39.71 -2.88,-11.62 -7.17,-21.26 -12.8,-28.98 -5.79,-7.93 -12.82,-13.93 -21.14,-18.04 -8.33,-4.11 -17.74,-6.35 -28.24,-6.64 -10.92,-0.31 -20.54,1.35 -28.76,4.9 -8.23,3.54 -15.58,9.19 -22.12,16.98 -6.16,7.49 -10.98,16.99 -14.51,28.48 -3.49,11.55 -5.45,24.6 -5.86,39.19 -0.82,29.53 4.75,52.32 16.73,68.34 12.03,16.02 28.46,24.34 49.41,24.93 20.91,0.58 37.79,-6.81 50.58,-22.14 12.8,-15.33 19.64,-37.77 20.47,-67.31zm369.05 59.9l-37.39 8.25 -100.26 -83.77 -18.34 4.04 22.27 100.97 -29.41 6.49 -48.62 -220.44 29.41 -6.49 21.94 99.46c11.48,-2.96 20,-7.86 25.56,-14.81 5.51,-6.94 9.31,-15.94 11.31,-27.03 0.79,-4.84 1.48,-9.44 2.01,-13.75 0.52,-4.35 0.94,-7.99 1.25,-10.92 2.17,-18.24 7.14,-31.52 14.93,-39.92 7.8,-8.39 19.83,-14.38 36.16,-17.98l9.04 -2 5.75 26.07 -7.42 1.64c-12.03,2.65 -19.95,6.9 -23.75,12.71 -3.76,5.81 -6.24,15.69 -7.46,29.63 -1.16,13.93 -3.61,24.49 -7.28,31.66 -3.71,7.17 -8.59,13.86 -14.7,20.09l115 96.1zm133.72 -46.42l-31.9 -236.1 33.21 -16.45 168.43 168.5 -28.48 14.1 -46.1 -47.16 -77.45 38.35 9.61 65.23 -27.32 13.53zm75.98 -136.72l-78.19 -79.55 15.95 110.37 62.24 -30.82zm271.9 -76.04l-127.3 -153.01 -58.24 48.45 -17.08 -20.52 139.65 -116.18 17.07 20.52 -58.24 48.46 127.29 153.01 -23.15 19.27z"/>
  <path class="fil2 str3" d="M441.14 2515.24l-7.12 -29.96 198.01 -47.05 -24.44 -102.87 -198.01 47.05 -7.12 -29.96 224.57 -53.36 38.68 162.79 -224.57 53.36zm166.45 182.86c-26.69,10.81 -50.58,13.01 -71.61,6.61 -21.04,-6.43 -35.56,-19.46 -43.5,-39.07 -3.22,-7.94 -5.15,-15.38 -5.84,-22.3 -0.66,-6.87 -0.42,-14.32 0.79,-22.29l-67.09 27.17 -10.97 -27.08 219.55 -88.9 10.96 27.08 -16.82 6.81c8.75,4.27 16.84,9.73 24.23,16.27 7.4,6.6 13.05,14.75 16.96,24.42 7.49,18.49 6.05,35.8 -4.33,52.05 -10.37,16.24 -27.81,29.3 -52.33,39.23zm-14.22 -26.78c18.29,-7.41 31.28,-16.1 39.02,-26.03 7.72,-9.97 8.92,-21.53 3.58,-34.73 -3.1,-7.65 -7.84,-14.41 -14.13,-20.19 -6.28,-5.8 -13.4,-10.84 -21.4,-15.08l-90.84 36.78c-0.6,8.52 -0.49,15.55 0.33,21.1 0.82,5.55 2.52,11.59 5.16,18.11 5.71,14.08 15.21,22.91 28.62,26.55 13.41,3.65 29.94,1.47 49.66,-6.51zm-23.21 151.11l-13.61 -25.84 153.1 -80.64 13.62 25.85 -153.11 80.63zm179.99 -92.28l-15.54 -29.5 26.68 -14.05 15.54 29.5 -26.68 14.05zm-35.72 235.18c-8.08,5.34 -16.09,8.09 -24.03,8.27 -7.9,0.15 -15.36,-1.45 -22.28,-4.81 -6.65,-3.16 -12.92,-7.57 -18.94,-13.3 -5.98,-5.69 -11.2,-11.87 -15.67,-18.62 -6.24,-9.45 -11.24,-19.02 -14.99,-28.72 -3.72,-9.66 -6.34,-20.05 -7.75,-31.1l26.98 -17.84 1.02 1.54c-1.54,9.4 -0.97,19.55 1.7,30.41 2.7,10.91 6.96,20.71 12.74,29.44 2.51,3.8 5.57,7.56 9.25,11.4 3.69,3.77 7.36,6.62 11.06,8.48 4.98,2.35 9.41,3.49 13.2,3.39 3.86,-0.14 8.16,-1.77 12.93,-4.93 5.12,-3.38 8.58,-7.07 10.42,-11.01 1.85,-4.01 2.39,-8.18 1.72,-12.56 -0.65,-4.33 -2.19,-8.69 -4.55,-13.11 -2.34,-4.41 -5.08,-8.94 -8.15,-13.57l-11.2 -16.95 21.19 -14.01 8.54 12.93c2.17,3.27 4.94,7.27 8.4,12.02 3.43,4.71 6.66,8.16 9.73,10.32 3.8,2.75 7.69,4.43 11.71,4.95 4,0.58 9.02,-1.14 15.06,-5.14 4.2,-2.78 6.98,-5.95 8.34,-9.57 1.3,-3.59 1.78,-7.28 1.37,-11.06 -0.38,-3.94 -1.42,-7.82 -3.13,-11.64 -1.67,-3.77 -3.59,-7.26 -5.69,-10.44 -5.37,-8.13 -11.69,-15.17 -18.89,-21.2 -7.26,-5.97 -14.88,-10.2 -22.9,-12.65l-1.02 -1.54 26.26 -17.36c6.26,4.74 12.71,10.38 19.33,16.84 6.59,6.43 12.42,13.43 17.44,21.02 4.06,6.14 7.52,12.72 10.45,19.92 2.94,7.13 4.79,14.54 5.5,22.24 0.62,7.28 -0.5,14.42 -3.22,21.42 -2.77,7.04 -7.84,12.99 -15.3,17.92 -7.86,5.19 -16.21,7.54 -25.04,7.04 -8.86,-0.55 -16.6,-3.81 -23.38,-9.85l-0.88 0.58c2.57,9.84 2.68,19.22 0.41,28.08 -2.3,8.88 -8.2,16.46 -17.74,22.77zm129.52 156.68c-6.5,5.26 -13.3,8.71 -20.35,10.26 -7.02,1.58 -14.05,1.56 -20.92,-0.04 -8.66,-2.04 -16.16,-5.44 -22.54,-10.22 -6.31,-4.76 -12.87,-11.37 -19.62,-19.72l-42.81 -52.96 134.57 -108.78 40.01 49.5c8.02,9.92 13.59,17.4 16.66,22.46 3.15,5.08 5.24,10.87 6.44,17.39 1.23,6.84 0.68,13.06 -1.77,18.78 -2.41,5.69 -6.53,10.87 -12.37,15.59 -6.42,5.18 -13.61,8.07 -21.57,8.65 -7.9,0.6 -15.64,-0.9 -23.16,-4.55l-0.32 1.28c4.03,8.78 5.22,17.89 3.57,27.39 -1.68,9.46 -6.93,17.79 -15.82,24.97zm34.67 -78.24c3.05,-2.47 5.28,-5.08 6.71,-7.87 1.39,-2.83 1.76,-5.98 1.04,-9.48 -0.85,-4.09 -2.54,-8.02 -5.12,-11.8 -2.6,-3.81 -6.47,-8.85 -11.56,-15.15l-17.32 -21.43 -36.55 29.54 20.92 25.88c4.46,5.52 7.87,9.23 10.27,11.09 2.35,1.91 5.56,3.61 9.47,5 3.73,1.41 7.41,1.49 10.99,0.44 3.61,-1.08 7.32,-3.13 11.15,-6.22zm-53.55 54.71c4.61,-3.73 7.79,-7.37 9.47,-10.92 1.74,-3.58 1.85,-8.5 0.44,-14.7 -0.87,-3.93 -2.47,-7.6 -4.74,-11.08 -2.26,-3.48 -5.69,-8.05 -10.28,-13.74l-21.42 -26.49 -44.2 35.72 15.8 19.55c6.56,8.11 11.94,14.1 16.23,18.05 4.23,3.98 8.65,6.75 13.17,8.39 4.8,1.64 9.22,2.15 13.17,1.48 3.99,-0.71 8.09,-2.8 12.36,-6.26zm129.94 200.55l-21.44 -19.84 87.68 -94.71 -147.05 39.74 -19.61 -18.15 117.56 -126.98 21.43 19.84 -86.32 93.24 145.03 -38.88 20.27 18.76 -117.55 126.98zm224.17 213.71l-22.23 -15.31 23.59 -34.25 -160.8 -110.77 98.16 -142.5 24.06 16.57 -84.29 122.37 48.36 33.31 84.29 -122.37 24.06 16.57 -84.29 122.37 48.37 33.32 84.29 -122.36 24.06 16.57 -84.29 122.36 14.12 9.73 -37.46 54.39zm153.42 32.52c-24.73,-12.29 -40.5,-28.82 -47.3,-49.51 -6.78,-20.7 -3.78,-43.85 8.94,-69.44 12.54,-25.2 29.14,-41.94 49.83,-50.27 20.64,-8.35 41.68,-7.17 63.09,3.48 9.67,4.8 17.51,10.41 23.52,16.89 6.07,6.45 10.4,14.03 12.99,22.72 2.65,8.69 3.33,18.02 2.01,28.05 -1.26,10.02 -5,21.22 -11.15,33.59l-7.05 14.17 -107.74 -53.58c-8.93,17.95 -11.21,33.96 -6.83,47.96 4.36,14.05 14.61,25.05 30.67,33.04 5.74,2.85 11.75,5.02 17.88,6.46 6.18,1.48 12,2.25 17.48,2.43 5.79,0.22 10.83,0.18 15.04,-0.2 4.26,-0.37 7.91,-0.92 10.91,-1.61l1.52 0.75 -14.16 28.49c-3.67,-0.35 -8.22,-0.73 -13.66,-1.19 -5.45,-0.45 -10.23,-1.07 -14.32,-1.86 -5.81,-1.17 -10.94,-2.36 -15.44,-3.66 -4.48,-1.33 -9.92,-3.57 -16.23,-6.71zm79.48 -82.81c3.3,-7.11 5.46,-13.59 6.51,-19.39 1.06,-5.81 1.01,-11.2 0.01,-16.08 -1.17,-5.36 -3.62,-10.31 -7.39,-14.72 -3.77,-4.42 -9.2,-8.36 -16.31,-11.89 -6.96,-3.47 -13.4,-5.37 -19.32,-5.71 -5.91,-0.34 -11.86,0.42 -17.81,2.43 -5.96,2.12 -11.14,5.16 -15.67,9.05 -4.49,3.91 -8.65,9.06 -12.46,15.32l82.44 40.99zm226.7 188.4l-86.61 -23.88 6.24 -22.66 28.47 7.85 48.87 -177.21 -28.47 -7.85 6.24 -22.65 86.62 23.89 -6.24 22.64 -28.47 -7.85 -48.87 177.22 28.47 7.85 -6.25 22.65zm233.43 45.45l-28.78 -5 23.27 -133.99 -56.05 79.96 -21.38 -3.72 -25.49 -94.12 -23.27 134 -26.9 -4.67 29.61 -170.49 34.66 6.02 28.45 102.48 59.82 -87.15 35.66 6.19 -29.6 170.49zm94.84 -142.18l-4.01 -42.8 2.79 -37.83 31.66 2.33 -2.79 37.84 -10.55 41.72 -17.1 -1.26zm212.02 147.98l-29.2 0.7 -1.65 -68.56 -28.57 0.69 -49.99 69.8 -34.06 0.81 54.05 -72.54c-14.44,-3.89 -25.12,-9.93 -31.94,-18.13 -6.86,-8.2 -10.46,-19.34 -10.8,-33.4 -0.21,-8.57 1.52,-16.13 5.12,-22.67 3.6,-6.55 8.6,-12.12 14.9,-16.72 5.04,-3.62 11.54,-6.36 19.33,-8.3 7.84,-1.88 16.6,-2.94 26.29,-3.17l62.37 -1.5 4.15 172.99zm-31.4 -90.71l-1.39 -58.08 -31.53 0.75c-6.67,0.16 -11.95,0.66 -15.8,1.44 -3.84,0.83 -7.57,2.29 -11.11,4.45 -3.65,2.36 -6.38,5.49 -8.19,9.4 -1.81,3.91 -2.66,8.05 -2.55,12.5 0.13,5.66 0.87,10.25 2.28,13.76 1.35,3.57 3.76,6.74 7.22,9.67 3.72,2.98 8.16,4.95 13.37,5.77 5.21,0.88 10.94,1.22 17.12,1.07l30.58 -0.73zm386.74 32.15l-30.05 6.77 -44.7 -198.56 -103.14 23.23 44.69 198.55 -30.03 6.76 -50.7 -225.19 163.24 -36.74 50.69 225.18zm184.78 -157.12c10.43,27.23 11.88,50.71 4.46,70.54 -7.49,19.8 -22.09,33.9 -43.89,42.24 -22.49,8.62 -43.11,7.73 -61.8,-2.62 -18.75,-10.33 -33.12,-28.63 -43.17,-54.87 -10.33,-26.98 -11.73,-50.47 -4.15,-70.49 7.51,-20.04 22.15,-34.2 43.84,-42.5 21.8,-8.35 42.1,-7.57 60.94,2.28 18.8,9.91 33.4,28.35 43.77,55.42zm-28.17 10.78c-7.96,-20.79 -17.69,-34.81 -29.17,-42.02 -11.49,-7.22 -24.25,-8.12 -38.28,-2.74 -14.13,5.41 -23.13,14.63 -26.91,27.7 -3.78,13.05 -1.66,29.99 6.3,50.78 7.72,20.17 17.38,33.99 29.03,41.48 11.65,7.5 24.56,8.49 38.69,3.08 13.93,-5.33 22.81,-14.56 26.55,-27.72 3.75,-13.17 1.67,-29.99 -6.21,-50.56zm246.24 -198.56c9.3,2.32 18.31,6.88 27.01,13.86 8.69,6.94 16.69,16.29 24.02,28.06 7.04,11.32 11.76,22.91 14.18,34.8 2.39,11.86 2.57,22.96 0.52,33.4 -2.08,10.76 -5.82,20.27 -11.36,28.51 -5.52,8.24 -12.79,15.19 -21.82,20.81 -9.21,5.74 -18.66,9.38 -28.28,10.94 -9.67,1.59 -19.3,0.73 -28.91,-2.57 -11.93,-4.17 -23.5,-11.43 -34.7,-21.92 -11.17,-10.43 -22.55,-24.91 -34.1,-43.47 -4.08,-6.55 -8.01,-13.46 -11.65,-20.61 -3.66,-7.19 -7.47,-16.1 -11.48,-26.76 -3.5,-9.53 -5.99,-18.83 -7.52,-27.91 -1.53,-9.15 -1.47,-17.67 0.25,-25.72 2.17,-10.33 7.09,-20.55 14.71,-30.65 7.62,-10.18 19.27,-21.1 34.88,-32.88 5.55,-4.2 11.53,-8.61 17.92,-13.26 6.38,-4.67 11.28,-8.22 14.62,-10.67l14.26 22.91c-4.37,3.1 -9.02,6.43 -13.94,10.05 -4.91,3.62 -10.52,7.73 -16.84,12.41 -8.38,6.16 -16.66,13.49 -24.76,21.9 -8.13,8.36 -13.02,16.65 -14.75,24.77 -1.36,6.02 -0.93,13.22 1.23,21.6 2.21,8.36 5.54,17.13 9.99,26.26 3.59,-8.66 8.09,-16.94 13.48,-24.72 5.42,-7.8 12.41,-14.39 20.99,-19.73 7.95,-4.95 16.33,-8.31 25.18,-10.13 8.86,-1.78 17.79,-1.54 26.87,0.72zm26.91 59.05c-9.68,-15.54 -20.61,-25.31 -32.8,-29.26 -12.18,-3.95 -24.76,-1.92 -37.69,6.13 -7.1,4.42 -13.25,9.87 -18.47,16.3 -5.19,6.47 -9.51,13.46 -12.95,20.96 1.2,2.32 2.64,5.03 4.33,8.15 1.73,3.17 3.34,5.97 4.85,8.39 9.51,15.28 18.46,26.96 26.89,35 8.39,8.06 16.47,13.43 24.25,16.13 6.96,2.46 13.27,3.28 18.79,2.45 5.58,-0.86 10.93,-2.88 16.09,-6.09 12.59,-7.83 19.42,-18.69 20.47,-32.62 1.08,-13.89 -3.5,-29.05 -13.76,-45.54zm178.49 -79.55l-28.95 -38.02c-5.09,4.67 -11.54,10.64 -19.27,17.86 -7.78,7.25 -13.62,13.64 -17.57,19.1 -4.71,6.57 -7.62,13.31 -8.68,20.24 -1.05,6.92 1.07,13.89 6.36,20.84 5.96,7.83 12.71,12.06 20.18,12.7 7.46,0.62 15.44,-2.26 23.95,-8.74 7.32,-5.57 12.71,-12.13 16.2,-19.77 3.51,-7.6 6.13,-15.71 7.78,-24.21zm14.64 19.24c-0.81,2.88 -1.86,6.73 -3.09,11.67 -1.27,4.89 -2.76,9.21 -4.59,12.93 -2.49,5.29 -5.2,9.94 -8.16,14 -2.93,4.02 -7.82,8.68 -14.73,13.94 -5.68,4.32 -11.83,7.34 -18.56,9.08 -6.73,1.72 -13.47,2.13 -20.29,1.21 -6.55,-1 -13.05,-3.43 -19.51,-7.28 -6.44,-3.83 -11.99,-8.84 -16.7,-15.03 -7.27,-9.56 -11.41,-19.18 -12.54,-28.97 -1.05,-9.77 1.27,-19.91 6.92,-30.48 5.02,-9.39 12.3,-18.8 21.75,-28.12 9.5,-9.37 20.06,-19 31.68,-28.9l-3.43 -4.51c-4.17,-5.47 -8.38,-9.25 -12.59,-11.36 -4.21,-2.13 -8.47,-3.01 -12.79,-2.57 -4.47,0.34 -9.01,1.8 -13.78,4.43 -4.73,2.61 -9.38,5.69 -13.89,9.12 -5.34,4.07 -11.01,9.64 -16.99,16.8 -5.96,7.12 -11.37,15.03 -16.25,23.66l-1.34 1.03 -17.92 -23.54c3.37,-4.49 8.44,-10.49 15.32,-18.05 6.88,-7.56 14.18,-14.31 22.01,-20.28 9.47,-7.2 18,-12.51 25.66,-16.01 7.6,-3.46 15.47,-5.26 23.6,-5.33 7.9,-0.03 15.39,2.05 22.43,6.13 7.06,4.13 13.87,10.53 20.44,19.16l71.8 94.31 -23.24 17.69 -11.22 -14.73zm78.12 -253.86l-41.35 42.17 105.43 103.36 -20.45 20.86 -105.43 -103.36 -41.34 42.16 -18.14 -17.78 103.14 -105.19 18.14 17.78zm186.72 -80.45c6.54,5.3 11.36,11.37 14.58,18.25 3.18,6.93 4.59,13.93 4.25,21.07 -0.26,8.58 -2.01,16.55 -5.17,23.92 -3.21,7.41 -8.6,15.84 -16.29,25.35l-38.09 47.11 -134.56 -108.8 18.37 -22.71 52.34 42.32 20.26 -25.06c8.18,-10.12 15.04,-17.5 20.59,-22.27 5.56,-4.76 12.64,-8.22 21.21,-10.41 7.26,-1.89 14.49,-1.83 21.74,0.23 7.28,2.01 14.19,5.68 20.77,11zm-18.72 23.66c-4.07,-3.3 -8.22,-5.49 -12.44,-6.59 -4.21,-1.09 -8.59,-0.82 -13.12,0.82 -4.7,1.78 -9.03,4.61 -12.86,8.59 -3.91,3.99 -9.06,9.95 -15.55,17.98l-13.61 16.82 45.67 36.93 13.21 -16.33c6.48,-8.02 11.18,-14.5 14.04,-19.47 2.94,-4.97 4.68,-9.83 5.34,-14.61 0.61,-4.94 0.07,-9.33 -1.58,-13.1 -1.67,-3.82 -4.7,-7.48 -9.1,-11.04zm169.31 -168.35l-18.49 31.24 -98.88 10.58 -7.33 12.38 68.57 40.6 -14.88 25.13 -148.9 -88.16 14.88 -25.13 64.75 38.34c3.74,-6.52 5.67,-12.88 5.76,-18.98 0.06,-6.11 -2.75,-13 -8.45,-20.62 -1.66,-2.27 -3.57,-4.88 -5.86,-7.77 -2.2,-2.91 -4.23,-5.4 -6.06,-7.4 -8.66,-10.3 -13.2,-20.3 -13.58,-29.94 -0.38,-9.63 2.78,-20.06 9.38,-31.22l4.04 -6.82 21.86 12.94 -3.39 5.73c-4.15,7.01 -5.85,13.09 -5.14,18.23 0.74,5.19 4.18,11.22 10.43,18.11 6.28,7.05 10.57,13.51 12.87,19.49 2.34,5.94 3.4,11.61 3.33,17.04l115.09 -13.77zm8.04 -220.08c26.45,12.28 43.84,28.11 52.34,47.51 8.42,19.42 7.76,39.71 -2.06,60.88 -10.14,21.84 -25.55,35.57 -46.17,41.17 -20.64,5.64 -43.71,2.53 -69.19,-9.3 -26.21,-12.16 -43.58,-28.04 -52.08,-47.68 -8.57,-19.61 -7.94,-39.97 1.84,-61.04 9.82,-21.17 24.94,-34.75 45.31,-40.81 20.39,-5.99 43.71,-2.93 70.01,9.27zm-12.7 27.36c-20.2,-9.37 -36.94,-12.66 -50.2,-9.83 -13.28,2.83 -23.05,11.07 -29.38,24.7 -6.37,13.73 -6.39,26.61 0,38.62 6.38,12 19.69,22.68 39.89,32.05 19.59,9.09 36.14,12.27 49.72,9.53 13.58,-2.73 23.54,-11.01 29.91,-24.73 6.28,-13.54 6.21,-26.35 -0.27,-38.39 -6.48,-12.06 -19.69,-22.68 -39.67,-31.95zm100.37 -204.68c8.02,2.35 14.73,5.97 20.02,10.88 5.3,4.87 9.29,10.66 11.89,17.22 3.25,8.27 4.74,16.38 4.45,24.35 -0.32,7.89 -2.01,17.05 -5.03,27.36l-19.13 65.35 -166.07 -48.61 17.88 -61.08c3.58,-12.25 6.55,-21.08 8.97,-26.49 2.37,-5.48 5.94,-10.5 10.62,-15.2 4.91,-4.91 10.34,-8.01 16.44,-9.25 6.05,-1.26 12.65,-0.82 19.85,1.29 7.92,2.32 14.39,6.58 19.41,12.79 4.99,6.15 8.17,13.37 9.45,21.63l1.24 -0.47c4.91,-8.32 11.73,-14.48 20.47,-18.54 8.73,-4.01 18.57,-4.44 29.54,-1.23zm-84.06 16.1c-3.76,-1.11 -7.18,-1.45 -10.28,-1.04 -3.12,0.48 -5.93,1.97 -8.39,4.55 -2.88,3.03 -5.15,6.65 -6.78,10.93 -1.65,4.31 -3.59,10.36 -5.86,18.13l-7.74 26.45 45.09 13.2 9.35 -31.94c1.99,-6.8 3.1,-11.72 3.27,-14.75 0.23,-3.02 -0.21,-6.63 -1.3,-10.64 -0.96,-3.86 -2.99,-6.94 -5.89,-9.27 -2.94,-2.36 -6.75,-4.24 -11.47,-5.62zm75.48 12.82c-5.7,-1.66 -10.5,-2.19 -14.38,-1.55 -3.93,0.61 -8.03,3.32 -12.32,8.01 -2.74,2.95 -4.85,6.36 -6.41,10.21 -1.57,3.84 -3.38,9.26 -5.43,16.28l-9.57 32.69 54.54 15.97 7.06 -24.12c2.93,-10.01 4.79,-17.84 5.59,-23.62 0.86,-5.75 0.62,-10.96 -0.61,-15.61 -1.39,-4.88 -3.49,-8.79 -6.29,-11.66 -2.85,-2.87 -6.91,-5.05 -12.18,-6.6zm77.83 -114.92l-5.26 28.73 -170.21 -31.17 5.26 -28.73 170.21 31.17zm-198.55 -38.61l-6 32.79 -29.67 -5.43 6.01 -32.8 29.66 5.44z"/>
  <path class="fil0 str4" d="M3564.28 1984.34l8.63 -26.69c19.99,7.03 34.43,13.09 43.52,18.24 -2.39,-22.69 -3.68,-38.35 -3.81,-46.86l27.46 0c-0.38,12.44 -1.8,27.98 -4.38,46.67 12.96,-6.51 27.78,-12.57 44.48,-18.05l8.64 26.69c-15.92,5.28 -31.52,8.83 -46.87,10.57 7.68,6.64 18.44,18.56 32.36,35.65l-22.56 16.05c-7.28,-9.93 -15.92,-23.47 -25.85,-40.55 -9.34,17.73 -17.53,31.26 -24.56,40.55l-22.17 -16.05c14.5,-17.99 24.94,-29.85 31.2,-35.65 -16.18,-3.16 -31.52,-6.71 -46.09,-10.57z"/>
  <path class="fil1 str5" d="M3828.23 2115.62c-33.44,957.93 -819.71,1717.22 -1778.23,1717.22 -958.52,0 -1744.79,-759.29 -1778.23,-1717.22"/>
  <path class="fil1 str6" d="M3941.25 1968.95c0.77,22 1.16,44.03 1.16,66.05 0,1045.15 -847.25,1892.41 -1892.41,1892.41 -1045.16,0 -1892.41,-847.26 -1892.41,-1892.41 0,-22.02 0.39,-44.05 1.16,-66.05"/>
  <path class="fil0 str4" d="M435.2 1993.86l8.63 -26.69c19.99,7.03 34.43,13.09 43.52,18.24 -2.39,-22.69 -3.68,-38.35 -3.81,-46.86l27.46 0c-0.38,12.44 -1.8,27.98 -4.38,46.67 12.96,-6.51 27.78,-12.57 44.48,-18.05l8.64 26.69c-15.92,5.28 -31.52,8.83 -46.87,10.57 7.68,6.64 18.44,18.56 32.36,35.65l-22.56 16.05c-7.28,-9.93 -15.92,-23.47 -25.85,-40.55 -9.34,17.73 -17.53,31.26 -24.56,40.55l-22.17 -16.05c14.5,-17.99 24.94,-29.85 31.2,-35.65 -16.18,-3.16 -31.52,-6.71 -46.09,-10.57z"/>
  <polyline class="fil1 str5" points="759.74,1827.7 1052.64,1827.8 1069.8,1829.38 "/>
  <polyline class="fil1 str5" points="749.74,2267.7 1042.64,2267.8 1059.8,2269.38 "/>
  <polyline class="fil1 str5" points="3043.69,1826.91 3336.59,1827.01 3353.75,1828.59 "/>
  <polyline class="fil1 str5" points="3040.78,2271.07 3333.68,2271.17 3350.84,2272.75 "/>
 </g>
</svg>
