<?xml version="1.0" encoding="UTF-8"?>
<!DOCTYPE svg PUBLIC "-//W3C//DTD SVG 1.1//EN" "http://www.w3.org/Graphics/SVG/1.1/DTD/svg11.dtd">
<!-- Creator: CorelDRAW 2019 (64-Bit) -->
<svg xmlns="http://www.w3.org/2000/svg" xml:space="preserve" width="41mm" height="41mm" version="1.1" style="shape-rendering:geometricPrecision; text-rendering:geometricPrecision; image-rendering:optimizeQuality; fill-rule:evenodd; clip-rule:evenodd"
viewBox="0 0 4100 4100"
 xmlns:xlink="http://www.w3.org/1999/xlink">
 <defs>
  <style type="text/css">
   <![CDATA[
    .str7 {stroke:#393185;stroke-width:15;stroke-miterlimit:22.9256}
    .str4 {stroke:#393185;stroke-width:7.62;stroke-miterlimit:22.9256}
    .str1 {stroke:#393185;stroke-width:19.02;stroke-linecap:round;stroke-linejoin:round;stroke-miterlimit:22.9256}
    .str0 {stroke:#393185;stroke-width:44.66;stroke-linecap:round;stroke-linejoin:round;stroke-miterlimit:22.9256}
    .str2 {stroke:#393185;stroke-width:35;stroke-linecap:round;stroke-linejoin:round;stroke-miterlimit:22.9256}
    .str6 {stroke:#393185;stroke-width:20;stroke-linecap:round;stroke-linejoin:round;stroke-miterlimit:22.9256}
    .str5 {stroke:#393185;stroke-width:10;stroke-linecap:round;stroke-linejoin:round;stroke-miterlimit:22.9256}
    .str3 {stroke:#393185;stroke-width:7.62;stroke-linecap:round;stroke-linejoin:round;stroke-miterlimit:22.9256}
    .fil3 {fill:none}
    .fil2 {fill:none;fill-rule:nonzero}
    .fil0 {fill:#393185}
    .fil1 {fill:#393185;fill-rule:nonzero}
   ]]>
  </style>
 </defs>
 <g id="Слой_x0020_1">
  <metadata id="CorelCorpID_0Corel-Layer"/>
  <g id="_990747504">
   <g>
    <path class="fil0" d="M1996.99 1343.42c2.88,-11.9 10.43,-22.15 20.86,-29.13 3.32,29.39 16.38,51.36 32,51.36 15.64,0 28.67,-21.97 31.98,-51.36 10.43,6.98 18.02,17.24 20.85,29.13 -5.26,29.5 -26.9,51.6 -52.83,51.6 -25.91,0 -47.56,-22.1 -52.86,-51.6zm260.01 13.73c-42.57,8.38 -89.45,16.84 -130.51,23.53l0 -47.6c41.3,6.72 88.07,15.14 130.51,23.49 0.31,0.07 0.31,0.52 0,0.58zm-283.77 -24.07l0 47.58c-41.1,-6.67 -87.95,-15.13 -130.55,-23.5 -0.31,-0.07 -0.31,-0.52 0,-0.59 42.47,-8.35 89.21,-16.77 130.55,-23.49zm436.89 -19.88c-17.95,0 -32.99,12.17 -37.45,28.68 -61.13,-16.46 -197.32,-41.46 -272.24,-52.69l-6.32 -36.35c0,-3.35 -1.37,-6.37 -3.56,-8.56 -2.19,-2.21 -5.23,-3.56 -8.59,-3.56l-13.05 0c0.24,-2.6 0.37,-5.25 0.37,-7.98 0,-6.62 -0.72,-12.86 -1.92,-18.47 11.05,-10.46 18.54,-28.99 18.54,-42.55 0,-19.92 -16.14,-36.08 -36.05,-36.08 -19.93,0 -36.07,16.16 -36.07,36.08 0,13.56 7.49,32.09 18.53,42.55 -1.19,5.61 -1.87,11.85 -1.87,18.47 0,2.73 0.13,5.38 0.34,7.98l-13.04 0c-3.34,0 -6.39,1.35 -8.57,3.56 -2.19,2.19 -3.56,5.22 -3.56,8.56l-6.33 36.35c-74.91,11.23 -211.11,36.24 -272.25,52.69 -4.47,-16.51 -19.52,-28.68 -37.44,-28.68 -21.46,0 -38.84,17.39 -38.84,38.83 0,21.44 17.38,38.83 38.84,38.83 14.58,0 27.26,-8.05 33.89,-19.95 60.01,16.64 202.76,42.81 278.47,54.05l3.66 20.91c0,3.34 1.37,6.37 3.56,8.58 2.18,2.19 5.23,3.54 8.57,3.54l32.11 0 32.12 0c3.35,0 6.39,-1.35 8.58,-3.54 2.19,-2.21 3.55,-5.24 3.55,-8.58l3.63 -20.91c75.7,-11.24 218.46,-37.41 278.47,-54.05 6.64,11.9 19.32,19.95 33.92,19.95 21.44,0 38.85,-17.38 38.85,-38.83 0,-21.44 -17.41,-38.83 -38.85,-38.83zm-294.37 605.77c-27.67,-27.87 -28.66,-65.03 -28.48,-87.76 0.03,-4.7 -3.8,-8.51 -8.51,-8.51l-57.83 -0.01c-4.71,0 -8.55,3.82 -8.52,8.52 0.18,22.73 -0.82,59.89 -28.44,87.76 -5.44,5.46 -1.85,14.69 5.84,14.69l120.09 0c7.69,0 11.25,-9.23 5.85,-14.69zm-21.64 -218.79l0 -211.28c0,-6.7 -5.44,-12.14 -12.15,-12.14l-64.22 0c-6.7,0 -12.13,5.44 -12.13,12.14l0 211.28c0,6.7 5.43,12.12 12.13,12.12l64.23 0c6.7,0 12.13,-5.42 12.14,-12.12zm24.42 88.64l0 -42.63c0,-8.34 -6.78,-15.12 -15.13,-15.12l-107.12 0c-8.34,0 -15.12,6.78 -15.12,15.12l0 42.63c0,8.33 6.78,15.1 15.12,15.1l107.13 0c8.34,0 15.11,-6.77 15.12,-15.1zm83.89 191.43l0 -13.92c0,-7.68 -6.22,-13.9 -13.91,-13.9l-277.3 0c-7.71,0 -13.93,6.22 -13.93,13.9l0.01 13.92c0,7.69 6.21,13.91 13.92,13.91l277.3 0c7.7,0 13.91,-6.22 13.91,-13.91zm130.8 120.53l-566.72 0c-11.39,0 -20.62,-9.25 -20.62,-20.64l0 0c0,-37.12 30.08,-67.21 67.19,-67.21l473.54 0c37.14,0 67.23,30.09 67.23,67.21l0 0c0,11.39 -9.24,20.64 -20.62,20.64z"/>
    <path class="fil0" d="M1469.7 1791c-10.4,0 -17.06,11.66 -11.22,20.28 31.22,46.02 123.03,79.38 231.49,79.38 108.47,0 200.27,-33.36 231.53,-79.38 5.81,-8.62 -0.82,-20.28 -11.22,-20.28l-440.58 0z"/>
    <g>
     <path class="fil1" d="M1894.16 1798.28c2.24,4.94 0.05,10.77 -4.89,13.01 -4.94,2.24 -10.77,0.05 -13.01,-4.89l17.9 -8.12zm-195.24 -430.81l195.24 430.81 -17.9 8.12 -195.24 -430.81 0 -8.12 17.9 0zm-17.9 8.12c-2.24,-4.94 -0.05,-10.77 4.89,-13.01 4.94,-2.24 10.77,-0.05 13.01,4.89l-17.9 8.12zm-195.21 422.69l195.21 -430.81 17.9 8.12 -195.21 430.81 -17.9 -8.12zm17.9 8.12c-2.24,4.94 -8.07,7.13 -13.01,4.89 -4.94,-2.24 -7.13,-8.07 -4.89,-13.01l17.9 8.12z"/>
    </g>
    <path class="fil0" d="M2189.43 1791c-10.39,0 -17.06,11.66 -11.21,20.28 31.22,46.02 123.03,79.38 231.49,79.38 108.47,0 200.28,-33.36 231.53,-79.38 5.81,-8.62 -0.82,-20.28 -11.21,-20.28l-440.6 0z"/>
    <g>
     <path class="fil1" d="M2613.9 1798.28c2.24,4.94 0.05,10.77 -4.89,13.01 -4.94,2.24 -10.77,0.05 -13.01,-4.89l17.9 -8.12zm-195.24 -430.81l195.24 430.81 -17.9 8.12 -195.24 -430.81 0 -8.12 17.9 0zm-17.9 8.12c-2.24,-4.94 -0.05,-10.77 4.89,-13.01 4.94,-2.24 10.77,-0.05 13.01,4.89l-17.9 8.12zm-195.21 422.69l195.21 -430.81 17.9 8.12 -195.21 430.81 -17.9 -8.12zm17.9 8.12c-2.24,4.94 -8.07,7.13 -13.01,4.89 -4.94,-2.24 -7.13,-8.07 -4.89,-13.01l17.9 8.12z"/>
    </g>
   </g>
   <g>
    <path class="fil2 str0" d="M2049.98 3155.7l-711.01 -410.51 1422.01 0 -711 410.51zm-957.56 -982.2l0 -676.35 957.56 -552.86 957.55 552.86 0 676.35 -1915.11 0z"/>
    <line class="fil2 str1" x1="2688.61" y1="1031.14" x2="2688.62" y2= "1031.14" />
    <g id="_985341760">
     <path class="fil2 str1" d="M1768.98 880.72c16.78,8.75 36.89,14.57 63.61,14.57 49.89,0 76.73,-20.29 101.82,-42.12m228.15 -0.27c25.18,21.93 52.06,42.39 102.16,42.39 27.19,0 47.53,-6.01 64.48,-15"/>
     <path class="fil2 str1" d="M1723.75 892.44c11.86,10.43 23.68,20.9 37.72,29.41m182.03 -31.28c20.91,-18.35 42.4,-36.22 76.95,-42.57m56.16 -0.04c34.52,6.29 56.01,24.04 76.88,42.34m183.14 31.09c13.96,-8.57 25.74,-19.07 37.59,-29.49"/>
     <path class="fil2 str1" d="M1680.28 905.62c14.74,7.73 26.91,17.73 38.73,28.03m660.02 -0.58c11.88,-10.33 24.15,-20.31 39.06,-27.97"/>
     <path class="fil2 str1" d="M1411.64 1030.98c59.7,-3.99 84.03,-39.07 118.34,-65.39m61.77 -27.47c7.56,-1.19 15.72,-1.85 24.63,-1.85 23.66,0 42.14,4.55 57.71,11.67m750.33 -0.52c15.31,-6.81 33.45,-11.15 56.51,-11.15 10.77,0 20.47,0.96 29.32,2.66m52.69 23.37c37.3,26.98 61.28,65.7 125.69,68.85"/>
     <path class="fil2 str1" d="M1353.83 1069.54c13.09,4.48 28.2,7.18 46.38,7.18 4.2,0 8.23,-0.16 12.12,-0.44m129.79 -73.89c9.31,-5.96 19.56,-11.09 31.48,-14.76m965 5.64l0.2 0.1m149.14 83.1c2.99,0.16 6.06,0.25 9.23,0.25 18.98,0 34.63,-2.95 48.12,-7.79"/>
     <path class="fil2 str1" d="M1318.16 1096.02c11,7.97 23.16,14.92 37.85,19.63m1387.16 -0.59c14.48,-4.89 26.48,-11.98 37.38,-20.02"/>
     <path class="fil2 str1" d="M1290.15 1118.17c9.81,8.63 19.54,17.32 30.47,24.96m1457.52 -0.98c10.82,-7.72 20.51,-16.46 30.33,-25.07"/>
     <path class="fil2 str1" d="M1262.57 1141.31c10.95,7.53 20.68,16.15 30.44,24.74m1512.65 -1.12c9.76,-8.59 19.54,-17.16 30.61,-24.6"/>
     <path class="fil2 str1" d="M1230.49 1170.27c13.87,4.75 25.46,11.5 36,19.18m1565.89 -1.04c10.64,-7.59 22.37,-14.21 36.45,-18.77"/>
     <path class="fil2 str1" d="M1191.19 1208.59c17.79,0.72 32.51,4.15 45.28,9.28m1626.3 -0.73c12.94,-4.96 27.89,-8.17 45.94,-8.64"/>
     <path class="fil2 str1" d="M1144.67 1258.8c11.43,-3.16 24.35,-5.01 39.37,-5.01 5.8,0 11.26,0.29 16.47,0.81m1698.76 -0.23c4.49,-0.37 9.19,-0.58 14.11,-0.58 16.56,0 30.57,2.25 42.83,6.02l0.01 0"/>
     <path class="fil2 str1" d="M1072.6 1349.63c23.7,-20.78 46.55,-42.3 86.69,-48.62m1781.84 0.51c42,7.56 64.78,32.05 90.46,53.96"/>
     <path class="fil2 str1" d="M1019.28 1430.59c37.32,-14.63 57.97,-43.92 88.82,-64.24m1886.34 3.49c28.98,20.66 49.73,48.55 86.96,61.94"/>
     <path class="fil2 str1" d="M989.19 1483.6c23.37,-3.11 40.99,-11.28 56.19,-21.57m2010.83 2.7c14.87,9.38 32.16,16.63 54.76,19.21"/>
     <path class="fil2 str1" d="M965.43 1530.3l2.4 0.03c16.87,0 31.11,-2.32 43.54,-6.23m2077.69 0.88c11.73,3.37 25.03,5.35 40.59,5.35l4.86 -0.07"/>
     <path class="fil2 str1" d="M945.5 1574.19c6.92,0.96 14.32,1.5 22.33,1.5 6.89,0 13.32,-0.39 19.39,-1.11m2125.67 0.27c5.3,0.54 10.86,0.84 16.76,0.84 8.93,0 17.08,-0.65 24.66,-1.85"/>
     <path class="fil2 str1" d="M928.38 1616.03c11.38,3.14 24.23,5 39.16,5.02m2164.9 -0.02c14.85,-0.23 27.61,-2.3 38.9,-5.66"/>
     <path class="fil2 str1" d="M913.62 1656.29c10.81,4.55 23.01,7.85 37.32,9.31m2198.01 -0.27c14.22,-1.69 26.32,-5.24 37.06,-9.99"/>
     <path class="fil2 str1" d="M900.79 1695.37c10.42,5.83 22.11,10.55 35.92,13.4m2226.42 -0.51c13.71,-3.1 25.31,-8.07 35.67,-14.12"/>
     <path class="fil2 str1" d="M889.7 1733.83c10.23,6.98 21.53,13.01 34.94,17.18m2250.51 -0.75c13.31,-4.44 24.53,-10.7 34.72,-17.89"/>
     <path class="fil2 str1" d="M879.96 1772.05c10.22,7.98 21.28,15.21 34.41,20.62m2271.03 -0.99c13.01,-5.68 23.99,-13.15 34.2,-21.29"/>
     <path class="fil2 str1" d="M871.48 1810.51c10.4,8.78 21.36,17.07 34.33,23.6m2288.14 -1.19c12.85,-6.8 23.74,-15.31 34.17,-24.23"/>
     <path class="fil2 str1" d="M864.31 1849.69c10.68,9.34 21.6,18.47 34.41,25.93m2302.35 -1.39c12.67,-7.72 23.53,-17.02 34.27,-26.45"/>
     <path class="fil2 str1" d="M858.25 1889.77c11.11,9.77 22.14,19.61 34.98,27.87m2313.36 -1.56c12.67,-8.5 23.65,-18.48 34.84,-28.28"/>
     <path class="fil2 str1" d="M853.47 1930.93c11.56,10.04 22.74,20.41 35.62,29.29m2321.66 -1.66c12.74,-9.11 23.89,-19.61 35.56,-29.65"/>
     <path class="fil2 str1" d="M850.1 1973.39c12.04,10.29 23.46,21.13 36.56,30.49m2326.61 -1.79c12.92,-9.56 24.31,-20.48 36.46,-30.72"/>
     <path class="fil2 str1" d="M848.07 2017.02c12.49,10.55 24.19,21.79 37.61,31.52m2328.61 -1.85c13.24,-9.93 24.91,-21.25 37.53,-31.72"/>
     <path class="fil2 str1" d="M847.76 2062.11c12.89,10.86 24.92,22.49 38.84,32.45m2326.87 -1.91c13.72,-10.18 25.72,-21.89 38.76,-32.67"/>
     <path class="fil2 str1" d="M849.04 2108.56c13.22,11.24 25.63,23.19 40.23,33.22m2321.62 -1.9c14.38,-10.3 26.74,-22.35 40.12,-33.51"/>
     <path class="fil2 str1" d="M852.38 2156.79c13.43,11.62 26.28,23.78 41.77,33.6m2311.9 -1.79c15.3,-10.16 28.11,-22.52 41.74,-34.15"/>
     <path class="fil2 str1" d="M857.78 2206.86c13.52,11.88 26.88,23.91 43.46,33.1m2297.77 -1.6c16.44,-9.63 29.78,-21.99 43.52,-34"/>
     <path class="fil2 str1" d="M1075.01 2753.68c9.61,-8.45 19.18,-16.92 29.93,-24.37m1889.25 1.18c10.64,7.56 20.16,16.09 29.78,24.54"/>
     <path class="fil2 str1" d="M1095.73 2781.47c9.88,-7.75 20.53,-14.81 33.09,-20.21m1841.7 0.85c12.38,5.58 22.93,12.77 32.76,20.6"/>
     <path class="fil2 str1" d="M1119.27 2811.23c11.25,-6 23.97,-10.7 39.21,-13.2m1782.7 0.39c15.04,2.71 27.62,7.6 38.74,13.76"/>
     <path class="fil2 str1" d="M1148.42 2845.44c10.49,-2.56 22.22,-4.03 35.62,-4.03 4.61,0 9.01,0.18 13.25,0.52m1705.6 -0.2c3.39,-0.2 6.87,-0.32 10.49,-0.32 14.29,0 26.68,1.7 37.7,4.57"/>
     <path class="fil2 str1" d="M1186.71 2886.83c73.24,1.08 96.04,46.55 139.08,74.2m1503.39 -46.6c20.84,-15.54 45.62,-27.62 84.12,-27.64"/>
     <path class="fil2 str1" d="M1251.32 2948.71c48.43,27.23 69.51,78.53 148.89,78.53 5.73,0 11.13,-0.29 16.28,-0.79m1266.68 0.22c4.46,0.37 9.12,0.57 14,0.57 82.76,0 102.16,-55.76 155.25,-81.88"/>
     <path class="fil2 str1" d="M1416.16 3071.85c20.05,-1.93 35.99,-7.46 49.73,-14.94m1166.94 0.74c13.95,7.38 30.19,12.75 50.64,14.41"/>
     <path class="fil2 str1" d="M1466.93 3101.71c12.81,-7.13 23.71,-15.95 34.25,-25.08m1095.99 0.86c10.6,9.13 21.6,17.91 34.58,24.94"/>
     <path class="fil2 str1" d="M1502.55 3120.81c10.52,-9.16 20.75,-18.56 32.26,-26.85m1028.8 0.78c11.42,8.34 21.62,17.77 32.15,26.9"/>
     <path class="fil2 str1" d="M1537.07 3137.72c13.12,-9.13 27.99,-16.74 46.84,-20.84m152.4 54.49c23.6,19.92 50.05,37.31 96.28,37.31 17.93,0 32.87,-2.64 45.83,-7.01m341.24 0.27c12.78,4.21 27.49,6.74 45.06,6.74 45.42,0 71.76,-16.79 95.05,-36.25m155.39 -55.15c18.52,4.31 33.18,12 46.15,21.18"/>
     <path class="fil2 str1" d="M1589.84 3161.11c8.09,-1.38 16.88,-2.16 26.54,-2.16 55.45,0 82.46,25.01 110.18,49.37m164.64 33.61c18.31,-8.56 32.6,-20.68 46.64,-33.01m221.84 0.22c14.12,12.39 28.52,24.55 47.03,33.08m162.86 -32.86c28.16,-24.68 55.14,-50.41 111.36,-50.41 10.41,0 19.81,0.9 28.4,2.49"/>
     <path class="fil2 str1" d="M1945.24 3247.78c15.37,-13.44 31.23,-26.44 52.53,-34.67m101.96 0.1c21.3,8.28 37.16,21.32 52.56,34.79"/>
     <path class="fil2 str1" d="M2020.97 3252.02c8.39,-1.51 17.55,-2.35 27.65,-2.35 10.18,0 19.4,0.85 27.85,2.38"/>
    </g>
    <g id="_1311083376">
     <path class="fil2 str1" d="M1768.98 880.72c16.78,8.75 36.89,14.57 63.61,14.57 49.89,0 76.73,-20.29 101.82,-42.12m228.15 -0.27c25.18,21.93 52.06,42.39 102.16,42.39 27.19,0 47.53,-6.01 64.48,-15"/>
     <path class="fil2 str1" d="M1723.75 892.44c27.27,23.99 54.3,48.21 108.84,48.21 97.7,0 107.04,-77.79 187.86,-92.65m56.16 -0.04c81.04,14.77 90.31,92.69 188.11,92.69 54.98,0 82.01,-24.58 109.5,-48.75"/>
     <path class="fil2 str1" d="M1680.28 905.62c50.9,26.69 71.09,80.39 152.31,80.39 108.01,0 108.01,-95.09 216.03,-95.09 108.06,0 108.06,95.09 216.1,95.09 81.8,0 101.74,-54.41 153.37,-80.91"/>
     <path class="fil2 str1" d="M1411.64 1030.98c59.7,-3.99 84.03,-39.07 118.34,-65.39m61.77 -27.47c7.56,-1.19 15.72,-1.85 24.63,-1.85 100.79,0 107.64,82.62 195.66,93.83m475.4 -0.28c86.03,-12.28 93.57,-93.55 193.49,-93.55 10.77,0 20.47,0.96 29.32,2.66m52.69 23.37c37.3,26.98 61.28,65.7 125.69,68.85"/>
     <path class="fil2 str1" d="M1353.83 1069.54c13.09,4.48 28.2,7.18 46.38,7.18 108.09,0 108.09,-95.09 216.17,-95.09 77.94,0 99.7,49.42 146.26,77m515.76 17.54l0.01 0m57.58 -18.32c45.69,-27.72 67.75,-76.22 144.94,-76.22 108.12,0 108.12,95.09 216.24,95.09 18.98,0 34.63,-2.95 48.12,-7.79"/>
     <path class="fil2 str1" d="M1318.16 1096.02c20.42,14.79 44.82,26.07 82.05,26.07 108.09,0 108.09,-95.09 216.17,-95.09 56.85,0 83.81,26.3 112.31,51.23m641.01 -0.92c28.11,-24.66 55.09,-50.31 111.23,-50.31 108.12,0 108.12,95.09 216.24,95.09 38.04,0 62.7,-11.79 83.38,-27.05"/>
     <path class="fil2 str1" d="M1290.15 1118.17c27.69,24.35 54.7,49.28 110.06,49.28 108.09,0 108.09,-95.09 216.17,-95.09 35.95,0 59.95,10.52 79.94,24.56m669.09 29.49l0 -0.01m36.8 -30.32c19.75,-13.62 43.5,-23.72 78.72,-23.72 108.12,0 108.12,95.09 216.24,95.09 56.19,0 83.16,-25.69 111.3,-50.37"/>
     <path class="fil2 str1" d="M1262.57 1141.31c40.95,28.16 64.67,71.5 137.64,71.5 108.09,0 108.09,-95.09 216.17,-95.09 13.79,0 25.81,1.56 36.53,4.26m793.37 -0.46c10.24,-2.42 21.66,-3.8 34.65,-3.8 108.12,0 108.12,95.09 216.24,95.09 73.82,0 97.24,-44.35 139.1,-72.48"/>
     <path class="fil2 str1" d="M1230.49 1170.27c64.7,22.16 79.84,87.9 169.72,87.9 6.58,0 12.75,-0.36 18.57,-1.02m108.51 -62.65c11.89,-9.41 24.87,-17.85 40.9,-23.61m870.73 -2.04l0.01 0m98.98 5.58c8.51,3.82 16.15,8.41 23.28,13.44m120.56 69.6c4.9,0.45 10.01,0.7 15.42,0.7 90.75,0 105.32,-67.03 171.66,-88.53"/>
     <path class="fil2 str1" d="M1191.19 1208.59c82.78,3.37 99.32,65.01 160.8,87.12m1161.04 -84.07l0.03 0.01m74.48 43l0.04 0.03m79.86 46.11l0.03 0.01m79.52 -5.67c60.78,-22.82 77.46,-84.43 161.72,-86.63"/>
     <path class="fil2 str1" d="M1144.67 1258.8c11.43,-3.16 24.35,-5.01 39.37,-5.01 67.34,0 92.73,36.91 128.43,64.74m1427.74 24.28l0.02 -0.01m45.78 -25.14c35.14,-27.73 60.7,-63.87 127.37,-63.87 16.56,0 30.57,2.25 42.83,6.02l0.01 0"/>
     <path class="fil2 str1" d="M1072.6 1349.63c28.18,-24.71 55.16,-50.47 111.44,-50.47 46.51,0 73,17.61 96.71,37.68m1500.64 29.75l0.02 -0.01m36.28 -30.63c23.45,-19.7 49.85,-36.79 95.69,-36.79 60.75,0 87.38,30.02 118.21,56.32"/>
     <path class="fil2 str1" d="M1019.28 1430.59c60.55,-23.73 77.21,-86.07 164.76,-86.07 25.2,0 44.53,5.17 60.72,13.1m1568.56 27.4l0.01 -0.01m40.73 -28.06c15.9,-7.54 34.83,-12.43 59.32,-12.43 89.1,0 104.81,64.52 168.02,87.26"/>
     <path class="fil2 str1" d="M989.19 1483.6c87.25,-11.6 94.37,-93.71 194.85,-93.71l4.71 0.07m1659.56 15.26l0.02 -0.01m62.84 -15.29l2.21 -0.03c101.54,-0.01 107.76,83.79 197.59,94.05"/>
     <path class="fil2 str1" d="M965.43 1530.3l2.4 0.03c35.95,0 59.94,-10.53 79.93,-24.57m1853.32 -70.07l0.03 0m151.12 71.81c19.5,13.16 42.96,22.83 77.42,22.83l4.86 -0.07"/>
     <path class="fil2 str1" d="M945.5 1574.19c6.92,0.96 14.32,1.5 22.33,1.5 35.95,0 59.94,-10.53 79.93,-24.57m1959.77 -35.05l0.04 0.04m44.66 36.75c19.5,13.16 42.96,22.83 77.42,22.83 8.93,0 17.08,-0.65 24.66,-1.85"/>
     <path class="fil2 str1" d="M928.38 1616.03c11.45,3.16 24.4,5.02 39.45,5.02 35.95,0 59.94,-10.52 79.93,-24.57m1959.77 -35.05l0.04 0.03m44.66 36.76c19.5,13.16 42.96,22.83 77.42,22.83 16.05,0 29.7,-2.11 41.69,-5.68"/>
     <path class="fil2 str1" d="M913.62 1656.29c14.83,6.24 32.3,10.14 54.21,10.14 35.95,0 59.94,-10.53 79.93,-24.57m1959.77 -35.05l0.04 0.03m44.66 36.76c19.5,13.16 42.96,22.83 77.42,22.83 22.99,0 41.06,-4.32 56.36,-11.09"/>
     <path class="fil2 str1" d="M900.79 1695.37c17.46,9.76 38.47,16.41 67.04,16.41 35.95,0 59.94,-10.53 79.93,-24.57m1959.77 -35.05l0.04 0.04m44.66 36.75c19.5,13.16 42.96,22.83 77.42,22.83 29.74,0 51.29,-7.2 69.15,-17.64"/>
     <path class="fil2 str1" d="M889.7 1733.83c19.64,13.4 43.25,23.3 78.13,23.3 35.95,0 59.94,-10.52 79.93,-24.56m1959.77 -35.05l0.04 0.04m44.66 36.75c19.5,13.16 42.96,22.82 77.42,22.82 36.13,0 60.17,-10.62 80.22,-24.76"/>
     <path class="fil2 str1" d="M879.96 1772.05c21.64,16.89 47.03,30.44 87.87,30.44 35.95,0 59.94,-10.53 79.93,-24.57m1959.77 -35.05l0.04 0.04m44.66 36.75c19.5,13.16 42.96,22.83 77.42,22.83 42.14,0 67.85,-14.47 89.95,-32.1"/>
     <path class="fil2 str1" d="M871.48 1810.51c23.61,19.93 50.08,37.34 96.35,37.34 35.95,0 59.94,-10.53 79.93,-24.57m1959.77 -35.05l0.04 0.04m44.66 36.75c19.5,13.16 42.96,22.83 77.42,22.83 47.67,0 74.3,-18.5 98.47,-39.16"/>
     <path class="fil2 str1" d="M864.31 1849.69c25.57,22.36 52.51,43.52 103.52,43.52 35.95,0 59.94,-10.53 79.93,-24.57m1959.77 -35.05l0.04 0.04m44.66 36.75c19.5,13.16 42.96,22.83 77.42,22.83 52.44,0 79.43,-22.38 105.69,-45.43"/>
     <path class="fil2 str1" d="M858.25 1889.77c27.51,24.19 54.55,48.82 109.58,48.82 35.95,0 59.94,-10.52 79.93,-24.57m1959.77 -35.05l0.04 0.03m44.66 36.76c19.5,13.16 42.96,22.83 77.42,22.83 56.51,0 83.47,-26 111.78,-50.79"/>
     <path class="fil2 str1" d="M853.47 1930.93c29.28,25.44 56.14,53.02 114.36,53.02 35.95,0 59.94,-10.52 79.93,-24.57m1959.77 -35.05l0.04 0.03m44.66 36.76c19.5,13.16 42.96,22.83 77.42,22.83 59.75,0 86.47,-29.06 116.66,-55.04"/>
     <path class="fil2 str1" d="M850.1 1973.39c30.64,26.2 57.29,55.92 117.73,55.92 35.95,0 59.94,-10.52 79.93,-24.57m1959.77 -35.05l0.04 0.03m44.66 36.76c19.5,13.16 42.96,22.83 77.42,22.83 61.99,0 88.43,-31.27 120.08,-57.94"/>
     <path class="fil2 str1" d="M848.07 2017.02c31.5,26.61 57.99,57.64 119.76,57.64 35.95,0 59.94,-10.53 79.93,-24.57m1959.77 -35.05l0.04 0.04m44.66 36.75c19.5,13.16 42.96,22.83 77.42,22.83 63.34,0 89.57,-32.65 122.17,-59.69"/>
     <path class="fil2 str1" d="M847.76 2062.11c31.64,26.67 58.09,57.91 120.07,57.91 35.95,0 59.94,-10.53 79.93,-24.57m1959.77 -35.05l0.04 0.04m44.66 36.75c19.5,13.16 42.96,22.83 77.42,22.83 63.61,0 89.79,-32.93 122.59,-60.04"/>
     <path class="fil2 str1" d="M849.04 2108.56c31.09,26.42 57.66,56.81 118.79,56.81 35.95,0 59.94,-10.52 79.93,-24.56m1959.77 -35.05l0.04 0.04m44.66 36.75c19.5,13.16 42.96,22.82 77.42,22.82 62.81,0 89.12,-32.11 121.36,-59"/>
     <path class="fil2 str1" d="M852.38 2156.79c23.06,19.96 44.39,41.46 80.36,50.07m2074.79 -55.73l0.04 0.04m159.69 55.06c35.84,-9.36 56.95,-31.66 80.55,-51.8"/>
     <path class="fil2 str1" d="M857.81 2206.89c15.72,13.81 31.22,27.81 51.82,37.33m2278.19 0c21.83,-10.09 37.94,-25.2 54.64,-39.8"/>
     <line class="fil2 str1" x1="2669.39" y1="2798.07" x2="2669.41" y2= "2798.08" />
     <path class="fil2 str1" d="M1141.04 2756.76c12.3,-3.8 26.37,-6.05 43,-6.05 108.09,0 108.09,95.08 216.17,95.08 7.62,0 14.68,-0.49 21.3,-1.37m1201.28 -19.45l0.02 0.01m55.18 19.72c6,0.7 12.38,1.09 19.18,1.09 108.08,0 108.08,-95.08 216.21,-95.08 17.8,0 32.67,2.56 45.57,6.87"/>
     <path class="fil2 str1" d="M1119.33 2811.2c5.62,-2.99 11.6,-5.67 18.09,-7.9m3.62 -1.18c12.3,-3.81 26.37,-6.07 43,-6.07 108.09,0 108.09,95.1 216.17,95.1 30.43,0 52.29,-7.54 70.41,-18.37m1119.02 -28.66l0.01 0.01m38.39 29.41c17.87,10.42 39.42,17.61 69.13,17.61 108.08,0 108.08,-95.1 216.21,-95.1 17.81,0 32.67,2.59 45.57,6.89m1.07 0.36c7.16,2.46 13.72,5.46 19.84,8.84"/>
     <path class="fil2 str1" d="M1148.44 2845.44c10.48,-2.56 22.21,-4.03 35.6,-4.03 108.09,0 108.09,95.1 216.17,95.1 51.5,0 78.46,-21.58 104.26,-44.19m1052.23 -29.19l0.01 0.01m37.21 30.1c25.5,22.27 52.44,43.27 103.25,43.27 108.08,0 108.08,-95.1 216.21,-95.1 14.28,0 26.65,1.69 37.67,4.56"/>
     <path class="fil2 str1" d="M1186.73 2886.83c105.4,1.57 106.31,95.06 213.48,95.06 72.41,0 96.31,-42.66 136.69,-70.84m974 -21.47l0.02 0m50.7 22.31c39.68,28.17 63.84,70 135.55,70 108.05,0 108.08,-95.04 216.11,-95.1"/>
     <path class="fil2 str1" d="M1251.32 2948.71c48.42,27.23 69.51,78.53 148.89,78.53 94.59,0 106.39,-72.82 180.31,-91.01m692.3 90.81l0.01 0m245.8 -90.33c72.3,18.93 84.71,90.53 178.54,90.53 82.74,0 102.16,-55.74 155.22,-81.87"/>
     <path class="fil2 str1" d="M1416.15 3071.85c92.43,-8.87 97.75,-94.34 200.23,-94.34 20.28,0 36.75,3.34 50.85,8.78m35.54 20.53c33.15,25.42 57,59 112.37,64.87m395.95 -9.01l0.01 0m74.4 8.62c49.17,-6.34 72.99,-34.95 102.08,-58.93m49.29 -28.46c12.55,-4.01 26.95,-6.4 44.06,-6.4 103.36,0 107.92,86.89 202.57,94.55"/>
     <path class="fil2 str1" d="M1466.93 3101.71c48.82,-27.16 69.76,-78.84 149.45,-78.84 108.12,0 108.12,95.09 216.21,95.09 19.3,0 35.14,-3.05 48.77,-8.03m336.21 0.6c13.26,4.63 28.62,7.43 47.15,7.43 108.13,0 108.13,-95.09 216.21,-95.09 80.44,0 101.05,52.62 150.83,79.57"/>
     <path class="fil2 str1" d="M1502.6 3120.77c29.06,-25.32 55.95,-52.54 113.78,-52.54 108.12,0 108.12,95.09 216.21,95.09 40.98,0 66.42,-13.7 88.1,-30.69m220.91 -29.83l0 0.01m36.14 30.71c21.44,16.57 46.7,29.8 86.98,29.8 108.13,0 108.13,-95.09 216.21,-95.09 58.5,0 85.35,27.84 114.8,53.39"/>
     <path class="fil2 str1" d="M1537.06 3137.72c19.86,-13.82 43.73,-24.14 79.32,-24.14 108.12,0 108.12,95.1 216.21,95.1 61.79,-0.01 88.23,-31.13 119.77,-57.76m151.9 -26.56l0.01 0m41.73 27.49c31.07,26.43 57.63,56.83 118.72,56.83 108.13,-0.01 108.13,-95.1 216.21,-95.1 36.22,0 60.32,10.69 80.4,24.89"/>
     <path class="fil2 str1" d="M1589.83 3161.11c8.09,-1.38 16.89,-2.16 26.55,-2.16 55.45,0 82.46,25.01 110.19,49.38m164.61 33.61c38.53,-18.02 59.23,-51.74 97.31,-70.16m121.74 0.72c37.36,18.67 58.05,52.01 96.5,69.73m162.84 -32.87c28.16,-24.68 55.14,-50.41 111.36,-50.41 10.42,0 19.82,0.9 28.42,2.49"/>
     <path class="fil2 str1" d="M1945.23 3247.79c25.55,-22.34 52.46,-43.48 103.39,-43.48 51.12,0 78.05,21.28 103.68,43.7"/>
     <path class="fil2 str1" d="M2021.01 3252.01c8.38,-1.5 17.53,-2.34 27.61,-2.34 10.19,0 19.41,0.85 27.87,2.38"/>
    </g>
    <g id="_988408336">
     <path class="fil2 str1" d="M1812.04 1030.1c6.41,0.81 13.22,1.27 20.55,1.27 108.01,-0.01 108.01,-95.1 216.03,-95.1 108.06,0 108.06,95.1 216.1,95.1 8.16,0 15.7,-0.55 22.72,-1.55"/>
     <path class="fil2 str1" d="M1762.64 1058.63c15.69,9.3 34.21,16.1 58.63,17.71m457.14 -0.17c23.94,-1.94 42.11,-8.93 57.58,-18.32"/>
     <path class="fil2 str1" d="M1728.69 1078.23c12.06,10.55 24.4,20.85 39.39,28.82m562.53 -0.74c14.81,-8.1 27.06,-18.45 39.09,-29"/>
     <path class="fil2 str1" d="M1696.32 1096.92c13.2,9.27 24.66,20.07 36.66,30.39m632.43 -0.91c11.98,-10.36 23.48,-21.14 36.8,-30.32"/>
     <path class="fil2 str1" d="M1652.91 1121.98c19.48,4.9 34.65,13.6 48.17,23.75m696.33 -0.85c13.65,-10.1 29.04,-18.68 48.87,-23.36"/>
     <path class="fil2 str1" d="M1418.78 1257.15c53.06,-6.03 76.97,-37.7 108.51,-62.65m40.9 -23.61c13.5,-4.86 29.17,-7.81 48.19,-7.81 16.97,0 31.27,2.34 43.75,6.29m778.8 -0.52c12.06,-3.63 25.82,-5.77 42,-5.77 23.29,0 41.56,4.42 56.98,11.35m23.28 13.44c36.94,26.05 60.32,64.04 120.56,69.6"/>
     <path class="fil2 str1" d="M1351.99 1295.71c13.51,4.86 29.19,7.82 48.22,7.82 12.64,0 23.78,-1.31 33.81,-3.61m70.76 -40.85c23.1,-20.25 45.35,-41.24 83.52,-48.22m924.76 0.8c33.04,7.1 53.91,24.92 74.48,43m79.93 46.15c8.95,1.75 18.77,2.73 29.7,2.73 19.79,0 35.95,-3.2 49.82,-8.4"/>
     <path class="fil2 str1" d="M1312.47 1318.53c13.18,10.27 27.77,19.3 46.39,24.78m1381.37 -0.51c18.32,-5.69 32.71,-14.83 45.78,-25.14"/>
     <path class="fil2 str1" d="M1280.75 1336.84c12.08,10.22 23.46,21.09 36.37,30.58m1464.29 -0.84c12.82,-9.57 24.16,-20.45 36.28,-30.63"/>
     <path class="fil2 str1" d="M1244.76 1357.62c15.52,7.6 28.16,17.74 40.33,28.29m1528.24 -0.9c12.23,-10.54 25,-20.6 40.73,-28.06"/>
     <path class="fil2 str1" d="M1188.75 1389.96c25.83,0.68 45.32,6.94 61.66,15.97m1597.92 -0.72c16.61,-8.91 36.47,-14.96 62.84,-15.29"/>
     <path class="fil2 str1" d="M1047.76 1505.76c40.11,-28.18 64.12,-70.52 136.28,-70.52 5.08,0 9.92,0.21 14.55,0.61m1702.52 -0.16c3.93,-0.28 8.01,-0.45 12.27,-0.45 73.69,0 97.18,44.12 138.85,72.26"/>
     <path class="fil2 str1" d="M1047.76 1551.12c16.09,-11.31 29.6,-24.88 44.66,-37.1m1915.15 2.09c14.83,12.3 28.36,25.75 44.66,36.75"/>
     <path class="fil2 str1" d="M1047.76 1596.48c16.09,-11.3 29.6,-24.88 44.66,-37.1m1915.15 2.08c14.83,12.3 28.36,25.75 44.66,36.76"/>
     <path class="fil2 str1" d="M1047.76 1641.86c16.09,-11.31 29.6,-24.89 44.66,-37.11m1915.15 2.09c14.83,12.3 28.36,25.75 44.66,36.76"/>
     <path class="fil2 str1" d="M1047.76 1687.21c16.09,-11.31 29.6,-24.88 44.66,-37.1m1915.15 2.09c14.83,12.3 28.36,25.75 44.66,36.75"/>
     <path class="fil2 str1" d="M1047.76 1732.57c16.09,-11.3 29.6,-24.89 44.66,-37.1m1915.15 2.09c14.83,12.3 28.36,25.75 44.66,36.75"/>
     <path class="fil2 str1" d="M1047.76 1777.92c16.09,-11.31 29.6,-24.88 44.66,-37.1m1915.15 2.09c14.83,12.3 28.36,25.75 44.66,36.75"/>
     <path class="fil2 str1" d="M1047.76 1823.28c16.09,-11.31 29.6,-24.88 44.66,-37.1m1915.15 2.09c14.83,12.3 28.36,25.75 44.66,36.75"/>
     <path class="fil2 str1" d="M1047.76 1868.64c16.09,-11.31 29.6,-24.88 44.66,-37.1m1915.15 2.09c14.83,12.3 28.36,25.75 44.66,36.75"/>
     <path class="fil2 str1" d="M1047.76 1914.02c16.09,-11.3 29.6,-24.88 44.66,-37.1m1915.15 2.08c14.83,12.3 28.36,25.75 44.66,36.76"/>
     <path class="fil2 str1" d="M1047.76 1959.38c16.09,-11.3 29.6,-24.88 44.66,-37.1m1915.15 2.08c14.83,12.3 28.36,25.75 44.66,36.76"/>
     <path class="fil2 str1" d="M1047.76 2004.74c16.09,-11.3 29.6,-24.88 44.66,-37.1m1915.15 2.08c14.83,12.3 28.36,25.75 44.66,36.76"/>
     <path class="fil2 str1" d="M1047.76 2050.09c16.09,-11.31 29.6,-24.88 44.66,-37.1m1915.15 2.09c14.83,12.3 28.36,25.75 44.66,36.75"/>
     <path class="fil2 str1" d="M1047.76 2095.45c16.09,-11.31 29.6,-24.88 44.66,-37.1m1915.15 2.09c14.83,12.3 28.36,25.75 44.66,36.75"/>
     <path class="fil2 str1" d="M1047.76 2140.81c16.09,-11.3 29.6,-24.87 44.66,-37.09m1915.15 2.08c14.83,12.3 28.36,25.75 44.66,36.75"/>
     <path class="fil2 str1" d="M1064.05 2173.5c9.55,-8.05 18.63,-16.52 28.37,-24.42m1915.15 2.09c8.79,7.29 17.12,14.98 25.84,22.33"/>
     <path class="fil2 str1" d="M1283.31 2745.19c30.3,26.04 57,55.24 116.9,55.24 10.94,0 20.76,-0.99 29.7,-2.74m1239.5 0.39c8.42,1.51 17.61,2.35 27.76,2.35 59.9,0 86.6,-29.2 116.91,-55.24"/>
     <path class="fil2 str1" d="M1421.51 2844.42c22.39,-2.97 39.51,-10.57 54.28,-20.24m1147.02 0.8c14.96,9.59 32.36,17.04 55.18,19.72"/>
     <path class="fil2 str1" d="M1470.62 2872.78c14.24,-8.51 26.17,-19.05 38.12,-29.57m1080.91 0.92c11.97,10.53 23.99,21.01 38.39,29.41"/>
     <path class="fil2 str1" d="M1504.47 2892.32c11.94,-10.46 23.64,-21.13 37.4,-29.98m1014.84 0.8c13.63,8.95 25.26,19.67 37.21,30.1"/>
     <path class="fil2 str1" d="M1536.9 2911.05c14.19,-9.9 30.41,-18.02 51.48,-21.86m922.54 0.39c20.7,4.1 36.67,12.34 50.7,22.31"/>
     <path class="fil2 str1" d="M1580.52 2936.23c10.54,-2.6 22.36,-4.08 35.86,-4.08 106.34,0 108.1,91.99 210.97,95.01m445.48 -0.12c100.08,-4.64 102.8,-94.89 208.1,-94.89 14.29,0 26.69,1.67 37.7,4.56"/>
     <path class="fil2 str1" d="M1667.23 2986.29c13.65,5.26 25.05,12.49 35.54,20.53m112.37 64.87c5.5,0.58 11.29,0.91 17.45,0.91 22.38,0 40.12,-4.09 55.15,-10.57m323.36 0.65c14.71,6.1 31.99,9.92 53.62,9.92 7.42,0 14.31,-0.47 20.78,-1.3m102.08 -58.93c14.05,-11.58 29.34,-22.08 49.29,-28.46"/>
     <path class="fil2 str1" d="M1881.36 3109.93c17.35,-6.35 31.13,-15.84 43.84,-26.27m248 0.9c12.81,10.4 26.74,19.81 44.37,25.97"/>
     <path class="fil2 str1" d="M1920.69 3132.63c12.52,-9.81 23.81,-20.72 36.1,-30.73m184.81 0.91c12.24,10.07 23.53,20.96 36.14,30.71"/>
     <path class="fil2 str1" d="M1952.36 3150.92c12.44,-10.51 25.67,-20.3 42.18,-27.23m109.73 0.67c16.27,7.09 29.36,16.97 41.73,27.49"/>
     <path class="fil2 str1" d="M1988.49 3171.78c16.06,-7.78 35.23,-12.83 60.13,-12.83 25.67,0 45.24,5.37 61.61,13.55"/>
    </g>
    <g>
     <path class="fil1" d="M2022.61 3261.37c-5.16,0.92 -10.12,-2.52 -11.04,-7.68 -0.92,-5.16 2.52,-10.12 7.68,-11.04l3.36 18.72zm26 -21.22l0 19.02 0 0 -0.9 0 -0.88 0.01 -0.89 0.01 -0.87 0.02 -0.87 0.01 -0.87 0.03 -0.91 0.03 -0.8 0.03 -0.85 0.05 -0.89 0.04 -0.78 0.04 -0.89 0.06 -0.82 0.05 -0.76 0.06 -0.88 0.07 -0.79 0.06 -0.81 0.08 -0.85 0.08 -0.79 0.07 -0.74 0.08 -0.77 0.09 -0.83 0.1 -0.78 0.09 -0.75 0.11 -0.83 0.1 -0.74 0.11 -0.7 0.1 -0.79 0.13 -0.81 0.12 -0.67 0.1 -0.72 0.13 -0.77 0.14 -3.36 -18.72 0.81 -0.14 0.86 -0.15 0.93 -0.16 0.81 -0.12 0.81 -0.13 0.94 -0.14 0.88 -0.11 0.83 -0.12 0.89 -0.11 0.9 -0.11 0.83 -0.1 0.91 -0.11 0.96 -0.1 0.91 -0.09 0.87 -0.08 0.91 -0.08 0.93 -0.08 0.88 -0.07 0.98 -0.08 0.94 -0.05 0.89 -0.06 1 -0.06 0.91 -0.04 0.95 -0.05 1.02 -0.03 0.91 -0.03 0.97 -0.03 0.97 -0.03 0.99 -0.02 0.99 -0.01 0.98 -0.01 1 0 0 0zm0 0c5.25,0 9.51,4.26 9.51,9.51 0,5.25 -4.26,9.51 -9.51,9.51l0 -19.02zm29.56 2.53l-3.38 18.72 -0.75 -0.13 -0.74 -0.13 -0.74 -0.12 -0.8 -0.13 -0.74 -0.12 -0.7 -0.1 -0.81 -0.11 -0.82 -0.12 -0.72 -0.1 -0.77 -0.09 -0.84 -0.1 -0.79 -0.09 -0.73 -0.08 -0.86 -0.08 -0.8 -0.08 -0.81 -0.07 -0.86 -0.08 -0.77 -0.06 -0.83 -0.05 -0.87 -0.06 -0.84 -0.06 -0.78 -0.04 -0.86 -0.04 -0.91 -0.04 -0.85 -0.04 -0.87 -0.03 -0.87 -0.03 -0.87 -0.01 -0.89 -0.02 -0.89 -0.01 -0.9 -0.01 -0.9 0 0 -19.02 1 0 1 0.01 0.99 0.01 0.99 0.02 0.99 0.03 0.97 0.03 0.97 0.03 0.97 0.04 0.91 0.04 0.96 0.04 1 0.06 0.96 0.06 0.89 0.06 0.93 0.07 0.99 0.08 0.88 0.08 0.93 0.07 0.92 0.1 0.86 0.08 0.97 0.1 0.91 0.11 0.84 0.1 0.91 0.11 0.94 0.12 0.84 0.12 0.83 0.11 0.94 0.14 0.88 0.14 0.82 0.13 0.86 0.14 0.86 0.15 0.85 0.15zm0 0c5.16,0.93 8.6,5.89 7.67,11.05 -0.93,5.16 -5.89,8.6 -11.05,7.67l3.38 -18.72z"/>
    </g>
    <path class="fil2" d="M2049.98 847.61c-664.04,0 -1202.39,538.33 -1202.39,1202.39 0,664.05 538.35,1202.38 1202.39,1202.38 664.07,0 1202.38,-538.33 1202.38,-1202.38 0,-664.06 -538.31,-1202.39 -1202.38,-1202.39l0 0zm0 38.04c642.06,0 1164.35,522.32 1164.35,1164.35 0.01,642.02 -522.29,1164.34 -1164.35,1164.34 -642.02,0 -1164.32,-522.32 -1164.32,-1164.34 0,-642.03 522.3,-1164.35 1164.32,-1164.35z"/>
    <g>
     <path class="fil2 str2" d="M3427.31 2803.3l-73.43 -279.54 73.43 -279.54 -260.05 0 0 500.97 -208.31 0 0 58.11 468.36 0zm-2754.61 0l73.42 -279.54 -73.42 -279.54 260.04 0 0 500.97 208.3 0 0 58.11 -468.34 0z"/>
    </g>
    <g>
     <path class="fil1" d="M915.46 2745.19l0 -571.69 34.56 0 0 571.69 -17.28 17.28 -17.28 -17.28zm34.56 0c0,9.54 -7.74,17.28 -17.28,17.28 -9.54,0 -17.28,-7.74 -17.28,-17.28l34.56 0zm2217.24 17.28l-2234.52 0 0 -34.56 2234.52 0 17.28 17.28 -17.28 17.28zm0 -34.56c9.54,0 17.28,7.74 17.28,17.28 0,9.54 -7.74,17.28 -17.28,17.28l0 -34.56zm17.28 -554.41l0 571.69 -34.56 0 0 -571.69 17.28 -17.28 17.28 17.28zm-34.56 0c0,-9.54 7.74,-17.28 17.28,-17.28 9.54,0 17.28,7.74 17.28,17.28l-34.56 0zm-2217.24 -17.28l2234.52 0 0 34.56 -2234.52 0 -17.28 -17.28 17.28 -17.28zm0 34.56c-9.54,0 -17.28,-7.74 -17.28,-17.28 0,-9.54 7.74,-17.28 17.28,-17.28l0 34.56z"/>
    </g>
   </g>
   <g>
    <path class="fil0 str3" d="M1115.6 2452.07l80.97 97.77 31.13 -22.77 -52.72 -83.04 53.14 -86.16 -31.13 -21.43 -81.39 99.11 0 16.52zm-94.66 0l80.96 97.77 31.14 -22.77 -52.73 -83.04 52.73 -86.16 -30.72 -21.43 -81.38 99.11 0 16.52z"/>
    <path class="fil0 str3" d="M1398.35 2536.92c0.83,3.12 2.07,8.03 3.32,14.28 1.25,6.7 2.9,13.39 4.57,20.09 1.24,7.15 2.91,13.85 4.15,20.09 1.25,6.7 2.49,11.61 3.32,14.74l65.18 0c-2.07,-8.49 -5.39,-20.54 -9.54,-36.62 -4.57,-16.07 -9.14,-33.92 -14.12,-54.01 -5.4,-19.65 -10.8,-40.19 -16.19,-62.06 -5.81,-21.88 -11.21,-42.41 -16.19,-62.5 -5.4,-19.64 -9.97,-37.5 -14.12,-53.58 -4.56,-15.62 -7.89,-28.12 -9.96,-36.6l-73.49 0 -78.89 305.37 65.18 0c0.84,-3.13 2.08,-8.04 3.33,-14.74 1.24,-6.24 2.49,-12.94 4.15,-20.09 1.25,-6.7 2.91,-13.39 4.15,-20.09 1.25,-6.25 2.49,-11.15 3.32,-14.28l71.83 0zm-61.03 -52.24l12.87 -62.5c0.41,-2.23 1.24,-6.25 2.48,-11.61 0.84,-5.36 1.67,-11.16 2.91,-16.96 1.25,-5.81 2.08,-11.17 2.91,-16.52 0.83,-5.36 1.66,-9.38 2.07,-11.61l2.5 0 11.21 56.26c0.42,3.11 1.66,7.13 2.91,12.94 1.24,5.81 2.49,12.06 3.73,18.3 1.25,6.7 2.49,12.51 3.74,18.31 1.24,5.8 2.08,10.27 2.9,13.39l-50.23 0z"/>
    <path class="fil0 str3" d="M1672.36 2354.77l0 196.88 -89.27 0c4.56,-7.15 8.31,-14.28 11.2,-21.88 2.91,-7.14 4.99,-15.62 6.65,-25.89 1.66,-9.83 2.91,-21.43 3.74,-35.27 0.83,-13.84 1.66,-30.36 2.49,-50.45l2.49 -63.39 62.7 0zm31.55 251.35l1.25 74.1 53.97 0 1.24 -127.23 -24.91 -1.34 0 -251.35 -180.19 0c-1.24,19.64 -2.08,39.28 -2.91,58.93 -0.82,20.09 -1.66,39.74 -2.49,59.38 -1.24,21.88 -2.49,40.18 -4.15,55.35 -1.66,14.74 -3.73,27.24 -6.22,37.51 -2.91,9.82 -6.24,17.86 -9.97,24.56 -4.16,6.24 -9.14,11.6 -14.95,16.51 -3.74,0.45 -7.89,0.45 -12.03,0.45 -4.16,0.44 -8.31,0.89 -12.05,1.34l0.83 126.34 53.97 0 1.25 -74.55 157.36 0z"/>
    <path class="fil0 str3" d="M1939.74 2442.27c13.7,-5.8 23.25,-14.29 29.48,-25.89 6.23,-11.17 9.13,-23.67 9.13,-36.61 0,-13.4 -2.07,-25 -6.64,-35.27 -4.56,-9.83 -10.8,-17.86 -18.69,-24.56 -7.88,-6.7 -16.6,-11.6 -26.98,-14.73 -10.38,-3.12 -21.17,-4.91 -32.39,-4.91l-100.06 0 0 305.82 111.28 0c12.04,0 22.83,-2.23 32.8,-6.7 9.96,-4.47 18.68,-10.72 26.15,-18.75 7.06,-7.59 12.88,-16.96 17.02,-28.13 4.15,-10.72 6.24,-22.77 6.24,-35.71 0,-16.97 -3.74,-32.15 -10.8,-45.09 -7.06,-12.95 -19.51,-22.33 -36.54,-28.13l0 -1.34zm-18.27 90.63c-2.07,5.35 -5.4,9.37 -9.13,12.5 -3.74,3.12 -8.31,5.35 -13.71,6.69 -5.4,1.34 -11.2,2.24 -17.02,2.24l-24.91 0 0 -83.05 24.91 0c12.04,0 22.01,3.13 30.73,9.83 8.31,6.7 12.46,16.96 12.46,31.7 0,8.03 -1.25,14.73 -3.33,20.09l0 0zm-15.36 -120.99c-7.06,5.81 -15.36,8.49 -25.32,8.49l-24.09 0 0 -67.42 26.16 0c3.32,0 7.06,0.45 11.21,1.34 3.74,0.89 7.47,2.67 10.8,4.91 3.32,2.23 6.22,5.36 8.29,9.38 2.09,4.02 2.91,8.93 2.91,14.73 0,13.39 -3.31,22.76 -9.96,28.57l0 0z"/>
    <path class="fil0 str3" d="M2172.26 2600.31c13.7,-8.04 24.92,-19.19 33.21,-33.49 8.31,-14.28 14.13,-31.24 17.86,-50.88 3.74,-19.66 5.4,-41.08 5.4,-63.85 0,-23.66 -1.66,-45.09 -5.4,-64.29 -3.73,-19.19 -9.97,-36.16 -18.68,-50 -8.72,-13.84 -19.51,-24.56 -33.22,-32.14 -13.7,-7.59 -30.72,-11.17 -50.65,-11.17 -19.93,0 -36.95,4.02 -50.66,11.62 -13.69,7.58 -24.91,18.3 -33.62,32.13 -8.73,13.85 -14.95,30.81 -18.69,50.01 -3.74,19.19 -5.81,40.62 -5.81,63.84 0,23.21 1.66,44.64 5.4,63.85 3.73,19.64 9.55,36.6 18.26,50.88 8.31,14.3 19.52,25.45 33.64,33.49 13.7,8.04 31.13,12.05 51.48,12.05 20.35,0 37.78,-4.01 51.48,-12.05l0 0zm-30.31 -242.87c5.4,4.91 9.55,12.06 12.46,21.44 2.91,9.37 4.56,20.09 5.4,32.58 0.83,12.51 1.24,25.9 1.24,40.63 0.01,15.63 -0.41,29.47 -1.24,42.42 -1.24,12.94 -2.91,23.65 -5.82,33.03 -2.9,9.38 -6.64,16.52 -12.04,21.43 -5.4,4.91 -12.45,7.59 -21.17,7.59 -8.72,0 -15.78,-2.68 -21.18,-7.59 -5.39,-4.91 -9.55,-11.6 -12.46,-20.98 -2.89,-8.94 -4.98,-19.65 -5.8,-32.6 -1.25,-12.94 -1.67,-27.22 -1.67,-43.3 0,-14.73 0.42,-28.57 1.25,-41.07 0.84,-12.5 2.91,-23.22 5.82,-32.59 2.9,-8.93 7.05,-16.08 12.44,-20.99 5.4,-4.9 12.46,-7.58 21.6,-7.58 8.72,0 15.77,2.68 21.17,7.58l0 0z"/>
    <polygon class="fil0 str3" points="2325.87,2467.72 2404.75,2606.12 2481.15,2606.12 2382.33,2446.29 2480.31,2300.75 2408.49,2300.75 2325.87,2430.66 2324.2,2430.66 2324.2,2300.75 2261.1,2300.75 2261.1,2606.12 2324.2,2606.12 2324.2,2468.17 "/>
    <path class="fil0 str3" d="M2640.16 2536.92c0.84,3.12 2.08,8.03 3.32,14.28 1.25,6.7 2.9,13.39 4.57,20.09 1.24,7.15 2.9,13.85 4.15,20.09 1.25,6.7 2.49,11.61 3.33,14.74l65.18 0c-2.08,-8.49 -5.4,-20.54 -9.55,-36.62 -4.57,-16.07 -9.13,-33.92 -14.12,-54.01 -5.4,-19.65 -10.8,-40.19 -16.19,-62.06 -5.81,-21.88 -11.21,-42.41 -16.19,-62.5 -5.4,-19.64 -9.97,-37.5 -14.12,-53.58 -4.56,-15.62 -7.89,-28.12 -9.96,-36.6l-73.49 0 -78.89 305.37 65.18 0c0.84,-3.13 2.08,-8.04 3.33,-14.74 1.24,-6.24 2.49,-12.94 4.15,-20.09 1.24,-6.7 2.91,-13.39 4.15,-20.09 1.25,-6.25 2.49,-11.15 3.32,-14.28l71.83 0zm-61.03 -52.24l12.87 -62.5c0.41,-2.23 1.24,-6.25 2.49,-11.61 0.83,-5.36 1.66,-11.16 2.9,-16.96 1.25,-5.81 2.08,-11.17 2.91,-16.52 0.84,-5.36 1.66,-9.38 2.08,-11.61l2.49 0 11.21 56.26c0.42,3.11 1.66,7.13 2.9,12.94 1.25,5.81 2.49,12.06 3.74,18.3 1.24,6.7 2.49,12.51 3.73,18.31 1.26,5.8 2.09,10.27 2.91,13.39l-50.23 0z"/>
    <polygon class="fil0 str3" points="2837.79,2354.77 2900.91,2354.77 2900.91,2300.3 2713.66,2300.3 2713.66,2354.77 2774.69,2354.77 2774.69,2606.12 2837.79,2606.12 "/>
    <path class="fil0 str3" d="M3032.53 2435.55l-81.38 -99.11 -31.14 21.43 52.73 86.16 -52.32 83.04 31.15 22.77 80.96 -97.77 0 -16.52zm94.67 0l-81.39 -99.11 -31.14 21.43 53.15 86.16 -52.73 83.04 31.13 22.77 80.98 -97.77 0 -16.52z"/>
   </g>
  </g>
  <path class="fil0 str4" d="M2049.99 198.37c-1024.1,0 -1854.28,830.2 -1854.28,1854.3 0,1024.09 830.18,1854.3 1854.28,1854.3 1024.1,0 1854.33,-830.21 1854.33,-1854.3 0,-1024.1 -830.24,-1854.3 -1854.33,-1854.3l0 0zm0 38.03c1001.49,0 1816.27,814.77 1816.27,1816.27 0,1001.49 -814.78,1816.25 -1816.27,1816.25 -1001.46,0 -1816.26,-814.76 -1816.26,-1816.25 0,-1001.5 814.8,-1816.26 1816.26,-1816.27z"/>
  <g id="_1349568128">
   <path class="fil1" d="M2049.99 3588.84l0 -38.04 0 0 77.11 -1.94 76.09 -5.79 74.98 -9.53 73.77 -13.17 72.48 -16.73 71.08 -20.19 69.61 -23.55 68.02 -26.82 66.37 -30 64.59 -33.08 62.74 -36.07 60.79 -38.97 58.73 -41.77 56.61 -44.48 54.36 -47.08 52.03 -49.62 49.61 -52.03 47.09 -54.36 44.48 -56.6 41.77 -58.73 38.97 -60.79 36.07 -62.74 33.09 -64.59 29.99 -66.36 26.83 -68.03 23.55 -69.59 20.18 -71.1 16.74 -72.47 13.17 -73.77 9.53 -74.98 5.79 -76.09 1.94 -77.11 38.04 0 -2 79.03 -5.93 78.01 -9.77 76.88 -13.51 75.65 -17.16 74.33 -20.7 72.9 -24.15 71.39 -27.51 69.77 -30.77 68.04 -33.93 66.25 -36.99 64.32 -39.95 62.33 -42.83 60.23 -45.6 58.02 -48.29 55.74 -50.85 53.35 -53.35 50.86 -55.74 48.28 -58.03 45.6 -60.23 42.83 -62.33 39.95 -64.32 36.99 -66.25 33.92 -68.05 30.78 -69.76 27.5 -71.39 24.15 -72.9 20.71 -74.34 17.15 -75.65 13.51 -76.88 9.77 -78.01 5.93 -79.03 2 0 0zm-1536.19 -1536.17l38.04 0 0 0 1.94 77.11 5.79 76.09 9.53 74.98 13.17 73.77 16.74 72.47 20.18 71.1 23.55 69.59 26.83 68.03 29.99 66.36 33.09 64.59 36.07 62.74 38.98 60.78 41.77 58.74 44.48 56.6 47.08 54.36 49.62 52.03 52.03 49.62 54.36 47.08 56.61 44.48 58.73 41.77 60.79 38.97 62.74 36.07 64.59 33.08 66.36 30 68.03 26.82 69.6 23.55 71.09 20.19 72.47 16.73 73.77 13.17 74.97 9.53 76.09 5.79 77.11 1.94 0 38.04 -79.03 -2 -78.01 -5.93 -76.87 -9.77 -75.65 -13.51 -74.33 -17.15 -72.91 -20.71 -71.38 -24.15 -69.77 -27.5 -68.04 -30.78 -66.25 -33.92 -64.32 -36.99 -62.33 -39.95 -60.23 -42.83 -58.03 -45.6 -55.74 -48.28 -53.35 -50.86 -50.86 -53.35 -48.28 -55.74 -45.6 -58.02 -42.83 -60.22 -39.96 -62.34 -36.99 -64.32 -33.93 -66.25 -30.77 -68.04 -27.51 -69.77 -24.15 -71.39 -20.7 -72.9 -17.16 -74.33 -13.51 -75.65 -9.77 -76.88 -5.93 -78.01 -2 -79.03 0 0zm1536.19 -1536.19l0 38.04 0 0 -77.11 1.94 -76.09 5.79 -74.97 9.53 -73.77 13.17 -72.47 16.73 -71.09 20.19 -69.6 23.55 -68.03 26.83 -66.36 29.99 -64.59 33.08 -62.74 36.08 -60.79 38.97 -58.73 41.77 -56.61 44.48 -54.36 47.08 -52.03 49.62 -49.62 52.03 -47.08 54.36 -44.48 56.6 -41.77 58.75 -38.98 60.77 -36.07 62.75 -33.09 64.58 -29.99 66.37 -26.83 68.03 -23.55 69.59 -20.18 71.1 -16.74 72.47 -13.17 73.77 -9.53 74.98 -5.79 76.09 -1.94 77.11 -38.04 0 2 -79.03 5.93 -78.01 9.77 -76.88 13.51 -75.65 17.16 -74.33 20.7 -72.9 24.15 -71.39 27.51 -69.77 30.77 -68.05 33.93 -66.24 36.99 -64.33 39.96 -62.33 42.83 -60.23 45.6 -58.02 48.28 -55.74 50.86 -53.35 53.35 -50.86 55.74 -48.28 58.03 -45.6 60.23 -42.83 62.33 -39.95 64.32 -37 66.25 -33.92 68.04 -30.77 69.77 -27.51 71.38 -24.15 72.91 -20.71 74.33 -17.15 75.65 -13.51 76.87 -9.77 78.01 -5.93 79.03 -2 0 0zm1536.2 1536.19l-38.04 0 0 0 -1.94 -77.11 -5.79 -76.09 -9.53 -74.98 -13.17 -73.77 -16.74 -72.47 -20.18 -71.1 -23.55 -69.59 -26.83 -68.03 -29.99 -66.37 -33.09 -64.58 -36.07 -62.75 -38.97 -60.78 -41.77 -58.74 -44.48 -56.6 -47.09 -54.36 -49.61 -52.03 -52.03 -49.62 -54.36 -47.08 -56.61 -44.48 -58.73 -41.77 -60.79 -38.97 -62.74 -36.08 -64.59 -33.08 -66.37 -29.99 -68.02 -26.83 -69.61 -23.55 -71.08 -20.19 -72.48 -16.73 -73.77 -13.17 -74.98 -9.53 -76.09 -5.79 -77.11 -1.94 0 -38.04 79.03 2 78.01 5.93 76.88 9.77 75.65 13.51 74.34 17.15 72.9 20.71 71.39 24.15 69.76 27.51 68.05 30.77 66.25 33.92 64.32 37 62.33 39.95 60.23 42.83 58.03 45.6 55.74 48.28 53.35 50.86 50.85 53.35 48.29 55.74 45.6 58.02 42.83 60.24 39.95 62.32 36.99 64.33 33.93 66.24 30.77 68.05 27.51 69.77 24.15 71.39 20.7 72.9 17.16 74.33 13.51 75.65 9.77 76.88 5.93 78.01 2 79.03 0 0z"/>
  </g>
  <path class="fil0 str4" d="M2049.99 3935.73c-1041.43,0 -1885.7,-844.28 -1885.7,-1885.73 0,-1041.47 844.27,-1885.73 1885.7,-1885.73 1041.47,0 1885.73,844.26 1885.73,1885.73 0.01,1041.45 -844.26,1885.73 -1885.73,1885.73zm1902.62 -2503.94c-64.18,-197.72 -229.55,-345.65 -349.34,-510.23 -120.94,-166.23 -211.39,-368.74 -377.6,-489.72 -164.58,-119.78 -384.51,-143.96 -582.26,-208.15 -190.75,-61.95 -381.97,-173.7 -593.42,-173.7 -211.42,0 -402.63,111.75 -593.39,173.7 -197.74,64.19 -417.68,88.37 -582.25,208.13 -166.22,120.98 -256.66,323.51 -377.61,489.72 -119.78,164.58 -285.17,312.51 -349.35,510.24 -61.96,190.79 -17.16,406.78 -17.16,618.22 0,211.42 -44.8,427.42 17.12,618.19 64.22,197.72 229.58,345.65 349.36,510.23 120.98,166.23 211.39,368.75 377.64,489.72 164.57,119.79 384.51,143.95 582.21,208.16 190.8,61.95 382.01,173.7 593.43,173.7 211.45,0 402.66,-111.75 593.42,-173.7 197.71,-64.21 417.65,-88.37 582.26,-208.16 166.21,-120.97 256.63,-323.47 377.6,-489.7 119.79,-164.58 285.12,-312.51 349.34,-510.23 61.97,-190.8 17.15,-406.79 17.15,-618.21 0.01,-211.44 44.82,-427.43 -17.15,-618.21z"/>
  <path class="fil3" d="M2050 461.95c877.05,0 1588.05,710.99 1588.05,1588.05 0,877.06 -711,1588.05 -1588.05,1588.05 -877.05,0 -1588.05,-710.99 -1588.05,-1588.05 0,-877.06 711,-1588.05 1588.05,-1588.05z"/>
  <g id="_1349548096">
   <path class="fil1 str5" d="M1264.27 3529.48l-16.77 -14.7c12.08,-13.72 25.44,-22.02 40.1,-24.96 14.67,-2.95 29.56,-0.57 44.66,7.14 15.61,7.98 26.68,17.64 33.22,29.03 6.55,11.35 9.26,24.37 8.2,39.04 -1.08,14.7 -5.13,28.95 -12.2,42.79 -7.72,15.1 -17.31,26.8 -28.84,35.1 -11.53,8.3 -24.1,12.65 -37.72,13.05 -13.63,0.41 -26.83,-2.67 -39.6,-9.2 -14.53,-7.42 -24.83,-17.34 -30.92,-29.77 -6.11,-12.46 -7.71,-26.34 -4.76,-41.7l21.13 5.17c-2.04,12.24 -1.08,22.45 2.85,30.51 3.92,8.09 10.74,14.59 20.43,19.54 11.11,5.68 21.79,7.78 31.98,6.25 10.19,-1.52 19.14,-6.02 26.74,-13.46 7.64,-7.46 13.91,-15.97 18.8,-25.54 6.3,-12.32 10.01,-24.01 11.13,-35.03 1.13,-11.04 -0.94,-20.75 -6.17,-29.19 -5.23,-8.42 -12.25,-14.86 -21.07,-19.36 -10.74,-5.49 -21.38,-7.01 -31.97,-4.63 -10.61,2.42 -20.33,9.04 -29.22,19.92zm-92.23 19.55l-38.78 -24.9c-9.51,-6.1 -16.09,-11.44 -19.73,-16.03 -3.6,-4.57 -5.72,-10.04 -6.32,-16.41 -0.6,-6.44 1,-12.57 4.81,-18.51 3.05,-4.75 6.71,-8.26 10.91,-10.53 4.25,-2.27 9.09,-3.35 14.57,-3.17 -3.66,-4.56 -5.66,-9.94 -6.01,-16.21 -0.33,-6.21 1.39,-12.27 5.14,-18.11 6.65,-9.03 14.53,-13.85 23.53,-14.46 9.03,-0.66 19.35,2.78 30.97,10.24l44.72 28.71 -63.81 99.38zm10.07 -52.76l-17.87 -11.47c-7.12,-4.57 -12.28,-7.34 -15.4,-8.31 -3.17,-0.95 -6.53,-0.99 -10.12,-0.04 -3.55,0.91 -6.37,2.98 -8.42,6.17 -3.38,5.26 -3.87,10.1 -1.52,14.53 2.36,4.45 8.03,9.53 16.97,15.27l18.41 11.82 17.95 -27.97zm28.03 -43.65l-22.11 -14.2c-9.52,-6.11 -16.77,-9.2 -21.73,-9.27 -4.98,-0.04 -9.27,2.57 -12.97,7.91 -2.02,3.15 -2.91,6.78 -2.61,10.8 0.34,4.05 1.91,7.49 4.75,10.31 2.82,2.84 7.88,6.59 15.16,11.27l20.33 13.05 19.18 -29.87zm-169.84 36.24l-13.2 18.54 -16.32 -11.61 13.2 -18.54 16.32 11.61zm81.27 -114.23l-68.47 96.24 -16.32 -11.61 68.47 -96.24 16.32 11.61zm-138.74 44.22l-64.89 -50.76 62.67 -80.12 -10.03 -7.85 30.7 -39.26 12.9 10.1 -20.6 26.34 73.31 57.35 20.61 -26.35 12.91 10.1 -30.71 39.26 -8.24 -6.45c-22.92,6.39 -49.13,28.94 -78.63,67.64zm-2.85 -23.32c24.79,-29.29 46.93,-47.99 66.42,-56.1l-50.01 -39.12 -52.44 67.04 36.03 28.18zm-61.14 -107.58c-15.06,15.78 -30.6,23.28 -46.66,22.48 -13.36,-0.68 -25.34,-6.08 -35.91,-16.17 -11.71,-11.17 -17.65,-24.18 -17.79,-38.99 -0.13,-14.76 6.28,-28.93 19.18,-42.46 10.48,-10.98 20.35,-18.03 29.63,-21.17 9.29,-3.15 18.76,-3.44 28.4,-0.91 9.6,2.52 18.14,7.36 25.58,14.46 11.96,11.41 17.98,24.44 18.06,39.14 0.08,14.7 -6.77,29.24 -20.49,43.62zm-14.79 -14.16c10.42,-10.93 15.83,-21.38 16.22,-31.34 0.38,-10.02 -3.04,-18.48 -10.31,-25.41 -7.19,-6.87 -15.77,-9.85 -25.78,-8.97 -9.98,0.9 -20.31,6.94 -30.96,18.11 -10.06,10.54 -15.26,20.83 -15.62,30.81 -0.38,10.02 3.01,18.44 10.14,25.25 7.28,6.94 15.85,9.99 25.82,9.16 9.93,-0.85 20.09,-6.72 30.49,-17.61zm-139.92 -57.39l-13.09 -15.14 76.93 -66.54 -36.33 -42 -76.93 66.54 -13.1 -15.15 76.93 -66.54 -8.48 -9.81 37.69 -32.61 10.72 12.39 -25.3 21.88 60.29 69.72 -89.33 77.26zm-94.42 -112.3l-55.39 -77.91 13.54 -9.62 21.89 30.79 82.73 -58.81 11.6 16.32 -82.72 58.81 21.89 30.8 -13.54 9.62zm-77.58 -111.96l-24.85 -38.82c-6.09,-9.51 -9.84,-17.11 -11.23,-22.8 -1.36,-5.66 -1.02,-11.51 1.1,-17.54 2.14,-6.11 6.16,-11.02 12.09,-14.82 4.76,-3.05 9.55,-4.71 14.32,-5.02 4.81,-0.29 9.65,0.75 14.56,3.2 -1.42,-5.67 -0.99,-11.39 1.3,-17.23 2.29,-5.79 6.39,-10.58 12.24,-14.32 9.81,-5.43 18.97,-6.52 27.41,-3.33 8.48,3.18 16.43,10.61 23.88,22.24l28.65 44.75 -99.47 63.69zm31.18 -43.74l-11.46 -17.89c-4.56,-7.13 -8.1,-11.8 -10.53,-13.98 -2.48,-2.19 -5.51,-3.63 -9.17,-4.26 -3.61,-0.65 -7.04,0.05 -10.23,2.09 -5.27,3.38 -7.73,7.56 -7.45,12.57 0.3,5.04 3.33,12.01 9.05,20.96l11.8 18.42 27.99 -17.91zm43.69 -27.98l-14.17 -22.13c-6.1,-9.53 -11.4,-15.36 -15.88,-17.49 -4.51,-2.11 -9.5,-1.53 -15.09,1.77 -3.15,2.03 -5.47,4.95 -6.88,8.73 -1.38,3.82 -1.39,7.6 0.01,11.35 1.38,3.76 4.42,9.28 9.08,16.57l13.03 20.34 29.9 -19.14zm-93.05 -73.79c-19.43,9.91 -36.57,11.84 -51.46,5.78 -12.38,-5.05 -21.9,-14.12 -28.55,-27.13 -7.35,-14.42 -8.66,-28.66 -3.89,-42.68 4.76,-13.97 15.48,-25.23 32.14,-33.73 13.52,-6.9 25.16,-10.29 34.96,-10.18 9.81,0.1 18.84,2.95 27.1,8.53 8.23,5.55 14.69,12.94 19.36,22.1 7.52,14.73 8.89,29.02 4.11,42.91 -4.79,13.9 -16.06,25.36 -33.77,34.4zm-9.27 -18.26c13.45,-6.87 22.01,-14.94 25.67,-24.22 3.67,-9.33 3.24,-18.44 -1.33,-27.39 -4.52,-8.85 -11.62,-14.5 -21.36,-16.98 -9.72,-2.45 -21.46,-0.17 -35.21,6.85 -12.98,6.62 -21.29,14.61 -24.93,23.91 -3.67,9.33 -3.25,18.4 1.23,27.18 4.57,8.96 11.65,14.67 21.33,17.19 9.65,2.48 21.18,0.3 34.6,-6.54zm-140.29 -166.94l-30.06 -88.34 111.82 -38.04 6.45 18.97 -96.09 32.69 17.15 50.41 96.09 -32.69 6.45 18.96 -111.81 38.04zm111.41 -180.04l-159.21 36.76 -4.1 -17.74 15.11 -3.49c-6.8,-2.83 -12.29,-6.54 -16.43,-11.15 -4.13,-4.58 -7.09,-10.63 -8.82,-18.13 -2.27,-9.83 -1.75,-19.06 1.58,-27.73 3.3,-8.66 9.12,-15.97 17.39,-21.92 8.33,-5.94 17.94,-10.18 28.92,-12.72 11.71,-2.7 22.76,-3.04 33.16,-1 10.37,2.05 18.99,6.52 25.87,13.41 6.84,6.87 11.31,14.75 13.36,23.62 1.5,6.51 1.48,12.66 -0.07,18.43 -1.53,5.8 -4,10.82 -7.41,15.1l56.14 -12.96 4.51 19.52zm-105.07 5.57c14.75,-3.41 24.96,-8.92 30.64,-16.5 5.69,-7.61 7.56,-15.67 5.6,-24.18 -2,-8.64 -7.37,-15.19 -16.11,-19.64 -8.74,-4.48 -20.75,-4.94 -36.09,-1.39 -14.64,3.38 -24.88,8.89 -30.78,16.61 -5.88,7.7 -7.84,15.71 -5.92,24.06 1.92,8.28 7.48,14.7 16.68,19.27 9.23,4.6 21.2,5.18 35.98,1.77zm-26.75 -116.53c-21.46,3.86 -38.43,0.74 -50.93,-9.39 -10.38,-8.42 -16.86,-19.86 -19.44,-34.24 -2.86,-15.93 0.02,-29.94 8.65,-41.98 8.6,-11.99 22.13,-19.65 40.54,-22.95 14.94,-2.68 27.06,-2.55 36.41,0.39 9.36,2.94 17.17,8.29 23.46,16.03 6.27,7.69 10.3,16.64 12.12,26.76 2.92,16.28 0.09,30.35 -8.52,42.26 -8.61,11.92 -22.72,19.61 -42.29,23.12zm-3.58 -20.16c14.87,-2.67 25.4,-7.91 31.59,-15.73 6.22,-7.86 8.45,-16.71 6.68,-26.6 -1.76,-9.78 -6.92,-17.25 -15.52,-22.45 -8.59,-5.16 -20.49,-6.38 -35.68,-3.65 -14.34,2.57 -24.62,7.81 -30.8,15.65 -6.22,7.87 -8.45,16.67 -6.71,26.37 1.78,9.9 6.9,17.42 15.44,22.63 8.51,5.18 20.18,6.44 35,3.78zm-83.92 -201.56l-2.45 -93.28 118.07 -3.09 0.53 20.02 -101.47 2.66 1.4 53.23 101.46 -2.66 0.53 20.03 -118.07 3.09zm159.87 -138.75l-162.93 -12.4 1.38 -18.15 15.47 1.17c-5.65,-4.72 -9.79,-9.91 -12.36,-15.54 -2.58,-5.6 -3.6,-12.26 -3.02,-19.93 0.77,-10.07 4.01,-18.71 9.78,-26 5.73,-7.28 13.47,-12.52 23.14,-15.74 9.72,-3.18 20.16,-4.36 31.39,-3.51 11.99,0.91 22.64,3.89 31.95,8.93 9.29,5.05 16.19,11.89 20.7,20.52 4.48,8.6 6.39,17.46 5.7,26.53 -0.5,6.66 -2.35,12.53 -5.56,17.57 -3.19,5.08 -7.04,9.13 -11.58,12.21l57.46 4.37 -1.52 19.97zm-101.95 -26.02c15.1,1.15 26.49,-1.06 34.17,-6.61 7.69,-5.57 11.89,-12.7 12.55,-21.41 0.67,-8.84 -2.5,-16.69 -9.51,-23.55 -7.01,-6.88 -18.34,-10.9 -34.04,-12.09 -14.98,-1.14 -26.4,1.07 -34.33,6.67 -7.92,5.6 -12.17,12.66 -12.82,21.2 -0.65,8.48 2.75,16.27 10.16,23.37 7.44,7.14 18.69,11.27 33.82,12.42zm63.58 -197.69c5.35,8.17 8.85,15.84 10.59,22.98 1.73,7.13 2.09,14.6 1.1,22.43 -1.62,12.86 -5.98,22.37 -13.15,28.5 -7.12,6.14 -15.57,8.59 -25.32,7.36 -5.71,-0.72 -10.79,-2.7 -15.2,-5.9 -4.4,-3.23 -7.74,-7.12 -10.06,-11.7 -2.32,-4.62 -3.91,-9.64 -4.71,-15.13 -0.53,-4.04 -0.75,-10.07 -0.74,-18.05 0.15,-16.27 -0.66,-28.42 -2.34,-36.31 -2.69,-0.42 -4.43,-0.68 -5.14,-0.77 -8.06,-1.02 -13.97,0.15 -17.76,3.49 -5.12,4.52 -8.29,11.81 -9.55,21.82 -1.19,9.36 -0.41,16.5 2.3,21.35 2.71,4.89 8.1,8.9 16.18,12.1l-5.15 19.07c-8.11,-2.82 -14.48,-6.56 -19.08,-11.28 -4.6,-4.7 -7.78,-11.07 -9.6,-19.1 -1.77,-7.98 -2.04,-17.08 -0.77,-27.16 1.26,-10.01 3.46,-18.03 6.63,-24.02 3.16,-5.94 6.68,-10.2 10.62,-12.69 3.94,-2.48 8.72,-3.98 14.33,-4.5 3.47,-0.21 9.6,0.22 18.37,1.33l26.34 3.32c18.41,2.33 30.09,3.38 35.12,3.18 5.04,-0.17 9.95,-1.24 14.77,-3.08l-2.63 20.78c-4.42,1.46 -9.48,2.13 -15.15,1.98zm-44.23 -3.98c2.02,7.61 3.13,18.76 3.34,33.46 0.14,8.35 0.72,14.31 1.76,17.89 1.04,3.57 2.85,6.44 5.41,8.63 2.58,2.2 5.59,3.53 9.05,3.97 5.23,0.66 9.89,-0.78 13.9,-4.36 4.01,-3.58 6.52,-9.23 7.49,-16.95 0.96,-7.64 0.17,-14.66 -2.42,-21.06 -2.57,-6.36 -6.56,-11.34 -11.97,-14.86 -4.21,-2.7 -10.67,-4.59 -19.36,-5.68l-7.2 -1.04zm-43.86 -84.85l10.38 -44.91c2.55,-11.01 5.36,-19 8.46,-23.97 3.09,-4.93 7.52,-8.77 13.32,-11.47 5.86,-2.74 12.18,-3.31 19.05,-1.72 5.5,1.28 10.04,3.54 13.59,6.73 3.57,3.24 6.22,7.43 7.89,12.65 3.06,-4.98 7.46,-8.67 13.24,-11.11 5.74,-2.41 12.02,-2.83 18.78,-1.26 10.74,3.22 17.93,9.01 21.54,17.28 3.66,8.28 3.91,19.16 0.8,32.61l-11.98 51.78 -115.07 -26.61zm53.07 -8.29l4.79 -20.69c1.9,-8.25 2.77,-14.04 2.63,-17.3 -0.17,-3.31 -1.26,-6.49 -3.37,-9.54 -2.05,-3.04 -4.95,-5 -8.64,-5.86 -6.1,-1.41 -10.81,-0.24 -14.19,3.46 -3.4,3.73 -6.27,10.78 -8.66,21.13l-4.93 21.31 32.37 7.49zm50.55 11.69l5.92 -25.61c2.55,-11.02 3.01,-18.88 1.41,-23.57 -1.65,-4.71 -5.54,-7.87 -11.82,-9.55 -3.65,-0.85 -7.36,-0.46 -11.05,1.18 -3.7,1.68 -6.4,4.32 -8.1,7.94 -1.73,3.61 -3.56,9.64 -5.51,18.07l-5.44 23.54 34.59 8zm-15.36 -119.02c-20.66,-6.98 -34.02,-17.89 -40.09,-32.79 -5.03,-12.39 -5.19,-25.53 -0.52,-39.37 5.18,-15.34 14.45,-26.23 27.82,-32.61 13.32,-6.35 28.86,-6.54 46.58,-0.56 14.39,4.86 24.94,10.82 31.71,17.9 6.78,7.09 11.05,15.54 12.83,25.36 1.78,9.76 1,19.54 -2.29,29.28 -5.29,15.67 -14.55,26.64 -27.84,32.92 -13.29,6.29 -29.36,6.22 -48.2,-0.13zm6.59 -19.4c14.31,4.83 26.07,5.32 35.26,1.46 9.24,-3.89 15.46,-10.56 18.67,-20.09 3.18,-9.41 2.26,-18.44 -2.77,-27.15 -5.03,-8.66 -14.87,-15.47 -29.49,-20.4 -13.81,-4.66 -25.34,-5.03 -34.53,-1.14 -9.24,3.89 -15.44,10.53 -18.6,19.87 -3.21,9.52 -2.35,18.58 2.61,27.27 4.97,8.64 14.58,15.37 28.85,20.18zm16.91 -212.99l8.25 -18.26 44.79 20.23 22.85 -50.61 -44.79 -20.23 8.23 -18.24 107.65 48.6 -8.24 18.24 -47.7 -21.53 -22.85 50.61 47.7 21.54 -8.24 18.25 -107.65 -48.6zm195.71 -152.53c1.78,9.59 2.05,18.02 0.9,25.28 -1.16,7.25 -3.71,14.27 -7.65,21.11 -6.47,11.24 -14.17,18.33 -23.14,21.22 -8.94,2.9 -17.68,1.9 -26.2,-3 -4.99,-2.87 -8.91,-6.66 -11.74,-11.31 -2.81,-4.68 -4.39,-9.57 -4.76,-14.69 -0.36,-5.15 0.12,-10.39 1.5,-15.77 1.07,-3.92 3.2,-9.58 6.29,-16.94 6.42,-14.95 10.37,-26.46 11.87,-34.39 -2.32,-1.43 -3.82,-2.34 -4.44,-2.69 -7.04,-4.05 -12.95,-5.26 -17.73,-3.64 -6.47,2.18 -12.21,7.68 -17.24,16.43 -4.71,8.18 -6.75,15.06 -6.13,20.59 0.61,5.55 4.04,11.33 10.26,17.4l-12.13 15.6c-6.38,-5.73 -10.81,-11.64 -13.24,-17.77 -2.42,-6.11 -2.89,-13.22 -1.47,-21.33 1.45,-8.05 4.71,-16.54 9.78,-25.35 5.03,-8.74 10.16,-15.29 15.39,-19.59 5.21,-4.26 10.1,-6.83 14.7,-7.6 4.6,-0.77 9.58,-0.3 14.95,1.38 3.29,1.15 8.78,3.92 16.44,8.33l23.01 13.24c16.08,9.25 26.45,14.73 31.17,16.49 4.71,1.79 9.65,2.71 14.8,2.87l-10.44 18.15c-4.65,-0.36 -9.57,-1.7 -14.75,-4.02zm-39.26 -20.76c-1.07,7.79 -4.35,18.51 -9.83,32.15 -3.1,7.75 -4.87,13.47 -5.3,17.18 -0.41,3.69 0.15,7.04 1.66,10.05 1.53,3.03 3.79,5.42 6.82,7.16 4.57,2.63 9.42,3.1 14.5,1.35 5.08,-1.76 9.58,-6 13.46,-12.75 3.84,-6.67 5.81,-13.45 5.9,-20.36 0.09,-6.85 -1.67,-12.99 -5.3,-18.32 -2.84,-4.13 -8.06,-8.36 -15.66,-12.73l-6.25 -3.73zm99.39 -134.85l-12.35 -9.68c5.13,-6.68 8.42,-11.43 9.84,-14.17 1.42,-2.79 1.86,-6.17 1.21,-10.14 -0.64,-3.98 -2.7,-7.32 -6.19,-10.06 -4.2,-3.29 -8.71,-4.56 -13.43,-3.69 -4.77,0.84 -8.87,3.5 -12.41,8 -6.95,8.87 -6.63,19.15 0.97,30.85l-14.31 13.07c-13.65,-18.23 -13.46,-36.3 0.54,-54.15 7.77,-9.9 16.54,-15.55 26.37,-16.96 9.83,-1.4 18.47,0.84 25.96,6.72 7.56,5.92 10.7,14.33 9.42,25.12 6.18,-2.71 12.11,-3.71 17.84,-3.02 5.71,0.72 11.22,3.16 16.53,7.32 8.32,6.53 12.68,14.87 13.12,25 0.42,10.16 -3.63,20.67 -12.2,31.59 -16.62,21.19 -35.64,26.14 -57.03,14.82l8.44 -17.39c6.97,3.29 13.69,4.18 20.17,2.61 6.49,-1.57 11.78,-4.98 15.94,-10.3 4.17,-5.31 6.14,-10.9 5.89,-16.79 -0.23,-5.86 -2.66,-10.62 -7.32,-14.27 -3.61,-2.83 -7.61,-4.19 -12.03,-4.08 -4.42,0.1 -7.94,1.14 -10.56,3.13 -2.66,1.98 -6.54,6.25 -11.7,12.82 -0.42,0.54 -1.32,1.76 -2.71,3.65zm140.43 -108.13c-0.08,9.76 -1.42,18.09 -3.94,25 -2.52,6.89 -6.37,13.3 -11.54,19.26 -8.49,9.8 -17.4,15.29 -26.76,16.41 -9.34,1.15 -17.72,-1.5 -25.15,-7.94 -4.35,-3.77 -7.47,-8.24 -9.37,-13.35 -1.87,-5.12 -2.48,-10.22 -1.87,-15.32 0.63,-5.12 2.1,-10.18 4.49,-15.19 1.8,-3.65 4.96,-8.8 9.4,-15.43 9.16,-13.45 15.23,-24 18.22,-31.49 -2.01,-1.85 -3.31,-3.03 -3.85,-3.5 -6.14,-5.32 -11.71,-7.63 -16.71,-6.95 -6.77,0.91 -13.45,5.21 -20.06,12.84 -6.18,7.13 -9.5,13.49 -9.94,19.04 -0.46,5.57 1.8,11.89 6.75,19.04l-14.88 13c-5.18,-6.84 -8.4,-13.49 -9.61,-19.97 -1.21,-6.46 -0.32,-13.53 2.62,-21.21 2.96,-7.63 7.78,-15.35 14.44,-23.03 6.61,-7.62 12.89,-13.07 18.85,-16.29 5.92,-3.19 11.22,-4.78 15.88,-4.66 4.66,0.12 9.46,1.53 14.41,4.21 3,1.76 7.87,5.52 14.55,11.31l20.06 17.39c14.02,12.15 23.15,19.51 27.45,22.13 4.28,2.65 8.96,4.5 13.98,5.64l-13.71 15.82c-4.5,-1.23 -9.07,-3.49 -13.71,-6.76zm-34.58 -27.86c-2.54,7.45 -7.8,17.33 -15.79,29.68 -4.52,7.02 -7.35,12.3 -8.47,15.85 -1.11,3.55 -1.2,6.94 -0.29,10.19 0.92,3.27 2.69,6.04 5.33,8.33 3.98,3.45 8.65,4.84 13.97,4.09 5.33,-0.76 10.55,-4.07 15.65,-9.95 5.04,-5.81 8.27,-12.09 9.67,-18.86 1.4,-6.71 0.84,-13.07 -1.7,-18.99 -2,-4.6 -6.33,-9.75 -12.95,-15.48l-5.42 -4.86zm10.59 -93.83l14.49 -13.82 33.93 35.55 40.17 -38.33 -33.93 -35.56 14.48 -13.82 81.54 85.44 -14.48 13.83 -36.13 -37.87 -40.18 38.34 36.14 37.86 -14.49 13.83 -81.54 -85.45zm186.57 -159.83l73 92.85 -15.75 12.38 -28.41 -36.14 -9.07 7.13c-5.51,4.33 -9.06,8.28 -10.63,11.88 -1.56,3.59 -1.95,11.27 -1.09,23.09l2.06 31.1 -19.51 15.33 -2.6 -38.29c-0.81,-11.71 1.01,-20.08 5.39,-25.12 -9.94,5.83 -19.17,7.83 -27.65,6 -8.48,-1.82 -15.42,-6.16 -20.79,-12.99 -6.35,-8.08 -8.65,-16.85 -6.89,-26.33 1.74,-9.52 8.03,-18.51 18.82,-26.99l43.12 -33.9zm-5.48 25.44l-22.36 17.57c-9.36,7.36 -14.27,13.58 -14.69,18.65 -0.42,5.04 0.94,9.52 4.01,13.43 4.37,5.55 9.57,8.06 15.6,7.52 6.01,-0.52 14.11,-4.77 24.25,-12.74l17.38 -13.66 -24.19 -30.77zm43.34 -53.23l80.5 -51.55 8.96 13.99 -31.82 20.37 54.73 85.49 -16.87 10.8 -54.73 -85.49 -31.82 20.38 -8.95 -13.99zm106.18 -67.03l82.83 -47.72 8.29 14.39 -32.74 18.86 50.67 87.95 -17.35 10 -50.67 -87.95 -32.74 18.86 -8.29 -14.39zm209.56 -106.28l48.67 107.62 -18.25 8.25 -18.95 -41.89 -10.5 4.75c-6.39,2.89 -10.79,5.88 -13.17,9 -2.37,3.11 -4.59,10.48 -6.58,22.16l-5.44 30.69 -22.6 10.22 6.63 -37.8c2.01,-11.57 5.78,-19.26 11.24,-23.1 -11.05,3.28 -20.49,3.01 -28.29,-0.79 -7.79,-3.79 -13.49,-9.67 -17.07,-17.59 -4.24,-9.36 -4.37,-18.42 -0.4,-27.21 3.96,-8.83 12.22,-16.05 24.73,-21.71l49.98 -22.6zm-11.41 23.39l-25.91 11.72c-10.85,4.9 -17.1,9.77 -18.72,14.59 -1.62,4.8 -1.37,9.47 0.68,14 2.91,6.43 7.36,10.12 13.35,11.03 5.95,0.93 14.83,-1.25 26.58,-6.57l20.15 -9.11 -16.13 -35.66zm234.82 7.43c-5.43,8.12 -11.11,14.35 -17.01,18.74 -5.89,4.38 -12.62,7.63 -20.21,9.78 -12.48,3.53 -22.94,3.23 -31.38,-0.96 -8.43,-4.16 -13.99,-10.97 -16.67,-20.43 -1.57,-5.54 -1.73,-10.99 -0.51,-16.3 1.25,-5.31 3.53,-9.91 6.83,-13.84 3.35,-3.94 7.35,-7.36 12.09,-10.24 3.51,-2.07 8.98,-4.63 16.33,-7.74 15.03,-6.23 25.89,-11.72 32.5,-16.35 -0.66,-2.64 -1.1,-4.34 -1.3,-5.03 -2.21,-7.81 -5.6,-12.8 -10.16,-14.98 -6.16,-2.95 -14.1,-3.02 -23.81,-0.27 -9.09,2.58 -15.35,6.08 -18.76,10.47 -3.44,4.41 -5.02,10.94 -4.8,19.63l-19.57 2.7c-0.58,-8.55 0.38,-15.88 2.92,-21.96 2.53,-6.07 7.15,-11.49 13.83,-16.3 6.65,-4.76 14.92,-8.56 24.69,-11.33 9.71,-2.75 17.95,-3.86 24.7,-3.29 6.71,0.58 12.01,2.16 15.84,4.81 3.83,2.66 7.07,6.47 9.74,11.43 1.55,3.12 3.55,8.93 5.96,17.44l7.24 25.54c5.05,17.85 8.65,29.01 10.81,33.57 2.12,4.56 5.02,8.66 8.6,12.38l-20.15 5.71c-3.08,-3.5 -5.66,-7.9 -7.75,-13.18zm-13.63 -42.26c-6.21,4.83 -16.03,10.22 -29.48,16.16 -7.64,3.39 -12.9,6.25 -15.78,8.6 -2.88,2.36 -4.81,5.15 -5.84,8.36 -1.01,3.24 -1.06,6.53 -0.11,9.89 1.44,5.07 4.58,8.79 9.44,11.08 4.87,2.29 11.05,2.39 18.54,0.27 7.41,-2.1 13.55,-5.58 18.43,-10.46 4.86,-4.85 7.88,-10.48 9,-16.82 0.85,-4.94 0.06,-11.62 -2.33,-20.05l-1.87 -7.03zm69.37 -78.97l80.28 -18.54 22.88 99.11 12.42 -2.87 11.21 48.57 -15.96 3.68 -7.53 -32.59 -90.69 20.94 7.53 32.59 -15.97 3.69 -11.22 -48.56 10.2 -2.36c9.44,-21.83 8.39,-56.39 -3.15,-103.66zm19.93 12.44c7.19,37.7 7.8,66.68 1.85,86.92l61.87 -14.28 -19.15 -82.93 -44.57 10.29zm122.27 -39.87l45.73 -5.77c11.21,-1.42 19.68,-1.54 25.42,-0.35 5.69,1.2 10.83,4.03 15.37,8.54 4.59,4.55 7.3,10.28 8.18,17.28 0.71,5.6 0.16,10.64 -1.61,15.08 -1.8,4.47 -4.83,8.4 -9.15,11.78 5.73,1.15 10.72,3.99 15.01,8.57 4.24,4.56 6.8,10.31 7.67,17.2 0.69,11.19 -2.26,19.94 -8.77,26.18 -6.51,6.3 -16.64,10.29 -30.34,12.02l-52.72 6.65 -14.79 -117.18zm26.12 46.94l21.07 -2.66c8.39,-1.06 14.13,-2.25 17.15,-3.51 3.04,-1.3 5.64,-3.42 7.78,-6.45 2.14,-2.98 2.98,-6.37 2.51,-10.13 -0.78,-6.22 -3.51,-10.24 -8.15,-12.13 -4.68,-1.9 -12.28,-2.16 -22.82,-0.83l-21.7 2.74 4.16 32.97zm6.49 51.47l26.08 -3.29c11.22,-1.42 18.76,-3.7 22.61,-6.83 3.84,-3.16 5.46,-7.91 4.88,-14.38 -0.47,-3.72 -2.12,-7.07 -4.93,-9.96 -2.86,-2.9 -6.27,-4.52 -10.25,-4.87 -3.99,-0.37 -10.28,0 -18.86,1.08l-23.97 3.03 4.44 35.22zm106.49 -55.1c-0.57,-21.8 5.08,-38.1 16.97,-48.93 9.89,-8.99 22.18,-13.67 36.78,-14.06 16.18,-0.42 29.6,4.54 40.19,14.89 10.56,10.31 16.09,24.84 16.58,43.54 0.4,15.17 -1.56,27.14 -5.88,35.93 -4.32,8.81 -10.78,15.73 -19.38,20.78 -8.56,5.03 -18.01,7.67 -28.29,7.94 -16.53,0.44 -30.01,-4.48 -40.49,-14.79 -10.48,-10.31 -15.96,-25.42 -16.48,-45.3zm20.48 -0.49c0.39,15.09 3.99,26.3 10.78,33.6 6.83,7.33 15.24,10.87 25.29,10.61 9.93,-0.26 18.09,-4.24 24.53,-11.96 6.4,-7.71 9.4,-19.29 8.99,-34.72 -0.38,-14.56 -4,-25.51 -10.83,-32.8 -6.83,-7.34 -15.2,-10.87 -25.05,-10.61 -10.05,0.26 -18.26,4.19 -24.7,11.84 -6.41,7.64 -9.41,18.98 -9.01,34.04zm133.78 -60.6l20.02 0.52 -1.33 50.95c6.36,0.17 10.87,-0.92 13.52,-3.32 2.6,-2.36 6.53,-9.35 11.85,-21.01 4.18,-9.22 7.53,-15.29 10.04,-18.18 2.54,-2.89 5.4,-4.82 8.62,-5.77 3.24,-0.93 8.37,-1.33 15.39,-1.15l4.02 0.11 -0.43 16.49 -5.58 -0.26c-5.27,-0.14 -8.66,0.57 -10.18,2.08 -1.6,1.59 -4.11,6.39 -7.5,14.38 -3.25,7.66 -6.16,12.92 -8.77,15.82 -2.58,2.89 -6.56,5.48 -11.89,7.81 8.55,2.53 16.82,10.76 24.81,24.71l21 37.16 -22 -0.58 -20.69 -37.04c-4.17,-7.51 -7.83,-12.46 -11,-14.9 -3.2,-2.43 -7.03,-3.71 -11.54,-3.83l-1.43 54.6 -20.03 -0.52 3.1 -118.07zm195.74 119.39c-8.17,5.35 -15.84,8.85 -22.98,10.59 -7.13,1.73 -14.6,2.09 -22.43,1.1 -12.86,-1.62 -22.37,-5.98 -28.5,-13.15 -6.14,-7.12 -8.59,-15.57 -7.36,-25.32 0.72,-5.71 2.7,-10.79 5.9,-15.2 3.23,-4.4 7.12,-7.74 11.7,-10.06 4.62,-2.32 9.64,-3.91 15.13,-4.71 4.04,-0.53 10.07,-0.75 18.05,-0.74 16.27,0.15 28.42,-0.66 36.31,-2.33 0.42,-2.7 0.68,-4.43 0.77,-5.15 1.02,-8.05 -0.15,-13.97 -3.49,-17.76 -4.52,-5.12 -11.81,-8.29 -21.82,-9.55 -9.36,-1.18 -16.5,-0.41 -21.35,2.3 -4.89,2.71 -8.9,8.1 -12.09,16.19l-19.08 -5.16c2.82,-8.1 6.57,-14.48 11.28,-19.08 4.7,-4.6 11.07,-7.78 19.1,-9.6 7.99,-1.77 17.08,-2.04 27.16,-0.77 10.01,1.26 18.03,3.46 24.02,6.63 5.94,3.16 10.2,6.68 12.69,10.62 2.49,3.94 3.98,8.72 4.5,14.33 0.21,3.47 -0.22,9.61 -1.33,18.38l-3.32 26.34c-2.33,18.4 -3.38,30.08 -3.18,35.12 0.17,5.03 1.24,9.94 3.08,14.76l-20.78 -2.62c-1.46,-4.43 -2.13,-9.49 -1.98,-15.16zm3.98 -44.23c-7.61,2.02 -18.75,3.13 -33.46,3.34 -8.35,0.14 -14.31,0.72 -17.89,1.76 -3.57,1.04 -6.44,2.86 -8.63,5.41 -2.2,2.58 -3.53,5.59 -3.97,9.05 -0.66,5.23 0.78,9.89 4.36,13.9 3.58,4.01 9.23,6.52 16.95,7.49 7.64,0.97 14.66,0.17 21.06,-2.42 6.36,-2.56 11.34,-6.56 14.86,-11.97 2.71,-4.21 4.59,-10.66 5.69,-19.36l1.03 -7.2zm70.3 -50.28l93.14 21.54 -3.75 16.18 -36.81 -8.51 -22.86 98.89 -19.52 -4.51 22.87 -98.89 -36.81 -8.52 3.74 -16.18zm184.06 123.46l18.08 7.96c-5.75,12.37 -13.87,20.99 -24.45,25.92 -10.58,4.92 -22.08,5.6 -34.46,2.09 -15.51,-4.39 -26.55,-13 -33.09,-25.81 -6.57,-12.83 -7.18,-28.68 -1.82,-47.59 3.48,-12.27 8.56,-22.37 15.21,-30.42 6.65,-8.02 14.77,-13.17 24.39,-15.37 9.58,-2.25 19.24,-2 29.03,0.78 12.29,3.48 21.52,9.45 27.57,17.9 6.07,8.47 8.6,18.77 7.53,30.85l-19.41 -2.44c0.37,-8.13 -1.14,-14.75 -4.6,-19.91 -3.45,-5.11 -8.38,-8.6 -14.79,-10.42 -9.71,-2.75 -18.58,-1.52 -26.64,3.69 -8.03,5.25 -14.16,15.34 -18.42,30.38 -4.32,15.25 -4.54,27.14 -0.66,35.69 3.93,8.56 10.57,14.19 19.95,16.85 7.59,2.15 14.55,1.64 20.91,-1.57 6.37,-3.16 11.6,-9.36 15.67,-18.58zm81.38 -52.92l18.61 7.36 -16.98 42.96 23.57 9.31c15.38,6.08 26.01,13.72 31.98,22.97 5.94,9.24 6.85,19.11 2.71,29.58 -3.63,9.18 -10.18,15.64 -19.71,19.41 -9.49,3.8 -21.85,2.66 -37.09,-3.36l-46.52 -18.39 43.43 -109.84zm-18.79 101.96l19.62 7.75c11.82,4.67 20.81,6.56 27,5.67 6.19,-0.9 10.51,-4.42 12.94,-10.56 1.88,-4.76 1.69,-9.73 -0.57,-14.94 -2.28,-5.18 -9.8,-10.32 -22.59,-15.38l-22.09 -8.73 -14.31 36.19zm148.62 -49.04l18.25 8.25 -20.97 46.45c5.8,2.62 10.38,3.36 13.75,2.17 3.31,-1.16 9.65,-6.09 19.07,-14.77 7.43,-6.88 12.87,-11.17 16.3,-12.87 3.46,-1.68 6.84,-2.35 10.18,-1.98 3.35,0.4 8.23,2.02 14.63,4.91l3.67 1.65 -6.79 15.04 -5.04 -2.4c-4.8,-2.17 -8.2,-2.83 -10.19,-2.03 -2.09,0.85 -6.27,4.29 -12.49,10.35 -5.96,5.8 -10.68,9.53 -14.22,11.18 -3.49,1.67 -8.16,2.51 -13.98,2.59 6.89,5.65 11.33,16.45 13.29,32.4l4.96 42.39 -20.05 -9.05 -4.73 -42.17c-0.93,-8.54 -2.38,-14.52 -4.36,-17.99 -2.01,-3.49 -5.05,-6.15 -9.16,-8.01l-22.48 49.78 -18.25 -8.24 48.61 -107.65z"/>
   <path class="fil1 str5" d="M2834.96 567.06c10.87,-18.91 24.19,-29.88 39.98,-32.92 13.13,-2.51 26.06,-0.11 38.72,7.18 14.03,8.08 22.89,19.3 26.54,33.65 3.63,14.31 0.78,29.59 -8.55,45.8 -7.57,13.16 -15.48,22.35 -23.75,27.6 -8.28,5.27 -17.4,7.8 -27.37,7.63 -9.92,-0.16 -19.37,-2.84 -28.28,-7.97 -14.33,-8.25 -23.28,-19.47 -26.84,-33.73 -3.57,-14.26 -0.37,-30.01 9.55,-47.24zm17.73 10.25c-7.53,13.08 -10.31,24.52 -8.32,34.29 2.01,9.82 7.34,17.22 16.05,22.24 8.62,4.95 17.65,5.81 27.17,2.58 9.48,-3.24 18.08,-11.56 25.78,-24.94 7.26,-12.62 9.87,-23.86 7.85,-33.64 -2.01,-9.82 -7.3,-17.2 -15.85,-22.11 -8.71,-5.02 -17.76,-5.95 -27.25,-2.77 -9.45,3.18 -17.92,11.29 -25.43,24.35zm150.69 20.86l16.31 11.6 -28.63 40.24 19.85 14.12c11.22,-12.69 22.97,-20.11 35.25,-22.26 12.31,-2.14 24.16,0.84 35.57,8.96 9.7,6.91 15.97,14.3 18.78,22.21 2.83,7.93 3.64,16.61 2.39,26.09 -1.25,9.46 -6,20 -14.26,31.62 -11.79,16.56 -24.51,26.46 -38.14,29.65 -13.64,3.2 -26.89,0.18 -39.82,-9.01 -11.98,-8.53 -18.76,-19.36 -20.37,-32.47 -1.57,-13.11 2.12,-26.92 11.1,-41.44l-19.85 -14.12 -30.34 42.65 -16.31 -11.61 68.47 -96.23zm69.35 67.21c-7.98,-5.68 -16.37,-7.03 -25.17,-4.08 -8.79,2.92 -17.11,9.9 -24.96,20.93 -9.38,13.19 -14.02,24.42 -13.91,33.75 0.1,9.34 3.92,16.67 11.4,22 7.45,5.3 15.56,6.78 24.37,4.49 8.77,-2.33 17.69,-9.82 26.68,-22.46 8.77,-12.32 13.3,-23.07 13.56,-32.15 0.29,-9.1 -3.69,-16.59 -11.97,-22.48zm154.6 109.09l59.61 56.87 -70.22 73.6 9.22 8.79 -34.41 36.06 -11.85 -11.31 23.09 -24.2 -67.34 -64.26 -23.09 24.21 -11.86 -11.32 34.4 -36.06 7.58 7.23c23.43,-4.11 51.72,-23.99 84.87,-59.61zm0.56 23.49c-27.55,26.72 -51.41,43.16 -71.6,49.32l45.94 43.83 58.75 -61.58 -33.09 -31.57zm113.28 59.11l16.47 -15.71 13.82 14.49 -16.46 15.71 -13.83 -14.49zm-101.42 96.79l85.45 -81.54 13.82 14.49 -85.44 81.54 -13.83 -14.49zm195.01 49.2l-92.78 73.08 -12.39 -15.74 36.11 -28.44 -7.14 -9.06c-4.33,-5.5 -8.29,-9.06 -11.89,-10.62 -3.59,-1.56 -11.27,-1.93 -23.09,-1.07l-31.1 2.09 -15.35 -19.49 38.29 -2.64c11.71,-0.82 20.09,0.99 25.13,5.37 -5.84,-9.94 -7.85,-19.16 -6.03,-27.65 1.81,-8.48 6.14,-15.42 12.97,-20.8 8.07,-6.36 16.84,-8.66 26.32,-6.92 9.52,1.73 18.52,8.01 27.01,18.8l33.94 43.09zm-25.44 -5.46l-17.6 -22.34c-7.37,-9.36 -13.59,-14.26 -18.66,-14.67 -5.05,-0.42 -9.52,0.95 -13.43,4.02 -5.54,4.37 -8.05,9.58 -7.5,15.61 0.53,6 4.78,14.1 12.76,24.23l13.68 17.37 30.75 -24.22zm65.91 59.28l50.19 78.38 -99.38 63.63 -10.8 -16.87 85.39 -54.67 -28.6 -44.66 -49.47 31.68c-11.54,7.39 -19.38,11.87 -23.56,13.51 -4.16,1.59 -8.67,1.59 -13.56,0 -4.92,-1.64 -9.4,-5.61 -13.47,-11.97 -2.51,-3.92 -5.16,-8.62 -7.96,-14.04l14.02 -8.98 4.73 7.38c2.23,3.48 4.18,5.75 5.87,6.78 1.66,1.05 3.45,1.3 5.34,0.81 1.88,-0.53 7.12,-3.52 15.71,-9.02l65.55 -41.96zm76.23 121.99l10 17.35 -40.02 23.06 12.64 21.96c8.26,14.33 11.84,26.92 10.75,37.88 -1.1,10.93 -6.53,19.21 -16.28,24.83 -8.56,4.93 -17.7,5.92 -27.51,2.94 -9.79,-2.93 -18.76,-11.51 -26.95,-25.71l-24.97 -43.35 102.34 -58.96zm-78.14 68.13l10.53 18.27c6.34,11.02 12.21,18.09 17.61,21.25 5.4,3.14 10.98,3.08 16.7,-0.22 4.43,-2.55 7.37,-6.56 8.85,-12.05 1.44,-5.47 -1.25,-14.17 -8.12,-26.1l-11.86 -20.57 -33.71 19.42zm146.42 61.31l8.25 18.25 -44.78 20.25 22.88 50.6 44.78 -20.25 8.25 18.24 -107.62 48.67 -8.25 -18.25 47.69 -21.56 -22.88 -50.6 -47.69 21.57 -8.25 -18.25 107.62 -48.67zm80.37 133.72l21.54 -7.33 6.46 18.96 -21.55 7.33 -6.45 -18.96zm-132.72 45.15l111.81 -38.04 6.46 18.96 -111.82 38.04 -6.45 -18.96zm84.99 124.96l2.71 19.57c-13.55,1.6 -25.14,-0.79 -34.89,-7.22 -9.74,-6.43 -16.36,-15.86 -19.86,-28.23 -4.4,-15.51 -2.86,-29.43 4.61,-41.72 7.47,-12.32 20.66,-21.15 39.56,-26.51 12.27,-3.48 23.54,-4.46 33.88,-3.01 10.31,1.45 18.96,5.67 25.88,12.7 6.94,6.98 11.79,15.33 14.57,25.12 3.48,12.29 3.24,23.28 -0.78,32.86 -4.03,9.61 -11.47,17.17 -22.31,22.6l-8.11 -17.8c7.11,-3.95 11.96,-8.71 14.53,-14.37 2.55,-5.62 2.93,-11.64 1.11,-18.06 -2.75,-9.7 -8.45,-16.61 -17.11,-20.74 -8.68,-4.08 -20.49,-4 -35.52,0.26 -15.25,4.32 -25.49,10.37 -30.74,18.16 -5.22,7.83 -6.53,16.44 -3.88,25.82 2.16,7.59 6.24,13.25 12.31,16.98 6.04,3.77 14.06,4.96 24.04,3.59zm84 25.85l21.5 93.14 -16.18 3.74 -8.5 -36.82 -98.9 22.84 -4.51 -19.52 98.9 -22.83 -8.5 -36.81 16.19 -3.74zm28.71 139.77l2.51 19.87 -49 6.18 3.05 24.17c16.94,-0.35 30.35,3.27 40.25,10.85 9.91,7.62 15.74,18.36 17.49,32.25 1.5,11.81 0.3,21.44 -3.62,28.86 -3.92,7.45 -9.75,13.92 -17.58,19.42 -7.8,5.49 -18.77,9.13 -32.92,10.92 -20.17,2.54 -36.07,-0.12 -47.64,-7.98 -11.59,-7.87 -18.35,-19.67 -20.34,-35.4 -1.84,-14.6 1.54,-26.92 10.1,-36.98 8.59,-10.03 21.25,-16.67 38,-19.89l-3.05 -24.17 -51.92 6.55 -2.51 -19.86 117.18 -14.79zm-2.49 96.54c-1.23,-9.71 -5.91,-16.8 -14.05,-21.27 -8.09,-4.5 -18.86,-5.89 -32.3,-4.19 -16.06,2.02 -27.46,6.21 -34.26,12.61 -6.8,6.41 -9.61,14.18 -8.46,23.29 1.15,9.07 5.54,16.04 13.2,20.97 7.65,4.88 19.2,6.37 34.59,4.42 15.01,-1.89 25.98,-5.83 32.84,-11.79 6.9,-5.95 9.71,-13.96 8.44,-24.04zm72.21 185.22l-1.62 21.37 -131.98 70.26 125.91 9.58 -1.56 20.42 -162.48 -12.36 1.63 -21.4 131.42 -70.49 -125.33 -9.54 1.53 -20.2 162.48 12.36zm-85.63 130.66c13.12,1 23.28,5.46 30.51,13.38 7.23,7.97 10.38,17.99 9.46,30.1 -0.91,12.06 -5.65,21.36 -14.22,27.94 -8.52,6.61 -19.57,9.38 -33.16,8.35 -13.73,-1.05 -24.3,-5.57 -31.72,-13.6 -7.45,-8.06 -10.71,-18.15 -9.78,-30.34 0.79,-10.47 5.12,-19.38 12.95,-26.7 7.82,-7.32 19.8,-10.36 35.96,-9.13zm-2.08 19.24c-9.95,-0.76 -17.62,0.63 -22.96,4.23 -5.36,3.58 -8.27,8.26 -8.71,14.09 -0.41,5.41 1.64,10.39 6.2,14.96 4.56,4.57 11.78,7.22 21.68,7.97 10.41,0.79 18.09,-0.79 23.08,-4.78 4.98,-4.01 7.65,-8.59 8.05,-13.77 0.42,-5.6 -1.63,-10.59 -6.16,-15 -4.5,-4.42 -11.58,-6.97 -21.18,-7.7zm-55.81 -21.37l-5.73 75.35 -16.34 -1.25 5.73 -75.34 16.34 1.24zm36.92 123.95c18.92,3.39 33.88,8.08 44.76,14.05 10.91,6 18.79,13.39 23.65,22.19 4.85,8.78 6.22,19 4.13,30.65 -1.54,8.59 -4.61,15.82 -9.26,21.73 -4.64,5.87 -10.6,10.35 -17.89,13.36 -7.25,3.02 -15.79,4.87 -25.59,5.58 -9.8,0.75 -22.67,-0.33 -38.54,-3.18 -18.82,-3.38 -33.7,-8.05 -44.58,-13.98 -10.93,-5.93 -18.81,-13.31 -23.69,-22.13 -4.9,-8.78 -6.3,-19.05 -4.19,-30.78 2.76,-15.41 10.42,-26.56 23.02,-33.39 15.34,-8.15 38.05,-9.51 68.18,-4.1zm-3.69 20.14c-26.4,-4.74 -44.5,-4.83 -54.27,-0.22 -9.8,4.6 -15.5,11.44 -17.12,20.47 -1.62,9.03 1.38,17.44 8.97,25.16 7.64,7.73 24.6,13.93 50.92,18.66 26.39,4.73 44.49,4.82 54.25,0.22 9.8,-4.56 15.51,-11.47 17.17,-20.7 1.62,-9.03 -0.93,-16.97 -7.61,-23.75 -8.53,-8.52 -25.99,-15.11 -52.31,-19.84zm-25.48 127.3c18.5,5.24 32.92,11.38 43.16,18.39 10.27,7.04 17.38,15.17 21.35,24.41 3.97,9.21 4.32,19.52 1.1,30.9 -2.38,8.4 -6.14,15.3 -11.35,20.72 -5.2,5.39 -11.57,9.26 -19.12,11.54 -7.51,2.29 -16.19,3.29 -26.01,3.03 -9.84,-0.22 -22.54,-2.56 -38.05,-6.96 -18.39,-5.21 -32.74,-11.32 -42.99,-18.29 -10.29,-6.98 -17.4,-15.1 -21.4,-24.36 -4.01,-9.21 -4.39,-19.58 -1.14,-31.04 4.27,-15.06 12.99,-25.41 26.2,-30.97 16.07,-6.6 38.8,-5.71 68.25,2.63zm-5.65 19.69c-25.81,-7.32 -43.81,-9.19 -53.98,-5.56 -10.22,3.61 -16.56,9.86 -19.06,18.68 -2.5,8.83 -0.34,17.49 6.46,25.92 6.83,8.45 23.1,16.29 48.83,23.58 25.79,7.31 43.8,9.18 53.97,5.56 10.2,-3.58 16.56,-9.89 19.12,-18.91 2.5,-8.83 0.75,-16.98 -5.24,-24.39 -7.65,-9.31 -24.38,-17.59 -50.1,-24.88zm-36.24 124.88c17.88,7.07 31.62,14.62 41.1,22.62 9.51,8.04 15.78,16.84 18.8,26.43 3.03,9.56 2.34,19.85 -2.01,30.86 -3.21,8.11 -7.64,14.6 -13.37,19.47 -5.7,4.84 -12.44,8.05 -20.17,9.56 -7.7,1.53 -16.44,1.65 -26.19,0.41 -9.76,-1.2 -22.16,-4.8 -37.16,-10.73 -17.78,-7.03 -31.44,-14.55 -40.94,-22.51 -9.53,-7.98 -15.8,-16.77 -18.85,-26.38 -3.06,-9.57 -2.4,-19.92 1.98,-31 5.76,-14.56 15.47,-23.98 29.17,-28.19 16.65,-4.95 39.18,-1.8 67.64,9.46zm-7.6 19.02c-24.94,-9.86 -42.66,-13.53 -53.15,-10.94 -10.52,2.57 -17.46,8.15 -20.83,16.67 -3.37,8.54 -2.09,17.37 3.83,26.44 5.95,9.09 21.35,18.52 46.22,28.36 24.93,9.86 42.66,13.52 53.14,10.93 10.51,-2.53 17.47,-8.17 20.92,-16.89 3.37,-8.53 2.44,-16.82 -2.77,-24.79 -6.68,-10.03 -22.49,-19.95 -47.36,-29.78zm-47.04 120.91c17.12,8.75 30.07,17.58 38.75,26.45 8.69,8.91 14.08,18.27 16.17,28.11 2.1,9.81 0.43,19.99 -4.95,30.52 -3.97,7.78 -9.01,13.81 -15.17,18.11 -6.15,4.27 -13.16,6.82 -21,7.58 -7.82,0.78 -16.53,0.07 -26.11,-2.1 -9.6,-2.13 -21.6,-6.9 -35.96,-14.24 -17.02,-8.7 -29.9,-17.5 -38.59,-26.33 -8.73,-8.85 -14.12,-18.2 -16.24,-28.07 -2.13,-9.81 -0.48,-20.05 4.94,-30.66 7.13,-13.94 17.7,-22.39 31.73,-25.26 17.05,-3.34 39.17,1.96 66.43,15.89zm-9.38 18.2c-23.89,-12.2 -41.18,-17.55 -51.86,-15.98 -10.72,1.55 -18.16,6.44 -22.34,14.61 -4.17,8.17 -3.74,17.08 1.28,26.68 5.06,9.62 19.48,20.48 43.29,32.65 23.88,12.2 41.17,17.55 51.85,15.98 10.7,-1.52 18.18,-6.47 22.44,-14.81 4.18,-8.18 4.05,-16.51 -0.38,-24.95 -5.69,-10.62 -20.47,-22.01 -44.28,-34.18zm-125.25 62l122.36 125.03 -8.04 13.97 -122.36 -125.03 8.04 -13.97zm25.2 121.21c16.18,10.39 28.2,20.45 35.96,30.13 7.78,9.72 12.23,19.56 13.34,29.56 1.13,9.97 -1.53,19.93 -7.92,29.89 -4.72,7.34 -10.32,12.85 -16.88,16.53 -6.53,3.65 -13.76,5.5 -21.64,5.48 -7.85,0.01 -16.45,-1.55 -25.77,-4.65 -9.35,-3.06 -20.83,-8.99 -34.39,-17.7 -16.09,-10.33 -28.04,-20.35 -35.83,-29.99 -7.81,-9.67 -12.26,-19.5 -13.4,-29.52 -1.16,-9.98 1.49,-20.01 7.92,-30.04 8.46,-13.17 19.81,-20.54 34.06,-22.02 17.29,-1.65 38.79,5.79 64.55,22.33zm-11.13 17.19c-22.56,-14.49 -39.25,-21.5 -50.04,-20.99 -10.82,0.49 -18.7,4.63 -23.66,12.34 -4.96,7.73 -5.4,16.64 -1.34,26.69 4.09,10.06 17.38,22.29 39.88,36.74 22.56,14.48 39.24,21.5 50.03,20.99 10.8,-0.46 18.72,-4.66 23.78,-12.54 4.96,-7.73 5.65,-16.03 2.07,-24.86 -4.62,-11.13 -18.21,-23.92 -40.72,-38.37zm-73.4 106.62c15.13,11.87 26.15,23.01 32.97,33.38 6.82,10.41 10.32,20.63 10.49,30.69 0.18,10.03 -3.4,19.7 -10.7,29.01 -5.39,6.86 -11.48,11.82 -18.36,14.86 -6.85,3.02 -14.22,4.18 -22.06,3.43 -7.82,-0.73 -16.23,-3.1 -25.22,-7.06 -9.02,-3.93 -19.88,-10.92 -32.57,-20.87 -15.04,-11.8 -26,-22.9 -32.84,-33.23 -6.87,-10.36 -10.38,-20.57 -10.56,-30.65 -0.22,-10.05 3.36,-19.78 10.71,-29.15 9.67,-12.33 21.66,-18.59 35.99,-18.73 17.37,-0.01 38.06,9.43 62.15,28.32zm-12.69 16.07c-21.11,-16.55 -37.06,-25.11 -47.84,-25.62 -10.82,-0.53 -19.06,2.85 -24.72,10.06 -5.67,7.23 -6.95,16.06 -3.86,26.44 3.13,10.41 15.21,23.83 36.25,40.33 21.09,16.55 37.04,25.11 47.83,25.61 10.79,0.56 19.07,-2.87 24.86,-10.24 5.66,-7.22 7.13,-15.43 4.4,-24.56 -3.55,-11.51 -15.88,-25.52 -36.92,-42.02zm-148.27 52.68l16.47 15.72 -15.71 16.46 -16.47 -15.71 15.71 -16.47zm8.97 107.61c13.27,13.91 22.58,26.52 27.84,37.76 5.27,11.28 7.27,21.9 6,31.88 -1.26,9.95 -6.19,19.01 -14.75,27.17 -6.31,6.03 -13.06,10.06 -20.3,12.09 -7.21,2 -14.67,2.1 -22.33,0.23 -7.63,-1.84 -15.61,-5.39 -23.94,-10.6 -8.36,-5.18 -18.12,-13.65 -29.25,-25.31 -13.2,-13.84 -22.45,-26.39 -27.74,-37.59 -5.32,-11.24 -7.33,-21.85 -6.07,-31.85 1.23,-9.98 6.17,-19.1 14.78,-27.32 11.33,-10.81 24.1,-15.3 38.3,-13.38 17.19,2.48 36.32,14.78 57.46,36.92zm-14.87 14.09c-18.51,-19.4 -33.07,-30.15 -43.68,-32.2 -10.63,-2.07 -19.27,0.09 -25.9,6.42 -6.64,6.34 -9.18,14.89 -7.6,25.61 1.6,10.74 11.63,25.76 30.09,45.11 18.51,19.39 33.07,30.15 43.67,32.19 10.61,2.1 19.3,-0.11 26.07,-6.58 6.65,-6.33 9.27,-14.24 7.88,-23.67 -1.87,-11.9 -12.07,-27.53 -30.53,-46.88zm-95.09 88.07c11.88,15.12 19.94,28.56 24.11,40.25 4.16,11.74 5.14,22.49 2.91,32.31 -2.2,9.78 -7.97,18.33 -17.27,25.64 -6.87,5.39 -13.96,8.76 -21.37,10.09 -7.37,1.3 -14.8,0.68 -22.24,-1.91 -7.42,-2.57 -15.03,-6.86 -22.83,-12.84 -7.82,-5.96 -16.72,-15.32 -26.69,-28 -11.81,-15.03 -19.82,-28.41 -24.02,-40.07 -4.22,-11.69 -5.2,-22.44 -2.99,-32.28 2.17,-9.81 7.96,-18.42 17.32,-25.78 12.32,-9.68 25.45,-12.92 39.4,-9.65 16.88,4.1 34.75,18.18 53.67,42.24zm-16.15 12.61c-16.57,-21.09 -30.03,-33.18 -40.39,-36.23 -10.39,-3.09 -19.19,-1.76 -26.4,3.91 -7.22,5.67 -10.56,13.94 -10.02,24.76 0.57,10.85 9.12,26.76 25.64,47.78 16.57,21.08 30.04,33.17 40.4,36.22 10.35,3.11 19.21,1.74 26.57,-4.05 7.22,-5.67 10.59,-13.29 10.11,-22.81 -0.72,-12.03 -9.38,-28.56 -25.91,-49.58zm-155.75 17.06l13.21 18.53 -18.54 13.21 -13.21 -18.54 18.54 -13.2zm-15.51 108.67c9.6,16.66 15.65,31.12 18.1,43.28 2.44,12.21 1.87,22.99 -1.73,32.39 -3.58,9.37 -10.52,17 -20.77,22.9 -7.56,4.36 -15.07,6.68 -22.59,6.93 -7.48,0.24 -14.74,-1.44 -21.74,-5.07 -6.98,-3.6 -13.9,-8.93 -20.75,-15.97 -6.9,-7.02 -14.37,-17.56 -22.41,-31.52 -9.55,-16.57 -15.56,-30.96 -18.05,-43.1 -2.5,-12.18 -1.94,-22.96 1.66,-32.38 3.55,-9.4 10.51,-17.09 20.83,-23.04 13.57,-7.81 27.04,-9.14 40.38,-3.91 16.11,6.48 31.79,22.96 47.07,49.49zm-17.78 10.16c-13.39,-23.24 -24.99,-37.14 -34.8,-41.64 -9.84,-4.53 -18.74,-4.48 -26.69,0.1 -7.95,4.58 -12.44,12.29 -13.46,23.08 -0.99,10.82 5.2,27.78 18.55,50.95 13.38,23.23 24.98,37.13 34.79,41.63 9.81,4.55 18.77,4.47 26.89,-0.21 7.95,-4.58 12.38,-11.64 13.26,-21.13 1.01,-12.01 -5.19,-29.61 -18.54,-52.78zm-112.32 65.26c7.93,17.52 12.54,32.5 13.79,44.84 1.23,12.39 -0.39,23.07 -4.89,32.06 -4.48,8.98 -12.13,15.89 -22.91,20.77 -7.96,3.6 -15.65,5.17 -23.16,4.69 -7.47,-0.5 -14.54,-2.88 -21.14,-7.18 -6.6,-4.26 -12.96,-10.25 -19.1,-17.92 -6.17,-7.66 -12.57,-18.88 -19.21,-33.57 -7.88,-17.42 -12.46,-32.32 -13.75,-44.65 -1.3,-12.36 0.32,-23.04 4.82,-32.06 4.45,-9.01 12.13,-15.98 22.99,-20.89 14.26,-6.45 27.79,-6.46 40.56,0.05 15.4,8.02 29.39,25.96 42,53.86zm-18.69 8.37c-11.05,-24.44 -21.23,-39.4 -30.56,-44.84 -9.34,-5.47 -18.21,-6.29 -26.57,-2.52 -8.36,3.79 -13.58,11.02 -15.64,21.66 -2.05,10.67 2.45,28.16 13.47,52.52 11.04,24.43 21.23,39.39 30.56,44.83 9.31,5.49 18.24,6.29 26.77,2.42 8.37,-3.78 13.46,-10.37 15.27,-19.73 2.18,-11.85 -2.28,-29.98 -13.3,-54.34z"/>
  </g>
  <path class="fil2" d="M3340.28 2052.67c0,712.61 -577.68,1290.28 -1290.29,1290.28 -712.58,0 -1290.28,-577.67 -1290.28,-1290.28 0,-712.61 577.7,-1290.3 1290.28,-1290.3 712.61,0 1290.29,577.69 1290.29,1290.3z"/>
  <path class="fil1 str6" d="M805.82 1706.43l-5.39 23.34 -154.23 -35.6 -18.5 80.12 154.24 35.6 -5.39 23.35 -174.93 -40.38 29.27 -126.81 174.93 40.38zm-4.27 -197.97c20.83,8.21 35.47,19.78 43.91,34.65 8.41,14.9 9.61,30.03 3.57,45.34 -2.44,6.21 -5.35,11.42 -8.67,15.69 -3.3,4.23 -7.43,8.31 -12.39,12.14l52.37 20.65 -8.33 21.14 -171.37 -67.57 8.33 -21.13 13.13 5.17c-2.64,-7.09 -4.28,-14.51 -4.93,-22.16 -0.64,-7.68 0.55,-15.31 3.52,-22.85 5.69,-14.44 15.78,-23.42 30.34,-27.01 14.56,-3.6 31.38,-1.61 50.52,5.94zm-6.34 22.72c-14.28,-5.63 -26.26,-7.7 -35.94,-6.26 -9.69,1.49 -16.57,7.37 -20.63,17.66 -2.35,5.98 -3.3,12.32 -2.87,18.95 0.44,6.63 1.75,13.3 3.99,19.97l70.9 27.96c4.91,-4.47 8.62,-8.5 11.14,-12.07 2.51,-3.56 4.78,-7.88 6.79,-12.98 4.33,-10.99 3.7,-21.06 -1.9,-30.3 -5.6,-9.24 -16.09,-16.87 -31.48,-22.93zm108.05 -69.77l-10.35 20.22 -119.79 -61.34 10.36 -20.22 119.78 61.34zm-139.21 -73.24l-11.82 23.08 -20.89 -10.7 11.82 -23.08 20.89 10.7zm187.77 -82.01c6.34,4.07 10.82,8.9 13.44,14.49 2.59,5.57 3.8,11.38 3.59,17.35 -0.15,5.73 -1.32,11.58 -3.5,17.66 -2.17,6.04 -4.92,11.71 -8.32,17.01 -4.75,7.41 -9.99,13.99 -15.71,19.7 -5.7,5.69 -12.27,10.81 -19.68,15.3l-21.17 -13.58 0.77 -1.21c7.16,-1.86 14.21,-5.46 21.1,-10.78 6.9,-5.35 12.53,-11.47 16.93,-18.33 1.91,-2.98 3.62,-6.32 5.2,-10.16 1.51,-3.82 2.39,-7.32 2.55,-10.53 0.1,-4.29 -0.48,-7.79 -1.75,-10.47 -1.3,-2.69 -3.83,-5.23 -7.57,-7.64 -4.02,-2.57 -7.73,-3.88 -11.11,-3.94 -3.44,-0.05 -6.57,0.87 -9.47,2.72 -2.88,1.83 -5.5,4.3 -7.9,7.36 -2.4,3.05 -4.75,6.43 -7.09,10.07l-8.53 13.31 -16.63 -10.67 6.51 -10.15c1.64,-2.57 3.61,-5.79 5.9,-9.75 2.28,-3.92 3.71,-7.31 4.28,-10.17 0.76,-3.56 0.73,-6.86 -0.16,-9.88 -0.84,-3.04 -3.65,-6.06 -8.4,-9.1 -3.29,-2.12 -6.42,-3.09 -9.43,-2.92 -2.95,0.21 -5.73,1.02 -8.3,2.5 -2.68,1.51 -5.1,3.47 -7.29,5.88 -2.15,2.39 -4.03,4.85 -5.63,7.34 -4.09,6.38 -7.12,13.09 -9.13,20.11 -1.97,7.05 -2.58,13.79 -1.8,20.26l-0.78 1.21 -20.61 -13.22c1.42,-5.93 3.39,-12.29 5.91,-19.04 2.49,-6.72 5.63,-13.05 9.45,-19.01 3.09,-4.82 6.69,-9.35 10.89,-13.7 4.15,-4.34 8.83,-7.98 14.09,-10.92 4.97,-2.72 10.4,-4.18 16.24,-4.44 5.88,-0.25 11.71,1.48 17.57,5.24 6.17,3.96 10.46,9.16 12.88,15.6 2.4,6.47 2.51,13.01 0.35,19.73l0.69 0.45c6.19,-4.93 12.82,-7.96 19.84,-9.14 7.04,-1.15 14.29,0.66 21.78,5.46zm98.73 -135.49c5.12,4.03 8.91,8.58 11.31,13.66 2.42,5.04 3.62,10.38 3.6,15.86 -0.05,6.92 -1.32,13.2 -3.83,18.87 -2.52,5.61 -6.39,11.73 -11.55,18.29l-32.73 41.65 -105.82 -83.15 30.59 -38.93c6.13,-7.8 10.83,-13.31 14.14,-16.53 3.3,-3.26 7.33,-5.86 12.06,-7.89 4.98,-2.12 9.79,-2.79 14.55,-1.92 4.73,0.84 9.36,3.07 13.96,6.68 5.05,3.97 8.49,8.92 10.31,14.86 1.82,5.87 2.02,12 0.56,18.33l1.03 0.02c5.96,-4.58 12.66,-7.05 20.15,-7.45 7.46,-0.37 14.68,2.16 21.67,7.65zm-65.34 -12.7c-2.39,-1.88 -4.76,-3.12 -7.12,-3.72 -2.39,-0.56 -4.85,-0.31 -7.37,0.85 -2.94,1.35 -5.64,3.31 -8.06,5.92 -2.44,2.64 -5.58,6.44 -9.48,11.4l-13.24 16.86 28.73 22.58 16 -20.35c3.41,-4.34 5.63,-7.57 6.63,-9.71 1.03,-2.12 1.76,-4.84 2.14,-8.06 0.42,-3.06 -0.14,-5.87 -1.57,-8.4 -1.44,-2.55 -3.64,-5 -6.66,-7.37zm50.78 31.1c-3.62,-2.85 -6.94,-4.61 -9.93,-5.28 -3.01,-0.7 -6.76,0.08 -11.22,2.22 -2.83,1.34 -5.33,3.19 -7.57,5.51 -2.24,2.32 -5.13,5.71 -8.63,10.18l-16.38 20.84 34.76 27.31 12.08 -15.37c5.01,-6.37 8.62,-11.5 10.87,-15.43 2.28,-3.91 3.61,-7.74 4.08,-11.45 0.4,-3.92 0.02,-7.36 -1.17,-10.24 -1.23,-2.9 -3.52,-5.65 -6.89,-8.29zm164.54 -108.74l-16.44 15.68 -69.27 -72.65 23.72 116.07 -15.04 14.34 -92.87 -97.4 16.45 -15.68 68.18 71.52 -23.14 -114.46 15.55 -14.82 92.86 97.4zm211.42 -117.19l-17.11 12.17 -18.75 -26.37 -123.76 88.02 -78 -109.67 18.52 -13.17 66.98 94.18 37.23 -26.47 -66.99 -94.18 18.52 -13.17 66.98 94.18 37.23 -26.47 -66.99 -94.18 18.52 -13.17 66.98 94.18 10.87 -7.73 29.77 41.85zm86.89 -74.42c-19.11,9.79 -36.75,12.02 -52.83,6.71 -16.08,-5.3 -29.18,-17.88 -39.31,-37.66 -9.99,-19.49 -12.79,-37.62 -8.44,-54.4 4.31,-16.77 14.77,-29.4 31.33,-37.88 7.47,-3.82 14.61,-6.13 21.43,-6.9 6.84,-0.83 13.58,-0.02 20.22,2.36 6.67,2.37 12.81,6.24 18.48,11.71 5.68,5.42 10.97,12.93 15.86,22.49l5.61 10.95 -83.3 42.66c7.11,13.88 16.07,22.71 26.85,26.44 10.8,3.76 22.43,2.43 34.84,-3.93 4.44,-2.27 8.57,-5.04 12.32,-8.2 3.77,-3.18 6.94,-6.47 9.58,-9.81 2.82,-3.52 5.13,-6.69 6.84,-9.51 1.74,-2.83 3.07,-5.37 4.02,-7.57l1.17 -0.6 11.28 22.02c-1.91,2.13 -4.25,4.81 -7.05,8 -2.8,3.19 -5.39,5.9 -7.78,8.1 -3.41,3.09 -6.53,5.75 -9.41,7.97 -2.91,2.17 -6.83,4.55 -11.71,7.05zm-15.09 -87.98c-2.92,-5.35 -5.98,-9.7 -9.12,-13.04 -3.15,-3.34 -6.54,-5.81 -10.06,-7.43 -3.89,-1.75 -8.12,-2.5 -12.62,-2.18 -4.51,0.32 -9.48,1.89 -14.98,4.71 -5.38,2.76 -9.54,5.91 -12.49,9.45 -2.95,3.55 -5.22,7.62 -6.72,12.27 -1.42,4.71 -1.91,9.35 -1.58,13.99 0.38,4.62 1.68,9.59 3.83,14.87l63.74 -32.64zm231.22 5.82l-67.23 19.09 -4.99 -17.57 22.09 -6.28 -39.06 -137.54 -22.1 6.28 -4.99 -17.59 67.23 -19.09 4.99 17.58 -22.09 6.28 39.06 137.54 22.1 -6.27 4.99 17.57zm183.49 -37.34l-22.37 3.99 -18.58 -104.12 -19.73 73.33 -16.61 2.97 -43.65 -62.03 18.59 104.13 -20.9 3.73 -23.65 -132.49 26.95 -4.81 48.01 67.35 20.58 -79.59 27.71 -4.95 23.65 132.49zm58.99 -117.83l-8.05 -32.46 -2.23 -29.42 24.63 -1.88 2.23 29.43 -3.29 33.32 -13.29 1.01zm184.02 113.29l-22.71 -0.58 1.35 -53.32 -22.22 -0.56 -41.51 52.3 -26.49 -0.67 44.77 -54.28c-11.07,-3.57 -19.14,-8.68 -24.11,-15.31 -5.03,-6.63 -7.4,-15.42 -7.12,-26.37 0.17,-6.65 1.8,-12.46 4.85,-17.41 3.05,-4.94 7.14,-9.08 12.21,-12.41 4.06,-2.61 9.22,-4.5 15.34,-5.71 6.16,-1.15 13.01,-1.64 20.53,-1.45l48.52 1.23 -3.41 134.54zm-20.91 -71.68l1.14 -45.17 -24.52 -0.62c-5.19,-0.13 -9.3,0.05 -12.33,0.51 -3.01,0.5 -5.96,1.5 -8.8,3.03 -2.92,1.7 -5.16,4.03 -6.73,7 -1.55,2.96 -2.37,6.15 -2.46,9.61 -0.11,4.4 0.29,7.99 1.25,10.77 0.92,2.83 2.66,5.38 5.24,7.8 2.78,2.45 6.15,4.14 10.17,4.99 4.01,0.88 8.44,1.36 13.26,1.48l23.78 0.6zm277.26 115.83l-23.34 -5.38 35.61 -154.24 -80.13 -18.49 -35.6 154.23 -23.35 -5.39 40.39 -174.93 126.8 29.27 -40.38 174.93zm194.29 -1.63c-8.32,21.1 -19.8,35.33 -34.48,42.81 -14.69,7.44 -30.47,7.85 -47.36,1.19 -17.42,-6.87 -28.79,-18.21 -34.08,-33.96 -5.33,-15.77 -3.97,-33.82 4.04,-54.15 8.25,-20.9 19.78,-35.11 34.64,-42.61 14.83,-7.56 30.67,-8 47.48,-1.37 16.89,6.65 28.12,17.77 33.76,33.31 5.59,15.56 4.27,33.8 -4,54.78zm-21.82 -8.6c6.35,-16.13 8.14,-29.27 5.34,-39.44 -2.81,-10.17 -9.65,-17.38 -20.53,-21.67 -10.95,-4.32 -20.95,-3.75 -29.98,1.75 -9.03,5.51 -16.7,16.33 -23.06,32.46 -6.16,15.62 -7.88,28.61 -5.12,39.03 2.74,10.42 9.63,17.78 20.58,22.1 10.79,4.25 20.73,3.61 29.79,-1.97 9.06,-5.59 16.7,-16.34 22.98,-32.26zm243.65 72.54c1.82,7.22 2.02,15.07 0.43,23.61 -1.57,8.5 -5.03,17.41 -10.41,26.77 -5.17,8.99 -11.38,16.48 -18.65,22.51 -7.24,5.99 -14.79,10.19 -22.69,12.63 -8.15,2.53 -16.04,3.45 -23.72,2.69 -7.68,-0.75 -15.11,-3.19 -22.28,-7.31 -7.32,-4.21 -13.29,-9.35 -17.9,-15.36 -4.64,-6.04 -7.6,-12.97 -8.86,-20.76 -1.53,-9.72 -0.8,-20.31 2.27,-31.84 3.04,-11.5 8.79,-24.62 17.26,-39.36 3,-5.21 6.29,-10.43 9.85,-15.56 3.58,-5.15 8.3,-11.03 14.13,-17.7 5.24,-5.91 10.7,-11.03 16.36,-15.42 5.72,-4.4 11.58,-7.49 17.72,-9.27 7.88,-2.31 16.7,-2.69 26.42,-1.19 9.78,1.5 21.55,5.46 35.36,11.84 4.91,2.26 10.14,4.73 15.67,7.4 5.54,2.66 9.78,4.72 12.69,6.1l-10.46 18.2c-3.73,-1.86 -7.74,-3.83 -12.02,-5.86 -4.29,-2.04 -9.16,-4.37 -14.69,-6.98 -7.3,-3.49 -15.37,-6.47 -24.12,-8.93 -8.71,-2.5 -16.18,-2.81 -22.39,-1.01 -4.63,1.28 -9.42,4.23 -14.36,8.79 -4.92,4.58 -9.7,10.09 -14.33,16.49 7.25,-0.72 14.58,-0.68 21.89,0.15 7.35,0.85 14.44,3.22 21.25,7.14 6.32,3.63 11.7,8.15 16.2,13.54 4.47,5.42 7.59,11.63 9.38,18.69zm-30.59 40.14c7.1,-12.34 9.77,-23.44 8.01,-33.24 -1.78,-9.8 -7.78,-17.67 -18.06,-23.58 -5.64,-3.24 -11.63,-5.46 -17.96,-6.67 -6.35,-1.18 -12.72,-1.57 -19.12,-1.17 -1.16,1.67 -2.48,3.65 -4,5.96 -1.54,2.34 -2.86,4.48 -3.97,6.41 -6.98,12.13 -11.7,22.57 -14.1,31.29 -2.44,8.71 -3.16,16.22 -2.14,22.55 0.86,5.68 2.62,10.3 5.22,13.79 2.63,3.5 5.98,6.43 10.09,8.79 9.99,5.75 19.94,6.44 29.87,2.04 9.92,-4.37 18.63,-13.08 26.16,-26.17zm113.43 123.96l22.96 -29.23c-4.52,-2.91 -10.26,-6.59 -17.21,-11 -6.98,-4.44 -12.93,-7.6 -17.82,-9.5 -5.87,-2.25 -11.52,-3.13 -16.93,-2.57 -5.41,0.56 -10.25,3.51 -14.44,8.85 -4.74,6.03 -6.6,11.93 -5.62,17.68 0.99,5.75 4.72,11.18 11.26,16.32 5.63,4.43 11.62,7.2 18.05,8.33 6.41,1.16 13.03,1.54 19.75,1.12zm-11.63 14.79c-2.31,-0.05 -5.42,-0.08 -9.38,-0.04 -3.93,0 -7.48,-0.28 -10.63,-0.93 -4.47,-0.84 -8.5,-1.96 -12.14,-3.41 -3.59,-1.41 -8.06,-4.19 -13.37,-8.36 -4.37,-3.44 -7.84,-7.46 -10.46,-12.19 -2.62,-4.73 -4.25,-9.72 -4.88,-15.04 -0.53,-5.13 0.02,-10.5 1.67,-16.12 1.61,-5.59 4.3,-10.75 8.04,-15.51 5.77,-7.34 12.21,-12.33 19.35,-15.1 7.15,-2.7 15.25,-2.94 24.3,-0.75 8.06,1.95 16.56,5.58 25.42,10.87 8.91,5.32 18.22,11.39 27.96,18.2l2.72 -3.47c3.3,-4.21 5.32,-8.12 6.1,-11.69 0.76,-3.58 0.59,-6.96 -0.58,-10.13 -1.12,-3.3 -3.11,-6.43 -6.03,-9.51 -2.88,-3.05 -6.12,-5.95 -9.58,-8.67 -4.11,-3.23 -9.41,-6.4 -15.97,-9.52 -6.53,-3.08 -13.53,-5.61 -20.98,-7.58l-1.04 -0.82 14.21 -18.09c4.04,1.66 9.55,4.31 16.59,8.01 7.03,3.69 13.54,7.86 19.57,12.6 7.28,5.72 12.94,11.1 17.06,16.17 4.09,5.05 6.99,10.63 8.64,16.73 1.55,5.94 1.46,11.99 -0.25,18.09 -1.72,6.12 -5.2,12.49 -10.41,19.13l-56.96 72.49 -17.86 -14.03 8.89 -11.33zm209.45 62.55l-31.69 -33.24 -83.11 79.25 -15.68 -16.45 83.11 -79.24 -31.7 -33.24 14.29 -13.63 79.08 82.92 -14.3 13.63zm46 172.62c-5.14,4.05 -10.58,6.66 -16.36,7.89 -5.79,1.21 -11.35,1.08 -16.72,-0.42 -6.44,-1.67 -12.18,-4.39 -17.23,-8.07 -5.06,-3.71 -10.52,-9.26 -16.4,-16.74l-29.12 -37.04 105.81 -83.17 14.04 17.86 -41.16 32.35 15.49 19.7c6.26,7.97 10.67,14.44 13.32,19.48 2.65,5.04 4.05,11.01 4.22,17.89 0.17,5.82 -1.12,11.29 -3.93,16.44 -2.79,5.17 -6.78,9.76 -11.96,13.83zm-14.68 -18.29c3.19,-2.52 5.58,-5.27 7.15,-8.28 1.55,-3.01 2.11,-6.38 1.64,-10.1 -0.52,-3.87 -1.92,-7.64 -4.28,-11.23 -2.35,-3.65 -5.97,-8.6 -10.93,-14.92l-10.4 -13.23 -35.92 28.24 10.09 12.84c4.96,6.31 9.06,11 12.33,14.02 3.27,3.09 6.65,5.25 10.15,6.58 3.65,1.31 7.07,1.67 10.22,1.08 3.17,-0.62 6.48,-2.28 9.95,-5zm66.96 185.23l-14.07 -24.48 30.68 -70.99 -5.58 -9.71 -53.73 30.9 -11.33 -19.7 116.68 -67.08 11.32 19.7 -50.73 29.17c2.98,5.02 6.55,8.76 10.64,11.16 4.12,2.37 9.86,3.11 17.2,2.16 2.18,-0.25 4.66,-0.54 7.5,-0.99 2.81,-0.38 5.28,-0.8 7.33,-1.27 10.29,-1.93 18.8,-1.17 25.47,2.27 6.67,3.42 12.52,9.55 17.55,18.3l3.07 5.34 -17.12 9.85 -2.58 -4.49c-3.16,-5.5 -6.64,-8.97 -10.39,-10.46 -3.79,-1.48 -9.19,-1.46 -16.25,0.13 -7.17,1.56 -13.2,1.99 -18.13,1.26 -4.91,-0.69 -9.15,-2.14 -12.8,-4.27l-34.73 83.2zm128.56 117.68c-20.66,9.34 -38.82,11.54 -54.55,6.69 -15.73,-4.9 -27.34,-15.6 -34.81,-32.14 -7.72,-17.07 -7.97,-33.12 -0.8,-48.1 7.16,-15.04 20.72,-27.04 40.63,-36.04 20.47,-9.25 38.65,-11.41 54.53,-6.44 15.91,4.91 27.58,15.63 35.02,32.09 7.48,16.54 7.8,32.34 1.01,47.41 -6.83,15.07 -20.48,27.24 -41.03,36.53zm-9.66 -21.38c15.79,-7.14 26.23,-15.32 31.31,-24.58 5.07,-9.25 5.18,-19.19 0.37,-29.84 -4.85,-10.72 -12.43,-17.29 -22.74,-19.63 -10.32,-2.33 -23.36,0.08 -39.15,7.22 -15.3,6.92 -25.58,15.05 -30.87,24.44 -5.29,9.39 -5.47,19.46 -0.63,30.18 4.78,10.58 12.36,17.05 22.75,19.35 10.4,2.31 23.36,-0.09 38.96,-7.14zm34.09 195.03c-6.26,1.78 -12.18,2.17 -17.7,1.13 -5.5,-1.01 -10.52,-3.17 -14.94,-6.4 -5.58,-4.11 -9.91,-8.83 -13.03,-14.19 -3.05,-5.34 -5.73,-12.06 -8.01,-20.1l-14.48 -50.95 129.46 -36.77 13.53 47.62c2.71,9.54 4.41,16.59 5.07,21.15 0.7,4.59 0.44,9.38 -0.7,14.4 -1.21,5.27 -3.49,9.56 -6.99,12.9 -3.46,3.33 -7.99,5.77 -13.61,7.37 -6.18,1.76 -12.2,1.63 -18.08,-0.38 -5.82,-1.98 -10.9,-5.42 -15.16,-10.32l-0.62 0.82c0.2,7.51 -1.74,14.39 -5.81,20.68 -4.09,6.26 -10.38,10.61 -18.93,13.04zm48.66 -45.4c2.94,-0.84 5.33,-2.03 7.2,-3.59 1.86,-1.6 3.1,-3.74 3.64,-6.46 0.64,-3.17 0.64,-6.51 -0.05,-9.99 -0.7,-3.54 -1.93,-8.31 -3.66,-14.37l-5.85 -20.63 -35.16 9.99 7.07 24.9c1.51,5.31 2.82,9 3.95,11.07 1.12,2.08 2.89,4.27 5.27,6.46 2.23,2.15 4.84,3.34 7.72,3.67 2.91,0.33 6.19,-0.01 9.87,-1.05zm-54.99 22.81c4.43,-1.26 7.81,-2.9 10.1,-4.93 2.34,-2.02 3.91,-5.52 4.8,-10.38 0.58,-3.08 0.55,-6.19 -0.01,-9.37 -0.56,-3.17 -1.61,-7.5 -3.16,-12.97l-7.25 -25.49 -42.52 12.08 5.34 18.81c2.21,7.79 4.24,13.72 6.1,17.86 1.82,4.14 4.14,7.46 6.87,10.03 2.93,2.62 5.94,4.34 8.97,5.07 3.07,0.71 6.64,0.46 10.76,-0.71zm-17.86 114.38l-4 -22.37 132.49 -23.64 3.99 22.37 -132.48 23.64zm155.15 -25.93l-4.55 -25.53 23.09 -4.12 4.56 25.53 -23.1 4.12z"/>
  <path class="fil1 str6" d="M1393.42 3153.38l-135.65 90.78c-5.74,3.84 -11,6.41 -15.94,7.78 -4.93,1.38 -9.44,1.88 -13.56,1.49 -4.18,-0.32 -7.91,-1.18 -11.24,-2.56 -3.31,-1.42 -6.48,-3.08 -9.49,-5.03 -2.68,-1.73 -5.79,-3.84 -9.3,-6.31 -3.51,-2.47 -5.78,-4.08 -6.72,-4.79l11.93 -18.42 1.4 0.91c0.96,0.78 2.37,1.89 4.32,3.39 1.97,1.47 4.53,3.23 7.69,5.27 1.47,0.95 3.26,2.02 5.37,3.14 2.13,1.14 4.29,1.86 6.48,2.15 2.55,0.34 5.18,0.28 7.91,-0.18 2.71,-0.43 5.88,-1.88 9.46,-4.33l8.52 -5.63 19.31 -145.07 22.08 14.3 -16.45 114.36 93.72 -64.31 20.16 13.06zm159.92 272.07l-28.06 -11.25 -28.12 -99.2 -13.77 -5.52 -30.37 75.75 -22.06 -8.85 66.31 -165.37 22.06 8.85 -29.92 74.6c8.8,3.19 16.54,3.78 23.26,1.72 6.68,-2.07 13.15,-6.26 19.4,-12.6 2.65,-2.81 5.15,-5.5 7.42,-8.07 2.27,-2.62 4.16,-4.8 5.66,-6.58 9.53,-10.92 18.68,-17.38 27.49,-19.38 8.82,-2.01 19.33,-0.57 31.57,4.34l6.79 2.73 -7.84 19.55 -5.58 -2.23c-9.02,-3.62 -16.06,-4.38 -21.13,-2.27 -5.03,2.12 -11.05,7.45 -18.04,16 -6.95,8.57 -13.24,14.37 -18.81,17.41 -5.62,3.03 -11.78,5.22 -18.53,6.57l32.27 113.8zm283.37 -52.49c-1.76,7.56 -4.78,14.37 -9,20.48 -4.24,6.09 -9.27,10.96 -15.07,14.6 -7.34,4.5 -15.38,7.36 -24.17,8.5 -8.74,1.15 -19.27,0.29 -31.61,-2.59l-19.49 -4.54 -15.07 64.68 -23.15 -5.39 40.44 -173.52 43.47 10.13c10.27,2.39 18.79,5.25 25.59,8.64 6.8,3.4 12.52,7.67 17.16,12.73 5.37,5.95 9.12,12.73 11.19,20.4 2.03,7.64 1.95,16.26 -0.29,25.88zm-24.24 -5.06c1.38,-5.92 1.56,-11.33 0.54,-16.19 -1.03,-4.89 -3.3,-9.2 -6.79,-12.91 -3.1,-3.28 -6.93,-5.93 -11.51,-8.04 -4.58,-2.13 -10.46,-4.04 -17.67,-5.72l-18.97 -4.42 -16.03 68.74 15.64 3.65c9.27,2.16 16.92,3.14 23,2.97 6.03,-0.15 11.4,-1.75 16.1,-4.68 4.2,-2.72 7.55,-5.88 10.05,-9.61 2.5,-3.74 4.37,-8.33 5.64,-13.79zm135.29 140.97l65.64 -176.21 29.23 0.91 54.56 179.95 -25.07 -0.78 -14.54 -49.99 -68.18 -2.12 -17.59 48.99 -24.05 -0.75zm103.76 -66.9l-24.84 -84.47 -29.95 82.77 54.79 1.7zm259.66 46.02l-68.2 12.6 -3.3 -17.84 22.41 -4.14 -25.76 -139.54 -22.41 4.14 -3.29 -17.83 68.21 -12.59 3.29 17.82 -22.42 4.14 25.76 139.55 22.42 -4.14 3.29 17.83zm-34.28 -197.78l-23.37 4.32 -4.23 -22.9 23.38 -4.31 4.22 22.89zm-48.92 9.03l-23.37 4.32 -4.23 -22.89 23.37 -4.32 4.23 22.89zm366.3 108.7l-22.45 7.8 -28.63 -82.42 -77.09 26.78 28.63 82.42 -22.45 7.8 -58.47 -168.31 22.45 -7.8 22.92 65.98 77.09 -26.78 -22.92 -65.98 22.46 -7.8 58.46 168.31zm139.13 -64.72l-37.72 -184.22 25.28 -14.72 141.62 123.7 -21.67 12.62 -38.82 -34.68 -58.94 34.32 11.04 50.87 -20.79 12.11zm52.54 -111.72l-65.82 -58.47 18.45 86.06 47.37 -27.59z"/>
  <path class="fil1 str7" d="M1953.92 3718.71l10.37 -31.93c23.97,8.41 41.29,15.65 52.2,21.82 -2.87,-27.14 -4.41,-45.88 -4.57,-56.06l32.95 0c-0.46,14.88 -2.17,33.47 -5.26,55.83 15.54,-7.78 33.33,-15.04 53.37,-21.59l10.35 31.93c-19.1,6.32 -37.81,10.56 -56.22,12.64 9.21,7.94 22.12,22.21 38.82,42.65l-27.06 19.2c-8.74,-11.87 -19.11,-28.07 -31.01,-48.51 -11.22,21.21 -21.04,37.41 -29.47,48.51l-26.61 -19.2c17.4,-21.52 29.93,-35.71 37.44,-42.65 -19.42,-3.77 -37.82,-8.02 -55.3,-12.64z"/>
 </g>
</svg>
