<?xml version="1.0" encoding="UTF-8"?>
<!DOCTYPE svg PUBLIC "-//W3C//DTD SVG 1.1//EN" "http://www.w3.org/Graphics/SVG/1.1/DTD/svg11.dtd">
<!-- Creator: CorelDRAW 2019 (64-Bit) -->
<svg xmlns="http://www.w3.org/2000/svg" xml:space="preserve" width="41mm" height="41mm" version="1.1" style="shape-rendering:geometricPrecision; text-rendering:geometricPrecision; image-rendering:optimizeQuality; fill-rule:evenodd; clip-rule:evenodd"
viewBox="0 0 4100 4100"
 xmlns:xlink="http://www.w3.org/1999/xlink">
 <defs>
  <style type="text/css">
   <![CDATA[
    .str4 {stroke:#393185;stroke-width:50;stroke-miterlimit:22.9256}
    .str3 {stroke:#393185;stroke-width:45;stroke-miterlimit:22.9256}
    .str5 {stroke:#393185;stroke-width:30;stroke-miterlimit:22.9256}
    .str1 {stroke:#393185;stroke-width:15;stroke-miterlimit:22.9256}
    .str0 {stroke:#393185;stroke-width:10;stroke-miterlimit:22.9256}
    .str2 {stroke:#393185;stroke-width:20;stroke-linecap:round;stroke-linejoin:round;stroke-miterlimit:22.9256}
    .fil2 {fill:none}
    .fil3 {fill:none;fill-rule:nonzero}
    .fil1 {fill:#393185}
    .fil0 {fill:#393185;fill-rule:nonzero}
   ]]>
  </style>
 </defs>
 <g id="Слой_x0020_1">
  <metadata id="CorelCorpID_0Corel-Layer"/>
  <g id="_1351589472">
   <path class="fil0" d="M2050 3707.64l0 -37.9 0 0 83.37 -2.11 82.27 -6.25 81.05 -10.3 79.76 -14.25 78.36 -18.08 76.85 -21.83 75.26 -25.47 73.55 -29 71.74 -32.42 69.84 -35.77 67.82 -39.01 65.72 -42.13 63.5 -45.16 61.2 -48.09 58.76 -50.91 56.26 -53.64 53.64 -56.26 50.9 -58.77 48.09 -61.19 45.17 -63.51 42.12 -65.72 39.01 -67.82 35.76 -69.84 32.44 -71.74 28.99 -73.55 25.46 -75.26 21.83 -76.85 18.08 -78.36 14.25 -79.76 10.3 -81.06 6.25 -82.26 2.11 -83.37 37.9 0 -2.15 85.29 -6.41 84.16 -10.54 82.96 -14.57 81.64 -18.52 80.2 -22.33 78.67 -26.06 77.02 -29.69 75.29 -33.2 73.42 -36.6 71.48 -39.91 69.42 -43.12 67.26 -46.21 64.99 -49.21 62.61 -52.1 60.15 -54.88 57.56 -57.56 54.88 -60.14 52.11 -62.62 49.21 -64.98 46.2 -67.26 43.13 -69.42 39.91 -71.48 36.61 -73.42 33.2 -75.29 29.68 -77.02 26.07 -78.67 22.33 -80.2 18.52 -81.64 14.57 -82.95 10.54 -84.17 6.41 -85.29 2.15 0 0zm-1657.62 -1657.64l37.9 0 0 0 2.11 83.37 6.25 82.26 10.3 81.06 14.25 79.76 18.08 78.36 21.83 76.85 25.46 75.26 29 73.55 32.43 71.74 35.77 69.83 39.01 67.83 42.12 65.72 45.17 63.51 48.08 61.19 50.91 58.77 53.64 56.26 56.26 53.64 58.76 50.91 61.2 48.09 63.51 45.16 65.71 42.13 67.82 39.01 69.84 35.77 71.75 32.42 73.54 29 75.26 25.47 76.85 21.83 78.36 18.08 79.76 14.25 81.06 10.3 82.26 6.25 83.37 2.11 0 37.9 -85.29 -2.15 -84.16 -6.41 -82.96 -10.54 -81.64 -14.57 -80.2 -18.52 -78.67 -22.33 -77.02 -26.07 -75.28 -29.68 -73.43 -33.2 -71.48 -36.61 -69.42 -39.91 -67.25 -43.13 -64.99 -46.2 -62.62 -49.21 -60.14 -52.11 -57.56 -54.88 -54.88 -57.56 -52.11 -60.15 -49.2 -62.61 -46.21 -64.99 -43.12 -67.26 -39.91 -69.41 -36.61 -71.49 -33.19 -73.42 -29.7 -75.29 -26.06 -77.02 -22.33 -78.67 -18.52 -80.2 -14.57 -81.64 -10.54 -82.96 -6.41 -84.16 -2.15 -85.29 0 0zm1657.62 -1657.65l0 37.9 0 0 -83.37 2.11 -82.26 6.25 -81.06 10.3 -79.76 14.25 -78.36 18.08 -76.85 21.83 -75.26 25.47 -73.54 28.99 -71.75 32.44 -69.84 35.76 -67.82 39.01 -65.71 42.13 -63.51 45.16 -61.2 48.09 -58.76 50.91 -56.26 53.64 -53.64 56.26 -50.91 58.77 -48.08 61.19 -45.17 63.51 -42.12 65.72 -39.01 67.83 -35.77 69.83 -32.43 71.75 -29 73.54 -25.46 75.26 -21.83 76.86 -18.08 78.36 -14.25 79.75 -10.3 81.06 -6.25 82.27 -2.11 83.37 -37.9 0 2.15 -85.29 6.41 -84.17 10.54 -82.96 14.57 -81.63 18.52 -80.2 22.33 -78.68 26.06 -77.02 29.7 -75.28 33.19 -73.43 36.61 -71.49 39.91 -69.41 43.12 -67.26 46.21 -64.99 49.2 -62.61 52.11 -60.15 54.88 -57.56 57.56 -54.88 60.14 -52.11 62.62 -49.21 64.99 -46.2 67.25 -43.13 69.42 -39.91 71.48 -36.6 73.43 -33.2 75.28 -29.69 77.02 -26.07 78.67 -22.33 80.2 -18.52 81.64 -14.57 82.96 -10.54 84.16 -6.41 85.29 -2.15 0 0zm1657.61 1657.65l-37.9 0 0 0 -2.11 -83.37 -6.25 -82.27 -10.3 -81.06 -14.25 -79.75 -18.08 -78.36 -21.83 -76.86 -25.46 -75.26 -28.99 -73.54 -32.44 -71.75 -35.76 -69.84 -39.01 -67.82 -42.12 -65.72 -45.17 -63.51 -48.09 -61.19 -50.9 -58.77 -53.64 -56.26 -56.26 -53.64 -58.76 -50.91 -61.2 -48.09 -63.5 -45.16 -65.72 -42.13 -67.82 -39.01 -69.84 -35.76 -71.74 -32.44 -73.55 -28.99 -75.26 -25.47 -76.85 -21.83 -78.36 -18.08 -79.76 -14.25 -81.05 -10.3 -82.27 -6.25 -83.37 -2.11 0 -37.9 85.29 2.15 84.17 6.41 82.95 10.54 81.64 14.57 80.2 18.52 78.67 22.33 77.02 26.07 75.29 29.69 73.42 33.2 71.48 36.6 69.42 39.91 67.26 43.13 64.98 46.2 62.62 49.21 60.14 52.11 57.56 54.88 54.88 57.56 52.1 60.15 49.21 62.61 46.21 64.99 43.12 67.26 39.91 69.42 36.6 71.48 33.2 73.43 29.69 75.28 26.06 77.02 22.33 78.68 18.52 80.2 14.57 81.63 10.54 82.96 6.41 84.17 2.15 85.29 0 0zm-18.95 0l0 0 0 0 0 0 18.95 0 -18.95 0z"/>
  </g>
  <g id="_1351588864">
   <path class="fil0" d="M2050 3349.7l0 -37.9 0 0 64.95 -1.65 64.09 -4.86 63.14 -8.03 62.13 -11.1 61.05 -14.08 59.86 -17.01 58.63 -19.84 57.29 -22.59 55.9 -25.26 54.4 -27.86 52.83 -30.39 51.2 -32.81 49.47 -35.19 47.68 -37.46 45.78 -39.66 43.83 -41.79 41.79 -43.83 39.65 -45.78 37.46 -47.67 35.19 -49.47 32.82 -51.2 30.39 -52.83 27.86 -54.41 25.27 -55.89 22.58 -57.29 19.84 -58.63 17.01 -59.86 14.08 -61.05 11.1 -62.13 8.03 -63.14 4.86 -64.09 1.65 -64.95 37.9 0 -1.69 66.87 -5.02 65.99 -8.27 65.04 -11.42 64.01 -14.52 62.89 -17.51 61.68 -20.44 60.39 -23.28 59.03 -26.03 57.57 -28.7 56.05 -31.29 54.43 -33.82 52.74 -36.23 50.95 -38.58 49.09 -40.85 47.16 -43.03 45.13 -45.13 43.03 -47.16 40.86 -49.1 38.58 -50.95 36.23 -52.74 33.81 -54.43 31.29 -56.04 28.7 -57.58 26.04 -59.03 23.27 -60.39 20.44 -61.68 17.51 -62.89 14.52 -64.01 11.42 -65.04 8.27 -65.99 5.02 -66.87 1.69 0 0zm-1299.7 -1299.7l37.9 0 0 0 1.65 64.95 4.86 64.09 8.03 63.14 11.1 62.13 14.08 61.05 17.01 59.86 19.84 58.63 22.58 57.29 25.27 55.89 27.86 54.41 30.39 52.83 32.82 51.2 35.19 49.47 37.46 47.67 39.65 45.78 41.79 43.83 43.83 41.79 45.78 39.66 47.67 37.46 49.48 35.19 51.19 32.81 52.84 30.39 54.4 27.86 55.89 25.27 57.29 22.58 58.63 19.84 59.87 17.01 61.04 14.08 62.13 11.1 63.14 8.03 64.09 4.86 64.95 1.65 0 37.9 -66.87 -1.69 -65.99 -5.02 -65.04 -8.27 -64.01 -11.42 -62.88 -14.52 -61.69 -17.51 -60.39 -20.44 -59.03 -23.28 -57.57 -26.03 -56.04 -28.7 -54.44 -31.29 -52.73 -33.81 -50.96 -36.23 -49.09 -38.58 -47.16 -40.86 -45.13 -43.03 -43.03 -45.13 -40.85 -47.16 -38.58 -49.09 -36.23 -50.95 -33.82 -52.74 -31.29 -54.43 -28.7 -56.05 -26.03 -57.57 -23.28 -59.03 -20.44 -60.39 -17.51 -61.68 -14.52 -62.89 -11.42 -64.01 -8.27 -65.04 -5.02 -65.99 -1.69 -66.87 0 0zm1299.7 -1299.72l0 37.9 0 0 -64.95 1.65 -64.09 4.86 -63.14 8.03 -62.13 11.1 -61.04 14.08 -59.87 17.01 -58.63 19.84 -57.29 22.58 -55.88 25.27 -54.4 27.87 -52.85 30.39 -51.19 32.81 -49.48 35.19 -47.67 37.46 -45.78 39.66 -43.83 41.79 -41.79 43.83 -39.65 45.78 -37.46 47.67 -35.19 49.48 -32.82 51.19 -30.39 52.84 -27.86 54.4 -25.27 55.89 -22.58 57.3 -19.84 58.63 -17.01 59.86 -14.08 61.05 -11.1 62.13 -8.03 63.14 -4.86 64.09 -1.65 64.95 -37.9 0 1.69 -66.87 5.02 -65.99 8.27 -65.04 11.42 -64.01 14.52 -62.89 17.51 -61.68 20.44 -60.39 23.28 -59.04 26.03 -57.57 28.7 -56.04 31.29 -54.44 33.82 -52.73 36.23 -50.96 38.58 -49.09 40.85 -47.16 43.03 -45.13 45.13 -43.03 47.16 -40.86 49.09 -38.58 50.96 -36.23 52.73 -33.81 54.43 -31.29 56.04 -28.71 57.58 -26.03 59.03 -23.28 60.39 -20.44 61.69 -17.51 62.88 -14.52 64.01 -11.42 65.04 -8.27 65.99 -5.02 66.87 -1.69 0 0zm1280.75 1280.77l0 37.9 -18.95 -18.95 -1.65 -64.95 -4.86 -64.09 -8.03 -63.14 -11.1 -62.13 -14.08 -61.05 -17.01 -59.86 -19.84 -58.63 -22.58 -57.3 -25.27 -55.89 -27.86 -54.4 -30.39 -52.84 -32.81 -51.19 -35.19 -49.48 -37.46 -47.67 -39.66 -45.78 -41.79 -43.83 -43.83 -41.79 -45.78 -39.66 -47.67 -37.46 -49.47 -35.19 -51.2 -32.81 -52.84 -30.39 -54.41 -27.87 -55.88 -25.27 -57.29 -22.58 -58.63 -19.84 -59.86 -17.01 -61.05 -14.08 -62.13 -11.1 -63.14 -8.03 -64.09 -4.86 -64.95 -1.65 0 -37.9 66.87 1.69 65.99 5.02 65.04 8.27 64.01 11.42 62.89 14.52 61.68 17.51 60.39 20.44 59.03 23.28 57.58 26.03 56.05 28.71 54.42 31.29 52.74 33.81 50.95 36.23 49.09 38.58 47.16 40.86 45.13 43.03 43.03 45.13 40.86 47.16 38.58 49.09 36.23 50.96 33.81 52.73 31.29 54.44 28.7 56.04 26.03 57.57 23.28 59.04 20.44 60.39 17.51 61.68 14.52 62.89 11.42 64.01 8.27 65.04 5.02 65.99 1.69 66.87 -18.95 -18.95zm0 37.9l-18.95 0 0 -18.95 18.95 18.95zm0.01 0l-0.01 0 0 -37.9 0.01 0 18.95 18.95 -18.95 18.95zm0 -37.9l18.95 0 0 18.95 -18.95 -18.95z"/>
  </g>
  <g id="_1351588256">
   <path class="fil0" d="M2048.66 2973.57l0 -50 0 0 44.95 -1.14 44.35 -3.37 43.69 -5.56 42.98 -7.67 42.23 -9.74 41.43 -11.76 40.55 -13.73 39.63 -15.63 38.67 -17.47 37.64 -19.29 36.56 -21.02 35.42 -22.71 34.23 -24.33 32.99 -25.92 31.67 -27.45 30.33 -28.91 28.91 -30.33 27.45 -31.67 25.92 -32.99 24.33 -34.23 22.71 -35.42 21.03 -36.56 19.28 -37.64 17.47 -38.67 15.63 -39.63 13.73 -40.56 11.76 -41.42 9.75 -42.23 7.66 -42.99 5.56 -43.69 3.37 -44.35 1.14 -44.95 50 0 -1.2 47.47 -3.57 46.87 -5.86 46.19 -8.12 45.47 -10.31 44.67 -12.44 43.8 -14.51 42.9 -16.53 41.93 -18.49 40.89 -20.38 39.8 -22.23 38.66 -24.01 37.44 -25.73 36.19 -27.4 34.87 -29.01 33.49 -30.55 32.05 -32.05 30.55 -33.49 29.01 -34.87 27.4 -36.19 25.73 -37.44 24.01 -38.66 22.22 -39.8 20.39 -40.89 18.49 -41.93 16.53 -42.89 14.51 -43.81 12.44 -44.67 10.32 -45.46 8.11 -46.19 5.86 -46.87 3.57 -47.47 1.2 0 0zm-923.02 -923.03l50 0 0 0 1.14 44.95 3.37 44.35 5.56 43.69 7.66 42.99 9.75 42.23 11.76 41.42 13.73 40.56 15.63 39.63 17.47 38.67 19.28 37.64 21.03 36.56 22.71 35.42 24.33 34.23 25.92 32.99 27.45 31.67 28.91 30.33 30.33 28.91 31.67 27.45 32.99 25.92 34.23 24.33 35.42 22.71 36.56 21.02 37.64 19.29 38.67 17.47 39.63 15.63 40.55 13.73 41.43 11.76 42.23 9.74 42.98 7.67 43.69 5.56 44.35 3.37 44.95 1.14 0 50 -47.47 -1.2 -46.87 -3.57 -46.19 -5.86 -45.46 -8.11 -44.67 -10.32 -43.81 -12.44 -42.89 -14.51 -41.93 -16.53 -40.89 -18.49 -39.8 -20.39 -38.66 -22.22 -37.44 -24.01 -36.19 -25.73 -34.87 -27.4 -33.49 -29.01 -32.05 -30.55 -30.55 -32.05 -29.01 -33.49 -27.4 -34.87 -25.73 -36.19 -24.01 -37.44 -22.23 -38.66 -20.38 -39.8 -18.49 -40.89 -16.53 -41.93 -14.51 -42.9 -12.44 -43.8 -10.31 -44.67 -8.12 -45.47 -5.86 -46.19 -3.57 -46.87 -1.2 -47.47 0 0zm923.02 -923.03l0 50 0 0 -44.95 1.14 -44.35 3.37 -43.69 5.56 -42.98 7.68 -42.23 9.73 -41.43 11.77 -40.55 13.73 -39.63 15.63 -38.67 17.47 -37.64 19.28 -36.56 21.03 -35.41 22.71 -34.24 24.34 -32.99 25.92 -31.67 27.44 -30.33 28.92 -28.91 30.33 -27.45 31.67 -25.92 32.99 -24.33 34.23 -22.71 35.42 -21.03 36.56 -19.28 37.64 -17.47 38.67 -15.63 39.63 -13.73 40.55 -11.76 41.43 -9.75 42.22 -7.66 42.99 -5.56 43.69 -3.37 44.34 -1.14 44.95 -50 0 1.2 -47.47 3.57 -46.86 5.86 -46.19 8.12 -45.47 10.31 -44.66 12.44 -43.81 14.51 -42.89 16.53 -41.93 18.49 -40.89 20.38 -39.8 22.23 -38.66 24.01 -37.44 25.73 -36.19 27.4 -34.87 29.01 -33.49 30.55 -32.05 32.05 -30.56 33.49 -29 34.87 -27.4 36.18 -25.74 37.45 -24.01 38.66 -22.23 39.8 -20.38 40.89 -18.49 41.93 -16.53 42.89 -14.51 43.81 -12.45 44.67 -10.31 45.46 -8.12 46.19 -5.86 46.87 -3.57 47.47 -1.2 0 0zm923.02 923.03l-50 0 0 0 -1.14 -44.95 -3.37 -44.34 -5.56 -43.69 -7.66 -42.99 -9.75 -42.22 -11.76 -41.43 -13.73 -40.55 -15.63 -39.63 -17.47 -38.67 -19.28 -37.64 -21.03 -36.56 -22.71 -35.42 -24.33 -34.23 -25.92 -32.99 -27.45 -31.67 -28.91 -30.33 -30.33 -28.92 -31.67 -27.44 -32.99 -25.92 -34.24 -24.34 -35.41 -22.71 -36.56 -21.03 -37.64 -19.28 -38.67 -17.47 -39.63 -15.63 -40.55 -13.73 -41.43 -11.77 -42.23 -9.73 -42.98 -7.68 -43.69 -5.56 -44.35 -3.37 -44.95 -1.14 0 -50 47.47 1.2 46.87 3.57 46.19 5.86 45.46 8.12 44.67 10.31 43.81 12.45 42.89 14.51 41.93 16.53 40.89 18.49 39.8 20.38 38.66 22.23 37.45 24.01 36.18 25.74 34.87 27.4 33.49 29 32.05 30.56 30.55 32.05 29.01 33.49 27.4 34.87 25.73 36.19 24.01 37.44 22.23 38.66 20.38 39.8 18.49 40.89 16.53 41.93 14.51 42.89 12.44 43.81 10.31 44.66 8.12 45.47 5.86 46.19 3.57 46.86 1.2 47.47 0 0zm-25 0l0 0 0 0 0 0 25 0 -25 0z"/>
  </g>
  <g id="_1351587648">
   <path class="fil0" d="M2060.3 1488.3l-590.86 197.57 -23.28 -69.66 590.86 -197.57 23.28 0 0 69.66zm-23.28 -69.66l11.64 -3.89 11.64 3.89 -23.28 0zm590.86 267.23l-590.86 -197.57 23.28 -69.66 590.86 197.57 -23.28 69.66zm-143.83 59.13l-870.78 0 0 -73.44 870.78 0 0 73.44zm-17.54 939.32l-835.67 0 0 -73.44 835.67 0 0 73.44zm-7.32 -708.29l0 73.44 0 0 -7.03 -0.18 -6.95 -0.53 -6.84 -0.87 -6.75 -1.2 -6.69 -1.54 -6.5 -1.86 -6.36 -2.14 -6.25 -2.47 -6.09 -2.75 -5.94 -3.04 -5.73 -3.31 -5.54 -3.55 -5.38 -3.82 -5.19 -4.08 -4.97 -4.31 -4.74 -4.52 -4.52 -4.75 -4.31 -4.98 -4.07 -5.17 -3.82 -5.38 -3.56 -5.55 -3.31 -5.76 -3.03 -5.92 -2.74 -6.07 -2.46 -6.23 -2.17 -6.4 -1.85 -6.53 -1.53 -6.65 -1.2 -6.75 -0.87 -6.84 -0.53 -6.95 -0.18 -7.03 73.44 0 0.08 3.31 0.25 3.23 0.41 3.22 0.56 3.13 0.71 3.07 0.85 2.99 0.99 2.94 1.14 2.89 1.28 2.83 1.39 2.72 1.53 2.66 1.66 2.59 1.78 2.5 1.89 2.41 2.01 2.32 2.12 2.21 2.24 2.14 2.31 2.01 2.39 1.88 2.5 1.78 2.6 1.67 2.67 1.53 2.72 1.4 2.81 1.27 2.87 1.13 2.96 1 3.02 0.86 3.03 0.7 3.13 0.56 3.22 0.41 3.23 0.25 3.31 0.08 0 0zm63.7 -63.69l73.44 0 0 0 -0.18 7.03 -0.53 6.95 -0.87 6.84 -1.2 6.75 -1.53 6.65 -1.85 6.53 -2.17 6.4 -2.46 6.23 -2.74 6.07 -3.03 5.92 -3.31 5.76 -3.56 5.55 -3.82 5.38 -4.07 5.17 -4.31 4.98 -4.52 4.75 -4.74 4.52 -4.97 4.31 -5.19 4.08 -5.39 3.83 -5.55 3.55 -5.72 3.3 -5.94 3.04 -6.09 2.75 -6.27 2.47 -6.36 2.15 -6.49 1.85 -6.69 1.54 -6.76 1.2 -6.85 0.87 -6.95 0.53 -7.03 0.18 0 -73.44 3.31 -0.08 3.25 -0.25 3.21 -0.41 3.14 -0.56 3.03 -0.7 3.03 -0.87 2.98 -0.99 2.85 -1.13 2.81 -1.27 2.72 -1.4 2.68 -1.54 2.61 -1.67 2.49 -1.77 2.39 -1.88 2.31 -2.01 2.24 -2.14 2.12 -2.21 2.01 -2.32 1.89 -2.41 1.78 -2.5 1.66 -2.59 1.53 -2.66 1.39 -2.72 1.28 -2.83 1.14 -2.89 0.99 -2.94 0.85 -2.99 0.71 -3.07 0.56 -3.13 0.41 -3.22 0.25 -3.23 0.08 -3.31 0 0zm-63.7 -63.7l0 -73.44 0 0 7.03 0.18 6.95 0.53 6.85 0.87 6.75 1.2 6.64 1.53 6.54 1.85 6.41 2.17 6.25 2.46 6.07 2.75 5.88 3.02 5.75 3.29 5.58 3.58 5.38 3.82 5.17 4.07 4.96 4.29 4.78 4.54 4.54 4.78 4.29 4.96 4.07 5.17 3.82 5.38 3.58 5.58 3.29 5.75 3.02 5.88 2.75 6.07 2.46 6.25 2.17 6.41 1.85 6.54 1.53 6.64 1.2 6.75 0.87 6.85 0.53 6.95 0.18 7.03 -73.44 0 -0.08 -3.31 -0.25 -3.25 -0.41 -3.21 -0.56 -3.13 -0.71 -3.08 -0.85 -3 -0.99 -2.93 -1.14 -2.87 -1.27 -2.81 -1.42 -2.78 -1.53 -2.67 -1.64 -2.56 -1.78 -2.5 -1.89 -2.41 -2.03 -2.34 -2.1 -2.2 -2.2 -2.1 -2.34 -2.03 -2.41 -1.89 -2.5 -1.78 -2.56 -1.64 -2.67 -1.53 -2.78 -1.42 -2.81 -1.27 -2.87 -1.14 -2.93 -0.99 -3 -0.85 -3.08 -0.71 -3.13 -0.56 -3.21 -0.41 -3.25 -0.25 -3.31 -0.08 0 0zm-821.06 -73.44l821.06 0 0 73.44 -821.06 0 0 0 0 -73.44zm-63.7 137.14l-73.44 0 0 0 0.18 -7.03 0.53 -6.95 0.87 -6.85 1.2 -6.75 1.53 -6.64 1.85 -6.54 2.17 -6.41 2.46 -6.25 2.75 -6.07 3.02 -5.88 3.29 -5.75 3.58 -5.58 3.82 -5.38 4.07 -5.17 4.29 -4.96 4.54 -4.78 4.78 -4.54 4.96 -4.29 5.17 -4.07 5.38 -3.82 5.58 -3.58 5.75 -3.29 5.88 -3.02 6.07 -2.75 6.25 -2.46 6.41 -2.17 6.54 -1.85 6.64 -1.53 6.75 -1.2 6.85 -0.87 6.95 -0.53 7.03 -0.18 0 73.44 -3.31 0.08 -3.25 0.25 -3.21 0.41 -3.13 0.56 -3.08 0.71 -3 0.85 -2.93 0.99 -2.87 1.14 -2.81 1.27 -2.78 1.42 -2.67 1.53 -2.56 1.64 -2.5 1.78 -2.41 1.89 -2.34 2.03 -2.2 2.1 -2.1 2.2 -2.03 2.34 -1.89 2.41 -1.78 2.5 -1.64 2.56 -1.53 2.67 -1.42 2.78 -1.27 2.81 -1.14 2.87 -0.99 2.93 -0.85 3 -0.71 3.08 -0.56 3.13 -0.41 3.21 -0.25 3.25 -0.08 3.31 0 0zm63.7 63.69l0 73.44 0 0 -7.03 -0.18 -6.95 -0.53 -6.85 -0.87 -6.75 -1.2 -6.68 -1.54 -6.5 -1.85 -6.37 -2.15 -6.29 -2.47 -6.07 -2.75 -5.91 -3.03 -5.75 -3.31 -5.55 -3.56 -5.38 -3.82 -5.17 -4.07 -4.98 -4.31 -4.76 -4.53 -4.52 -4.75 -4.31 -4.98 -4.07 -5.17 -3.82 -5.38 -3.58 -5.58 -3.28 -5.73 -3.03 -5.89 -2.75 -6.1 -2.46 -6.23 -2.17 -6.4 -1.85 -6.53 -1.53 -6.65 -1.2 -6.75 -0.87 -6.84 -0.53 -6.95 -0.18 -7.03 73.44 0 0.08 3.31 0.25 3.23 0.41 3.22 0.56 3.13 0.71 3.07 0.85 2.99 0.99 2.94 1.14 2.89 1.27 2.8 1.41 2.75 1.54 2.69 1.64 2.56 1.78 2.5 1.89 2.41 2.01 2.32 2.12 2.21 2.22 2.13 2.32 2.01 2.41 1.89 2.5 1.78 2.59 1.66 2.67 1.53 2.75 1.41 2.81 1.27 2.83 1.13 2.97 0.99 3.04 0.87 3.04 0.7 3.13 0.56 3.21 0.41 3.25 0.25 3.31 0.08 0 0zm63.69 -63.69l73.44 0 -0.18 7.03 -0.53 6.95 -0.87 6.84 -1.2 6.75 -1.54 6.69 -1.85 6.49 -2.15 6.36 -2.47 6.27 -2.75 6.1 -3.04 5.92 -3.3 5.73 -3.56 5.55 -3.82 5.38 -4.07 5.17 -4.32 5 -4.52 4.73 -4.73 4.52 -5 4.32 -5.17 4.07 -5.38 3.82 -5.55 3.56 -5.73 3.3 -5.92 3.04 -6.1 2.75 -6.27 2.47 -6.36 2.15 -6.49 1.85 -6.69 1.54 -6.75 1.2 -6.84 0.87 -6.95 0.53 -7.03 0.18 0 -73.44 3.31 -0.08 3.23 -0.25 3.22 -0.41 3.13 -0.56 3.03 -0.7 3.03 -0.87 2.98 -0.99 2.85 -1.13 2.8 -1.27 2.72 -1.4 2.69 -1.54 2.59 -1.66 2.5 -1.78 2.41 -1.89 2.3 -2 2.23 -2.14 2.14 -2.23 2 -2.3 1.89 -2.41 1.78 -2.5 1.66 -2.59 1.54 -2.69 1.4 -2.72 1.27 -2.8 1.13 -2.85 0.99 -2.98 0.87 -3.03 0.7 -3.03 0.56 -3.13 0.41 -3.22 0.25 -3.23 0.08 -3.31zm621.05 722.32l0 -800.08 73.44 0 0 800.08 -73.44 0zm-155.46 0l0 -800.08 73.44 0 0 800.08 -73.44 0zm-155.47 0l0 -800.08 73.44 0 0 800.08 -73.44 0zm-155.47 0l0 -800.08 73.44 0 0 800.08 -73.44 0zm-155.46 0l0 -800.08 73.44 0 0 800.08 -73.44 0z"/>
  </g>
  <path class="fil1 str0" d="M1298.5 3312.5c-6.8,-3.22 -22.38,-6.76 -46.78,-10.78 -13.87,-2.28 -20.79,-9.05 -20.79,-20.2 0,-4.5 1.83,-8.74 5.48,-12.71 3.67,-3.99 8.2,-5.97 13.58,-5.97 9.22,0 16.75,4.57 22.52,13.68 10.26,16.4 20.25,26.32 30.01,29.62l2.72 -1.34c0,-12.28 -2.79,-23.18 -8.37,-32.63 -5.59,-9.43 -8.38,-17.14 -8.38,-23.18 0,-7.08 2.01,-12.17 6.05,-15.32 4.06,-3.15 8.69,-4.7 13.97,-4.7 4.87,0 9.25,1.8 13.18,5.37 3.92,3.61 5.87,8.98 5.87,16.2 0,4.49 -2.55,11.52 -7.67,21.18 -5.17,9.62 -7.71,20.8 -7.71,33.48l3.64 1.92c10.29,-7.14 19.16,-16.3 26.66,-27.49 7.53,-11.21 15.45,-16.79 23.8,-16.79 5.65,0 10.25,1.88 13.85,5.55 3.61,3.72 5.38,8.35 5.38,13.82 0,11.66 -9.69,18.82 -29.07,21.5 -19.37,2.68 -31.88,6.44 -37.55,11.33l0 3.08c6.44,3.81 21.11,7.2 44.09,10.14 15.04,1.92 22.53,8.76 22.53,20.52 0,5.26 -1.77,9.74 -5.38,13.41 -3.6,3.72 -8.17,5.6 -13.68,5.6 -8.98,0 -17.57,-6.69 -25.77,-20.02 -8.24,-13.32 -17.15,-21.43 -26.77,-24.29l-2.34 1.34c0.86,12.49 3.76,23.65 8.64,33.63 4.91,9.93 7.35,17.28 7.35,22.02 0,4.64 -0.78,8.51 -2.38,11.58 -3.18,5.91 -8.94,8.84 -17.25,8.84 -6,0 -10.74,-2.13 -14.24,-6.44 -3.47,-4.31 -5.2,-9.03 -5.2,-14.17 0,-5.24 2.79,-12.99 8.38,-23.16 5.58,-10.25 8.37,-18.55 8.37,-24.99 0,-1.41 -0.06,-2.64 -0.2,-3.73 -0.11,-1.12 -0.32,-2.42 -0.57,-3.94l-2.93 -1.7c-11.08,7.27 -20.38,16.61 -28.01,27.99 -7.6,11.33 -15.1,17.04 -22.52,17.04 -6.12,0 -11,-1.95 -14.64,-5.83 -3.64,-3.79 -5.44,-8.03 -5.44,-12.66 0,-7.32 2.64,-12.89 7.98,-16.66 5.35,-3.81 12.13,-5.8 20.33,-6.09 11.18,-0.35 19.06,-1.11 23.63,-2.31 4.56,-1.12 9.76,-3.95 15.62,-8.47l0.01 -3.27z"/>
  <path class="fil1 str0" d="M1246.06 2806.13c-5.65,-2.69 -18.66,-5.69 -39,-9.01 -11.55,-1.91 -17.35,-7.54 -17.35,-16.87 0,-3.71 1.52,-7.25 4.6,-10.58 3.04,-3.32 6.81,-4.97 11.31,-4.97 7.71,0 13.97,3.77 18.77,11.38 8.56,13.72 16.93,21.95 25.07,24.75l2.23 -1.14c0,-10.28 -2.3,-19.33 -6.97,-27.22 -4.67,-7.85 -7,-14.31 -7,-19.34 0,-5.9 1.7,-10.15 5.06,-12.77 3.39,-2.61 7.25,-3.92 11.67,-3.92 4.06,0 7.71,1.49 10.99,4.5 3.25,2.99 4.89,7.49 4.89,13.46 0,3.76 -2.13,9.66 -6.41,17.68 -4.31,8.03 -6.43,17.33 -6.43,27.93l3.04 1.63c8.55,-5.97 15.98,-13.65 22.24,-22.95 6.26,-9.34 12.87,-13.99 19.83,-13.99 4.7,0 8.55,1.55 11.56,4.62 3.01,3.11 4.5,6.93 4.5,11.53 0,9.69 -8.1,15.66 -24.27,17.93 -16.15,2.23 -26.58,5.38 -31.28,9.44l0 2.55c5.34,3.21 17.6,6.04 36.77,8.48 12.52,1.59 18.78,7.32 18.78,17.11 0,4.39 -1.49,8.1 -4.5,11.21 -3.01,3.08 -6.78,4.63 -11.38,4.63 -7.49,0 -14.68,-5.55 -21.53,-16.69 -6.86,-11.1 -14.29,-17.86 -22.32,-20.22l-1.94 1.1c0.7,10.39 3.11,19.73 7.21,28.04 4.07,8.27 6.13,14.42 6.13,18.38 0,3.85 -0.68,7.07 -1.98,9.62 -2.66,4.95 -7.48,7.39 -14.4,7.39 -5.02,0 -8.98,-1.77 -11.88,-5.38 -2.9,-3.57 -4.35,-7.52 -4.35,-11.8 0,-4.4 2.33,-10.82 7,-19.35 4.67,-8.52 6.97,-15.45 6.97,-20.79 0,-1.16 -0.04,-2.22 -0.14,-3.14 -0.11,-0.89 -0.29,-1.98 -0.5,-3.29l-2.44 -1.45c-9.23,6.11 -17.01,13.89 -23.34,23.36 -6.36,9.49 -12.62,14.22 -18.8,14.22 -5.09,0 -9.17,-1.59 -12.2,-4.8 -3.04,-3.23 -4.56,-6.76 -4.56,-10.62 0,-6.11 2.23,-10.74 6.68,-13.89 4.46,-3.14 10.11,-4.84 16.94,-5.05 9.33,-0.32 15.9,-0.96 19.72,-1.91 3.79,-1 8.14,-3.33 13.01,-7.08l0 -2.72z"/>
  <path class="fil1 str0" d="M2870.35 2793.71c-5.66,-2.69 -18.67,-5.69 -39.04,-9.01 -11.55,-1.91 -17.32,-7.53 -17.32,-16.86 0,-3.72 1.52,-7.26 4.56,-10.59 3.08,-3.32 6.86,-4.97 11.35,-4.97 7.72,0 13.97,3.77 18.78,11.38 8.56,13.72 16.89,21.95 25.03,24.75l2.26 -1.14c0,-10.28 -2.33,-19.33 -7,-27.21 -4.63,-7.86 -6.97,-14.32 -6.97,-19.35 0.01,-5.9 1.7,-10.15 5.06,-12.77 3.36,-2.6 7.25,-3.92 11.63,-3.92 4.07,0 7.75,1.49 11,4.5 3.3,2.99 4.92,7.49 4.92,13.46 0,3.76 -2.16,9.66 -6.44,17.69 -4.28,8.02 -6.4,17.32 -6.4,27.92l3.05 1.63c8.54,-5.97 15.98,-13.65 22.23,-22.94 6.26,-9.34 12.88,-14 19.83,-14 4.71,0 8.56,1.55 11.57,4.63 2.97,3.11 4.49,6.92 4.49,11.52 0,9.69 -8.1,15.66 -24.26,17.93 -16.16,2.23 -26.59,5.38 -31.32,9.44l0 2.55c5.37,3.21 17.6,6.04 36.76,8.49 12.57,1.58 18.82,7.31 18.82,17.1 0,4.39 -1.52,8.1 -4.49,11.21 -3.01,3.08 -6.82,4.63 -11.42,4.63 -7.49,0 -14.68,-5.55 -21.49,-16.69 -6.87,-11.1 -14.33,-17.85 -22.36,-20.22l-1.91 1.1c0.71,10.39 3.11,19.73 7.18,28.04 4.1,8.27 6.16,14.42 6.16,18.38 0,3.85 -0.68,7.07 -1.98,9.62 -2.65,4.95 -7.47,7.39 -14.39,7.39 -5.02,0 -8.98,-1.77 -11.89,-5.38 -2.89,-3.57 -4.35,-7.52 -4.35,-11.8 0.01,-4.39 2.34,-10.82 6.97,-19.35 4.67,-8.52 7,-15.44 7,-20.79 0,-1.16 -0.03,-2.22 -0.18,-3.14 -0.1,-0.88 -0.24,-1.98 -0.46,-3.29l-2.43 -1.45c-9.23,6.11 -17.01,13.89 -23.38,23.37 -6.32,9.48 -12.58,14.21 -18.77,14.21 -5.09,0 -9.16,-1.59 -12.2,-4.8 -3.04,-3.22 -4.56,-6.76 -4.56,-10.61 0,-6.12 2.23,-10.75 6.68,-13.9 4.46,-3.14 10.11,-4.83 16.94,-5.05 9.33,-0.32 15.91,-0.95 19.69,-1.91 3.82,-0.99 8.17,-3.32 13.05,-7.08l0 -2.72z"/>
  <path class="fil2" d="M2048.66 702.24c744.63,0 1348.28,603.66 1348.28,1348.3 0,744.64 -603.65,1348.3 -1348.28,1348.3 -744.63,0 -1348.28,-603.66 -1348.28,-1348.3 0,-744.64 603.65,-1348.3 1348.28,-1348.3z"/>
  <path class="fil2" d="M2048.66 911.3c629.17,0 1139.23,510.06 1139.23,1139.24 0,629.18 -510.06,1139.24 -1139.23,1139.24 -629.17,0 -1139.23,-510.06 -1139.23,-1139.24 0,-629.18 510.06,-1139.24 1139.23,-1139.24z"/>
  <g id="_1351584736">
   <path class="fil0 str1" d="M1066.8 3129.58l-10.17 -16.3c15.43,-11.63 30.05,-17.59 43.79,-17.99 13.77,-0.37 26.15,4.2 37.14,13.73 9.67,8.38 15.88,17.91 18.67,28.59 2.76,10.66 1.81,23.06 -2.85,37.3 -4.66,14.17 -13.13,28.37 -25.42,42.54 -12.15,14.01 -24.62,23.97 -37.38,29.88 -12.79,5.89 -25.06,8.07 -36.82,6.54 -11.76,-1.52 -22.22,-6.28 -31.44,-14.28 -10.07,-8.73 -16,-19.37 -17.8,-31.9 -1.8,-12.55 1.11,-26.13 8.71,-40.77l16.91 7.81c-10.7,21.67 -9.05,38.56 4.94,50.69 6.94,6.02 14.52,9.48 22.7,10.34 8.18,0.87 17.05,-1.16 26.62,-6.04 9.58,-4.87 19.34,-13.08 29.34,-24.61 15.08,-17.39 23.34,-33.12 24.75,-47.16 1.43,-14.03 -2.95,-25.45 -13.14,-34.29 -7.53,-6.53 -16.36,-9.51 -26.46,-8.88 -10.11,0.58 -20.83,5.52 -32.09,14.8zm-78.98 13.05l-27.2 -28.36c-6.2,-6.46 -10.32,-11.95 -12.39,-16.55 -2.06,-4.59 -2.48,-10.07 -1.3,-16.37 1.22,-6.32 4.59,-12.16 10.16,-17.51 8.38,-8.04 17.47,-11.15 27.16,-9.31 -4.08,-11.35 -0.81,-22.15 9.84,-32.36 6.82,-6.54 14.61,-10.09 23.31,-10.66 8.72,-0.6 17.77,4.03 27.14,13.81l31.44 32.78 -88.16 84.53zm25.3 -47.74l-12.63 -13.16c-5.02,-5.23 -8.8,-8.5 -11.35,-9.87 -2.53,-1.33 -5.6,-1.8 -9.1,-1.43 -3.5,0.36 -6.7,1.97 -9.62,4.76 -4.61,4.42 -6.48,8.88 -5.63,13.34 0.87,4.43 4.42,9.88 10.67,16.4l13.03 13.58 24.63 -23.62zm38.9 -37.3l-15.66 -16.33c-6.68,-6.97 -12.37,-10.75 -17.11,-11.37 -4.7,-0.66 -9.31,1.22 -13.84,5.56 -4.79,4.59 -6.86,9.29 -6.27,14.1 0.62,4.84 4.55,11.02 11.77,18.56l14.44 15.05 26.67 -25.57zm-156.98 19.7l-18.03 15.5 -11.05 -12.86 18.02 -15.49 11.06 12.85zm109.74 -94.36l-92.62 79.63 -11.05 -12.85 92.62 -79.63 11.05 12.85zm-133.49 31.78l-42.91 -54.58 82.69 -65.03 -6.69 -8.5 40.51 -31.85 8.58 10.91 -27.19 21.38 48.44 61.6 27.19 -21.38 8.73 11.1 -40.51 31.85 -5.52 -7.03c-22.56,2.87 -53.66,20.04 -93.32,51.53zm4.78 -21.72c31.98,-23.61 58.14,-37.8 78.5,-42.57l-33.02 -41.99 -69.19 54.41 23.71 30.15zm-18.5 -94.18c-17.75,11.35 -33.52,16.18 -47.33,14.53 -13.78,-1.66 -24.34,-8.21 -31.64,-19.61 -7.18,-11.24 -8.64,-23.48 -4.46,-36.82 4.24,-13.32 14.85,-25.41 31.9,-36.32 18.44,-11.8 34.55,-16.89 48.35,-15.25 13.76,1.63 24.33,8.19 31.66,19.66 7.21,11.26 8.71,23.57 4.42,36.89 -4.25,13.28 -15.23,25.61 -32.9,36.92zm-9.45 -14.62c13.34,-8.54 21.71,-17.3 25.14,-26.28 3.42,-9 2.83,-17.05 -1.73,-24.18 -4.27,-6.68 -11.22,-10.34 -20.86,-10.92 -9.63,-0.58 -21.04,3.35 -34.26,11.81 -13.25,8.48 -21.59,17.21 -25,26.19 -3.43,9 -2.85,17.05 1.72,24.19 4.31,6.73 11.27,10.39 20.84,10.96 9.56,0.6 20.97,-3.34 34.15,-11.77zm-106.71 -54.42l-8.47 -14.68 91.11 -52.6 -23.42 -40.55 -91.11 52.59 -8.47 -14.68 91.11 -52.59 -5.53 -9.58 55.23 -31.88 7.06 12.23 -40.56 23.41 38.83 67.26 -105.78 61.07zm-55.59 -99.87l-33.55 -74.2 15.66 -7.07 13.28 29.37 95.64 -43.24 6.98 15.45 -95.64 43.24 13.29 29.37 -15.66 7.08zm-42.61 -95.37l-14.38 -36.57c-3.28,-8.33 -5.01,-14.97 -5.18,-20.01 -0.16,-5.03 1.53,-10.25 5.02,-15.63 3.53,-5.39 8.86,-9.52 16.05,-12.35 10.8,-4.25 20.38,-3.68 28.65,1.71 0.53,-12.05 7.67,-20.8 21.39,-26.2 8.8,-3.46 17.35,-3.78 25.61,-1 8.3,2.75 14.91,10.48 19.87,23.08l16.63 42.27 -113.66 44.7zm41.53 -34.55l-6.68 -16.97c-2.65,-6.75 -4.91,-11.21 -6.76,-13.44 -1.83,-2.19 -4.49,-3.8 -7.86,-4.78 -3.38,-0.99 -6.95,-0.73 -10.71,0.75 -5.94,2.34 -9.36,5.75 -10.26,10.2 -0.88,4.43 0.33,10.82 3.64,19.22l6.87 17.51 31.76 -12.49zm50.16 -19.73l-8.29 -21.06c-3.53,-8.98 -7.36,-14.64 -11.5,-17.01 -4.1,-2.39 -9.09,-2.41 -14.92,-0.11 -6.17,2.42 -9.87,5.99 -11.15,10.66 -1.27,4.71 0.01,11.92 3.83,21.64l7.64 19.41 34.39 -13.53zm-72.47 -64.33c-20.26,5.74 -36.75,5.79 -49.5,0.22 -12.7,-5.57 -20.92,-14.91 -24.6,-27.93 -3.63,-12.83 -1.48,-24.98 6.38,-36.53 7.91,-11.53 21.56,-20.03 41.04,-25.54 21.05,-5.96 37.95,-6.17 50.69,-0.61 12.7,5.55 20.92,14.88 24.62,27.98 3.64,12.87 1.51,25.09 -6.45,36.59 -7.91,11.49 -21.99,20.12 -42.18,25.82zm-4.81 -16.73c15.24,-4.31 25.79,-10.27 31.67,-17.88 5.88,-7.62 7.64,-15.49 5.34,-23.64 -2.16,-7.63 -7.75,-13.14 -16.81,-16.49 -9.05,-3.35 -21.11,-2.88 -36.2,1.39 -15.13,4.28 -25.64,10.22 -31.51,17.84 -5.88,7.62 -7.66,15.49 -5.35,23.65 2.17,7.69 7.77,13.21 16.78,16.52 8.97,3.34 21.03,2.87 36.08,-1.39zm-99.53 -140.38l-14.04 -77.82 120.19 -21.69 3.01 16.68 -103.28 18.64 8.02 44.46 103.28 -18.63 3.01 16.68 -120.19 21.68zm147.91 -128.8l-168.48 12.84 -1.19 -15.72 15.99 -1.22c-6.86,-3.3 -11.91,-7.16 -15.17,-11.59 -3.28,-4.43 -5.13,-9.64 -5.59,-15.62 -0.6,-7.87 1.2,-15.13 5.38,-21.77 4.17,-6.69 10.87,-12.27 20.08,-16.88 9.21,-4.55 20.52,-7.34 33.9,-8.36 20.69,-1.58 36.97,1.54 48.82,9.34 11.84,7.83 18.2,17.53 19.09,29.22 0.39,5.2 -0.57,10.11 -2.88,14.85 -2.31,4.7 -5.81,8.87 -10.4,12.52l59.16 -4.52 1.29 16.91zm-107.91 -7.39c15.73,-1.2 27.14,-4.71 34.17,-10.52 7.07,-5.8 10.31,-12.43 9.74,-19.86 -0.54,-7.12 -4.89,-13.08 -13.01,-17.85 -8.11,-4.81 -20.25,-6.6 -36.36,-5.37 -15.91,1.21 -27.49,4.73 -34.72,10.56 -7.23,5.82 -10.57,12.45 -10,19.96 0.52,6.76 5.09,12.59 13.72,17.52 8.64,4.88 20.78,6.76 36.46,5.56zm-7.91 -89.11c-21.07,0.57 -37.06,-3.43 -48.05,-11.96 -10.94,-8.53 -16.62,-19.6 -16.98,-33.12 -0.37,-13.34 4.7,-24.58 15.16,-33.85 10.51,-9.23 25.83,-14.11 46.06,-14.66 21.88,-0.6 38.32,3.35 49.29,11.87 10.95,8.5 16.61,19.57 16.98,33.17 0.36,13.37 -4.69,24.69 -15.23,33.89 -10.5,9.19 -26.26,14.09 -47.23,14.66zm-0.56 -17.4c15.84,-0.43 27.53,-3.62 35.1,-9.55 7.57,-5.94 11.21,-13.14 10.98,-21.61 -0.21,-7.92 -4.27,-14.64 -12.24,-20.11 -7.95,-5.47 -19.75,-7.98 -35.43,-7.55 -15.73,0.43 -27.38,3.6 -34.94,9.54 -7.57,5.94 -11.23,13.14 -11,21.61 0.22,7.99 4.29,14.72 12.21,20.14 7.88,5.44 19.68,7.95 35.32,7.53zm-59.46 -161.25l6.01 -78.85 121.78 9.29 -1.29 16.9 -104.65 -7.98 -3.43 45.05 104.64 7.98 -1.29 16.9 -121.77 -9.29zm176.99 -87.2l-166.28 -30 2.8 -15.52 15.79 2.85c-5.81,-4.92 -9.72,-9.92 -11.76,-15.03 -2.06,-5.12 -2.54,-10.62 -1.48,-16.53 1.4,-7.76 4.98,-14.33 10.69,-19.71 5.72,-5.42 13.61,-9.14 23.68,-11.28 10.06,-2.09 21.71,-1.94 34.92,0.45 20.42,3.68 35.38,10.8 44.88,21.33 9.5,10.56 13.21,21.55 11.12,33.09 -0.92,5.13 -3.09,9.64 -6.52,13.64 -3.42,3.97 -7.86,7.12 -13.23,9.5l58.4 10.53 -3.01 16.68zm-102.57 -34.32c15.52,2.8 27.46,2.28 35.72,-1.58 8.3,-3.83 13.09,-9.43 14.42,-16.76 1.26,-7.03 -1.44,-13.9 -8.08,-20.56 -6.65,-6.69 -17.94,-11.48 -33.84,-14.35 -15.71,-2.83 -27.8,-2.34 -36.26,1.47 -8.46,3.81 -13.37,9.39 -14.71,16.8 -1.2,6.67 1.76,13.47 8.87,20.41 7.13,6.9 18.4,11.77 33.88,14.57zm76.58 -147.4c4.48,6.88 7.47,13.61 8.99,20.25 1.55,6.68 1.57,13.2 0.09,19.62 -2.36,10.16 -7.28,17.56 -14.84,22.17 -7.51,4.66 -16.47,5.77 -26.86,3.36 -6.88,-1.59 -12.62,-4.41 -17.26,-8.5 -4.67,-4.07 -7.92,-8.93 -9.76,-14.55 -1.84,-5.62 -2.33,-13.62 -1.43,-23.96 1.21,-13.9 1.21,-24.32 -0.02,-31.21l-5.12 -1.31c-8.19,-1.89 -14.25,-1.77 -18.25,0.38 -5.72,2.97 -9.59,8.72 -11.56,17.2 -1.78,7.69 -1.5,13.79 0.8,18.34 2.28,4.53 7.64,8.7 15.97,12.52l-6.8 15.82c-12.11,-5.26 -20.19,-12.04 -24.33,-20.45 -4.14,-8.4 -4.65,-19.2 -1.61,-32.34 2.37,-10.24 6.14,-17.82 11.35,-22.78 5.16,-4.92 10.81,-7.52 16.81,-7.74 6.05,-0.21 14.48,0.94 25.37,3.46l26.85 6.22c18.81,4.35 30.73,6.76 35.79,7.16 5.01,0.44 10.11,0.12 15.23,-0.9l-3.98 17.19c-4.5,0.81 -9.66,0.83 -15.43,0.05zm-45.27 -9.15c1.59,6.73 2.02,16.33 1.32,28.76 -0.43,7.23 -0.17,12.4 0.71,15.51 0.88,3.14 2.57,5.79 5,7.97 2.45,2.16 5.51,3.68 9.17,4.54 5.65,1.3 10.61,0.6 14.82,-2.13 4.22,-2.73 7.03,-7.19 8.46,-13.38 1.37,-5.93 1.08,-11.63 -0.86,-17.15 -1.95,-5.52 -5.2,-10.1 -9.76,-13.65 -4.53,-3.59 -11.71,-6.5 -21.48,-8.77l-7.38 -1.7zm-44.25 -68.24l12.59 -37.23c2.87,-8.48 5.83,-14.67 8.95,-18.63 3.12,-3.95 7.78,-6.85 13.91,-8.72 6.18,-1.84 12.91,-1.55 20.23,0.92 10.99,3.72 17.95,10.34 20.8,19.78 8.18,-8.86 19.27,-10.95 33.24,-6.23 8.95,3.03 15.7,8.3 20.22,15.75 4.57,7.45 4.65,17.62 0.31,30.45l-14.55 43.03 -115.7 -39.12zm54.03 0.37l5.83 -17.28c2.32,-6.86 3.47,-11.73 3.5,-14.63 0.02,-2.85 -0.98,-5.8 -2.93,-8.72 -1.94,-2.94 -4.83,-5.04 -8.66,-6.33 -6.05,-2.05 -10.86,-1.65 -14.42,1.17 -3.53,2.82 -6.72,8.48 -9.61,17.04l-6.03 17.83 32.32 10.92zm51.05 17.26l7.25 -21.43c3.09,-9.14 3.82,-15.94 2.17,-20.42 -1.59,-4.48 -5.38,-7.7 -11.32,-9.71 -6.28,-2.12 -11.41,-1.79 -15.4,0.96 -4,2.78 -7.68,9.12 -11.02,19.01l-6.68 19.76 35 11.83zm-14.21 -92.81c-19.59,-7.77 -32.72,-17.74 -39.45,-29.91 -6.7,-12.15 -7.56,-24.56 -2.57,-37.14 4.91,-12.4 13.99,-20.73 27.25,-25.13 13.29,-4.35 29.3,-2.81 48.12,4.65 20.35,8.06 33.9,18.16 40.63,30.32 6.72,12.12 7.57,24.53 2.56,37.18 -4.93,12.43 -14.04,20.84 -27.36,25.15 -13.26,4.31 -29.68,2.61 -49.18,-5.12zm6.34 -16.22c14.72,5.84 26.72,7.51 36.02,5.04 9.3,-2.47 15.48,-7.66 18.6,-15.53 2.93,-7.37 1.83,-15.14 -3.33,-23.31 -5.16,-8.16 -15.02,-15.11 -29.6,-20.89 -14.63,-5.8 -26.58,-7.47 -35.87,-4.99 -9.3,2.48 -15.5,7.66 -18.62,15.54 -2.95,7.43 -1.85,15.22 3.29,23.32 5.1,8.1 14.96,15.05 29.51,20.82zm11.91 -175.39l8.46 -14.69 44.04 25.37 23.61 -40.99 -44.05 -25.36 8.46 -14.69 105.84 60.95 -8.45 14.69 -46.91 -27.02 -23.61 40.99 46.91 27.02 -8.46 14.68 -105.84 -60.95zm182.91 -94.79c1.9,7.99 2.44,15.33 1.64,22.09 -0.79,6.81 -2.97,12.96 -6.54,18.5 -5.64,8.77 -12.77,14.08 -21.44,15.87 -8.65,1.85 -17.46,-0.13 -26.43,-5.9 -5.94,-3.82 -10.39,-8.41 -13.39,-13.83 -3.02,-5.4 -4.44,-11.08 -4.28,-16.99 0.16,-5.91 2.4,-13.6 6.74,-23.03 5.83,-12.68 9.35,-22.49 10.51,-29.39l-4.38 -2.96c-7.07,-4.54 -12.82,-6.47 -17.3,-5.8 -6.39,0.87 -11.98,4.97 -16.69,12.3 -4.27,6.63 -6.06,12.47 -5.44,17.53 0.63,5.03 4.26,10.77 10.82,17.17l-11.74 12.6c-9.62,-9.04 -14.95,-18.15 -16.01,-27.46 -1.06,-9.3 2.1,-19.64 9.39,-30.98 5.69,-8.84 11.79,-14.71 18.37,-17.62 6.52,-2.89 12.71,-3.44 18.44,-1.62 5.77,1.84 13.32,5.77 22.72,11.82l23.19 14.91c16.23,10.44 26.65,16.73 31.27,18.81 4.57,2.11 9.48,3.53 14.64,4.29l-9.55 14.85c-4.51,-0.76 -9.37,-2.49 -14.54,-5.16zm-39.53 -23.89c-0.78,6.87 -3.61,16.06 -8.47,27.52 -2.84,6.66 -4.34,11.62 -4.56,14.84 -0.23,3.26 0.47,6.32 2.02,9.19 1.57,2.86 3.95,5.33 7.12,7.37 4.88,3.14 9.78,4.15 14.67,3 4.88,-1.15 9.03,-4.4 12.47,-9.75 3.29,-5.11 4.94,-10.58 4.97,-16.43 0.03,-5.86 -1.48,-11.27 -4.58,-16.15 -3.06,-4.9 -8.83,-10.07 -17.27,-15.5l-6.37 -4.09zm81.96 -98.69l-12.08 -10.51c4.58,-5.38 7.48,-9.24 8.69,-11.52 1.17,-2.31 1.35,-5.32 0.57,-9.02 -0.81,-3.67 -2.96,-7.05 -6.51,-10.14 -4.26,-3.71 -8.64,-5.55 -13.08,-5.47 -4.47,0.11 -8.26,1.95 -11.38,5.54 -6.24,7.15 -5.41,16.61 2.38,28.45l-12.94 9.95c-13.84,-18.82 -14.5,-35.42 -2.01,-49.76 6.91,-7.94 15,-11.85 24.32,-11.74 9.32,0.05 17.72,3.36 25.2,9.88 7.22,6.28 10.6,14.48 10.12,24.57 11.68,-3.25 22.72,-0.34 33.14,8.73 8.28,7.21 12.85,15.51 13.75,24.88 0.89,9.36 -2.49,18.43 -10.14,27.21 -14.89,17.1 -32.92,18.87 -54.1,5.37l7.23 -14.62c6.81,4.01 13.32,5.79 19.49,5.33 6.2,-0.48 11.12,-2.85 14.83,-7.11 3.81,-4.38 5.42,-9.27 4.88,-14.68 -0.54,-5.41 -3.09,-10.13 -7.73,-14.17 -3.73,-3.25 -7.63,-5.1 -11.75,-5.56 -4.15,-0.49 -7.43,-0.02 -9.84,1.32 -2.4,1.39 -5.59,4.33 -9.53,8.86l-3.51 4.21zm119.71 -71.65c0.35,8.21 -0.5,15.52 -2.57,22 -2.07,6.55 -5.38,12.17 -9.93,16.93 -7.2,7.55 -15.21,11.41 -24.06,11.53 -8.84,0.17 -17.11,-3.44 -24.83,-10.81 -5.11,-4.87 -8.62,-10.22 -10.53,-16.11 -1.94,-5.88 -2.26,-11.72 -0.98,-17.49 1.28,-5.77 4.93,-12.9 10.98,-21.34 8.12,-11.34 13.43,-20.32 15.88,-26.87l-3.74 -3.74c-6.08,-5.8 -11.36,-8.78 -15.89,-8.97 -6.44,-0.35 -12.7,2.62 -18.71,8.92 -5.45,5.7 -8.32,11.1 -8.67,16.18 -0.33,5.06 2.15,11.38 7.38,18.91l-13.92 10.15c-7.73,-10.7 -11.24,-20.65 -10.52,-30 0.73,-9.33 5.78,-18.88 15.1,-28.64 7.25,-7.6 14.36,-12.21 21.37,-13.82 6.95,-1.6 13.13,-0.97 18.41,1.9 5.32,2.91 11.98,8.19 20.07,15.91l19.94 19.04c13.96,13.32 23,21.47 27.15,24.39 4.09,2.93 8.64,5.26 13.56,6.99l-12.19 12.76c-4.28,-1.6 -8.73,-4.21 -13.3,-7.82zm-34.29 -30.94c-2.07,6.6 -6.59,15.08 -13.53,25.42 -4.05,6 -6.46,10.58 -7.29,13.71 -0.84,3.15 -0.74,6.29 0.25,9.4 1,3.11 2.86,5.98 5.59,8.58 4.19,4.01 8.81,5.93 13.83,5.73 5.02,-0.2 9.71,-2.61 14.1,-7.21 4.2,-4.4 6.85,-9.45 7.99,-15.19 1.14,-5.75 0.68,-11.34 -1.44,-16.73 -2.07,-5.39 -6.76,-11.55 -14.02,-18.49l-5.48 -5.22zm-4.4 -82.38l12.85 -11.05 33.14 38.54 35.86 -30.84 -33.13 -38.54 12.85 -11.05 79.63 92.61 -12.86 11.05 -35.29 -41.04 -35.86 30.83 35.29 41.05 -12.85 11.05 -79.63 -92.61zm147.93 -121.97l75.7 95.85 -13.3 10.51 -29.47 -37.31 -7.69 6.07c-4.49,3.55 -7.32,6.93 -8.52,10.23 -1.2,3.3 -0.78,10.71 1.16,22.28l4.87 30.04 -16.5 13.02 -6 -37.09c-1.85,-11.33 -0.98,-19.22 2.56,-23.66 -8.62,4.66 -16.93,5.72 -24.88,3.25 -7.94,-2.47 -14.71,-7.23 -20.27,-14.28 -6.96,-8.8 -9.88,-17.63 -8.81,-26.48 1.04,-8.86 5.96,-16.75 14.74,-23.68l36.41 -28.75zm-2.65 23.98l-18.84 14.88c-7.88,6.22 -11.77,11.74 -11.64,16.59 0.13,4.85 1.79,9.28 4.92,13.25 4.57,5.79 9.59,8.66 15.1,8.68 5.44,-0.01 12.43,-3.38 20.92,-10.08l14.62 -11.55 -25.08 -31.77zm26.99 -41.2l68.59 -43.88 9.26 14.47 -27.16 17.37 56.56 88.42 -14.28 9.14 -56.56 -88.42 -27.16 17.37 -9.25 -14.47zm80.04 -51.18l70.52 -40.72 8.59 14.88 -27.92 16.12 52.48 90.9 -14.68 8.48 -52.48 -90.9 -27.92 16.12 -8.59 -14.88zm167.92 -87.61l50.32 111.29 -15.44 6.99 -19.59 -43.32 -8.93 4.04c-5.22,2.36 -8.78,4.95 -10.74,7.87 -1.96,2.9 -3.34,10.2 -4.26,21.9l-2.52 30.32 -19.15 8.66 3.13 -37.45c0.94,-11.44 3.69,-18.88 8.19,-22.34 -9.49,2.44 -17.8,1.47 -24.93,-2.85 -7.1,-4.31 -12.52,-10.57 -16.22,-18.75 -4.62,-10.22 -5.33,-19.5 -2.16,-27.82 3.16,-8.35 9.83,-14.82 20.02,-19.42l42.28 -19.12zm-8.37 22.64l-21.86 9.89c-9.15,4.13 -14.26,8.55 -15.31,13.28 -1.04,4.74 -0.5,9.45 1.58,14.06 3.04,6.71 7.22,10.72 12.55,12.06 5.29,1.3 12.89,-0.27 22.75,-4.73l16.97 -7.68 -16.68 -36.88zm188.36 22.35c-3.47,7.45 -7.6,13.54 -12.42,18.35 -4.85,4.85 -10.38,8.31 -16.61,10.45 -9.87,3.38 -18.75,3.11 -26.67,-0.86 -7.92,-3.91 -13.6,-10.93 -17.06,-21.03 -2.28,-6.68 -2.93,-13.04 -1.91,-19.15 0.98,-6.11 3.38,-11.44 7.18,-15.98 3.79,-4.53 10.32,-9.17 19.58,-13.88 12.43,-6.32 21.28,-11.84 26.47,-16.52l-1.6 -5.05c-2.72,-7.94 -6.03,-13.02 -9.97,-15.28 -5.55,-3.28 -12.47,-3.53 -20.71,-0.71 -7.47,2.56 -12.5,6.02 -15.15,10.38 -2.63,4.33 -3.34,11.09 -2.17,20.18l-17.03 2.59c-1.93,-13.06 -0.46,-23.51 4.49,-31.47 4.94,-7.95 13.83,-14.1 26.59,-18.47 9.95,-3.4 18.38,-4.22 25.34,-2.41 6.9,1.77 12.1,5.19 15.46,10.16 3.38,5.03 6.86,12.79 10.49,23.37l8.92 26.08c6.25,18.26 10.52,29.65 12.85,34.16 2.28,4.48 5.25,8.65 8.82,12.44l-16.7 5.72c-3.06,-3.39 -5.8,-7.76 -8.19,-13.07zm-16.18 -43.26c-4.87,4.9 -12.79,10.35 -23.72,16.33 -6.36,3.46 -10.61,6.42 -12.78,8.81 -2.2,2.41 -3.56,5.25 -4.12,8.46 -0.54,3.22 -0.21,6.63 1.01,10.19 1.88,5.49 5.1,9.33 9.64,11.46 4.55,2.13 9.82,2.15 15.84,0.09 5.75,-1.97 10.43,-5.23 14.09,-9.8 3.66,-4.57 5.83,-9.75 6.42,-15.51 0.65,-5.74 -0.67,-13.37 -3.93,-22.87l-2.45 -7.16zm42.18 -76.62l66.81 -18.89 28.62 101.24 10.41 -2.95 14.02 49.59 -13.36 3.78 -9.41 -33.29 -75.41 21.32 9.41 33.28 -13.59 3.85 -14.02 -49.59 8.6 -2.43c5.95,-21.95 1.93,-57.24 -12.08,-105.91zm18.26 12.69c9.64,38.56 12.79,68.16 9.45,88.8l51.41 -14.53 -23.95 -84.7 -36.91 10.43zm90.19 -39.54l38.68 -6.98c8.81,-1.59 15.66,-1.99 20.64,-1.18 4.96,0.83 9.76,3.51 14.35,7.97 4.6,4.52 7.61,10.55 8.98,18.16 2.06,11.42 -0.37,20.71 -7.27,27.77 11.72,2.87 18.91,11.58 21.53,26.09 1.68,9.3 0.33,17.76 -4.01,25.32 -4.32,7.59 -13.19,12.58 -26.51,14.98l-44.7 8.07 -21.69 -120.2zm25.79 47.47l17.95 -3.24c7.14,-1.28 11.96,-2.63 14.5,-4.01 2.51,-1.36 4.6,-3.66 6.23,-6.78 1.63,-3.12 2.06,-6.67 1.35,-10.65 -1.14,-6.29 -3.81,-10.3 -8,-12.06 -4.17,-1.73 -10.68,-1.78 -19.56,-0.18l-18.53 3.34 6.06 33.58zm9.57 53.05l22.27 -4.02c9.5,-1.72 15.8,-4.37 18.93,-7.97 3.15,-3.56 4.14,-8.44 3.02,-14.61 -1.17,-6.52 -3.94,-10.85 -8.28,-13.02 -4.37,-2.15 -11.69,-2.31 -21.97,-0.45l-20.53 3.7 6.56 36.37zm77.34 -59.34c-1.6,-21.01 1.61,-37.18 9.59,-48.57 7.98,-11.35 18.76,-17.56 32.25,-18.58 13.3,-1.02 24.78,3.49 34.55,13.49 9.73,10.04 15.36,25.1 16.9,45.28 1.67,21.83 -1.47,38.44 -9.45,49.82 -7.95,11.34 -18.73,17.55 -32.3,18.59 -13.33,1.01 -24.89,-3.49 -34.59,-13.57 -9.69,-10.04 -15.36,-25.54 -16.95,-46.46zm17.35 -1.4c1.21,15.79 4.96,27.31 11.25,34.58 6.3,7.27 13.68,10.56 22.12,9.92 7.91,-0.6 14.41,-4.99 19.49,-13.21 5.07,-8.21 7,-20.12 5.81,-35.77 -1.19,-15.68 -4.94,-27.16 -11.24,-34.42 -6.3,-7.27 -13.67,-10.57 -22.12,-9.93 -7.97,0.61 -14.49,5.01 -19.52,13.17 -5.05,8.14 -6.98,20.05 -5.79,35.66zm98.6 -68.81l16.93 -0.46 1.43 52.69c5.42,-0.15 9.19,-1.54 11.32,-4.15 2.07,-2.65 5.09,-10.02 8.96,-22.25 2.99,-9.81 5.52,-16.28 7.56,-19.43 1.99,-3.16 4.33,-5.3 6.93,-6.35 2.59,-1.05 7.17,-1.69 13.75,-1.87l2.51 -0.07 0.46 16.94 -4.98 0.02c-3.57,0.1 -6.1,0.83 -7.59,2.24 -1.45,1.42 -2.67,3.96 -3.68,7.56 -3.54,12.41 -6.34,20.42 -8.49,24.01 -2.13,3.59 -5.58,6.79 -10.33,9.62 7.36,2.19 14.72,10.27 22.05,24.28l19.65 37.33 -18.86 0.51 -19.26 -37.14c-3.81,-7.67 -7.09,-12.64 -9.86,-14.96 -2.8,-2.32 -6.06,-3.45 -9.78,-3.34l1.53 56.45 -16.93 0.46 -3.32 -122.09zm154.01 107.09c-5.85,5.77 -11.85,10.04 -18.05,12.85 -6.24,2.85 -12.62,4.17 -19.21,3.99 -10.43,-0.28 -18.66,-3.63 -24.69,-10.12 -6.06,-6.43 -8.93,-14.99 -8.64,-25.66 0.19,-7.06 1.81,-13.25 4.9,-18.61 3.05,-5.38 7.17,-9.54 12.31,-12.47 5.14,-2.92 12.88,-4.99 23.19,-6.16 13.86,-1.59 24.08,-3.66 30.58,-6.24l0.27 -5.28c0.22,-8.4 -1.11,-14.32 -4,-17.81 -4.06,-5.01 -10.46,-7.66 -19.17,-7.9 -7.89,-0.21 -13.81,1.28 -17.81,4.43 -3.98,3.15 -7.01,9.23 -9.09,18.15l-16.86 -3.51c2.75,-12.91 7.78,-22.19 15.2,-27.92 7.41,-5.73 17.88,-8.38 31.37,-8.02 10.5,0.28 18.69,2.47 24.58,6.59 5.85,4.08 9.53,9.09 10.94,14.93 1.41,5.89 1.96,14.38 1.66,25.55l-0.74 27.56c-0.53,19.29 -0.5,31.46 0.11,36.5 0.57,5 1.89,9.93 3.91,14.74l-17.64 -0.48c-1.69,-4.24 -2.73,-9.29 -3.12,-15.11zm-0.05 -46.19c-6.28,2.9 -15.6,5.24 -27.93,7.02 -7.17,1.02 -12.18,2.3 -15.05,3.79 -2.9,1.49 -5.16,3.67 -6.81,6.49 -1.64,2.82 -2.52,6.13 -2.62,9.9 -0.16,5.8 1.52,10.51 5.03,14.1 3.52,3.59 8.45,5.45 14.81,5.62 6.07,0.17 11.6,-1.25 16.63,-4.26 5.02,-3.01 8.86,-7.1 11.43,-12.29 2.61,-5.15 4.04,-12.76 4.31,-22.8l0.2 -7.57zm49.14 -58.83l80.79 10.12 -2.13 17.05 -31.99 -4.01 -13.05 104.14 -16.82 -2.1 13.05 -104.15 -31.99 -4.01 2.14 -17.04zm154.77 100.95l16.21 5.56c-4.46,13.93 -11.18,24 -20.11,30.17 -8.96,6.15 -18.75,8.25 -29.36,6.33 -12.93,-2.33 -22.59,-9.53 -29.01,-21.65 -6.43,-12.08 -7.78,-28.51 -4.04,-49.23 3.77,-20.89 10.81,-35.8 21.11,-44.71 10.34,-8.93 22.08,-12.19 35.28,-9.81 10.24,1.85 18.24,6.57 24.07,14.15 5.85,7.59 8.61,17.9 8.29,30.92l-16.75 0.07c-0.11,-8.42 -1.75,-15.02 -4.96,-19.74 -3.2,-4.77 -7.56,-7.62 -13.08,-8.62 -8.21,-1.48 -15.67,0.92 -22.39,7.24 -6.72,6.33 -11.5,17.41 -14.36,33.25 -2.96,16.4 -2.52,28.72 1.3,36.93 3.82,8.26 9.72,13.12 17.74,14.57 6.34,1.14 12.14,-0.32 17.49,-4.34 5.31,-4.07 9.52,-11.08 12.57,-21.09zm51.1 -68.47l16.51 3.83 -10.77 46.53 21.01 4.87c15.05,3.48 25.08,9.55 30.1,18.17 4.96,8.63 6.3,18 3.97,28.05 -2.21,9.55 -7.18,17.26 -14.86,23.13 -7.67,5.83 -18.41,7.17 -32.2,3.98l-41.31 -9.57 27.55 -118.99zm-7.22 106.31l17.34 4.02c12.62,2.92 21.12,2.75 25.46,-0.51 4.37,-3.26 7.12,-7.33 8.26,-12.22 1.47,-6.39 0.63,-11.78 -2.51,-16.13 -3.17,-4.39 -9.77,-7.73 -19.85,-10.06l-19.57 -4.53 -9.13 39.43zm117.48 -78.28l16.05 5.41 -16.84 49.95c5.13,1.73 9.15,1.73 12.05,0.01 2.86,-1.77 8.24,-7.64 16.09,-17.79 6.19,-8.18 10.8,-13.37 13.8,-15.63 2.96,-2.27 5.89,-3.48 8.7,-3.57 2.79,-0.09 7.31,0.89 13.55,3l2.38 0.8 -5.41 16.05 -4.69 -1.69c-3.38,-1.14 -6.01,-1.33 -7.89,-0.52 -1.86,0.83 -3.88,2.8 -6.07,5.83 -7.6,10.42 -13,16.97 -16.25,19.6 -3.24,2.63 -7.58,4.44 -13.02,5.46 6.16,4.6 10.28,14.72 12.32,30.4l5.56 41.81 -17.88 -6.02 -5.26 -41.51c-0.93,-8.51 -2.29,-14.31 -4.09,-17.44 -1.83,-3.15 -4.49,-5.33 -8.03,-6.52l-18.04 53.52 -16.06 -5.41 39.03 -115.74zm58.21 84.01c7.76,-19.58 17.73,-32.72 29.89,-39.46 12.15,-6.7 24.55,-7.56 37.13,-2.57 12.4,4.91 20.74,13.99 25.15,27.26 4.35,13.29 2.81,29.3 -4.65,48.11 -8.06,20.35 -18.16,33.91 -30.31,40.64 -12.12,6.72 -24.53,7.58 -37.18,2.56 -12.42,-4.93 -20.84,-14.04 -25.15,-27.35 -4.31,-13.26 -2.61,-29.68 5.12,-49.19zm16.21 6.34c-5.83,14.73 -7.5,26.73 -5.03,36.02 2.47,9.3 7.65,15.49 15.52,18.61 7.38,2.92 15.15,1.82 23.31,-3.34 8.16,-5.16 15.11,-15.02 20.89,-29.61 5.8,-14.62 7.46,-26.58 4.98,-35.87 -2.48,-9.29 -7.66,-15.49 -15.54,-18.61 -7.43,-2.95 -15.22,-1.85 -23.32,3.29 -8.1,5.1 -15.05,14.96 -20.81,29.51zm123.72 -15.39l15.1 7.7 -23.21 45.49 18.24 9.3c19.26,-30.32 40.24,-39.7 62.92,-28.13 11.74,5.99 18.56,15.76 20.46,29.28 1.95,13.54 -1.6,29.12 -10.62,46.81 -9.48,18.58 -20.16,30.97 -32.12,37.24 -11.91,6.25 -23.91,6.29 -36,0.12 -11.35,-5.79 -17.96,-14.84 -19.88,-27.21 -1.92,-12.39 0.59,-26.7 7.54,-43.02l-18.24 -9.3 -24.59 48.22 -15.1 -7.7 55.5 -108.8zm65.31 50.22c-7.44,-3.79 -14.97,-3.28 -22.56,1.57 -7.56,4.91 -14.52,13.55 -20.9,26.06 -7.56,14.81 -11.1,26.75 -10.59,35.85 0.47,9.1 4.23,15.46 11.21,19.02 6.43,3.28 13.5,3.06 21.19,-0.68 7.67,-3.75 15.36,-13.13 23.06,-28.22 14.27,-27.99 13.79,-45.85 -1.41,-53.6zm134.73 61.85l56.57 40.25 -60.98 85.72 8.81 6.27 -29.87 41.99 -11.31 -8.05 20.05 -28.18 -63.86 -45.43 -20.05 28.18 -11.5 -8.19 29.87 -41.98 7.29 5.18c20.83,-9.11 45.82,-34.36 74.98,-75.76zm1.55 22.19c-24.02,31.67 -45.12,52.66 -63.3,62.98l43.52 30.97 51.03 -71.71 -31.25 -22.24zm97.85 21.84l14.65 -18.72 13.35 10.45 -14.65 18.72 -13.35 -10.45zm-89.22 113.96l75.29 -96.17 13.35 10.44 -75.3 96.18 -13.34 -10.45zm174.63 -13.71l-80.02 92.28 -12.81 -11.11 31.15 -35.92 -7.41 -6.42c-4.33,-3.75 -8.17,-5.89 -11.64,-6.45 -3.46,-0.57 -10.67,1.23 -21.67,5.3l-28.6 10.4 -15.88 -13.78 35.32 -12.82c10.79,-3.94 18.7,-4.56 23.72,-1.91 -6.18,-7.6 -8.79,-15.56 -7.84,-23.84 0.94,-8.26 4.35,-15.8 10.24,-22.58 7.35,-8.48 15.47,-13 24.36,-13.6 8.9,-0.64 17.57,2.72 26.02,10.05l35.06 30.4zm-24.07 1.87l-18.13 -15.72c-7.58,-6.58 -13.73,-9.37 -18.47,-8.34 -4.74,1.04 -8.79,3.5 -12.1,7.32 -4.83,5.57 -6.72,11.04 -5.7,16.45 1.02,5.35 5.63,11.58 13.81,18.67l14.07 12.21 26.52 -30.59zm58.32 29.32l54.73 57.07 -88.16 84.53 -11.73 -12.22 75.76 -72.65 -31.28 -32.62 -43.85 42.06c-9.99,9.58 -16.98,15.79 -20.92,18.53 -3.91,2.78 -8.26,4.02 -13.05,3.78 -4.8,-0.24 -9.45,-2.7 -13.9,-7.34 -2.76,-2.89 -5.69,-6.28 -8.79,-10.2l12.57 -12.06c5.59,5.73 9.08,8.96 10.39,9.71 1.34,0.72 2.99,0.73 4.91,0.02 1.92,-0.71 6.99,-5.01 15.23,-12.91l58.09 -55.7z"/>
   <path class="fil0 str1" d="M3183.71 1036.84l11.05 12.85 -36.23 31.14 14.07 16.36c10.07,11.71 14.56,22.54 13.51,32.45 -1.11,9.9 -5.57,18.25 -13.39,24.97 -7.44,6.39 -16,9.67 -25.67,9.85 -9.63,0.16 -19.09,-5.11 -28.32,-15.84l-27.64 -32.15 92.62 -79.63zm-68.72 81.43l11.6 13.5c8.44,9.82 15.39,14.71 20.82,14.65 5.46,-0.04 10.09,-1.7 13.89,-4.97 4.97,-4.27 7.48,-9.12 7.52,-14.48 0.05,-5.42 -3.3,-12.01 -10.05,-19.86l-13.09 -15.23 -30.69 26.39zm141.17 4.88l9.84 13.8 -41.38 29.52 27.47 38.51 41.38 -29.52 9.84 13.8 -99.44 70.92 -9.84 -13.8 44.07 -31.43 -27.47 -38.51 -44.07 31.43 -9.84 -13.8 99.44 -70.92zm84.25 81.01l20.02 -12.8 9.14 14.27 -20.03 12.81 -9.13 -14.28zm-121.92 77.99l102.89 -65.81 9.13 14.28 -102.89 65.81 -9.13 -14.28zm95.17 71.29l6.23 15.96c-13.53,5.59 -25.55,6.97 -36.02,4.13 -10.49,-2.87 -18.41,-8.99 -23.8,-18.32 -6.57,-11.38 -7.32,-23.41 -2.21,-36.14 5.07,-12.71 16.75,-24.34 34.98,-34.87 18.38,-10.61 34.32,-14.87 47.76,-12.76 13.51,2.13 23.58,8.99 30.28,20.6 5.2,9.01 6.77,18.16 4.74,27.52 -2.02,9.36 -8.1,18.13 -18.24,26.29l-10.88 -12.73c6.36,-5.53 10.34,-11.04 11.87,-16.55 1.57,-5.52 0.94,-10.69 -1.86,-15.55 -4.18,-7.23 -10.83,-11.37 -19.99,-12.42 -9.17,-1.04 -20.73,2.47 -34.66,10.51 -14.44,8.33 -23.56,16.62 -27.36,24.85 -3.85,8.24 -3.74,15.88 0.33,22.94 3.22,5.58 8.09,9.07 14.6,10.56 6.55,1.43 14.62,0.11 24.23,-4.02zm81.29 -12.63l36.9 72.59 -15.31 7.78 -14.61 -28.73 -93.57 47.56 -7.68 -15.1 93.56 -47.57 -14.61 -28.74 15.32 -7.79zm48.74 99.22l6.21 15.78 -47.53 18.69 7.49 19.05c34.53,-9.95 56.46,-3.07 65.78,20.62 4.82,12.27 3.45,24.1 -4.09,35.49 -7.51,11.44 -20.49,20.75 -38.96,28.02 -19.42,7.64 -35.63,9.83 -48.74,6.61 -13.06,-3.21 -22.08,-11.13 -27.04,-23.76 -4.67,-11.86 -3.62,-23.02 3.14,-33.56 6.77,-10.55 18.13,-19.61 34.15,-27.22l-7.5 -19.05 -50.37 19.82 -6.2 -15.78 113.66 -44.71zm15.64 80.89c-3.06,-7.77 -9.04,-12.38 -17.94,-13.77 -8.92,-1.34 -19.86,0.53 -32.92,5.67 -15.48,6.08 -26.04,12.68 -31.69,19.83 -5.68,7.13 -7.08,14.38 -4.21,21.68 2.64,6.72 8.09,11.24 16.32,13.52 8.23,2.28 20.2,0.35 35.97,-5.85 29.24,-11.5 40.71,-25.2 34.47,-41.08zm0.97 72.5c27.17,-7.69 48.82,-9.86 64.89,-6.49 16.06,3.36 26.14,12.17 30.17,26.43 3.58,12.65 0.74,24.21 -8.57,34.71 -11.24,12.72 -31.91,23.34 -62.03,31.85 -27.06,7.65 -48.66,9.84 -64.76,6.53 -16.1,-3.32 -26.18,-12.17 -30.23,-26.51 -3.58,-12.64 -0.32,-24.74 9.78,-36.31 10.11,-11.54 30.37,-21.63 60.75,-30.21zm4.77 16.74c-26.34,7.45 -43.33,14.98 -50.85,22.53 -7.57,7.56 -10.23,15.28 -8.01,23.13 2.1,7.44 8.38,12.35 18.89,14.79 10.51,2.42 28.8,-0.07 54.96,-7.46 26.46,-7.48 43.4,-15.01 50.92,-22.55 7.53,-7.55 10.13,-15.34 7.87,-23.34 -2.08,-7.36 -8.34,-12.23 -18.82,-14.61 -10.51,-2.37 -28.8,0.11 -54.96,7.51zm24.75 91.73c27.51,-6.36 49.23,-7.47 65.12,-3.33 15.89,4.14 25.53,13.43 28.86,27.87 2.95,12.8 -0.44,24.22 -10.25,34.25 -11.85,12.16 -33.02,21.76 -63.51,28.8 -27.4,6.33 -49.08,7.46 -65,3.37 -15.92,-4.1 -25.55,-13.43 -28.91,-27.94 -2.95,-12.81 0.9,-24.73 11.54,-35.8 10.66,-11.04 31.39,-20.12 62.15,-27.22zm3.95 16.95c-26.68,6.16 -44,12.86 -51.89,20.04 -7.92,7.17 -10.96,14.76 -9.12,22.71 1.73,7.53 7.77,12.74 18.15,15.69 10.37,2.92 28.77,1.33 55.25,-4.78 26.79,-6.19 44.07,-12.88 51.96,-20.05 7.89,-7.18 10.87,-14.83 9,-22.93 -1.72,-7.45 -7.74,-12.62 -18.11,-15.5 -10.37,-2.88 -28.75,-1.29 -55.24,4.82zm113.64 154.12l1.4 18.37 -125.13 77.21 130.26 -9.93 1.33 17.36 -168.01 12.81 -1.39 -18.27 124.72 -77.52 -129.88 9.91 -1.3 -17.13 168 -12.81zm-69.35 121.64c13.45,-1.03 24.45,1.28 33.01,6.96 8.54,5.65 13.2,13.59 13.98,23.84 0.76,10.05 -2.61,18.45 -10.11,25.24 -7.55,6.82 -18.57,10.77 -33.09,11.88 -14.16,1.08 -25.56,-1.23 -34.3,-6.9 -8.74,-5.67 -13.51,-13.65 -14.29,-23.9 -0.55,-7.27 1.08,-13.65 4.87,-19.09 3.84,-5.45 8.72,-9.59 14.71,-12.49 5.96,-2.86 14.38,-4.71 25.22,-5.54zm0.62 16.47c-10.8,0.82 -18.51,3.19 -23.21,7.09 -4.65,3.89 -6.81,8.19 -6.46,12.87 0.37,4.82 3.39,8.72 9,11.71 5.62,2.95 13.17,4.07 22.67,3.35 10.72,-0.82 18.33,-3.24 22.81,-7.29 4.53,-4.04 6.62,-8.25 6.28,-12.63 -0.36,-4.7 -3.17,-8.53 -8.44,-11.63 -5.31,-3.06 -12.84,-4.22 -22.65,-3.47zm-60.04 -10.05l4.89 64.06 -16.9 1.29 -4.89 -64.07 16.9 -1.28zm53.49 91.93c28.16,2.15 49.23,7.56 63.16,16.26 13.93,8.69 20.35,20.43 19.23,35.21 -1,13.1 -7.65,22.99 -20.01,29.64 -14.93,8.06 -38.01,10.91 -69.22,8.53 -28.02,-2.14 -49.06,-7.52 -63.03,-16.18 -13.97,-8.66 -20.38,-20.44 -19.25,-35.3 1,-13.1 8.23,-23.33 21.69,-30.72 13.47,-7.35 35.96,-9.84 67.43,-7.44zm-1.28 17.36c-27.3,-2.08 -45.83,-0.86 -55.5,3.64 -9.7,4.49 -14.87,10.82 -15.49,18.96 -0.59,7.71 3.62,14.48 12.65,20.39 9.03,5.88 27.06,9.86 54.15,11.92 27.42,2.09 45.92,0.87 55.59,-3.62 9.67,-4.5 14.79,-10.92 15.42,-19.2 0.58,-7.63 -3.62,-14.36 -12.65,-20.2 -9.04,-5.85 -27.07,-9.82 -54.17,-11.89zm-7.41 94.72c28.01,3.51 48.79,9.94 62.28,19.3 13.5,9.36 19.34,21.4 17.5,36.1 -1.63,13.04 -8.75,22.59 -21.41,28.63 -15.31,7.34 -38.5,9.06 -69.55,5.17 -27.9,-3.5 -48.64,-9.9 -62.18,-19.22 -13.54,-9.33 -19.37,-21.4 -17.52,-36.19 1.64,-13.04 9.35,-22.9 23.16,-29.63 13.81,-6.7 36.39,-8.09 67.72,-4.16zm-2.12 17.28c-27.17,-3.41 -45.75,-3.08 -55.62,0.94 -9.91,4.01 -15.38,10.09 -16.39,18.18 -0.96,7.67 2.91,14.64 11.64,20.98 8.73,6.32 26.55,11.16 53.52,14.54 27.28,3.42 45.81,3.09 55.69,-0.92 9.87,-4.03 15.3,-10.19 16.33,-18.44 0.96,-7.59 -2.91,-14.51 -11.65,-20.79 -8.75,-6.27 -26.57,-11.12 -53.52,-14.49zm-13.43 98.68c27.51,6.37 47.52,14.9 59.98,25.6 12.45,10.69 17.04,23.27 13.69,37.71 -2.96,12.8 -11.03,21.57 -24.24,26.28 -15.98,5.72 -39.21,5.05 -69.71,-2.01 -27.39,-6.34 -47.37,-14.84 -59.88,-25.51 -12.5,-10.66 -17.06,-23.28 -13.7,-37.79 2.96,-12.8 11.65,-21.83 26.07,-27.1 14.43,-5.24 37.04,-4.3 67.79,2.82zm-3.88 16.97c-26.68,-6.18 -45.19,-7.77 -55.43,-4.78 -10.26,2.97 -16.32,8.46 -18.16,16.41 -1.75,7.53 1.39,14.85 9.42,22.06 8.04,7.18 25.26,13.83 51.74,19.96 26.79,6.2 45.26,7.78 55.49,4.8 10.24,-2.99 16.27,-8.56 18.15,-16.66 1.72,-7.45 -1.42,-14.73 -9.46,-21.87 -8.06,-7.14 -25.28,-13.79 -51.75,-19.92zm-21.89 92.34c27.19,7.66 46.76,17.13 58.7,28.4 11.94,11.27 15.92,24.05 11.9,38.32 -3.56,12.64 -12.03,21.02 -25.45,25.1 -16.23,4.96 -39.41,3.2 -69.54,-5.3 -27.06,-7.62 -46.62,-17.05 -58.61,-28.3 -11.99,-11.24 -15.95,-24.06 -11.9,-38.4 3.56,-12.65 12.67,-21.25 27.32,-25.83 14.66,-4.56 37.2,-2.56 67.58,6.01zm-4.68 16.76c-26.35,-7.42 -44.77,-9.88 -55.14,-7.38 -10.39,2.48 -16.7,7.67 -18.92,15.53 -2.1,7.44 0.69,14.9 8.38,22.48 7.69,7.55 24.58,15 50.74,22.38 26.47,7.46 44.84,9.91 55.21,7.42 10.36,-2.51 16.64,-7.79 18.9,-15.79 2.07,-7.36 -0.72,-14.78 -8.42,-22.3 -7.7,-7.51 -24.59,-14.96 -50.75,-22.34zm-107.15 55.8l152.09 93.9 -4.41 13.04 -152.09 -93.9 4.41 -13.04zm58.28 94.55c25.74,11.6 43.71,23.87 53.85,36.78 10.14,12.92 12.18,26.15 6.09,39.66 -5.4,11.98 -15.01,19.01 -28.89,21.06 -16.79,2.5 -39.46,-2.68 -67.99,-15.54 -25.64,-11.56 -43.58,-23.78 -53.77,-36.67 -10.19,-12.9 -12.21,-26.16 -6.09,-39.74 5.4,-11.98 15.68,-19.14 30.85,-21.51 15.17,-2.33 37.16,2.99 65.95,15.96zm-7.12 15.89c-24.96,-11.25 -42.81,-16.41 -53.43,-15.47 -10.65,0.91 -17.67,5.11 -21.02,12.55 -3.17,7.05 -1.52,14.85 4.95,23.48 6.49,8.6 22.09,18.48 46.87,29.64 25.07,11.3 42.88,16.44 53.5,15.51 10.63,-0.93 17.63,-5.23 21.04,-12.8 3.15,-6.98 1.49,-14.73 -5.02,-23.3 -6.51,-8.57 -22.11,-18.45 -46.89,-29.61zm-142.42 105.46l7.7 -15.09 117.4 59.88c-2.31,-5.57 -4.13,-12.36 -5.4,-20.41 -1.27,-8.04 -1.73,-15.06 -1.43,-21.11l17.61 8.98c0.59,10.78 2.72,21.11 6.4,31.05 3.68,9.89 8.16,17.86 13.44,23.81l-4.98 9.78 -150.74 -76.89zm-27.36 47.41l20.39 11.75 -9.62 16.71 -20.39 -11.74 9.62 -16.72zm45.46 86.93c23.01,16.37 38.26,31.88 45.7,46.52 7.44,14.63 6.89,28.01 -1.7,40.08 -7.62,10.71 -18.42,15.74 -32.43,15.06 -16.96,-0.8 -38.19,-10.27 -63.69,-28.41 -22.91,-16.31 -38.15,-31.77 -45.65,-46.4 -7.5,-14.63 -6.91,-28.03 1.73,-40.17 7.62,-10.7 19.09,-15.73 34.43,-15.12 15.33,0.65 35.88,10.13 61.61,28.44zm-10.06 14.21c-22.31,-15.88 -38.82,-24.4 -49.43,-25.54 -10.62,-1.16 -18.31,1.6 -23.04,8.25 -4.49,6.3 -4.38,14.27 0.3,23.99 4.7,9.7 18.09,22.41 40.24,38.17 22.41,15.94 38.88,24.43 49.48,25.58 10.61,1.14 18.31,-1.72 23.12,-8.49 4.44,-6.23 4.31,-14.16 -0.41,-23.83 -4.72,-9.67 -18.12,-22.38 -40.26,-38.13zm-159.93 76.05l10.41 -13.37 103.97 80.99c-1.21,-5.91 -1.72,-12.92 -1.44,-21.06 0.27,-8.14 1.14,-15.12 2.58,-21.01l15.6 12.15c-1.47,10.7 -1.32,21.24 0.42,31.7 1.74,10.41 4.63,19.08 8.7,25.92l-6.75 8.66 -133.49 -103.98zm-36.09 41.17l17.74 15.45 -12.67 14.55 -17.74 -15.45 12.67 -14.55zm-75.51 77.69l12.23 -11.72 91.21 95.12c-0.34,-6.02 0.17,-13.03 1.61,-21.05 1.44,-8.01 3.31,-14.79 5.59,-20.41l13.68 14.27c-2.99,10.38 -4.37,20.83 -4.15,31.43 0.22,10.55 1.84,19.54 4.87,26.9l-7.92 7.6 -117.12 -122.14zm21.68 93.58c18.41,21.41 29.49,40.13 33.21,56.12 3.71,16 -0.04,28.85 -11.27,38.51 -9.97,8.56 -21.66,10.86 -35.1,6.84 -16.27,-4.84 -34.6,-19.13 -55.01,-42.87 -18.33,-21.32 -29.41,-39.99 -33.19,-55.99 -3.77,-15.99 0.02,-28.86 11.32,-38.58 9.96,-8.56 22.3,-10.7 37.05,-6.41 14.73,4.3 32.41,18.44 52.99,42.38zm-13.18 11.38c-17.85,-20.77 -31.83,-33 -41.85,-36.64 -10.04,-3.68 -18.17,-2.85 -24.36,2.47 -5.86,5.04 -7.66,12.8 -5.45,23.37 2.23,10.54 12.18,26.09 29.9,46.7 17.93,20.85 31.89,33.05 41.9,36.71 10.03,3.64 18.19,2.72 24.49,-2.7 5.8,-4.98 7.58,-12.71 5.32,-23.23 -2.27,-10.52 -12.23,-26.07 -29.95,-46.68z"/>
  </g>
  <path class="fil0 str2" d="M937.19 2591.75l-66.65 -165.51 210.88 -84.92 11.26 27.98 -186.13 74.95 44.11 109.56 186.14 -74.95 11.27 27.97 -210.88 84.92zm193.27 -321.17l-224.68 38.53 -4.3 -25.03 21.33 -3.66c-9.25,-4.47 -16.6,-10.09 -22,-16.84 -5.39,-6.7 -9.03,-15.36 -10.84,-25.95 -2.38,-13.87 -0.93,-26.68 4.4,-38.5 5.28,-11.8 13.98,-21.5 25.99,-29.15 12.06,-7.6 25.79,-12.74 41.27,-15.4 16.54,-2.83 31.96,-2.42 46.28,1.25 14.26,3.67 25.92,10.59 34.97,20.73 8.97,10.11 14.57,21.45 16.72,33.97 1.57,9.18 1.05,17.75 -1.56,25.66 -2.61,7.96 -6.44,14.74 -11.53,20.44l79.23 -13.59 4.72 27.54zm-146.79 -0.6c20.82,-3.56 35.48,-10.42 44.01,-20.53 8.5,-10.15 11.76,-21.24 9.7,-33.24 -2.09,-12.2 -9.05,-21.74 -20.85,-28.63 -11.82,-6.93 -28.53,-8.53 -50.17,-4.82 -20.66,3.54 -35.37,10.42 -44.19,20.68 -8.81,10.26 -12.19,21.26 -10.17,33.05 2,11.68 9.25,21.07 21.69,28.17 12.5,7.14 29.13,8.9 49.98,5.32zm-135.12 -174.99l-31.75 0.58 -0.51 -27.93 31.74 -0.59 0.52 27.94zm195.55 -3.59l-164.76 3.02 -0.51 -27.93 164.75 -3.02 0.52 27.93zm-72 -127.57l-21.84 -1.66c0.77,-11.72 0.91,-19.77 0.43,-24.05 -0.51,-4.34 -2.64,-8.58 -6.46,-12.7 -3.83,-4.11 -8.8,-6.4 -14.98,-6.87 -7.44,-0.56 -13.64,1.47 -18.45,6.15 -4.86,4.66 -7.57,10.94 -8.18,18.9 -1.19,15.68 7.17,27.34 25.06,35.02l-6.45 26.25c-29.98,-10.55 -43.78,-31.65 -41.39,-63.2 1.33,-17.52 7.13,-30.88 17.43,-40.13 10.3,-9.25 22.08,-13.35 35.33,-12.35 13.34,1.01 23.51,8.31 30.4,21.84 5.05,-7.95 11.16,-13.69 18.34,-17.34 7.17,-3.6 15.45,-5.04 24.85,-4.33 14.71,1.12 26.23,7.39 34.6,18.81 8.37,11.45 11.82,26.79 10.36,46.1 -2.84,37.47 -21.05,57.95 -54.64,61.4l-3.71 -26.71c10.63,-1.58 19.12,-5.77 25.42,-12.61 6.3,-6.85 9.78,-14.92 10.5,-24.31 0.71,-9.39 -1.34,-17.4 -6.2,-24.03 -4.8,-6.63 -11.33,-10.25 -19.55,-10.87 -6.38,-0.49 -12.08,1.05 -17.12,4.59 -5.04,3.55 -8.32,7.49 -9.81,11.83 -1.55,4.35 -2.74,12.32 -3.62,23.93 -0.07,0.94 -0.18,3.06 -0.32,6.34zm-69.42 -163.48l17.8 -61.77c4.37,-15.15 8.89,-26.08 13.58,-32.76 4.66,-6.64 11.12,-11.67 19.41,-15 8.35,-3.38 17.2,-3.69 26.65,-0.97 7.58,2.19 13.74,5.67 18.44,10.38 4.73,4.78 8.11,10.82 10.06,18.21 4.63,-6.71 11.03,-11.52 19.27,-14.49 8.16,-2.93 16.95,-3.04 26.25,-0.36 14.73,5.28 24.31,13.88 28.74,25.68 4.46,11.81 4,26.98 -1.33,45.49l-20.54 71.23 -158.33 -45.64zm74.55 -7.59l8.2 -28.47c3.27,-11.34 4.91,-19.34 4.97,-23.9 0.01,-4.62 -1.29,-9.12 -3.98,-13.54 -2.64,-4.39 -6.53,-7.33 -11.62,-8.8 -8.38,-2.42 -15.03,-1.14 -20.02,3.76 -5.01,4.95 -9.54,14.55 -13.64,28.78l-8.46 29.33 44.55 12.84zm69.56 20.05l10.15 -35.23c4.37,-15.16 5.59,-26.08 3.72,-32.75 -1.94,-6.66 -7.14,-11.35 -15.74,-14.17 -5.04,-1.45 -10.24,-1.18 -15.5,0.82 -5.28,2.06 -9.26,5.55 -11.88,10.46 -2.68,4.9 -5.67,13.18 -9.01,24.77l-9.34 32.38 47.6 13.72zm-79.26 -219.23l12.89 -24.79 111.51 57.95 -75.72 -126.82 13.84 -26.63 146.21 75.99 -12.88 24.79 -110.81 -57.59 75.06 126.38 -13.88 26.71 -146.22 -75.99zm107.33 -198.46l17.43 -21.84 110.93 88.51 39.6 -49.64 -110.93 -88.51 17.42 -21.84 110.93 88.51 39.6 -49.64 -110.93 -88.51 17.42 -21.84 110.94 88.51 11.48 -14.39 54.35 43.36 -14.45 18.11 -36.48 -29.11 -128.51 161.08 -128.8 -102.76zm364.83 -211.75l25.19 -14.67c6.7,16.02 8.04,31.5 4,46.35 -4.04,14.83 -13.58,28.1 -28.69,39.79 -19,14.69 -38.6,20.49 -58.8,17.39 -20.17,-3.07 -38.46,-15.21 -54.81,-36.35 -16.9,-21.85 -24.44,-43.18 -22.51,-63.94 1.9,-20.81 11.85,-38.14 29.8,-52.03 17.37,-13.44 36.13,-18.51 56.3,-15.18 20.17,3.34 38.59,15.72 55.19,37.18 1.01,1.3 2.48,3.31 4.41,5.96l-97.06 75.09c11.88,13.63 24.38,21.48 37.52,23.42 13.1,1.98 25.14,-1.24 35.97,-9.63 8.08,-6.24 13.34,-13.73 15.73,-22.39 2.43,-8.71 1.67,-19.03 -2.24,-30.99zm-99.71 20.54l72.57 -56.15c-9.44,-10.22 -18.59,-16.25 -27.4,-18.21 -13.56,-3.09 -25.99,-0.3 -37.16,8.34 -10.13,7.84 -16,17.81 -17.66,29.93 -1.62,12.09 1.59,24.12 9.65,36.09zm290.67 -68.08l-93.6 -207.16 27.48 -12.42 93.61 207.16 -27.49 12.42zm50.13 -201.55l41.87 -9.66 72.09 118.7 17.31 -139.33 38.88 -8.98 37.06 160.56 -27.23 6.28 -29.84 -129.26 -17.44 140.18 -24.34 5.61 -75.96 -125.13 31.26 135.45 -26.6 6.14 -37.06 -160.56zm254.22 -30.86l-10.33 -41.73 -2.86 -37.83 31.66 -2.4 2.86 37.83 -4.23 42.84 -17.1 1.29zm219.02 -21.07l-3.08 164.75 -27.93 -0.52 1.2 -64.13 -16.08 -0.3c-9.79,-0.18 -17.12,0.95 -21.98,3.46 -4.87,2.5 -12.05,10.46 -21.57,23.99l-25.22 35.41 -34.6 -0.64 30.99 -43.67c9.45,-13.38 18.8,-20.82 27.99,-22.39 -15.88,-2.47 -27.63,-8.46 -35.18,-17.91 -7.55,-9.47 -11.21,-20.28 -10.98,-32.39 0.27,-14.34 5.51,-25.83 15.78,-34.53 10.27,-8.76 25.01,-12.92 44.17,-12.56l76.49 1.43zm-28.36 22.64l-39.68 -0.74c-16.61,-0.31 -27.4,2.09 -32.32,7.18 -4.9,5.1 -7.4,11.13 -7.53,18.07 -0.18,9.84 3.22,17.15 10.23,21.88 6.95,4.75 19.44,7.3 37.43,7.64l30.85 0.57 1.02 -54.6zm252.29 -44.84l168.78 57.9 -73.76 215.03 -28.53 -9.79 65.1 -189.8 -111.72 -38.32 -65.1 189.8 -28.53 -9.78 73.76 -215.04zm185.78 227.54c16.67,-25.46 36.09,-39.68 58.34,-42.64 18.49,-2.44 36.29,1.94 53.35,13.1 18.89,12.38 30.33,28.72 34.26,49.01 3.91,20.2 -1.29,41.27 -15.58,63.1 -11.6,17.71 -23.35,29.87 -35.3,36.53 -11.95,6.67 -24.86,9.47 -38.72,8.43 -13.82,-1.02 -26.76,-5.5 -38.76,-13.36 -19.31,-12.64 -30.86,-28.99 -34.68,-49.15 -3.82,-20.14 1.9,-41.82 17.09,-65.02zm23.87 15.69c-11.53,17.62 -16.31,33.34 -14.33,47.11 2.01,13.83 8.84,24.56 20.58,32.25 11.59,7.59 24.12,9.52 37.63,5.79 13.47,-3.77 26.11,-14.66 37.9,-32.68 11.13,-17 15.67,-32.44 13.63,-46.23 -2,-13.84 -8.79,-24.54 -20.29,-32.07 -11.74,-7.69 -24.28,-9.7 -37.73,-6.05 -13.41,3.69 -25.88,14.3 -37.39,31.88zm423.11 166.71l16.07 18.85c-9.06,6.44 -16.51,9.66 -22.24,9.69 -5.74,0.03 -10.99,-1.77 -15.85,-5.4 -4.82,-3.66 -12.97,-12 -24.36,-25.02 -15.13,-17.28 -27.12,-27.6 -35.97,-30.97 -8.82,-3.32 -18.12,-3.18 -27.86,0.49 -9.77,3.7 -20.53,10.44 -32.4,20.27 12.53,-1.61 23.82,-0.6 33.97,3.04 10.11,3.6 19.06,9.89 26.8,18.73 14.22,16.24 20.43,34.58 18.63,55.01 -1.85,20.39 -12.26,38.93 -31.33,55.63 -14.46,12.66 -28.66,20.37 -42.61,23.09 -13.94,2.7 -26.68,2.61 -38.19,-0.33 -11.47,-2.9 -22.75,-10.73 -33.84,-23.4 -12.9,-14.73 -19.56,-29.08 -19.97,-43.13 -0.42,-14.06 2.71,-27.84 9.35,-41.39 6.66,-13.5 23.02,-31.69 49.03,-54.45 32.68,-28.62 59.55,-42.35 80.54,-41.26 21.01,1.09 41.55,13.14 61.63,36.08 12.51,14.29 19.83,22.16 22.01,23.7 2.15,1.49 4.35,1.75 6.59,0.77zm-113.19 97.82c12.86,-11.25 20.73,-23.56 23.64,-36.86 2.9,-13.31 -0.52,-25.51 -10.24,-36.61 -10.15,-11.59 -22.3,-16.71 -36.53,-15.37 -14.19,1.31 -28.53,8.31 -43.06,21.03 -14.33,12.55 -22.29,25.64 -23.79,39.26 -1.54,13.58 2.16,25.53 11.06,35.69 9.13,10.42 20.93,15 35.42,13.79 14.47,-1.22 28.97,-8.21 43.5,-20.93zm53.03 193.4c-12.81,-4.67 -23.13,-10.32 -31.02,-16.85 -7.9,-6.53 -14.53,-14.58 -19.95,-24.15 -8.93,-15.75 -11.97,-30.02 -9.08,-42.85 2.84,-12.8 10.24,-22.59 22.17,-29.35 7,-3.97 14.31,-5.99 21.91,-6.09 7.63,-0.06 14.6,1.51 21.02,4.69 6.46,3.21 12.42,7.5 17.89,12.98 3.95,4.08 9.24,10.63 15.9,19.57 13.41,18.31 24.43,31.22 32.91,38.65 3.36,-1.79 5.51,-2.94 6.38,-3.43 9.85,-5.59 15.5,-11.83 16.94,-18.73 1.96,-9.33 -0.57,-20.11 -7.51,-32.36 -6.49,-11.46 -13.32,-18.79 -20.4,-21.96 -7.12,-3.2 -16.48,-3.19 -28.18,-0.02l-10.15 -25.64c11.4,-3.59 21.65,-4.72 30.73,-3.3 9.08,1.42 17.94,5.9 26.66,13.36 8.67,7.44 16.55,17.38 23.55,29.72 6.94,12.25 11.16,23.05 12.62,32.38 1.43,9.29 1.05,16.99 -1.29,23.06 -2.34,6.06 -6.43,11.72 -12.27,16.99 -3.7,3.13 -10.92,7.76 -21.65,13.84l-32.22 18.26c-22.52,12.76 -36.46,21.33 -41.91,25.76 -5.49,4.39 -10.09,9.67 -13.95,15.75l-14.4 -25.41c3.72,-5.34 8.82,-10.3 15.3,-14.87zm52.76 -32.46c-8.6,-6.8 -19.15,-18.34 -31.65,-34.61 -7.12,-9.23 -12.75,-15.41 -16.89,-18.53 -4.15,-3.12 -8.57,-4.82 -13.26,-5.14 -4.73,-0.3 -9.2,0.72 -13.43,3.12 -6.4,3.62 -10.41,9.11 -11.9,16.46 -1.49,7.35 0.42,15.76 5.77,25.2 5.3,9.35 12.04,16.54 20.28,21.53 8.18,4.98 16.8,7.21 25.78,6.62 6.96,-0.48 15.75,-3.75 26.39,-9.78l8.91 -4.87zm111.76 36.05l49.81 123.7 -21.5 8.65 -19.68 -48.88 -131.35 52.89 -10.44 -25.92 131.35 -52.89 -19.68 -48.9 21.49 -8.65zm71.34 197.18l4.72 27.54 -63.53 10.9 5.98 34.84c3.9,22.74 2.52,40.96 -4.19,54.78 -6.71,13.77 -17.8,22.01 -33.29,24.67 -13.55,2.32 -26.01,-0.81 -37.42,-9.43 -11.41,-8.57 -19.01,-24.12 -22.88,-46.65l-11.8 -68.79 162.41 -27.86zm-135.15 51.53l4.97 29c3,17.47 7.28,29.57 12.83,36.29 5.56,6.73 12.87,9.34 21.95,7.78 7.04,-1.2 12.83,-5.04 17.41,-11.52 4.52,-6.46 5.18,-19.15 1.95,-38.07l-5.6 -32.66 -53.51 9.18zm165.95 151.86l0.51 27.93 -71.11 1.32c0.17,8.89 1.98,15.09 5.49,18.63 3.45,3.49 13.44,8.53 30.02,15.22 13.12,5.25 21.77,9.54 25.96,12.85 4.19,3.36 7.07,7.23 8.58,11.64 1.51,4.47 2.38,11.61 2.56,21.4l0.11 5.61 -23.02 0.42 0.02 -7.78c-0.14,-7.36 -1.34,-12.05 -3.54,-14.07 -2.31,-2.12 -9.15,-5.34 -20.5,-9.57 -10.87,-4.03 -18.4,-7.76 -22.6,-11.22 -4.19,-3.42 -8.05,-8.81 -11.63,-16.09 -2.99,12.07 -13.94,24.12 -32.87,36.12l-50.49 31.58 -0.57 -30.69 50.35 -31.15c10.18,-6.28 16.86,-11.69 20.06,-16.25 3.19,-4.61 4.73,-10.04 4.62,-16.33l-76.18 1.41 -0.52 -27.93 164.75 -3.05zm-81.37 161.46c30.16,4.04 51.38,15.41 63.65,34.2 10.19,15.62 13.93,33.58 11.22,53.78 -3,22.38 -12.8,39.76 -29.4,52.06 -16.53,12.25 -37.79,16.66 -63.65,13.2 -20.97,-2.81 -37.01,-8.16 -48.18,-16.06 -11.17,-7.91 -19.28,-18.33 -24.32,-31.29 -5.06,-12.9 -6.59,-26.51 -4.69,-40.72 3.07,-22.88 12.82,-40.36 29.35,-52.51 16.52,-12.14 38.55,-16.35 66.02,-12.66zm-3.84 28.31c-20.87,-2.8 -37.11,-0.32 -48.67,7.41 -11.61,7.79 -18.34,18.58 -20.2,32.48 -1.84,13.74 1.82,25.87 11.03,36.45 9.21,10.52 24.49,17.21 45.83,20.07 20.14,2.7 36.02,0.13 47.58,-7.67 11.62,-7.78 18.34,-18.52 20.17,-32.15 1.86,-13.91 -1.74,-26.08 -10.84,-36.65 -9.12,-10.5 -24.08,-17.15 -44.9,-19.94zm44.69 213.52l-20.85 60.81c-5.12,14.92 -10.18,25.61 -15.19,32.05 -4.99,6.4 -11.69,11.1 -20.14,14.01 -8.5,2.96 -17.34,2.84 -26.65,-0.36 -7.47,-2.55 -13.44,-6.34 -17.9,-11.28 -4.49,-5.01 -7.56,-11.21 -9.14,-18.69 -4.96,6.47 -11.59,10.96 -19.97,13.52 -8.29,2.52 -17.08,2.19 -26.24,-0.95 -14.44,-6.01 -23.58,-15.07 -27.42,-27.08 -3.87,-12.01 -2.65,-27.14 3.59,-45.36l24.05 -70.12 155.86 53.45zm-74.82 3.87l-9.61 28.03c-3.83,11.16 -5.87,19.08 -6.15,23.62 -0.24,4.63 0.83,9.18 3.3,13.73 2.42,4.52 6.16,7.65 11.16,9.36 8.26,2.84 14.95,1.89 20.18,-2.76 5.25,-4.69 10.25,-14.05 15.06,-28.06l9.9 -28.88 -43.84 -15.04zm-68.48 -23.48l-11.89 34.69c-5.12,14.91 -6.89,25.77 -5.34,32.51 1.6,6.76 6.56,11.7 15.02,14.94 4.95,1.7 10.16,1.69 15.51,-0.05 5.37,-1.79 9.52,-5.07 12.39,-9.85 2.92,-4.76 6.32,-12.88 10.23,-24.29l10.93 -31.88 -46.85 -16.07zm95.08 227.65l28.17 14.64 -12.88 24.79 -28.18 -14.64 12.89 -24.79zm-173.54 -90.19l146.22 75.99 -12.89 24.79 -146.21 -75.99 12.88 -24.79z"/>
  <path class="fil0 str1" d="M1413.14 3085.17l-32.17 -23.04 11.31 -42.71 -59.16 -42.38 -36.32 24.8 -31.59 -22.63 162.94 -106.5 31.56 22.61 -46.57 189.85zm-12.69 -97.62l18.61 -69.28 -59.02 40.33 40.41 28.95zm188.96 -14.35l114.17 51.37 -61.87 137.51 14.56 6.55 -28.81 64.03 -27.97 -12.58 16.23 -36.06 -103.76 -46.69 -16.23 36.06 -27.96 -12.58 28.81 -64.03 14.1 6.34c13.22,-11.05 25.13,-25.41 35.72,-43.06 10.6,-17.7 22.3,-40.82 35.14,-69.37l7.87 -17.49zm19.31 42.32c-22.53,50.07 -43.58,84.51 -63.15,103.3l62.63 28.19 49.29 -109.55 -48.77 -21.94zm159.66 30.73l71.4 12.98c14.17,2.58 24.58,5.08 31.31,7.5 6.76,2.47 12.5,6.05 17.31,10.74 4.81,4.75 8.49,10.52 11.01,17.38 2.54,6.85 3.1,14.17 1.7,21.85 -1.51,8.32 -5.15,15.59 -10.9,21.72 -5.76,6.16 -12.82,10.25 -21.13,12.34 10.27,5.17 17.59,12.09 22.06,20.8 4.43,8.71 5.71,18.21 3.83,28.56 -1.48,8.15 -4.79,15.7 -9.97,22.69 -5.18,7.01 -11.45,12.22 -18.85,15.64 -7.36,3.38 -15.94,4.75 -25.73,4.09 -6.1,-0.47 -20.68,-2.69 -43.68,-6.7l-60.81 -11.05 32.45 -178.54zm30.77 36.25l-7.48 41.14 23.6 4.29c14,2.55 22.77,3.93 26.26,4.13 6.27,0.42 11.52,-0.83 15.69,-3.72 4.18,-2.89 6.76,-7.18 7.8,-12.92 1,-5.52 0.28,-10.25 -2.13,-14.25 -2.4,-3.99 -6.56,-6.9 -12.41,-8.69 -3.5,-1.07 -13.73,-3.15 -30.64,-6.22l-20.69 -3.76zm-12.88 70.82l-8.7 47.86 33.42 6.08c12.96,2.35 21.3,3.48 24.92,3.42 5.54,-0.03 10.33,-1.6 14.38,-4.78 4.07,-3.2 6.69,-7.92 7.84,-14.28 0.99,-5.41 0.52,-10.17 -1.42,-14.38 -1.89,-4.22 -5.19,-7.64 -9.78,-10.23 -4.58,-2.61 -15.11,-5.41 -31.52,-8.4l-29.14 -5.29zm184.63 21.28c-0.52,-18.49 1.83,-34.11 7,-46.85 3.84,-9.36 9.26,-17.84 16.18,-25.39 6.93,-7.54 14.59,-13.21 22.98,-17.04 11.18,-5.09 24.16,-7.87 38.93,-8.29 26.77,-0.75 48.37,6.96 64.93,23.1 16.51,16.18 25.18,39.05 26.02,68.65 0.83,29.34 -6.5,52.54 -21.95,69.54 -15.45,17.04 -36.54,25.91 -63.18,26.67 -26.98,0.76 -48.7,-6.86 -65.09,-22.92 -16.38,-16.02 -25,-38.5 -25.82,-67.47zm37.71 -2.29c0.58,20.56 5.79,36 15.6,46.38 9.8,10.33 22.02,15.3 36.63,14.89 14.65,-0.41 26.5,-6.03 35.6,-16.81 9.08,-10.82 13.32,-26.74 12.73,-47.81 -0.59,-20.82 -5.59,-36.23 -15.04,-46.18 -9.41,-10 -21.67,-14.78 -36.83,-14.35 -15.12,0.43 -27.16,5.97 -36.13,16.58 -8.95,10.64 -13.15,26.4 -12.56,47.3zm199.82 -101.82l35.8 -8.26 17.39 75.32c7.76,-2.66 12.69,-5.92 14.71,-9.9 2.04,-3.93 4.28,-14.12 6.65,-30.53 2.95,-20.84 7.65,-34.5 14.02,-40.87 6.33,-6.36 17.69,-11.45 34.15,-15.26 0.82,-0.19 2.54,-0.62 5.16,-1.31l6.1 26.42 -5.1 1.05c-7.32,1.69 -12.46,3.83 -15.42,6.41 -2.95,2.59 -5.03,5.98 -6.28,10.17 -1.24,4.19 -2.57,12.51 -3.98,24.98 -0.77,6.63 -1.94,12.28 -3.54,16.98 -1.56,4.7 -5.16,9.61 -10.73,14.7 8.45,0.39 16.04,3.45 22.81,9.08 6.77,5.65 14.67,13.96 23.72,25.01l35.25 42.84 -41.98 9.69 -31.7 -40.63c-0.48,-0.58 -1.47,-1.65 -2.93,-3.27 -0.55,-0.51 -2.68,-2.98 -6.36,-7.28 -6.54,-7.69 -11.5,-12.26 -14.88,-13.78 -3.43,-1.5 -8.09,-1.6 -14.08,-0.3l17.84 77.29 -35.8 8.26 -40.82 -176.81zm407.96 52.66l-36.05 16.3 -31.3 -31.18 -66.31 29.99 3.28 43.86 -35.4 16.01 -10.59 -194.37 35.37 -15.99 141 135.38zm-90.85 -37.9l-50.64 -50.81 5.36 71.29 45.28 -20.48zm192.19 -24.48l-86.85 -123.27 -43.91 30.94 -17.67 -25.08 117.67 -82.9 17.67 25.08 -43.72 30.79 86.85 123.27 -30.04 21.17z"/>
  <path class="fil0 str1" d="M1515.92 3320.26l22.92 7.66 21.01 124.64 84.35 -89.44 22.44 7.5 -109.19 112.35c-13.65,14.06 -23.93,22.82 -30.83,26.26 -6.89,3.44 -15.12,3.54 -24.74,0.33 -5.84,-1.95 -12.56,-5.7 -20.18,-11.28l6.5 -19.47c4.91,5.56 10.78,9.47 17.59,11.75 5.53,1.84 10.9,1.64 16.13,-0.58 5.21,-2.23 12.36,-8.87 21.46,-19.95l-27.46 -149.77zm188.96 59.6l23.45 5.48 -18.09 77.49c10.66,2.49 18.67,2.15 23.96,-1 5.33,-3.14 13.17,-11.81 23.6,-26.03 7.6,-10.5 13.55,-17.74 17.87,-21.76 4.29,-4.08 9.75,-7.06 16.39,-8.93 6.6,-1.89 13.49,-2.01 20.56,-0.37 9.01,2.11 13.72,3.3 14.18,3.57l-4.72 20.25c-0.83,-0.2 -2.38,-0.61 -4.67,-1.23 -2.57,-0.69 -4.13,-1.09 -4.7,-1.23 -7.44,-1.73 -13.41,-1.22 -17.88,1.56 -4.55,2.75 -10.55,9.51 -18.07,20.2 -9.42,13.59 -16.65,21.88 -21.67,24.83 -4.97,2.92 -10.64,4.89 -16.87,5.91 10.67,5.79 19.47,18.98 26.4,39.51l22.68 67.32 -29.04 -6.78 -18.49 -54.8c-5.01,-15.18 -9.66,-25.89 -13.94,-32.09 -4.31,-6.25 -10.77,-10.37 -19.44,-12.39l-19.29 82.68 -23.45 -5.47 41.23 -176.72zm137.42 213.41l13.81 -180.93 68.31 5.21c12,0.92 21.14,2.21 27.41,3.84 8.78,2.14 16.02,5.53 21.73,10.12 5.7,4.64 10.09,10.81 13.2,18.55 3.09,7.73 4.27,16.08 3.59,25.05 -1.17,15.33 -7.05,27.98 -17.67,37.84 -10.58,9.91 -28.72,13.86 -54.32,11.91l-46.42 -3.54 -5.63 73.79 -24.01 -1.84zm31.26 -93.18l46.75 3.57c15.5,1.18 26.67,-0.85 33.64,-6.12 6.92,-5.28 10.78,-13.11 11.58,-23.6 0.57,-7.54 -0.83,-14.17 -4.25,-19.85 -3.41,-5.69 -8.2,-9.65 -14.3,-11.85 -3.96,-1.37 -11.37,-2.48 -22.2,-3.31l-46.28 -3.53 -4.94 64.69zm135.77 106.63l63.78 -183.59 26.39 -0.84 79.62 179.01 -27.31 0.87 -22.74 -54.29 -76.37 2.44 -17.91 55.59 -25.46 0.81zm49.8 -76.14l61.8 -1.97 -20.51 -49.67c-6.19,-15.1 -10.9,-27.59 -14.22,-37.46 -2.11,11.9 -5.07,23.62 -8.89,35.24l-18.18 53.86zm177.89 62.75l-21.68 -180.16 23.89 -2.87 21.69 180.16 -23.9 2.87zm-44.9 -188.59l-3.03 -25.16 23.15 -2.79 3.02 25.16 -23.14 2.79zm45.78 -5.51l-3.03 -25.16 23.16 -2.79 3.02 25.16 -23.15 2.79zm100.66 179.46l-40.81 -176.81 23.46 -5.41 16.81 72.85 91.37 -21.09 -16.81 -72.85 23.46 -5.42 40.81 176.82 -23.46 5.41 -19.21 -83.22 -91.37 21.09 19.21 83.22 -23.46 5.41zm191.39 -48.23l-0.41 -194.36 24.63 -9.5 134.26 142.68 -25.5 9.84 -39.38 -43.74 -71.29 27.52 1.45 58.38 -23.76 9.18zm21.87 -88.32l57.68 -22.26 -35.76 -40.11c-10.83,-12.21 -19.39,-22.45 -25.78,-30.67 1.93,11.93 3,23.97 3.24,36.2l0.62 56.84z"/>
  <path class="fil1 str0" d="M2810.78 3320.63c-6.8,-3.22 -22.39,-6.76 -46.78,-10.79 -13.87,-2.28 -20.79,-9.05 -20.79,-20.19 0,-4.5 1.83,-8.75 5.48,-12.71 3.67,-3.99 8.2,-5.97 13.57,-5.97 9.23,0 16.76,4.56 22.53,13.68 10.25,16.4 20.25,26.31 30.01,29.62l2.72 -1.35c0,-12.27 -2.79,-23.17 -8.37,-32.62 -5.59,-9.44 -8.38,-17.14 -8.38,-23.19 0,-7.07 2.01,-12.16 6.05,-15.31 4.06,-3.15 8.69,-4.7 13.96,-4.7 4.88,0 9.26,1.79 13.19,5.37 3.92,3.61 5.87,8.98 5.87,16.19 0,4.5 -2.55,11.53 -7.67,21.18 -5.17,9.62 -7.71,20.81 -7.71,33.48l3.64 1.92c10.29,-7.13 19.16,-16.3 26.66,-27.48 7.53,-11.21 15.45,-16.79 23.8,-16.79 5.65,0 10.25,1.87 13.85,5.55 3.61,3.71 5.38,8.34 5.38,13.81 0,11.66 -9.69,18.83 -29.07,21.5 -19.37,2.68 -31.88,6.45 -37.55,11.33l0 3.08c6.44,3.81 21.11,7.21 44.09,10.14 15.04,1.92 22.53,8.77 22.53,20.53 0,5.26 -1.77,9.74 -5.38,13.4 -3.6,3.73 -8.17,5.61 -13.68,5.61 -8.98,0 -17.57,-6.69 -25.77,-20.03 -8.24,-13.32 -17.15,-21.43 -26.77,-24.29l-2.34 1.35c0.85,12.49 3.76,23.64 8.63,33.63 4.92,9.92 7.36,17.27 7.36,22.01 0,4.64 -0.78,8.51 -2.38,11.59 -3.18,5.9 -8.94,8.84 -17.25,8.84 -6,0 -10.75,-2.14 -14.25,-6.45 -3.46,-4.31 -5.19,-9.02 -5.19,-14.16 0,-5.25 2.79,-12.99 8.38,-23.17 5.58,-10.25 8.37,-18.54 8.37,-24.99 0,-1.4 -0.06,-2.63 -0.2,-3.72 -0.11,-1.12 -0.32,-2.42 -0.57,-3.94l-2.93 -1.71c-11.08,7.28 -20.38,16.62 -28.01,27.99 -7.6,11.33 -15.1,17.05 -22.52,17.05 -6.12,0 -11,-1.95 -14.65,-5.83 -3.63,-3.8 -5.43,-8.04 -5.43,-12.67 0,-7.31 2.64,-12.89 7.98,-16.65 5.35,-3.81 12.13,-5.8 20.33,-6.09 11.18,-0.36 19.06,-1.12 23.63,-2.32 4.55,-1.12 9.76,-3.94 15.62,-8.47l0.01 -3.26z"/>
  <g id="_1349567840">
   <g>
    <polyline class="fil2 str3" points="3644.79,2401.3 3988.94,2059.98 3636,1687.61 "/>
    <polyline class="fil2 str3" points="3672.71,2193.38 3805.97,2059.98 3672.04,1915.78 "/>
   </g>
   <g>
    <polyline class="fil2 str3" points="1703.14,3660.66 2044.46,4004.81 2416.83,3651.87 "/>
    <polyline class="fil2 str3" points="1911.06,3688.58 2044.46,3821.84 2188.66,3687.91 "/>
   </g>
   <g>
    <polyline class="fil2 str3" points="452.84,2401.3 108.69,2059.98 461.63,1687.61 "/>
    <polyline class="fil2 str3" points="424.92,2193.38 291.66,2059.98 425.59,1915.78 "/>
   </g>
   <g>
    <path class="fil0" d="M2050.01 3713.69l0 -50 0 0 83.07 -2.1 81.96 -6.23 80.75 -10.27 79.46 -14.18 78.06 -18.02 76.57 -21.74 74.97 -25.38 73.27 -28.89 71.47 -32.3 69.58 -35.64 67.57 -38.86 65.48 -41.98 63.26 -44.98 60.97 -47.91 58.54 -50.73 56.05 -53.44 53.44 -56.05 50.72 -58.55 47.91 -60.96 44.99 -63.27 41.97 -65.48 38.86 -67.57 35.63 -69.58 32.31 -71.47 28.89 -73.27 25.37 -74.97 21.74 -76.57 18.02 -78.06 14.19 -79.46 10.26 -80.76 6.23 -81.95 2.1 -83.07 50 0 -2.16 85.59 -6.43 84.47 -10.58 83.26 -14.63 81.94 -18.58 80.5 -22.42 78.95 -26.15 77.31 -29.79 75.57 -33.33 73.69 -36.73 71.74 -40.06 69.67 -43.27 67.5 -46.39 65.23 -49.39 62.84 -52.28 60.37 -55.08 57.77 -57.77 55.08 -60.36 52.29 -62.85 49.39 -65.22 46.38 -67.5 43.28 -69.67 40.06 -71.74 36.74 -73.69 33.32 -75.57 29.79 -77.31 26.16 -78.95 22.42 -80.5 18.58 -81.94 14.64 -83.25 10.57 -84.48 6.43 -85.59 2.16 0 0zm-1663.67 -1663.69l50 0 0 0 2.1 83.07 6.23 81.95 10.26 80.76 14.19 79.46 18.02 78.06 21.74 76.57 25.37 74.97 28.9 73.27 32.3 71.47 35.64 69.58 38.86 67.57 41.97 65.48 44.99 63.27 47.9 60.96 50.73 58.55 53.44 56.05 56.05 53.44 58.54 50.73 60.97 47.91 63.27 44.98 65.47 41.98 67.57 38.86 69.58 35.64 71.48 32.3 73.26 28.89 74.97 25.38 76.57 21.74 78.06 18.02 79.46 14.18 80.76 10.27 81.95 6.23 83.07 2.1 0 50 -85.59 -2.16 -84.47 -6.43 -83.26 -10.57 -81.94 -14.64 -80.5 -18.58 -78.95 -22.42 -77.31 -26.16 -75.56 -29.79 -73.7 -33.32 -71.74 -36.74 -69.67 -40.06 -67.49 -43.28 -65.23 -46.38 -62.85 -49.39 -60.36 -52.29 -57.77 -55.08 -55.08 -57.77 -52.29 -60.37 -49.38 -62.84 -46.39 -65.23 -43.27 -67.5 -40.06 -69.67 -36.74 -71.74 -33.32 -73.69 -29.8 -75.57 -26.15 -77.31 -22.42 -78.95 -18.58 -80.5 -14.63 -81.94 -10.58 -83.26 -6.43 -84.47 -2.16 -85.59 0 0zm1663.67 -1663.7l0 50 0 0 -83.07 2.1 -81.95 6.23 -80.76 10.27 -79.46 14.18 -78.06 18.02 -76.57 21.74 -74.97 25.38 -73.26 28.89 -71.48 32.31 -69.58 35.63 -67.57 38.86 -65.47 41.98 -63.27 44.98 -60.97 47.91 -58.54 50.73 -56.05 53.44 -53.44 56.05 -50.73 58.55 -47.9 60.96 -44.99 63.27 -41.97 65.48 -38.86 67.57 -35.64 69.58 -32.3 71.48 -28.9 73.26 -25.37 74.97 -21.74 76.58 -18.02 78.06 -14.19 79.45 -10.26 80.76 -6.23 81.96 -2.1 83.07 -50 0 2.16 -85.59 6.43 -84.48 10.58 -83.26 14.63 -81.93 18.58 -80.5 22.42 -78.96 26.15 -77.31 29.8 -75.56 33.32 -73.7 36.74 -71.74 40.06 -69.67 43.27 -67.5 46.39 -65.23 49.38 -62.84 52.29 -60.37 55.08 -57.77 57.77 -55.08 60.36 -52.29 62.85 -49.39 65.23 -46.38 67.49 -43.28 69.67 -40.06 71.74 -36.73 73.7 -33.33 75.56 -29.79 77.31 -26.16 78.95 -22.42 80.5 -18.58 81.94 -14.64 83.26 -10.57 84.47 -6.43 85.59 -2.16 0 0zm1663.66 1663.7l-50 0 0 0 -2.1 -83.07 -6.23 -81.96 -10.26 -80.76 -14.19 -79.45 -18.02 -78.06 -21.74 -76.58 -25.37 -74.97 -28.89 -73.26 -32.31 -71.48 -35.63 -69.58 -38.86 -67.57 -41.97 -65.48 -44.99 -63.27 -47.91 -60.96 -50.72 -58.55 -53.44 -56.05 -56.05 -53.44 -58.54 -50.73 -60.97 -47.91 -63.26 -44.98 -65.48 -41.98 -67.57 -38.86 -69.58 -35.63 -71.47 -32.31 -73.27 -28.89 -74.97 -25.38 -76.57 -21.74 -78.06 -18.02 -79.46 -14.18 -80.75 -10.27 -81.96 -6.23 -83.07 -2.1 0 -50 85.59 2.16 84.48 6.43 83.25 10.57 81.94 14.64 80.5 18.58 78.95 22.42 77.31 26.16 75.57 29.79 73.69 33.33 71.74 36.73 69.67 40.06 67.5 43.28 65.22 46.38 62.85 49.39 60.36 52.29 57.77 55.08 55.08 57.77 52.28 60.37 49.39 62.84 46.39 65.23 43.27 67.5 40.06 69.67 36.73 71.74 33.33 73.7 29.79 75.56 26.15 77.31 22.42 78.96 18.58 80.5 14.63 81.93 10.58 83.26 6.43 84.48 2.16 85.59 0 0zm-25 0l0 0 0 0 0 0 25 0 -25 0z"/>
   </g>
   <path class="fil3 str4" d="M2319.62 358.45c737.99,116.7 1319.21,704.78 1425.58,1446.16m-2.14 505.27c-111.44,732.04 -686.32,1311.77 -1415.94,1430.47m-533.83 3.19c-744.32,-111.88 -1331.84,-702.78 -1438.58,-1448.78m2.56 -506.81c114.24,-743.99 707.26,-1330.21 1454.58,-1434.17"/>
   <g>
    <g>
     <polyline class="fil3 str3" points="1708.68,453.93 2050,109.78 2422.37,462.72 "/>
     <polyline class="fil3 str3" points="1916.6,426.01 2050,292.75 2194.2,426.68 "/>
    </g>
    <line class="fil3 str5" x1="935.23" y1="515.63" x2="1010.62" y2= "619.42" />
   </g>
   <line class="fil3 str5" x1="2182.3" y1="157.99" x2="2176.62" y2= "239.01" />
   <line class="fil3 str5" x1="2248.25" y1="163.76" x2="2234.82" y2= "291.35" />
   <line class="fil3 str5" x1="2313.96" y1="171.83" x2="2296.08" y2= "298.87" />
   <line class="fil3 str5" x1="2379.35" y1="182.19" x2="2357.04" y2= "308.52" />
   <line class="fil3 str5" x1="2444.34" y1="194.82" x2="2417.63" y2= "320.3" />
   <line class="fil3 str5" x1="2508.84" y1="209.71" x2="2477.77" y2= "334.18" />
   <line class="fil3 str5" x1="2572.79" y1="226.84" x2="2537.39" y2= "350.15" />
   <line class="fil3 str5" x1="2636.1" y1="246.2" x2="2596.42" y2= "368.2" />
   <line class="fil3 str5" x1="2698.69" y1="267.75" x2="2654.78" y2= "388.29" />
   <line class="fil3 str5" x1="2760.49" y1="291.47" x2="2712.4" y2= "410.41" />
   <line class="fil3 str5" x1="2821.43" y1="317.34" x2="2769.22" y2= "434.53" />
   <line class="fil3 str5" x1="2881.43" y1="345.32" x2="2825.16" y2= "460.61" />
   <line class="fil3 str5" x1="2940.42" y1="375.38" x2="2880.16" y2= "488.63" />
   <line class="fil3 str5" x1="2998.32" y1="407.48" x2="2934.15" y2= "518.55" />
   <line class="fil3 str5" x1="3055.07" y1="441.58" x2="2987.06" y2= "550.34" />
   <line class="fil3 str5" x1="3110.59" y1="477.64" x2="3038.83" y2= "583.96" />
   <line class="fil3 str5" x1="3164.82" y1="515.61" x2="3089.39" y2= "619.36" />
   <line class="fil3 str5" x1="3217.69" y1="555.45" x2="3138.69" y2= "656.51" />
   <line class="fil3 str5" x1="3269.14" y1="597.11" x2="3186.66" y2= "695.35" />
   <line class="fil3 str5" x1="3319.1" y1="640.54" x2="3233.24" y2= "735.84" />
   <line class="fil3 str5" x1="3367.52" y1="685.69" x2="3278.38" y2= "777.93" />
   <line class="fil3 str5" x1="3414.33" y1="732.5" x2="3322.03" y2= "821.57" />
   <line class="fil3 str5" x1="3459.48" y1="780.92" x2="3364.13" y2= "866.71" />
   <line class="fil3 str5" x1="3502.91" y1="830.88" x2="3404.63" y2= "913.29" />
   <line class="fil3 str5" x1="3544.57" y1="882.33" x2="3443.48" y2= "961.26" />
   <line class="fil3 str5" x1="3584.41" y1="935.2" x2="3480.63" y2= "1010.56" />
   <line class="fil3 str5" x1="3622.38" y1="989.43" x2="3516.03" y2= "1061.12" />
   <line class="fil3 str5" x1="3658.44" y1="1044.95" x2="3549.65" y2= "1112.89" />
   <line class="fil3 str5" x1="3692.54" y1="1101.7" x2="3581.44" y2= "1165.8" />
   <line class="fil3 str5" x1="3724.63" y1="1159.6" x2="3611.37" y2= "1219.79" />
   <line class="fil3 str5" x1="3754.68" y1="1218.59" x2="3639.39" y2= "1274.79" />
   <line class="fil3 str5" x1="3782.66" y1="1278.59" x2="3665.48" y2= "1330.73" />
   <line class="fil3 str5" x1="3808.53" y1="1339.53" x2="3689.6" y2= "1387.55" />
   <line class="fil3 str5" x1="3832.25" y1="1401.33" x2="3711.72" y2= "1445.17" />
   <line class="fil3 str5" x1="3853.8" y1="1463.92" x2="3731.82" y2= "1503.53" />
   <line class="fil3 str5" x1="3873.16" y1="1527.23" x2="3749.87" y2= "1562.56" />
   <line class="fil3 str5" x1="3890.29" y1="1591.18" x2="3765.85" y2= "1622.18" />
   <line class="fil3 str5" x1="3905.18" y1="1655.68" x2="3779.74" y2= "1682.32" />
   <line class="fil3 str5" x1="3917.81" y1="1720.67" x2="3791.52" y2= "1742.91" />
   <line class="fil3 str5" x1="3928.17" y1="1786.06" x2="3801.18" y2= "1803.88" />
   <line class="fil3 str5" x1="3936.24" y1="1851.77" x2="3808.7" y2= "1865.15" />
   <line class="fil3 str5" x1="3942.01" y1="1917.72" x2="3855.86" y2= "1923.73" />
   <line class="fil3 str5" x1="3941.99" y1="2182.32" x2="3864.2" y2= "2176.87" />
   <line class="fil3 str5" x1="3936.22" y1="2248.27" x2="3808.7" y2= "2234.85" />
   <line class="fil3 str5" x1="3928.15" y1="2313.98" x2="3801.18" y2= "2296.12" />
   <line class="fil3 str5" x1="3917.79" y1="2379.37" x2="3791.52" y2= "2357.09" />
   <line class="fil3 str5" x1="3905.16" y1="2444.35" x2="3779.74" y2= "2417.68" />
   <line class="fil3 str5" x1="3890.27" y1="2508.85" x2="3765.85" y2= "2477.82" />
   <line class="fil3 str5" x1="3873.14" y1="2572.8" x2="3749.87" y2= "2537.44" />
   <line class="fil3 str5" x1="3853.78" y1="2636.11" x2="3731.82" y2= "2596.47" />
   <line class="fil3 str5" x1="3832.23" y1="2698.7" x2="3711.72" y2= "2654.83" />
   <line class="fil3 str5" x1="3808.51" y1="2760.5" x2="3689.6" y2= "2712.45" />
   <line class="fil3 str5" x1="3782.64" y1="2821.44" x2="3665.48" y2= "2769.27" />
   <line class="fil3 str5" x1="3754.66" y1="2881.44" x2="3639.39" y2= "2825.21" />
   <line class="fil3 str5" x1="3724.6" y1="2940.43" x2="3611.37" y2= "2880.21" />
   <line class="fil3 str5" x1="3692.5" y1="2998.33" x2="3581.44" y2= "2934.2" />
   <line class="fil3 str5" x1="3658.4" y1="3055.07" x2="3549.65" y2= "2987.11" />
   <line class="fil3 str5" x1="3622.34" y1="3110.59" x2="3516.03" y2= "3038.88" />
   <line class="fil3 str5" x1="3584.37" y1="3164.82" x2="3480.63" y2= "3089.44" />
   <line class="fil3 str5" x1="3544.53" y1="3217.69" x2="3443.48" y2= "3138.73" />
   <line class="fil3 str5" x1="3502.87" y1="3269.14" x2="3404.63" y2= "3186.7" />
   <line class="fil3 str5" x1="3459.44" y1="3319.1" x2="3364.13" y2= "3233.28" />
   <line class="fil3 str5" x1="3414.29" y1="3367.52" x2="3322.03" y2= "3278.42" />
   <line class="fil3 str5" x1="3367.48" y1="3414.33" x2="3278.38" y2= "3322.06" />
   <line class="fil3 str5" x1="3319.06" y1="3459.48" x2="3233.24" y2= "3364.16" />
   <line class="fil3 str5" x1="3269.1" y1="3502.91" x2="3186.66" y2= "3404.65" />
   <line class="fil3 str5" x1="3217.65" y1="3544.57" x2="3138.69" y2= "3443.49" />
   <line class="fil3 str5" x1="3164.78" y1="3584.41" x2="3089.39" y2= "3480.64" />
   <line class="fil3 str5" x1="3110.55" y1="3622.38" x2="3038.83" y2= "3516.04" />
   <line class="fil3 str5" x1="3055.03" y1="3658.43" x2="2987.06" y2= "3549.66" />
   <line class="fil3 str5" x1="2998.28" y1="3692.53" x2="2934.15" y2= "3581.45" />
   <line class="fil3 str5" x1="2940.38" y1="3724.62" x2="2880.16" y2= "3611.37" />
   <line class="fil3 str5" x1="2881.39" y1="3754.67" x2="2825.16" y2= "3639.39" />
   <line class="fil3 str5" x1="2821.39" y1="3782.65" x2="2769.22" y2= "3665.47" />
   <line class="fil3 str5" x1="2760.45" y1="3808.52" x2="2712.4" y2= "3689.59" />
   <line class="fil3 str5" x1="2698.65" y1="3832.24" x2="2654.78" y2= "3711.71" />
   <line class="fil3 str5" x1="2636.06" y1="3853.79" x2="2596.42" y2= "3731.8" />
   <line class="fil3 str5" x1="2572.75" y1="3873.14" x2="2537.39" y2= "3749.85" />
   <line class="fil3 str5" x1="2508.8" y1="3890.27" x2="2477.77" y2= "3765.82" />
   <line class="fil3 str5" x1="2444.3" y1="3905.16" x2="2417.63" y2= "3779.7" />
   <line class="fil3 str5" x1="2379.32" y1="3917.79" x2="2357.04" y2= "3791.48" />
   <line class="fil3 str5" x1="2313.93" y1="3928.15" x2="2296.08" y2= "3801.13" />
   <line class="fil3 str5" x1="2248.22" y1="3936.22" x2="2234.82" y2= "3808.65" />
   <line class="fil3 str5" x1="2182.27" y1="3941.99" x2="2177.25" y2= "3870.25" />
   <line class="fil3 str5" x1="1917.67" y1="3941.97" x2="1922.93" y2= "3866.92" />
   <line class="fil3 str5" x1="1851.72" y1="3936.2" x2="1865.14" y2= "3808.65" />
   <line class="fil3 str5" x1="1786.01" y1="3928.13" x2="1803.88" y2= "3801.13" />
   <line class="fil3 str5" x1="1720.63" y1="3917.77" x2="1742.92" y2= "3791.47" />
   <line class="fil3 str5" x1="1655.65" y1="3905.14" x2="1682.33" y2= "3779.69" />
   <line class="fil3 str5" x1="1591.15" y1="3890.25" x2="1622.19" y2= "3765.8" />
   <line class="fil3 str5" x1="1527.21" y1="3873.12" x2="1562.57" y2= "3749.82" />
   <line class="fil3 str5" x1="1463.9" y1="3853.76" x2="1503.54" y2= "3731.77" />
   <line class="fil3 str5" x1="1401.31" y1="3832.21" x2="1445.18" y2= "3711.67" />
   <line class="fil3 str5" x1="1339.51" y1="3808.49" x2="1387.56" y2= "3689.55" />
   <line class="fil3 str5" x1="1278.57" y1="3782.62" x2="1330.74" y2= "3665.43" />
   <line class="fil3 str5" x1="1218.57" y1="3754.64" x2="1274.8" y2= "3639.34" />
   <line class="fil3 str5" x1="1159.59" y1="3724.59" x2="1219.8" y2= "3611.32" />
   <line class="fil3 str5" x1="1101.69" y1="3692.5" x2="1165.82" y2= "3581.4" />
   <line class="fil3 str5" x1="1044.95" y1="3658.4" x2="1112.91" y2= "3549.61" />
   <line class="fil3 str5" x1="989.43" y1="3622.34" x2="1061.15" y2= "3515.99" />
   <line class="fil3 str5" x1="935.2" y1="3584.37" x2="1010.59" y2= "3480.59" />
   <line class="fil3 str5" x1="882.33" y1="3544.53" x2="961.3" y2= "3443.44" />
   <line class="fil3 str5" x1="830.88" y1="3502.87" x2="913.33" y2= "3404.6" />
   <line class="fil3 str5" x1="780.92" y1="3459.44" x2="866.75" y2= "3364.11" />
   <line class="fil3 str5" x1="732.5" y1="3414.29" x2="821.61" y2= "3322.01" />
   <line class="fil3 str5" x1="685.69" y1="3367.48" x2="777.97" y2= "3278.37" />
   <line class="fil3 str5" x1="640.54" y1="3319.06" x2="735.88" y2= "3233.23" />
   <line class="fil3 str5" x1="597.11" y1="3269.1" x2="695.39" y2= "3186.65" />
   <line class="fil3 str5" x1="555.45" y1="3217.65" x2="656.55" y2= "3138.68" />
   <line class="fil3 str5" x1="515.61" y1="3164.78" x2="619.4" y2= "3089.39" />
   <line class="fil3 str5" x1="477.64" y1="3110.55" x2="584" y2= "3038.83" />
   <line class="fil3 str5" x1="441.59" y1="3055.03" x2="550.38" y2= "2987.06" />
   <line class="fil3 str5" x1="407.49" y1="2998.28" x2="518.59" y2= "2934.15" />
   <line class="fil3 str5" x1="375.4" y1="2940.38" x2="488.67" y2= "2880.17" />
   <line class="fil3 str5" x1="345.35" y1="2881.4" x2="460.65" y2= "2825.17" />
   <line class="fil3 str5" x1="317.37" y1="2821.4" x2="434.57" y2= "2769.23" />
   <line class="fil3 str5" x1="291.5" y1="2760.46" x2="410.45" y2= "2712.41" />
   <line class="fil3 str5" x1="267.78" y1="2698.66" x2="388.33" y2= "2654.79" />
   <line class="fil3 str5" x1="246.23" y1="2636.07" x2="368.24" y2= "2596.43" />
   <line class="fil3 str5" x1="226.88" y1="2572.76" x2="350.19" y2= "2537.4" />
   <line class="fil3 str5" x1="209.75" y1="2508.82" x2="334.22" y2= "2477.78" />
   <line class="fil3 str5" x1="194.86" y1="2444.32" x2="320.34" y2= "2417.64" />
   <line class="fil3 str5" x1="182.23" y1="2379.34" x2="308.56" y2= "2357.05" />
   <line class="fil3 str5" x1="171.87" y1="2313.95" x2="298.9" y2= "2296.09" />
   <line class="fil3 str5" x1="163.8" y1="2248.24" x2="291.38" y2= "2234.83" />
   <line class="fil3 str5" x1="158.03" y1="2182.29" x2="237.54" y2= "2176.72" />
   <line class="fil3 str5" x1="158.05" y1="1917.69" x2="256.99" y2= "1924.62" />
   <line class="fil3 str5" x1="163.82" y1="1851.74" x2="291.38" y2= "1865.15" />
   <line class="fil3 str5" x1="171.89" y1="1786.03" x2="298.9" y2= "1803.89" />
   <line class="fil3 str5" x1="182.25" y1="1720.65" x2="308.56" y2= "1742.93" />
   <line class="fil3 str5" x1="194.88" y1="1655.67" x2="320.34" y2= "1682.34" />
   <line class="fil3 str5" x1="209.77" y1="1591.17" x2="334.22" y2= "1622.2" />
   <line class="fil3 str5" x1="226.9" y1="1527.23" x2="350.2" y2= "1562.58" />
   <line class="fil3 str5" x1="246.26" y1="1463.92" x2="368.25" y2= "1503.55" />
   <line class="fil3 str5" x1="267.81" y1="1401.33" x2="388.35" y2= "1445.19" />
   <line class="fil3 str5" x1="291.53" y1="1339.53" x2="410.47" y2= "1387.57" />
   <line class="fil3 str5" x1="317.4" y1="1278.59" x2="434.59" y2= "1330.75" />
   <line class="fil3 str5" x1="345.38" y1="1218.59" x2="460.68" y2= "1274.81" />
   <line class="fil3 str5" x1="375.43" y1="1159.61" x2="488.7" y2= "1219.82" />
   <line class="fil3 str5" x1="407.52" y1="1101.71" x2="518.62" y2= "1165.84" />
   <line class="fil3 str5" x1="441.62" y1="1044.97" x2="550.41" y2= "1112.93" />
   <line class="fil3 str5" x1="477.67" y1="989.45" x2="584.03" y2= "1061.17" />
   <line class="fil3 str5" x1="515.64" y1="935.22" x2="619.43" y2= "1010.61" />
   <line class="fil3 str5" x1="555.48" y1="882.35" x2="656.58" y2= "961.32" />
   <line class="fil3 str5" x1="597.14" y1="830.9" x2="695.42" y2= "913.35" />
   <line class="fil3 str5" x1="640.57" y1="780.94" x2="735.91" y2= "866.77" />
   <line class="fil3 str5" x1="685.72" y1="732.52" x2="778" y2= "821.63" />
   <line class="fil3 str5" x1="732.53" y1="685.71" x2="821.64" y2= "777.99" />
   <line class="fil3 str5" x1="780.95" y1="640.56" x2="866.78" y2= "735.9" />
   <line class="fil3 str5" x1="830.91" y1="597.13" x2="913.36" y2= "695.41" />
   <line class="fil3 str5" x1="882.36" y1="555.47" x2="961.33" y2= "656.57" />
   <line class="fil3 str5" x1="989.46" y1="477.66" x2="1061.18" y2= "584.02" />
   <line class="fil3 str5" x1="1044.98" y1="441.61" x2="1112.94" y2= "550.4" />
   <line class="fil3 str5" x1="1101.72" y1="407.51" x2="1165.85" y2= "518.61" />
   <line class="fil3 str5" x1="1159.62" y1="375.42" x2="1219.83" y2= "488.69" />
   <line class="fil3 str5" x1="1218.6" y1="345.37" x2="1274.82" y2= "460.67" />
   <line class="fil3 str5" x1="1278.6" y1="317.39" x2="1330.76" y2= "434.58" />
   <line class="fil3 str5" x1="1339.54" y1="291.52" x2="1387.58" y2= "410.46" />
   <line class="fil3 str5" x1="1401.34" y1="267.8" x2="1445.2" y2= "388.34" />
   <line class="fil3 str5" x1="1463.93" y1="246.25" x2="1503.56" y2= "368.25" />
   <line class="fil3 str5" x1="1527.24" y1="226.9" x2="1562.59" y2= "350.2" />
   <line class="fil3 str5" x1="1591.18" y1="209.77" x2="1622.21" y2= "334.23" />
   <line class="fil3 str5" x1="1655.68" y1="194.88" x2="1682.35" y2= "320.35" />
   <line class="fil3 str5" x1="1720.66" y1="182.25" x2="1742.94" y2= "308.57" />
   <line class="fil3 str5" x1="1786.04" y1="171.89" x2="1803.9" y2= "298.91" />
   <line class="fil3 str5" x1="1851.75" y1="163.82" x2="1865.16" y2= "291.39" />
   <line class="fil3 str5" x1="1917.7" y1="158.05" x2="1924.01" y2= "248.21" />
  </g>
 </g>
</svg>
