<?xml version="1.0" encoding="UTF-8"?>
<!DOCTYPE svg PUBLIC "-//W3C//DTD SVG 1.1//EN" "http://www.w3.org/Graphics/SVG/1.1/DTD/svg11.dtd">
<!-- Creator: CorelDRAW 2019 (64-Bit) -->
<svg xmlns="http://www.w3.org/2000/svg" xml:space="preserve" width="41mm" height="41mm" version="1.1" style="shape-rendering:geometricPrecision; text-rendering:geometricPrecision; image-rendering:optimizeQuality; fill-rule:evenodd; clip-rule:evenodd"
viewBox="0 0 4100 4100"
 xmlns:xlink="http://www.w3.org/1999/xlink">
 <defs>
  <style type="text/css">
   <![CDATA[
    .str3 {stroke:#393185;stroke-width:65;stroke-miterlimit:22.9256}
    .str4 {stroke:#393185;stroke-width:50;stroke-miterlimit:22.9256}
    .str6 {stroke:#393185;stroke-width:20;stroke-miterlimit:22.9256}
    .str2 {stroke:#393185;stroke-width:15;stroke-miterlimit:22.9256}
    .str1 {stroke:#393185;stroke-width:7.62;stroke-miterlimit:22.9256}
    .str7 {stroke:#393185;stroke-width:45;stroke-linecap:round;stroke-linejoin:round;stroke-miterlimit:22.9256}
    .str5 {stroke:#393185;stroke-width:20;stroke-linecap:round;stroke-linejoin:round;stroke-miterlimit:22.9256}
    .str0 {stroke:#393185;stroke-width:15;stroke-linecap:round;stroke-linejoin:round;stroke-miterlimit:22.9256}
    .fil0 {fill:none}
    .fil3 {fill:none;fill-rule:nonzero}
    .fil2 {fill:#393185}
    .fil1 {fill:#393185;fill-rule:nonzero}
   ]]>
  </style>
 </defs>
 <g id="Слой_x0020_1">
  <metadata id="CorelCorpID_0Corel-Layer"/>
  <path class="fil0" d="M2050 528.85c840.11,0 1521.15,681.04 1521.15,1521.15 0,840.11 -681.04,1521.15 -1521.15,1521.15 -840.11,0 -1521.15,-681.04 -1521.15,-1521.15 0,-840.11 681.04,-1521.15 1521.15,-1521.15z"/>
  <g id="_1296763136">
   <path class="fil1 str0" d="M3191.27 764.7l12.94 18.38c-15.09,10.57 -30.13,15.53 -45.19,14.94 -15.06,-0.59 -29.08,-6.44 -42.04,-17.57 -13.39,-11.5 -21.95,-23.59 -25.66,-36.29 -3.72,-12.68 -3.3,-26.07 1.21,-40.18 4.54,-14.14 11.88,-27.13 22.09,-39.02 11.13,-12.96 23.3,-22.15 36.55,-27.54 13.25,-5.41 26.6,-6.69 40.04,-3.86 13.44,2.83 25.64,8.98 36.6,18.39 12.47,10.71 20.22,22.86 23.23,36.48 3.04,13.65 1.31,27.62 -5.22,41.98l-19.46 -10.08c4.9,-11.5 6.37,-21.73 4.42,-30.55 -1.91,-8.85 -7.05,-16.84 -15.36,-23.98 -9.55,-8.2 -19.52,-12.78 -29.85,-13.71 -10.34,-0.92 -20.17,1.37 -29.37,6.87 -9.26,5.5 -17.41,12.35 -24.46,20.56 -9.09,10.58 -15.5,21.14 -19.21,31.67 -3.71,10.56 -3.99,20.55 -0.86,30.04 3.13,9.49 8.48,17.46 16.05,23.96 9.22,7.92 19.28,11.92 30.21,12.1 10.96,0.15 22.06,-4.03 33.34,-12.59zm80.09 -9.81l33.56 32.11c8.23,7.87 13.7,14.42 16.41,19.66 2.68,5.21 3.73,11.02 3.09,17.45 -0.64,6.47 -3.4,12.24 -8.31,17.37 -3.94,4.12 -8.24,6.89 -12.83,8.32 -4.64,1.42 -9.64,1.57 -15.01,0.33 2.73,5.21 3.66,10.92 2.8,17.19 -0.86,6.2 -3.74,11.86 -8.57,16.91 -8.31,7.65 -17.03,10.89 -26.06,9.77 -9.05,-1.09 -18.6,-6.48 -28.65,-16.09l-38.7 -37.02 82.27 -86zm-20.13 50.24l15.47 14.8c6.15,5.89 10.72,9.62 13.63,11.19 2.95,1.55 6.26,2.23 9.99,1.99 3.7,-0.22 6.88,-1.72 9.52,-4.48 4.36,-4.56 5.77,-9.24 4.32,-14.08 -1.5,-4.86 -6.12,-10.96 -13.85,-18.36l-15.94 -15.25 -23.14 24.19zm-36.14 37.78l19.14 18.31c8.23,7.87 14.81,12.32 19.71,13.35 4.91,1 9.65,-0.76 14.33,-5.32 2.62,-2.74 4.19,-6.15 4.67,-10.19 0.45,-4.06 -0.44,-7.77 -2.71,-11.1 -2.23,-3.35 -6.53,-8.05 -12.82,-14.07l-17.6 -16.83 -24.72 25.85zm167.58 -6.72l17.31 -15.05 13.24 15.23 -17.31 15.05 -13.24 -15.23zm-106.59 92.68l89.81 -78.09 13.24 15.23 -89.81 78.09 -13.24 -15.23zm138.84 -22.64l51.61 65.02 -80.28 63.73 7.99 10.05 -39.34 31.23 -10.26 -12.93 26.4 -20.96 -58.31 -73.46 -26.41 20.96 -10.26 -12.93 39.33 -31.23 6.56 8.27c23.96,-0.87 54.95,-16.79 92.97,-47.75zm-2.7 23.52c-31.19,22.86 -57.29,35.95 -78.29,39.31l39.78 50.11 67.16 -53.32 -28.65 -36.1zm27.29 104.83c17.98,-12.62 34.82,-16.97 50.53,-13.01 13.06,3.3 23.83,11.01 32.29,23.05 9.37,13.36 12.68,27.38 9.89,42.04 -2.78,14.59 -11.9,27.35 -27.32,38.17 -12.51,8.78 -23.65,13.8 -33.45,15.07 -9.79,1.28 -19.21,-0.28 -28.23,-4.69 -8.99,-4.38 -16.48,-10.85 -22.43,-19.32 -9.57,-13.65 -12.96,-27.71 -10.14,-42.25 2.83,-14.54 12.46,-27.55 28.86,-39.06zm11.82 16.92c-12.45,8.73 -19.86,18 -22.21,27.76 -2.35,9.83 -0.63,18.85 5.19,27.14 5.75,8.2 13.63,12.84 23.7,13.95 10.04,1.07 21.42,-2.86 34.16,-11.8 12.01,-8.43 19.18,-17.57 21.5,-27.37 2.35,-9.82 0.66,-18.81 -5.04,-26.94 -5.82,-8.29 -13.69,-12.99 -23.7,-14.14 -9.98,-1.12 -21.18,2.68 -33.6,11.4zm119.13 71.28l10.13 17.45 -88.65 51.45 28.08 48.39 88.65 -51.44 10.13 17.45 -88.65 51.45 6.56 11.3 -43.44 25.21 -8.28 -14.28 29.15 -16.92 -46.61 -80.32 102.93 -59.74zm66.83 116.85l39.69 87.75 -15.26 6.9 -15.69 -34.69 -93.18 42.15 -8.31 -18.39 93.18 -42.15 -15.69 -34.68 15.26 -6.89zm50.97 112.08l17.11 43.17c4.2,10.59 6.44,18.83 6.72,24.72 0.25,5.85 -1.21,11.58 -4.48,17.15 -3.28,5.62 -8.19,9.7 -14.8,12.32 -5.3,2.1 -10.36,2.82 -15.12,2.21 -4.82,-0.65 -9.42,-2.6 -13.79,-5.97 0.31,5.88 -1.22,11.46 -4.62,16.8 -3.37,5.28 -8.35,9.22 -14.84,11.8 -10.75,3.48 -20.02,2.79 -27.76,-2 -7.78,-4.77 -14.21,-13.65 -19.33,-26.58l-19.73 -49.78 110.64 -43.84zm-39.25 37.26l7.89 19.9c3.13,7.92 5.73,13.22 7.72,15.85 2.04,2.65 4.75,4.65 8.25,5.98 3.45,1.35 6.97,1.31 10.52,-0.1 5.86,-2.32 9.1,-5.99 9.79,-10.99 0.67,-5.04 -0.98,-12.52 -4.92,-22.47l-8.12 -20.5 -31.13 12.33zm-48.6 19.26l9.75 24.62c4.2,10.59 8.33,17.38 12.35,20.36 4.04,2.95 9.09,3.33 15.24,1.14 3.53,-1.39 6.38,-3.84 8.5,-7.31 2.1,-3.5 2.84,-7.25 2.17,-11.22 -0.63,-3.98 -2.58,-10.04 -5.79,-18.13l-8.97 -22.64 -33.25 13.18zm74.3 74.2c20.79,-7.08 38.18,-6.54 52.15,1.66 11.61,6.83 19.79,17.25 24.54,31.18 5.25,15.45 4.5,29.83 -2.28,43.12 -6.76,13.24 -19.09,22.92 -36.92,28.99 -14.48,4.93 -26.58,6.63 -36.34,5.1 -9.76,-1.52 -18.36,-5.66 -25.78,-12.42 -7.41,-6.72 -12.79,-15.03 -16.12,-24.83 -5.37,-15.78 -4.68,-30.22 2.1,-43.39 6.79,-13.17 19.68,-22.96 38.65,-29.41zm6.61 19.55c-14.4,4.9 -24.12,11.71 -29.1,20.43 -5.01,8.77 -5.89,17.91 -2.63,27.5 3.22,9.48 9.49,16.15 18.84,20.03 9.34,3.85 21.37,3.26 36.1,-1.75 13.89,-4.73 23.34,-11.49 28.31,-20.25 5.01,-8.77 5.91,-17.88 2.71,-27.28 -3.27,-9.59 -9.5,-16.3 -18.79,-20.21 -9.27,-3.87 -21.08,-3.36 -35.44,1.53zm109.14 169.15l16.92 92.48 -117.06 21.43 -3.63 -19.85 100.6 -18.41 -9.66 -52.79 -100.6 18.41 -3.64 -19.85 117.07 -21.42zm-140.81 151.19l163.41 -20.08 2.24 18.21 -15.52 1.91c6.52,3.55 11.64,7.85 15.3,12.91 3.66,5.01 5.97,11.39 6.92,19.09 1.24,10.09 -0.24,19.28 -4.49,27.62 -4.22,8.34 -10.82,15.04 -19.74,20.14 -8.97,5.07 -19.04,8.31 -30.32,9.69 -12.02,1.48 -23.13,0.66 -33.34,-2.48 -10.16,-3.14 -18.34,-8.53 -24.5,-16.16 -6.14,-7.61 -9.79,-15.98 -10.9,-25.08 -0.83,-6.68 -0.16,-12.85 2,-18.46 2.15,-5.66 5.15,-10.42 9.01,-14.36l-57.61 7.08 -2.46 -20.03zm105.86 5.48c-15.13,1.86 -25.94,6.3 -32.43,13.31 -6.49,7.03 -9.22,14.91 -8.15,23.64 1.09,8.87 5.77,16 14.06,21.37 8.29,5.41 20.28,7.14 36.02,5.21 15.03,-1.85 25.88,-6.31 32.59,-13.41 6.72,-7.1 9.52,-14.91 8.47,-23.49 -1.04,-8.49 -5.95,-15.52 -14.68,-21.06 -8.76,-5.59 -20.7,-7.44 -35.88,-5.57zm12.35 108.37c21.96,-0.65 38.41,4.98 49.36,16.93 9.09,9.94 13.84,22.3 14.28,37.02 0.48,16.31 -4.48,29.83 -14.86,40.54 -10.35,10.66 -24.98,16.3 -43.82,16.85 -15.28,0.45 -27.34,-1.48 -36.22,-5.81 -8.88,-4.32 -15.89,-10.81 -21,-19.45 -5.1,-8.6 -7.79,-18.13 -8.1,-28.47 -0.49,-16.67 4.42,-30.27 14.77,-40.86 10.36,-10.59 25.57,-16.16 45.59,-16.75zm0.57 20.63c-15.21,0.45 -26.49,4.11 -33.82,10.98 -7.37,6.91 -10.91,15.38 -10.61,25.51 0.3,10.01 4.32,18.22 12.13,24.68 7.79,6.43 19.46,9.4 35.02,8.94 14.66,-0.43 25.68,-4.12 33,-11.03 7.37,-6.91 10.91,-15.34 10.61,-25.27 -0.29,-10.12 -4.28,-18.38 -12,-24.85 -7.73,-6.42 -19.17,-9.4 -34.33,-8.96zm59.32 188.87l-7.14 93.75 -118.66 -9.03 1.53 -20.13 101.97 7.76 4.08 -53.5 -101.98 -7.76 1.53 -20.12 118.67 9.03zm-172.7 108.63l161.95 29.64 -3.3 18.05 -15.38 -2.82c5.17,5.34 8.76,10.97 10.75,16.89 1.99,5.88 2.3,12.65 0.9,20.29 -1.83,10 -5.99,18.33 -12.54,25.02 -6.51,6.7 -14.81,11.12 -24.85,13.32 -10.07,2.16 -20.65,2.24 -31.83,0.2 -11.91,-2.18 -22.27,-6.29 -31.07,-12.33 -8.76,-6.03 -14.96,-13.61 -18.56,-22.74 -3.59,-9.1 -4.57,-18.17 -2.92,-27.19 1.21,-6.62 3.69,-12.31 7.43,-17.02 3.75,-4.76 8.02,-8.4 12.89,-11.01l-57.1 -10.45 3.63 -19.85zm99.4 36.84c-15,-2.74 -26.64,-1.73 -34.93,3.02 -8.29,4.77 -13.25,11.48 -14.84,20.12 -1.6,8.8 0.74,17 7.04,24.6 6.3,7.64 17.23,12.87 32.83,15.73 14.89,2.72 26.57,1.71 35.1,-3.06 8.53,-4.78 13.54,-11.39 15.1,-19.89 1.54,-8.42 -1.04,-16.59 -7.72,-24.49 -6.7,-7.95 -17.54,-13.27 -32.58,-16.03zm-81.13 177.75c-4.53,-8.74 -7.25,-16.78 -8.25,-24.12 -1,-7.34 -0.59,-14.85 1.21,-22.59 2.96,-12.73 8.32,-21.8 16.13,-27.22 7.78,-5.41 16.5,-6.98 26.14,-4.74 5.65,1.31 10.53,3.81 14.62,7.47 4.09,3.7 7.03,7.95 8.88,12.77 1.86,4.87 2.93,10.07 3.16,15.65 0.1,4.1 -0.29,10.17 -1.12,18.18 -1.83,16.29 -2.28,28.55 -1.42,36.63 2.66,0.7 4.36,1.14 5.07,1.3 7.97,1.86 14.03,1.29 18.16,-1.67 5.6,-3.99 9.53,-10.97 11.83,-20.86 2.16,-9.27 2.11,-16.5 -0.1,-21.65 -2.21,-5.18 -7.19,-9.76 -14.96,-13.79l7.14 -18.6c7.82,3.67 13.82,8.08 17.95,13.28 4.13,5.2 6.65,11.9 7.64,20.14 0.96,8.19 0.29,17.33 -2.03,27.31 -2.3,9.9 -5.33,17.71 -9.12,23.38 -3.79,5.63 -7.75,9.54 -11.96,11.62 -4.22,2.09 -9.15,3.1 -14.84,3.03 -3.49,-0.15 -9.6,-1.22 -18.27,-3.23l-26.06 -6.06c-18.2,-4.23 -29.8,-6.49 -34.87,-6.8 -5.06,-0.35 -10.09,0.2 -15.11,1.55l4.77 -20.55c4.59,-1.02 9.73,-1.16 15.41,-0.43zm43.91 8.57c-1.24,-7.83 -1.2,-19.12 0.1,-33.89 0.74,-8.38 0.77,-14.41 0.09,-18.1 -0.67,-3.69 -2.19,-6.75 -4.53,-9.21 -2.36,-2.47 -5.24,-4.13 -8.66,-4.92 -5.17,-1.2 -9.99,-0.24 -14.38,2.94 -4.38,3.17 -7.48,8.58 -9.26,16.2 -1.75,7.56 -1.68,14.68 0.25,21.37 1.92,6.64 5.41,12.04 10.47,16.12 3.93,3.16 10.2,5.71 18.8,7.71l7.12 1.78zm42.23 77.02l-15.05 43.94c-3.69,10.77 -7.34,18.49 -10.95,23.15 -3.61,4.62 -8.45,8.01 -14.55,10.13 -6.14,2.13 -12.53,2.05 -19.26,-0.26 -5.39,-1.84 -9.71,-4.58 -12.92,-8.15 -3.25,-3.61 -5.48,-8.09 -6.61,-13.48 -3.59,4.67 -8.38,7.91 -14.42,9.76 -6,1.82 -12.34,1.58 -18.95,-0.68 -10.43,-4.33 -17.04,-10.89 -19.81,-19.55 -2.81,-8.68 -1.93,-19.61 2.58,-32.77l17.36 -50.66 112.58 38.57zm-54.05 2.82l-6.94 20.25c-2.76,8.06 -4.23,13.77 -4.43,17.07 -0.17,3.33 0.6,6.62 2.39,9.91 1.75,3.26 4.45,5.52 8.07,6.76 5.96,2.04 10.8,1.35 14.58,-2 3.78,-3.39 7.39,-10.15 10.86,-20.27l7.15 -20.87 -31.68 -10.85zm-49.46 -16.95l-8.58 25.07c-3.69,10.77 -4.96,18.61 -3.84,23.49 1.15,4.87 4.74,8.44 10.84,10.77 3.59,1.23 7.34,1.23 11.21,-0.04 3.88,-1.29 6.87,-3.66 8.94,-7.11 2.1,-3.44 4.56,-9.31 7.38,-17.55l7.89 -23.03 -33.84 -11.6zm9.28 105.09c20.41,8.14 33.26,19.85 38.55,35.18 4.38,12.73 3.83,25.96 -1.63,39.63 -6.05,15.16 -15.97,25.6 -29.77,31.29 -13.73,5.66 -29.4,5.01 -46.89,-1.98 -14.21,-5.66 -24.5,-12.24 -30.93,-19.75 -6.43,-7.49 -10.27,-16.23 -11.52,-26.19 -1.26,-9.93 0.06,-19.74 3.9,-29.35 6.18,-15.48 16.1,-26 29.81,-31.6 13.72,-5.59 29.88,-4.65 48.48,2.77zm-7.68 19.16c-14.13,-5.64 -25.94,-6.78 -35.4,-3.4 -9.51,3.41 -16.12,9.78 -19.88,19.19 -3.71,9.3 -3.28,18.44 1.3,27.47 4.6,8.99 14.12,16.37 28.57,22.14 13.63,5.44 25.2,6.44 34.67,3.01 9.51,-3.4 16.11,-9.74 19.79,-18.96 3.76,-9.41 3.39,-18.57 -1.13,-27.57 -4.52,-8.97 -13.83,-16.26 -27.92,-21.88zm-22.67 201.93l-10.19 17.42 -42.75 -25.01 -28.26 48.3 42.75 25.01 -10.18 17.41 -102.73 -60.09 10.19 -17.41 45.52 26.63 28.26 -48.3 -45.53 -26.63 10.19 -17.42 102.73 60.09zm-197.09 124.28c-1.36,-9.75 -1.24,-18.24 0.25,-25.5 1.51,-7.25 4.39,-14.19 8.67,-20.9 7.03,-11.01 15.1,-17.78 24.27,-20.29 9.13,-2.51 17.88,-1.09 26.23,4.23 4.89,3.12 8.66,7.1 11.3,11.91 2.62,4.85 3.97,9.83 4.12,15 0.13,5.21 -0.59,10.47 -2.23,15.81 -1.27,3.9 -3.66,9.49 -7.11,16.77 -7.15,14.75 -11.66,26.16 -13.54,34.07 2.28,1.54 3.74,2.52 4.36,2.91 6.89,4.4 12.79,5.89 17.68,4.47 6.61,-1.9 12.64,-7.17 18.1,-15.73 5.12,-8.03 7.48,-14.86 7.11,-20.45 -0.36,-5.62 -3.53,-11.59 -9.52,-17.99l12.93 -15.16c6.15,6.07 10.34,12.22 12.5,18.5 2.17,6.28 2.31,13.44 0.5,21.54 -1.82,8.04 -5.5,16.43 -11.01,25.07 -5.46,8.57 -10.92,14.93 -16.38,19.01 -5.44,4.05 -10.48,6.41 -15.15,6.97 -4.66,0.57 -9.65,-0.12 -14.99,-2.07 -3.25,-1.31 -8.65,-4.35 -16.16,-9.13l-22.56 -14.39c-15.75,-10.05 -25.93,-16.04 -30.61,-18.02 -4.66,-2.02 -9.58,-3.17 -14.77,-3.57l11.35 -17.79c4.66,0.57 9.55,2.14 14.66,4.73zm38.56 22.69c1.44,-7.79 5.23,-18.43 11.38,-31.92 3.48,-7.66 5.52,-13.33 6.11,-17.04 0.59,-3.7 0.17,-7.1 -1.21,-10.19 -1.4,-3.12 -3.57,-5.64 -6.53,-7.53 -4.47,-2.85 -9.34,-3.55 -14.54,-2.01 -5.18,1.53 -9.91,5.6 -14.12,12.2 -4.17,6.54 -6.48,13.28 -6.87,20.23 -0.41,6.9 1.08,13.15 4.49,18.69 2.67,4.28 7.72,8.77 15.17,13.52l6.12 4.05zm-92.62 114.57l12.44 9.78c-5.19,6.72 -8.51,11.49 -9.96,14.25 -1.42,2.81 -1.86,6.2 -1.23,10.21 0.65,4.01 2.71,7.38 6.22,10.14 4.24,3.34 8.77,4.63 13.54,3.76 4.8,-0.84 8.94,-3.52 12.51,-8.06 7.02,-8.91 6.71,-19.27 -0.93,-31.08l14.44 -13.14c13.73,18.39 13.5,36.6 -0.63,54.56 -7.85,9.97 -16.7,15.65 -26.59,17.05 -9.91,1.4 -18.62,-0.89 -26.16,-6.82 -7.6,-5.98 -10.76,-14.45 -9.44,-25.32 -6.23,2.73 -12.21,3.71 -17.98,3.01 -5.75,-0.73 -11.3,-3.2 -16.65,-7.41 -8.37,-6.59 -12.75,-15 -13.18,-25.21 -0.4,-10.24 3.7,-20.82 12.36,-31.82 16.78,-21.32 35.95,-26.27 57.48,-14.82l-8.53 17.51c-7.02,-3.33 -13.79,-4.24 -20.32,-2.67 -6.54,1.57 -11.87,5.01 -16.08,10.36 -4.21,5.34 -6.2,10.96 -5.96,16.89 0.21,5.91 2.66,10.71 7.35,14.4 3.63,2.86 7.66,4.23 12.11,4.14 4.45,-0.1 8,-1.15 10.65,-3.15 2.67,-1.98 6.6,-6.29 11.8,-12.89 0.42,-0.55 1.34,-1.77 2.74,-3.67zm-136.76 95.3c0.56,-9.83 2.32,-18.13 5.19,-24.96 2.89,-6.82 7.07,-13.07 12.56,-18.81 9.04,-9.45 18.28,-14.52 27.75,-15.2 9.45,-0.69 17.76,2.4 24.91,9.25 4.2,4.01 7.12,8.65 8.77,13.88 1.63,5.27 1.99,10.42 1.13,15.51 -0.88,5.14 -2.61,10.15 -5.26,15.08 -2,3.58 -5.43,8.6 -10.23,15.06 -9.88,13.09 -16.52,23.4 -19.9,30.79 1.94,1.96 3.18,3.21 3.71,3.71 5.91,5.66 11.4,8.26 16.47,7.82 6.86,-0.58 13.79,-4.58 20.82,-11.92 6.58,-6.88 10.22,-13.12 10.94,-18.67 0.74,-5.59 -1.21,-12.06 -5.84,-19.5l15.62 -12.36c4.87,7.15 7.78,14 8.68,20.58 0.9,6.58 -0.35,13.63 -3.7,21.22 -3.35,7.54 -8.58,15.05 -15.67,22.46 -7.02,7.34 -13.61,12.52 -19.76,15.47 -6.13,2.91 -11.53,4.25 -16.21,3.89 -4.69,-0.35 -9.45,-2 -14.31,-4.95 -2.93,-1.91 -7.64,-5.94 -14.07,-12.1l-19.34 -18.49c-13.5,-12.92 -22.32,-20.78 -26.53,-23.63 -4.17,-2.88 -8.78,-4.97 -13.79,-6.37l14.59 -15.24c4.46,1.46 8.95,3.96 13.47,7.48zm33.41 29.75c2.92,-7.36 8.71,-17.06 17.36,-29.1 4.91,-6.83 8,-12.01 9.3,-15.52 1.31,-3.52 1.56,-6.93 0.8,-10.24 -0.77,-3.33 -2.4,-6.22 -4.94,-8.65 -3.84,-3.67 -8.48,-5.3 -13.87,-4.79 -5.39,0.49 -10.81,3.56 -16.23,9.22 -5.36,5.6 -8.93,11.77 -10.67,18.5 -1.74,6.7 -1.49,13.12 0.78,19.21 1.78,4.72 5.87,10.11 12.25,16.21l5.22 5.16zm-1.81 87.26l-15.23 13.24 -32.5 -37.38 -42.23 36.72 32.5 37.38 -15.22 13.23 -78.09 -89.81 15.22 -13.24 34.61 39.8 42.23 -36.71 -34.61 -39.8 15.23 -13.24 78.09 89.81zm-174.68 145.89l-74 -93.21 15.81 -12.54 28.8 36.27 9.1 -7.22c5.54,-4.4 9.09,-8.39 10.66,-12.02 1.56,-3.63 1.9,-11.37 0.98,-23.28l-2.22 -31.32 19.58 -15.55 2.8 38.58c0.87,11.79 -0.91,20.24 -5.3,25.34 9.98,-5.92 19.27,-7.99 27.82,-6.19 8.55,1.8 15.56,6.14 21,12.99 6.44,8.12 8.81,16.93 7.08,26.5 -1.7,9.6 -7.99,18.69 -18.83,27.29l-43.28 34.36zm5.4 -25.66l22.44 -17.82c9.4,-7.46 14.32,-13.75 14.71,-18.85 0.4,-5.09 -0.99,-9.61 -4.1,-13.52 -4.42,-5.57 -9.69,-8.08 -15.76,-7.49 -6.05,0.55 -14.19,4.86 -24.37,12.94l-17.45 13.85 24.53 30.89zm-32.42 45.3l-80.9 52.26 -9.09 -14.07 31.98 -20.65 -55.49 -85.91 16.95 -10.95 55.49 85.91 31.97 -20.65 9.09 14.06zm-94.36 61.48l-83.3 48.34 -8.4 -14.48 32.93 -19.11 -51.33 -88.45 17.45 -10.13 51.33 88.45 32.92 -19.1 8.4 14.48zm-192.29 103.24l-53.51 -106.31 18.03 -9.07 20.82 41.37 10.38 -5.22c6.32,-3.18 10.61,-6.37 12.88,-9.61 2.27,-3.23 4.17,-10.74 5.7,-22.59l4.18 -31.12 22.33 -11.24 -5.09 38.34c-1.54,11.72 -5.01,19.64 -10.34,23.73 10.97,-3.77 20.49,-3.9 28.5,-0.4 8.01,3.5 13.99,9.17 17.92,16.99 4.66,9.25 5.18,18.36 1.55,27.38 -3.62,9.05 -11.63,16.68 -23.99,22.9l-49.36 24.85zm10.5 -24.03l25.6 -12.89c10.72,-5.39 16.81,-10.55 18.23,-15.47 1.43,-4.9 0.99,-9.61 -1.26,-14.07 -3.2,-6.35 -7.85,-9.88 -13.92,-10.54 -6.03,-0.69 -14.88,1.88 -26.48,7.72l-19.9 10.02 17.73 35.23zm-219.64 -6.59c5.04,-8.46 10.43,-15.02 16.13,-19.75 5.71,-4.71 12.3,-8.33 19.83,-10.89 12.37,-4.21 22.91,-4.45 31.63,-0.68 8.7,3.75 14.64,10.32 17.83,19.7 1.87,5.49 2.33,10.95 1.38,16.36 -0.99,5.42 -3.04,10.16 -6.16,14.28 -3.15,4.15 -7,7.8 -11.62,10.95 -3.43,2.25 -8.79,5.12 -16.03,8.64 -14.8,7.06 -25.45,13.14 -31.86,18.14 0.81,2.63 1.34,4.31 1.58,5 2.63,7.75 6.31,12.59 11.01,14.54 6.35,2.64 14.34,2.3 23.96,-0.97 9.01,-3.07 15.13,-6.92 18.33,-11.52 3.23,-4.62 4.49,-11.26 3.81,-19.99l19.56 -3.76c1.02,8.58 0.44,16 -1.79,22.26 -2.24,6.25 -6.6,11.93 -13.07,17.12 -6.45,5.14 -14.56,9.39 -24.27,12.7 -9.62,3.27 -17.85,4.82 -24.67,4.6 -6.78,-0.24 -12.19,-1.55 -16.18,-4.02 -4,-2.48 -7.46,-6.14 -10.4,-11 -1.73,-3.05 -4.04,-8.8 -6.91,-17.22l-8.62 -25.33c-6.02,-17.69 -10.22,-28.73 -12.64,-33.2 -2.37,-4.49 -5.5,-8.46 -9.3,-12.02l19.98 -6.8c3.29,3.36 6.12,7.65 8.49,12.86zm15.92 41.81c5.99,-5.18 15.6,-11.11 28.83,-17.8 7.51,-3.8 12.64,-6.97 15.42,-9.49 2.78,-2.51 4.57,-5.43 5.43,-8.71 0.85,-3.31 0.74,-6.63 -0.4,-9.95 -1.71,-5.03 -5.07,-8.62 -10.09,-10.66 -5,-2.05 -11.23,-1.83 -18.65,0.7 -7.34,2.5 -13.35,6.32 -18,11.49 -4.64,5.14 -7.38,10.95 -8.17,17.4 -0.6,5.01 0.54,11.68 3.38,20.04l2.25 6.98zm-52.98 78.66l-79.91 22.47 -27.75 -98.68 -12.36 3.48 -13.59 -48.35 15.89 -4.47 9.13 32.46 90.29 -25.39 -9.13 -32.45 15.9 -4.47 13.59 48.34 -10.16 2.86c-8.46,22.43 -5.76,57.16 8.1,104.2zm-20.65 -11.59c-9.02,-37.6 -11.01,-66.73 -5.99,-87.4l-61.59 17.32 23.21 82.56 44.37 -12.48zm-106.28 43.73l-45.68 8.36c-11.2,2.05 -19.72,2.64 -25.55,1.77 -5.79,-0.89 -11.12,-3.45 -15.95,-7.74 -4.87,-4.31 -7.92,-9.92 -9.2,-16.92 -1.03,-5.61 -0.75,-10.71 0.79,-15.26 1.56,-4.6 4.38,-8.73 8.53,-12.36 -5.83,-0.84 -11,-3.43 -15.57,-7.8 -4.52,-4.34 -7.42,-9.99 -8.68,-16.87 -1.32,-11.21 1.17,-20.17 7.37,-26.83 6.2,-6.7 16.16,-11.27 29.84,-13.78l52.68 -9.64 21.42 117.07zm-28.89 -45.77l-21.06 3.86c-8.38,1.53 -14.08,3.04 -17.05,4.48 -2.99,1.48 -5.48,3.76 -7.48,6.93 -1.99,3.12 -2.63,6.58 -1.95,10.34 1.14,6.2 4.11,10.08 8.87,11.74 4.82,1.64 12.47,1.48 23,-0.44l21.7 -3.97 -6.03 -32.94zm-9.41 -51.42l-26.06 4.77c-11.2,2.05 -18.66,4.77 -22.37,8.14 -3.69,3.38 -5.04,8.26 -4.09,14.72 0.68,3.73 2.52,7 5.51,9.76 3.03,2.75 6.56,4.2 10.58,4.32 4.03,0.15 10.35,-0.58 18.92,-2.14l23.95 -4.39 -6.44 -35.18zm-87.81 58.52c2.68,21.8 -1.4,38.71 -12.29,50.72 -9.05,9.96 -20.92,15.85 -35.53,17.64 -16.2,1.99 -30.12,-1.69 -41.75,-11.04 -11.57,-9.32 -18.54,-23.36 -20.84,-42.06 -1.86,-15.18 -1.05,-27.37 2.44,-36.61 3.47,-9.24 9.28,-16.82 17.42,-22.7 8.09,-5.89 17.32,-9.45 27.6,-10.71 16.54,-2.03 30.54,1.59 42.04,10.92 11.51,9.34 18.46,23.96 20.91,43.84zm-20.5 2.48c-1.85,-15.1 -6.54,-26 -14.05,-32.66 -7.57,-6.7 -16.34,-9.43 -26.39,-8.19 -9.94,1.22 -17.74,5.98 -23.45,14.35 -5.68,8.36 -7.56,20.26 -5.66,35.7 1.79,14.56 6.48,25.19 14.04,31.85 7.56,6.69 16.29,9.43 26.15,8.22 10.05,-1.24 17.9,-5.97 23.62,-14.26 5.68,-8.29 7.6,-19.96 5.74,-35.01zm-119.3 71.34l-20.16 0.59 -1.52 -51.33c-6.43,0.19 -10.89,1.54 -13.41,4.09 -2.49,2.53 -6.07,9.79 -10.76,21.81 -3.7,9.51 -6.72,15.81 -9.07,18.86 -2.4,3.05 -5.17,5.15 -8.35,6.27 -3.22,1.14 -8.35,1.82 -15.42,2.03l-4.06 0.12 -0.49 -16.61 5.62 -0.06c5.31,-0.16 8.7,-1.06 10.14,-2.67 1.51,-1.68 3.78,-6.64 6.74,-14.87 2.83,-7.89 5.46,-13.36 7.93,-16.42 2.43,-3.05 6.29,-5.87 11.53,-8.52 -8.74,-2.07 -17.54,-9.88 -26.35,-23.46l-23.21 -36.21 22.15 -0.66 22.91 36.11c4.61,7.32 8.57,12.1 11.89,14.37 3.36,2.27 7.29,3.34 11.84,3.2l-1.62 -55.01 20.16 -0.59 3.51 118.96zm-189.11 -103.75c7.68,-6.16 15.02,-10.42 22.02,-12.85 6.99,-2.43 14.44,-3.51 22.39,-3.27 13.06,0.38 23.01,3.85 29.86,10.43 6.84,6.56 10.11,14.8 9.82,24.69 -0.17,5.8 -1.66,11.08 -4.44,15.81 -2.82,4.74 -6.4,8.45 -10.77,11.23 -4.4,2.78 -9.28,4.85 -14.72,6.18 -4,0.92 -10.02,1.73 -18.04,2.49 -16.33,1.43 -28.43,3.41 -36.19,5.85 -0.16,2.74 -0.25,4.5 -0.27,5.23 -0.24,8.18 1.51,14 5.23,17.47 5.02,4.7 12.63,7.18 22.79,7.48 9.51,0.28 16.59,-1.19 21.19,-4.38 4.65,-3.19 8.15,-8.97 10.57,-17.39l19.64 3.33c-2.05,8.39 -5.19,15.14 -9.47,20.22 -4.28,5.07 -10.35,8.87 -18.23,11.46 -7.84,2.56 -16.93,3.71 -27.18,3.4 -10.15,-0.3 -18.41,-1.72 -24.72,-4.32 -6.27,-2.59 -10.88,-5.71 -13.75,-9.43 -2.88,-3.71 -4.84,-8.35 -5.9,-13.94 -0.55,-3.45 -0.7,-9.65 -0.44,-18.55l0.79 -26.75c0.55,-18.67 0.48,-30.49 -0.22,-35.52 -0.66,-5.03 -2.2,-9.85 -4.51,-14.51l21.09 0.63c1.91,4.29 3.06,9.3 3.46,15.01zm0.28 44.74c7.43,-2.76 18.51,-4.95 33.24,-6.59 8.36,-0.93 14.28,-2.1 17.76,-3.49 3.48,-1.39 6.19,-3.49 8.14,-6.26 1.95,-2.8 3.01,-5.95 3.11,-9.46 0.16,-5.31 -1.74,-9.85 -5.72,-13.52 -3.98,-3.67 -9.89,-5.64 -17.72,-5.87 -7.76,-0.23 -14.72,1.24 -20.89,4.46 -6.14,3.19 -10.74,7.68 -13.74,13.44 -2.32,4.49 -3.58,11.13 -3.84,19.96l-0.34 7.33zm-50.57 57.77l-95.59 -11.75 2.04 -16.61 37.78 4.64 12.48 -101.5 20.03 2.46 -12.48 101.5 37.78 4.65 -2.04 16.61zm-184 -102.38l-18.9 -6.25c4.59,-12.96 11.9,-22.39 22.05,-28.34 10.14,-5.95 21.62,-7.73 34.37,-5.4 15.97,2.92 27.87,10.5 35.66,22.72 7.82,12.24 9.93,28.09 6.37,47.56 -2.31,12.63 -6.43,23.27 -12.34,31.98 -5.9,8.66 -13.56,14.6 -22.99,17.74 -9.4,3.18 -19.12,3.84 -29.19,1.99 -12.67,-2.31 -22.5,-7.41 -29.37,-15.31 -6.91,-7.9 -10.42,-17.99 -10.52,-30.21l19.71 0.58c0.41,8.19 2.56,14.68 6.53,19.53 3.94,4.8 9.21,7.82 15.83,9.03 10.01,1.83 18.78,-0.25 26.36,-6.25 7.56,-6.04 12.74,-16.74 15.57,-32.23 2.88,-15.71 1.95,-27.65 -2.75,-35.86 -4.76,-8.21 -11.96,-13.22 -21.63,-14.99 -7.82,-1.43 -14.76,-0.25 -20.81,3.57 -6.09,3.78 -10.75,10.51 -13.95,20.14zm-56.68 65.34l-19.66 -4.57 10.54 -45.34 -24.86 -5.78c-16.23,-3.77 -27.97,-9.8 -35.3,-18.13 -7.28,-8.33 -9.66,-18.02 -7.09,-29.07 2.25,-9.68 7.81,-17.1 16.75,-22.28 8.89,-5.19 21.38,-5.9 37.46,-2.16l49.1 11.41 -26.94 115.92zm3.55 -104.41l-20.69 -4.81c-12.48,-2.9 -21.73,-3.44 -27.76,-1.63 -6.03,1.83 -9.82,5.97 -11.32,12.45 -1.17,5.02 -0.24,9.94 2.79,14.8 3.03,4.83 11.29,8.83 24.8,11.97l23.3 5.41 8.88 -38.19zm-133.55 72.87l-19.08 -6.53 16.65 -48.59c-6.08,-2.08 -10.74,-2.39 -14,-0.89 -3.22,1.49 -9.12,7.03 -17.74,16.63 -6.81,7.61 -11.86,12.43 -15.13,14.46 -3.32,2.01 -6.65,3.01 -10.02,2.94 -3.41,-0.07 -8.46,-1.24 -15.15,-3.53l-3.84 -1.31 5.39 -15.73 5.28 1.93c5.02,1.72 8.51,2.07 10.43,1.06 2,-1.04 5.87,-4.89 11.54,-11.55 5.43,-6.38 9.81,-10.58 13.2,-12.57 3.35,-2 7.96,-3.29 13.79,-3.92 -7.45,-5.02 -12.95,-15.42 -16.41,-31.23l-8.98 -42.07 20.96 7.19 8.74 41.86c1.74,8.47 3.77,14.33 6.07,17.63 2.35,3.31 5.65,5.69 9.96,7.16l17.83 -52.06 19.08 6.54 -38.57 112.58z"/>
   <path class="fil1 str0" d="M1465.27 3669.5c-8.14,20.41 -19.85,33.26 -35.18,38.55 -12.73,4.38 -25.96,3.83 -39.63,-1.63 -15.16,-6.05 -25.6,-15.97 -31.29,-29.77 -5.66,-13.73 -5.01,-29.4 1.98,-46.89 5.66,-14.21 12.24,-24.5 19.75,-30.93 7.49,-6.43 16.23,-10.27 26.19,-11.52 9.93,-1.26 19.74,0.06 29.35,3.9 15.48,6.18 26,16.1 31.6,29.81 5.59,13.72 4.65,29.88 -2.77,48.48zm-19.16 -7.68c5.64,-14.13 6.78,-25.94 3.4,-35.4 -3.41,-9.51 -9.78,-16.12 -19.19,-19.88 -9.3,-3.71 -18.44,-3.28 -27.47,1.3 -8.99,4.6 -16.37,14.12 -22.14,28.57 -5.44,13.63 -6.44,25.2 -3.01,34.67 3.4,9.51 9.74,16.11 18.96,19.79 9.41,3.76 18.57,3.39 27.57,-1.13 8.97,-4.52 16.26,-13.83 21.88,-27.92zm-140.01 7.35l-17.99 -9.13 22.51 -44.38 -21.89 -11.1c-9.28,14.32 -19.88,23.47 -31.8,27.45 -11.94,3.97 -24.2,2.77 -36.77,-3.61 -10.7,-5.43 -18.07,-11.86 -22.04,-19.33 -4.01,-7.47 -6.12,-15.99 -6.29,-25.63 -0.18,-9.61 2.99,-20.82 9.49,-33.64 9.26,-18.26 20.46,-30.03 33.56,-35.25 13.11,-5.23 26.77,-4.2 41.02,3.03 13.23,6.71 21.59,16.48 25.16,29.3 3.52,12.84 1.91,27.15 -4.86,42.96l21.89 11.1 23.85 -47.04 18 9.13 -53.84 106.14zm-79.15 -56.61c8.79,4.46 17.35,4.56 25.69,0.31 8.31,-4.23 15.55,-12.43 21.72,-24.59 7.39,-14.56 10.33,-26.44 8.83,-35.72 -1.5,-9.3 -6.41,-16.03 -14.66,-20.21 -8.21,-4.17 -16.51,-4.44 -24.94,-0.82 -8.4,3.62 -16.16,12.41 -23.23,26.35 -6.9,13.6 -9.8,24.99 -8.71,34.06 1.07,9.12 6.16,15.99 15.3,20.62zm-155.81 -74.33l-67.6 -48.18 59.49 -83.47 -10.46 -7.45 29.15 -40.9 13.44 9.58 -19.56 27.45 76.38 54.44 19.56 -27.45 13.45 9.58 -29.15 40.89 -8.59 -6.12c-22.78,7.47 -48.15,31.34 -76.11,71.63zm-3.92 -23.35c23.64,-30.6 45.09,-50.41 64.34,-59.46l-52.1 -37.13 -49.77 69.84 37.53 26.75zm-111.54 -32.76l-14.19 18.02 -15.85 -12.48 14.18 -18.02 15.86 12.48zm87.36 -111l-73.6 93.52 -15.86 -12.48 73.6 -93.52 15.86 12.48zm-190.53 -3.15l77.55 -90.28 15.3 13.15 -30.18 35.14 8.82 7.57c5.36,4.6 9.96,7.34 13.82,8.19 3.85,0.85 11.52,-0.28 23.04,-3.43l30.34 -8.1 18.96 16.29 -37.35 10.04c-11.41,3.08 -20.05,2.93 -25.88,-0.42 7.7,8.68 11.48,17.41 11.33,26.16 -0.15,8.73 -3.09,16.43 -8.79,23.07 -6.75,7.86 -14.96,11.84 -24.68,11.96 -9.74,0.14 -19.86,-4.32 -30.36,-13.34l-41.92 -36zm26.22 0.45l21.74 18.67c9.1,7.82 16.21,11.46 21.29,10.88 5.08,-0.57 9.25,-2.78 12.51,-6.58 4.63,-5.39 6.09,-11.04 4.37,-16.89 -1.68,-5.84 -7.46,-13.02 -17.31,-21.48l-16.91 -14.52 -25.69 29.92zm-66.58 -36.98l-64.51 -68.08 86.31 -81.79 13.88 14.65 -74.15 70.27 36.74 38.78 42.98 -40.71c10.01,-9.49 16.92,-15.42 20.74,-17.83 3.83,-2.36 8.29,-3.21 13.43,-2.56 5.17,0.68 10.37,3.77 15.6,9.29 3.23,3.41 6.73,7.56 10.53,12.39l-12.18 11.55 -6.07 -6.41c-2.87,-3.03 -5.23,-4.9 -7.1,-5.6 -1.84,-0.73 -3.66,-0.64 -5.44,0.2 -1.75,0.87 -6.37,4.84 -13.83,11.91l-56.93 53.94zm-89.28 -95.15l-13.24 -15.23 35.13 -30.54 -16.75 -19.26c-10.94,-12.58 -16.91,-24.35 -17.96,-35.39 -1.01,-11.02 2.74,-20.26 11.31,-27.71 7.5,-6.52 16.35,-9.26 26.63,-8.22 10.25,1.01 20.78,7.76 31.61,20.22l33.08 38.04 -89.81 78.09zm64.11 -82.48l-13.94 -16.03c-8.4,-9.67 -15.58,-15.53 -21.53,-17.6 -5.95,-2.06 -11.45,-0.93 -16.46,3.43 -3.9,3.39 -6.03,7.92 -6.43,13.63 -0.37,5.69 3.97,13.77 13.07,24.24l15.7 18.05 29.59 -25.72zm-151.03 -19.8l-11.6 -16.51 40.54 -28.46 -32.14 -45.8 -40.54 28.45 -11.59 -16.51 97.41 -68.37 11.59 16.51 -43.17 30.3 32.15 45.81 43.17 -30.3 11.59 16.52 -97.41 68.36zm-94.35 -97.42l-19.27 12.45 -10.95 -16.95 19.27 -12.45 10.95 16.95zm118.65 -76.64l-99.97 64.57 -10.95 -16.95 99.97 -64.57 10.95 16.95zm-105.55 -89.67l-7.52 -18.43c12.83,-4.93 24.75,-5.49 35.87,-1.63 11.11,3.84 19.92,11.41 26.42,22.62 8.15,14.04 10.12,28.01 5.89,41.87 -4.23,13.9 -14.91,25.8 -32.04,35.74 -11.1,6.44 -21.86,10.21 -32.32,11.38 -10.43,1.14 -19.91,-0.83 -28.42,-5.96 -8.53,-5.09 -15.34,-12.05 -20.48,-20.91 -6.46,-11.14 -8.97,-21.91 -7.42,-32.27 1.52,-10.39 6.91,-19.61 16.13,-27.62l12.36 15.36c-5.95,5.63 -9.5,11.48 -10.61,17.65 -1.09,6.11 0.04,12.08 3.42,17.91 5.1,8.79 12.38,14.11 21.87,15.98 9.5,1.83 21,-1.18 34.62,-9.09 13.81,-8.01 22.29,-16.47 25.48,-25.39 3.15,-8.95 2.29,-17.67 -2.65,-26.17 -3.99,-6.88 -9.39,-11.39 -16.23,-13.51 -6.82,-2.18 -14.97,-1.35 -24.37,2.47zm-81.7 6.57l-43.31 -86.02 14.95 -7.53 17.12 34 91.35 -45.98 9.07 18.02 -91.35 45.99 17.12 33.99 -14.95 7.53zm-56.06 -115.43l-7.43 -18.76 46.26 -18.33 -9.04 -22.82c-16.44,4.58 -30.45,4.42 -42.01,-0.5 -11.58,-4.94 -19.96,-13.96 -25.15,-27.07 -4.42,-11.15 -5.68,-20.85 -3.71,-29.07 1.95,-8.25 6.02,-16.04 12.27,-23.37 6.24,-7.32 16.03,-13.62 29.39,-18.92 19.04,-7.54 35.23,-8.94 48.5,-4.16 13.28,4.76 22.84,14.58 28.72,29.44 5.47,13.78 5.26,26.65 -0.56,38.61 -5.87,11.95 -16.56,21.61 -32.1,28.96l9.04 22.82 49.03 -19.43 7.43 18.76 -110.64 43.84zm-21.8 -94.84c3.63,9.17 9.99,14.91 19.05,17.25 9.02,2.34 19.88,0.99 32.56,-4.03 15.17,-6.01 25.25,-12.96 30.28,-20.91 5.03,-7.96 5.81,-16.25 2.4,-24.85 -3.39,-8.56 -9.43,-14.27 -18.14,-17.14 -8.69,-2.85 -20.32,-1.4 -34.85,4.35 -14.18,5.62 -23.9,12.23 -29.09,19.75 -5.24,7.54 -5.98,16.06 -2.21,25.58zm52.72 -176.91l-158.06 44.44 -5.9 -20.97 158.06 -44.44 5.9 20.97zm-170.15 -92.02l-20.53 3.75 -3.67 -20.07 20.53 -3.76c-2.68,-20.76 0.55,-38.13 9.69,-52.09 9.14,-13.98 22.07,-22.49 38.84,-25.56 16.43,-3 31.43,0.19 45.04,9.63 13.59,9.44 22.94,24.67 28,45.77l20.76 -3.8 3.67 20.08 -20.76 3.8c2.75,19.24 -0.16,36.2 -8.78,50.91 -8.58,14.7 -21.88,23.71 -39.86,27 -18.01,3.29 -33.6,-0.42 -46.75,-11.11 -13.15,-10.69 -21.84,-25.53 -26.18,-44.55zm14.6 -23.42l85.03 -15.57c-3.2,-13.66 -9.2,-23.76 -18.02,-30.34 -8.82,-6.59 -19.7,-8.67 -32.63,-6.31 -12.7,2.33 -22.03,8.04 -28.05,17.18 -5.98,9.14 -8.09,20.79 -6.33,35.04zm3.9 20.03c3.03,13.2 8.91,23.23 17.71,30.13 8.8,6.9 19.71,9.19 32.75,6.8 12.89,-2.36 22.26,-8.27 28.14,-17.75 5.9,-9.46 7.86,-21.01 5.98,-34.66l-84.58 15.48zm-67.75 -194.73l-0.63 -21.58 124.79 -84.4 -127.17 3.76 -0.61 -20.63 164.12 -4.85 0.63 21.63 -124.21 84.57 126.6 -3.73 0.6 20.39 -164.12 4.84zm71.96 -139.99c-13.25,0.39 -23.9,-3.01 -31.99,-10.18 -8.1,-7.23 -12.31,-16.93 -12.67,-29.15 -0.36,-12.19 3.4,-22.01 11.28,-29.51 7.84,-7.53 18.63,-11.48 32.34,-11.89 13.87,-0.41 24.94,3.02 33.22,10.27 8.32,7.29 12.67,17.06 13.03,29.36 0.31,10.58 -3.08,19.97 -10.14,28.13 -7.06,8.16 -18.75,12.49 -35.07,12.97zm0.04 -19.5c10.05,-0.3 17.59,-2.51 22.55,-6.67 5,-4.17 7.42,-9.17 7.24,-15.05 -0.16,-5.47 -2.74,-10.24 -7.79,-14.34 -5.06,-4.1 -12.58,-5.98 -22.58,-5.68 -10.51,0.31 -18.05,2.71 -22.62,7.25 -4.57,4.52 -6.75,9.41 -6.6,14.64 0.17,5.66 2.76,10.43 7.77,14.38 4.97,3.94 12.32,5.75 22.03,5.47zm58.19 15.49l-2.24 -76.11 16.5 -0.49 2.24 76.11 -16.5 0.49zm-47.9 -106.52c-19.32,-1.47 -34.79,-4.64 -46.31,-9.5 -11.54,-4.91 -20.2,-11.51 -25.97,-19.84 -5.76,-8.3 -8.17,-18.41 -7.27,-30.3 0.67,-8.76 3,-16.33 7.06,-22.73 4.04,-6.36 9.56,-11.46 16.56,-15.22 6.95,-3.76 15.33,-6.5 25.08,-8.21 9.75,-1.75 22.76,-1.99 38.96,-0.75 19.21,1.46 34.6,4.63 46.12,9.44 11.56,4.84 20.21,11.43 26.01,19.78 5.81,8.29 8.26,18.45 7.35,30.41 -1.2,15.73 -7.75,27.69 -19.67,35.83 -14.54,9.75 -37.16,13.43 -67.92,11.09zm1.64 -20.58c26.94,2.05 45.1,0.3 54.41,-5.32 9.36,-5.61 14.37,-13.05 15.07,-22.27 0.71,-9.23 -3.16,-17.34 -11.56,-24.3 -8.44,-6.97 -26.07,-11.45 -52.94,-13.5 -26.95,-2.05 -45.09,-0.29 -54.41,5.33 -9.35,5.58 -14.37,13.09 -15.09,22.5 -0.7,9.22 2.66,16.91 10.06,23.03 9.41,7.66 27.6,12.49 54.46,14.53zm10.07 -116.94c-19.07,-3.49 -34.12,-8.26 -45.06,-14.3 -10.97,-6.1 -18.89,-13.56 -23.75,-22.45 -4.86,-8.86 -6.2,-19.17 -4.05,-30.9 1.58,-8.65 4.69,-15.92 9.39,-21.86 4.69,-5.91 10.72,-10.39 18.07,-13.4 7.31,-3.01 15.93,-4.86 25.81,-5.54 9.88,-0.72 22.84,0.41 38.82,3.34 18.95,3.47 33.93,8.23 44.87,14.23 10.99,6.01 18.91,13.48 23.8,22.39 4.91,8.86 6.28,19.21 4.12,31.02 -2.84,15.52 -10.61,26.72 -23.32,33.57 -15.48,8.16 -38.37,9.45 -68.7,3.9zm3.78 -20.29c26.58,4.87 44.82,5.02 54.67,0.41 9.9,-4.59 15.66,-11.47 17.33,-20.57 1.66,-9.1 -1.33,-17.57 -8.96,-25.37 -7.66,-7.82 -24.72,-14.12 -51.23,-18.98 -26.58,-4.86 -44.81,-5.01 -54.67,-0.4 -9.89,4.56 -15.66,11.51 -17.36,20.79 -1.66,9.1 0.87,17.1 7.58,23.96 8.56,8.6 26.14,15.31 52.64,20.16zm21.07 -110.64c-18.87,-4.39 -33.69,-9.87 -44.33,-16.42 -10.66,-6.61 -18.22,-14.44 -22.66,-23.55 -4.44,-9.08 -5.28,-19.45 -2.58,-31.06 1.99,-8.56 5.44,-15.68 10.42,-21.39 4.96,-5.68 11.19,-9.87 18.68,-12.53 7.45,-2.66 16.14,-4.1 26.04,-4.3 9.91,-0.26 22.8,1.48 38.62,5.16 18.76,4.36 33.5,9.83 44.15,16.34 10.69,6.53 18.24,14.36 22.71,23.49 4.48,9.08 5.36,19.49 2.64,31.18 -3.57,15.37 -11.85,26.2 -24.87,32.43 -15.86,7.42 -38.78,7.63 -68.82,0.65zm4.74 -20.09c26.32,6.12 44.53,7.14 54.59,3 10.11,-4.12 16.19,-10.72 18.28,-19.73 2.1,-9.01 -0.49,-17.62 -7.74,-25.77 -7.28,-8.17 -24.03,-15.28 -50.28,-21.38 -26.32,-6.11 -44.52,-7.13 -54.59,-2.99 -10.09,4.09 -16.18,10.75 -18.32,19.95 -2.1,9.01 0.06,17.12 6.44,24.29 8.14,8.99 25.38,16.53 51.62,22.63zm28.18 -113.62c-18.33,-6.28 -32.51,-13.24 -42.43,-20.84 -9.94,-7.65 -16.67,-16.21 -20.15,-25.73 -3.5,-9.48 -3.29,-19.87 0.58,-31.15 2.85,-8.32 7,-15.05 12.54,-20.23 5.51,-5.14 12.14,-8.68 19.85,-10.56 7.68,-1.9 16.48,-2.45 26.35,-1.64 9.88,0.75 22.52,3.79 37.9,9.06 18.22,6.24 32.32,13.18 42.26,20.74 9.97,7.58 16.69,16.14 20.21,25.67 3.53,9.49 3.35,19.93 -0.54,31.29 -5.12,14.92 -14.46,24.85 -28.04,29.73 -16.53,5.78 -39.35,3.66 -68.53,-6.34zm6.76 -19.5c25.56,8.76 43.58,11.62 54,8.52 10.47,-3.07 17.19,-9.02 20.19,-17.77 3,-8.75 1.3,-17.57 -5.09,-26.42 -6.41,-8.87 -22.35,-17.64 -47.85,-26.37 -25.56,-8.76 -43.56,-11.62 -54,-8.52 -10.45,3.04 -17.19,9.05 -20.25,17.98 -3,8.75 -1.68,17.04 3.94,24.82 7.19,9.78 23.57,19.03 49.06,27.76zm112.18 -66.23l-139.92 -107.2 6.02 -15.09 139.92 107.21 -6.02 15.08zm-48.02 -103.86c-17.68,-7.94 -31.16,-16.17 -40.34,-24.64 -9.19,-8.54 -15.11,-17.68 -17.71,-27.47 -2.6,-9.77 -1.44,-20.1 3.44,-30.97 3.6,-8.02 8.36,-14.35 14.35,-18.99 5.96,-4.62 12.88,-7.54 20.74,-8.7 7.82,-1.18 16.62,-0.92 26.38,0.78 9.77,1.66 22.08,5.85 36.91,12.51 17.57,7.88 30.98,16.08 40.18,24.52 9.23,8.47 15.13,17.61 17.76,27.43 2.65,9.77 1.51,20.15 -3.4,31.1 -6.47,14.39 -16.68,23.42 -30.66,27.04 -16.98,4.23 -39.51,0.02 -67.65,-12.61zm8.52 -18.8c24.65,11.07 42.32,15.57 52.99,13.44 10.71,-2.09 17.95,-7.4 21.73,-15.83 3.79,-8.44 2.91,-17.39 -2.64,-26.79 -5.57,-9.41 -20.64,-19.61 -45.22,-30.65 -24.65,-11.06 -42.32,-15.56 -52.99,-13.44 -10.69,2.07 -17.96,7.44 -21.82,16.05 -3.79,8.44 -3.24,16.81 1.64,25.08 6.26,10.39 21.73,21.11 46.31,32.14zm158.35 -130.65l-10.19 17.42 -110.91 -64.87c1.57,6.53 2.35,14.38 2.36,23.51 0.02,9.13 -0.57,17.02 -1.75,23.59l-16.82 -9.84c1.13,-12.4 0.57,-24.15 -1.7,-35.26 -2.24,-11.09 -5.51,-19.96 -9.86,-26.58l6.56 -11.21 142.31 83.24zm34.21 -55.27l-19.33 -12.33 12.33 -19.33 19.33 12.33 -12.33 19.33zm-36 -92.37c-15.78,-11.24 -27.39,-21.96 -34.73,-32.07 -7.34,-10.17 -11.35,-20.29 -11.98,-30.41 -0.64,-10.08 2.52,-19.98 9.44,-29.69 5.1,-7.16 11.01,-12.43 17.79,-15.81 6.75,-3.36 14.11,-4.86 22.04,-4.47 7.9,0.38 16.49,2.36 25.72,5.94 9.26,3.54 20.51,10.06 33.74,19.49 15.69,11.18 27.23,21.85 34.6,31.93 7.39,10.11 11.39,20.23 12.05,30.37 0.68,10.1 -2.48,20.06 -9.44,29.83 -9.16,12.85 -20.94,19.71 -35.36,20.51 -17.48,0.83 -38.75,-7.72 -63.87,-25.62zm12.04 -16.76c22,15.68 38.45,23.56 49.33,23.56 10.91,0.05 19.05,-3.74 24.41,-11.27 5.37,-7.53 6.26,-16.48 2.66,-26.78 -3.62,-10.33 -16.39,-23.28 -38.34,-38.92 -22,-15.68 -38.45,-23.55 -49.33,-23.56 -10.89,-0.06 -19.06,3.77 -24.54,11.46 -5.37,7.53 -6.47,15.85 -3.3,24.91 4.1,11.42 17.17,24.96 39.11,40.6zm180.44 -97.51l-13.15 15.31 -97.47 -83.72c0.38,6.72 -0.27,14.57 -1.9,23.56 -1.61,8.99 -3.61,16.64 -5.95,22.89l-14.78 -12.7c3.33,-11.99 4.89,-23.65 4.65,-35 -0.21,-11.3 -1.84,-20.61 -4.93,-27.91l8.46 -9.85 125.07 107.42zm44.24 -47.61l-16.57 -15.85 15.85 -16.57 16.57 15.85 -15.85 16.57zm-17.35 -97.33c-13.33,-14.06 -22.66,-26.81 -27.93,-38.14 -5.25,-11.39 -7.24,-22.09 -5.92,-32.14 1.31,-10.02 6.31,-19.13 14.97,-27.33 6.38,-6.05 13.18,-10.09 20.49,-12.1 7.27,-2 14.78,-2.07 22.49,-0.15 7.68,1.88 15.73,5.47 24.1,10.76 8.4,5.25 18.2,13.81 29.37,25.61 13.25,13.98 22.53,26.66 27.83,37.97 5.31,11.34 7.3,22.04 5.99,32.12 -1.27,10.04 -6.27,19.21 -14.98,27.46 -11.46,10.86 -24.34,15.32 -38.64,13.34 -17.32,-2.54 -36.55,-15.01 -57.77,-37.4zm15.03 -14.14c18.59,19.61 33.22,30.5 43.9,32.6 10.7,2.13 19.41,-0.02 26.12,-6.38 6.71,-6.36 9.3,-14.97 7.75,-25.77 -1.57,-10.83 -11.63,-25.99 -30.16,-45.56 -18.59,-19.61 -33.21,-30.5 -43.89,-32.59 -10.68,-2.15 -19.44,0.05 -26.29,6.54 -6.71,6.36 -9.39,14.31 -8.02,23.81 1.84,12 12.06,27.79 30.59,47.35zm86.15 -77.49c-12.05,-15.18 -20.24,-28.69 -24.5,-40.44 -4.23,-11.8 -5.28,-22.64 -3.08,-32.53 2.17,-9.88 7.95,-18.51 17.29,-25.93 6.88,-5.46 14.02,-8.89 21.47,-10.26 7.42,-1.36 14.91,-0.77 22.42,1.81 7.49,2.55 15.19,6.83 23.07,12.83 7.91,5.96 16.92,15.35 27.02,28.08 11.97,15.08 20.11,28.53 24.4,40.25 4.31,11.76 5.35,22.6 3.17,32.52 -2.14,9.9 -7.93,18.59 -17.33,26.06 -12.36,9.81 -25.58,13.13 -39.65,9.91 -17.03,-4.05 -35.11,-18.15 -54.28,-42.3zm16.21 -12.78c16.8,21.16 30.42,33.29 40.87,36.3 10.48,3.07 19.34,1.69 26.58,-4.07 7.25,-5.75 10.58,-14.1 9.97,-24.99 -0.61,-10.93 -9.31,-26.91 -26.06,-48.02 -16.8,-21.16 -30.42,-33.28 -40.88,-36.3 -10.44,-3.07 -19.36,-1.65 -26.75,4.22 -7.25,5.75 -10.61,13.44 -10.07,23.02 0.78,12.11 9.59,28.74 26.34,49.84z"/>
  </g>
  <path class="fil2 str1" d="M2077.75 3009.36l88.66 31.74c-38.85,34.15 -75.79,19.88 -113.67,7.68 11.38,-32.35 4.61,-21.36 25.01,-39.42zm-413.62 46.7c11.54,-39.05 5.68,-25.52 34.26,-38.67 29.51,-13.58 19.3,-12.27 41.39,-31.84l45.53 34.25c-36.01,36.83 -62.36,52.09 -121.18,36.26zm438.98 -70.34c-4.34,-77.2 14.35,-166.2 27.85,-237.89 17.06,77.99 5.71,185.1 18.25,259.52l-46.1 -21.63zm-377.38 -117.41c45.2,8.06 -13.45,28.44 54.53,53.84 40.49,15.13 60.57,-11.88 79.87,-35.98l-21.69 62.67 -51.44 11.86c3.11,9.1 -21.73,23.81 31.66,17.55 53.71,-6.29 29.53,-64.23 75.47,-82.52 -11.2,42.86 -36.17,88.22 -43.14,122.66 34.95,-13.15 42.05,-55.59 56.47,-98.4 10.02,-29.75 29.1,-95.62 40.24,-121.45 2.19,53.7 -3.58,111.16 -13.27,160.29 -11.75,59.57 -26.04,83.18 -90.04,76.36 -28.82,-38.97 -5.65,-19.96 -50.95,-40.48 -29.94,-13.55 -26.05,-24.07 -61.7,-37.63 -34.19,19.49 -9.85,28.79 -44.23,32.06 13.74,-23.42 26.44,-37.59 37.14,-66.78 19.45,14.47 16.01,21.83 44.42,22.82 -4.16,-28.85 -4.09,-13.32 -20.72,-32.76 -14.93,-17.47 -16,-17.5 -22.62,-44.11zm301.64 -531.22c14.12,31.18 16.92,431.69 16.41,496.07 -0.45,57.88 -9.85,134.45 15.45,166.6 -13.27,9.38 -21.64,20.4 -32.09,32.51 -51.06,-6.55 12.68,-18.19 -86.6,-3.28 9.54,-55.62 20.88,-85.5 25.77,-150.92 4.21,-56.45 11.74,-111.63 17.55,-164.13 10.82,-97.81 0.44,-253.56 19.55,-341.38 1.4,43.95 -0.99,105.38 3.48,146.06 13.69,124.84 15.13,19.62 -6.64,115.1 -11.38,49.91 -14.09,260.07 5.08,298.46 1.1,-2.02 2.13,-7.71 2.39,-6.55 0.27,1.18 1.82,-5.03 2.14,-6.76 8.91,-47.96 -3.17,-229.78 11.99,-287.42 7.56,-28.72 18.74,-28.19 17.44,-61.96 -0.74,-19.07 -10.18,-44.12 -11.57,-71.21 -2.63,-51.26 0.89,-107.89 -0.35,-161.19zm-174.9 515.76c0.81,-2.14 2.35,-7.59 2.82,-6.24l11.58 -23.67c32.88,-68.87 57.28,-154.76 72.4,-229.63 22.06,-109.33 38.54,-192.61 39.42,-310.31 -8.42,45.82 7.43,315.46 -66.08,563.18l-10.13 -1.06c-15.02,-1.29 -2.57,-2.46 -18.2,-1.62 -27.65,1.48 -9.05,-2.46 -31.81,9.35zm225.28 130.24c-30.27,-21.07 -12.95,-70.48 -12.67,-150.1 0.2,-55 -5.14,-99.82 -3.78,-158.9 3.1,-134.26 -5.72,-196.09 -6.65,-316.68 20.58,8.82 66.27,49.36 83.48,66.78 -13.75,49.04 -8.73,208.75 -21.44,284.24 -7.57,44.95 -16.3,89.13 -22.62,134.18 -3.3,23.6 -6.6,46.08 -7.7,70.35l-2.6 50.98c-3.31,18.57 -0.61,9.54 -6.02,19.15zm346.02 -700.67c1.54,1.62 3.92,1.73 4.56,4.92l56.36 101.13 -107.21 0.69c11.4,-33.59 30.23,-79.19 46.29,-106.74zm281.81 -16.37l58.29 114 -104.78 -1.48 35.33 -96.4c10.31,-18.6 4.94,-8.16 11.16,-16.12zm-1068.83 -86.47c17.9,45.85 8.39,158.98 22.8,220.45 9.78,41.73 25.46,26.87 -0.24,50.63 -36.05,-22.21 -6.1,-21.6 -43.41,-72.48 -20.72,-28.24 -37.68,-36.21 -34.23,-79.39 18.55,0.07 14.52,3.31 15.87,4.68 11.97,12.17 -15.42,4.69 11.38,14.81 50.1,-47.93 0.79,-75.41 27.83,-138.7zm-81.66 57.45c8.77,-38.26 2.25,-27.32 39.85,-36.4l15.7 49.17 -55.55 -12.77zm297.38 615.82c-14.2,33.55 -35.33,70.05 -79.14,40.97 -40.49,-26.85 5.96,10.21 -10.4,-27.86 -17.17,-39.94 -19.49,10 -20,-45.14 -0.79,-85.86 8.47,-201.11 46.14,-260.14 60.52,-94.85 50.72,-79.78 20.44,-244.59 -11.9,-64.79 -40.91,-211.02 -5.84,-270.7 31.17,88.91 11.8,30.12 16.12,135 1.63,39.61 1.25,96.7 31.99,113.25l-15.3 -174.51c41.21,35.77 28.22,48.61 25.61,122.62 -1.79,50.85 -1.57,108.75 22.31,138.64 7.95,-14.59 -0.4,-159.88 0.61,-200.48 71.81,76.97 88.65,85.6 57.38,283.97 -8.68,55.1 -51.34,193.96 -101.25,216.47l-36.26 11.76c53.23,37.01 71.87,-20.1 96.26,-44.26 -49.86,231.15 -83.46,178.86 -118.73,240.23 54.35,-5.01 38.26,-15.08 70.06,-35.23zm-267.57 -1051.54c35.27,47.53 37.93,295.14 37.22,347.84l-73.5 4.77c-17.89,-87.56 4.87,-275.17 36.28,-352.61zm82.46 95.49c22.29,44.09 49.95,417.95 49.65,495.62l-37.66 21.07c-10.71,-84.65 -14.8,-181.04 -20.94,-268.63l-16.47 -194.76c-1.27,-52.06 -5.62,-21.51 25.42,-53.3zm219.26 84.11c43.23,32.52 69.01,53.37 133.84,76.87 68.36,24.78 123.44,36.2 169.45,-9.6 -7.81,36.92 -19.06,39.88 -33.23,68.02l-49.52 -9.2 5.58 43.08c-131.77,-24.14 -199.45,-147.11 -226.12,-169.17zm-265.07 -160.18l38.33 2.11c8.29,27.45 -0.15,37.51 -10.99,54.02 -17.27,-13.66 -33.08,-19.81 -27.34,-56.13zm375.73 93.15l1.75 -152.75c28.67,-13.4 12.99,-8.86 46.3,-4.59l18.61 168.21c-65.4,-5.5 -23.06,-18.22 -38.1,-92.96 -11.59,-57.59 -1.84,-16.61 -16.75,-35.61 -1.96,18 -3.01,36.3 -2.8,57.2 0.8,78.79 -0.3,49.14 -9.01,60.5zm-28.61 -11.71l-44.74 -18.88c2.02,-35.03 5.06,-50.26 11.62,-80.28 9.99,-45.73 5.4,-45.88 37.59,-44.41 12.95,33.22 0.64,102.89 -4.47,143.57zm-298.54 -125.07c163.61,66.56 336.82,589.62 444.73,525.22 -29.92,-21.75 -33.58,-6.18 -64.63,-39.26 -38.83,-41.39 -89.19,-147.29 -119.73,-199.89 3.47,11.3 120.81,124.76 203.58,106.5 13.79,-28.88 -1.74,-19.93 22.86,-34.32 70.48,-41.22 64.74,-147.12 65.66,-148.7 13.03,31.73 9.18,215.34 -127.93,207.97 -34.78,-1.87 -27.3,-5.95 -40.62,5.42 30.86,21.49 55.37,21.05 96.32,7.52l-12.68 38.3c-28.9,2.21 -14.59,-9.31 -32.27,4.81 28.25,44.92 47.8,3.31 72.98,-22.33 29.46,-29.97 23.02,-56.63 44.19,-93.74 24.02,66.99 -84.96,178.54 -88.03,186.22 40.9,-3.86 33.42,-17.58 63.08,-37.25 -29.42,97.89 4.56,136.44 -14.17,205.36 -13.3,-17.54 -0.15,-45.18 0.54,-72.79 -29.51,-21.6 -47.91,-43.77 -75.57,-68.02 -57.56,-50.47 1.25,2.89 -34.58,-9.55 -55.71,-19.35 -241.84,-271.57 -290.08,-374.62 -41.55,-88.78 -70.21,-119.85 -113.65,-186.85zm559.74 -20.85c7.67,-32.52 15.7,-35.98 35.3,-51.2 52.63,72.78 75.52,22.18 184.64,137.46 47.2,49.85 76.29,55.71 87.52,79.42 24.64,52.03 15.29,71.36 -7.91,116.95 -24.64,-60.19 10.59,-90.82 -29.64,-118.96 -47.53,-33.25 -155.97,1.96 -269.91,-163.67zm-137.18 -17.61c7.83,17.32 20.51,39.08 27.07,59.33 8.62,26.6 5.84,49.4 14.32,69.01 19.29,-21.65 9.32,-38.73 7.82,-75.3 22.76,28.92 31.59,72.99 31.46,122.26l-89.74 11.75c-4.67,-57.16 -2.88,-121.18 -18.62,-170.38l27.69 -16.67zm-398.56 -22.67c217.24,127.87 207.96,312.31 528.09,205.09 -11.02,34.35 -17.74,46.73 -41.6,63 -10.16,6.94 -19.7,10.87 -33.98,14.33l-43.89 13.88c24.89,11.65 50.44,7.68 79.06,-1.08 -46.66,116.86 -244.64,-12.8 -287.88,-53.27 -41.14,-38.51 -199.68,-186.75 -199.8,-241.95zm-75.05 67.89c-7,-9.35 -7.38,-4.97 -13.19,-23.28 -9.07,-28.57 -5.41,-57.57 8.16,-79.38 0.78,1.65 12.19,21.32 12.52,23.95 1.4,11.03 1.23,-3.96 -2.66,12.27 -0.22,0.93 -1.63,7.18 -1.83,5.83 -0.22,-1.5 -1.47,4.28 -1.86,6.52 56.99,55.96 -1.13,54.08 -1.14,54.09zm88.04 -82.34c23.91,-43.52 6.69,-22.14 11.06,-50.97 4.21,-27.66 73.13,-96.66 85.98,-112.23l53.27 32.53c-10.95,44.7 -16.24,47.24 -28.91,79.85 -13.86,35.71 -5.96,52.13 -11.49,93.68 -31.78,-46.91 -47.11,-38.28 -109.91,-42.86zm439.4 -177.6l-8.79 11.61c-14.54,-27 -16.68,-28.21 -20.79,-60.52 57.93,27.05 46.92,64.42 107.6,146.79l38.75 40.36c0.78,-1.62 2.9,3.78 4.19,5.8 -22.54,45.37 -48.38,28.75 -65.03,102.6 -8.11,-46.6 0.98,-63.95 22.01,-93.78 -16.86,8.09 -20.98,7.33 -32.99,27.72l-17.15 35.94c-13.5,-14.21 -26.03,-24.35 -40.02,-36.35 12.08,-19.72 97.34,-74.08 12.22,-180.17zm-266.66 35.77c-3.72,-49.92 -16.64,-50.92 -1.74,-92.76 55.89,24.62 56.55,33.43 134.89,32.49 11.75,43.37 14.25,36.47 5.44,85.91 -6.82,38.2 -5.29,57.49 25.04,62.65 -26.49,-73.74 23.4,-68.56 -12.56,-156.76 48.39,-21.11 15.23,-30.43 62.92,-25.24 9.45,14.75 0.3,-3.1 6.71,18.72 0.76,2.56 2.66,10.87 3.39,13.63 4.39,16.56 0.59,6.44 7.36,26.7 46.38,138.89 -24.66,100.17 -4.16,178.25l-32.26 12.09c-1.34,0.53 -3.62,1.68 -4.9,2.12 -1.17,0.41 -3.46,1.38 -4.58,1.68 -14.99,4.09 2.77,1.08 -16.7,0.78 -32,-0.49 -35.69,8.56 -47.86,9.08 -27.29,1.15 -5.36,-5.25 -27.42,-7.76l-15.45 0.61c-20.09,-4.88 4.44,2.42 -15.7,-8.93l-8.93 -5.02c-34.61,-15.64 -28.19,3.81 -81.39,-46.35 14.84,-67.09 57.12,-61.43 54.58,-132.43 -14.24,1.71 -16.57,-2.85 -26.68,30.54zm-107.89 -41.65c-19.95,-16.24 -9.84,-38.11 -1.64,-63.93 12.78,-40.24 16.55,-33.97 59.8,-34.15l-18.17 18.66c-33.44,32.36 -22.89,20.41 -35.25,67.66 -0.39,1.46 -1.97,7.24 -2.26,6.07 -0.28,-1.11 -1.56,3.84 -2.48,5.69zm277.84 -246.23l43.12 -9.26c1.38,43.95 6.09,5.1 -8.53,32.47 -11.28,21.12 -11.41,13.6 -14.11,19.1 -11.16,22.75 -1.88,14.6 2.61,53.43l-68.28 0.58c22.89,47.56 18.57,7.29 16.81,79.11 29.43,23.45 13.42,-19.2 23.64,15.83 -68.24,19.87 -93.96,24.05 -151.22,-15.24 15.02,-28.44 37.1,-37.09 52.71,-65.26 14.93,-26.96 6.79,-32.35 32.99,-85.46 -20.81,-31.72 32.58,-26.4 -30.55,-26.4 -12.34,16.35 -5.94,0.68 -13.95,25.87 -8.48,26.67 3.89,21.48 -10.19,53.5 -35.67,-49.34 -1.38,-49.91 8.01,-96.57 -47.09,47.77 -52.23,11.68 -56.25,8.33 5.81,-37.13 -3.77,-16.23 18.49,-30.22 26.35,-16.56 77.07,-6.14 77.12,-6.14 26.83,-1.62 58.74,-35.3 111.77,-42.84l8.09 54.82c-25.33,10.77 -49.55,0.51 -42.28,34.35zm-92.17 -160.83c-11.78,-43.95 -1.5,-44.37 51.2,-37.17 -37.92,-7.42 -38.88,7.64 -47.25,17.56 39.83,-3.15 53.77,3.43 87.89,11.93l-20.09 8.97c-2.61,0.9 -11.07,2.61 -13.67,3.47 -68.66,22.82 -0.57,35.32 -62.93,34.21 9.76,15.81 1.42,5.75 14.09,20.38 8.32,9.6 -0.73,1.12 13.47,9.73 -42.62,-4.94 -58.33,-3.22 -83.15,-15.34 1.28,-20.25 1.87,-26.9 14.58,-40.37 19.83,-21.01 10.69,-13.91 45.86,-13.37zm87.52 300.95c18.4,-43.52 10.03,-0.12 37.43,-29.98 21.56,-23.5 6.18,-11.21 13.82,-47.02 14.76,-69.14 19.96,-7.96 12.9,-87.69 -6.2,-70.1 -22.59,-148.96 -71.48,-180.43 -66.55,-42.82 -104.68,8.02 -134.76,21.49 -49.93,22.37 -21.41,0.03 -54.69,45.65l-7.44 9.43c-69.26,79.79 -15.99,80.22 25.52,109.63 0.19,67.2 -15.76,82.17 22.86,118.32 -57.13,28.56 -15.13,13.53 -84.49,29.17 -106.68,24.05 -21.11,166.62 -130.53,247.97 -9.86,-21.4 -61.94,-526.45 -104.62,-624.8 -0.64,-1.48 -2.87,-2.67 -3.37,-6.1 -0.5,-3.46 -2.24,-4.13 -3.56,-6.06 -45.83,96.84 16.9,499.92 24.12,629.97 -34.22,25.77 -51.9,6.27 -55.52,52.97l48.54 17.66c-2.52,96.85 -85.65,325.63 -56.62,430.22 7.68,27.65 11.91,14.56 13.31,46.73 1.03,23.56 -7.1,21.36 -0.69,47.87 7.99,33.07 8.6,7.91 18.4,42.13 4.7,16.37 4.61,35.35 8.49,51.41 10.43,43.28 29.96,44.87 46.04,72.66 19.69,34.05 5.63,48.61 34.4,77.88 73.6,5.9 6.68,-37.88 97.28,-68.67 0.99,-24.49 -2.23,-62.11 -0.08,-82.02 4.96,-45.78 5.76,-7.62 17.63,-50.61 15.11,-54.77 -39.58,-300.3 -42.22,-390.45 18.84,17.61 60.13,93.96 60.94,122.76 1.24,44.12 -18.21,103.25 -11.54,175.46 5.81,62.88 56.85,271.75 35.85,315.74 -23.85,49.96 -43.68,50.45 -62,126.94 -12.86,53.73 -13.07,106.32 -19.88,164.32 -4.01,34.22 -15.18,53.47 -16.35,74.25 -2.32,41.04 14.53,32.22 -12.17,69.42 -31.91,44.46 -13.25,5.89 -28.8,67.61 -6.74,26.75 -14.55,28.28 -17.95,65.36 66.7,32.98 114.8,4.34 160.23,-33.98l22.7 18.9c46,23.34 111.88,-28.1 185.88,-1.12 59.72,21.78 144.13,71.81 182.13,-18.49 -26.24,-61.82 -33.63,-8.25 -33.86,-150.01 -0.28,-167.06 -15.17,-108.88 16.28,-262.1 6.62,-32.24 3.31,-52.43 7.02,-81.36 5.73,-44.74 20.04,-25.87 27.25,-71.27 10.92,-68.68 -29.36,-82.41 7.69,-172.67 21.61,-52.64 0.73,-30.46 6.82,-72 2.66,-18.11 18.65,-47.24 23.48,-71.72 7.47,-37.82 -3.55,-46.1 -5.51,-64.84 -2.47,-23.53 9.8,-57.01 7.62,-87.75 -4.26,-60.17 -16.84,-23 -12.31,-62.53 6.15,-53.74 15.66,-26.49 -8.88,-69.18 -2.68,-4.66 -8.45,3.39 -12.49,-29.33 -5.55,-44.91 -5.34,-10.85 5.28,-29.54 55.86,0.06 26.95,74.73 204.65,107.25 104.36,19.1 60.8,49.74 71.82,97.96 3.37,14.76 17.4,33.26 25.17,59.91 11.75,40.36 23.88,102.09 27.18,151.86l-156.64 -0.39c-8.31,46.37 11.04,8.02 0.36,61.78 -10.59,53.24 -71.83,109.93 -40.82,158.42 27.84,43.54 122.5,69.74 171.29,-30.51 -8.09,-28.16 -6.66,-12.29 -24.35,-41.51l-65.58 -127.29c165.67,-0.83 72.46,5.52 132.27,30.31l22.25 -22.12c16.69,-9.9 1.95,-4.96 25.3,-7.05 17.02,-1.53 48.66,0.79 67.91,0.43 -8.87,30.32 -20.82,54.09 -31.72,82.91 -16.19,42.82 -18.4,41.24 -41.55,66.66 21.74,118.33 150.97,97.9 192.08,8.83 -12.1,-31.81 -9.1,-6.54 -29.9,-47.87 -92.74,-184.27 -12.2,-139.33 -115.45,-132.02 -25.81,1.83 -51.58,0.53 -77.36,-1.05 2.37,-28.87 3.85,-62.21 6.63,-93 9.58,-106 44.17,-46.52 -11.58,-157.11 -34.34,-68.13 12.88,-58.95 -53.45,-100.44 -32.78,-20.5 -61,-52.35 -86.64,-81.24 -52.15,-58.78 -68.75,-43.04 -132.06,-85.12 -25.42,-99.3 9.9,-25.39 -52.61,-92.06 -24.33,-25.94 -37.23,-49.98 -50.96,-85.2 -51.95,-133.25 -124.92,-62.9 -154.34,-122.54z"/>
  <path class="fil1 str2" d="M1253.65 521.32c-0.55,-8.27 -2.44,-16.53 -5.71,-24.74 -4.6,-11.78 -6.9,-19.92 -6.9,-24.36 0,-6.29 1.68,-11.04 4.95,-14.31 3.34,-3.27 7.46,-4.87 12.4,-4.87 4.18,0 7.87,1.6 11.01,4.87 3.13,3.27 4.66,7.9 4.66,13.94 0,5.43 -1.81,12.95 -5.36,22.64 -3.62,9.74 -5.85,18.68 -6.69,26.83 7.53,-4.2 14.21,-9.31 20.21,-15.36 9.26,-9.5 16.16,-15.42 20.62,-17.7 4.53,-2.29 9.06,-3.4 13.72,-3.4 4.46,0 8.23,1.37 11.29,4.08 3.07,2.65 4.6,5.92 4.6,9.62 0,4.5 -2.23,8.45 -6.76,11.97 -4.46,3.45 -15.67,6.96 -33.65,10.48 -10.45,2.04 -19.16,4.38 -26.13,7.03 7.11,3.27 15.75,5.74 25.92,7.4 16.44,2.65 27.24,5.98 32.33,9.93 5.15,4.01 7.66,8.33 7.66,13.02 0,3.64 -1.53,6.72 -4.59,9.37 -3.07,2.65 -6.62,4.01 -10.67,4.01 -4.11,0 -8.63,-1.29 -13.58,-3.82 -4.95,-2.53 -11.71,-8.2 -20.14,-16.97 -5.57,-5.91 -12.47,-11.47 -20.83,-16.65 0.28,6.91 1.89,14.37 4.74,22.45 4.88,14.19 7.31,23.87 7.31,29.06 0,4.8 -1.59,8.87 -4.87,12.21 -3.28,3.32 -6.76,4.99 -10.38,4.99 -5.09,0 -9.62,-1.79 -13.73,-5.24 -2.85,-2.53 -4.25,-6.6 -4.25,-12.15 0,-5.74 1.54,-12.71 4.67,-20.85 3.14,-8.14 5.09,-13.75 5.92,-16.77 0.84,-3.09 1.6,-7.65 2.23,-13.7 -8.01,4.75 -15.05,9.93 -20.97,15.73 -9.96,9.87 -17.42,16.16 -22.5,18.81 -3.55,1.91 -7.18,2.9 -11.01,2.9 -4.6,0 -8.57,-1.42 -11.85,-4.19 -3.27,-2.78 -4.87,-5.8 -4.87,-9.19 0,-3.02 1.39,-6.17 4.18,-9.5 2.79,-3.33 6.97,-6.05 12.54,-8.2 3.69,-1.48 12.05,-3.4 25.08,-5.81 8.43,-1.53 16.72,-3.82 24.74,-6.84 -7.39,-3.27 -16.17,-5.8 -26.34,-7.58 -16.72,-3.15 -27.1,-5.99 -31.01,-8.52 -6.13,-3.95 -9.19,-8.82 -9.19,-14.43 0,-3.27 1.53,-6.23 4.6,-8.95 3.06,-2.71 6.62,-4.07 10.72,-4.07 4.46,0 9.2,1.24 14.29,3.77 5.02,2.53 11.29,7.64 18.74,15.29 7.52,7.65 15.12,13.57 22.85,17.77z"/>
  <path class="fil1 str2" d="M2856.3 523.17c-0.55,-8.27 -2.44,-16.53 -5.71,-24.74 -4.6,-11.78 -6.9,-19.92 -6.9,-24.36 0,-6.29 1.68,-11.04 4.95,-14.31 3.34,-3.27 7.46,-4.87 12.4,-4.87 4.18,0 7.87,1.6 11.01,4.87 3.13,3.27 4.66,7.9 4.66,13.94 0,5.43 -1.81,12.95 -5.36,22.64 -3.62,9.74 -5.85,18.68 -6.69,26.83 7.53,-4.2 14.21,-9.31 20.21,-15.36 9.26,-9.5 16.16,-15.42 20.62,-17.7 4.53,-2.29 9.06,-3.4 13.72,-3.4 4.46,0 8.23,1.37 11.29,4.08 3.07,2.65 4.6,5.92 4.6,9.62 0,4.5 -2.23,8.45 -6.76,11.97 -4.46,3.45 -15.67,6.96 -33.65,10.48 -10.45,2.04 -19.16,4.38 -26.13,7.03 7.11,3.27 15.75,5.74 25.92,7.4 16.44,2.65 27.24,5.98 32.33,9.93 5.15,4.01 7.66,8.33 7.66,13.02 0,3.64 -1.53,6.72 -4.59,9.37 -3.07,2.65 -6.62,4.01 -10.67,4.01 -4.11,0 -8.63,-1.29 -13.58,-3.82 -4.95,-2.53 -11.71,-8.2 -20.14,-16.97 -5.57,-5.91 -12.47,-11.47 -20.83,-16.65 0.28,6.91 1.89,14.37 4.74,22.45 4.88,14.19 7.31,23.87 7.31,29.06 0,4.8 -1.59,8.87 -4.87,12.21 -3.28,3.32 -6.76,4.99 -10.38,4.99 -5.09,0 -9.62,-1.79 -13.73,-5.24 -2.85,-2.53 -4.25,-6.6 -4.25,-12.15 0,-5.74 1.54,-12.71 4.67,-20.85 3.14,-8.14 5.09,-13.75 5.92,-16.77 0.84,-3.09 1.6,-7.65 2.23,-13.7 -8.01,4.75 -15.05,9.93 -20.97,15.73 -9.96,9.87 -17.42,16.16 -22.5,18.81 -3.55,1.91 -7.18,2.9 -11.01,2.9 -4.6,0 -8.57,-1.42 -11.85,-4.19 -3.27,-2.78 -4.87,-5.8 -4.87,-9.19 0,-3.02 1.39,-6.17 4.18,-9.5 2.79,-3.33 6.97,-6.05 12.54,-8.2 3.69,-1.48 12.05,-3.4 25.08,-5.81 8.43,-1.53 16.72,-3.82 24.74,-6.84 -7.39,-3.27 -16.17,-5.8 -26.34,-7.58 -16.72,-3.15 -27.1,-5.99 -31.01,-8.52 -6.13,-3.95 -9.19,-8.82 -9.19,-14.43 0,-3.27 1.53,-6.23 4.6,-8.95 3.06,-2.71 6.62,-4.07 10.72,-4.07 4.46,0 9.2,1.24 14.29,3.77 5.02,2.53 11.29,7.64 18.74,15.29 7.52,7.65 15.12,13.57 22.85,17.77z"/>
  <path class="fil3 str3" d="M2050 50c1104.57,0 2000,895.43 2000,2000 0,1104.57 -895.43,2000 -2000,2000 -1104.57,0 -2000,-895.43 -2000,-2000 0,-1104.57 895.43,-2000 2000,-2000z"/>
  <path class="fil3 str4" d="M2050 550c828.43,0 1500,671.58 1500,1500 0,828.42 -671.57,1500 -1500,1500 -828.43,0 -1500,-671.58 -1500,-1500 0,-828.42 671.57,-1500 1500,-1500z"/>
  <path class="fil1 str5" d="M662.06 2043.84l1.17 97.15 160.64 -1.93c13.92,-0.17 22.73,-2.03 26.39,-5.61 3.72,-3.6 5.68,-11.93 5.94,-24.94l5.72 -0.07 1.09 90.16 -5.72 0.07c-0.58,-12.9 -2.74,-21.14 -6.54,-24.69 -3.74,-3.56 -12.6,-5.25 -26.52,-5.08l-133.66 1.6c-13.91,0.17 -22.73,2.08 -26.39,5.72 -3.71,3.65 -5.67,11.93 -5.95,24.85l-5.71 0.07 -2.61 -217.16 5.71 -0.07c0.58,12.91 2.74,21.13 6.54,24.69 3.75,3.55 12.61,5.24 26.52,5.08l133.66 -1.61c13.92,-0.17 22.73,-2.08 26.39,-5.72 3.72,-3.65 5.68,-11.92 5.94,-24.83l5.72 -0.07 1.09 90.16 -5.72 0.07c-0.58,-12.91 -2.74,-21.09 -6.43,-24.7 -3.75,-3.55 -12.6,-5.24 -26.63,-5.08l-160.64 1.94zm73.66 -106.72l-11.22 -45.66 0.82 -5.82 32.59 4.58c-11.24,-9.01 -18.86,-17.5 -22.76,-25.53 -3.89,-8.03 -5.28,-16.08 -4.14,-24.2 1.99,-14.16 9.15,-25.17 21.53,-33.05 15.15,-9.68 33.57,-12.98 55.26,-9.93 24.26,3.4 43.3,13.19 57.22,29.36 11.39,13.3 15.86,28.67 13.41,46.07 -1.06,7.6 -3.03,14.01 -5.96,19.26 -2.1,3.86 -5.78,8.05 -11.12,12.55l42.87 6.02c9.69,1.36 15.91,1.64 18.69,0.8 2.79,-0.79 5.17,-2.58 7.16,-5.3 1.93,-2.67 3.46,-7.9 4.54,-15.6l5.67 0.79 -10.38 73.89 -5.66 -0.8 0.54 -3.88c0.91,-5.64 0.53,-10.61 -1.16,-14.91 -0.87,-2.15 -2.44,-3.92 -4.81,-5.32 -2.31,-1.45 -8.63,-2.88 -18.8,-4.3l-133.62 -18.77c-9.02,-1.26 -14.79,-1.64 -17.31,-1.2 -2.58,0.5 -4.6,1.55 -6.05,3.16 -1.45,1.62 -2.42,3.93 -2.86,7.03 -0.34,2.41 -0.05,5.66 0.84,9.63l-5.29 1.13zm31.31 -45.62l52.61 7.39c11.42,1.6 18.98,2.18 22.67,1.79 6.18,-0.63 11.91,-3.41 17.2,-8.32 5.29,-4.98 8.54,-11.74 9.74,-20.22 1.44,-10.27 -1.38,-19.12 -8.51,-26.59 -9.31,-9.79 -23.45,-16 -42.43,-18.67 -21.53,-3.02 -38.8,-0.64 -51.7,7.16 -8.95,5.43 -14.02,12.68 -15.29,21.7 -0.69,4.92 -0.18,9.96 1.61,15.13 1.38,3.93 6.01,10.83 14.1,20.63zm-73.3 -225.94c1.31,-4.08 3.9,-7.14 7.71,-9.14 3.85,-1.94 7.84,-2.26 11.92,-0.95 4.13,1.33 7.24,3.93 9.24,7.74 2.04,3.88 2.36,7.87 1.05,11.96 -1.32,4.13 -3.93,7.23 -7.85,9.2 -3.88,2.04 -7.91,2.35 -12.05,1.03 -4.08,-1.32 -7.14,-3.9 -9.14,-7.72 -1.93,-3.84 -2.24,-7.89 -0.88,-12.12zm74.63 10.56l108.83 34.94c8.42,2.71 14.2,3.9 17.37,3.53 3.22,-0.3 5.87,-1.45 8.01,-3.43 2.12,-1.99 4.25,-6.19 6.31,-12.6l5.44 1.75 -21.06 65.6 -5.44 -1.75c2.1,-6.55 2.87,-11.18 2.32,-13.81 -0.53,-2.67 -2.08,-5.12 -4.56,-7.41 -2.51,-2.25 -7.94,-4.72 -16.25,-7.39l-52.3 -16.79c-14.56,-4.67 -24.12,-7.24 -28.73,-7.77 -3.36,-0.31 -5.86,0.06 -7.56,1.18 -1.72,1.06 -2.98,2.88 -3.79,5.39 -0.89,2.78 -1.19,6.35 -1,10.75l-6.11 0.31 -3.57 -45.99 2.09 -6.51zm65.98 -50.18l-41.55 -15.79 2.37 -6.23c2.29,-1.11 3.81,-2.74 4.62,-4.87 0.62,-1.63 1.25,-5.52 1.76,-11.61 0.85,-10.15 2.35,-18.13 4.56,-23.96 4.83,-12.72 11.79,-22.25 20.93,-28.56 9.14,-6.33 18.62,-7.6 28.37,-3.89 14.93,5.67 21.45,21.16 19.6,46.44 15.54,-24.38 32.99,-32.92 52.33,-25.57 10.14,3.85 17.53,11.52 22.07,22.98 4.54,11.46 3.75,25.31 -2.42,41.54 -4.02,10.58 -9.45,19.22 -16.28,25.85 -6.82,6.64 -16.54,13.02 -29.08,19.07l-2.29 -5.29c18.27,-11.17 30.08,-23.78 35.47,-37.98 3.08,-8.11 2.83,-15.79 -0.78,-23.1 -3.57,-7.31 -9.79,-12.67 -18.66,-16.04 -19.38,-7.36 -34.37,1.1 -44.96,25.38l-8.31 -3.16c4.44,-11.67 4.53,-21.31 0.35,-28.9 -4.25,-7.61 -9.88,-12.75 -17,-15.46 -6.28,-2.39 -12.65,-2.19 -19.05,0.52 -6.41,2.72 -11.06,7.8 -13.89,15.27 -6.56,17.27 1.36,33.35 23.76,48.31l-1.92 5.05zm124.33 -213.57c17.5,-19.82 34.53,-25.05 51.05,-15.66 11.27,6.42 17.05,15.92 17.28,28.48 0.27,12.57 -4.38,27.27 -13.93,44.07l-34.65 60.89 -4.97 -2.83c4.52,-7.95 5.86,-13.83 4.08,-17.65 -1.86,-3.8 -7.74,-8.55 -17.72,-14.23l-65.67 -37.37c-9.76,-5.55 -15.77,-8.36 -18.07,-8.38 -2.22,-0.05 -4.62,0.53 -7.16,1.77 -2.54,1.16 -5.59,4.91 -9.15,11.16l-4.97 -2.82 32.38 -56.89c6.25,-11 12.18,-19.37 17.72,-25.17 5.58,-5.84 12.1,-9.49 19.6,-11.01 7.5,-1.52 14.85,-0.19 21.98,3.87 13.98,7.95 18.04,21.88 12.2,41.77zm-25.74 38.19c2.34,-3.9 3.75,-6.27 4.22,-7.1 7.04,-12.36 9.77,-22.63 8.22,-30.82 -1.62,-8.17 -5.76,-14.17 -12.47,-17.98 -7.78,-4.43 -15.03,-4.84 -21.69,-1.27 -6.69,3.63 -13.51,11.55 -20.5,23.83l-4.01 7.04 46.23 26.3zm57.58 32.77c3.99,-3.7 7.76,-8.62 11.29,-14.82 6.1,-10.72 8.28,-20.01 6.55,-27.88 -1.69,-7.83 -6.27,-13.92 -13.62,-18.1 -8.29,-4.71 -16.54,-4.97 -24.8,-0.72 -8.27,4.25 -15.78,12.33 -22.59,24.29 -1.68,2.94 -3.41,6.21 -5.17,9.73l48.34 27.5zm67.2 -165.86l-17.24 -92.77c-6.31,-4.83 -11.47,-7.1 -15.7,-6.84 -4.15,0.25 -8.41,2.99 -12.83,8.27l-4.44 -3.59 41.74 -51.59 4.44 3.59c-4.36,5.39 -6.75,9.44 -7.14,12.19 -0.42,2.72 -0.24,5.26 0.55,7.66 0.77,2.32 5.61,7.12 14.49,14.31l58.75 47.53c8.52,6.89 13.98,10.57 16.32,11.03 2.38,0.42 4.95,0.19 7.76,-0.67 2.76,-0.89 6.41,-4.14 10.97,-9.78l4.45 3.6 -43.34 53.57 -4.45 -3.6c5.39,-6.66 7.79,-12.14 7.2,-16.37 -0.64,-4.26 -5.67,-10.16 -15.09,-17.79l-52.33 -42.33 17.25 92.77c6.92,5.33 12.37,8.17 16.39,8.5 3.99,0.3 8.4,-2.46 13.2,-8.25l4.45 3.6 -41.33 51.1 -4.45 -3.6c5.79,-7.15 8.2,-12.83 7.24,-16.94 -1,-4.15 -6.04,-9.86 -15.13,-17.22l-58.79 -47.56c-8.64,-6.99 -14.11,-10.66 -16.37,-11.06 -2.33,-0.39 -4.83,-0.16 -7.57,0.69 -2.77,0.82 -6.45,4.1 -11.08,9.81l-4.44 -3.59 43.33 -53.56 4.44 3.6c-4.36,5.38 -6.75,9.44 -7.14,12.19 -0.42,2.72 -0.23,5.25 0.55,7.66 0.77,2.32 5.61,7.12 14.49,14.31l50.85 41.13zm124.56 -83.78l-3.86 -4.22c6.33,-5.78 9.52,-10.84 9.57,-15.1 0,-4.31 -4.09,-10.9 -12.26,-19.85l-50.97 -55.78c-7.5,-8.21 -12.4,-12.69 -14.57,-13.43 -2.21,-0.7 -4.75,-0.88 -7.58,-0.45 -2.87,0.39 -7,3.09 -12.43,8.05l-3.85 -4.22 50.86 -46.47 3.85 4.21c-5.12,4.68 -8.09,8.33 -8.88,10.99 -0.83,2.63 -1.02,5.16 -0.61,7.66 0.41,2.41 4.48,7.88 12.19,16.32l52.9 57.89c6.6,7.22 11.23,10.95 13.77,11.14 2.53,0.2 7.55,-3.1 14.94,-9.85l12.38 -11.32c4.88,-4.46 7.84,-7.66 8.82,-9.63 0.99,-1.99 1.11,-3.89 0.38,-5.72 -0.75,-1.84 -4.65,-6.58 -11.65,-14.24l-50.83 -55.62c-7.42,-8.13 -12.28,-12.58 -14.53,-13.39 -2.28,-0.78 -4.86,-0.93 -7.69,-0.43 -2.84,0.52 -6.93,3.17 -12.28,8.06l-3.85 -4.21 48.99 -44.77 3.85 4.22c-4.07,3.87 -6.51,7.39 -7.33,10.5 -0.81,3.11 -0.64,5.97 0.6,8.49 1.19,2.57 4.95,7.3 11.23,14.18l54.19 59.3c6.03,6.6 10.25,9.9 12.72,10.01 2.44,0.07 6.99,-2.94 13.67,-9.04l13.67 -12.5c7.27,-6.64 10.54,-11.06 9.82,-13.27 -0.76,-2.17 -4.77,-7.25 -12.02,-15.18l-51.43 -56.29c-7.5,-8.21 -12.39,-12.7 -14.57,-13.43 -2.21,-0.7 -4.75,-0.89 -7.58,-0.46 -2.86,0.4 -7,3.09 -12.43,8.06l-3.85 -4.22 50.86 -46.48 3.85 4.22c-5.19,4.75 -8.2,8.44 -8.96,11.06 -0.78,2.59 -0.94,5.09 -0.53,7.58 0.42,2.41 4.48,7.88 12.19,16.32l45.3 49.57c9.35,10.23 15.44,16.36 18.24,18.24 2.84,1.92 5.8,2.59 8.98,1.9 3.17,-0.68 7.53,-3.37 13.02,-8.1l30.42 33.28 -3.99 3.65c-9.19,-8.96 -18.72,-13.51 -28.56,-13.62 -9.85,-0.11 -21.83,6.33 -35.96,19.24l-128.21 117.15zm181.36 -263.25c10.15,18.4 22.65,30.26 37.49,35.67 14.82,5.37 28.36,4.66 40.56,-2.16 8.08,-4.51 13.91,-10.68 17.45,-18.47 3.55,-7.74 4.27,-18.27 2.25,-31.45l5.68 0.42c5.07,13.52 5.9,27.91 2.44,43.12 -3.44,15.2 -12.02,26.65 -25.7,34.29 -14.88,8.31 -30.85,9.65 -47.91,3.96 -17.06,-5.69 -31.06,-18.29 -41.97,-37.84 -11.81,-21.15 -15.61,-40.74 -11.35,-58.63 4.23,-17.93 14.55,-31.46 30.96,-40.62 13.85,-7.74 27.82,-9.54 41.85,-5.37 14.03,4.17 25.34,13.91 33.91,29.25l-85.66 47.83zm-4.33 -7.76l57.38 -32.04c-4.9,-7.69 -8.95,-12.77 -12.19,-15.2 -5.07,-3.78 -10.67,-5.86 -16.75,-6.22 -6.05,-0.43 -11.52,0.73 -16.42,3.46 -7.49,4.19 -12.56,10.84 -15.22,19.97 -2.66,9.11 -1.57,19.11 3.2,30.03zm339.87 -55.18l1.69 5.47 -86.1 26.77 -1.7 -5.46 7.13 -2.22c8.33,-2.59 13.59,-6.88 15.89,-12.86 1.38,-3.92 0.19,-11.86 -3.55,-23.89l-40.45 -130.06c-3.16,-10.15 -5.9,-16.67 -8.17,-19.52 -1.78,-2.16 -4.47,-3.65 -8.09,-4.46 -5.08,-1.02 -10,-0.77 -14.75,0.7l-7.12 2.22 -1.7 -5.45 86.11 -26.78 1.69 5.45 -7.23 2.25c-8.18,2.55 -13.39,6.83 -15.63,12.79 -1.49,3.95 -0.34,11.91 3.4,23.93l40.44 130.07c3.16,10.16 5.9,16.68 8.18,19.51 1.72,2.19 4.45,3.66 8.18,4.44 4.99,1.06 9.8,0.83 14.55,-0.65l7.23 -2.25zm121.78 -62.36l26.69 -110.96 47.25 -7.77 0.93 5.63c-6.95,1.15 -11.47,2.59 -13.54,4.38 -2.08,1.74 -3.57,3.75 -4.59,6.06 -0.97,2.25 -0.55,9.05 1.31,20.33l12.26 74.56c1.6,9.71 3.1,15.85 4.55,18.51 1.41,2.66 3.79,4.47 7.01,5.39 3.26,0.91 8.02,0.87 14.23,-0.15l0.93 5.64 -67.36 11.08 -0.93 -5.64c8.2,-1.35 13.42,-3.81 15.73,-7.41 2.27,-3.54 2.43,-11.34 0.47,-23.25l-13.89 -84.48 -30.2 125.52 -5.33 0.88 -70.05 -109.03 13.89 84.48c1.59,9.66 3.15,15.84 4.6,18.5 1.51,2.65 3.83,4.41 7.05,5.39 3.2,0.91 7.92,0.88 14.14,-0.14l0.93 5.64 -53.57 8.82 -0.93 -5.65c9.08,-1.49 14.65,-4.12 16.67,-7.83 2.01,-3.77 2.05,-11.38 0.15,-22.93l-12.26 -74.55c-1.81,-10.98 -3.46,-17.4 -4.89,-19.21 -1.47,-1.79 -3.49,-3.33 -6.1,-4.52 -2.61,-1.23 -7.55,-1.23 -14.8,-0.03l-0.93 -5.64 49.02 -8.06 61.56 96.44zm140.23 -106.25l-12.11 -45.09c-3.43,-12.48 -5.3,-20.93 -5.63,-25.36 -0.5,-6.6 0.52,-11.45 2.97,-14.66 2.47,-3.21 6.05,-4.97 10.75,-5.33 4.64,-0.35 8.66,0.89 11.95,3.67 3.29,2.82 5.12,6.72 5.49,11.63 0.29,3.85 -0.32,13.29 -1.88,28.42l-4.89 46.22 -6.65 0.5zm202.89 -18.57l-0.07 5.71c-6.41,-0.07 -11.18,0.77 -14.27,2.48 -3.04,1.77 -5.07,3.96 -6.06,6.65 -0.93,2.69 -1.47,8.77 -1.59,18.24l-0.91 75.56c-0.11,9 0.24,14.92 1,17.79 0.81,2.87 2.8,5.22 5.94,7.11 3.11,1.89 7.91,2.9 14.32,2.98l-0.07 5.71 -68.9 -0.83 0.07 -5.71c8.57,0.1 14.36,-1.41 17.31,-4.5 2.95,-3.14 4.47,-10.74 4.61,-22.86l0.38 -30.95 -6.41 0.07c-0.89,-0.01 -2.59,-0.08 -4.97,-0.21l-46.22 63.74 -35.09 -0.42 0.07 -5.72c5.19,0.06 8.8,-0.58 10.82,-1.98 2.03,-1.36 5.79,-5.91 11.38,-13.63l33.74 -46.53c-23.66,-8.54 -35.4,-21.38 -35.2,-38.42 0.12,-9.63 4.5,-17.94 13.1,-24.92 8.61,-6.99 23.26,-10.36 43.84,-10.12l63.18 0.76zm-47.45 11.28c-4,-1.15 -7.81,-1.78 -11.41,-1.82 -10.42,-0.13 -18.24,2.37 -23.48,7.44 -5.19,5.12 -7.86,11.23 -7.95,18.37 -0.11,9.11 3.45,16.66 10.74,22.73 7.23,6.07 16.4,9.19 27.56,9.32 1.12,0.02 2.44,-0.07 3.87,-0.26l0.67 -55.78zm383.82 3.3l-93.25 -27.29 -45.12 154.18c-3.91,13.36 -4.71,22.34 -2.35,26.88 2.35,4.61 9.75,8.92 22.11,12.98l-1.6 5.49 -86.54 -25.33 1.6 -5.49c12.51,3.23 21.02,3.57 25.53,0.97 4.49,-2.54 8.7,-10.52 12.61,-23.88l37.54 -128.29c3.91,-13.35 4.67,-22.34 2.25,-26.9 -2.4,-4.62 -9.75,-8.92 -22.02,-12.95l1.61 -5.48 208.42 60.99 -1.6 5.48c-12.51,-3.22 -21.01,-3.56 -25.52,-0.96 -4.49,2.54 -8.7,10.52 -12.61,23.87l-37.54 128.29c-3.91,13.36 -4.66,22.35 -2.25,26.91 2.4,4.62 9.74,8.92 22.01,12.94l-1.6 5.49 -86.54 -25.32 1.6 -5.49c12.51,3.22 20.97,3.55 25.5,1.07 4.49,-2.55 8.7,-10.51 12.64,-23.98l45.12 -154.18zm164.24 129.98c19.05,10.04 30.51,25.29 34.41,45.83 3.29,17.47 0.73,34.24 -7.71,50.25 -5.93,11.23 -14.64,21.18 -26.09,29.86 -11.45,8.67 -23.48,13.46 -36.02,14.33 -12.59,0.85 -24.66,-1.81 -36.26,-7.92 -18.96,-10 -30.06,-25.48 -33.26,-46.43 -2.7,-17.68 0.07,-34.41 8.41,-50.24 6.07,-11.51 14.97,-21.48 26.69,-29.84 11.7,-8.37 23.67,-12.82 35.91,-13.31 12.17,-0.52 23.48,1.96 33.92,7.47zm-9 6.74c-4.82,-2.54 -10.46,-3.66 -16.87,-3.39 -6.41,0.33 -13.03,3.24 -19.82,8.88 -6.84,5.6 -13.22,14.09 -19.19,25.42 -9.62,18.25 -14.27,35.9 -14,52.97 0.28,17.07 6.4,28.73 18.29,35 8.85,4.66 18.07,4.86 27.68,0.59 9.61,-4.26 19.12,-15.28 28.5,-33.07 11.74,-22.28 16.15,-42.33 13.29,-60.17 -1.85,-12.15 -7.82,-20.93 -17.88,-26.23zm193.55 164.21c28.46,-14.88 53.43,-13.08 74.81,5.32 15,12.91 22.4,29.05 22.31,48.45 -0.12,19.38 -6.36,36.28 -18.79,50.72 -12.8,14.88 -29.24,24.25 -49.4,28.13 -20.09,3.87 -38.41,-1.28 -54.86,-15.44 -16.8,-14.46 -23.59,-32.38 -20.43,-53.82 3.17,-21.43 13.32,-42.15 30.48,-62.09 13.32,-15.47 28.06,-27.99 44.12,-37.49 16.14,-9.51 29.54,-15.42 40.25,-17.72 10.74,-2.35 20.73,-2.19 29.98,0.45 9.2,2.61 22.21,11.02 39.07,25.25 12.14,10.16 19.7,16.05 22.68,17.7 3.01,1.62 6.72,2.08 11.26,1.44l4.57 3.94c-9.28,5.5 -17.16,8.35 -23.72,8.5 -6.55,0.15 -12.42,-0.99 -17.64,-3.52 -5.25,-2.5 -13.41,-8.26 -24.6,-17.33 -12.06,-9.83 -20.93,-15.91 -26.67,-18.41 -5.73,-2.43 -13.46,-2.94 -23.07,-1.58 -9.7,1.37 -19.75,5.42 -30.25,12.1 -10.45,6.71 -20.51,15.16 -30.1,25.4zm64.12 9.95c-7.9,-6.8 -17.12,-9.07 -27.76,-6.93 -10.63,2.23 -21.97,10.28 -33.95,24.2 -16.25,18.88 -25.2,36.11 -26.78,51.65 -1.61,15.58 2.04,27.16 10.9,34.79 8.18,7.04 17.54,9.15 28.06,6.41 10.52,-2.74 22.17,-11.56 34.98,-26.44 13.63,-15.85 21.91,-31.63 24.81,-47.42 2.91,-15.79 -0.51,-27.87 -10.26,-36.26zm63.81 226.77c-18.02,-3.72 -28.97,-6.41 -32.73,-8.12 -5.58,-2.54 -10.45,-6.18 -14.54,-10.96 -6.41,-7.48 -9.1,-15.83 -8.13,-25.02 0.98,-9.19 5.62,-17.36 13.94,-24.48 5.26,-4.51 10.85,-7.27 16.69,-8.17 8.1,-1.36 17.92,-0.08 29.47,3.82 11.55,3.97 28.63,12.27 51.25,25.01l4.21 -3.61c10.73,-9.19 16.65,-17.18 17.74,-24.04 1.05,-6.83 -1.18,-13.49 -6.75,-20 -4.21,-4.91 -8.9,-7.71 -14.07,-8.29 -5.2,-0.71 -9.52,0.42 -12.98,3.38l-6.63 6.09c-3.62,3.1 -7.22,4.6 -10.78,4.43 -3.55,-0.16 -6.61,-1.79 -9.16,-4.77 -2.51,-2.93 -3.57,-6.2 -3.11,-9.8 0.47,-3.61 2.49,-6.94 6.03,-9.97 6.75,-5.78 15.94,-7.66 27.52,-5.6 11.59,2.05 22.74,9.37 33.45,21.87 8.22,9.6 13.32,18.82 15.38,27.72 1.54,6.69 0.65,13.37 -2.64,20.02 -2.12,4.27 -8.42,10.91 -18.83,19.83l-36.57 31.32c-10.25,8.79 -16.4,14.39 -18.34,16.75 -1.98,2.4 -2.96,4.35 -3.01,5.92 0.03,1.59 0.53,2.97 1.53,4.14 1.1,1.28 2.31,2.12 3.65,2.65 2.46,0.75 8.04,1.48 16.8,2.2l-6.59 5.64c-19.43,1.31 -32.57,-2.07 -39.45,-10.1 -3.31,-3.86 -4.63,-8.1 -3.94,-12.65 0.72,-4.6 4.27,-9.65 10.59,-15.21zm7.67 -6.57l41.04 -35.15c-14.93,-7.91 -24.83,-12.73 -29.8,-14.55 -8.79,-3.26 -16.18,-4.66 -22.28,-4.11 -6.07,0.54 -11.31,2.72 -15.77,6.54 -5.67,4.86 -8.89,10.54 -9.7,17.15 -0.84,6.59 0.68,12.11 4.47,16.53 5.13,5.99 15.82,10.49 32.04,13.59zm141.05 -2.76l67.05 102.96 -28.81 26.16 -3.81 -5.85c5.81,-5.24 9.66,-10.28 11.61,-14.95 1.96,-4.75 2.52,-9.03 1.57,-12.9 -0.91,-3.83 -3.8,-9.53 -8.71,-17.06l-6.79 -10.43 -82.74 53.89c-8.82,5.75 -14.1,9.95 -15.81,12.58 -1.67,2.66 -2.1,5.4 -1.31,8.35 0.81,2.89 3.89,8.79 9.23,17.56l-4.8 3.12 -42.1 -64.65 4.79 -3.12c5.61,8.22 10.43,12.72 14.52,13.47 4.09,0.75 11.2,-2.18 21.45,-8.85l82.74 -53.89 -6.93 -10.64c-4.85,-7.45 -8.62,-12.27 -11.28,-14.32 -2.65,-2.12 -6.49,-3.28 -11.53,-3.55 -4.99,-0.28 -11.67,1.1 -19.93,4.02l-3.81 -5.85 35.4 -16.05zm56.51 216.33l8.65 15.36c19.96,36.97 18.48,61.65 -4.43,74.01 -10.66,5.76 -21.63,5.84 -32.88,0.25 -11.3,-5.57 -21.55,-16.87 -30.73,-33.87l-32.37 -59.97 5.03 -2.72c4.37,8.1 8.68,12.52 12.84,13.21 4.22,0.68 11.43,-1.77 21.72,-7.33l66.5 -35.89c9.78,-5.28 15.32,-8.94 16.56,-10.87 1.22,-1.98 2.01,-4.39 2.28,-7.24 0.32,-2.88 -1.29,-7.54 -4.79,-14.01l5.03 -2.71 35.29 65.37 -5.03 2.71c-4.82,-8.94 -8.34,-14.2 -10.51,-15.68 -2.2,-1.51 -4.48,-2.5 -6.89,-2.95 -2.45,-0.41 -9.02,2.23 -19.73,8.01l-26.54 14.32zm-58.44 31.55c1.33,5.47 3.27,10.62 5.85,15.42 4.91,9.08 11.3,15.13 19.16,18.22 7.89,3.02 15.52,2.57 22.88,-1.4 17.46,-9.43 19.63,-26.24 6.59,-50.4 -1.13,-2.1 -2.74,-4.95 -4.84,-8.64l-49.64 26.8zm83.66 251.43l-13.2 -39.72c13.87,-18.32 28.59,-35.6 44.08,-51.91 3.59,-3.8 6.1,-6.98 7.57,-9.6 1.48,-2.6 1.67,-5.57 0.56,-8.93 -0.39,-1.15 -1.11,-2.98 -2.16,-5.47l-36.16 12.01c-9.74,3.24 -15.74,5.85 -18.06,7.9 -2.34,2.01 -3.58,4.65 -3.81,8.01 -0.19,3.3 0.87,8.47 3.18,15.41l-5.43 1.8 -22.44 -67.49 5.43 -1.8c2.9,8.73 6.38,13.82 10.36,15.23 4.03,1.4 11.56,0.24 22.66,-3.46l71.71 -23.83c10.55,-3.51 16.63,-6.15 18.19,-7.84 1.54,-1.73 2.75,-3.98 3.5,-6.74 0.81,-2.77 0.03,-7.65 -2.28,-14.62l5.41 -1.8 22.44 67.49 -5.42 1.8c-2.71,-8.14 -4.98,-12.96 -6.78,-14.48 -1.84,-1.51 -3.85,-2.74 -6.08,-3.73 -2.27,-0.97 -9.22,0.45 -20.87,4.32l-26.52 8.81c0.55,2.33 0.96,3.87 1.23,4.67 1.98,5.98 5.55,11.04 10.66,15.14 5.12,4.15 13.84,6.44 26.21,6.9 11.66,0.36 19.7,1.21 24.14,2.51 4.5,1.3 8.57,3.79 12.37,7.49 3.79,3.71 6.5,7.99 8.12,12.86 1.77,5.32 1.91,9.96 0.39,13.93 -1.51,4.01 -4.36,6.68 -8.48,8.05 -3.42,1.14 -6.69,1 -9.85,-0.46 -3.16,-1.45 -5.42,-4.22 -6.75,-8.24 -0.72,-2.16 -1.01,-5.01 -0.89,-8.68 0.14,-4.62 -0.14,-7.98 -0.86,-10.15 -1.5,-4.51 -6.6,-6.94 -15.37,-7.32 -9.99,-0.36 -16.53,-0.91 -19.61,-1.62 -3.14,-0.75 -7.54,-2.57 -13.33,-5.55 0.09,3.31 -1.11,7.39 -3.57,12.22 -2.49,4.79 -10.68,14.88 -24.51,30.29 -11.09,12.27 -17.84,20.99 -20.33,26.1 -2.48,5.13 -2.56,11.4 -0.33,18.8l-5.12 1.7zm158.53 61.6c3.49,21.25 -1.75,39.6 -15.77,55.1 -11.94,13.17 -26.86,21.25 -44.72,24.19 -12.53,2.06 -25.72,1.11 -39.55,-2.77 -13.83,-3.9 -24.91,-10.6 -33.17,-20.08 -8.27,-9.52 -13.44,-20.74 -15.57,-33.69 -3.48,-21.14 2.16,-39.34 16.93,-54.54 12.48,-12.82 27.48,-20.71 45.14,-23.61 12.84,-2.12 26.16,-1.03 39.9,3.25 13.73,4.28 24.51,11.14 32.29,20.6 7.76,9.39 12.6,19.91 14.52,31.55zm-10.81 -3.1c-0.88,-5.38 -3.39,-10.55 -7.48,-15.5 -4.13,-4.9 -10.45,-8.43 -19.04,-10.44 -8.6,-2.07 -19.21,-2.04 -31.85,0.04 -20.36,3.35 -37.24,10.3 -50.69,20.82 -13.44,10.53 -19.04,22.44 -16.86,35.71 1.63,9.87 7.03,17.34 16.24,22.42 9.19,5.09 23.72,6.02 43.56,2.76 24.86,-4.09 43.5,-12.68 56,-25.73 8.57,-8.81 11.97,-18.86 10.12,-30.08zm-41.18 224.67c-5.09,25.95 -17.15,39.06 -36.15,39.29 -12.97,0.16 -22.76,-5.12 -29.3,-15.85 -6.58,-10.71 -9.99,-25.75 -10.22,-45.07l-0.85 -70.05 5.72 -0.07c0.11,9.15 1.92,14.9 5.39,17.3 3.52,2.33 10.99,3.46 22.48,3.33l75.56 -0.91c11.22,-0.14 17.83,-0.75 19.82,-1.89 1.94,-1.08 3.72,-2.8 5.28,-5.15 1.62,-2.29 2.36,-7.06 2.27,-14.25l5.71 -0.07 0.79 65.45c0.15,12.65 -0.73,22.87 -2.59,30.68 -1.87,7.85 -5.65,14.29 -11.36,19.39 -5.71,5.1 -12.72,7.67 -20.92,7.77 -16.09,0.19 -26.63,-9.78 -31.63,-29.9zm2.94 -45.96c-0.06,4.55 -0.07,7.31 -0.06,8.26 0.17,14.23 2.99,24.46 8.47,30.75 5.52,6.23 12.12,9.32 19.84,9.23 8.95,-0.11 15.42,-3.42 19.36,-9.86 3.95,-6.51 5.83,-16.8 5.66,-30.92l-0.1 -8.1 -53.17 0.64zm-66.25 0.79c-1.57,5.21 -2.35,11.36 -2.26,18.5 0.14,12.33 2.95,21.45 8.43,27.36 5.41,5.92 12.43,8.85 20.89,8.75 9.53,-0.11 16.78,-4.06 21.77,-11.9 4.99,-7.84 7.4,-18.61 7.23,-32.37 -0.04,-3.39 -0.19,-7.09 -0.45,-11.01l-55.61 0.67zm203.35 179.2c-0.32,4.27 -2.13,7.85 -5.37,10.68 -3.29,2.78 -7.09,4.03 -11.37,3.7 -4.33,-0.32 -7.95,-2.13 -10.79,-5.37 -2.89,-3.3 -4.13,-7.11 -3.81,-11.38 0.33,-4.33 2.14,-7.96 5.49,-10.78 3.3,-2.89 7.15,-4.13 11.48,-3.81 4.28,0.33 7.85,2.13 10.68,5.37 2.78,3.29 4.03,7.16 3.69,11.59zm-75.04 7.12l-113.97 -8.62c-8.82,-0.67 -14.72,-0.48 -17.72,0.62 -3.06,1.04 -5.37,2.78 -6.98,5.2 -1.61,2.43 -2.7,7.01 -3.21,13.72l-5.7 -0.43 5.19 -68.7 5.71 0.43c-0.52,6.86 -0.19,11.55 0.96,13.97 1.13,2.47 3.21,4.49 6.16,6.14 2.96,1.61 8.82,2.74 17.52,3.4l54.78 4.14c15.25,1.16 25.14,1.42 29.75,0.87 3.33,-0.49 5.68,-1.43 7.07,-2.92 1.43,-1.42 2.23,-3.49 2.43,-6.12 0.22,-2.91 -0.32,-6.45 -1.53,-10.69l5.86 -1.72 14.2 43.9 -0.52 6.81z"/>
  <path class="fil1 str6" d="M1378.56 3207.63l-61.13 -38.94 -26.29 17.99c-6.52,4.44 -10.8,8.18 -12.72,11.2 -1.52,2.38 -1.73,5.25 -0.58,8.54 1.12,3.23 5.32,7.58 12.54,12.96l-2.73 4.29 -49.74 -31.7 2.73 -4.28c7.31,3.05 12.52,4.24 15.64,3.61 6.35,-1.19 15.54,-6 27.6,-14.32l138.25 -94.52 3.92 2.5 -28.77 166.23c-2.32,13.35 -2.66,22.73 -1.07,28.2 1.61,5.43 5.49,10.36 11.71,14.88l-2.73 4.28 -62.2 -39.62 2.73 -4.29c6.47,3.67 11.37,5.35 14.73,4.98 3.36,-0.37 5.82,-1.87 7.46,-4.45 2.17,-3.41 4.07,-9.79 5.68,-19.14l4.97 -28.4zm1.89 -10.84l13.99 -80.59 -67.86 46.27 53.87 34.32zm178.83 -36.59l144.08 56.21 -1.84 4.74c-10.96,-3.88 -18.55,-4.87 -22.73,-2.97 -4.24,1.93 -8.57,8.63 -13.05,20.11l-37.68 96.57c-7.29,18.67 -10.75,30.66 -10.32,35.92 0.42,5.26 6.45,10.14 18.15,14.7l-21.34 54.69 -4.47 -1.75c2.38,-13.6 2.2,-25.44 -0.45,-35.36 -2.66,-9.98 -7.11,-17.62 -13.32,-23.07 -6.21,-5.41 -14.37,-10.1 -24.45,-14.04l-44.35 -17.3c-19.41,-7.57 -35.71,-7.88 -48.92,-0.91 -13.2,6.91 -23.08,16.19 -29.68,27.8l-4.47 -1.74 21.34 -54.69c14.17,4.17 28.53,0.23 43.11,-11.75 14.59,-12.03 27.87,-28.51 39.88,-49.58 12.06,-21.04 20.86,-38.71 26.45,-53.04 3.34,-8.54 4.76,-15.27 4.17,-20.13 -0.56,-4.87 -2.12,-8.41 -4.66,-10.56 -2.53,-2.2 -8.32,-5.22 -17.3,-9.12l1.85 -4.73zm38.27 26.14c-21.94,49.9 -39.88,83.96 -53.86,102.08 -13.94,18.13 -28.28,31.07 -42.94,38.88l64.37 25.12c11.43,4.46 18.71,6.14 21.74,4.99 3.05,-1.12 6.74,-7.21 11.05,-18.25l51.7 -132.51 -52.06 -20.31zm241.8 150.6c12.27,4.96 21.06,10.94 26.35,18.07 7.3,9.87 9.92,20.83 7.82,32.88 -1.61,9.17 -6.02,17.47 -13.28,24.84 -7.26,7.39 -16.25,12.12 -27.01,14.2 -10.73,2.08 -26.46,1.34 -47.17,-2.28l-86.78 -15.16 0.87 -5.01 6.86 1.2c7.64,1.34 13.54,-0.16 17.73,-4.44 2.63,-2.79 4.84,-9.38 6.63,-19.67l20.84 -119.26c2,-11.4 1.95,-18.8 -0.12,-22.22 -2.83,-4.61 -7.67,-7.5 -14.62,-8.72l-6.86 -1.2 0.88 -5 79.42 13.88c14.82,2.59 26.5,5.73 35.06,9.47 13,5.66 22.33,13.21 28.01,22.75 5.69,9.54 7.6,19.66 5.71,30.46 -1.61,9.22 -5.83,16.99 -12.71,23.33 -6.89,6.28 -16.08,10.27 -27.63,11.88zm-69.75 -19.98c3.21,1.23 6.98,2.37 11.19,3.44 4.25,1.08 8.95,2.04 14.1,2.94 13.2,2.31 23.42,2.61 30.53,0.95 7.12,-1.67 12.98,-5.14 17.53,-10.41 4.5,-5.23 7.37,-11.32 8.58,-18.26 1.88,-10.75 -0.93,-20.65 -8.36,-29.78 -7.42,-9.08 -19.55,-15.12 -36.32,-18.05 -9.04,-1.58 -17.36,-2.03 -24.94,-1.3l-12.31 70.47zm-15.44 88.32c10.08,4.29 20.31,7.32 30.54,9.1 16.45,2.88 29.66,1.37 39.57,-4.49 9.9,-5.86 15.8,-14.23 17.7,-25.08 1.24,-7.13 0.46,-14.38 -2.42,-21.67 -2.83,-7.32 -8.32,-13.63 -16.41,-18.96 -8.09,-5.33 -18.65,-9.13 -31.58,-11.39 -5.61,-0.98 -10.39,-1.73 -14.41,-2.24 -4.01,-0.5 -7.27,-0.74 -9.8,-0.75l-13.19 75.48zm289.34 -147.2c24.23,0.53 45.04,10.2 62.38,29.02 17.38,18.82 25.77,42.01 25.17,69.61 -0.61,28.4 -10.06,51.78 -28.38,70.15 -18.28,18.37 -40.16,27.26 -65.61,26.71 -25.67,-0.55 -47.06,-10.19 -64.16,-28.86 -17.09,-18.67 -25.32,-42.51 -24.69,-71.57 0.64,-29.68 11.27,-53.68 31.85,-72 17.89,-15.9 39.04,-23.58 63.44,-23.06zm-2.84 9.83c-16.65,-0.36 -30.19,5.55 -40.51,17.75 -12.89,15.2 -19.68,37.69 -20.33,67.5 -0.66,30.52 5.32,54.18 17.99,70.92 9.75,12.72 22.78,19.26 39.19,19.62 17.54,0.38 32.13,-6.18 43.85,-19.62 11.73,-13.48 17.88,-34.94 18.52,-64.47 0.69,-32.03 -5.1,-56.06 -17.3,-72.03 -9.8,-12.73 -23.58,-19.29 -41.41,-19.67zm339.6 139.98l0.88 5 -47.46 8.29c-6.58,-7.34 -20.15,-21.02 -40.68,-41.01 -20.54,-20.01 -32.82,-30.95 -36.87,-32.82 -4.06,-1.87 -9.75,-2.2 -17.09,-1.02l9.62 55.04c2.13,12.19 5.01,19.67 8.69,22.36 3.68,2.75 11.27,3.28 22.73,1.67l0.87 5 -78.95 13.8 -0.87 -5.01c11.15,-2.33 18.06,-5.4 20.7,-9.16 2.62,-3.8 2.85,-11.8 0.7,-24.09l-20.45 -117.03c-2.13,-12.19 -5.06,-19.66 -8.77,-22.35 -3.73,-2.74 -11.27,-3.29 -22.65,-1.68l-0.87 -5 78.95 -13.8 0.88 5.01c-11.34,2.35 -18.29,5.44 -20.82,9.27 -2.54,3.78 -2.72,11.79 -0.59,23.98l8.99 51.43c9.85,-1.82 16.55,-3.66 20.13,-5.58 3.59,-1.87 7.37,-5.39 11.33,-10.57 3.97,-5.18 6.89,-10.56 8.79,-16.1 1.86,-5.48 3.98,-14.4 6.28,-26.69 2.18,-11.51 4.21,-19.6 6.02,-24.26 1.86,-4.67 5.34,-9.05 10.5,-13.1 5.18,-4.01 11.68,-6.72 19.55,-8.1 13.9,-2.43 21.71,1.27 23.43,11.09 0.6,3.43 -0.26,6.69 -2.56,9.71 -2.33,3.03 -5.21,4.83 -8.74,5.44 -2.54,0.45 -7.06,-0.24 -13.5,-2.12 -5.7,-1.73 -9.59,-2.44 -11.68,-2.07 -2.92,0.51 -5.1,2.47 -6.66,5.84 -1.56,3.43 -3.49,11.74 -5.86,24.95 -4.61,24.72 -13.1,41.4 -25.45,50 8.45,0 21.77,9.33 40.06,27.86 19.33,19.68 33.31,32.66 41.85,38.91 8.53,6.24 18.4,8.58 29.57,6.91zm159.39 -111.09l-68.81 22.76 -2.68 31.75c-0.67,7.86 -0.48,13.53 0.64,16.93 0.89,2.68 2.99,4.66 6.26,5.86 3.21,1.17 9.23,0.66 17.97,-1.54l1.59 4.83 -55.99 18.52 -1.6 -4.82c6.99,-3.75 11.2,-7.03 12.69,-9.85 3.08,-5.67 5.17,-15.83 6.33,-30.43l14.12 -166.88 4.41 -1.46 110.65 127.34c8.89,10.24 15.94,16.43 21.18,18.65 5.23,2.19 11.51,2.3 18.94,0.34l1.59 4.82 -70.02 23.16 -1.59 -4.82c6.93,-2.7 11.32,-5.44 13.16,-8.28 1.84,-2.83 2.23,-5.68 1.27,-8.59 -1.27,-3.83 -5.02,-9.34 -11.25,-16.49l-18.86 -21.8zm-7.21 -8.32l-53.62 -61.77 -7.02 81.83 60.64 -20.06zm174.18 -217.32l23.5 37.22 -4.54 2.59c-4.72,-6.2 -8.66,-10.34 -11.8,-12.33 -5.12,-3.19 -10.35,-4.77 -15.71,-4.58 -5.38,0.15 -11.41,2.12 -18.11,5.95l-22.88 13.05 70.75 124.04c5.71,10.01 10.35,15.66 13.93,16.91 4.93,1.63 10.55,0.65 16.84,-2.95l5.6 -3.19 2.51 4.42 -69.13 39.43 -2.52 -4.41 5.85 -3.34c6.95,-3.96 10.66,-8.84 11.22,-14.69 0.29,-3.57 -2.15,-9.93 -7.34,-19.04l-70.76 -124.04 -19.48 11.11c-7.6,4.34 -12.67,7.99 -15.23,10.91 -3.3,3.89 -5.16,8.79 -5.67,14.83 -0.5,5.96 1.08,12.81 4.71,20.49l-4.54 2.59 -20.08 -39.18 132.88 -75.79z"/>
  <path class="fil3 str7" d="M2050 150c1049.34,0 1900,850.66 1900,1900 0,1049.34 -850.66,1900 -1900,1900 -1049.34,0 -1900,-850.66 -1900,-1900 0,-1049.34 850.66,-1900 1900,-1900z"/>
  <path class="fil1 str5" d="M1442.42 379.27l22.43 -7.15 88.18 85.99 14.95 -118.85 21.97 -7 -21.34 151.17c-2.66,18.89 -5.71,31.7 -9.15,38.38 -3.45,6.67 -9.87,11.47 -19.28,14.47 -5.73,1.82 -13.17,2.73 -22.37,2.72l-6.07 -19.06c7.05,1.55 13.92,1.27 20.59,-0.86 5.41,-1.72 9.51,-4.97 12.36,-9.72 2.81,-4.75 4.62,-14.09 5.41,-28.03l-107.68 -102.06zm209.02 -62.92l23.13 -3.9 12.89 76.46c10.51,-1.77 17.59,-5.09 21.16,-9.91 3.61,-4.82 7.39,-15.56 11.42,-32.27 2.9,-12.29 5.51,-21.04 7.89,-26.29 2.32,-5.27 6.12,-10 11.38,-14.18 5.21,-4.18 11.36,-6.89 18.34,-8.06 8.89,-1.5 13.57,-2.2 14.09,-2.12l3.36 19.97c-0.82,0.13 -2.36,0.35 -4.65,0.66 -2.57,0.34 -4.12,0.56 -4.69,0.66 -7.35,1.23 -12.52,3.94 -15.5,8.12 -3.04,4.19 -5.9,12.52 -8.64,24.96 -3.36,15.75 -6.74,25.92 -10.15,30.46 -3.37,4.49 -7.72,8.4 -12.93,11.66 11.76,1.18 24.64,9.74 38.58,25.59l45.7 51.98 -28.66 4.83 -37.22 -42.31c-10.2,-11.76 -18.41,-19.65 -24.6,-23.61 -6.22,-4.01 -13.57,-5.26 -22.13,-3.82l13.74 81.57 -23.13 3.9 -29.38 -174.35zm188.18 145.81l-13.37 -176.3 66.57 -5.05c11.7,-0.88 20.68,-0.98 26.97,-0.35 8.76,0.78 16.24,2.98 22.41,6.56 6.18,3.61 11.33,8.92 15.45,15.92 4.12,6.98 6.49,14.86 7.15,23.6 1.13,14.94 -2.66,27.97 -11.44,39.05 -8.73,11.1 -25.62,17.58 -50.57,19.47l-45.23 3.43 5.45 71.9 -23.39 1.77zm16.37 -94.35l45.56 -3.46c15.1,-1.14 25.55,-4.74 31.49,-10.85 5.89,-6.1 8.46,-14.22 7.68,-24.44 -0.55,-7.34 -2.88,-13.52 -7.01,-18.49 -4.13,-4.98 -9.32,-8.08 -15.52,-9.31 -4.02,-0.72 -11.33,-0.71 -21.88,0.09l-45.1 3.42 4.78 63.04zm129.93 82.34l70.61 -175.72 25.71 0.41 69.19 177.92 -26.63 -0.42 -19.6 -53.9 -74.44 -1.18 -20.02 53.29 -24.82 -0.4zm52.01 -71.79l60.24 0.95 -17.67 -49.3c-5.31,-14.99 -9.32,-27.35 -12.08,-37.12 -2.61,11.49 -6.04,22.76 -10.3,33.89l-20.19 51.58zm153.69 78.59l13.37 -176.31 23.38 1.77 -13.36 176.31 -23.39 -1.77zm-7.24 -188.76l1.87 -24.63 22.65 1.72 -1.86 24.63 -22.66 -1.72zm44.81 3.4l1.87 -24.63 22.66 1.71 -1.87 24.63 -22.66 -1.71zm45.38 194.73l29.38 -174.35 23.13 3.9 -12.1 71.84 90.1 15.18 12.1 -71.84 23.14 3.9 -29.38 174.35 -23.13 -3.9 13.82 -82.06 -90.1 -15.18 -13.82 82.06 -23.14 -3.9zm173.78 29.44l121.76 -145.04 24.32 8.39 10.41 190.61 -25.18 -8.68 -1.86 -57.33 -70.38 -24.27 -35.61 44.41 -23.46 -8.09zm71.76 -52.05l56.96 19.64 -1.46 -52.35c-0.38,-15.9 -0.35,-28.9 0.06,-39.04 -6.05,10.11 -12.82,19.75 -20.32,29l-35.24 42.75z"/>
  <path class="fil1 str2" d="M1076.22 2903.96c-0.55,-8.27 -2.44,-16.53 -5.71,-24.74 -4.6,-11.78 -6.9,-19.92 -6.9,-24.36 0,-6.29 1.68,-11.04 4.95,-14.31 3.34,-3.27 7.46,-4.87 12.4,-4.87 4.18,0 7.87,1.6 11.01,4.87 3.13,3.27 4.66,7.9 4.66,13.94 0,5.43 -1.81,12.95 -5.36,22.64 -3.62,9.74 -5.85,18.68 -6.69,26.83 7.53,-4.2 14.21,-9.31 20.21,-15.36 9.26,-9.5 16.16,-15.42 20.62,-17.7 4.53,-2.29 9.06,-3.4 13.72,-3.4 4.46,0 8.23,1.37 11.29,4.08 3.07,2.65 4.6,5.92 4.6,9.62 0,4.5 -2.23,8.45 -6.76,11.97 -4.46,3.45 -15.67,6.96 -33.65,10.48 -10.45,2.04 -19.16,4.38 -26.13,7.03 7.11,3.27 15.75,5.74 25.92,7.4 16.44,2.65 27.24,5.98 32.33,9.93 5.15,4.01 7.66,8.33 7.66,13.02 0,3.64 -1.53,6.72 -4.59,9.37 -3.07,2.65 -6.62,4.01 -10.67,4.01 -4.11,0 -8.63,-1.29 -13.58,-3.82 -4.95,-2.53 -11.71,-8.2 -20.14,-16.97 -5.57,-5.91 -12.47,-11.47 -20.83,-16.65 0.28,6.91 1.89,14.37 4.74,22.45 4.88,14.19 7.31,23.87 7.31,29.06 0,4.8 -1.59,8.87 -4.87,12.21 -3.28,3.32 -6.76,4.99 -10.38,4.99 -5.09,0 -9.62,-1.79 -13.73,-5.24 -2.85,-2.53 -4.25,-6.6 -4.25,-12.15 0,-5.74 1.54,-12.71 4.67,-20.85 3.14,-8.14 5.09,-13.75 5.92,-16.77 0.84,-3.09 1.6,-7.65 2.23,-13.7 -8.01,4.75 -15.05,9.93 -20.97,15.73 -9.96,9.87 -17.42,16.16 -22.5,18.81 -3.55,1.91 -7.18,2.9 -11.01,2.9 -4.6,0 -8.57,-1.42 -11.85,-4.19 -3.27,-2.78 -4.87,-5.8 -4.87,-9.19 0,-3.02 1.39,-6.17 4.18,-9.5 2.79,-3.33 6.97,-6.05 12.54,-8.2 3.69,-1.48 12.05,-3.4 25.08,-5.81 8.43,-1.53 16.72,-3.82 24.74,-6.84 -7.39,-3.27 -16.17,-5.8 -26.34,-7.58 -16.72,-3.15 -27.1,-5.99 -31.01,-8.52 -6.13,-3.95 -9.19,-8.82 -9.19,-14.43 0,-3.27 1.53,-6.23 4.6,-8.95 3.06,-2.71 6.62,-4.07 10.72,-4.07 4.46,0 9.2,1.24 14.29,3.77 5.02,2.53 11.29,7.64 18.74,15.29 7.52,7.65 15.12,13.57 22.85,17.77z"/>
  <path class="fil1 str2" d="M3021.7 2912.56c-0.55,-8.27 -2.44,-16.53 -5.71,-24.74 -4.6,-11.78 -6.9,-19.92 -6.9,-24.36 0,-6.29 1.68,-11.04 4.95,-14.31 3.34,-3.27 7.46,-4.87 12.4,-4.87 4.18,0 7.87,1.6 11.01,4.87 3.13,3.27 4.66,7.9 4.66,13.94 0,5.43 -1.81,12.95 -5.36,22.64 -3.62,9.74 -5.85,18.68 -6.69,26.83 7.53,-4.2 14.21,-9.31 20.21,-15.36 9.26,-9.5 16.16,-15.42 20.62,-17.7 4.53,-2.29 9.06,-3.4 13.72,-3.4 4.46,0 8.23,1.37 11.29,4.08 3.07,2.65 4.6,5.92 4.6,9.62 0,4.5 -2.23,8.45 -6.76,11.97 -4.46,3.45 -15.67,6.96 -33.65,10.48 -10.45,2.04 -19.16,4.38 -26.13,7.03 7.11,3.27 15.75,5.74 25.92,7.4 16.44,2.65 27.24,5.98 32.33,9.93 5.15,4.01 7.66,8.33 7.66,13.02 0,3.64 -1.53,6.72 -4.59,9.37 -3.07,2.65 -6.62,4.01 -10.67,4.01 -4.11,0 -8.63,-1.29 -13.58,-3.82 -4.95,-2.53 -11.71,-8.2 -20.14,-16.97 -5.57,-5.91 -12.47,-11.47 -20.83,-16.65 0.28,6.91 1.89,14.37 4.74,22.45 4.88,14.19 7.31,23.87 7.31,29.06 0,4.8 -1.59,8.87 -4.87,12.21 -3.28,3.32 -6.76,4.99 -10.38,4.99 -5.09,0 -9.62,-1.79 -13.73,-5.24 -2.85,-2.53 -4.25,-6.6 -4.25,-12.15 0,-5.74 1.54,-12.71 4.67,-20.85 3.14,-8.14 5.09,-13.75 5.92,-16.77 0.84,-3.09 1.6,-7.65 2.23,-13.7 -8.01,4.75 -15.05,9.93 -20.97,15.73 -9.96,9.87 -17.42,16.16 -22.5,18.81 -3.55,1.91 -7.18,2.9 -11.01,2.9 -4.6,0 -8.57,-1.42 -11.85,-4.19 -3.27,-2.78 -4.87,-5.8 -4.87,-9.19 0,-3.02 1.39,-6.17 4.18,-9.5 2.79,-3.33 6.97,-6.05 12.54,-8.2 3.69,-1.48 12.05,-3.4 25.08,-5.81 8.43,-1.53 16.72,-3.82 24.74,-6.84 -7.39,-3.27 -16.17,-5.8 -26.34,-7.58 -16.72,-3.15 -27.1,-5.99 -31.01,-8.52 -6.13,-3.95 -9.19,-8.82 -9.19,-14.43 0,-3.27 1.53,-6.23 4.6,-8.95 3.06,-2.71 6.62,-4.07 10.72,-4.07 4.46,0 9.2,1.24 14.29,3.77 5.02,2.53 11.29,7.64 18.74,15.29 7.52,7.65 15.12,13.57 22.85,17.77z"/>
 </g>
</svg>
