<?xml version="1.0" encoding="UTF-8"?>
<!DOCTYPE svg PUBLIC "-//W3C//DTD SVG 1.1//EN" "http://www.w3.org/Graphics/SVG/1.1/DTD/svg11.dtd">
<!-- Creator: CorelDRAW 2019 (64-Bit) -->
<svg xmlns="http://www.w3.org/2000/svg" xml:space="preserve" width="41mm" height="41mm" version="1.1" style="shape-rendering:geometricPrecision; text-rendering:geometricPrecision; image-rendering:optimizeQuality; fill-rule:evenodd; clip-rule:evenodd"
viewBox="0 0 4100 4100"
 xmlns:xlink="http://www.w3.org/1999/xlink">
 <defs>
  <style type="text/css">
   <![CDATA[
    .str0 {stroke:#393185;stroke-width:20;stroke-miterlimit:22.9256}
    .str4 {stroke:#393185;stroke-width:10;stroke-miterlimit:22.9256}
    .str3 {stroke:#393185;stroke-width:7.62;stroke-miterlimit:22.9256}
    .str2 {stroke:#393185;stroke-width:20;stroke-linecap:round;stroke-linejoin:round;stroke-miterlimit:22.9256}
    .str1 {stroke:#393185;stroke-width:15;stroke-linecap:round;stroke-linejoin:round;stroke-miterlimit:22.9256}
    .fil1 {fill:none;fill-rule:nonzero}
    .fil3 {fill:#393185}
    .fil0 {fill:#393185;fill-rule:nonzero}
    .fil2 {fill:#FEFEFE;fill-rule:nonzero}
   ]]>
  </style>
 </defs>
 <g id="Слой_x0020_1">
  <metadata id="CorelCorpID_0Corel-Layer"/>
  <g id="_1353098176">
   <path class="fil0" d="M2065.7 3912.35l0 -30.76 0 0 95.07 -2.4 93.83 -7.15 92.44 -11.74 90.97 -16.24 89.37 -20.63 87.65 -24.89 85.82 -29.05 83.89 -33.07 81.82 -36.99 79.65 -40.8 77.35 -44.48 74.96 -48.05 72.42 -51.5 69.79 -54.85 67.02 -58.06 64.16 -61.17 61.16 -64.16 58.07 -67.03 54.84 -69.79 51.5 -72.43 48.05 -74.95 44.48 -77.35 40.8 -79.66 36.99 -81.82 33.07 -83.89 29.04 -85.82 24.89 -87.65 20.63 -89.37 16.24 -90.97 11.74 -92.45 7.14 -93.82 2.41 -95.07 30.76 0 -2.43 96.63 -7.26 95.36 -11.94 93.99 -16.52 92.49 -20.97 90.87 -25.31 89.13 -29.52 87.26 -33.63 85.29 -37.61 83.2 -41.48 80.98 -45.22 78.65 -48.85 76.19 -52.36 73.63 -55.74 70.95 -59.03 68.15 -62.18 65.22 -65.22 62.17 -68.14 59.04 -70.95 55.75 -73.62 52.36 -76.2 48.85 -78.65 45.22 -80.97 41.48 -83.2 37.61 -85.29 33.63 -87.26 29.53 -89.13 25.31 -90.87 20.97 -92.49 16.52 -93.98 11.94 -95.37 7.25 -96.63 2.44 0 0zm-1878.05 -1878.06l30.76 0 0 0 2.41 95.07 7.14 93.82 11.74 92.45 16.24 90.97 20.63 89.37 24.89 87.65 29.05 85.82 33.07 83.89 36.99 81.82 40.79 79.66 44.48 77.35 48.05 74.95 51.5 72.43 54.85 69.79 58.07 67.03 61.16 64.16 64.16 61.16 67.03 58.07 69.78 54.85 72.43 51.5 74.96 48.05 77.35 44.48 79.65 40.8 81.82 36.99 83.89 33.07 85.83 29.05 87.65 24.89 89.37 20.63 90.96 16.24 92.45 11.74 93.83 7.15 95.07 2.4 0 30.76 -96.63 -2.44 -95.37 -7.25 -93.99 -11.94 -92.48 -16.52 -90.87 -20.97 -89.13 -25.31 -87.27 -29.53 -85.29 -33.63 -83.2 -37.61 -80.97 -41.48 -78.65 -45.22 -76.2 -48.85 -73.63 -52.36 -70.94 -55.75 -68.15 -59.03 -65.22 -62.18 -62.18 -65.22 -59.03 -68.15 -55.75 -70.95 -52.36 -73.63 -48.85 -76.19 -45.22 -78.65 -41.47 -80.98 -37.61 -83.2 -33.63 -85.29 -29.53 -87.26 -25.31 -89.13 -20.97 -90.87 -16.52 -92.49 -11.94 -93.99 -7.26 -95.36 -2.43 -96.63 0 0zm1878.05 -1878.03l0 30.76 0 0 -95.07 2.4 -93.83 7.15 -92.45 11.74 -90.96 16.24 -89.37 20.63 -87.65 24.89 -85.83 29.05 -83.89 33.07 -81.82 36.99 -79.65 40.79 -77.35 44.49 -74.96 48.04 -72.43 51.51 -69.78 54.84 -67.03 58.07 -64.16 61.16 -61.16 64.16 -58.07 67.03 -54.85 69.78 -51.5 72.43 -48.05 74.95 -44.48 77.36 -40.79 79.65 -36.99 81.82 -33.07 83.88 -29.05 85.83 -24.89 87.65 -20.63 89.36 -16.24 90.97 -11.74 92.45 -7.14 93.82 -2.41 95.07 -30.76 0 2.43 -96.63 7.26 -95.36 11.94 -93.99 16.52 -92.49 20.97 -90.86 25.31 -89.13 29.53 -87.27 33.63 -85.28 37.61 -83.2 41.47 -80.97 45.22 -78.66 48.85 -76.19 52.36 -73.63 55.75 -70.94 59.03 -68.15 62.18 -65.22 65.22 -62.18 68.15 -59.03 70.94 -55.74 73.63 -52.37 76.2 -48.84 78.65 -45.23 80.97 -41.47 83.2 -37.61 85.29 -33.63 87.27 -29.53 89.13 -25.31 90.87 -20.97 92.48 -16.52 93.99 -11.94 95.37 -7.25 96.63 -2.44 0 0zm1878.02 1878.03l-30.76 0 0 0 -2.41 -95.07 -7.14 -93.82 -11.74 -92.45 -16.24 -90.97 -20.63 -89.36 -24.89 -87.65 -29.04 -85.83 -33.07 -83.88 -36.99 -81.82 -40.8 -79.65 -44.48 -77.36 -48.05 -74.95 -51.5 -72.43 -54.84 -69.78 -58.07 -67.03 -61.16 -64.16 -64.16 -61.17 -67.02 -58.06 -69.79 -54.84 -72.42 -51.51 -74.96 -48.04 -77.35 -44.49 -79.65 -40.79 -81.82 -36.99 -83.89 -33.07 -85.82 -29.05 -87.65 -24.89 -89.37 -20.63 -90.97 -16.24 -92.44 -11.74 -93.83 -7.15 -95.07 -2.4 0 -30.76 96.63 2.44 95.37 7.25 93.98 11.94 92.49 16.52 90.87 20.97 89.13 25.31 87.26 29.53 85.29 33.63 83.2 37.61 80.97 41.47 78.65 45.23 76.2 48.84 73.62 52.37 70.95 55.74 68.14 59.04 65.22 62.17 62.18 65.22 59.03 68.15 55.74 70.94 52.36 73.63 48.85 76.19 45.22 78.66 41.48 80.97 37.61 83.2 33.63 85.28 29.52 87.27 25.31 89.13 20.97 90.86 16.52 92.49 11.94 93.99 7.26 95.36 2.43 96.63 0 0z"/>
  </g>
  <g id="_1353096704">
   <path class="fil0" d="M2042.29 3092.44l0 -33.08 0 0 51.92 -1.31 51.21 -3.9 50.47 -6.41 49.66 -8.86 48.78 -11.27 47.85 -13.58 46.84 -15.85 45.8 -18.06 44.66 -20.19 43.49 -22.27 42.22 -24.28 40.91 -26.24 39.55 -28.11 38.09 -29.94 36.6 -31.7 35.01 -33.39 33.4 -35.02 31.7 -36.6 29.93 -38.09 28.12 -39.55 26.23 -40.91 24.29 -42.22 22.26 -43.49 20.2 -44.66 18.05 -45.78 15.85 -46.86 13.58 -47.85 11.27 -48.77 8.86 -49.66 6.41 -50.47 3.9 -51.22 1.31 -51.91 33.08 0 -1.35 53.57 -4.02 52.9 -6.63 52.11 -9.16 51.3 -11.63 50.39 -14.04 49.43 -16.37 48.4 -18.65 47.3 -20.86 46.14 -23 44.91 -25.07 43.62 -27.09 42.25 -29.04 40.83 -30.91 39.35 -32.74 37.78 -34.48 36.18 -36.17 34.47 -37.78 32.74 -39.35 30.92 -40.83 29.03 -42.25 27.08 -43.62 25.08 -44.91 23.01 -46.14 20.85 -47.3 18.66 -48.4 16.37 -49.43 14.04 -50.4 11.63 -51.28 9.16 -52.13 6.63 -52.89 4.02 -53.58 1.35 0 0zm-1041.5 -1041.5l33.08 0 0 0 1.31 51.91 3.9 51.22 6.41 50.47 8.86 49.66 11.27 48.77 13.58 47.85 15.85 46.86 18.05 45.78 20.2 44.66 22.27 43.49 24.28 42.22 26.23 40.91 28.12 39.54 29.94 38.1 31.69 36.6 33.39 35.02 35.03 33.39 36.6 31.7 38.1 29.94 39.53 28.11 40.92 26.23 42.23 24.29 43.47 22.27 44.66 20.19 45.8 18.06 46.84 15.85 47.85 13.58 48.78 11.27 49.67 8.86 50.46 6.41 51.21 3.9 51.92 1.31 0 33.08 -53.58 -1.35 -52.89 -4.02 -52.12 -6.63 -51.29 -9.16 -50.4 -11.63 -49.43 -14.04 -48.4 -16.37 -47.3 -18.66 -46.14 -20.85 -44.91 -23.01 -43.61 -25.07 -42.26 -27.09 -40.83 -29.03 -39.34 -30.92 -37.78 -32.74 -36.17 -34.47 -34.49 -36.18 -32.73 -37.78 -30.92 -39.34 -29.04 -40.84 -27.09 -42.25 -25.06 -43.62 -23.01 -44.91 -20.86 -46.14 -18.65 -47.3 -16.37 -48.4 -14.04 -49.43 -11.63 -50.39 -9.16 -51.3 -6.63 -52.11 -4.02 -52.9 -1.35 -53.57 0 0zm1041.5 -1041.5l0 33.08 0 0 -51.92 1.31 -51.21 3.9 -50.46 6.41 -49.67 8.86 -48.78 11.27 -47.85 13.58 -46.84 15.85 -45.8 18.06 -44.66 20.19 -43.47 22.27 -42.23 24.29 -40.92 26.23 -39.53 28.11 -38.1 29.94 -36.6 31.7 -35.03 33.39 -33.39 35.02 -31.69 36.6 -29.94 38.1 -28.12 39.54 -26.23 40.91 -24.28 42.22 -22.27 43.49 -20.2 44.66 -18.05 45.78 -15.85 46.86 -13.58 47.85 -11.27 48.77 -8.86 49.66 -6.41 50.47 -3.9 51.22 -1.31 51.91 -33.08 0 1.35 -53.57 4.02 -52.9 6.63 -52.11 9.16 -51.3 11.63 -50.39 14.04 -49.43 16.37 -48.4 18.65 -47.3 20.86 -46.14 23.01 -44.91 25.06 -43.62 27.09 -42.25 29.04 -40.84 30.92 -39.34 32.73 -37.78 34.49 -36.18 36.17 -34.47 37.78 -32.74 39.34 -30.92 40.83 -29.03 42.26 -27.09 43.61 -25.07 44.91 -23.01 46.14 -20.85 47.3 -18.66 48.4 -16.37 49.43 -14.04 50.4 -11.63 51.29 -9.16 52.12 -6.63 52.89 -4.02 53.58 -1.35 0 0zm1041.5 1041.5l-33.08 0 0 0 -1.31 -51.91 -3.9 -51.22 -6.41 -50.47 -8.86 -49.66 -11.27 -48.77 -13.58 -47.85 -15.85 -46.86 -18.05 -45.78 -20.2 -44.66 -22.26 -43.49 -24.29 -42.22 -26.23 -40.91 -28.12 -39.55 -29.93 -38.09 -31.7 -36.6 -33.4 -35.02 -35.01 -33.39 -36.6 -31.7 -38.09 -29.94 -39.55 -28.11 -40.91 -26.24 -42.22 -24.28 -43.49 -22.27 -44.66 -20.19 -45.8 -18.06 -46.84 -15.85 -47.85 -13.58 -48.78 -11.27 -49.66 -8.86 -50.47 -6.41 -51.21 -3.9 -51.92 -1.31 0 -33.08 53.58 1.35 52.89 4.02 52.13 6.63 51.28 9.16 50.4 11.63 49.43 14.04 48.4 16.37 47.3 18.66 46.14 20.85 44.91 23.01 43.62 25.08 42.25 27.08 40.83 29.03 39.35 30.92 37.78 32.74 36.17 34.47 34.48 36.18 32.74 37.78 30.91 39.35 29.04 40.83 27.09 42.25 25.07 43.62 23 44.91 20.86 46.14 18.65 47.3 16.37 48.4 14.04 49.43 11.63 50.39 9.16 51.3 6.63 52.11 4.02 52.9 1.35 53.57 0 0z"/>
  </g>
  <g id="_1353102336">
   <path class="fil0" d="M2042.29 3525.72l0 -31.98 0 0 74.26 -1.88 73.28 -5.57 72.2 -9.18 71.05 -12.69 69.79 -16.11 68.46 -19.43 67.03 -22.69 65.51 -25.83 63.91 -28.89 62.21 -31.87 60.42 -34.73 58.54 -37.53 56.56 -40.23 54.51 -42.83 52.35 -45.35 50.12 -47.77 47.77 -50.12 45.35 -52.35 42.84 -54.51 40.23 -56.56 37.52 -58.54 34.74 -60.42 31.86 -62.21 28.9 -63.91 25.83 -65.51 22.68 -67.04 19.44 -68.45 16.11 -69.8 12.69 -71.05 9.18 -72.21 5.57 -73.28 1.88 -74.26 31.98 0 -1.92 75.88 -5.69 74.88 -9.38 73.81 -12.97 72.63 -16.47 71.36 -19.88 69.99 -23.18 68.54 -26.41 66.97 -29.54 65.33 -32.56 63.59 -35.52 61.76 -38.36 59.84 -41.11 57.82 -43.78 55.71 -46.35 53.51 -48.83 51.22 -51.22 48.83 -53.51 46.35 -55.71 43.77 -57.82 41.11 -59.84 38.37 -61.76 35.51 -63.59 32.57 -65.33 29.53 -66.97 26.41 -68.53 23.19 -70 19.87 -71.35 16.47 -72.63 12.97 -73.8 9.38 -74.88 5.69 -75.88 1.92 0 0zm-1474.78 -1474.78l31.98 0 0 0 1.88 74.26 5.57 73.28 9.18 72.21 12.69 71.05 16.11 69.8 19.43 68.45 22.69 67.04 25.83 65.51 28.89 63.91 31.87 62.21 34.73 60.42 37.53 58.54 40.23 56.56 42.83 54.51 45.35 52.35 47.77 50.12 50.12 47.77 52.35 45.35 54.51 42.83 56.56 40.23 58.54 37.53 60.42 34.73 62.21 31.87 63.91 28.89 65.51 25.83 67.04 22.69 68.45 19.43 69.8 16.11 71.05 12.69 72.21 9.18 73.28 5.57 74.26 1.88 0 31.98 -75.88 -1.92 -74.88 -5.69 -73.81 -9.38 -72.63 -12.97 -71.36 -16.47 -69.99 -19.87 -68.54 -23.19 -66.97 -26.41 -65.33 -29.53 -63.59 -32.57 -61.76 -35.51 -59.84 -38.37 -57.82 -41.11 -55.71 -43.77 -53.51 -46.35 -51.22 -48.83 -48.83 -51.22 -46.35 -53.51 -43.77 -55.71 -41.11 -57.82 -38.37 -59.84 -35.51 -61.76 -32.57 -63.59 -29.53 -65.33 -26.41 -66.97 -23.19 -68.54 -19.87 -69.99 -16.47 -71.36 -12.97 -72.63 -9.38 -73.81 -5.69 -74.88 -1.92 -75.88 0 0zm1474.78 -1474.77l0 31.98 0 0 -74.26 1.88 -73.28 5.57 -72.21 9.18 -71.05 12.69 -69.8 16.11 -68.45 19.43 -67.04 22.69 -65.51 25.83 -63.91 28.89 -62.21 31.86 -60.42 34.74 -58.54 37.52 -56.56 40.23 -54.51 42.84 -52.35 45.35 -50.12 47.77 -47.77 50.11 -45.35 52.35 -42.83 54.51 -40.23 56.56 -37.53 58.54 -34.73 60.42 -31.87 62.21 -28.89 63.91 -25.83 65.52 -22.69 67.03 -19.43 68.45 -16.11 69.8 -12.69 71.05 -9.18 72.21 -5.57 73.28 -1.88 74.26 -31.98 0 1.92 -75.88 5.69 -74.88 9.38 -73.81 12.97 -72.63 16.47 -71.36 19.87 -69.99 23.19 -68.53 26.41 -66.98 29.53 -65.33 32.57 -63.59 35.51 -61.76 38.37 -59.84 41.11 -57.82 43.77 -55.71 46.35 -53.51 48.83 -51.21 51.22 -48.83 53.51 -46.35 55.71 -43.78 57.82 -41.11 59.84 -38.36 61.76 -35.52 63.59 -32.56 65.33 -29.53 66.97 -26.41 68.54 -23.19 69.99 -19.87 71.36 -16.47 72.63 -12.97 73.81 -9.38 74.88 -5.69 75.88 -1.92 0 0zm1474.77 1474.77l-31.98 0 0 0 -1.88 -74.26 -5.57 -73.28 -9.18 -72.21 -12.69 -71.05 -16.11 -69.8 -19.44 -68.45 -22.68 -67.03 -25.83 -65.52 -28.9 -63.91 -31.86 -62.21 -34.74 -60.42 -37.52 -58.54 -40.23 -56.56 -42.84 -54.51 -45.35 -52.35 -47.77 -50.11 -50.12 -47.77 -52.35 -45.35 -54.51 -42.84 -56.56 -40.23 -58.54 -37.52 -60.42 -34.74 -62.21 -31.86 -63.91 -28.89 -65.51 -25.83 -67.03 -22.69 -68.46 -19.43 -69.79 -16.11 -71.05 -12.69 -72.2 -9.18 -73.28 -5.57 -74.26 -1.88 0 -31.98 75.88 1.92 74.88 5.69 73.8 9.38 72.63 12.97 71.35 16.47 70 19.87 68.53 23.19 66.97 26.41 65.33 29.53 63.59 32.56 61.76 35.52 59.84 38.36 57.82 41.11 55.71 43.78 53.51 46.35 51.22 48.83 48.83 51.21 46.35 53.51 43.78 55.71 41.11 57.82 38.36 59.84 35.52 61.76 32.56 63.59 29.54 65.33 26.41 66.98 23.18 68.53 19.88 69.99 16.47 71.36 12.97 72.63 9.38 73.81 5.69 74.88 1.92 75.88 0 0z"/>
  </g>
  <path class="fil0" d="M2065.7 124.42c-676.63,0 -1270.36,354.93 -1607.94,889.25 361.23,14.86 319.74,484.01 659.87,484.01 81.94,0 157.91,0 204.77,0 166.57,-231.39 437.33,-382.05 743.3,-382.05 305.95,0 576.73,150.66 743.3,382.05 46.85,0 122.82,0 204.75,0 340.17,0 298.64,-469.15 659.87,-484.01 -337.57,-534.32 -931.31,-889.25 -1607.92,-889.25l0 0zm0 41.21c619.13,0 1189,303.58 1537.36,815.33 -155.93,33.15 -233.83,153.25 -303.56,260.73 -74.76,115.24 -139.32,214.75 -285.75,214.75l-184.1 0c-180.7,-239.6 -464.67,-382.04 -763.95,-382.04 -299.28,0 -583.27,142.44 -763.97,382.04l-184.1 0c-146.41,0 -210.97,-99.51 -285.74,-214.75 -69.72,-107.48 -147.63,-227.58 -303.57,-260.73 348.37,-511.75 918.25,-815.33 1537.38,-815.33z"/>
  <path class="fil0" d="M2065.7 34.3c-1104.6,0 -2000.01,895.43 -2000.01,1999.99 0,1104.56 895.41,2000.01 2000.01,2000.01 1104.55,0 1999.99,-895.45 1999.99,-2000.01 0,-1104.56 -895.44,-1999.99 -1999.99,-1999.99l0 0zm0 61.54c1068.87,0 1938.48,869.59 1938.48,1938.45 0,1068.88 -869.61,1938.47 -1938.48,1938.47 -1068.88,0 -1938.49,-869.59 -1938.49,-1938.47 0,-1068.86 869.61,-1938.45 1938.49,-1938.45z"/>
  <path class="fil1 str0" d="M2849.45 2034.29c0,432.86 -350.91,783.77 -783.75,783.77 -432.85,0 -783.75,-350.91 -783.75,-783.77 0,-432.84 350.9,-783.74 783.75,-783.74 432.84,0 783.75,350.9 783.75,783.74z"/>
  <g id="_1353122368">
   <path class="fil2" d="M2065.7 2864.21l0 -92.3 0 0 38 -0.96 37.48 -2.86 36.91 -4.69 36.31 -6.48 35.67 -8.24 34.99 -9.93 34.25 -11.59 33.48 -13.2 32.66 -14.77 31.8 -16.29 30.89 -17.75 29.92 -19.19 28.92 -20.57 27.87 -21.91 26.78 -23.19 25.62 -24.43 24.44 -25.62 23.19 -26.77 21.89 -27.88 20.57 -28.93 19.2 -29.92 17.75 -30.89 16.29 -31.8 14.77 -32.65 13.2 -33.49 11.59 -34.25 9.93 -35 8.24 -35.66 6.48 -36.31 4.69 -36.91 2.85 -37.49 0.97 -38 92.3 0 -1.07 42.66 -3.21 42.13 -5.27 41.53 -7.3 40.89 -9.28 40.16 -11.19 39.4 -13.05 38.57 -14.86 37.71 -16.63 36.77 -18.33 35.8 -19.99 34.75 -21.58 33.68 -23.13 32.53 -24.63 31.34 -26.09 30.11 -27.46 28.82 -28.82 27.47 -30.1 26.07 -31.35 24.63 -32.52 23.13 -33.68 21.59 -34.75 19.99 -35.8 18.33 -36.76 16.63 -37.72 14.86 -38.57 13.05 -39.39 11.19 -40.17 9.28 -40.89 7.3 -41.53 5.27 -42.12 3.2 -42.66 1.08 0 0zm-829.9 -829.92l92.3 0 0 0 0.97 38 2.85 37.49 4.69 36.91 6.48 36.32 8.23 35.65 9.94 35 11.59 34.25 13.2 33.49 14.77 32.65 16.29 31.8 17.76 30.89 19.18 29.93 20.56 28.92 21.91 27.87 23.19 26.78 24.44 25.62 25.62 24.44 26.77 23.18 27.87 21.91 28.93 20.56 29.92 19.2 30.89 17.75 31.79 16.29 32.67 14.77 33.47 13.2 34.26 11.59 34.99 9.93 35.67 8.24 36.3 6.48 36.92 4.69 37.48 2.86 38 0.96 0 92.3 -42.66 -1.08 -42.12 -3.2 -41.54 -5.27 -40.88 -7.3 -40.17 -9.28 -39.39 -11.19 -38.58 -13.05 -37.71 -14.86 -36.77 -16.63 -35.79 -18.33 -34.75 -19.99 -33.68 -21.58 -32.53 -23.14 -31.35 -24.63 -30.09 -26.08 -28.82 -27.46 -27.46 -28.82 -26.09 -30.1 -24.63 -31.35 -23.14 -32.54 -21.58 -33.67 -19.98 -34.75 -18.33 -35.8 -16.63 -36.77 -14.86 -37.71 -13.05 -38.57 -11.2 -39.4 -9.27 -40.17 -7.3 -40.88 -5.27 -41.53 -3.21 -42.13 -1.07 -42.66 0 0zm829.9 -829.89l0 92.3 0 0 -38 0.96 -37.48 2.86 -36.92 4.69 -36.31 6.48 -35.66 8.23 -34.98 9.94 -34.27 11.59 -33.47 13.2 -32.67 14.77 -31.79 16.28 -30.89 17.76 -29.93 19.19 -28.92 20.56 -27.87 21.91 -26.77 23.18 -25.62 24.44 -24.44 25.62 -23.19 26.78 -21.91 27.87 -20.56 28.92 -19.18 29.93 -17.76 30.89 -16.29 31.79 -14.77 32.66 -13.2 33.48 -11.59 34.26 -9.94 34.98 -8.23 35.66 -6.48 36.32 -4.69 36.91 -2.85 37.48 -0.97 38 -92.3 0 1.07 -42.66 3.21 -42.12 5.27 -41.53 7.3 -40.88 9.27 -40.18 11.2 -39.4 13.05 -38.56 14.86 -37.7 16.63 -36.78 18.33 -35.79 19.98 -34.75 21.58 -33.67 23.14 -32.54 24.63 -31.35 26.09 -30.1 27.46 -28.82 28.82 -27.46 30.09 -26.08 31.35 -24.63 32.54 -23.14 33.67 -21.57 34.75 -20 35.79 -18.32 36.77 -16.63 37.71 -14.86 38.57 -13.05 39.4 -11.2 40.18 -9.27 40.87 -7.3 41.54 -5.27 42.12 -3.2 42.66 -1.08 0 0zm829.9 829.89l-92.3 0 0 0 -0.97 -38 -2.85 -37.48 -4.69 -36.91 -6.48 -36.31 -8.24 -35.67 -9.93 -34.99 -11.59 -34.25 -13.2 -33.48 -14.77 -32.66 -16.29 -31.79 -17.75 -30.89 -19.2 -29.92 -20.57 -28.93 -21.89 -27.88 -23.19 -26.77 -24.44 -25.62 -25.62 -24.43 -26.78 -23.19 -27.87 -21.91 -28.91 -20.56 -29.93 -19.19 -30.89 -17.76 -31.8 -16.28 -32.66 -14.77 -33.48 -13.2 -34.26 -11.59 -34.98 -9.94 -35.66 -8.23 -36.32 -6.48 -36.91 -4.69 -37.48 -2.86 -38 -0.96 0 -92.3 42.66 1.08 42.12 3.2 41.53 5.27 40.88 7.3 40.18 9.27 39.4 11.2 38.56 13.05 37.72 14.86 36.76 16.63 35.8 18.32 34.75 20 33.67 21.57 32.53 23.14 31.35 24.63 30.1 26.07 28.82 27.47 27.46 28.82 26.09 30.11 24.63 31.34 23.13 32.53 21.58 33.68 19.99 34.75 18.33 35.79 16.63 36.78 14.86 37.7 13.05 38.57 11.19 39.39 9.28 40.17 7.3 40.89 5.27 41.53 3.21 42.12 1.07 42.66 0 0z"/>
  </g>
  <path class="fil2 str0" d="M2855.28 1404.18c-190.52,-238.27 -485.12,-380.3 -789.58,-380.3 -304.44,0 -599.04,142.03 -789.58,380.3l-158.49 0c-112.75,0 -160.45,-65.14 -241.78,-189.94 -59.73,-91.63 -133.36,-204.6 -262.94,-259.21 344.51,-464.73 872.91,-730.85 1452.79,-730.85 579.88,0 1108.25,266.12 1452.77,730.85 -129.57,54.61 -203.2,167.58 -262.92,259.21 -81.34,124.8 -129.04,189.94 -241.8,189.94l-158.47 0z"/>
  <path class="fil1 str0" d="M2065.7 208.8c-589.52,0 -1133.46,279.48 -1477.03,753.25 136.64,49.42 211.49,164.23 274.27,260.59 81.97,125.76 134.21,196.91 254.69,196.91l165.9 0c188.09,-238.85 477.47,-380.27 782.17,-380.27 304.68,0 594.11,141.42 782.16,380.27l165.89 0c120.49,0 172.72,-71.15 254.68,-196.91 62.81,-96.36 137.65,-211.17 274.27,-260.59 -343.55,-473.77 -887.48,-753.25 -1477,-753.25l0 0zm0 30.76c568.57,0 1087.12,257.98 1428.95,709.31 -122.78,58.71 -193.87,167.76 -252.01,256.96 -84.69,130.02 -129.14,182.98 -228.89,182.98l-151.07 0c-193.58,-238.39 -490.35,-380.28 -796.98,-380.28 -306.64,0 -603.38,141.89 -796.98,380.28l-151.09 0c-99.74,0 -144.19,-52.96 -228.9,-183 -58.11,-89.16 -129.21,-198.23 -252,-256.94 341.83,-451.33 860.39,-709.31 1428.97,-709.31z"/>
  <g id="_1353123200">
   <path class="fil0" d="M1552.14 981.44c7.69,-3.6 16.85,-0.28 20.45,7.41 3.6,7.69 0.28,16.85 -7.41,20.45l-13.04 -27.86zm-431.93 416.71l-25.52 -17.2 11.14 -16.28 11.31 -16.04 11.48 -15.79 11.66 -15.55 11.83 -15.32 12.01 -15.07 12.21 -14.84 12.39 -14.59 12.59 -14.35 12.79 -14.1 12.98 -13.87 13.19 -13.62 13.39 -13.37 13.62 -13.13 13.82 -12.88 14.04 -12.63 14.25 -12.38 14.49 -12.14 14.72 -11.89 14.95 -11.64 15.18 -11.39 15.42 -11.14 15.66 -10.88 15.9 -10.64 16.16 -10.38 16.39 -10.14 16.66 -9.87 16.92 -9.63 17.17 -9.37 17.44 -9.13 17.72 -8.86 17.97 -8.6 13.04 27.86 -17.49 8.38 -17.22 8.62 -16.96 8.87 -16.69 9.11 -16.44 9.35 -16.18 9.59 -15.93 9.84 -15.68 10.08 -15.44 10.34 -15.22 10.56 -14.96 10.82 -14.74 11.05 -14.51 11.3 -14.28 11.55 -14.07 11.78 -13.85 12.04 -13.64 12.27 -13.44 12.52 -13.22 12.75 -13.03 13.01 -12.83 13.24 -12.64 13.49 -12.45 13.74 -12.25 13.97 -12.09 14.23 -11.89 14.46 -11.73 14.71 -11.55 14.94 -11.38 15.21 -11.22 15.43 -11.05 15.68 -10.9 15.92zm0 0c-4.74,7.04 -14.32,8.89 -21.36,4.15 -7.04,-4.74 -8.9,-14.31 -4.16,-21.35l25.52 17.2z"/>
  </g>
  <g id="_1353123424">
   <path class="fil0" d="M2548.66 1000.9c-7.69,-3.6 -11.01,-12.76 -7.41,-20.45 3.6,-7.69 12.76,-11.01 20.45,-7.41l-13.04 27.86zm488.02 380.05l-25.52 17.2 -10.92 -15.91 -11.18 -15.72 -11.43 -15.53 -11.69 -15.32 -11.93 -15.12 -12.18 -14.92 -12.41 -14.71 -12.65 -14.5 -12.9 -14.28 -13.13 -14.06 -13.35 -13.83 -13.59 -13.62 -13.81 -13.38 -14.03 -13.16 -14.25 -12.9 -14.46 -12.68 -14.68 -12.44 -14.89 -12.18 -15.1 -11.94 -15.3 -11.69 -15.51 -11.43 -15.71 -11.18 -15.9 -10.91 -16.1 -10.64 -16.28 -10.37 -16.48 -10.11 -16.66 -9.82 -16.84 -9.55 -17.03 -9.28 -17.19 -8.97 -17.37 -8.69 -17.55 -8.41 13.04 -27.86 18.03 8.63 17.85 8.93 17.67 9.23 17.49 9.52 17.3 9.81 17.12 10.1 16.92 10.37 16.74 10.67 16.52 10.92 16.34 11.21 16.13 11.48 15.93 11.73 15.72 12.01 15.5 12.26 15.29 12.52 15.08 12.76 14.86 13.02 14.63 13.26 14.41 13.5 14.17 13.74 13.95 13.98 13.71 14.21 13.47 14.44 13.24 14.66 12.99 14.88 12.75 15.09 12.5 15.32 12.25 15.52 11.99 15.74 11.73 15.93 11.48 16.14 11.22 16.33zm0 0c4.74,7.04 2.88,16.62 -4.16,21.36 -7.04,4.74 -16.62,2.88 -21.36,-4.16l25.52 -17.2z"/>
  </g>
  <g id="_1353121280">
   <path class="fil0 str1" d="M563.84 1244.94l-15.1 14.11c-15.49,-13.88 -24.81,-28.09 -28.07,-42.51 -3.24,-14.47 -0.98,-28.5 6.81,-42.09 6.84,-11.93 15.63,-20.46 26.33,-25.62 10.67,-5.12 23.97,-6.69 39.96,-4.72 15.95,1.99 32.7,8 50.2,18.03 17.32,9.94 30.42,21.05 39.3,33.3 8.87,12.28 13.71,24.8 14.54,37.52 0.82,12.74 -2.04,24.77 -8.57,36.16 -7.14,12.45 -17.15,20.92 -30,25.42 -12.89,4.49 -27.84,4.24 -44.87,-0.76l4.75 -19.47c25.1,6.8 42.61,1.56 52.52,-15.72 4.91,-8.57 6.99,-17.31 6.21,-26.12 -0.78,-8.82 -4.75,-17.76 -11.89,-26.87 -7.13,-9.1 -17.82,-17.71 -32.07,-25.88 -21.49,-12.32 -39.82,-17.78 -54.94,-16.37 -15.11,1.4 -26.26,8.39 -33.48,20.98 -5.34,9.31 -6.67,19.25 -3.91,29.79 2.71,10.55 10.14,20.85 22.28,30.82zm45.15 59.78l-17.5 38.51c-3.98,8.76 -7.83,15.08 -11.59,18.99 -3.77,3.89 -9.08,6.48 -15.84,7.81 -6.81,1.31 -13.99,0.28 -21.57,-3.16 -11.37,-5.16 -18.1,-13 -20.14,-23.43 -9.7,8.62 -21.81,9.65 -36.26,3.09 -9.26,-4.21 -15.92,-10.57 -19.96,-19.03 -4.07,-8.48 -3.06,-19.38 2.96,-32.65l20.22 -44.5 119.68 54.37zm-57.82 -6.23l-8.12 17.87c-3.23,7.11 -4.98,12.2 -5.32,15.29 -0.32,3.05 0.43,6.31 2.19,9.67 1.77,3.35 4.65,5.91 8.6,7.7 6.26,2.85 11.46,2.94 15.58,0.31 4.07,-2.64 8.11,-8.37 12.13,-17.21l8.38 -18.44 -33.44 -15.19zm-52.8 -23.99l-10.07 22.17c-4.3,9.46 -5.81,16.65 -4.55,21.64 1.22,4.95 4.94,8.82 11.09,11.61 6.49,2.95 12.02,3.14 16.59,0.63 4.59,-2.55 9.21,-8.94 13.85,-19.16l9.29 -20.45 -36.2 -16.44zm90.45 133.01l23.82 9.31 -6.64 16.99 -23.82 -9.32 6.64 -16.98zm-145.07 -56.72l122.43 47.86 -6.64 16.99 -122.43 -47.86 6.64 -16.99zm101.29 98.67l-24.08 70.73 -107.17 -36.49 -3.75 11.03 -52.51 -17.88 4.82 -14.14 35.24 12 27.18 -79.84 -35.24 -12 4.9 -14.39 52.51 17.88 -3.1 9.11c15.79,18.66 49.53,36.67 101.2,53.99zm-22.4 8.43c-40.05,-15.03 -68.21,-30.32 -84.44,-45.88l-18.53 54.43 89.67 30.52 13.3 -39.07zm-71.53 61.3c21.79,6.23 36.92,15.51 45.43,27.82 8.47,12.3 10.71,25.49 6.7,39.5 -3.94,13.8 -12.78,23.69 -26.52,29.82 -13.77,6.07 -31.08,6.13 -52.02,0.15 -22.65,-6.48 -38.24,-15.85 -46.74,-28.17 -8.49,-12.25 -10.72,-25.45 -6.7,-39.53 3.96,-13.85 12.82,-23.82 26.62,-29.84 13.76,-6.03 31.51,-5.96 53.23,0.25zm-5.07 18.04c-16.4,-4.69 -29.43,-5.21 -39.11,-1.57 -9.69,3.63 -15.76,9.85 -18.27,18.61 -2.34,8.21 -0.34,16.41 6.05,24.61 6.39,8.2 17.69,14.58 33.92,19.22 16.28,4.65 29.26,5.16 38.95,1.53 9.69,-3.64 15.77,-9.85 18.27,-18.62 2.37,-8.28 0.37,-16.49 -5.99,-24.64 -6.33,-8.12 -17.63,-14.51 -33.82,-19.14zm37.66 111.8l-4.08 17.78 -110.33 -25.34 -11.29 49.12 110.34 25.34 -4.08 17.77 -110.34 -25.34 -2.66 11.6 -66.9 -15.36 3.4 -14.82 49.12 11.29 18.71 -81.46 128.11 29.42zm-21.51 93.79l-11.29 86.9 -18.34 -2.38 4.47 -34.41 -112.01 -14.56 2.35 -18.08 112.01 14.56 4.48 -34.41 18.33 2.38zm-14.1 96.73l-3.2 42.18c-0.73,9.59 -2.17,16.85 -4.37,21.81 -2.2,4.95 -6.29,9.21 -12.19,12.79 -5.95,3.56 -13.04,5.06 -21.34,4.43 -12.45,-0.95 -21.46,-5.99 -26.96,-15.09 -6.15,11.43 -17.17,16.56 -33,15.36 -10.14,-0.77 -18.58,-4.46 -25.28,-11.02 -6.74,-6.57 -9.53,-17.15 -8.43,-31.68l3.7 -48.74 131.07 9.96zm-56.44 14l-1.49 19.58c-0.59,7.79 -0.49,13.17 0.26,16.18 0.75,2.98 2.57,5.79 5.38,8.34 2.81,2.54 6.39,3.95 10.72,4.28 6.86,0.52 11.77,-1.18 14.73,-5.07 2.93,-3.88 4.75,-10.64 5.49,-20.32l1.54 -20.2 -36.63 -2.79zm-57.82 -4.39l-1.85 24.28c-0.78,10.36 0.27,17.63 3.16,21.88 2.85,4.24 7.67,6.59 14.41,7.11 7.11,0.54 12.36,-1.18 15.79,-5.11 3.44,-3.97 5.58,-11.56 6.43,-22.75l1.7 -22.4 -39.64 -3.01zm40.36 85.03c22.65,0.51 39.64,5.65 51,15.4 11.3,9.76 16.81,21.95 16.49,36.52 -0.32,14.34 -6.37,26.15 -18.1,35.56 -11.78,9.36 -28.52,13.81 -50.29,13.33 -23.55,-0.53 -41,-5.65 -52.35,-15.4 -11.32,-9.71 -16.83,-21.91 -16.5,-36.55 0.32,-14.4 6.37,-26.3 18.19,-35.62 11.78,-9.32 28.97,-13.74 51.56,-13.24zm-0.34 18.74c-17.05,-0.38 -29.78,2.41 -38.23,8.39 -8.45,5.97 -12.75,13.52 -12.95,22.64 -0.2,8.52 3.82,15.95 12.08,22.26 8.26,6.32 20.81,9.63 37.69,10 16.92,0.38 29.61,-2.42 38.06,-8.39 8.45,-5.97 12.76,-13.52 12.96,-22.64 0.19,-8.61 -3.82,-16.05 -12.04,-22.31 -8.18,-6.26 -20.74,-9.58 -37.57,-9.95zm64.71 150.41l6.44 84.86 -131.07 9.96 -1.38 -18.19 112.64 -8.56 -3.69 -48.48 -112.63 8.56 -1.38 -18.19 131.07 -9.96zm-172 128.11l180.33 -23.45 2.19 16.83 -17.13 2.23c7.56,3.15 13.22,7.01 16.97,11.59 3.78,4.57 6.07,10.06 6.9,16.46 1.09,8.42 -0.43,16.33 -4.53,23.71 -4.11,7.43 -10.98,13.82 -20.61,19.27 -9.64,5.43 -21.64,9.08 -35.96,10.94 -22.14,2.88 -39.82,0.45 -52.99,-7.24 -13.18,-7.74 -20.58,-17.8 -22.21,-30.32 -0.72,-5.56 0.04,-10.9 2.25,-16.12 2.22,-5.19 5.74,-9.86 10.48,-14.05l-63.34 8.23 -2.35 -18.08zm116.39 1.77c-16.82,2.18 -28.89,6.61 -36.11,13.25 -7.27,6.64 -10.36,13.94 -9.33,21.9 0.99,7.61 6.01,13.78 14.99,18.44 9.01,4.71 22.14,5.93 39.39,3.69 17.04,-2.21 29.27,-6.66 36.71,-13.33 7.43,-6.67 10.65,-13.98 9.61,-22.02 -0.94,-7.24 -6.19,-13.25 -15.76,-18.04 -9.55,-4.76 -22.71,-6.08 -39.5,-3.89zm13.56 87.94c22.32,-3.91 39.98,-2.18 53.02,5.18 12.99,7.36 20.77,18.25 23.29,32.6 2.48,14.14 -1.15,26.89 -10.82,38.41 -9.74,11.48 -25.28,19.1 -46.74,22.86 -23.2,4.07 -41.31,2.45 -54.34,-4.91 -12.99,-7.31 -20.77,-18.21 -23.3,-32.63 -2.49,-14.19 1.12,-27.03 10.9,-38.48 9.74,-11.43 25.74,-19.12 47.99,-23.03zm3.32 18.45c-16.79,2.94 -28.74,8.17 -35.86,15.67 -7.13,7.51 -9.88,15.75 -8.3,24.73 1.47,8.4 6.86,14.91 16.19,19.48 9.33,4.59 22.29,5.39 38.91,2.47 16.68,-2.92 28.57,-8.14 35.7,-15.64 7.12,-7.51 9.88,-15.75 8.31,-24.73 -1.49,-8.48 -6.88,-15 -16.17,-19.54 -9.23,-4.54 -22.19,-5.35 -38.78,-2.44zm97.89 132.85l23.4 81.82 -126.39 36.14 -5.01 -17.54 108.61 -31.05 -13.37 -46.75 -108.61 31.05 -5.01 -17.54 126.38 -36.13zm-141.29 162.22l168.95 -67.25 6.28 15.77 -16.05 6.38c8.11,1.19 14.54,3.54 19.31,7.04 4.79,3.5 8.36,8.25 10.75,14.26 3.14,7.89 3.61,15.92 1.46,24.08 -2.14,8.22 -7.23,16.11 -15.21,23.77 -8,7.64 -18.73,14.14 -32.14,19.48 -20.75,8.26 -38.48,10.27 -53.14,6.07 -14.69,-4.25 -24.34,-12.17 -29.01,-23.89 -2.07,-5.22 -2.66,-10.58 -1.8,-16.19 0.87,-5.57 3.12,-10.97 6.68,-16.2l-59.34 23.62 -6.74 -16.94zm113.22 -27.03c-15.76,6.27 -26.36,13.54 -31.72,21.76 -5.4,8.23 -6.6,16.07 -3.63,23.52 2.84,7.14 9.22,11.87 19.08,14.17 9.89,2.34 22.92,0.29 39.08,-6.14 15.96,-6.36 26.72,-13.69 32.27,-21.99 5.56,-8.29 6.88,-16.18 3.88,-23.71 -2.7,-6.79 -9.27,-11.31 -19.72,-13.59 -10.44,-2.26 -23.51,-0.28 -39.24,5.98zm20.14 172.88c-8.34,-2.95 -15.29,-6.75 -20.92,-11.44 -5.7,-4.7 -9.97,-10.26 -12.9,-16.73 -4.62,-10.23 -5.22,-19.77 -1.78,-28.65 3.39,-8.9 10.33,-15.7 20.79,-20.42 6.92,-3.13 13.68,-4.48 20.33,-4 6.63,0.42 12.6,2.46 17.84,6.06 5.25,3.61 10.89,10.13 16.86,19.57 8.05,12.67 14.85,21.59 20.4,26.69l5.24 -2.24c8.24,-3.72 13.35,-7.79 15.37,-12.22 2.95,-6.3 2.5,-13.73 -1.35,-22.27 -3.5,-7.74 -7.73,-12.77 -12.66,-15.18 -4.91,-2.37 -12.22,-2.44 -21.85,-0.26l-4.5 -17.98c13.79,-3.41 25.14,-2.89 34.16,1.6 9.03,4.49 16.52,13.38 22.5,26.61 4.66,10.31 6.39,19.26 5.17,26.9 -1.21,7.58 -4.33,13.49 -9.33,17.61 -5.04,4.12 -12.99,8.65 -23.95,13.6l-27.05 12.22c-18.93,8.56 -30.69,14.29 -35.29,17.25 -4.57,2.9 -8.73,6.49 -12.43,10.71l-7.82 -17.3c3.32,-3.63 7.72,-7.02 13.17,-10.13zm44.7 -21.72c-5.75,-4.73 -12.4,-12.66 -19.92,-23.76 -4.35,-6.46 -7.95,-10.72 -10.73,-12.8 -2.81,-2.11 -5.98,-3.28 -9.48,-3.54 -3.5,-0.27 -7.12,0.43 -10.81,2.1 -5.7,2.58 -9.47,6.42 -11.3,11.51 -1.83,5.08 -1.3,10.73 1.51,16.96 2.7,5.96 6.66,10.65 11.93,14.11 5.27,3.45 11.04,5.25 17.27,5.31 6.22,0.11 14.26,-2.09 24.1,-6.54l7.43 -3.35zm77.6 8.42l19.46 37.56c4.42,8.54 7.01,15.48 7.76,20.85 0.73,5.36 -0.51,11.14 -3.65,17.28 -3.18,6.17 -8.43,11.17 -15.81,15 -11.09,5.74 -21.41,6.19 -30.87,1.35 0.78,12.96 -5.9,23.12 -19.99,30.42 -9.03,4.68 -18.15,5.98 -27.29,3.92 -9.19,-2.04 -17.14,-9.57 -23.84,-22.5l-22.49 -43.4 116.72 -60.48zm-40.64 41.6l9.03 17.43c3.59,6.93 6.51,11.46 8.73,13.63 2.2,2.14 5.23,3.57 8.96,4.26 3.72,0.68 7.52,0 11.37,-2 6.11,-3.16 9.39,-7.19 9.87,-12.06 0.44,-4.84 -1.56,-11.55 -6.03,-20.17l-9.32 -17.99 -32.61 16.9zm-51.49 26.68l11.2 21.62c4.78,9.23 9.5,14.86 14.2,16.95 4.65,2.1 9.98,1.57 15.99,-1.54 6.33,-3.28 9.89,-7.5 10.74,-12.65 0.84,-5.19 -1.33,-12.77 -6.49,-22.73l-10.34 -19.94 -35.3 18.29zm78.64 48.4c19.06,-12.26 36.01,-17.51 50.88,-15.78 14.83,1.76 26.22,8.78 34.11,21.03 7.76,12.07 9.36,25.24 4.91,39.6 -4.53,14.35 -15.9,27.41 -34.22,39.19 -19.81,12.75 -37.14,18.28 -52,16.54 -14.81,-1.71 -26.21,-8.74 -34.13,-21.05 -7.79,-12.11 -9.44,-25.35 -4.86,-39.69 4.55,-14.32 16.31,-27.61 35.31,-39.84zm10.21 15.72c-14.34,9.23 -23.33,18.67 -26.98,28.35 -3.66,9.68 -3,18.34 1.93,26.01 4.62,7.17 12.1,11.09 22.48,11.69 10.38,0.61 22.63,-3.67 36.83,-12.81 14.23,-9.16 23.18,-18.58 26.84,-28.26 3.66,-9.68 3.01,-18.34 -1.93,-26.01 -4.66,-7.24 -12.15,-11.16 -22.47,-11.75 -10.27,-0.61 -22.54,3.67 -36.7,12.78zm136.89 89.15l11.26 14.35 -43.04 33.78 31.44 40.05 43.03 -33.78 11.26 14.34 -103.4 81.16 -11.26 -14.34 45.82 -35.96 -31.43 -40.05 -45.82 35.96 -11.26 -14.34 103.4 -81.17zm25.97 213.39c-8.83,-0.43 -16.58,-2.07 -23.32,-4.94 -6.82,-2.86 -12.51,-6.96 -17.17,-12.32 -7.37,-8.46 -10.69,-17.43 -9.95,-26.92 0.69,-9.5 5.38,-18.01 14.04,-25.55 5.73,-4.99 11.82,-8.21 18.32,-9.67 6.48,-1.5 12.78,-1.27 18.84,0.67 6.06,1.95 13.33,6.58 21.77,13.9 11.35,9.82 20.43,16.4 27.22,19.69l4.37 -3.65c6.81,-5.93 10.54,-11.29 11.2,-16.13 1.02,-6.87 -1.55,-13.87 -7.7,-20.94 -5.57,-6.4 -11.07,-10.01 -16.48,-10.89 -5.39,-0.86 -12.41,1.17 -21,6.03l-9.49 -15.93c12.23,-7.22 23.25,-9.99 33.18,-8.29 9.94,1.71 19.67,8.07 29.2,19.02 7.43,8.54 11.66,16.61 12.69,24.28 1.02,7.61 -0.27,14.17 -3.87,19.54 -3.64,5.4 -9.96,12.02 -19.03,19.92l-22.39 19.49c-15.67,13.63 -25.28,22.51 -28.84,26.66 -3.54,4.09 -6.49,8.73 -8.83,13.84l-12.46 -14.33c2.13,-4.43 5.37,-8.93 9.7,-13.48zm36.56 -33.67c-6.86,-2.87 -15.51,-8.56 -25.9,-17.02 -6.03,-4.94 -10.7,-7.98 -13.96,-9.17 -3.3,-1.22 -6.67,-1.42 -10.1,-0.67 -3.43,0.75 -6.7,2.47 -9.75,5.13 -4.72,4.1 -7.22,8.87 -7.51,14.26 -0.29,5.4 1.83,10.65 6.32,15.81 4.3,4.94 9.44,8.29 15.49,10.09 6.04,1.79 12.08,1.85 18.06,0.11 5.99,-1.68 13.06,-6.09 21.2,-13.18l6.15 -5.36zm81.17 92.33l11.87 -12.48c5.57,5.17 9.59,8.47 11.98,9.88 2.42,1.37 5.66,1.71 9.68,1.04 3.99,-0.7 7.72,-2.85 11.21,-6.52 4.19,-4.41 6.37,-9.03 6.49,-13.81 0.09,-4.81 -1.71,-8.98 -5.42,-12.5 -7.39,-7.03 -17.61,-6.59 -30.7,1.22l-10.1 -14.37c20.89,-13.99 38.78,-13.93 53.61,0.18 8.21,7.8 12.04,16.68 11.48,26.7 -0.48,10.01 -4.44,18.89 -11.8,26.63 -7.1,7.46 -16.07,10.7 -26.91,9.72 2.96,12.71 -0.71,24.44 -10.95,35.21 -8.14,8.57 -17.28,13.1 -27.39,13.61 -10.11,0.53 -19.7,-3.53 -28.79,-12.17 -17.68,-16.82 -18.73,-36.28 -3.23,-58.41l15.39 8.45c-4.63,7.13 -6.84,14.06 -6.65,20.71 0.22,6.68 2.54,12.09 6.94,16.28 4.53,4.3 9.72,6.26 15.56,5.94 5.84,-0.33 11.04,-2.85 15.6,-7.65 3.67,-3.85 5.84,-7.97 6.53,-12.37 0.72,-4.44 0.36,-7.99 -0.95,-10.64 -1.38,-2.65 -4.39,-6.22 -9.07,-10.67l-4.38 -3.98zm74.68 124.77c-8.8,0.82 -16.71,0.29 -23.79,-1.61 -7.14,-1.87 -13.36,-5.12 -18.74,-9.77 -8.48,-7.34 -13.04,-15.75 -13.64,-25.25 -0.65,-9.5 2.79,-18.59 10.29,-27.27 4.99,-5.75 10.56,-9.8 16.79,-12.16 6.2,-2.4 12.47,-3.06 18.74,-1.99 6.27,1.07 14.13,4.63 23.52,10.69 12.62,8.12 22.54,13.36 29.72,15.65l3.81 -4.22c5.91,-6.84 8.84,-12.67 8.82,-17.55 0.03,-6.95 -3.49,-13.52 -10.58,-19.65 -6.42,-5.55 -12.37,-8.34 -17.85,-8.46 -5.45,-0.08 -12.12,2.91 -19.95,8.93l-11.63 -14.43c11.09,-8.87 21.61,-13.17 31.68,-12.88 10.08,0.28 20.61,5.21 31.59,14.71 8.55,7.4 13.88,14.8 15.98,22.25 2.09,7.38 1.74,14.06 -1.07,19.89 -2.85,5.86 -8.17,13.3 -16.03,22.4l-19.42 22.45c-13.59,15.71 -21.86,25.85 -24.79,30.47 -2.93,4.55 -5.2,9.55 -6.79,14.94l-14.36 -12.43c1.49,-4.68 4.06,-9.6 7.7,-14.71zm31.45 -38.49c-7.2,-1.87 -16.56,-6.28 -28.04,-13.2 -6.67,-4.03 -11.72,-6.39 -15.12,-7.11 -3.43,-0.74 -6.8,-0.46 -10.09,0.77 -3.29,1.22 -6.28,3.38 -8.93,6.44 -4.09,4.73 -5.9,9.8 -5.42,15.18 0.47,5.39 3.32,10.29 8.49,14.77 4.95,4.28 10.51,6.87 16.75,7.79 6.23,0.93 12.22,0.13 17.9,-2.43 5.69,-2.51 12.06,-7.87 19.13,-16.04l5.33 -6.17zm68.9 -27.38l14.87 10.56 -31.67 44.61 41.51 29.48 31.67 -44.61 14.87 10.55 -76.1 107.18 -14.86 -10.55 33.72 -47.5 -41.51 -29.47 -33.72 47.5 -14.88 -10.56 76.1 -107.19zm159.83 108.49l-70.69 110.83 -15.37 -9.81 27.51 -43.13 -8.9 -5.68c-5.19,-3.31 -9.63,-4.99 -13.4,-5.04 -3.77,-0.05 -11.17,2.99 -22.24,9.04l-28.81 15.58 -19.08 -12.17 35.59 -19.21c10.87,-5.89 19.19,-7.79 24.95,-5.77 -7.78,-7.1 -11.79,-15.18 -12.09,-24.12 -0.3,-8.96 2.15,-17.51 7.35,-25.66 6.49,-10.18 14.43,-16.28 23.8,-18.31 9.38,-2.08 19.14,0.13 29.28,6.6l42.1 26.85zm-25.31 5.79l-21.79 -13.9c-9.11,-5.81 -16.1,-7.81 -20.97,-5.96 -4.89,1.84 -8.81,5.09 -11.74,9.68 -4.27,6.69 -5.43,12.82 -3.48,18.41 1.93,5.54 7.83,11.45 17.65,17.71l16.9 10.78 23.43 -36.72zm35.48 -0.14l76.02 43.6 -9.2 16.04 -30.1 -17.26 -56.2 97.98 -15.81 -9.07 56.2 -97.98 -30.1 -17.27 9.19 -16.04zm89.2 49.22l77.88 40.16 -8.47 16.43 -30.84 -15.9 -51.77 100.4 -16.2 -8.36 51.77 -100.4 -30.85 -15.9 8.48 -16.43zm160.72 71.95l-47.86 122.43 -16.98 -6.64 18.63 -47.65 -9.84 -3.84c-5.74,-2.24 -10.41,-3.03 -14.12,-2.35 -3.72,0.68 -10.38,5.1 -20.07,13.18l-25.24 20.87 -21.08 -8.24 31.19 -25.75c9.52,-7.88 17.31,-11.36 23.36,-10.49 -9.01,-5.46 -14.51,-12.61 -16.54,-21.33 -2.03,-8.72 -1.28,-17.59 2.24,-26.59 4.39,-11.25 11,-18.77 19.8,-22.58 8.8,-3.86 18.8,-3.58 30,0.8l46.51 18.18zm-23.71 10.59l-24.07 -9.41c-10.06,-3.93 -17.3,-4.54 -21.73,-1.79 -4.44,2.76 -7.66,6.71 -9.64,11.78 -2.89,7.39 -2.84,13.62 0.16,18.74 2.96,5.05 9.89,9.7 20.74,13.95l18.68 7.3 15.86 -40.57zm127.59 145.43c-7.64,4.45 -15.04,7.3 -22.26,8.56 -7.27,1.31 -14.27,0.97 -21.1,-0.98 -10.79,-3.08 -18.46,-8.79 -23.01,-17.15 -4.59,-8.35 -5.3,-18.03 -2.14,-29.07 2.09,-7.31 5.43,-13.33 10.09,-18.1 4.61,-4.78 10.02,-8.02 16.16,-9.7 6.14,-1.66 14.77,-1.74 25.83,-0.2 14.87,2.05 26.07,2.62 33.55,1.68l1.68 -5.43c2.48,-8.7 2.69,-15.22 0.61,-19.63 -2.9,-6.32 -8.86,-10.79 -17.87,-13.37 -8.16,-2.33 -14.73,-2.36 -19.75,-0.16 -4.98,2.22 -9.77,7.75 -14.33,16.5l-16.63 -8.19c6.32,-12.72 14.06,-21.04 23.31,-25.02 9.26,-3.99 20.89,-3.95 34.85,0.04 10.87,3.11 18.82,7.58 23.86,13.45 5,5.82 7.49,12.02 7.4,18.49 -0.11,6.51 -1.8,15.51 -5.11,27.07l-8.15 28.54c-5.71,19.97 -8.94,32.65 -9.66,38.07 -0.74,5.36 -0.69,10.86 0.13,16.41l-18.26 -5.22c-0.62,-4.88 -0.36,-10.42 0.8,-16.59zm12.31 -48.15c-7.31,1.33 -17.67,1.27 -30.99,-0.17 -7.75,-0.85 -13.32,-0.86 -16.7,-0.08 -3.43,0.78 -6.37,2.44 -8.83,4.94 -2.47,2.5 -4.28,5.72 -5.39,9.61 -1.72,6.01 -1.22,11.37 1.47,16.05 2.7,4.69 7.34,7.94 13.92,9.82 6.29,1.8 12.43,1.81 18.48,0.02 6.04,-1.79 11.14,-5.03 15.21,-9.74 4.1,-4.68 7.63,-12.23 10.59,-22.61l2.24 -7.84zm70.59 -48.75l72.82 16.72 -25.34 110.34 11.36 2.61 -12.42 54.06 -14.56 -3.34 8.33 -36.29 -82.2 -18.88 -8.33 36.29 -14.81 -3.4 12.41 -54.07 9.38 2.16c16.95,-17.63 31.41,-53.03 43.36,-106.2zm10.68 21.42c-10.85,41.38 -23.18,70.95 -37,88.69l56.03 12.87 21.2 -92.32 -40.23 -9.24zm86.66 -0.75l41.66 7.31c9.48,1.66 16.57,3.81 21.29,6.48 4.7,2.67 8.55,7.16 11.53,13.38 2.97,6.27 3.76,13.48 2.32,21.67 -2.15,12.3 -8.06,20.78 -17.65,25.36 10.78,7.24 14.8,18.71 12.06,34.34 -1.76,10.02 -6.26,18.06 -13.44,24.08 -7.19,6.07 -18,7.82 -32.35,5.3l-48.14 -8.45 22.72 -129.47zm8.42 57.54l19.34 3.39c7.69,1.35 13.06,1.78 16.13,1.33 3.03,-0.45 6,-1.99 8.82,-4.54 2.8,-2.54 4.56,-5.97 5.31,-10.25 1.19,-6.77 -0.03,-11.83 -3.61,-15.16 -3.57,-3.29 -10.12,-5.77 -19.68,-7.44l-19.96 -3.51 -6.35 36.18zm-10.02 57.12l23.98 4.21c10.23,1.79 17.57,1.46 22.09,-1.01 4.49,-2.42 7.3,-6.98 8.47,-13.64 1.23,-7.02 0.04,-12.42 -3.54,-16.22 -3.61,-3.81 -10.96,-6.68 -22.01,-8.62l-22.12 -3.88 -6.87 39.16zm85.9 -32.92c1.72,-22.6 7.76,-39.29 18.11,-50.1 10.34,-10.77 22.83,-15.62 37.36,-14.52 14.3,1.09 25.77,7.76 34.54,19.98 8.72,12.26 12.26,29.21 10.61,50.93 -1.78,23.49 -7.83,40.64 -18.18,51.45 -10.29,10.78 -22.78,15.63 -37.37,14.52 -14.37,-1.09 -25.93,-7.77 -34.6,-20.07 -8.68,-12.26 -12.18,-29.67 -10.47,-52.19zm18.69 1.34c-1.29,17 0.82,29.87 6.34,38.62 5.51,8.76 12.82,13.46 21.92,14.15 8.5,0.65 16.14,-2.97 22.88,-10.88 6.74,-7.91 10.72,-20.26 12,-37.1 1.28,-16.88 -0.83,-29.69 -6.34,-38.46 -5.52,-8.75 -12.82,-13.46 -21.91,-14.15 -8.59,-0.65 -16.24,2.96 -22.94,10.84 -6.68,7.82 -10.67,20.19 -11.95,36.98zm101.49 -57.8l18.22 0.41 -1.27 56.72c5.83,0.13 9.95,-1.17 12.38,-3.86 2.39,-2.74 6.02,-10.51 10.83,-23.44 3.73,-10.39 6.8,-17.21 9.15,-20.49 2.32,-3.28 4.94,-5.47 7.79,-6.45 2.85,-1 7.8,-1.44 14.89,-1.28l2.7 0.06 -0.41 18.24 -5.35 -0.25c-3.84,-0.09 -6.6,0.57 -8.28,2.01 -1.63,1.44 -3.09,4.11 -4.36,7.93 -4.48,13.15 -7.92,21.6 -10.41,25.35 -2.48,3.75 -6.36,6.99 -11.61,9.78 7.79,2.76 15.27,11.84 22.39,27.28l19.14 41.17 -20.3 -0.46 -18.72 -40.94c-3.69,-8.45 -6.95,-13.97 -9.8,-16.61 -2.9,-2.64 -6.33,-4.02 -10.34,-4.11l-1.36 60.76 -18.22 -0.4 2.94 -131.42zm157.32 115.93c-5.98,6.51 -12.2,11.42 -18.72,14.77 -6.55,3.4 -13.35,5.16 -20.44,5.31 -11.22,0.25 -20.24,-2.93 -27.06,-9.57 -6.86,-6.61 -10.4,-15.65 -10.66,-27.13 -0.17,-7.6 1.25,-14.34 4.28,-20.27 2.99,-5.94 7.2,-10.63 12.57,-14.05 5.37,-3.41 13.59,-6.04 24.61,-7.85 14.81,-2.44 25.68,-5.21 32.54,-8.32l-0.01 -5.69c-0.2,-9.04 -1.94,-15.33 -5.23,-18.93 -4.63,-5.18 -11.65,-7.69 -21.02,-7.48 -8.49,0.19 -14.77,2.11 -18.92,5.7 -4.1,3.59 -7.03,10.29 -8.79,20l-18.31 -2.89c2.27,-14.03 7.19,-24.27 14.85,-30.81 7.66,-6.55 18.78,-9.96 33.3,-10.28 11.3,-0.25 20.22,1.66 26.77,5.78 6.5,4.07 10.72,9.26 12.55,15.47 1.82,6.25 2.87,15.34 3.14,27.37l0.66 29.67c0.46,20.77 1.13,33.84 2.05,39.23 0.87,5.34 2.55,10.57 4.98,15.63l-18.98 0.42c-2.04,-4.47 -3.43,-9.84 -4.16,-16.08zm-2.49 -49.64c-6.6,3.44 -16.5,6.45 -29.66,9.02 -7.65,1.48 -12.97,3.12 -15.97,4.87 -3.05,1.76 -5.36,4.22 -6.97,7.34 -1.62,3.11 -2.39,6.72 -2.3,10.77 0.13,6.25 2.19,11.22 6.16,14.9 3.96,3.67 9.36,5.4 16.2,5.25 6.54,-0.15 12.41,-1.96 17.65,-5.46 5.24,-3.49 9.15,-8.1 11.65,-13.81 2.53,-5.67 3.66,-13.93 3.42,-24.73l-0.18 -8.15zm28.57 -66.6l87.38 -6.64 1.4 18.44 -34.6 2.63 8.56 112.63 -18.18 1.38 -8.56 -112.63 -34.6 2.63 -1.4 -18.44zm177.88 65.26l18.45 0.42c-0.04,15.75 -3.65,28.26 -10.8,37.49 -7.18,9.23 -16.53,14.58 -28.04,16.08 -14.02,1.82 -26.28,-2.41 -36.82,-12.75 -10.54,-10.3 -17.27,-26.7 -20.19,-49.18 -2.95,-22.65 -0.58,-40.24 7.07,-52.73 7.69,-12.52 18.68,-19.7 32.99,-21.56 11.09,-1.44 20.83,0.78 29.31,6.66 8.47,5.87 14.65,15.55 18.57,28.99l-17.15 5.56c-2.86,-8.61 -6.69,-14.84 -11.53,-18.64 -4.84,-3.84 -10.23,-5.35 -16.22,-4.57 -8.92,1.15 -15.77,6.05 -20.6,14.72 -4.83,8.68 -6.13,21.61 -3.9,38.78 2.32,17.79 6.78,30.28 13.38,37.46 6.6,7.23 14.24,10.28 22.95,9.15 6.86,-0.9 12.34,-4.29 16.52,-10.15 4.12,-5.9 6.15,-14.46 6.01,-25.73zm16.38 -88.08l17.96 -3.15 8.89 50.64 22.87 -4.01c16.38,-2.88 28.86,-1.09 37.45,5.34 8.54,6.47 13.8,15.19 15.72,26.12 1.82,10.4 0.15,20.12 -4.99,29.16 -5.15,9.01 -15.23,14.85 -30.24,17.48l-44.94 7.89 -22.72 -129.47zm37.53 108.35l18.87 -3.31c13.72,-2.41 22.07,-6.14 24.99,-11.2 2.97,-5.06 3.99,-10.25 3.06,-15.57 -1.22,-6.94 -4.32,-11.93 -9.26,-14.92 -4.99,-3.03 -12.92,-3.56 -23.9,-1.64l-21.29 3.74 7.53 42.9zm55.57 -125.87l17.53 -5.01 15.59 54.56c5.61,-1.61 9.16,-4.08 10.68,-7.36 1.47,-3.32 2.64,-11.82 3.4,-25.6 0.48,-11.03 1.39,-18.45 2.66,-22.28 1.24,-3.82 3.1,-6.68 5.53,-8.47 2.43,-1.8 7.03,-3.68 13.85,-5.63l2.59 -0.74 5.02 17.53 -5.19 1.35c-3.7,1.06 -6.13,2.5 -7.31,4.38 -1.14,1.85 -1.74,4.84 -1.82,8.86 -0.37,13.89 -1.15,22.98 -2.43,27.3 -1.26,4.31 -4,8.56 -8.19,12.78 8.26,0.33 18.09,6.78 29.48,19.42l30.47 33.65 -19.52 5.58 -30.01 -33.56c-6.03,-6.97 -10.78,-11.29 -14.28,-12.96 -3.56,-1.66 -7.24,-1.96 -11.1,-0.86l16.71 58.44 -17.53 5.01 -36.13 -126.39zm96.26 42.33c-7.14,-21.51 -8.01,-39.24 -2.65,-53.21 5.39,-13.93 15.02,-23.22 28.85,-27.81 13.62,-4.53 26.77,-2.8 39.58,5.08 12.77,7.95 22.59,22.21 29.46,42.88 7.42,22.36 8.47,40.51 3.1,54.48 -5.33,13.92 -14.97,23.21 -28.87,27.83 -13.66,4.54 -26.9,2.85 -39.65,-5.15 -12.74,-7.96 -22.7,-22.66 -29.82,-44.1zm17.76 -5.99c5.38,16.18 12.29,27.24 20.76,33.18 8.47,5.96 17.02,7.47 25.68,4.59 8.09,-2.69 13.74,-8.97 16.9,-18.87 3.17,-9.9 2.07,-22.84 -3.26,-38.86 -5.33,-16.06 -12.23,-27.07 -20.7,-33.02 -8.47,-5.95 -17.02,-7.47 -25.68,-4.59 -8.17,2.71 -13.83,9 -16.96,18.85 -3.14,9.8 -2.05,22.74 3.26,38.72zm70.75 -92.97l16.95 -6.75 20.32 51.07 20.47 -8.15c-10.86,-37.11 -3.55,-60.73 21.91,-70.87 13.17,-5.24 25.92,-3.82 38.21,4.23 12.33,8.04 22.42,21.98 30.32,41.83 8.3,20.85 10.74,38.29 7.32,52.41 -3.39,14.07 -11.88,23.81 -25.44,29.21 -12.75,5.08 -24.76,3.99 -36.14,-3.24 -11.38,-7.24 -21.17,-19.42 -29.43,-36.62l-20.47 8.14 21.54 54.12 -16.95 6.75 -48.61 -122.13zm86.99 -17.18c-8.36,3.33 -13.29,9.79 -14.75,19.37 -1.4,9.6 0.65,21.36 6.24,35.4 6.62,16.63 13.76,27.96 21.49,34.02 7.69,6.07 15.5,7.55 23.34,4.43 7.22,-2.88 12.06,-8.75 14.49,-17.62 2.42,-8.87 0.28,-21.75 -6.46,-38.68 -12.5,-31.42 -27.29,-43.71 -44.35,-36.92zm104.2 -67.51l64.89 -37.07 56.15 98.31 10.12 -5.78 27.51 48.17 -12.97 7.41 -18.47 -32.33 -73.23 41.83 18.46 32.33 -13.19 7.54 -27.52 -48.17 8.36 -4.77c0.52,-24.45 -12.85,-60.28 -40.11,-107.47zm22.37 8.51c20.08,37.78 31.06,67.88 32.91,90.29l49.92 -28.52 -46.98 -82.24 -35.85 20.47zm50.94 -78.09l-13.84 -21.51 15.34 -9.87 13.84 21.51 -15.34 9.87zm84.28 130.99l-71.13 -110.55 15.34 -9.87 71.13 110.55 -15.34 9.87zm33.3 -179.98l75.94 107.29 -14.88 10.53 -29.56 -41.75 -8.62 6.1c-5.03,3.56 -8.25,7.03 -9.73,10.5 -1.47,3.48 -1.45,11.47 -0.02,24.01l3.55 32.56 -18.47 13.07 -4.36 -40.2c-1.35,-12.29 0.03,-20.72 4.08,-25.29 -9.52,4.52 -18.51,5.19 -26.9,2.09 -8.41,-3.1 -15.41,-8.6 -20.99,-16.49 -6.97,-9.86 -9.62,-19.51 -7.97,-28.95 1.62,-9.47 7.35,-17.68 17.17,-24.63l40.76 -28.84zm-4.2 25.62l-21.09 14.93c-8.82,6.24 -13.31,11.96 -13.44,17.17 -0.14,5.22 1.38,10.08 4.53,14.53 4.58,6.47 9.82,9.86 15.74,10.17 5.85,0.3 13.55,-2.93 23.06,-9.66l16.36 -11.58 -25.16 -35.56zm28.91 -42.74l66.94 -52.54 81.16 103.4 -14.35 11.26 -69.74 -88.86 -38.25 30.02 40.38 51.44c9.2,11.72 15.1,19.85 17.61,24.37 2.56,4.49 3.44,9.28 2.67,14.39 -0.77,5.11 -3.89,9.82 -9.34,14.09 -3.39,2.66 -7.33,5.43 -11.86,8.34l-11.57 -14.74c6.72,-5.39 10.56,-8.77 11.5,-10.1 0.92,-1.36 1.1,-3.12 0.54,-5.26 -0.55,-2.14 -4.63,-8.01 -12.21,-17.67l-53.48 -68.14z"/>
   <path class="fil0 str1" d="M3117.36 3276.62l13.76 -11.97 33.76 38.78 17.52 -15.25c12.54,-10.92 24.15,-15.83 34.82,-14.76 10.66,1.13 19.67,5.88 26.96,14.26 6.93,7.96 10.51,17.15 10.78,27.55 0.24,10.36 -5.38,20.57 -16.87,30.58l-34.42 29.96 -86.31 -99.15zm88.09 73.41l14.45 -12.58c10.51,-9.14 15.74,-16.65 15.62,-22.49 -0.06,-5.87 -1.87,-10.84 -5.42,-14.91 -4.63,-5.32 -9.86,-7.99 -15.64,-8 -5.83,-0.02 -12.9,3.62 -21.31,10.94l-16.3 14.19 28.6 32.85zm-15.59 -136.19l12.57 -13.22 39.64 37.7 35.09 -36.89 -39.65 -37.7 12.56 -13.21 95.26 90.59 -12.57 13.21 -42.21 -40.15 -35.08 36.9 42.21 40.14 -12.57 13.22 -95.25 -90.59zm56.3 -93.77l-19.4 -16.67 11.88 -13.84 19.4 16.67 -11.88 13.84zm118.17 101.47l-99.72 -85.64 11.88 -13.84 99.73 85.64 -11.89 13.84zm39.61 -119.61l14 -12.02c10.51,11.75 16.18,23.47 17.03,35.11 0.83,11.66 -2.54,21.89 -10.11,30.7 -9.21,10.73 -21.16,15.77 -35.91,15.13 -14.72,-0.62 -30.69,-8.33 -47.88,-23.09 -17.33,-14.88 -27.33,-29.54 -29.99,-43.95 -2.65,-14.46 0.73,-27.14 10.13,-38.09 7.29,-8.48 16.02,-13.34 26.25,-14.64 10.23,-1.28 21.3,1.78 33.2,9.16l-9.04 15.59c-7.89,-4.49 -14.91,-6.56 -21.04,-6.15 -6.17,0.38 -11.19,2.85 -15.12,7.44 -5.86,6.82 -7.69,15.04 -5.49,24.72 2.21,9.68 9.89,20.17 23.02,31.45 13.61,11.68 25.28,17.99 34.99,18.92 9.74,0.97 17.46,-1.87 23.18,-8.53 4.51,-5.25 6.31,-11.44 5.51,-18.59 -0.88,-7.14 -5.09,-14.87 -12.73,-23.16zm-55.2 -63.03l50.73 -71.46 15.07 10.7 -20.09 28.3 92.11 65.39 -10.55 14.87 -92.11 -65.4 -20.09 28.3 -15.07 -10.7zm57.83 -80.03l9.81 -15.37 46.33 29.55 11.85 -18.57c-30.5,-23.76 -38.37,-47.21 -23.64,-70.31 7.63,-11.95 18.8,-18.25 33.48,-18.9 14.7,-0.68 31.03,4.73 49.04,16.22 18.93,12.07 31.1,24.79 36.58,38.25 5.47,13.4 4.28,26.27 -3.57,38.58 -7.38,11.56 -17.76,17.7 -31.23,18.49 -13.46,0.77 -28.52,-3.39 -45.28,-12.52l-11.85 18.57 49.11 31.33 -9.81 15.38 -110.82 -70.7zm60.54 -64.77c-4.83,7.58 -5.06,15.7 -0.64,24.33 4.47,8.61 13.01,16.96 25.75,25.08 15.09,9.63 27.51,14.65 37.32,15.05 9.79,0.43 16.99,-2.94 21.53,-10.05 4.18,-6.55 4.67,-14.15 1.46,-22.76 -3.23,-8.62 -12.48,-17.82 -27.85,-27.62 -28.51,-18.18 -47.69,-19.51 -57.57,-4.03zm77.16 -83.98c-27.01,-13.92 -45.62,-28.12 -55.79,-42.58 -10.17,-14.45 -11.61,-28.78 -4.3,-42.96 6.48,-12.57 17.21,-19.57 32.24,-20.99 18.18,-1.75 42.25,5.1 72.18,20.54 26.91,13.87 45.49,28.02 55.72,42.45 10.22,14.44 11.65,28.8 4.3,43.06 -6.48,12.57 -17.93,19.68 -34.38,21.36 -16.42,1.65 -39.77,-5.31 -69.97,-20.88zm8.55 -16.67c26.19,13.5 45.08,20.05 56.54,19.65 11.51,-0.39 19.27,-4.5 23.3,-12.3 3.81,-7.4 2.48,-15.87 -3.98,-25.52 -6.5,-9.62 -22.7,-21.11 -48.7,-34.51 -26.3,-13.56 -45.16,-20.1 -56.62,-19.69 -11.46,0.4 -19.24,4.61 -23.34,12.56 -3.77,7.32 -2.42,15.75 4.09,25.33 6.51,9.58 22.71,21.07 48.71,34.48zm39.68 -78.08c-28.31,-11.06 -48.29,-23.26 -59.89,-36.59 -11.6,-13.33 -14.52,-27.43 -8.71,-42.3 5.15,-13.17 15.1,-21.24 29.91,-24.2 17.9,-3.61 42.54,0.72 73.91,12.98 28.19,11.02 48.14,23.18 59.81,36.48 11.65,13.31 14.55,27.44 8.71,42.38 -5.15,13.18 -15.8,21.43 -31.99,24.8 -16.17,3.34 -40.11,-1.18 -71.75,-13.55zm6.78 -17.47c27.44,10.73 46.91,15.3 58.27,13.72 11.4,-1.58 18.7,-6.46 21.9,-14.64 3.03,-7.75 0.84,-16.04 -6.59,-24.98 -7.45,-8.89 -24.76,-18.65 -52,-29.3 -27.56,-10.77 -46.99,-15.33 -58.35,-13.74 -11.36,1.59 -18.66,6.57 -21.92,14.9 -3,7.67 -0.78,15.92 6.68,24.78 7.47,8.85 24.77,18.61 52.01,29.26zm-33.59 -168.87l5.46 -19.08 155.15 -31.15 -135.19 -38.65 5.15 -18.02 174.35 49.85 -5.42 18.95 -154.84 31.64 134.78 38.54 -5.08 17.76 -174.36 -49.84zm115.46 -96.86c-13.96,-3.99 -24.2,-10.43 -30.73,-19.36 -6.5,-8.89 -8.24,-18.64 -5.2,-29.28 2.99,-10.43 9.53,-17.65 19.64,-21.7 10.16,-4.07 22.77,-3.93 37.83,0.38 14.69,4.2 25.35,10.8 32.05,19.78 6.69,8.98 8.54,18.82 5.5,29.46 -2.16,7.54 -6.2,13.37 -12.06,17.44 -5.91,4.07 -12.37,6.43 -19.51,7.11 -7.08,0.65 -16.28,-0.62 -27.52,-3.83zm5.52 -16.86c11.2,3.2 19.88,3.71 26.08,1.53 6.16,-2.19 9.93,-5.72 11.32,-10.59 1.43,-4.99 -0.15,-10.06 -4.7,-15.18 -4.56,-5.08 -11.78,-9.02 -21.64,-11.84 -11.12,-3.18 -19.7,-3.57 -25.74,-1.17 -6.08,2.39 -9.76,5.85 -11.06,10.4 -1.39,4.87 0.01,9.79 4.18,14.89 4.21,5.07 11.37,9.05 21.56,11.96zm56.84 32.59l19.01 -66.49 17.53 5.02 -19.01 66.48 -17.53 -5.01zm-38.81 -93.03c-29.93,-5.26 -51.93,-13.27 -65.93,-24.04 -14.01,-10.78 -19.66,-24.02 -16.9,-39.74 2.45,-13.93 10.61,-23.81 24.53,-29.64 16.84,-7.07 41.85,-7.7 75.03,-1.88 29.81,5.23 51.76,13.21 65.83,23.94 14.05,10.74 19.69,24.03 16.92,39.83 -2.45,13.93 -11.26,24.12 -26.46,30.62 -15.19,6.48 -39.55,6.78 -73.02,0.91zm3.2 -18.47c29.02,5.09 49.01,5.73 59.83,1.93 10.87,-3.8 17.06,-10.03 18.58,-18.68 1.44,-8.19 -2.35,-15.88 -11.4,-23.18 -9.06,-7.24 -27.95,-13.39 -56.76,-18.45 -29.15,-5.11 -49.1,-5.74 -59.92,-1.93 -10.82,3.8 -16.99,10.12 -18.54,18.94 -1.42,8.1 2.38,15.76 11.44,22.96 9.07,7.21 27.96,13.36 56.77,18.41zm15.89 -86.68c-30.3,-2.3 -52.97,-8.12 -67.97,-17.48 -14.99,-9.35 -21.91,-21.98 -20.7,-37.89 1.07,-14.1 8.23,-24.73 21.52,-31.9 16.07,-8.68 40.9,-11.75 74.48,-9.2 30.18,2.29 52.81,8.09 67.86,17.39 15.04,9.32 21.96,21.99 20.74,37.98 -1.07,14.11 -8.86,25.11 -23.35,33.07 -14.48,7.92 -38.7,10.61 -72.58,8.03zm1.38 -18.69c29.38,2.24 49.33,0.91 59.73,-3.92 10.45,-4.84 16,-11.65 16.66,-20.41 0.63,-8.29 -3.89,-15.58 -13.6,-21.95 -9.73,-6.33 -29.13,-10.6 -58.3,-12.82 -29.5,-2.24 -49.42,-0.91 -59.82,3.93 -10.39,4.84 -15.92,11.74 -16.6,20.66 -0.62,8.21 3.91,15.46 13.63,21.74 9.73,6.29 29.14,10.56 58.3,12.77zm8 -91.65c-30.38,-0.68 -53.33,-5.29 -68.81,-13.82 -15.47,-8.54 -23.05,-20.79 -22.69,-36.74 0.32,-14.14 6.89,-25.13 19.78,-33 15.58,-9.53 40.21,-13.92 73.89,-13.17 30.26,0.68 53.16,5.25 68.68,13.74 15.53,8.5 23.11,20.79 22.75,36.82 -0.32,14.15 -7.5,25.55 -21.56,34.27 -14.03,8.69 -38.07,12.66 -72.04,11.9zm0.38 -18.74c29.45,0.66 49.31,-1.72 59.43,-7.11 10.18,-5.39 15.36,-12.49 15.55,-21.27 0.19,-8.31 -4.71,-15.35 -14.76,-21.19 -10.05,-5.8 -29.65,-9.03 -58.89,-9.68 -29.59,-0.67 -49.4,1.72 -59.53,7.12 -10.12,5.38 -15.27,12.57 -15.47,21.52 -0.19,8.22 4.73,15.22 14.77,20.97 10.06,5.76 29.66,8.99 58.9,9.64zm1.8 -92.74c-30.38,0.67 -53.52,-2.91 -69.36,-10.75 -15.83,-7.84 -23.95,-19.73 -24.3,-35.69 -0.32,-14.13 5.76,-25.41 18.29,-33.84 15.14,-10.22 39.55,-15.7 73.22,-16.45 30.26,-0.67 53.35,2.88 69.23,10.67 15.89,7.8 24.01,19.73 24.36,35.77 0.32,14.14 -6.34,25.85 -20,35.19 -13.64,9.3 -37.47,14.34 -71.44,15.1zm-0.46 -18.74c29.45,-0.65 49.19,-3.92 59.06,-9.75 9.92,-5.84 14.78,-13.16 14.59,-21.94 -0.19,-8.32 -5.4,-15.12 -15.69,-20.52 -10.3,-5.34 -30.03,-7.69 -59.27,-7.04 -29.59,0.65 -49.28,3.92 -59.15,9.76 -9.87,5.83 -14.7,13.24 -14.5,22.19 0.18,8.23 5.4,14.99 15.69,20.3 10.3,5.3 30.03,7.65 59.27,7zm89.28 -90.26l-190.17 -28.99 -1.12 -14.76 190.17 28.98 1.12 14.77zm-96.88 -54.4c-30.14,3.91 -53.52,2.83 -70.11,-3.27 -16.58,-6.11 -25.92,-17.06 -27.98,-32.89 -1.82,-14.02 3.02,-25.89 14.57,-35.61 13.96,-11.77 37.65,-19.84 71.05,-24.18 30.01,-3.9 53.35,-2.84 69.97,3.21 16.62,6.06 25.97,17.05 28.04,32.96 1.82,14.03 -3.55,26.39 -16.12,37.13 -12.57,10.71 -35.72,18.27 -69.42,22.65zm-2.46 -18.58c29.22,-3.8 48.49,-9.16 57.68,-16.01 9.24,-6.87 13.29,-14.67 12.16,-23.37 -1.07,-8.25 -6.98,-14.46 -17.79,-18.73 -10.82,-4.21 -30.68,-4.44 -59.69,-0.67 -29.34,3.82 -48.57,9.17 -57.76,16.03 -9.19,6.85 -13.2,14.74 -12.05,23.61 1.06,8.16 6.98,14.33 17.78,18.51 10.8,4.17 30.67,4.4 59.67,0.63zm63.22 -174.89l3.15 17.95 -139.69 24.52c5.59,3.3 11.55,7.96 17.85,14.06 6.3,6.09 11.25,11.82 14.9,17.22l-20.96 3.68c-7.47,-8.89 -15.99,-16.39 -25.6,-22.55 -9.56,-6.13 -18.56,-10.07 -26.96,-11.76l-2.04 -11.65 179.35 -31.47zm-13.45 -56.18l-24.68 5.7 -4.67 -20.24 24.68 -5.7 4.67 20.24zm-97.89 -20.72c-29.22,8.36 -52.5,10.76 -69.81,7.19 -17.31,-3.57 -28.18,-13.02 -32.56,-28.36 -3.89,-13.6 -0.87,-26.05 9.11,-37.38 12.06,-13.72 34.28,-25.21 66.66,-34.47 29.11,-8.32 52.34,-10.74 69.68,-7.23 17.34,3.52 28.21,13 32.62,28.42 3.89,13.61 0.42,26.63 -10.42,39.12 -10.83,12.45 -32.61,23.37 -65.28,32.71zm-5.19 -18.01c28.33,-8.09 46.58,-16.26 54.66,-24.4 8.11,-8.17 10.96,-16.48 8.55,-24.92 -2.29,-8 -9.06,-13.26 -20.38,-15.87 -11.32,-2.56 -31,0.17 -59.12,8.21 -28.45,8.13 -46.67,16.28 -54.74,24.44 -8.07,8.14 -10.87,16.53 -8.41,25.14 2.27,7.91 9.03,13.13 20.33,15.65 11.31,2.52 30.99,-0.21 59.11,-8.25zm33.62 -181.34l6.74 16.94 -131.77 52.45c6.15,2.09 12.93,5.44 20.33,10.13 7.41,4.68 13.43,9.28 18.1,13.82l-19.77 7.88c-9.12,-7.18 -19,-12.8 -29.66,-16.86 -10.6,-4.06 -20.22,-6.08 -28.79,-6.03l-4.37 -10.98 169.19 -67.35zm-21.74 -53.49l-23.08 10.43 -8.55 -18.93 23.08 -10.43 8.55 18.93zm-97.31 -2.24c-26.98,13.99 -49.32,20.96 -67,20.9 -17.67,-0.07 -30.19,-7.17 -37.54,-21.34 -6.5,-12.55 -6.01,-25.36 1.52,-38.44 9.09,-15.84 28.6,-31.52 58.5,-47.02 26.87,-13.93 49.16,-20.91 66.85,-20.91 17.69,0.01 30.24,7.15 37.62,21.39 6.51,12.56 5.69,26.01 -2.46,40.4 -8.14,14.36 -27.32,29.38 -57.49,45.02zm-8.66 -16.62c26.16,-13.56 42.43,-25.18 48.73,-34.76 6.34,-9.62 7.48,-18.33 3.44,-26.12 -3.83,-7.39 -11.51,-11.21 -23.13,-11.52 -11.6,-0.26 -30.34,6.32 -56.31,19.78 -26.27,13.62 -42.51,25.22 -48.81,34.81 -6.29,9.59 -7.36,18.36 -3.24,26.31 3.78,7.31 11.45,11.08 23.02,11.31 11.59,0.23 30.33,-6.35 56.3,-19.81zm-42.76 -82.7c-26.39,15.07 -48.44,22.95 -66.1,23.61 -17.66,0.65 -30.46,-5.93 -38.37,-19.79 -7.02,-12.28 -7.05,-25.09 -0.05,-38.47 8.44,-16.2 27.29,-32.66 56.53,-49.36 26.29,-15.01 48.27,-22.89 65.95,-23.62 17.68,-0.71 30.5,5.92 38.45,19.84 7.02,12.29 6.75,25.76 -0.8,40.47 -7.56,14.68 -26.11,30.47 -55.61,47.32zm-9.33 -16.25c25.58,-14.61 41.37,-26.89 47.27,-36.72 5.94,-9.86 6.72,-18.61 2.37,-26.24 -4.13,-7.22 -11.95,-10.72 -23.57,-10.56 -11.6,0.21 -30.07,7.55 -55.47,22.05 -25.69,14.68 -41.45,26.93 -47.34,36.77 -5.9,9.84 -6.62,18.65 -2.18,26.42 4.08,7.15 11.9,10.61 23.47,10.37 11.58,-0.25 30.05,-7.58 55.45,-22.09z"/>
  </g>
  <g id="_1353121952">
   <path class="fil0 str2" d="M715.73 1831.77l-1.83 10.53c-1.7,9.74 -0.64,16 3.12,18.76 3.76,2.74 20.99,6.82 51.74,12.19l83.83 14.62c5.21,0.91 22.11,3.15 50.75,6.81 2.39,-9.04 5.65,-25.29 9.75,-48.79 5.96,-34.21 9.53,-57.1 10.75,-68.77 -14.92,-3.4 -29.97,-6.45 -45.13,-9.1l-91.96 -16.04c-7.3,-1.27 -15.95,-2.51 -25.94,-3.72l-16.91 -2.2c-5.82,-0.9 -9.74,0.34 -11.71,3.71 -2.04,3.35 -3.42,7.25 -4.17,11.57l-1.81 10.37 -9.7 -1.69c2.75,-12.08 5.3,-24.86 7.65,-38.3 2.23,-12.83 4.88,-29.88 7.95,-51.15l9.7 1.69 -1.66 9.49c-1.94,11.15 -0.98,17.98 2.89,20.38 3.88,2.39 20.11,6.09 48.62,11.06l91.75 16c25.54,4.46 40.51,6.15 44.93,5.1 4.43,-1.06 7.47,-6.5 9.17,-16.24l1.97 -11.31 9.69 1.69c-11.94,64.84 -19.69,107.38 -23.22,127.66 -2.26,12.92 -8.52,50.67 -18.78,113.18l-9.69 -1.69 2.04 -11.74c1.96,-11.2 0.72,-17.65 -3.7,-19.38 -4.39,-1.68 -20.57,-4.99 -48.51,-9.86l-84.45 -14.73c-29.87,-5.21 -47.04,-7.45 -51.56,-6.79 -4.52,0.66 -7.68,6.13 -9.45,16.29l-2.05 11.73 -9.69 -1.69c2.8,-12.4 5.68,-27.05 8.64,-43.99 3.07,-17.62 5.49,-33.36 7.29,-47.34l9.69 1.69zm90.32 206.59l19.78 21.23c5.03,5.34 8.2,9.94 9.49,13.72 2.09,6.04 3.25,13.1 3.42,21.25 0.39,18.36 -4.95,33.3 -16.09,44.91 -11.13,11.56 -25.72,17.54 -43.65,17.92 -8.99,0.19 -17.91,-0.89 -26.7,-3.3 -8.78,-2.4 -15.99,-5.38 -21.57,-8.96 -5.63,-3.58 -10.32,-7.66 -14.18,-12.24 -1.25,-1.52 -5.45,-7.72 -12.62,-18.58l-4.63 -6.09c-5.67,-7.71 -9.35,-13.99 -11.2,-18.71 -1.79,-4.78 -2.75,-10.21 -2.88,-16.4 -0.11,-4.87 0.47,-9.96 1.74,-15.39 1.31,-5.37 3.21,-11.02 5.72,-16.95l-21.8 0.46c-22.33,0.48 -38.09,1.12 -47.28,1.96 -4.02,0.4 -6.9,1.74 -8.65,4.04 -1.75,2.32 -2.55,7.15 -2.39,14.51l0.18 8.36 -8.89 0.18c0.22,-19.63 0.22,-34.04 0.03,-43.14 -0.21,-10.04 -0.79,-22.89 -1.77,-38.44l8.89 -0.19 0.24 11.32c0.17,7.99 1.97,12.66 5.44,14.02 3.41,1.36 21.57,1.71 54.49,1.01l95.02 -2.02c16.51,-0.35 29.25,-1.04 38.17,-2.02 4.33,-0.52 7.17,-1.58 8.56,-3.25 1.34,-1.62 1.95,-5.39 1.82,-11.26l-0.26 -12.12 9.53 -0.2c1.89,14.41 5.26,28.57 10.06,42.4l4.06 9.43c0.03,1.64 -1.43,2.52 -4.34,2.58l-16.57 -0.12 -11.17 0.08zm-85.17 1.81c-7.31,6.77 -12.47,13.44 -15.4,20.12 -2.98,6.63 -4.36,13.75 -4.2,21.37 0.35,16.3 6.75,28.59 19.26,37.01 12.45,8.37 27.15,12.39 44.08,12.04 11.37,-0.25 21.06,-2.41 29.07,-6.55 8.07,-4.15 14.29,-10.1 18.73,-17.82 4.45,-7.71 6.54,-15.91 6.36,-24.69 -0.14,-6.2 -1.47,-12.2 -4.09,-18.06 -2.61,-5.88 -6.16,-11 -10.65,-15.29 -4.48,-4.35 -8.62,-7.07 -12.34,-8.26 -2.83,-0.84 -10.19,-1.16 -22.2,-0.9l-48.62 1.03zm200.12 190.87c0.81,4.64 -0.15,9 -2.96,12.92 -2.8,3.98 -6.57,6.36 -11.32,7.19 -4.79,0.84 -9.09,-0.14 -13.02,-2.95 -3.93,-2.74 -6.3,-6.52 -7.11,-11.16 -0.84,-4.8 0.11,-9.21 2.87,-13.12 2.75,-3.97 6.47,-6.35 11.26,-7.18 4.75,-0.83 9.1,0.14 13.08,2.93 3.97,2.74 6.36,6.57 7.2,11.37zm-65.18 23.62l-1.66 4.04c-7.76,0.72 -16.23,1.76 -25.45,3.15 -29.82,4.56 -51.82,8.08 -65.99,10.55 -13.24,2.31 -24.47,4.74 -33.71,7.27 -3.57,1.06 -5.96,2.49 -7.1,4.25 -1.14,1.75 -1.59,5.65 -1.31,11.56l0.45 10.61 -8.75 1.52c-1.98,-15.01 -4.04,-28.67 -6.18,-40.92 -2.1,-12.04 -4.54,-24.18 -7.3,-36.33l8.76 -1.53 3.65 12.96c1.33,5.09 2.81,8.05 4.52,8.99 1.67,0.88 6.74,0.75 15.14,-0.39 13.08,-1.74 31,-4.6 53.73,-8.56 15.84,-2.76 28,-5.16 36.51,-7.18 3.08,-0.75 5.18,-2.03 6.25,-3.83 1.03,-1.85 1.09,-5.51 0.13,-11.04l-2.01 -11.51 8.76 -1.53c3.98,12.08 7.25,20.97 9.83,26.53 2.54,5.63 6.47,12.74 11.73,21.39zm-120.24 115.77l10.69 -8.39 2.9 2.24c-6.05,20.4 -6.8,38.5 -2.27,54.33 3.33,11.59 8.73,19.35 16.23,23.42 7.5,4.07 16.3,4.64 26.48,1.72 10.83,-3.1 17.69,-8.93 20.71,-17.44 3.01,-8.52 2.25,-20.57 -2.24,-36.24l-1.97 -6.87 9.16 -2.62 1.42 4.93c7.44,26 20.33,36.4 38.69,31.14 7.63,-2.19 12.87,-6.55 15.8,-13.06 2.91,-6.56 2.99,-14.56 0.26,-24.07 -5.93,-20.71 -20.06,-28.55 -42.45,-23.68l-2.18 -7.63 4.77 -1.37c15.88,-4.54 25.28,-7.46 28.27,-8.75 11.3,10.8 19.4,24.88 24.37,42.22 4.68,16.34 5.38,29.95 2.14,40.73 -3.24,10.79 -9.61,17.56 -19.17,20.3 -8.24,2.36 -16.51,0.6 -24.86,-5.32 -8.36,-5.91 -15.89,-15.09 -22.62,-27.65 10.03,35 3.44,55.83 -19.7,62.45 -13.13,3.77 -25.6,1.55 -37.4,-6.62 -11.83,-8.22 -20.38,-21.52 -25.64,-39.89 -5.45,-19.02 -5.92,-37 -1.39,-53.88zm168.34 116.3l8.1 -3.66c2.15,6.29 4.19,11.59 6.11,15.82l25.4 53.92c7.28,16.1 10.71,29.59 10.3,40.4 -0.45,10.83 -5.12,18.23 -14.04,22.26 -15.53,7.01 -32.39,-2.04 -50.56,-27.21 13.27,34.36 10.02,55.98 -9.7,64.89 -13.3,6.01 -26.7,4.11 -40.23,-5.76 -13.56,-9.83 -24.47,-23.95 -32.79,-42.37 -1.46,-3.23 -3.74,-8.53 -6.88,-16 -2.88,-6.88 -5.94,-13.92 -9.23,-21.2 -3.03,-6.71 -6.26,-13.08 -9.69,-19.14l6.36 -2.87 4.61 4.94c3.33,3.37 6.75,4.78 10.33,4.21 3.5,-0.59 19.81,-7.44 48.89,-20.58 33.85,-15.29 52.39,-24.25 55.69,-26.84 3.28,-2.64 3.26,-7.69 -0.12,-15.16l-2.55 -5.65zm18.98 45.73c-7.4,2.23 -17.8,6.35 -31.12,12.37l-15.57 7.03c1.95,4.82 3.4,8.29 4.34,10.36 5.53,12.24 12.04,20.86 19.47,25.86 7.45,5.06 15.23,5.73 23.34,2.07 15.09,-6.82 17.84,-20.91 8.21,-42.22 -1.24,-2.74 -4.14,-7.88 -8.67,-15.47zm-115.28 51.1c1.12,4.03 2.4,7.63 3.79,10.71 6.04,13.36 13.64,23.1 22.86,29.27 9.25,6.21 18.91,7.02 28.99,2.46 7.09,-3.2 12.01,-7.22 14.73,-12.11 2.78,-4.92 3.5,-11.92 2.26,-21.11 -1.24,-9.14 -3.69,-17.79 -7.37,-25.94 -0.32,-0.72 -2.17,-4.42 -5.49,-10.99l-34.28 15.49c-15.49,6.99 -23.98,11.06 -25.49,12.22zm287.1 218.75l-7.26 5.13 -6.36 -9c-5.37,-7.6 -10.42,-9.99 -15.24,-7.17 -4.74,2.83 -20.14,13.39 -46.11,31.74l-29.82 21.45c-10.05,7.24 -15.68,11.47 -16.83,12.68 -1.16,1.2 -1.78,3.06 -1.79,5.53 0,2.47 1.5,5.88 4.52,10.15l6.35 9 -7.26 5.13c-9.01,-13.85 -17.02,-25.75 -23.99,-35.61 -6.1,-8.64 -13.29,-18.26 -21.63,-28.96l7.26 -5.13 6.45 9.12c3.93,5.57 7.42,8.3 10.48,8.14 3.06,-0.15 10.46,-4.35 22.18,-12.63l55.74 -39.39c8.52,-6.01 15.51,-9.97 20.92,-11.92 -6.75,0.24 -13.27,0.37 -19.48,0.28 -8.74,0.03 -16.38,0.11 -22.96,0.35l-63.21 2.42c-26.11,1.01 -44.1,0.77 -54.08,-0.8 -2.23,-2.43 -7.8,-8.03 -16.81,-16.82 19.46,-12.45 37.83,-24.78 55.16,-37.02 35.05,-24.77 54,-38.75 56.79,-41.95 2.79,-3.21 1.79,-8.2 -3,-14.98l-6.48 -9.16 7.26 -5.13c7.4,11.55 14.1,21.59 20.15,30.15 6.47,9.16 15.04,20.73 25.65,34.67l-7.26 5.13 -6.38 -9.03c-1.8,-2.55 -4,-4.75 -6.53,-6.59 -2.57,-1.81 -4.88,-2.32 -6.99,-1.54 -2.11,0.77 -9.09,5.38 -20.88,13.71l-54.5 38.51c-5.41,3.82 -10.41,6.9 -14.99,9.23 4.98,1.09 21.29,1.16 48.97,0.26l41.26 -1.29c7.68,-0.24 27.44,-1.25 59.4,-2.96 4.55,7.53 8.42,13.56 11.56,18.01 1.8,2.55 8.38,11.3 19.74,26.29zm-37.2 165.46c3.59,4.58 10.02,11.27 19.27,20.06l8.28 7.87c9.55,9.07 16.55,15.14 21.02,18.21l43.9 -45.52c24.78,-26.08 37.96,-40.57 39.45,-43.46 1.58,-2.88 -0.67,-7.2 -6.65,-12.88l-7.98 -7.59 6.12 -6.44c9.39,9.79 17.88,18.29 25.55,25.58 8.02,7.62 18.6,17.23 31.77,28.87l-6.12 6.45 -8.1 -7.7c-6.52,-6.19 -11.47,-7.98 -14.85,-5.42 -3.37,2.56 -16.62,16.04 -39.76,40.4l-43.42 46.62c3.98,4.96 10.37,11.61 19.19,19.99l8.67 8.24c9.09,8.63 15.94,14.56 20.48,17.7l41.24 -42.49c24.85,-26.17 38.56,-41.04 41.19,-44.75 2.64,-3.61 0.82,-8.4 -5.39,-14.3l-8.21 -7.8 6.13 -6.44c9.46,9.86 17.95,18.36 25.54,25.58 8.06,7.65 18.68,17.29 31.78,28.87l-6.13 6.45 -7.86 -7.48c-6.83,-6.49 -12.29,-7.88 -16.47,-4.18 -4.14,3.66 -17.52,17.44 -40.12,41.23l-19.41 20.89c-12.09,12.89 -18.5,20.02 -19.25,21.5 -0.71,1.43 -0.5,3.45 0.61,6.12 1.15,2.63 3.13,5.31 5.89,7.93l11.74 11.15c-9.37,3.95 -23.38,15.16 -42.03,33.64l-7.82 -7.43 4.92 -5.17c6.12,-6.45 12.62,-14.15 19.58,-23.08 -1.96,-9.23 -14.07,-24.46 -36.43,-45.71l-115.9 -110.1c-7.64,-7.25 -16.61,-15.33 -26.86,-24.2l6.12 -6.45 8.14 7.73c5.83,5.54 10.43,7.29 13.9,5.33 3.48,-2.03 16.8,-15.21 39.97,-39.61 25.12,-26.43 38.69,-41.49 40.76,-45.14 2.04,-3.69 0.09,-8.38 -5.85,-14.03l-8.14 -7.73 6.12 -6.45c9.5,9.9 18.03,18.44 25.63,25.66 8.13,7.72 18.79,17.41 31.92,29.01l-6.12 6.45 -7.98 -7.58c-3.68,-3.5 -6.73,-5.44 -9.2,-5.83 -2.45,-0.43 -4.39,-0.15 -5.78,0.78 -1.44,0.98 -7.4,6.85 -17.93,17.71 -10.55,10.87 -18.34,19.01 -23.41,24.33l-41.71 44.61zm270.96 145.29c-10.5,17.48 -14.43,33.29 -11.71,47.56 2.69,14.2 10.82,25.65 24.39,34.29 6.08,3.87 12.79,6.71 20.06,8.51 7.31,1.83 15.22,2.6 23.69,2.29l0.99 3.39 -11.19 8.31c-9.91,-0.41 -19.34,-2.03 -28.31,-4.8 -9.02,-2.78 -17.6,-6.74 -25.68,-11.89 -17.73,-11.29 -28.38,-25.98 -32.1,-44.09 -3.7,-18.1 0.52,-36.75 12.74,-55.94 9.32,-14.65 20.43,-25.39 33.37,-32.21 8.53,-4.54 20.08,-6.33 34.73,-5.48 14.59,0.82 27.03,4.54 37.21,11.02 15.39,9.8 24.72,22.15 27.97,36.95 3.22,14.85 -0.34,30.4 -10.74,46.73l-5.19 7.56c-6.64,-2.29 -12.65,-4.86 -18.17,-7.74 -9.75,-5.28 -22.91,-13.16 -39.43,-23.68l-32.63 -20.78zm6.41 -9.47c13.18,9.15 27.92,18.91 44.26,29.31 6.52,4.15 13.05,7.88 19.56,11.15l4.66 -7.32c4.89,-7.68 8.01,-15.92 9.3,-24.76 0.81,-5.5 -0.29,-11.16 -3.25,-17.06 -3.03,-5.88 -7.65,-10.84 -13.94,-14.84 -9.77,-6.23 -19.86,-7.63 -30.29,-4.17 -10.39,3.42 -20.48,12.68 -30.3,27.69zm168.94 180.67l9.06 3.53c8.93,3.48 15.15,3.41 18.61,-0.24 3.46,-3.59 12.41,-23.95 26.89,-61.08l19.05 -48.85c14.97,-38.41 22.45,-59.92 22.46,-64.46 0.01,-4.54 -3.81,-8.3 -11.49,-11.3l-11.69 -4.55 3.58 -9.17c15.74,6.81 31.45,13.29 47.08,19.38 13.01,5.07 24.92,9.37 35.76,12.92l-3.58 9.17 -11.14 -4.35c-6.87,-2.67 -11.48,-3.51 -13.9,-2.57 -2.35,0.95 -4.96,4.71 -7.83,11.2 -4.51,10.11 -11.89,28.31 -22.15,54.64l-19.4 49.74c-14.57,37.37 -21.75,58.26 -21.6,62.68 0.14,4.44 4.67,8.41 13.55,11.87l9.56 3.74 -3.57 9.16c-11.6,-5.2 -24.41,-10.53 -38.41,-15.99 -16.27,-6.35 -31.08,-11.78 -44.42,-16.3l3.58 -9.17zm377.83 -30.89l-1.99 8.67 -10.73 -2.46c-9.07,-2.09 -14.44,-0.49 -16.12,4.71 -1.69,5.26 -6.19,23.93 -13.55,56.02l-5.96 26.64c-3.95,17.72 -5.92,27.47 -5.83,29.23 0.09,1.76 1.26,3.49 3.59,5.22 2.32,1.67 5.34,2.96 9.05,3.81l10.73 2.47 -1.98 8.66c-15.91,-4.29 -29.81,-7.81 -41.72,-10.54 -10.32,-2.37 -22.1,-4.74 -35.34,-7.13l1.99 -8.67 10.67 2.45c6.81,1.56 11.31,1.13 13.56,-1.34 2.25,-2.47 5.86,-14.46 10.82,-36.07l15.78 -68.8 -38.11 48.05c-14.93,18.72 -29.37,38.32 -43.24,58.82l-9.9 -2.27c-1.37,-11.56 -3.4,-24.02 -6.05,-37.34l-4.53 -23.79 -12.79 -73.45 -16.21 70.66 -5.09 22.88c-1.67,7.76 -2.47,12.41 -2.36,13.85 0.05,1.47 1.03,3.06 2.84,4.88 1.82,1.78 4.97,3.21 9.51,4.25l10.73 2.46 -1.99 8.66c-0.31,-0.07 -3.13,-0.82 -8.41,-2.14 -12.06,-3.31 -20.52,-5.47 -25.37,-6.58 -3.71,-0.85 -13.37,-2.74 -29.04,-5.69l1.99 -8.66 10.83 2.48c7.68,1.76 12.55,0.93 14.48,-2.53 1.95,-3.53 6.7,-21.65 14.22,-54.45 8.15,-35.54 12.17,-55.42 12.1,-59.61 -0.12,-4.21 -4.09,-7.23 -11.99,-9.05l-10.83 -2.48 1.99 -8.66 8.09 2.12c10.41,2.88 15.89,4.35 16.25,4.43 0.1,0.03 4.32,0.83 12.65,2.36 8.47,1.45 12.7,2.15 12.8,2.18 0.31,0.07 1.83,0.53 4.62,1.38 3.59,24.83 7.22,46.89 10.81,66.27l10.49 56.53 38.47 -49.59c14.89,-19.28 24.2,-31.69 28.01,-37.17l9.65 -13.69c6.62,2.17 12.58,3.86 17.85,5.07 4.07,0.93 15.59,3.25 34.56,6.95zm61.95 18.03l0.83 -69.61c0,-4.25 0.1,-7.58 0.29,-10.07 0.34,-4.53 1.61,-7.94 3.8,-10.22 2.19,-2.27 4.7,-3.3 7.56,-3.08 2.95,0.22 5.34,1.58 7.12,4.1 1.77,2.52 2.45,6.18 2.08,10.93 -0.18,2.37 -0.53,5.63 -1.06,9.84l-9.85 68.93c-0.66,4.41 -2.67,6.48 -6.05,6.23 -3.16,-0.24 -4.74,-2.59 -4.72,-7.05zm119.43 133.46c-7,-0.48 -12.72,-0.67 -17.21,-0.58 -2.81,0.06 -9.58,0.53 -20.3,1.39l-0.19 -8.89c5.34,-0.22 11.4,-4.06 18.17,-11.55 18.57,-20.41 36.07,-38.67 52.45,-54.75 -20.03,-0.57 -34.11,-3.61 -42.17,-9.05 -8.11,-5.49 -12.25,-13.81 -12.49,-25.08 -0.24,-11.11 3.89,-20.46 12.36,-27.95 8.48,-7.53 20.93,-11.46 37.44,-11.81 7.88,-0.17 17.46,-0.05 28.85,0.28 12.29,0.43 21.29,0.56 27,0.44 3.71,-0.08 15.6,-0.65 35.75,-1.72l0.19 8.89 -11.01 0.24c-5.08,0.11 -8.61,0.87 -10.64,2.34 -2.03,1.42 -3.22,2.97 -3.55,4.62 -0.34,1.66 -0.44,9.65 -0.29,23.88 0.15,14.29 0.35,26.09 0.54,35.4l0.77 28.51c0.49,17.67 0.96,27.3 1.47,28.82 0.5,1.58 2.07,2.86 4.73,3.87 2.68,1.05 5.92,1.51 9.73,1.43l11 -0.24 0.19 8.89c-0.32,0.01 -3.23,-0.03 -8.68,-0.02 -13.19,-0.25 -21.81,-0.28 -25.94,-0.19l-42.2 1.85 -0.19 -8.89 8.84 -0.18c7.19,-0.16 11.65,-2.05 13.27,-5.63 1.62,-3.58 2.17,-17.3 1.66,-41.16l-0.37 -17.67 -4.03 0.09c-16.08,15.47 -37.78,40.28 -65.15,74.42zm68.95 -84.94l-0.36 -16.76c-0.33,-15.61 -0.91,-27.72 -1.67,-36.34 -9.51,-1.21 -17.56,-1.79 -24.12,-1.65 -9.26,0.2 -17.15,2.7 -23.66,7.55 -6.52,4.8 -9.68,12.44 -9.46,22.9 0.4,18.68 13.46,27.77 39.11,27.22 7.83,-0.16 14.53,-1.16 20.16,-2.92zm327.77 10.16l10.27 -2.94c9.51,-2.73 14.67,-6.41 15.51,-11 0.83,-4.58 -3.01,-21.86 -11.61,-51.88l-23.43 -81.8c-1.46,-5.08 -6.81,-21.27 -16.02,-48.64 -9.17,1.8 -25.22,5.96 -48.15,12.53 -33.38,9.56 -55.54,16.34 -66.57,20.33 3.45,14.92 7.28,29.79 11.51,44.59l25.71 89.74c2.04,7.12 4.69,15.44 7.97,24.96l5.4 16.18c1.73,5.62 4.56,8.6 8.44,8.92 3.91,0.37 8.02,-0.1 12.24,-1.3l10.12 -2.9 2.71 9.46c-12.07,2.8 -24.68,6.08 -37.8,9.84 -12.52,3.58 -29.01,8.64 -49.49,15.16l-2.71 -9.46 9.26 -2.65c10.88,-3.12 16.6,-6.96 17.07,-11.5 0.46,-4.53 -3.29,-20.74 -11.26,-48.56l-25.65 -89.54c-7.14,-24.93 -12.14,-39.13 -15.02,-42.65 -2.89,-3.53 -9.11,-3.89 -18.61,-1.17l-11.04 3.17 -2.71 -9.46c63.56,-17.55 105.2,-29.15 125,-34.82 12.61,-3.61 49.3,-14.45 110.02,-32.5l2.71 9.46 -11.45 3.28c-10.93,3.13 -16.19,7.06 -15.82,11.79 0.4,4.68 4.48,20.69 12.29,47.95l23.61 82.42c8.35,29.14 13.82,45.57 16.39,49.35 2.57,3.78 8.87,4.23 18.78,1.39l11.45 -3.28 2.71 9.46c-12.38,2.89 -26.81,6.69 -43.35,11.43 -17.2,4.93 -32.41,9.62 -45.78,14.1l-2.7 -9.46zm119.77 -115.8c-6.59,-12.67 -9.61,-25.59 -9.07,-38.88 0.54,-13.28 4.66,-25.57 12.21,-36.84 7.6,-11.29 18.11,-20.46 31.59,-27.47 19.53,-10.16 38.16,-12.52 55.91,-7.07 17.75,5.44 31.62,17.78 41.66,37.07 11.82,22.72 13.58,44.78 5.24,66.12 -7.41,19.12 -20.67,33.66 -39.72,43.57 -18.31,9.53 -36.44,11.15 -54.36,4.79 -17.94,-6.36 -32.44,-20.12 -43.46,-41.29zm20.86 -23.2c9.86,18.92 22.15,33.04 36.89,42.43 14.73,9.4 29.35,10.32 43.95,2.72 11.07,-5.76 17.84,-14.65 20.33,-26.62 2.41,-11.98 -0.82,-26.54 -9.76,-43.72 -7.18,-13.8 -15.44,-24.77 -24.76,-32.81 -9.29,-7.99 -18.45,-12.65 -27.47,-13.8 -8.98,-1.23 -17.6,0.32 -25.72,4.55 -7.29,3.79 -12.86,9.02 -16.77,15.71 -3.92,6.69 -5.63,13.84 -5.2,21.43 0.57,10.27 3.43,20.35 8.51,30.11zm219.05 -329.11l6.7 -5.84c8.19,10.69 10.68,22 7.38,33.93 -3.29,11.93 -9.51,21.85 -18.61,29.78 -3.43,2.99 -8.73,6.97 -15.9,11.96 -5.63,3.93 -10.46,7.65 -14.53,11.19 -8.14,7.1 -12.6,16.32 -13.29,27.52 -0.69,11.2 3.45,23.53 12.41,36.94 8.94,13.4 14.54,21.43 16.87,24.1 2.13,2.44 5.21,5.5 9.31,9.23 -10.51,-31.7 -3.44,-58.3 21.17,-79.75 13.88,-12.1 30.15,-18.42 48.86,-19.01 18.68,-0.55 35.97,8.24 51.79,26.39 16.13,18.51 23.08,38.56 20.81,60.2 -2.23,21.67 -11.68,39.74 -28.35,54.28 -16.19,14.11 -33.92,19.95 -53.18,17.44 -19.26,-2.53 -41.19,-17.87 -65.74,-46.03 -10.75,-12.33 -21.76,-26.65 -32.99,-42.99 -11.26,-16.38 -18.05,-29.48 -20.49,-39.28 -2.4,-9.84 -1.99,-19.6 1.25,-29.24 3.21,-9.62 9.36,-18.35 18.41,-26.24 5.67,-4.94 12.1,-9.63 19.28,-14.12 9.26,-5.9 15.92,-10.66 20.03,-14.24 8.49,-7.41 11.41,-16.14 8.81,-26.22zm12.83 112.65c-9.85,8.59 -14.64,18.88 -14.54,30.93 0.17,12.01 6.35,25.07 18.63,39.15 12.66,14.52 27.34,24.68 44.04,30.55 16.66,5.83 31.17,3.37 43.56,-7.44 9.42,-8.21 13.87,-18.49 13.4,-30.78 -0.5,-12.26 -6.98,-25.57 -19.44,-39.85 -14.36,-16.47 -29.28,-26.91 -44.73,-31.35 -15.44,-4.43 -29.12,-1.5 -40.92,8.79zm127.71 -79.63l-7.78 -6.93 -8.22 -6.91 3.82 -19.07c1.74,-8.57 3.9,-15.59 6.39,-20.98 2.53,-5.44 5.87,-10.6 10.13,-15.53 9.34,-10.8 19.26,-17.41 29.84,-19.87 10.56,-2.42 20.19,-1.01 28.82,4.13 6.4,3.93 20.89,15.41 43.36,34.41 21.15,18.01 33.13,27.53 35.99,28.67 2.85,1.15 5.64,0.11 8.33,-3l7.86 -9.1 7.69 6.65c-8.2,8.52 -13.81,14.51 -16.85,18.03 -3.8,4.41 -8.62,10.46 -14.51,18.24l-10.31 -9.12c-3.32,-2.87 -6.75,-5.77 -10.27,-8.67l-2.47 40.32c-0.23,3.59 -0.93,6.75 -2.13,9.43 -1.12,2.67 -3.35,5.9 -6.58,9.63 -8.71,10.09 -17.87,15.67 -27.45,16.7 -9.56,1.03 -18.53,-2.1 -26.89,-9.34 -7.89,-6.82 -13.19,-14.68 -15.83,-23.61 -2.59,-8.89 -2.29,-18.06 0.96,-27.5 3.19,-9.42 13.55,-28.85 31.08,-58.26 -10.03,-8.39 -19.34,-12.59 -27.9,-12.64 -10.76,-0.02 -20.38,4.89 -28.89,14.74 -3.26,3.76 -5.86,7.66 -7.78,11.74 -1.92,4.08 -3.14,8.33 -3.77,12.77 3.67,7.08 7.23,13.81 10.73,20.11l-7.37 4.96zm71.94 -45.66c-14.1,25.78 -21.64,43.4 -22.57,52.81 -1,9.42 2.84,17.84 11.44,25.28 5.81,5.01 11.9,7.35 18.29,7 6.39,-0.35 11.85,-3.19 16.45,-8.51 5.09,-5.89 8.29,-12.91 9.65,-21.11 1.32,-8.17 0.87,-17.51 -1.48,-27.99l-26.21 -22.26 -5.57 -5.22zm48.23 -99.1l-5.8 9.1c-4.35,-3.02 -7.95,-5.43 -10.86,-7.28 -3.39,-2.16 -12.33,-7.22 -26.77,-15.17 11.78,-17.34 19.15,-28.33 22.08,-32.92l35.86 -56.34c4.09,-6.43 10.93,-17.76 20.49,-33.95 13.31,9.73 21.68,15.69 25.07,17.85 2.91,1.85 6.62,4.09 11.2,6.75l-5.8 9.11c-15.77,-8.72 -25.06,-12.37 -27.81,-10.99 -2.73,1.33 -10.68,12.33 -23.81,32.96 5.1,3.93 10.1,7.49 15.01,10.62l11.52 7.33 22.29 14.75 30.58 19.46c11.43,7.28 18.19,11.33 20.24,12.14 2.06,0.82 4.26,0.71 6.59,-0.38 2.39,-1.12 4.9,-3.78 7.58,-7.98l5.94 -9.33 7.5 4.78c-9.46,13.68 -17.43,25.6 -23.97,35.87 -5.68,8.93 -11.89,19.28 -18.66,31.09l-7.5 -4.77 6.02 -9.47c3.7,-5.8 4.89,-10.13 3.56,-12.98 -1.29,-2.89 -7.71,-7.98 -19.23,-15.31l-32.81 -20.89c-22.99,-14.63 -39.79,-24.7 -50.37,-30.25l-4.27 6.7c-10.37,16.29 -15.6,26 -15.58,29.03 -0.01,3.06 7.25,9.89 21.71,20.47zm191.35 -123.26l-6.5 -2.54c-0.27,-7.88 -1.57,-12.88 -3.91,-14.87 -2.4,-2.01 -19.22,-9.14 -50.58,-21.37 -33.96,-13.24 -52.99,-20.09 -57.14,-20.64 -4.19,-0.49 -7.76,3 -10.7,10.55l-4.04 10.35 -8.28 -3.23c5.56,-12.54 10.25,-23.67 14.05,-33.43 4.08,-10.45 9.01,-23.98 14.78,-40.52l8.29 3.23 -4.02 10.3c-3.29,8.44 -2.64,13.9 1.89,16.41 4.53,2.51 16.34,7.46 35.32,14.86l5.92 2.31c3.73,-10.14 6.36,-17.18 7.9,-21.13 7.75,-19.86 16.75,-34.07 27.05,-42.72 10.35,-8.63 21.51,-10.59 33.54,-5.9 13.71,5.35 21.6,16.27 23.74,32.78 2.14,16.51 -0.68,34.67 -8.39,54.44l-12.65 32.43 -2.09 6.52c-1.67,5.31 -3.08,9.36 -4.18,12.17zm-55.75 -65.02l33.03 12.88c9.03,3.52 18.22,6.88 27.7,10.12 1.91,-3.45 3.47,-6.71 4.66,-9.77 12.15,-31.16 7.72,-50.84 -13.33,-59.05 -10.2,-3.98 -19.25,-3.07 -27.11,2.67 -7.88,5.79 -14.32,15.03 -19.3,27.8l-5.65 15.35zm62.44 -187.46l19.4 4.44c25.27,5.8 39.75,8.25 43.31,7.38 3.62,-0.85 6.37,-5.53 8.32,-14.04l2.08 -9.04 8.66 1.99c-0.05,0.22 -0.77,2.92 -2.13,8.15 -3.75,14.18 -6.14,23.68 -7.23,28.41 -0.24,1.04 -3,14.52 -8.31,40.5l-8.67 -1.99 2.01 -8.76c2.01,-8.77 1.07,-14.09 -2.85,-15.97 -3.9,-1.92 -17.61,-5.56 -41.08,-10.94l-44.93 -10.31c-15.93,-3.65 -25.58,-5.16 -28.99,-4.47 -3.36,0.63 -5.89,4.62 -7.57,11.94l-2.51 10.93 -8.66 -1.98c3.6,-12.91 6.61,-24.6 9.03,-35.12 3.62,-15.78 6.55,-29.99 8.78,-42.56l8.67 1.99 -2.62 11.4c-0.75,3.3 -0.95,6.52 -0.5,9.54 0.39,3.03 1.66,5.05 3.79,5.92 2.13,0.93 11.37,3.27 27.71,7.01l15.84 3.64 1.5 -1.56c-6.62,-15.42 -16.32,-33.77 -29.05,-54.93l-15.38 -26.44 6.94 -30.22 8.66 1.98 -1.14 5.44c-0.93,4.03 0.49,11.14 4.26,21.45 3.83,10.28 12.58,29.16 26.41,56.66 18.1,-12.41 44.23,-27.59 78.42,-45.53 11.61,-5.87 18.25,-12.11 19.89,-18.79l8.66 1.99c-0.14,0.62 -0.7,2.61 -1.63,5.97 -2.13,7.12 -3.32,11.35 -3.65,12.8 -0.54,2.37 -1.61,8.47 -3.21,18.26 -40.53,19.31 -71.13,37 -91.81,53.05l-0.42 1.81zm35.41 -161.55c-14.24,-1.08 -26.81,-5.32 -37.82,-12.8 -10.99,-7.46 -19.26,-17.43 -24.85,-29.79 -5.59,-12.42 -7.83,-26.18 -6.68,-41.33 1.66,-21.94 9.49,-39.02 23.47,-51.23 13.99,-12.2 31.79,-17.48 53.48,-15.84 25.53,1.94 45.2,12.08 58.93,30.42 12.34,16.39 17.7,35.32 16.07,56.73 -1.56,20.59 -9.74,36.84 -24.61,48.71 -14.86,11.88 -34.19,16.94 -57.99,15.13zm-8.7 -29.95c21.26,1.61 39.74,-1.39 55.49,-8.95 15.76,-7.56 24.25,-19.5 25.49,-35.91 0.95,-12.44 -3.03,-22.88 -11.89,-31.31 -8.91,-8.37 -22.98,-13.31 -42.29,-14.77 -15.51,-1.18 -29.19,0.06 -40.93,3.73 -11.69,3.67 -20.48,9 -26.21,16.06 -5.79,6.98 -9.01,15.12 -9.71,24.26 -0.62,8.17 0.89,15.67 4.51,22.52 3.61,6.85 8.79,12.08 15.46,15.72 9.03,4.92 19.1,7.82 30.08,8.65z"/>
   <path class="fil0 str2" d="M3259.17 2010.26l-8.86 0.68c0.12,-6.64 0.01,-12.32 -0.34,-16.96l-5.46 -59.34c-1.34,-17.62 0.05,-31.48 4.12,-41.49 4.13,-10.03 11.04,-15.38 20.8,-16.13 16.99,-1.29 29.75,12.98 38.22,42.84 -0.73,-36.82 9.71,-56.03 31.29,-57.67 14.55,-1.11 26.5,5.26 35.84,19.15 9.39,13.88 14.82,30.88 16.35,51.03 0.27,3.53 0.59,9.29 1,17.38 0.35,7.46 0.82,15.12 1.43,23.08 0.56,7.34 1.42,14.44 2.57,21.3l-6.96 0.53 -2.65 -6.22c-1.97,-4.3 -4.71,-6.8 -8.27,-7.49 -3.49,-0.63 -21.15,0.23 -52.97,2.64 -37.04,2.82 -57.52,4.9 -61.51,6.21 -3.98,1.36 -5.69,6.12 -5.07,14.29l0.47 6.17zm-2.22 -49.45c7.72,0.43 18.9,0.11 33.47,-1l17.04 -1.29c-0.18,-5.19 -0.37,-8.95 -0.54,-11.21 -1.02,-13.4 -4.19,-23.72 -9.46,-30.96 -5.28,-7.31 -12.37,-10.59 -21.23,-9.92 -16.51,1.26 -23.92,13.55 -22.14,36.88 0.22,3 1.2,8.82 2.86,17.5zm125.8 -8.65c0.33,-4.17 0.35,-7.99 0.09,-11.36 -1.11,-14.62 -4.92,-26.37 -11.48,-35.32 -6.57,-9 -15.38,-13.05 -26.4,-12.22 -7.76,0.59 -13.76,2.69 -17.98,6.35 -4.3,3.68 -7.37,10.01 -9.34,19.07 -1.96,9.02 -2.61,17.98 -1.94,26.9 0.06,0.79 0.54,4.89 1.41,12.21l37.51 -2.85c16.94,-1.29 26.32,-2.21 28.13,-2.78zm-232.08 -149.25c-1.06,-4.59 -0.33,-8.99 2.26,-13.06 2.58,-4.13 6.21,-6.71 10.91,-7.79 4.75,-1.1 9.09,-0.36 13.17,2.23 4.06,2.53 6.64,6.18 7.7,10.77 1.09,4.74 0.39,9.2 -2.16,13.25 -2.53,4.12 -6.11,6.69 -10.85,7.78 -4.7,1.09 -9.1,0.36 -13.22,-2.22 -4.12,-2.52 -6.71,-6.21 -7.81,-10.96zm63.81 -27.11l1.44 -4.13c7.71,-1.13 16.11,-2.63 25.24,-4.52 29.53,-6.17 51.31,-10.87 65.33,-14.11 13.09,-3.02 24.17,-6.06 33.26,-9.08 3.51,-1.25 5.81,-2.81 6.86,-4.63 1.04,-1.81 1.29,-5.73 0.69,-11.61l-1.04 -10.57 8.67 -2c2.78,14.88 5.58,28.41 8.38,40.53 2.74,11.91 5.84,23.9 9.25,35.88l-8.66 2 -4.35 -12.74c-1.59,-5.01 -3.23,-7.88 -5,-8.73 -1.71,-0.79 -6.77,-0.38 -15.09,1.21 -12.96,2.45 -30.71,6.26 -53.19,11.45 -15.67,3.62 -27.68,6.67 -36.07,9.15 -3.04,0.92 -5.06,2.31 -6.03,4.16 -0.93,1.9 -0.79,5.56 0.47,11.03l2.63 11.39 -8.66 2c-4.64,-11.85 -8.38,-20.55 -11.26,-25.96 -2.84,-5.49 -7.15,-12.37 -12.87,-20.72z"/>
  </g>
  <path class="fil0 str3" d="M1546.5 863.84l19.59 -6.67 78.99 74.05 11.09 -104.72 19.18 -6.53 -16.13 133.23c-2.02,16.67 -4.48,27.97 -7.38,33.9 -2.92,5.92 -8.48,10.26 -16.7,13.05 -4.99,1.71 -11.53,2.63 -19.62,2.79l-5.66 -16.65c6.23,1.24 12.26,0.87 18.08,-1.11 4.73,-1.61 8.28,-4.54 10.7,-8.77 2.39,-4.21 3.83,-12.46 4.27,-24.72l-96.41 -87.85zm161.42 -52.81l20.09 -4.63 15.33 66.42c9.13,-2.1 15.18,-5.4 18.06,-9.81 2.91,-4.42 5.66,-14.04 8.32,-28.91 1.9,-10.95 3.73,-18.76 5.54,-23.49 1.76,-4.74 4.84,-9.1 9.24,-13.05 4.36,-3.94 9.61,-6.63 15.67,-8.03 7.73,-1.78 11.79,-2.65 12.25,-2.61l4 17.35c-0.7,0.16 -2.06,0.44 -4.04,0.82 -2.24,0.44 -3.59,0.72 -4.08,0.83 -6.38,1.48 -10.79,4.12 -13.17,7.94 -2.46,3.84 -4.53,11.29 -6.28,22.35 -2.11,14.01 -4.54,23.12 -7.3,27.27 -2.72,4.12 -6.34,7.78 -10.73,10.91 10.38,0.43 22.13,7.26 35.19,20.43l42.85 43.22 -24.9 5.74 -34.89 -35.17c-9.58,-9.78 -17.2,-16.26 -22.82,-19.43 -5.67,-3.18 -12.2,-3.91 -19.64,-2.19l16.35 70.87 -20.09 4.63 -34.95 -151.46zm158.19 125.19l-18.89 -154.29 58.24 -7.13c10.23,-1.25 18.13,-1.71 23.68,-1.4 7.72,0.32 14.37,1.96 19.94,4.84 5.57,2.94 10.31,7.39 14.21,13.36 3.91,5.98 6.3,12.78 7.24,20.44 1.6,13.07 -1.2,24.68 -8.46,34.75 -7.23,10.11 -21.79,16.48 -43.63,19.16l-39.57 4.84 7.7 62.92 -20.46 2.51zm10.54 -83.53l39.87 -4.88c13.22,-1.62 22.25,-5.21 27.21,-10.8 4.93,-5.6 6.86,-12.84 5.76,-21.78 -0.79,-6.42 -3.08,-11.75 -6.91,-15.96 -3.83,-4.2 -8.52,-6.72 -14.01,-7.54 -3.55,-0.48 -9.97,-0.16 -19.2,0.97l-39.47 4.83 6.75 55.16zm116.58 68.52l64.21 -153.6 22.61 0.67 58.65 157.24 -23.4 -0.69 -16.58 -47.62 -65.43 -1.94 -18.25 46.59 -21.81 -0.65zm46.59 -62.47l52.95 1.57 -14.92 -43.56c-4.5,-13.23 -7.87,-24.15 -10.18,-32.76 -2.43,10.06 -5.58,19.92 -9.45,29.65l-18.4 45.1zm118.52 70.1l18.89 -154.29 20.46 2.51 -18.88 154.29 -20.47 -2.51zm1.3 -166.06l2.64 -21.55 19.82 2.43 -2.64 21.55 -19.82 -2.43zm39.21 4.8l2.64 -21.55 19.83 2.43 -2.63 21.55 -19.84 -2.43zm17.27 165.84l35.2 -151.4 20.09 4.67 -14.5 62.38 78.23 18.19 14.51 -62.39 20.08 4.67 -35.19 151.41 -20.09 -4.67 16.57 -71.26 -78.24 -18.19 -16.56 71.26 -20.1 -4.67zm135.51 30.82l106.82 -127.7 21.39 7.34 9.45 167.56 -22.14 -7.59 -1.73 -50.4 -61.92 -21.23 -31.23 39.1 -20.64 -7.08zm63 -45.86l50.11 17.18 -1.35 -46.03c-0.38,-13.97 -0.36,-25.4 -0.02,-34.31 -5.3,8.89 -11.24,17.38 -17.81,25.52l-30.93 37.64z"/>
  <path class="fil0 str3" d="M1035.77 1028.59c9.72,-8.53 15.21,-14.45 16.37,-17.88 0.78,-2.32 0.11,-8.43 -2.01,-18.33 -4.47,-19.28 -11.42,-45.49 -20.81,-78.58l-53.25 -186.04 23.97 -18.83 210.49 117.01c26.85,14.53 42.19,21.95 46.06,22.32 3.87,0.37 11.84,-3.55 23.88,-11.85l11.51 14.65c-18.22,13.23 -35.19,26.02 -50.89,38.35 -18.75,14.73 -36.36,29.09 -52.76,43.05l-11.51 -14.65c12.5,-10.7 19.41,-17.21 20.66,-19.72 1.3,-2.46 1.04,-4.85 -0.79,-7.18 -1.61,-2.06 -9.29,-7.15 -23.08,-15.33l-32.1 -18.85c-13.61,10.33 -28.62,21.94 -45.15,34.93 -14.38,11.29 -27.39,21.68 -38.98,31.14l7.23 23.94c1.98,6.52 5.43,15.82 10.41,27.88 1.08,2.74 2.31,5 3.75,6.83 1.92,2.45 4.33,3.34 7.22,2.68 2.89,-0.66 11.32,-5.58 25.24,-14.81l11.51 14.66c-11.12,7.65 -24.59,17.69 -40.4,30.11 -15.04,11.81 -26.71,21.51 -35.06,29.15l-11.51 -14.65zm-17.33 -241.16l31.42 110.6c10.34,-7.4 21.45,-15.77 33.49,-25.22 12.53,-9.85 24.34,-19.48 35.48,-28.95l-100.39 -56.43zm558.09 -89.49c5.38,25.6 15.12,55.73 29.23,90.4l-18.52 8.36 -3.4 -7.53c-6.21,-13.76 -15.09,-29.8 -26.61,-48.28 -9.81,-2.69 -19.4,-2.84 -28.91,-0.57 -9.4,2.32 -31.83,11.44 -67.33,27.48l-52.66 23.79c-34.21,15.46 -60.49,30.98 -78.78,46.52l11.56 69.8 -17.75 8.02c-8.89,-26.72 -19.47,-56.47 -31.74,-89.26 14.17,-9.11 21.65,-24.41 22.37,-45.95 0.81,-21.51 -5.82,-52.96 -19.72,-94.37 -14.01,-41.45 -26.56,-74.55 -37.78,-99.38 -3.45,-7.64 -6.65,-12.48 -9.6,-14.39 -2.9,-1.95 -14.03,0.99 -33.35,8.79l-6.97 -15.43c23.56,-9.71 45.34,-19.09 65.15,-28.04l111.17 -50.23c17.36,-7.84 40.14,-18.6 68.27,-32.24l6.97 15.43c-16.62,8.29 -25.95,14.36 -28.1,18.35 -2.12,4.05 9.84,34.8 35.82,92.28 0.87,1.94 7.62,16.38 20.31,43.41l28.57 61.18c6.38,13.76 10.68,21.73 12.93,23.8 2.18,2.11 4.21,3.14 5.91,3.14 1.77,-0.02 4.02,-0.35 6.83,-0.99 2.83,-0.74 14.89,-5.41 36.13,-14.09zm-107.01 39.06c-2.61,-8.19 -5.77,-16.2 -9.35,-24.11l-11.57 -25.27 -42.55 -97.61c-10.92,-24.18 -22.36,-47.97 -34.32,-71.52 -7.95,2.82 -14.01,5.17 -18.12,7.03l-61.41 27.75c-3.27,1.48 -6.08,2.98 -8.54,4.55l-8.14 4.61c2.64,9.1 8.6,25.38 17.98,48.86 35.71,89.69 48.46,151.99 38.37,187.05 14.12,-5.92 24.75,-10.32 31.93,-13.11 13.27,-5.06 25.66,-10.2 37.17,-15.4l46.29 -20.91c5.92,-2.68 13.34,-6.64 22.26,-11.92zm146.5 -32.02l-2.19 -9.49c6.57,-6.36 11.4,-11.82 14.51,-16.52 -2.7,-18.93 -11.33,-60.09 -25.99,-123.61 -10.61,-45.99 -18.8,-78.35 -24.51,-97.17 -3.07,-10.15 -5.84,-15.88 -8.39,-17.18 -3.57,-2 -14.14,-1.37 -31.73,1.82l-3.8 -16.5 38.72 -8.22 29.69 -6.26c9.01,-2.08 22.16,-5.33 39.66,-9.81 16.88,-4.33 29.07,-7.36 36.43,-9.05 29.7,-6.86 52.15,-6.82 67.3,0.11 15.15,7 24.74,19.05 28.7,36.24 4.08,17.67 1.1,33.64 -9.04,47.71 -10.13,14.14 -26.24,26.25 -48.29,36.41l0.38 1.64c24.41,-3.09 41.95,-3.3 52.77,-0.66 10.74,2.59 20.25,8.36 28.46,17.25 8.28,8.89 13.91,19.82 16.94,32.96 3.7,16.02 2.3,32.27 -4.09,48.8 -6.39,16.54 -16.73,30.44 -31.02,41.63 -14.27,11.26 -35.95,20.24 -65.02,26.95 -5.78,1.33 -14.42,3.11 -26.07,5.36 -10.82,2.06 -19.66,3.89 -26.47,5.46 -7.63,1.76 -23.28,5.8 -46.95,12.13zm38.69 -184.45l10.51 -2.42c22.69,-5.24 37.69,-13.04 45.02,-23.34 7.3,-10.38 8.94,-24.31 4.92,-41.77 -3.54,-15.32 -9.87,-25.81 -19.03,-31.3 -9.17,-5.56 -22.32,-6.36 -39.44,-2.41 -6.33,1.46 -13.96,3.8 -22.86,7.01 8.85,41.48 14.34,66.85 16.48,76.14l4.4 18.09zm33.63 143.88c8.21,0.12 15.79,-0.61 22.67,-2.2 19.04,-4.39 32.48,-13.28 40.13,-26.56 7.7,-13.37 9.09,-30.63 4.17,-51.94 -3.19,-13.82 -8.14,-24.63 -14.8,-32.43 -6.71,-7.72 -14.61,-12.77 -23.72,-15.24 -9.11,-2.45 -21.22,-1.9 -36.28,1.57l-20.3 4.9 1.21 5.22 11.68 52.49 12.62 52.84 2.62 11.35zm345.94 -16.37c-50.85,1.2 -90.1,-10.93 -117.73,-36.39 -27.62,-25.47 -41.94,-61.05 -43.02,-106.83 -0.75,-31.95 5.17,-59.27 17.69,-81.93 12.6,-22.74 30.32,-40.31 53.24,-52.84 23,-12.54 52.69,-19.24 89.23,-20.1 35.12,-0.82 63.97,4.28 86.61,15.25 22.55,10.98 40.14,26.52 52.68,46.69 12.55,20.17 19.13,45.14 19.82,74.9 0.76,32.24 -5.21,60.26 -17.84,84.05 -12.72,23.81 -30.91,42.44 -54.66,55.84 -23.75,13.48 -52.45,20.57 -86.02,21.36zm7.37 -22.61c27.79,-0.65 49.7,-11.4 65.72,-32.24 16.1,-20.86 23.62,-52.15 22.64,-93.84 -1.03,-43.8 -11.28,-77.23 -30.8,-100.19 -15.82,-18.48 -39.66,-27.37 -71.62,-26.62 -29.91,0.71 -52.81,11.12 -68.71,31.19 -15.98,20.06 -23.44,50.58 -22.48,91.49 0.69,29.41 5.79,54.28 15.23,74.52 9.51,20.25 21.28,34.72 35.39,43.42 14.11,8.7 32.34,12.8 54.63,12.27zm186.48 24.14l3.79 -16.5c16.72,2.55 26.17,3.63 28.39,3.13 1.66,-0.34 2.9,-1 3.83,-1.87 1.75,-1.63 3.77,-5.36 6.03,-11.43 3.88,-10.25 9.23,-29.73 15.98,-58.43l17.74 -76.14c5.59,-24.28 9.91,-44.64 12.9,-61.11 3,-16.46 4.15,-26.19 3.4,-29.19 -0.35,-1.97 -1.42,-3.59 -3.06,-4.97 -2.51,-2.03 -11.77,-5.17 -27.76,-9.58l3.79 -16.5c24.08,6.41 45.58,11.79 64.62,16.17 22.76,5.24 44.38,9.78 64.92,13.64l-3.8 16.5c-17.34,-2.69 -27.49,-3.51 -30.53,-2.32 -3.01,1.12 -5.57,5.02 -7.66,11.63 -2.66,8.37 -10.87,42.17 -24.67,101.54l2.81 0.65c16.05,-7.74 39.79,-21.53 71.19,-41.31 31.44,-19.85 56.1,-36.69 73.99,-50.6l1.89 -7.24 1.45 -7.26 2.24 -1.59c14.46,4.2 26.81,7.47 37.13,9.85 10.86,2.5 23.12,4.89 36.86,7.18l-3.8 16.5 -11.76 -1.41c-9.37,-1.14 -15.5,-1.53 -18.44,-1.05 -5.93,1.24 -14.31,4.6 -25.06,10.09 -16,8.19 -36.5,19.61 -61.49,34.42l-43.48 25.61 13.25 27.03c15.76,31.92 34.81,68.38 57.35,109.48 12.82,23.88 20.76,37.21 23.73,40.07 2.1,1.86 8.24,4.43 18.36,7.63l-3.79 16.5 -10.59 -2.8 -35.6 -9.13c-9.63,-2.22 -22.17,-4.67 -37.71,-7.38 -7.64,-16.45 -20.86,-43.02 -39.7,-79.79 -14.02,-27.49 -27.69,-52.72 -40.89,-75.59 -1.71,-2.93 -2.97,-4.67 -3.78,-5.28 -0.75,-0.47 -1.48,-0.78 -2.31,-0.97 -1.99,-0.46 -3.55,0.05 -4.67,1.45 -0.67,1.01 -2.11,6.33 -4.34,16.02l-13.28 61.46c-3.85,18 -5.54,28.48 -4.92,31.45 0.39,2.11 1.4,3.71 3.13,4.98 2.39,1.86 11.64,5.07 27.65,9.77l-3.8 16.5c-19.75,-5.41 -41.73,-10.9 -65.99,-16.49 -12.24,-2.82 -33.44,-7.26 -63.54,-13.32zm327.78 62.18c11.8,5.28 19.47,7.8 23.07,7.42 2.43,-0.25 7.71,-3.41 15.82,-9.47 15.67,-12.1 36.59,-29.35 62.75,-51.68l146.9 -125.97 27.11 13.94 -18.6 240.11c-2.01,30.46 -2.36,47.5 -1.08,51.17 1.28,3.68 8.16,9.28 20.73,16.77l-8.52 16.57c-19.62,-11.05 -38.32,-21.14 -56.08,-30.27 -21.2,-10.9 -41.6,-20.92 -61.12,-30l8.52 -16.57c14.94,6.89 23.73,10.46 26.54,10.55 2.77,0.16 4.83,-1.07 6.19,-3.71 1.2,-2.32 2.63,-11.43 4.32,-27.37l3.74 -37.04c-15.06,-8.06 -31.88,-16.86 -50.57,-26.48 -16.26,-8.36 -31.13,-15.85 -44.56,-22.44l-18.74 16.55c-5.11,4.52 -12.12,11.54 -21,21.09 -2.05,2.12 -3.59,4.19 -4.65,6.26 -1.42,2.77 -1.23,5.32 0.57,7.67 1.81,2.36 9.79,7.97 23.99,16.78l-8.52 16.57c-11.59,-6.92 -26.34,-14.98 -44.22,-24.17 -17.01,-8.75 -30.68,-15.31 -41.11,-19.71l8.52 -16.57zm211.97 -116.31l-87.43 74.68c11.04,6.31 23.27,12.92 36.89,19.92 14.17,7.29 27.85,14.01 41.11,20.18l9.43 -114.78zm114.3 325.93l10.49 -13.29c6.09,4.81 12.9,9.28 20.32,13.43 3.53,1.9 6.4,2.72 8.74,2.49 2.23,-0.22 4.96,-1.74 8.3,-4.6 4.39,-4.08 18.51,-20.61 42.31,-49.74 16.9,-20.73 33.93,-41.97 51.16,-63.79 33.87,-42.93 50.99,-64.83 51.37,-65.88 0.38,-1.05 -3.14,-4.45 -10.56,-10.31 -15.07,-11.89 -28.37,-21.68 -39.98,-29.41 -6.66,-4.43 -10.64,-6.68 -11.9,-6.78 -1.27,-0.1 -2.62,0.35 -4.16,1.4 -1.54,1.02 -9.99,9.91 -25.46,26.55l-13.96 -11.01c16.8,-20.83 30.5,-39.31 41.1,-55.48l2.82 0.07c32.89,28.47 65.46,55.44 97.69,80.88 32.12,25.35 68.73,52.98 109.77,82.87l-0.33 4.06c-13.89,13.39 -29.23,29.86 -46.02,49.42l-13.62 -10.75c13.52,-19.18 20.49,-29.94 20.67,-32.22 0.24,-1.8 -0.82,-3.99 -3.18,-6.56 -7.51,-8.26 -24.11,-22.53 -49.86,-42.86 -2.16,-1.7 -3.69,-2.38 -4.67,-2.06 -1.01,0.37 -3.44,3.11 -7.37,8.1l-87.12 108.32c-24.95,31.62 -39.98,51.22 -45.11,58.86 -5.18,7.59 -7.31,13.02 -6.44,16.13 0.66,2.13 8.21,9.98 22.82,23.59l-10.49 13.29c-15.31,-13.17 -31.89,-26.79 -49.67,-40.82 -23.36,-18.45 -42.57,-33.07 -57.66,-43.9z"/>
  <g id="_1353128640">
   <path class="fil3 str3" d="M1420.14 2126.08c29.34,38.31 104.21,65.61 192.19,65.61 88,-0.01 162.88,-27.3 192.21,-65.61l-384.4 0z"/>
   <g>
    <path class="fil0" d="M1623.42 2133.97c0,6.12 -4.97,11.09 -11.09,11.09 -6.12,0 -11.09,-4.97 -11.09,-11.09l22.18 0zm0 -341.38l0 341.38 -22.18 0 0 -341.38 22.18 0zm-22.18 0c0,-6.12 4.97,-11.09 11.09,-11.09 6.12,0 11.09,4.97 11.09,11.09l-22.18 0z"/>
   </g>
   <g>
    <path class="fil0" d="M1437.86 2131.07c-2.96,5.36 -9.72,7.3 -15.08,4.34 -5.36,-2.96 -7.3,-9.72 -4.34,-15.08l19.42 10.74zm184.18 -333.11l-184.18 333.11 -19.42 -10.74 184.18 -333.11 19.42 10.74zm-19.42 -10.74c2.96,-5.36 9.72,-7.3 15.08,-4.34 5.36,2.96 7.3,9.72 4.34,15.08l-19.42 -10.74z"/>
   </g>
   <g>
    <path class="fil0" d="M1806.75 2120.32c2.97,5.35 1.03,12.11 -4.32,15.08 -5.35,2.97 -12.11,1.03 -15.08,-4.32l19.4 -10.76zm-184.72 -333.11l184.72 333.11 -19.4 10.76 -184.72 -333.11 19.4 -10.76zm-19.4 10.76c-2.97,-5.35 -1.03,-12.11 4.32,-15.08 5.35,-2.97 12.11,-1.03 15.08,4.32l-19.4 10.76z"/>
   </g>
   <path class="fil3 str3" d="M2280.03 2126.08c29.35,38.31 104.21,65.61 192.22,65.61 87.98,-0.01 162.85,-27.3 192.19,-65.61l-384.41 0z"/>
   <g>
    <path class="fil0" d="M2483.34 2133.97c0,6.12 -4.97,11.09 -11.09,11.09 -6.12,0 -11.09,-4.97 -11.09,-11.09l22.18 0zm0 -341.38l0 341.38 -22.18 0 0 -341.38 22.18 0zm-22.18 0c0,-6.12 4.97,-11.09 11.09,-11.09 6.12,0 11.09,4.97 11.09,11.09l-22.18 0z"/>
   </g>
   <g>
    <path class="fil0" d="M2297.75 2131.07c-2.96,5.36 -9.72,7.3 -15.08,4.34 -5.36,-2.96 -7.3,-9.72 -4.34,-15.08l19.42 10.74zm184.21 -333.11l-184.21 333.11 -19.42 -10.74 184.21 -333.11 19.42 10.74zm-19.42 -10.74c2.96,-5.36 9.72,-7.3 15.08,-4.34 5.36,2.96 7.3,9.72 4.34,15.08l-19.42 -10.74z"/>
   </g>
   <g>
    <path class="fil0" d="M2666.66 2120.32c2.97,5.35 1.03,12.11 -4.32,15.08 -5.35,2.97 -12.11,1.03 -15.08,-4.32l19.4 -10.76zm-184.71 -333.11l184.71 333.11 -19.4 10.76 -184.71 -333.11 19.4 -10.76zm-19.4 10.76c-2.97,-5.35 -1.03,-12.11 4.32,-15.08 5.35,-2.97 12.11,-1.03 15.08,4.32l-19.4 10.76z"/>
   </g>
   <path class="fil3 str4" d="M2042.28 1621.77c12.21,20.99 31.41,40.91 51.65,53.57 -20.24,12.66 -39.44,32.58 -51.65,53.57 -12.19,-20.99 -31.41,-40.91 -51.65,-53.57 20.24,-12.66 39.46,-32.57 51.65,-53.57zm508.43 126.31c1.79,-1.95 1.89,-4.97 0.24,-7.06 -1.62,-2.06 -4.49,-2.58 -6.69,-1.18 -25.35,16.33 -66.76,26.96 -113.56,26.96 -50.52,0 -94.65,-12.41 -119.25,-30.93 -4.27,-3.19 -7.96,-6.62 -10.97,-10.15 -2.06,-2.4 -5.06,-3.66 -8.16,-3.43 -3.06,0.24 -5.86,1.99 -7.52,4.66 -2.57,4.19 -5.87,8.14 -9.83,11.8 -18.1,16.7 -48.87,27.71 -83.78,27.71 -51.61,0 -93.69,-24.15 -99.68,-55.15 14.38,-12.96 30.43,-22.22 42.94,-22.22 7.34,0 13.29,-6.14 13.29,-13.75 0,-7.62 -5.95,-13.79 -13.29,-13.79 -29.5,0 -78.88,-51.24 -78.88,-81.83 0,-7.61 -5.95,-13.75 -13.29,-13.75 -7.34,0 -13.27,6.14 -13.27,13.75 0,30.59 -49.41,81.83 -78.9,81.83 -7.34,0 -13.27,6.17 -13.27,13.79 0,7.61 5.93,13.75 13.27,13.75 12.51,0 28.57,9.26 42.96,22.22 -5.98,31 -48.07,55.15 -99.68,55.15 -34.93,0 -65.68,-11.01 -83.79,-27.71 -3.98,-3.66 -7.25,-7.61 -9.84,-11.8 -1.67,-2.67 -4.45,-4.42 -7.53,-4.66 -3.07,-0.24 -6.08,1.03 -8.13,3.43 -3.01,3.53 -6.7,6.96 -10.99,10.15 -24.58,18.52 -68.71,30.93 -119.23,30.93 -46.82,0 -88.21,-10.63 -113.57,-26.96 -2.19,-1.4 -5.06,-0.88 -6.7,1.18 -1.63,2.09 -1.52,5.11 0.24,7.06 24.23,26.69 75.25,45.06 134.32,45.06 39.71,0 75.78,-8.33 102.53,-21.88 6.58,-3.32 14.46,-1.81 19.47,3.7 21.08,23.29 59.4,38.83 103.22,38.83 44.58,0 83.45,-16.12 104.24,-40.09 3.92,-4.53 9.82,-6.59 15.59,-5.42 5.74,1.17 10.49,5.35 12.49,11.05 0.97,2.77 1.55,4.42 1.55,4.55 0,0.48 -3.34,138.76 -10.02,292.98 -5.38,2.92 -8.74,6.69 -8.74,10.92 0,3.01 1.82,5.79 4.78,8.23 -5.29,3.9 -8.58,8.85 -8.58,14.29 0,4.39 2.12,8.44 5.67,11.91 -4.86,4.04 -7.8,8.99 -7.8,14.36 0,6.25 3.87,21.14 10.18,35.29 -3.97,77.34 -8.78,152.52 -14.41,210.58 -6.17,16.15 -16.59,30.18 -30.05,40.5 0,0 -33.2,2.02 -43.35,33.2 0,0 -37.22,7.1 -45.69,41.73l-46.09 18.63c0,0 -60.9,8.5 -60.9,36.05 0,6.07 4.68,8.09 16,8.09l508.05 0c11.33,0 16.01,-2.02 16.01,-8.09 0,-27.55 -60.92,-36.05 -60.92,-36.05l-46.07 -18.63c-8.46,-34.63 -45.7,-41.73 -45.7,-41.73 -10.14,-31.18 -43.34,-33.2 -43.34,-33.2 -13.48,-10.32 -23.88,-24.35 -30.07,-40.5 -5.63,-58.07 -10.42,-133.24 -14.41,-210.58 6.32,-14.15 10.21,-29.04 10.21,-35.29 0,-5.38 -2.96,-10.32 -7.81,-14.36 3.54,-3.47 5.68,-7.52 5.68,-11.91 0,-5.44 -3.31,-10.39 -8.6,-14.29 2.97,-2.44 4.77,-5.22 4.77,-8.23 0,-4.23 -3.36,-8 -8.73,-10.92 -6.67,-154.22 -10.01,-292.5 -10.01,-292.98 0,-0.13 0.57,-1.78 1.54,-4.52 2.01,-5.73 6.74,-9.91 12.48,-11.08 5.75,-1.17 11.67,0.89 15.59,5.42 20.79,23.97 59.67,40.09 104.26,40.09 43.79,0 82.14,-15.54 103.21,-38.83 5.01,-5.51 12.9,-7.02 19.49,-3.7 26.74,13.55 62.79,21.88 102.5,21.88 59.09,0 110.09,-18.37 134.32,-45.06z"/>
   <path class="fil3 str4" d="M1829.74 1338.56c37.89,-7.69 60.69,-38.51 67.26,-51.86 -60.99,-39.13 -133.44,-1.92 -151.37,38.66 23.5,2.06 48.71,20.37 84.11,13.2zm-86.55 -83.92c-83.41,-1.88 -151.22,102.44 -148.3,150.86 0,0 21.38,-5.82 32.2,-4.32 10.81,1.5 43.72,22.05 83.05,26.99 35.98,4.49 62.53,-7.13 75.27,-16.8 -15.85,-7.07 -25.75,-25.86 -56.32,-41.97 -21.36,-11.29 -34.76,-12.15 -50,-10.3 -1.59,-29.02 28.91,-74.69 64.1,-104.46zm-201.16 80.87c-83.27,35.98 -119.79,174.12 -102.63,222.57 0,0 19.46,-15.74 30.64,-19.09 11.18,-3.37 49.85,2.8 90.32,-10.03 37,-11.76 59.9,-35.8 69.68,-51.5 -17.78,-0.07 -33.16,-14.89 -68.21,-17.56 -24.5,-1.86 -38.05,3.32 -52.61,12.17 -10.13,-29.12 6.69,-89.95 32.81,-136.56zm-181.09 151.86c-82.76,58.67 -93.8,216.95 -65.22,265.41 0,0 17.83,-21.64 29.24,-27.95 11.43,-6.28 54.59,-8.75 95.78,-32.2 37.66,-21.51 57.51,-52.96 64.89,-72.3 -19.3,4.15 -39.02,-8.3 -77.53,-2.88 -26.94,3.77 -40.54,12.58 -54.48,25.62 -17.01,-29.15 -11.34,-99.05 7.32,-155.7zm-143.83 221.1c-65.9,86.35 -29.09,246.52 14.51,284.59 0,0 11.46,-27.51 21.1,-37.63 9.64,-10.12 52.53,-27.37 87.05,-64.68 31.56,-34.1 42.1,-71.98 43.69,-93.63 -18.25,10.71 -41.96,5.18 -79.26,23.7 -26.08,12.96 -37.15,26.38 -47.31,44 -26.03,-22.98 -41.48,-93.97 -39.78,-156.35zm-81.09 244.28c-37.88,110.2 50.17,256.06 105.77,277.94 0,0 2.59,-31.59 8.93,-45.21 6.36,-13.62 43.5,-46.57 65.9,-96.37 20.47,-45.57 18.8,-87.18 13.43,-109.26 -14.72,17.35 -40.1,20.54 -71.29,52.71 -21.79,22.49 -28.52,39.88 -32.96,61.22 -33.29,-13.34 -71.45,-78.3 -89.78,-141.03zm-2.71 264.11c-4.82,126.96 131.2,245.46 195.28,247.99 0,0 -7.14,-33.43 -4.82,-49.73 2.32,-16.29 30.37,-63.51 37.98,-122.8 6.95,-54.27 -7.68,-96.45 -20.08,-117.26 -9.79,23.14 -34.92,35.56 -57.08,79.84 -15.48,30.97 -17.02,51.3 -14.98,74.8 -38.44,-1.76 -97.94,-54.88 -136.3,-112.84zm94.08 259.41c25.13,124.19 184.61,202.27 247.25,187.53 0,0 -14.79,-30.45 -16.36,-46.85 -1.6,-16.39 14.48,-69.65 7.91,-129.09 -6,-54.35 -30.07,-91.26 -46.94,-108.09 -4.03,25.03 -25.47,43.82 -36.51,92.66 -7.71,34.12 -4.43,54.18 3.07,76.41 -37.62,8.64 -107.69,-26.79 -158.42,-72.57zm157.04 246.62c66.02,111.57 247.69,126.79 303.89,88.41 0,0 -24.6,-24.07 -31.61,-39.47 -7.02,-15.37 -9.11,-73.5 -35.36,-128.98 -24,-50.76 -59.81,-77.55 -81.9,-87.53 4.43,25.99 -10.23,52.5 -4.7,104.36 3.87,36.28 13.79,54.6 28.51,73.43 -33.82,22.8 -114.02,15.02 -178.83,-10.22zm411.26 128.26c-20.65,-14.88 -36.03,-30.66 -49.63,-66.29 -19.46,-51.03 -10.74,-82.07 -22.25,-107.13 26.21,3.83 71.49,20.81 110.4,65.46 42.56,48.81 59.97,107.1 71.48,120.72 11.53,13.61 44.09,31.04 44.09,31.04 -50.03,54.83 -248.21,90.95 -347.89,-3.39 75.85,7.19 163.63,-7.65 193.8,-40.41z"/>
   <path class="fil3 str4" d="M2338.95 1325.36c-17.95,-40.58 -90.38,-77.79 -151.39,-38.66 6.58,13.35 29.38,44.18 67.28,51.87 35.38,7.15 60.6,-11.15 84.11,-13.21zm66.52 33.74c-15.23,-1.85 -28.62,-0.99 -49.98,10.3 -30.56,16.11 -40.48,34.91 -56.32,41.97 12.74,9.67 39.28,21.3 75.26,16.8 39.34,-4.94 72.23,-25.48 83.06,-26.99 10.81,-1.5 32.2,4.32 32.2,4.32 2.9,-48.42 -64.9,-152.74 -148.3,-150.86 35.17,29.76 65.69,75.44 64.08,104.46zm169.86 112.97c-14.55,-8.85 -28.1,-14.03 -52.6,-12.17 -35.05,2.67 -50.42,17.49 -68.22,17.56 9.79,15.7 32.71,39.74 69.71,51.5 40.45,12.83 79.13,6.66 90.31,10.03 11.17,3.35 30.65,19.09 30.65,19.09 17.15,-48.45 -19.36,-186.59 -102.63,-222.57 26.12,46.61 42.94,107.44 32.78,136.56zm155.63 171c-13.95,-13.04 -27.55,-21.85 -54.49,-25.62 -38.51,-5.42 -58.23,7.03 -77.52,2.88 7.36,19.34 27.21,50.8 64.88,72.3 41.18,23.45 84.36,25.92 95.76,32.2 11.43,6.31 29.27,27.95 29.27,27.95 28.59,-48.46 17.55,-206.74 -65.23,-265.41 18.68,56.65 24.34,126.55 7.33,155.7zm96.73 221.75c-10.16,-17.62 -21.24,-31.04 -47.32,-44 -37.31,-18.52 -61.01,-12.99 -79.25,-23.7 1.57,21.65 12.12,59.53 43.68,93.63 34.53,37.31 77.41,54.56 87.05,64.68 9.64,10.12 21.11,37.63 21.11,37.63 43.59,-38.07 80.41,-198.24 14.51,-284.59 1.69,62.38 -13.77,133.37 -39.78,156.35zm31.09 228.96c-4.44,-21.34 -11.17,-38.73 -32.98,-61.22 -31.17,-32.17 -56.56,-35.36 -71.28,-52.71 -5.36,22.08 -7.04,63.69 13.44,109.26 22.38,49.8 59.54,82.75 65.88,96.37 6.34,13.62 8.94,45.21 8.94,45.21 55.61,-21.88 143.64,-167.74 105.78,-277.93 -18.33,62.71 -56.5,127.68 -89.78,141.02zm-43.81 235.92c2.04,-23.5 0.5,-43.83 -14.98,-74.8 -22.16,-44.28 -47.31,-56.7 -57.09,-79.84 -12.39,20.81 -27.01,62.99 -20.08,117.26 7.6,59.29 35.67,106.51 37.99,122.8 2.31,16.3 -4.84,49.73 -4.84,49.73 64.1,-2.53 200.12,-121.03 195.3,-247.99 -38.36,57.96 -97.88,111.08 -136.3,112.84zm-116.2 219.14c7.49,-22.23 10.78,-42.29 3.07,-76.41 -11.05,-48.84 -32.48,-67.63 -36.52,-92.66 -16.88,16.83 -40.96,53.74 -46.96,108.09 -6.54,59.44 9.51,112.7 7.94,129.09 -1.57,16.4 -16.36,46.85 -16.36,46.85 62.64,14.74 222.1,-63.34 247.24,-187.53 -50.73,45.78 -120.81,81.21 -158.41,72.57zm-177.46 184.27c14.73,-18.83 24.63,-37.15 28.52,-73.43 5.51,-51.86 -9.13,-78.37 -4.71,-104.36 -22.08,9.98 -57.89,36.77 -81.91,87.53 -26.24,55.48 -28.33,113.62 -35.34,128.98 -7.04,15.4 -31.61,39.47 -31.61,39.47 56.2,38.38 237.88,23.16 303.87,-88.41 -64.79,25.24 -145.01,33.02 -178.82,10.22zm-38.63 158.45c-99.67,94.34 -297.85,58.22 -347.88,3.39 0,0 32.56,-17.42 44.08,-31.04 11.5,-13.62 28.93,-71.91 71.47,-120.72 38.93,-44.66 84.2,-61.63 110.41,-65.46 -11.51,25.06 -2.77,56.1 -22.24,107.13 -13.59,35.63 -28.99,51.41 -49.64,66.29 30.18,32.75 117.96,47.6 193.8,40.41z"/>
  </g>
 </g>
</svg>
