<?xml version="1.0" encoding="UTF-8"?>
<!DOCTYPE svg PUBLIC "-//W3C//DTD SVG 1.1//EN" "http://www.w3.org/Graphics/SVG/1.1/DTD/svg11.dtd">
<!-- Creator: CorelDRAW 2019 (64-Bit) -->
<svg xmlns="http://www.w3.org/2000/svg" xml:space="preserve" width="41mm" height="41mm" version="1.1" style="shape-rendering:geometricPrecision; text-rendering:geometricPrecision; image-rendering:optimizeQuality; fill-rule:evenodd; clip-rule:evenodd"
viewBox="0 0 4100 4100"
 xmlns:xlink="http://www.w3.org/1999/xlink">
 <defs>
  <style type="text/css">
   <![CDATA[
    .str0 {stroke:#393185;stroke-width:75;stroke-miterlimit:22.9256}
    .str9 {stroke:#393185;stroke-width:50;stroke-miterlimit:22.9256}
    .str3 {stroke:#393185;stroke-width:40;stroke-miterlimit:22.9256}
    .str6 {stroke:#393185;stroke-width:30;stroke-miterlimit:22.9256}
    .str8 {stroke:#393185;stroke-width:20;stroke-miterlimit:22.9256}
    .str2 {stroke:#393185;stroke-width:15;stroke-miterlimit:22.9256}
    .str1 {stroke:#393185;stroke-width:10;stroke-miterlimit:22.9256}
    .str7 {stroke:#393185;stroke-width:20;stroke-linejoin:round;stroke-miterlimit:22.9256}
    .str4 {stroke:#393185;stroke-width:15;stroke-linejoin:round;stroke-miterlimit:22.9256}
    .str10 {stroke:#393185;stroke-width:45;stroke-linecap:round;stroke-linejoin:round;stroke-miterlimit:22.9256}
    .str5 {stroke:#393185;stroke-width:20;stroke-linecap:round;stroke-linejoin:round;stroke-miterlimit:22.9256}
    .fil0 {fill:none}
    .fil2 {fill:none;fill-rule:nonzero}
    .fil3 {fill:#393185}
    .fil1 {fill:#393185;fill-rule:nonzero}
   ]]>
  </style>
 </defs>
 <g id="Слой_x0020_1">
  <metadata id="CorelCorpID_0Corel-Layer"/>
  <path class="fil0 str0" d="M2050 50c1104.56,0 2000,895.44 2000,2000 0,1104.56 -895.44,2000 -2000,2000 -1104.57,0 -2000.01,-895.44 -2000.01,-2000 0,-1104.56 895.44,-2000 2000.01,-2000z"/>
  <path class="fil1 str1" d="M1045.33 2763.38c-0.47,-7.88 -2.06,-15.76 -4.82,-23.58 -3.89,-11.23 -5.83,-18.99 -5.83,-23.22 0,-6 1.42,-10.53 4.18,-13.65 2.82,-3.11 6.29,-4.64 10.46,-4.64 3.53,0 6.65,1.53 9.29,4.64 2.65,3.12 3.94,7.53 3.94,13.29 0,5.18 -1.53,12.35 -4.52,21.58 -3.06,9.29 -4.94,17.82 -5.65,25.58 6.35,-4 12,-8.88 17.05,-14.64 7.82,-9.06 13.64,-14.7 17.41,-16.88 3.82,-2.17 7.64,-3.23 11.58,-3.23 3.76,0 6.94,1.29 9.52,3.88 2.59,2.53 3.88,5.64 3.88,9.17 0,4.29 -1.88,8.06 -5.7,11.41 -3.76,3.29 -13.23,6.64 -28.4,9.99 -8.82,1.94 -16.17,4.18 -22.05,6.7 6,3.12 13.29,5.47 21.88,7.06 13.87,2.53 22.98,5.7 27.28,9.47 4.35,3.82 6.46,7.93 6.46,12.4 0,3.47 -1.29,6.41 -3.88,8.94 -2.58,2.53 -5.58,3.82 -8.99,3.82 -3.47,0 -7.29,-1.23 -11.47,-3.64 -4.17,-2.42 -9.87,-7.82 -16.99,-16.17 -4.7,-5.65 -10.52,-10.94 -17.58,-15.88 0.24,6.59 1.59,13.7 4,21.4 4.12,13.53 6.17,22.76 6.17,27.7 0,4.58 -1.35,8.46 -4.11,11.64 -2.77,3.17 -5.71,4.76 -8.76,4.76 -4.29,0 -8.12,-1.71 -11.59,-5 -2.41,-2.41 -3.58,-6.29 -3.58,-11.58 0,-5.47 1.29,-12.11 3.94,-19.87 2.64,-7.76 4.29,-13.11 4.99,-16 0.71,-2.94 1.36,-7.29 1.89,-13.05 -6.77,4.53 -12.7,9.47 -17.7,14.99 -8.41,9.41 -14.7,15.41 -18.99,17.94 -3,1.82 -6.06,2.76 -9.29,2.76 -3.88,0 -7.23,-1.35 -10,-4 -2.76,-2.64 -4.11,-5.52 -4.11,-8.76 0,-2.88 1.17,-5.88 3.53,-9.05 2.35,-3.18 5.88,-5.76 10.58,-7.82 3.11,-1.41 10.17,-3.24 21.16,-5.53 7.12,-1.47 14.12,-3.64 20.88,-6.53 -6.24,-3.11 -13.64,-5.52 -22.23,-7.23 -14.11,-3 -22.87,-5.7 -26.16,-8.11 -5.18,-3.76 -7.76,-8.41 -7.76,-13.76 0,-3.11 1.29,-5.94 3.88,-8.52 2.59,-2.59 5.58,-3.88 9.05,-3.88 3.77,0 7.76,1.17 12.06,3.58 4.23,2.41 9.52,7.29 15.81,14.58 6.35,7.29 12.76,12.94 19.29,16.94z"/>
  <path class="fil2" d="M2050 754.07c715.72,0 1295.93,580.21 1295.93,1295.93 0,715.72 -580.21,1295.93 -1295.93,1295.93 -715.73,0 -1295.93,-580.21 -1295.93,-1295.93 0,-715.72 580.2,-1295.93 1295.93,-1295.93z"/>
  <path class="fil2" d="M2050 1150.94c496.54,0 899.06,402.53 899.06,899.06 0,496.53 -402.52,899.06 -899.06,899.06 -496.54,0 -899.06,-402.53 -899.06,-899.06 0,-496.53 402.52,-899.06 899.06,-899.06z"/>
  <path class="fil1 str2" d="M1332.44 482.02c-0.47,-7.88 -2.06,-15.76 -4.82,-23.58 -3.89,-11.23 -5.83,-18.99 -5.83,-23.22 0,-6 1.42,-10.53 4.18,-13.65 2.82,-3.11 6.29,-4.64 10.46,-4.64 3.53,0 6.65,1.53 9.29,4.64 2.65,3.12 3.94,7.53 3.94,13.29 0,5.18 -1.53,12.35 -4.52,21.58 -3.06,9.29 -4.94,17.82 -5.65,25.58 6.35,-4 12,-8.88 17.05,-14.64 7.82,-9.06 13.64,-14.7 17.41,-16.88 3.82,-2.17 7.64,-3.23 11.58,-3.23 3.76,0 6.94,1.29 9.52,3.88 2.59,2.53 3.88,5.64 3.88,9.17 0,4.29 -1.88,8.06 -5.7,11.41 -3.76,3.29 -13.23,6.64 -28.4,9.99 -8.82,1.94 -16.17,4.18 -22.05,6.7 6,3.12 13.29,5.47 21.88,7.06 13.87,2.53 22.98,5.7 27.28,9.47 4.35,3.82 6.46,7.93 6.46,12.4 0,3.47 -1.29,6.41 -3.88,8.94 -2.58,2.53 -5.58,3.82 -8.99,3.82 -3.47,0 -7.29,-1.23 -11.47,-3.64 -4.17,-2.42 -9.87,-7.82 -16.99,-16.17 -4.7,-5.65 -10.52,-10.94 -17.58,-15.88 0.24,6.59 1.59,13.7 4,21.4 4.12,13.53 6.17,22.76 6.17,27.7 0,4.58 -1.35,8.46 -4.11,11.64 -2.77,3.17 -5.71,4.76 -8.76,4.76 -4.29,0 -8.12,-1.71 -11.59,-5 -2.41,-2.41 -3.58,-6.29 -3.58,-11.58 0,-5.47 1.29,-12.11 3.94,-19.87 2.64,-7.76 4.29,-13.11 4.99,-16 0.71,-2.94 1.36,-7.29 1.89,-13.05 -6.77,4.53 -12.7,9.47 -17.7,14.99 -8.41,9.41 -14.7,15.41 -18.99,17.94 -3,1.82 -6.06,2.76 -9.29,2.76 -3.88,0 -7.23,-1.35 -10,-4 -2.76,-2.64 -4.11,-5.52 -4.11,-8.76 0,-2.88 1.17,-5.88 3.53,-9.05 2.35,-3.18 5.88,-5.76 10.58,-7.82 3.11,-1.41 10.17,-3.24 21.16,-5.53 7.12,-1.47 14.12,-3.64 20.88,-6.53 -6.24,-3.11 -13.64,-5.52 -22.23,-7.23 -14.11,-3 -22.87,-5.7 -26.16,-8.11 -5.18,-3.76 -7.76,-8.41 -7.76,-13.76 0,-3.11 1.29,-5.94 3.88,-8.52 2.59,-2.59 5.58,-3.88 9.05,-3.88 3.77,0 7.76,1.17 12.06,3.58 4.23,2.41 9.52,7.29 15.81,14.58 6.35,7.29 12.76,12.94 19.29,16.94z"/>
  <path class="fil2 str3" d="M2050 537.76c835.18,0 1512.24,677.06 1512.24,1512.24 0,835.18 -677.06,1512.24 -1512.24,1512.24 -835.18,0 -1512.24,-677.06 -1512.24,-1512.24 0,-835.18 677.06,-1512.24 1512.24,-1512.24z"/>
  <path class="fil2" d="M2050 564.66c820.33,0 1485.34,665.01 1485.34,1485.34 0,820.33 -665.01,1485.34 -1485.34,1485.34 -820.33,0 -1485.34,-665.01 -1485.34,-1485.34 0,-820.33 665.01,-1485.34 1485.34,-1485.34z"/>
  <path class="fil1 str4" d="M1449.05 341.44l25.9 -7.28 95.5 95.13 23.57 -128.62 25.36 -7.14 -32.61 163.56c-4.07,20.45 -8.24,34.28 -12.52,41.45 -4.3,7.16 -11.86,12.25 -22.72,15.3 -6.6,1.86 -15.12,2.69 -25.6,2.49l-5.85 -20.81c7.94,1.83 15.77,1.67 23.46,-0.5 6.25,-1.75 11.1,-5.2 14.6,-10.29 3.46,-5.09 6.04,-15.18 7.71,-30.3l-116.8 -112.99zm199.67 -55.36l26.35 -4.83 15.09 82.41c11.98,-2.19 20.04,-5.97 24.09,-11.28 4.09,-5.31 8.36,-17.03 12.87,-35.22 3.25,-13.38 6.18,-22.92 8.87,-28.65 2.63,-5.77 6.92,-10.99 12.91,-15.65 5.94,-4.66 12.93,-7.75 20.89,-9.2 10.12,-1.85 15.46,-2.74 16.05,-2.67l3.94 21.52c-0.93,0.17 -2.7,0.45 -5.3,0.84 -2.93,0.44 -4.69,0.72 -5.34,0.84 -8.38,1.53 -14.27,4.59 -17.64,9.2 -3.46,4.6 -6.66,13.69 -9.74,27.22 -3.76,17.15 -7.55,28.24 -11.43,33.24 -3.81,4.95 -8.76,9.29 -14.69,12.95 13.41,0.98 28.16,9.9 44.14,26.69l52.39 55.06 -32.65 5.98 -42.69 -44.81c-11.7,-12.46 -21.1,-20.78 -28.17,-24.91 -7.13,-4.17 -15.51,-5.35 -25.29,-3.56l16.09 87.92 -26.36 4.83 -34.38 -187.92zm184.75 159.8l-14.52 -190.49 76.07 -5.8c13.37,-1.02 23.64,-1.17 30.8,-0.51 10.03,0.79 18.55,3.12 25.59,6.96 7.04,3.88 12.9,9.59 17.57,17.12 4.69,7.54 7.37,16.03 8.09,25.47 1.22,16.15 -3.18,30.26 -13.25,42.27 -10.02,12.05 -29.34,19.14 -57.85,21.31l-51.68 3.94 5.92 77.69 -26.74 2.04zm19.11 -102.07l52.06 -3.97c17.26,-1.32 29.22,-5.26 36.02,-11.9 6.77,-6.62 9.72,-15.41 8.88,-26.45 -0.61,-7.93 -3.23,-14.6 -7.94,-19.95 -4.69,-5.35 -10.61,-8.69 -17.68,-9.97 -4.59,-0.78 -12.94,-0.71 -25,0.21l-51.54 3.93 5.2 68.1zm135.6 87.62l83.08 -188.68 29.4 0.86 76.6 193.37 -30.4 -0.89 -21.68 -58.56 -85.03 -2.5 -23.62 57.23 -28.35 -0.83zm60.41 -76.7l68.83 2.02 -19.51 -53.56c-5.87,-16.28 -10.28,-29.71 -13.3,-40.29 -3.15,12.36 -7.22,24.47 -12.23,36.42l-23.79 55.41zm143.27 85.44l14.52 -190.49 26.74 2.04 -14.53 190.48 -26.73 -2.03zm-9.06 -204.06l2.03 -26.61 25.89 1.98 -2.03 26.6 -25.89 -1.97zm51.21 3.9l2.03 -26.6 25.89 1.97 -2.03 26.61 -25.89 -1.98zm21.88 204.52l34.39 -187.92 26.37 4.83 -14.17 77.42 102.72 18.8 14.16 -77.43 26.38 4.83 -34.39 187.92 -26.38 -4.83 16.19 -88.44 -102.72 -18.79 -16.18 88.44 -26.37 -4.83zm166.64 31.47l125.34 -163.7 28.34 7.79 28.74 206 -29.34 -8.06 -7.21 -62.02 -82.05 -22.53 -36.47 50.03 -27.35 -7.51zm76.83 -60.25l66.4 18.23 -6.29 -56.64c-1.86,-17.21 -2.97,-31.31 -3.41,-42.31 -5.97,11.27 -12.79,22.08 -20.48,32.51l-36.22 48.21z"/>
  <g id="_921080064">
   <path class="fil1 str4" d="M3040.56 660.1l18.38 19.74c-16.22,15.02 -33.3,23.36 -51.3,25.1 -18,1.75 -35.62,-2.92 -52.83,-14.05 -17.8,-11.5 -29.95,-24.48 -36.41,-38.99 -6.49,-14.46 -8.17,-30.45 -5.09,-47.95 3.09,-17.55 9.7,-34.2 19.91,-49.99 11.13,-17.21 24.11,-30.11 38.99,-38.69 14.87,-8.57 30.53,-12.26 46.97,-11.09 16.44,1.19 31.94,6.51 46.5,15.93 16.56,10.7 27.75,23.88 33.55,39.59 5.83,15.72 6.05,32.63 0.62,50.74l-24.78 -8.8c3.95,-14.48 4.05,-26.88 0.3,-37.05 -3.71,-10.21 -11.12,-18.87 -22.17,-26.01 -12.68,-8.2 -25.27,-12.03 -37.71,-11.45 -12.45,0.59 -23.76,4.91 -33.81,12.94 -10.11,8.04 -18.69,17.52 -25.73,28.41 -9.09,14.06 -14.99,27.67 -17.69,40.79 -2.71,13.15 -1.41,25.08 3.86,35.85 5.26,10.78 12.92,19.38 22.97,25.88 12.25,7.91 24.87,11.05 37.89,9.47 13.05,-1.61 25.57,-8.37 37.58,-20.37zm84.47 -27.14l43.98 34.2c10.79,8.4 18.13,15.55 22,21.47 3.85,5.89 5.81,12.7 5.83,20.45 0.02,7.8 -2.57,15.03 -7.8,21.76 -4.19,5.39 -8.98,9.23 -14.29,11.49 -5.36,2.28 -11.31,3.06 -17.89,2.24 3.91,5.89 5.73,12.59 5.46,20.17 -0.26,7.52 -3,14.63 -8.15,21.25 -8.99,10.14 -18.99,15.09 -29.91,14.86 -10.94,-0.21 -23,-5.47 -36.19,-15.72l-50.71 -39.44 87.67 -112.73zm-17.88 62.43l20.27 15.77c8.08,6.28 13.99,10.18 17.65,11.68 3.71,1.5 7.75,1.91 12.16,1.16 4.39,-0.71 8,-2.9 10.82,-6.52 4.65,-5.97 5.76,-11.74 3.43,-17.32 -2.37,-5.62 -8.64,-12.36 -18.77,-20.24l-20.89 -16.24 -24.67 31.71zm-38.51 49.53l25.08 19.51c10.79,8.39 19.2,12.89 25.16,13.52 5.99,0.59 11.44,-2.08 16.47,-8.11 2.78,-3.58 4.25,-7.85 4.32,-12.73 0.04,-4.9 -1.48,-9.22 -4.59,-12.92 -3.08,-3.73 -8.77,-8.8 -17.03,-15.23l-23.06 -17.93 -26.35 33.89zm190.41 -36.6l19.04 -19.87 17.49 16.75 -19.03 19.87 -17.5 -16.75zm-117.22 122.43l98.76 -103.15 17.5 16.75 -98.77 103.15 -17.49 -16.75zm153.34 -51.95l68.9 71.93 -88.82 85.08 10.66 11.13 -43.51 41.69 -13.71 -14.31 29.21 -27.98 -77.86 -81.27 -29.21 27.98 -13.7 -14.31 43.52 -41.68 8.75 9.14c28.53,-3.7 63.78,-26.17 105.77,-67.4zm-0.61 28.39c-34.72,30.79 -64.44,49.35 -89.17,55.7l53.11 55.43 74.32 -71.19 -38.26 -39.94zm38.37 112.81c20.72,-16.31 40.61,-22.63 59.7,-18.93 15.87,3.1 29.28,11.62 40.21,25.5 12.11,15.38 16.99,31.96 14.62,49.71 -2.36,17.68 -12.46,33.56 -30.22,47.55 -14.41,11.34 -27.42,18.09 -39.08,20.26 -11.66,2.18 -23.04,0.92 -34.13,-3.77 -11.08,-4.64 -20.47,-11.9 -28.16,-21.66 -12.37,-15.72 -17.35,-32.34 -14.93,-49.95 2.43,-17.61 13.11,-33.85 31.99,-48.71zm15.29 19.49c-14.34,11.29 -22.61,22.88 -24.77,34.74 -2.17,11.92 0.48,22.62 7.99,32.17 7.43,9.43 17.18,14.48 29.32,15.15 12.11,0.62 25.49,-4.84 40.16,-16.39 13.83,-10.89 21.82,-22.32 23.96,-34.21 2.16,-11.93 -0.46,-22.59 -7.83,-31.96 -7.52,-9.54 -17.26,-14.66 -29.32,-15.37 -12.04,-0.68 -25.21,4.61 -39.51,15.87zm137.53 60.47l14.1 19.68 -99.97 71.65 39.1 54.57 99.98 -71.65 14.11 19.69 -99.98 71.65 9.14 12.74 -48.99 35.1 -11.53 -16.1 32.87 -23.56 -64.91 -90.58 116.08 -83.19zm82.2 121.67l58.05 99.93 -17.36 10.09 -22.94 -39.49 -106.13 61.64 -12.16 -20.94 106.12 -61.65 -22.94 -39.5 17.36 -10.08zm69.97 123.3l22.97 50.77c5.63,12.45 8.78,22.2 9.45,29.25 0.65,7 -0.78,13.94 -4.38,20.8 -3.62,6.92 -9.28,12.1 -17.05,15.62 -6.22,2.81 -12.25,3.98 -17.99,3.5 -5.81,-0.49 -11.44,-2.57 -16.87,-6.36 0.71,7.03 -0.8,13.81 -4.58,20.39 -3.74,6.53 -9.48,11.54 -17.12,14.99 -12.69,4.79 -23.84,4.5 -33.39,-0.8 -9.58,-5.28 -17.8,-15.56 -24.68,-30.77l-26.48 -58.54 130.12 -58.85zm-44.92 46.9l10.58 23.4c4.22,9.32 7.63,15.52 10.16,18.56 2.59,3.05 5.97,5.3 10.22,6.69 4.22,1.42 8.43,1.17 12.61,-0.72 6.9,-3.12 10.57,-7.7 11.11,-13.73 0.53,-6.07 -1.88,-14.95 -7.17,-26.65l-10.9 -24.11 -36.61 16.56zm-57.17 25.85l13.1 28.96c5.63,12.45 10.97,20.35 15.95,23.69 5.02,3.32 11.09,3.49 18.35,0.5 4.13,-1.87 7.42,-4.96 9.76,-9.24 2.32,-4.32 2.99,-8.85 1.97,-13.58 -0.99,-4.73 -3.66,-11.87 -7.97,-21.4l-12.04 -26.62 -39.12 17.69zm88.76 71.52c24.52,-9.72 45.38,-10.09 62.62,-1.09 14.32,7.5 24.74,19.49 31.25,35.91 7.21,18.2 7.16,35.49 -0.18,51.82 -7.32,16.27 -21.52,28.61 -42.54,36.94 -17.05,6.75 -31.45,9.5 -43.24,8.26 -11.8,-1.25 -22.34,-5.7 -31.64,-13.36 -9.29,-7.61 -16.22,-17.25 -20.8,-28.8 -7.37,-18.6 -7.38,-35.95 -0.04,-52.14 7.36,-16.18 22.23,-28.69 44.57,-37.54zm9.08 23.04c-16.96,6.73 -28.2,15.47 -33.66,26.22 -5.48,10.8 -6,21.82 -1.52,33.11 4.42,11.17 12.33,18.79 23.77,22.9 11.42,4.05 25.81,2.64 43.16,-4.24 16.37,-6.49 27.3,-15.16 32.74,-25.95 5.48,-10.81 6.01,-21.78 1.62,-32.86 -4.48,-11.29 -12.35,-18.98 -23.71,-23.11 -11.34,-4.09 -25.47,-2.78 -42.4,3.93zm139.92 197.01l25.36 109.94 -139.16 32.1 -5.44 -23.59 119.59 -27.59 -14.47 -62.74 -119.59 27.59 -5.45 -23.6 139.16 -32.11zm-163.59 173.06l196.11 -24 2.67 21.85 -18.61 2.27c7.82,4.28 13.95,9.44 18.34,15.51 4.39,6.02 7.17,13.67 8.3,22.91 1.49,12.11 -0.31,23.14 -5.41,33.15 -5.06,10 -13,18.04 -23.7,24.15 -10.76,6.08 -22.86,9.96 -36.38,11.62 -14.43,1.76 -27.76,0.76 -40.01,-3 -12.2,-3.78 -22,-10.26 -29.41,-19.42 -7.35,-9.13 -11.72,-19.17 -13.06,-30.09 -0.98,-8.02 -0.17,-15.42 2.42,-22.16 2.59,-6.79 6.19,-12.49 10.84,-17.21l-69.16 8.46 -2.94 -24.04zm127.05 6.63c-18.17,2.22 -31.15,7.55 -38.94,15.94 -7.8,8.44 -11.07,17.9 -9.79,28.37 1.3,10.65 6.92,19.2 16.86,25.66 9.94,6.5 24.33,8.57 43.22,6.26 18.03,-2.21 31.05,-7.54 39.11,-16.06 8.06,-8.51 11.44,-17.89 10.18,-28.18 -1.25,-10.2 -7.12,-18.63 -17.6,-25.29 -10.52,-6.7 -24.84,-8.93 -43.04,-6.7zm16.37 116.05c26.36,-0.78 46.1,5.97 59.24,20.31 10.91,11.93 16.63,26.75 17.15,44.4 0.59,19.58 -5.35,35.81 -17.81,48.67 -12.42,12.8 -29.98,19.56 -52.58,20.24 -18.33,0.54 -32.81,-1.78 -43.47,-6.96 -10.67,-5.19 -19.06,-12.97 -25.2,-23.34 -6.14,-10.32 -9.37,-21.74 -9.74,-34.16 -0.6,-19.99 5.3,-36.32 17.72,-49.03 12.42,-12.71 30.67,-19.41 54.69,-20.13zm0.69 24.77c-18.24,0.54 -31.79,4.94 -40.58,13.18 -8.83,8.29 -13.07,18.47 -12.71,30.62 0.36,12 5.2,21.86 14.55,29.61 9.37,7.71 23.37,11.28 42.03,10.72 17.6,-0.52 30.83,-4.96 39.61,-13.24 8.84,-8.3 13.08,-18.43 12.72,-30.35 -0.36,-12.14 -5.15,-22.05 -14.42,-29.8 -9.27,-7.71 -23,-11.29 -41.2,-10.74zm71.22 226.66l-8.57 112.49 -142.4 -10.85 1.84 -24.14 122.37 9.33 4.9 -64.21 -122.38 -9.32 1.84 -24.15 142.4 10.85zm-208.7 116.24l194.32 35.68 -3.97 21.65 -18.44 -3.39c6.18,6.41 10.49,13.17 12.87,20.28 2.39,7.06 2.76,15.19 1.08,24.34 -2.2,12 -7.21,21.99 -15.07,30.02 -7.82,8.03 -17.79,13.33 -29.83,15.97 -12.09,2.58 -24.79,2.68 -38.19,0.22 -14.3,-2.63 -26.72,-7.57 -37.29,-14.82 -10.51,-7.24 -17.93,-16.35 -22.26,-27.31 -4.29,-10.91 -5.46,-21.8 -3.48,-32.62 1.46,-7.95 4.44,-14.76 8.93,-20.42 4.5,-5.7 9.63,-10.08 15.48,-13.19l-68.52 -12.58 4.37 -23.83zm119.27 44.28c-18,-3.31 -31.98,-2.09 -41.93,3.59 -9.96,5.72 -15.91,13.77 -17.81,24.15 -1.94,10.55 0.87,20.39 8.42,29.52 7.55,9.18 20.66,15.45 39.38,18.88 17.86,3.28 31.89,2.09 42.12,-3.64 10.24,-5.72 16.27,-13.66 18.14,-23.86 1.85,-10.1 -1.24,-19.9 -9.25,-29.39 -8.04,-9.54 -21.03,-15.94 -39.07,-19.25zm-98.85 199.5c-5.01,-10.69 -7.91,-20.46 -8.77,-29.3 -0.87,-8.84 -0.02,-17.84 2.49,-27.04 4.14,-15.13 11,-25.76 20.61,-31.88 9.56,-6.13 20.1,-7.62 31.56,-4.49 6.72,1.84 12.45,5.06 17.19,9.65 4.72,4.62 8.05,9.85 10.05,15.73 2,5.91 3.04,12.19 3.07,18.89 -0.06,4.93 -0.82,12.19 -2.2,21.76 -2.94,19.45 -4.05,34.11 -3.39,43.85 3.16,0.96 5.19,1.57 6.02,1.8 9.48,2.59 16.76,2.19 21.86,-1.16 6.9,-4.53 11.94,-12.71 15.16,-24.48 3.01,-11.01 3.29,-19.69 0.87,-25.96 -2.41,-6.32 -8.17,-12.03 -17.3,-17.23l9.42 -21.96c9.22,4.75 16.2,10.33 20.91,16.74 4.71,6.43 7.42,14.59 8.23,24.51 0.77,9.86 -0.46,20.8 -3.7,32.65 -3.22,11.77 -7.21,20.99 -12.02,27.62 -4.79,6.58 -9.73,11.07 -14.87,13.38 -5.15,2.3 -11.12,3.28 -17.93,2.95 -4.19,-0.34 -11.46,-1.9 -21.77,-4.72l-30.97 -8.47c-21.63,-5.92 -35.43,-9.17 -41.5,-9.78 -6.04,-0.66 -12.11,-0.22 -18.19,1.16l6.68 -24.42c5.55,-1 11.71,-0.94 18.49,0.2zm52.26 12.3c-1.12,-9.44 -0.56,-22.98 1.69,-40.62 1.27,-10.01 1.59,-17.25 0.95,-21.7 -0.64,-4.46 -2.32,-8.2 -5.01,-11.26 -2.72,-3.08 -6.08,-5.19 -10.15,-6.3 -6.16,-1.68 -11.97,-0.75 -17.38,2.86 -5.41,3.61 -9.38,9.94 -11.86,19 -2.45,8.98 -2.69,17.52 -0.68,25.64 1.98,8.05 5.91,14.69 11.79,19.81 4.58,3.97 11.97,7.32 22.2,10.11l8.45 2.46zm51.47 75.47l-18.08 52.7c-4.43,12.93 -8.81,22.19 -13.16,27.78 -4.33,5.55 -10.13,9.62 -17.45,12.15 -7.38,2.56 -15.05,2.45 -23.12,-0.31 -6.46,-2.22 -11.64,-5.5 -15.5,-9.78 -3.9,-4.34 -6.57,-9.72 -7.93,-16.2 -4.3,5.61 -10.04,9.5 -17.3,11.71 -7.2,2.19 -14.81,1.91 -22.75,-0.81 -12.51,-5.22 -20.43,-13.07 -23.76,-23.47 -3.35,-10.41 -2.3,-23.53 3.12,-39.33l20.84 -60.77 135.09 46.33zm-64.86 3.36l-8.33 24.29c-3.32,9.68 -5.09,16.53 -5.32,20.48 -0.21,4 0.7,7.95 2.85,11.88 2.1,3.92 5.33,6.63 9.68,8.12 7.16,2.45 12.97,1.63 17.5,-2.39 4.54,-4.06 8.88,-12.17 13.04,-24.32l8.58 -25.03 -38 -13.03zm-59.35 -20.36l-10.31 30.07c-4.43,12.93 -5.96,22.34 -4.62,28.18 1.38,5.86 5.69,10.14 13.01,12.94 4.3,1.48 8.81,1.48 13.45,-0.04 4.65,-1.55 8.25,-4.39 10.73,-8.54 2.53,-4.12 5.48,-11.15 8.87,-21.05l9.48 -27.63 -40.61 -13.93zm12.09 114.99c24.06,10.8 38.87,25.49 44.44,44.12 4.62,15.49 3.29,31.33 -3.94,47.44 -8.01,17.87 -20.44,29.88 -37.26,36.01 -16.77,6.11 -35.51,4.52 -56.14,-4.73 -16.74,-7.51 -28.75,-15.91 -36.08,-25.22 -7.33,-9.33 -11.5,-19.99 -12.49,-32 -1.02,-11.97 1.05,-23.65 6.14,-34.99 8.19,-18.25 20.62,-30.36 37.34,-36.39 16.72,-6.01 36.06,-4.07 57.99,5.76zm-10.19 22.58c-16.65,-7.47 -30.75,-9.42 -42.26,-5.84 -11.57,3.6 -19.82,10.92 -24.79,22 -4.92,10.96 -4.87,21.94 0.16,33 5.07,11.02 16.11,20.34 33.14,27.99 16.07,7.2 29.9,8.98 41.43,5.36 11.57,-3.61 19.8,-10.88 24.68,-21.75 4.97,-11.09 4.99,-22.09 0.03,-33.11 -4.98,-10.98 -15.77,-20.19 -32.39,-27.65zm-41.29 239.16l-13.15 20.34 -49.91 -32.26 -36.45 56.39 49.92 32.26 -13.15 20.33 -119.93 -77.52 13.14 -20.33 53.15 34.36 36.45 -56.39 -53.16 -34.36 13.15 -20.34 119.94 77.52zm-240.05 124.65c-0.53,-11.8 0.55,-21.93 3.15,-30.42 2.59,-8.5 6.82,-16.48 12.68,-24.01 9.63,-12.39 20.04,-19.57 31.27,-21.53 11.19,-1.98 21.49,0.68 30.87,7.98 5.5,4.28 9.54,9.45 12.16,15.5 2.59,6.08 3.66,12.19 3.25,18.39 -0.43,6.23 -1.88,12.42 -4.43,18.62 -1.95,4.53 -5.43,10.94 -10.38,19.24 -10.19,16.83 -16.84,29.95 -19.97,39.2 2.55,2.1 4.19,3.43 4.87,3.97 7.76,6.02 14.63,8.46 20.63,7.32 8.11,-1.53 15.9,-7.15 23.39,-16.78 7.01,-9.02 10.6,-16.92 10.77,-23.64 0.2,-6.76 -2.92,-14.24 -9.35,-22.55l17.13 -16.66c6.68,7.93 11,15.75 12.87,23.49 1.89,7.74 1.26,16.31 -1.8,25.79 -3.08,9.4 -8.41,19.02 -15.96,28.73 -7.49,9.63 -14.71,16.61 -21.7,20.88 -6.95,4.23 -13.24,6.49 -18.87,6.64 -5.64,0.15 -11.53,-1.23 -17.68,-4.16 -3.74,-1.92 -9.86,-6.15 -18.3,-12.72l-25.34 -19.7c-17.7,-13.77 -29.19,-22.08 -34.56,-24.97 -5.32,-2.93 -11.09,-4.85 -17.24,-5.91l15.54 -19.99c5.51,1.21 11.18,3.64 17,7.29zm43.53 31.42c2.59,-9.14 8.31,-21.43 17.16,-36.86 5.01,-8.75 8.09,-15.32 9.2,-19.67 1.13,-4.36 1.01,-8.46 -0.3,-12.32 -1.33,-3.88 -3.62,-7.13 -6.96,-9.72 -5.03,-3.91 -10.75,-5.29 -17.14,-4.03 -6.38,1.26 -12.47,5.58 -18.24,13 -5.72,7.35 -9.22,15.14 -10.48,23.41 -1.25,8.19 -0.18,15.83 3.28,22.82 2.7,5.42 8.25,11.35 16.62,17.86l6.86 5.51zm-124.69 129.43l13.14 13.71c-7.29,7.11 -12.03,12.23 -14.21,15.26 -2.17,3.11 -3.26,7.07 -3.18,11.94 0.09,4.87 1.98,9.22 5.69,13.1 4.47,4.66 9.65,6.95 15.46,6.72 5.84,-0.2 11.22,-2.68 16.22,-7.47 9.83,-9.42 11.2,-21.78 4.1,-37.09l19.36 -13.2c13.23,24.15 9.91,45.75 -9.89,64.72 -11,10.54 -22.46,15.8 -34.46,15.8 -12.01,0.01 -21.97,-4.17 -29.94,-12.48 -8.02,-8.38 -10.35,-18.96 -6.97,-31.68 -7.86,2.2 -15.14,2.37 -21.87,0.57 -6.71,-1.83 -12.89,-5.69 -18.54,-11.59 -8.85,-9.23 -12.64,-19.96 -11.44,-32.16 1.24,-12.24 7.88,-24.13 20.01,-35.74 23.51,-22.52 47.11,-25.19 70.78,-7.99l-13.06 19.38c-7.78,-5.12 -15.68,-7.34 -23.7,-6.57 -8.03,0.77 -14.95,3.96 -20.84,9.61 -5.9,5.65 -9.21,11.99 -9.91,19.09 -0.74,7.05 1.37,13.16 6.32,18.33 3.84,4.01 8.39,6.31 13.7,6.94 5.31,0.64 9.7,-0.02 13.18,-1.96 3.51,-1.89 8.89,-6.36 16.18,-13.33 0.6,-0.58 1.89,-1.87 3.87,-3.91zm-163.73 85.18c1.82,-11.67 4.89,-21.39 9.12,-29.2 4.23,-7.81 9.97,-14.8 17.2,-21.01 11.9,-10.23 23.53,-15.2 34.92,-14.89 11.36,0.27 20.92,4.93 28.67,13.94 4.54,5.29 7.48,11.16 8.84,17.61 1.34,6.48 1.17,12.67 -0.46,18.66 -1.66,6.03 -4.31,11.81 -8.04,17.38 -2.81,4.05 -7.49,9.65 -13.99,16.8 -13.33,14.47 -22.45,26.01 -27.35,34.45 2.08,2.56 3.42,4.2 3.98,4.86 6.41,7.44 12.66,11.19 18.77,11.27 8.25,0.11 17,-3.86 26.25,-11.81 8.67,-7.44 13.75,-14.48 15.25,-21.03 1.54,-6.58 -0.03,-14.54 -4.69,-23.96l20.1 -12.92c4.97,9.09 7.65,17.62 7.95,25.57 0.31,7.97 -2,16.24 -6.89,24.92 -4.88,8.61 -12.02,16.98 -21.34,24.99 -9.25,7.95 -17.72,13.36 -25.41,16.16 -7.66,2.77 -14.27,3.73 -19.82,2.77 -5.56,-0.98 -11.05,-3.5 -16.5,-7.59 -3.28,-2.62 -8.44,-7.99 -15.41,-16.1l-20.92 -24.34c-14.62,-17.01 -24.23,-27.43 -28.92,-31.33 -4.64,-3.93 -9.91,-6.96 -15.73,-9.22l19.21 -16.5c5.16,2.27 10.23,5.78 15.21,10.52zm36.42 39.43c4.36,-8.45 12.4,-19.36 24.14,-32.72 6.65,-7.58 10.97,-13.41 12.93,-17.45 1.96,-4.05 2.66,-8.09 2.15,-12.13 -0.54,-4.08 -2.14,-7.71 -4.89,-10.91 -4.16,-4.84 -9.5,-7.32 -16.01,-7.36 -6.5,-0.03 -13.33,2.99 -20.46,9.12 -7.06,6.07 -12.03,13.01 -14.91,20.86 -2.86,7.79 -3.32,15.49 -1.31,23.02 1.57,5.85 5.82,12.77 12.73,20.81l5.63 6.76zm-2.73 93.15l-19.69 14.11 -34.62 -48.31 -54.57 39.11 34.61 48.31 -19.67 14.1 -83.19 -116.08 19.68 -14.1 36.86 51.44 54.58 -39.11 -36.87 -51.44 19.69 -14.11 83.19 116.08zm-223.61 144.92l-71.73 -123.49 20.95 -12.16 27.91 48.06 12.06 -7.01c7.34,-4.26 12.25,-8.38 14.74,-12.42 2.48,-4.04 4.22,-13.18 5.2,-27.48l2.79 -37.57 25.93 -15.07 -3.35 46.29c-1,14.16 -4.58,23.88 -10.69,29.17 12.89,-5.31 24.28,-6.14 34.13,-2.53 9.83,3.62 17.41,9.99 22.68,19.07 6.24,10.75 7.52,21.63 3.82,32.68 -3.68,11.1 -12.74,20.81 -27.09,29.15l-57.35 33.31zm10.86 -29.53l29.74 -17.28c12.46,-7.23 19.38,-13.85 20.72,-19.84 1.35,-5.97 0.5,-11.57 -2.52,-16.77 -4.29,-7.37 -10.11,-11.26 -17.42,-11.63 -7.28,-0.39 -17.69,3.33 -31.17,11.16l-23.12 13.44 23.77 40.92zm-29.43 39.19l-103.25 51.91 -9.02 -17.94 40.8 -20.51 -55.13 -109.65 21.64 -10.88 55.13 109.65 40.81 -20.52 9.02 17.94zm-114.11 56.29l-107.44 42.58 -7.4 -18.66 42.46 -16.83 -45.22 -114.1 22.51 -8.92 45.23 114.09 42.46 -16.83 7.4 18.67zm-231.66 84.91l-46.03 -135.19 22.92 -7.81 17.92 52.62 13.19 -4.5c8.04,-2.73 13.67,-5.81 16.9,-9.28 3.23,-3.47 6.74,-12.08 10.51,-25.92l10.12 -36.29 28.39 -9.66 -12.38 44.72c-3.77,13.68 -9.2,22.51 -16.23,26.5 13.68,-2.67 25.01,-1.25 33.96,4.23 8.93,5.48 15.1,13.22 18.49,23.16 4.01,11.76 3.12,22.68 -2.68,32.79 -5.8,10.16 -16.59,17.9 -32.3,23.25l-62.78 21.38zm16.45 -26.82l32.57 -11.08c13.63,-4.65 21.71,-9.78 24.21,-15.38 2.5,-5.59 2.76,-11.25 0.83,-16.94 -2.75,-8.07 -7.7,-13.04 -14.8,-14.83 -7.06,-1.81 -17.99,-0.21 -32.75,4.81l-25.31 8.62 15.25 44.8zm-261.37 -49.43c7.46,-9.16 15.01,-16 22.6,-20.61 7.59,-4.62 16.07,-7.76 25.45,-9.48 15.43,-2.83 27.98,-1.27 37.66,4.74 9.67,5.97 15.59,14.82 17.73,26.5 1.26,6.86 0.84,13.41 -1.24,19.67 -2.11,6.26 -5.39,11.53 -9.81,15.88 -4.47,4.37 -9.67,8.03 -15.7,10.95 -4.47,2.09 -11.34,4.56 -20.55,7.46 -18.81,5.78 -32.51,11.14 -41,15.96 0.51,3.26 0.84,5.35 1,6.2 1.77,9.66 5.29,16.05 10.52,19.2 7.07,4.25 16.63,5.24 28.63,3.04 11.23,-2.06 19.17,-5.57 23.77,-10.47 4.65,-4.91 7.3,-12.58 8.03,-23.06l23.87 -1.03c-0.29,10.36 -2.28,19.08 -6.02,26.1 -3.75,7.03 -9.93,13.01 -18.52,18.05 -8.55,4.96 -18.94,8.6 -31.02,10.82 -12,2.2 -22.05,2.6 -30.1,1.14 -8.01,-1.47 -14.2,-3.97 -18.51,-7.6 -4.31,-3.64 -7.78,-8.6 -10.43,-14.87 -1.51,-3.93 -3.25,-11.16 -5.18,-21.67l-5.8 -31.58c-4.05,-22.06 -7.1,-35.9 -9.18,-41.63 -2.03,-5.73 -5.05,-11.01 -8.94,-15.89l24.91 -4.57c3.31,4.57 5.92,10.15 7.83,16.75zm11.58 52.42c8.02,-5.1 20.46,-10.47 37.34,-16.09 9.57,-3.2 16.23,-6.05 19.96,-8.55 3.74,-2.51 6.39,-5.65 7.98,-9.4 1.59,-3.79 2.03,-7.73 1.27,-11.88 -1.15,-6.28 -4.51,-11.11 -10.11,-14.42 -5.6,-3.31 -13.02,-4.14 -22.27,-2.44 -9.15,1.68 -16.95,5.16 -23.4,10.49 -6.39,5.29 -10.67,11.7 -12.74,19.22 -1.59,5.84 -1.4,13.96 0.52,24.39l1.45 8.68zm-70.79 80.27l-99.32 7.57 -9.35 -122.65 -15.36 1.17 -4.58 -60.08 19.75 -1.51 3.07 40.34 112.23 -8.55 -3.08 -40.34 19.76 -1.5 4.58 60.08 -12.63 0.96c-15.25,24.39 -20.27,65.9 -15.07,124.51zm-21.56 -18.5c-1.74,-46.37 2.8,-81.11 13.59,-104.25l-76.55 5.83 7.82 102.63 55.14 -4.21zm-123.38 29.43l-55.7 -1.66c-13.66,-0.41 -23.8,-1.85 -30.43,-4.35 -6.58,-2.49 -12.18,-6.83 -16.77,-13.06 -4.62,-6.3 -6.8,-13.65 -6.54,-22.18 0.2,-6.83 1.8,-12.75 4.75,-17.71 2.99,-5 7.34,-9.14 13.12,-12.36 -6.63,-2.45 -12.05,-6.78 -16.3,-13.06 -4.23,-6.23 -6.21,-13.58 -5.96,-21.97 1.27,-13.5 6.43,-23.39 15.38,-29.64 8.95,-6.29 21.79,-9.17 38.49,-8.67l64.22 1.92 -4.26 142.74zm-22.41 -60.95l-25.67 -0.77c-10.23,-0.3 -17.3,0.04 -21.14,0.98 -3.88,0.99 -7.39,3.03 -10.5,6.24 -3.13,3.17 -4.76,7.06 -4.89,11.65 -0.23,7.57 2.27,12.87 7.45,16.01 5.23,3.14 14.26,4.88 27.1,5.26l26.45 0.79 1.2 -40.16zm1.87 -62.71l-31.77 -0.95c-13.66,-0.41 -23.11,0.92 -28.29,3.93 -5.18,3.05 -8,8.43 -8.51,16.26 -0.13,4.54 1.2,8.85 4.02,12.83 2.86,3.98 6.64,6.58 11.34,7.73 4.68,1.19 12.27,1.92 22.73,2.24l29.2 0.87 1.28 -42.91zm-103.17 48.67c-2,26.3 -10.81,45.21 -26.45,56.77 -13.02,9.59 -28.36,13.7 -45.97,12.36 -19.52,-1.49 -35.04,-9.11 -46.51,-22.86 -11.42,-13.71 -16.28,-31.88 -14.57,-54.42 1.4,-18.29 5.23,-32.44 11.52,-42.49 6.29,-10.06 14.91,-17.59 25.87,-22.59 10.91,-5.02 22.61,-7.02 35,-6.08 19.94,1.52 35.55,9.11 46.88,22.8 11.33,13.7 16.06,32.55 14.23,56.51zm-24.69 -1.93c1.38,-18.2 -1.56,-32.13 -8.83,-41.74 -7.31,-9.66 -16.98,-14.95 -29.1,-15.88 -11.97,-0.91 -22.29,2.86 -30.99,11.34 -8.65,8.5 -13.68,22.05 -15.1,40.66 -1.34,17.56 1.68,31.18 8.99,40.79 7.31,9.67 16.94,14.95 28.83,15.86 12.11,0.92 22.47,-2.79 31.16,-11.2 8.64,-8.39 13.65,-21.67 15.04,-39.83zm-145.52 58.13l-23.81 -4.37 11.12 -60.62c-7.58,-1.39 -13.16,-0.93 -16.77,1.44 -3.55,2.34 -9.57,9.95 -18.09,22.89 -6.73,10.23 -11.86,16.84 -15.4,19.83 -3.57,2.98 -7.35,4.76 -11.37,5.28 -4.06,0.51 -10.26,0.03 -18.6,-1.51l-4.78 -0.87 3.6 -19.63 6.61 1.36c6.26,1.15 10.46,0.94 12.55,-0.58 2.2,-1.6 6.11,-6.85 11.67,-15.77 5.3,-8.54 9.75,-14.3 13.42,-17.26 3.62,-2.97 8.86,-5.32 15.66,-7.1 -9.73,-4.63 -18.08,-16 -25.01,-34.15l-18.13 -48.33 26.16 4.8 17.79 48.13c3.58,9.74 7.03,16.34 10.35,19.85 3.36,3.5 7.71,5.75 13.08,6.73l11.92 -64.95 23.81 4.37 -25.78 140.46zm-182.35 -165.55c10.49,-5.43 20.14,-8.7 28.94,-9.9 8.81,-1.21 17.83,-0.71 27.12,1.45 15.28,3.55 26.17,9.99 32.66,19.36 6.48,9.32 8.38,19.8 5.69,31.37 -1.58,6.79 -4.58,12.63 -8.97,17.54 -4.44,4.9 -9.54,8.43 -15.33,10.66 -5.84,2.22 -12.07,3.51 -18.77,3.79 -4.92,0.13 -12.21,-0.34 -21.82,-1.36 -19.55,-2.19 -34.25,-2.73 -43.95,-1.69 -0.84,3.19 -1.37,5.24 -1.56,6.08 -2.23,9.57 -1.55,16.83 1.99,21.8 4.8,6.72 13.17,11.44 25.05,14.2 11.12,2.59 19.8,2.53 25.97,-0.13 6.23,-2.65 11.71,-8.63 16.56,-17.95l22.31 8.57c-4.4,9.39 -9.7,16.59 -15.93,21.53 -6.25,4.96 -14.29,7.99 -24.18,9.18 -9.82,1.14 -20.79,0.34 -32.76,-2.44 -11.89,-2.76 -21.26,-6.4 -28.07,-10.95 -6.75,-4.54 -11.44,-9.3 -13.94,-14.35 -2.5,-5.06 -3.71,-10.98 -3.63,-17.79 0.17,-4.2 1.45,-11.53 3.87,-21.94l7.27 -31.27c5.08,-21.85 7.8,-35.76 8.18,-41.85 0.42,-6.06 -0.25,-12.11 -1.87,-18.13l24.66 5.73c1.22,5.51 1.39,11.67 0.51,18.49zm-10.27 52.69c9.39,-1.48 22.94,-1.44 40.65,0.13 10.06,0.87 17.31,0.92 21.72,0.11 4.43,-0.81 8.11,-2.64 11.06,-5.44 2.97,-2.84 4.95,-6.28 5.91,-10.39 1.44,-6.22 0.29,-11.99 -3.53,-17.26 -3.82,-5.26 -10.29,-8.98 -19.45,-11.11 -9.07,-2.11 -17.61,-2.02 -25.64,0.3 -7.97,2.3 -14.45,6.48 -19.34,12.55 -3.79,4.72 -6.85,12.24 -9.25,22.57l-2.13 8.54zm-60.77 57.77l-109.32 -37.49 6.51 -18.99 43.2 14.81 39.82 -116.09 22.91 7.86 -39.82 116.09 43.21 14.82 -6.51 18.99zm-176.83 -162.23l-20.76 -11.84c8.47,-14.15 19.32,-23.5 32.66,-28.09 13.34,-4.6 27.27,-3.98 41.71,1.79 18.09,7.23 30.3,18.98 36.55,35.21 6.3,16.24 5.02,35.38 -3.79,57.45 -5.72,14.31 -13.09,25.83 -22.11,34.67 -8.99,8.8 -19.41,13.98 -31.24,15.42 -11.81,1.51 -23.4,-0.01 -34.82,-4.57 -14.35,-5.74 -24.7,-14.07 -30.91,-25 -6.25,-10.94 -7.99,-23.64 -5.2,-38.03l23.05 5.36c-1.47,9.73 -0.48,17.88 3.05,24.52 3.48,6.59 8.97,11.4 16.46,14.39 11.33,4.53 22.15,4.16 32.5,-1.09 10.31,-5.31 18.96,-16.68 25.97,-34.23 7.11,-17.8 8.86,-32.06 5.26,-42.83 -3.64,-10.79 -10.93,-18.39 -21.87,-22.76 -8.86,-3.54 -17.3,-3.81 -25.34,-0.75 -8.06,3.01 -15.13,9.81 -21.17,20.38zm-74.47 65.12l-21.6 -10.95 25.25 -49.82 -27.32 -13.85c-17.83,-9.04 -29.79,-19.42 -35.94,-31.23 -6.11,-11.78 -6.1,-23.77 0.06,-35.91 5.39,-10.64 13.99,-17.69 25.9,-21.17 11.84,-3.5 26.6,-0.75 44.27,8.21l53.95 27.35 -64.57 127.37zm34.01 -120.65l-22.73 -11.53c-13.71,-6.95 -24.34,-10.23 -31.89,-9.84 -7.55,0.39 -13.15,4.13 -16.76,11.25 -2.8,5.53 -3.12,11.53 -0.98,18.06 2.16,6.5 10.63,13.52 25.48,21.05l25.6 12.98 21.28 -41.97zm-165 53.5l-20.33 -13.15 33.46 -51.76c-6.48,-4.18 -11.82,-5.89 -16.05,-5.08 -4.18,0.8 -12.65,5.54 -25.47,14.23 -10.13,6.89 -17.4,11.04 -21.81,12.45 -4.44,1.38 -8.61,1.58 -12.52,0.53 -3.95,-1.08 -9.49,-3.9 -16.62,-8.51l-4.08 -2.63 10.83 -16.76 5.59 3.78c5.35,3.46 9.3,4.87 11.82,4.26 2.65,-0.64 8.26,-4 16.8,-10.11 8.17,-5.87 14.48,-9.49 19.01,-10.81 4.48,-1.37 10.22,-1.54 17.19,-0.59 -7.23,-7.99 -10.6,-21.69 -10.06,-41.11l1.72 -51.59 22.34 14.44 -1.96 51.27c-0.42,10.37 0.24,17.79 1.97,22.3 1.77,4.52 4.93,8.26 9.51,11.22l35.85 -55.46 20.34 13.14 -77.53 119.94z"/>
   <path class="fil1 str4" d="M1108.29 3475.06c-15.31,21.47 -32.62,33.12 -51.98,34.92 -16.1,1.48 -31.37,-2.93 -45.75,-13.18 -15.94,-11.36 -25.29,-25.91 -28,-43.6 -2.69,-17.64 2.54,-35.71 15.66,-54.12 10.65,-14.94 21.25,-25.07 31.82,-30.43 10.59,-5.36 21.85,-7.35 33.82,-5.96 11.94,1.34 22.99,5.67 33.11,12.89 16.28,11.61 25.72,26.17 28.35,43.75 2.61,17.58 -3.08,36.16 -17.03,55.73zm-20.14 -14.42c10.59,-14.86 15.27,-28.31 14.02,-40.29 -1.26,-12.05 -6.81,-21.58 -16.71,-28.63 -9.78,-6.97 -20.55,-9.08 -32.39,-6.32 -11.79,2.81 -23.1,11.8 -33.94,27 -10.22,14.34 -14.68,27.56 -13.39,39.57 1.27,12.05 6.77,21.56 16.48,28.47 9.89,7.06 20.68,9.23 32.46,6.53 11.74,-2.72 22.9,-11.5 33.47,-26.33zm-154.42 -24.27l-18.28 -15.87 39.14 -45.09 -22.23 -19.3c-14.98,13.96 -29.99,21.52 -45.02,22.68 -15.07,1.13 -28.99,-3.84 -41.76,-14.93 -10.88,-9.44 -17.57,-19.07 -20.03,-28.92 -2.48,-9.87 -2.44,-20.4 0.18,-31.68 2.59,-11.23 9.53,-23.36 20.83,-36.38 16.11,-18.56 32.57,-29 49.35,-31.25 16.78,-2.26 32.4,2.91 46.88,15.48 13.43,11.66 20.32,25.48 20.73,41.45 0.35,15.97 -5.69,32.17 -18.18,48.59l22.23 19.3 41.49 -47.8 18.28 15.87 -93.61 107.85zm-75.63 -88.97c8.94,7.76 18.88,10.37 29.81,7.84 10.91,-2.48 21.74,-9.92 32.47,-22.28 12.83,-14.79 19.72,-27.76 20.68,-39.01 0.96,-11.25 -2.78,-20.51 -11.17,-27.79 -8.34,-7.24 -17.92,-9.98 -28.79,-8.24 -10.83,1.78 -22.43,9.74 -34.73,23.91 -11.99,13.82 -18.69,26.23 -20.06,37.11 -1.41,10.94 2.51,20.41 11.79,28.46zm-160.01 -139.56l-61.62 -78.27 96.64 -76.09 -9.53 -12.1 47.35 -37.28 12.25 15.56 -31.78 25.03 69.63 88.43 31.78 -25.03 12.25 15.57 -47.34 37.27 -7.84 -9.94c-28.75,0.92 -66.01,19.87 -111.79,56.85zm3.35 -28.21c37.54,-27.28 68.92,-42.87 94.15,-46.8l-47.49 -60.32 -80.87 63.67 34.21 43.45zm-108.87 -64.03l-22.37 16.03 -14.11 -19.68 22.37 -16.03 14.11 19.68zm137.77 -98.73l-116.08 83.19 -14.11 -19.69 116.08 -83.19 14.11 19.69zm-210.48 -58.09l120.43 -76.76 13.02 20.43 -46.87 29.87 7.49 11.76c4.56,7.16 8.89,11.89 13.02,14.21 4.14,2.31 13.34,3.68 27.67,4.07l37.66 1.24 16.12 25.29 -46.39 -1.44c-14.18,-0.42 -24.05,-3.6 -29.59,-9.48 5.84,12.65 7.14,24 3.94,33.99 -3.21,9.98 -9.26,17.81 -18.12,23.45 -10.48,6.68 -21.3,8.41 -32.49,5.16 -11.25,-3.22 -21.33,-11.87 -30.25,-25.86l-35.64 -55.93zm29.95 9.63l18.49 29.01c7.74,12.14 14.64,18.79 20.67,19.88 6.03,1.11 11.59,0.02 16.66,-3.21 7.19,-4.59 10.84,-10.56 10.9,-17.89 0.09,-7.28 -4.06,-17.53 -12.44,-30.68l-14.37 -22.55 -39.91 25.44zm-56.09 -53.85l-50.56 -100.56 127.47 -64.08 10.88 21.64 -109.53 55.06 28.8 57.28 63.47 -31.91c14.79,-7.43 24.8,-11.85 30.02,-13.29 5.21,-1.38 10.63,-0.83 16.31,1.71 5.7,2.57 10.6,7.91 14.7,16.07 2.54,5.03 5.13,11.02 7.81,17.88l-17.98 9.05 -4.76 -9.47c-2.25,-4.47 -4.31,-7.43 -6.22,-8.89 -1.87,-1.47 -3.98,-1.99 -6.32,-1.64 -2.32,0.39 -9,3.34 -20.02,8.88l-84.07 42.27zm-67.25 -133.45l-8.92 -22.51 51.92 -20.59 -11.28 -28.47c-7.37,-18.59 -9.45,-34.29 -6.23,-47.21 3.23,-12.87 11.17,-21.84 23.83,-26.86 11.08,-4.39 22.2,-3.97 33.43,1.31 11.19,5.22 20.42,17.06 27.72,35.48l22.29 56.23 -132.76 52.62zm105.42 -67.84l-9.39 -23.69c-5.67,-14.29 -11.45,-23.79 -17.37,-28.5 -5.91,-4.71 -12.58,-5.62 -20,-2.68 -5.76,2.29 -9.98,6.57 -12.71,12.88 -2.68,6.3 -0.99,17.18 5.14,32.64l10.58 26.69 43.75 -17.34zm-156.29 -62l-7.81 -22.93 56.26 -19.15 -21.64 -63.56 -56.26 19.15 -7.8 -22.91 135.19 -46.03 7.8 22.91 -59.91 20.4 21.64 63.56 59.91 -20.4 7.81 22.93 -135.19 46.03zm-72.27 -141.86l-26.82 6.18 -5.44 -23.6 26.81 -6.18 5.45 23.6zm165.16 -38.11l-139.16 32.11 -5.44 -23.6 139.15 -32.11 5.45 23.6zm-81.38 -130.29l-1.03 -23.87c16.48,-0.37 30.17,3.83 41.17,12.68 10.99,8.84 17.88,20.95 20.69,36.25 3.52,19.17 0.08,35.75 -10.33,49.69 -10.39,13.99 -27.27,23.1 -50.64,27.39 -15.16,2.78 -28.83,2.68 -41.12,-0.24 -12.24,-2.93 -22.17,-8.99 -29.69,-18.23 -7.57,-9.2 -12.45,-19.82 -14.67,-31.91 -2.8,-15.2 -1.25,-28.4 4.68,-39.47 5.94,-11.12 15.76,-19.36 29.43,-24.66l7.73 22.36c-9.02,3.94 -15.39,9.12 -19.13,15.64 -3.71,6.46 -4.86,13.66 -3.4,21.6 2.2,12 8.28,20.96 18.23,26.92 9.99,5.91 24.21,7.17 42.8,3.76 18.85,-3.47 31.85,-9.58 39.05,-18.37 7.2,-8.82 9.74,-19.04 7.62,-30.63 -1.72,-9.38 -5.99,-16.67 -12.87,-21.84 -6.83,-5.22 -16.36,-7.58 -28.52,-7.07zm-94.74 -11.82l-14.04 -114.72 19.93 -2.44 5.55 45.33 121.82 -14.9 2.94 24.04 -121.82 14.91 5.55 45.34 -19.93 2.44zm-17.39 -139.66l-0.72 -24.2 59.68 -1.78 -0.87 -29.43c-20.42,-1.55 -36.15,-7.45 -47.19,-17.73 -11.05,-10.31 -16.83,-23.91 -17.33,-40.82 -0.43,-14.39 2.12,-25.84 7.69,-34.32 5.58,-8.51 13.35,-15.63 23.41,-21.34 10.02,-5.71 23.64,-8.83 40.87,-9.35 24.57,-0.73 43.4,4.3 56.43,15.11 13.04,10.8 19.82,25.8 20.39,44.96 0.53,17.78 -4.96,32.21 -16.43,43.34 -11.5,11.08 -27.5,17.62 -48.04,19.56l0.88 29.43 63.26 -1.89 0.72 24.2 -142.75 4.26zm14.16 -115.9c0.35,11.82 5.17,20.9 14.44,27.23 9.22,6.33 22.03,9.25 38.39,8.77 19.57,-0.59 33.77,-4.31 42.7,-11.23 8.92,-6.92 13.19,-15.95 12.86,-27.05 -0.33,-11.04 -4.81,-19.95 -13.45,-26.76 -8.65,-6.76 -22.37,-9.89 -41.12,-9.33 -18.29,0.55 -31.95,4.04 -40.89,10.41 -8.99,6.37 -13.3,15.67 -12.93,27.96zm33.62 -175.98c-23.07,-2.83 -41.45,-7.47 -54.98,-13.93 -13.57,-6.52 -23.59,-14.91 -30.04,-25.21 -6.46,-10.26 -8.8,-22.52 -7.06,-36.72 1.28,-10.47 4.5,-19.41 9.71,-26.86 5.2,-7.4 12.1,-13.21 20.69,-17.33 8.54,-4.14 18.73,-6.95 30.51,-8.47 11.79,-1.56 27.4,-1.13 46.75,1.24 22.95,2.8 41.23,7.45 54.77,13.86 13.58,6.43 23.6,14.81 30.09,25.12 6.51,10.27 8.89,22.58 7.14,36.87 -2.3,18.8 -10.8,32.77 -25.55,41.88 -17.96,10.88 -45.29,14.04 -82.03,9.55zm3.1 -24.57c32.19,3.94 54.04,2.82 65.52,-3.4 11.53,-6.21 17.94,-14.85 19.29,-25.87 1.35,-11.01 -2.84,-20.96 -12.53,-29.76 -9.73,-8.81 -30.62,-15.16 -62.72,-19.09 -32.18,-3.93 -54.03,-2.82 -65.51,3.4 -11.52,6.17 -17.95,14.9 -19.33,26.14 -1.34,11.02 2.26,20.42 10.79,28.17 10.88,9.69 32.4,16.48 64.49,20.41zm15.52 -126.34c-22.65,-5.26 -40.42,-11.84 -53.19,-19.7 -12.8,-7.93 -21.86,-17.33 -27.19,-28.26 -5.33,-10.89 -6.35,-23.33 -3.11,-37.27 2.39,-10.27 6.54,-18.81 12.51,-25.67 5.96,-6.81 13.44,-11.84 22.42,-15.03 8.94,-3.2 19.36,-4.92 31.24,-5.18 11.89,-0.29 27.37,1.8 46.35,6.21 22.52,5.23 40.2,11.8 52.99,19.61 12.81,7.84 21.88,17.23 27.24,28.18 5.39,10.9 6.43,23.4 3.17,37.42 -4.28,18.45 -14.22,31.44 -29.85,38.92 -19.02,8.91 -46.53,9.15 -82.58,0.77zm5.69 -24.1c31.59,7.34 53.43,8.56 65.51,3.6 12.13,-4.96 19.43,-12.86 21.94,-23.67 2.51,-10.81 -0.6,-21.15 -9.29,-30.93 -8.74,-9.8 -28.84,-18.33 -60.34,-25.65 -31.58,-7.34 -53.42,-8.56 -65.5,-3.6 -12.11,4.91 -19.43,12.91 -22,23.94 -2.51,10.81 0.07,20.54 7.73,29.15 9.78,10.8 30.46,19.84 61.95,27.16zm-36.47 -259.54l9.62 -24.07 177.69 -33.25 -141.77 -56.65 9.19 -22.99 182.95 73.1 -9.62 24.1 -177.15 33.73 141.14 56.39 -9.09 22.74 -182.96 -73.1zm146.11 -119.71c-14.77,-5.91 -24.88,-14.74 -30.35,-26.51 -5.45,-11.8 -5.47,-24.5 -0.03,-38.13 5.43,-13.58 14.27,-22.6 26.53,-27.08 12.23,-4.54 25.99,-3.74 41.28,2.37 15.46,6.17 26.02,15.23 31.67,27.17 5.68,12 5.78,24.83 0.3,38.54 -4.71,11.8 -12.93,20.51 -24.61,26.12 -11.67,5.61 -26.6,4.78 -44.79,-2.48zm9.37 -21.45c11.2,4.48 20.55,5.65 28,3.44 7.5,-2.2 12.54,-6.55 15.16,-13.1 2.44,-6.1 1.88,-12.6 -1.73,-19.52 -3.6,-6.92 -10.98,-12.58 -22.13,-17.04 -11.72,-4.68 -21.16,-5.64 -28.35,-2.83 -7.19,2.8 -11.94,7.13 -14.27,12.96 -2.52,6.31 -1.96,12.81 1.67,19.54 3.59,6.72 10.83,12.23 21.65,16.55zm56.65 44.86l33.89 -84.84 18.4 7.35 -33.9 84.84 -18.39 -7.35zm41.56 -210.94c-19.53,-12.62 -34.03,-24.82 -43.38,-36.55 -9.36,-11.79 -14.7,-23.71 -16.01,-35.79 -1.33,-12.06 1.92,-24.1 9.68,-36.12 5.73,-8.86 12.53,-15.49 20.47,-19.92 7.91,-4.39 16.66,-6.59 26.19,-6.56 9.49,0.02 19.88,1.94 31.15,5.72 11.28,3.74 25.14,10.95 41.51,21.53 19.41,12.55 33.83,24.71 43.21,36.4 9.41,11.71 14.76,23.62 16.09,35.74 1.38,12.08 -1.87,24.19 -9.68,36.28 -10.28,15.91 -24.03,24.76 -41.27,26.51 -20.92,1.94 -46.88,-7.15 -77.96,-27.24zm13.51 -20.74c27.24,17.6 47.38,26.14 60.42,25.56 13.09,-0.56 22.64,-5.52 28.66,-14.84 6.03,-9.33 6.6,-20.1 1.73,-32.25 -4.9,-12.18 -20.92,-27.01 -48.09,-44.57 -27.22,-17.6 -47.36,-26.14 -60.41,-25.56 -13.06,0.52 -22.66,5.56 -28.8,15.07 -6.03,9.32 -6.89,19.36 -2.6,30.05 5.55,13.47 21.94,28.99 49.09,46.54zm69.47 -104.3c-18.36,-14.27 -31.74,-27.69 -40.03,-40.18 -8.3,-12.56 -12.59,-24.9 -12.84,-37.06 -0.28,-12.12 4.01,-23.84 12.8,-35.13 6.47,-8.33 13.82,-14.35 22.12,-18.06 8.26,-3.69 17.17,-5.12 26.66,-4.26 9.45,0.85 19.64,3.66 30.53,8.41 10.91,4.71 24.09,13.1 39.48,25.06 18.25,14.2 31.55,27.57 39.88,40.02 8.35,12.49 12.64,24.83 12.92,37.01 0.31,12.16 -3.97,23.94 -12.81,35.3 -11.63,14.95 -26.1,22.58 -43.42,22.82 -21.01,0.11 -46.08,-11.2 -75.29,-33.93zm15.27 -19.49c25.6,19.91 44.92,30.18 57.96,30.73 13.09,0.59 23.03,-3.53 29.84,-12.29 6.82,-8.76 8.32,-19.45 4.53,-31.97 -3.82,-12.56 -18.49,-28.74 -44.02,-48.59 -25.59,-19.9 -44.91,-30.16 -57.96,-30.72 -13.05,-0.63 -23.05,3.57 -30,12.5 -6.82,8.77 -8.55,18.69 -5.21,29.71 4.36,13.9 19.34,30.79 44.86,50.63zm78.3 -99.83c-16.79,-16.08 -28.73,-30.81 -35.7,-44.09 -6.97,-13.34 -9.96,-26.05 -8.97,-38.17 0.97,-12.09 6.43,-23.3 16.33,-33.64 7.3,-7.62 15.23,-12.85 23.86,-15.69 8.6,-2.82 17.61,-3.34 26.95,-1.5 9.32,1.81 19.17,5.65 29.51,11.49 10.38,5.81 22.63,15.5 36.7,28.98 16.7,15.99 28.56,30.65 35.57,43.9 7.03,13.28 10.03,25.98 9.06,38.14 -0.93,12.12 -6.4,23.4 -16.36,33.8 -13.1,13.68 -28.27,19.78 -45.54,18.24 -20.9,-2.04 -44.68,-15.87 -71.41,-41.46zm17.19 -17.83c23.42,22.43 41.59,34.62 54.51,36.51 12.95,1.93 23.26,-1.15 30.94,-9.16 7.68,-8.02 10.27,-18.49 7.79,-31.34 -2.52,-12.89 -15.46,-30.48 -38.81,-52.85 -23.42,-22.42 -41.59,-34.61 -54.51,-36.5 -12.92,-1.96 -23.3,1.18 -31.12,9.36 -7.68,8.02 -10.43,17.71 -8.23,29.02 2.9,14.28 16.08,32.6 39.43,54.96zm86.27 -92.41c-15.15,-17.63 -25.6,-33.44 -31.25,-47.34 -5.64,-13.95 -7.4,-26.9 -5.23,-38.86 2.14,-11.94 8.66,-22.57 19.51,-31.9 8.01,-6.87 16.4,-11.31 25.28,-13.31 8.83,-1.97 17.84,-1.6 26.96,1.13 9.1,2.7 18.53,7.48 28.26,14.29 9.76,6.79 21.01,17.62 33.72,32.41 15.07,17.53 25.45,33.28 31.14,47.14 5.71,13.89 7.47,26.83 5.32,38.83 -2.1,11.98 -8.64,22.67 -19.56,32.06 -14.37,12.35 -30.06,16.95 -47.09,13.74 -20.61,-4.06 -42.94,-20.12 -67.06,-48.19zm18.84 -16.07c21.14,24.59 38.03,38.48 50.71,41.62 12.71,3.17 23.27,1.11 31.69,-6.12 8.41,-7.24 12.01,-17.41 10.78,-30.44 -1.25,-13.07 -12.42,-31.83 -33.5,-56.36 -21.13,-24.59 -38.03,-38.48 -50.7,-41.61 -12.68,-3.21 -23.31,-1.08 -31.89,6.29 -8.42,7.24 -12.1,16.62 -11.01,28.09 1.51,14.49 12.84,34.01 33.92,58.53zm91.95 -78.61c-14.38,-18.27 -24.14,-34.51 -29.19,-48.64 -5.03,-14.18 -6.23,-27.19 -3.55,-39.05 2.65,-11.84 9.63,-22.18 20.87,-31.03 8.29,-6.53 16.87,-10.6 25.82,-12.21 8.91,-1.59 17.9,-0.84 26.9,2.28 8.97,3.09 18.18,8.27 27.61,15.5 9.46,7.2 20.24,18.51 32.29,33.82 14.31,18.17 24,34.34 29.09,48.44 5.11,14.13 6.31,27.13 3.65,39.03 -2.62,11.87 -9.61,22.27 -20.93,31.18 -14.88,11.72 -30.75,15.64 -47.63,11.71 -20.41,-4.94 -42.03,-21.96 -64.93,-51.03zm19.51 -15.25c20.07,25.48 36.35,40.09 48.88,43.76 12.56,3.72 23.2,2.11 31.92,-4.75 8.72,-6.87 12.75,-16.88 12.09,-29.95 -0.69,-13.11 -11.05,-32.34 -31.05,-57.75 -20.06,-25.47 -36.34,-40.07 -48.87,-43.75 -12.52,-3.75 -23.24,-2.08 -32.13,4.92 -8.73,6.87 -12.8,16.08 -12.2,27.59 0.88,14.54 11.36,34.53 31.36,59.93zm101.27 -75.77c-12.49,-19.6 -20.59,-36.74 -24.21,-51.29 -3.6,-14.62 -3.5,-27.68 0.35,-39.21 3.81,-11.52 11.78,-21.11 23.84,-28.8 8.9,-5.67 17.84,-8.87 26.91,-9.59 9.02,-0.69 17.89,0.95 26.54,4.95 8.62,3.96 17.27,10.04 25.93,18.16 8.7,8.11 18.3,20.43 28.78,36.87 12.42,19.49 20.46,36.55 24.12,51.08 3.68,14.57 3.58,27.63 -0.25,39.2 -3.78,11.56 -11.77,21.21 -23.91,28.95 -15.98,10.18 -32.16,12.51 -48.57,6.92 -19.82,-6.95 -39.64,-26.03 -59.53,-57.24zm20.93 -13.23c17.43,27.35 32.18,43.5 44.28,48.41 12.13,4.94 22.88,4.4 32.24,-1.56 9.36,-5.97 14.37,-15.53 15,-28.6 0.62,-13.11 -7.77,-33.27 -25.15,-60.55 -17.43,-27.34 -32.18,-43.49 -44.28,-48.39 -12.09,-4.97 -22.92,-4.38 -32.47,1.7 -9.36,5.97 -14.32,14.73 -14.87,26.24 -0.57,14.56 7.87,35.49 25.25,62.75z"/>
  </g>
  <path class="fil1 str2" d="M2790.91 485.6c-0.47,-7.88 -2.06,-15.76 -4.82,-23.58 -3.89,-11.23 -5.83,-18.99 -5.83,-23.22 0,-6 1.42,-10.53 4.18,-13.65 2.82,-3.11 6.29,-4.64 10.46,-4.64 3.53,0 6.65,1.53 9.29,4.64 2.65,3.12 3.94,7.53 3.94,13.29 0,5.18 -1.53,12.35 -4.52,21.58 -3.06,9.29 -4.94,17.82 -5.65,25.58 6.35,-4 12,-8.88 17.05,-14.64 7.82,-9.06 13.64,-14.7 17.41,-16.88 3.82,-2.17 7.64,-3.23 11.58,-3.23 3.76,0 6.94,1.29 9.52,3.88 2.59,2.53 3.88,5.64 3.88,9.17 0,4.29 -1.88,8.06 -5.7,11.41 -3.76,3.29 -13.23,6.64 -28.4,9.99 -8.82,1.94 -16.17,4.18 -22.05,6.7 6,3.12 13.29,5.47 21.88,7.06 13.87,2.53 22.98,5.7 27.28,9.47 4.35,3.82 6.46,7.93 6.46,12.4 0,3.47 -1.29,6.41 -3.88,8.94 -2.58,2.53 -5.58,3.82 -8.99,3.82 -3.47,0 -7.29,-1.23 -11.47,-3.64 -4.17,-2.42 -9.87,-7.82 -16.99,-16.17 -4.7,-5.65 -10.52,-10.94 -17.58,-15.88 0.24,6.59 1.59,13.7 4,21.4 4.12,13.53 6.17,22.76 6.17,27.7 0,4.58 -1.35,8.46 -4.11,11.64 -2.77,3.17 -5.71,4.76 -8.76,4.76 -4.29,0 -8.12,-1.71 -11.59,-5 -2.41,-2.41 -3.58,-6.29 -3.58,-11.58 0,-5.47 1.29,-12.11 3.94,-19.87 2.64,-7.76 4.29,-13.11 4.99,-16 0.71,-2.94 1.36,-7.29 1.89,-13.05 -6.77,4.53 -12.7,9.47 -17.7,14.99 -8.41,9.41 -14.7,15.41 -18.99,17.94 -3,1.82 -6.06,2.76 -9.29,2.76 -3.88,0 -7.23,-1.35 -10,-4 -2.76,-2.64 -4.11,-5.52 -4.11,-8.76 0,-2.88 1.17,-5.88 3.53,-9.05 2.35,-3.18 5.88,-5.76 10.58,-7.82 3.11,-1.41 10.17,-3.24 21.16,-5.53 7.12,-1.47 14.12,-3.64 20.88,-6.53 -6.24,-3.11 -13.64,-5.52 -22.23,-7.23 -14.11,-3 -22.87,-5.7 -26.16,-8.11 -5.18,-3.76 -7.76,-8.41 -7.76,-13.76 0,-3.11 1.29,-5.94 3.88,-8.52 2.59,-2.59 5.58,-3.88 9.05,-3.88 3.77,0 7.76,1.17 12.06,3.58 4.23,2.41 9.52,7.29 15.81,14.58 6.35,7.29 12.76,12.94 19.29,16.94z"/>
  <path class="fil2" d="M2050 1015.16c558.35,0 1010.98,458.43 1010.98,1023.93 0,565.5 -452.63,1023.93 -1010.98,1023.93 -558.35,0 -1010.98,-458.43 -1010.98,-1023.93 0,-565.5 452.63,-1023.93 1010.98,-1023.93z"/>
  <g id="_988190448">
   <path class="fil1 str5" d="M904.66 2166.87l-1.26 -10.5c-1.16,-9.72 -3.97,-15.34 -8.37,-16.88 -4.39,-1.52 -22.06,-0.46 -53.05,3.26l-84.49 10.13c-5.26,0.63 -22.1,3.33 -50.57,8.06 0.3,9.24 1.83,25.57 4.64,49.01 4.1,34.11 7.24,56.82 9.41,68.21 15.27,-1.04 30.57,-2.46 45.85,-4.29l92.69 -11.11c7.35,-0.88 15.99,-2.18 25.91,-3.9l16.83 -2.75c5.82,-0.81 9.22,-3.11 10.15,-6.86 1,-3.76 1.19,-7.85 0.68,-12.16l-1.24 -10.34 9.77 -1.17c0.83,12.23 2.05,25.06 3.66,38.47 1.53,12.79 3.88,29.7 7.03,50.72l-9.76 1.17 -1.14 -9.46c-1.33,-11.12 -4.21,-17.31 -8.61,-18.48 -4.4,-1.15 -21,-0.01 -49.74,3.44l-92.47 11.09c-25.75,3.08 -40.57,5.76 -44.51,8.02 -3.93,2.27 -5.29,8.29 -4.12,18.01l1.35 11.27 -9.77 1.17c-7.13,-64.83 -11.91,-107.34 -14.34,-127.56 -1.54,-12.89 -6.37,-50.44 -14.45,-112.58l9.76 -1.17 1.41 11.7c1.33,11.17 4.37,16.92 9.1,17.3 4.69,0.33 21.13,-1.16 49.29,-4.54l85.12 -10.2c30.11,-3.61 47.2,-6.4 51.34,-8.32 4.14,-1.92 5.6,-8.01 4.38,-18.13l-1.4 -11.7 9.77 -1.17c0.86,12.55 2.31,27.24 4.34,44.14 2.1,17.57 4.29,33.17 6.58,46.93l-9.77 1.17zm-114.83 -181.3l-17.66 -22.8c-4.5,-5.75 -7.21,-10.58 -8.14,-14.43 -1.51,-6.14 -1.98,-13.21 -1.38,-21.25 1.37,-18.11 8.1,-32.31 20.3,-42.68 12.19,-10.32 27.28,-14.8 45.17,-13.45 8.96,0.67 17.73,2.6 26.25,5.81 8.52,3.21 15.41,6.83 20.61,10.89 5.27,4.07 9.55,8.54 12.95,13.42 1.11,1.61 4.7,8.12 10.8,19.5l4.02 6.45c4.91,8.14 7.97,14.67 9.36,19.49 1.33,4.89 1.77,10.33 1.32,16.43 -0.37,4.81 -1.44,9.77 -3.21,14.99 -1.81,5.16 -4.24,10.55 -7.31,16.14l21.74 1.64c22.27,1.67 38.01,2.55 47.25,2.61 4.02,-0.01 7.02,-1.05 8.98,-3.15 1.97,-2.12 3.23,-6.8 3.77,-14.06l0.62 -8.24 8.87 0.66c-2.1,19.32 -3.48,33.5 -4.16,42.48 -0.74,9.92 -1.38,22.63 -1.91,38.03l-8.86 -0.67 0.84 -11.17c0.59,-7.88 -0.75,-12.66 -4.08,-14.32 -3.26,-1.67 -21.31,-3.76 -54.13,-6.23l-94.77 -7.14c-16.47,-1.24 -29.21,-1.78 -38.18,-1.67 -4.37,0.1 -7.29,0.87 -8.84,2.38 -1.48,1.47 -2.45,5.12 -2.89,10.92l-0.9 11.95 -9.49 -0.71c-0.51,-14.38 -2.52,-28.65 -5.97,-42.72l-3.15 -9.68c0.13,-1.62 1.67,-2.34 4.57,-2.13l16.48 1.72 11.13 0.99zm84.94 6.39c7.94,-5.96 13.71,-12.03 17.26,-18.33 3.6,-6.24 5.66,-13.12 6.22,-20.64 1.21,-16.08 -3.99,-28.8 -15.64,-38.29 -11.6,-9.44 -25.84,-14.82 -42.72,-16.09 -11.35,-0.85 -21.2,0.35 -29.57,3.66 -8.42,3.31 -15.19,8.57 -20.34,15.74 -5.17,7.18 -8.04,15.05 -8.69,23.71 -0.46,6.11 0.31,12.15 2.34,18.18 2.05,6.04 5.09,11.42 9.15,16.08 4.04,4.71 7.9,7.79 11.5,9.32 2.73,1.09 10.02,2.11 22.01,3.01l48.48 3.65zm-160.24 -221.77c0.8,-4.59 3.17,-8.32 7.13,-11.03 3.98,-2.77 8.32,-3.72 13.07,-2.89 4.8,0.83 8.52,3.18 11.28,7.12 2.77,3.87 3.74,8.18 2.94,12.78 -0.82,4.74 -3.2,8.53 -7.12,11.24 -3.91,2.78 -8.21,3.74 -13.01,2.91 -4.74,-0.83 -8.52,-3.19 -11.32,-7.13 -2.82,-3.89 -3.79,-8.25 -2.97,-13zm69.31 -0.09l2.92 -3.21c7.55,1.95 15.87,3.82 25.02,5.62 29.6,5.77 51.51,9.9 65.68,12.36 13.24,2.3 24.64,3.8 34.18,4.55 3.72,0.22 6.45,-0.31 8.12,-1.57 1.65,-1.25 3.39,-4.72 5.11,-10.32l3.14 -10.03 8.76 1.52c-3.18,14.64 -5.83,28.05 -7.94,40.18 -2.07,11.91 -3.85,24.03 -5.33,36.26l-8.76 -1.52 0.91 -13.28c0.47,-5.18 0.07,-8.44 -1.23,-9.89 -1.28,-1.38 -6.1,-2.96 -14.39,-4.72 -12.89,-2.77 -30.73,-6.14 -53.46,-10.09 -15.84,-2.75 -28.1,-4.6 -36.79,-5.58 -3.15,-0.34 -5.56,0.15 -7.17,1.47 -1.59,1.37 -2.88,4.76 -3.83,10.23l-1.98 11.39 -8.75 -1.52c0.3,-12.59 0.21,-21.96 -0.35,-28 -0.49,-6.09 -1.81,-14.03 -3.86,-23.85zm150.23 -31.87l-13.54 0.94 -1.16 -3.46c16.36,-13.35 27.03,-27.78 32.06,-43.27 3.69,-11.35 3.51,-20.71 -0.47,-28.21 -3.96,-7.51 -10.95,-12.86 -21.02,-16.13 -10.73,-3.48 -19.65,-2.52 -26.88,2.78 -7.23,5.31 -13.3,15.61 -18.27,30.95l-2.19 6.72 -9.06 -2.94 1.57 -4.83c8.25,-25.44 3.33,-41.13 -14.83,-47.03 -7.56,-2.45 -14.34,-1.79 -20.38,1.92 -6.06,3.77 -10.57,10.28 -13.59,19.59 -6.57,20.27 0.81,34.55 22.1,43l-2.43 7.47 -4.73 -1.53c-15.7,-5.1 -25.13,-7.94 -28.32,-8.54 -3.38,-15.13 -2.3,-31.18 3.21,-48.15 5.2,-15.99 12.17,-27.54 20.84,-34.58 8.69,-7.04 17.75,-9.05 27.21,-5.98 8.15,2.64 14.04,8.68 17.69,18.18 3.65,9.49 4.8,21.21 3.41,35.23 11.12,-34.26 28.16,-47.66 51.05,-40.23 13,4.21 22.11,12.95 27.38,26.22 5.26,13.31 4.96,28.96 -0.88,46.94 -6.03,18.62 -15.63,33.62 -28.77,44.94zm-72 -184.88l-8.1 -3.67c3.27,-5.69 5.88,-10.67 7.77,-14.86l23.46 -54.1c7.21,-15.92 15.03,-27.28 23.37,-34.01 8.38,-6.72 17,-8.05 25.92,-4.01 15.52,7.03 19.93,25.52 13.15,55.49 16.88,-32.29 35.18,-43.95 54.9,-35.03 13.29,6.03 20.74,17.28 22.33,33.81 1.63,16.54 -1.7,33.89 -9.94,52.1 -1.44,3.19 -3.9,8.35 -7.4,15.56 -3.23,6.64 -6.47,13.5 -9.72,20.7 -3.01,6.64 -5.63,13.2 -7.89,19.71l-6.36 -2.88 0.64 -6.66c0.32,-4.68 -0.9,-8.16 -3.7,-10.46 -2.76,-2.23 -18.66,-9.96 -47.73,-23.12 -33.84,-15.33 -52.8,-23.34 -56.92,-24.12 -4.14,-0.72 -7.9,2.58 -11.26,9.97l-2.52 5.58zm21.59 -43.96c6.58,4.07 16.53,9.16 29.85,15.19l15.56 7.05c2.31,-4.6 3.94,-7.94 4.86,-9.99 5.49,-12.11 7.61,-22.58 6.44,-31.39 -1.16,-8.87 -5.82,-15.11 -13.91,-18.78 -15.09,-6.83 -27.44,0.28 -36.99,21.36 -1.22,2.71 -3.14,8.23 -5.81,16.56zm114.5 52.83c2.27,-3.46 4.11,-6.76 5.49,-9.81 5.98,-13.21 8.23,-25.24 6.73,-36.15 -1.48,-10.95 -7.28,-18.69 -17.35,-23.26 -7.09,-3.21 -13.36,-4.26 -18.8,-3.11 -5.52,1.13 -11.23,5.15 -17.26,12.07 -6.02,6.87 -10.86,14.34 -14.51,22.39 -0.32,0.72 -1.86,4.5 -4.58,11.27l34.27 15.52c15.49,7.01 24.15,10.7 26.01,11.08zm45.96 -341.75l7.31 5.07 -6.21 8.95c-5.26,7.56 -5.75,13.09 -1.45,16.65 4.28,3.48 19.48,14.34 45.6,32.48l30.35 20.69c10.23,6.97 16.13,10.81 17.66,11.49 1.53,0.68 3.48,0.63 5.78,-0.18 2.32,-0.82 4.98,-3.37 7.94,-7.63l6.21 -8.94 7.3 5.07c-9.83,13.05 -18.18,24.53 -24.99,34.34 -5.97,8.59 -12.48,18.54 -19.61,29.91l-7.31 -5.07 6.3 -9.08c3.85,-5.54 5.21,-9.71 4,-12.52 -1.2,-2.81 -7.69,-8.32 -19.46,-16.5l-56.08 -38.93c-8.56,-5.95 -14.68,-11.15 -18.37,-15.56 2.56,6.23 4.94,12.28 7,18.11 3.03,8.16 5.75,15.28 8.25,21.34l24.09 58.28c9.96,24.07 15.95,40.96 17.92,50.82 -1.5,2.9 -4.8,9.98 -9.92,21.34 -18.35,-14.02 -36.22,-27.06 -53.65,-39.16 -35.25,-24.48 -54.86,-37.52 -58.82,-39.06 -3.96,-1.53 -8.29,1.08 -12.97,7.83l-6.33 9.11 -7.3 -5.07c8.25,-10.77 15.32,-20.4 21.23,-28.91 6.32,-9.11 14.19,-21 23.55,-35.59l7.31 5.07 -6.24 8.99c-1.77,2.53 -3.06,5.33 -3.91,8.31 -0.8,3.01 -0.49,5.34 0.98,7.05 1.44,1.71 8.16,6.69 20.02,14.93l54.82 38.05c5.44,3.78 10.05,7.42 13.8,10.92 -0.7,-5.01 -6.26,-20.28 -16.67,-45.86l-15.45 -38.13c-2.87,-7.1 -10.64,-25.23 -23.28,-54.53 5.47,-6.78 9.77,-12.41 12.84,-16.84 1.76,-2.53 7.68,-11.61 17.76,-27.24zm164.27 18.25c4.71,-3.32 11.62,-9.35 20.75,-18.07l8.17 -7.82c9.42,-9 15.75,-15.64 18.98,-19.91l-43.36 -46.04c-24.87,-26 -38.7,-39.86 -41.5,-41.5 -2.8,-1.72 -7.19,0.29 -13.09,5.93l-7.88 7.53 -6.14 -6.43c10.12,-8.81 18.94,-16.79 26.49,-24.02 7.92,-7.56 17.91,-17.57 30.04,-30.03l6.15 6.42 -7.99 7.64c-6.43,6.15 -8.42,10.97 -6.02,14.46 2.4,3.49 15.23,17.36 38.45,41.65l44.48 45.61c5.1,-3.69 11.97,-9.68 20.68,-18.01l8.55 -8.17c8.96,-8.58 15.15,-15.07 18.46,-19.41l-40.47 -43.22c-24.95,-26.09 -39.14,-40.49 -42.71,-43.3 -3.49,-2.82 -8.32,-1.27 -14.44,4.59l-8.09 7.74 -6.15 -6.42c10.19,-8.88 19,-16.86 26.5,-24.03 7.94,-7.6 17.98,-17.63 30.04,-30.03l6.14 6.42 -7.77 7.42c-6.72,6.44 -8.35,11.79 -4.85,16.14 3.46,4.3 16.59,18.33 39.26,42.04l19.94 20.4c12.3,12.69 19.1,19.44 20.55,20.26 1.38,0.79 3.4,0.69 6.09,-0.27 2.67,-1.01 5.41,-2.84 8.13,-5.44l11.59 -11.07c3.52,9.52 14.07,24.04 31.64,43.54l-7.72 7.38 -4.93 -5.16c-6.15,-6.43 -13.52,-13.29 -22.1,-20.68 -9.26,1.46 -24.89,12.68 -46.95,33.77l-114.31 109.31c-7.53,7.2 -15.94,15.68 -25.18,25.39l-6.14 -6.42 8.02 -7.67c5.75,-5.5 7.69,-9.98 5.88,-13.53 -1.87,-3.56 -14.4,-17.5 -37.66,-41.82 -25.2,-26.35 -39.58,-40.64 -43.12,-42.89 -3.58,-2.22 -8.32,-0.53 -14.19,5.08l-8.02 7.67 -6.15 -6.43c10.23,-8.91 19.09,-16.93 26.58,-24.1 8.02,-7.66 18.09,-17.74 30.18,-30.17l6.14 6.43 -7.86 7.52c-3.64,3.47 -5.7,6.4 -6.19,8.83 -0.53,2.42 -0.33,4.35 0.53,5.79 0.91,1.48 6.5,7.71 16.84,18.75 10.35,11.05 18.1,19.23 23.18,24.54l42.55 43.81zm173.97 -228.56c11.47,16.85 24.15,27.07 38.15,30.63 13.94,3.56 27.62,1.04 41,-7.58 6,-3.86 11.32,-8.73 15.92,-14.53 4.66,-5.83 8.61,-12.66 11.82,-20.44l3.46 0.54 2.91 13.6c-4.44,8.78 -9.79,16.62 -15.96,23.56 -6.22,6.97 -13.33,13.06 -21.3,18.19 -17.47,11.25 -35.13,14.68 -53.02,10.41 -17.88,-4.29 -33,-15.96 -45.31,-35.09 -9.4,-14.6 -14.54,-29.16 -15.39,-43.72 -0.59,-9.62 2.54,-20.82 9.32,-33.69 6.74,-12.83 15.21,-22.51 25.25,-28.97 15.19,-9.78 30.17,-13 44.88,-9.7 14.73,3.36 27.32,13.13 37.8,29.41l4.69 7.87c-4.79,5.04 -9.59,9.38 -14.45,13.15 -8.77,6.59 -21.31,15.16 -37.6,25.64l-32.17 20.72zm-5.92 -9.78c13.68,-8.05 28.54,-17.25 44.66,-27.63 6.43,-4.14 12.48,-8.47 18.1,-12.97l-4.68 -7.29c-4.94,-7.66 -11.11,-13.95 -18.56,-18.84 -4.64,-3.05 -10.2,-4.45 -16.74,-4.26 -6.56,0.26 -12.94,2.34 -19.14,6.34 -9.64,6.2 -15.05,14.73 -16.21,25.61 -1.19,10.82 3.03,23.84 12.57,39.04zm235.48 -41.11l9.09 -3.19c8.94,-3.14 13.56,-7.23 13.79,-12.25 0.26,-4.97 -6.22,-26.25 -19.43,-63.84l-17.38 -49.48c-13.66,-38.89 -22,-60.09 -24.93,-63.54 -2.94,-3.45 -8.23,-3.84 -15.93,-1.13l-11.7 4.11 -3.26 -9.29c16.2,-5.02 32.17,-10.29 47.82,-15.79 13.04,-4.58 24.74,-9.03 35.16,-13.35l3.26 9.28 -11.16 3.92c-6.88,2.41 -10.87,4.77 -12.07,7.05 -1.15,2.25 -0.67,6.79 1.38,13.59 3.18,10.61 9.44,29.21 18.8,55.87l17.7 50.38c13.29,37.84 21.45,58.37 24.43,61.63 2.97,3.28 8.94,3.37 17.83,0.25l9.59 -3.37 3.27 9.28c-12.07,3.57 -25.12,7.82 -39.15,12.75 -16.3,5.72 -30.92,11.19 -43.84,16.4l-3.27 -9.28zm287.49 -216.31l1.63 8.74 -10.71 2c-9.06,1.69 -13.29,5.27 -12.76,10.72 0.56,5.49 3.88,24.41 9.92,56.77l5.16 26.81c3.43,17.82 5.51,27.56 6.29,29.13 0.78,1.59 2.53,2.7 5.32,3.37 2.78,0.61 6.02,0.6 9.72,-0.09l10.72 -2 1.63 8.74c-16.13,2.37 -30.14,4.65 -42.02,6.87 -10.3,1.93 -21.92,4.42 -34.87,7.48l-1.64 -8.74 10.65 -1.99c6.8,-1.27 10.71,-3.45 11.77,-6.61 1.06,-3.16 -0.41,-15.59 -4.48,-37.38l-12.96 -69.39 -15.51 59.2c-6.13,23.11 -11.45,46.82 -15.91,71.13l-9.88 1.84c-5.82,-10.06 -12.6,-20.69 -20.29,-31.86l-13.52 -20.02 -40.71 -62.33 13.3 71.27 4.45 23.01c1.56,7.79 2.68,12.37 3.35,13.64 0.62,1.34 2.15,2.41 4.51,3.36 2.36,0.9 5.78,0.97 10.3,0.12l10.71 -2 1.63 8.74c-0.31,0.06 -3.16,0.49 -8.48,1.37 -12.25,1.75 -20.78,3.13 -25.6,4.03 -3.71,0.69 -13.22,2.79 -28.61,6.3l-1.62 -8.74 10.8 -2.01c7.66,-1.43 11.75,-4.13 12.13,-8.08 0.37,-4 -2.5,-22.52 -8.68,-55.6 -6.69,-35.84 -10.92,-55.67 -12.65,-59.49 -1.78,-3.82 -6.58,-5.01 -14.45,-3.54l-10.81 2.01 -1.63 -8.74 8.18 -1.26c10.58,-1.48 16.13,-2.31 16.49,-2.38 0.1,-0.01 4.24,-0.95 12.4,-2.85 8.26,-2.03 12.37,-3.06 12.48,-3.08 0.31,-0.06 1.87,-0.24 4.74,-0.56 13.09,21.35 25.13,40.15 36.06,56.51l31.92 47.71 15.23 -60.76c5.87,-23.6 9.39,-38.68 10.67,-45.22l3.33 -16.39c6.87,-0.64 12.94,-1.45 18.2,-2.43 4.06,-0.76 15.42,-3.21 34.1,-7.33zm62.95 14.12l-9.72 -68.92c-0.65,-4.21 -1.06,-7.52 -1.25,-10 -0.36,-4.53 0.37,-8.09 2.17,-10.68 1.8,-2.57 4.1,-3.97 6.92,-4.19 2.92,-0.23 5.46,0.75 7.58,2.97 2.12,2.23 3.33,5.75 3.7,10.49 0.18,2.37 0.33,5.65 0.44,9.9l0.81 69.61c0.03,4.46 -1.63,6.82 -4.97,7.07 -3.13,0.24 -5.03,-1.84 -5.68,-6.25zm100 126.59c-6.89,-0.84 -12.52,-1.34 -16.97,-1.48 -2.78,-0.08 -9.49,0.03 -20.13,0.33l0.28 -8.89c5.28,0.07 11.47,-3.45 18.55,-10.59 19.41,-19.41 37.66,-36.74 54.68,-51.93 -19.76,-1.62 -33.52,-5.39 -41.19,-11.24 -7.73,-5.9 -11.38,-14.43 -11.04,-25.69 0.35,-11.12 4.92,-20.24 13.68,-27.27 8.76,-7.08 21.28,-10.36 37.6,-9.85 7.79,0.24 17.26,0.86 28.5,1.79 12.1,1.06 20.99,1.66 26.64,1.83 3.67,0.12 15.44,0.16 35.41,0.15l-0.27 8.89 -10.89 -0.34c-5.03,-0.16 -8.56,0.43 -10.64,1.78 -2.08,1.32 -3.33,2.81 -3.75,4.44 -0.41,1.63 -0.93,9.61 -1.53,23.83 -0.59,14.28 -1.02,26.07 -1.31,35.38l-0.73 28.51c-0.43,17.67 -0.47,27.31 -0.05,28.85 0.42,1.6 1.9,2.97 4.47,4.11 2.6,1.19 5.77,1.82 9.54,1.94l10.88 0.34 -0.27 8.88c-0.32,-0.01 -3.19,-0.2 -8.58,-0.47 -13.01,-0.94 -21.53,-1.41 -25.62,-1.54l-41.79 -0.35 0.28 -8.88 8.74 0.27c7.11,0.22 11.61,-1.44 13.4,-4.93 1.79,-3.49 3.05,-17.16 3.79,-41.02l0.56 -17.66 -3.99 -0.13c-16.69,14.62 -39.43,38.27 -68.25,70.94zm72.56 -81.24l0.52 -16.76c0.48,-15.6 0.54,-27.72 0.23,-36.37 -9.33,-1.71 -17.25,-2.71 -23.74,-2.91 -9.15,-0.28 -17.08,1.8 -23.76,6.31 -6.69,4.45 -10.22,11.92 -10.54,22.38 -0.58,18.67 11.84,28.43 37.22,29.22 7.74,0.24 14.41,-0.4 20.07,-1.87zm303.79 139.09l10.01 3.39c9.27,3.13 15.56,3.02 18.84,-0.28 3.27,-3.31 9.92,-19.71 19.93,-49.28l27.27 -80.6c1.69,-5.01 6.51,-21.37 14.52,-49.11 -8.47,-3.71 -23.87,-9.36 -46.23,-16.93 -32.54,-11.01 -54.38,-17.96 -65.6,-20.91 -5.64,14.23 -10.95,28.64 -15.89,43.22l-29.92 88.42c-2.37,7.02 -4.92,15.37 -7.65,25.06l-4.77 16.38c-1.78,5.6 -1.17,9.66 1.81,12.12 2.97,2.51 6.57,4.46 10.68,5.85l9.87 3.34 -3.16 9.32c-11.4,-4.52 -23.5,-8.96 -36.29,-13.28 -12.2,-4.13 -28.47,-9.3 -48.8,-15.51l3.15 -9.32 9.03 3.05c10.61,3.59 17.44,3.66 20.39,0.19 2.93,-3.47 9.06,-18.94 18.33,-46.36l29.86 -88.22c8.31,-24.56 12.27,-39.09 11.93,-43.62 -0.35,-4.53 -5.2,-8.34 -14.47,-11.48l-10.75 -3.64 3.16 -9.32c61.57,21.5 101.99,35.51 121.28,42.04 12.3,4.16 48.26,15.99 107.82,35.48l-3.16 9.32 -11.16 -3.77c-10.65,-3.61 -17.15,-3.35 -19.54,0.75 -2.31,4.08 -8.06,19.57 -17.15,46.44l-27.48 81.2c-9.71,28.72 -14.56,45.35 -14.62,49.91 -0.05,4.56 4.82,8.5 14.48,11.77l11.16 3.78 -3.15 9.32c-11.7,-4.63 -25.59,-9.66 -41.7,-15.12 -16.77,-5.67 -31.79,-10.41 -45.18,-14.28l3.15 -9.32zm148.57 -9.16c7.2,-12.33 16.49,-21.8 27.97,-28.46 11.47,-6.65 23.97,-9.77 37.42,-9.45 13.5,0.35 26.73,4.28 39.7,11.86 18.81,10.99 30.57,25.4 35.3,43.25 4.74,17.84 1.63,36.12 -9.34,54.9 -12.92,22.11 -30.57,35.41 -52.91,39.82 -19.99,4 -39.19,0.64 -57.53,-10.09 -17.63,-10.3 -28.51,-24.68 -32.56,-43.17 -4.06,-18.49 -0.09,-38.05 11.95,-58.66zm30.48 5.13c-10.76,18.41 -16.19,36.32 -16.36,53.74 -0.18,17.43 6.72,30.22 20.78,38.43 10.66,6.23 21.69,7.17 33.08,2.85 11.35,-4.39 21.91,-14.9 31.69,-31.62 7.83,-13.43 12.73,-26.26 14.61,-38.4 1.86,-12.1 0.97,-22.3 -2.8,-30.5 -3.68,-8.22 -9.51,-14.64 -17.33,-19.21 -7.01,-4.09 -14.34,-5.98 -22.03,-5.68 -7.67,0.28 -14.6,2.67 -20.76,7.1 -8.34,5.98 -15.33,13.78 -20.88,23.29zm420.99 137.17l6.28 6.16c-10.02,9 -21.06,12.4 -33.13,10.12 -12.07,-2.29 -22.35,-7.65 -30.88,-16.01 -3.2,-3.16 -7.54,-8.08 -13,-14.78 -4.3,-5.26 -8.33,-9.74 -12.14,-13.48 -7.63,-7.49 -17.09,-11.15 -28.25,-10.92 -11.16,0.24 -23.1,5.36 -35.75,15.34 -12.66,9.96 -20.22,16.18 -22.7,18.71 -2.27,2.31 -5.09,5.62 -8.49,9.98 30.69,-13.02 57.58,-8.19 80.63,14.44 12.99,12.76 20.42,28.37 22.34,46.87 1.89,18.48 -5.6,36.34 -22.46,53.51 -17.21,17.52 -36.61,26.06 -58.23,25.59 -21.66,-0.43 -40.27,-8.31 -55.88,-23.65 -15.16,-14.89 -22.22,-31.99 -21.1,-51.28 1.12,-19.3 14.78,-42.31 40.95,-68.96 11.46,-11.67 24.89,-23.77 40.28,-36.24 15.44,-12.51 27.96,-20.32 37.51,-23.54 9.58,-3.19 19.3,-3.59 29.09,-1.17 9.77,2.4 18.87,7.77 27.35,16.1 5.3,5.2 10.42,11.2 15.39,17.95 6.51,8.69 11.71,14.9 15.56,18.68 7.95,7.81 16.82,9.99 26.63,6.58zm-110.83 21.98c-9.22,-9.06 -19.76,-12.96 -31.72,-11.87 -11.9,1.15 -24.41,8.36 -37.5,21.69 -13.51,13.74 -22.53,29.13 -27.16,46.17 -4.58,17 -1.11,31.18 10.51,42.58 8.81,8.66 19.32,12.23 31.49,10.74 12.12,-1.5 24.86,-9.02 38.14,-22.54 15.31,-15.59 24.59,-31.24 27.89,-46.92 3.29,-15.68 -0.59,-28.99 -11.65,-39.85zm74.75 122.8l8.36 -6.23 8.43 -6.65 17.79 7.47c7.99,3.37 14.39,6.84 19.13,10.33 4.77,3.53 9.11,7.8 13.03,12.91 8.6,11.21 12.99,22.16 13.2,32.95 0.18,10.75 -3.19,19.86 -9.99,27.25 -5.15,5.46 -19.33,17.33 -42.48,35.48 -21.92,17.07 -33.68,26.86 -35.38,29.43 -1.7,2.55 -1.27,5.46 1.21,8.7l7.23 9.44 -8.06 6.18c-6.61,-9.66 -11.29,-16.29 -14.09,-19.94 -3.5,-4.57 -8.41,-10.45 -14.77,-17.71l11.01 -8.25c3.48,-2.67 7.03,-5.44 10.58,-8.3l-38.79 -10.31c-3.44,-0.93 -6.38,-2.23 -8.73,-3.92 -2.38,-1.61 -5.07,-4.42 -8.03,-8.29 -8.03,-10.47 -11.57,-20.48 -10.6,-30 0.97,-9.52 5.88,-17.64 14.65,-24.37 8.28,-6.34 17.04,-9.96 26.28,-10.78 9.2,-0.78 18.07,1.31 26.59,6.33 8.52,4.95 25.32,18.85 50.36,41.68 10.24,-8.12 16.27,-16.36 18.08,-24.69 2.23,-10.48 -0.56,-20.81 -8.39,-31.03 -3,-3.91 -6.26,-7.21 -9.84,-9.87 -3.57,-2.67 -7.47,-4.7 -11.66,-6.17 -7.66,2.18 -14.95,4.33 -21.82,6.5l-3.3 -8.14zm29.62 79c-22.21,-18.79 -37.82,-29.59 -46.79,-32.33 -8.97,-2.82 -17.96,-0.74 -27,6.19 -6.09,4.66 -9.62,10.14 -10.6,16.43 -0.98,6.3 0.66,12.16 4.9,17.69 4.67,6.11 10.86,10.6 18.57,13.53 7.68,2.89 16.87,4.28 27.58,4.05l27.11 -21.17 6.23 -4.39zm71.23 67.02l-5.29 -9.27c4.7,-2.44 8.52,-4.51 11.5,-6.21 3.49,-2 12.14,-7.54 25.92,-16.61 9.73,18.31 15.94,29.84 18.62,34.52l32.77 57.37c3.74,6.55 10.51,17.75 20.27,33.58 -14.81,7.26 -23.98,11.89 -27.47,13.88 -2.99,1.71 -6.71,3.95 -11.19,6.76l-5.3 -9.28c15.08,-9.87 22.64,-16.37 22.71,-19.42 0.12,-3.02 -5.83,-15.05 -17.83,-36.06 -5.85,2.68 -11.34,5.45 -16.4,8.34l-11.85 6.77 -23.43 12.85 -31.48 17.98c-11.76,6.72 -18.5,10.81 -20.18,12.25 -1.68,1.43 -2.62,3.42 -2.75,5.96 -0.14,2.62 1.02,6.05 3.46,10.33l5.43 9.5 -7.72 4.41c-7.6,-14.59 -14.37,-27.07 -20.34,-37.52 -5.19,-9.09 -11.39,-19.3 -18.62,-30.67l7.73 -4.41 5.5 9.64c3.38,5.91 6.63,8.94 9.76,9.07 3.15,0.2 10.64,-3.12 22.49,-9.89l33.78 -19.3c23.67,-13.51 40.41,-23.68 50.26,-30.44l-3.9 -6.83c-9.48,-16.58 -15.57,-25.65 -18.24,-27.01 -2.69,-1.42 -12.11,1.84 -28.21,9.71zm-10.76 197.82l6.5 -2.55c5.52,5.54 9.84,8.29 12.92,8.15 3.12,-0.16 20.3,-6.34 51.63,-18.63 33.95,-13.32 52.57,-21.19 56,-23.6 3.41,-2.47 3.69,-7.41 0.76,-14.87l-4.02 -10.23 8.28 -3.25c4.36,12.85 8.42,24.08 12.21,33.73 4.06,10.33 9.56,23.47 16.48,39.37l-8.28 3.24 -4 -10.18c-3.28,-8.34 -7.44,-11.87 -12.47,-10.63 -5.02,1.24 -17.06,5.63 -36.02,13.07l-5.92 2.32c4.11,9.87 6.91,16.75 8.44,20.65 7.71,19.64 10.67,36.02 8.93,49.24 -1.79,13.25 -8.68,22.2 -20.71,26.92 -13.69,5.37 -26.87,2.78 -39.58,-7.75 -12.73,-10.54 -22.91,-25.61 -30.57,-45.15l-12.58 -32.06 -2.86 -6.14c-2.35,-4.98 -4.05,-8.87 -5.14,-11.65zm84.91 9.53l-33 12.95c-9.02,3.54 -18.05,7.31 -27.21,11.36 0.91,3.8 1.98,7.21 3.16,10.23 12.09,30.8 28.62,42.09 49.66,33.83 10.19,-4 16.24,-10.76 18.16,-20.23 1.88,-9.52 0.39,-20.57 -4.56,-33.19l-6.21 -14.95zm57.37 171.39l-19.45 4.25c-25.32,5.55 -39.47,9.51 -42.32,11.79 -2.91,2.3 -3.41,7.66 -1.56,16.1l1.96 8.95 -8.69 1.91c-0.05,-0.22 -0.54,-2.94 -1.52,-8.2 -2.65,-14.27 -4.51,-23.77 -5.53,-28.47 -0.23,-1.03 -3.46,-14.25 -9.68,-39.74l8.69 -1.9 1.9 8.69c1.9,8.69 5.01,13.05 9.36,13.07 4.34,0.06 18.3,-2.51 41.82,-7.66l45.02 -9.86c15.97,-3.5 25.34,-6.25 28.14,-8.31 2.77,-1.99 3.36,-6.63 1.78,-13.89l-2.38 -10.84 8.68 -1.9c2.23,13.07 4.46,24.79 6.75,35.23 3.42,15.65 6.8,29.59 10.12,41.78l-8.69 1.9 -2.47 -11.29c-0.71,-3.28 -1.91,-6.24 -3.59,-8.76 -1.65,-2.54 -3.65,-3.81 -5.95,-3.68 -2.31,0.07 -11.67,1.91 -28.06,5.5l-15.87 3.47 -0.69 2.03c12.54,10.98 29.1,23.27 49.61,36.79l25.14 17.11 6.57 29.97 -8.69 1.9 -1.28 -5.36c-0.87,-3.99 -5.17,-9.74 -12.96,-17.36 -7.83,-7.56 -23.76,-20.73 -47.96,-39.45 -11.11,18.78 -28.3,43.45 -51.62,74.01 -8.01,10.17 -11.37,18.57 -10.02,25.24l-8.68 1.9c-0.13,-0.62 -0.47,-2.63 -1.05,-6.04 -1.1,-7.26 -1.83,-11.55 -2.14,-12.99 -0.51,-2.35 -2.14,-8.26 -4.85,-17.69 28.48,-34.47 48.65,-63.28 60.54,-86.42l-0.38 -1.78zm23.75 145.3c14.24,-1.07 27.31,1.2 39.3,6.86 11.99,5.66 21.65,14.18 29.03,25.43 7.38,11.31 11.66,24.43 12.79,39.42 1.63,21.71 -3.56,39.58 -15.56,53.61 -12,14.03 -28.81,21.86 -50.49,23.49 -25.54,1.92 -46.5,-5.05 -62.83,-20.94 -14.64,-14.18 -22.77,-31.89 -24.36,-53.08 -1.54,-20.36 4.12,-37.49 17.04,-51.32 12.92,-13.84 31.28,-21.68 55.08,-23.47zm13.08 28c-21.26,1.6 -39.09,7.29 -53.52,17.05 -14.46,9.75 -21.07,22.69 -19.84,38.93 0.93,12.31 6.42,21.93 16.44,28.84 10.06,6.86 24.71,9.58 44.03,8.13 15.5,-1.17 28.85,-4.42 39.9,-9.77 11.01,-5.34 18.9,-11.87 23.51,-19.63 4.68,-7.69 6.65,-16.14 5.97,-25.17 -0.6,-8.09 -3.21,-15.2 -7.83,-21.36 -4.59,-6.16 -10.49,-10.5 -17.64,-13.06 -9.65,-3.47 -20.04,-4.79 -31.02,-3.96z"/>
   <path class="fil1 str5" d="M3330.29 2083.89l8.86 0.67c-1.11,6.47 -1.86,12.04 -2.2,16.63l-3.47 58.86c-1.32,17.43 -4.76,30.78 -10.28,39.97 -5.58,9.18 -13.22,13.39 -22.98,12.65 -16.99,-1.28 -27.47,-17.14 -31.39,-47.61 -4.78,36.12 -17.96,53.35 -39.55,51.73 -14.56,-1.1 -25.42,-9.11 -32.57,-24.09 -7.2,-14.98 -10.03,-32.42 -8.54,-52.36 0.27,-3.49 0.8,-9.17 1.61,-17.15 0.76,-7.34 1.45,-14.9 2.04,-22.78 0.55,-7.26 0.76,-14.33 0.64,-21.22l6.97 0.53 1.68 6.47c1.31,4.51 3.64,7.36 7.06,8.56 3.36,1.15 20.95,2.95 52.77,5.34 37.05,2.79 57.61,3.81 61.74,3.13 4.15,-0.74 6.54,-5.13 7.15,-13.22l0.46 -6.11zm-5.19 48.7c-7.58,-1.57 -18.68,-2.93 -33.25,-4.03l-17.04 -1.28c-0.6,5.1 -0.97,8.81 -1.14,11.05 -1,13.26 0.59,23.82 4.72,31.69 4.12,7.93 10.64,12.2 19.51,12.87 16.51,1.24 25.67,-9.67 27.4,-32.75 0.23,-2.97 0.13,-8.81 -0.2,-17.55zm-125.68 -10.35c-0.95,4.03 -1.54,7.76 -1.79,11.1 -1.09,14.46 0.92,26.53 6.07,36.26 5.15,9.78 13.25,15.07 24.28,15.9 7.76,0.58 14,-0.58 18.72,-3.53 4.8,-2.95 8.79,-8.68 12.08,-17.25 3.29,-8.53 5.28,-17.2 5.95,-26.02 0.06,-0.78 0.19,-4.86 0.42,-12.15l-37.5 -2.82c-16.95,-1.28 -26.36,-1.78 -28.23,-1.49zm181.63 206.64c-1.05,4.54 -3.62,8.14 -7.71,10.63 -4.12,2.54 -8.51,3.25 -13.21,2.17 -4.75,-1.09 -8.34,-3.64 -10.87,-7.72 -2.56,-4.02 -3.29,-8.38 -2.24,-12.92 1.08,-4.7 3.65,-8.35 7.71,-10.85 4.06,-2.55 8.41,-3.28 13.15,-2.18 4.7,1.08 8.34,3.64 10.93,7.73 2.6,4.03 3.32,8.44 2.24,13.14zm-69.2 -3.69l-3.1 3.05c-7.43,-2.36 -15.63,-4.68 -24.67,-6.98 -29.25,-7.37 -50.89,-12.68 -64.91,-15.91 -13.1,-3.02 -24.39,-5.14 -33.88,-6.41 -3.7,-0.42 -6.46,-0.04 -8.19,1.13 -1.72,1.15 -3.65,4.53 -5.68,10.02l-3.67 9.84 -8.67 -1.99c3.98,-14.45 7.35,-27.69 10.12,-39.68 2.72,-11.78 5.15,-23.79 7.3,-35.93l8.66 2 -1.64 13.22c-0.74,5.14 -0.51,8.41 0.7,9.93 1.2,1.46 5.93,3.3 14.11,5.51 12.72,3.46 30.35,7.8 52.83,12.98 15.67,3.6 27.8,6.13 36.43,7.57 3.14,0.51 5.56,0.16 7.24,-1.07 1.66,-1.28 3.14,-4.6 4.38,-10.01l2.6 -11.27 8.66 2c-0.99,12.55 -1.41,21.92 -1.17,27.98 0.15,6.11 1.03,14.11 2.55,24.02z"/>
  </g>
  <path class="fil2 str6" d="M2050 605c798.04,0 1445,646.95 1445,1445 0,798.05 -646.96,1445 -1445,1445 -798.04,0 -1445,-646.95 -1445,-1445 0,-798.05 646.96,-1445 1445,-1445z"/>
  <path class="fil1 str7" d="M1423.6 3128.19l-83.82 0 -9.9 25.68c-6.48,16.87 -9.75,27.2 -9.75,30.99 0,2.43 0.6,4.16 1.83,5.24 1.19,1.03 4.26,1.9 9.21,2.55l13.9 1.73 0 10.05c-9.25,-0.65 -19.69,-0.97 -31.32,-0.97 -13.91,0 -26.18,0.32 -36.72,0.97l0 -10.05 4.36 -0.17c6.78,-0.21 11.13,-0.97 13.16,-2.27 1.98,-1.35 4.06,-4.59 6.28,-9.73 6.88,-15.25 13.91,-31.64 21.09,-49.26l39.92 -98.64c10.65,-26.17 17.92,-45.15 21.78,-56.99l9.79 0 73.44 186.34c4.95,12.65 8.22,20.28 9.85,22.87 1.68,2.6 3.57,4.44 5.69,5.57 2.13,1.09 6.88,1.84 14.35,2.28l0 10.05c-12.57,-0.65 -24.54,-0.97 -35.97,-0.97 -10.65,0 -24.79,0.32 -42.51,0.97l0 -10.05 14.35 -0.98c5.15,-0.38 8.22,-0.97 9.16,-1.73 1.43,-1.13 2.18,-2.65 2.18,-4.43 0,-1.9 -1.44,-6.87 -4.36,-14.87l-15.99 -44.18zm-78.37 -12.98l72.93 0 -36.42 -94.9 -36.51 94.9zm190.86 100.09c-5.69,15.52 -10.35,30.39 -14.01,44.61l-10.98 0c3.61,-15.41 6.18,-30.55 7.77,-45.36l1.73 -15.52c17.02,-17.63 28.9,-37.26 35.62,-58.95 6.74,-21.68 10.1,-58.56 10.1,-110.58 0,-16.01 -0.55,-26.71 -1.59,-32.12 -1.08,-5.35 -6.87,-8.06 -17.31,-8.06l-10.5 0 0 -10.05c23.86,1.29 54.14,1.94 90.95,1.94l88.49 -1.78 11.18 -0.16 0 10.05 -10.98 0c-10.69,0 -16.53,2.38 -17.37,7.14 -0.9,4.76 -1.34,21.68 -1.34,50.83l0 89.44c0,29.04 0.4,45.97 1.24,50.78 0.84,4.81 6.62,7.19 17.37,7.19l17.32 0c-4.06,22.01 -6.14,43.75 -6.24,65.21l-10.98 0c-0.3,-14.11 -1.39,-28.98 -3.32,-44.61 -6.44,-4.22 -13.66,-7.24 -21.72,-9.08 -8.07,-1.84 -29.84,-2.76 -65.27,-2.76 -31.37,0 -51.91,0.76 -61.61,2.22 -9.75,1.46 -19.25,4.7 -28.55,9.62zm132.71 -220.52c-8.76,-0.81 -22.56,-1.24 -41.47,-1.24 -17.12,0 -33.2,0.43 -48.24,1.24 0,61.11 -2.13,103.88 -6.43,128.32 -4.31,24.45 -13.81,46.18 -28.46,65.33 42.5,0.92 70.82,1.4 84.96,1.4 16.14,0 29.35,-0.48 39.64,-1.4 1.14,-25.47 1.74,-42.61 1.74,-51.48l0 -90.04c0,-8.76 -0.6,-26.17 -1.74,-52.13zm193.98 82.31c20.74,1.46 35.74,6.7 44.99,15.73 9.2,9.03 13.8,21.52 13.8,37.48 0,20.17 -7.72,37.58 -23.15,52.18 -15.44,14.65 -35.04,21.95 -58.85,21.95l-11.42 -0.32c-9.7,-0.43 -17.87,-0.65 -24.55,-0.65 -4.85,0 -10.79,0.16 -17.86,0.54l-12.03 0.43 0 -7.13c5.99,-3.19 9.55,-5.57 10.69,-7.3 1.09,-1.68 1.79,-4.49 1.93,-8.39 0.69,-12.54 1.04,-26.87 1.04,-42.93l0 -98.69c0,-26.39 -0.89,-41.31 -2.62,-44.83 -2.08,-4.11 -7.27,-6.16 -15.44,-6.16l-9.85 0 0 -9.73 12.02 0 13.32 0.48c6.98,0.33 12.41,0.49 16.38,0.49 6.08,0 18.11,-0.27 36.12,-0.81l21.13 -0.49c16.62,0 29.05,3.19 37.26,9.52 10.34,8.05 15.49,19.41 15.49,34.07 0,12.05 -3.66,22.65 -10.93,31.74 -7.33,9.08 -19.8,16.71 -37.47,22.82zm-48.1 -4.38c4.85,0.21 9.26,0.32 13.32,0.32 19.24,0 33.01,-3.73 41.32,-11.19 8.31,-7.41 12.47,-18.17 12.47,-32.23 0,-12.11 -3.47,-21.47 -10.44,-27.96 -6.93,-6.49 -18.07,-9.73 -33.3,-9.73 -6.78,0 -14.16,0.7 -22.08,2.05 -0.84,12.93 -1.29,32.45 -1.29,58.57l0 20.17zm0 115.88c9.01,1.46 16.44,2.22 22.37,2.22 17.08,0 30.39,-4.98 39.79,-14.93 9.45,-9.95 14.15,-23.47 14.15,-40.55 0,-11.41 -2.08,-20.82 -6.24,-28.23 -4.15,-7.41 -9.99,-12.87 -17.47,-16.28 -7.52,-3.4 -19.49,-5.14 -35.91,-5.14 -4.95,0 -10.5,0.11 -16.69,0.33l0 56.18 0.15 19.96c0.3,7.19 0.45,12.65 0.45,16.49 0,2.81 -0.2,6.16 -0.6,9.95zm137.27 -96.85c0,-34.72 10.25,-62.67 30.73,-83.87 20.49,-21.25 47.76,-31.85 81.9,-31.85 33.4,0 59.63,9.84 78.63,29.53 18.95,19.68 28.46,45.85 28.46,78.46 0,35.15 -11.04,64.56 -33.07,88.19 -22.01,23.64 -49.78,35.48 -83.33,35.48 -20.92,0 -39.03,-4.65 -54.18,-13.95 -15.19,-9.25 -27.17,-22.82 -35.93,-40.67 -8.8,-17.84 -13.21,-38.28 -13.21,-61.32zm29.39 -12.98c0,23.9 3.76,44.67 11.24,62.35 7.47,17.68 17.52,30.88 30.09,39.69 12.56,8.82 26.91,13.25 43.05,13.25 14.99,0 28.05,-3.73 39.29,-11.25 11.18,-7.46 19.99,-18.65 26.42,-33.58 6.43,-14.87 9.65,-32.98 9.65,-54.29 0,-22.39 -3.56,-41.53 -10.64,-57.37 -7.13,-15.9 -16.87,-27.85 -29.25,-35.85 -12.37,-8.06 -26.96,-12.06 -43.88,-12.06 -15.5,0 -28.8,3.51 -40.04,10.6 -11.18,7.08 -19.99,17.46 -26.37,31.14 -6.39,13.63 -9.56,29.47 -9.56,47.37zm301.47 0.65l98.52 100.74 9 9.3c1.83,2.01 3.66,3.36 5.55,3.95 1.87,0.65 4.99,0.98 9.35,0.98l0 10.05c-7.92,-0.65 -14.84,-0.97 -20.84,-0.97 -6.27,0 -13.11,0.32 -20.53,0.97l-99.91 -103.5c-3.36,-3.51 -5.44,-5.24 -6.19,-5.24 -2.02,0 -3.07,2.05 -3.07,6.16l0 48.24c0,23.52 0.45,36.39 1.3,38.61 1.48,3.78 6.72,5.68 15.73,5.68l10.89 0 0 10.05c-15.79,-0.65 -29.75,-0.97 -41.92,-0.97 -12.76,0 -26.53,0.32 -41.22,0.97l0 -10.05 11.73 0c7.72,0 12.33,-1.57 13.85,-4.66 1.54,-3.13 2.33,-16.54 2.33,-40.23l0 -105.77c0,-28.98 -0.79,-45.31 -2.33,-48.94 -1.52,-3.62 -6.13,-5.46 -13.85,-5.46l-11.73 0 0 -10.05c17.71,0.64 30.54,0.97 38.45,0.97 5.69,0 20.59,-0.33 44.69,-0.97l0 10.05 -11.48 0.49c-6.59,0.32 -10.74,1.3 -12.53,2.92 -1.73,1.62 -2.82,4.87 -3.26,9.73 -0.44,4.82 -0.65,18.77 -0.65,41.86l0 42.66 2.04 0c7.91,-7.08 14.74,-13.52 20.43,-19.36 5.69,-5.89 15.1,-16.11 28.11,-30.82l41.17 -46.5 0 -11.03c10.64,0.64 19.45,0.97 26.42,0.97 7.23,0 15.25,-0.33 24.05,-0.97l0 10.05 -7.81 0c-6.98,0 -12.87,1.46 -17.72,4.33 -4.79,2.92 -15.99,13.09 -33.45,30.61l-55.12 55.15zm288.44 48.78l-83.83 0 -9.9 25.68c-6.48,16.87 -9.74,27.2 -9.74,30.99 0,2.43 0.59,4.16 1.83,5.24 1.19,1.03 4.25,1.9 9.2,2.55l13.9 1.73 0 10.05c-9.25,-0.65 -19.69,-0.97 -31.32,-0.97 -13.9,0 -26.17,0.32 -36.71,0.97l0 -10.05 4.35 -0.17c6.78,-0.21 11.14,-0.97 13.16,-2.27 1.99,-1.35 4.06,-4.59 6.29,-9.73 6.88,-15.25 13.91,-31.64 21.08,-49.26l39.93 -98.64c10.64,-26.17 17.92,-45.15 21.78,-56.99l9.79 0 73.44 186.34c4.95,12.65 8.21,20.28 9.84,22.87 1.69,2.6 3.57,4.44 5.7,5.57 2.13,1.09 6.88,1.84 14.34,2.28l0 10.05c-12.56,-0.65 -24.54,-0.97 -35.97,-0.97 -10.64,0 -24.79,0.32 -42.51,0.97l0 -10.05 14.35 -0.98c5.16,-0.38 8.22,-0.97 9.16,-1.73 1.43,-1.13 2.18,-2.65 2.18,-4.43 0,-1.9 -1.44,-6.87 -4.35,-14.87l-15.99 -44.18zm-78.38 -12.98l72.93 0 -36.42 -94.9 -36.51 94.9zm276.42 -121.67c-1.04,15.84 -1.59,32.5 -1.59,50.02l0 90.2c0,33.58 0.8,52.02 2.33,55.48 1.54,3.41 7.03,5.14 16.53,5.14l10.84 0 0 10.05c-17.12,-0.65 -31.63,-0.97 -43.51,-0.97 -11.96,0 -26.37,0.32 -43.19,0.97l0 -10.05 12.17 0c6.38,0 10.54,-0.92 12.48,-2.76 1.92,-1.84 3.11,-5.46 3.6,-10.87 0.94,-12.33 1.44,-28.28 1.44,-47.8l0 -90.36c0,-17.79 -0.35,-34.18 -0.99,-49.05l-14.74 0c-23.76,0 -36.83,0.6 -39.25,1.84 -2.43,1.19 -4.01,5.95 -4.75,14.22l-2.02 21.25 -9.21 0 0.29 -18.82c0,-7.62 -0.59,-18.54 -1.77,-32.76 52.2,0.64 82.88,0.97 92.04,0.97l80.16 -0.97c-1.88,17.84 -2.97,35.04 -3.26,51.58l-9.21 0 -1.44 -20.82c-0.59,-7.19 -1.38,-11.46 -2.47,-12.76 -1.04,-1.3 -3.41,-2.16 -7.07,-2.43 -10.6,-0.87 -22.62,-1.3 -36.13,-1.3l-11.28 0z"/>
  <path class="fil1 str1" d="M3072.7 2753.38c-0.47,-7.88 -2.06,-15.76 -4.82,-23.58 -3.89,-11.23 -5.83,-18.99 -5.83,-23.22 0,-6 1.42,-10.53 4.18,-13.65 2.82,-3.11 6.29,-4.64 10.46,-4.64 3.53,0 6.65,1.53 9.29,4.64 2.65,3.12 3.94,7.53 3.94,13.29 0,5.18 -1.53,12.35 -4.52,21.58 -3.06,9.29 -4.94,17.82 -5.65,25.58 6.35,-4 12,-8.88 17.05,-14.64 7.82,-9.06 13.64,-14.7 17.41,-16.88 3.82,-2.17 7.64,-3.23 11.58,-3.23 3.76,0 6.94,1.29 9.52,3.88 2.59,2.53 3.88,5.64 3.88,9.17 0,4.29 -1.88,8.06 -5.7,11.41 -3.76,3.29 -13.23,6.64 -28.4,9.99 -8.82,1.94 -16.17,4.18 -22.05,6.7 6,3.12 13.29,5.47 21.88,7.06 13.87,2.53 22.98,5.7 27.28,9.47 4.35,3.82 6.46,7.93 6.46,12.4 0,3.47 -1.29,6.41 -3.88,8.94 -2.58,2.53 -5.58,3.82 -8.99,3.82 -3.47,0 -7.29,-1.23 -11.47,-3.64 -4.17,-2.42 -9.87,-7.82 -16.99,-16.17 -4.7,-5.65 -10.52,-10.94 -17.58,-15.88 0.24,6.59 1.59,13.7 4,21.4 4.12,13.53 6.17,22.76 6.17,27.7 0,4.58 -1.35,8.46 -4.11,11.64 -2.77,3.17 -5.71,4.76 -8.76,4.76 -4.29,0 -8.12,-1.71 -11.59,-5 -2.41,-2.41 -3.58,-6.29 -3.58,-11.58 0,-5.47 1.29,-12.11 3.94,-19.87 2.64,-7.76 4.29,-13.11 4.99,-16 0.71,-2.94 1.36,-7.29 1.89,-13.05 -6.77,4.53 -12.7,9.47 -17.7,14.99 -8.41,9.41 -14.7,15.41 -18.99,17.94 -3,1.82 -6.06,2.76 -9.29,2.76 -3.88,0 -7.23,-1.35 -10,-4 -2.76,-2.64 -4.11,-5.52 -4.11,-8.76 0,-2.88 1.17,-5.88 3.53,-9.05 2.35,-3.18 5.88,-5.76 10.58,-7.82 3.11,-1.41 10.17,-3.24 21.16,-5.53 7.12,-1.47 14.12,-3.64 20.88,-6.53 -6.24,-3.11 -13.64,-5.52 -22.23,-7.23 -14.11,-3 -22.87,-5.7 -26.16,-8.11 -5.18,-3.76 -7.76,-8.41 -7.76,-13.76 0,-3.11 1.29,-5.94 3.88,-8.52 2.59,-2.59 5.58,-3.88 9.05,-3.88 3.77,0 7.76,1.17 12.06,3.58 4.23,2.41 9.52,7.29 15.81,14.58 6.35,7.29 12.76,12.94 19.29,16.94z"/>
  <g id="_992267616">
   <path class="fil3 str8" d="M2016.91 2495.66c12.18,-14.69 10.78,-42.86 -5.42,-78.09 -16.21,-35.22 -47.2,-77.47 -64.11,-159.19 -16.91,-81.71 -19.72,-202.87 -12.68,-262.74 7.05,-59.87 23.95,-58.47 29.59,-64.8 5.63,-6.35 0,-20.43 -6.34,-31 -6.34,-10.57 -13.39,-17.6 -18.31,-57.75 -4.94,-40.16 -7.76,-113.41 1.41,-176.1 9.15,-62.7 30.28,-114.82 43.67,-159.2 13.38,-44.38 19.02,-81 21.13,-112.7 2.11,-31.7 0.7,-58.47 8.46,-68.33 7.74,-9.86 24.64,-2.82 40.14,17.61 15.49,20.43 29.58,54.23 37.33,81.71 7.75,27.47 9.16,48.6 7.04,67.63 -2.11,19.01 -7.74,35.92 -2.82,47.19 4.94,11.27 20.44,16.89 33.12,34.51 12.68,17.61 22.54,47.19 29.58,107.78 7.05,60.57 11.27,152.15 11.97,226.82 0.71,74.66 -2.1,132.41 -12.68,166.92 -10.56,34.53 -28.87,45.8 -38.73,54.95 -9.87,9.16 -11.28,16.21 -6.35,21.84 4.94,5.64 16.21,9.87 25.36,24.65 9.16,14.8 16.21,40.15 15.5,72.56 -0.7,32.4 -9.16,71.85 -19.73,101.44 -10.56,29.58 -23.24,49.3 -33.1,61.98 -9.86,12.68 -16.91,18.31 -21.13,35.22 -4.23,16.91 -5.64,45.08 5.99,58.29 11.62,13.21 36.28,11.45 60.94,9.69 -2.12,9.86 -4.22,19.73 -13.03,28.35 -8.81,8.63 -24.32,16.03 -23.79,28.35 0.54,12.33 17.09,29.6 38.22,42.28 21.14,12.68 46.84,20.77 62.17,40.15 15.34,19.38 20.29,50.03 10.43,72.57 -9.85,22.54 -34.54,36.96 -83.51,44.17 -48.97,7.22 -122.22,7.22 -172.57,4.76 -50.35,-2.46 -77.8,-7.37 -92.76,-27.27 -14.95,-19.89 -17.42,-54.76 -5.1,-79.07 12.31,-24.31 39.4,-38.05 63.34,-53.03 23.93,-14.97 44.72,-31.17 48.42,-42.79 3.7,-11.62 -9.69,-18.67 -16.75,-28.29 -7.07,-9.61 -7.82,-21.79 -8.56,-33.98 25.75,-1.2 51.49,-2.4 63.66,-17.09zm21.14 -778.59c-0.71,44.02 -1.42,122.21 -1.77,220.48 -0.35,98.27 -0.35,216.6 -0.7,290.92 -0.36,74.31 -1.06,104.61 1.05,122.22 2.11,17.6 7.04,22.54 15.5,15.49 8.45,-7.04 20.42,-26.07 23.24,-135.96 2.82,-109.88 -3.52,-310.63 -6.69,-422.28 -3.17,-111.66 -3.17,-134.19 -6.7,-148.28 -3.52,-14.09 -10.55,-19.72 -14.78,-19.37 -4.23,0.35 -5.63,6.69 -6.69,14.79 -1.06,8.1 -1.76,17.96 -2.46,61.99zm32.43 1002.37c8.45,-5.98 26.07,-8.8 39.09,-12.68 13.04,-3.87 21.49,-8.8 28.18,-14.43 6.7,-5.64 11.63,-11.98 18.32,-13.75 6.7,-1.75 15.14,1.07 19.72,9.16 4.58,8.1 5.28,21.49 -9.51,33.11 -14.78,11.62 -45.08,21.49 -64.8,25 -19.72,3.53 -28.88,0.71 -33.82,-5.28 -4.92,-5.98 -5.62,-15.14 2.82,-21.13z"/>
   <path class="fil0 str9" d="M1839.48 2405.58c16.2,-1.41 32.41,-2.82 47.19,-1.06 14.79,1.76 28.18,6.69 37.69,14.43 9.51,7.76 15.14,18.33 16.55,17.27 1.41,-1.06 -1.41,-13.74 -8.1,-29.59 -6.69,-15.84 -17.26,-34.87 -27.12,-47.19 -9.86,-12.33 -19.02,-17.96 -31.87,-23.08 -12.85,-5.11 -29.39,-9.7 -48.11,-5.89 -18.73,3.82 -39.64,16.04 -60.54,28.26"/>
   <path class="fil3 str9" d="M1727.56 1775.77c-1.44,214.87 -2.87,429.73 -4.31,644.6 13.38,-17.61 26.77,-35.22 41.92,-61.64 15.14,-26.42 32.04,-61.63 46.49,-91.57 14.43,-29.93 26.41,-54.59 33.46,-84.53 7.04,-29.93 9.15,-65.16 4.58,-104.25 -4.58,-39.1 -15.85,-82.07 -33.48,-127.38 -17.63,-45.31 -41.61,-92.96 -57.45,-122.56 -15.84,-29.6 -23.53,-41.13 -31.21,-52.67z"/>
   <path class="fil0 str9" d="M2260.5 2405.58c-16.2,-1.41 -32.41,-2.82 -47.19,-1.06 -14.79,1.76 -28.18,6.69 -37.69,14.43 -9.51,7.76 -15.14,18.33 -16.55,17.27 -1.41,-1.06 1.41,-13.74 8.1,-29.59 6.69,-15.84 17.26,-34.87 27.12,-47.19 9.86,-12.33 19.02,-17.96 31.87,-23.08 12.85,-5.11 29.39,-9.7 48.11,-5.89 18.73,3.82 39.64,16.04 60.54,28.26"/>
   <path class="fil3 str9" d="M2372.42 1775.77c1.44,214.87 2.87,429.73 4.31,644.6 -13.38,-17.61 -26.77,-35.22 -41.92,-61.64 -15.14,-26.42 -32.05,-61.63 -46.49,-91.57 -14.43,-29.93 -26.41,-54.59 -33.46,-84.53 -7.04,-29.93 -9.15,-65.16 -4.58,-104.25 4.58,-39.1 15.85,-82.07 33.48,-127.38 17.63,-45.31 41.61,-92.96 57.45,-122.56 15.84,-29.6 23.53,-41.13 31.21,-52.67z"/>
  </g>
  <path class="fil0 str9" d="M2050 150c1049.33,0 1899.99,850.67 1899.99,1900 0,1049.33 -850.66,1900 -1899.99,1900 -1049.34,0 -1900,-850.67 -1900,-1900 0,-1049.33 850.66,-1900 1900,-1900z"/>
  <g id="_992283552">
   <path class="fil0 str10" d="M1425.8 2874.89c367.29,-0.03 734.59,-0.08 1101.88,-0.11 26.36,-34.36 52.7,-68.73 78.47,-120.85 25.78,-52.13 50.98,-121.99 63.01,-191.3 12.03,-69.31 10.88,-138.04 6.87,-210.21 -4.01,-72.17 -10.88,-147.77 -27.5,-231.4 -16.6,-83.62 -42.95,-175.26 -59.56,-268.05 -16.61,-92.79 -23.48,-186.73 -25.26,-260.78 -1.78,-74.05 1.54,-128.21 4.85,-182.38 55.11,0.32 110.22,0.66 165.32,0.98 1.15,-5.73 2.3,-11.46 2.87,-24.06 0.57,-12.6 0.57,-32.07 -1.15,-49.25 -1.72,-17.19 -5.15,-32.09 -10.88,-48.12 -5.73,-16.04 -13.74,-33.22 -27.85,-45.6 -14.11,-12.37 -34.32,-19.93 -110.19,-22.46 -75.85,-2.55 -207.36,-0.06 -339.88,1.43 -132.52,1.49 -266.04,1.98 -380.92,2.23 -114.87,0.25 -211.1,0.25 -307.32,0.25 -26.35,42.38 -52.69,84.77 -76.18,133.46 -23.48,48.68 -44.11,103.66 -55.56,168.38 -11.45,64.73 -13.74,139.19 -9.73,213.08 4.01,73.89 14.32,147.2 26.92,209.07 12.59,61.85 27.49,112.25 41.81,167.24 14.32,54.99 28.06,114.55 36.08,175.84 8.02,61.28 10.31,124.29 11.46,183.85 1.14,59.57 1.14,115.71 -1.71,165.53 -2.87,49.84 -8.61,93.37 -19.74,128.59 -11.12,35.23 -27.65,62.15 -42.9,78.2 -15.25,16.06 -29.23,21.24 -43.87,16.38 -14.65,-4.86 -29.97,-19.8 -41.06,-39.86 -11.09,-20.06 -17.97,-45.26 -20.26,-70.46 -2.29,-25.2 0,-50.41 2.29,-75.61 52.69,1.15 105.39,2.29 158.09,3.43 0,1.14 0,2.3 0,3.44"/>
   <path class="fil0 str10" d="M2639.77 1230.57c-19.04,36.01 -38.06,72.03 -51.59,104.93 -13.53,32.89 -21.54,62.69 -24.75,99.92 -3.21,37.23 -1.62,81.91 -0.02,126.59"/>
  </g>
 </g>
</svg>
